G04 Layer_Color=32896*
%FSLAX25Y25*%
%MOIN*%
G70*
G01*
G75*
%ADD21C,0.00600*%
%ADD22C,0.00787*%
%ADD23C,0.00500*%
D21*
X85959Y230070D02*
G03*
X85959Y223930I10041J-3070D01*
G01*
Y230070D02*
G03*
X85959Y223930I10041J-3070D01*
G01*
X66959Y230070D02*
G03*
X66959Y223930I10041J-3070D01*
G01*
Y230070D02*
G03*
X66959Y223930I10041J-3070D01*
G01*
X46959Y230070D02*
G03*
X46959Y223930I10041J-3070D01*
G01*
Y230070D02*
G03*
X46959Y223930I10041J-3070D01*
G01*
X27459Y230070D02*
G03*
X27459Y223930I10041J-3070D01*
G01*
Y230070D02*
G03*
X27459Y223930I10041J-3070D01*
G01*
X298459Y230070D02*
G03*
X298459Y223930I10041J-3070D01*
G01*
Y230070D02*
G03*
X298459Y223930I10041J-3070D01*
G01*
X317959Y230070D02*
G03*
X317959Y223930I10041J-3070D01*
G01*
Y230070D02*
G03*
X317959Y223930I10041J-3070D01*
G01*
X337959Y230070D02*
G03*
X337959Y223930I10041J-3070D01*
G01*
Y230070D02*
G03*
X337959Y223930I10041J-3070D01*
G01*
X356959Y230070D02*
G03*
X356959Y223930I10041J-3070D01*
G01*
Y230070D02*
G03*
X356959Y223930I10041J-3070D01*
G01*
X162959Y230070D02*
G03*
X162959Y223930I10041J-3070D01*
G01*
Y230070D02*
G03*
X162959Y223930I10041J-3070D01*
G01*
X182459Y230070D02*
G03*
X182459Y223930I10041J-3070D01*
G01*
Y230070D02*
G03*
X182459Y223930I10041J-3070D01*
G01*
X202459Y230070D02*
G03*
X202459Y223930I10041J-3070D01*
G01*
Y230070D02*
G03*
X202459Y223930I10041J-3070D01*
G01*
X221459Y230070D02*
G03*
X221459Y223930I10041J-3070D01*
G01*
Y230070D02*
G03*
X221459Y223930I10041J-3070D01*
G01*
X85959Y366070D02*
G03*
X85959Y359930I10041J-3070D01*
G01*
Y366070D02*
G03*
X85959Y359930I10041J-3070D01*
G01*
X66959Y366070D02*
G03*
X66959Y359930I10041J-3070D01*
G01*
Y366070D02*
G03*
X66959Y359930I10041J-3070D01*
G01*
X46959Y366070D02*
G03*
X46959Y359930I10041J-3070D01*
G01*
Y366070D02*
G03*
X46959Y359930I10041J-3070D01*
G01*
X27459Y366070D02*
G03*
X27459Y359930I10041J-3070D01*
G01*
Y366070D02*
G03*
X27459Y359930I10041J-3070D01*
G01*
X298459Y366070D02*
G03*
X298459Y359930I10041J-3070D01*
G01*
Y366070D02*
G03*
X298459Y359930I10041J-3070D01*
G01*
X317959Y366070D02*
G03*
X317959Y359930I10041J-3070D01*
G01*
Y366070D02*
G03*
X317959Y359930I10041J-3070D01*
G01*
X337959Y366070D02*
G03*
X337959Y359930I10041J-3070D01*
G01*
Y366070D02*
G03*
X337959Y359930I10041J-3070D01*
G01*
X356959Y366070D02*
G03*
X356959Y359930I10041J-3070D01*
G01*
Y366070D02*
G03*
X356959Y359930I10041J-3070D01*
G01*
X162959Y366070D02*
G03*
X162959Y359930I10041J-3070D01*
G01*
Y366070D02*
G03*
X162959Y359930I10041J-3070D01*
G01*
X182459Y366070D02*
G03*
X182459Y359930I10041J-3070D01*
G01*
Y366070D02*
G03*
X182459Y359930I10041J-3070D01*
G01*
X202459Y366070D02*
G03*
X202459Y359930I10041J-3070D01*
G01*
Y366070D02*
G03*
X202459Y359930I10041J-3070D01*
G01*
X221459Y366070D02*
G03*
X221459Y359930I10041J-3070D01*
G01*
Y366070D02*
G03*
X221459Y359930I10041J-3070D01*
G01*
X220959Y95570D02*
G03*
X220959Y89430I10041J-3070D01*
G01*
Y95570D02*
G03*
X220959Y89430I10041J-3070D01*
G01*
X201959Y95570D02*
G03*
X201959Y89430I10041J-3070D01*
G01*
Y95570D02*
G03*
X201959Y89430I10041J-3070D01*
G01*
X181959Y95570D02*
G03*
X181959Y89430I10041J-3070D01*
G01*
Y95570D02*
G03*
X181959Y89430I10041J-3070D01*
G01*
X162459Y95570D02*
G03*
X162459Y89430I10041J-3070D01*
G01*
Y95570D02*
G03*
X162459Y89430I10041J-3070D01*
G01*
X356459Y95570D02*
G03*
X356459Y89430I10041J-3070D01*
G01*
Y95570D02*
G03*
X356459Y89430I10041J-3070D01*
G01*
X337459Y95570D02*
G03*
X337459Y89430I10041J-3070D01*
G01*
Y95570D02*
G03*
X337459Y89430I10041J-3070D01*
G01*
X317459Y95570D02*
G03*
X317459Y89430I10041J-3070D01*
G01*
Y95570D02*
G03*
X317459Y89430I10041J-3070D01*
G01*
X297959Y95570D02*
G03*
X297959Y89430I10041J-3070D01*
G01*
Y95570D02*
G03*
X297959Y89430I10041J-3070D01*
G01*
X26959Y95570D02*
G03*
X26959Y89430I10041J-3070D01*
G01*
Y95570D02*
G03*
X26959Y89430I10041J-3070D01*
G01*
X46459Y95570D02*
G03*
X46459Y89430I10041J-3070D01*
G01*
Y95570D02*
G03*
X46459Y89430I10041J-3070D01*
G01*
X66459Y95570D02*
G03*
X66459Y89430I10041J-3070D01*
G01*
Y95570D02*
G03*
X66459Y89430I10041J-3070D01*
G01*
X85459Y95570D02*
G03*
X85459Y89430I10041J-3070D01*
G01*
Y95570D02*
G03*
X85459Y89430I10041J-3070D01*
G01*
X97000Y228126D02*
Y235874D01*
Y218126D02*
Y225874D01*
Y228126D02*
Y235874D01*
Y218126D02*
Y225874D01*
X78000Y228126D02*
Y235874D01*
Y218126D02*
Y225874D01*
Y228126D02*
Y235874D01*
Y218126D02*
Y225874D01*
X58000Y228126D02*
Y235874D01*
Y218126D02*
Y225874D01*
Y228126D02*
Y235874D01*
Y218126D02*
Y225874D01*
X38500Y228126D02*
Y235874D01*
Y218126D02*
Y225874D01*
Y228126D02*
Y235874D01*
Y218126D02*
Y225874D01*
X309500Y228126D02*
Y235874D01*
Y218126D02*
Y225874D01*
Y228126D02*
Y235874D01*
Y218126D02*
Y225874D01*
X329000Y228126D02*
Y235874D01*
Y218126D02*
Y225874D01*
Y228126D02*
Y235874D01*
Y218126D02*
Y225874D01*
X349000Y228126D02*
Y235874D01*
Y218126D02*
Y225874D01*
Y228126D02*
Y235874D01*
Y218126D02*
Y225874D01*
X368000Y228126D02*
Y235874D01*
Y218126D02*
Y225874D01*
Y228126D02*
Y235874D01*
Y218126D02*
Y225874D01*
X174000Y228126D02*
Y235874D01*
Y218126D02*
Y225874D01*
Y228126D02*
Y235874D01*
Y218126D02*
Y225874D01*
X193500Y228126D02*
Y235874D01*
Y218126D02*
Y225874D01*
Y228126D02*
Y235874D01*
Y218126D02*
Y225874D01*
X213500Y228126D02*
Y235874D01*
Y218126D02*
Y225874D01*
Y228126D02*
Y235874D01*
Y218126D02*
Y225874D01*
X232500Y228126D02*
Y235874D01*
Y218126D02*
Y225874D01*
Y228126D02*
Y235874D01*
Y218126D02*
Y225874D01*
X97000Y364126D02*
Y371874D01*
Y354126D02*
Y361874D01*
Y364126D02*
Y371874D01*
Y354126D02*
Y361874D01*
X78000Y364126D02*
Y371874D01*
Y354126D02*
Y361874D01*
Y364126D02*
Y371874D01*
Y354126D02*
Y361874D01*
X58000Y364126D02*
Y371874D01*
Y354126D02*
Y361874D01*
Y364126D02*
Y371874D01*
Y354126D02*
Y361874D01*
X38500Y364126D02*
Y371874D01*
Y354126D02*
Y361874D01*
Y364126D02*
Y371874D01*
Y354126D02*
Y361874D01*
X309500Y364126D02*
Y371874D01*
Y354126D02*
Y361874D01*
Y364126D02*
Y371874D01*
Y354126D02*
Y361874D01*
X329000Y364126D02*
Y371874D01*
Y354126D02*
Y361874D01*
Y364126D02*
Y371874D01*
Y354126D02*
Y361874D01*
X349000Y364126D02*
Y371874D01*
Y354126D02*
Y361874D01*
Y364126D02*
Y371874D01*
Y354126D02*
Y361874D01*
X368000Y364126D02*
Y371874D01*
Y354126D02*
Y361874D01*
Y364126D02*
Y371874D01*
Y354126D02*
Y361874D01*
X174000Y364126D02*
Y371874D01*
Y354126D02*
Y361874D01*
Y364126D02*
Y371874D01*
Y354126D02*
Y361874D01*
X193500Y364126D02*
Y371874D01*
Y354126D02*
Y361874D01*
Y364126D02*
Y371874D01*
Y354126D02*
Y361874D01*
X213500Y364126D02*
Y371874D01*
Y354126D02*
Y361874D01*
Y364126D02*
Y371874D01*
Y354126D02*
Y361874D01*
X232500Y364126D02*
Y371874D01*
Y354126D02*
Y361874D01*
Y364126D02*
Y371874D01*
Y354126D02*
Y361874D01*
X232000Y93626D02*
Y101374D01*
Y83626D02*
Y91374D01*
Y93626D02*
Y101374D01*
Y83626D02*
Y91374D01*
X213000Y93626D02*
Y101374D01*
Y83626D02*
Y91374D01*
Y93626D02*
Y101374D01*
Y83626D02*
Y91374D01*
X193000Y93626D02*
Y101374D01*
Y83626D02*
Y91374D01*
Y93626D02*
Y101374D01*
Y83626D02*
Y91374D01*
X173500Y93626D02*
Y101374D01*
Y83626D02*
Y91374D01*
Y93626D02*
Y101374D01*
Y83626D02*
Y91374D01*
X367500Y93626D02*
Y101374D01*
Y83626D02*
Y91374D01*
Y93626D02*
Y101374D01*
Y83626D02*
Y91374D01*
X348500Y93626D02*
Y101374D01*
Y83626D02*
Y91374D01*
Y93626D02*
Y101374D01*
Y83626D02*
Y91374D01*
X328500Y93626D02*
Y101374D01*
Y83626D02*
Y91374D01*
Y93626D02*
Y101374D01*
Y83626D02*
Y91374D01*
X309000Y93626D02*
Y101374D01*
Y83626D02*
Y91374D01*
Y93626D02*
Y101374D01*
Y83626D02*
Y91374D01*
X38000Y93626D02*
Y101374D01*
Y83626D02*
Y91374D01*
Y93626D02*
Y101374D01*
Y83626D02*
Y91374D01*
X57500Y93626D02*
Y101374D01*
Y83626D02*
Y91374D01*
Y93626D02*
Y101374D01*
Y83626D02*
Y91374D01*
X77500Y93626D02*
Y101374D01*
Y83626D02*
Y91374D01*
Y93626D02*
Y101374D01*
Y83626D02*
Y91374D01*
X96500Y93626D02*
Y101374D01*
Y83626D02*
Y91374D01*
Y93626D02*
Y101374D01*
Y83626D02*
Y91374D01*
D22*
X35858Y190657D02*
G03*
X35858Y190657I-394J0D01*
G01*
D02*
G03*
X35858Y190657I-394J0D01*
G01*
X306858D02*
G03*
X306858Y190657I-394J0D01*
G01*
D02*
G03*
X306858Y190657I-394J0D01*
G01*
X171358D02*
G03*
X171358Y190657I-394J0D01*
G01*
D02*
G03*
X171358Y190657I-394J0D01*
G01*
X35858Y326658D02*
G03*
X35858Y326658I-394J0D01*
G01*
D02*
G03*
X35858Y326658I-394J0D01*
G01*
X306858D02*
G03*
X306858Y326658I-394J0D01*
G01*
D02*
G03*
X306858Y326658I-394J0D01*
G01*
X171358D02*
G03*
X171358Y326658I-394J0D01*
G01*
D02*
G03*
X171358Y326658I-394J0D01*
G01*
X170858Y56157D02*
G03*
X170858Y56157I-394J0D01*
G01*
D02*
G03*
X170858Y56157I-394J0D01*
G01*
X306358D02*
G03*
X306358Y56157I-394J0D01*
G01*
D02*
G03*
X306358Y56157I-394J0D01*
G01*
X35358D02*
G03*
X35358Y56157I-394J0D01*
G01*
D02*
G03*
X35358Y56157I-394J0D01*
G01*
D23*
X39402Y186720D02*
X64598D01*
Y213098D01*
X39402D02*
X64598D01*
X39402Y186720D02*
Y213098D01*
Y186720D02*
X64598D01*
Y213098D01*
X39402D02*
X64598D01*
X39402Y186720D02*
Y213098D01*
X310402Y186720D02*
X335598D01*
Y213098D01*
X310402D02*
X335598D01*
X310402Y186720D02*
Y213098D01*
Y186720D02*
X335598D01*
Y213098D01*
X310402D02*
X335598D01*
X310402Y186720D02*
Y213098D01*
X174902Y186720D02*
X200098D01*
Y213098D01*
X174902D02*
X200098D01*
X174902Y186720D02*
Y213098D01*
Y186720D02*
X200098D01*
Y213098D01*
X174902D02*
X200098D01*
X174902Y186720D02*
Y213098D01*
X39402Y322720D02*
X64598D01*
Y349098D01*
X39402D02*
X64598D01*
X39402Y322720D02*
Y349098D01*
Y322720D02*
X64598D01*
Y349098D01*
X39402D02*
X64598D01*
X39402Y322720D02*
Y349098D01*
X310402Y322720D02*
X335598D01*
Y349098D01*
X310402D02*
X335598D01*
X310402Y322720D02*
Y349098D01*
Y322720D02*
X335598D01*
Y349098D01*
X310402D02*
X335598D01*
X310402Y322720D02*
Y349098D01*
X174902Y322720D02*
X200098D01*
Y349098D01*
X174902D02*
X200098D01*
X174902Y322720D02*
Y349098D01*
Y322720D02*
X200098D01*
Y349098D01*
X174902D02*
X200098D01*
X174902Y322720D02*
Y349098D01*
X174402Y52220D02*
X199598D01*
Y78598D01*
X174402D02*
X199598D01*
X174402Y52220D02*
Y78598D01*
Y52220D02*
X199598D01*
Y78598D01*
X174402D02*
X199598D01*
X174402Y52220D02*
Y78598D01*
X309902Y52220D02*
X335098D01*
Y78598D01*
X309902D02*
X335098D01*
X309902Y52220D02*
Y78598D01*
Y52220D02*
X335098D01*
Y78598D01*
X309902D02*
X335098D01*
X309902Y52220D02*
Y78598D01*
X38902Y52220D02*
X64098D01*
Y78598D01*
X38902D02*
X64098D01*
X38902Y52220D02*
Y78598D01*
Y52220D02*
X64098D01*
Y78598D01*
X38902D02*
X64098D01*
X38902Y52220D02*
Y78598D01*
M02*
