G04 Layer_Color=8388736*
%FSLAX25Y25*%
%MOIN*%
G70*
G01*
G75*
%ADD27R,1.22847X0.04737*%
%ADD28R,0.04737X3.94501*%
%ADD29C,0.06706*%
%ADD30R,0.06706X0.06706*%
%ADD31R,0.06706X0.06706*%
%ADD32C,0.08280*%
%ADD33R,0.07887X0.07887*%
%ADD34C,0.06737*%
%ADD35R,0.06737X0.06737*%
D27*
X200500Y132000D02*
D03*
X335500D02*
D03*
Y267500D02*
D03*
X200000D02*
D03*
X64500D02*
D03*
Y132000D02*
D03*
D28*
X268500Y201000D02*
D03*
X133000D02*
D03*
D29*
X14000Y232500D02*
D03*
X15000Y207500D02*
D03*
X14500Y182000D02*
D03*
X36500Y148000D02*
D03*
X60500Y148500D02*
D03*
X85000Y148000D02*
D03*
X117000Y176500D02*
D03*
Y199500D02*
D03*
Y223000D02*
D03*
X91000Y250500D02*
D03*
X68000Y251000D02*
D03*
X45000Y250500D02*
D03*
X46500Y172500D02*
D03*
X56500D02*
D03*
X96000Y232000D02*
D03*
X88500Y227000D02*
D03*
X96000Y222000D02*
D03*
X77000Y232000D02*
D03*
X69500Y227000D02*
D03*
X77000Y222000D02*
D03*
X57000Y232000D02*
D03*
X49500Y227000D02*
D03*
X57000Y222000D02*
D03*
X37500Y232000D02*
D03*
X30000Y227000D02*
D03*
X37500Y222000D02*
D03*
X101000Y193000D02*
D03*
X71000D02*
D03*
X101000Y202000D02*
D03*
X71000D02*
D03*
X101000Y183000D02*
D03*
X71000D02*
D03*
Y210500D02*
D03*
X101000D02*
D03*
Y173500D02*
D03*
X71000D02*
D03*
X372000D02*
D03*
X342000D02*
D03*
Y210500D02*
D03*
X372000D02*
D03*
Y183000D02*
D03*
X342000D02*
D03*
X372000Y202000D02*
D03*
X342000D02*
D03*
X372000Y193000D02*
D03*
X342000D02*
D03*
X308500Y232000D02*
D03*
X301000Y227000D02*
D03*
X308500Y222000D02*
D03*
X328000Y232000D02*
D03*
X320500Y227000D02*
D03*
X328000Y222000D02*
D03*
X348000Y232000D02*
D03*
X340500Y227000D02*
D03*
X348000Y222000D02*
D03*
X367000Y232000D02*
D03*
X359500Y227000D02*
D03*
X367000Y222000D02*
D03*
X317500Y172500D02*
D03*
X327500D02*
D03*
X316000Y250500D02*
D03*
X339000Y251000D02*
D03*
X362000Y250500D02*
D03*
X388000Y223000D02*
D03*
Y199500D02*
D03*
Y176500D02*
D03*
X356000Y148000D02*
D03*
X331500Y148500D02*
D03*
X307500Y148000D02*
D03*
X285500Y182000D02*
D03*
X286000Y207500D02*
D03*
X285000Y232500D02*
D03*
X236500Y173500D02*
D03*
X206500D02*
D03*
Y210500D02*
D03*
X236500D02*
D03*
Y183000D02*
D03*
X206500D02*
D03*
X236500Y202000D02*
D03*
X206500D02*
D03*
X236500Y193000D02*
D03*
X206500D02*
D03*
X173000Y232000D02*
D03*
X165500Y227000D02*
D03*
X173000Y222000D02*
D03*
X192500Y232000D02*
D03*
X185000Y227000D02*
D03*
X192500Y222000D02*
D03*
X212500Y232000D02*
D03*
X205000Y227000D02*
D03*
X212500Y222000D02*
D03*
X231500Y232000D02*
D03*
X224000Y227000D02*
D03*
X231500Y222000D02*
D03*
X182000Y172500D02*
D03*
X192000D02*
D03*
X180500Y250500D02*
D03*
X203500Y251000D02*
D03*
X226500Y250500D02*
D03*
X252500Y223000D02*
D03*
Y199500D02*
D03*
Y176500D02*
D03*
X220500Y148000D02*
D03*
X196000Y148500D02*
D03*
X172000Y148000D02*
D03*
X150000Y182000D02*
D03*
X150500Y207500D02*
D03*
X149500Y232500D02*
D03*
X14000Y368500D02*
D03*
X15000Y343500D02*
D03*
X14500Y318000D02*
D03*
X36500Y284000D02*
D03*
X60500Y284500D02*
D03*
X85000Y284000D02*
D03*
X117000Y312500D02*
D03*
Y335500D02*
D03*
Y359000D02*
D03*
X91000Y386500D02*
D03*
X68000Y387000D02*
D03*
X45000Y386500D02*
D03*
X46500Y308500D02*
D03*
X56500D02*
D03*
X96000Y368000D02*
D03*
X88500Y363000D02*
D03*
X96000Y358000D02*
D03*
X77000Y368000D02*
D03*
X69500Y363000D02*
D03*
X77000Y358000D02*
D03*
X57000Y368000D02*
D03*
X49500Y363000D02*
D03*
X57000Y358000D02*
D03*
X37500Y368000D02*
D03*
X30000Y363000D02*
D03*
X37500Y358000D02*
D03*
X101000Y329000D02*
D03*
X71000D02*
D03*
X101000Y338000D02*
D03*
X71000D02*
D03*
X101000Y319000D02*
D03*
X71000D02*
D03*
Y346500D02*
D03*
X101000D02*
D03*
Y309500D02*
D03*
X71000D02*
D03*
X372000D02*
D03*
X342000D02*
D03*
Y346500D02*
D03*
X372000D02*
D03*
Y319000D02*
D03*
X342000D02*
D03*
X372000Y338000D02*
D03*
X342000D02*
D03*
X372000Y329000D02*
D03*
X342000D02*
D03*
X308500Y368000D02*
D03*
X301000Y363000D02*
D03*
X308500Y358000D02*
D03*
X328000Y368000D02*
D03*
X320500Y363000D02*
D03*
X328000Y358000D02*
D03*
X348000Y368000D02*
D03*
X340500Y363000D02*
D03*
X348000Y358000D02*
D03*
X367000Y368000D02*
D03*
X359500Y363000D02*
D03*
X367000Y358000D02*
D03*
X317500Y308500D02*
D03*
X327500D02*
D03*
X316000Y386500D02*
D03*
X339000Y387000D02*
D03*
X362000Y386500D02*
D03*
X388000Y359000D02*
D03*
Y335500D02*
D03*
Y312500D02*
D03*
X356000Y284000D02*
D03*
X331500Y284500D02*
D03*
X307500Y284000D02*
D03*
X285500Y318000D02*
D03*
X286000Y343500D02*
D03*
X285000Y368500D02*
D03*
X236500Y309500D02*
D03*
X206500D02*
D03*
Y346500D02*
D03*
X236500D02*
D03*
Y319000D02*
D03*
X206500D02*
D03*
X236500Y338000D02*
D03*
X206500D02*
D03*
X236500Y329000D02*
D03*
X206500D02*
D03*
X173000Y368000D02*
D03*
X165500Y363000D02*
D03*
X173000Y358000D02*
D03*
X192500Y368000D02*
D03*
X185000Y363000D02*
D03*
X192500Y358000D02*
D03*
X212500Y368000D02*
D03*
X205000Y363000D02*
D03*
X212500Y358000D02*
D03*
X231500Y368000D02*
D03*
X224000Y363000D02*
D03*
X231500Y358000D02*
D03*
X182000Y308500D02*
D03*
X192000D02*
D03*
X180500Y386500D02*
D03*
X203500Y387000D02*
D03*
X226500Y386500D02*
D03*
X252500Y359000D02*
D03*
Y335500D02*
D03*
Y312500D02*
D03*
X220500Y284000D02*
D03*
X196000Y284500D02*
D03*
X172000Y284000D02*
D03*
X150000Y318000D02*
D03*
X150500Y343500D02*
D03*
X149500Y368500D02*
D03*
X149000Y98000D02*
D03*
X150000Y73000D02*
D03*
X149500Y47500D02*
D03*
X171500Y13500D02*
D03*
X195500Y14000D02*
D03*
X220000Y13500D02*
D03*
X252000Y42000D02*
D03*
Y65000D02*
D03*
Y88500D02*
D03*
X226000Y116000D02*
D03*
X203000Y116500D02*
D03*
X180000Y116000D02*
D03*
X181500Y38000D02*
D03*
X191500D02*
D03*
X231000Y97500D02*
D03*
X223500Y92500D02*
D03*
X231000Y87500D02*
D03*
X212000Y97500D02*
D03*
X204500Y92500D02*
D03*
X212000Y87500D02*
D03*
X192000Y97500D02*
D03*
X184500Y92500D02*
D03*
X192000Y87500D02*
D03*
X172500Y97500D02*
D03*
X165000Y92500D02*
D03*
X172500Y87500D02*
D03*
X236000Y58500D02*
D03*
X206000D02*
D03*
X236000Y67500D02*
D03*
X206000D02*
D03*
X236000Y48500D02*
D03*
X206000D02*
D03*
Y76000D02*
D03*
X236000D02*
D03*
Y39000D02*
D03*
X206000D02*
D03*
X284500Y98000D02*
D03*
X285500Y73000D02*
D03*
X285000Y47500D02*
D03*
X307000Y13500D02*
D03*
X331000Y14000D02*
D03*
X355500Y13500D02*
D03*
X387500Y42000D02*
D03*
Y65000D02*
D03*
Y88500D02*
D03*
X361500Y116000D02*
D03*
X338500Y116500D02*
D03*
X315500Y116000D02*
D03*
X317000Y38000D02*
D03*
X327000D02*
D03*
X366500Y97500D02*
D03*
X359000Y92500D02*
D03*
X366500Y87500D02*
D03*
X347500Y97500D02*
D03*
X340000Y92500D02*
D03*
X347500Y87500D02*
D03*
X327500Y97500D02*
D03*
X320000Y92500D02*
D03*
X327500Y87500D02*
D03*
X308000Y97500D02*
D03*
X300500Y92500D02*
D03*
X308000Y87500D02*
D03*
X371500Y58500D02*
D03*
X341500D02*
D03*
X371500Y67500D02*
D03*
X341500D02*
D03*
X371500Y48500D02*
D03*
X341500D02*
D03*
Y76000D02*
D03*
X371500D02*
D03*
Y39000D02*
D03*
X341500D02*
D03*
X46000Y38000D02*
D03*
X56000D02*
D03*
X37000Y97500D02*
D03*
X29500Y92500D02*
D03*
X37000Y87500D02*
D03*
X56500Y97500D02*
D03*
X49000Y92500D02*
D03*
X56500Y87500D02*
D03*
X76500Y97500D02*
D03*
X69000Y92500D02*
D03*
X76500Y87500D02*
D03*
X95500Y97500D02*
D03*
X88000Y92500D02*
D03*
X95500Y87500D02*
D03*
X44500Y116000D02*
D03*
X67500Y116500D02*
D03*
X90500Y116000D02*
D03*
X116500Y88500D02*
D03*
Y65000D02*
D03*
Y42000D02*
D03*
X84500Y13500D02*
D03*
X60000Y14000D02*
D03*
X36000Y13500D02*
D03*
X14000Y47500D02*
D03*
X14500Y73000D02*
D03*
X13500Y98000D02*
D03*
X100500Y39000D02*
D03*
X70500D02*
D03*
Y76000D02*
D03*
X100500D02*
D03*
Y48500D02*
D03*
X70500D02*
D03*
X100500Y67500D02*
D03*
X70500D02*
D03*
X100500Y58500D02*
D03*
X70500D02*
D03*
D30*
X14000Y222500D02*
D03*
X15000Y197500D02*
D03*
X14500Y172000D02*
D03*
X117000Y186500D02*
D03*
Y209500D02*
D03*
Y233000D02*
D03*
X388000D02*
D03*
Y209500D02*
D03*
Y186500D02*
D03*
X285500Y172000D02*
D03*
X286000Y197500D02*
D03*
X285000Y222500D02*
D03*
X252500Y233000D02*
D03*
Y209500D02*
D03*
Y186500D02*
D03*
X150000Y172000D02*
D03*
X150500Y197500D02*
D03*
X149500Y222500D02*
D03*
X14000Y358500D02*
D03*
X15000Y333500D02*
D03*
X14500Y308000D02*
D03*
X117000Y322500D02*
D03*
Y345500D02*
D03*
Y369000D02*
D03*
X388000D02*
D03*
Y345500D02*
D03*
Y322500D02*
D03*
X285500Y308000D02*
D03*
X286000Y333500D02*
D03*
X285000Y358500D02*
D03*
X252500Y369000D02*
D03*
Y345500D02*
D03*
Y322500D02*
D03*
X150000Y308000D02*
D03*
X150500Y333500D02*
D03*
X149500Y358500D02*
D03*
X149000Y88000D02*
D03*
X150000Y63000D02*
D03*
X149500Y37500D02*
D03*
X252000Y52000D02*
D03*
Y75000D02*
D03*
Y98500D02*
D03*
X284500Y88000D02*
D03*
X285500Y63000D02*
D03*
X285000Y37500D02*
D03*
X387500Y52000D02*
D03*
Y75000D02*
D03*
Y98500D02*
D03*
X116500D02*
D03*
Y75000D02*
D03*
Y52000D02*
D03*
X14000Y37500D02*
D03*
X14500Y63000D02*
D03*
X13500Y88000D02*
D03*
D31*
X46500Y148000D02*
D03*
X70500Y148500D02*
D03*
X95000Y148000D02*
D03*
X81000Y250500D02*
D03*
X58000Y251000D02*
D03*
X35000Y250500D02*
D03*
X306000D02*
D03*
X329000Y251000D02*
D03*
X352000Y250500D02*
D03*
X366000Y148000D02*
D03*
X341500Y148500D02*
D03*
X317500Y148000D02*
D03*
X170500Y250500D02*
D03*
X193500Y251000D02*
D03*
X216500Y250500D02*
D03*
X230500Y148000D02*
D03*
X206000Y148500D02*
D03*
X182000Y148000D02*
D03*
X46500Y284000D02*
D03*
X70500Y284500D02*
D03*
X95000Y284000D02*
D03*
X81000Y386500D02*
D03*
X58000Y387000D02*
D03*
X35000Y386500D02*
D03*
X306000D02*
D03*
X329000Y387000D02*
D03*
X352000Y386500D02*
D03*
X366000Y284000D02*
D03*
X341500Y284500D02*
D03*
X317500Y284000D02*
D03*
X170500Y386500D02*
D03*
X193500Y387000D02*
D03*
X216500Y386500D02*
D03*
X230500Y284000D02*
D03*
X206000Y284500D02*
D03*
X182000Y284000D02*
D03*
X181500Y13500D02*
D03*
X205500Y14000D02*
D03*
X230000Y13500D02*
D03*
X216000Y116000D02*
D03*
X193000Y116500D02*
D03*
X170000Y116000D02*
D03*
X317000Y13500D02*
D03*
X341000Y14000D02*
D03*
X365500Y13500D02*
D03*
X351500Y116000D02*
D03*
X328500Y116500D02*
D03*
X305500Y116000D02*
D03*
X34500D02*
D03*
X57500Y116500D02*
D03*
X80500Y116000D02*
D03*
X94500Y13500D02*
D03*
X70000Y14000D02*
D03*
X46000Y13500D02*
D03*
D32*
X119000Y146500D02*
D03*
X390000D02*
D03*
X254500D02*
D03*
X119000Y282500D02*
D03*
X390000D02*
D03*
X254500D02*
D03*
X254000Y12000D02*
D03*
X389500D02*
D03*
X118500D02*
D03*
D33*
X119000Y156500D02*
D03*
X390000D02*
D03*
X254500D02*
D03*
X119000Y292500D02*
D03*
X390000D02*
D03*
X254500D02*
D03*
X254000Y22000D02*
D03*
X389500D02*
D03*
X118500D02*
D03*
D34*
X61843Y190657D02*
D03*
X52000Y210343D02*
D03*
X332843Y190657D02*
D03*
X323000Y210343D02*
D03*
X197343Y190657D02*
D03*
X187500Y210343D02*
D03*
X61843Y326657D02*
D03*
X52000Y346343D02*
D03*
X332843Y326657D02*
D03*
X323000Y346343D02*
D03*
X197343Y326657D02*
D03*
X187500Y346343D02*
D03*
X196843Y56157D02*
D03*
X187000Y75843D02*
D03*
X332343Y56157D02*
D03*
X322500Y75843D02*
D03*
X61343Y56157D02*
D03*
X51500Y75843D02*
D03*
D35*
X42157Y190657D02*
D03*
X313157D02*
D03*
X177657D02*
D03*
X42157Y326657D02*
D03*
X313157D02*
D03*
X177657D02*
D03*
X177157Y56157D02*
D03*
X312657D02*
D03*
X41657D02*
D03*
M02*
