G04 Layer_Color=32896*
%FSLAX25Y25*%
%MOIN*%
G70*
G01*
G75*
%ADD36C,0.02362*%
D36*
X107000Y160500D02*
Y165748D01*
X104376Y168371D01*
X101752Y165748D01*
Y160500D01*
Y164436D01*
X107000D01*
X99129Y160500D02*
Y161812D01*
X97817D01*
Y160500D01*
X99129D01*
X92569Y168371D02*
X89945D01*
X91257D01*
Y160500D01*
X92569D01*
X89945D01*
X86009D02*
Y161812D01*
X84698D01*
Y160500D01*
X86009D01*
X71578D02*
Y168371D01*
X67643D01*
X66331Y167060D01*
Y164436D01*
X67643Y163124D01*
X71578D01*
X58459Y167060D02*
X59771Y168371D01*
X62395D01*
X63707Y167060D01*
Y161812D01*
X62395Y160500D01*
X59771D01*
X58459Y161812D01*
X55835Y168371D02*
Y160500D01*
X51900D01*
X50588Y161812D01*
Y163124D01*
X51900Y164436D01*
X55835D01*
X51900D01*
X50588Y165748D01*
Y167060D01*
X51900Y168371D01*
X55835D01*
X378000Y160500D02*
Y165748D01*
X375376Y168371D01*
X372752Y165748D01*
Y160500D01*
Y164436D01*
X378000D01*
X370128Y160500D02*
Y161812D01*
X368817D01*
Y160500D01*
X370128D01*
X363569Y168371D02*
X360945D01*
X362257D01*
Y160500D01*
X363569D01*
X360945D01*
X357009D02*
Y161812D01*
X355697D01*
Y160500D01*
X357009D01*
X342578D02*
Y168371D01*
X338643D01*
X337331Y167060D01*
Y164436D01*
X338643Y163124D01*
X342578D01*
X329459Y167060D02*
X330771Y168371D01*
X333395D01*
X334707Y167060D01*
Y161812D01*
X333395Y160500D01*
X330771D01*
X329459Y161812D01*
X326835Y168371D02*
Y160500D01*
X322900D01*
X321588Y161812D01*
Y163124D01*
X322900Y164436D01*
X326835D01*
X322900D01*
X321588Y165748D01*
Y167060D01*
X322900Y168371D01*
X326835D01*
X242500Y160500D02*
Y165748D01*
X239876Y168371D01*
X237252Y165748D01*
Y160500D01*
Y164436D01*
X242500D01*
X234629Y160500D02*
Y161812D01*
X233317D01*
Y160500D01*
X234629D01*
X228069Y168371D02*
X225445D01*
X226757D01*
Y160500D01*
X228069D01*
X225445D01*
X221509D02*
Y161812D01*
X220198D01*
Y160500D01*
X221509D01*
X207078D02*
Y168371D01*
X203143D01*
X201831Y167060D01*
Y164436D01*
X203143Y163124D01*
X207078D01*
X193959Y167060D02*
X195271Y168371D01*
X197895D01*
X199207Y167060D01*
Y161812D01*
X197895Y160500D01*
X195271D01*
X193959Y161812D01*
X191335Y168371D02*
Y160500D01*
X187400D01*
X186088Y161812D01*
Y163124D01*
X187400Y164436D01*
X191335D01*
X187400D01*
X186088Y165748D01*
Y167060D01*
X187400Y168371D01*
X191335D01*
X107000Y296500D02*
Y301748D01*
X104376Y304372D01*
X101752Y301748D01*
Y296500D01*
Y300436D01*
X107000D01*
X99129Y296500D02*
Y297812D01*
X97817D01*
Y296500D01*
X99129D01*
X92569Y304372D02*
X89945D01*
X91257D01*
Y296500D01*
X92569D01*
X89945D01*
X86009D02*
Y297812D01*
X84698D01*
Y296500D01*
X86009D01*
X71578D02*
Y304372D01*
X67643D01*
X66331Y303060D01*
Y300436D01*
X67643Y299124D01*
X71578D01*
X58459Y303060D02*
X59771Y304372D01*
X62395D01*
X63707Y303060D01*
Y297812D01*
X62395Y296500D01*
X59771D01*
X58459Y297812D01*
X55835Y304372D02*
Y296500D01*
X51900D01*
X50588Y297812D01*
Y299124D01*
X51900Y300436D01*
X55835D01*
X51900D01*
X50588Y301748D01*
Y303060D01*
X51900Y304372D01*
X55835D01*
X378000Y296500D02*
Y301748D01*
X375376Y304372D01*
X372752Y301748D01*
Y296500D01*
Y300436D01*
X378000D01*
X370128Y296500D02*
Y297812D01*
X368817D01*
Y296500D01*
X370128D01*
X363569Y304372D02*
X360945D01*
X362257D01*
Y296500D01*
X363569D01*
X360945D01*
X357009D02*
Y297812D01*
X355697D01*
Y296500D01*
X357009D01*
X342578D02*
Y304372D01*
X338643D01*
X337331Y303060D01*
Y300436D01*
X338643Y299124D01*
X342578D01*
X329459Y303060D02*
X330771Y304372D01*
X333395D01*
X334707Y303060D01*
Y297812D01*
X333395Y296500D01*
X330771D01*
X329459Y297812D01*
X326835Y304372D02*
Y296500D01*
X322900D01*
X321588Y297812D01*
Y299124D01*
X322900Y300436D01*
X326835D01*
X322900D01*
X321588Y301748D01*
Y303060D01*
X322900Y304372D01*
X326835D01*
X242500Y296500D02*
Y301748D01*
X239876Y304372D01*
X237252Y301748D01*
Y296500D01*
Y300436D01*
X242500D01*
X234629Y296500D02*
Y297812D01*
X233317D01*
Y296500D01*
X234629D01*
X228069Y304372D02*
X225445D01*
X226757D01*
Y296500D01*
X228069D01*
X225445D01*
X221509D02*
Y297812D01*
X220198D01*
Y296500D01*
X221509D01*
X207078D02*
Y304372D01*
X203143D01*
X201831Y303060D01*
Y300436D01*
X203143Y299124D01*
X207078D01*
X193959Y303060D02*
X195271Y304372D01*
X197895D01*
X199207Y303060D01*
Y297812D01*
X197895Y296500D01*
X195271D01*
X193959Y297812D01*
X191335Y304372D02*
Y296500D01*
X187400D01*
X186088Y297812D01*
Y299124D01*
X187400Y300436D01*
X191335D01*
X187400D01*
X186088Y301748D01*
Y303060D01*
X187400Y304372D01*
X191335D01*
X242000Y26000D02*
Y31248D01*
X239376Y33871D01*
X236752Y31248D01*
Y26000D01*
Y29936D01*
X242000D01*
X234128Y26000D02*
Y27312D01*
X232817D01*
Y26000D01*
X234128D01*
X227569Y33871D02*
X224945D01*
X226257D01*
Y26000D01*
X227569D01*
X224945D01*
X221009D02*
Y27312D01*
X219697D01*
Y26000D01*
X221009D01*
X206578D02*
Y33871D01*
X202643D01*
X201331Y32560D01*
Y29936D01*
X202643Y28624D01*
X206578D01*
X193459Y32560D02*
X194771Y33871D01*
X197395D01*
X198707Y32560D01*
Y27312D01*
X197395Y26000D01*
X194771D01*
X193459Y27312D01*
X190835Y33871D02*
Y26000D01*
X186900D01*
X185588Y27312D01*
Y28624D01*
X186900Y29936D01*
X190835D01*
X186900D01*
X185588Y31248D01*
Y32560D01*
X186900Y33871D01*
X190835D01*
X377500Y26000D02*
Y31248D01*
X374876Y33871D01*
X372252Y31248D01*
Y26000D01*
Y29936D01*
X377500D01*
X369629Y26000D02*
Y27312D01*
X368317D01*
Y26000D01*
X369629D01*
X363069Y33871D02*
X360445D01*
X361757D01*
Y26000D01*
X363069D01*
X360445D01*
X356509D02*
Y27312D01*
X355198D01*
Y26000D01*
X356509D01*
X342078D02*
Y33871D01*
X338143D01*
X336831Y32560D01*
Y29936D01*
X338143Y28624D01*
X342078D01*
X328959Y32560D02*
X330271Y33871D01*
X332895D01*
X334207Y32560D01*
Y27312D01*
X332895Y26000D01*
X330271D01*
X328959Y27312D01*
X326335Y33871D02*
Y26000D01*
X322400D01*
X321088Y27312D01*
Y28624D01*
X322400Y29936D01*
X326335D01*
X322400D01*
X321088Y31248D01*
Y32560D01*
X322400Y33871D01*
X326335D01*
X106500Y26000D02*
Y31248D01*
X103876Y33871D01*
X101252Y31248D01*
Y26000D01*
Y29936D01*
X106500D01*
X98628Y26000D02*
Y27312D01*
X97317D01*
Y26000D01*
X98628D01*
X92069Y33871D02*
X89445D01*
X90757D01*
Y26000D01*
X92069D01*
X89445D01*
X85509D02*
Y27312D01*
X84197D01*
Y26000D01*
X85509D01*
X71078D02*
Y33871D01*
X67143D01*
X65831Y32560D01*
Y29936D01*
X67143Y28624D01*
X71078D01*
X57959Y32560D02*
X59271Y33871D01*
X61895D01*
X63207Y32560D01*
Y27312D01*
X61895Y26000D01*
X59271D01*
X57959Y27312D01*
X55335Y33871D02*
Y26000D01*
X51400D01*
X50088Y27312D01*
Y28624D01*
X51400Y29936D01*
X55335D01*
X51400D01*
X50088Y31248D01*
Y32560D01*
X51400Y33871D01*
X55335D01*
M02*
