M48
;Layer_Color=9474304
;FILE_FORMAT=2:5
INCH,LZ
;TYPE=PLATED
T1F00S00C0.02756
T2F00S00C0.03543
%
T01
X0036Y00135
X0046
Y0038
X0056
X0041657Y0056157
X0014Y00475
Y00375
X00705Y0039
Y00485
X0061343Y0056157
X006Y0014
X007
X00845Y00135
X00945
X01005Y0039
Y00485
X01165Y0052
Y0042
X01495Y00375
Y00475
X0177157Y0056157
X0196843
X0206Y00485
Y0039
X01915Y0038
X01815
Y00135
X01715
X01955Y0014
X02055
X022Y00135
X023
X0236Y0039
Y00485
X0252Y0052
Y0042
X0285Y00375
Y00475
X0312657Y0056157
X0332343
X03415Y00485
Y0039
X0327Y0038
X0317
Y00135
X0307
X0331Y0014
X0341
X03555Y00135
X03655
X03715Y0039
Y00485
X03875Y0052
Y0042
Y0065
Y0075
Y00885
Y00985
X03715Y0076
Y00675
Y00585
X0372Y01735
Y0183
Y0193
Y0202
Y02105
X0388Y02095
Y01995
Y01865
Y01765
X0342Y01735
Y0183
Y0193
Y0202
Y02105
X0323Y0210343
X0332843Y0190657
X0313157
X03175Y01725
X03275
X03315Y01485
X03415
X0356Y0148
X0366
X03615Y0116
X03515
X03385Y01165
X03285
X03155Y0116
X03055
X0308Y00975
Y00875
X03005Y00925
X032
X03275Y00975
Y00875
X03225Y0075843
X03415Y0076
Y00675
Y00585
X03475Y00875
Y00975
X034Y00925
X0359
X03665Y00975
Y00875
X02845Y0088
Y0098
X02855Y0073
Y0063
X0252Y0065
Y0075
Y00885
Y00985
X0231Y00975
Y00875
X02235Y00925
X0226Y0116
X0216
X02205Y0148
X02305
X02365Y01735
Y0183
Y0193
Y0202
Y02105
X02525Y02095
Y01995
Y01865
Y01765
X02855Y0172
Y0182
X0286Y01975
Y02075
X03075Y0148
X03175
X0236Y0076
Y00675
Y00585
X0206
Y00675
Y0076
X0212Y00875
Y00975
X02045Y00925
X0192Y00975
Y00875
X01845Y00925
X01725Y00975
Y00875
X0165Y00925
X0149Y0088
Y0098
X015Y0073
Y0063
X01165Y0065
Y0075
Y00885
Y00985
X00955Y00975
Y00875
X0088Y00925
X00765Y00975
Y00875
X0069Y00925
X00565Y00975
Y00875
X00705Y0076
Y00675
Y00585
X01005
Y00675
Y0076
X00905Y0116
X00805
X00675Y01165
X00575
X00605Y01485
X00705
X0085Y0148
X0095
X0101Y01735
Y0183
Y0193
Y0202
Y02105
X0117Y02095
Y01995
Y01865
Y01765
X015Y0172
Y0182
X01505Y01975
Y02075
X01875Y0210343
X02065Y02105
Y0202
Y0193
Y0183
Y01735
X0192Y01725
X0182
X0177657Y0190657
X0197343
X0196Y01485
X0206
X0182Y0148
X0172
X017Y0116
X018
X0193Y01165
X0203
X0187Y0075843
X0071Y01735
Y0183
Y0193
Y0202
Y02105
X0061843Y0190657
X00565Y01725
X00465
X0042157Y0190657
X0052Y0210343
X0015Y02075
Y01975
X00145Y0182
Y0172
X00365Y0148
X00465
X00445Y0116
X00345
X0037Y00975
Y00875
X00295Y00925
X0049
X00515Y0075843
X00145Y0073
Y0063
X00135Y0088
Y0098
X0014Y02225
Y02325
X003Y0227
X00375Y0232
Y0222
X00495Y0227
X0045Y02505
X0035
X00365Y0284
X00465
Y03085
X0042157Y0326657
X0052Y0346343
X00495Y0363
X00375Y0368
Y0358
X003Y0363
X0014Y03585
Y03685
X0015Y03435
Y03335
X00145Y0318
Y0308
X00565Y03085
X0071Y03095
Y0319
Y0329
Y0338
Y03465
X0077Y0358
Y0368
X00695Y0363
X0057Y0368
Y0358
X0061843Y0326657
X0101Y0329
Y0338
Y03465
X0096Y0358
Y0368
X00885Y0363
X0117Y0359
Y03455
Y03355
Y03225
Y03125
X0101Y03095
Y0319
X0095Y0284
X0085
X00705Y02845
X00605
X0058Y0251
X0068
X0081Y02505
X0091
X0096Y0232
Y0222
X00885Y0227
X0077Y0232
Y0222
X00695Y0227
X0057Y0232
Y0222
X0117Y0223
Y0233
X01495Y02325
Y02225
X01655Y0227
X0173Y0232
Y0222
X0185Y0227
X01925Y0232
Y0222
X0205Y0227
X02035Y0251
X01935
X01805Y02505
X01705
X0172Y0284
X0182
X0196Y02845
X0206
X02065Y03095
Y0319
Y0329
Y0338
Y03465
X0205Y0363
X01925Y0368
Y0358
X0185Y0363
X0173Y0368
Y0358
X01655Y0363
X01495Y03585
Y03685
X01505Y03435
Y03335
X015Y0318
Y0308
X0182Y03085
X0192
X0197343Y0326657
X0177657
X01875Y0346343
X02125Y0358
Y0368
X0224Y0363
X02315Y0368
Y0358
X02365Y03465
Y0338
Y0329
Y0319
Y03095
X02525Y03125
Y03225
Y03355
Y03455
Y0359
X0285Y03585
Y03685
X0301Y0363
X03085Y0368
Y0358
X03205Y0363
X0328Y0368
Y0358
X0323Y0346343
X0342Y03465
Y0338
Y0329
Y0319
Y03095
X03275Y03085
X03175
X0313157Y0326657
X0332843
X03315Y02845
X03415
X0356Y0284
X0366
X0362Y02505
X0352
X0339Y0251
X0329
X0316Y02505
X0306
X03085Y0232
Y0222
X0301Y0227
X03205
X0328Y0232
Y0222
X03405Y0227
X0348Y0232
Y0222
X03595Y0227
X0367Y0232
Y0222
X0285Y02225
Y02325
X02525Y0233
Y0223
X02315Y0222
Y0232
X0224Y0227
X02125Y0232
Y0222
X02165Y02505
X02265
X02305Y0284
X02205
X03075
X03175
X02855Y0308
Y0318
X0286Y03335
Y03435
X03405Y0363
X0348Y0368
Y0358
X03595Y0363
X0367Y0368
Y0358
X0372Y03465
Y0338
Y0329
Y0319
Y03095
X0388Y03125
Y03225
Y03355
Y03455
Y0359
Y0233
Y0223
Y0369
X0362Y03865
X0352
X0339Y0387
X0329
X0316Y03865
X0306
X02525Y0369
X02265Y03865
X02165
X02035Y0387
X01935
X01805Y03865
X01705
X0117Y0369
X0091Y03865
X0081
X0068Y0387
X0058
X0045Y03865
X0035
T02
X01185Y0012
Y0022
X0254
Y0012
X03895
Y0022
X039Y01465
Y01565
X02545
Y01465
X0119
Y01565
Y02825
Y02925
X02545
Y02825
X039
Y02925
M30
