G04 Layer_Color=65535*
%FSLAX25Y25*%
%MOIN*%
G70*
G01*
G75*
%ADD20C,0.01000*%
%ADD21C,0.00600*%
%ADD22C,0.00787*%
%ADD23C,0.00500*%
%ADD24C,0.00906*%
%ADD25C,0.01181*%
%ADD26C,0.00394*%
D20*
X24433Y227500D02*
G03*
X24433Y227500I-10433J0D01*
G01*
X25433Y202500D02*
G03*
X25433Y202500I-10433J0D01*
G01*
X24933Y177000D02*
G03*
X24933Y177000I-10433J0D01*
G01*
X51933Y148000D02*
G03*
X51933Y148000I-10433J0D01*
G01*
X75933Y148500D02*
G03*
X75933Y148500I-10433J0D01*
G01*
X100433Y148000D02*
G03*
X100433Y148000I-10433J0D01*
G01*
X127433Y181500D02*
G03*
X127433Y181500I-10433J0D01*
G01*
Y204500D02*
G03*
X127433Y204500I-10433J0D01*
G01*
Y228000D02*
G03*
X127433Y228000I-10433J0D01*
G01*
X96433Y250500D02*
G03*
X96433Y250500I-10433J0D01*
G01*
X73433Y251000D02*
G03*
X73433Y251000I-10433J0D01*
G01*
X50433Y250500D02*
G03*
X50433Y250500I-10433J0D01*
G01*
X61933Y172500D02*
G03*
X61933Y172500I-10433J0D01*
G01*
X332933D02*
G03*
X332933Y172500I-10433J0D01*
G01*
X321433Y250500D02*
G03*
X321433Y250500I-10433J0D01*
G01*
X344433Y251000D02*
G03*
X344433Y251000I-10433J0D01*
G01*
X367433Y250500D02*
G03*
X367433Y250500I-10433J0D01*
G01*
X398433Y228000D02*
G03*
X398433Y228000I-10433J0D01*
G01*
Y204500D02*
G03*
X398433Y204500I-10433J0D01*
G01*
Y181500D02*
G03*
X398433Y181500I-10433J0D01*
G01*
X371433Y148000D02*
G03*
X371433Y148000I-10433J0D01*
G01*
X346933Y148500D02*
G03*
X346933Y148500I-10433J0D01*
G01*
X322933Y148000D02*
G03*
X322933Y148000I-10433J0D01*
G01*
X295933Y177000D02*
G03*
X295933Y177000I-10433J0D01*
G01*
X296433Y202500D02*
G03*
X296433Y202500I-10433J0D01*
G01*
X295433Y227500D02*
G03*
X295433Y227500I-10433J0D01*
G01*
X197433Y172500D02*
G03*
X197433Y172500I-10433J0D01*
G01*
X185933Y250500D02*
G03*
X185933Y250500I-10433J0D01*
G01*
X208933Y251000D02*
G03*
X208933Y251000I-10433J0D01*
G01*
X231933Y250500D02*
G03*
X231933Y250500I-10433J0D01*
G01*
X262933Y228000D02*
G03*
X262933Y228000I-10433J0D01*
G01*
Y204500D02*
G03*
X262933Y204500I-10433J0D01*
G01*
Y181500D02*
G03*
X262933Y181500I-10433J0D01*
G01*
X235933Y148000D02*
G03*
X235933Y148000I-10433J0D01*
G01*
X211433Y148500D02*
G03*
X211433Y148500I-10433J0D01*
G01*
X187433Y148000D02*
G03*
X187433Y148000I-10433J0D01*
G01*
X160433Y177000D02*
G03*
X160433Y177000I-10433J0D01*
G01*
X160933Y202500D02*
G03*
X160933Y202500I-10433J0D01*
G01*
X159933Y227500D02*
G03*
X159933Y227500I-10433J0D01*
G01*
X24433Y363500D02*
G03*
X24433Y363500I-10433J0D01*
G01*
X25433Y338500D02*
G03*
X25433Y338500I-10433J0D01*
G01*
X24933Y313000D02*
G03*
X24933Y313000I-10433J0D01*
G01*
X51933Y284000D02*
G03*
X51933Y284000I-10433J0D01*
G01*
X75933Y284500D02*
G03*
X75933Y284500I-10433J0D01*
G01*
X100433Y284000D02*
G03*
X100433Y284000I-10433J0D01*
G01*
X127433Y317500D02*
G03*
X127433Y317500I-10433J0D01*
G01*
Y340500D02*
G03*
X127433Y340500I-10433J0D01*
G01*
Y364000D02*
G03*
X127433Y364000I-10433J0D01*
G01*
X96433Y386500D02*
G03*
X96433Y386500I-10433J0D01*
G01*
X73433Y387000D02*
G03*
X73433Y387000I-10433J0D01*
G01*
X50433Y386500D02*
G03*
X50433Y386500I-10433J0D01*
G01*
X61933Y308500D02*
G03*
X61933Y308500I-10433J0D01*
G01*
X332933D02*
G03*
X332933Y308500I-10433J0D01*
G01*
X321433Y386500D02*
G03*
X321433Y386500I-10433J0D01*
G01*
X344433Y387000D02*
G03*
X344433Y387000I-10433J0D01*
G01*
X367433Y386500D02*
G03*
X367433Y386500I-10433J0D01*
G01*
X398433Y364000D02*
G03*
X398433Y364000I-10433J0D01*
G01*
Y340500D02*
G03*
X398433Y340500I-10433J0D01*
G01*
Y317500D02*
G03*
X398433Y317500I-10433J0D01*
G01*
X371433Y284000D02*
G03*
X371433Y284000I-10433J0D01*
G01*
X346933Y284500D02*
G03*
X346933Y284500I-10433J0D01*
G01*
X322933Y284000D02*
G03*
X322933Y284000I-10433J0D01*
G01*
X295933Y313000D02*
G03*
X295933Y313000I-10433J0D01*
G01*
X296433Y338500D02*
G03*
X296433Y338500I-10433J0D01*
G01*
X295433Y363500D02*
G03*
X295433Y363500I-10433J0D01*
G01*
X197433Y308500D02*
G03*
X197433Y308500I-10433J0D01*
G01*
X185933Y386500D02*
G03*
X185933Y386500I-10433J0D01*
G01*
X208933Y387000D02*
G03*
X208933Y387000I-10433J0D01*
G01*
X231933Y386500D02*
G03*
X231933Y386500I-10433J0D01*
G01*
X262933Y364000D02*
G03*
X262933Y364000I-10433J0D01*
G01*
Y340500D02*
G03*
X262933Y340500I-10433J0D01*
G01*
Y317500D02*
G03*
X262933Y317500I-10433J0D01*
G01*
X235933Y284000D02*
G03*
X235933Y284000I-10433J0D01*
G01*
X211433Y284500D02*
G03*
X211433Y284500I-10433J0D01*
G01*
X187433Y284000D02*
G03*
X187433Y284000I-10433J0D01*
G01*
X160433Y313000D02*
G03*
X160433Y313000I-10433J0D01*
G01*
X160933Y338500D02*
G03*
X160933Y338500I-10433J0D01*
G01*
X159933Y363500D02*
G03*
X159933Y363500I-10433J0D01*
G01*
X159433Y93000D02*
G03*
X159433Y93000I-10433J0D01*
G01*
X160433Y68000D02*
G03*
X160433Y68000I-10433J0D01*
G01*
X159933Y42500D02*
G03*
X159933Y42500I-10433J0D01*
G01*
X186933Y13500D02*
G03*
X186933Y13500I-10433J0D01*
G01*
X210933Y14000D02*
G03*
X210933Y14000I-10433J0D01*
G01*
X235433Y13500D02*
G03*
X235433Y13500I-10433J0D01*
G01*
X262433Y47000D02*
G03*
X262433Y47000I-10433J0D01*
G01*
Y70000D02*
G03*
X262433Y70000I-10433J0D01*
G01*
Y93500D02*
G03*
X262433Y93500I-10433J0D01*
G01*
X231433Y116000D02*
G03*
X231433Y116000I-10433J0D01*
G01*
X208433Y116500D02*
G03*
X208433Y116500I-10433J0D01*
G01*
X185433Y116000D02*
G03*
X185433Y116000I-10433J0D01*
G01*
X196933Y38000D02*
G03*
X196933Y38000I-10433J0D01*
G01*
X294933Y93000D02*
G03*
X294933Y93000I-10433J0D01*
G01*
X295933Y68000D02*
G03*
X295933Y68000I-10433J0D01*
G01*
X295433Y42500D02*
G03*
X295433Y42500I-10433J0D01*
G01*
X322433Y13500D02*
G03*
X322433Y13500I-10433J0D01*
G01*
X346433Y14000D02*
G03*
X346433Y14000I-10433J0D01*
G01*
X370933Y13500D02*
G03*
X370933Y13500I-10433J0D01*
G01*
X397933Y47000D02*
G03*
X397933Y47000I-10433J0D01*
G01*
Y70000D02*
G03*
X397933Y70000I-10433J0D01*
G01*
Y93500D02*
G03*
X397933Y93500I-10433J0D01*
G01*
X366933Y116000D02*
G03*
X366933Y116000I-10433J0D01*
G01*
X343933Y116500D02*
G03*
X343933Y116500I-10433J0D01*
G01*
X320933Y116000D02*
G03*
X320933Y116000I-10433J0D01*
G01*
X332433Y38000D02*
G03*
X332433Y38000I-10433J0D01*
G01*
X61433D02*
G03*
X61433Y38000I-10433J0D01*
G01*
X49933Y116000D02*
G03*
X49933Y116000I-10433J0D01*
G01*
X72933Y116500D02*
G03*
X72933Y116500I-10433J0D01*
G01*
X95933Y116000D02*
G03*
X95933Y116000I-10433J0D01*
G01*
X126933Y93500D02*
G03*
X126933Y93500I-10433J0D01*
G01*
Y70000D02*
G03*
X126933Y70000I-10433J0D01*
G01*
Y47000D02*
G03*
X126933Y47000I-10433J0D01*
G01*
X99933Y13500D02*
G03*
X99933Y13500I-10433J0D01*
G01*
X75433Y14000D02*
G03*
X75433Y14000I-10433J0D01*
G01*
X51433Y13500D02*
G03*
X51433Y13500I-10433J0D01*
G01*
X24433Y42500D02*
G03*
X24433Y42500I-10433J0D01*
G01*
X24933Y68000D02*
G03*
X24933Y68000I-10433J0D01*
G01*
X23933Y93000D02*
G03*
X23933Y93000I-10433J0D01*
G01*
X2000Y136000D02*
X129000D01*
Y263000D01*
X2000D02*
X129000D01*
X2000Y136000D02*
Y263000D01*
X32000Y187500D02*
X41000Y178500D01*
X36500D02*
X41000D01*
Y182500D01*
X31500Y178000D02*
X39500Y170000D01*
Y174000D01*
X36000Y170000D02*
X39500D01*
X307000D02*
X310500D01*
Y174000D01*
X302500Y178000D02*
X310500Y170000D01*
X312000Y178500D02*
Y182500D01*
X307500Y178500D02*
X312000D01*
X303000Y187500D02*
X312000Y178500D01*
X273000Y136000D02*
Y263000D01*
X400000D01*
Y136000D02*
Y263000D01*
X273000Y136000D02*
X400000D01*
X171500Y170000D02*
X175000D01*
Y174000D01*
X167000Y178000D02*
X175000Y170000D01*
X176500Y178500D02*
Y182500D01*
X172000Y178500D02*
X176500D01*
X167500Y187500D02*
X176500Y178500D01*
X137500Y136000D02*
Y263000D01*
X264500D01*
Y136000D02*
Y263000D01*
X137500Y136000D02*
X264500D01*
X2000Y272000D02*
X129000D01*
Y399000D01*
X2000D02*
X129000D01*
X2000Y272000D02*
Y399000D01*
X32000Y323500D02*
X41000Y314500D01*
X36500D02*
X41000D01*
Y318500D01*
X31500Y314000D02*
X39500Y306000D01*
Y310000D01*
X36000Y306000D02*
X39500D01*
X307000D02*
X310500D01*
Y310000D01*
X302500Y314000D02*
X310500Y306000D01*
X312000Y314500D02*
Y318500D01*
X307500Y314500D02*
X312000D01*
X303000Y323500D02*
X312000Y314500D01*
X273000Y272000D02*
Y399000D01*
X400000D01*
Y272000D02*
Y399000D01*
X273000Y272000D02*
X400000D01*
X171500Y306000D02*
X175000D01*
Y310000D01*
X167000Y314000D02*
X175000Y306000D01*
X176500Y314500D02*
Y318500D01*
X172000Y314500D02*
X176500D01*
X167500Y323500D02*
X176500Y314500D01*
X137500Y272000D02*
Y399000D01*
X264500D01*
Y272000D02*
Y399000D01*
X137500Y272000D02*
X264500D01*
X137000Y1500D02*
X264000D01*
Y128500D01*
X137000D02*
X264000D01*
X137000Y1500D02*
Y128500D01*
X167000Y53000D02*
X176000Y44000D01*
X171500D02*
X176000D01*
Y48000D01*
X166500Y43500D02*
X174500Y35500D01*
Y39500D01*
X171000Y35500D02*
X174500D01*
X272500Y1500D02*
X399500D01*
Y128500D01*
X272500D02*
X399500D01*
X272500Y1500D02*
Y128500D01*
X302500Y53000D02*
X311500Y44000D01*
X307000D02*
X311500D01*
Y48000D01*
X302000Y43500D02*
X310000Y35500D01*
Y39500D01*
X306500Y35500D02*
X310000D01*
X35500D02*
X39000D01*
Y39500D01*
X31000Y43500D02*
X39000Y35500D01*
X40500Y44000D02*
Y48000D01*
X36000Y44000D02*
X40500D01*
X31500Y53000D02*
X40500Y44000D01*
X1500Y1500D02*
Y128500D01*
X128500D01*
Y1500D02*
Y128500D01*
X1500Y1500D02*
X128500D01*
X117000Y164999D02*
X120999D01*
X118999Y166998D02*
Y163000D01*
X117500Y138999D02*
X121499D01*
X47000Y180329D02*
Y176000D01*
X49886D01*
X51329Y180329D02*
Y176000D01*
X53494D01*
X54216Y176722D01*
Y179608D01*
X53494Y180329D01*
X51329D01*
X55659Y176000D02*
Y180329D01*
X57823D01*
X58545Y179608D01*
Y178165D01*
X57823Y177443D01*
X55659D01*
X57102D02*
X58545Y176000D01*
X5000Y159000D02*
Y162149D01*
X6574Y163723D01*
X8149Y162149D01*
Y159000D01*
Y161361D01*
X5000D01*
X9723Y159000D02*
Y159787D01*
X10510D01*
Y159000D01*
X9723D01*
X13659Y163723D02*
X15233D01*
X14446D01*
Y159000D01*
X13659D01*
X15233D01*
X17594D02*
Y159787D01*
X18382D01*
Y159000D01*
X17594D01*
X26253D02*
Y163723D01*
X28614D01*
X29402Y162936D01*
Y161361D01*
X28614Y160574D01*
X26253D01*
X34124Y162936D02*
X33337Y163723D01*
X31763D01*
X30976Y162936D01*
Y159787D01*
X31763Y159000D01*
X33337D01*
X34124Y159787D01*
X35699Y163723D02*
Y159000D01*
X38060D01*
X38847Y159787D01*
Y160574D01*
X38060Y161361D01*
X35699D01*
X38060D01*
X38847Y162149D01*
Y162936D01*
X38060Y163723D01*
X35699D01*
X110000Y145000D02*
X111000Y146000D01*
Y147999D01*
X110000Y148999D01*
X106002D01*
X105002Y147999D01*
Y146000D01*
X106002Y145000D01*
X107001D01*
X108001Y146000D01*
Y148999D01*
X105002Y150998D02*
X109001D01*
X111000Y152997D01*
X109001Y154997D01*
X105002D01*
X33000Y256499D02*
X36999D01*
X34999Y258498D02*
Y254500D01*
X56000Y256999D02*
X59999D01*
X57999Y258998D02*
Y255000D01*
X79500Y256999D02*
X83499D01*
X81499Y258998D02*
Y255000D01*
X121000Y232499D02*
X124999D01*
X122999Y234498D02*
Y230500D01*
X121000Y208999D02*
X124999D01*
X122999Y210998D02*
Y207000D01*
X121000Y185999D02*
X124999D01*
X122999Y187998D02*
Y184000D01*
X92000Y141999D02*
X95999D01*
X93999Y143998D02*
Y140000D01*
X67500Y141999D02*
X71499D01*
X69499Y143998D02*
Y140000D01*
X43500Y141999D02*
X47499D01*
X45499Y143998D02*
Y140000D01*
X6500Y172999D02*
X10499D01*
X8499Y174998D02*
Y171000D01*
X6500Y198999D02*
X10499D01*
X8499Y200998D02*
Y197000D01*
X6000Y222999D02*
X9999D01*
X7999Y224998D02*
Y221000D01*
X42500Y255499D02*
X46499D01*
X66000D02*
X69999D01*
X88500D02*
X92499D01*
X121500Y223499D02*
X125499D01*
X121000Y199999D02*
X124999D01*
X121000Y176499D02*
X124999D01*
X83500Y142499D02*
X87499D01*
X58500Y143499D02*
X62499D01*
X34500Y142999D02*
X38499D01*
X6500Y180999D02*
X10499D01*
X7000Y205999D02*
X10999D01*
X6000Y230999D02*
X9999D01*
X277000D02*
X280999D01*
X278000Y205999D02*
X281999D01*
X277500Y180999D02*
X281499D01*
X305500Y142999D02*
X309499D01*
X329500Y143499D02*
X333499D01*
X354500Y142499D02*
X358499D01*
X392000Y176499D02*
X395999D01*
X392000Y199999D02*
X395999D01*
X392500Y223499D02*
X396499D01*
X359500Y255499D02*
X363499D01*
X337000D02*
X340999D01*
X313500D02*
X317499D01*
X277000Y222999D02*
X280999D01*
X278999Y224998D02*
Y221000D01*
X277500Y198999D02*
X281499D01*
X279499Y200998D02*
Y197000D01*
X277500Y172999D02*
X281499D01*
X279499Y174998D02*
Y171000D01*
X314500Y141999D02*
X318499D01*
X316499Y143998D02*
Y140000D01*
X338500Y141999D02*
X342499D01*
X340499Y143998D02*
Y140000D01*
X363000Y141999D02*
X366999D01*
X364999Y143998D02*
Y140000D01*
X392000Y185999D02*
X395999D01*
X393999Y187998D02*
Y184000D01*
X392000Y208999D02*
X395999D01*
X393999Y210998D02*
Y207000D01*
X392000Y232499D02*
X395999D01*
X393999Y234498D02*
Y230500D01*
X350500Y256999D02*
X354499D01*
X352499Y258998D02*
Y255000D01*
X327000Y256999D02*
X330999D01*
X328999Y258998D02*
Y255000D01*
X304000Y256499D02*
X307999D01*
X305999Y258498D02*
Y254500D01*
X381000Y145000D02*
X382000Y146000D01*
Y147999D01*
X381000Y148999D01*
X377002D01*
X376002Y147999D01*
Y146000D01*
X377002Y145000D01*
X378001D01*
X379001Y146000D01*
Y148999D01*
X376002Y150998D02*
X380001D01*
X382000Y152997D01*
X380001Y154997D01*
X376002D01*
X276000Y159000D02*
Y162149D01*
X277574Y163723D01*
X279149Y162149D01*
Y159000D01*
Y161361D01*
X276000D01*
X280723Y159000D02*
Y159787D01*
X281510D01*
Y159000D01*
X280723D01*
X284659Y163723D02*
X286233D01*
X285446D01*
Y159000D01*
X284659D01*
X286233D01*
X288594D02*
Y159787D01*
X289382D01*
Y159000D01*
X288594D01*
X297253D02*
Y163723D01*
X299614D01*
X300402Y162936D01*
Y161361D01*
X299614Y160574D01*
X297253D01*
X305124Y162936D02*
X304337Y163723D01*
X302763D01*
X301976Y162936D01*
Y159787D01*
X302763Y159000D01*
X304337D01*
X305124Y159787D01*
X306699Y163723D02*
Y159000D01*
X309060D01*
X309847Y159787D01*
Y160574D01*
X309060Y161361D01*
X306699D01*
X309060D01*
X309847Y162149D01*
Y162936D01*
X309060Y163723D01*
X306699D01*
X318000Y180329D02*
Y176000D01*
X320886D01*
X322329Y180329D02*
Y176000D01*
X324494D01*
X325216Y176722D01*
Y179608D01*
X324494Y180329D01*
X322329D01*
X326659Y176000D02*
Y180329D01*
X328823D01*
X329545Y179608D01*
Y178165D01*
X328823Y177443D01*
X326659D01*
X328102D02*
X329545Y176000D01*
X388500Y138999D02*
X392499D01*
X388000Y164999D02*
X391999D01*
X389999Y166998D02*
Y163000D01*
X141500Y230999D02*
X145499D01*
X142500Y205999D02*
X146499D01*
X142000Y180999D02*
X145999D01*
X170000Y142999D02*
X173999D01*
X194000Y143499D02*
X197999D01*
X219000Y142499D02*
X222999D01*
X256500Y176499D02*
X260499D01*
X256500Y199999D02*
X260499D01*
X257000Y223499D02*
X260999D01*
X224000Y255499D02*
X227999D01*
X201500D02*
X205499D01*
X178000D02*
X181999D01*
X141500Y222999D02*
X145499D01*
X143499Y224998D02*
Y221000D01*
X142000Y198999D02*
X145999D01*
X143999Y200998D02*
Y197000D01*
X142000Y172999D02*
X145999D01*
X143999Y174998D02*
Y171000D01*
X179000Y141999D02*
X182999D01*
X180999Y143998D02*
Y140000D01*
X203000Y141999D02*
X206999D01*
X204999Y143998D02*
Y140000D01*
X227500Y141999D02*
X231499D01*
X229499Y143998D02*
Y140000D01*
X256500Y185999D02*
X260499D01*
X258499Y187998D02*
Y184000D01*
X256500Y208999D02*
X260499D01*
X258499Y210998D02*
Y207000D01*
X256500Y232499D02*
X260499D01*
X258499Y234498D02*
Y230500D01*
X215000Y256999D02*
X218999D01*
X216999Y258998D02*
Y255000D01*
X191500Y256999D02*
X195499D01*
X193499Y258998D02*
Y255000D01*
X168500Y256499D02*
X172499D01*
X170499Y258498D02*
Y254500D01*
X245500Y145000D02*
X246500Y146000D01*
Y147999D01*
X245500Y148999D01*
X241502D01*
X240502Y147999D01*
Y146000D01*
X241502Y145000D01*
X242501D01*
X243501Y146000D01*
Y148999D01*
X240502Y150998D02*
X244501D01*
X246500Y152997D01*
X244501Y154997D01*
X240502D01*
X140500Y159000D02*
Y162149D01*
X142074Y163723D01*
X143649Y162149D01*
Y159000D01*
Y161361D01*
X140500D01*
X145223Y159000D02*
Y159787D01*
X146010D01*
Y159000D01*
X145223D01*
X149159Y163723D02*
X150733D01*
X149946D01*
Y159000D01*
X149159D01*
X150733D01*
X153094D02*
Y159787D01*
X153882D01*
Y159000D01*
X153094D01*
X161753D02*
Y163723D01*
X164114D01*
X164902Y162936D01*
Y161361D01*
X164114Y160574D01*
X161753D01*
X169624Y162936D02*
X168837Y163723D01*
X167263D01*
X166476Y162936D01*
Y159787D01*
X167263Y159000D01*
X168837D01*
X169624Y159787D01*
X171199Y163723D02*
Y159000D01*
X173560D01*
X174347Y159787D01*
Y160574D01*
X173560Y161361D01*
X171199D01*
X173560D01*
X174347Y162149D01*
Y162936D01*
X173560Y163723D01*
X171199D01*
X182500Y180329D02*
Y176000D01*
X185386D01*
X186829Y180329D02*
Y176000D01*
X188994D01*
X189716Y176722D01*
Y179608D01*
X188994Y180329D01*
X186829D01*
X191159Y176000D02*
Y180329D01*
X193323D01*
X194045Y179608D01*
Y178165D01*
X193323Y177443D01*
X191159D01*
X192602D02*
X194045Y176000D01*
X253000Y138999D02*
X256999D01*
X252500Y164999D02*
X256499D01*
X254499Y166998D02*
Y163000D01*
X117000Y300999D02*
X120999D01*
X118999Y302998D02*
Y299000D01*
X117500Y274999D02*
X121499D01*
X47000Y316329D02*
Y312000D01*
X49886D01*
X51329Y316329D02*
Y312000D01*
X53494D01*
X54216Y312721D01*
Y315608D01*
X53494Y316329D01*
X51329D01*
X55659Y312000D02*
Y316329D01*
X57823D01*
X58545Y315608D01*
Y314165D01*
X57823Y313443D01*
X55659D01*
X57102D02*
X58545Y312000D01*
X5000Y295000D02*
Y298149D01*
X6574Y299723D01*
X8149Y298149D01*
Y295000D01*
Y297361D01*
X5000D01*
X9723Y295000D02*
Y295787D01*
X10510D01*
Y295000D01*
X9723D01*
X13659Y299723D02*
X15233D01*
X14446D01*
Y295000D01*
X13659D01*
X15233D01*
X17594D02*
Y295787D01*
X18382D01*
Y295000D01*
X17594D01*
X26253D02*
Y299723D01*
X28614D01*
X29402Y298936D01*
Y297361D01*
X28614Y296574D01*
X26253D01*
X34124Y298936D02*
X33337Y299723D01*
X31763D01*
X30976Y298936D01*
Y295787D01*
X31763Y295000D01*
X33337D01*
X34124Y295787D01*
X35699Y299723D02*
Y295000D01*
X38060D01*
X38847Y295787D01*
Y296574D01*
X38060Y297361D01*
X35699D01*
X38060D01*
X38847Y298149D01*
Y298936D01*
X38060Y299723D01*
X35699D01*
X110000Y281000D02*
X111000Y282000D01*
Y283999D01*
X110000Y284999D01*
X106002D01*
X105002Y283999D01*
Y282000D01*
X106002Y281000D01*
X107001D01*
X108001Y282000D01*
Y284999D01*
X105002Y286998D02*
X109001D01*
X111000Y288997D01*
X109001Y290997D01*
X105002D01*
X33000Y392499D02*
X36999D01*
X34999Y394498D02*
Y390500D01*
X56000Y392999D02*
X59999D01*
X57999Y394998D02*
Y391000D01*
X79500Y392999D02*
X83499D01*
X81499Y394998D02*
Y391000D01*
X121000Y368499D02*
X124999D01*
X122999Y370498D02*
Y366500D01*
X121000Y344999D02*
X124999D01*
X122999Y346998D02*
Y343000D01*
X121000Y321999D02*
X124999D01*
X122999Y323998D02*
Y320000D01*
X92000Y277999D02*
X95999D01*
X93999Y279998D02*
Y276000D01*
X67500Y277999D02*
X71499D01*
X69499Y279998D02*
Y276000D01*
X43500Y277999D02*
X47499D01*
X45499Y279998D02*
Y276000D01*
X6500Y308999D02*
X10499D01*
X8499Y310998D02*
Y307000D01*
X6500Y334999D02*
X10499D01*
X8499Y336998D02*
Y333000D01*
X6000Y358999D02*
X9999D01*
X7999Y360998D02*
Y357000D01*
X42500Y391499D02*
X46499D01*
X66000D02*
X69999D01*
X88500D02*
X92499D01*
X121500Y359499D02*
X125499D01*
X121000Y335999D02*
X124999D01*
X121000Y312499D02*
X124999D01*
X83500Y278499D02*
X87499D01*
X58500Y279499D02*
X62499D01*
X34500Y278999D02*
X38499D01*
X6500Y316999D02*
X10499D01*
X7000Y341999D02*
X10999D01*
X6000Y366999D02*
X9999D01*
X277000D02*
X280999D01*
X278000Y341999D02*
X281999D01*
X277500Y316999D02*
X281499D01*
X305500Y278999D02*
X309499D01*
X329500Y279499D02*
X333499D01*
X354500Y278499D02*
X358499D01*
X392000Y312499D02*
X395999D01*
X392000Y335999D02*
X395999D01*
X392500Y359499D02*
X396499D01*
X359500Y391499D02*
X363499D01*
X337000D02*
X340999D01*
X313500D02*
X317499D01*
X277000Y358999D02*
X280999D01*
X278999Y360998D02*
Y357000D01*
X277500Y334999D02*
X281499D01*
X279499Y336998D02*
Y333000D01*
X277500Y308999D02*
X281499D01*
X279499Y310998D02*
Y307000D01*
X314500Y277999D02*
X318499D01*
X316499Y279998D02*
Y276000D01*
X338500Y277999D02*
X342499D01*
X340499Y279998D02*
Y276000D01*
X363000Y277999D02*
X366999D01*
X364999Y279998D02*
Y276000D01*
X392000Y321999D02*
X395999D01*
X393999Y323998D02*
Y320000D01*
X392000Y344999D02*
X395999D01*
X393999Y346998D02*
Y343000D01*
X392000Y368499D02*
X395999D01*
X393999Y370498D02*
Y366500D01*
X350500Y392999D02*
X354499D01*
X352499Y394998D02*
Y391000D01*
X327000Y392999D02*
X330999D01*
X328999Y394998D02*
Y391000D01*
X304000Y392499D02*
X307999D01*
X305999Y394498D02*
Y390500D01*
X381000Y281000D02*
X382000Y282000D01*
Y283999D01*
X381000Y284999D01*
X377002D01*
X376002Y283999D01*
Y282000D01*
X377002Y281000D01*
X378001D01*
X379001Y282000D01*
Y284999D01*
X376002Y286998D02*
X380001D01*
X382000Y288997D01*
X380001Y290997D01*
X376002D01*
X276000Y295000D02*
Y298149D01*
X277574Y299723D01*
X279149Y298149D01*
Y295000D01*
Y297361D01*
X276000D01*
X280723Y295000D02*
Y295787D01*
X281510D01*
Y295000D01*
X280723D01*
X284659Y299723D02*
X286233D01*
X285446D01*
Y295000D01*
X284659D01*
X286233D01*
X288594D02*
Y295787D01*
X289382D01*
Y295000D01*
X288594D01*
X297253D02*
Y299723D01*
X299614D01*
X300402Y298936D01*
Y297361D01*
X299614Y296574D01*
X297253D01*
X305124Y298936D02*
X304337Y299723D01*
X302763D01*
X301976Y298936D01*
Y295787D01*
X302763Y295000D01*
X304337D01*
X305124Y295787D01*
X306699Y299723D02*
Y295000D01*
X309060D01*
X309847Y295787D01*
Y296574D01*
X309060Y297361D01*
X306699D01*
X309060D01*
X309847Y298149D01*
Y298936D01*
X309060Y299723D01*
X306699D01*
X318000Y316329D02*
Y312000D01*
X320886D01*
X322329Y316329D02*
Y312000D01*
X324494D01*
X325216Y312721D01*
Y315608D01*
X324494Y316329D01*
X322329D01*
X326659Y312000D02*
Y316329D01*
X328823D01*
X329545Y315608D01*
Y314165D01*
X328823Y313443D01*
X326659D01*
X328102D02*
X329545Y312000D01*
X388500Y274999D02*
X392499D01*
X388000Y300999D02*
X391999D01*
X389999Y302998D02*
Y299000D01*
X141500Y366999D02*
X145499D01*
X142500Y341999D02*
X146499D01*
X142000Y316999D02*
X145999D01*
X170000Y278999D02*
X173999D01*
X194000Y279499D02*
X197999D01*
X219000Y278499D02*
X222999D01*
X256500Y312499D02*
X260499D01*
X256500Y335999D02*
X260499D01*
X257000Y359499D02*
X260999D01*
X224000Y391499D02*
X227999D01*
X201500D02*
X205499D01*
X178000D02*
X181999D01*
X141500Y358999D02*
X145499D01*
X143499Y360998D02*
Y357000D01*
X142000Y334999D02*
X145999D01*
X143999Y336998D02*
Y333000D01*
X142000Y308999D02*
X145999D01*
X143999Y310998D02*
Y307000D01*
X179000Y277999D02*
X182999D01*
X180999Y279998D02*
Y276000D01*
X203000Y277999D02*
X206999D01*
X204999Y279998D02*
Y276000D01*
X227500Y277999D02*
X231499D01*
X229499Y279998D02*
Y276000D01*
X256500Y321999D02*
X260499D01*
X258499Y323998D02*
Y320000D01*
X256500Y344999D02*
X260499D01*
X258499Y346998D02*
Y343000D01*
X256500Y368499D02*
X260499D01*
X258499Y370498D02*
Y366500D01*
X215000Y392999D02*
X218999D01*
X216999Y394998D02*
Y391000D01*
X191500Y392999D02*
X195499D01*
X193499Y394998D02*
Y391000D01*
X168500Y392499D02*
X172499D01*
X170499Y394498D02*
Y390500D01*
X245500Y281000D02*
X246500Y282000D01*
Y283999D01*
X245500Y284999D01*
X241502D01*
X240502Y283999D01*
Y282000D01*
X241502Y281000D01*
X242501D01*
X243501Y282000D01*
Y284999D01*
X240502Y286998D02*
X244501D01*
X246500Y288997D01*
X244501Y290997D01*
X240502D01*
X140500Y295000D02*
Y298149D01*
X142074Y299723D01*
X143649Y298149D01*
Y295000D01*
Y297361D01*
X140500D01*
X145223Y295000D02*
Y295787D01*
X146010D01*
Y295000D01*
X145223D01*
X149159Y299723D02*
X150733D01*
X149946D01*
Y295000D01*
X149159D01*
X150733D01*
X153094D02*
Y295787D01*
X153882D01*
Y295000D01*
X153094D01*
X161753D02*
Y299723D01*
X164114D01*
X164902Y298936D01*
Y297361D01*
X164114Y296574D01*
X161753D01*
X169624Y298936D02*
X168837Y299723D01*
X167263D01*
X166476Y298936D01*
Y295787D01*
X167263Y295000D01*
X168837D01*
X169624Y295787D01*
X171199Y299723D02*
Y295000D01*
X173560D01*
X174347Y295787D01*
Y296574D01*
X173560Y297361D01*
X171199D01*
X173560D01*
X174347Y298149D01*
Y298936D01*
X173560Y299723D01*
X171199D01*
X182500Y316329D02*
Y312000D01*
X185386D01*
X186829Y316329D02*
Y312000D01*
X188994D01*
X189716Y312721D01*
Y315608D01*
X188994Y316329D01*
X186829D01*
X191159Y312000D02*
Y316329D01*
X193323D01*
X194045Y315608D01*
Y314165D01*
X193323Y313443D01*
X191159D01*
X192602D02*
X194045Y312000D01*
X253000Y274999D02*
X256999D01*
X252500Y300999D02*
X256499D01*
X254499Y302998D02*
Y299000D01*
X252000Y30499D02*
X255999D01*
X253999Y32498D02*
Y28500D01*
X252500Y4499D02*
X256499D01*
X182000Y45829D02*
Y41500D01*
X184886D01*
X186329Y45829D02*
Y41500D01*
X188494D01*
X189216Y42222D01*
Y45108D01*
X188494Y45829D01*
X186329D01*
X190659Y41500D02*
Y45829D01*
X192823D01*
X193545Y45108D01*
Y43665D01*
X192823Y42943D01*
X190659D01*
X192102D02*
X193545Y41500D01*
X140000Y24500D02*
Y27649D01*
X141574Y29223D01*
X143149Y27649D01*
Y24500D01*
Y26861D01*
X140000D01*
X144723Y24500D02*
Y25287D01*
X145510D01*
Y24500D01*
X144723D01*
X148659Y29223D02*
X150233D01*
X149446D01*
Y24500D01*
X148659D01*
X150233D01*
X152594D02*
Y25287D01*
X153382D01*
Y24500D01*
X152594D01*
X161253D02*
Y29223D01*
X163614D01*
X164402Y28436D01*
Y26861D01*
X163614Y26074D01*
X161253D01*
X169124Y28436D02*
X168337Y29223D01*
X166763D01*
X165976Y28436D01*
Y25287D01*
X166763Y24500D01*
X168337D01*
X169124Y25287D01*
X170699Y29223D02*
Y24500D01*
X173060D01*
X173847Y25287D01*
Y26074D01*
X173060Y26861D01*
X170699D01*
X173060D01*
X173847Y27649D01*
Y28436D01*
X173060Y29223D01*
X170699D01*
X245000Y10500D02*
X246000Y11500D01*
Y13499D01*
X245000Y14499D01*
X241002D01*
X240002Y13499D01*
Y11500D01*
X241002Y10500D01*
X242001D01*
X243001Y11500D01*
Y14499D01*
X240002Y16498D02*
X244001D01*
X246000Y18497D01*
X244001Y20497D01*
X240002D01*
X168000Y121999D02*
X171999D01*
X169999Y123998D02*
Y120000D01*
X191000Y122499D02*
X194999D01*
X192999Y124498D02*
Y120500D01*
X214500Y122499D02*
X218499D01*
X216499Y124498D02*
Y120500D01*
X256000Y97999D02*
X259999D01*
X257999Y99998D02*
Y96000D01*
X256000Y74499D02*
X259999D01*
X257999Y76498D02*
Y72500D01*
X256000Y51499D02*
X259999D01*
X257999Y53498D02*
Y49500D01*
X227000Y7499D02*
X230999D01*
X228999Y9498D02*
Y5500D01*
X202500Y7499D02*
X206499D01*
X204499Y9498D02*
Y5500D01*
X178500Y7499D02*
X182499D01*
X180499Y9498D02*
Y5500D01*
X141500Y38499D02*
X145499D01*
X143499Y40498D02*
Y36500D01*
X141500Y64499D02*
X145499D01*
X143499Y66498D02*
Y62500D01*
X141000Y88499D02*
X144999D01*
X142999Y90498D02*
Y86500D01*
X177500Y120999D02*
X181499D01*
X201000D02*
X204999D01*
X223500D02*
X227499D01*
X256500Y88999D02*
X260499D01*
X256000Y65499D02*
X259999D01*
X256000Y41999D02*
X259999D01*
X218500Y7999D02*
X222499D01*
X193500Y8999D02*
X197499D01*
X169500Y8499D02*
X173499D01*
X141500Y46499D02*
X145499D01*
X142000Y71499D02*
X145999D01*
X141000Y96499D02*
X144999D01*
X387500Y30499D02*
X391499D01*
X389499Y32498D02*
Y28500D01*
X388000Y4499D02*
X391999D01*
X317500Y45829D02*
Y41500D01*
X320386D01*
X321829Y45829D02*
Y41500D01*
X323994D01*
X324715Y42222D01*
Y45108D01*
X323994Y45829D01*
X321829D01*
X326159Y41500D02*
Y45829D01*
X328323D01*
X329045Y45108D01*
Y43665D01*
X328323Y42943D01*
X326159D01*
X327602D02*
X329045Y41500D01*
X275500Y24500D02*
Y27649D01*
X277074Y29223D01*
X278649Y27649D01*
Y24500D01*
Y26861D01*
X275500D01*
X280223Y24500D02*
Y25287D01*
X281010D01*
Y24500D01*
X280223D01*
X284159Y29223D02*
X285733D01*
X284946D01*
Y24500D01*
X284159D01*
X285733D01*
X288094D02*
Y25287D01*
X288881D01*
Y24500D01*
X288094D01*
X296753D02*
Y29223D01*
X299114D01*
X299902Y28436D01*
Y26861D01*
X299114Y26074D01*
X296753D01*
X304624Y28436D02*
X303837Y29223D01*
X302263D01*
X301476Y28436D01*
Y25287D01*
X302263Y24500D01*
X303837D01*
X304624Y25287D01*
X306199Y29223D02*
Y24500D01*
X308560D01*
X309347Y25287D01*
Y26074D01*
X308560Y26861D01*
X306199D01*
X308560D01*
X309347Y27649D01*
Y28436D01*
X308560Y29223D01*
X306199D01*
X380500Y10500D02*
X381500Y11500D01*
Y13499D01*
X380500Y14499D01*
X376502D01*
X375502Y13499D01*
Y11500D01*
X376502Y10500D01*
X377501D01*
X378501Y11500D01*
Y14499D01*
X375502Y16498D02*
X379501D01*
X381500Y18497D01*
X379501Y20497D01*
X375502D01*
X303500Y121999D02*
X307499D01*
X305499Y123998D02*
Y120000D01*
X326500Y122499D02*
X330499D01*
X328499Y124498D02*
Y120500D01*
X350000Y122499D02*
X353999D01*
X351999Y124498D02*
Y120500D01*
X391500Y97999D02*
X395499D01*
X393499Y99998D02*
Y96000D01*
X391500Y74499D02*
X395499D01*
X393499Y76498D02*
Y72500D01*
X391500Y51499D02*
X395499D01*
X393499Y53498D02*
Y49500D01*
X362500Y7499D02*
X366499D01*
X364499Y9498D02*
Y5500D01*
X338000Y7499D02*
X341999D01*
X339999Y9498D02*
Y5500D01*
X314000Y7499D02*
X317999D01*
X315999Y9498D02*
Y5500D01*
X277000Y38499D02*
X280999D01*
X278999Y40498D02*
Y36500D01*
X277000Y64499D02*
X280999D01*
X278999Y66498D02*
Y62500D01*
X276500Y88499D02*
X280499D01*
X278499Y90498D02*
Y86500D01*
X313000Y120999D02*
X316999D01*
X336500D02*
X340499D01*
X359000D02*
X362999D01*
X392000Y88999D02*
X395999D01*
X391500Y65499D02*
X395499D01*
X391500Y41999D02*
X395499D01*
X354000Y7999D02*
X357999D01*
X329000Y8999D02*
X332999D01*
X305000Y8499D02*
X308999D01*
X277000Y46499D02*
X280999D01*
X277500Y71499D02*
X281499D01*
X276500Y96499D02*
X280499D01*
X5500D02*
X9499D01*
X6500Y71499D02*
X10499D01*
X6000Y46499D02*
X9999D01*
X34000Y8499D02*
X37999D01*
X58000Y8999D02*
X61999D01*
X83000Y7999D02*
X86999D01*
X120500Y41999D02*
X124499D01*
X120500Y65499D02*
X124499D01*
X121000Y88999D02*
X124999D01*
X88000Y120999D02*
X91999D01*
X65500D02*
X69499D01*
X42000D02*
X45999D01*
X5500Y88499D02*
X9499D01*
X7499Y90498D02*
Y86500D01*
X6000Y64499D02*
X9999D01*
X7999Y66498D02*
Y62500D01*
X6000Y38499D02*
X9999D01*
X7999Y40498D02*
Y36500D01*
X43000Y7499D02*
X46999D01*
X44999Y9498D02*
Y5500D01*
X67000Y7499D02*
X70999D01*
X68999Y9498D02*
Y5500D01*
X91500Y7499D02*
X95499D01*
X93499Y9498D02*
Y5500D01*
X120500Y51499D02*
X124499D01*
X122499Y53498D02*
Y49500D01*
X120500Y74499D02*
X124499D01*
X122499Y76498D02*
Y72500D01*
X120500Y97999D02*
X124499D01*
X122499Y99998D02*
Y96000D01*
X79000Y122499D02*
X82999D01*
X80999Y124498D02*
Y120500D01*
X55500Y122499D02*
X59499D01*
X57499Y124498D02*
Y120500D01*
X32500Y121999D02*
X36499D01*
X34499Y123998D02*
Y120000D01*
X109500Y10500D02*
X110500Y11500D01*
Y13499D01*
X109500Y14499D01*
X105502D01*
X104502Y13499D01*
Y11500D01*
X105502Y10500D01*
X106501D01*
X107501Y11500D01*
Y14499D01*
X104502Y16498D02*
X108501D01*
X110500Y18497D01*
X108501Y20497D01*
X104502D01*
X4500Y24500D02*
Y27649D01*
X6074Y29223D01*
X7649Y27649D01*
Y24500D01*
Y26861D01*
X4500D01*
X9223Y24500D02*
Y25287D01*
X10010D01*
Y24500D01*
X9223D01*
X13159Y29223D02*
X14733D01*
X13946D01*
Y24500D01*
X13159D01*
X14733D01*
X17094D02*
Y25287D01*
X17882D01*
Y24500D01*
X17094D01*
X25753D02*
Y29223D01*
X28114D01*
X28902Y28436D01*
Y26861D01*
X28114Y26074D01*
X25753D01*
X33625Y28436D02*
X32837Y29223D01*
X31263D01*
X30476Y28436D01*
Y25287D01*
X31263Y24500D01*
X32837D01*
X33625Y25287D01*
X35199Y29223D02*
Y24500D01*
X37560D01*
X38347Y25287D01*
Y26074D01*
X37560Y26861D01*
X35199D01*
X37560D01*
X38347Y27649D01*
Y28436D01*
X37560Y29223D01*
X35199D01*
X46500Y45829D02*
Y41500D01*
X49386D01*
X50829Y45829D02*
Y41500D01*
X52994D01*
X53715Y42222D01*
Y45108D01*
X52994Y45829D01*
X50829D01*
X55159Y41500D02*
Y45829D01*
X57323D01*
X58045Y45108D01*
Y43665D01*
X57323Y42943D01*
X55159D01*
X56602D02*
X58045Y41500D01*
X117000Y4499D02*
X120999D01*
X116500Y30499D02*
X120499D01*
X118499Y32498D02*
Y28500D01*
D21*
X102464Y235276D02*
G03*
X85959Y230072I-6464J-8274D01*
G01*
Y223928D02*
G03*
X102464Y218724I10041J3070D01*
G01*
X83464Y235276D02*
G03*
X66959Y230072I-6464J-8274D01*
G01*
Y223928D02*
G03*
X83464Y218724I10041J3070D01*
G01*
X63464Y235276D02*
G03*
X46959Y230072I-6464J-8274D01*
G01*
Y223928D02*
G03*
X63464Y218724I10041J3070D01*
G01*
X43964Y235276D02*
G03*
X27459Y230072I-6464J-8274D01*
G01*
Y223928D02*
G03*
X43964Y218724I10041J3070D01*
G01*
X314964Y235276D02*
G03*
X298459Y230072I-6464J-8274D01*
G01*
Y223928D02*
G03*
X314964Y218724I10041J3070D01*
G01*
X334464Y235276D02*
G03*
X317959Y230072I-6464J-8274D01*
G01*
Y223928D02*
G03*
X334464Y218724I10041J3070D01*
G01*
X354464Y235276D02*
G03*
X337959Y230072I-6464J-8274D01*
G01*
Y223928D02*
G03*
X354464Y218724I10041J3070D01*
G01*
X373464Y235276D02*
G03*
X356959Y230072I-6464J-8274D01*
G01*
Y223928D02*
G03*
X373464Y218724I10041J3070D01*
G01*
X179464Y235276D02*
G03*
X162959Y230072I-6464J-8274D01*
G01*
Y223928D02*
G03*
X179464Y218724I10041J3070D01*
G01*
X198964Y235276D02*
G03*
X182459Y230072I-6464J-8274D01*
G01*
Y223928D02*
G03*
X198964Y218724I10041J3070D01*
G01*
X218964Y235276D02*
G03*
X202459Y230072I-6464J-8274D01*
G01*
Y223928D02*
G03*
X218964Y218724I10041J3070D01*
G01*
X237964Y235276D02*
G03*
X221459Y230072I-6464J-8274D01*
G01*
Y223928D02*
G03*
X237964Y218724I10041J3070D01*
G01*
X102464Y371276D02*
G03*
X85959Y366072I-6464J-8274D01*
G01*
Y359928D02*
G03*
X102464Y354724I10041J3070D01*
G01*
X83464Y371276D02*
G03*
X66959Y366072I-6464J-8274D01*
G01*
Y359928D02*
G03*
X83464Y354724I10041J3070D01*
G01*
X63464Y371276D02*
G03*
X46959Y366072I-6464J-8274D01*
G01*
Y359928D02*
G03*
X63464Y354724I10041J3070D01*
G01*
X43964Y371276D02*
G03*
X27459Y366072I-6464J-8274D01*
G01*
Y359928D02*
G03*
X43964Y354724I10041J3070D01*
G01*
X314964Y371276D02*
G03*
X298459Y366072I-6464J-8274D01*
G01*
Y359928D02*
G03*
X314964Y354724I10041J3070D01*
G01*
X334464Y371276D02*
G03*
X317959Y366072I-6464J-8274D01*
G01*
Y359928D02*
G03*
X334464Y354724I10041J3070D01*
G01*
X354464Y371276D02*
G03*
X337959Y366072I-6464J-8274D01*
G01*
Y359928D02*
G03*
X354464Y354724I10041J3070D01*
G01*
X373464Y371276D02*
G03*
X356959Y366072I-6464J-8274D01*
G01*
Y359928D02*
G03*
X373464Y354724I10041J3070D01*
G01*
X179464Y371276D02*
G03*
X162959Y366072I-6464J-8274D01*
G01*
Y359928D02*
G03*
X179464Y354724I10041J3070D01*
G01*
X198964Y371276D02*
G03*
X182459Y366072I-6464J-8274D01*
G01*
Y359928D02*
G03*
X198964Y354724I10041J3070D01*
G01*
X218964Y371276D02*
G03*
X202459Y366072I-6464J-8274D01*
G01*
Y359928D02*
G03*
X218964Y354724I10041J3070D01*
G01*
X237964Y371276D02*
G03*
X221459Y366072I-6464J-8274D01*
G01*
Y359928D02*
G03*
X237964Y354724I10041J3070D01*
G01*
X237464Y100776D02*
G03*
X220959Y95572I-6464J-8274D01*
G01*
Y89428D02*
G03*
X237464Y84224I10041J3070D01*
G01*
X218464Y100776D02*
G03*
X201959Y95572I-6464J-8274D01*
G01*
Y89428D02*
G03*
X218464Y84224I10041J3070D01*
G01*
X198464Y100776D02*
G03*
X181959Y95572I-6464J-8274D01*
G01*
Y89428D02*
G03*
X198464Y84224I10041J3070D01*
G01*
X178964Y100776D02*
G03*
X162459Y95572I-6464J-8274D01*
G01*
Y89428D02*
G03*
X178964Y84224I10041J3070D01*
G01*
X372964Y100776D02*
G03*
X356459Y95572I-6464J-8274D01*
G01*
Y89428D02*
G03*
X372964Y84224I10041J3070D01*
G01*
X353964Y100776D02*
G03*
X337459Y95572I-6464J-8274D01*
G01*
Y89428D02*
G03*
X353964Y84224I10041J3070D01*
G01*
X333964Y100776D02*
G03*
X317459Y95572I-6464J-8274D01*
G01*
Y89428D02*
G03*
X333964Y84224I10041J3070D01*
G01*
X314464Y100776D02*
G03*
X297959Y95572I-6464J-8274D01*
G01*
Y89428D02*
G03*
X314464Y84224I10041J3070D01*
G01*
X43464Y100776D02*
G03*
X26959Y95572I-6464J-8274D01*
G01*
Y89428D02*
G03*
X43464Y84224I10041J3070D01*
G01*
X62964Y100776D02*
G03*
X46459Y95572I-6464J-8274D01*
G01*
Y89428D02*
G03*
X62964Y84224I10041J3070D01*
G01*
X82964Y100776D02*
G03*
X66459Y95572I-6464J-8274D01*
G01*
Y89428D02*
G03*
X82964Y84224I10041J3070D01*
G01*
X101964Y100776D02*
G03*
X85459Y95572I-6464J-8274D01*
G01*
Y89428D02*
G03*
X101964Y84224I10041J3070D01*
G01*
X97000Y235874D02*
Y237453D01*
Y225874D02*
Y228126D01*
Y216547D02*
Y218126D01*
X102500Y218752D02*
Y235248D01*
X78000Y235874D02*
Y237453D01*
Y225874D02*
Y228126D01*
Y216547D02*
Y218126D01*
X83500Y218752D02*
Y235248D01*
X58000Y235874D02*
Y237453D01*
Y225874D02*
Y228126D01*
Y216547D02*
Y218126D01*
X63500Y218752D02*
Y235248D01*
X38500Y235874D02*
Y237453D01*
Y225874D02*
Y228126D01*
Y216547D02*
Y218126D01*
X44000Y218752D02*
Y235248D01*
X309500Y235874D02*
Y237453D01*
Y225874D02*
Y228126D01*
Y216547D02*
Y218126D01*
X315000Y218752D02*
Y235248D01*
X329000Y235874D02*
Y237453D01*
Y225874D02*
Y228126D01*
Y216547D02*
Y218126D01*
X334500Y218752D02*
Y235248D01*
X349000Y235874D02*
Y237453D01*
Y225874D02*
Y228126D01*
Y216547D02*
Y218126D01*
X354500Y218752D02*
Y235248D01*
X368000Y235874D02*
Y237453D01*
Y225874D02*
Y228126D01*
Y216547D02*
Y218126D01*
X373500Y218752D02*
Y235248D01*
X174000Y235874D02*
Y237453D01*
Y225874D02*
Y228126D01*
Y216547D02*
Y218126D01*
X179500Y218752D02*
Y235248D01*
X193500Y235874D02*
Y237453D01*
Y225874D02*
Y228126D01*
Y216547D02*
Y218126D01*
X199000Y218752D02*
Y235248D01*
X213500Y235874D02*
Y237453D01*
Y225874D02*
Y228126D01*
Y216547D02*
Y218126D01*
X219000Y218752D02*
Y235248D01*
X232500Y235874D02*
Y237453D01*
Y225874D02*
Y228126D01*
Y216547D02*
Y218126D01*
X238000Y218752D02*
Y235248D01*
X97000Y371874D02*
Y373453D01*
Y361874D02*
Y364126D01*
Y352547D02*
Y354126D01*
X102500Y354752D02*
Y371248D01*
X78000Y371874D02*
Y373453D01*
Y361874D02*
Y364126D01*
Y352547D02*
Y354126D01*
X83500Y354752D02*
Y371248D01*
X58000Y371874D02*
Y373453D01*
Y361874D02*
Y364126D01*
Y352547D02*
Y354126D01*
X63500Y354752D02*
Y371248D01*
X38500Y371874D02*
Y373453D01*
Y361874D02*
Y364126D01*
Y352547D02*
Y354126D01*
X44000Y354752D02*
Y371248D01*
X309500Y371874D02*
Y373453D01*
Y361874D02*
Y364126D01*
Y352547D02*
Y354126D01*
X315000Y354752D02*
Y371248D01*
X329000Y371874D02*
Y373453D01*
Y361874D02*
Y364126D01*
Y352547D02*
Y354126D01*
X334500Y354752D02*
Y371248D01*
X349000Y371874D02*
Y373453D01*
Y361874D02*
Y364126D01*
Y352547D02*
Y354126D01*
X354500Y354752D02*
Y371248D01*
X368000Y371874D02*
Y373453D01*
Y361874D02*
Y364126D01*
Y352547D02*
Y354126D01*
X373500Y354752D02*
Y371248D01*
X174000Y371874D02*
Y373453D01*
Y361874D02*
Y364126D01*
Y352547D02*
Y354126D01*
X179500Y354752D02*
Y371248D01*
X193500Y371874D02*
Y373453D01*
Y361874D02*
Y364126D01*
Y352547D02*
Y354126D01*
X199000Y354752D02*
Y371248D01*
X213500Y371874D02*
Y373453D01*
Y361874D02*
Y364126D01*
Y352547D02*
Y354126D01*
X219000Y354752D02*
Y371248D01*
X232500Y371874D02*
Y373453D01*
Y361874D02*
Y364126D01*
Y352547D02*
Y354126D01*
X238000Y354752D02*
Y371248D01*
X232000Y101374D02*
Y102953D01*
Y91374D02*
Y93626D01*
Y82047D02*
Y83626D01*
X237500Y84252D02*
Y100748D01*
X213000Y101374D02*
Y102953D01*
Y91374D02*
Y93626D01*
Y82047D02*
Y83626D01*
X218500Y84252D02*
Y100748D01*
X193000Y101374D02*
Y102953D01*
Y91374D02*
Y93626D01*
Y82047D02*
Y83626D01*
X198500Y84252D02*
Y100748D01*
X173500Y101374D02*
Y102953D01*
Y91374D02*
Y93626D01*
Y82047D02*
Y83626D01*
X179000Y84252D02*
Y100748D01*
X367500Y101374D02*
Y102953D01*
Y91374D02*
Y93626D01*
Y82047D02*
Y83626D01*
X373000Y84252D02*
Y100748D01*
X348500Y101374D02*
Y102953D01*
Y91374D02*
Y93626D01*
Y82047D02*
Y83626D01*
X354000Y84252D02*
Y100748D01*
X328500Y101374D02*
Y102953D01*
Y91374D02*
Y93626D01*
Y82047D02*
Y83626D01*
X334000Y84252D02*
Y100748D01*
X309000Y101374D02*
Y102953D01*
Y91374D02*
Y93626D01*
Y82047D02*
Y83626D01*
X314500Y84252D02*
Y100748D01*
X38000Y101374D02*
Y102953D01*
Y91374D02*
Y93626D01*
Y82047D02*
Y83626D01*
X43500Y84252D02*
Y100748D01*
X57500Y101374D02*
Y102953D01*
Y91374D02*
Y93626D01*
Y82047D02*
Y83626D01*
X63000Y84252D02*
Y100748D01*
X77500Y101374D02*
Y102953D01*
Y91374D02*
Y93626D01*
Y82047D02*
Y83626D01*
X83000Y84252D02*
Y100748D01*
X96500Y101374D02*
Y102953D01*
Y91374D02*
Y93626D01*
Y82047D02*
Y83626D01*
X102000Y84252D02*
Y100748D01*
D22*
X35858Y190657D02*
G03*
X35858Y190657I-394J0D01*
G01*
X306858D02*
G03*
X306858Y190657I-394J0D01*
G01*
X171358D02*
G03*
X171358Y190657I-394J0D01*
G01*
X35858Y326658D02*
G03*
X35858Y326658I-394J0D01*
G01*
X306858D02*
G03*
X306858Y326658I-394J0D01*
G01*
X171358D02*
G03*
X171358Y326658I-394J0D01*
G01*
X170858Y56157D02*
G03*
X170858Y56157I-394J0D01*
G01*
X306358D02*
G03*
X306358Y56157I-394J0D01*
G01*
X35358D02*
G03*
X35358Y56157I-394J0D01*
G01*
X124000Y141500D02*
Y161500D01*
X114000D02*
X124000D01*
X114000Y141500D02*
Y161500D01*
Y141500D02*
X124000D01*
X75100Y193000D02*
X76000D01*
X96000D02*
X96900D01*
X76000D02*
Y196000D01*
X96000D01*
Y190000D02*
Y196000D01*
X76000Y190000D02*
X96000D01*
X76000D02*
Y193000D01*
X75100Y202000D02*
X76000D01*
X96000D02*
X96900D01*
X76000D02*
Y205000D01*
X96000D01*
Y199000D02*
Y205000D01*
X76000Y199000D02*
X96000D01*
X76000D02*
Y202000D01*
X75100Y183000D02*
X76000D01*
X96000D02*
X96900D01*
X76000D02*
Y186000D01*
X96000D01*
Y180000D02*
Y186000D01*
X76000Y180000D02*
X96000D01*
X76000D02*
Y183000D01*
X96000Y210500D02*
X96900D01*
X75100D02*
X76000D01*
X96000Y207500D02*
Y210500D01*
X76000Y207500D02*
X96000D01*
X76000D02*
Y213500D01*
X96000D01*
Y210500D02*
Y213500D01*
X75100Y173500D02*
X76000D01*
X96000D02*
X96900D01*
X76000D02*
Y176500D01*
X96000D01*
Y170500D02*
Y176500D01*
X76000Y170500D02*
X96000D01*
X76000D02*
Y173500D01*
X346100D02*
X347000D01*
X367000D02*
X367900D01*
X347000D02*
Y176500D01*
X367000D01*
Y170500D02*
Y176500D01*
X347000Y170500D02*
X367000D01*
X347000D02*
Y173500D01*
X367000Y210500D02*
X367900D01*
X346100D02*
X347000D01*
X367000Y207500D02*
Y210500D01*
X347000Y207500D02*
X367000D01*
X347000D02*
Y213500D01*
X367000D01*
Y210500D02*
Y213500D01*
X346100Y183000D02*
X347000D01*
X367000D02*
X367900D01*
X347000D02*
Y186000D01*
X367000D01*
Y180000D02*
Y186000D01*
X347000Y180000D02*
X367000D01*
X347000D02*
Y183000D01*
X346100Y202000D02*
X347000D01*
X367000D02*
X367900D01*
X347000D02*
Y205000D01*
X367000D01*
Y199000D02*
Y205000D01*
X347000Y199000D02*
X367000D01*
X347000D02*
Y202000D01*
X346100Y193000D02*
X347000D01*
X367000D02*
X367900D01*
X347000D02*
Y196000D01*
X367000D01*
Y190000D02*
Y196000D01*
X347000Y190000D02*
X367000D01*
X347000D02*
Y193000D01*
X395000Y141500D02*
Y161500D01*
X385000D02*
X395000D01*
X385000Y141500D02*
Y161500D01*
Y141500D02*
X395000D01*
X210600Y173500D02*
X211500D01*
X231500D02*
X232400D01*
X211500D02*
Y176500D01*
X231500D01*
Y170500D02*
Y176500D01*
X211500Y170500D02*
X231500D01*
X211500D02*
Y173500D01*
X231500Y210500D02*
X232400D01*
X210600D02*
X211500D01*
X231500Y207500D02*
Y210500D01*
X211500Y207500D02*
X231500D01*
X211500D02*
Y213500D01*
X231500D01*
Y210500D02*
Y213500D01*
X210600Y183000D02*
X211500D01*
X231500D02*
X232400D01*
X211500D02*
Y186000D01*
X231500D01*
Y180000D02*
Y186000D01*
X211500Y180000D02*
X231500D01*
X211500D02*
Y183000D01*
X210600Y202000D02*
X211500D01*
X231500D02*
X232400D01*
X211500D02*
Y205000D01*
X231500D01*
Y199000D02*
Y205000D01*
X211500Y199000D02*
X231500D01*
X211500D02*
Y202000D01*
X210600Y193000D02*
X211500D01*
X231500D02*
X232400D01*
X211500D02*
Y196000D01*
X231500D01*
Y190000D02*
Y196000D01*
X211500Y190000D02*
X231500D01*
X211500D02*
Y193000D01*
X259500Y141500D02*
Y161500D01*
X249500D02*
X259500D01*
X249500Y141500D02*
Y161500D01*
Y141500D02*
X259500D01*
X124000Y277500D02*
Y297500D01*
X114000D02*
X124000D01*
X114000Y277500D02*
Y297500D01*
Y277500D02*
X124000D01*
X75100Y329000D02*
X76000D01*
X96000D02*
X96900D01*
X76000D02*
Y332000D01*
X96000D01*
Y326000D02*
Y332000D01*
X76000Y326000D02*
X96000D01*
X76000D02*
Y329000D01*
X75100Y338000D02*
X76000D01*
X96000D02*
X96900D01*
X76000D02*
Y341000D01*
X96000D01*
Y335000D02*
Y341000D01*
X76000Y335000D02*
X96000D01*
X76000D02*
Y338000D01*
X75100Y319000D02*
X76000D01*
X96000D02*
X96900D01*
X76000D02*
Y322000D01*
X96000D01*
Y316000D02*
Y322000D01*
X76000Y316000D02*
X96000D01*
X76000D02*
Y319000D01*
X96000Y346500D02*
X96900D01*
X75100D02*
X76000D01*
X96000Y343500D02*
Y346500D01*
X76000Y343500D02*
X96000D01*
X76000D02*
Y349500D01*
X96000D01*
Y346500D02*
Y349500D01*
X75100Y309500D02*
X76000D01*
X96000D02*
X96900D01*
X76000D02*
Y312500D01*
X96000D01*
Y306500D02*
Y312500D01*
X76000Y306500D02*
X96000D01*
X76000D02*
Y309500D01*
X346100D02*
X347000D01*
X367000D02*
X367900D01*
X347000D02*
Y312500D01*
X367000D01*
Y306500D02*
Y312500D01*
X347000Y306500D02*
X367000D01*
X347000D02*
Y309500D01*
X367000Y346500D02*
X367900D01*
X346100D02*
X347000D01*
X367000Y343500D02*
Y346500D01*
X347000Y343500D02*
X367000D01*
X347000D02*
Y349500D01*
X367000D01*
Y346500D02*
Y349500D01*
X346100Y319000D02*
X347000D01*
X367000D02*
X367900D01*
X347000D02*
Y322000D01*
X367000D01*
Y316000D02*
Y322000D01*
X347000Y316000D02*
X367000D01*
X347000D02*
Y319000D01*
X346100Y338000D02*
X347000D01*
X367000D02*
X367900D01*
X347000D02*
Y341000D01*
X367000D01*
Y335000D02*
Y341000D01*
X347000Y335000D02*
X367000D01*
X347000D02*
Y338000D01*
X346100Y329000D02*
X347000D01*
X367000D02*
X367900D01*
X347000D02*
Y332000D01*
X367000D01*
Y326000D02*
Y332000D01*
X347000Y326000D02*
X367000D01*
X347000D02*
Y329000D01*
X395000Y277500D02*
Y297500D01*
X385000D02*
X395000D01*
X385000Y277500D02*
Y297500D01*
Y277500D02*
X395000D01*
X210600Y309500D02*
X211500D01*
X231500D02*
X232400D01*
X211500D02*
Y312500D01*
X231500D01*
Y306500D02*
Y312500D01*
X211500Y306500D02*
X231500D01*
X211500D02*
Y309500D01*
X231500Y346500D02*
X232400D01*
X210600D02*
X211500D01*
X231500Y343500D02*
Y346500D01*
X211500Y343500D02*
X231500D01*
X211500D02*
Y349500D01*
X231500D01*
Y346500D02*
Y349500D01*
X210600Y319000D02*
X211500D01*
X231500D02*
X232400D01*
X211500D02*
Y322000D01*
X231500D01*
Y316000D02*
Y322000D01*
X211500Y316000D02*
X231500D01*
X211500D02*
Y319000D01*
X210600Y338000D02*
X211500D01*
X231500D02*
X232400D01*
X211500D02*
Y341000D01*
X231500D01*
Y335000D02*
Y341000D01*
X211500Y335000D02*
X231500D01*
X211500D02*
Y338000D01*
X210600Y329000D02*
X211500D01*
X231500D02*
X232400D01*
X211500D02*
Y332000D01*
X231500D01*
Y326000D02*
Y332000D01*
X211500Y326000D02*
X231500D01*
X211500D02*
Y329000D01*
X259500Y277500D02*
Y297500D01*
X249500D02*
X259500D01*
X249500Y277500D02*
Y297500D01*
Y277500D02*
X259500D01*
X259000Y7000D02*
Y27000D01*
X249000D02*
X259000D01*
X249000Y7000D02*
Y27000D01*
Y7000D02*
X259000D01*
X210100Y58500D02*
X211000D01*
X231000D02*
X231900D01*
X211000D02*
Y61500D01*
X231000D01*
Y55500D02*
Y61500D01*
X211000Y55500D02*
X231000D01*
X211000D02*
Y58500D01*
X210100Y67500D02*
X211000D01*
X231000D02*
X231900D01*
X211000D02*
Y70500D01*
X231000D01*
Y64500D02*
Y70500D01*
X211000Y64500D02*
X231000D01*
X211000D02*
Y67500D01*
X210100Y48500D02*
X211000D01*
X231000D02*
X231900D01*
X211000D02*
Y51500D01*
X231000D01*
Y45500D02*
Y51500D01*
X211000Y45500D02*
X231000D01*
X211000D02*
Y48500D01*
X231000Y76000D02*
X231900D01*
X210100D02*
X211000D01*
X231000Y73000D02*
Y76000D01*
X211000Y73000D02*
X231000D01*
X211000D02*
Y79000D01*
X231000D01*
Y76000D02*
Y79000D01*
X210100Y39000D02*
X211000D01*
X231000D02*
X231900D01*
X211000D02*
Y42000D01*
X231000D01*
Y36000D02*
Y42000D01*
X211000Y36000D02*
X231000D01*
X211000D02*
Y39000D01*
X394500Y7000D02*
Y27000D01*
X384500D02*
X394500D01*
X384500Y7000D02*
Y27000D01*
Y7000D02*
X394500D01*
X345600Y58500D02*
X346500D01*
X366500D02*
X367400D01*
X346500D02*
Y61500D01*
X366500D01*
Y55500D02*
Y61500D01*
X346500Y55500D02*
X366500D01*
X346500D02*
Y58500D01*
X345600Y67500D02*
X346500D01*
X366500D02*
X367400D01*
X346500D02*
Y70500D01*
X366500D01*
Y64500D02*
Y70500D01*
X346500Y64500D02*
X366500D01*
X346500D02*
Y67500D01*
X345600Y48500D02*
X346500D01*
X366500D02*
X367400D01*
X346500D02*
Y51500D01*
X366500D01*
Y45500D02*
Y51500D01*
X346500Y45500D02*
X366500D01*
X346500D02*
Y48500D01*
X366500Y76000D02*
X367400D01*
X345600D02*
X346500D01*
X366500Y73000D02*
Y76000D01*
X346500Y73000D02*
X366500D01*
X346500D02*
Y79000D01*
X366500D01*
Y76000D02*
Y79000D01*
X345600Y39000D02*
X346500D01*
X366500D02*
X367400D01*
X346500D02*
Y42000D01*
X366500D01*
Y36000D02*
Y42000D01*
X346500Y36000D02*
X366500D01*
X346500D02*
Y39000D01*
X74600D02*
X75500D01*
X95500D02*
X96400D01*
X75500D02*
Y42000D01*
X95500D01*
Y36000D02*
Y42000D01*
X75500Y36000D02*
X95500D01*
X75500D02*
Y39000D01*
X95500Y76000D02*
X96400D01*
X74600D02*
X75500D01*
X95500Y73000D02*
Y76000D01*
X75500Y73000D02*
X95500D01*
X75500D02*
Y79000D01*
X95500D01*
Y76000D02*
Y79000D01*
X74600Y48500D02*
X75500D01*
X95500D02*
X96400D01*
X75500D02*
Y51500D01*
X95500D01*
Y45500D02*
Y51500D01*
X75500Y45500D02*
X95500D01*
X75500D02*
Y48500D01*
X74600Y67500D02*
X75500D01*
X95500D02*
X96400D01*
X75500D02*
Y70500D01*
X95500D01*
Y64500D02*
Y70500D01*
X75500Y64500D02*
X95500D01*
X75500D02*
Y67500D01*
X74600Y58500D02*
X75500D01*
X95500D02*
X96400D01*
X75500D02*
Y61500D01*
X95500D01*
Y55500D02*
Y61500D01*
X75500Y55500D02*
X95500D01*
X75500D02*
Y58500D01*
X123500Y7000D02*
Y27000D01*
X113500D02*
X123500D01*
X113500Y7000D02*
Y27000D01*
Y7000D02*
X123500D01*
X46000Y167936D02*
X48624D01*
Y167280D01*
X46000Y164656D01*
Y164000D01*
X49936D02*
Y166624D01*
X50592D01*
X51248Y165968D01*
Y164000D01*
Y165968D01*
X51904Y166624D01*
X52560Y165968D01*
Y164000D01*
X53872D02*
Y166624D01*
X54527D01*
X55183Y165968D01*
Y164000D01*
Y165968D01*
X55839Y166624D01*
X56495Y165968D01*
Y164000D01*
X61743Y167936D02*
Y164000D01*
X64367D01*
X65679Y167936D02*
Y164000D01*
X67647D01*
X68303Y164656D01*
Y167280D01*
X67647Y167936D01*
X65679D01*
X69614Y164000D02*
Y167936D01*
X71582D01*
X72238Y167280D01*
Y165968D01*
X71582Y165312D01*
X69614D01*
X70926D02*
X72238Y164000D01*
X83500Y171500D02*
X84812D01*
X84156D01*
Y175436D01*
X83500Y174780D01*
X86780Y171500D02*
Y175436D01*
Y172812D02*
X88748Y174124D01*
X86780Y172812D02*
X88748Y171500D01*
X42000Y198500D02*
X43968D01*
X42984D01*
Y204404D01*
X42000Y203420D01*
X46920D02*
X47904Y204404D01*
X49872D01*
X50855Y203420D01*
Y199484D01*
X49872Y198500D01*
X47904D01*
X46920Y199484D01*
Y203420D01*
X52823D02*
X53807Y204404D01*
X55775D01*
X56759Y203420D01*
Y199484D01*
X55775Y198500D01*
X53807D01*
X52823Y199484D01*
Y203420D01*
X58727Y204404D02*
Y198500D01*
Y200468D01*
X62663Y204404D01*
X59711Y201452D01*
X62663Y198500D01*
X80000Y208500D02*
X81312D01*
X80656D01*
Y212436D01*
X80000Y211780D01*
X83280D02*
X83936Y212436D01*
X85248D01*
X85904Y211780D01*
Y209156D01*
X85248Y208500D01*
X83936D01*
X83280Y209156D01*
Y211780D01*
X87216D02*
X87871Y212436D01*
X89183D01*
X89839Y211780D01*
Y209156D01*
X89183Y208500D01*
X87871D01*
X87216Y209156D01*
Y211780D01*
X80000Y200000D02*
X81312D01*
X80656D01*
Y203936D01*
X80000Y203280D01*
X83280D02*
X83936Y203936D01*
X85248D01*
X85904Y203280D01*
Y200656D01*
X85248Y200000D01*
X83936D01*
X83280Y200656D01*
Y203280D01*
X87216D02*
X87871Y203936D01*
X89183D01*
X89839Y203280D01*
Y200656D01*
X89183Y200000D01*
X87871D01*
X87216Y200656D01*
Y203280D01*
X80000Y191000D02*
X81312D01*
X80656D01*
Y194936D01*
X80000Y194280D01*
X83280D02*
X83936Y194936D01*
X85248D01*
X85904Y194280D01*
Y191656D01*
X85248Y191000D01*
X83936D01*
X83280Y191656D01*
Y194280D01*
X87216D02*
X87871Y194936D01*
X89183D01*
X89839Y194280D01*
Y191656D01*
X89183Y191000D01*
X87871D01*
X87216Y191656D01*
Y194280D01*
X80000Y181000D02*
X81312D01*
X80656D01*
Y184936D01*
X80000Y184280D01*
X83280D02*
X83936Y184936D01*
X85248D01*
X85904Y184280D01*
Y181656D01*
X85248Y181000D01*
X83936D01*
X83280Y181656D01*
Y184280D01*
X87216D02*
X87871Y184936D01*
X89183D01*
X89839Y184280D01*
Y181656D01*
X89183Y181000D01*
X87871D01*
X87216Y181656D01*
Y184280D01*
X351000Y181000D02*
X352312D01*
X351656D01*
Y184936D01*
X351000Y184280D01*
X354280D02*
X354936Y184936D01*
X356248D01*
X356904Y184280D01*
Y181656D01*
X356248Y181000D01*
X354936D01*
X354280Y181656D01*
Y184280D01*
X358215D02*
X358872Y184936D01*
X360183D01*
X360839Y184280D01*
Y181656D01*
X360183Y181000D01*
X358872D01*
X358215Y181656D01*
Y184280D01*
X351000Y191000D02*
X352312D01*
X351656D01*
Y194936D01*
X351000Y194280D01*
X354280D02*
X354936Y194936D01*
X356248D01*
X356904Y194280D01*
Y191656D01*
X356248Y191000D01*
X354936D01*
X354280Y191656D01*
Y194280D01*
X358215D02*
X358872Y194936D01*
X360183D01*
X360839Y194280D01*
Y191656D01*
X360183Y191000D01*
X358872D01*
X358215Y191656D01*
Y194280D01*
X351000Y200000D02*
X352312D01*
X351656D01*
Y203936D01*
X351000Y203280D01*
X354280D02*
X354936Y203936D01*
X356248D01*
X356904Y203280D01*
Y200656D01*
X356248Y200000D01*
X354936D01*
X354280Y200656D01*
Y203280D01*
X358215D02*
X358872Y203936D01*
X360183D01*
X360839Y203280D01*
Y200656D01*
X360183Y200000D01*
X358872D01*
X358215Y200656D01*
Y203280D01*
X351000Y208500D02*
X352312D01*
X351656D01*
Y212436D01*
X351000Y211780D01*
X354280D02*
X354936Y212436D01*
X356248D01*
X356904Y211780D01*
Y209156D01*
X356248Y208500D01*
X354936D01*
X354280Y209156D01*
Y211780D01*
X358215D02*
X358872Y212436D01*
X360183D01*
X360839Y211780D01*
Y209156D01*
X360183Y208500D01*
X358872D01*
X358215Y209156D01*
Y211780D01*
X313000Y198500D02*
X314968D01*
X313984D01*
Y204404D01*
X313000Y203420D01*
X317920D02*
X318904Y204404D01*
X320871D01*
X321855Y203420D01*
Y199484D01*
X320871Y198500D01*
X318904D01*
X317920Y199484D01*
Y203420D01*
X323823D02*
X324807Y204404D01*
X326775D01*
X327759Y203420D01*
Y199484D01*
X326775Y198500D01*
X324807D01*
X323823Y199484D01*
Y203420D01*
X329727Y204404D02*
Y198500D01*
Y200468D01*
X333663Y204404D01*
X330711Y201452D01*
X333663Y198500D01*
X354500Y171500D02*
X355812D01*
X355156D01*
Y175436D01*
X354500Y174780D01*
X357780Y171500D02*
Y175436D01*
Y172812D02*
X359748Y174124D01*
X357780Y172812D02*
X359748Y171500D01*
X317000Y167936D02*
X319624D01*
Y167280D01*
X317000Y164656D01*
Y164000D01*
X320936D02*
Y166624D01*
X321592D01*
X322248Y165968D01*
Y164000D01*
Y165968D01*
X322904Y166624D01*
X323560Y165968D01*
Y164000D01*
X324871D02*
Y166624D01*
X325527D01*
X326183Y165968D01*
Y164000D01*
Y165968D01*
X326839Y166624D01*
X327495Y165968D01*
Y164000D01*
X332743Y167936D02*
Y164000D01*
X335367D01*
X336679Y167936D02*
Y164000D01*
X338647D01*
X339302Y164656D01*
Y167280D01*
X338647Y167936D01*
X336679D01*
X340614Y164000D02*
Y167936D01*
X342582D01*
X343238Y167280D01*
Y165968D01*
X342582Y165312D01*
X340614D01*
X341926D02*
X343238Y164000D01*
X215500Y181000D02*
X216812D01*
X216156D01*
Y184936D01*
X215500Y184280D01*
X218780D02*
X219436Y184936D01*
X220748D01*
X221404Y184280D01*
Y181656D01*
X220748Y181000D01*
X219436D01*
X218780Y181656D01*
Y184280D01*
X222715D02*
X223372Y184936D01*
X224683D01*
X225339Y184280D01*
Y181656D01*
X224683Y181000D01*
X223372D01*
X222715Y181656D01*
Y184280D01*
X215500Y191000D02*
X216812D01*
X216156D01*
Y194936D01*
X215500Y194280D01*
X218780D02*
X219436Y194936D01*
X220748D01*
X221404Y194280D01*
Y191656D01*
X220748Y191000D01*
X219436D01*
X218780Y191656D01*
Y194280D01*
X222715D02*
X223372Y194936D01*
X224683D01*
X225339Y194280D01*
Y191656D01*
X224683Y191000D01*
X223372D01*
X222715Y191656D01*
Y194280D01*
X215500Y200000D02*
X216812D01*
X216156D01*
Y203936D01*
X215500Y203280D01*
X218780D02*
X219436Y203936D01*
X220748D01*
X221404Y203280D01*
Y200656D01*
X220748Y200000D01*
X219436D01*
X218780Y200656D01*
Y203280D01*
X222715D02*
X223372Y203936D01*
X224683D01*
X225339Y203280D01*
Y200656D01*
X224683Y200000D01*
X223372D01*
X222715Y200656D01*
Y203280D01*
X215500Y208500D02*
X216812D01*
X216156D01*
Y212436D01*
X215500Y211780D01*
X218780D02*
X219436Y212436D01*
X220748D01*
X221404Y211780D01*
Y209156D01*
X220748Y208500D01*
X219436D01*
X218780Y209156D01*
Y211780D01*
X222715D02*
X223372Y212436D01*
X224683D01*
X225339Y211780D01*
Y209156D01*
X224683Y208500D01*
X223372D01*
X222715Y209156D01*
Y211780D01*
X177500Y198500D02*
X179468D01*
X178484D01*
Y204404D01*
X177500Y203420D01*
X182420D02*
X183404Y204404D01*
X185371D01*
X186355Y203420D01*
Y199484D01*
X185371Y198500D01*
X183404D01*
X182420Y199484D01*
Y203420D01*
X188323D02*
X189307Y204404D01*
X191275D01*
X192259Y203420D01*
Y199484D01*
X191275Y198500D01*
X189307D01*
X188323Y199484D01*
Y203420D01*
X194227Y204404D02*
Y198500D01*
Y200468D01*
X198163Y204404D01*
X195211Y201452D01*
X198163Y198500D01*
X219000Y171500D02*
X220312D01*
X219656D01*
Y175436D01*
X219000Y174780D01*
X222280Y171500D02*
Y175436D01*
Y172812D02*
X224248Y174124D01*
X222280Y172812D02*
X224248Y171500D01*
X181500Y167936D02*
X184124D01*
Y167280D01*
X181500Y164656D01*
Y164000D01*
X185436D02*
Y166624D01*
X186092D01*
X186748Y165968D01*
Y164000D01*
Y165968D01*
X187404Y166624D01*
X188060Y165968D01*
Y164000D01*
X189372D02*
Y166624D01*
X190027D01*
X190683Y165968D01*
Y164000D01*
Y165968D01*
X191339Y166624D01*
X191995Y165968D01*
Y164000D01*
X197243Y167936D02*
Y164000D01*
X199867D01*
X201179Y167936D02*
Y164000D01*
X203147D01*
X203802Y164656D01*
Y167280D01*
X203147Y167936D01*
X201179D01*
X205114Y164000D02*
Y167936D01*
X207082D01*
X207738Y167280D01*
Y165968D01*
X207082Y165312D01*
X205114D01*
X206426D02*
X207738Y164000D01*
X46000Y303936D02*
X48624D01*
Y303280D01*
X46000Y300656D01*
Y300000D01*
X49936D02*
Y302624D01*
X50592D01*
X51248Y301968D01*
Y300000D01*
Y301968D01*
X51904Y302624D01*
X52560Y301968D01*
Y300000D01*
X53872D02*
Y302624D01*
X54527D01*
X55183Y301968D01*
Y300000D01*
Y301968D01*
X55839Y302624D01*
X56495Y301968D01*
Y300000D01*
X61743Y303936D02*
Y300000D01*
X64367D01*
X65679Y303936D02*
Y300000D01*
X67647D01*
X68303Y300656D01*
Y303280D01*
X67647Y303936D01*
X65679D01*
X69614Y300000D02*
Y303936D01*
X71582D01*
X72238Y303280D01*
Y301968D01*
X71582Y301312D01*
X69614D01*
X70926D02*
X72238Y300000D01*
X83500Y307500D02*
X84812D01*
X84156D01*
Y311436D01*
X83500Y310780D01*
X86780Y307500D02*
Y311436D01*
Y308812D02*
X88748Y310124D01*
X86780Y308812D02*
X88748Y307500D01*
X42000Y334500D02*
X43968D01*
X42984D01*
Y340404D01*
X42000Y339420D01*
X46920D02*
X47904Y340404D01*
X49872D01*
X50855Y339420D01*
Y335484D01*
X49872Y334500D01*
X47904D01*
X46920Y335484D01*
Y339420D01*
X52823D02*
X53807Y340404D01*
X55775D01*
X56759Y339420D01*
Y335484D01*
X55775Y334500D01*
X53807D01*
X52823Y335484D01*
Y339420D01*
X58727Y340404D02*
Y334500D01*
Y336468D01*
X62663Y340404D01*
X59711Y337452D01*
X62663Y334500D01*
X80000Y344500D02*
X81312D01*
X80656D01*
Y348436D01*
X80000Y347780D01*
X83280D02*
X83936Y348436D01*
X85248D01*
X85904Y347780D01*
Y345156D01*
X85248Y344500D01*
X83936D01*
X83280Y345156D01*
Y347780D01*
X87216D02*
X87871Y348436D01*
X89183D01*
X89839Y347780D01*
Y345156D01*
X89183Y344500D01*
X87871D01*
X87216Y345156D01*
Y347780D01*
X80000Y336000D02*
X81312D01*
X80656D01*
Y339936D01*
X80000Y339280D01*
X83280D02*
X83936Y339936D01*
X85248D01*
X85904Y339280D01*
Y336656D01*
X85248Y336000D01*
X83936D01*
X83280Y336656D01*
Y339280D01*
X87216D02*
X87871Y339936D01*
X89183D01*
X89839Y339280D01*
Y336656D01*
X89183Y336000D01*
X87871D01*
X87216Y336656D01*
Y339280D01*
X80000Y327000D02*
X81312D01*
X80656D01*
Y330936D01*
X80000Y330280D01*
X83280D02*
X83936Y330936D01*
X85248D01*
X85904Y330280D01*
Y327656D01*
X85248Y327000D01*
X83936D01*
X83280Y327656D01*
Y330280D01*
X87216D02*
X87871Y330936D01*
X89183D01*
X89839Y330280D01*
Y327656D01*
X89183Y327000D01*
X87871D01*
X87216Y327656D01*
Y330280D01*
X80000Y317000D02*
X81312D01*
X80656D01*
Y320936D01*
X80000Y320280D01*
X83280D02*
X83936Y320936D01*
X85248D01*
X85904Y320280D01*
Y317656D01*
X85248Y317000D01*
X83936D01*
X83280Y317656D01*
Y320280D01*
X87216D02*
X87871Y320936D01*
X89183D01*
X89839Y320280D01*
Y317656D01*
X89183Y317000D01*
X87871D01*
X87216Y317656D01*
Y320280D01*
X351000Y317000D02*
X352312D01*
X351656D01*
Y320936D01*
X351000Y320280D01*
X354280D02*
X354936Y320936D01*
X356248D01*
X356904Y320280D01*
Y317656D01*
X356248Y317000D01*
X354936D01*
X354280Y317656D01*
Y320280D01*
X358215D02*
X358872Y320936D01*
X360183D01*
X360839Y320280D01*
Y317656D01*
X360183Y317000D01*
X358872D01*
X358215Y317656D01*
Y320280D01*
X351000Y327000D02*
X352312D01*
X351656D01*
Y330936D01*
X351000Y330280D01*
X354280D02*
X354936Y330936D01*
X356248D01*
X356904Y330280D01*
Y327656D01*
X356248Y327000D01*
X354936D01*
X354280Y327656D01*
Y330280D01*
X358215D02*
X358872Y330936D01*
X360183D01*
X360839Y330280D01*
Y327656D01*
X360183Y327000D01*
X358872D01*
X358215Y327656D01*
Y330280D01*
X351000Y336000D02*
X352312D01*
X351656D01*
Y339936D01*
X351000Y339280D01*
X354280D02*
X354936Y339936D01*
X356248D01*
X356904Y339280D01*
Y336656D01*
X356248Y336000D01*
X354936D01*
X354280Y336656D01*
Y339280D01*
X358215D02*
X358872Y339936D01*
X360183D01*
X360839Y339280D01*
Y336656D01*
X360183Y336000D01*
X358872D01*
X358215Y336656D01*
Y339280D01*
X351000Y344500D02*
X352312D01*
X351656D01*
Y348436D01*
X351000Y347780D01*
X354280D02*
X354936Y348436D01*
X356248D01*
X356904Y347780D01*
Y345156D01*
X356248Y344500D01*
X354936D01*
X354280Y345156D01*
Y347780D01*
X358215D02*
X358872Y348436D01*
X360183D01*
X360839Y347780D01*
Y345156D01*
X360183Y344500D01*
X358872D01*
X358215Y345156D01*
Y347780D01*
X313000Y334500D02*
X314968D01*
X313984D01*
Y340404D01*
X313000Y339420D01*
X317920D02*
X318904Y340404D01*
X320871D01*
X321855Y339420D01*
Y335484D01*
X320871Y334500D01*
X318904D01*
X317920Y335484D01*
Y339420D01*
X323823D02*
X324807Y340404D01*
X326775D01*
X327759Y339420D01*
Y335484D01*
X326775Y334500D01*
X324807D01*
X323823Y335484D01*
Y339420D01*
X329727Y340404D02*
Y334500D01*
Y336468D01*
X333663Y340404D01*
X330711Y337452D01*
X333663Y334500D01*
X354500Y307500D02*
X355812D01*
X355156D01*
Y311436D01*
X354500Y310780D01*
X357780Y307500D02*
Y311436D01*
Y308812D02*
X359748Y310124D01*
X357780Y308812D02*
X359748Y307500D01*
X317000Y303936D02*
X319624D01*
Y303280D01*
X317000Y300656D01*
Y300000D01*
X320936D02*
Y302624D01*
X321592D01*
X322248Y301968D01*
Y300000D01*
Y301968D01*
X322904Y302624D01*
X323560Y301968D01*
Y300000D01*
X324871D02*
Y302624D01*
X325527D01*
X326183Y301968D01*
Y300000D01*
Y301968D01*
X326839Y302624D01*
X327495Y301968D01*
Y300000D01*
X332743Y303936D02*
Y300000D01*
X335367D01*
X336679Y303936D02*
Y300000D01*
X338647D01*
X339302Y300656D01*
Y303280D01*
X338647Y303936D01*
X336679D01*
X340614Y300000D02*
Y303936D01*
X342582D01*
X343238Y303280D01*
Y301968D01*
X342582Y301312D01*
X340614D01*
X341926D02*
X343238Y300000D01*
X215500Y317000D02*
X216812D01*
X216156D01*
Y320936D01*
X215500Y320280D01*
X218780D02*
X219436Y320936D01*
X220748D01*
X221404Y320280D01*
Y317656D01*
X220748Y317000D01*
X219436D01*
X218780Y317656D01*
Y320280D01*
X222715D02*
X223372Y320936D01*
X224683D01*
X225339Y320280D01*
Y317656D01*
X224683Y317000D01*
X223372D01*
X222715Y317656D01*
Y320280D01*
X215500Y327000D02*
X216812D01*
X216156D01*
Y330936D01*
X215500Y330280D01*
X218780D02*
X219436Y330936D01*
X220748D01*
X221404Y330280D01*
Y327656D01*
X220748Y327000D01*
X219436D01*
X218780Y327656D01*
Y330280D01*
X222715D02*
X223372Y330936D01*
X224683D01*
X225339Y330280D01*
Y327656D01*
X224683Y327000D01*
X223372D01*
X222715Y327656D01*
Y330280D01*
X215500Y336000D02*
X216812D01*
X216156D01*
Y339936D01*
X215500Y339280D01*
X218780D02*
X219436Y339936D01*
X220748D01*
X221404Y339280D01*
Y336656D01*
X220748Y336000D01*
X219436D01*
X218780Y336656D01*
Y339280D01*
X222715D02*
X223372Y339936D01*
X224683D01*
X225339Y339280D01*
Y336656D01*
X224683Y336000D01*
X223372D01*
X222715Y336656D01*
Y339280D01*
X215500Y344500D02*
X216812D01*
X216156D01*
Y348436D01*
X215500Y347780D01*
X218780D02*
X219436Y348436D01*
X220748D01*
X221404Y347780D01*
Y345156D01*
X220748Y344500D01*
X219436D01*
X218780Y345156D01*
Y347780D01*
X222715D02*
X223372Y348436D01*
X224683D01*
X225339Y347780D01*
Y345156D01*
X224683Y344500D01*
X223372D01*
X222715Y345156D01*
Y347780D01*
X177500Y334500D02*
X179468D01*
X178484D01*
Y340404D01*
X177500Y339420D01*
X182420D02*
X183404Y340404D01*
X185371D01*
X186355Y339420D01*
Y335484D01*
X185371Y334500D01*
X183404D01*
X182420Y335484D01*
Y339420D01*
X188323D02*
X189307Y340404D01*
X191275D01*
X192259Y339420D01*
Y335484D01*
X191275Y334500D01*
X189307D01*
X188323Y335484D01*
Y339420D01*
X194227Y340404D02*
Y334500D01*
Y336468D01*
X198163Y340404D01*
X195211Y337452D01*
X198163Y334500D01*
X219000Y307500D02*
X220312D01*
X219656D01*
Y311436D01*
X219000Y310780D01*
X222280Y307500D02*
Y311436D01*
Y308812D02*
X224248Y310124D01*
X222280Y308812D02*
X224248Y307500D01*
X181500Y303936D02*
X184124D01*
Y303280D01*
X181500Y300656D01*
Y300000D01*
X185436D02*
Y302624D01*
X186092D01*
X186748Y301968D01*
Y300000D01*
Y301968D01*
X187404Y302624D01*
X188060Y301968D01*
Y300000D01*
X189372D02*
Y302624D01*
X190027D01*
X190683Y301968D01*
Y300000D01*
Y301968D01*
X191339Y302624D01*
X191995Y301968D01*
Y300000D01*
X197243Y303936D02*
Y300000D01*
X199867D01*
X201179Y303936D02*
Y300000D01*
X203147D01*
X203802Y300656D01*
Y303280D01*
X203147Y303936D01*
X201179D01*
X205114Y300000D02*
Y303936D01*
X207082D01*
X207738Y303280D01*
Y301968D01*
X207082Y301312D01*
X205114D01*
X206426D02*
X207738Y300000D01*
X181000Y33436D02*
X183624D01*
Y32780D01*
X181000Y30156D01*
Y29500D01*
X184936D02*
Y32124D01*
X185592D01*
X186248Y31468D01*
Y29500D01*
Y31468D01*
X186904Y32124D01*
X187560Y31468D01*
Y29500D01*
X188872D02*
Y32124D01*
X189527D01*
X190183Y31468D01*
Y29500D01*
Y31468D01*
X190839Y32124D01*
X191495Y31468D01*
Y29500D01*
X196743Y33436D02*
Y29500D01*
X199367D01*
X200679Y33436D02*
Y29500D01*
X202647D01*
X203303Y30156D01*
Y32780D01*
X202647Y33436D01*
X200679D01*
X204614Y29500D02*
Y33436D01*
X206582D01*
X207238Y32780D01*
Y31468D01*
X206582Y30812D01*
X204614D01*
X205926D02*
X207238Y29500D01*
X218500Y37000D02*
X219812D01*
X219156D01*
Y40936D01*
X218500Y40280D01*
X221780Y37000D02*
Y40936D01*
Y38312D02*
X223748Y39624D01*
X221780Y38312D02*
X223748Y37000D01*
X177000Y64000D02*
X178968D01*
X177984D01*
Y69904D01*
X177000Y68920D01*
X181920D02*
X182904Y69904D01*
X184871D01*
X185855Y68920D01*
Y64984D01*
X184871Y64000D01*
X182904D01*
X181920Y64984D01*
Y68920D01*
X187823D02*
X188807Y69904D01*
X190775D01*
X191759Y68920D01*
Y64984D01*
X190775Y64000D01*
X188807D01*
X187823Y64984D01*
Y68920D01*
X193727Y69904D02*
Y64000D01*
Y65968D01*
X197663Y69904D01*
X194711Y66952D01*
X197663Y64000D01*
X215000Y74000D02*
X216312D01*
X215656D01*
Y77936D01*
X215000Y77280D01*
X218280D02*
X218936Y77936D01*
X220248D01*
X220904Y77280D01*
Y74656D01*
X220248Y74000D01*
X218936D01*
X218280Y74656D01*
Y77280D01*
X222216D02*
X222871Y77936D01*
X224183D01*
X224839Y77280D01*
Y74656D01*
X224183Y74000D01*
X222871D01*
X222216Y74656D01*
Y77280D01*
X215000Y65500D02*
X216312D01*
X215656D01*
Y69436D01*
X215000Y68780D01*
X218280D02*
X218936Y69436D01*
X220248D01*
X220904Y68780D01*
Y66156D01*
X220248Y65500D01*
X218936D01*
X218280Y66156D01*
Y68780D01*
X222216D02*
X222871Y69436D01*
X224183D01*
X224839Y68780D01*
Y66156D01*
X224183Y65500D01*
X222871D01*
X222216Y66156D01*
Y68780D01*
X215000Y56500D02*
X216312D01*
X215656D01*
Y60436D01*
X215000Y59780D01*
X218280D02*
X218936Y60436D01*
X220248D01*
X220904Y59780D01*
Y57156D01*
X220248Y56500D01*
X218936D01*
X218280Y57156D01*
Y59780D01*
X222216D02*
X222871Y60436D01*
X224183D01*
X224839Y59780D01*
Y57156D01*
X224183Y56500D01*
X222871D01*
X222216Y57156D01*
Y59780D01*
X215000Y46500D02*
X216312D01*
X215656D01*
Y50436D01*
X215000Y49780D01*
X218280D02*
X218936Y50436D01*
X220248D01*
X220904Y49780D01*
Y47156D01*
X220248Y46500D01*
X218936D01*
X218280Y47156D01*
Y49780D01*
X222216D02*
X222871Y50436D01*
X224183D01*
X224839Y49780D01*
Y47156D01*
X224183Y46500D01*
X222871D01*
X222216Y47156D01*
Y49780D01*
X316500Y33436D02*
X319124D01*
Y32780D01*
X316500Y30156D01*
Y29500D01*
X320436D02*
Y32124D01*
X321092D01*
X321748Y31468D01*
Y29500D01*
Y31468D01*
X322404Y32124D01*
X323060Y31468D01*
Y29500D01*
X324372D02*
Y32124D01*
X325027D01*
X325683Y31468D01*
Y29500D01*
Y31468D01*
X326339Y32124D01*
X326995Y31468D01*
Y29500D01*
X332243Y33436D02*
Y29500D01*
X334867D01*
X336179Y33436D02*
Y29500D01*
X338147D01*
X338803Y30156D01*
Y32780D01*
X338147Y33436D01*
X336179D01*
X340114Y29500D02*
Y33436D01*
X342082D01*
X342738Y32780D01*
Y31468D01*
X342082Y30812D01*
X340114D01*
X341426D02*
X342738Y29500D01*
X354000Y37000D02*
X355312D01*
X354656D01*
Y40936D01*
X354000Y40280D01*
X357280Y37000D02*
Y40936D01*
Y38312D02*
X359248Y39624D01*
X357280Y38312D02*
X359248Y37000D01*
X312500Y64000D02*
X314468D01*
X313484D01*
Y69904D01*
X312500Y68920D01*
X317420D02*
X318404Y69904D01*
X320372D01*
X321355Y68920D01*
Y64984D01*
X320372Y64000D01*
X318404D01*
X317420Y64984D01*
Y68920D01*
X323323D02*
X324307Y69904D01*
X326275D01*
X327259Y68920D01*
Y64984D01*
X326275Y64000D01*
X324307D01*
X323323Y64984D01*
Y68920D01*
X329227Y69904D02*
Y64000D01*
Y65968D01*
X333163Y69904D01*
X330211Y66952D01*
X333163Y64000D01*
X350500Y74000D02*
X351812D01*
X351156D01*
Y77936D01*
X350500Y77280D01*
X353780D02*
X354436Y77936D01*
X355748D01*
X356404Y77280D01*
Y74656D01*
X355748Y74000D01*
X354436D01*
X353780Y74656D01*
Y77280D01*
X357716D02*
X358371Y77936D01*
X359683D01*
X360339Y77280D01*
Y74656D01*
X359683Y74000D01*
X358371D01*
X357716Y74656D01*
Y77280D01*
X350500Y65500D02*
X351812D01*
X351156D01*
Y69436D01*
X350500Y68780D01*
X353780D02*
X354436Y69436D01*
X355748D01*
X356404Y68780D01*
Y66156D01*
X355748Y65500D01*
X354436D01*
X353780Y66156D01*
Y68780D01*
X357716D02*
X358371Y69436D01*
X359683D01*
X360339Y68780D01*
Y66156D01*
X359683Y65500D01*
X358371D01*
X357716Y66156D01*
Y68780D01*
X350500Y56500D02*
X351812D01*
X351156D01*
Y60436D01*
X350500Y59780D01*
X353780D02*
X354436Y60436D01*
X355748D01*
X356404Y59780D01*
Y57156D01*
X355748Y56500D01*
X354436D01*
X353780Y57156D01*
Y59780D01*
X357716D02*
X358371Y60436D01*
X359683D01*
X360339Y59780D01*
Y57156D01*
X359683Y56500D01*
X358371D01*
X357716Y57156D01*
Y59780D01*
X350500Y46500D02*
X351812D01*
X351156D01*
Y50436D01*
X350500Y49780D01*
X353780D02*
X354436Y50436D01*
X355748D01*
X356404Y49780D01*
Y47156D01*
X355748Y46500D01*
X354436D01*
X353780Y47156D01*
Y49780D01*
X357716D02*
X358371Y50436D01*
X359683D01*
X360339Y49780D01*
Y47156D01*
X359683Y46500D01*
X358371D01*
X357716Y47156D01*
Y49780D01*
X79500Y46500D02*
X80812D01*
X80156D01*
Y50436D01*
X79500Y49780D01*
X82780D02*
X83436Y50436D01*
X84748D01*
X85404Y49780D01*
Y47156D01*
X84748Y46500D01*
X83436D01*
X82780Y47156D01*
Y49780D01*
X86716D02*
X87371Y50436D01*
X88683D01*
X89339Y49780D01*
Y47156D01*
X88683Y46500D01*
X87371D01*
X86716Y47156D01*
Y49780D01*
X79500Y56500D02*
X80812D01*
X80156D01*
Y60436D01*
X79500Y59780D01*
X82780D02*
X83436Y60436D01*
X84748D01*
X85404Y59780D01*
Y57156D01*
X84748Y56500D01*
X83436D01*
X82780Y57156D01*
Y59780D01*
X86716D02*
X87371Y60436D01*
X88683D01*
X89339Y59780D01*
Y57156D01*
X88683Y56500D01*
X87371D01*
X86716Y57156D01*
Y59780D01*
X79500Y65500D02*
X80812D01*
X80156D01*
Y69436D01*
X79500Y68780D01*
X82780D02*
X83436Y69436D01*
X84748D01*
X85404Y68780D01*
Y66156D01*
X84748Y65500D01*
X83436D01*
X82780Y66156D01*
Y68780D01*
X86716D02*
X87371Y69436D01*
X88683D01*
X89339Y68780D01*
Y66156D01*
X88683Y65500D01*
X87371D01*
X86716Y66156D01*
Y68780D01*
X79500Y74000D02*
X80812D01*
X80156D01*
Y77936D01*
X79500Y77280D01*
X82780D02*
X83436Y77936D01*
X84748D01*
X85404Y77280D01*
Y74656D01*
X84748Y74000D01*
X83436D01*
X82780Y74656D01*
Y77280D01*
X86716D02*
X87371Y77936D01*
X88683D01*
X89339Y77280D01*
Y74656D01*
X88683Y74000D01*
X87371D01*
X86716Y74656D01*
Y77280D01*
X41500Y64000D02*
X43468D01*
X42484D01*
Y69904D01*
X41500Y68920D01*
X46420D02*
X47404Y69904D01*
X49371D01*
X50355Y68920D01*
Y64984D01*
X49371Y64000D01*
X47404D01*
X46420Y64984D01*
Y68920D01*
X52323D02*
X53307Y69904D01*
X55275D01*
X56259Y68920D01*
Y64984D01*
X55275Y64000D01*
X53307D01*
X52323Y64984D01*
Y68920D01*
X58227Y69904D02*
Y64000D01*
Y65968D01*
X62163Y69904D01*
X59211Y66952D01*
X62163Y64000D01*
X83000Y37000D02*
X84312D01*
X83656D01*
Y40936D01*
X83000Y40280D01*
X86280Y37000D02*
Y40936D01*
Y38312D02*
X88248Y39624D01*
X86280Y38312D02*
X88248Y37000D01*
X45500Y33436D02*
X48124D01*
Y32780D01*
X45500Y30156D01*
Y29500D01*
X49436D02*
Y32124D01*
X50092D01*
X50748Y31468D01*
Y29500D01*
Y31468D01*
X51404Y32124D01*
X52060Y31468D01*
Y29500D01*
X53372D02*
Y32124D01*
X54027D01*
X54683Y31468D01*
Y29500D01*
Y31468D01*
X55339Y32124D01*
X55995Y31468D01*
Y29500D01*
X61243Y33436D02*
Y29500D01*
X63867D01*
X65179Y33436D02*
Y29500D01*
X67147D01*
X67803Y30156D01*
Y32780D01*
X67147Y33436D01*
X65179D01*
X69114Y29500D02*
Y33436D01*
X71082D01*
X71738Y32780D01*
Y31468D01*
X71082Y30812D01*
X69114D01*
X70426D02*
X71738Y29500D01*
D23*
X39402Y186445D02*
X64598D01*
Y194870D02*
Y213098D01*
X54874D02*
X64598D01*
X39402D02*
X49126D01*
X39402Y194870D02*
Y213098D01*
X310402Y186445D02*
X335598D01*
Y194870D02*
Y213098D01*
X325874D02*
X335598D01*
X310402D02*
X320126D01*
X310402Y194870D02*
Y213098D01*
X174902Y186445D02*
X200098D01*
Y194870D02*
Y213098D01*
X190374D02*
X200098D01*
X174902D02*
X184626D01*
X174902Y194870D02*
Y213098D01*
X39402Y322445D02*
X64598D01*
Y330870D02*
Y349098D01*
X54874D02*
X64598D01*
X39402D02*
X49126D01*
X39402Y330870D02*
Y349098D01*
X310402Y322445D02*
X335598D01*
Y330870D02*
Y349098D01*
X325874D02*
X335598D01*
X310402D02*
X320126D01*
X310402Y330870D02*
Y349098D01*
X174902Y322445D02*
X200098D01*
Y330870D02*
Y349098D01*
X190374D02*
X200098D01*
X174902D02*
X184626D01*
X174902Y330870D02*
Y349098D01*
X174402Y51945D02*
X199598D01*
Y60370D02*
Y78598D01*
X189874D02*
X199598D01*
X174402D02*
X184126D01*
X174402Y60370D02*
Y78598D01*
X309902Y51945D02*
X335098D01*
Y60370D02*
Y78598D01*
X325374D02*
X335098D01*
X309902D02*
X319626D01*
X309902Y60370D02*
Y78598D01*
X38902Y51945D02*
X64098D01*
Y60370D02*
Y78598D01*
X54374D02*
X64098D01*
X38902D02*
X48626D01*
X38902Y60370D02*
Y78598D01*
D24*
X241998Y394792D02*
Y391249D01*
X243769D01*
X244359Y391840D01*
Y394201D01*
X243769Y394792D01*
X241998D01*
X245540Y391249D02*
Y393611D01*
X246721Y394792D01*
X247902Y393611D01*
Y391249D01*
Y393021D01*
X245540D01*
X249082Y391249D02*
Y394792D01*
X250853D01*
X251444Y394201D01*
Y393021D01*
X250853Y392430D01*
X249082D01*
X250263D02*
X251444Y391249D01*
X252624Y394792D02*
Y391249D01*
Y392430D01*
X254986Y394792D01*
X253215Y393021D01*
X254986Y391249D01*
X236094Y387777D02*
X235504Y388368D01*
X234323D01*
X233733Y387777D01*
Y387187D01*
X234323Y386597D01*
X235504D01*
X236094Y386006D01*
Y385416D01*
X235504Y384826D01*
X234323D01*
X233733Y385416D01*
X239636Y388368D02*
X237275D01*
Y384826D01*
X239636D01*
X237275Y386597D02*
X238456D01*
X240817Y384826D02*
Y388368D01*
X243179Y384826D01*
Y388368D01*
X246721Y387777D02*
X246130Y388368D01*
X244950D01*
X244359Y387777D01*
Y387187D01*
X244950Y386597D01*
X246130D01*
X246721Y386006D01*
Y385416D01*
X246130Y384826D01*
X244950D01*
X244359Y385416D01*
X247902Y388368D02*
X249082D01*
X248492D01*
Y384826D01*
X247902D01*
X249082D01*
X250853Y388368D02*
X253215D01*
X252034D01*
Y384826D01*
X254396Y388368D02*
X255576D01*
X254986D01*
Y384826D01*
X254396D01*
X255576D01*
X257347Y388368D02*
Y386006D01*
X258528Y384826D01*
X259709Y386006D01*
Y388368D01*
X263251D02*
X260890D01*
Y384826D01*
X263251D01*
X260890Y386597D02*
X262070D01*
X239636Y381354D02*
X239046Y381944D01*
X237865D01*
X237275Y381354D01*
Y378992D01*
X237865Y378402D01*
X239046D01*
X239636Y378992D01*
X240817Y381944D02*
X241998D01*
X241408D01*
Y378402D01*
X240817D01*
X241998D01*
X243769D02*
Y381944D01*
X245540D01*
X246130Y381354D01*
Y380173D01*
X245540Y379583D01*
X243769D01*
X244950D02*
X246130Y378402D01*
X249673Y381354D02*
X249082Y381944D01*
X247902D01*
X247311Y381354D01*
Y378992D01*
X247902Y378402D01*
X249082D01*
X249673Y378992D01*
X250853Y381944D02*
Y378992D01*
X251444Y378402D01*
X252624D01*
X253215Y378992D01*
Y381944D01*
X254396D02*
X255576D01*
X254986D01*
Y378402D01*
X254396D01*
X255576D01*
X257347Y381944D02*
X259709D01*
X258528D01*
Y378402D01*
X377498Y394792D02*
Y391249D01*
X379269D01*
X379859Y391840D01*
Y394201D01*
X379269Y394792D01*
X377498D01*
X381040Y391249D02*
Y393611D01*
X382221Y394792D01*
X383401Y393611D01*
Y391249D01*
Y393021D01*
X381040D01*
X384582Y391249D02*
Y394792D01*
X386353D01*
X386944Y394201D01*
Y393021D01*
X386353Y392430D01*
X384582D01*
X385763D02*
X386944Y391249D01*
X388124Y394792D02*
Y391249D01*
Y392430D01*
X390486Y394792D01*
X388715Y393021D01*
X390486Y391249D01*
X371594Y387777D02*
X371004Y388368D01*
X369823D01*
X369233Y387777D01*
Y387187D01*
X369823Y386597D01*
X371004D01*
X371594Y386006D01*
Y385416D01*
X371004Y384826D01*
X369823D01*
X369233Y385416D01*
X375136Y388368D02*
X372775D01*
Y384826D01*
X375136D01*
X372775Y386597D02*
X373956D01*
X376317Y384826D02*
Y388368D01*
X378679Y384826D01*
Y388368D01*
X382221Y387777D02*
X381630Y388368D01*
X380450D01*
X379859Y387777D01*
Y387187D01*
X380450Y386597D01*
X381630D01*
X382221Y386006D01*
Y385416D01*
X381630Y384826D01*
X380450D01*
X379859Y385416D01*
X383401Y388368D02*
X384582D01*
X383992D01*
Y384826D01*
X383401D01*
X384582D01*
X386353Y388368D02*
X388715D01*
X387534D01*
Y384826D01*
X389896Y388368D02*
X391076D01*
X390486D01*
Y384826D01*
X389896D01*
X391076D01*
X392847Y388368D02*
Y386006D01*
X394028Y384826D01*
X395209Y386006D01*
Y388368D01*
X398751D02*
X396390D01*
Y384826D01*
X398751D01*
X396390Y386597D02*
X397570D01*
X375136Y381354D02*
X374546Y381944D01*
X373365D01*
X372775Y381354D01*
Y378992D01*
X373365Y378402D01*
X374546D01*
X375136Y378992D01*
X376317Y381944D02*
X377498D01*
X376908D01*
Y378402D01*
X376317D01*
X377498D01*
X379269D02*
Y381944D01*
X381040D01*
X381630Y381354D01*
Y380173D01*
X381040Y379583D01*
X379269D01*
X380450D02*
X381630Y378402D01*
X385173Y381354D02*
X384582Y381944D01*
X383401D01*
X382811Y381354D01*
Y378992D01*
X383401Y378402D01*
X384582D01*
X385173Y378992D01*
X386353Y381944D02*
Y378992D01*
X386944Y378402D01*
X388124D01*
X388715Y378992D01*
Y381944D01*
X389896D02*
X391076D01*
X390486D01*
Y378402D01*
X389896D01*
X391076D01*
X392847Y381944D02*
X395209D01*
X394028D01*
Y378402D01*
X377498Y258792D02*
Y255249D01*
X379269D01*
X379859Y255840D01*
Y258201D01*
X379269Y258792D01*
X377498D01*
X381040Y255249D02*
Y257611D01*
X382221Y258792D01*
X383401Y257611D01*
Y255249D01*
Y257020D01*
X381040D01*
X384582Y255249D02*
Y258792D01*
X386353D01*
X386944Y258201D01*
Y257020D01*
X386353Y256430D01*
X384582D01*
X385763D02*
X386944Y255249D01*
X388124Y258792D02*
Y255249D01*
Y256430D01*
X390486Y258792D01*
X388715Y257020D01*
X390486Y255249D01*
X371594Y251777D02*
X371004Y252368D01*
X369823D01*
X369233Y251777D01*
Y251187D01*
X369823Y250597D01*
X371004D01*
X371594Y250006D01*
Y249416D01*
X371004Y248826D01*
X369823D01*
X369233Y249416D01*
X375136Y252368D02*
X372775D01*
Y248826D01*
X375136D01*
X372775Y250597D02*
X373956D01*
X376317Y248826D02*
Y252368D01*
X378679Y248826D01*
Y252368D01*
X382221Y251777D02*
X381630Y252368D01*
X380450D01*
X379859Y251777D01*
Y251187D01*
X380450Y250597D01*
X381630D01*
X382221Y250006D01*
Y249416D01*
X381630Y248826D01*
X380450D01*
X379859Y249416D01*
X383401Y252368D02*
X384582D01*
X383992D01*
Y248826D01*
X383401D01*
X384582D01*
X386353Y252368D02*
X388715D01*
X387534D01*
Y248826D01*
X389896Y252368D02*
X391076D01*
X390486D01*
Y248826D01*
X389896D01*
X391076D01*
X392847Y252368D02*
Y250006D01*
X394028Y248826D01*
X395209Y250006D01*
Y252368D01*
X398751D02*
X396390D01*
Y248826D01*
X398751D01*
X396390Y250597D02*
X397570D01*
X375136Y245354D02*
X374546Y245944D01*
X373365D01*
X372775Y245354D01*
Y242992D01*
X373365Y242402D01*
X374546D01*
X375136Y242992D01*
X376317Y245944D02*
X377498D01*
X376908D01*
Y242402D01*
X376317D01*
X377498D01*
X379269D02*
Y245944D01*
X381040D01*
X381630Y245354D01*
Y244173D01*
X381040Y243583D01*
X379269D01*
X380450D02*
X381630Y242402D01*
X385173Y245354D02*
X384582Y245944D01*
X383401D01*
X382811Y245354D01*
Y242992D01*
X383401Y242402D01*
X384582D01*
X385173Y242992D01*
X386353Y245944D02*
Y242992D01*
X386944Y242402D01*
X388124D01*
X388715Y242992D01*
Y245944D01*
X389896D02*
X391076D01*
X390486D01*
Y242402D01*
X389896D01*
X391076D01*
X392847Y245944D02*
X395209D01*
X394028D01*
Y242402D01*
X106498Y258792D02*
Y255249D01*
X108269D01*
X108859Y255840D01*
Y258201D01*
X108269Y258792D01*
X106498D01*
X110040Y255249D02*
Y257611D01*
X111221Y258792D01*
X112401Y257611D01*
Y255249D01*
Y257020D01*
X110040D01*
X113582Y255249D02*
Y258792D01*
X115353D01*
X115944Y258201D01*
Y257020D01*
X115353Y256430D01*
X113582D01*
X114763D02*
X115944Y255249D01*
X117124Y258792D02*
Y255249D01*
Y256430D01*
X119486Y258792D01*
X117715Y257020D01*
X119486Y255249D01*
X100594Y251777D02*
X100004Y252368D01*
X98823D01*
X98233Y251777D01*
Y251187D01*
X98823Y250597D01*
X100004D01*
X100594Y250006D01*
Y249416D01*
X100004Y248826D01*
X98823D01*
X98233Y249416D01*
X104137Y252368D02*
X101775D01*
Y248826D01*
X104137D01*
X101775Y250597D02*
X102956D01*
X105317Y248826D02*
Y252368D01*
X107679Y248826D01*
Y252368D01*
X111221Y251777D02*
X110631Y252368D01*
X109450D01*
X108859Y251777D01*
Y251187D01*
X109450Y250597D01*
X110631D01*
X111221Y250006D01*
Y249416D01*
X110631Y248826D01*
X109450D01*
X108859Y249416D01*
X112401Y252368D02*
X113582D01*
X112992D01*
Y248826D01*
X112401D01*
X113582D01*
X115353Y252368D02*
X117715D01*
X116534D01*
Y248826D01*
X118895Y252368D02*
X120076D01*
X119486D01*
Y248826D01*
X118895D01*
X120076D01*
X121847Y252368D02*
Y250006D01*
X123028Y248826D01*
X124209Y250006D01*
Y252368D01*
X127751D02*
X125390D01*
Y248826D01*
X127751D01*
X125390Y250597D02*
X126570D01*
X104137Y245354D02*
X103546Y245944D01*
X102365D01*
X101775Y245354D01*
Y242992D01*
X102365Y242402D01*
X103546D01*
X104137Y242992D01*
X105317Y245944D02*
X106498D01*
X105908D01*
Y242402D01*
X105317D01*
X106498D01*
X108269D02*
Y245944D01*
X110040D01*
X110631Y245354D01*
Y244173D01*
X110040Y243583D01*
X108269D01*
X109450D02*
X110631Y242402D01*
X114173Y245354D02*
X113582Y245944D01*
X112401D01*
X111811Y245354D01*
Y242992D01*
X112401Y242402D01*
X113582D01*
X114173Y242992D01*
X115353Y245944D02*
Y242992D01*
X115944Y242402D01*
X117124D01*
X117715Y242992D01*
Y245944D01*
X118895D02*
X120076D01*
X119486D01*
Y242402D01*
X118895D01*
X120076D01*
X121847Y245944D02*
X124209D01*
X123028D01*
Y242402D01*
X106498Y394792D02*
Y391249D01*
X108269D01*
X108859Y391840D01*
Y394201D01*
X108269Y394792D01*
X106498D01*
X110040Y391249D02*
Y393611D01*
X111221Y394792D01*
X112401Y393611D01*
Y391249D01*
Y393021D01*
X110040D01*
X113582Y391249D02*
Y394792D01*
X115353D01*
X115944Y394201D01*
Y393021D01*
X115353Y392430D01*
X113582D01*
X114763D02*
X115944Y391249D01*
X117124Y394792D02*
Y391249D01*
Y392430D01*
X119486Y394792D01*
X117715Y393021D01*
X119486Y391249D01*
X100594Y387777D02*
X100004Y388368D01*
X98823D01*
X98233Y387777D01*
Y387187D01*
X98823Y386597D01*
X100004D01*
X100594Y386006D01*
Y385416D01*
X100004Y384826D01*
X98823D01*
X98233Y385416D01*
X104137Y388368D02*
X101775D01*
Y384826D01*
X104137D01*
X101775Y386597D02*
X102956D01*
X105317Y384826D02*
Y388368D01*
X107679Y384826D01*
Y388368D01*
X111221Y387777D02*
X110631Y388368D01*
X109450D01*
X108859Y387777D01*
Y387187D01*
X109450Y386597D01*
X110631D01*
X111221Y386006D01*
Y385416D01*
X110631Y384826D01*
X109450D01*
X108859Y385416D01*
X112401Y388368D02*
X113582D01*
X112992D01*
Y384826D01*
X112401D01*
X113582D01*
X115353Y388368D02*
X117715D01*
X116534D01*
Y384826D01*
X118895Y388368D02*
X120076D01*
X119486D01*
Y384826D01*
X118895D01*
X120076D01*
X121847Y388368D02*
Y386006D01*
X123028Y384826D01*
X124209Y386006D01*
Y388368D01*
X127751D02*
X125390D01*
Y384826D01*
X127751D01*
X125390Y386597D02*
X126570D01*
X104137Y381354D02*
X103546Y381944D01*
X102365D01*
X101775Y381354D01*
Y378992D01*
X102365Y378402D01*
X103546D01*
X104137Y378992D01*
X105317Y381944D02*
X106498D01*
X105908D01*
Y378402D01*
X105317D01*
X106498D01*
X108269D02*
Y381944D01*
X110040D01*
X110631Y381354D01*
Y380173D01*
X110040Y379583D01*
X108269D01*
X109450D02*
X110631Y378402D01*
X114173Y381354D02*
X113582Y381944D01*
X112401D01*
X111811Y381354D01*
Y378992D01*
X112401Y378402D01*
X113582D01*
X114173Y378992D01*
X115353Y381944D02*
Y378992D01*
X115944Y378402D01*
X117124D01*
X117715Y378992D01*
Y381944D01*
X118895D02*
X120076D01*
X119486D01*
Y378402D01*
X118895D01*
X120076D01*
X121847Y381944D02*
X124209D01*
X123028D01*
Y378402D01*
X376998Y124292D02*
Y120749D01*
X378769D01*
X379359Y121340D01*
Y123701D01*
X378769Y124292D01*
X376998D01*
X380540Y120749D02*
Y123111D01*
X381721Y124292D01*
X382902Y123111D01*
Y120749D01*
Y122520D01*
X380540D01*
X384082Y120749D02*
Y124292D01*
X385853D01*
X386444Y123701D01*
Y122520D01*
X385853Y121930D01*
X384082D01*
X385263D02*
X386444Y120749D01*
X387624Y124292D02*
Y120749D01*
Y121930D01*
X389986Y124292D01*
X388215Y122520D01*
X389986Y120749D01*
X371094Y117277D02*
X370504Y117868D01*
X369323D01*
X368733Y117277D01*
Y116687D01*
X369323Y116097D01*
X370504D01*
X371094Y115506D01*
Y114916D01*
X370504Y114326D01*
X369323D01*
X368733Y114916D01*
X374637Y117868D02*
X372275D01*
Y114326D01*
X374637D01*
X372275Y116097D02*
X373456D01*
X375817Y114326D02*
Y117868D01*
X378179Y114326D01*
Y117868D01*
X381721Y117277D02*
X381131Y117868D01*
X379950D01*
X379359Y117277D01*
Y116687D01*
X379950Y116097D01*
X381131D01*
X381721Y115506D01*
Y114916D01*
X381131Y114326D01*
X379950D01*
X379359Y114916D01*
X382902Y117868D02*
X384082D01*
X383492D01*
Y114326D01*
X382902D01*
X384082D01*
X385853Y117868D02*
X388215D01*
X387034D01*
Y114326D01*
X389395Y117868D02*
X390576D01*
X389986D01*
Y114326D01*
X389395D01*
X390576D01*
X392347Y117868D02*
Y115506D01*
X393528Y114326D01*
X394709Y115506D01*
Y117868D01*
X398251D02*
X395889D01*
Y114326D01*
X398251D01*
X395889Y116097D02*
X397070D01*
X374637Y110854D02*
X374046Y111444D01*
X372865D01*
X372275Y110854D01*
Y108492D01*
X372865Y107902D01*
X374046D01*
X374637Y108492D01*
X375817Y111444D02*
X376998D01*
X376408D01*
Y107902D01*
X375817D01*
X376998D01*
X378769D02*
Y111444D01*
X380540D01*
X381131Y110854D01*
Y109673D01*
X380540Y109082D01*
X378769D01*
X379950D02*
X381131Y107902D01*
X384673Y110854D02*
X384082Y111444D01*
X382902D01*
X382311Y110854D01*
Y108492D01*
X382902Y107902D01*
X384082D01*
X384673Y108492D01*
X385853Y111444D02*
Y108492D01*
X386444Y107902D01*
X387624D01*
X388215Y108492D01*
Y111444D01*
X389395D02*
X390576D01*
X389986D01*
Y107902D01*
X389395D01*
X390576D01*
X392347Y111444D02*
X394709D01*
X393528D01*
Y107902D01*
X241498Y124292D02*
Y120749D01*
X243269D01*
X243859Y121340D01*
Y123701D01*
X243269Y124292D01*
X241498D01*
X245040Y120749D02*
Y123111D01*
X246221Y124292D01*
X247401Y123111D01*
Y120749D01*
Y122520D01*
X245040D01*
X248582Y120749D02*
Y124292D01*
X250353D01*
X250944Y123701D01*
Y122520D01*
X250353Y121930D01*
X248582D01*
X249763D02*
X250944Y120749D01*
X252124Y124292D02*
Y120749D01*
Y121930D01*
X254486Y124292D01*
X252715Y122520D01*
X254486Y120749D01*
X235594Y117277D02*
X235004Y117868D01*
X233823D01*
X233233Y117277D01*
Y116687D01*
X233823Y116097D01*
X235004D01*
X235594Y115506D01*
Y114916D01*
X235004Y114326D01*
X233823D01*
X233233Y114916D01*
X239137Y117868D02*
X236775D01*
Y114326D01*
X239137D01*
X236775Y116097D02*
X237956D01*
X240317Y114326D02*
Y117868D01*
X242679Y114326D01*
Y117868D01*
X246221Y117277D02*
X245631Y117868D01*
X244450D01*
X243859Y117277D01*
Y116687D01*
X244450Y116097D01*
X245631D01*
X246221Y115506D01*
Y114916D01*
X245631Y114326D01*
X244450D01*
X243859Y114916D01*
X247401Y117868D02*
X248582D01*
X247992D01*
Y114326D01*
X247401D01*
X248582D01*
X250353Y117868D02*
X252715D01*
X251534D01*
Y114326D01*
X253895Y117868D02*
X255076D01*
X254486D01*
Y114326D01*
X253895D01*
X255076D01*
X256847Y117868D02*
Y115506D01*
X258028Y114326D01*
X259209Y115506D01*
Y117868D01*
X262751D02*
X260389D01*
Y114326D01*
X262751D01*
X260389Y116097D02*
X261570D01*
X239137Y110854D02*
X238546Y111444D01*
X237365D01*
X236775Y110854D01*
Y108492D01*
X237365Y107902D01*
X238546D01*
X239137Y108492D01*
X240317Y111444D02*
X241498D01*
X240908D01*
Y107902D01*
X240317D01*
X241498D01*
X243269D02*
Y111444D01*
X245040D01*
X245631Y110854D01*
Y109673D01*
X245040Y109082D01*
X243269D01*
X244450D02*
X245631Y107902D01*
X249173Y110854D02*
X248582Y111444D01*
X247401D01*
X246811Y110854D01*
Y108492D01*
X247401Y107902D01*
X248582D01*
X249173Y108492D01*
X250353Y111444D02*
Y108492D01*
X250944Y107902D01*
X252124D01*
X252715Y108492D01*
Y111444D01*
X253895D02*
X255076D01*
X254486D01*
Y107902D01*
X253895D01*
X255076D01*
X256847Y111444D02*
X259209D01*
X258028D01*
Y107902D01*
X105998Y124292D02*
Y120749D01*
X107769D01*
X108359Y121340D01*
Y123701D01*
X107769Y124292D01*
X105998D01*
X109540Y120749D02*
Y123111D01*
X110721Y124292D01*
X111901Y123111D01*
Y120749D01*
Y122520D01*
X109540D01*
X113082Y120749D02*
Y124292D01*
X114853D01*
X115444Y123701D01*
Y122520D01*
X114853Y121930D01*
X113082D01*
X114263D02*
X115444Y120749D01*
X116624Y124292D02*
Y120749D01*
Y121930D01*
X118986Y124292D01*
X117215Y122520D01*
X118986Y120749D01*
X100094Y117277D02*
X99504Y117868D01*
X98323D01*
X97733Y117277D01*
Y116687D01*
X98323Y116097D01*
X99504D01*
X100094Y115506D01*
Y114916D01*
X99504Y114326D01*
X98323D01*
X97733Y114916D01*
X103637Y117868D02*
X101275D01*
Y114326D01*
X103637D01*
X101275Y116097D02*
X102456D01*
X104817Y114326D02*
Y117868D01*
X107179Y114326D01*
Y117868D01*
X110721Y117277D02*
X110131Y117868D01*
X108950D01*
X108359Y117277D01*
Y116687D01*
X108950Y116097D01*
X110131D01*
X110721Y115506D01*
Y114916D01*
X110131Y114326D01*
X108950D01*
X108359Y114916D01*
X111901Y117868D02*
X113082D01*
X112492D01*
Y114326D01*
X111901D01*
X113082D01*
X114853Y117868D02*
X117215D01*
X116034D01*
Y114326D01*
X118395Y117868D02*
X119576D01*
X118986D01*
Y114326D01*
X118395D01*
X119576D01*
X121347Y117868D02*
Y115506D01*
X122528Y114326D01*
X123709Y115506D01*
Y117868D01*
X127251D02*
X124890D01*
Y114326D01*
X127251D01*
X124890Y116097D02*
X126070D01*
X103637Y110854D02*
X103046Y111444D01*
X101865D01*
X101275Y110854D01*
Y108492D01*
X101865Y107902D01*
X103046D01*
X103637Y108492D01*
X104817Y111444D02*
X105998D01*
X105408D01*
Y107902D01*
X104817D01*
X105998D01*
X107769D02*
Y111444D01*
X109540D01*
X110131Y110854D01*
Y109673D01*
X109540Y109082D01*
X107769D01*
X108950D02*
X110131Y107902D01*
X113673Y110854D02*
X113082Y111444D01*
X111901D01*
X111311Y110854D01*
Y108492D01*
X111901Y107902D01*
X113082D01*
X113673Y108492D01*
X114853Y111444D02*
Y108492D01*
X115444Y107902D01*
X116624D01*
X117215Y108492D01*
Y111444D01*
X118395D02*
X119576D01*
X118986D01*
Y107902D01*
X118395D01*
X119576D01*
X121347Y111444D02*
X123709D01*
X122528D01*
Y107902D01*
X241998Y258792D02*
Y255249D01*
X243769D01*
X244359Y255840D01*
Y258201D01*
X243769Y258792D01*
X241998D01*
X245540Y255249D02*
Y257611D01*
X246721Y258792D01*
X247902Y257611D01*
Y255249D01*
Y257020D01*
X245540D01*
X249082Y255249D02*
Y258792D01*
X250853D01*
X251444Y258201D01*
Y257020D01*
X250853Y256430D01*
X249082D01*
X250263D02*
X251444Y255249D01*
X252624Y258792D02*
Y255249D01*
Y256430D01*
X254986Y258792D01*
X253215Y257020D01*
X254986Y255249D01*
X236094Y251777D02*
X235504Y252368D01*
X234323D01*
X233733Y251777D01*
Y251187D01*
X234323Y250597D01*
X235504D01*
X236094Y250006D01*
Y249416D01*
X235504Y248826D01*
X234323D01*
X233733Y249416D01*
X239636Y252368D02*
X237275D01*
Y248826D01*
X239636D01*
X237275Y250597D02*
X238456D01*
X240817Y248826D02*
Y252368D01*
X243179Y248826D01*
Y252368D01*
X246721Y251777D02*
X246130Y252368D01*
X244950D01*
X244359Y251777D01*
Y251187D01*
X244950Y250597D01*
X246130D01*
X246721Y250006D01*
Y249416D01*
X246130Y248826D01*
X244950D01*
X244359Y249416D01*
X247902Y252368D02*
X249082D01*
X248492D01*
Y248826D01*
X247902D01*
X249082D01*
X250853Y252368D02*
X253215D01*
X252034D01*
Y248826D01*
X254396Y252368D02*
X255576D01*
X254986D01*
Y248826D01*
X254396D01*
X255576D01*
X257347Y252368D02*
Y250006D01*
X258528Y248826D01*
X259709Y250006D01*
Y252368D01*
X263251D02*
X260890D01*
Y248826D01*
X263251D01*
X260890Y250597D02*
X262070D01*
X239636Y245354D02*
X239046Y245944D01*
X237865D01*
X237275Y245354D01*
Y242992D01*
X237865Y242402D01*
X239046D01*
X239636Y242992D01*
X240817Y245944D02*
X241998D01*
X241408D01*
Y242402D01*
X240817D01*
X241998D01*
X243769D02*
Y245944D01*
X245540D01*
X246130Y245354D01*
Y244173D01*
X245540Y243583D01*
X243769D01*
X244950D02*
X246130Y242402D01*
X249673Y245354D02*
X249082Y245944D01*
X247902D01*
X247311Y245354D01*
Y242992D01*
X247902Y242402D01*
X249082D01*
X249673Y242992D01*
X250853Y245944D02*
Y242992D01*
X251444Y242402D01*
X252624D01*
X253215Y242992D01*
Y245944D01*
X254396D02*
X255576D01*
X254986D01*
Y242402D01*
X254396D01*
X255576D01*
X257347Y245944D02*
X259709D01*
X258528D01*
Y242402D01*
D25*
X283577Y387100D02*
X285544D01*
X284561D01*
Y393004D01*
X283577Y392020D01*
X292432Y387100D02*
X288496D01*
X292432Y391036D01*
Y392020D01*
X291448Y393004D01*
X289480D01*
X288496Y392020D01*
X277181Y383085D02*
Y377181D01*
X281117D01*
X287020Y383085D02*
X283085D01*
Y377181D01*
X287020D01*
X283085Y380133D02*
X285053D01*
X288988Y383085D02*
Y377181D01*
X291940D01*
X292924Y378165D01*
Y382101D01*
X291940Y383085D01*
X288988D01*
X294892Y377181D02*
X297844D01*
X298828Y378165D01*
X297844Y379149D01*
X295876D01*
X294892Y380133D01*
X295876Y381117D01*
X298828D01*
X147577Y116600D02*
X149545D01*
X148561D01*
Y122504D01*
X147577Y121520D01*
X156432Y116600D02*
X152496D01*
X156432Y120536D01*
Y121520D01*
X155448Y122504D01*
X153480D01*
X152496Y121520D01*
X141181Y112585D02*
Y106681D01*
X145117D01*
X151020Y112585D02*
X147085D01*
Y106681D01*
X151020D01*
X147085Y109633D02*
X149053D01*
X152988Y112585D02*
Y106681D01*
X155940D01*
X156924Y107665D01*
Y111601D01*
X155940Y112585D01*
X152988D01*
X158892Y106681D02*
X161844D01*
X162828Y107665D01*
X161844Y108649D01*
X159876D01*
X158892Y109633D01*
X159876Y110617D01*
X162828D01*
X148077Y387100D02*
X150045D01*
X149061D01*
Y393004D01*
X148077Y392020D01*
X156932Y387100D02*
X152996D01*
X156932Y391036D01*
Y392020D01*
X155948Y393004D01*
X153980D01*
X152996Y392020D01*
X141681Y383085D02*
Y377181D01*
X145617D01*
X151520Y383085D02*
X147585D01*
Y377181D01*
X151520D01*
X147585Y380133D02*
X149553D01*
X153488Y383085D02*
Y377181D01*
X156440D01*
X157424Y378165D01*
Y382101D01*
X156440Y383085D01*
X153488D01*
X159392Y377181D02*
X162344D01*
X163328Y378165D01*
X162344Y379149D01*
X160376D01*
X159392Y380133D01*
X160376Y381117D01*
X163328D01*
X148077Y251100D02*
X150045D01*
X149061D01*
Y257004D01*
X148077Y256020D01*
X156932Y251100D02*
X152996D01*
X156932Y255036D01*
Y256020D01*
X155948Y257004D01*
X153980D01*
X152996Y256020D01*
X141681Y247085D02*
Y241181D01*
X145617D01*
X151520Y247085D02*
X147585D01*
Y241181D01*
X151520D01*
X147585Y244133D02*
X149553D01*
X153488Y247085D02*
Y241181D01*
X156440D01*
X157424Y242165D01*
Y246101D01*
X156440Y247085D01*
X153488D01*
X159392Y241181D02*
X162344D01*
X163328Y242165D01*
X162344Y243149D01*
X160376D01*
X159392Y244133D01*
X160376Y245117D01*
X163328D01*
X12077Y116600D02*
X14044D01*
X13061D01*
Y122504D01*
X12077Y121520D01*
X20932Y116600D02*
X16996D01*
X20932Y120536D01*
Y121520D01*
X19948Y122504D01*
X17980D01*
X16996Y121520D01*
X5681Y112585D02*
Y106681D01*
X9617D01*
X15520Y112585D02*
X11585D01*
Y106681D01*
X15520D01*
X11585Y109633D02*
X13553D01*
X17488Y112585D02*
Y106681D01*
X20440D01*
X21424Y107665D01*
Y111601D01*
X20440Y112585D01*
X17488D01*
X23392Y106681D02*
X26344D01*
X27328Y107665D01*
X26344Y108649D01*
X24376D01*
X23392Y109633D01*
X24376Y110617D01*
X27328D01*
X283577Y251100D02*
X285544D01*
X284561D01*
Y257004D01*
X283577Y256020D01*
X292432Y251100D02*
X288496D01*
X292432Y255036D01*
Y256020D01*
X291448Y257004D01*
X289480D01*
X288496Y256020D01*
X277181Y247085D02*
Y241181D01*
X281117D01*
X287020Y247085D02*
X283085D01*
Y241181D01*
X287020D01*
X283085Y244133D02*
X285053D01*
X288988Y247085D02*
Y241181D01*
X291940D01*
X292924Y242165D01*
Y246101D01*
X291940Y247085D01*
X288988D01*
X294892Y241181D02*
X297844D01*
X298828Y242165D01*
X297844Y243149D01*
X295876D01*
X294892Y244133D01*
X295876Y245117D01*
X298828D01*
X12577Y387100D02*
X14545D01*
X13561D01*
Y393004D01*
X12577Y392020D01*
X21432Y387100D02*
X17496D01*
X21432Y391036D01*
Y392020D01*
X20448Y393004D01*
X18480D01*
X17496Y392020D01*
X6181Y383085D02*
Y377181D01*
X10117D01*
X16020Y383085D02*
X12085D01*
Y377181D01*
X16020D01*
X12085Y380133D02*
X14053D01*
X17988Y383085D02*
Y377181D01*
X20940D01*
X21924Y378165D01*
Y382101D01*
X20940Y383085D01*
X17988D01*
X23892Y377181D02*
X26844D01*
X27828Y378165D01*
X26844Y379149D01*
X24876D01*
X23892Y380133D01*
X24876Y381117D01*
X27828D01*
X12577Y251100D02*
X14545D01*
X13561D01*
Y257004D01*
X12577Y256020D01*
X21432Y251100D02*
X17496D01*
X21432Y255036D01*
Y256020D01*
X20448Y257004D01*
X18480D01*
X17496Y256020D01*
X6181Y247085D02*
Y241181D01*
X10117D01*
X16020Y247085D02*
X12085D01*
Y241181D01*
X16020D01*
X12085Y244133D02*
X14053D01*
X17988Y247085D02*
Y241181D01*
X20940D01*
X21924Y242165D01*
Y246101D01*
X20940Y247085D01*
X17988D01*
X23892Y241181D02*
X26844D01*
X27828Y242165D01*
X26844Y243149D01*
X24876D01*
X23892Y244133D01*
X24876Y245117D01*
X27828D01*
X283077Y116600D02*
X285045D01*
X284061D01*
Y122504D01*
X283077Y121520D01*
X291932Y116600D02*
X287996D01*
X291932Y120536D01*
Y121520D01*
X290948Y122504D01*
X288980D01*
X287996Y121520D01*
X276681Y112585D02*
Y106681D01*
X280617D01*
X286520Y112585D02*
X282585D01*
Y106681D01*
X286520D01*
X282585Y109633D02*
X284553D01*
X288488Y112585D02*
Y106681D01*
X291440D01*
X292424Y107665D01*
Y111601D01*
X291440Y112585D01*
X288488D01*
X294392Y106681D02*
X297344D01*
X298328Y107665D01*
X297344Y108649D01*
X295376D01*
X294392Y109633D01*
X295376Y110617D01*
X298328D01*
D26*
X40745Y221000D02*
X43500D01*
Y222377D01*
X43041Y222837D01*
X42582D01*
X42123Y222377D01*
Y221000D01*
Y222377D01*
X41663Y222837D01*
X41204D01*
X40745Y222377D01*
Y221000D01*
X41204Y225592D02*
X40745Y225132D01*
Y224214D01*
X41204Y223755D01*
X43041D01*
X43500Y224214D01*
Y225132D01*
X43041Y225592D01*
X40745Y228347D02*
Y226510D01*
X42123D01*
X41663Y227428D01*
Y227888D01*
X42123Y228347D01*
X43041D01*
X43500Y227888D01*
Y226969D01*
X43041Y226510D01*
X43500Y230643D02*
X40745D01*
X42123Y229265D01*
Y231102D01*
X40745Y232020D02*
Y233857D01*
X41204D01*
X43041Y232020D01*
X43500D01*
X60245Y221000D02*
X63000D01*
Y222377D01*
X62541Y222837D01*
X62082D01*
X61623Y222377D01*
Y221000D01*
Y222377D01*
X61163Y222837D01*
X60704D01*
X60245Y222377D01*
Y221000D01*
X60704Y225592D02*
X60245Y225132D01*
Y224214D01*
X60704Y223755D01*
X62541D01*
X63000Y224214D01*
Y225132D01*
X62541Y225592D01*
X60245Y228347D02*
Y226510D01*
X61623D01*
X61163Y227428D01*
Y227888D01*
X61623Y228347D01*
X62541D01*
X63000Y227888D01*
Y226969D01*
X62541Y226510D01*
X63000Y230643D02*
X60245D01*
X61623Y229265D01*
Y231102D01*
X60245Y232020D02*
Y233857D01*
X60704D01*
X62541Y232020D01*
X63000D01*
X80245Y221000D02*
X83000D01*
Y222377D01*
X82541Y222837D01*
X82082D01*
X81622Y222377D01*
Y221000D01*
Y222377D01*
X81163Y222837D01*
X80704D01*
X80245Y222377D01*
Y221000D01*
X80704Y225592D02*
X80245Y225132D01*
Y224214D01*
X80704Y223755D01*
X82541D01*
X83000Y224214D01*
Y225132D01*
X82541Y225592D01*
X80245Y228347D02*
Y226510D01*
X81622D01*
X81163Y227428D01*
Y227888D01*
X81622Y228347D01*
X82541D01*
X83000Y227888D01*
Y226969D01*
X82541Y226510D01*
X83000Y230643D02*
X80245D01*
X81622Y229265D01*
Y231102D01*
X80245Y232020D02*
Y233857D01*
X80704D01*
X82541Y232020D01*
X83000D01*
X99245Y221000D02*
X102000D01*
Y222377D01*
X101541Y222837D01*
X101082D01*
X100622Y222377D01*
Y221000D01*
Y222377D01*
X100163Y222837D01*
X99704D01*
X99245Y222377D01*
Y221000D01*
X99704Y225592D02*
X99245Y225132D01*
Y224214D01*
X99704Y223755D01*
X101541D01*
X102000Y224214D01*
Y225132D01*
X101541Y225592D01*
X99245Y228347D02*
Y226510D01*
X100622D01*
X100163Y227428D01*
Y227888D01*
X100622Y228347D01*
X101541D01*
X102000Y227888D01*
Y226969D01*
X101541Y226510D01*
X102000Y230643D02*
X99245D01*
X100622Y229265D01*
Y231102D01*
X99245Y232020D02*
Y233857D01*
X99704D01*
X101541Y232020D01*
X102000D01*
X370245Y221000D02*
X373000D01*
Y222377D01*
X372541Y222837D01*
X372082D01*
X371622Y222377D01*
Y221000D01*
Y222377D01*
X371163Y222837D01*
X370704D01*
X370245Y222377D01*
Y221000D01*
X370704Y225592D02*
X370245Y225132D01*
Y224214D01*
X370704Y223755D01*
X372541D01*
X373000Y224214D01*
Y225132D01*
X372541Y225592D01*
X370245Y228347D02*
Y226510D01*
X371622D01*
X371163Y227428D01*
Y227888D01*
X371622Y228347D01*
X372541D01*
X373000Y227888D01*
Y226969D01*
X372541Y226510D01*
X373000Y230643D02*
X370245D01*
X371622Y229265D01*
Y231102D01*
X370245Y232020D02*
Y233857D01*
X370704D01*
X372541Y232020D01*
X373000D01*
X351245Y221000D02*
X354000D01*
Y222377D01*
X353541Y222837D01*
X353082D01*
X352623Y222377D01*
Y221000D01*
Y222377D01*
X352163Y222837D01*
X351704D01*
X351245Y222377D01*
Y221000D01*
X351704Y225592D02*
X351245Y225132D01*
Y224214D01*
X351704Y223755D01*
X353541D01*
X354000Y224214D01*
Y225132D01*
X353541Y225592D01*
X351245Y228347D02*
Y226510D01*
X352623D01*
X352163Y227428D01*
Y227888D01*
X352623Y228347D01*
X353541D01*
X354000Y227888D01*
Y226969D01*
X353541Y226510D01*
X354000Y230643D02*
X351245D01*
X352623Y229265D01*
Y231102D01*
X351245Y232020D02*
Y233857D01*
X351704D01*
X353541Y232020D01*
X354000D01*
X331245Y221000D02*
X334000D01*
Y222377D01*
X333541Y222837D01*
X333082D01*
X332623Y222377D01*
Y221000D01*
Y222377D01*
X332163Y222837D01*
X331704D01*
X331245Y222377D01*
Y221000D01*
X331704Y225592D02*
X331245Y225132D01*
Y224214D01*
X331704Y223755D01*
X333541D01*
X334000Y224214D01*
Y225132D01*
X333541Y225592D01*
X331245Y228347D02*
Y226510D01*
X332623D01*
X332163Y227428D01*
Y227888D01*
X332623Y228347D01*
X333541D01*
X334000Y227888D01*
Y226969D01*
X333541Y226510D01*
X334000Y230643D02*
X331245D01*
X332623Y229265D01*
Y231102D01*
X331245Y232020D02*
Y233857D01*
X331704D01*
X333541Y232020D01*
X334000D01*
X311745Y221000D02*
X314500D01*
Y222377D01*
X314041Y222837D01*
X313582D01*
X313123Y222377D01*
Y221000D01*
Y222377D01*
X312663Y222837D01*
X312204D01*
X311745Y222377D01*
Y221000D01*
X312204Y225592D02*
X311745Y225132D01*
Y224214D01*
X312204Y223755D01*
X314041D01*
X314500Y224214D01*
Y225132D01*
X314041Y225592D01*
X311745Y228347D02*
Y226510D01*
X313123D01*
X312663Y227428D01*
Y227888D01*
X313123Y228347D01*
X314041D01*
X314500Y227888D01*
Y226969D01*
X314041Y226510D01*
X314500Y230643D02*
X311745D01*
X313123Y229265D01*
Y231102D01*
X311745Y232020D02*
Y233857D01*
X312204D01*
X314041Y232020D01*
X314500D01*
X234745Y221000D02*
X237500D01*
Y222377D01*
X237041Y222837D01*
X236582D01*
X236122Y222377D01*
Y221000D01*
Y222377D01*
X235663Y222837D01*
X235204D01*
X234745Y222377D01*
Y221000D01*
X235204Y225592D02*
X234745Y225132D01*
Y224214D01*
X235204Y223755D01*
X237041D01*
X237500Y224214D01*
Y225132D01*
X237041Y225592D01*
X234745Y228347D02*
Y226510D01*
X236122D01*
X235663Y227428D01*
Y227888D01*
X236122Y228347D01*
X237041D01*
X237500Y227888D01*
Y226969D01*
X237041Y226510D01*
X237500Y230643D02*
X234745D01*
X236122Y229265D01*
Y231102D01*
X234745Y232020D02*
Y233857D01*
X235204D01*
X237041Y232020D01*
X237500D01*
X215745Y221000D02*
X218500D01*
Y222377D01*
X218041Y222837D01*
X217582D01*
X217123Y222377D01*
Y221000D01*
Y222377D01*
X216663Y222837D01*
X216204D01*
X215745Y222377D01*
Y221000D01*
X216204Y225592D02*
X215745Y225132D01*
Y224214D01*
X216204Y223755D01*
X218041D01*
X218500Y224214D01*
Y225132D01*
X218041Y225592D01*
X215745Y228347D02*
Y226510D01*
X217123D01*
X216663Y227428D01*
Y227888D01*
X217123Y228347D01*
X218041D01*
X218500Y227888D01*
Y226969D01*
X218041Y226510D01*
X218500Y230643D02*
X215745D01*
X217123Y229265D01*
Y231102D01*
X215745Y232020D02*
Y233857D01*
X216204D01*
X218041Y232020D01*
X218500D01*
X195745Y221000D02*
X198500D01*
Y222377D01*
X198041Y222837D01*
X197582D01*
X197123Y222377D01*
Y221000D01*
Y222377D01*
X196663Y222837D01*
X196204D01*
X195745Y222377D01*
Y221000D01*
X196204Y225592D02*
X195745Y225132D01*
Y224214D01*
X196204Y223755D01*
X198041D01*
X198500Y224214D01*
Y225132D01*
X198041Y225592D01*
X195745Y228347D02*
Y226510D01*
X197123D01*
X196663Y227428D01*
Y227888D01*
X197123Y228347D01*
X198041D01*
X198500Y227888D01*
Y226969D01*
X198041Y226510D01*
X198500Y230643D02*
X195745D01*
X197123Y229265D01*
Y231102D01*
X195745Y232020D02*
Y233857D01*
X196204D01*
X198041Y232020D01*
X198500D01*
X176245Y221000D02*
X179000D01*
Y222377D01*
X178541Y222837D01*
X178082D01*
X177622Y222377D01*
Y221000D01*
Y222377D01*
X177163Y222837D01*
X176704D01*
X176245Y222377D01*
Y221000D01*
X176704Y225592D02*
X176245Y225132D01*
Y224214D01*
X176704Y223755D01*
X178541D01*
X179000Y224214D01*
Y225132D01*
X178541Y225592D01*
X176245Y228347D02*
Y226510D01*
X177622D01*
X177163Y227428D01*
Y227888D01*
X177622Y228347D01*
X178541D01*
X179000Y227888D01*
Y226969D01*
X178541Y226510D01*
X179000Y230643D02*
X176245D01*
X177622Y229265D01*
Y231102D01*
X176245Y232020D02*
Y233857D01*
X176704D01*
X178541Y232020D01*
X179000D01*
X40745Y357000D02*
X43500D01*
Y358378D01*
X43041Y358837D01*
X42582D01*
X42123Y358378D01*
Y357000D01*
Y358378D01*
X41663Y358837D01*
X41204D01*
X40745Y358378D01*
Y357000D01*
X41204Y361592D02*
X40745Y361133D01*
Y360214D01*
X41204Y359755D01*
X43041D01*
X43500Y360214D01*
Y361133D01*
X43041Y361592D01*
X40745Y364347D02*
Y362510D01*
X42123D01*
X41663Y363428D01*
Y363888D01*
X42123Y364347D01*
X43041D01*
X43500Y363888D01*
Y362969D01*
X43041Y362510D01*
X43500Y366643D02*
X40745D01*
X42123Y365265D01*
Y367102D01*
X40745Y368020D02*
Y369857D01*
X41204D01*
X43041Y368020D01*
X43500D01*
X60245Y357000D02*
X63000D01*
Y358378D01*
X62541Y358837D01*
X62082D01*
X61623Y358378D01*
Y357000D01*
Y358378D01*
X61163Y358837D01*
X60704D01*
X60245Y358378D01*
Y357000D01*
X60704Y361592D02*
X60245Y361133D01*
Y360214D01*
X60704Y359755D01*
X62541D01*
X63000Y360214D01*
Y361133D01*
X62541Y361592D01*
X60245Y364347D02*
Y362510D01*
X61623D01*
X61163Y363428D01*
Y363888D01*
X61623Y364347D01*
X62541D01*
X63000Y363888D01*
Y362969D01*
X62541Y362510D01*
X63000Y366643D02*
X60245D01*
X61623Y365265D01*
Y367102D01*
X60245Y368020D02*
Y369857D01*
X60704D01*
X62541Y368020D01*
X63000D01*
X80245Y357000D02*
X83000D01*
Y358378D01*
X82541Y358837D01*
X82082D01*
X81622Y358378D01*
Y357000D01*
Y358378D01*
X81163Y358837D01*
X80704D01*
X80245Y358378D01*
Y357000D01*
X80704Y361592D02*
X80245Y361133D01*
Y360214D01*
X80704Y359755D01*
X82541D01*
X83000Y360214D01*
Y361133D01*
X82541Y361592D01*
X80245Y364347D02*
Y362510D01*
X81622D01*
X81163Y363428D01*
Y363888D01*
X81622Y364347D01*
X82541D01*
X83000Y363888D01*
Y362969D01*
X82541Y362510D01*
X83000Y366643D02*
X80245D01*
X81622Y365265D01*
Y367102D01*
X80245Y368020D02*
Y369857D01*
X80704D01*
X82541Y368020D01*
X83000D01*
X99245Y357000D02*
X102000D01*
Y358378D01*
X101541Y358837D01*
X101082D01*
X100622Y358378D01*
Y357000D01*
Y358378D01*
X100163Y358837D01*
X99704D01*
X99245Y358378D01*
Y357000D01*
X99704Y361592D02*
X99245Y361133D01*
Y360214D01*
X99704Y359755D01*
X101541D01*
X102000Y360214D01*
Y361133D01*
X101541Y361592D01*
X99245Y364347D02*
Y362510D01*
X100622D01*
X100163Y363428D01*
Y363888D01*
X100622Y364347D01*
X101541D01*
X102000Y363888D01*
Y362969D01*
X101541Y362510D01*
X102000Y366643D02*
X99245D01*
X100622Y365265D01*
Y367102D01*
X99245Y368020D02*
Y369857D01*
X99704D01*
X101541Y368020D01*
X102000D01*
X370245Y357000D02*
X373000D01*
Y358378D01*
X372541Y358837D01*
X372082D01*
X371622Y358378D01*
Y357000D01*
Y358378D01*
X371163Y358837D01*
X370704D01*
X370245Y358378D01*
Y357000D01*
X370704Y361592D02*
X370245Y361133D01*
Y360214D01*
X370704Y359755D01*
X372541D01*
X373000Y360214D01*
Y361133D01*
X372541Y361592D01*
X370245Y364347D02*
Y362510D01*
X371622D01*
X371163Y363428D01*
Y363888D01*
X371622Y364347D01*
X372541D01*
X373000Y363888D01*
Y362969D01*
X372541Y362510D01*
X373000Y366643D02*
X370245D01*
X371622Y365265D01*
Y367102D01*
X370245Y368020D02*
Y369857D01*
X370704D01*
X372541Y368020D01*
X373000D01*
X351245Y357000D02*
X354000D01*
Y358378D01*
X353541Y358837D01*
X353082D01*
X352623Y358378D01*
Y357000D01*
Y358378D01*
X352163Y358837D01*
X351704D01*
X351245Y358378D01*
Y357000D01*
X351704Y361592D02*
X351245Y361133D01*
Y360214D01*
X351704Y359755D01*
X353541D01*
X354000Y360214D01*
Y361133D01*
X353541Y361592D01*
X351245Y364347D02*
Y362510D01*
X352623D01*
X352163Y363428D01*
Y363888D01*
X352623Y364347D01*
X353541D01*
X354000Y363888D01*
Y362969D01*
X353541Y362510D01*
X354000Y366643D02*
X351245D01*
X352623Y365265D01*
Y367102D01*
X351245Y368020D02*
Y369857D01*
X351704D01*
X353541Y368020D01*
X354000D01*
X331245Y357000D02*
X334000D01*
Y358378D01*
X333541Y358837D01*
X333082D01*
X332623Y358378D01*
Y357000D01*
Y358378D01*
X332163Y358837D01*
X331704D01*
X331245Y358378D01*
Y357000D01*
X331704Y361592D02*
X331245Y361133D01*
Y360214D01*
X331704Y359755D01*
X333541D01*
X334000Y360214D01*
Y361133D01*
X333541Y361592D01*
X331245Y364347D02*
Y362510D01*
X332623D01*
X332163Y363428D01*
Y363888D01*
X332623Y364347D01*
X333541D01*
X334000Y363888D01*
Y362969D01*
X333541Y362510D01*
X334000Y366643D02*
X331245D01*
X332623Y365265D01*
Y367102D01*
X331245Y368020D02*
Y369857D01*
X331704D01*
X333541Y368020D01*
X334000D01*
X311745Y357000D02*
X314500D01*
Y358378D01*
X314041Y358837D01*
X313582D01*
X313123Y358378D01*
Y357000D01*
Y358378D01*
X312663Y358837D01*
X312204D01*
X311745Y358378D01*
Y357000D01*
X312204Y361592D02*
X311745Y361133D01*
Y360214D01*
X312204Y359755D01*
X314041D01*
X314500Y360214D01*
Y361133D01*
X314041Y361592D01*
X311745Y364347D02*
Y362510D01*
X313123D01*
X312663Y363428D01*
Y363888D01*
X313123Y364347D01*
X314041D01*
X314500Y363888D01*
Y362969D01*
X314041Y362510D01*
X314500Y366643D02*
X311745D01*
X313123Y365265D01*
Y367102D01*
X311745Y368020D02*
Y369857D01*
X312204D01*
X314041Y368020D01*
X314500D01*
X234745Y357000D02*
X237500D01*
Y358378D01*
X237041Y358837D01*
X236582D01*
X236122Y358378D01*
Y357000D01*
Y358378D01*
X235663Y358837D01*
X235204D01*
X234745Y358378D01*
Y357000D01*
X235204Y361592D02*
X234745Y361133D01*
Y360214D01*
X235204Y359755D01*
X237041D01*
X237500Y360214D01*
Y361133D01*
X237041Y361592D01*
X234745Y364347D02*
Y362510D01*
X236122D01*
X235663Y363428D01*
Y363888D01*
X236122Y364347D01*
X237041D01*
X237500Y363888D01*
Y362969D01*
X237041Y362510D01*
X237500Y366643D02*
X234745D01*
X236122Y365265D01*
Y367102D01*
X234745Y368020D02*
Y369857D01*
X235204D01*
X237041Y368020D01*
X237500D01*
X215745Y357000D02*
X218500D01*
Y358378D01*
X218041Y358837D01*
X217582D01*
X217123Y358378D01*
Y357000D01*
Y358378D01*
X216663Y358837D01*
X216204D01*
X215745Y358378D01*
Y357000D01*
X216204Y361592D02*
X215745Y361133D01*
Y360214D01*
X216204Y359755D01*
X218041D01*
X218500Y360214D01*
Y361133D01*
X218041Y361592D01*
X215745Y364347D02*
Y362510D01*
X217123D01*
X216663Y363428D01*
Y363888D01*
X217123Y364347D01*
X218041D01*
X218500Y363888D01*
Y362969D01*
X218041Y362510D01*
X218500Y366643D02*
X215745D01*
X217123Y365265D01*
Y367102D01*
X215745Y368020D02*
Y369857D01*
X216204D01*
X218041Y368020D01*
X218500D01*
X195745Y357000D02*
X198500D01*
Y358378D01*
X198041Y358837D01*
X197582D01*
X197123Y358378D01*
Y357000D01*
Y358378D01*
X196663Y358837D01*
X196204D01*
X195745Y358378D01*
Y357000D01*
X196204Y361592D02*
X195745Y361133D01*
Y360214D01*
X196204Y359755D01*
X198041D01*
X198500Y360214D01*
Y361133D01*
X198041Y361592D01*
X195745Y364347D02*
Y362510D01*
X197123D01*
X196663Y363428D01*
Y363888D01*
X197123Y364347D01*
X198041D01*
X198500Y363888D01*
Y362969D01*
X198041Y362510D01*
X198500Y366643D02*
X195745D01*
X197123Y365265D01*
Y367102D01*
X195745Y368020D02*
Y369857D01*
X196204D01*
X198041Y368020D01*
X198500D01*
X176245Y357000D02*
X179000D01*
Y358378D01*
X178541Y358837D01*
X178082D01*
X177622Y358378D01*
Y357000D01*
Y358378D01*
X177163Y358837D01*
X176704D01*
X176245Y358378D01*
Y357000D01*
X176704Y361592D02*
X176245Y361133D01*
Y360214D01*
X176704Y359755D01*
X178541D01*
X179000Y360214D01*
Y361133D01*
X178541Y361592D01*
X176245Y364347D02*
Y362510D01*
X177622D01*
X177163Y363428D01*
Y363888D01*
X177622Y364347D01*
X178541D01*
X179000Y363888D01*
Y362969D01*
X178541Y362510D01*
X179000Y366643D02*
X176245D01*
X177622Y365265D01*
Y367102D01*
X176245Y368020D02*
Y369857D01*
X176704D01*
X178541Y368020D01*
X179000D01*
X175745Y86500D02*
X178500D01*
Y87878D01*
X178041Y88337D01*
X177582D01*
X177122Y87878D01*
Y86500D01*
Y87878D01*
X176663Y88337D01*
X176204D01*
X175745Y87878D01*
Y86500D01*
X176204Y91092D02*
X175745Y90632D01*
Y89714D01*
X176204Y89255D01*
X178041D01*
X178500Y89714D01*
Y90632D01*
X178041Y91092D01*
X175745Y93847D02*
Y92010D01*
X177122D01*
X176663Y92928D01*
Y93388D01*
X177122Y93847D01*
X178041D01*
X178500Y93388D01*
Y92469D01*
X178041Y92010D01*
X178500Y96143D02*
X175745D01*
X177122Y94765D01*
Y96602D01*
X175745Y97520D02*
Y99357D01*
X176204D01*
X178041Y97520D01*
X178500D01*
X195245Y86500D02*
X198000D01*
Y87878D01*
X197541Y88337D01*
X197082D01*
X196623Y87878D01*
Y86500D01*
Y87878D01*
X196163Y88337D01*
X195704D01*
X195245Y87878D01*
Y86500D01*
X195704Y91092D02*
X195245Y90632D01*
Y89714D01*
X195704Y89255D01*
X197541D01*
X198000Y89714D01*
Y90632D01*
X197541Y91092D01*
X195245Y93847D02*
Y92010D01*
X196623D01*
X196163Y92928D01*
Y93388D01*
X196623Y93847D01*
X197541D01*
X198000Y93388D01*
Y92469D01*
X197541Y92010D01*
X198000Y96143D02*
X195245D01*
X196623Y94765D01*
Y96602D01*
X195245Y97520D02*
Y99357D01*
X195704D01*
X197541Y97520D01*
X198000D01*
X215245Y86500D02*
X218000D01*
Y87878D01*
X217541Y88337D01*
X217082D01*
X216622Y87878D01*
Y86500D01*
Y87878D01*
X216163Y88337D01*
X215704D01*
X215245Y87878D01*
Y86500D01*
X215704Y91092D02*
X215245Y90632D01*
Y89714D01*
X215704Y89255D01*
X217541D01*
X218000Y89714D01*
Y90632D01*
X217541Y91092D01*
X215245Y93847D02*
Y92010D01*
X216622D01*
X216163Y92928D01*
Y93388D01*
X216622Y93847D01*
X217541D01*
X218000Y93388D01*
Y92469D01*
X217541Y92010D01*
X218000Y96143D02*
X215245D01*
X216622Y94765D01*
Y96602D01*
X215245Y97520D02*
Y99357D01*
X215704D01*
X217541Y97520D01*
X218000D01*
X234245Y86500D02*
X237000D01*
Y87878D01*
X236541Y88337D01*
X236082D01*
X235623Y87878D01*
Y86500D01*
Y87878D01*
X235163Y88337D01*
X234704D01*
X234245Y87878D01*
Y86500D01*
X234704Y91092D02*
X234245Y90632D01*
Y89714D01*
X234704Y89255D01*
X236541D01*
X237000Y89714D01*
Y90632D01*
X236541Y91092D01*
X234245Y93847D02*
Y92010D01*
X235623D01*
X235163Y92928D01*
Y93388D01*
X235623Y93847D01*
X236541D01*
X237000Y93388D01*
Y92469D01*
X236541Y92010D01*
X237000Y96143D02*
X234245D01*
X235623Y94765D01*
Y96602D01*
X234245Y97520D02*
Y99357D01*
X234704D01*
X236541Y97520D01*
X237000D01*
X311245Y86500D02*
X314000D01*
Y87878D01*
X313541Y88337D01*
X313082D01*
X312622Y87878D01*
Y86500D01*
Y87878D01*
X312163Y88337D01*
X311704D01*
X311245Y87878D01*
Y86500D01*
X311704Y91092D02*
X311245Y90632D01*
Y89714D01*
X311704Y89255D01*
X313541D01*
X314000Y89714D01*
Y90632D01*
X313541Y91092D01*
X311245Y93847D02*
Y92010D01*
X312622D01*
X312163Y92928D01*
Y93388D01*
X312622Y93847D01*
X313541D01*
X314000Y93388D01*
Y92469D01*
X313541Y92010D01*
X314000Y96143D02*
X311245D01*
X312622Y94765D01*
Y96602D01*
X311245Y97520D02*
Y99357D01*
X311704D01*
X313541Y97520D01*
X314000D01*
X330745Y86500D02*
X333500D01*
Y87878D01*
X333041Y88337D01*
X332582D01*
X332122Y87878D01*
Y86500D01*
Y87878D01*
X331663Y88337D01*
X331204D01*
X330745Y87878D01*
Y86500D01*
X331204Y91092D02*
X330745Y90632D01*
Y89714D01*
X331204Y89255D01*
X333041D01*
X333500Y89714D01*
Y90632D01*
X333041Y91092D01*
X330745Y93847D02*
Y92010D01*
X332122D01*
X331663Y92928D01*
Y93388D01*
X332122Y93847D01*
X333041D01*
X333500Y93388D01*
Y92469D01*
X333041Y92010D01*
X333500Y96143D02*
X330745D01*
X332122Y94765D01*
Y96602D01*
X330745Y97520D02*
Y99357D01*
X331204D01*
X333041Y97520D01*
X333500D01*
X350745Y86500D02*
X353500D01*
Y87878D01*
X353041Y88337D01*
X352582D01*
X352122Y87878D01*
Y86500D01*
Y87878D01*
X351663Y88337D01*
X351204D01*
X350745Y87878D01*
Y86500D01*
X351204Y91092D02*
X350745Y90632D01*
Y89714D01*
X351204Y89255D01*
X353041D01*
X353500Y89714D01*
Y90632D01*
X353041Y91092D01*
X350745Y93847D02*
Y92010D01*
X352122D01*
X351663Y92928D01*
Y93388D01*
X352122Y93847D01*
X353041D01*
X353500Y93388D01*
Y92469D01*
X353041Y92010D01*
X353500Y96143D02*
X350745D01*
X352122Y94765D01*
Y96602D01*
X350745Y97520D02*
Y99357D01*
X351204D01*
X353041Y97520D01*
X353500D01*
X369745Y86500D02*
X372500D01*
Y87878D01*
X372041Y88337D01*
X371582D01*
X371123Y87878D01*
Y86500D01*
Y87878D01*
X370663Y88337D01*
X370204D01*
X369745Y87878D01*
Y86500D01*
X370204Y91092D02*
X369745Y90632D01*
Y89714D01*
X370204Y89255D01*
X372041D01*
X372500Y89714D01*
Y90632D01*
X372041Y91092D01*
X369745Y93847D02*
Y92010D01*
X371123D01*
X370663Y92928D01*
Y93388D01*
X371123Y93847D01*
X372041D01*
X372500Y93388D01*
Y92469D01*
X372041Y92010D01*
X372500Y96143D02*
X369745D01*
X371123Y94765D01*
Y96602D01*
X369745Y97520D02*
Y99357D01*
X370204D01*
X372041Y97520D01*
X372500D01*
X98745Y86500D02*
X101500D01*
Y87878D01*
X101041Y88337D01*
X100582D01*
X100122Y87878D01*
Y86500D01*
Y87878D01*
X99663Y88337D01*
X99204D01*
X98745Y87878D01*
Y86500D01*
X99204Y91092D02*
X98745Y90632D01*
Y89714D01*
X99204Y89255D01*
X101041D01*
X101500Y89714D01*
Y90632D01*
X101041Y91092D01*
X98745Y93847D02*
Y92010D01*
X100122D01*
X99663Y92928D01*
Y93388D01*
X100122Y93847D01*
X101041D01*
X101500Y93388D01*
Y92469D01*
X101041Y92010D01*
X101500Y96143D02*
X98745D01*
X100122Y94765D01*
Y96602D01*
X98745Y97520D02*
Y99357D01*
X99204D01*
X101041Y97520D01*
X101500D01*
X79745Y86500D02*
X82500D01*
Y87878D01*
X82041Y88337D01*
X81582D01*
X81122Y87878D01*
Y86500D01*
Y87878D01*
X80663Y88337D01*
X80204D01*
X79745Y87878D01*
Y86500D01*
X80204Y91092D02*
X79745Y90632D01*
Y89714D01*
X80204Y89255D01*
X82041D01*
X82500Y89714D01*
Y90632D01*
X82041Y91092D01*
X79745Y93847D02*
Y92010D01*
X81122D01*
X80663Y92928D01*
Y93388D01*
X81122Y93847D01*
X82041D01*
X82500Y93388D01*
Y92469D01*
X82041Y92010D01*
X82500Y96143D02*
X79745D01*
X81122Y94765D01*
Y96602D01*
X79745Y97520D02*
Y99357D01*
X80204D01*
X82041Y97520D01*
X82500D01*
X59745Y86500D02*
X62500D01*
Y87878D01*
X62041Y88337D01*
X61582D01*
X61123Y87878D01*
Y86500D01*
Y87878D01*
X60663Y88337D01*
X60204D01*
X59745Y87878D01*
Y86500D01*
X60204Y91092D02*
X59745Y90632D01*
Y89714D01*
X60204Y89255D01*
X62041D01*
X62500Y89714D01*
Y90632D01*
X62041Y91092D01*
X59745Y93847D02*
Y92010D01*
X61123D01*
X60663Y92928D01*
Y93388D01*
X61123Y93847D01*
X62041D01*
X62500Y93388D01*
Y92469D01*
X62041Y92010D01*
X62500Y96143D02*
X59745D01*
X61123Y94765D01*
Y96602D01*
X59745Y97520D02*
Y99357D01*
X60204D01*
X62041Y97520D01*
X62500D01*
X40245Y86500D02*
X43000D01*
Y87878D01*
X42541Y88337D01*
X42082D01*
X41622Y87878D01*
Y86500D01*
Y87878D01*
X41163Y88337D01*
X40704D01*
X40245Y87878D01*
Y86500D01*
X40704Y91092D02*
X40245Y90632D01*
Y89714D01*
X40704Y89255D01*
X42541D01*
X43000Y89714D01*
Y90632D01*
X42541Y91092D01*
X40245Y93847D02*
Y92010D01*
X41622D01*
X41163Y92928D01*
Y93388D01*
X41622Y93847D01*
X42541D01*
X43000Y93388D01*
Y92469D01*
X42541Y92010D01*
X43000Y96143D02*
X40245D01*
X41622Y94765D01*
Y96602D01*
X40245Y97520D02*
Y99357D01*
X40704D01*
X42541Y97520D01*
X43000D01*
M02*
