M48
;Layer_Color=9474304
;FILE_FORMAT=2:5
INCH,LZ
;TYPE=PLATED
T1F00S00C0.02756
T3F00S00C0.03543
%
T01
X00155Y00135
X00255
X00445Y0015
X00545
X00495Y00225
X0049Y004
X0039
X0027343Y0041
X0007658Y0050842
Y0031157
X0074657
Y0050842
X0094342Y0041
X0106Y004
X0116
X01165Y00225
X01115Y0015
X01215
X0149Y00135
X0159
X0178Y0015
X0188
X0183Y00225
X01825Y004
X01725
X0160843Y0041
X0141157Y0050842
Y0031157
X00925Y00135
X00825
X0207658Y0031157
Y0050842
X0227343Y0041
X0239Y004
X0249
X02495Y00225
X02445Y0015
X02545
X02255Y00135
X02155
X0284
X0294
X0313Y0015
X0323
X0318Y00225
X03175Y004
X03075
X0295843Y0041
X0276157Y0050842
Y0031157
X0344158
Y0050842
X0363843Y0041
X0362Y00135
X0352
X0381Y0015
X0391
X0386Y00225
X03855Y004
X03755
X03925Y0063
Y0076
X0391Y01005
X0381
X0386Y0108
X03855Y01255
X03755
X03925Y01485
Y01615
X0391Y0188
X0381
X0386Y01955
X0362Y01865
X0352
X0344158Y0204157
X0318Y01955
X0313Y0188
X0323
X03245Y01615
Y01485
X03175Y01255
X03075
X0295843Y01265
X02945Y01485
Y01615
X0294Y01865
X0284
X0276157Y0204157
X02495Y01955
X02445Y0188
X02545
X0256Y01615
Y01485
X0249Y01255
X0239
X0227343Y01265
X0226Y01485
Y01615
X02255Y01865
X02155
Y0099
X02255
X02445Y01005
X02545
X02495Y0108
X0276157Y0116657
Y0136343
X0284Y0099
X0294
X0313Y01005
X0323
X0318Y0108
X0344158Y0116657
Y0136343
X0363843Y01265
X03625Y01485
Y01615
X0362Y0099
X0352
X03625Y0076
Y0063
X03245
Y0076
X02945
Y0063
X0256
Y0076
X0226
Y0063
X01895
Y0076
X0188Y01005
X0178
X0183Y0108
X01825Y01255
X01725
X0160843Y01265
X01595Y01485
Y01615
X0159Y01865
X0149
X0141157Y0204157
X01165Y01955
X01115Y0188
X01215
X0123Y01615
Y01485
X0116Y01255
X0106
X0094342Y01265
X0093Y01485
Y01615
X00925Y01865
X00825
X0074657Y0204157
Y0136343
Y0116657
X00825Y0099
X00925
X01115Y01005
X01215
X01165Y0108
X0141157Y0116657
Y0136343
X0149Y0099
X0159
X01595Y0076
Y0063
X0123
Y0076
X0093
Y0063
X0207658Y0116657
Y0136343
X01895Y01485
Y01615
X0188Y0188
X0178
X0183Y01955
X0207658Y0204157
X00495Y01955
X00445Y0188
X00545
X0056Y01615
Y01485
X0026
Y01615
X00255Y01865
X00155
X0007658Y0204157
Y0136343
Y0116657
X00155Y0099
X00255
X00445Y01005
X00545
X00495Y0108
X0049Y01255
X0039
X0027343Y01265
X0026Y0076
Y0063
X0056
Y0076
X0049Y0213
X0039
X0027343Y0214
X0026Y0236
Y0249
X0025Y0277
X00175Y0282
Y0272
X00425Y02775
Y02875
X00435Y0299158
X0016Y0301
Y0311
X0033658Y0318843
X0053342
X0042Y0347
Y0357
X0043Y0368657
X00245Y03465
X0017Y03515
Y03415
X0007658Y0223843
X0056Y0236
Y0249
X00655Y02705
X00785
X0104Y0272
Y0282
X01115Y0277
X0129Y02775
Y02875
X013Y0299158
X0152Y03005
X0165
X0189Y0301
Y0311
X0206658Y0318843
X01975Y03465
X019Y03515
Y03415
X01645Y034
X01515
X01285Y0347
Y0357
X01295Y0368657
X0111Y03465
X01035Y03515
Y03415
X0078Y034
X0065
X00655Y03005
X00785
X01025Y0301
Y0311
X0120158Y0318843
X0139842
X0152Y02705
X0165
X01905Y0272
Y0282
X0198Y0277
X01895Y0249
Y0236
X01825Y0213
X01725
X0160843Y0214
X01595Y0236
Y0249
X0123
Y0236
X0116Y0213
X0106
X0094342Y0214
X0093Y0236
Y0249
X0074657Y0223843
X0141157
X0207658
X0227343Y0214
X0239Y0213
X0249
X0256Y0236
Y0249
X02515Y02705
X02385
X02155Y02775
Y02875
X02165Y0299158
X02385Y03005
X02515
X0277Y03015
Y03115
X0294657Y0319342
X0314342
X03045Y0299658
X03035Y0288
Y0278
X0286Y02775
X02785Y02825
Y02725
X02945Y0249
Y0236
X0295843Y0214
X03075Y0213
X03175
X03245Y0236
Y0249
X03265Y0271
X03395
Y0301
X03265
X0326Y03405
X0339
X0303Y03475
Y03575
X02855Y0347
X0278Y0352
Y0342
X0251Y034
X0238
X0215Y0347
Y0357
X0216Y0368657
X0226343Y0318843
X0226Y0249
Y0236
X0276157Y0223843
X0344158
X0363843Y0214
X03625Y0236
Y0249
X03925
Y0236
X03855Y0213
X03755
X0339Y03705
X0326
X0304Y0369158
X02765Y0371
Y0381
X0294158Y0388843
X0313843
X0251Y037
X0238
X0225842Y0388342
X0206157
X01885Y03805
Y03705
X01645Y037
X01515
X0139342Y0388342
X0119658
X0102Y03805
Y03705
X0078Y037
X0065
X0052842Y0388342
X0033158
X00155Y03805
Y03705
T03
X02805Y0065
Y0075
X03485
Y0065
Y01505
Y01605
X02805
Y01505
X0212
Y01605
X01455
Y01505
X0079
Y01605
Y0075
Y0065
X01455
Y0075
X0212
Y0065
X0012
Y0075
Y01505
Y01605
Y0238
Y0248
X0079
Y0238
X01455
Y0248
X0212
Y0238
X0164Y03145
X0154
X00775
X00675
X02405
X02505
X03285Y0315
X03385
X03485Y0248
Y0238
X02805
Y0248
X025Y0384
X024
X0328Y03845
X0338
X01635Y0384
X01535
X0077
X0067
M30
