G04 Layer_Color=32896*
%FSLAX25Y25*%
%MOIN*%
G70*
G01*
G75*
%ADD24C,0.00787*%
%ADD25C,0.00600*%
%ADD27C,0.00500*%
D24*
X320929Y388843D02*
G03*
X320929Y388843I-394J0D01*
G01*
D02*
G03*
X320929Y388843I-394J0D01*
G01*
X321429Y319342D02*
G03*
X321429Y319342I-394J0D01*
G01*
D02*
G03*
X321429Y319342I-394J0D01*
G01*
X232929Y388342D02*
G03*
X232929Y388342I-394J0D01*
G01*
D02*
G03*
X232929Y388342I-394J0D01*
G01*
X233429Y318843D02*
G03*
X233429Y318843I-394J0D01*
G01*
D02*
G03*
X233429Y318843I-394J0D01*
G01*
X146429Y388342D02*
G03*
X146429Y388342I-394J0D01*
G01*
D02*
G03*
X146429Y388342I-394J0D01*
G01*
X146929Y318843D02*
G03*
X146929Y318843I-394J0D01*
G01*
D02*
G03*
X146929Y318843I-394J0D01*
G01*
X59929Y388342D02*
G03*
X59929Y388342I-394J0D01*
G01*
D02*
G03*
X59929Y388342I-394J0D01*
G01*
X60429Y318843D02*
G03*
X60429Y318843I-394J0D01*
G01*
D02*
G03*
X60429Y318843I-394J0D01*
G01*
X8051Y230535D02*
G03*
X8051Y230535I-394J0D01*
G01*
D02*
G03*
X8051Y230535I-394J0D01*
G01*
X75051D02*
G03*
X75051Y230535I-394J0D01*
G01*
D02*
G03*
X75051Y230535I-394J0D01*
G01*
X141551D02*
G03*
X141551Y230535I-394J0D01*
G01*
D02*
G03*
X141551Y230535I-394J0D01*
G01*
X208051D02*
G03*
X208051Y230535I-394J0D01*
G01*
D02*
G03*
X208051Y230535I-394J0D01*
G01*
X344551D02*
G03*
X344551Y230535I-394J0D01*
G01*
D02*
G03*
X344551Y230535I-394J0D01*
G01*
X276551D02*
G03*
X276551Y230535I-394J0D01*
G01*
D02*
G03*
X276551Y230535I-394J0D01*
G01*
X8051Y143035D02*
G03*
X8051Y143035I-394J0D01*
G01*
D02*
G03*
X8051Y143035I-394J0D01*
G01*
X75051D02*
G03*
X75051Y143035I-394J0D01*
G01*
D02*
G03*
X75051Y143035I-394J0D01*
G01*
X141551D02*
G03*
X141551Y143035I-394J0D01*
G01*
D02*
G03*
X141551Y143035I-394J0D01*
G01*
X208051D02*
G03*
X208051Y143035I-394J0D01*
G01*
D02*
G03*
X208051Y143035I-394J0D01*
G01*
X344551D02*
G03*
X344551Y143035I-394J0D01*
G01*
D02*
G03*
X344551Y143035I-394J0D01*
G01*
X276551D02*
G03*
X276551Y143035I-394J0D01*
G01*
D02*
G03*
X276551Y143035I-394J0D01*
G01*
Y57535D02*
G03*
X276551Y57535I-394J0D01*
G01*
D02*
G03*
X276551Y57535I-394J0D01*
G01*
X344551D02*
G03*
X344551Y57535I-394J0D01*
G01*
D02*
G03*
X344551Y57535I-394J0D01*
G01*
X208051D02*
G03*
X208051Y57535I-394J0D01*
G01*
D02*
G03*
X208051Y57535I-394J0D01*
G01*
X141551D02*
G03*
X141551Y57535I-394J0D01*
G01*
D02*
G03*
X141551Y57535I-394J0D01*
G01*
X75051D02*
G03*
X75051Y57535I-394J0D01*
G01*
D02*
G03*
X75051Y57535I-394J0D01*
G01*
X8051D02*
G03*
X8051Y57535I-394J0D01*
G01*
D02*
G03*
X8051Y57535I-394J0D01*
G01*
D25*
X288041Y343930D02*
G03*
X288041Y350070I-10041J3070D01*
G01*
Y343930D02*
G03*
X288041Y350070I-10041J3070D01*
G01*
X288541Y274430D02*
G03*
X288541Y280570I-10041J3070D01*
G01*
Y274430D02*
G03*
X288541Y280570I-10041J3070D01*
G01*
X200041Y343430D02*
G03*
X200041Y349570I-10041J3070D01*
G01*
Y343430D02*
G03*
X200041Y349570I-10041J3070D01*
G01*
X200541Y273930D02*
G03*
X200541Y280070I-10041J3070D01*
G01*
Y273930D02*
G03*
X200541Y280070I-10041J3070D01*
G01*
X113541Y343430D02*
G03*
X113541Y349570I-10041J3070D01*
G01*
Y343430D02*
G03*
X113541Y349570I-10041J3070D01*
G01*
X114041Y273930D02*
G03*
X114041Y280070I-10041J3070D01*
G01*
Y273930D02*
G03*
X114041Y280070I-10041J3070D01*
G01*
X27041Y343430D02*
G03*
X27041Y349570I-10041J3070D01*
G01*
Y343430D02*
G03*
X27041Y349570I-10041J3070D01*
G01*
X27541Y273930D02*
G03*
X27541Y280070I-10041J3070D01*
G01*
Y273930D02*
G03*
X27541Y280070I-10041J3070D01*
G01*
X52570Y198041D02*
G03*
X46430Y198041I-3070J-10041D01*
G01*
X52570D02*
G03*
X46430Y198041I-3070J-10041D01*
G01*
X119570D02*
G03*
X113430Y198041I-3070J-10041D01*
G01*
X119570D02*
G03*
X113430Y198041I-3070J-10041D01*
G01*
X186070D02*
G03*
X179930Y198041I-3070J-10041D01*
G01*
X186070D02*
G03*
X179930Y198041I-3070J-10041D01*
G01*
X252570D02*
G03*
X246430Y198041I-3070J-10041D01*
G01*
X252570D02*
G03*
X246430Y198041I-3070J-10041D01*
G01*
X389070D02*
G03*
X382930Y198041I-3070J-10041D01*
G01*
X389070D02*
G03*
X382930Y198041I-3070J-10041D01*
G01*
X321070D02*
G03*
X314930Y198041I-3070J-10041D01*
G01*
X321070D02*
G03*
X314930Y198041I-3070J-10041D01*
G01*
X52570Y110541D02*
G03*
X46430Y110541I-3070J-10041D01*
G01*
X52570D02*
G03*
X46430Y110541I-3070J-10041D01*
G01*
X119570D02*
G03*
X113430Y110541I-3070J-10041D01*
G01*
X119570D02*
G03*
X113430Y110541I-3070J-10041D01*
G01*
X186070D02*
G03*
X179930Y110541I-3070J-10041D01*
G01*
X186070D02*
G03*
X179930Y110541I-3070J-10041D01*
G01*
X252570D02*
G03*
X246430Y110541I-3070J-10041D01*
G01*
X252570D02*
G03*
X246430Y110541I-3070J-10041D01*
G01*
X389070D02*
G03*
X382930Y110541I-3070J-10041D01*
G01*
X389070D02*
G03*
X382930Y110541I-3070J-10041D01*
G01*
X321070D02*
G03*
X314930Y110541I-3070J-10041D01*
G01*
X321070D02*
G03*
X314930Y110541I-3070J-10041D01*
G01*
X321070Y25041D02*
G03*
X314930Y25041I-3070J-10041D01*
G01*
X321070D02*
G03*
X314930Y25041I-3070J-10041D01*
G01*
X389070D02*
G03*
X382930Y25041I-3070J-10041D01*
G01*
X389070D02*
G03*
X382930Y25041I-3070J-10041D01*
G01*
X252570D02*
G03*
X246430Y25041I-3070J-10041D01*
G01*
X252570D02*
G03*
X246430Y25041I-3070J-10041D01*
G01*
X186070D02*
G03*
X179930Y25041I-3070J-10041D01*
G01*
X186070D02*
G03*
X179930Y25041I-3070J-10041D01*
G01*
X119570D02*
G03*
X113430Y25041I-3070J-10041D01*
G01*
X119570D02*
G03*
X113430Y25041I-3070J-10041D01*
G01*
X52570D02*
G03*
X46430Y25041I-3070J-10041D01*
G01*
X52570D02*
G03*
X46430Y25041I-3070J-10041D01*
G01*
X277000Y348126D02*
Y355874D01*
Y338126D02*
Y345874D01*
Y348126D02*
Y355874D01*
Y338126D02*
Y345874D01*
X277500Y278626D02*
Y286374D01*
Y268626D02*
Y276374D01*
Y278626D02*
Y286374D01*
Y268626D02*
Y276374D01*
X189000Y347626D02*
Y355374D01*
Y337626D02*
Y345374D01*
Y347626D02*
Y355374D01*
Y337626D02*
Y345374D01*
X189500Y278126D02*
Y285874D01*
Y268126D02*
Y275874D01*
Y278126D02*
Y285874D01*
Y268126D02*
Y275874D01*
X102500Y347626D02*
Y355374D01*
Y337626D02*
Y345374D01*
Y347626D02*
Y355374D01*
Y337626D02*
Y345374D01*
X103000Y278126D02*
Y285874D01*
Y268126D02*
Y275874D01*
Y278126D02*
Y285874D01*
Y268126D02*
Y275874D01*
X16000Y347626D02*
Y355374D01*
Y337626D02*
Y345374D01*
Y347626D02*
Y355374D01*
Y337626D02*
Y345374D01*
X16500Y278126D02*
Y285874D01*
Y268126D02*
Y275874D01*
Y278126D02*
Y285874D01*
Y268126D02*
Y275874D01*
X40626Y187000D02*
X48374D01*
X50626D02*
X58374D01*
X40626D02*
X48374D01*
X50626D02*
X58374D01*
X107626D02*
X115374D01*
X117626D02*
X125374D01*
X107626D02*
X115374D01*
X117626D02*
X125374D01*
X174126D02*
X181874D01*
X184126D02*
X191874D01*
X174126D02*
X181874D01*
X184126D02*
X191874D01*
X240626D02*
X248374D01*
X250626D02*
X258374D01*
X240626D02*
X248374D01*
X250626D02*
X258374D01*
X377126D02*
X384874D01*
X387126D02*
X394874D01*
X377126D02*
X384874D01*
X387126D02*
X394874D01*
X309126D02*
X316874D01*
X319126D02*
X326874D01*
X309126D02*
X316874D01*
X319126D02*
X326874D01*
X40626Y99500D02*
X48374D01*
X50626D02*
X58374D01*
X40626D02*
X48374D01*
X50626D02*
X58374D01*
X107626D02*
X115374D01*
X117626D02*
X125374D01*
X107626D02*
X115374D01*
X117626D02*
X125374D01*
X174126D02*
X181874D01*
X184126D02*
X191874D01*
X174126D02*
X181874D01*
X184126D02*
X191874D01*
X240626D02*
X248374D01*
X250626D02*
X258374D01*
X240626D02*
X248374D01*
X250626D02*
X258374D01*
X377126D02*
X384874D01*
X387126D02*
X394874D01*
X377126D02*
X384874D01*
X387126D02*
X394874D01*
X309126D02*
X316874D01*
X319126D02*
X326874D01*
X309126D02*
X316874D01*
X319126D02*
X326874D01*
X309126Y14000D02*
X316874D01*
X319126D02*
X326874D01*
X309126D02*
X316874D01*
X319126D02*
X326874D01*
X377126D02*
X384874D01*
X387126D02*
X394874D01*
X377126D02*
X384874D01*
X387126D02*
X394874D01*
X240626D02*
X248374D01*
X250626D02*
X258374D01*
X240626D02*
X248374D01*
X250626D02*
X258374D01*
X174126D02*
X181874D01*
X184126D02*
X191874D01*
X174126D02*
X181874D01*
X184126D02*
X191874D01*
X107626D02*
X115374D01*
X117626D02*
X125374D01*
X107626D02*
X115374D01*
X117626D02*
X125374D01*
X40626D02*
X48374D01*
X50626D02*
X58374D01*
X40626D02*
X48374D01*
X50626D02*
X58374D01*
D27*
X316598Y366402D02*
Y392779D01*
X291402Y366402D02*
X316598D01*
X291402D02*
Y392779D01*
X316598D01*
Y366402D02*
Y392779D01*
X291402Y366402D02*
X316598D01*
X291402D02*
Y392779D01*
X316598D01*
X317098Y296902D02*
Y323280D01*
X291902Y296902D02*
X317098D01*
X291902D02*
Y323280D01*
X317098D01*
Y296902D02*
Y323280D01*
X291902Y296902D02*
X317098D01*
X291902D02*
Y323280D01*
X317098D01*
X228598Y365902D02*
Y392280D01*
X203402Y365902D02*
X228598D01*
X203402D02*
Y392280D01*
X228598D01*
Y365902D02*
Y392280D01*
X203402Y365902D02*
X228598D01*
X203402D02*
Y392280D01*
X228598D01*
X229098Y296402D02*
Y322779D01*
X203902Y296402D02*
X229098D01*
X203902D02*
Y322779D01*
X229098D01*
Y296402D02*
Y322779D01*
X203902Y296402D02*
X229098D01*
X203902D02*
Y322779D01*
X229098D01*
X142098Y365902D02*
Y392280D01*
X116902Y365902D02*
X142098D01*
X116902D02*
Y392280D01*
X142098D01*
Y365902D02*
Y392280D01*
X116902Y365902D02*
X142098D01*
X116902D02*
Y392280D01*
X142098D01*
X142598Y296402D02*
Y322779D01*
X117402Y296402D02*
X142598D01*
X117402D02*
Y322779D01*
X142598D01*
Y296402D02*
Y322779D01*
X117402Y296402D02*
X142598D01*
X117402D02*
Y322779D01*
X142598D01*
X55598Y365902D02*
Y392280D01*
X30402Y365902D02*
X55598D01*
X30402D02*
Y392280D01*
X55598D01*
Y365902D02*
Y392280D01*
X30402Y365902D02*
X55598D01*
X30402D02*
Y392280D01*
X55598D01*
X56098Y296402D02*
Y322779D01*
X30902Y296402D02*
X56098D01*
X30902D02*
Y322779D01*
X56098D01*
Y296402D02*
Y322779D01*
X30902Y296402D02*
X56098D01*
X30902D02*
Y322779D01*
X56098D01*
X3720Y226598D02*
X30098D01*
Y201402D02*
Y226598D01*
X3720Y201402D02*
X30098D01*
X3720D02*
Y226598D01*
X30098D01*
Y201402D02*
Y226598D01*
X3720Y201402D02*
X30098D01*
X3720D02*
Y226598D01*
X70720D02*
X97098D01*
Y201402D02*
Y226598D01*
X70720Y201402D02*
X97098D01*
X70720D02*
Y226598D01*
X97098D01*
Y201402D02*
Y226598D01*
X70720Y201402D02*
X97098D01*
X70720D02*
Y226598D01*
X137221D02*
X163598D01*
Y201402D02*
Y226598D01*
X137221Y201402D02*
X163598D01*
X137221D02*
Y226598D01*
X163598D01*
Y201402D02*
Y226598D01*
X137221Y201402D02*
X163598D01*
X137221D02*
Y226598D01*
X203720D02*
X230098D01*
Y201402D02*
Y226598D01*
X203720Y201402D02*
X230098D01*
X203720D02*
Y226598D01*
X230098D01*
Y201402D02*
Y226598D01*
X203720Y201402D02*
X230098D01*
X203720D02*
Y226598D01*
X340220D02*
X366598D01*
Y201402D02*
Y226598D01*
X340220Y201402D02*
X366598D01*
X340220D02*
Y226598D01*
X366598D01*
Y201402D02*
Y226598D01*
X340220Y201402D02*
X366598D01*
X340220D02*
Y226598D01*
X272220D02*
X298598D01*
Y201402D02*
Y226598D01*
X272220Y201402D02*
X298598D01*
X272220D02*
Y226598D01*
X298598D01*
Y201402D02*
Y226598D01*
X272220Y201402D02*
X298598D01*
X272220D02*
Y226598D01*
X3720Y139098D02*
X30098D01*
Y113902D02*
Y139098D01*
X3720Y113902D02*
X30098D01*
X3720D02*
Y139098D01*
X30098D01*
Y113902D02*
Y139098D01*
X3720Y113902D02*
X30098D01*
X3720D02*
Y139098D01*
X70720D02*
X97098D01*
Y113902D02*
Y139098D01*
X70720Y113902D02*
X97098D01*
X70720D02*
Y139098D01*
X97098D01*
Y113902D02*
Y139098D01*
X70720Y113902D02*
X97098D01*
X70720D02*
Y139098D01*
X137221D02*
X163598D01*
Y113902D02*
Y139098D01*
X137221Y113902D02*
X163598D01*
X137221D02*
Y139098D01*
X163598D01*
Y113902D02*
Y139098D01*
X137221Y113902D02*
X163598D01*
X137221D02*
Y139098D01*
X203720D02*
X230098D01*
Y113902D02*
Y139098D01*
X203720Y113902D02*
X230098D01*
X203720D02*
Y139098D01*
X230098D01*
Y113902D02*
Y139098D01*
X203720Y113902D02*
X230098D01*
X203720D02*
Y139098D01*
X340220D02*
X366598D01*
Y113902D02*
Y139098D01*
X340220Y113902D02*
X366598D01*
X340220D02*
Y139098D01*
X366598D01*
Y113902D02*
Y139098D01*
X340220Y113902D02*
X366598D01*
X340220D02*
Y139098D01*
X272220D02*
X298598D01*
Y113902D02*
Y139098D01*
X272220Y113902D02*
X298598D01*
X272220D02*
Y139098D01*
X298598D01*
Y113902D02*
Y139098D01*
X272220Y113902D02*
X298598D01*
X272220D02*
Y139098D01*
Y53598D02*
X298598D01*
Y28402D02*
Y53598D01*
X272220Y28402D02*
X298598D01*
X272220D02*
Y53598D01*
X298598D01*
Y28402D02*
Y53598D01*
X272220Y28402D02*
X298598D01*
X272220D02*
Y53598D01*
X340220D02*
X366598D01*
Y28402D02*
Y53598D01*
X340220Y28402D02*
X366598D01*
X340220D02*
Y53598D01*
X366598D01*
Y28402D02*
Y53598D01*
X340220Y28402D02*
X366598D01*
X340220D02*
Y53598D01*
X203720D02*
X230098D01*
Y28402D02*
Y53598D01*
X203720Y28402D02*
X230098D01*
X203720D02*
Y53598D01*
X230098D01*
Y28402D02*
Y53598D01*
X203720Y28402D02*
X230098D01*
X203720D02*
Y53598D01*
X137221D02*
X163598D01*
Y28402D02*
Y53598D01*
X137221Y28402D02*
X163598D01*
X137221D02*
Y53598D01*
X163598D01*
Y28402D02*
Y53598D01*
X137221Y28402D02*
X163598D01*
X137221D02*
Y53598D01*
X70720D02*
X97098D01*
Y28402D02*
Y53598D01*
X70720Y28402D02*
X97098D01*
X70720D02*
Y53598D01*
X97098D01*
Y28402D02*
Y53598D01*
X70720Y28402D02*
X97098D01*
X70720D02*
Y53598D01*
X3720D02*
X30098D01*
Y28402D02*
Y53598D01*
X3720Y28402D02*
X30098D01*
X3720D02*
Y53598D01*
X30098D01*
Y28402D02*
Y53598D01*
X3720Y28402D02*
X30098D01*
X3720D02*
Y53598D01*
M02*
