M48
;Layer_Color=9474304
;FILE_FORMAT=2:5
INCH,LZ
;TYPE=PLATED
T2F00S00C0.02756
%
G90
G05
T02
G00X0066Y0003508
M15
G01Y0079492
M16
G00X01325Y0003008
M15
G01Y0078992
M16
G00X0199Y0003008
M15
G01Y0078992
M16
G00X0267Y0003008
M15
G01Y0078992
M16
G00X0335Y0003008
M15
G01Y0078992
M16
G00X0335Y0089508
M15
G01Y0165492
M16
G00X0267Y0089508
M15
G01Y0165492
M16
G00X0005028Y01705
M15
G01X0395972
M16
G00X01995Y0089508
M15
G01Y0165492
M16
G00X0005028Y00845
M15
G01X0395972
M16
G00X0133Y0089508
M15
G01Y0165492
M16
G00X0066Y0089508
M15
G01Y0165492
M16
G00X0066Y0176008
M15
G01Y0251992
M16
G00X01325Y0176008
M15
G01Y0251992
M16
G00X01995Y0176008
M15
G01Y0251992
M16
G00X0010055Y0259
M15
G01X0341945
M16
G00X01735Y0265366
M15
G01Y0323634
M16
G00X0009055Y03295
M15
G01X0340945
M16
G00X0173Y0335366
M15
G01Y0393634
M16
G00X0087Y0335366
M15
G01Y0393634
M16
G00X00875Y0265366
M15
G01Y0323634
M16
G00X0261Y0265366
M15
G01Y0323634
M16
G00X02605Y0335366
M15
G01Y0393634
M16
G00X02665Y0176008
M15
G01Y0251992
M16
G00X0335Y0176008
M15
G01Y0251992
M16
M30
