G04 Layer_Color=32896*
%FSLAX25Y25*%
%MOIN*%
G70*
G01*
G75*
%ADD28C,0.01181*%
%ADD42C,0.01575*%
D28*
X270829Y335000D02*
X266500D01*
Y337165D01*
X267221Y337886D01*
X270108D01*
X270829Y337165D01*
Y335000D01*
X266500Y339329D02*
X269386D01*
X270829Y340772D01*
X269386Y342215D01*
X266500D01*
X268665D01*
Y339329D01*
X266500Y343659D02*
X270829D01*
Y345823D01*
X270108Y346545D01*
X268665D01*
X267943Y345823D01*
Y343659D01*
Y345102D02*
X266500Y346545D01*
X270829Y347988D02*
X266500D01*
X267943D01*
X270829Y350874D01*
X268665Y348710D01*
X266500Y350874D01*
X270108Y359533D02*
X270829Y358811D01*
Y357368D01*
X270108Y356646D01*
X269386D01*
X268665Y357368D01*
Y358811D01*
X267943Y359533D01*
X267221D01*
X266500Y358811D01*
Y357368D01*
X267221Y356646D01*
X270829Y363862D02*
Y360976D01*
X266500D01*
Y363862D01*
X268665Y360976D02*
Y362419D01*
X266500Y365305D02*
X270829D01*
X266500Y368191D01*
X270829D01*
X270108Y372521D02*
X270829Y371799D01*
Y370356D01*
X270108Y369635D01*
X269386D01*
X268665Y370356D01*
Y371799D01*
X267943Y372521D01*
X267221D01*
X266500Y371799D01*
Y370356D01*
X267221Y369635D01*
X270829Y373964D02*
Y375407D01*
Y374685D01*
X266500D01*
Y373964D01*
Y375407D01*
X270829Y377572D02*
Y380458D01*
Y379015D01*
X266500D01*
X270829Y381901D02*
Y383344D01*
Y382622D01*
X266500D01*
Y381901D01*
Y383344D01*
X270829Y385509D02*
X267943D01*
X266500Y386952D01*
X267943Y388395D01*
X270829D01*
Y392724D02*
Y389838D01*
X266500D01*
Y392724D01*
X268665Y389838D02*
Y391281D01*
X271329Y265500D02*
X267000D01*
Y267665D01*
X267722Y268386D01*
X270608D01*
X271329Y267665D01*
Y265500D01*
X267000Y269829D02*
X269886D01*
X271329Y271272D01*
X269886Y272715D01*
X267000D01*
X269165D01*
Y269829D01*
X267000Y274159D02*
X271329D01*
Y276323D01*
X270608Y277045D01*
X269165D01*
X268443Y276323D01*
Y274159D01*
Y275602D02*
X267000Y277045D01*
X271329Y278488D02*
X267000D01*
X268443D01*
X271329Y281374D01*
X269165Y279209D01*
X267000Y281374D01*
X270608Y290033D02*
X271329Y289311D01*
Y287868D01*
X270608Y287146D01*
X269886D01*
X269165Y287868D01*
Y289311D01*
X268443Y290033D01*
X267722D01*
X267000Y289311D01*
Y287868D01*
X267722Y287146D01*
X271329Y294362D02*
Y291476D01*
X267000D01*
Y294362D01*
X269165Y291476D02*
Y292919D01*
X267000Y295805D02*
X271329D01*
X267000Y298691D01*
X271329D01*
X270608Y303021D02*
X271329Y302299D01*
Y300856D01*
X270608Y300134D01*
X269886D01*
X269165Y300856D01*
Y302299D01*
X268443Y303021D01*
X267722D01*
X267000Y302299D01*
Y300856D01*
X267722Y300134D01*
X271329Y304464D02*
Y305907D01*
Y305185D01*
X267000D01*
Y304464D01*
Y305907D01*
X271329Y308071D02*
Y310958D01*
Y309515D01*
X267000D01*
X271329Y312401D02*
Y313844D01*
Y313122D01*
X267000D01*
Y312401D01*
Y313844D01*
X271329Y316009D02*
X268443D01*
X267000Y317452D01*
X268443Y318895D01*
X271329D01*
Y323224D02*
Y320338D01*
X267000D01*
Y323224D01*
X269165Y320338D02*
Y321781D01*
X182829Y334500D02*
X178500D01*
Y336665D01*
X179222Y337386D01*
X182108D01*
X182829Y336665D01*
Y334500D01*
X178500Y338829D02*
X181386D01*
X182829Y340272D01*
X181386Y341716D01*
X178500D01*
X180665D01*
Y338829D01*
X178500Y343159D02*
X182829D01*
Y345323D01*
X182108Y346045D01*
X180665D01*
X179943Y345323D01*
Y343159D01*
Y344602D02*
X178500Y346045D01*
X182829Y347488D02*
X178500D01*
X179943D01*
X182829Y350374D01*
X180665Y348210D01*
X178500Y350374D01*
X182108Y359033D02*
X182829Y358311D01*
Y356868D01*
X182108Y356147D01*
X181386D01*
X180665Y356868D01*
Y358311D01*
X179943Y359033D01*
X179222D01*
X178500Y358311D01*
Y356868D01*
X179222Y356147D01*
X182829Y363362D02*
Y360476D01*
X178500D01*
Y363362D01*
X180665Y360476D02*
Y361919D01*
X178500Y364805D02*
X182829D01*
X178500Y367691D01*
X182829D01*
X182108Y372021D02*
X182829Y371299D01*
Y369856D01*
X182108Y369134D01*
X181386D01*
X180665Y369856D01*
Y371299D01*
X179943Y372021D01*
X179222D01*
X178500Y371299D01*
Y369856D01*
X179222Y369134D01*
X182829Y373464D02*
Y374907D01*
Y374185D01*
X178500D01*
Y373464D01*
Y374907D01*
X182829Y377071D02*
Y379958D01*
Y378515D01*
X178500D01*
X182829Y381401D02*
Y382844D01*
Y382122D01*
X178500D01*
Y381401D01*
Y382844D01*
X182829Y385009D02*
X179943D01*
X178500Y386452D01*
X179943Y387895D01*
X182829D01*
Y392224D02*
Y389338D01*
X178500D01*
Y392224D01*
X180665Y389338D02*
Y390781D01*
X183329Y265000D02*
X179000D01*
Y267165D01*
X179722Y267886D01*
X182608D01*
X183329Y267165D01*
Y265000D01*
X179000Y269329D02*
X181886D01*
X183329Y270772D01*
X181886Y272216D01*
X179000D01*
X181165D01*
Y269329D01*
X179000Y273659D02*
X183329D01*
Y275823D01*
X182608Y276545D01*
X181165D01*
X180443Y275823D01*
Y273659D01*
Y275102D02*
X179000Y276545D01*
X183329Y277988D02*
X179000D01*
X180443D01*
X183329Y280874D01*
X181165Y278710D01*
X179000Y280874D01*
X182608Y289533D02*
X183329Y288811D01*
Y287368D01*
X182608Y286647D01*
X181886D01*
X181165Y287368D01*
Y288811D01*
X180443Y289533D01*
X179722D01*
X179000Y288811D01*
Y287368D01*
X179722Y286647D01*
X183329Y293862D02*
Y290976D01*
X179000D01*
Y293862D01*
X181165Y290976D02*
Y292419D01*
X179000Y295305D02*
X183329D01*
X179000Y298191D01*
X183329D01*
X182608Y302521D02*
X183329Y301799D01*
Y300356D01*
X182608Y299635D01*
X181886D01*
X181165Y300356D01*
Y301799D01*
X180443Y302521D01*
X179722D01*
X179000Y301799D01*
Y300356D01*
X179722Y299635D01*
X183329Y303964D02*
Y305407D01*
Y304685D01*
X179000D01*
Y303964D01*
Y305407D01*
X183329Y307572D02*
Y310458D01*
Y309015D01*
X179000D01*
X183329Y311901D02*
Y313344D01*
Y312622D01*
X179000D01*
Y311901D01*
Y313344D01*
X183329Y315509D02*
X180443D01*
X179000Y316952D01*
X180443Y318395D01*
X183329D01*
Y322724D02*
Y319838D01*
X179000D01*
Y322724D01*
X181165Y319838D02*
Y321281D01*
X96329Y334500D02*
X92000D01*
Y336665D01*
X92722Y337386D01*
X95608D01*
X96329Y336665D01*
Y334500D01*
X92000Y338829D02*
X94886D01*
X96329Y340272D01*
X94886Y341716D01*
X92000D01*
X94165D01*
Y338829D01*
X92000Y343159D02*
X96329D01*
Y345323D01*
X95608Y346045D01*
X94165D01*
X93443Y345323D01*
Y343159D01*
Y344602D02*
X92000Y346045D01*
X96329Y347488D02*
X92000D01*
X93443D01*
X96329Y350374D01*
X94165Y348210D01*
X92000Y350374D01*
X95608Y359033D02*
X96329Y358311D01*
Y356868D01*
X95608Y356147D01*
X94886D01*
X94165Y356868D01*
Y358311D01*
X93443Y359033D01*
X92722D01*
X92000Y358311D01*
Y356868D01*
X92722Y356147D01*
X96329Y363362D02*
Y360476D01*
X92000D01*
Y363362D01*
X94165Y360476D02*
Y361919D01*
X92000Y364805D02*
X96329D01*
X92000Y367691D01*
X96329D01*
X95608Y372021D02*
X96329Y371299D01*
Y369856D01*
X95608Y369134D01*
X94886D01*
X94165Y369856D01*
Y371299D01*
X93443Y372021D01*
X92722D01*
X92000Y371299D01*
Y369856D01*
X92722Y369134D01*
X96329Y373464D02*
Y374907D01*
Y374185D01*
X92000D01*
Y373464D01*
Y374907D01*
X96329Y377071D02*
Y379958D01*
Y378515D01*
X92000D01*
X96329Y381401D02*
Y382844D01*
Y382122D01*
X92000D01*
Y381401D01*
Y382844D01*
X96329Y385009D02*
X93443D01*
X92000Y386452D01*
X93443Y387895D01*
X96329D01*
Y392224D02*
Y389338D01*
X92000D01*
Y392224D01*
X94165Y389338D02*
Y390781D01*
X96829Y265000D02*
X92500D01*
Y267165D01*
X93222Y267886D01*
X96108D01*
X96829Y267165D01*
Y265000D01*
X92500Y269329D02*
X95386D01*
X96829Y270772D01*
X95386Y272216D01*
X92500D01*
X94665D01*
Y269329D01*
X92500Y273659D02*
X96829D01*
Y275823D01*
X96108Y276545D01*
X94665D01*
X93943Y275823D01*
Y273659D01*
Y275102D02*
X92500Y276545D01*
X96829Y277988D02*
X92500D01*
X93943D01*
X96829Y280874D01*
X94665Y278710D01*
X92500Y280874D01*
X96108Y289533D02*
X96829Y288811D01*
Y287368D01*
X96108Y286647D01*
X95386D01*
X94665Y287368D01*
Y288811D01*
X93943Y289533D01*
X93222D01*
X92500Y288811D01*
Y287368D01*
X93222Y286647D01*
X96829Y293862D02*
Y290976D01*
X92500D01*
Y293862D01*
X94665Y290976D02*
Y292419D01*
X92500Y295305D02*
X96829D01*
X92500Y298191D01*
X96829D01*
X96108Y302521D02*
X96829Y301799D01*
Y300356D01*
X96108Y299635D01*
X95386D01*
X94665Y300356D01*
Y301799D01*
X93943Y302521D01*
X93222D01*
X92500Y301799D01*
Y300356D01*
X93222Y299635D01*
X96829Y303964D02*
Y305407D01*
Y304685D01*
X92500D01*
Y303964D01*
Y305407D01*
X96829Y307572D02*
Y310458D01*
Y309015D01*
X92500D01*
X96829Y311901D02*
Y313344D01*
Y312622D01*
X92500D01*
Y311901D01*
Y313344D01*
X96829Y315509D02*
X93943D01*
X92500Y316952D01*
X93943Y318395D01*
X96829D01*
Y322724D02*
Y319838D01*
X92500D01*
Y322724D01*
X94665Y319838D02*
Y321281D01*
X9829Y334500D02*
X5500D01*
Y336665D01*
X6222Y337386D01*
X9108D01*
X9829Y336665D01*
Y334500D01*
X5500Y338829D02*
X8386D01*
X9829Y340272D01*
X8386Y341716D01*
X5500D01*
X7665D01*
Y338829D01*
X5500Y343159D02*
X9829D01*
Y345323D01*
X9108Y346045D01*
X7665D01*
X6943Y345323D01*
Y343159D01*
Y344602D02*
X5500Y346045D01*
X9829Y347488D02*
X5500D01*
X6943D01*
X9829Y350374D01*
X7665Y348210D01*
X5500Y350374D01*
X9108Y359033D02*
X9829Y358311D01*
Y356868D01*
X9108Y356147D01*
X8386D01*
X7665Y356868D01*
Y358311D01*
X6943Y359033D01*
X6222D01*
X5500Y358311D01*
Y356868D01*
X6222Y356147D01*
X9829Y363362D02*
Y360476D01*
X5500D01*
Y363362D01*
X7665Y360476D02*
Y361919D01*
X5500Y364805D02*
X9829D01*
X5500Y367691D01*
X9829D01*
X9108Y372021D02*
X9829Y371299D01*
Y369856D01*
X9108Y369134D01*
X8386D01*
X7665Y369856D01*
Y371299D01*
X6943Y372021D01*
X6222D01*
X5500Y371299D01*
Y369856D01*
X6222Y369134D01*
X9829Y373464D02*
Y374907D01*
Y374185D01*
X5500D01*
Y373464D01*
Y374907D01*
X9829Y377071D02*
Y379958D01*
Y378515D01*
X5500D01*
X9829Y381401D02*
Y382844D01*
Y382122D01*
X5500D01*
Y381401D01*
Y382844D01*
X9829Y385009D02*
X6943D01*
X5500Y386452D01*
X6943Y387895D01*
X9829D01*
Y392224D02*
Y389338D01*
X5500D01*
Y392224D01*
X7665Y389338D02*
Y390781D01*
X10329Y265000D02*
X6000D01*
Y267165D01*
X6722Y267886D01*
X9608D01*
X10329Y267165D01*
Y265000D01*
X6000Y269329D02*
X8886D01*
X10329Y270772D01*
X8886Y272216D01*
X6000D01*
X8165D01*
Y269329D01*
X6000Y273659D02*
X10329D01*
Y275823D01*
X9608Y276545D01*
X8165D01*
X7443Y275823D01*
Y273659D01*
Y275102D02*
X6000Y276545D01*
X10329Y277988D02*
X6000D01*
X7443D01*
X10329Y280874D01*
X8165Y278710D01*
X6000Y280874D01*
X9608Y289533D02*
X10329Y288811D01*
Y287368D01*
X9608Y286647D01*
X8886D01*
X8165Y287368D01*
Y288811D01*
X7443Y289533D01*
X6722D01*
X6000Y288811D01*
Y287368D01*
X6722Y286647D01*
X10329Y293862D02*
Y290976D01*
X6000D01*
Y293862D01*
X8165Y290976D02*
Y292419D01*
X6000Y295305D02*
X10329D01*
X6000Y298191D01*
X10329D01*
X9608Y302521D02*
X10329Y301799D01*
Y300356D01*
X9608Y299635D01*
X8886D01*
X8165Y300356D01*
Y301799D01*
X7443Y302521D01*
X6722D01*
X6000Y301799D01*
Y300356D01*
X6722Y299635D01*
X10329Y303964D02*
Y305407D01*
Y304685D01*
X6000D01*
Y303964D01*
Y305407D01*
X10329Y307572D02*
Y310458D01*
Y309015D01*
X6000D01*
X10329Y311901D02*
Y313344D01*
Y312622D01*
X6000D01*
Y311901D01*
Y313344D01*
X10329Y315509D02*
X7443D01*
X6000Y316952D01*
X7443Y318395D01*
X10329D01*
Y322724D02*
Y319838D01*
X6000D01*
Y322724D01*
X8165Y319838D02*
Y321281D01*
X61500Y180829D02*
Y176500D01*
X59335D01*
X58614Y177222D01*
Y180108D01*
X59335Y180829D01*
X61500D01*
X57171Y176500D02*
Y179386D01*
X55728Y180829D01*
X54285Y179386D01*
Y176500D01*
Y178665D01*
X57171D01*
X52841Y176500D02*
Y180829D01*
X50677D01*
X49955Y180108D01*
Y178665D01*
X50677Y177943D01*
X52841D01*
X51398D02*
X49955Y176500D01*
X48512Y180829D02*
Y176500D01*
Y177943D01*
X45626Y180829D01*
X47791Y178665D01*
X45626Y176500D01*
X36967Y180108D02*
X37689Y180829D01*
X39132D01*
X39853Y180108D01*
Y179386D01*
X39132Y178665D01*
X37689D01*
X36967Y177943D01*
Y177222D01*
X37689Y176500D01*
X39132D01*
X39853Y177222D01*
X32638Y180829D02*
X35524D01*
Y176500D01*
X32638D01*
X35524Y178665D02*
X34081D01*
X31195Y176500D02*
Y180829D01*
X28309Y176500D01*
Y180829D01*
X23979Y180108D02*
X24701Y180829D01*
X26144D01*
X26866Y180108D01*
Y179386D01*
X26144Y178665D01*
X24701D01*
X23979Y177943D01*
Y177222D01*
X24701Y176500D01*
X26144D01*
X26866Y177222D01*
X22536Y180829D02*
X21093D01*
X21815D01*
Y176500D01*
X22536D01*
X21093D01*
X18928Y180829D02*
X16042D01*
X17485D01*
Y176500D01*
X14599Y180829D02*
X13156D01*
X13878D01*
Y176500D01*
X14599D01*
X13156D01*
X10991Y180829D02*
Y177943D01*
X9548Y176500D01*
X8105Y177943D01*
Y180829D01*
X3776D02*
X6662D01*
Y176500D01*
X3776D01*
X6662Y178665D02*
X5219D01*
X128500Y180829D02*
Y176500D01*
X126335D01*
X125614Y177222D01*
Y180108D01*
X126335Y180829D01*
X128500D01*
X124171Y176500D02*
Y179386D01*
X122728Y180829D01*
X121284Y179386D01*
Y176500D01*
Y178665D01*
X124171D01*
X119841Y176500D02*
Y180829D01*
X117677D01*
X116955Y180108D01*
Y178665D01*
X117677Y177943D01*
X119841D01*
X118398D02*
X116955Y176500D01*
X115512Y180829D02*
Y176500D01*
Y177943D01*
X112626Y180829D01*
X114790Y178665D01*
X112626Y176500D01*
X103967Y180108D02*
X104689Y180829D01*
X106132D01*
X106853Y180108D01*
Y179386D01*
X106132Y178665D01*
X104689D01*
X103967Y177943D01*
Y177222D01*
X104689Y176500D01*
X106132D01*
X106853Y177222D01*
X99638Y180829D02*
X102524D01*
Y176500D01*
X99638D01*
X102524Y178665D02*
X101081D01*
X98195Y176500D02*
Y180829D01*
X95309Y176500D01*
Y180829D01*
X90979Y180108D02*
X91701Y180829D01*
X93144D01*
X93866Y180108D01*
Y179386D01*
X93144Y178665D01*
X91701D01*
X90979Y177943D01*
Y177222D01*
X91701Y176500D01*
X93144D01*
X93866Y177222D01*
X89536Y180829D02*
X88093D01*
X88815D01*
Y176500D01*
X89536D01*
X88093D01*
X85928Y180829D02*
X83042D01*
X84485D01*
Y176500D01*
X81599Y180829D02*
X80156D01*
X80878D01*
Y176500D01*
X81599D01*
X80156D01*
X77991Y180829D02*
Y177943D01*
X76548Y176500D01*
X75105Y177943D01*
Y180829D01*
X70776D02*
X73662D01*
Y176500D01*
X70776D01*
X73662Y178665D02*
X72219D01*
X195000Y180829D02*
Y176500D01*
X192835D01*
X192114Y177222D01*
Y180108D01*
X192835Y180829D01*
X195000D01*
X190671Y176500D02*
Y179386D01*
X189228Y180829D01*
X187785Y179386D01*
Y176500D01*
Y178665D01*
X190671D01*
X186341Y176500D02*
Y180829D01*
X184177D01*
X183455Y180108D01*
Y178665D01*
X184177Y177943D01*
X186341D01*
X184898D02*
X183455Y176500D01*
X182012Y180829D02*
Y176500D01*
Y177943D01*
X179126Y180829D01*
X181290Y178665D01*
X179126Y176500D01*
X170467Y180108D02*
X171189Y180829D01*
X172632D01*
X173353Y180108D01*
Y179386D01*
X172632Y178665D01*
X171189D01*
X170467Y177943D01*
Y177222D01*
X171189Y176500D01*
X172632D01*
X173353Y177222D01*
X166138Y180829D02*
X169024D01*
Y176500D01*
X166138D01*
X169024Y178665D02*
X167581D01*
X164695Y176500D02*
Y180829D01*
X161809Y176500D01*
Y180829D01*
X157479Y180108D02*
X158201Y180829D01*
X159644D01*
X160365Y180108D01*
Y179386D01*
X159644Y178665D01*
X158201D01*
X157479Y177943D01*
Y177222D01*
X158201Y176500D01*
X159644D01*
X160365Y177222D01*
X156036Y180829D02*
X154593D01*
X155315D01*
Y176500D01*
X156036D01*
X154593D01*
X152428Y180829D02*
X149542D01*
X150985D01*
Y176500D01*
X148099Y180829D02*
X146656D01*
X147378D01*
Y176500D01*
X148099D01*
X146656D01*
X144491Y180829D02*
Y177943D01*
X143048Y176500D01*
X141605Y177943D01*
Y180829D01*
X137276D02*
X140162D01*
Y176500D01*
X137276D01*
X140162Y178665D02*
X138719D01*
X261500Y180829D02*
Y176500D01*
X259335D01*
X258614Y177222D01*
Y180108D01*
X259335Y180829D01*
X261500D01*
X257171Y176500D02*
Y179386D01*
X255728Y180829D01*
X254285Y179386D01*
Y176500D01*
Y178665D01*
X257171D01*
X252841Y176500D02*
Y180829D01*
X250677D01*
X249955Y180108D01*
Y178665D01*
X250677Y177943D01*
X252841D01*
X251398D02*
X249955Y176500D01*
X248512Y180829D02*
Y176500D01*
Y177943D01*
X245626Y180829D01*
X247791Y178665D01*
X245626Y176500D01*
X236967Y180108D02*
X237689Y180829D01*
X239132D01*
X239854Y180108D01*
Y179386D01*
X239132Y178665D01*
X237689D01*
X236967Y177943D01*
Y177222D01*
X237689Y176500D01*
X239132D01*
X239854Y177222D01*
X232638Y180829D02*
X235524D01*
Y176500D01*
X232638D01*
X235524Y178665D02*
X234081D01*
X231195Y176500D02*
Y180829D01*
X228309Y176500D01*
Y180829D01*
X223979Y180108D02*
X224701Y180829D01*
X226144D01*
X226866Y180108D01*
Y179386D01*
X226144Y178665D01*
X224701D01*
X223979Y177943D01*
Y177222D01*
X224701Y176500D01*
X226144D01*
X226866Y177222D01*
X222536Y180829D02*
X221093D01*
X221815D01*
Y176500D01*
X222536D01*
X221093D01*
X218929Y180829D02*
X216042D01*
X217485D01*
Y176500D01*
X214599Y180829D02*
X213156D01*
X213878D01*
Y176500D01*
X214599D01*
X213156D01*
X210991Y180829D02*
Y177943D01*
X209548Y176500D01*
X208105Y177943D01*
Y180829D01*
X203776D02*
X206662D01*
Y176500D01*
X203776D01*
X206662Y178665D02*
X205219D01*
X398000Y180829D02*
Y176500D01*
X395835D01*
X395114Y177222D01*
Y180108D01*
X395835Y180829D01*
X398000D01*
X393671Y176500D02*
Y179386D01*
X392228Y180829D01*
X390785Y179386D01*
Y176500D01*
Y178665D01*
X393671D01*
X389341Y176500D02*
Y180829D01*
X387177D01*
X386455Y180108D01*
Y178665D01*
X387177Y177943D01*
X389341D01*
X387898D02*
X386455Y176500D01*
X385012Y180829D02*
Y176500D01*
Y177943D01*
X382126Y180829D01*
X384291Y178665D01*
X382126Y176500D01*
X373467Y180108D02*
X374189Y180829D01*
X375632D01*
X376354Y180108D01*
Y179386D01*
X375632Y178665D01*
X374189D01*
X373467Y177943D01*
Y177222D01*
X374189Y176500D01*
X375632D01*
X376354Y177222D01*
X369138Y180829D02*
X372024D01*
Y176500D01*
X369138D01*
X372024Y178665D02*
X370581D01*
X367695Y176500D02*
Y180829D01*
X364809Y176500D01*
Y180829D01*
X360479Y180108D02*
X361201Y180829D01*
X362644D01*
X363366Y180108D01*
Y179386D01*
X362644Y178665D01*
X361201D01*
X360479Y177943D01*
Y177222D01*
X361201Y176500D01*
X362644D01*
X363366Y177222D01*
X359036Y180829D02*
X357593D01*
X358315D01*
Y176500D01*
X359036D01*
X357593D01*
X355429Y180829D02*
X352542D01*
X353985D01*
Y176500D01*
X351099Y180829D02*
X349656D01*
X350378D01*
Y176500D01*
X351099D01*
X349656D01*
X347491Y180829D02*
Y177943D01*
X346048Y176500D01*
X344605Y177943D01*
Y180829D01*
X340276D02*
X343162D01*
Y176500D01*
X340276D01*
X343162Y178665D02*
X341719D01*
X330000Y180829D02*
Y176500D01*
X327835D01*
X327114Y177222D01*
Y180108D01*
X327835Y180829D01*
X330000D01*
X325671Y176500D02*
Y179386D01*
X324228Y180829D01*
X322784Y179386D01*
Y176500D01*
Y178665D01*
X325671D01*
X321341Y176500D02*
Y180829D01*
X319177D01*
X318455Y180108D01*
Y178665D01*
X319177Y177943D01*
X321341D01*
X319898D02*
X318455Y176500D01*
X317012Y180829D02*
Y176500D01*
Y177943D01*
X314126Y180829D01*
X316290Y178665D01*
X314126Y176500D01*
X305467Y180108D02*
X306189Y180829D01*
X307632D01*
X308353Y180108D01*
Y179386D01*
X307632Y178665D01*
X306189D01*
X305467Y177943D01*
Y177222D01*
X306189Y176500D01*
X307632D01*
X308353Y177222D01*
X301138Y180829D02*
X304024D01*
Y176500D01*
X301138D01*
X304024Y178665D02*
X302581D01*
X299695Y176500D02*
Y180829D01*
X296809Y176500D01*
Y180829D01*
X292479Y180108D02*
X293201Y180829D01*
X294644D01*
X295366Y180108D01*
Y179386D01*
X294644Y178665D01*
X293201D01*
X292479Y177943D01*
Y177222D01*
X293201Y176500D01*
X294644D01*
X295366Y177222D01*
X291036Y180829D02*
X289593D01*
X290315D01*
Y176500D01*
X291036D01*
X289593D01*
X287428Y180829D02*
X284542D01*
X285985D01*
Y176500D01*
X283099Y180829D02*
X281656D01*
X282378D01*
Y176500D01*
X283099D01*
X281656D01*
X279491Y180829D02*
Y177943D01*
X278048Y176500D01*
X276605Y177943D01*
Y180829D01*
X272276D02*
X275162D01*
Y176500D01*
X272276D01*
X275162Y178665D02*
X273719D01*
X61500Y93329D02*
Y89000D01*
X59335D01*
X58614Y89722D01*
Y92608D01*
X59335Y93329D01*
X61500D01*
X57171Y89000D02*
Y91886D01*
X55728Y93329D01*
X54285Y91886D01*
Y89000D01*
Y91165D01*
X57171D01*
X52841Y89000D02*
Y93329D01*
X50677D01*
X49955Y92608D01*
Y91165D01*
X50677Y90443D01*
X52841D01*
X51398D02*
X49955Y89000D01*
X48512Y93329D02*
Y89000D01*
Y90443D01*
X45626Y93329D01*
X47791Y91165D01*
X45626Y89000D01*
X36967Y92608D02*
X37689Y93329D01*
X39132D01*
X39853Y92608D01*
Y91886D01*
X39132Y91165D01*
X37689D01*
X36967Y90443D01*
Y89722D01*
X37689Y89000D01*
X39132D01*
X39853Y89722D01*
X32638Y93329D02*
X35524D01*
Y89000D01*
X32638D01*
X35524Y91165D02*
X34081D01*
X31195Y89000D02*
Y93329D01*
X28309Y89000D01*
Y93329D01*
X23979Y92608D02*
X24701Y93329D01*
X26144D01*
X26866Y92608D01*
Y91886D01*
X26144Y91165D01*
X24701D01*
X23979Y90443D01*
Y89722D01*
X24701Y89000D01*
X26144D01*
X26866Y89722D01*
X22536Y93329D02*
X21093D01*
X21815D01*
Y89000D01*
X22536D01*
X21093D01*
X18928Y93329D02*
X16042D01*
X17485D01*
Y89000D01*
X14599Y93329D02*
X13156D01*
X13878D01*
Y89000D01*
X14599D01*
X13156D01*
X10991Y93329D02*
Y90443D01*
X9548Y89000D01*
X8105Y90443D01*
Y93329D01*
X3776D02*
X6662D01*
Y89000D01*
X3776D01*
X6662Y91165D02*
X5219D01*
X128500Y93329D02*
Y89000D01*
X126335D01*
X125614Y89722D01*
Y92608D01*
X126335Y93329D01*
X128500D01*
X124171Y89000D02*
Y91886D01*
X122728Y93329D01*
X121284Y91886D01*
Y89000D01*
Y91165D01*
X124171D01*
X119841Y89000D02*
Y93329D01*
X117677D01*
X116955Y92608D01*
Y91165D01*
X117677Y90443D01*
X119841D01*
X118398D02*
X116955Y89000D01*
X115512Y93329D02*
Y89000D01*
Y90443D01*
X112626Y93329D01*
X114790Y91165D01*
X112626Y89000D01*
X103967Y92608D02*
X104689Y93329D01*
X106132D01*
X106853Y92608D01*
Y91886D01*
X106132Y91165D01*
X104689D01*
X103967Y90443D01*
Y89722D01*
X104689Y89000D01*
X106132D01*
X106853Y89722D01*
X99638Y93329D02*
X102524D01*
Y89000D01*
X99638D01*
X102524Y91165D02*
X101081D01*
X98195Y89000D02*
Y93329D01*
X95309Y89000D01*
Y93329D01*
X90979Y92608D02*
X91701Y93329D01*
X93144D01*
X93866Y92608D01*
Y91886D01*
X93144Y91165D01*
X91701D01*
X90979Y90443D01*
Y89722D01*
X91701Y89000D01*
X93144D01*
X93866Y89722D01*
X89536Y93329D02*
X88093D01*
X88815D01*
Y89000D01*
X89536D01*
X88093D01*
X85928Y93329D02*
X83042D01*
X84485D01*
Y89000D01*
X81599Y93329D02*
X80156D01*
X80878D01*
Y89000D01*
X81599D01*
X80156D01*
X77991Y93329D02*
Y90443D01*
X76548Y89000D01*
X75105Y90443D01*
Y93329D01*
X70776D02*
X73662D01*
Y89000D01*
X70776D01*
X73662Y91165D02*
X72219D01*
X195000Y93329D02*
Y89000D01*
X192835D01*
X192114Y89722D01*
Y92608D01*
X192835Y93329D01*
X195000D01*
X190671Y89000D02*
Y91886D01*
X189228Y93329D01*
X187785Y91886D01*
Y89000D01*
Y91165D01*
X190671D01*
X186341Y89000D02*
Y93329D01*
X184177D01*
X183455Y92608D01*
Y91165D01*
X184177Y90443D01*
X186341D01*
X184898D02*
X183455Y89000D01*
X182012Y93329D02*
Y89000D01*
Y90443D01*
X179126Y93329D01*
X181290Y91165D01*
X179126Y89000D01*
X170467Y92608D02*
X171189Y93329D01*
X172632D01*
X173353Y92608D01*
Y91886D01*
X172632Y91165D01*
X171189D01*
X170467Y90443D01*
Y89722D01*
X171189Y89000D01*
X172632D01*
X173353Y89722D01*
X166138Y93329D02*
X169024D01*
Y89000D01*
X166138D01*
X169024Y91165D02*
X167581D01*
X164695Y89000D02*
Y93329D01*
X161809Y89000D01*
Y93329D01*
X157479Y92608D02*
X158201Y93329D01*
X159644D01*
X160365Y92608D01*
Y91886D01*
X159644Y91165D01*
X158201D01*
X157479Y90443D01*
Y89722D01*
X158201Y89000D01*
X159644D01*
X160365Y89722D01*
X156036Y93329D02*
X154593D01*
X155315D01*
Y89000D01*
X156036D01*
X154593D01*
X152428Y93329D02*
X149542D01*
X150985D01*
Y89000D01*
X148099Y93329D02*
X146656D01*
X147378D01*
Y89000D01*
X148099D01*
X146656D01*
X144491Y93329D02*
Y90443D01*
X143048Y89000D01*
X141605Y90443D01*
Y93329D01*
X137276D02*
X140162D01*
Y89000D01*
X137276D01*
X140162Y91165D02*
X138719D01*
X261500Y93329D02*
Y89000D01*
X259335D01*
X258614Y89722D01*
Y92608D01*
X259335Y93329D01*
X261500D01*
X257171Y89000D02*
Y91886D01*
X255728Y93329D01*
X254285Y91886D01*
Y89000D01*
Y91165D01*
X257171D01*
X252841Y89000D02*
Y93329D01*
X250677D01*
X249955Y92608D01*
Y91165D01*
X250677Y90443D01*
X252841D01*
X251398D02*
X249955Y89000D01*
X248512Y93329D02*
Y89000D01*
Y90443D01*
X245626Y93329D01*
X247791Y91165D01*
X245626Y89000D01*
X236967Y92608D02*
X237689Y93329D01*
X239132D01*
X239854Y92608D01*
Y91886D01*
X239132Y91165D01*
X237689D01*
X236967Y90443D01*
Y89722D01*
X237689Y89000D01*
X239132D01*
X239854Y89722D01*
X232638Y93329D02*
X235524D01*
Y89000D01*
X232638D01*
X235524Y91165D02*
X234081D01*
X231195Y89000D02*
Y93329D01*
X228309Y89000D01*
Y93329D01*
X223979Y92608D02*
X224701Y93329D01*
X226144D01*
X226866Y92608D01*
Y91886D01*
X226144Y91165D01*
X224701D01*
X223979Y90443D01*
Y89722D01*
X224701Y89000D01*
X226144D01*
X226866Y89722D01*
X222536Y93329D02*
X221093D01*
X221815D01*
Y89000D01*
X222536D01*
X221093D01*
X218929Y93329D02*
X216042D01*
X217485D01*
Y89000D01*
X214599Y93329D02*
X213156D01*
X213878D01*
Y89000D01*
X214599D01*
X213156D01*
X210991Y93329D02*
Y90443D01*
X209548Y89000D01*
X208105Y90443D01*
Y93329D01*
X203776D02*
X206662D01*
Y89000D01*
X203776D01*
X206662Y91165D02*
X205219D01*
X398000Y93329D02*
Y89000D01*
X395835D01*
X395114Y89722D01*
Y92608D01*
X395835Y93329D01*
X398000D01*
X393671Y89000D02*
Y91886D01*
X392228Y93329D01*
X390785Y91886D01*
Y89000D01*
Y91165D01*
X393671D01*
X389341Y89000D02*
Y93329D01*
X387177D01*
X386455Y92608D01*
Y91165D01*
X387177Y90443D01*
X389341D01*
X387898D02*
X386455Y89000D01*
X385012Y93329D02*
Y89000D01*
Y90443D01*
X382126Y93329D01*
X384291Y91165D01*
X382126Y89000D01*
X373467Y92608D02*
X374189Y93329D01*
X375632D01*
X376354Y92608D01*
Y91886D01*
X375632Y91165D01*
X374189D01*
X373467Y90443D01*
Y89722D01*
X374189Y89000D01*
X375632D01*
X376354Y89722D01*
X369138Y93329D02*
X372024D01*
Y89000D01*
X369138D01*
X372024Y91165D02*
X370581D01*
X367695Y89000D02*
Y93329D01*
X364809Y89000D01*
Y93329D01*
X360479Y92608D02*
X361201Y93329D01*
X362644D01*
X363366Y92608D01*
Y91886D01*
X362644Y91165D01*
X361201D01*
X360479Y90443D01*
Y89722D01*
X361201Y89000D01*
X362644D01*
X363366Y89722D01*
X359036Y93329D02*
X357593D01*
X358315D01*
Y89000D01*
X359036D01*
X357593D01*
X355429Y93329D02*
X352542D01*
X353985D01*
Y89000D01*
X351099Y93329D02*
X349656D01*
X350378D01*
Y89000D01*
X351099D01*
X349656D01*
X347491Y93329D02*
Y90443D01*
X346048Y89000D01*
X344605Y90443D01*
Y93329D01*
X340276D02*
X343162D01*
Y89000D01*
X340276D01*
X343162Y91165D02*
X341719D01*
X330000Y93329D02*
Y89000D01*
X327835D01*
X327114Y89722D01*
Y92608D01*
X327835Y93329D01*
X330000D01*
X325671Y89000D02*
Y91886D01*
X324228Y93329D01*
X322784Y91886D01*
Y89000D01*
Y91165D01*
X325671D01*
X321341Y89000D02*
Y93329D01*
X319177D01*
X318455Y92608D01*
Y91165D01*
X319177Y90443D01*
X321341D01*
X319898D02*
X318455Y89000D01*
X317012Y93329D02*
Y89000D01*
Y90443D01*
X314126Y93329D01*
X316290Y91165D01*
X314126Y89000D01*
X305467Y92608D02*
X306189Y93329D01*
X307632D01*
X308353Y92608D01*
Y91886D01*
X307632Y91165D01*
X306189D01*
X305467Y90443D01*
Y89722D01*
X306189Y89000D01*
X307632D01*
X308353Y89722D01*
X301138Y93329D02*
X304024D01*
Y89000D01*
X301138D01*
X304024Y91165D02*
X302581D01*
X299695Y89000D02*
Y93329D01*
X296809Y89000D01*
Y93329D01*
X292479Y92608D02*
X293201Y93329D01*
X294644D01*
X295366Y92608D01*
Y91886D01*
X294644Y91165D01*
X293201D01*
X292479Y90443D01*
Y89722D01*
X293201Y89000D01*
X294644D01*
X295366Y89722D01*
X291036Y93329D02*
X289593D01*
X290315D01*
Y89000D01*
X291036D01*
X289593D01*
X287428Y93329D02*
X284542D01*
X285985D01*
Y89000D01*
X283099Y93329D02*
X281656D01*
X282378D01*
Y89000D01*
X283099D01*
X281656D01*
X279491Y93329D02*
Y90443D01*
X278048Y89000D01*
X276605Y90443D01*
Y93329D01*
X272276D02*
X275162D01*
Y89000D01*
X272276D01*
X275162Y91165D02*
X273719D01*
X330000Y7829D02*
Y3500D01*
X327835D01*
X327114Y4222D01*
Y7108D01*
X327835Y7829D01*
X330000D01*
X325671Y3500D02*
Y6386D01*
X324228Y7829D01*
X322784Y6386D01*
Y3500D01*
Y5665D01*
X325671D01*
X321341Y3500D02*
Y7829D01*
X319177D01*
X318455Y7108D01*
Y5665D01*
X319177Y4943D01*
X321341D01*
X319898D02*
X318455Y3500D01*
X317012Y7829D02*
Y3500D01*
Y4943D01*
X314126Y7829D01*
X316290Y5665D01*
X314126Y3500D01*
X305467Y7108D02*
X306189Y7829D01*
X307632D01*
X308353Y7108D01*
Y6386D01*
X307632Y5665D01*
X306189D01*
X305467Y4943D01*
Y4222D01*
X306189Y3500D01*
X307632D01*
X308353Y4222D01*
X301138Y7829D02*
X304024D01*
Y3500D01*
X301138D01*
X304024Y5665D02*
X302581D01*
X299695Y3500D02*
Y7829D01*
X296809Y3500D01*
Y7829D01*
X292479Y7108D02*
X293201Y7829D01*
X294644D01*
X295366Y7108D01*
Y6386D01*
X294644Y5665D01*
X293201D01*
X292479Y4943D01*
Y4222D01*
X293201Y3500D01*
X294644D01*
X295366Y4222D01*
X291036Y7829D02*
X289593D01*
X290315D01*
Y3500D01*
X291036D01*
X289593D01*
X287428Y7829D02*
X284542D01*
X285985D01*
Y3500D01*
X283099Y7829D02*
X281656D01*
X282378D01*
Y3500D01*
X283099D01*
X281656D01*
X279491Y7829D02*
Y4943D01*
X278048Y3500D01*
X276605Y4943D01*
Y7829D01*
X272276D02*
X275162D01*
Y3500D01*
X272276D01*
X275162Y5665D02*
X273719D01*
X398000Y7829D02*
Y3500D01*
X395835D01*
X395114Y4222D01*
Y7108D01*
X395835Y7829D01*
X398000D01*
X393671Y3500D02*
Y6386D01*
X392228Y7829D01*
X390785Y6386D01*
Y3500D01*
Y5665D01*
X393671D01*
X389341Y3500D02*
Y7829D01*
X387177D01*
X386455Y7108D01*
Y5665D01*
X387177Y4943D01*
X389341D01*
X387898D02*
X386455Y3500D01*
X385012Y7829D02*
Y3500D01*
Y4943D01*
X382126Y7829D01*
X384291Y5665D01*
X382126Y3500D01*
X373467Y7108D02*
X374189Y7829D01*
X375632D01*
X376354Y7108D01*
Y6386D01*
X375632Y5665D01*
X374189D01*
X373467Y4943D01*
Y4222D01*
X374189Y3500D01*
X375632D01*
X376354Y4222D01*
X369138Y7829D02*
X372024D01*
Y3500D01*
X369138D01*
X372024Y5665D02*
X370581D01*
X367695Y3500D02*
Y7829D01*
X364809Y3500D01*
Y7829D01*
X360479Y7108D02*
X361201Y7829D01*
X362644D01*
X363366Y7108D01*
Y6386D01*
X362644Y5665D01*
X361201D01*
X360479Y4943D01*
Y4222D01*
X361201Y3500D01*
X362644D01*
X363366Y4222D01*
X359036Y7829D02*
X357593D01*
X358315D01*
Y3500D01*
X359036D01*
X357593D01*
X355429Y7829D02*
X352542D01*
X353985D01*
Y3500D01*
X351099Y7829D02*
X349656D01*
X350378D01*
Y3500D01*
X351099D01*
X349656D01*
X347491Y7829D02*
Y4943D01*
X346048Y3500D01*
X344605Y4943D01*
Y7829D01*
X340276D02*
X343162D01*
Y3500D01*
X340276D01*
X343162Y5665D02*
X341719D01*
X261500Y7829D02*
Y3500D01*
X259335D01*
X258614Y4222D01*
Y7108D01*
X259335Y7829D01*
X261500D01*
X257171Y3500D02*
Y6386D01*
X255728Y7829D01*
X254285Y6386D01*
Y3500D01*
Y5665D01*
X257171D01*
X252841Y3500D02*
Y7829D01*
X250677D01*
X249955Y7108D01*
Y5665D01*
X250677Y4943D01*
X252841D01*
X251398D02*
X249955Y3500D01*
X248512Y7829D02*
Y3500D01*
Y4943D01*
X245626Y7829D01*
X247791Y5665D01*
X245626Y3500D01*
X236967Y7108D02*
X237689Y7829D01*
X239132D01*
X239854Y7108D01*
Y6386D01*
X239132Y5665D01*
X237689D01*
X236967Y4943D01*
Y4222D01*
X237689Y3500D01*
X239132D01*
X239854Y4222D01*
X232638Y7829D02*
X235524D01*
Y3500D01*
X232638D01*
X235524Y5665D02*
X234081D01*
X231195Y3500D02*
Y7829D01*
X228309Y3500D01*
Y7829D01*
X223979Y7108D02*
X224701Y7829D01*
X226144D01*
X226866Y7108D01*
Y6386D01*
X226144Y5665D01*
X224701D01*
X223979Y4943D01*
Y4222D01*
X224701Y3500D01*
X226144D01*
X226866Y4222D01*
X222536Y7829D02*
X221093D01*
X221815D01*
Y3500D01*
X222536D01*
X221093D01*
X218929Y7829D02*
X216042D01*
X217485D01*
Y3500D01*
X214599Y7829D02*
X213156D01*
X213878D01*
Y3500D01*
X214599D01*
X213156D01*
X210991Y7829D02*
Y4943D01*
X209548Y3500D01*
X208105Y4943D01*
Y7829D01*
X203776D02*
X206662D01*
Y3500D01*
X203776D01*
X206662Y5665D02*
X205219D01*
X195000Y7829D02*
Y3500D01*
X192835D01*
X192114Y4222D01*
Y7108D01*
X192835Y7829D01*
X195000D01*
X190671Y3500D02*
Y6386D01*
X189228Y7829D01*
X187785Y6386D01*
Y3500D01*
Y5665D01*
X190671D01*
X186341Y3500D02*
Y7829D01*
X184177D01*
X183455Y7108D01*
Y5665D01*
X184177Y4943D01*
X186341D01*
X184898D02*
X183455Y3500D01*
X182012Y7829D02*
Y3500D01*
Y4943D01*
X179126Y7829D01*
X181290Y5665D01*
X179126Y3500D01*
X170467Y7108D02*
X171189Y7829D01*
X172632D01*
X173353Y7108D01*
Y6386D01*
X172632Y5665D01*
X171189D01*
X170467Y4943D01*
Y4222D01*
X171189Y3500D01*
X172632D01*
X173353Y4222D01*
X166138Y7829D02*
X169024D01*
Y3500D01*
X166138D01*
X169024Y5665D02*
X167581D01*
X164695Y3500D02*
Y7829D01*
X161809Y3500D01*
Y7829D01*
X157479Y7108D02*
X158201Y7829D01*
X159644D01*
X160365Y7108D01*
Y6386D01*
X159644Y5665D01*
X158201D01*
X157479Y4943D01*
Y4222D01*
X158201Y3500D01*
X159644D01*
X160365Y4222D01*
X156036Y7829D02*
X154593D01*
X155315D01*
Y3500D01*
X156036D01*
X154593D01*
X152428Y7829D02*
X149542D01*
X150985D01*
Y3500D01*
X148099Y7829D02*
X146656D01*
X147378D01*
Y3500D01*
X148099D01*
X146656D01*
X144491Y7829D02*
Y4943D01*
X143048Y3500D01*
X141605Y4943D01*
Y7829D01*
X137276D02*
X140162D01*
Y3500D01*
X137276D01*
X140162Y5665D02*
X138719D01*
X128500Y7829D02*
Y3500D01*
X126335D01*
X125614Y4222D01*
Y7108D01*
X126335Y7829D01*
X128500D01*
X124171Y3500D02*
Y6386D01*
X122728Y7829D01*
X121284Y6386D01*
Y3500D01*
Y5665D01*
X124171D01*
X119841Y3500D02*
Y7829D01*
X117677D01*
X116955Y7108D01*
Y5665D01*
X117677Y4943D01*
X119841D01*
X118398D02*
X116955Y3500D01*
X115512Y7829D02*
Y3500D01*
Y4943D01*
X112626Y7829D01*
X114790Y5665D01*
X112626Y3500D01*
X103967Y7108D02*
X104689Y7829D01*
X106132D01*
X106853Y7108D01*
Y6386D01*
X106132Y5665D01*
X104689D01*
X103967Y4943D01*
Y4222D01*
X104689Y3500D01*
X106132D01*
X106853Y4222D01*
X99638Y7829D02*
X102524D01*
Y3500D01*
X99638D01*
X102524Y5665D02*
X101081D01*
X98195Y3500D02*
Y7829D01*
X95309Y3500D01*
Y7829D01*
X90979Y7108D02*
X91701Y7829D01*
X93144D01*
X93866Y7108D01*
Y6386D01*
X93144Y5665D01*
X91701D01*
X90979Y4943D01*
Y4222D01*
X91701Y3500D01*
X93144D01*
X93866Y4222D01*
X89536Y7829D02*
X88093D01*
X88815D01*
Y3500D01*
X89536D01*
X88093D01*
X85928Y7829D02*
X83042D01*
X84485D01*
Y3500D01*
X81599Y7829D02*
X80156D01*
X80878D01*
Y3500D01*
X81599D01*
X80156D01*
X77991Y7829D02*
Y4943D01*
X76548Y3500D01*
X75105Y4943D01*
Y7829D01*
X70776D02*
X73662D01*
Y3500D01*
X70776D01*
X73662Y5665D02*
X72219D01*
X61500Y7829D02*
Y3500D01*
X59335D01*
X58614Y4222D01*
Y7108D01*
X59335Y7829D01*
X61500D01*
X57171Y3500D02*
Y6386D01*
X55728Y7829D01*
X54285Y6386D01*
Y3500D01*
Y5665D01*
X57171D01*
X52841Y3500D02*
Y7829D01*
X50677D01*
X49955Y7108D01*
Y5665D01*
X50677Y4943D01*
X52841D01*
X51398D02*
X49955Y3500D01*
X48512Y7829D02*
Y3500D01*
Y4943D01*
X45626Y7829D01*
X47791Y5665D01*
X45626Y3500D01*
X36967Y7108D02*
X37689Y7829D01*
X39132D01*
X39853Y7108D01*
Y6386D01*
X39132Y5665D01*
X37689D01*
X36967Y4943D01*
Y4222D01*
X37689Y3500D01*
X39132D01*
X39853Y4222D01*
X32638Y7829D02*
X35524D01*
Y3500D01*
X32638D01*
X35524Y5665D02*
X34081D01*
X31195Y3500D02*
Y7829D01*
X28309Y3500D01*
Y7829D01*
X23979Y7108D02*
X24701Y7829D01*
X26144D01*
X26866Y7108D01*
Y6386D01*
X26144Y5665D01*
X24701D01*
X23979Y4943D01*
Y4222D01*
X24701Y3500D01*
X26144D01*
X26866Y4222D01*
X22536Y7829D02*
X21093D01*
X21815D01*
Y3500D01*
X22536D01*
X21093D01*
X18928Y7829D02*
X16042D01*
X17485D01*
Y3500D01*
X14599Y7829D02*
X13156D01*
X13878D01*
Y3500D01*
X14599D01*
X13156D01*
X10991Y7829D02*
Y4943D01*
X9548Y3500D01*
X8105Y4943D01*
Y7829D01*
X3776D02*
X6662D01*
Y3500D01*
X3776D01*
X6662Y5665D02*
X5219D01*
D42*
X322000Y335500D02*
Y339173D01*
X320163Y341010D01*
X318327Y339173D01*
Y335500D01*
Y338255D01*
X322000D01*
X316490Y335500D02*
Y336418D01*
X315572D01*
Y335500D01*
X316490D01*
X311898Y341010D02*
X310062D01*
X310980D01*
Y335500D01*
X311898D01*
X310062D01*
X307307D02*
Y336418D01*
X306388D01*
Y335500D01*
X307307D01*
X297205D02*
Y341010D01*
X294450D01*
X293531Y340092D01*
Y338255D01*
X294450Y337337D01*
X297205D01*
X288021Y340092D02*
X288940Y341010D01*
X290776D01*
X291695Y340092D01*
Y336418D01*
X290776Y335500D01*
X288940D01*
X288021Y336418D01*
X286185Y341010D02*
Y335500D01*
X283430D01*
X282511Y336418D01*
Y337337D01*
X283430Y338255D01*
X286185D01*
X283430D01*
X282511Y339173D01*
Y340092D01*
X283430Y341010D01*
X286185D01*
X322500Y266000D02*
Y269673D01*
X320663Y271510D01*
X318827Y269673D01*
Y266000D01*
Y268755D01*
X322500D01*
X316990Y266000D02*
Y266918D01*
X316072D01*
Y266000D01*
X316990D01*
X312398Y271510D02*
X310562D01*
X311480D01*
Y266000D01*
X312398D01*
X310562D01*
X307807D02*
Y266918D01*
X306888D01*
Y266000D01*
X307807D01*
X297705D02*
Y271510D01*
X294950D01*
X294032Y270592D01*
Y268755D01*
X294950Y267837D01*
X297705D01*
X288522Y270592D02*
X289440Y271510D01*
X291277D01*
X292195Y270592D01*
Y266918D01*
X291277Y266000D01*
X289440D01*
X288522Y266918D01*
X286685Y271510D02*
Y266000D01*
X283930D01*
X283012Y266918D01*
Y267837D01*
X283930Y268755D01*
X286685D01*
X283930D01*
X283012Y269673D01*
Y270592D01*
X283930Y271510D01*
X286685D01*
X234000Y335000D02*
Y338673D01*
X232163Y340510D01*
X230327Y338673D01*
Y335000D01*
Y337755D01*
X234000D01*
X228490Y335000D02*
Y335918D01*
X227572D01*
Y335000D01*
X228490D01*
X223898Y340510D02*
X222062D01*
X222980D01*
Y335000D01*
X223898D01*
X222062D01*
X219307D02*
Y335918D01*
X218388D01*
Y335000D01*
X219307D01*
X209205D02*
Y340510D01*
X206450D01*
X205532Y339592D01*
Y337755D01*
X206450Y336837D01*
X209205D01*
X200022Y339592D02*
X200940Y340510D01*
X202777D01*
X203695Y339592D01*
Y335918D01*
X202777Y335000D01*
X200940D01*
X200022Y335918D01*
X198185Y340510D02*
Y335000D01*
X195430D01*
X194511Y335918D01*
Y336837D01*
X195430Y337755D01*
X198185D01*
X195430D01*
X194511Y338673D01*
Y339592D01*
X195430Y340510D01*
X198185D01*
X234500Y265500D02*
Y269173D01*
X232663Y271010D01*
X230827Y269173D01*
Y265500D01*
Y268255D01*
X234500D01*
X228990Y265500D02*
Y266418D01*
X228072D01*
Y265500D01*
X228990D01*
X224398Y271010D02*
X222562D01*
X223480D01*
Y265500D01*
X224398D01*
X222562D01*
X219807D02*
Y266418D01*
X218888D01*
Y265500D01*
X219807D01*
X209705D02*
Y271010D01*
X206950D01*
X206031Y270092D01*
Y268255D01*
X206950Y267337D01*
X209705D01*
X200521Y270092D02*
X201440Y271010D01*
X203276D01*
X204195Y270092D01*
Y266418D01*
X203276Y265500D01*
X201440D01*
X200521Y266418D01*
X198685Y271010D02*
Y265500D01*
X195930D01*
X195011Y266418D01*
Y267337D01*
X195930Y268255D01*
X198685D01*
X195930D01*
X195011Y269173D01*
Y270092D01*
X195930Y271010D01*
X198685D01*
X147500Y335000D02*
Y338673D01*
X145663Y340510D01*
X143827Y338673D01*
Y335000D01*
Y337755D01*
X147500D01*
X141990Y335000D02*
Y335918D01*
X141072D01*
Y335000D01*
X141990D01*
X137398Y340510D02*
X135562D01*
X136480D01*
Y335000D01*
X137398D01*
X135562D01*
X132807D02*
Y335918D01*
X131888D01*
Y335000D01*
X132807D01*
X122705D02*
Y340510D01*
X119950D01*
X119032Y339592D01*
Y337755D01*
X119950Y336837D01*
X122705D01*
X113522Y339592D02*
X114440Y340510D01*
X116277D01*
X117195Y339592D01*
Y335918D01*
X116277Y335000D01*
X114440D01*
X113522Y335918D01*
X111685Y340510D02*
Y335000D01*
X108930D01*
X108011Y335918D01*
Y336837D01*
X108930Y337755D01*
X111685D01*
X108930D01*
X108011Y338673D01*
Y339592D01*
X108930Y340510D01*
X111685D01*
X148000Y265500D02*
Y269173D01*
X146163Y271010D01*
X144327Y269173D01*
Y265500D01*
Y268255D01*
X148000D01*
X142490Y265500D02*
Y266418D01*
X141572D01*
Y265500D01*
X142490D01*
X137898Y271010D02*
X136062D01*
X136980D01*
Y265500D01*
X137898D01*
X136062D01*
X133307D02*
Y266418D01*
X132388D01*
Y265500D01*
X133307D01*
X123205D02*
Y271010D01*
X120450D01*
X119532Y270092D01*
Y268255D01*
X120450Y267337D01*
X123205D01*
X114022Y270092D02*
X114940Y271010D01*
X116777D01*
X117695Y270092D01*
Y266418D01*
X116777Y265500D01*
X114940D01*
X114022Y266418D01*
X112185Y271010D02*
Y265500D01*
X109430D01*
X108511Y266418D01*
Y267337D01*
X109430Y268255D01*
X112185D01*
X109430D01*
X108511Y269173D01*
Y270092D01*
X109430Y271010D01*
X112185D01*
X61000Y335000D02*
Y338673D01*
X59163Y340510D01*
X57327Y338673D01*
Y335000D01*
Y337755D01*
X61000D01*
X55490Y335000D02*
Y335918D01*
X54572D01*
Y335000D01*
X55490D01*
X50898Y340510D02*
X49062D01*
X49980D01*
Y335000D01*
X50898D01*
X49062D01*
X46307D02*
Y335918D01*
X45388D01*
Y335000D01*
X46307D01*
X36205D02*
Y340510D01*
X33450D01*
X32531Y339592D01*
Y337755D01*
X33450Y336837D01*
X36205D01*
X27022Y339592D02*
X27940Y340510D01*
X29776D01*
X30695Y339592D01*
Y335918D01*
X29776Y335000D01*
X27940D01*
X27022Y335918D01*
X25185Y340510D02*
Y335000D01*
X22430D01*
X21511Y335918D01*
Y336837D01*
X22430Y337755D01*
X25185D01*
X22430D01*
X21511Y338673D01*
Y339592D01*
X22430Y340510D01*
X25185D01*
X61500Y265500D02*
Y269173D01*
X59663Y271010D01*
X57827Y269173D01*
Y265500D01*
Y268255D01*
X61500D01*
X55990Y265500D02*
Y266418D01*
X55072D01*
Y265500D01*
X55990D01*
X51398Y271010D02*
X49562D01*
X50480D01*
Y265500D01*
X51398D01*
X49562D01*
X46807D02*
Y266418D01*
X45888D01*
Y265500D01*
X46807D01*
X36705D02*
Y271010D01*
X33950D01*
X33031Y270092D01*
Y268255D01*
X33950Y267337D01*
X36705D01*
X27521Y270092D02*
X28440Y271010D01*
X30277D01*
X31195Y270092D01*
Y266418D01*
X30277Y265500D01*
X28440D01*
X27521Y266418D01*
X25685Y271010D02*
Y265500D01*
X22930D01*
X22012Y266418D01*
Y267337D01*
X22930Y268255D01*
X25685D01*
X22930D01*
X22012Y269173D01*
Y270092D01*
X22930Y271010D01*
X25685D01*
X61000Y232000D02*
X57327D01*
X55490Y230163D01*
X57327Y228327D01*
X61000D01*
X58245D01*
Y232000D01*
X61000Y226490D02*
X60082D01*
Y225572D01*
X61000D01*
Y226490D01*
X55490Y221898D02*
Y220062D01*
Y220980D01*
X61000D01*
Y221898D01*
Y220062D01*
Y217307D02*
X60082D01*
Y216388D01*
X61000D01*
Y217307D01*
Y207205D02*
X55490D01*
Y204450D01*
X56408Y203532D01*
X58245D01*
X59163Y204450D01*
Y207205D01*
X56408Y198021D02*
X55490Y198940D01*
Y200777D01*
X56408Y201695D01*
X60082D01*
X61000Y200777D01*
Y198940D01*
X60082Y198021D01*
X55490Y196185D02*
X61000D01*
Y193430D01*
X60082Y192511D01*
X59163D01*
X58245Y193430D01*
Y196185D01*
Y193430D01*
X57327Y192511D01*
X56408D01*
X55490Y193430D01*
Y196185D01*
X128000Y232000D02*
X124327D01*
X122490Y230163D01*
X124327Y228327D01*
X128000D01*
X125245D01*
Y232000D01*
X128000Y226490D02*
X127082D01*
Y225572D01*
X128000D01*
Y226490D01*
X122490Y221898D02*
Y220062D01*
Y220980D01*
X128000D01*
Y221898D01*
Y220062D01*
Y217307D02*
X127082D01*
Y216388D01*
X128000D01*
Y217307D01*
Y207205D02*
X122490D01*
Y204450D01*
X123408Y203532D01*
X125245D01*
X126163Y204450D01*
Y207205D01*
X123408Y198021D02*
X122490Y198940D01*
Y200777D01*
X123408Y201695D01*
X127082D01*
X128000Y200777D01*
Y198940D01*
X127082Y198021D01*
X122490Y196185D02*
X128000D01*
Y193430D01*
X127082Y192511D01*
X126163D01*
X125245Y193430D01*
Y196185D01*
Y193430D01*
X124327Y192511D01*
X123408D01*
X122490Y193430D01*
Y196185D01*
X194500Y232000D02*
X190827D01*
X188990Y230163D01*
X190827Y228327D01*
X194500D01*
X191745D01*
Y232000D01*
X194500Y226490D02*
X193582D01*
Y225572D01*
X194500D01*
Y226490D01*
X188990Y221898D02*
Y220062D01*
Y220980D01*
X194500D01*
Y221898D01*
Y220062D01*
Y217307D02*
X193582D01*
Y216388D01*
X194500D01*
Y217307D01*
Y207205D02*
X188990D01*
Y204450D01*
X189908Y203532D01*
X191745D01*
X192663Y204450D01*
Y207205D01*
X189908Y198021D02*
X188990Y198940D01*
Y200777D01*
X189908Y201695D01*
X193582D01*
X194500Y200777D01*
Y198940D01*
X193582Y198021D01*
X188990Y196185D02*
X194500D01*
Y193430D01*
X193582Y192511D01*
X192663D01*
X191745Y193430D01*
Y196185D01*
Y193430D01*
X190827Y192511D01*
X189908D01*
X188990Y193430D01*
Y196185D01*
X261000Y232000D02*
X257327D01*
X255490Y230163D01*
X257327Y228327D01*
X261000D01*
X258245D01*
Y232000D01*
X261000Y226490D02*
X260082D01*
Y225572D01*
X261000D01*
Y226490D01*
X255490Y221898D02*
Y220062D01*
Y220980D01*
X261000D01*
Y221898D01*
Y220062D01*
Y217307D02*
X260082D01*
Y216388D01*
X261000D01*
Y217307D01*
Y207205D02*
X255490D01*
Y204450D01*
X256408Y203532D01*
X258245D01*
X259163Y204450D01*
Y207205D01*
X256408Y198021D02*
X255490Y198940D01*
Y200777D01*
X256408Y201695D01*
X260082D01*
X261000Y200777D01*
Y198940D01*
X260082Y198021D01*
X255490Y196185D02*
X261000D01*
Y193430D01*
X260082Y192511D01*
X259163D01*
X258245Y193430D01*
Y196185D01*
Y193430D01*
X257327Y192511D01*
X256408D01*
X255490Y193430D01*
Y196185D01*
X397500Y232000D02*
X393827D01*
X391990Y230163D01*
X393827Y228327D01*
X397500D01*
X394745D01*
Y232000D01*
X397500Y226490D02*
X396582D01*
Y225572D01*
X397500D01*
Y226490D01*
X391990Y221898D02*
Y220062D01*
Y220980D01*
X397500D01*
Y221898D01*
Y220062D01*
Y217307D02*
X396582D01*
Y216388D01*
X397500D01*
Y217307D01*
Y207205D02*
X391990D01*
Y204450D01*
X392908Y203532D01*
X394745D01*
X395663Y204450D01*
Y207205D01*
X392908Y198021D02*
X391990Y198940D01*
Y200777D01*
X392908Y201695D01*
X396582D01*
X397500Y200777D01*
Y198940D01*
X396582Y198021D01*
X391990Y196185D02*
X397500D01*
Y193430D01*
X396582Y192511D01*
X395663D01*
X394745Y193430D01*
Y196185D01*
Y193430D01*
X393827Y192511D01*
X392908D01*
X391990Y193430D01*
Y196185D01*
X329500Y232000D02*
X325827D01*
X323990Y230163D01*
X325827Y228327D01*
X329500D01*
X326745D01*
Y232000D01*
X329500Y226490D02*
X328582D01*
Y225572D01*
X329500D01*
Y226490D01*
X323990Y221898D02*
Y220062D01*
Y220980D01*
X329500D01*
Y221898D01*
Y220062D01*
Y217307D02*
X328582D01*
Y216388D01*
X329500D01*
Y217307D01*
Y207205D02*
X323990D01*
Y204450D01*
X324908Y203532D01*
X326745D01*
X327663Y204450D01*
Y207205D01*
X324908Y198021D02*
X323990Y198940D01*
Y200777D01*
X324908Y201695D01*
X328582D01*
X329500Y200777D01*
Y198940D01*
X328582Y198021D01*
X323990Y196185D02*
X329500D01*
Y193430D01*
X328582Y192511D01*
X327663D01*
X326745Y193430D01*
Y196185D01*
Y193430D01*
X325827Y192511D01*
X324908D01*
X323990Y193430D01*
Y196185D01*
X61000Y144500D02*
X57327D01*
X55490Y142663D01*
X57327Y140827D01*
X61000D01*
X58245D01*
Y144500D01*
X61000Y138990D02*
X60082D01*
Y138072D01*
X61000D01*
Y138990D01*
X55490Y134398D02*
Y132562D01*
Y133480D01*
X61000D01*
Y134398D01*
Y132562D01*
Y129807D02*
X60082D01*
Y128888D01*
X61000D01*
Y129807D01*
Y119705D02*
X55490D01*
Y116950D01*
X56408Y116032D01*
X58245D01*
X59163Y116950D01*
Y119705D01*
X56408Y110521D02*
X55490Y111440D01*
Y113277D01*
X56408Y114195D01*
X60082D01*
X61000Y113277D01*
Y111440D01*
X60082Y110521D01*
X55490Y108685D02*
X61000D01*
Y105930D01*
X60082Y105011D01*
X59163D01*
X58245Y105930D01*
Y108685D01*
Y105930D01*
X57327Y105011D01*
X56408D01*
X55490Y105930D01*
Y108685D01*
X128000Y144500D02*
X124327D01*
X122490Y142663D01*
X124327Y140827D01*
X128000D01*
X125245D01*
Y144500D01*
X128000Y138990D02*
X127082D01*
Y138072D01*
X128000D01*
Y138990D01*
X122490Y134398D02*
Y132562D01*
Y133480D01*
X128000D01*
Y134398D01*
Y132562D01*
Y129807D02*
X127082D01*
Y128888D01*
X128000D01*
Y129807D01*
Y119705D02*
X122490D01*
Y116950D01*
X123408Y116032D01*
X125245D01*
X126163Y116950D01*
Y119705D01*
X123408Y110521D02*
X122490Y111440D01*
Y113277D01*
X123408Y114195D01*
X127082D01*
X128000Y113277D01*
Y111440D01*
X127082Y110521D01*
X122490Y108685D02*
X128000D01*
Y105930D01*
X127082Y105011D01*
X126163D01*
X125245Y105930D01*
Y108685D01*
Y105930D01*
X124327Y105011D01*
X123408D01*
X122490Y105930D01*
Y108685D01*
X194500Y144500D02*
X190827D01*
X188990Y142663D01*
X190827Y140827D01*
X194500D01*
X191745D01*
Y144500D01*
X194500Y138990D02*
X193582D01*
Y138072D01*
X194500D01*
Y138990D01*
X188990Y134398D02*
Y132562D01*
Y133480D01*
X194500D01*
Y134398D01*
Y132562D01*
Y129807D02*
X193582D01*
Y128888D01*
X194500D01*
Y129807D01*
Y119705D02*
X188990D01*
Y116950D01*
X189908Y116032D01*
X191745D01*
X192663Y116950D01*
Y119705D01*
X189908Y110521D02*
X188990Y111440D01*
Y113277D01*
X189908Y114195D01*
X193582D01*
X194500Y113277D01*
Y111440D01*
X193582Y110521D01*
X188990Y108685D02*
X194500D01*
Y105930D01*
X193582Y105011D01*
X192663D01*
X191745Y105930D01*
Y108685D01*
Y105930D01*
X190827Y105011D01*
X189908D01*
X188990Y105930D01*
Y108685D01*
X261000Y144500D02*
X257327D01*
X255490Y142663D01*
X257327Y140827D01*
X261000D01*
X258245D01*
Y144500D01*
X261000Y138990D02*
X260082D01*
Y138072D01*
X261000D01*
Y138990D01*
X255490Y134398D02*
Y132562D01*
Y133480D01*
X261000D01*
Y134398D01*
Y132562D01*
Y129807D02*
X260082D01*
Y128888D01*
X261000D01*
Y129807D01*
Y119705D02*
X255490D01*
Y116950D01*
X256408Y116032D01*
X258245D01*
X259163Y116950D01*
Y119705D01*
X256408Y110521D02*
X255490Y111440D01*
Y113277D01*
X256408Y114195D01*
X260082D01*
X261000Y113277D01*
Y111440D01*
X260082Y110521D01*
X255490Y108685D02*
X261000D01*
Y105930D01*
X260082Y105011D01*
X259163D01*
X258245Y105930D01*
Y108685D01*
Y105930D01*
X257327Y105011D01*
X256408D01*
X255490Y105930D01*
Y108685D01*
X397500Y144500D02*
X393827D01*
X391990Y142663D01*
X393827Y140827D01*
X397500D01*
X394745D01*
Y144500D01*
X397500Y138990D02*
X396582D01*
Y138072D01*
X397500D01*
Y138990D01*
X391990Y134398D02*
Y132562D01*
Y133480D01*
X397500D01*
Y134398D01*
Y132562D01*
Y129807D02*
X396582D01*
Y128888D01*
X397500D01*
Y129807D01*
Y119705D02*
X391990D01*
Y116950D01*
X392908Y116032D01*
X394745D01*
X395663Y116950D01*
Y119705D01*
X392908Y110521D02*
X391990Y111440D01*
Y113277D01*
X392908Y114195D01*
X396582D01*
X397500Y113277D01*
Y111440D01*
X396582Y110521D01*
X391990Y108685D02*
X397500D01*
Y105930D01*
X396582Y105011D01*
X395663D01*
X394745Y105930D01*
Y108685D01*
Y105930D01*
X393827Y105011D01*
X392908D01*
X391990Y105930D01*
Y108685D01*
X329500Y144500D02*
X325827D01*
X323990Y142663D01*
X325827Y140827D01*
X329500D01*
X326745D01*
Y144500D01*
X329500Y138990D02*
X328582D01*
Y138072D01*
X329500D01*
Y138990D01*
X323990Y134398D02*
Y132562D01*
Y133480D01*
X329500D01*
Y134398D01*
Y132562D01*
Y129807D02*
X328582D01*
Y128888D01*
X329500D01*
Y129807D01*
Y119705D02*
X323990D01*
Y116950D01*
X324908Y116032D01*
X326745D01*
X327663Y116950D01*
Y119705D01*
X324908Y110521D02*
X323990Y111440D01*
Y113277D01*
X324908Y114195D01*
X328582D01*
X329500Y113277D01*
Y111440D01*
X328582Y110521D01*
X323990Y108685D02*
X329500D01*
Y105930D01*
X328582Y105011D01*
X327663D01*
X326745Y105930D01*
Y108685D01*
Y105930D01*
X325827Y105011D01*
X324908D01*
X323990Y105930D01*
Y108685D01*
X329500Y59000D02*
X325827D01*
X323990Y57163D01*
X325827Y55327D01*
X329500D01*
X326745D01*
Y59000D01*
X329500Y53490D02*
X328582D01*
Y52572D01*
X329500D01*
Y53490D01*
X323990Y48898D02*
Y47062D01*
Y47980D01*
X329500D01*
Y48898D01*
Y47062D01*
Y44307D02*
X328582D01*
Y43388D01*
X329500D01*
Y44307D01*
Y34205D02*
X323990D01*
Y31450D01*
X324908Y30531D01*
X326745D01*
X327663Y31450D01*
Y34205D01*
X324908Y25021D02*
X323990Y25940D01*
Y27777D01*
X324908Y28695D01*
X328582D01*
X329500Y27777D01*
Y25940D01*
X328582Y25021D01*
X323990Y23185D02*
X329500D01*
Y20430D01*
X328582Y19512D01*
X327663D01*
X326745Y20430D01*
Y23185D01*
Y20430D01*
X325827Y19512D01*
X324908D01*
X323990Y20430D01*
Y23185D01*
X397500Y59000D02*
X393827D01*
X391990Y57163D01*
X393827Y55327D01*
X397500D01*
X394745D01*
Y59000D01*
X397500Y53490D02*
X396582D01*
Y52572D01*
X397500D01*
Y53490D01*
X391990Y48898D02*
Y47062D01*
Y47980D01*
X397500D01*
Y48898D01*
Y47062D01*
Y44307D02*
X396582D01*
Y43388D01*
X397500D01*
Y44307D01*
Y34205D02*
X391990D01*
Y31450D01*
X392908Y30531D01*
X394745D01*
X395663Y31450D01*
Y34205D01*
X392908Y25021D02*
X391990Y25940D01*
Y27777D01*
X392908Y28695D01*
X396582D01*
X397500Y27777D01*
Y25940D01*
X396582Y25021D01*
X391990Y23185D02*
X397500D01*
Y20430D01*
X396582Y19512D01*
X395663D01*
X394745Y20430D01*
Y23185D01*
Y20430D01*
X393827Y19512D01*
X392908D01*
X391990Y20430D01*
Y23185D01*
X261000Y59000D02*
X257327D01*
X255490Y57163D01*
X257327Y55327D01*
X261000D01*
X258245D01*
Y59000D01*
X261000Y53490D02*
X260082D01*
Y52572D01*
X261000D01*
Y53490D01*
X255490Y48898D02*
Y47062D01*
Y47980D01*
X261000D01*
Y48898D01*
Y47062D01*
Y44307D02*
X260082D01*
Y43388D01*
X261000D01*
Y44307D01*
Y34205D02*
X255490D01*
Y31450D01*
X256408Y30531D01*
X258245D01*
X259163Y31450D01*
Y34205D01*
X256408Y25021D02*
X255490Y25940D01*
Y27777D01*
X256408Y28695D01*
X260082D01*
X261000Y27777D01*
Y25940D01*
X260082Y25021D01*
X255490Y23185D02*
X261000D01*
Y20430D01*
X260082Y19512D01*
X259163D01*
X258245Y20430D01*
Y23185D01*
Y20430D01*
X257327Y19512D01*
X256408D01*
X255490Y20430D01*
Y23185D01*
X194500Y59000D02*
X190827D01*
X188990Y57163D01*
X190827Y55327D01*
X194500D01*
X191745D01*
Y59000D01*
X194500Y53490D02*
X193582D01*
Y52572D01*
X194500D01*
Y53490D01*
X188990Y48898D02*
Y47062D01*
Y47980D01*
X194500D01*
Y48898D01*
Y47062D01*
Y44307D02*
X193582D01*
Y43388D01*
X194500D01*
Y44307D01*
Y34205D02*
X188990D01*
Y31450D01*
X189908Y30531D01*
X191745D01*
X192663Y31450D01*
Y34205D01*
X189908Y25021D02*
X188990Y25940D01*
Y27777D01*
X189908Y28695D01*
X193582D01*
X194500Y27777D01*
Y25940D01*
X193582Y25021D01*
X188990Y23185D02*
X194500D01*
Y20430D01*
X193582Y19512D01*
X192663D01*
X191745Y20430D01*
Y23185D01*
Y20430D01*
X190827Y19512D01*
X189908D01*
X188990Y20430D01*
Y23185D01*
X128000Y59000D02*
X124327D01*
X122490Y57163D01*
X124327Y55327D01*
X128000D01*
X125245D01*
Y59000D01*
X128000Y53490D02*
X127082D01*
Y52572D01*
X128000D01*
Y53490D01*
X122490Y48898D02*
Y47062D01*
Y47980D01*
X128000D01*
Y48898D01*
Y47062D01*
Y44307D02*
X127082D01*
Y43388D01*
X128000D01*
Y44307D01*
Y34205D02*
X122490D01*
Y31450D01*
X123408Y30531D01*
X125245D01*
X126163Y31450D01*
Y34205D01*
X123408Y25021D02*
X122490Y25940D01*
Y27777D01*
X123408Y28695D01*
X127082D01*
X128000Y27777D01*
Y25940D01*
X127082Y25021D01*
X122490Y23185D02*
X128000D01*
Y20430D01*
X127082Y19512D01*
X126163D01*
X125245Y20430D01*
Y23185D01*
Y20430D01*
X124327Y19512D01*
X123408D01*
X122490Y20430D01*
Y23185D01*
X61000Y59000D02*
X57327D01*
X55490Y57163D01*
X57327Y55327D01*
X61000D01*
X58245D01*
Y59000D01*
X61000Y53490D02*
X60082D01*
Y52572D01*
X61000D01*
Y53490D01*
X55490Y48898D02*
Y47062D01*
Y47980D01*
X61000D01*
Y48898D01*
Y47062D01*
Y44307D02*
X60082D01*
Y43388D01*
X61000D01*
Y44307D01*
Y34205D02*
X55490D01*
Y31450D01*
X56408Y30531D01*
X58245D01*
X59163Y31450D01*
Y34205D01*
X56408Y25021D02*
X55490Y25940D01*
Y27777D01*
X56408Y28695D01*
X60082D01*
X61000Y27777D01*
Y25940D01*
X60082Y25021D01*
X55490Y23185D02*
X61000D01*
Y20430D01*
X60082Y19512D01*
X59163D01*
X58245Y20430D01*
Y23185D01*
Y20430D01*
X57327Y19512D01*
X56408D01*
X55490Y20430D01*
Y23185D01*
M02*
