G04 Layer_Physical_Order=1*
G04 Layer_Color=255*
%FSLAX25Y25*%
%MOIN*%
G70*
G01*
G75*
%ADD10C,0.02000*%
%ADD11R,0.02756X0.61024*%
%ADD12R,0.02756X0.78740*%
%ADD13R,3.34646X0.02756*%
%ADD14R,3.93701X0.02756*%
%ADD15C,0.05905*%
%ADD16R,0.05937X0.05937*%
%ADD17C,0.05937*%
%ADD18R,0.05905X0.05905*%
%ADD19R,0.07087X0.07087*%
%ADD20C,0.07480*%
%ADD21R,0.05937X0.05937*%
%ADD22R,0.05905X0.05905*%
%ADD23R,0.07087X0.07087*%
G36*
X279171Y354512D02*
X280605Y352948D01*
X280512Y350829D01*
X278948Y349395D01*
X276829Y349488D01*
X275395Y351052D01*
X275488Y353171D01*
X277052Y354605D01*
X279171Y354512D01*
D02*
G37*
G36*
X191171Y354012D02*
X192604Y352448D01*
X192512Y350329D01*
X190948Y348896D01*
X188829Y348988D01*
X187396Y350552D01*
X187488Y352671D01*
X189052Y354104D01*
X191171Y354012D01*
D02*
G37*
G36*
X104671D02*
X106105Y352448D01*
X106012Y350329D01*
X104448Y348896D01*
X102329Y348988D01*
X100896Y350552D01*
X100988Y352671D01*
X102552Y354104D01*
X104671Y354012D01*
D02*
G37*
G36*
X18171D02*
X19604Y352448D01*
X19512Y350329D01*
X17948Y348896D01*
X15829Y348988D01*
X14396Y350552D01*
X14488Y352671D01*
X16052Y354104D01*
X18171Y354012D01*
D02*
G37*
G36*
X286671Y349512D02*
X288105Y347948D01*
X288012Y345829D01*
X286448Y344395D01*
X284329Y344488D01*
X282895Y346052D01*
X282988Y348171D01*
X284552Y349605D01*
X286671Y349512D01*
D02*
G37*
G36*
X198671Y349012D02*
X200104Y347448D01*
X200012Y345329D01*
X198448Y343896D01*
X196329Y343988D01*
X194896Y345552D01*
X194988Y347671D01*
X196552Y349104D01*
X198671Y349012D01*
D02*
G37*
G36*
X112171D02*
X113604Y347448D01*
X113512Y345329D01*
X111948Y343896D01*
X109829Y343988D01*
X108396Y345552D01*
X108488Y347671D01*
X110052Y349104D01*
X112171Y349012D01*
D02*
G37*
G36*
X25671D02*
X27104Y347448D01*
X27012Y345329D01*
X25448Y343896D01*
X23329Y343988D01*
X21895Y345552D01*
X21988Y347671D01*
X23552Y349104D01*
X25671Y349012D01*
D02*
G37*
G36*
X279171Y344512D02*
X280605Y342948D01*
X280512Y340829D01*
X278948Y339395D01*
X276829Y339488D01*
X275395Y341052D01*
X275488Y343171D01*
X277052Y344604D01*
X279171Y344512D01*
D02*
G37*
G36*
X191171Y344012D02*
X192604Y342448D01*
X192512Y340329D01*
X190948Y338896D01*
X188829Y338988D01*
X187396Y340552D01*
X187488Y342671D01*
X189052Y344105D01*
X191171Y344012D01*
D02*
G37*
G36*
X104671D02*
X106105Y342448D01*
X106012Y340329D01*
X104448Y338896D01*
X102329Y338988D01*
X100896Y340552D01*
X100988Y342671D01*
X102552Y344105D01*
X104671Y344012D01*
D02*
G37*
G36*
X18171D02*
X19604Y342448D01*
X19512Y340329D01*
X17948Y338896D01*
X15829Y338988D01*
X14396Y340552D01*
X14488Y342671D01*
X16052Y344105D01*
X18171Y344012D01*
D02*
G37*
G36*
X279671Y285012D02*
X281104Y283448D01*
X281012Y281329D01*
X279448Y279895D01*
X277329Y279988D01*
X275896Y281552D01*
X275988Y283671D01*
X277552Y285104D01*
X279671Y285012D01*
D02*
G37*
G36*
X191671Y284512D02*
X193105Y282948D01*
X193012Y280829D01*
X191448Y279396D01*
X189329Y279488D01*
X187896Y281052D01*
X187988Y283171D01*
X189552Y284605D01*
X191671Y284512D01*
D02*
G37*
G36*
X105171D02*
X106605Y282948D01*
X106512Y280829D01*
X104948Y279396D01*
X102829Y279488D01*
X101395Y281052D01*
X101488Y283171D01*
X103052Y284605D01*
X105171Y284512D01*
D02*
G37*
G36*
X18671D02*
X20105Y282948D01*
X20012Y280829D01*
X18448Y279396D01*
X16329Y279488D01*
X14896Y281052D01*
X14988Y283171D01*
X16552Y284605D01*
X18671Y284512D01*
D02*
G37*
G36*
X287171Y280012D02*
X288604Y278448D01*
X288512Y276329D01*
X286948Y274896D01*
X284829Y274988D01*
X283396Y276552D01*
X283488Y278671D01*
X285052Y280104D01*
X287171Y280012D01*
D02*
G37*
G36*
X199171Y279512D02*
X200605Y277948D01*
X200512Y275829D01*
X198948Y274395D01*
X196829Y274488D01*
X195396Y276052D01*
X195488Y278171D01*
X197052Y279605D01*
X199171Y279512D01*
D02*
G37*
G36*
X112671D02*
X114104Y277948D01*
X114012Y275829D01*
X112448Y274395D01*
X110329Y274488D01*
X108896Y276052D01*
X108988Y278171D01*
X110552Y279605D01*
X112671Y279512D01*
D02*
G37*
G36*
X26171D02*
X27604Y277948D01*
X27512Y275829D01*
X25948Y274395D01*
X23829Y274488D01*
X22396Y276052D01*
X22488Y278171D01*
X24052Y279605D01*
X26171Y279512D01*
D02*
G37*
G36*
X279671Y275012D02*
X281104Y273448D01*
X281012Y271329D01*
X279448Y269896D01*
X277329Y269988D01*
X275896Y271552D01*
X275988Y273671D01*
X277552Y275104D01*
X279671Y275012D01*
D02*
G37*
G36*
X191671Y274512D02*
X193105Y272948D01*
X193012Y270829D01*
X191448Y269395D01*
X189329Y269488D01*
X187896Y271052D01*
X187988Y273171D01*
X189552Y274605D01*
X191671Y274512D01*
D02*
G37*
G36*
X105171D02*
X106605Y272948D01*
X106512Y270829D01*
X104948Y269395D01*
X102829Y269488D01*
X101395Y271052D01*
X101488Y273171D01*
X103052Y274605D01*
X105171Y274512D01*
D02*
G37*
G36*
X18671D02*
X20105Y272948D01*
X20012Y270829D01*
X18448Y269395D01*
X16329Y269488D01*
X14896Y271052D01*
X14988Y273171D01*
X16552Y274605D01*
X18671Y274512D01*
D02*
G37*
G36*
X387171Y198012D02*
X388604Y196448D01*
X388512Y194329D01*
X386948Y192895D01*
X384829Y192988D01*
X383396Y194552D01*
X383488Y196671D01*
X385052Y198105D01*
X387171Y198012D01*
D02*
G37*
G36*
X319171D02*
X320604Y196448D01*
X320512Y194329D01*
X318948Y192895D01*
X316829Y192988D01*
X315395Y194552D01*
X315488Y196671D01*
X317052Y198105D01*
X319171Y198012D01*
D02*
G37*
G36*
X250671D02*
X252104Y196448D01*
X252012Y194329D01*
X250448Y192895D01*
X248329Y192988D01*
X246896Y194552D01*
X246988Y196671D01*
X248552Y198105D01*
X250671Y198012D01*
D02*
G37*
G36*
X184171D02*
X185605Y196448D01*
X185512Y194329D01*
X183948Y192895D01*
X181829Y192988D01*
X180395Y194552D01*
X180488Y196671D01*
X182052Y198105D01*
X184171Y198012D01*
D02*
G37*
G36*
X117671D02*
X119105Y196448D01*
X119012Y194329D01*
X117448Y192895D01*
X115329Y192988D01*
X113895Y194552D01*
X113988Y196671D01*
X115552Y198105D01*
X117671Y198012D01*
D02*
G37*
G36*
X50671D02*
X52105Y196448D01*
X52012Y194329D01*
X50448Y192895D01*
X48329Y192988D01*
X46896Y194552D01*
X46988Y196671D01*
X48552Y198105D01*
X50671Y198012D01*
D02*
G37*
G36*
X392171Y190512D02*
X393604Y188948D01*
X393512Y186829D01*
X391948Y185396D01*
X389829Y185488D01*
X388396Y187052D01*
X388488Y189171D01*
X390052Y190604D01*
X392171Y190512D01*
D02*
G37*
G36*
X382171D02*
X383605Y188948D01*
X383512Y186829D01*
X381948Y185396D01*
X379829Y185488D01*
X378396Y187052D01*
X378488Y189171D01*
X380052Y190604D01*
X382171Y190512D01*
D02*
G37*
G36*
X324171D02*
X325605Y188948D01*
X325512Y186829D01*
X323948Y185396D01*
X321829Y185488D01*
X320395Y187052D01*
X320488Y189171D01*
X322052Y190604D01*
X324171Y190512D01*
D02*
G37*
G36*
X314171D02*
X315604Y188948D01*
X315512Y186829D01*
X313948Y185396D01*
X311829Y185488D01*
X310396Y187052D01*
X310488Y189171D01*
X312052Y190604D01*
X314171Y190512D01*
D02*
G37*
G36*
X255671D02*
X257104Y188948D01*
X257012Y186829D01*
X255448Y185396D01*
X253329Y185488D01*
X251895Y187052D01*
X251988Y189171D01*
X253552Y190604D01*
X255671Y190512D01*
D02*
G37*
G36*
X245671D02*
X247105Y188948D01*
X247012Y186829D01*
X245448Y185396D01*
X243329Y185488D01*
X241896Y187052D01*
X241988Y189171D01*
X243552Y190604D01*
X245671Y190512D01*
D02*
G37*
G36*
X189171D02*
X190604Y188948D01*
X190512Y186829D01*
X188948Y185396D01*
X186829Y185488D01*
X185396Y187052D01*
X185488Y189171D01*
X187052Y190604D01*
X189171Y190512D01*
D02*
G37*
G36*
X179171D02*
X180605Y188948D01*
X180512Y186829D01*
X178948Y185396D01*
X176829Y185488D01*
X175396Y187052D01*
X175488Y189171D01*
X177052Y190604D01*
X179171Y190512D01*
D02*
G37*
G36*
X122671D02*
X124104Y188948D01*
X124012Y186829D01*
X122448Y185396D01*
X120329Y185488D01*
X118895Y187052D01*
X118988Y189171D01*
X120552Y190604D01*
X122671Y190512D01*
D02*
G37*
G36*
X112671D02*
X114104Y188948D01*
X114012Y186829D01*
X112448Y185396D01*
X110329Y185488D01*
X108896Y187052D01*
X108988Y189171D01*
X110552Y190604D01*
X112671Y190512D01*
D02*
G37*
G36*
X55671D02*
X57104Y188948D01*
X57012Y186829D01*
X55448Y185396D01*
X53329Y185488D01*
X51895Y187052D01*
X51988Y189171D01*
X53552Y190604D01*
X55671Y190512D01*
D02*
G37*
G36*
X45671D02*
X47104Y188948D01*
X47012Y186829D01*
X45448Y185396D01*
X43329Y185488D01*
X41895Y187052D01*
X41988Y189171D01*
X43552Y190604D01*
X45671Y190512D01*
D02*
G37*
G36*
X387171Y110512D02*
X388604Y108948D01*
X388512Y106829D01*
X386948Y105395D01*
X384829Y105488D01*
X383396Y107052D01*
X383488Y109171D01*
X385052Y110605D01*
X387171Y110512D01*
D02*
G37*
G36*
X319171D02*
X320604Y108948D01*
X320512Y106829D01*
X318948Y105395D01*
X316829Y105488D01*
X315395Y107052D01*
X315488Y109171D01*
X317052Y110605D01*
X319171Y110512D01*
D02*
G37*
G36*
X250671D02*
X252104Y108948D01*
X252012Y106829D01*
X250448Y105395D01*
X248329Y105488D01*
X246896Y107052D01*
X246988Y109171D01*
X248552Y110605D01*
X250671Y110512D01*
D02*
G37*
G36*
X184171D02*
X185605Y108948D01*
X185512Y106829D01*
X183948Y105395D01*
X181829Y105488D01*
X180395Y107052D01*
X180488Y109171D01*
X182052Y110605D01*
X184171Y110512D01*
D02*
G37*
G36*
X117671D02*
X119105Y108948D01*
X119012Y106829D01*
X117448Y105395D01*
X115329Y105488D01*
X113895Y107052D01*
X113988Y109171D01*
X115552Y110605D01*
X117671Y110512D01*
D02*
G37*
G36*
X50671D02*
X52105Y108948D01*
X52012Y106829D01*
X50448Y105395D01*
X48329Y105488D01*
X46896Y107052D01*
X46988Y109171D01*
X48552Y110605D01*
X50671Y110512D01*
D02*
G37*
G36*
X392171Y103012D02*
X393604Y101448D01*
X393512Y99329D01*
X391948Y97895D01*
X389829Y97988D01*
X388396Y99552D01*
X388488Y101671D01*
X390052Y103104D01*
X392171Y103012D01*
D02*
G37*
G36*
X382171D02*
X383605Y101448D01*
X383512Y99329D01*
X381948Y97895D01*
X379829Y97988D01*
X378396Y99552D01*
X378488Y101671D01*
X380052Y103104D01*
X382171Y103012D01*
D02*
G37*
G36*
X324171D02*
X325605Y101448D01*
X325512Y99329D01*
X323948Y97895D01*
X321829Y97988D01*
X320395Y99552D01*
X320488Y101671D01*
X322052Y103104D01*
X324171Y103012D01*
D02*
G37*
G36*
X314171D02*
X315604Y101448D01*
X315512Y99329D01*
X313948Y97895D01*
X311829Y97988D01*
X310396Y99552D01*
X310488Y101671D01*
X312052Y103104D01*
X314171Y103012D01*
D02*
G37*
G36*
X255671D02*
X257104Y101448D01*
X257012Y99329D01*
X255448Y97895D01*
X253329Y97988D01*
X251895Y99552D01*
X251988Y101671D01*
X253552Y103104D01*
X255671Y103012D01*
D02*
G37*
G36*
X245671D02*
X247105Y101448D01*
X247012Y99329D01*
X245448Y97895D01*
X243329Y97988D01*
X241896Y99552D01*
X241988Y101671D01*
X243552Y103104D01*
X245671Y103012D01*
D02*
G37*
G36*
X189171D02*
X190604Y101448D01*
X190512Y99329D01*
X188948Y97895D01*
X186829Y97988D01*
X185396Y99552D01*
X185488Y101671D01*
X187052Y103104D01*
X189171Y103012D01*
D02*
G37*
G36*
X179171D02*
X180605Y101448D01*
X180512Y99329D01*
X178948Y97895D01*
X176829Y97988D01*
X175396Y99552D01*
X175488Y101671D01*
X177052Y103104D01*
X179171Y103012D01*
D02*
G37*
G36*
X122671D02*
X124104Y101448D01*
X124012Y99329D01*
X122448Y97895D01*
X120329Y97988D01*
X118895Y99552D01*
X118988Y101671D01*
X120552Y103104D01*
X122671Y103012D01*
D02*
G37*
G36*
X112671D02*
X114104Y101448D01*
X114012Y99329D01*
X112448Y97895D01*
X110329Y97988D01*
X108896Y99552D01*
X108988Y101671D01*
X110552Y103104D01*
X112671Y103012D01*
D02*
G37*
G36*
X55671D02*
X57104Y101448D01*
X57012Y99329D01*
X55448Y97895D01*
X53329Y97988D01*
X51895Y99552D01*
X51988Y101671D01*
X53552Y103104D01*
X55671Y103012D01*
D02*
G37*
G36*
X45671D02*
X47104Y101448D01*
X47012Y99329D01*
X45448Y97895D01*
X43329Y97988D01*
X41895Y99552D01*
X41988Y101671D01*
X43552Y103104D01*
X45671Y103012D01*
D02*
G37*
G36*
X387171Y25012D02*
X388604Y23448D01*
X388512Y21329D01*
X386948Y19895D01*
X384829Y19988D01*
X383396Y21552D01*
X383488Y23671D01*
X385052Y25104D01*
X387171Y25012D01*
D02*
G37*
G36*
X319171D02*
X320604Y23448D01*
X320512Y21329D01*
X318948Y19895D01*
X316829Y19988D01*
X315395Y21552D01*
X315488Y23671D01*
X317052Y25104D01*
X319171Y25012D01*
D02*
G37*
G36*
X250671D02*
X252104Y23448D01*
X252012Y21329D01*
X250448Y19895D01*
X248329Y19988D01*
X246896Y21552D01*
X246988Y23671D01*
X248552Y25104D01*
X250671Y25012D01*
D02*
G37*
G36*
X184171D02*
X185605Y23448D01*
X185512Y21329D01*
X183948Y19895D01*
X181829Y19988D01*
X180395Y21552D01*
X180488Y23671D01*
X182052Y25104D01*
X184171Y25012D01*
D02*
G37*
G36*
X117671D02*
X119105Y23448D01*
X119012Y21329D01*
X117448Y19895D01*
X115329Y19988D01*
X113895Y21552D01*
X113988Y23671D01*
X115552Y25104D01*
X117671Y25012D01*
D02*
G37*
G36*
X50671D02*
X52105Y23448D01*
X52012Y21329D01*
X50448Y19895D01*
X48329Y19988D01*
X46896Y21552D01*
X46988Y23671D01*
X48552Y25104D01*
X50671Y25012D01*
D02*
G37*
G36*
X392171Y17512D02*
X393604Y15948D01*
X393512Y13829D01*
X391948Y12395D01*
X389829Y12488D01*
X388396Y14052D01*
X388488Y16171D01*
X390052Y17605D01*
X392171Y17512D01*
D02*
G37*
G36*
X382171D02*
X383605Y15948D01*
X383512Y13829D01*
X381948Y12395D01*
X379829Y12488D01*
X378396Y14052D01*
X378488Y16171D01*
X380052Y17605D01*
X382171Y17512D01*
D02*
G37*
G36*
X324171D02*
X325605Y15948D01*
X325512Y13829D01*
X323948Y12395D01*
X321829Y12488D01*
X320395Y14052D01*
X320488Y16171D01*
X322052Y17605D01*
X324171Y17512D01*
D02*
G37*
G36*
X314171D02*
X315604Y15948D01*
X315512Y13829D01*
X313948Y12395D01*
X311829Y12488D01*
X310396Y14052D01*
X310488Y16171D01*
X312052Y17605D01*
X314171Y17512D01*
D02*
G37*
G36*
X255671D02*
X257104Y15948D01*
X257012Y13829D01*
X255448Y12395D01*
X253329Y12488D01*
X251895Y14052D01*
X251988Y16171D01*
X253552Y17605D01*
X255671Y17512D01*
D02*
G37*
G36*
X245671D02*
X247105Y15948D01*
X247012Y13829D01*
X245448Y12395D01*
X243329Y12488D01*
X241896Y14052D01*
X241988Y16171D01*
X243552Y17605D01*
X245671Y17512D01*
D02*
G37*
G36*
X189171D02*
X190604Y15948D01*
X190512Y13829D01*
X188948Y12395D01*
X186829Y12488D01*
X185396Y14052D01*
X185488Y16171D01*
X187052Y17605D01*
X189171Y17512D01*
D02*
G37*
G36*
X179171D02*
X180605Y15948D01*
X180512Y13829D01*
X178948Y12395D01*
X176829Y12488D01*
X175396Y14052D01*
X175488Y16171D01*
X177052Y17605D01*
X179171Y17512D01*
D02*
G37*
G36*
X122671D02*
X124104Y15948D01*
X124012Y13829D01*
X122448Y12395D01*
X120329Y12488D01*
X118895Y14052D01*
X118988Y16171D01*
X120552Y17605D01*
X122671Y17512D01*
D02*
G37*
G36*
X112671D02*
X114104Y15948D01*
X114012Y13829D01*
X112448Y12395D01*
X110329Y12488D01*
X108896Y14052D01*
X108988Y16171D01*
X110552Y17605D01*
X112671Y17512D01*
D02*
G37*
G36*
X55671D02*
X57104Y15948D01*
X57012Y13829D01*
X55448Y12395D01*
X53329Y12488D01*
X51895Y14052D01*
X51988Y16171D01*
X53552Y17605D01*
X55671Y17512D01*
D02*
G37*
G36*
X45671D02*
X47104Y15948D01*
X47012Y13829D01*
X45448Y12395D01*
X43329Y12488D01*
X41895Y14052D01*
X41988Y16171D01*
X43552Y17605D01*
X45671Y17512D01*
D02*
G37*
D10*
X322000Y378500D02*
X328000Y384500D01*
X284000Y378500D02*
X322000D01*
X276500Y371000D02*
X284000Y378500D01*
X291500Y356658D02*
X304000Y369158D01*
X291500Y353000D02*
Y356658D01*
X285500Y347000D02*
X291500Y353000D01*
X286000Y277500D02*
X292000Y283500D01*
Y287158D01*
X304500Y299658D01*
X277000Y301500D02*
X284500Y309000D01*
X322500D01*
X328500Y315000D01*
X234000Y378000D02*
X240000Y384000D01*
X196000Y378000D02*
X234000D01*
X188500Y370500D02*
X196000Y378000D01*
X203500Y356157D02*
X216000Y368657D01*
X203500Y352500D02*
Y356157D01*
X197500Y346500D02*
X203500Y352500D01*
X198000Y277000D02*
X204000Y283000D01*
Y286658D01*
X216500Y299158D01*
X189000Y301000D02*
X196500Y308500D01*
X234500D01*
X240500Y314500D01*
X147500Y378000D02*
X153500Y384000D01*
X109500Y378000D02*
X147500D01*
X102000Y370500D02*
X109500Y378000D01*
X117000Y356157D02*
X129500Y368657D01*
X117000Y352500D02*
Y356157D01*
X111000Y346500D02*
X117000Y352500D01*
X111500Y277000D02*
X117500Y283000D01*
Y286658D01*
X130000Y299158D01*
X102500Y301000D02*
X110000Y308500D01*
X148000D01*
X154000Y314500D01*
X61000Y378000D02*
X67000Y384000D01*
X23000Y378000D02*
X61000D01*
X15500Y370500D02*
X23000Y378000D01*
X30500Y356157D02*
X43000Y368657D01*
X30500Y352500D02*
Y356157D01*
X24500Y346500D02*
X30500Y352500D01*
X25000Y277000D02*
X31000Y283000D01*
Y286658D01*
X43500Y299158D01*
X16000Y301000D02*
X23500Y308500D01*
X61500D01*
X67500Y314500D01*
X12000Y238000D02*
X18000Y232000D01*
Y194000D02*
Y232000D01*
Y194000D02*
X25500Y186500D01*
X27343Y214000D02*
X39843Y201500D01*
X43500D01*
X49500Y195500D01*
X110500Y201500D02*
X116500Y195500D01*
X106843Y201500D02*
X110500D01*
X94342Y214000D02*
X106843Y201500D01*
X85000Y194000D02*
X92500Y186500D01*
X85000Y194000D02*
Y232000D01*
X79000Y238000D02*
X85000Y232000D01*
X177000Y201500D02*
X183000Y195500D01*
X173343Y201500D02*
X177000D01*
X160843Y214000D02*
X173343Y201500D01*
X151500Y194000D02*
X159000Y186500D01*
X151500Y194000D02*
Y232000D01*
X145500Y238000D02*
X151500Y232000D01*
X243500Y201500D02*
X249500Y195500D01*
X239843Y201500D02*
X243500D01*
X227343Y214000D02*
X239843Y201500D01*
X218000Y194000D02*
X225500Y186500D01*
X218000Y194000D02*
Y232000D01*
X212000Y238000D02*
X218000Y232000D01*
X380000Y201500D02*
X386000Y195500D01*
X376343Y201500D02*
X380000D01*
X363843Y214000D02*
X376343Y201500D01*
X354500Y194000D02*
X362000Y186500D01*
X354500Y194000D02*
Y232000D01*
X348500Y238000D02*
X354500Y232000D01*
X312000Y201500D02*
X318000Y195500D01*
X308343Y201500D02*
X312000D01*
X295843Y214000D02*
X308343Y201500D01*
X286500Y194000D02*
X294000Y186500D01*
X286500Y194000D02*
Y232000D01*
X280500Y238000D02*
X286500Y232000D01*
X12000Y150500D02*
X18000Y144500D01*
Y106500D02*
Y144500D01*
Y106500D02*
X25500Y99000D01*
X27343Y126500D02*
X39843Y114000D01*
X43500D01*
X49500Y108000D01*
X110500Y114000D02*
X116500Y108000D01*
X106843Y114000D02*
X110500D01*
X94342Y126500D02*
X106843Y114000D01*
X85000Y106500D02*
X92500Y99000D01*
X85000Y106500D02*
Y144500D01*
X79000Y150500D02*
X85000Y144500D01*
X177000Y114000D02*
X183000Y108000D01*
X173343Y114000D02*
X177000D01*
X160843Y126500D02*
X173343Y114000D01*
X151500Y106500D02*
X159000Y99000D01*
X151500Y106500D02*
Y144500D01*
X145500Y150500D02*
X151500Y144500D01*
X243500Y114000D02*
X249500Y108000D01*
X239843Y114000D02*
X243500D01*
X227343Y126500D02*
X239843Y114000D01*
X218000Y106500D02*
X225500Y99000D01*
X218000Y106500D02*
Y144500D01*
X212000Y150500D02*
X218000Y144500D01*
X380000Y114000D02*
X386000Y108000D01*
X376343Y114000D02*
X380000D01*
X363843Y126500D02*
X376343Y114000D01*
X354500Y106500D02*
X362000Y99000D01*
X354500Y106500D02*
Y144500D01*
X348500Y150500D02*
X354500Y144500D01*
X312000Y114000D02*
X318000Y108000D01*
X308343Y114000D02*
X312000D01*
X295843Y126500D02*
X308343Y114000D01*
X286500Y106500D02*
X294000Y99000D01*
X286500Y106500D02*
Y144500D01*
X280500Y150500D02*
X286500Y144500D01*
X280500Y65000D02*
X286500Y59000D01*
Y21000D02*
Y59000D01*
Y21000D02*
X294000Y13500D01*
X295843Y41000D02*
X308343Y28500D01*
X312000D01*
X318000Y22500D01*
X348500Y65000D02*
X354500Y59000D01*
Y21000D02*
Y59000D01*
Y21000D02*
X362000Y13500D01*
X363843Y41000D02*
X376343Y28500D01*
X380000D01*
X386000Y22500D01*
X212000Y65000D02*
X218000Y59000D01*
Y21000D02*
Y59000D01*
Y21000D02*
X225500Y13500D01*
X227343Y41000D02*
X239843Y28500D01*
X243500D01*
X249500Y22500D01*
X145500Y65000D02*
X151500Y59000D01*
Y21000D02*
Y59000D01*
Y21000D02*
X159000Y13500D01*
X160843Y41000D02*
X173343Y28500D01*
X177000D01*
X183000Y22500D01*
X79000Y65000D02*
X85000Y59000D01*
Y21000D02*
Y59000D01*
Y21000D02*
X92500Y13500D01*
X94342Y41000D02*
X106843Y28500D01*
X110500D01*
X116500Y22500D01*
X43500Y28500D02*
X49500Y22500D01*
X39843Y28500D02*
X43500D01*
X27343Y41000D02*
X39843Y28500D01*
X18000Y21000D02*
X25500Y13500D01*
X18000Y21000D02*
Y59000D01*
X12000Y65000D02*
X18000Y59000D01*
D11*
X260500Y364500D02*
D03*
X261000Y294500D02*
D03*
X173000Y364500D02*
D03*
X173500Y294500D02*
D03*
X87500D02*
D03*
X87000Y364500D02*
D03*
D12*
X335000Y214000D02*
D03*
X266500D02*
D03*
X199500D02*
D03*
X132500D02*
D03*
X66000D02*
D03*
Y127500D02*
D03*
X133000D02*
D03*
X199500D02*
D03*
X267000D02*
D03*
X335000D02*
D03*
Y41000D02*
D03*
X267000D02*
D03*
X199000D02*
D03*
X132500D02*
D03*
X66000Y41500D02*
D03*
D13*
X175000Y329500D02*
D03*
X176000Y259000D02*
D03*
D14*
X200500Y170500D02*
D03*
Y84500D02*
D03*
D15*
X339000Y370500D02*
D03*
Y340500D02*
D03*
X326000Y370500D02*
D03*
Y340500D02*
D03*
X278000Y352000D02*
D03*
X285500Y347000D02*
D03*
X278000Y342000D02*
D03*
X276500Y381000D02*
D03*
Y371000D02*
D03*
X303000Y347500D02*
D03*
X303500Y278000D02*
D03*
X277000Y311500D02*
D03*
Y301500D02*
D03*
X278500Y282500D02*
D03*
X286000Y277500D02*
D03*
X278500Y272500D02*
D03*
X326500Y301000D02*
D03*
Y271000D02*
D03*
X339500Y301000D02*
D03*
Y271000D02*
D03*
X251000Y370000D02*
D03*
Y340000D02*
D03*
X238000Y370000D02*
D03*
Y340000D02*
D03*
X190000Y351500D02*
D03*
X197500Y346500D02*
D03*
X190000Y341500D02*
D03*
X188500Y380500D02*
D03*
Y370500D02*
D03*
X215000Y347000D02*
D03*
X215500Y277500D02*
D03*
X189000Y311000D02*
D03*
Y301000D02*
D03*
X190500Y282000D02*
D03*
X198000Y277000D02*
D03*
X190500Y272000D02*
D03*
X238500Y300500D02*
D03*
Y270500D02*
D03*
X251500Y300500D02*
D03*
Y270500D02*
D03*
X164500Y370000D02*
D03*
Y340000D02*
D03*
X151500Y370000D02*
D03*
Y340000D02*
D03*
X103500Y351500D02*
D03*
X111000Y346500D02*
D03*
X103500Y341500D02*
D03*
X102000Y380500D02*
D03*
Y370500D02*
D03*
X128500Y347000D02*
D03*
X129000Y277500D02*
D03*
X102500Y311000D02*
D03*
Y301000D02*
D03*
X104000Y282000D02*
D03*
X111500Y277000D02*
D03*
X104000Y272000D02*
D03*
X152000Y300500D02*
D03*
Y270500D02*
D03*
X165000Y300500D02*
D03*
Y270500D02*
D03*
X78000Y370000D02*
D03*
Y340000D02*
D03*
X65000Y370000D02*
D03*
Y340000D02*
D03*
X17000Y351500D02*
D03*
X24500Y346500D02*
D03*
X17000Y341500D02*
D03*
X15500Y380500D02*
D03*
Y370500D02*
D03*
X42000Y347000D02*
D03*
X42500Y277500D02*
D03*
X16000Y311000D02*
D03*
Y301000D02*
D03*
X17500Y282000D02*
D03*
X25000Y277000D02*
D03*
X17500Y272000D02*
D03*
X65500Y300500D02*
D03*
Y270500D02*
D03*
X78500Y300500D02*
D03*
Y270500D02*
D03*
X26000Y249000D02*
D03*
X56000D02*
D03*
X26000Y236000D02*
D03*
X56000D02*
D03*
X44500Y188000D02*
D03*
X49500Y195500D02*
D03*
X54500Y188000D02*
D03*
X15500Y186500D02*
D03*
X25500D02*
D03*
X49000Y213000D02*
D03*
X116000D02*
D03*
X82500Y186500D02*
D03*
X92500D02*
D03*
X111500Y188000D02*
D03*
X116500Y195500D02*
D03*
X121500Y188000D02*
D03*
X93000Y236000D02*
D03*
X123000D02*
D03*
X93000Y249000D02*
D03*
X123000D02*
D03*
X182500Y213000D02*
D03*
X149000Y186500D02*
D03*
X159000D02*
D03*
X178000Y188000D02*
D03*
X183000Y195500D02*
D03*
X188000Y188000D02*
D03*
X159500Y236000D02*
D03*
X189500D02*
D03*
X159500Y249000D02*
D03*
X189500D02*
D03*
X249000Y213000D02*
D03*
X215500Y186500D02*
D03*
X225500D02*
D03*
X244500Y188000D02*
D03*
X249500Y195500D02*
D03*
X254500Y188000D02*
D03*
X226000Y236000D02*
D03*
X256000D02*
D03*
X226000Y249000D02*
D03*
X256000D02*
D03*
X385500Y213000D02*
D03*
X352000Y186500D02*
D03*
X362000D02*
D03*
X381000Y188000D02*
D03*
X386000Y195500D02*
D03*
X391000Y188000D02*
D03*
X362500Y236000D02*
D03*
X392500D02*
D03*
X362500Y249000D02*
D03*
X392500D02*
D03*
X317500Y213000D02*
D03*
X284000Y186500D02*
D03*
X294000D02*
D03*
X313000Y188000D02*
D03*
X318000Y195500D02*
D03*
X323000Y188000D02*
D03*
X294500Y236000D02*
D03*
X324500D02*
D03*
X294500Y249000D02*
D03*
X324500D02*
D03*
X26000Y161500D02*
D03*
X56000D02*
D03*
X26000Y148500D02*
D03*
X56000D02*
D03*
X44500Y100500D02*
D03*
X49500Y108000D02*
D03*
X54500Y100500D02*
D03*
X15500Y99000D02*
D03*
X25500D02*
D03*
X49000Y125500D02*
D03*
X116000D02*
D03*
X82500Y99000D02*
D03*
X92500D02*
D03*
X111500Y100500D02*
D03*
X116500Y108000D02*
D03*
X121500Y100500D02*
D03*
X93000Y148500D02*
D03*
X123000D02*
D03*
X93000Y161500D02*
D03*
X123000D02*
D03*
X182500Y125500D02*
D03*
X149000Y99000D02*
D03*
X159000D02*
D03*
X178000Y100500D02*
D03*
X183000Y108000D02*
D03*
X188000Y100500D02*
D03*
X159500Y148500D02*
D03*
X189500D02*
D03*
X159500Y161500D02*
D03*
X189500D02*
D03*
X249000Y125500D02*
D03*
X215500Y99000D02*
D03*
X225500D02*
D03*
X244500Y100500D02*
D03*
X249500Y108000D02*
D03*
X254500Y100500D02*
D03*
X226000Y148500D02*
D03*
X256000D02*
D03*
X226000Y161500D02*
D03*
X256000D02*
D03*
X385500Y125500D02*
D03*
X352000Y99000D02*
D03*
X362000D02*
D03*
X381000Y100500D02*
D03*
X386000Y108000D02*
D03*
X391000Y100500D02*
D03*
X362500Y148500D02*
D03*
X392500D02*
D03*
X362500Y161500D02*
D03*
X392500D02*
D03*
X317500Y125500D02*
D03*
X284000Y99000D02*
D03*
X294000D02*
D03*
X313000Y100500D02*
D03*
X318000Y108000D02*
D03*
X323000Y100500D02*
D03*
X294500Y148500D02*
D03*
X324500D02*
D03*
X294500Y161500D02*
D03*
X324500D02*
D03*
X294500Y76000D02*
D03*
X324500D02*
D03*
X294500Y63000D02*
D03*
X324500D02*
D03*
X313000Y15000D02*
D03*
X318000Y22500D02*
D03*
X323000Y15000D02*
D03*
X284000Y13500D02*
D03*
X294000D02*
D03*
X317500Y40000D02*
D03*
X362500Y76000D02*
D03*
X392500D02*
D03*
X362500Y63000D02*
D03*
X392500D02*
D03*
X381000Y15000D02*
D03*
X386000Y22500D02*
D03*
X391000Y15000D02*
D03*
X352000Y13500D02*
D03*
X362000D02*
D03*
X385500Y40000D02*
D03*
X226000Y76000D02*
D03*
X256000D02*
D03*
X226000Y63000D02*
D03*
X256000D02*
D03*
X244500Y15000D02*
D03*
X249500Y22500D02*
D03*
X254500Y15000D02*
D03*
X215500Y13500D02*
D03*
X225500D02*
D03*
X249000Y40000D02*
D03*
X159500Y76000D02*
D03*
X189500D02*
D03*
X159500Y63000D02*
D03*
X189500D02*
D03*
X178000Y15000D02*
D03*
X183000Y22500D02*
D03*
X188000Y15000D02*
D03*
X149000Y13500D02*
D03*
X159000D02*
D03*
X182500Y40000D02*
D03*
X93000Y76000D02*
D03*
X123000D02*
D03*
X93000Y63000D02*
D03*
X123000D02*
D03*
X111500Y15000D02*
D03*
X116500Y22500D02*
D03*
X121500Y15000D02*
D03*
X82500Y13500D02*
D03*
X92500D02*
D03*
X116000Y40000D02*
D03*
X26000Y63000D02*
D03*
X56000D02*
D03*
X26000Y76000D02*
D03*
X56000D02*
D03*
X49000Y40000D02*
D03*
X44500Y15000D02*
D03*
X49500Y22500D02*
D03*
X54500Y15000D02*
D03*
X15500Y13500D02*
D03*
X25500D02*
D03*
D16*
X313843Y388843D02*
D03*
X314342Y319342D02*
D03*
X225842Y388342D02*
D03*
X226343Y318843D02*
D03*
X139342Y388342D02*
D03*
X139842Y318843D02*
D03*
X52842Y388342D02*
D03*
X53342Y318843D02*
D03*
D17*
X304000Y369158D02*
D03*
X294158Y388843D02*
D03*
X304500Y299658D02*
D03*
X294657Y319342D02*
D03*
X216000Y368657D02*
D03*
X206157Y388342D02*
D03*
X216500Y299158D02*
D03*
X206658Y318843D02*
D03*
X129500Y368657D02*
D03*
X119658Y388342D02*
D03*
X130000Y299158D02*
D03*
X120158Y318843D02*
D03*
X43000Y368657D02*
D03*
X33158Y388342D02*
D03*
X43500Y299158D02*
D03*
X33658Y318843D02*
D03*
X27343Y214000D02*
D03*
X7658Y204157D02*
D03*
X94342Y214000D02*
D03*
X74657Y204157D02*
D03*
X160843Y214000D02*
D03*
X141157Y204157D02*
D03*
X227343Y214000D02*
D03*
X207658Y204157D02*
D03*
X363843Y214000D02*
D03*
X344158Y204157D02*
D03*
X295843Y214000D02*
D03*
X276157Y204157D02*
D03*
X27343Y126500D02*
D03*
X7658Y116657D02*
D03*
X94342Y126500D02*
D03*
X74657Y116657D02*
D03*
X160843Y126500D02*
D03*
X141157Y116657D02*
D03*
X227343Y126500D02*
D03*
X207658Y116657D02*
D03*
X363843Y126500D02*
D03*
X344158Y116657D02*
D03*
X295843Y126500D02*
D03*
X276157Y116657D02*
D03*
X295843Y41000D02*
D03*
X276157Y31157D02*
D03*
X363843Y41000D02*
D03*
X344158Y31157D02*
D03*
X227343Y41000D02*
D03*
X207658Y31157D02*
D03*
X160843Y41000D02*
D03*
X141157Y31157D02*
D03*
X94342Y41000D02*
D03*
X74657Y31157D02*
D03*
X27343Y41000D02*
D03*
X7658Y31157D02*
D03*
D18*
X303000Y357500D02*
D03*
X303500Y288000D02*
D03*
X215000Y357000D02*
D03*
X215500Y287500D02*
D03*
X128500Y357000D02*
D03*
X129000Y287500D02*
D03*
X42000Y357000D02*
D03*
X42500Y287500D02*
D03*
D19*
X338000Y384500D02*
D03*
X338500Y315000D02*
D03*
X250000Y384000D02*
D03*
X250500Y314500D02*
D03*
X163500Y384000D02*
D03*
X164000Y314500D02*
D03*
X77000Y384000D02*
D03*
X77500Y314500D02*
D03*
D20*
X328000Y384500D02*
D03*
X328500Y315000D02*
D03*
X240000Y384000D02*
D03*
X240500Y314500D02*
D03*
X153500Y384000D02*
D03*
X154000Y314500D02*
D03*
X67000Y384000D02*
D03*
X67500Y314500D02*
D03*
X12000Y238000D02*
D03*
X79000D02*
D03*
X145500D02*
D03*
X212000D02*
D03*
X348500D02*
D03*
X280500D02*
D03*
X12000Y150500D02*
D03*
X79000D02*
D03*
X145500D02*
D03*
X212000D02*
D03*
X348500D02*
D03*
X280500D02*
D03*
Y65000D02*
D03*
X348500D02*
D03*
X212000D02*
D03*
X145500D02*
D03*
X79000D02*
D03*
X12000D02*
D03*
D21*
X7658Y223843D02*
D03*
X74657D02*
D03*
X141157D02*
D03*
X207658D02*
D03*
X344158D02*
D03*
X276157D02*
D03*
X7658Y136343D02*
D03*
X74657D02*
D03*
X141157D02*
D03*
X207658D02*
D03*
X344158D02*
D03*
X276157D02*
D03*
Y50842D02*
D03*
X344158D02*
D03*
X207658D02*
D03*
X141157D02*
D03*
X74657D02*
D03*
X7658D02*
D03*
D22*
X39000Y213000D02*
D03*
X106000D02*
D03*
X172500D02*
D03*
X239000D02*
D03*
X375500D02*
D03*
X307500D02*
D03*
X39000Y125500D02*
D03*
X106000D02*
D03*
X172500D02*
D03*
X239000D02*
D03*
X375500D02*
D03*
X307500D02*
D03*
Y40000D02*
D03*
X375500D02*
D03*
X239000D02*
D03*
X172500D02*
D03*
X106000D02*
D03*
X39000D02*
D03*
D23*
X12000Y248000D02*
D03*
X79000D02*
D03*
X145500D02*
D03*
X212000D02*
D03*
X348500D02*
D03*
X280500D02*
D03*
X12000Y160500D02*
D03*
X79000D02*
D03*
X145500D02*
D03*
X212000D02*
D03*
X348500D02*
D03*
X280500D02*
D03*
Y75000D02*
D03*
X348500D02*
D03*
X212000D02*
D03*
X145500D02*
D03*
X79000D02*
D03*
X12000D02*
D03*
M02*
