G04 Layer_Color=65535*
%FSLAX25Y25*%
%MOIN*%
G70*
G01*
G75*
%ADD24C,0.00787*%
%ADD25C,0.00600*%
%ADD26C,0.01000*%
%ADD27C,0.00500*%
%ADD28C,0.01181*%
D24*
X320929Y388843D02*
G03*
X320929Y388843I-394J0D01*
G01*
X321429Y319342D02*
G03*
X321429Y319342I-394J0D01*
G01*
X232929Y388342D02*
G03*
X232929Y388342I-394J0D01*
G01*
X233429Y318843D02*
G03*
X233429Y318843I-394J0D01*
G01*
X146429Y388342D02*
G03*
X146429Y388342I-394J0D01*
G01*
X146929Y318843D02*
G03*
X146929Y318843I-394J0D01*
G01*
X59929Y388342D02*
G03*
X59929Y388342I-394J0D01*
G01*
X60429Y318843D02*
G03*
X60429Y318843I-394J0D01*
G01*
X8051Y230535D02*
G03*
X8051Y230535I-394J0D01*
G01*
X75051D02*
G03*
X75051Y230535I-394J0D01*
G01*
X141551D02*
G03*
X141551Y230535I-394J0D01*
G01*
X208051D02*
G03*
X208051Y230535I-394J0D01*
G01*
X344551D02*
G03*
X344551Y230535I-394J0D01*
G01*
X276551D02*
G03*
X276551Y230535I-394J0D01*
G01*
X8051Y143035D02*
G03*
X8051Y143035I-394J0D01*
G01*
X75051D02*
G03*
X75051Y143035I-394J0D01*
G01*
X141551D02*
G03*
X141551Y143035I-394J0D01*
G01*
X208051D02*
G03*
X208051Y143035I-394J0D01*
G01*
X344551D02*
G03*
X344551Y143035I-394J0D01*
G01*
X276551D02*
G03*
X276551Y143035I-394J0D01*
G01*
Y57535D02*
G03*
X276551Y57535I-394J0D01*
G01*
X344551D02*
G03*
X344551Y57535I-394J0D01*
G01*
X208051D02*
G03*
X208051Y57535I-394J0D01*
G01*
X141551D02*
G03*
X141551Y57535I-394J0D01*
G01*
X75051D02*
G03*
X75051Y57535I-394J0D01*
G01*
X8051D02*
G03*
X8051Y57535I-394J0D01*
G01*
X336000Y365500D02*
X339000D01*
X336000Y345500D02*
Y365500D01*
Y345500D02*
X342000D01*
Y365500D01*
X339000D02*
X342000D01*
X339000Y344600D02*
Y345500D01*
Y365500D02*
Y366400D01*
X323000Y365500D02*
X326000D01*
X323000Y345500D02*
Y365500D01*
Y345500D02*
X329000D01*
Y365500D01*
X326000D02*
X329000D01*
X326000Y344600D02*
Y345500D01*
Y365500D02*
Y366400D01*
X323000Y379500D02*
Y389500D01*
X343000D01*
Y379500D02*
Y389500D01*
X323000Y379500D02*
X343000D01*
X323500Y310000D02*
Y320000D01*
X343500D01*
Y310000D02*
Y320000D01*
X323500Y310000D02*
X343500D01*
X323500Y296000D02*
X326500D01*
X323500Y276000D02*
Y296000D01*
Y276000D02*
X329500D01*
Y296000D01*
X326500D02*
X329500D01*
X326500Y275100D02*
Y276000D01*
Y296000D02*
Y296900D01*
X336500Y296000D02*
X339500D01*
X336500Y276000D02*
Y296000D01*
Y276000D02*
X342500D01*
Y296000D01*
X339500D02*
X342500D01*
X339500Y275100D02*
Y276000D01*
Y296000D02*
Y296900D01*
X248000Y365000D02*
X251000D01*
X248000Y345000D02*
Y365000D01*
Y345000D02*
X254000D01*
Y365000D01*
X251000D02*
X254000D01*
X251000Y344100D02*
Y345000D01*
Y365000D02*
Y365900D01*
X235000Y365000D02*
X238000D01*
X235000Y345000D02*
Y365000D01*
Y345000D02*
X241000D01*
Y365000D01*
X238000D02*
X241000D01*
X238000Y344100D02*
Y345000D01*
Y365000D02*
Y365900D01*
X235000Y379000D02*
Y389000D01*
X255000D01*
Y379000D02*
Y389000D01*
X235000Y379000D02*
X255000D01*
X235500Y309500D02*
Y319500D01*
X255500D01*
Y309500D02*
Y319500D01*
X235500Y309500D02*
X255500D01*
X235500Y295500D02*
X238500D01*
X235500Y275500D02*
Y295500D01*
Y275500D02*
X241500D01*
Y295500D01*
X238500D02*
X241500D01*
X238500Y274600D02*
Y275500D01*
Y295500D02*
Y296400D01*
X248500Y295500D02*
X251500D01*
X248500Y275500D02*
Y295500D01*
Y275500D02*
X254500D01*
Y295500D01*
X251500D02*
X254500D01*
X251500Y274600D02*
Y275500D01*
Y295500D02*
Y296400D01*
X161500Y365000D02*
X164500D01*
X161500Y345000D02*
Y365000D01*
Y345000D02*
X167500D01*
Y365000D01*
X164500D02*
X167500D01*
X164500Y344100D02*
Y345000D01*
Y365000D02*
Y365900D01*
X148500Y365000D02*
X151500D01*
X148500Y345000D02*
Y365000D01*
Y345000D02*
X154500D01*
Y365000D01*
X151500D02*
X154500D01*
X151500Y344100D02*
Y345000D01*
Y365000D02*
Y365900D01*
X148500Y379000D02*
Y389000D01*
X168500D01*
Y379000D02*
Y389000D01*
X148500Y379000D02*
X168500D01*
X149000Y309500D02*
Y319500D01*
X169000D01*
Y309500D02*
Y319500D01*
X149000Y309500D02*
X169000D01*
X149000Y295500D02*
X152000D01*
X149000Y275500D02*
Y295500D01*
Y275500D02*
X155000D01*
Y295500D01*
X152000D02*
X155000D01*
X152000Y274600D02*
Y275500D01*
Y295500D02*
Y296400D01*
X162000Y295500D02*
X165000D01*
X162000Y275500D02*
Y295500D01*
Y275500D02*
X168000D01*
Y295500D01*
X165000D02*
X168000D01*
X165000Y274600D02*
Y275500D01*
Y295500D02*
Y296400D01*
X75000Y365000D02*
X78000D01*
X75000Y345000D02*
Y365000D01*
Y345000D02*
X81000D01*
Y365000D01*
X78000D02*
X81000D01*
X78000Y344100D02*
Y345000D01*
Y365000D02*
Y365900D01*
X62000Y365000D02*
X65000D01*
X62000Y345000D02*
Y365000D01*
Y345000D02*
X68000D01*
Y365000D01*
X65000D02*
X68000D01*
X65000Y344100D02*
Y345000D01*
Y365000D02*
Y365900D01*
X62000Y379000D02*
Y389000D01*
X82000D01*
Y379000D02*
Y389000D01*
X62000Y379000D02*
X82000D01*
X62500Y309500D02*
Y319500D01*
X82500D01*
Y309500D02*
Y319500D01*
X62500Y309500D02*
X82500D01*
X62500Y295500D02*
X65500D01*
X62500Y275500D02*
Y295500D01*
Y275500D02*
X68500D01*
Y295500D01*
X65500D02*
X68500D01*
X65500Y274600D02*
Y275500D01*
Y295500D02*
Y296400D01*
X75500Y295500D02*
X78500D01*
X75500Y275500D02*
Y295500D01*
Y275500D02*
X81500D01*
Y295500D01*
X78500D02*
X81500D01*
X78500Y274600D02*
Y275500D01*
Y295500D02*
Y296400D01*
X31000Y246000D02*
Y249000D01*
Y246000D02*
X51000D01*
Y252000D01*
X31000D02*
X51000D01*
X31000Y249000D02*
Y252000D01*
X51000Y249000D02*
X51900D01*
X30100D02*
X31000D01*
Y233000D02*
Y236000D01*
Y233000D02*
X51000D01*
Y239000D01*
X31000D02*
X51000D01*
X31000Y236000D02*
Y239000D01*
X51000Y236000D02*
X51900D01*
X30100D02*
X31000D01*
X7000Y233000D02*
X17000D01*
X7000D02*
Y253000D01*
X17000D01*
Y233000D02*
Y253000D01*
X74000Y233000D02*
X84000D01*
X74000D02*
Y253000D01*
X84000D01*
Y233000D02*
Y253000D01*
X98000Y233000D02*
Y236000D01*
Y233000D02*
X118000D01*
Y239000D01*
X98000D02*
X118000D01*
X98000Y236000D02*
Y239000D01*
X118000Y236000D02*
X118900D01*
X97100D02*
X98000D01*
Y246000D02*
Y249000D01*
Y246000D02*
X118000D01*
Y252000D01*
X98000D02*
X118000D01*
X98000Y249000D02*
Y252000D01*
X118000Y249000D02*
X118900D01*
X97100D02*
X98000D01*
X140500Y233000D02*
X150500D01*
X140500D02*
Y253000D01*
X150500D01*
Y233000D02*
Y253000D01*
X164500Y233000D02*
Y236000D01*
Y233000D02*
X184500D01*
Y239000D01*
X164500D02*
X184500D01*
X164500Y236000D02*
Y239000D01*
X184500Y236000D02*
X185400D01*
X163600D02*
X164500D01*
Y246000D02*
Y249000D01*
Y246000D02*
X184500D01*
Y252000D01*
X164500D02*
X184500D01*
X164500Y249000D02*
Y252000D01*
X184500Y249000D02*
X185400D01*
X163600D02*
X164500D01*
X207000Y233000D02*
X217000D01*
X207000D02*
Y253000D01*
X217000D01*
Y233000D02*
Y253000D01*
X231000Y233000D02*
Y236000D01*
Y233000D02*
X251000D01*
Y239000D01*
X231000D02*
X251000D01*
X231000Y236000D02*
Y239000D01*
X251000Y236000D02*
X251900D01*
X230100D02*
X231000D01*
Y246000D02*
Y249000D01*
Y246000D02*
X251000D01*
Y252000D01*
X231000D02*
X251000D01*
X231000Y249000D02*
Y252000D01*
X251000Y249000D02*
X251900D01*
X230100D02*
X231000D01*
X343500Y233000D02*
X353500D01*
X343500D02*
Y253000D01*
X353500D01*
Y233000D02*
Y253000D01*
X367500Y233000D02*
Y236000D01*
Y233000D02*
X387500D01*
Y239000D01*
X367500D02*
X387500D01*
X367500Y236000D02*
Y239000D01*
X387500Y236000D02*
X388400D01*
X366600D02*
X367500D01*
Y246000D02*
Y249000D01*
Y246000D02*
X387500D01*
Y252000D01*
X367500D02*
X387500D01*
X367500Y249000D02*
Y252000D01*
X387500Y249000D02*
X388400D01*
X366600D02*
X367500D01*
X275500Y233000D02*
X285500D01*
X275500D02*
Y253000D01*
X285500D01*
Y233000D02*
Y253000D01*
X299500Y233000D02*
Y236000D01*
Y233000D02*
X319500D01*
Y239000D01*
X299500D02*
X319500D01*
X299500Y236000D02*
Y239000D01*
X319500Y236000D02*
X320400D01*
X298600D02*
X299500D01*
Y246000D02*
Y249000D01*
Y246000D02*
X319500D01*
Y252000D01*
X299500D02*
X319500D01*
X299500Y249000D02*
Y252000D01*
X319500Y249000D02*
X320400D01*
X298600D02*
X299500D01*
X31000Y158500D02*
Y161500D01*
Y158500D02*
X51000D01*
Y164500D01*
X31000D02*
X51000D01*
X31000Y161500D02*
Y164500D01*
X51000Y161500D02*
X51900D01*
X30100D02*
X31000D01*
Y145500D02*
Y148500D01*
Y145500D02*
X51000D01*
Y151500D01*
X31000D02*
X51000D01*
X31000Y148500D02*
Y151500D01*
X51000Y148500D02*
X51900D01*
X30100D02*
X31000D01*
X7000Y145500D02*
X17000D01*
X7000D02*
Y165500D01*
X17000D01*
Y145500D02*
Y165500D01*
X74000Y145500D02*
X84000D01*
X74000D02*
Y165500D01*
X84000D01*
Y145500D02*
Y165500D01*
X98000Y145500D02*
Y148500D01*
Y145500D02*
X118000D01*
Y151500D01*
X98000D02*
X118000D01*
X98000Y148500D02*
Y151500D01*
X118000Y148500D02*
X118900D01*
X97100D02*
X98000D01*
Y158500D02*
Y161500D01*
Y158500D02*
X118000D01*
Y164500D01*
X98000D02*
X118000D01*
X98000Y161500D02*
Y164500D01*
X118000Y161500D02*
X118900D01*
X97100D02*
X98000D01*
X140500Y145500D02*
X150500D01*
X140500D02*
Y165500D01*
X150500D01*
Y145500D02*
Y165500D01*
X164500Y145500D02*
Y148500D01*
Y145500D02*
X184500D01*
Y151500D01*
X164500D02*
X184500D01*
X164500Y148500D02*
Y151500D01*
X184500Y148500D02*
X185400D01*
X163600D02*
X164500D01*
Y158500D02*
Y161500D01*
Y158500D02*
X184500D01*
Y164500D01*
X164500D02*
X184500D01*
X164500Y161500D02*
Y164500D01*
X184500Y161500D02*
X185400D01*
X163600D02*
X164500D01*
X207000Y145500D02*
X217000D01*
X207000D02*
Y165500D01*
X217000D01*
Y145500D02*
Y165500D01*
X231000Y145500D02*
Y148500D01*
Y145500D02*
X251000D01*
Y151500D01*
X231000D02*
X251000D01*
X231000Y148500D02*
Y151500D01*
X251000Y148500D02*
X251900D01*
X230100D02*
X231000D01*
Y158500D02*
Y161500D01*
Y158500D02*
X251000D01*
Y164500D01*
X231000D02*
X251000D01*
X231000Y161500D02*
Y164500D01*
X251000Y161500D02*
X251900D01*
X230100D02*
X231000D01*
X343500Y145500D02*
X353500D01*
X343500D02*
Y165500D01*
X353500D01*
Y145500D02*
Y165500D01*
X367500Y145500D02*
Y148500D01*
Y145500D02*
X387500D01*
Y151500D01*
X367500D02*
X387500D01*
X367500Y148500D02*
Y151500D01*
X387500Y148500D02*
X388400D01*
X366600D02*
X367500D01*
Y158500D02*
Y161500D01*
Y158500D02*
X387500D01*
Y164500D01*
X367500D02*
X387500D01*
X367500Y161500D02*
Y164500D01*
X387500Y161500D02*
X388400D01*
X366600D02*
X367500D01*
X275500Y145500D02*
X285500D01*
X275500D02*
Y165500D01*
X285500D01*
Y145500D02*
Y165500D01*
X299500Y145500D02*
Y148500D01*
Y145500D02*
X319500D01*
Y151500D01*
X299500D02*
X319500D01*
X299500Y148500D02*
Y151500D01*
X319500Y148500D02*
X320400D01*
X298600D02*
X299500D01*
Y158500D02*
Y161500D01*
Y158500D02*
X319500D01*
Y164500D01*
X299500D02*
X319500D01*
X299500Y161500D02*
Y164500D01*
X319500Y161500D02*
X320400D01*
X298600D02*
X299500D01*
Y73000D02*
Y76000D01*
Y73000D02*
X319500D01*
Y79000D01*
X299500D02*
X319500D01*
X299500Y76000D02*
Y79000D01*
X319500Y76000D02*
X320400D01*
X298600D02*
X299500D01*
Y60000D02*
Y63000D01*
Y60000D02*
X319500D01*
Y66000D01*
X299500D02*
X319500D01*
X299500Y63000D02*
Y66000D01*
X319500Y63000D02*
X320400D01*
X298600D02*
X299500D01*
X275500Y60000D02*
X285500D01*
X275500D02*
Y80000D01*
X285500D01*
Y60000D02*
Y80000D01*
X367500Y73000D02*
Y76000D01*
Y73000D02*
X387500D01*
Y79000D01*
X367500D02*
X387500D01*
X367500Y76000D02*
Y79000D01*
X387500Y76000D02*
X388400D01*
X366600D02*
X367500D01*
Y60000D02*
Y63000D01*
Y60000D02*
X387500D01*
Y66000D01*
X367500D02*
X387500D01*
X367500Y63000D02*
Y66000D01*
X387500Y63000D02*
X388400D01*
X366600D02*
X367500D01*
X343500Y60000D02*
X353500D01*
X343500D02*
Y80000D01*
X353500D01*
Y60000D02*
Y80000D01*
X231000Y73000D02*
Y76000D01*
Y73000D02*
X251000D01*
Y79000D01*
X231000D02*
X251000D01*
X231000Y76000D02*
Y79000D01*
X251000Y76000D02*
X251900D01*
X230100D02*
X231000D01*
Y60000D02*
Y63000D01*
Y60000D02*
X251000D01*
Y66000D01*
X231000D02*
X251000D01*
X231000Y63000D02*
Y66000D01*
X251000Y63000D02*
X251900D01*
X230100D02*
X231000D01*
X207000Y60000D02*
X217000D01*
X207000D02*
Y80000D01*
X217000D01*
Y60000D02*
Y80000D01*
X164500Y73000D02*
Y76000D01*
Y73000D02*
X184500D01*
Y79000D01*
X164500D02*
X184500D01*
X164500Y76000D02*
Y79000D01*
X184500Y76000D02*
X185400D01*
X163600D02*
X164500D01*
Y60000D02*
Y63000D01*
Y60000D02*
X184500D01*
Y66000D01*
X164500D02*
X184500D01*
X164500Y63000D02*
Y66000D01*
X184500Y63000D02*
X185400D01*
X163600D02*
X164500D01*
X140500Y60000D02*
X150500D01*
X140500D02*
Y80000D01*
X150500D01*
Y60000D02*
Y80000D01*
X98000Y73000D02*
Y76000D01*
Y73000D02*
X118000D01*
Y79000D01*
X98000D02*
X118000D01*
X98000Y76000D02*
Y79000D01*
X118000Y76000D02*
X118900D01*
X97100D02*
X98000D01*
Y60000D02*
Y63000D01*
Y60000D02*
X118000D01*
Y66000D01*
X98000D02*
X118000D01*
X98000Y63000D02*
Y66000D01*
X118000Y63000D02*
X118900D01*
X97100D02*
X98000D01*
X74000Y60000D02*
X84000D01*
X74000D02*
Y80000D01*
X84000D01*
Y60000D02*
Y80000D01*
X7000Y60000D02*
X17000D01*
X7000D02*
Y80000D01*
X17000D01*
Y60000D02*
Y80000D01*
X31000Y60000D02*
Y63000D01*
Y60000D02*
X51000D01*
Y66000D01*
X31000D02*
X51000D01*
X31000Y63000D02*
Y66000D01*
X51000Y63000D02*
X51900D01*
X30100D02*
X31000D01*
Y73000D02*
Y76000D01*
Y73000D02*
X51000D01*
Y79000D01*
X31000D02*
X51000D01*
X31000Y76000D02*
Y79000D01*
X51000Y76000D02*
X51900D01*
X30100D02*
X31000D01*
X337000Y359000D02*
Y357688D01*
Y358344D01*
X340936D01*
X340280Y359000D01*
X340936Y355720D02*
X337000D01*
X338312D01*
X340936Y353096D01*
X338968Y355064D01*
X337000Y353096D01*
X268500Y393116D02*
Y388000D01*
X271911D01*
X273617Y393116D02*
Y388000D01*
X276175D01*
X277027Y388853D01*
Y392264D01*
X276175Y393116D01*
X273617D01*
X278733Y388000D02*
Y393116D01*
X281291D01*
X282144Y392264D01*
Y390558D01*
X281291Y389705D01*
X278733D01*
X280438D02*
X282144Y388000D01*
X305000Y390000D02*
Y388426D01*
Y389213D01*
X309723D01*
X308936Y390000D01*
Y386064D02*
X309723Y385277D01*
Y383703D01*
X308936Y382916D01*
X305787D01*
X305000Y383703D01*
Y385277D01*
X305787Y386064D01*
X308936D01*
Y381341D02*
X309723Y380554D01*
Y378980D01*
X308936Y378193D01*
X305787D01*
X305000Y378980D01*
Y380554D01*
X305787Y381341D01*
X308936D01*
X309723Y376619D02*
X305000D01*
X306574D01*
X309723Y373470D01*
X307361Y375831D01*
X305000Y373470D01*
X270329Y356500D02*
X266000D01*
Y354335D01*
X266722Y353614D01*
X267443D01*
X268165Y354335D01*
Y356500D01*
Y354335D01*
X268886Y353614D01*
X269608D01*
X270329Y354335D01*
Y356500D01*
X269608Y349285D02*
X270329Y350006D01*
Y351449D01*
X269608Y352171D01*
X266722D01*
X266000Y351449D01*
Y350006D01*
X266722Y349285D01*
X270329Y344955D02*
Y347841D01*
X268165D01*
X268886Y346398D01*
Y345677D01*
X268165Y344955D01*
X266722D01*
X266000Y345677D01*
Y347120D01*
X266722Y347841D01*
X266000Y341347D02*
X270329D01*
X268165Y343512D01*
Y340626D01*
X270329Y339183D02*
Y336297D01*
X269608D01*
X266722Y339183D01*
X266000D01*
X298500Y391000D02*
X301649D01*
Y389426D01*
X301124Y388901D01*
X300074D01*
X299550Y389426D01*
Y391000D01*
X298500Y387851D02*
X301649D01*
Y386277D01*
X301124Y385752D01*
X300074D01*
X299550Y386277D01*
Y387851D01*
Y386802D02*
X298500Y385752D01*
X301649Y382604D02*
Y384703D01*
X298500D01*
Y382604D01*
X300074Y384703D02*
Y383653D01*
X301124Y379455D02*
X301649Y379980D01*
Y381030D01*
X301124Y381554D01*
X300599D01*
X300074Y381030D01*
Y379980D01*
X299550Y379455D01*
X299025D01*
X298500Y379980D01*
Y381030D01*
X299025Y381554D01*
X301649Y376307D02*
Y378406D01*
X298500D01*
Y376307D01*
X300074Y378406D02*
Y377356D01*
X301649Y375257D02*
Y373158D01*
Y374207D01*
X298500D01*
X324000Y359000D02*
Y357688D01*
Y358344D01*
X327936D01*
X327280Y359000D01*
X327936Y355720D02*
X324000D01*
X325312D01*
X327936Y353096D01*
X325968Y355064D01*
X324000Y353096D01*
X324500Y289500D02*
Y288188D01*
Y288844D01*
X328436D01*
X327780Y289500D01*
X328436Y286220D02*
X324500D01*
X325812D01*
X328436Y283596D01*
X326468Y285564D01*
X324500Y283596D01*
X299000Y321500D02*
X302149D01*
Y319926D01*
X301624Y319401D01*
X300574D01*
X300049Y319926D01*
Y321500D01*
X299000Y318351D02*
X302149D01*
Y316777D01*
X301624Y316252D01*
X300574D01*
X300049Y316777D01*
Y318351D01*
Y317302D02*
X299000Y316252D01*
X302149Y313104D02*
Y315203D01*
X299000D01*
Y313104D01*
X300574Y315203D02*
Y314153D01*
X301624Y309955D02*
X302149Y310480D01*
Y311529D01*
X301624Y312054D01*
X301099D01*
X300574Y311529D01*
Y310480D01*
X300049Y309955D01*
X299525D01*
X299000Y310480D01*
Y311529D01*
X299525Y312054D01*
X302149Y306807D02*
Y308906D01*
X299000D01*
Y306807D01*
X300574Y308906D02*
Y307856D01*
X302149Y305757D02*
Y303658D01*
Y304708D01*
X299000D01*
X270829Y287000D02*
X266500D01*
Y284835D01*
X267221Y284114D01*
X267943D01*
X268665Y284835D01*
Y287000D01*
Y284835D01*
X269386Y284114D01*
X270108D01*
X270829Y284835D01*
Y287000D01*
X270108Y279784D02*
X270829Y280506D01*
Y281949D01*
X270108Y282671D01*
X267221D01*
X266500Y281949D01*
Y280506D01*
X267221Y279784D01*
X270829Y275455D02*
Y278341D01*
X268665D01*
X269386Y276898D01*
Y276177D01*
X268665Y275455D01*
X267221D01*
X266500Y276177D01*
Y277620D01*
X267221Y278341D01*
X266500Y271847D02*
X270829D01*
X268665Y274012D01*
Y271126D01*
X270829Y269683D02*
Y266796D01*
X270108D01*
X267221Y269683D01*
X266500D01*
X305500Y320500D02*
Y318926D01*
Y319713D01*
X310223D01*
X309436Y320500D01*
Y316564D02*
X310223Y315777D01*
Y314203D01*
X309436Y313416D01*
X306287D01*
X305500Y314203D01*
Y315777D01*
X306287Y316564D01*
X309436D01*
Y311841D02*
X310223Y311054D01*
Y309480D01*
X309436Y308693D01*
X306287D01*
X305500Y309480D01*
Y311054D01*
X306287Y311841D01*
X309436D01*
X310223Y307119D02*
X305500D01*
X307074D01*
X310223Y303970D01*
X307861Y306331D01*
X305500Y303970D01*
X269000Y323617D02*
Y318500D01*
X272411D01*
X274116Y323617D02*
Y318500D01*
X276675D01*
X277527Y319353D01*
Y322764D01*
X276675Y323617D01*
X274116D01*
X279233Y318500D02*
Y323617D01*
X281791D01*
X282644Y322764D01*
Y321058D01*
X281791Y320205D01*
X279233D01*
X280938D02*
X282644Y318500D01*
X337500Y289500D02*
Y288188D01*
Y288844D01*
X341436D01*
X340780Y289500D01*
X341436Y286220D02*
X337500D01*
X338812D01*
X341436Y283596D01*
X339468Y285564D01*
X337500Y283596D01*
X249000Y358500D02*
Y357188D01*
Y357844D01*
X252936D01*
X252280Y358500D01*
X252936Y355220D02*
X249000D01*
X250312D01*
X252936Y352596D01*
X250968Y354564D01*
X249000Y352596D01*
X180500Y392617D02*
Y387500D01*
X183911D01*
X185617Y392617D02*
Y387500D01*
X188175D01*
X189027Y388353D01*
Y391764D01*
X188175Y392617D01*
X185617D01*
X190733Y387500D02*
Y392617D01*
X193291D01*
X194144Y391764D01*
Y390058D01*
X193291Y389206D01*
X190733D01*
X192438D02*
X194144Y387500D01*
X217000Y389500D02*
Y387926D01*
Y388713D01*
X221723D01*
X220936Y389500D01*
Y385564D02*
X221723Y384777D01*
Y383203D01*
X220936Y382416D01*
X217787D01*
X217000Y383203D01*
Y384777D01*
X217787Y385564D01*
X220936D01*
Y380841D02*
X221723Y380054D01*
Y378480D01*
X220936Y377693D01*
X217787D01*
X217000Y378480D01*
Y380054D01*
X217787Y380841D01*
X220936D01*
X221723Y376118D02*
X217000D01*
X218574D01*
X221723Y372970D01*
X219361Y375331D01*
X217000Y372970D01*
X182329Y356000D02*
X178000D01*
Y353835D01*
X178722Y353114D01*
X179443D01*
X180165Y353835D01*
Y356000D01*
Y353835D01*
X180886Y353114D01*
X181608D01*
X182329Y353835D01*
Y356000D01*
X181608Y348784D02*
X182329Y349506D01*
Y350949D01*
X181608Y351671D01*
X178722D01*
X178000Y350949D01*
Y349506D01*
X178722Y348784D01*
X182329Y344455D02*
Y347341D01*
X180165D01*
X180886Y345898D01*
Y345177D01*
X180165Y344455D01*
X178722D01*
X178000Y345177D01*
Y346620D01*
X178722Y347341D01*
X178000Y340847D02*
X182329D01*
X180165Y343012D01*
Y340126D01*
X182329Y338683D02*
Y335796D01*
X181608D01*
X178722Y338683D01*
X178000D01*
X210500Y390500D02*
X213649D01*
Y388926D01*
X213124Y388401D01*
X212074D01*
X211549Y388926D01*
Y390500D01*
X210500Y387351D02*
X213649D01*
Y385777D01*
X213124Y385252D01*
X212074D01*
X211549Y385777D01*
Y387351D01*
Y386302D02*
X210500Y385252D01*
X213649Y382104D02*
Y384203D01*
X210500D01*
Y382104D01*
X212074Y384203D02*
Y383153D01*
X213124Y378955D02*
X213649Y379480D01*
Y380529D01*
X213124Y381054D01*
X212599D01*
X212074Y380529D01*
Y379480D01*
X211549Y378955D01*
X211025D01*
X210500Y379480D01*
Y380529D01*
X211025Y381054D01*
X213649Y375807D02*
Y377906D01*
X210500D01*
Y375807D01*
X212074Y377906D02*
Y376856D01*
X213649Y374757D02*
Y372658D01*
Y373708D01*
X210500D01*
X236000Y358500D02*
Y357188D01*
Y357844D01*
X239936D01*
X239280Y358500D01*
X239936Y355220D02*
X236000D01*
X237312D01*
X239936Y352596D01*
X237968Y354564D01*
X236000Y352596D01*
X236500Y289000D02*
Y287688D01*
Y288344D01*
X240436D01*
X239780Y289000D01*
X240436Y285720D02*
X236500D01*
X237812D01*
X240436Y283096D01*
X238468Y285064D01*
X236500Y283096D01*
X211000Y321000D02*
X214149D01*
Y319426D01*
X213624Y318901D01*
X212574D01*
X212050Y319426D01*
Y321000D01*
X211000Y317851D02*
X214149D01*
Y316277D01*
X213624Y315752D01*
X212574D01*
X212050Y316277D01*
Y317851D01*
Y316802D02*
X211000Y315752D01*
X214149Y312604D02*
Y314703D01*
X211000D01*
Y312604D01*
X212574Y314703D02*
Y313653D01*
X213624Y309455D02*
X214149Y309980D01*
Y311030D01*
X213624Y311554D01*
X213099D01*
X212574Y311030D01*
Y309980D01*
X212050Y309455D01*
X211525D01*
X211000Y309980D01*
Y311030D01*
X211525Y311554D01*
X214149Y306307D02*
Y308406D01*
X211000D01*
Y306307D01*
X212574Y308406D02*
Y307356D01*
X214149Y305257D02*
Y303158D01*
Y304207D01*
X211000D01*
X182829Y286500D02*
X178500D01*
Y284335D01*
X179222Y283614D01*
X179943D01*
X180665Y284335D01*
Y286500D01*
Y284335D01*
X181386Y283614D01*
X182108D01*
X182829Y284335D01*
Y286500D01*
X182108Y279285D02*
X182829Y280006D01*
Y281449D01*
X182108Y282171D01*
X179222D01*
X178500Y281449D01*
Y280006D01*
X179222Y279285D01*
X182829Y274955D02*
Y277841D01*
X180665D01*
X181386Y276398D01*
Y275677D01*
X180665Y274955D01*
X179222D01*
X178500Y275677D01*
Y277120D01*
X179222Y277841D01*
X178500Y271347D02*
X182829D01*
X180665Y273512D01*
Y270626D01*
X182829Y269183D02*
Y266297D01*
X182108D01*
X179222Y269183D01*
X178500D01*
X217500Y320000D02*
Y318426D01*
Y319213D01*
X222223D01*
X221436Y320000D01*
Y316064D02*
X222223Y315277D01*
Y313703D01*
X221436Y312916D01*
X218287D01*
X217500Y313703D01*
Y315277D01*
X218287Y316064D01*
X221436D01*
Y311341D02*
X222223Y310554D01*
Y308980D01*
X221436Y308193D01*
X218287D01*
X217500Y308980D01*
Y310554D01*
X218287Y311341D01*
X221436D01*
X222223Y306618D02*
X217500D01*
X219074D01*
X222223Y303470D01*
X219861Y305831D01*
X217500Y303470D01*
X181000Y323116D02*
Y318000D01*
X184411D01*
X186117Y323116D02*
Y318000D01*
X188675D01*
X189527Y318853D01*
Y322264D01*
X188675Y323116D01*
X186117D01*
X191233Y318000D02*
Y323116D01*
X193791D01*
X194644Y322264D01*
Y320558D01*
X193791Y319706D01*
X191233D01*
X192938D02*
X194644Y318000D01*
X249500Y289000D02*
Y287688D01*
Y288344D01*
X253436D01*
X252780Y289000D01*
X253436Y285720D02*
X249500D01*
X250812D01*
X253436Y283096D01*
X251468Y285064D01*
X249500Y283096D01*
X162500Y358500D02*
Y357188D01*
Y357844D01*
X166436D01*
X165780Y358500D01*
X166436Y355220D02*
X162500D01*
X163812D01*
X166436Y352596D01*
X164468Y354564D01*
X162500Y352596D01*
X94000Y392617D02*
Y387500D01*
X97411D01*
X99116Y392617D02*
Y387500D01*
X101675D01*
X102527Y388353D01*
Y391764D01*
X101675Y392617D01*
X99116D01*
X104233Y387500D02*
Y392617D01*
X106791D01*
X107644Y391764D01*
Y390058D01*
X106791Y389206D01*
X104233D01*
X105938D02*
X107644Y387500D01*
X130500Y389500D02*
Y387926D01*
Y388713D01*
X135223D01*
X134436Y389500D01*
Y385564D02*
X135223Y384777D01*
Y383203D01*
X134436Y382416D01*
X131287D01*
X130500Y383203D01*
Y384777D01*
X131287Y385564D01*
X134436D01*
Y380841D02*
X135223Y380054D01*
Y378480D01*
X134436Y377693D01*
X131287D01*
X130500Y378480D01*
Y380054D01*
X131287Y380841D01*
X134436D01*
X135223Y376118D02*
X130500D01*
X132074D01*
X135223Y372970D01*
X132861Y375331D01*
X130500Y372970D01*
X95829Y356000D02*
X91500D01*
Y353835D01*
X92222Y353114D01*
X92943D01*
X93665Y353835D01*
Y356000D01*
Y353835D01*
X94386Y353114D01*
X95108D01*
X95829Y353835D01*
Y356000D01*
X95108Y348784D02*
X95829Y349506D01*
Y350949D01*
X95108Y351671D01*
X92222D01*
X91500Y350949D01*
Y349506D01*
X92222Y348784D01*
X95829Y344455D02*
Y347341D01*
X93665D01*
X94386Y345898D01*
Y345177D01*
X93665Y344455D01*
X92222D01*
X91500Y345177D01*
Y346620D01*
X92222Y347341D01*
X91500Y340847D02*
X95829D01*
X93665Y343012D01*
Y340126D01*
X95829Y338683D02*
Y335796D01*
X95108D01*
X92222Y338683D01*
X91500D01*
X124000Y390500D02*
X127149D01*
Y388926D01*
X126624Y388401D01*
X125574D01*
X125049Y388926D01*
Y390500D01*
X124000Y387351D02*
X127149D01*
Y385777D01*
X126624Y385252D01*
X125574D01*
X125049Y385777D01*
Y387351D01*
Y386302D02*
X124000Y385252D01*
X127149Y382104D02*
Y384203D01*
X124000D01*
Y382104D01*
X125574Y384203D02*
Y383153D01*
X126624Y378955D02*
X127149Y379480D01*
Y380529D01*
X126624Y381054D01*
X126099D01*
X125574Y380529D01*
Y379480D01*
X125049Y378955D01*
X124525D01*
X124000Y379480D01*
Y380529D01*
X124525Y381054D01*
X127149Y375807D02*
Y377906D01*
X124000D01*
Y375807D01*
X125574Y377906D02*
Y376856D01*
X127149Y374757D02*
Y372658D01*
Y373708D01*
X124000D01*
X149500Y358500D02*
Y357188D01*
Y357844D01*
X153436D01*
X152780Y358500D01*
X153436Y355220D02*
X149500D01*
X150812D01*
X153436Y352596D01*
X151468Y354564D01*
X149500Y352596D01*
X150000Y289000D02*
Y287688D01*
Y288344D01*
X153936D01*
X153280Y289000D01*
X153936Y285720D02*
X150000D01*
X151312D01*
X153936Y283096D01*
X151968Y285064D01*
X150000Y283096D01*
X124500Y321000D02*
X127649D01*
Y319426D01*
X127124Y318901D01*
X126074D01*
X125549Y319426D01*
Y321000D01*
X124500Y317851D02*
X127649D01*
Y316277D01*
X127124Y315752D01*
X126074D01*
X125549Y316277D01*
Y317851D01*
Y316802D02*
X124500Y315752D01*
X127649Y312604D02*
Y314703D01*
X124500D01*
Y312604D01*
X126074Y314703D02*
Y313653D01*
X127124Y309455D02*
X127649Y309980D01*
Y311030D01*
X127124Y311554D01*
X126599D01*
X126074Y311030D01*
Y309980D01*
X125549Y309455D01*
X125025D01*
X124500Y309980D01*
Y311030D01*
X125025Y311554D01*
X127649Y306307D02*
Y308406D01*
X124500D01*
Y306307D01*
X126074Y308406D02*
Y307356D01*
X127649Y305257D02*
Y303158D01*
Y304207D01*
X124500D01*
X96329Y286500D02*
X92000D01*
Y284335D01*
X92722Y283614D01*
X93443D01*
X94165Y284335D01*
Y286500D01*
Y284335D01*
X94886Y283614D01*
X95608D01*
X96329Y284335D01*
Y286500D01*
X95608Y279285D02*
X96329Y280006D01*
Y281449D01*
X95608Y282171D01*
X92722D01*
X92000Y281449D01*
Y280006D01*
X92722Y279285D01*
X96329Y274955D02*
Y277841D01*
X94165D01*
X94886Y276398D01*
Y275677D01*
X94165Y274955D01*
X92722D01*
X92000Y275677D01*
Y277120D01*
X92722Y277841D01*
X92000Y271347D02*
X96329D01*
X94165Y273512D01*
Y270626D01*
X96329Y269183D02*
Y266297D01*
X95608D01*
X92722Y269183D01*
X92000D01*
X131000Y320000D02*
Y318426D01*
Y319213D01*
X135723D01*
X134936Y320000D01*
Y316064D02*
X135723Y315277D01*
Y313703D01*
X134936Y312916D01*
X131787D01*
X131000Y313703D01*
Y315277D01*
X131787Y316064D01*
X134936D01*
Y311341D02*
X135723Y310554D01*
Y308980D01*
X134936Y308193D01*
X131787D01*
X131000Y308980D01*
Y310554D01*
X131787Y311341D01*
X134936D01*
X135723Y306618D02*
X131000D01*
X132574D01*
X135723Y303470D01*
X133361Y305831D01*
X131000Y303470D01*
X94500Y323116D02*
Y318000D01*
X97911D01*
X99616Y323116D02*
Y318000D01*
X102175D01*
X103027Y318853D01*
Y322264D01*
X102175Y323116D01*
X99616D01*
X104733Y318000D02*
Y323116D01*
X107291D01*
X108144Y322264D01*
Y320558D01*
X107291Y319706D01*
X104733D01*
X106438D02*
X108144Y318000D01*
X163000Y289000D02*
Y287688D01*
Y288344D01*
X166936D01*
X166280Y289000D01*
X166936Y285720D02*
X163000D01*
X164312D01*
X166936Y283096D01*
X164968Y285064D01*
X163000Y283096D01*
X76000Y358500D02*
Y357188D01*
Y357844D01*
X79936D01*
X79280Y358500D01*
X79936Y355220D02*
X76000D01*
X77312D01*
X79936Y352596D01*
X77968Y354564D01*
X76000Y352596D01*
X7500Y392617D02*
Y387500D01*
X10911D01*
X12617Y392617D02*
Y387500D01*
X15175D01*
X16027Y388353D01*
Y391764D01*
X15175Y392617D01*
X12617D01*
X17733Y387500D02*
Y392617D01*
X20291D01*
X21144Y391764D01*
Y390058D01*
X20291Y389206D01*
X17733D01*
X19438D02*
X21144Y387500D01*
X44000Y389500D02*
Y387926D01*
Y388713D01*
X48723D01*
X47936Y389500D01*
Y385564D02*
X48723Y384777D01*
Y383203D01*
X47936Y382416D01*
X44787D01*
X44000Y383203D01*
Y384777D01*
X44787Y385564D01*
X47936D01*
Y380841D02*
X48723Y380054D01*
Y378480D01*
X47936Y377693D01*
X44787D01*
X44000Y378480D01*
Y380054D01*
X44787Y380841D01*
X47936D01*
X48723Y376118D02*
X44000D01*
X45574D01*
X48723Y372970D01*
X46361Y375331D01*
X44000Y372970D01*
X9329Y356000D02*
X5000D01*
Y353835D01*
X5722Y353114D01*
X6443D01*
X7165Y353835D01*
Y356000D01*
Y353835D01*
X7886Y353114D01*
X8608D01*
X9329Y353835D01*
Y356000D01*
X8608Y348784D02*
X9329Y349506D01*
Y350949D01*
X8608Y351671D01*
X5722D01*
X5000Y350949D01*
Y349506D01*
X5722Y348784D01*
X9329Y344455D02*
Y347341D01*
X7165D01*
X7886Y345898D01*
Y345177D01*
X7165Y344455D01*
X5722D01*
X5000Y345177D01*
Y346620D01*
X5722Y347341D01*
X5000Y340847D02*
X9329D01*
X7165Y343012D01*
Y340126D01*
X9329Y338683D02*
Y335796D01*
X8608D01*
X5722Y338683D01*
X5000D01*
X37500Y390500D02*
X40649D01*
Y388926D01*
X40124Y388401D01*
X39074D01*
X38550Y388926D01*
Y390500D01*
X37500Y387351D02*
X40649D01*
Y385777D01*
X40124Y385252D01*
X39074D01*
X38550Y385777D01*
Y387351D01*
Y386302D02*
X37500Y385252D01*
X40649Y382104D02*
Y384203D01*
X37500D01*
Y382104D01*
X39074Y384203D02*
Y383153D01*
X40124Y378955D02*
X40649Y379480D01*
Y380529D01*
X40124Y381054D01*
X39599D01*
X39074Y380529D01*
Y379480D01*
X38550Y378955D01*
X38025D01*
X37500Y379480D01*
Y380529D01*
X38025Y381054D01*
X40649Y375807D02*
Y377906D01*
X37500D01*
Y375807D01*
X39074Y377906D02*
Y376856D01*
X40649Y374757D02*
Y372658D01*
Y373708D01*
X37500D01*
X63000Y358500D02*
Y357188D01*
Y357844D01*
X66936D01*
X66280Y358500D01*
X66936Y355220D02*
X63000D01*
X64312D01*
X66936Y352596D01*
X64968Y354564D01*
X63000Y352596D01*
X63500Y289000D02*
Y287688D01*
Y288344D01*
X67436D01*
X66780Y289000D01*
X67436Y285720D02*
X63500D01*
X64812D01*
X67436Y283096D01*
X65468Y285064D01*
X63500Y283096D01*
X38000Y321000D02*
X41149D01*
Y319426D01*
X40624Y318901D01*
X39574D01*
X39050Y319426D01*
Y321000D01*
X38000Y317851D02*
X41149D01*
Y316277D01*
X40624Y315752D01*
X39574D01*
X39050Y316277D01*
Y317851D01*
Y316802D02*
X38000Y315752D01*
X41149Y312604D02*
Y314703D01*
X38000D01*
Y312604D01*
X39574Y314703D02*
Y313653D01*
X40624Y309455D02*
X41149Y309980D01*
Y311030D01*
X40624Y311554D01*
X40099D01*
X39574Y311030D01*
Y309980D01*
X39050Y309455D01*
X38525D01*
X38000Y309980D01*
Y311030D01*
X38525Y311554D01*
X41149Y306307D02*
Y308406D01*
X38000D01*
Y306307D01*
X39574Y308406D02*
Y307356D01*
X41149Y305257D02*
Y303158D01*
Y304207D01*
X38000D01*
X9829Y286500D02*
X5500D01*
Y284335D01*
X6222Y283614D01*
X6943D01*
X7665Y284335D01*
Y286500D01*
Y284335D01*
X8386Y283614D01*
X9108D01*
X9829Y284335D01*
Y286500D01*
X9108Y279285D02*
X9829Y280006D01*
Y281449D01*
X9108Y282171D01*
X6222D01*
X5500Y281449D01*
Y280006D01*
X6222Y279285D01*
X9829Y274955D02*
Y277841D01*
X7665D01*
X8386Y276398D01*
Y275677D01*
X7665Y274955D01*
X6222D01*
X5500Y275677D01*
Y277120D01*
X6222Y277841D01*
X5500Y271347D02*
X9829D01*
X7665Y273512D01*
Y270626D01*
X9829Y269183D02*
Y266297D01*
X9108D01*
X6222Y269183D01*
X5500D01*
X44500Y320000D02*
Y318426D01*
Y319213D01*
X49223D01*
X48436Y320000D01*
Y316064D02*
X49223Y315277D01*
Y313703D01*
X48436Y312916D01*
X45287D01*
X44500Y313703D01*
Y315277D01*
X45287Y316064D01*
X48436D01*
Y311341D02*
X49223Y310554D01*
Y308980D01*
X48436Y308193D01*
X45287D01*
X44500Y308980D01*
Y310554D01*
X45287Y311341D01*
X48436D01*
X49223Y306618D02*
X44500D01*
X46074D01*
X49223Y303470D01*
X46861Y305831D01*
X44500Y303470D01*
X8000Y323116D02*
Y318000D01*
X11411D01*
X13116Y323116D02*
Y318000D01*
X15675D01*
X16527Y318853D01*
Y322264D01*
X15675Y323116D01*
X13116D01*
X18233Y318000D02*
Y323116D01*
X20791D01*
X21644Y322264D01*
Y320558D01*
X20791Y319706D01*
X18233D01*
X19938D02*
X21644Y318000D01*
X76500Y289000D02*
Y287688D01*
Y288344D01*
X80436D01*
X79780Y289000D01*
X80436Y285720D02*
X76500D01*
X77812D01*
X80436Y283096D01*
X78468Y285064D01*
X76500Y283096D01*
X37500Y247000D02*
X38812D01*
X38156D01*
Y250936D01*
X37500Y250280D01*
X40780Y250936D02*
Y247000D01*
Y248312D01*
X43404Y250936D01*
X41436Y248968D01*
X43404Y247000D01*
X3384Y178500D02*
X8500D01*
Y181911D01*
X3384Y183616D02*
X8500D01*
Y186175D01*
X7647Y187027D01*
X4236D01*
X3384Y186175D01*
Y183616D01*
X8500Y188733D02*
X3384D01*
Y191291D01*
X4236Y192144D01*
X5942D01*
X6795Y191291D01*
Y188733D01*
Y190438D02*
X8500Y192144D01*
X6500Y215000D02*
X8074D01*
X7287D01*
Y219723D01*
X6500Y218936D01*
X10436D02*
X11223Y219723D01*
X12797D01*
X13584Y218936D01*
Y215787D01*
X12797Y215000D01*
X11223D01*
X10436Y215787D01*
Y218936D01*
X15159D02*
X15946Y219723D01*
X17520D01*
X18307Y218936D01*
Y215787D01*
X17520Y215000D01*
X15946D01*
X15159Y215787D01*
Y218936D01*
X19882Y219723D02*
Y215000D01*
Y216574D01*
X23030Y219723D01*
X20669Y217361D01*
X23030Y215000D01*
X40000Y180329D02*
Y176000D01*
X42165D01*
X42886Y176722D01*
Y177443D01*
X42165Y178165D01*
X40000D01*
X42165D01*
X42886Y178886D01*
Y179608D01*
X42165Y180329D01*
X40000D01*
X47216Y179608D02*
X46494Y180329D01*
X45051D01*
X44329Y179608D01*
Y176722D01*
X45051Y176000D01*
X46494D01*
X47216Y176722D01*
X51545Y180329D02*
X48659D01*
Y178165D01*
X50102Y178886D01*
X50823D01*
X51545Y178165D01*
Y176722D01*
X50823Y176000D01*
X49380D01*
X48659Y176722D01*
X55153Y176000D02*
Y180329D01*
X52988Y178165D01*
X55874D01*
X57317Y180329D02*
X60203D01*
Y179608D01*
X57317Y176722D01*
Y176000D01*
X5500Y208500D02*
Y211649D01*
X7074D01*
X7599Y211124D01*
Y210074D01*
X7074Y209549D01*
X5500D01*
X8649Y208500D02*
Y211649D01*
X10223D01*
X10748Y211124D01*
Y210074D01*
X10223Y209549D01*
X8649D01*
X9698D02*
X10748Y208500D01*
X13896Y211649D02*
X11797D01*
Y208500D01*
X13896D01*
X11797Y210074D02*
X12847D01*
X17045Y211124D02*
X16520Y211649D01*
X15471D01*
X14946Y211124D01*
Y210599D01*
X15471Y210074D01*
X16520D01*
X17045Y209549D01*
Y209025D01*
X16520Y208500D01*
X15471D01*
X14946Y209025D01*
X20193Y211649D02*
X18094D01*
Y208500D01*
X20193D01*
X18094Y210074D02*
X19144D01*
X21243Y211649D02*
X23342D01*
X22293D01*
Y208500D01*
X37500Y234000D02*
X38812D01*
X38156D01*
Y237936D01*
X37500Y237280D01*
X40780Y237936D02*
Y234000D01*
Y235312D01*
X43404Y237936D01*
X41436Y235968D01*
X43404Y234000D01*
X104500D02*
X105812D01*
X105156D01*
Y237936D01*
X104500Y237280D01*
X107780Y237936D02*
Y234000D01*
Y235312D01*
X110404Y237936D01*
X108436Y235968D01*
X110404Y234000D01*
X72500Y208500D02*
Y211649D01*
X74074D01*
X74599Y211124D01*
Y210074D01*
X74074Y209549D01*
X72500D01*
X75649Y208500D02*
Y211649D01*
X77223D01*
X77748Y211124D01*
Y210074D01*
X77223Y209549D01*
X75649D01*
X76698D02*
X77748Y208500D01*
X80896Y211649D02*
X78797D01*
Y208500D01*
X80896D01*
X78797Y210074D02*
X79847D01*
X84045Y211124D02*
X83520Y211649D01*
X82471D01*
X81946Y211124D01*
Y210599D01*
X82471Y210074D01*
X83520D01*
X84045Y209549D01*
Y209025D01*
X83520Y208500D01*
X82471D01*
X81946Y209025D01*
X87193Y211649D02*
X85094D01*
Y208500D01*
X87193D01*
X85094Y210074D02*
X86144D01*
X88243Y211649D02*
X90342D01*
X89293D01*
Y208500D01*
X107000Y180329D02*
Y176000D01*
X109165D01*
X109886Y176722D01*
Y177443D01*
X109165Y178165D01*
X107000D01*
X109165D01*
X109886Y178886D01*
Y179608D01*
X109165Y180329D01*
X107000D01*
X114216Y179608D02*
X113494Y180329D01*
X112051D01*
X111329Y179608D01*
Y176722D01*
X112051Y176000D01*
X113494D01*
X114216Y176722D01*
X118545Y180329D02*
X115659D01*
Y178165D01*
X117102Y178886D01*
X117823D01*
X118545Y178165D01*
Y176722D01*
X117823Y176000D01*
X116380D01*
X115659Y176722D01*
X122153Y176000D02*
Y180329D01*
X119988Y178165D01*
X122874D01*
X124317Y180329D02*
X127203D01*
Y179608D01*
X124317Y176722D01*
Y176000D01*
X73500Y215000D02*
X75074D01*
X74287D01*
Y219723D01*
X73500Y218936D01*
X77436D02*
X78223Y219723D01*
X79797D01*
X80584Y218936D01*
Y215787D01*
X79797Y215000D01*
X78223D01*
X77436Y215787D01*
Y218936D01*
X82159D02*
X82946Y219723D01*
X84520D01*
X85307Y218936D01*
Y215787D01*
X84520Y215000D01*
X82946D01*
X82159Y215787D01*
Y218936D01*
X86882Y219723D02*
Y215000D01*
Y216574D01*
X90030Y219723D01*
X87669Y217361D01*
X90030Y215000D01*
X70384Y178500D02*
X75500D01*
Y181911D01*
X70384Y183616D02*
X75500D01*
Y186175D01*
X74647Y187027D01*
X71236D01*
X70384Y186175D01*
Y183616D01*
X75500Y188733D02*
X70384D01*
Y191291D01*
X71236Y192144D01*
X72942D01*
X73795Y191291D01*
Y188733D01*
Y190438D02*
X75500Y192144D01*
X104500Y247000D02*
X105812D01*
X105156D01*
Y250936D01*
X104500Y250280D01*
X107780Y250936D02*
Y247000D01*
Y248312D01*
X110404Y250936D01*
X108436Y248968D01*
X110404Y247000D01*
X171000Y234000D02*
X172312D01*
X171656D01*
Y237936D01*
X171000Y237280D01*
X174280Y237936D02*
Y234000D01*
Y235312D01*
X176904Y237936D01*
X174936Y235968D01*
X176904Y234000D01*
X139000Y208500D02*
Y211649D01*
X140574D01*
X141099Y211124D01*
Y210074D01*
X140574Y209549D01*
X139000D01*
X142149Y208500D02*
Y211649D01*
X143723D01*
X144248Y211124D01*
Y210074D01*
X143723Y209549D01*
X142149D01*
X143198D02*
X144248Y208500D01*
X147396Y211649D02*
X145297D01*
Y208500D01*
X147396D01*
X145297Y210074D02*
X146347D01*
X150545Y211124D02*
X150020Y211649D01*
X148970D01*
X148446Y211124D01*
Y210599D01*
X148970Y210074D01*
X150020D01*
X150545Y209549D01*
Y209025D01*
X150020Y208500D01*
X148970D01*
X148446Y209025D01*
X153693Y211649D02*
X151594D01*
Y208500D01*
X153693D01*
X151594Y210074D02*
X152644D01*
X154743Y211649D02*
X156842D01*
X155792D01*
Y208500D01*
X173500Y180329D02*
Y176000D01*
X175665D01*
X176386Y176722D01*
Y177443D01*
X175665Y178165D01*
X173500D01*
X175665D01*
X176386Y178886D01*
Y179608D01*
X175665Y180329D01*
X173500D01*
X180716Y179608D02*
X179994Y180329D01*
X178551D01*
X177829Y179608D01*
Y176722D01*
X178551Y176000D01*
X179994D01*
X180716Y176722D01*
X185045Y180329D02*
X182159D01*
Y178165D01*
X183602Y178886D01*
X184323D01*
X185045Y178165D01*
Y176722D01*
X184323Y176000D01*
X182880D01*
X182159Y176722D01*
X188653Y176000D02*
Y180329D01*
X186488Y178165D01*
X189374D01*
X190817Y180329D02*
X193703D01*
Y179608D01*
X190817Y176722D01*
Y176000D01*
X140000Y215000D02*
X141574D01*
X140787D01*
Y219723D01*
X140000Y218936D01*
X143936D02*
X144723Y219723D01*
X146297D01*
X147084Y218936D01*
Y215787D01*
X146297Y215000D01*
X144723D01*
X143936Y215787D01*
Y218936D01*
X148659D02*
X149446Y219723D01*
X151020D01*
X151807Y218936D01*
Y215787D01*
X151020Y215000D01*
X149446D01*
X148659Y215787D01*
Y218936D01*
X153382Y219723D02*
Y215000D01*
Y216574D01*
X156530Y219723D01*
X154169Y217361D01*
X156530Y215000D01*
X136883Y178500D02*
X142000D01*
Y181911D01*
X136883Y183616D02*
X142000D01*
Y186175D01*
X141147Y187027D01*
X137736D01*
X136883Y186175D01*
Y183616D01*
X142000Y188733D02*
X136883D01*
Y191291D01*
X137736Y192144D01*
X139442D01*
X140295Y191291D01*
Y188733D01*
Y190438D02*
X142000Y192144D01*
X171000Y247000D02*
X172312D01*
X171656D01*
Y250936D01*
X171000Y250280D01*
X174280Y250936D02*
Y247000D01*
Y248312D01*
X176904Y250936D01*
X174936Y248968D01*
X176904Y247000D01*
X237500Y234000D02*
X238812D01*
X238156D01*
Y237936D01*
X237500Y237280D01*
X240780Y237936D02*
Y234000D01*
Y235312D01*
X243404Y237936D01*
X241436Y235968D01*
X243404Y234000D01*
X205500Y208500D02*
Y211649D01*
X207074D01*
X207599Y211124D01*
Y210074D01*
X207074Y209549D01*
X205500D01*
X208649Y208500D02*
Y211649D01*
X210223D01*
X210748Y211124D01*
Y210074D01*
X210223Y209549D01*
X208649D01*
X209698D02*
X210748Y208500D01*
X213896Y211649D02*
X211797D01*
Y208500D01*
X213896D01*
X211797Y210074D02*
X212847D01*
X217045Y211124D02*
X216520Y211649D01*
X215471D01*
X214946Y211124D01*
Y210599D01*
X215471Y210074D01*
X216520D01*
X217045Y209549D01*
Y209025D01*
X216520Y208500D01*
X215471D01*
X214946Y209025D01*
X220193Y211649D02*
X218094D01*
Y208500D01*
X220193D01*
X218094Y210074D02*
X219144D01*
X221243Y211649D02*
X223342D01*
X222292D01*
Y208500D01*
X240000Y180329D02*
Y176000D01*
X242165D01*
X242886Y176722D01*
Y177443D01*
X242165Y178165D01*
X240000D01*
X242165D01*
X242886Y178886D01*
Y179608D01*
X242165Y180329D01*
X240000D01*
X247216Y179608D02*
X246494Y180329D01*
X245051D01*
X244329Y179608D01*
Y176722D01*
X245051Y176000D01*
X246494D01*
X247216Y176722D01*
X251545Y180329D02*
X248659D01*
Y178165D01*
X250102Y178886D01*
X250823D01*
X251545Y178165D01*
Y176722D01*
X250823Y176000D01*
X249380D01*
X248659Y176722D01*
X255153Y176000D02*
Y180329D01*
X252988Y178165D01*
X255874D01*
X257317Y180329D02*
X260204D01*
Y179608D01*
X257317Y176722D01*
Y176000D01*
X206500Y215000D02*
X208074D01*
X207287D01*
Y219723D01*
X206500Y218936D01*
X210436D02*
X211223Y219723D01*
X212797D01*
X213584Y218936D01*
Y215787D01*
X212797Y215000D01*
X211223D01*
X210436Y215787D01*
Y218936D01*
X215159D02*
X215946Y219723D01*
X217520D01*
X218307Y218936D01*
Y215787D01*
X217520Y215000D01*
X215946D01*
X215159Y215787D01*
Y218936D01*
X219882Y219723D02*
Y215000D01*
Y216574D01*
X223030Y219723D01*
X220669Y217361D01*
X223030Y215000D01*
X203383Y178500D02*
X208500D01*
Y181911D01*
X203383Y183616D02*
X208500D01*
Y186175D01*
X207647Y187027D01*
X204236D01*
X203383Y186175D01*
Y183616D01*
X208500Y188733D02*
X203383D01*
Y191291D01*
X204236Y192144D01*
X205942D01*
X206795Y191291D01*
Y188733D01*
Y190438D02*
X208500Y192144D01*
X237500Y247000D02*
X238812D01*
X238156D01*
Y250936D01*
X237500Y250280D01*
X240780Y250936D02*
Y247000D01*
Y248312D01*
X243404Y250936D01*
X241436Y248968D01*
X243404Y247000D01*
X374000Y234000D02*
X375312D01*
X374656D01*
Y237936D01*
X374000Y237280D01*
X377280Y237936D02*
Y234000D01*
Y235312D01*
X379904Y237936D01*
X377936Y235968D01*
X379904Y234000D01*
X342000Y208500D02*
Y211649D01*
X343574D01*
X344099Y211124D01*
Y210074D01*
X343574Y209549D01*
X342000D01*
X345149Y208500D02*
Y211649D01*
X346723D01*
X347248Y211124D01*
Y210074D01*
X346723Y209549D01*
X345149D01*
X346198D02*
X347248Y208500D01*
X350396Y211649D02*
X348297D01*
Y208500D01*
X350396D01*
X348297Y210074D02*
X349347D01*
X353545Y211124D02*
X353020Y211649D01*
X351971D01*
X351446Y211124D01*
Y210599D01*
X351971Y210074D01*
X353020D01*
X353545Y209549D01*
Y209025D01*
X353020Y208500D01*
X351971D01*
X351446Y209025D01*
X356693Y211649D02*
X354594D01*
Y208500D01*
X356693D01*
X354594Y210074D02*
X355644D01*
X357743Y211649D02*
X359842D01*
X358792D01*
Y208500D01*
X376500Y180329D02*
Y176000D01*
X378665D01*
X379386Y176722D01*
Y177443D01*
X378665Y178165D01*
X376500D01*
X378665D01*
X379386Y178886D01*
Y179608D01*
X378665Y180329D01*
X376500D01*
X383716Y179608D02*
X382994Y180329D01*
X381551D01*
X380829Y179608D01*
Y176722D01*
X381551Y176000D01*
X382994D01*
X383716Y176722D01*
X388045Y180329D02*
X385159D01*
Y178165D01*
X386602Y178886D01*
X387323D01*
X388045Y178165D01*
Y176722D01*
X387323Y176000D01*
X385880D01*
X385159Y176722D01*
X391653Y176000D02*
Y180329D01*
X389488Y178165D01*
X392374D01*
X393817Y180329D02*
X396704D01*
Y179608D01*
X393817Y176722D01*
Y176000D01*
X343000Y215000D02*
X344574D01*
X343787D01*
Y219723D01*
X343000Y218936D01*
X346936D02*
X347723Y219723D01*
X349297D01*
X350084Y218936D01*
Y215787D01*
X349297Y215000D01*
X347723D01*
X346936Y215787D01*
Y218936D01*
X351659D02*
X352446Y219723D01*
X354020D01*
X354807Y218936D01*
Y215787D01*
X354020Y215000D01*
X352446D01*
X351659Y215787D01*
Y218936D01*
X356382Y219723D02*
Y215000D01*
Y216574D01*
X359530Y219723D01*
X357169Y217361D01*
X359530Y215000D01*
X339883Y178500D02*
X345000D01*
Y181911D01*
X339883Y183616D02*
X345000D01*
Y186175D01*
X344147Y187027D01*
X340736D01*
X339883Y186175D01*
Y183616D01*
X345000Y188733D02*
X339883D01*
Y191291D01*
X340736Y192144D01*
X342442D01*
X343295Y191291D01*
Y188733D01*
Y190438D02*
X345000Y192144D01*
X374000Y247000D02*
X375312D01*
X374656D01*
Y250936D01*
X374000Y250280D01*
X377280Y250936D02*
Y247000D01*
Y248312D01*
X379904Y250936D01*
X377936Y248968D01*
X379904Y247000D01*
X306000Y234000D02*
X307312D01*
X306656D01*
Y237936D01*
X306000Y237280D01*
X309280Y237936D02*
Y234000D01*
Y235312D01*
X311904Y237936D01*
X309936Y235968D01*
X311904Y234000D01*
X274000Y208500D02*
Y211649D01*
X275574D01*
X276099Y211124D01*
Y210074D01*
X275574Y209549D01*
X274000D01*
X277149Y208500D02*
Y211649D01*
X278723D01*
X279248Y211124D01*
Y210074D01*
X278723Y209549D01*
X277149D01*
X278198D02*
X279248Y208500D01*
X282396Y211649D02*
X280297D01*
Y208500D01*
X282396D01*
X280297Y210074D02*
X281347D01*
X285545Y211124D02*
X285020Y211649D01*
X283970D01*
X283446Y211124D01*
Y210599D01*
X283970Y210074D01*
X285020D01*
X285545Y209549D01*
Y209025D01*
X285020Y208500D01*
X283970D01*
X283446Y209025D01*
X288693Y211649D02*
X286594D01*
Y208500D01*
X288693D01*
X286594Y210074D02*
X287644D01*
X289743Y211649D02*
X291842D01*
X290792D01*
Y208500D01*
X308500Y180329D02*
Y176000D01*
X310665D01*
X311386Y176722D01*
Y177443D01*
X310665Y178165D01*
X308500D01*
X310665D01*
X311386Y178886D01*
Y179608D01*
X310665Y180329D01*
X308500D01*
X315716Y179608D02*
X314994Y180329D01*
X313551D01*
X312829Y179608D01*
Y176722D01*
X313551Y176000D01*
X314994D01*
X315716Y176722D01*
X320045Y180329D02*
X317159D01*
Y178165D01*
X318602Y178886D01*
X319323D01*
X320045Y178165D01*
Y176722D01*
X319323Y176000D01*
X317880D01*
X317159Y176722D01*
X323653Y176000D02*
Y180329D01*
X321488Y178165D01*
X324374D01*
X325817Y180329D02*
X328703D01*
Y179608D01*
X325817Y176722D01*
Y176000D01*
X275000Y215000D02*
X276574D01*
X275787D01*
Y219723D01*
X275000Y218936D01*
X278936D02*
X279723Y219723D01*
X281297D01*
X282084Y218936D01*
Y215787D01*
X281297Y215000D01*
X279723D01*
X278936Y215787D01*
Y218936D01*
X283659D02*
X284446Y219723D01*
X286020D01*
X286807Y218936D01*
Y215787D01*
X286020Y215000D01*
X284446D01*
X283659Y215787D01*
Y218936D01*
X288382Y219723D02*
Y215000D01*
Y216574D01*
X291530Y219723D01*
X289169Y217361D01*
X291530Y215000D01*
X271884Y178500D02*
X277000D01*
Y181911D01*
X271884Y183616D02*
X277000D01*
Y186175D01*
X276147Y187027D01*
X272736D01*
X271884Y186175D01*
Y183616D01*
X277000Y188733D02*
X271884D01*
Y191291D01*
X272736Y192144D01*
X274442D01*
X275294Y191291D01*
Y188733D01*
Y190438D02*
X277000Y192144D01*
X306000Y247000D02*
X307312D01*
X306656D01*
Y250936D01*
X306000Y250280D01*
X309280Y250936D02*
Y247000D01*
Y248312D01*
X311904Y250936D01*
X309936Y248968D01*
X311904Y247000D01*
X37500Y159500D02*
X38812D01*
X38156D01*
Y163436D01*
X37500Y162780D01*
X40780Y163436D02*
Y159500D01*
Y160812D01*
X43404Y163436D01*
X41436Y161468D01*
X43404Y159500D01*
X3384Y91000D02*
X8500D01*
Y94411D01*
X3384Y96117D02*
X8500D01*
Y98675D01*
X7647Y99527D01*
X4236D01*
X3384Y98675D01*
Y96117D01*
X8500Y101233D02*
X3384D01*
Y103791D01*
X4236Y104644D01*
X5942D01*
X6795Y103791D01*
Y101233D01*
Y102938D02*
X8500Y104644D01*
X6500Y127500D02*
X8074D01*
X7287D01*
Y132223D01*
X6500Y131436D01*
X10436D02*
X11223Y132223D01*
X12797D01*
X13584Y131436D01*
Y128287D01*
X12797Y127500D01*
X11223D01*
X10436Y128287D01*
Y131436D01*
X15159D02*
X15946Y132223D01*
X17520D01*
X18307Y131436D01*
Y128287D01*
X17520Y127500D01*
X15946D01*
X15159Y128287D01*
Y131436D01*
X19882Y132223D02*
Y127500D01*
Y129074D01*
X23030Y132223D01*
X20669Y129861D01*
X23030Y127500D01*
X40000Y92829D02*
Y88500D01*
X42165D01*
X42886Y89222D01*
Y89943D01*
X42165Y90665D01*
X40000D01*
X42165D01*
X42886Y91386D01*
Y92108D01*
X42165Y92829D01*
X40000D01*
X47216Y92108D02*
X46494Y92829D01*
X45051D01*
X44329Y92108D01*
Y89222D01*
X45051Y88500D01*
X46494D01*
X47216Y89222D01*
X51545Y92829D02*
X48659D01*
Y90665D01*
X50102Y91386D01*
X50823D01*
X51545Y90665D01*
Y89222D01*
X50823Y88500D01*
X49380D01*
X48659Y89222D01*
X55153Y88500D02*
Y92829D01*
X52988Y90665D01*
X55874D01*
X57317Y92829D02*
X60203D01*
Y92108D01*
X57317Y89222D01*
Y88500D01*
X5500Y121000D02*
Y124149D01*
X7074D01*
X7599Y123624D01*
Y122574D01*
X7074Y122049D01*
X5500D01*
X8649Y121000D02*
Y124149D01*
X10223D01*
X10748Y123624D01*
Y122574D01*
X10223Y122049D01*
X8649D01*
X9698D02*
X10748Y121000D01*
X13896Y124149D02*
X11797D01*
Y121000D01*
X13896D01*
X11797Y122574D02*
X12847D01*
X17045Y123624D02*
X16520Y124149D01*
X15471D01*
X14946Y123624D01*
Y123099D01*
X15471Y122574D01*
X16520D01*
X17045Y122049D01*
Y121525D01*
X16520Y121000D01*
X15471D01*
X14946Y121525D01*
X20193Y124149D02*
X18094D01*
Y121000D01*
X20193D01*
X18094Y122574D02*
X19144D01*
X21243Y124149D02*
X23342D01*
X22293D01*
Y121000D01*
X37500Y146500D02*
X38812D01*
X38156D01*
Y150436D01*
X37500Y149780D01*
X40780Y150436D02*
Y146500D01*
Y147812D01*
X43404Y150436D01*
X41436Y148468D01*
X43404Y146500D01*
X104500D02*
X105812D01*
X105156D01*
Y150436D01*
X104500Y149780D01*
X107780Y150436D02*
Y146500D01*
Y147812D01*
X110404Y150436D01*
X108436Y148468D01*
X110404Y146500D01*
X72500Y121000D02*
Y124149D01*
X74074D01*
X74599Y123624D01*
Y122574D01*
X74074Y122049D01*
X72500D01*
X75649Y121000D02*
Y124149D01*
X77223D01*
X77748Y123624D01*
Y122574D01*
X77223Y122049D01*
X75649D01*
X76698D02*
X77748Y121000D01*
X80896Y124149D02*
X78797D01*
Y121000D01*
X80896D01*
X78797Y122574D02*
X79847D01*
X84045Y123624D02*
X83520Y124149D01*
X82471D01*
X81946Y123624D01*
Y123099D01*
X82471Y122574D01*
X83520D01*
X84045Y122049D01*
Y121525D01*
X83520Y121000D01*
X82471D01*
X81946Y121525D01*
X87193Y124149D02*
X85094D01*
Y121000D01*
X87193D01*
X85094Y122574D02*
X86144D01*
X88243Y124149D02*
X90342D01*
X89293D01*
Y121000D01*
X107000Y92829D02*
Y88500D01*
X109165D01*
X109886Y89222D01*
Y89943D01*
X109165Y90665D01*
X107000D01*
X109165D01*
X109886Y91386D01*
Y92108D01*
X109165Y92829D01*
X107000D01*
X114216Y92108D02*
X113494Y92829D01*
X112051D01*
X111329Y92108D01*
Y89222D01*
X112051Y88500D01*
X113494D01*
X114216Y89222D01*
X118545Y92829D02*
X115659D01*
Y90665D01*
X117102Y91386D01*
X117823D01*
X118545Y90665D01*
Y89222D01*
X117823Y88500D01*
X116380D01*
X115659Y89222D01*
X122153Y88500D02*
Y92829D01*
X119988Y90665D01*
X122874D01*
X124317Y92829D02*
X127203D01*
Y92108D01*
X124317Y89222D01*
Y88500D01*
X73500Y127500D02*
X75074D01*
X74287D01*
Y132223D01*
X73500Y131436D01*
X77436D02*
X78223Y132223D01*
X79797D01*
X80584Y131436D01*
Y128287D01*
X79797Y127500D01*
X78223D01*
X77436Y128287D01*
Y131436D01*
X82159D02*
X82946Y132223D01*
X84520D01*
X85307Y131436D01*
Y128287D01*
X84520Y127500D01*
X82946D01*
X82159Y128287D01*
Y131436D01*
X86882Y132223D02*
Y127500D01*
Y129074D01*
X90030Y132223D01*
X87669Y129861D01*
X90030Y127500D01*
X70384Y91000D02*
X75500D01*
Y94411D01*
X70384Y96117D02*
X75500D01*
Y98675D01*
X74647Y99527D01*
X71236D01*
X70384Y98675D01*
Y96117D01*
X75500Y101233D02*
X70384D01*
Y103791D01*
X71236Y104644D01*
X72942D01*
X73795Y103791D01*
Y101233D01*
Y102938D02*
X75500Y104644D01*
X104500Y159500D02*
X105812D01*
X105156D01*
Y163436D01*
X104500Y162780D01*
X107780Y163436D02*
Y159500D01*
Y160812D01*
X110404Y163436D01*
X108436Y161468D01*
X110404Y159500D01*
X171000Y146500D02*
X172312D01*
X171656D01*
Y150436D01*
X171000Y149780D01*
X174280Y150436D02*
Y146500D01*
Y147812D01*
X176904Y150436D01*
X174936Y148468D01*
X176904Y146500D01*
X139000Y121000D02*
Y124149D01*
X140574D01*
X141099Y123624D01*
Y122574D01*
X140574Y122049D01*
X139000D01*
X142149Y121000D02*
Y124149D01*
X143723D01*
X144248Y123624D01*
Y122574D01*
X143723Y122049D01*
X142149D01*
X143198D02*
X144248Y121000D01*
X147396Y124149D02*
X145297D01*
Y121000D01*
X147396D01*
X145297Y122574D02*
X146347D01*
X150545Y123624D02*
X150020Y124149D01*
X148970D01*
X148446Y123624D01*
Y123099D01*
X148970Y122574D01*
X150020D01*
X150545Y122049D01*
Y121525D01*
X150020Y121000D01*
X148970D01*
X148446Y121525D01*
X153693Y124149D02*
X151594D01*
Y121000D01*
X153693D01*
X151594Y122574D02*
X152644D01*
X154743Y124149D02*
X156842D01*
X155792D01*
Y121000D01*
X173500Y92829D02*
Y88500D01*
X175665D01*
X176386Y89222D01*
Y89943D01*
X175665Y90665D01*
X173500D01*
X175665D01*
X176386Y91386D01*
Y92108D01*
X175665Y92829D01*
X173500D01*
X180716Y92108D02*
X179994Y92829D01*
X178551D01*
X177829Y92108D01*
Y89222D01*
X178551Y88500D01*
X179994D01*
X180716Y89222D01*
X185045Y92829D02*
X182159D01*
Y90665D01*
X183602Y91386D01*
X184323D01*
X185045Y90665D01*
Y89222D01*
X184323Y88500D01*
X182880D01*
X182159Y89222D01*
X188653Y88500D02*
Y92829D01*
X186488Y90665D01*
X189374D01*
X190817Y92829D02*
X193703D01*
Y92108D01*
X190817Y89222D01*
Y88500D01*
X140000Y127500D02*
X141574D01*
X140787D01*
Y132223D01*
X140000Y131436D01*
X143936D02*
X144723Y132223D01*
X146297D01*
X147084Y131436D01*
Y128287D01*
X146297Y127500D01*
X144723D01*
X143936Y128287D01*
Y131436D01*
X148659D02*
X149446Y132223D01*
X151020D01*
X151807Y131436D01*
Y128287D01*
X151020Y127500D01*
X149446D01*
X148659Y128287D01*
Y131436D01*
X153382Y132223D02*
Y127500D01*
Y129074D01*
X156530Y132223D01*
X154169Y129861D01*
X156530Y127500D01*
X136883Y91000D02*
X142000D01*
Y94411D01*
X136883Y96117D02*
X142000D01*
Y98675D01*
X141147Y99527D01*
X137736D01*
X136883Y98675D01*
Y96117D01*
X142000Y101233D02*
X136883D01*
Y103791D01*
X137736Y104644D01*
X139442D01*
X140295Y103791D01*
Y101233D01*
Y102938D02*
X142000Y104644D01*
X171000Y159500D02*
X172312D01*
X171656D01*
Y163436D01*
X171000Y162780D01*
X174280Y163436D02*
Y159500D01*
Y160812D01*
X176904Y163436D01*
X174936Y161468D01*
X176904Y159500D01*
X237500Y146500D02*
X238812D01*
X238156D01*
Y150436D01*
X237500Y149780D01*
X240780Y150436D02*
Y146500D01*
Y147812D01*
X243404Y150436D01*
X241436Y148468D01*
X243404Y146500D01*
X205500Y121000D02*
Y124149D01*
X207074D01*
X207599Y123624D01*
Y122574D01*
X207074Y122049D01*
X205500D01*
X208649Y121000D02*
Y124149D01*
X210223D01*
X210748Y123624D01*
Y122574D01*
X210223Y122049D01*
X208649D01*
X209698D02*
X210748Y121000D01*
X213896Y124149D02*
X211797D01*
Y121000D01*
X213896D01*
X211797Y122574D02*
X212847D01*
X217045Y123624D02*
X216520Y124149D01*
X215471D01*
X214946Y123624D01*
Y123099D01*
X215471Y122574D01*
X216520D01*
X217045Y122049D01*
Y121525D01*
X216520Y121000D01*
X215471D01*
X214946Y121525D01*
X220193Y124149D02*
X218094D01*
Y121000D01*
X220193D01*
X218094Y122574D02*
X219144D01*
X221243Y124149D02*
X223342D01*
X222292D01*
Y121000D01*
X240000Y92829D02*
Y88500D01*
X242165D01*
X242886Y89222D01*
Y89943D01*
X242165Y90665D01*
X240000D01*
X242165D01*
X242886Y91386D01*
Y92108D01*
X242165Y92829D01*
X240000D01*
X247216Y92108D02*
X246494Y92829D01*
X245051D01*
X244329Y92108D01*
Y89222D01*
X245051Y88500D01*
X246494D01*
X247216Y89222D01*
X251545Y92829D02*
X248659D01*
Y90665D01*
X250102Y91386D01*
X250823D01*
X251545Y90665D01*
Y89222D01*
X250823Y88500D01*
X249380D01*
X248659Y89222D01*
X255153Y88500D02*
Y92829D01*
X252988Y90665D01*
X255874D01*
X257317Y92829D02*
X260204D01*
Y92108D01*
X257317Y89222D01*
Y88500D01*
X206500Y127500D02*
X208074D01*
X207287D01*
Y132223D01*
X206500Y131436D01*
X210436D02*
X211223Y132223D01*
X212797D01*
X213584Y131436D01*
Y128287D01*
X212797Y127500D01*
X211223D01*
X210436Y128287D01*
Y131436D01*
X215159D02*
X215946Y132223D01*
X217520D01*
X218307Y131436D01*
Y128287D01*
X217520Y127500D01*
X215946D01*
X215159Y128287D01*
Y131436D01*
X219882Y132223D02*
Y127500D01*
Y129074D01*
X223030Y132223D01*
X220669Y129861D01*
X223030Y127500D01*
X203383Y91000D02*
X208500D01*
Y94411D01*
X203383Y96117D02*
X208500D01*
Y98675D01*
X207647Y99527D01*
X204236D01*
X203383Y98675D01*
Y96117D01*
X208500Y101233D02*
X203383D01*
Y103791D01*
X204236Y104644D01*
X205942D01*
X206795Y103791D01*
Y101233D01*
Y102938D02*
X208500Y104644D01*
X237500Y159500D02*
X238812D01*
X238156D01*
Y163436D01*
X237500Y162780D01*
X240780Y163436D02*
Y159500D01*
Y160812D01*
X243404Y163436D01*
X241436Y161468D01*
X243404Y159500D01*
X374000Y146500D02*
X375312D01*
X374656D01*
Y150436D01*
X374000Y149780D01*
X377280Y150436D02*
Y146500D01*
Y147812D01*
X379904Y150436D01*
X377936Y148468D01*
X379904Y146500D01*
X342000Y121000D02*
Y124149D01*
X343574D01*
X344099Y123624D01*
Y122574D01*
X343574Y122049D01*
X342000D01*
X345149Y121000D02*
Y124149D01*
X346723D01*
X347248Y123624D01*
Y122574D01*
X346723Y122049D01*
X345149D01*
X346198D02*
X347248Y121000D01*
X350396Y124149D02*
X348297D01*
Y121000D01*
X350396D01*
X348297Y122574D02*
X349347D01*
X353545Y123624D02*
X353020Y124149D01*
X351971D01*
X351446Y123624D01*
Y123099D01*
X351971Y122574D01*
X353020D01*
X353545Y122049D01*
Y121525D01*
X353020Y121000D01*
X351971D01*
X351446Y121525D01*
X356693Y124149D02*
X354594D01*
Y121000D01*
X356693D01*
X354594Y122574D02*
X355644D01*
X357743Y124149D02*
X359842D01*
X358792D01*
Y121000D01*
X376500Y92829D02*
Y88500D01*
X378665D01*
X379386Y89222D01*
Y89943D01*
X378665Y90665D01*
X376500D01*
X378665D01*
X379386Y91386D01*
Y92108D01*
X378665Y92829D01*
X376500D01*
X383716Y92108D02*
X382994Y92829D01*
X381551D01*
X380829Y92108D01*
Y89222D01*
X381551Y88500D01*
X382994D01*
X383716Y89222D01*
X388045Y92829D02*
X385159D01*
Y90665D01*
X386602Y91386D01*
X387323D01*
X388045Y90665D01*
Y89222D01*
X387323Y88500D01*
X385880D01*
X385159Y89222D01*
X391653Y88500D02*
Y92829D01*
X389488Y90665D01*
X392374D01*
X393817Y92829D02*
X396704D01*
Y92108D01*
X393817Y89222D01*
Y88500D01*
X343000Y127500D02*
X344574D01*
X343787D01*
Y132223D01*
X343000Y131436D01*
X346936D02*
X347723Y132223D01*
X349297D01*
X350084Y131436D01*
Y128287D01*
X349297Y127500D01*
X347723D01*
X346936Y128287D01*
Y131436D01*
X351659D02*
X352446Y132223D01*
X354020D01*
X354807Y131436D01*
Y128287D01*
X354020Y127500D01*
X352446D01*
X351659Y128287D01*
Y131436D01*
X356382Y132223D02*
Y127500D01*
Y129074D01*
X359530Y132223D01*
X357169Y129861D01*
X359530Y127500D01*
X339883Y91000D02*
X345000D01*
Y94411D01*
X339883Y96117D02*
X345000D01*
Y98675D01*
X344147Y99527D01*
X340736D01*
X339883Y98675D01*
Y96117D01*
X345000Y101233D02*
X339883D01*
Y103791D01*
X340736Y104644D01*
X342442D01*
X343295Y103791D01*
Y101233D01*
Y102938D02*
X345000Y104644D01*
X374000Y159500D02*
X375312D01*
X374656D01*
Y163436D01*
X374000Y162780D01*
X377280Y163436D02*
Y159500D01*
Y160812D01*
X379904Y163436D01*
X377936Y161468D01*
X379904Y159500D01*
X306000Y146500D02*
X307312D01*
X306656D01*
Y150436D01*
X306000Y149780D01*
X309280Y150436D02*
Y146500D01*
Y147812D01*
X311904Y150436D01*
X309936Y148468D01*
X311904Y146500D01*
X274000Y121000D02*
Y124149D01*
X275574D01*
X276099Y123624D01*
Y122574D01*
X275574Y122049D01*
X274000D01*
X277149Y121000D02*
Y124149D01*
X278723D01*
X279248Y123624D01*
Y122574D01*
X278723Y122049D01*
X277149D01*
X278198D02*
X279248Y121000D01*
X282396Y124149D02*
X280297D01*
Y121000D01*
X282396D01*
X280297Y122574D02*
X281347D01*
X285545Y123624D02*
X285020Y124149D01*
X283970D01*
X283446Y123624D01*
Y123099D01*
X283970Y122574D01*
X285020D01*
X285545Y122049D01*
Y121525D01*
X285020Y121000D01*
X283970D01*
X283446Y121525D01*
X288693Y124149D02*
X286594D01*
Y121000D01*
X288693D01*
X286594Y122574D02*
X287644D01*
X289743Y124149D02*
X291842D01*
X290792D01*
Y121000D01*
X308500Y92829D02*
Y88500D01*
X310665D01*
X311386Y89222D01*
Y89943D01*
X310665Y90665D01*
X308500D01*
X310665D01*
X311386Y91386D01*
Y92108D01*
X310665Y92829D01*
X308500D01*
X315716Y92108D02*
X314994Y92829D01*
X313551D01*
X312829Y92108D01*
Y89222D01*
X313551Y88500D01*
X314994D01*
X315716Y89222D01*
X320045Y92829D02*
X317159D01*
Y90665D01*
X318602Y91386D01*
X319323D01*
X320045Y90665D01*
Y89222D01*
X319323Y88500D01*
X317880D01*
X317159Y89222D01*
X323653Y88500D02*
Y92829D01*
X321488Y90665D01*
X324374D01*
X325817Y92829D02*
X328703D01*
Y92108D01*
X325817Y89222D01*
Y88500D01*
X275000Y127500D02*
X276574D01*
X275787D01*
Y132223D01*
X275000Y131436D01*
X278936D02*
X279723Y132223D01*
X281297D01*
X282084Y131436D01*
Y128287D01*
X281297Y127500D01*
X279723D01*
X278936Y128287D01*
Y131436D01*
X283659D02*
X284446Y132223D01*
X286020D01*
X286807Y131436D01*
Y128287D01*
X286020Y127500D01*
X284446D01*
X283659Y128287D01*
Y131436D01*
X288382Y132223D02*
Y127500D01*
Y129074D01*
X291530Y132223D01*
X289169Y129861D01*
X291530Y127500D01*
X271884Y91000D02*
X277000D01*
Y94411D01*
X271884Y96117D02*
X277000D01*
Y98675D01*
X276147Y99527D01*
X272736D01*
X271884Y98675D01*
Y96117D01*
X277000Y101233D02*
X271884D01*
Y103791D01*
X272736Y104644D01*
X274442D01*
X275294Y103791D01*
Y101233D01*
Y102938D02*
X277000Y104644D01*
X306000Y159500D02*
X307312D01*
X306656D01*
Y163436D01*
X306000Y162780D01*
X309280Y163436D02*
Y159500D01*
Y160812D01*
X311904Y163436D01*
X309936Y161468D01*
X311904Y159500D01*
X306000Y74000D02*
X307312D01*
X306656D01*
Y77936D01*
X306000Y77280D01*
X309280Y77936D02*
Y74000D01*
Y75312D01*
X311904Y77936D01*
X309936Y75968D01*
X311904Y74000D01*
X271884Y5500D02*
X277000D01*
Y8911D01*
X271884Y10616D02*
X277000D01*
Y13175D01*
X276147Y14027D01*
X272736D01*
X271884Y13175D01*
Y10616D01*
X277000Y15733D02*
X271884D01*
Y18291D01*
X272736Y19144D01*
X274442D01*
X275294Y18291D01*
Y15733D01*
Y17438D02*
X277000Y19144D01*
X275000Y42000D02*
X276574D01*
X275787D01*
Y46723D01*
X275000Y45936D01*
X278936D02*
X279723Y46723D01*
X281297D01*
X282084Y45936D01*
Y42787D01*
X281297Y42000D01*
X279723D01*
X278936Y42787D01*
Y45936D01*
X283659D02*
X284446Y46723D01*
X286020D01*
X286807Y45936D01*
Y42787D01*
X286020Y42000D01*
X284446D01*
X283659Y42787D01*
Y45936D01*
X288382Y46723D02*
Y42000D01*
Y43574D01*
X291530Y46723D01*
X289169Y44361D01*
X291530Y42000D01*
X308500Y7329D02*
Y3000D01*
X310665D01*
X311386Y3721D01*
Y4443D01*
X310665Y5165D01*
X308500D01*
X310665D01*
X311386Y5886D01*
Y6608D01*
X310665Y7329D01*
X308500D01*
X315716Y6608D02*
X314994Y7329D01*
X313551D01*
X312829Y6608D01*
Y3721D01*
X313551Y3000D01*
X314994D01*
X315716Y3721D01*
X320045Y7329D02*
X317159D01*
Y5165D01*
X318602Y5886D01*
X319323D01*
X320045Y5165D01*
Y3721D01*
X319323Y3000D01*
X317880D01*
X317159Y3721D01*
X323653Y3000D02*
Y7329D01*
X321488Y5165D01*
X324374D01*
X325817Y7329D02*
X328703D01*
Y6608D01*
X325817Y3721D01*
Y3000D01*
X274000Y35500D02*
Y38649D01*
X275574D01*
X276099Y38124D01*
Y37074D01*
X275574Y36549D01*
X274000D01*
X277149Y35500D02*
Y38649D01*
X278723D01*
X279248Y38124D01*
Y37074D01*
X278723Y36549D01*
X277149D01*
X278198D02*
X279248Y35500D01*
X282396Y38649D02*
X280297D01*
Y35500D01*
X282396D01*
X280297Y37074D02*
X281347D01*
X285545Y38124D02*
X285020Y38649D01*
X283970D01*
X283446Y38124D01*
Y37599D01*
X283970Y37074D01*
X285020D01*
X285545Y36549D01*
Y36025D01*
X285020Y35500D01*
X283970D01*
X283446Y36025D01*
X288693Y38649D02*
X286594D01*
Y35500D01*
X288693D01*
X286594Y37074D02*
X287644D01*
X289743Y38649D02*
X291842D01*
X290792D01*
Y35500D01*
X306000Y61000D02*
X307312D01*
X306656D01*
Y64936D01*
X306000Y64280D01*
X309280Y64936D02*
Y61000D01*
Y62312D01*
X311904Y64936D01*
X309936Y62968D01*
X311904Y61000D01*
X374000Y74000D02*
X375312D01*
X374656D01*
Y77936D01*
X374000Y77280D01*
X377280Y77936D02*
Y74000D01*
Y75312D01*
X379904Y77936D01*
X377936Y75968D01*
X379904Y74000D01*
X339883Y5500D02*
X345000D01*
Y8911D01*
X339883Y10616D02*
X345000D01*
Y13175D01*
X344147Y14027D01*
X340736D01*
X339883Y13175D01*
Y10616D01*
X345000Y15733D02*
X339883D01*
Y18291D01*
X340736Y19144D01*
X342442D01*
X343295Y18291D01*
Y15733D01*
Y17438D02*
X345000Y19144D01*
X343000Y42000D02*
X344574D01*
X343787D01*
Y46723D01*
X343000Y45936D01*
X346936D02*
X347723Y46723D01*
X349297D01*
X350084Y45936D01*
Y42787D01*
X349297Y42000D01*
X347723D01*
X346936Y42787D01*
Y45936D01*
X351659D02*
X352446Y46723D01*
X354020D01*
X354807Y45936D01*
Y42787D01*
X354020Y42000D01*
X352446D01*
X351659Y42787D01*
Y45936D01*
X356382Y46723D02*
Y42000D01*
Y43574D01*
X359530Y46723D01*
X357169Y44361D01*
X359530Y42000D01*
X376500Y7329D02*
Y3000D01*
X378665D01*
X379386Y3721D01*
Y4443D01*
X378665Y5165D01*
X376500D01*
X378665D01*
X379386Y5886D01*
Y6608D01*
X378665Y7329D01*
X376500D01*
X383716Y6608D02*
X382994Y7329D01*
X381551D01*
X380829Y6608D01*
Y3721D01*
X381551Y3000D01*
X382994D01*
X383716Y3721D01*
X388045Y7329D02*
X385159D01*
Y5165D01*
X386602Y5886D01*
X387323D01*
X388045Y5165D01*
Y3721D01*
X387323Y3000D01*
X385880D01*
X385159Y3721D01*
X391653Y3000D02*
Y7329D01*
X389488Y5165D01*
X392374D01*
X393817Y7329D02*
X396704D01*
Y6608D01*
X393817Y3721D01*
Y3000D01*
X342000Y35500D02*
Y38649D01*
X343574D01*
X344099Y38124D01*
Y37074D01*
X343574Y36549D01*
X342000D01*
X345149Y35500D02*
Y38649D01*
X346723D01*
X347248Y38124D01*
Y37074D01*
X346723Y36549D01*
X345149D01*
X346198D02*
X347248Y35500D01*
X350396Y38649D02*
X348297D01*
Y35500D01*
X350396D01*
X348297Y37074D02*
X349347D01*
X353545Y38124D02*
X353020Y38649D01*
X351971D01*
X351446Y38124D01*
Y37599D01*
X351971Y37074D01*
X353020D01*
X353545Y36549D01*
Y36025D01*
X353020Y35500D01*
X351971D01*
X351446Y36025D01*
X356693Y38649D02*
X354594D01*
Y35500D01*
X356693D01*
X354594Y37074D02*
X355644D01*
X357743Y38649D02*
X359842D01*
X358792D01*
Y35500D01*
X374000Y61000D02*
X375312D01*
X374656D01*
Y64936D01*
X374000Y64280D01*
X377280Y64936D02*
Y61000D01*
Y62312D01*
X379904Y64936D01*
X377936Y62968D01*
X379904Y61000D01*
X237500Y74000D02*
X238812D01*
X238156D01*
Y77936D01*
X237500Y77280D01*
X240780Y77936D02*
Y74000D01*
Y75312D01*
X243404Y77936D01*
X241436Y75968D01*
X243404Y74000D01*
X203383Y5500D02*
X208500D01*
Y8911D01*
X203383Y10616D02*
X208500D01*
Y13175D01*
X207647Y14027D01*
X204236D01*
X203383Y13175D01*
Y10616D01*
X208500Y15733D02*
X203383D01*
Y18291D01*
X204236Y19144D01*
X205942D01*
X206795Y18291D01*
Y15733D01*
Y17438D02*
X208500Y19144D01*
X206500Y42000D02*
X208074D01*
X207287D01*
Y46723D01*
X206500Y45936D01*
X210436D02*
X211223Y46723D01*
X212797D01*
X213584Y45936D01*
Y42787D01*
X212797Y42000D01*
X211223D01*
X210436Y42787D01*
Y45936D01*
X215159D02*
X215946Y46723D01*
X217520D01*
X218307Y45936D01*
Y42787D01*
X217520Y42000D01*
X215946D01*
X215159Y42787D01*
Y45936D01*
X219882Y46723D02*
Y42000D01*
Y43574D01*
X223030Y46723D01*
X220669Y44361D01*
X223030Y42000D01*
X240000Y7329D02*
Y3000D01*
X242165D01*
X242886Y3721D01*
Y4443D01*
X242165Y5165D01*
X240000D01*
X242165D01*
X242886Y5886D01*
Y6608D01*
X242165Y7329D01*
X240000D01*
X247216Y6608D02*
X246494Y7329D01*
X245051D01*
X244329Y6608D01*
Y3721D01*
X245051Y3000D01*
X246494D01*
X247216Y3721D01*
X251545Y7329D02*
X248659D01*
Y5165D01*
X250102Y5886D01*
X250823D01*
X251545Y5165D01*
Y3721D01*
X250823Y3000D01*
X249380D01*
X248659Y3721D01*
X255153Y3000D02*
Y7329D01*
X252988Y5165D01*
X255874D01*
X257317Y7329D02*
X260204D01*
Y6608D01*
X257317Y3721D01*
Y3000D01*
X205500Y35500D02*
Y38649D01*
X207074D01*
X207599Y38124D01*
Y37074D01*
X207074Y36549D01*
X205500D01*
X208649Y35500D02*
Y38649D01*
X210223D01*
X210748Y38124D01*
Y37074D01*
X210223Y36549D01*
X208649D01*
X209698D02*
X210748Y35500D01*
X213896Y38649D02*
X211797D01*
Y35500D01*
X213896D01*
X211797Y37074D02*
X212847D01*
X217045Y38124D02*
X216520Y38649D01*
X215471D01*
X214946Y38124D01*
Y37599D01*
X215471Y37074D01*
X216520D01*
X217045Y36549D01*
Y36025D01*
X216520Y35500D01*
X215471D01*
X214946Y36025D01*
X220193Y38649D02*
X218094D01*
Y35500D01*
X220193D01*
X218094Y37074D02*
X219144D01*
X221243Y38649D02*
X223342D01*
X222292D01*
Y35500D01*
X237500Y61000D02*
X238812D01*
X238156D01*
Y64936D01*
X237500Y64280D01*
X240780Y64936D02*
Y61000D01*
Y62312D01*
X243404Y64936D01*
X241436Y62968D01*
X243404Y61000D01*
X171000Y74000D02*
X172312D01*
X171656D01*
Y77936D01*
X171000Y77280D01*
X174280Y77936D02*
Y74000D01*
Y75312D01*
X176904Y77936D01*
X174936Y75968D01*
X176904Y74000D01*
X136883Y5500D02*
X142000D01*
Y8911D01*
X136883Y10616D02*
X142000D01*
Y13175D01*
X141147Y14027D01*
X137736D01*
X136883Y13175D01*
Y10616D01*
X142000Y15733D02*
X136883D01*
Y18291D01*
X137736Y19144D01*
X139442D01*
X140295Y18291D01*
Y15733D01*
Y17438D02*
X142000Y19144D01*
X140000Y42000D02*
X141574D01*
X140787D01*
Y46723D01*
X140000Y45936D01*
X143936D02*
X144723Y46723D01*
X146297D01*
X147084Y45936D01*
Y42787D01*
X146297Y42000D01*
X144723D01*
X143936Y42787D01*
Y45936D01*
X148659D02*
X149446Y46723D01*
X151020D01*
X151807Y45936D01*
Y42787D01*
X151020Y42000D01*
X149446D01*
X148659Y42787D01*
Y45936D01*
X153382Y46723D02*
Y42000D01*
Y43574D01*
X156530Y46723D01*
X154169Y44361D01*
X156530Y42000D01*
X173500Y7329D02*
Y3000D01*
X175665D01*
X176386Y3721D01*
Y4443D01*
X175665Y5165D01*
X173500D01*
X175665D01*
X176386Y5886D01*
Y6608D01*
X175665Y7329D01*
X173500D01*
X180716Y6608D02*
X179994Y7329D01*
X178551D01*
X177829Y6608D01*
Y3721D01*
X178551Y3000D01*
X179994D01*
X180716Y3721D01*
X185045Y7329D02*
X182159D01*
Y5165D01*
X183602Y5886D01*
X184323D01*
X185045Y5165D01*
Y3721D01*
X184323Y3000D01*
X182880D01*
X182159Y3721D01*
X188653Y3000D02*
Y7329D01*
X186488Y5165D01*
X189374D01*
X190817Y7329D02*
X193703D01*
Y6608D01*
X190817Y3721D01*
Y3000D01*
X139000Y35500D02*
Y38649D01*
X140574D01*
X141099Y38124D01*
Y37074D01*
X140574Y36549D01*
X139000D01*
X142149Y35500D02*
Y38649D01*
X143723D01*
X144248Y38124D01*
Y37074D01*
X143723Y36549D01*
X142149D01*
X143198D02*
X144248Y35500D01*
X147396Y38649D02*
X145297D01*
Y35500D01*
X147396D01*
X145297Y37074D02*
X146347D01*
X150545Y38124D02*
X150020Y38649D01*
X148970D01*
X148446Y38124D01*
Y37599D01*
X148970Y37074D01*
X150020D01*
X150545Y36549D01*
Y36025D01*
X150020Y35500D01*
X148970D01*
X148446Y36025D01*
X153693Y38649D02*
X151594D01*
Y35500D01*
X153693D01*
X151594Y37074D02*
X152644D01*
X154743Y38649D02*
X156842D01*
X155792D01*
Y35500D01*
X171000Y61000D02*
X172312D01*
X171656D01*
Y64936D01*
X171000Y64280D01*
X174280Y64936D02*
Y61000D01*
Y62312D01*
X176904Y64936D01*
X174936Y62968D01*
X176904Y61000D01*
X104500Y74000D02*
X105812D01*
X105156D01*
Y77936D01*
X104500Y77280D01*
X107780Y77936D02*
Y74000D01*
Y75312D01*
X110404Y77936D01*
X108436Y75968D01*
X110404Y74000D01*
X70384Y5500D02*
X75500D01*
Y8911D01*
X70384Y10616D02*
X75500D01*
Y13175D01*
X74647Y14027D01*
X71236D01*
X70384Y13175D01*
Y10616D01*
X75500Y15733D02*
X70384D01*
Y18291D01*
X71236Y19144D01*
X72942D01*
X73795Y18291D01*
Y15733D01*
Y17438D02*
X75500Y19144D01*
X73500Y42000D02*
X75074D01*
X74287D01*
Y46723D01*
X73500Y45936D01*
X77436D02*
X78223Y46723D01*
X79797D01*
X80584Y45936D01*
Y42787D01*
X79797Y42000D01*
X78223D01*
X77436Y42787D01*
Y45936D01*
X82159D02*
X82946Y46723D01*
X84520D01*
X85307Y45936D01*
Y42787D01*
X84520Y42000D01*
X82946D01*
X82159Y42787D01*
Y45936D01*
X86882Y46723D02*
Y42000D01*
Y43574D01*
X90030Y46723D01*
X87669Y44361D01*
X90030Y42000D01*
X107000Y7329D02*
Y3000D01*
X109165D01*
X109886Y3721D01*
Y4443D01*
X109165Y5165D01*
X107000D01*
X109165D01*
X109886Y5886D01*
Y6608D01*
X109165Y7329D01*
X107000D01*
X114216Y6608D02*
X113494Y7329D01*
X112051D01*
X111329Y6608D01*
Y3721D01*
X112051Y3000D01*
X113494D01*
X114216Y3721D01*
X118545Y7329D02*
X115659D01*
Y5165D01*
X117102Y5886D01*
X117823D01*
X118545Y5165D01*
Y3721D01*
X117823Y3000D01*
X116380D01*
X115659Y3721D01*
X122153Y3000D02*
Y7329D01*
X119988Y5165D01*
X122874D01*
X124317Y7329D02*
X127203D01*
Y6608D01*
X124317Y3721D01*
Y3000D01*
X72500Y35500D02*
Y38649D01*
X74074D01*
X74599Y38124D01*
Y37074D01*
X74074Y36549D01*
X72500D01*
X75649Y35500D02*
Y38649D01*
X77223D01*
X77748Y38124D01*
Y37074D01*
X77223Y36549D01*
X75649D01*
X76698D02*
X77748Y35500D01*
X80896Y38649D02*
X78797D01*
Y35500D01*
X80896D01*
X78797Y37074D02*
X79847D01*
X84045Y38124D02*
X83520Y38649D01*
X82471D01*
X81946Y38124D01*
Y37599D01*
X82471Y37074D01*
X83520D01*
X84045Y36549D01*
Y36025D01*
X83520Y35500D01*
X82471D01*
X81946Y36025D01*
X87193Y38649D02*
X85094D01*
Y35500D01*
X87193D01*
X85094Y37074D02*
X86144D01*
X88243Y38649D02*
X90342D01*
X89293D01*
Y35500D01*
X104500Y61000D02*
X105812D01*
X105156D01*
Y64936D01*
X104500Y64280D01*
X107780Y64936D02*
Y61000D01*
Y62312D01*
X110404Y64936D01*
X108436Y62968D01*
X110404Y61000D01*
X37500D02*
X38812D01*
X38156D01*
Y64936D01*
X37500Y64280D01*
X40780Y64936D02*
Y61000D01*
Y62312D01*
X43404Y64936D01*
X41436Y62968D01*
X43404Y61000D01*
X5500Y35500D02*
Y38649D01*
X7074D01*
X7599Y38124D01*
Y37074D01*
X7074Y36549D01*
X5500D01*
X8649Y35500D02*
Y38649D01*
X10223D01*
X10748Y38124D01*
Y37074D01*
X10223Y36549D01*
X8649D01*
X9698D02*
X10748Y35500D01*
X13896Y38649D02*
X11797D01*
Y35500D01*
X13896D01*
X11797Y37074D02*
X12847D01*
X17045Y38124D02*
X16520Y38649D01*
X15471D01*
X14946Y38124D01*
Y37599D01*
X15471Y37074D01*
X16520D01*
X17045Y36549D01*
Y36025D01*
X16520Y35500D01*
X15471D01*
X14946Y36025D01*
X20193Y38649D02*
X18094D01*
Y35500D01*
X20193D01*
X18094Y37074D02*
X19144D01*
X21243Y38649D02*
X23342D01*
X22293D01*
Y35500D01*
X40000Y7329D02*
Y3000D01*
X42165D01*
X42886Y3721D01*
Y4443D01*
X42165Y5165D01*
X40000D01*
X42165D01*
X42886Y5886D01*
Y6608D01*
X42165Y7329D01*
X40000D01*
X47216Y6608D02*
X46494Y7329D01*
X45051D01*
X44329Y6608D01*
Y3721D01*
X45051Y3000D01*
X46494D01*
X47216Y3721D01*
X51545Y7329D02*
X48659D01*
Y5165D01*
X50102Y5886D01*
X50823D01*
X51545Y5165D01*
Y3721D01*
X50823Y3000D01*
X49380D01*
X48659Y3721D01*
X55153Y3000D02*
Y7329D01*
X52988Y5165D01*
X55874D01*
X57317Y7329D02*
X60203D01*
Y6608D01*
X57317Y3721D01*
Y3000D01*
X6500Y42000D02*
X8074D01*
X7287D01*
Y46723D01*
X6500Y45936D01*
X10436D02*
X11223Y46723D01*
X12797D01*
X13584Y45936D01*
Y42787D01*
X12797Y42000D01*
X11223D01*
X10436Y42787D01*
Y45936D01*
X15159D02*
X15946Y46723D01*
X17520D01*
X18307Y45936D01*
Y42787D01*
X17520Y42000D01*
X15946D01*
X15159Y42787D01*
Y45936D01*
X19882Y46723D02*
Y42000D01*
Y43574D01*
X23030Y46723D01*
X20669Y44361D01*
X23030Y42000D01*
X3384Y5500D02*
X8500D01*
Y8911D01*
X3384Y10616D02*
X8500D01*
Y13175D01*
X7647Y14027D01*
X4236D01*
X3384Y13175D01*
Y10616D01*
X8500Y15733D02*
X3384D01*
Y18291D01*
X4236Y19144D01*
X5942D01*
X6795Y18291D01*
Y15733D01*
Y17438D02*
X8500Y19144D01*
X37500Y74000D02*
X38812D01*
X38156D01*
Y77936D01*
X37500Y77280D01*
X40780Y77936D02*
Y74000D01*
Y75312D01*
X43404Y77936D01*
X41436Y75968D01*
X43404Y74000D01*
D25*
X288041Y350072D02*
G03*
X271536Y355276I-10041J-3070D01*
G01*
Y338724D02*
G03*
X288041Y343928I6464J8274D01*
G01*
X288541Y280572D02*
G03*
X272036Y285776I-10041J-3070D01*
G01*
Y269224D02*
G03*
X288541Y274428I6464J8274D01*
G01*
X200041Y349572D02*
G03*
X183536Y354776I-10041J-3070D01*
G01*
Y338224D02*
G03*
X200041Y343428I6464J8274D01*
G01*
X200541Y280072D02*
G03*
X184036Y285276I-10041J-3070D01*
G01*
Y268724D02*
G03*
X200541Y273928I6464J8274D01*
G01*
X113541Y349572D02*
G03*
X97036Y354776I-10041J-3070D01*
G01*
Y338224D02*
G03*
X113541Y343428I6464J8274D01*
G01*
X114041Y280072D02*
G03*
X97536Y285276I-10041J-3070D01*
G01*
Y268724D02*
G03*
X114041Y273928I6464J8274D01*
G01*
X27041Y349572D02*
G03*
X10536Y354776I-10041J-3070D01*
G01*
Y338224D02*
G03*
X27041Y343428I6464J8274D01*
G01*
X27541Y280072D02*
G03*
X11036Y285276I-10041J-3070D01*
G01*
Y268724D02*
G03*
X27541Y273928I6464J8274D01*
G01*
X46428Y198041D02*
G03*
X41224Y181536I3070J-10041D01*
G01*
X57776D02*
G03*
X52572Y198041I-8274J6464D01*
G01*
X113428D02*
G03*
X108224Y181536I3070J-10041D01*
G01*
X124776D02*
G03*
X119572Y198041I-8274J6464D01*
G01*
X179928D02*
G03*
X174724Y181536I3070J-10041D01*
G01*
X191276D02*
G03*
X186072Y198041I-8274J6464D01*
G01*
X246428D02*
G03*
X241224Y181536I3070J-10041D01*
G01*
X257776D02*
G03*
X252572Y198041I-8274J6464D01*
G01*
X382928D02*
G03*
X377724Y181536I3070J-10041D01*
G01*
X394276D02*
G03*
X389072Y198041I-8274J6464D01*
G01*
X314928D02*
G03*
X309724Y181536I3070J-10041D01*
G01*
X326276D02*
G03*
X321072Y198041I-8274J6464D01*
G01*
X46428Y110541D02*
G03*
X41224Y94036I3070J-10041D01*
G01*
X57776D02*
G03*
X52572Y110541I-8274J6464D01*
G01*
X113428D02*
G03*
X108224Y94036I3070J-10041D01*
G01*
X124776D02*
G03*
X119572Y110541I-8274J6464D01*
G01*
X179928D02*
G03*
X174724Y94036I3070J-10041D01*
G01*
X191276D02*
G03*
X186072Y110541I-8274J6464D01*
G01*
X246428D02*
G03*
X241224Y94036I3070J-10041D01*
G01*
X257776D02*
G03*
X252572Y110541I-8274J6464D01*
G01*
X382928D02*
G03*
X377724Y94036I3070J-10041D01*
G01*
X394276D02*
G03*
X389072Y110541I-8274J6464D01*
G01*
X314928D02*
G03*
X309724Y94036I3070J-10041D01*
G01*
X326276D02*
G03*
X321072Y110541I-8274J6464D01*
G01*
X314928Y25041D02*
G03*
X309724Y8536I3070J-10041D01*
G01*
X326276D02*
G03*
X321072Y25041I-8274J6464D01*
G01*
X382928D02*
G03*
X377724Y8536I3070J-10041D01*
G01*
X394276D02*
G03*
X389072Y25041I-8274J6464D01*
G01*
X246428D02*
G03*
X241224Y8536I3070J-10041D01*
G01*
X257776D02*
G03*
X252572Y25041I-8274J6464D01*
G01*
X179928D02*
G03*
X174724Y8536I3070J-10041D01*
G01*
X191276D02*
G03*
X186072Y25041I-8274J6464D01*
G01*
X113428D02*
G03*
X108224Y8536I3070J-10041D01*
G01*
X124776D02*
G03*
X119572Y25041I-8274J6464D01*
G01*
X46428D02*
G03*
X41224Y8536I3070J-10041D01*
G01*
X57776D02*
G03*
X52572Y25041I-8274J6464D01*
G01*
X271500Y338752D02*
Y355248D01*
X277000Y355874D02*
Y357453D01*
Y345874D02*
Y348126D01*
Y336547D02*
Y338126D01*
X272000Y269252D02*
Y285748D01*
X277500Y286374D02*
Y287953D01*
Y276374D02*
Y278626D01*
Y267047D02*
Y268626D01*
X183500Y338252D02*
Y354748D01*
X189000Y355374D02*
Y356953D01*
Y345374D02*
Y347626D01*
Y336047D02*
Y337626D01*
X184000Y268752D02*
Y285248D01*
X189500Y285874D02*
Y287453D01*
Y275874D02*
Y278126D01*
Y266547D02*
Y268126D01*
X97000Y338252D02*
Y354748D01*
X102500Y355374D02*
Y356953D01*
Y345374D02*
Y347626D01*
Y336047D02*
Y337626D01*
X97500Y268752D02*
Y285248D01*
X103000Y285874D02*
Y287453D01*
Y275874D02*
Y278126D01*
Y266547D02*
Y268126D01*
X10500Y338252D02*
Y354748D01*
X16000Y355374D02*
Y356953D01*
Y345374D02*
Y347626D01*
Y336047D02*
Y337626D01*
X11000Y268752D02*
Y285248D01*
X16500Y285874D02*
Y287453D01*
Y275874D02*
Y278126D01*
Y266547D02*
Y268126D01*
X41252Y181500D02*
X57748D01*
X39047Y187000D02*
X40626D01*
X48374D02*
X50626D01*
X58374D02*
X59953D01*
X108252Y181500D02*
X124748D01*
X106047Y187000D02*
X107626D01*
X115374D02*
X117626D01*
X125374D02*
X126953D01*
X174752Y181500D02*
X191248D01*
X172547Y187000D02*
X174126D01*
X181874D02*
X184126D01*
X191874D02*
X193453D01*
X241252Y181500D02*
X257748D01*
X239047Y187000D02*
X240626D01*
X248374D02*
X250626D01*
X258374D02*
X259953D01*
X377752Y181500D02*
X394248D01*
X375547Y187000D02*
X377126D01*
X384874D02*
X387126D01*
X394874D02*
X396453D01*
X309752Y181500D02*
X326248D01*
X307547Y187000D02*
X309126D01*
X316874D02*
X319126D01*
X326874D02*
X328453D01*
X41252Y94000D02*
X57748D01*
X39047Y99500D02*
X40626D01*
X48374D02*
X50626D01*
X58374D02*
X59953D01*
X108252Y94000D02*
X124748D01*
X106047Y99500D02*
X107626D01*
X115374D02*
X117626D01*
X125374D02*
X126953D01*
X174752Y94000D02*
X191248D01*
X172547Y99500D02*
X174126D01*
X181874D02*
X184126D01*
X191874D02*
X193453D01*
X241252Y94000D02*
X257748D01*
X239047Y99500D02*
X240626D01*
X248374D02*
X250626D01*
X258374D02*
X259953D01*
X377752Y94000D02*
X394248D01*
X375547Y99500D02*
X377126D01*
X384874D02*
X387126D01*
X394874D02*
X396453D01*
X309752Y94000D02*
X326248D01*
X307547Y99500D02*
X309126D01*
X316874D02*
X319126D01*
X326874D02*
X328453D01*
X309752Y8500D02*
X326248D01*
X307547Y14000D02*
X309126D01*
X316874D02*
X319126D01*
X326874D02*
X328453D01*
X377752Y8500D02*
X394248D01*
X375547Y14000D02*
X377126D01*
X384874D02*
X387126D01*
X394874D02*
X396453D01*
X241252Y8500D02*
X257748D01*
X239047Y14000D02*
X240626D01*
X248374D02*
X250626D01*
X258374D02*
X259953D01*
X174752Y8500D02*
X191248D01*
X172547Y14000D02*
X174126D01*
X181874D02*
X184126D01*
X191874D02*
X193453D01*
X108252Y8500D02*
X124748D01*
X106047Y14000D02*
X107626D01*
X115374D02*
X117626D01*
X125374D02*
X126953D01*
X41252Y8500D02*
X57748D01*
X39047Y14000D02*
X40626D01*
X48374D02*
X50626D01*
X58374D02*
X59953D01*
D26*
X286933Y376000D02*
G03*
X286933Y376000I-10433J0D01*
G01*
X313433Y352500D02*
G03*
X313433Y352500I-10433J0D01*
G01*
X313933Y283000D02*
G03*
X313933Y283000I-10433J0D01*
G01*
X287433Y306500D02*
G03*
X287433Y306500I-10433J0D01*
G01*
X198933Y375500D02*
G03*
X198933Y375500I-10433J0D01*
G01*
X225433Y352000D02*
G03*
X225433Y352000I-10433J0D01*
G01*
X225933Y282500D02*
G03*
X225933Y282500I-10433J0D01*
G01*
X199433Y306000D02*
G03*
X199433Y306000I-10433J0D01*
G01*
X112433Y375500D02*
G03*
X112433Y375500I-10433J0D01*
G01*
X138933Y352000D02*
G03*
X138933Y352000I-10433J0D01*
G01*
X139433Y282500D02*
G03*
X139433Y282500I-10433J0D01*
G01*
X112933Y306000D02*
G03*
X112933Y306000I-10433J0D01*
G01*
X25933Y375500D02*
G03*
X25933Y375500I-10433J0D01*
G01*
X52433Y352000D02*
G03*
X52433Y352000I-10433J0D01*
G01*
X52933Y282500D02*
G03*
X52933Y282500I-10433J0D01*
G01*
X26433Y306000D02*
G03*
X26433Y306000I-10433J0D01*
G01*
X30933Y186500D02*
G03*
X30933Y186500I-10433J0D01*
G01*
X54433Y213000D02*
G03*
X54433Y213000I-10433J0D01*
G01*
X121433D02*
G03*
X121433Y213000I-10433J0D01*
G01*
X97933Y186500D02*
G03*
X97933Y186500I-10433J0D01*
G01*
X187933Y213000D02*
G03*
X187933Y213000I-10433J0D01*
G01*
X164433Y186500D02*
G03*
X164433Y186500I-10433J0D01*
G01*
X254433Y213000D02*
G03*
X254433Y213000I-10433J0D01*
G01*
X230933Y186500D02*
G03*
X230933Y186500I-10433J0D01*
G01*
X390933Y213000D02*
G03*
X390933Y213000I-10433J0D01*
G01*
X367433Y186500D02*
G03*
X367433Y186500I-10433J0D01*
G01*
X322933Y213000D02*
G03*
X322933Y213000I-10433J0D01*
G01*
X299433Y186500D02*
G03*
X299433Y186500I-10433J0D01*
G01*
X30933Y99000D02*
G03*
X30933Y99000I-10433J0D01*
G01*
X54433Y125500D02*
G03*
X54433Y125500I-10433J0D01*
G01*
X121433D02*
G03*
X121433Y125500I-10433J0D01*
G01*
X97933Y99000D02*
G03*
X97933Y99000I-10433J0D01*
G01*
X187933Y125500D02*
G03*
X187933Y125500I-10433J0D01*
G01*
X164433Y99000D02*
G03*
X164433Y99000I-10433J0D01*
G01*
X254433Y125500D02*
G03*
X254433Y125500I-10433J0D01*
G01*
X230933Y99000D02*
G03*
X230933Y99000I-10433J0D01*
G01*
X390933Y125500D02*
G03*
X390933Y125500I-10433J0D01*
G01*
X367433Y99000D02*
G03*
X367433Y99000I-10433J0D01*
G01*
X322933Y125500D02*
G03*
X322933Y125500I-10433J0D01*
G01*
X299433Y99000D02*
G03*
X299433Y99000I-10433J0D01*
G01*
Y13500D02*
G03*
X299433Y13500I-10433J0D01*
G01*
X322933Y40000D02*
G03*
X322933Y40000I-10433J0D01*
G01*
X367433Y13500D02*
G03*
X367433Y13500I-10433J0D01*
G01*
X390933Y40000D02*
G03*
X390933Y40000I-10433J0D01*
G01*
X230933Y13500D02*
G03*
X230933Y13500I-10433J0D01*
G01*
X254433Y40000D02*
G03*
X254433Y40000I-10433J0D01*
G01*
X164433Y13500D02*
G03*
X164433Y13500I-10433J0D01*
G01*
X187933Y40000D02*
G03*
X187933Y40000I-10433J0D01*
G01*
X97933Y13500D02*
G03*
X97933Y13500I-10433J0D01*
G01*
X121433Y40000D02*
G03*
X121433Y40000I-10433J0D01*
G01*
X54433D02*
G03*
X54433Y40000I-10433J0D01*
G01*
X30933Y13500D02*
G03*
X30933Y13500I-10433J0D01*
G01*
X285000Y367500D02*
X290500Y362000D01*
X281000Y364500D02*
X287000Y358500D01*
X285000Y367500D02*
X288000D01*
X285000Y365000D02*
Y367500D01*
X281000Y364500D02*
X283500D01*
X281000Y362000D02*
Y364500D01*
X318000Y339000D02*
Y341500D01*
X315500Y339000D02*
X318000D01*
X314000Y336000D02*
Y338500D01*
X311000Y336000D02*
X314000D01*
X312000Y345000D02*
X318000Y339000D01*
X308500Y341500D02*
X314000Y336000D01*
X264500Y395000D02*
X344500D01*
X264500Y333000D02*
Y395000D01*
Y333000D02*
X344500D01*
Y395000D01*
X345000Y263500D02*
Y325500D01*
X265000Y263500D02*
X345000D01*
X265000D02*
Y325500D01*
X345000D01*
X309000Y272000D02*
X314500Y266500D01*
X312500Y275500D02*
X318500Y269500D01*
X311500Y266500D02*
X314500D01*
Y269000D01*
X316000Y269500D02*
X318500D01*
Y272000D01*
X281500Y292500D02*
Y295000D01*
X284000D01*
X285500Y295500D02*
Y298000D01*
X288500D01*
X281500Y295000D02*
X287500Y289000D01*
X285500Y298000D02*
X291000Y292500D01*
X197000Y367000D02*
X202500Y361500D01*
X193000Y364000D02*
X199000Y358000D01*
X197000Y367000D02*
X200000D01*
X197000Y364500D02*
Y367000D01*
X193000Y364000D02*
X195500D01*
X193000Y361500D02*
Y364000D01*
X230000Y338500D02*
Y341000D01*
X227500Y338500D02*
X230000D01*
X226000Y335500D02*
Y338000D01*
X223000Y335500D02*
X226000D01*
X224000Y344500D02*
X230000Y338500D01*
X220500Y341000D02*
X226000Y335500D01*
X176500Y394500D02*
X256500D01*
X176500Y332500D02*
Y394500D01*
Y332500D02*
X256500D01*
Y394500D01*
X257000Y263000D02*
Y325000D01*
X177000Y263000D02*
X257000D01*
X177000D02*
Y325000D01*
X257000D01*
X221000Y271500D02*
X226500Y266000D01*
X224500Y275000D02*
X230500Y269000D01*
X223500Y266000D02*
X226500D01*
Y268500D01*
X228000Y269000D02*
X230500D01*
Y271500D01*
X193500Y292000D02*
Y294500D01*
X196000D01*
X197500Y295000D02*
Y297500D01*
X200500D01*
X193500Y294500D02*
X199500Y288500D01*
X197500Y297500D02*
X203000Y292000D01*
X110500Y367000D02*
X116000Y361500D01*
X106500Y364000D02*
X112500Y358000D01*
X110500Y367000D02*
X113500D01*
X110500Y364500D02*
Y367000D01*
X106500Y364000D02*
X109000D01*
X106500Y361500D02*
Y364000D01*
X143500Y338500D02*
Y341000D01*
X141000Y338500D02*
X143500D01*
X139500Y335500D02*
Y338000D01*
X136500Y335500D02*
X139500D01*
X137500Y344500D02*
X143500Y338500D01*
X134000Y341000D02*
X139500Y335500D01*
X90000Y394500D02*
X170000D01*
X90000Y332500D02*
Y394500D01*
Y332500D02*
X170000D01*
Y394500D01*
X170500Y263000D02*
Y325000D01*
X90500Y263000D02*
X170500D01*
X90500D02*
Y325000D01*
X170500D01*
X134500Y271500D02*
X140000Y266000D01*
X138000Y275000D02*
X144000Y269000D01*
X137000Y266000D02*
X140000D01*
Y268500D01*
X141500Y269000D02*
X144000D01*
Y271500D01*
X107000Y292000D02*
Y294500D01*
X109500D01*
X111000Y295000D02*
Y297500D01*
X114000D01*
X107000Y294500D02*
X113000Y288500D01*
X111000Y297500D02*
X116500Y292000D01*
X24000Y367000D02*
X29500Y361500D01*
X20000Y364000D02*
X26000Y358000D01*
X24000Y367000D02*
X27000D01*
X24000Y364500D02*
Y367000D01*
X20000Y364000D02*
X22500D01*
X20000Y361500D02*
Y364000D01*
X57000Y338500D02*
Y341000D01*
X54500Y338500D02*
X57000D01*
X53000Y335500D02*
Y338000D01*
X50000Y335500D02*
X53000D01*
X51000Y344500D02*
X57000Y338500D01*
X47500Y341000D02*
X53000Y335500D01*
X3500Y394500D02*
X83500D01*
X3500Y332500D02*
Y394500D01*
Y332500D02*
X83500D01*
Y394500D01*
X84000Y263000D02*
Y325000D01*
X4000Y263000D02*
X84000D01*
X4000D02*
Y325000D01*
X84000D01*
X48000Y271500D02*
X53500Y266000D01*
X51500Y275000D02*
X57500Y269000D01*
X50500Y266000D02*
X53500D01*
Y268500D01*
X55000Y269000D02*
X57500D01*
Y271500D01*
X20500Y292000D02*
Y294500D01*
X23000D01*
X24500Y295000D02*
Y297500D01*
X27500D01*
X20500Y294500D02*
X26500Y288500D01*
X24500Y297500D02*
X30000Y292000D01*
X29000Y195000D02*
X34500Y200500D01*
X32000Y191000D02*
X38000Y197000D01*
X29000Y195000D02*
Y198000D01*
Y195000D02*
X31500D01*
X32000Y191000D02*
Y193500D01*
Y191000D02*
X34500D01*
X55000Y228000D02*
X57500D01*
Y225500D02*
Y228000D01*
X58000Y224000D02*
X60500D01*
Y221000D02*
Y224000D01*
X51500Y222000D02*
X57500Y228000D01*
X55000Y218500D02*
X60500Y224000D01*
X1500Y174500D02*
Y254500D01*
Y174500D02*
X63500D01*
Y254500D01*
X1500D02*
X63500D01*
X68500D02*
X130500D01*
Y174500D02*
Y254500D01*
X68500Y174500D02*
X130500D01*
X68500D02*
Y254500D01*
X122000Y218500D02*
X127500Y224000D01*
X118500Y222000D02*
X124500Y228000D01*
X127500Y221000D02*
Y224000D01*
X125000D02*
X127500D01*
X124500Y225500D02*
Y228000D01*
X122000D02*
X124500D01*
X99000Y191000D02*
X101500D01*
X99000D02*
Y193500D01*
X96000Y195000D02*
X98500D01*
X96000D02*
Y198000D01*
X99000Y191000D02*
X105000Y197000D01*
X96000Y195000D02*
X101500Y200500D01*
X135000Y254500D02*
X197000D01*
Y174500D02*
Y254500D01*
X135000Y174500D02*
X197000D01*
X135000D02*
Y254500D01*
X188500Y218500D02*
X194000Y224000D01*
X185000Y222000D02*
X191000Y228000D01*
X194000Y221000D02*
Y224000D01*
X191500D02*
X194000D01*
X191000Y225500D02*
Y228000D01*
X188500D02*
X191000D01*
X165500Y191000D02*
X168000D01*
X165500D02*
Y193500D01*
X162500Y195000D02*
X165000D01*
X162500D02*
Y198000D01*
X165500Y191000D02*
X171500Y197000D01*
X162500Y195000D02*
X168000Y200500D01*
X201500Y254500D02*
X263500D01*
Y174500D02*
Y254500D01*
X201500Y174500D02*
X263500D01*
X201500D02*
Y254500D01*
X255000Y218500D02*
X260500Y224000D01*
X251500Y222000D02*
X257500Y228000D01*
X260500Y221000D02*
Y224000D01*
X258000D02*
X260500D01*
X257500Y225500D02*
Y228000D01*
X255000D02*
X257500D01*
X232000Y191000D02*
X234500D01*
X232000D02*
Y193500D01*
X229000Y195000D02*
X231500D01*
X229000D02*
Y198000D01*
X232000Y191000D02*
X238000Y197000D01*
X229000Y195000D02*
X234500Y200500D01*
X338000Y254500D02*
X400000D01*
Y174500D02*
Y254500D01*
X338000Y174500D02*
X400000D01*
X338000D02*
Y254500D01*
X391500Y218500D02*
X397000Y224000D01*
X388000Y222000D02*
X394000Y228000D01*
X397000Y221000D02*
Y224000D01*
X394500D02*
X397000D01*
X394000Y225500D02*
Y228000D01*
X391500D02*
X394000D01*
X368500Y191000D02*
X371000D01*
X368500D02*
Y193500D01*
X365500Y195000D02*
X368000D01*
X365500D02*
Y198000D01*
X368500Y191000D02*
X374500Y197000D01*
X365500Y195000D02*
X371000Y200500D01*
X270000Y254500D02*
X332000D01*
Y174500D02*
Y254500D01*
X270000Y174500D02*
X332000D01*
X270000D02*
Y254500D01*
X323500Y218500D02*
X329000Y224000D01*
X320000Y222000D02*
X326000Y228000D01*
X329000Y221000D02*
Y224000D01*
X326500D02*
X329000D01*
X326000Y225500D02*
Y228000D01*
X323500D02*
X326000D01*
X300500Y191000D02*
X303000D01*
X300500D02*
Y193500D01*
X297500Y195000D02*
X300000D01*
X297500D02*
Y198000D01*
X300500Y191000D02*
X306500Y197000D01*
X297500Y195000D02*
X303000Y200500D01*
X29000Y107500D02*
X34500Y113000D01*
X32000Y103500D02*
X38000Y109500D01*
X29000Y107500D02*
Y110500D01*
Y107500D02*
X31500D01*
X32000Y103500D02*
Y106000D01*
Y103500D02*
X34500D01*
X55000Y140500D02*
X57500D01*
Y138000D02*
Y140500D01*
X58000Y136500D02*
X60500D01*
Y133500D02*
Y136500D01*
X51500Y134500D02*
X57500Y140500D01*
X55000Y131000D02*
X60500Y136500D01*
X1500Y87000D02*
Y167000D01*
Y87000D02*
X63500D01*
Y167000D01*
X1500D02*
X63500D01*
X68500D02*
X130500D01*
Y87000D02*
Y167000D01*
X68500Y87000D02*
X130500D01*
X68500D02*
Y167000D01*
X122000Y131000D02*
X127500Y136500D01*
X118500Y134500D02*
X124500Y140500D01*
X127500Y133500D02*
Y136500D01*
X125000D02*
X127500D01*
X124500Y138000D02*
Y140500D01*
X122000D02*
X124500D01*
X99000Y103500D02*
X101500D01*
X99000D02*
Y106000D01*
X96000Y107500D02*
X98500D01*
X96000D02*
Y110500D01*
X99000Y103500D02*
X105000Y109500D01*
X96000Y107500D02*
X101500Y113000D01*
X135000Y167000D02*
X197000D01*
Y87000D02*
Y167000D01*
X135000Y87000D02*
X197000D01*
X135000D02*
Y167000D01*
X188500Y131000D02*
X194000Y136500D01*
X185000Y134500D02*
X191000Y140500D01*
X194000Y133500D02*
Y136500D01*
X191500D02*
X194000D01*
X191000Y138000D02*
Y140500D01*
X188500D02*
X191000D01*
X165500Y103500D02*
X168000D01*
X165500D02*
Y106000D01*
X162500Y107500D02*
X165000D01*
X162500D02*
Y110500D01*
X165500Y103500D02*
X171500Y109500D01*
X162500Y107500D02*
X168000Y113000D01*
X201500Y167000D02*
X263500D01*
Y87000D02*
Y167000D01*
X201500Y87000D02*
X263500D01*
X201500D02*
Y167000D01*
X255000Y131000D02*
X260500Y136500D01*
X251500Y134500D02*
X257500Y140500D01*
X260500Y133500D02*
Y136500D01*
X258000D02*
X260500D01*
X257500Y138000D02*
Y140500D01*
X255000D02*
X257500D01*
X232000Y103500D02*
X234500D01*
X232000D02*
Y106000D01*
X229000Y107500D02*
X231500D01*
X229000D02*
Y110500D01*
X232000Y103500D02*
X238000Y109500D01*
X229000Y107500D02*
X234500Y113000D01*
X338000Y167000D02*
X400000D01*
Y87000D02*
Y167000D01*
X338000Y87000D02*
X400000D01*
X338000D02*
Y167000D01*
X391500Y131000D02*
X397000Y136500D01*
X388000Y134500D02*
X394000Y140500D01*
X397000Y133500D02*
Y136500D01*
X394500D02*
X397000D01*
X394000Y138000D02*
Y140500D01*
X391500D02*
X394000D01*
X368500Y103500D02*
X371000D01*
X368500D02*
Y106000D01*
X365500Y107500D02*
X368000D01*
X365500D02*
Y110500D01*
X368500Y103500D02*
X374500Y109500D01*
X365500Y107500D02*
X371000Y113000D01*
X270000Y167000D02*
X332000D01*
Y87000D02*
Y167000D01*
X270000Y87000D02*
X332000D01*
X270000D02*
Y167000D01*
X323500Y131000D02*
X329000Y136500D01*
X320000Y134500D02*
X326000Y140500D01*
X329000Y133500D02*
Y136500D01*
X326500D02*
X329000D01*
X326000Y138000D02*
Y140500D01*
X323500D02*
X326000D01*
X300500Y103500D02*
X303000D01*
X300500D02*
Y106000D01*
X297500Y107500D02*
X300000D01*
X297500D02*
Y110500D01*
X300500Y103500D02*
X306500Y109500D01*
X297500Y107500D02*
X303000Y113000D01*
X297500Y22000D02*
X303000Y27500D01*
X300500Y18000D02*
X306500Y24000D01*
X297500Y22000D02*
Y25000D01*
Y22000D02*
X300000D01*
X300500Y18000D02*
Y20500D01*
Y18000D02*
X303000D01*
X323500Y55000D02*
X326000D01*
Y52500D02*
Y55000D01*
X326500Y51000D02*
X329000D01*
Y48000D02*
Y51000D01*
X320000Y49000D02*
X326000Y55000D01*
X323500Y45500D02*
X329000Y51000D01*
X270000Y1500D02*
Y81500D01*
Y1500D02*
X332000D01*
Y81500D01*
X270000D02*
X332000D01*
X365500Y22000D02*
X371000Y27500D01*
X368500Y18000D02*
X374500Y24000D01*
X365500Y22000D02*
Y25000D01*
Y22000D02*
X368000D01*
X368500Y18000D02*
Y20500D01*
Y18000D02*
X371000D01*
X391500Y55000D02*
X394000D01*
Y52500D02*
Y55000D01*
X394500Y51000D02*
X397000D01*
Y48000D02*
Y51000D01*
X388000Y49000D02*
X394000Y55000D01*
X391500Y45500D02*
X397000Y51000D01*
X338000Y1500D02*
Y81500D01*
Y1500D02*
X400000D01*
Y81500D01*
X338000D02*
X400000D01*
X229000Y22000D02*
X234500Y27500D01*
X232000Y18000D02*
X238000Y24000D01*
X229000Y22000D02*
Y25000D01*
Y22000D02*
X231500D01*
X232000Y18000D02*
Y20500D01*
Y18000D02*
X234500D01*
X255000Y55000D02*
X257500D01*
Y52500D02*
Y55000D01*
X258000Y51000D02*
X260500D01*
Y48000D02*
Y51000D01*
X251500Y49000D02*
X257500Y55000D01*
X255000Y45500D02*
X260500Y51000D01*
X201500Y1500D02*
Y81500D01*
Y1500D02*
X263500D01*
Y81500D01*
X201500D02*
X263500D01*
X162500Y22000D02*
X168000Y27500D01*
X165500Y18000D02*
X171500Y24000D01*
X162500Y22000D02*
Y25000D01*
Y22000D02*
X165000D01*
X165500Y18000D02*
Y20500D01*
Y18000D02*
X168000D01*
X188500Y55000D02*
X191000D01*
Y52500D02*
Y55000D01*
X191500Y51000D02*
X194000D01*
Y48000D02*
Y51000D01*
X185000Y49000D02*
X191000Y55000D01*
X188500Y45500D02*
X194000Y51000D01*
X135000Y1500D02*
Y81500D01*
Y1500D02*
X197000D01*
Y81500D01*
X135000D02*
X197000D01*
X96000Y22000D02*
X101500Y27500D01*
X99000Y18000D02*
X105000Y24000D01*
X96000Y22000D02*
Y25000D01*
Y22000D02*
X98500D01*
X99000Y18000D02*
Y20500D01*
Y18000D02*
X101500D01*
X122000Y55000D02*
X124500D01*
Y52500D02*
Y55000D01*
X125000Y51000D02*
X127500D01*
Y48000D02*
Y51000D01*
X118500Y49000D02*
X124500Y55000D01*
X122000Y45500D02*
X127500Y51000D01*
X68500Y1500D02*
Y81500D01*
Y1500D02*
X130500D01*
Y81500D01*
X68500D02*
X130500D01*
X1500D02*
X63500D01*
Y1500D02*
Y81500D01*
X1500Y1500D02*
X63500D01*
X1500D02*
Y81500D01*
X55000Y45500D02*
X60500Y51000D01*
X51500Y49000D02*
X57500Y55000D01*
X60500Y48000D02*
Y51000D01*
X58000D02*
X60500D01*
X57500Y52500D02*
Y55000D01*
X55000D02*
X57500D01*
X32000Y18000D02*
X34500D01*
X32000D02*
Y20500D01*
X29000Y22000D02*
X31500D01*
X29000D02*
Y25000D01*
X32000Y18000D02*
X38000Y24000D01*
X29000Y22000D02*
X34500Y27500D01*
X337999Y394000D02*
Y390001D01*
X339998Y392001D02*
X336000D01*
X327558Y394000D02*
Y390589D01*
X319617Y361000D02*
X314500D01*
Y357589D01*
X319617Y352473D02*
Y355884D01*
X314500D01*
Y352473D01*
X317058Y355884D02*
Y354178D01*
X319617Y350767D02*
X314500D01*
Y348209D01*
X315353Y347356D01*
X318764D01*
X319617Y348209D01*
Y350767D01*
X336500Y377213D02*
X335713Y378000D01*
X334139D01*
X333351Y377213D01*
Y374064D01*
X334139Y373277D01*
X335713D01*
X336500Y374064D01*
Y374851D01*
X335713Y375639D01*
X333351D01*
X331777Y373277D02*
Y376426D01*
X330203Y378000D01*
X328628Y376426D01*
Y373277D01*
X308999Y359000D02*
Y355001D01*
X310998Y357001D02*
X307000D01*
X307558Y349000D02*
Y345589D01*
X308058Y279500D02*
Y276089D01*
X309499Y289500D02*
Y285501D01*
X311498Y287501D02*
X307500D01*
X337000Y307713D02*
X336213Y308500D01*
X334639D01*
X333851Y307713D01*
Y304564D01*
X334639Y303777D01*
X336213D01*
X337000Y304564D01*
Y305351D01*
X336213Y306139D01*
X333851D01*
X332277Y303777D02*
Y306926D01*
X330703Y308500D01*
X329129Y306926D01*
Y303777D01*
X320116Y291500D02*
X315000D01*
Y288089D01*
X320116Y282973D02*
Y286384D01*
X315000D01*
Y282973D01*
X317558Y286384D02*
Y284678D01*
X320116Y281267D02*
X315000D01*
Y278709D01*
X315853Y277856D01*
X319264D01*
X320116Y278709D01*
Y281267D01*
X328058Y324500D02*
Y321089D01*
X338499Y324500D02*
Y320501D01*
X340498Y322501D02*
X336500D01*
X249999Y393500D02*
Y389501D01*
X251998Y391501D02*
X248000D01*
X239558Y393500D02*
Y390089D01*
X231616Y360500D02*
X226500D01*
Y357089D01*
X231616Y351973D02*
Y355383D01*
X226500D01*
Y351973D01*
X229058Y355383D02*
Y353678D01*
X231616Y350267D02*
X226500D01*
Y347709D01*
X227353Y346856D01*
X230764D01*
X231616Y347709D01*
Y350267D01*
X248500Y376713D02*
X247713Y377500D01*
X246139D01*
X245351Y376713D01*
Y373564D01*
X246139Y372777D01*
X247713D01*
X248500Y373564D01*
Y374351D01*
X247713Y375139D01*
X245351D01*
X243777Y372777D02*
Y375926D01*
X242203Y377500D01*
X240629Y375926D01*
Y372777D01*
X220999Y358500D02*
Y354501D01*
X222998Y356501D02*
X219000D01*
X219558Y348500D02*
Y345089D01*
X220058Y279000D02*
Y275589D01*
X221499Y289000D02*
Y285001D01*
X223498Y287001D02*
X219500D01*
X249000Y307213D02*
X248213Y308000D01*
X246639D01*
X245851Y307213D01*
Y304064D01*
X246639Y303277D01*
X248213D01*
X249000Y304064D01*
Y304851D01*
X248213Y305639D01*
X245851D01*
X244277Y303277D02*
Y306426D01*
X242703Y308000D01*
X241128Y306426D01*
Y303277D01*
X232117Y291000D02*
X227000D01*
Y287589D01*
X232117Y282473D02*
Y285883D01*
X227000D01*
Y282473D01*
X229558Y285883D02*
Y284178D01*
X232117Y280767D02*
X227000D01*
Y278209D01*
X227853Y277356D01*
X231264D01*
X232117Y278209D01*
Y280767D01*
X240058Y324000D02*
Y320589D01*
X250499Y324000D02*
Y320001D01*
X252498Y322001D02*
X248500D01*
X163499Y393500D02*
Y389501D01*
X165498Y391501D02*
X161500D01*
X153058Y393500D02*
Y390089D01*
X145116Y360500D02*
X140000D01*
Y357089D01*
X145116Y351973D02*
Y355383D01*
X140000D01*
Y351973D01*
X142558Y355383D02*
Y353678D01*
X145116Y350267D02*
X140000D01*
Y347709D01*
X140853Y346856D01*
X144264D01*
X145116Y347709D01*
Y350267D01*
X162000Y376713D02*
X161213Y377500D01*
X159639D01*
X158851Y376713D01*
Y373564D01*
X159639Y372777D01*
X161213D01*
X162000Y373564D01*
Y374351D01*
X161213Y375139D01*
X158851D01*
X157277Y372777D02*
Y375926D01*
X155703Y377500D01*
X154129Y375926D01*
Y372777D01*
X134499Y358500D02*
Y354501D01*
X136498Y356501D02*
X132500D01*
X133058Y348500D02*
Y345089D01*
X133558Y279000D02*
Y275589D01*
X134999Y289000D02*
Y285001D01*
X136998Y287001D02*
X133000D01*
X162500Y307213D02*
X161713Y308000D01*
X160139D01*
X159351Y307213D01*
Y304064D01*
X160139Y303277D01*
X161713D01*
X162500Y304064D01*
Y304851D01*
X161713Y305639D01*
X159351D01*
X157777Y303277D02*
Y306426D01*
X156203Y308000D01*
X154629Y306426D01*
Y303277D01*
X145616Y291000D02*
X140500D01*
Y287589D01*
X145616Y282473D02*
Y285883D01*
X140500D01*
Y282473D01*
X143058Y285883D02*
Y284178D01*
X145616Y280767D02*
X140500D01*
Y278209D01*
X141353Y277356D01*
X144764D01*
X145616Y278209D01*
Y280767D01*
X153558Y324000D02*
Y320589D01*
X163999Y324000D02*
Y320001D01*
X165998Y322001D02*
X162000D01*
X76999Y393500D02*
Y389501D01*
X78998Y391501D02*
X75000D01*
X66558Y393500D02*
Y390089D01*
X58617Y360500D02*
X53500D01*
Y357089D01*
X58617Y351973D02*
Y355383D01*
X53500D01*
Y351973D01*
X56058Y355383D02*
Y353678D01*
X58617Y350267D02*
X53500D01*
Y347709D01*
X54353Y346856D01*
X57764D01*
X58617Y347709D01*
Y350267D01*
X75500Y376713D02*
X74713Y377500D01*
X73139D01*
X72351Y376713D01*
Y373564D01*
X73139Y372777D01*
X74713D01*
X75500Y373564D01*
Y374351D01*
X74713Y375139D01*
X72351D01*
X70777Y372777D02*
Y375926D01*
X69203Y377500D01*
X67629Y375926D01*
Y372777D01*
X47999Y358500D02*
Y354501D01*
X49998Y356501D02*
X46000D01*
X46558Y348500D02*
Y345089D01*
X47058Y279000D02*
Y275589D01*
X48499Y289000D02*
Y285001D01*
X50498Y287001D02*
X46500D01*
X76000Y307213D02*
X75213Y308000D01*
X73639D01*
X72851Y307213D01*
Y304064D01*
X73639Y303277D01*
X75213D01*
X76000Y304064D01*
Y304851D01*
X75213Y305639D01*
X72851D01*
X71277Y303277D02*
Y306426D01*
X69703Y308000D01*
X68129Y306426D01*
Y303277D01*
X59117Y291000D02*
X54000D01*
Y287589D01*
X59117Y282473D02*
Y285883D01*
X54000D01*
Y282473D01*
X56558Y285883D02*
Y284178D01*
X59117Y280767D02*
X54000D01*
Y278209D01*
X54853Y277356D01*
X58264D01*
X59117Y278209D01*
Y280767D01*
X67058Y324000D02*
Y320589D01*
X77499Y324000D02*
Y320001D01*
X79498Y322001D02*
X75500D01*
X2500Y247999D02*
X6499D01*
X4499Y249998D02*
Y246000D01*
X2500Y237558D02*
X5911D01*
X35500Y229616D02*
Y224500D01*
X38911D01*
X44027Y229616D02*
X40617D01*
Y224500D01*
X44027D01*
X40617Y227058D02*
X42322D01*
X45733Y229616D02*
Y224500D01*
X48291D01*
X49144Y225353D01*
Y228764D01*
X48291Y229616D01*
X45733D01*
X19287Y246500D02*
X18500Y245713D01*
Y244139D01*
X19287Y243351D01*
X22436D01*
X23223Y244139D01*
Y245713D01*
X22436Y246500D01*
X21649D01*
X20861Y245713D01*
Y243351D01*
X23223Y241777D02*
X20074D01*
X18500Y240203D01*
X20074Y238629D01*
X23223D01*
X37500Y218999D02*
X41499D01*
X39499Y220998D02*
Y217000D01*
X47500Y217558D02*
X50911D01*
X114500D02*
X117911D01*
X104500Y218999D02*
X108499D01*
X106499Y220998D02*
Y217000D01*
X86287Y246500D02*
X85500Y245713D01*
Y244139D01*
X86287Y243351D01*
X89436D01*
X90223Y244139D01*
Y245713D01*
X89436Y246500D01*
X88649D01*
X87861Y245713D01*
Y243351D01*
X90223Y241777D02*
X87074D01*
X85500Y240203D01*
X87074Y238629D01*
X90223D01*
X102500Y229616D02*
Y224500D01*
X105911D01*
X111027Y229616D02*
X107616D01*
Y224500D01*
X111027D01*
X107616Y227058D02*
X109322D01*
X112733Y229616D02*
Y224500D01*
X115291D01*
X116144Y225353D01*
Y228764D01*
X115291Y229616D01*
X112733D01*
X69500Y237558D02*
X72911D01*
X69500Y247999D02*
X73499D01*
X71499Y249998D02*
Y246000D01*
X181000Y217558D02*
X184411D01*
X171000Y218999D02*
X174999D01*
X172999Y220998D02*
Y217000D01*
X152787Y246500D02*
X152000Y245713D01*
Y244139D01*
X152787Y243351D01*
X155936D01*
X156723Y244139D01*
Y245713D01*
X155936Y246500D01*
X155149D01*
X154361Y245713D01*
Y243351D01*
X156723Y241777D02*
X153574D01*
X152000Y240203D01*
X153574Y238629D01*
X156723D01*
X169000Y229616D02*
Y224500D01*
X172411D01*
X177527Y229616D02*
X174117D01*
Y224500D01*
X177527D01*
X174117Y227058D02*
X175822D01*
X179233Y229616D02*
Y224500D01*
X181791D01*
X182644Y225353D01*
Y228764D01*
X181791Y229616D01*
X179233D01*
X136000Y237558D02*
X139411D01*
X136000Y247999D02*
X139999D01*
X137999Y249998D02*
Y246000D01*
X247500Y217558D02*
X250911D01*
X237500Y218999D02*
X241499D01*
X239499Y220998D02*
Y217000D01*
X219287Y246500D02*
X218500Y245713D01*
Y244139D01*
X219287Y243351D01*
X222436D01*
X223223Y244139D01*
Y245713D01*
X222436Y246500D01*
X221649D01*
X220861Y245713D01*
Y243351D01*
X223223Y241777D02*
X220074D01*
X218500Y240203D01*
X220074Y238629D01*
X223223D01*
X235500Y229616D02*
Y224500D01*
X238911D01*
X244027Y229616D02*
X240616D01*
Y224500D01*
X244027D01*
X240616Y227058D02*
X242322D01*
X245733Y229616D02*
Y224500D01*
X248291D01*
X249144Y225353D01*
Y228764D01*
X248291Y229616D01*
X245733D01*
X202500Y237558D02*
X205911D01*
X202500Y247999D02*
X206499D01*
X204499Y249998D02*
Y246000D01*
X384000Y217558D02*
X387411D01*
X374000Y218999D02*
X377999D01*
X375999Y220998D02*
Y217000D01*
X355787Y246500D02*
X355000Y245713D01*
Y244139D01*
X355787Y243351D01*
X358936D01*
X359723Y244139D01*
Y245713D01*
X358936Y246500D01*
X358149D01*
X357361Y245713D01*
Y243351D01*
X359723Y241777D02*
X356574D01*
X355000Y240203D01*
X356574Y238629D01*
X359723D01*
X372000Y229616D02*
Y224500D01*
X375411D01*
X380527Y229616D02*
X377116D01*
Y224500D01*
X380527D01*
X377116Y227058D02*
X378822D01*
X382233Y229616D02*
Y224500D01*
X384791D01*
X385644Y225353D01*
Y228764D01*
X384791Y229616D01*
X382233D01*
X339000Y237558D02*
X342411D01*
X339000Y247999D02*
X342999D01*
X340999Y249998D02*
Y246000D01*
X316000Y217558D02*
X319411D01*
X306000Y218999D02*
X309999D01*
X307999Y220998D02*
Y217000D01*
X287787Y246500D02*
X287000Y245713D01*
Y244139D01*
X287787Y243351D01*
X290936D01*
X291723Y244139D01*
Y245713D01*
X290936Y246500D01*
X290149D01*
X289361Y245713D01*
Y243351D01*
X291723Y241777D02*
X288574D01*
X287000Y240203D01*
X288574Y238629D01*
X291723D01*
X304000Y229616D02*
Y224500D01*
X307411D01*
X312527Y229616D02*
X309117D01*
Y224500D01*
X312527D01*
X309117Y227058D02*
X310822D01*
X314233Y229616D02*
Y224500D01*
X316791D01*
X317644Y225353D01*
Y228764D01*
X316791Y229616D01*
X314233D01*
X271000Y237558D02*
X274411D01*
X271000Y247999D02*
X274999D01*
X272999Y249998D02*
Y246000D01*
X2500Y160499D02*
X6499D01*
X4499Y162498D02*
Y158500D01*
X2500Y150058D02*
X5911D01*
X35500Y142116D02*
Y137000D01*
X38911D01*
X44027Y142116D02*
X40617D01*
Y137000D01*
X44027D01*
X40617Y139558D02*
X42322D01*
X45733Y142116D02*
Y137000D01*
X48291D01*
X49144Y137853D01*
Y141264D01*
X48291Y142116D01*
X45733D01*
X19287Y159000D02*
X18500Y158213D01*
Y156639D01*
X19287Y155851D01*
X22436D01*
X23223Y156639D01*
Y158213D01*
X22436Y159000D01*
X21649D01*
X20861Y158213D01*
Y155851D01*
X23223Y154277D02*
X20074D01*
X18500Y152703D01*
X20074Y151128D01*
X23223D01*
X37500Y131499D02*
X41499D01*
X39499Y133498D02*
Y129500D01*
X47500Y130058D02*
X50911D01*
X114500D02*
X117911D01*
X104500Y131499D02*
X108499D01*
X106499Y133498D02*
Y129500D01*
X86287Y159000D02*
X85500Y158213D01*
Y156639D01*
X86287Y155851D01*
X89436D01*
X90223Y156639D01*
Y158213D01*
X89436Y159000D01*
X88649D01*
X87861Y158213D01*
Y155851D01*
X90223Y154277D02*
X87074D01*
X85500Y152703D01*
X87074Y151128D01*
X90223D01*
X102500Y142116D02*
Y137000D01*
X105911D01*
X111027Y142116D02*
X107616D01*
Y137000D01*
X111027D01*
X107616Y139558D02*
X109322D01*
X112733Y142116D02*
Y137000D01*
X115291D01*
X116144Y137853D01*
Y141264D01*
X115291Y142116D01*
X112733D01*
X69500Y150058D02*
X72911D01*
X69500Y160499D02*
X73499D01*
X71499Y162498D02*
Y158500D01*
X181000Y130058D02*
X184411D01*
X171000Y131499D02*
X174999D01*
X172999Y133498D02*
Y129500D01*
X152787Y159000D02*
X152000Y158213D01*
Y156639D01*
X152787Y155851D01*
X155936D01*
X156723Y156639D01*
Y158213D01*
X155936Y159000D01*
X155149D01*
X154361Y158213D01*
Y155851D01*
X156723Y154277D02*
X153574D01*
X152000Y152703D01*
X153574Y151128D01*
X156723D01*
X169000Y142116D02*
Y137000D01*
X172411D01*
X177527Y142116D02*
X174117D01*
Y137000D01*
X177527D01*
X174117Y139558D02*
X175822D01*
X179233Y142116D02*
Y137000D01*
X181791D01*
X182644Y137853D01*
Y141264D01*
X181791Y142116D01*
X179233D01*
X136000Y150058D02*
X139411D01*
X136000Y160499D02*
X139999D01*
X137999Y162498D02*
Y158500D01*
X247500Y130058D02*
X250911D01*
X237500Y131499D02*
X241499D01*
X239499Y133498D02*
Y129500D01*
X219287Y159000D02*
X218500Y158213D01*
Y156639D01*
X219287Y155851D01*
X222436D01*
X223223Y156639D01*
Y158213D01*
X222436Y159000D01*
X221649D01*
X220861Y158213D01*
Y155851D01*
X223223Y154277D02*
X220074D01*
X218500Y152703D01*
X220074Y151128D01*
X223223D01*
X235500Y142116D02*
Y137000D01*
X238911D01*
X244027Y142116D02*
X240616D01*
Y137000D01*
X244027D01*
X240616Y139558D02*
X242322D01*
X245733Y142116D02*
Y137000D01*
X248291D01*
X249144Y137853D01*
Y141264D01*
X248291Y142116D01*
X245733D01*
X202500Y150058D02*
X205911D01*
X202500Y160499D02*
X206499D01*
X204499Y162498D02*
Y158500D01*
X384000Y130058D02*
X387411D01*
X374000Y131499D02*
X377999D01*
X375999Y133498D02*
Y129500D01*
X355787Y159000D02*
X355000Y158213D01*
Y156639D01*
X355787Y155851D01*
X358936D01*
X359723Y156639D01*
Y158213D01*
X358936Y159000D01*
X358149D01*
X357361Y158213D01*
Y155851D01*
X359723Y154277D02*
X356574D01*
X355000Y152703D01*
X356574Y151128D01*
X359723D01*
X372000Y142116D02*
Y137000D01*
X375411D01*
X380527Y142116D02*
X377116D01*
Y137000D01*
X380527D01*
X377116Y139558D02*
X378822D01*
X382233Y142116D02*
Y137000D01*
X384791D01*
X385644Y137853D01*
Y141264D01*
X384791Y142116D01*
X382233D01*
X339000Y150058D02*
X342411D01*
X339000Y160499D02*
X342999D01*
X340999Y162498D02*
Y158500D01*
X316000Y130058D02*
X319411D01*
X306000Y131499D02*
X309999D01*
X307999Y133498D02*
Y129500D01*
X287787Y159000D02*
X287000Y158213D01*
Y156639D01*
X287787Y155851D01*
X290936D01*
X291723Y156639D01*
Y158213D01*
X290936Y159000D01*
X290149D01*
X289361Y158213D01*
Y155851D01*
X291723Y154277D02*
X288574D01*
X287000Y152703D01*
X288574Y151128D01*
X291723D01*
X304000Y142116D02*
Y137000D01*
X307411D01*
X312527Y142116D02*
X309117D01*
Y137000D01*
X312527D01*
X309117Y139558D02*
X310822D01*
X314233Y142116D02*
Y137000D01*
X316791D01*
X317644Y137853D01*
Y141264D01*
X316791Y142116D01*
X314233D01*
X271000Y150058D02*
X274411D01*
X271000Y160499D02*
X274999D01*
X272999Y162498D02*
Y158500D01*
X271000Y74999D02*
X274999D01*
X272999Y76998D02*
Y73000D01*
X271000Y64558D02*
X274411D01*
X304000Y56616D02*
Y51500D01*
X307411D01*
X312527Y56616D02*
X309117D01*
Y51500D01*
X312527D01*
X309117Y54058D02*
X310822D01*
X314233Y56616D02*
Y51500D01*
X316791D01*
X317644Y52353D01*
Y55764D01*
X316791Y56616D01*
X314233D01*
X287787Y73500D02*
X287000Y72713D01*
Y71139D01*
X287787Y70351D01*
X290936D01*
X291723Y71139D01*
Y72713D01*
X290936Y73500D01*
X290149D01*
X289361Y72713D01*
Y70351D01*
X291723Y68777D02*
X288574D01*
X287000Y67203D01*
X288574Y65628D01*
X291723D01*
X306000Y45999D02*
X309999D01*
X307999Y47998D02*
Y44000D01*
X316000Y44558D02*
X319411D01*
X339000Y74999D02*
X342999D01*
X340999Y76998D02*
Y73000D01*
X339000Y64558D02*
X342411D01*
X372000Y56616D02*
Y51500D01*
X375411D01*
X380527Y56616D02*
X377116D01*
Y51500D01*
X380527D01*
X377116Y54058D02*
X378822D01*
X382233Y56616D02*
Y51500D01*
X384791D01*
X385644Y52353D01*
Y55764D01*
X384791Y56616D01*
X382233D01*
X355787Y73500D02*
X355000Y72713D01*
Y71139D01*
X355787Y70351D01*
X358936D01*
X359723Y71139D01*
Y72713D01*
X358936Y73500D01*
X358149D01*
X357361Y72713D01*
Y70351D01*
X359723Y68777D02*
X356574D01*
X355000Y67203D01*
X356574Y65628D01*
X359723D01*
X374000Y45999D02*
X377999D01*
X375999Y47998D02*
Y44000D01*
X384000Y44558D02*
X387411D01*
X202500Y74999D02*
X206499D01*
X204499Y76998D02*
Y73000D01*
X202500Y64558D02*
X205911D01*
X235500Y56616D02*
Y51500D01*
X238911D01*
X244027Y56616D02*
X240616D01*
Y51500D01*
X244027D01*
X240616Y54058D02*
X242322D01*
X245733Y56616D02*
Y51500D01*
X248291D01*
X249144Y52353D01*
Y55764D01*
X248291Y56616D01*
X245733D01*
X219287Y73500D02*
X218500Y72713D01*
Y71139D01*
X219287Y70351D01*
X222436D01*
X223223Y71139D01*
Y72713D01*
X222436Y73500D01*
X221649D01*
X220861Y72713D01*
Y70351D01*
X223223Y68777D02*
X220074D01*
X218500Y67203D01*
X220074Y65628D01*
X223223D01*
X237500Y45999D02*
X241499D01*
X239499Y47998D02*
Y44000D01*
X247500Y44558D02*
X250911D01*
X136000Y74999D02*
X139999D01*
X137999Y76998D02*
Y73000D01*
X136000Y64558D02*
X139411D01*
X169000Y56616D02*
Y51500D01*
X172411D01*
X177527Y56616D02*
X174117D01*
Y51500D01*
X177527D01*
X174117Y54058D02*
X175822D01*
X179233Y56616D02*
Y51500D01*
X181791D01*
X182644Y52353D01*
Y55764D01*
X181791Y56616D01*
X179233D01*
X152787Y73500D02*
X152000Y72713D01*
Y71139D01*
X152787Y70351D01*
X155936D01*
X156723Y71139D01*
Y72713D01*
X155936Y73500D01*
X155149D01*
X154361Y72713D01*
Y70351D01*
X156723Y68777D02*
X153574D01*
X152000Y67203D01*
X153574Y65628D01*
X156723D01*
X171000Y45999D02*
X174999D01*
X172999Y47998D02*
Y44000D01*
X181000Y44558D02*
X184411D01*
X69500Y74999D02*
X73499D01*
X71499Y76998D02*
Y73000D01*
X69500Y64558D02*
X72911D01*
X102500Y56616D02*
Y51500D01*
X105911D01*
X111027Y56616D02*
X107616D01*
Y51500D01*
X111027D01*
X107616Y54058D02*
X109322D01*
X112733Y56616D02*
Y51500D01*
X115291D01*
X116144Y52353D01*
Y55764D01*
X115291Y56616D01*
X112733D01*
X86287Y73500D02*
X85500Y72713D01*
Y71139D01*
X86287Y70351D01*
X89436D01*
X90223Y71139D01*
Y72713D01*
X89436Y73500D01*
X88649D01*
X87861Y72713D01*
Y70351D01*
X90223Y68777D02*
X87074D01*
X85500Y67203D01*
X87074Y65628D01*
X90223D01*
X104500Y45999D02*
X108499D01*
X106499Y47998D02*
Y44000D01*
X114500Y44558D02*
X117911D01*
X47500D02*
X50911D01*
X37500Y45999D02*
X41499D01*
X39499Y47998D02*
Y44000D01*
X19287Y73500D02*
X18500Y72713D01*
Y71139D01*
X19287Y70351D01*
X22436D01*
X23223Y71139D01*
Y72713D01*
X22436Y73500D01*
X21649D01*
X20861Y72713D01*
Y70351D01*
X23223Y68777D02*
X20074D01*
X18500Y67203D01*
X20074Y65628D01*
X23223D01*
X35500Y56616D02*
Y51500D01*
X38911D01*
X44027Y56616D02*
X40617D01*
Y51500D01*
X44027D01*
X40617Y54058D02*
X42322D01*
X45733Y56616D02*
Y51500D01*
X48291D01*
X49144Y52353D01*
Y55764D01*
X48291Y56616D01*
X45733D01*
X2500Y64558D02*
X5911D01*
X2500Y74999D02*
X6499D01*
X4499Y76998D02*
Y73000D01*
D27*
X316598Y366402D02*
Y384630D01*
X306874Y366402D02*
X316598D01*
X291402D02*
X301126D01*
X291402D02*
Y384630D01*
Y393055D02*
X316598D01*
X317098Y296902D02*
Y315130D01*
X307374Y296902D02*
X317098D01*
X291902D02*
X301626D01*
X291902D02*
Y315130D01*
Y323555D02*
X317098D01*
X228598Y365902D02*
Y384130D01*
X218874Y365902D02*
X228598D01*
X203402D02*
X213126D01*
X203402D02*
Y384130D01*
Y392555D02*
X228598D01*
X229098Y296402D02*
Y314630D01*
X219374Y296402D02*
X229098D01*
X203902D02*
X213626D01*
X203902D02*
Y314630D01*
Y323055D02*
X229098D01*
X142098Y365902D02*
Y384130D01*
X132374Y365902D02*
X142098D01*
X116902D02*
X126626D01*
X116902D02*
Y384130D01*
Y392555D02*
X142098D01*
X142598Y296402D02*
Y314630D01*
X132874Y296402D02*
X142598D01*
X117402D02*
X127126D01*
X117402D02*
Y314630D01*
Y323055D02*
X142598D01*
X55598Y365902D02*
Y384130D01*
X45874Y365902D02*
X55598D01*
X30402D02*
X40126D01*
X30402D02*
Y384130D01*
Y392555D02*
X55598D01*
X56098Y296402D02*
Y314630D01*
X46374Y296402D02*
X56098D01*
X30902D02*
X40626D01*
X30902D02*
Y314630D01*
Y323055D02*
X56098D01*
X11870Y226598D02*
X30098D01*
Y216874D02*
Y226598D01*
Y201402D02*
Y211126D01*
X11870Y201402D02*
X30098D01*
X3445D02*
Y226598D01*
X78870D02*
X97098D01*
Y216874D02*
Y226598D01*
Y201402D02*
Y211126D01*
X78870Y201402D02*
X97098D01*
X70445D02*
Y226598D01*
X145370D02*
X163598D01*
Y216874D02*
Y226598D01*
Y201402D02*
Y211126D01*
X145370Y201402D02*
X163598D01*
X136945D02*
Y226598D01*
X211870D02*
X230098D01*
Y216874D02*
Y226598D01*
Y201402D02*
Y211126D01*
X211870Y201402D02*
X230098D01*
X203445D02*
Y226598D01*
X348370D02*
X366598D01*
Y216874D02*
Y226598D01*
Y201402D02*
Y211126D01*
X348370Y201402D02*
X366598D01*
X339945D02*
Y226598D01*
X280370D02*
X298598D01*
Y216874D02*
Y226598D01*
Y201402D02*
Y211126D01*
X280370Y201402D02*
X298598D01*
X271945D02*
Y226598D01*
X11870Y139098D02*
X30098D01*
Y129374D02*
Y139098D01*
Y113902D02*
Y123626D01*
X11870Y113902D02*
X30098D01*
X3445D02*
Y139098D01*
X78870D02*
X97098D01*
Y129374D02*
Y139098D01*
Y113902D02*
Y123626D01*
X78870Y113902D02*
X97098D01*
X70445D02*
Y139098D01*
X145370D02*
X163598D01*
Y129374D02*
Y139098D01*
Y113902D02*
Y123626D01*
X145370Y113902D02*
X163598D01*
X136945D02*
Y139098D01*
X211870D02*
X230098D01*
Y129374D02*
Y139098D01*
Y113902D02*
Y123626D01*
X211870Y113902D02*
X230098D01*
X203445D02*
Y139098D01*
X348370D02*
X366598D01*
Y129374D02*
Y139098D01*
Y113902D02*
Y123626D01*
X348370Y113902D02*
X366598D01*
X339945D02*
Y139098D01*
X280370D02*
X298598D01*
Y129374D02*
Y139098D01*
Y113902D02*
Y123626D01*
X280370Y113902D02*
X298598D01*
X271945D02*
Y139098D01*
X280370Y53598D02*
X298598D01*
Y43874D02*
Y53598D01*
Y28402D02*
Y38126D01*
X280370Y28402D02*
X298598D01*
X271945D02*
Y53598D01*
X348370D02*
X366598D01*
Y43874D02*
Y53598D01*
Y28402D02*
Y38126D01*
X348370Y28402D02*
X366598D01*
X339945D02*
Y53598D01*
X211870D02*
X230098D01*
Y43874D02*
Y53598D01*
Y28402D02*
Y38126D01*
X211870Y28402D02*
X230098D01*
X203445D02*
Y53598D01*
X145370D02*
X163598D01*
Y43874D02*
Y53598D01*
Y28402D02*
Y38126D01*
X145370Y28402D02*
X163598D01*
X136945D02*
Y53598D01*
X78870D02*
X97098D01*
Y43874D02*
Y53598D01*
Y28402D02*
Y38126D01*
X78870Y28402D02*
X97098D01*
X70445D02*
Y53598D01*
X11870D02*
X30098D01*
Y43874D02*
Y53598D01*
Y28402D02*
Y38126D01*
X11870Y28402D02*
X30098D01*
X3445D02*
Y53598D01*
D28*
X284000Y335000D02*
Y337361D01*
X285181Y338542D01*
X286361Y337361D01*
Y335000D01*
Y336771D01*
X284000D01*
X287542Y335000D02*
Y335590D01*
X288133D01*
Y335000D01*
X287542D01*
X290494Y338542D02*
X291675D01*
X291084D01*
Y335000D01*
X290494D01*
X291675D01*
X293446D02*
Y335590D01*
X294036D01*
Y335000D01*
X293446D01*
X299940D02*
Y338542D01*
X301711D01*
X302301Y337952D01*
Y336771D01*
X301711Y336181D01*
X299940D01*
X305843Y337952D02*
X305253Y338542D01*
X304072D01*
X303482Y337952D01*
Y335590D01*
X304072Y335000D01*
X305253D01*
X305843Y335590D01*
X307024Y338542D02*
Y335000D01*
X308795D01*
X309385Y335590D01*
Y336181D01*
X308795Y336771D01*
X307024D01*
X308795D01*
X309385Y337361D01*
Y337952D01*
X308795Y338542D01*
X307024D01*
X284500Y265500D02*
Y267861D01*
X285681Y269042D01*
X286861Y267861D01*
Y265500D01*
Y267271D01*
X284500D01*
X288042Y265500D02*
Y266090D01*
X288632D01*
Y265500D01*
X288042D01*
X290994Y269042D02*
X292175D01*
X291584D01*
Y265500D01*
X290994D01*
X292175D01*
X293946D02*
Y266090D01*
X294536D01*
Y265500D01*
X293946D01*
X300440D02*
Y269042D01*
X302211D01*
X302801Y268452D01*
Y267271D01*
X302211Y266681D01*
X300440D01*
X306343Y268452D02*
X305753Y269042D01*
X304572D01*
X303982Y268452D01*
Y266090D01*
X304572Y265500D01*
X305753D01*
X306343Y266090D01*
X307524Y269042D02*
Y265500D01*
X309295D01*
X309886Y266090D01*
Y266681D01*
X309295Y267271D01*
X307524D01*
X309295D01*
X309886Y267861D01*
Y268452D01*
X309295Y269042D01*
X307524D01*
X196000Y334500D02*
Y336861D01*
X197181Y338042D01*
X198361Y336861D01*
Y334500D01*
Y336271D01*
X196000D01*
X199542Y334500D02*
Y335090D01*
X200132D01*
Y334500D01*
X199542D01*
X202494Y338042D02*
X203675D01*
X203084D01*
Y334500D01*
X202494D01*
X203675D01*
X205446D02*
Y335090D01*
X206036D01*
Y334500D01*
X205446D01*
X211940D02*
Y338042D01*
X213711D01*
X214301Y337452D01*
Y336271D01*
X213711Y335681D01*
X211940D01*
X217843Y337452D02*
X217253Y338042D01*
X216072D01*
X215482Y337452D01*
Y335090D01*
X216072Y334500D01*
X217253D01*
X217843Y335090D01*
X219024Y338042D02*
Y334500D01*
X220795D01*
X221386Y335090D01*
Y335681D01*
X220795Y336271D01*
X219024D01*
X220795D01*
X221386Y336861D01*
Y337452D01*
X220795Y338042D01*
X219024D01*
X196500Y265000D02*
Y267361D01*
X197681Y268542D01*
X198861Y267361D01*
Y265000D01*
Y266771D01*
X196500D01*
X200042Y265000D02*
Y265590D01*
X200633D01*
Y265000D01*
X200042D01*
X202994Y268542D02*
X204175D01*
X203584D01*
Y265000D01*
X202994D01*
X204175D01*
X205946D02*
Y265590D01*
X206536D01*
Y265000D01*
X205946D01*
X212440D02*
Y268542D01*
X214211D01*
X214801Y267952D01*
Y266771D01*
X214211Y266181D01*
X212440D01*
X218343Y267952D02*
X217753Y268542D01*
X216572D01*
X215982Y267952D01*
Y265590D01*
X216572Y265000D01*
X217753D01*
X218343Y265590D01*
X219524Y268542D02*
Y265000D01*
X221295D01*
X221885Y265590D01*
Y266181D01*
X221295Y266771D01*
X219524D01*
X221295D01*
X221885Y267361D01*
Y267952D01*
X221295Y268542D01*
X219524D01*
X109500Y334500D02*
Y336861D01*
X110681Y338042D01*
X111861Y336861D01*
Y334500D01*
Y336271D01*
X109500D01*
X113042Y334500D02*
Y335090D01*
X113633D01*
Y334500D01*
X113042D01*
X115994Y338042D02*
X117175D01*
X116584D01*
Y334500D01*
X115994D01*
X117175D01*
X118946D02*
Y335090D01*
X119536D01*
Y334500D01*
X118946D01*
X125440D02*
Y338042D01*
X127211D01*
X127801Y337452D01*
Y336271D01*
X127211Y335681D01*
X125440D01*
X131343Y337452D02*
X130753Y338042D01*
X129572D01*
X128982Y337452D01*
Y335090D01*
X129572Y334500D01*
X130753D01*
X131343Y335090D01*
X132524Y338042D02*
Y334500D01*
X134295D01*
X134886Y335090D01*
Y335681D01*
X134295Y336271D01*
X132524D01*
X134295D01*
X134886Y336861D01*
Y337452D01*
X134295Y338042D01*
X132524D01*
X110000Y265000D02*
Y267361D01*
X111181Y268542D01*
X112361Y267361D01*
Y265000D01*
Y266771D01*
X110000D01*
X113542Y265000D02*
Y265590D01*
X114132D01*
Y265000D01*
X113542D01*
X116494Y268542D02*
X117675D01*
X117084D01*
Y265000D01*
X116494D01*
X117675D01*
X119446D02*
Y265590D01*
X120036D01*
Y265000D01*
X119446D01*
X125940D02*
Y268542D01*
X127711D01*
X128301Y267952D01*
Y266771D01*
X127711Y266181D01*
X125940D01*
X131843Y267952D02*
X131253Y268542D01*
X130072D01*
X129482Y267952D01*
Y265590D01*
X130072Y265000D01*
X131253D01*
X131843Y265590D01*
X133024Y268542D02*
Y265000D01*
X134795D01*
X135386Y265590D01*
Y266181D01*
X134795Y266771D01*
X133024D01*
X134795D01*
X135386Y267361D01*
Y267952D01*
X134795Y268542D01*
X133024D01*
X23000Y334500D02*
Y336861D01*
X24181Y338042D01*
X25361Y336861D01*
Y334500D01*
Y336271D01*
X23000D01*
X26542Y334500D02*
Y335090D01*
X27132D01*
Y334500D01*
X26542D01*
X29494Y338042D02*
X30675D01*
X30084D01*
Y334500D01*
X29494D01*
X30675D01*
X32446D02*
Y335090D01*
X33036D01*
Y334500D01*
X32446D01*
X38940D02*
Y338042D01*
X40711D01*
X41301Y337452D01*
Y336271D01*
X40711Y335681D01*
X38940D01*
X44843Y337452D02*
X44253Y338042D01*
X43072D01*
X42482Y337452D01*
Y335090D01*
X43072Y334500D01*
X44253D01*
X44843Y335090D01*
X46024Y338042D02*
Y334500D01*
X47795D01*
X48386Y335090D01*
Y335681D01*
X47795Y336271D01*
X46024D01*
X47795D01*
X48386Y336861D01*
Y337452D01*
X47795Y338042D01*
X46024D01*
X23500Y265000D02*
Y267361D01*
X24681Y268542D01*
X25861Y267361D01*
Y265000D01*
Y266771D01*
X23500D01*
X27042Y265000D02*
Y265590D01*
X27632D01*
Y265000D01*
X27042D01*
X29994Y268542D02*
X31175D01*
X30584D01*
Y265000D01*
X29994D01*
X31175D01*
X32946D02*
Y265590D01*
X33536D01*
Y265000D01*
X32946D01*
X39440D02*
Y268542D01*
X41211D01*
X41801Y267952D01*
Y266771D01*
X41211Y266181D01*
X39440D01*
X45343Y267952D02*
X44753Y268542D01*
X43572D01*
X42982Y267952D01*
Y265590D01*
X43572Y265000D01*
X44753D01*
X45343Y265590D01*
X46524Y268542D02*
Y265000D01*
X48295D01*
X48886Y265590D01*
Y266181D01*
X48295Y266771D01*
X46524D01*
X48295D01*
X48886Y267361D01*
Y267952D01*
X48295Y268542D01*
X46524D01*
X61500Y194000D02*
X59139D01*
X57958Y195181D01*
X59139Y196361D01*
X61500D01*
X59729D01*
Y194000D01*
X61500Y197542D02*
X60910D01*
Y198133D01*
X61500D01*
Y197542D01*
X57958Y200494D02*
Y201675D01*
Y201084D01*
X61500D01*
Y200494D01*
Y201675D01*
Y203446D02*
X60910D01*
Y204036D01*
X61500D01*
Y203446D01*
Y209940D02*
X57958D01*
Y211711D01*
X58548Y212301D01*
X59729D01*
X60319Y211711D01*
Y209940D01*
X58548Y215843D02*
X57958Y215253D01*
Y214072D01*
X58548Y213482D01*
X60910D01*
X61500Y214072D01*
Y215253D01*
X60910Y215843D01*
X57958Y217024D02*
X61500D01*
Y218795D01*
X60910Y219386D01*
X60319D01*
X59729Y218795D01*
Y217024D01*
Y218795D01*
X59139Y219386D01*
X58548D01*
X57958Y218795D01*
Y217024D01*
X128500Y194000D02*
X126139D01*
X124958Y195181D01*
X126139Y196361D01*
X128500D01*
X126729D01*
Y194000D01*
X128500Y197542D02*
X127910D01*
Y198133D01*
X128500D01*
Y197542D01*
X124958Y200494D02*
Y201675D01*
Y201084D01*
X128500D01*
Y200494D01*
Y201675D01*
Y203446D02*
X127910D01*
Y204036D01*
X128500D01*
Y203446D01*
Y209940D02*
X124958D01*
Y211711D01*
X125548Y212301D01*
X126729D01*
X127319Y211711D01*
Y209940D01*
X125548Y215843D02*
X124958Y215253D01*
Y214072D01*
X125548Y213482D01*
X127910D01*
X128500Y214072D01*
Y215253D01*
X127910Y215843D01*
X124958Y217024D02*
X128500D01*
Y218795D01*
X127910Y219386D01*
X127319D01*
X126729Y218795D01*
Y217024D01*
Y218795D01*
X126139Y219386D01*
X125548D01*
X124958Y218795D01*
Y217024D01*
X195000Y194000D02*
X192639D01*
X191458Y195181D01*
X192639Y196361D01*
X195000D01*
X193229D01*
Y194000D01*
X195000Y197542D02*
X194410D01*
Y198133D01*
X195000D01*
Y197542D01*
X191458Y200494D02*
Y201675D01*
Y201084D01*
X195000D01*
Y200494D01*
Y201675D01*
Y203446D02*
X194410D01*
Y204036D01*
X195000D01*
Y203446D01*
Y209940D02*
X191458D01*
Y211711D01*
X192048Y212301D01*
X193229D01*
X193819Y211711D01*
Y209940D01*
X192048Y215843D02*
X191458Y215253D01*
Y214072D01*
X192048Y213482D01*
X194410D01*
X195000Y214072D01*
Y215253D01*
X194410Y215843D01*
X191458Y217024D02*
X195000D01*
Y218795D01*
X194410Y219386D01*
X193819D01*
X193229Y218795D01*
Y217024D01*
Y218795D01*
X192639Y219386D01*
X192048D01*
X191458Y218795D01*
Y217024D01*
X261500Y194000D02*
X259139D01*
X257958Y195181D01*
X259139Y196361D01*
X261500D01*
X259729D01*
Y194000D01*
X261500Y197542D02*
X260910D01*
Y198133D01*
X261500D01*
Y197542D01*
X257958Y200494D02*
Y201675D01*
Y201084D01*
X261500D01*
Y200494D01*
Y201675D01*
Y203446D02*
X260910D01*
Y204036D01*
X261500D01*
Y203446D01*
Y209940D02*
X257958D01*
Y211711D01*
X258548Y212301D01*
X259729D01*
X260319Y211711D01*
Y209940D01*
X258548Y215843D02*
X257958Y215253D01*
Y214072D01*
X258548Y213482D01*
X260910D01*
X261500Y214072D01*
Y215253D01*
X260910Y215843D01*
X257958Y217024D02*
X261500D01*
Y218795D01*
X260910Y219386D01*
X260319D01*
X259729Y218795D01*
Y217024D01*
Y218795D01*
X259139Y219386D01*
X258548D01*
X257958Y218795D01*
Y217024D01*
X398000Y194000D02*
X395639D01*
X394458Y195181D01*
X395639Y196361D01*
X398000D01*
X396229D01*
Y194000D01*
X398000Y197542D02*
X397410D01*
Y198133D01*
X398000D01*
Y197542D01*
X394458Y200494D02*
Y201675D01*
Y201084D01*
X398000D01*
Y200494D01*
Y201675D01*
Y203446D02*
X397410D01*
Y204036D01*
X398000D01*
Y203446D01*
Y209940D02*
X394458D01*
Y211711D01*
X395048Y212301D01*
X396229D01*
X396819Y211711D01*
Y209940D01*
X395048Y215843D02*
X394458Y215253D01*
Y214072D01*
X395048Y213482D01*
X397410D01*
X398000Y214072D01*
Y215253D01*
X397410Y215843D01*
X394458Y217024D02*
X398000D01*
Y218795D01*
X397410Y219386D01*
X396819D01*
X396229Y218795D01*
Y217024D01*
Y218795D01*
X395639Y219386D01*
X395048D01*
X394458Y218795D01*
Y217024D01*
X330000Y194000D02*
X327639D01*
X326458Y195181D01*
X327639Y196361D01*
X330000D01*
X328229D01*
Y194000D01*
X330000Y197542D02*
X329410D01*
Y198133D01*
X330000D01*
Y197542D01*
X326458Y200494D02*
Y201675D01*
Y201084D01*
X330000D01*
Y200494D01*
Y201675D01*
Y203446D02*
X329410D01*
Y204036D01*
X330000D01*
Y203446D01*
Y209940D02*
X326458D01*
Y211711D01*
X327048Y212301D01*
X328229D01*
X328819Y211711D01*
Y209940D01*
X327048Y215843D02*
X326458Y215253D01*
Y214072D01*
X327048Y213482D01*
X329410D01*
X330000Y214072D01*
Y215253D01*
X329410Y215843D01*
X326458Y217024D02*
X330000D01*
Y218795D01*
X329410Y219386D01*
X328819D01*
X328229Y218795D01*
Y217024D01*
Y218795D01*
X327639Y219386D01*
X327048D01*
X326458Y218795D01*
Y217024D01*
X61500Y106500D02*
X59139D01*
X57958Y107681D01*
X59139Y108861D01*
X61500D01*
X59729D01*
Y106500D01*
X61500Y110042D02*
X60910D01*
Y110633D01*
X61500D01*
Y110042D01*
X57958Y112994D02*
Y114175D01*
Y113584D01*
X61500D01*
Y112994D01*
Y114175D01*
Y115946D02*
X60910D01*
Y116536D01*
X61500D01*
Y115946D01*
Y122440D02*
X57958D01*
Y124211D01*
X58548Y124801D01*
X59729D01*
X60319Y124211D01*
Y122440D01*
X58548Y128343D02*
X57958Y127753D01*
Y126572D01*
X58548Y125982D01*
X60910D01*
X61500Y126572D01*
Y127753D01*
X60910Y128343D01*
X57958Y129524D02*
X61500D01*
Y131295D01*
X60910Y131886D01*
X60319D01*
X59729Y131295D01*
Y129524D01*
Y131295D01*
X59139Y131886D01*
X58548D01*
X57958Y131295D01*
Y129524D01*
X128500Y106500D02*
X126139D01*
X124958Y107681D01*
X126139Y108861D01*
X128500D01*
X126729D01*
Y106500D01*
X128500Y110042D02*
X127910D01*
Y110633D01*
X128500D01*
Y110042D01*
X124958Y112994D02*
Y114175D01*
Y113584D01*
X128500D01*
Y112994D01*
Y114175D01*
Y115946D02*
X127910D01*
Y116536D01*
X128500D01*
Y115946D01*
Y122440D02*
X124958D01*
Y124211D01*
X125548Y124801D01*
X126729D01*
X127319Y124211D01*
Y122440D01*
X125548Y128343D02*
X124958Y127753D01*
Y126572D01*
X125548Y125982D01*
X127910D01*
X128500Y126572D01*
Y127753D01*
X127910Y128343D01*
X124958Y129524D02*
X128500D01*
Y131295D01*
X127910Y131886D01*
X127319D01*
X126729Y131295D01*
Y129524D01*
Y131295D01*
X126139Y131886D01*
X125548D01*
X124958Y131295D01*
Y129524D01*
X195000Y106500D02*
X192639D01*
X191458Y107681D01*
X192639Y108861D01*
X195000D01*
X193229D01*
Y106500D01*
X195000Y110042D02*
X194410D01*
Y110633D01*
X195000D01*
Y110042D01*
X191458Y112994D02*
Y114175D01*
Y113584D01*
X195000D01*
Y112994D01*
Y114175D01*
Y115946D02*
X194410D01*
Y116536D01*
X195000D01*
Y115946D01*
Y122440D02*
X191458D01*
Y124211D01*
X192048Y124801D01*
X193229D01*
X193819Y124211D01*
Y122440D01*
X192048Y128343D02*
X191458Y127753D01*
Y126572D01*
X192048Y125982D01*
X194410D01*
X195000Y126572D01*
Y127753D01*
X194410Y128343D01*
X191458Y129524D02*
X195000D01*
Y131295D01*
X194410Y131886D01*
X193819D01*
X193229Y131295D01*
Y129524D01*
Y131295D01*
X192639Y131886D01*
X192048D01*
X191458Y131295D01*
Y129524D01*
X261500Y106500D02*
X259139D01*
X257958Y107681D01*
X259139Y108861D01*
X261500D01*
X259729D01*
Y106500D01*
X261500Y110042D02*
X260910D01*
Y110633D01*
X261500D01*
Y110042D01*
X257958Y112994D02*
Y114175D01*
Y113584D01*
X261500D01*
Y112994D01*
Y114175D01*
Y115946D02*
X260910D01*
Y116536D01*
X261500D01*
Y115946D01*
Y122440D02*
X257958D01*
Y124211D01*
X258548Y124801D01*
X259729D01*
X260319Y124211D01*
Y122440D01*
X258548Y128343D02*
X257958Y127753D01*
Y126572D01*
X258548Y125982D01*
X260910D01*
X261500Y126572D01*
Y127753D01*
X260910Y128343D01*
X257958Y129524D02*
X261500D01*
Y131295D01*
X260910Y131886D01*
X260319D01*
X259729Y131295D01*
Y129524D01*
Y131295D01*
X259139Y131886D01*
X258548D01*
X257958Y131295D01*
Y129524D01*
X398000Y106500D02*
X395639D01*
X394458Y107681D01*
X395639Y108861D01*
X398000D01*
X396229D01*
Y106500D01*
X398000Y110042D02*
X397410D01*
Y110633D01*
X398000D01*
Y110042D01*
X394458Y112994D02*
Y114175D01*
Y113584D01*
X398000D01*
Y112994D01*
Y114175D01*
Y115946D02*
X397410D01*
Y116536D01*
X398000D01*
Y115946D01*
Y122440D02*
X394458D01*
Y124211D01*
X395048Y124801D01*
X396229D01*
X396819Y124211D01*
Y122440D01*
X395048Y128343D02*
X394458Y127753D01*
Y126572D01*
X395048Y125982D01*
X397410D01*
X398000Y126572D01*
Y127753D01*
X397410Y128343D01*
X394458Y129524D02*
X398000D01*
Y131295D01*
X397410Y131886D01*
X396819D01*
X396229Y131295D01*
Y129524D01*
Y131295D01*
X395639Y131886D01*
X395048D01*
X394458Y131295D01*
Y129524D01*
X330000Y106500D02*
X327639D01*
X326458Y107681D01*
X327639Y108861D01*
X330000D01*
X328229D01*
Y106500D01*
X330000Y110042D02*
X329410D01*
Y110633D01*
X330000D01*
Y110042D01*
X326458Y112994D02*
Y114175D01*
Y113584D01*
X330000D01*
Y112994D01*
Y114175D01*
Y115946D02*
X329410D01*
Y116536D01*
X330000D01*
Y115946D01*
Y122440D02*
X326458D01*
Y124211D01*
X327048Y124801D01*
X328229D01*
X328819Y124211D01*
Y122440D01*
X327048Y128343D02*
X326458Y127753D01*
Y126572D01*
X327048Y125982D01*
X329410D01*
X330000Y126572D01*
Y127753D01*
X329410Y128343D01*
X326458Y129524D02*
X330000D01*
Y131295D01*
X329410Y131886D01*
X328819D01*
X328229Y131295D01*
Y129524D01*
Y131295D01*
X327639Y131886D01*
X327048D01*
X326458Y131295D01*
Y129524D01*
X330000Y21000D02*
X327639D01*
X326458Y22181D01*
X327639Y23361D01*
X330000D01*
X328229D01*
Y21000D01*
X330000Y24542D02*
X329410D01*
Y25133D01*
X330000D01*
Y24542D01*
X326458Y27494D02*
Y28675D01*
Y28084D01*
X330000D01*
Y27494D01*
Y28675D01*
Y30446D02*
X329410D01*
Y31036D01*
X330000D01*
Y30446D01*
Y36940D02*
X326458D01*
Y38711D01*
X327048Y39301D01*
X328229D01*
X328819Y38711D01*
Y36940D01*
X327048Y42843D02*
X326458Y42253D01*
Y41072D01*
X327048Y40482D01*
X329410D01*
X330000Y41072D01*
Y42253D01*
X329410Y42843D01*
X326458Y44024D02*
X330000D01*
Y45795D01*
X329410Y46385D01*
X328819D01*
X328229Y45795D01*
Y44024D01*
Y45795D01*
X327639Y46385D01*
X327048D01*
X326458Y45795D01*
Y44024D01*
X398000Y21000D02*
X395639D01*
X394458Y22181D01*
X395639Y23361D01*
X398000D01*
X396229D01*
Y21000D01*
X398000Y24542D02*
X397410D01*
Y25133D01*
X398000D01*
Y24542D01*
X394458Y27494D02*
Y28675D01*
Y28084D01*
X398000D01*
Y27494D01*
Y28675D01*
Y30446D02*
X397410D01*
Y31036D01*
X398000D01*
Y30446D01*
Y36940D02*
X394458D01*
Y38711D01*
X395048Y39301D01*
X396229D01*
X396819Y38711D01*
Y36940D01*
X395048Y42843D02*
X394458Y42253D01*
Y41072D01*
X395048Y40482D01*
X397410D01*
X398000Y41072D01*
Y42253D01*
X397410Y42843D01*
X394458Y44024D02*
X398000D01*
Y45795D01*
X397410Y46385D01*
X396819D01*
X396229Y45795D01*
Y44024D01*
Y45795D01*
X395639Y46385D01*
X395048D01*
X394458Y45795D01*
Y44024D01*
X261500Y21000D02*
X259139D01*
X257958Y22181D01*
X259139Y23361D01*
X261500D01*
X259729D01*
Y21000D01*
X261500Y24542D02*
X260910D01*
Y25133D01*
X261500D01*
Y24542D01*
X257958Y27494D02*
Y28675D01*
Y28084D01*
X261500D01*
Y27494D01*
Y28675D01*
Y30446D02*
X260910D01*
Y31036D01*
X261500D01*
Y30446D01*
Y36940D02*
X257958D01*
Y38711D01*
X258548Y39301D01*
X259729D01*
X260319Y38711D01*
Y36940D01*
X258548Y42843D02*
X257958Y42253D01*
Y41072D01*
X258548Y40482D01*
X260910D01*
X261500Y41072D01*
Y42253D01*
X260910Y42843D01*
X257958Y44024D02*
X261500D01*
Y45795D01*
X260910Y46385D01*
X260319D01*
X259729Y45795D01*
Y44024D01*
Y45795D01*
X259139Y46385D01*
X258548D01*
X257958Y45795D01*
Y44024D01*
X195000Y21000D02*
X192639D01*
X191458Y22181D01*
X192639Y23361D01*
X195000D01*
X193229D01*
Y21000D01*
X195000Y24542D02*
X194410D01*
Y25133D01*
X195000D01*
Y24542D01*
X191458Y27494D02*
Y28675D01*
Y28084D01*
X195000D01*
Y27494D01*
Y28675D01*
Y30446D02*
X194410D01*
Y31036D01*
X195000D01*
Y30446D01*
Y36940D02*
X191458D01*
Y38711D01*
X192048Y39301D01*
X193229D01*
X193819Y38711D01*
Y36940D01*
X192048Y42843D02*
X191458Y42253D01*
Y41072D01*
X192048Y40482D01*
X194410D01*
X195000Y41072D01*
Y42253D01*
X194410Y42843D01*
X191458Y44024D02*
X195000D01*
Y45795D01*
X194410Y46385D01*
X193819D01*
X193229Y45795D01*
Y44024D01*
Y45795D01*
X192639Y46385D01*
X192048D01*
X191458Y45795D01*
Y44024D01*
X128500Y21000D02*
X126139D01*
X124958Y22181D01*
X126139Y23361D01*
X128500D01*
X126729D01*
Y21000D01*
X128500Y24542D02*
X127910D01*
Y25133D01*
X128500D01*
Y24542D01*
X124958Y27494D02*
Y28675D01*
Y28084D01*
X128500D01*
Y27494D01*
Y28675D01*
Y30446D02*
X127910D01*
Y31036D01*
X128500D01*
Y30446D01*
Y36940D02*
X124958D01*
Y38711D01*
X125548Y39301D01*
X126729D01*
X127319Y38711D01*
Y36940D01*
X125548Y42843D02*
X124958Y42253D01*
Y41072D01*
X125548Y40482D01*
X127910D01*
X128500Y41072D01*
Y42253D01*
X127910Y42843D01*
X124958Y44024D02*
X128500D01*
Y45795D01*
X127910Y46385D01*
X127319D01*
X126729Y45795D01*
Y44024D01*
Y45795D01*
X126139Y46385D01*
X125548D01*
X124958Y45795D01*
Y44024D01*
X61500Y21000D02*
X59139D01*
X57958Y22181D01*
X59139Y23361D01*
X61500D01*
X59729D01*
Y21000D01*
X61500Y24542D02*
X60910D01*
Y25133D01*
X61500D01*
Y24542D01*
X57958Y27494D02*
Y28675D01*
Y28084D01*
X61500D01*
Y27494D01*
Y28675D01*
Y30446D02*
X60910D01*
Y31036D01*
X61500D01*
Y30446D01*
Y36940D02*
X57958D01*
Y38711D01*
X58548Y39301D01*
X59729D01*
X60319Y38711D01*
Y36940D01*
X58548Y42843D02*
X57958Y42253D01*
Y41072D01*
X58548Y40482D01*
X60910D01*
X61500Y41072D01*
Y42253D01*
X60910Y42843D01*
X57958Y44024D02*
X61500D01*
Y45795D01*
X60910Y46385D01*
X60319D01*
X59729Y45795D01*
Y44024D01*
Y45795D01*
X59139Y46385D01*
X58548D01*
X57958Y45795D01*
Y44024D01*
M02*
