G04 Layer_Physical_Order=1*
G04 Layer_Color=255*
%FSLAX25Y25*%
%MOIN*%
G70*
G01*
G75*
%ADD10C,0.03000*%
%ADD11C,0.02000*%
%ADD12R,0.70866X0.02756*%
%ADD13R,2.95276X0.02756*%
%ADD14R,2.95276X0.03150*%
%ADD15R,0.03937X3.89764*%
%ADD16R,0.05905X0.05905*%
%ADD17C,0.05905*%
%ADD18R,0.05905X0.05905*%
%ADD19C,0.07874*%
%ADD20R,0.07874X0.07874*%
%ADD21R,0.05315X0.05315*%
%ADD22R,0.06693X0.06693*%
%ADD23C,0.06693*%
%ADD24C,0.05512*%
%ADD25R,0.07087X0.07087*%
%ADD26C,0.07087*%
%ADD27R,0.05315X0.05315*%
%ADD28R,0.06693X0.06693*%
%ADD29R,0.07087X0.07087*%
G36*
X370958Y388928D02*
X372664Y387066D01*
X372554Y384542D01*
X370692Y382836D01*
X368168Y382946D01*
X366462Y384808D01*
X366572Y387332D01*
X368434Y389038D01*
X370958Y388928D01*
D02*
G37*
G36*
X363458Y383928D02*
X365164Y382066D01*
X365054Y379542D01*
X363192Y377836D01*
X360668Y377946D01*
X358962Y379808D01*
X359072Y382332D01*
X360934Y384038D01*
X363458Y383928D01*
D02*
G37*
G36*
X370958Y378928D02*
X372664Y377066D01*
X372554Y374542D01*
X370692Y372836D01*
X368168Y372946D01*
X366462Y374808D01*
X366572Y377332D01*
X368434Y379038D01*
X370958Y378928D01*
D02*
G37*
G36*
X369458Y328428D02*
X371164Y326566D01*
X371054Y324042D01*
X369192Y322336D01*
X366668Y322446D01*
X364962Y324308D01*
X365072Y326832D01*
X366934Y328538D01*
X369458Y328428D01*
D02*
G37*
G36*
X361958Y323428D02*
X363664Y321566D01*
X363554Y319042D01*
X361692Y317336D01*
X359168Y317446D01*
X357462Y319308D01*
X357572Y321832D01*
X359434Y323538D01*
X361958Y323428D01*
D02*
G37*
G36*
X369458Y318428D02*
X371164Y316566D01*
X371054Y314042D01*
X369192Y312336D01*
X366668Y312446D01*
X364962Y314308D01*
X365072Y316832D01*
X366934Y318538D01*
X369458Y318428D01*
D02*
G37*
D10*
X352906Y351437D02*
Y354780D01*
X369563Y371437D01*
Y375937D01*
X368063Y325437D02*
Y329937D01*
X376563Y338437D01*
Y378937D01*
X369563Y385937D02*
X376563Y378937D01*
D11*
X324500Y71000D02*
X343500D01*
X350800Y254000D02*
X357500D01*
X350300Y253500D02*
X350800Y254000D01*
X343500Y253500D02*
X350300D01*
X314500Y44000D02*
X319500Y49000D01*
X331000D01*
X334000Y46000D01*
X348600D01*
X352100Y42500D01*
X371843D01*
X376843Y47500D01*
X353657Y51000D02*
X357157Y47500D01*
X343500Y51000D02*
X353657D01*
X372100Y234600D02*
X377500Y240000D01*
X355600Y234600D02*
X372100D01*
X351700Y238500D02*
X355600Y234600D01*
X339000Y238500D02*
X351700D01*
X336500Y241000D02*
X339000Y238500D01*
X319500Y241000D02*
X336500D01*
X314500Y236000D02*
X319500Y241000D01*
X339500Y223500D02*
X343500D01*
X324500Y208500D02*
X339500Y223500D01*
X324500Y97000D02*
X340500Y81000D01*
X343500D01*
X354600Y138900D02*
X373400D01*
X377500Y143000D01*
Y210000D01*
X324500Y194500D02*
X343500Y213500D01*
X324500Y181500D02*
Y194500D01*
X357000Y93000D02*
X367100Y103100D01*
Y115215D01*
X351815Y130500D02*
X367100Y115215D01*
X341000Y246000D02*
X343500Y243500D01*
X341000Y246000D02*
Y247000D01*
X324500Y263500D02*
X341000Y247000D01*
X332000Y135500D02*
X340000D01*
X314500Y153000D02*
X332000Y135500D01*
X314500Y97000D02*
X323000Y105500D01*
X340000D01*
X314500Y15000D02*
X319900Y9600D01*
X342100D01*
X376000Y93000D02*
X378600Y95600D01*
Y133000D01*
X375600Y136000D02*
X378600Y133000D01*
X357500Y136000D02*
X375600D01*
X343500Y273500D02*
X348500Y278500D01*
X372343D01*
X377343Y273500D01*
X363500Y159500D02*
X368500Y154500D01*
X344000Y159500D02*
X363500D01*
X337500Y153000D02*
X344000Y159500D01*
X324500Y153000D02*
X337500D01*
X343500Y31000D02*
X346900Y34400D01*
X371443D01*
X376843Y29000D01*
X324500Y236000D02*
X327000Y233500D01*
X343500D01*
X335100Y285100D02*
X343500Y293500D01*
X319900Y285100D02*
X335100D01*
X314500Y290500D02*
X319900Y285100D01*
X354600Y138900D02*
X357500Y136000D01*
X344000Y149500D02*
X354600Y138900D01*
X324500Y21000D02*
X343500D01*
X309500Y36000D02*
X324500Y21000D01*
X360472Y112000D02*
X361657Y110815D01*
X309500Y36000D02*
Y103000D01*
X318500Y112000D01*
X360472D01*
X342100Y9600D02*
X343500Y11000D01*
X71500Y360000D02*
Y379000D01*
X254500Y346000D02*
Y352700D01*
X254000Y353200D02*
X254500Y352700D01*
X254000Y353200D02*
Y360000D01*
X44500Y389000D02*
X49500Y384000D01*
Y372500D02*
Y384000D01*
X46500Y369500D02*
X49500Y372500D01*
X46500Y354900D02*
Y369500D01*
X43000Y351400D02*
X46500Y354900D01*
X43000Y331657D02*
Y351400D01*
Y331657D02*
X48000Y326657D01*
Y346343D02*
X51500Y349843D01*
Y360000D01*
X235100Y331400D02*
X240500Y326000D01*
X235100Y331400D02*
Y347900D01*
X239000Y351800D01*
Y364500D01*
X241500Y367000D01*
Y384000D01*
X236500Y389000D02*
X241500Y384000D01*
X224000Y360000D02*
Y364000D01*
X209000Y379000D02*
X224000Y364000D01*
X81500Y363000D02*
X97500Y379000D01*
X81500Y360000D02*
Y363000D01*
X139400Y330100D02*
Y348900D01*
Y330100D02*
X143500Y326000D01*
X210500D01*
X195000Y379000D02*
X214000Y360000D01*
X182000Y379000D02*
X195000D01*
X93500Y346500D02*
X103600Y336400D01*
X115715D01*
X131000Y351685D01*
X244000Y360000D02*
X246500Y362500D01*
X247500D01*
X264000Y379000D01*
X136000Y363500D02*
Y371500D01*
X153500Y389000D01*
X97500D02*
X106000Y380500D01*
Y363500D02*
Y380500D01*
X10100Y383600D02*
X15500Y389000D01*
X10100Y361400D02*
Y383600D01*
X93500Y327500D02*
X96100Y324900D01*
X133500D01*
X136500Y327900D01*
Y346000D01*
X274000Y360000D02*
X279000Y355000D01*
Y331157D02*
Y355000D01*
X274000Y326157D02*
X279000Y331157D01*
X155000Y335000D02*
X160000Y340000D01*
Y359500D01*
X153500Y366000D02*
X160000Y359500D01*
X153500Y366000D02*
Y379000D01*
X31500Y360000D02*
X34900Y356600D01*
Y332057D02*
Y356600D01*
X29500Y326657D02*
X34900Y332057D01*
X234000Y376500D02*
X236500Y379000D01*
X234000Y360000D02*
Y376500D01*
X285600Y368400D02*
X294000Y360000D01*
X285600Y368400D02*
Y383600D01*
X291000Y389000D01*
X136500Y346000D02*
X139400Y348900D01*
X150000Y359500D01*
X21500Y360000D02*
Y379000D01*
X36500Y394000D01*
X111315Y341843D02*
X112500Y343028D01*
X36500Y394000D02*
X103500D01*
X112500Y385000D01*
Y343028D02*
Y385000D01*
X10100Y361400D02*
X11500Y360000D01*
X71500Y282000D02*
Y301000D01*
X254500Y268000D02*
Y274700D01*
X254000Y275200D02*
X254500Y274700D01*
X254000Y275200D02*
Y282000D01*
X44500Y311000D02*
X49500Y306000D01*
Y294500D02*
Y306000D01*
X46500Y291500D02*
X49500Y294500D01*
X46500Y276900D02*
Y291500D01*
X43000Y273400D02*
X46500Y276900D01*
X43000Y253657D02*
Y273400D01*
Y253657D02*
X48000Y248657D01*
Y268343D02*
X51500Y271843D01*
Y282000D01*
X235100Y253400D02*
X240500Y248000D01*
X235100Y253400D02*
Y269900D01*
X239000Y273800D01*
Y286500D01*
X241500Y289000D01*
Y306000D01*
X236500Y311000D02*
X241500Y306000D01*
X224000Y282000D02*
Y286000D01*
X209000Y301000D02*
X224000Y286000D01*
X81500Y285000D02*
X97500Y301000D01*
X81500Y282000D02*
Y285000D01*
X139400Y252100D02*
Y270900D01*
Y252100D02*
X143500Y248000D01*
X210500D01*
X195000Y301000D02*
X214000Y282000D01*
X182000Y301000D02*
X195000D01*
X93500Y268500D02*
X103600Y258400D01*
X115715D01*
X131000Y273685D01*
X244000Y282000D02*
X246500Y284500D01*
X247500D01*
X264000Y301000D01*
X136000Y285500D02*
Y293500D01*
X153500Y311000D01*
X97500D02*
X106000Y302500D01*
Y285500D02*
Y302500D01*
X10100Y305600D02*
X15500Y311000D01*
X10100Y283400D02*
Y305600D01*
X93500Y249500D02*
X96100Y246900D01*
X133500D01*
X136500Y249900D01*
Y268000D01*
X274000Y282000D02*
X279000Y277000D01*
Y253157D02*
Y277000D01*
X274000Y248157D02*
X279000Y253157D01*
X155000Y257000D02*
X160000Y262000D01*
Y281500D01*
X153500Y288000D02*
X160000Y281500D01*
X153500Y288000D02*
Y301000D01*
X31500Y282000D02*
X34900Y278600D01*
Y254057D02*
Y278600D01*
X29500Y248657D02*
X34900Y254057D01*
X234000Y298500D02*
X236500Y301000D01*
X234000Y282000D02*
Y298500D01*
X285600Y290400D02*
X294000Y282000D01*
X285600Y290400D02*
Y305600D01*
X291000Y311000D01*
X136500Y268000D02*
X139400Y270900D01*
X150000Y281500D01*
X21500Y282000D02*
Y301000D01*
X36500Y316000D01*
X111315Y263843D02*
X112500Y265028D01*
X36500Y316000D02*
X103500D01*
X112500Y307000D01*
Y265028D02*
Y307000D01*
X10100Y283400D02*
X11500Y282000D01*
X71500Y202500D02*
Y221500D01*
X254500Y188500D02*
Y195200D01*
X254000Y195700D02*
X254500Y195200D01*
X254000Y195700D02*
Y202500D01*
X44500Y231500D02*
X49500Y226500D01*
Y215000D02*
Y226500D01*
X46500Y212000D02*
X49500Y215000D01*
X46500Y197400D02*
Y212000D01*
X43000Y193900D02*
X46500Y197400D01*
X43000Y174157D02*
Y193900D01*
Y174157D02*
X48000Y169157D01*
Y188843D02*
X51500Y192343D01*
Y202500D01*
X235100Y173900D02*
X240500Y168500D01*
X235100Y173900D02*
Y190400D01*
X239000Y194300D01*
Y207000D01*
X241500Y209500D01*
Y226500D01*
X236500Y231500D02*
X241500Y226500D01*
X224000Y202500D02*
Y206500D01*
X209000Y221500D02*
X224000Y206500D01*
X81500Y205500D02*
X97500Y221500D01*
X81500Y202500D02*
Y205500D01*
X139400Y172600D02*
Y191400D01*
Y172600D02*
X143500Y168500D01*
X210500D01*
X195000Y221500D02*
X214000Y202500D01*
X182000Y221500D02*
X195000D01*
X93500Y189000D02*
X103600Y178900D01*
X115715D01*
X131000Y194185D01*
X244000Y202500D02*
X246500Y205000D01*
X247500D01*
X264000Y221500D01*
X136000Y206000D02*
Y214000D01*
X153500Y231500D01*
X97500D02*
X106000Y223000D01*
Y206000D02*
Y223000D01*
X10100Y226100D02*
X15500Y231500D01*
X10100Y203900D02*
Y226100D01*
X93500Y170000D02*
X96100Y167400D01*
X133500D01*
X136500Y170400D01*
Y188500D01*
X274000Y202500D02*
X279000Y197500D01*
Y173657D02*
Y197500D01*
X274000Y168657D02*
X279000Y173657D01*
X155000Y177500D02*
X160000Y182500D01*
Y202000D01*
X153500Y208500D02*
X160000Y202000D01*
X153500Y208500D02*
Y221500D01*
X31500Y202500D02*
X34900Y199100D01*
Y174557D02*
Y199100D01*
X29500Y169157D02*
X34900Y174557D01*
X234000Y219000D02*
X236500Y221500D01*
X234000Y202500D02*
Y219000D01*
X285600Y210900D02*
X294000Y202500D01*
X285600Y210900D02*
Y226100D01*
X291000Y231500D01*
X136500Y188500D02*
X139400Y191400D01*
X150000Y202000D01*
X21500Y202500D02*
Y221500D01*
X36500Y236500D01*
X111315Y184343D02*
X112500Y185528D01*
X36500Y236500D02*
X103500D01*
X112500Y227500D01*
Y185528D02*
Y227500D01*
X10100Y203900D02*
X11500Y202500D01*
X71500Y122000D02*
Y141000D01*
X254500Y108000D02*
Y114700D01*
X254000Y115200D02*
X254500Y114700D01*
X254000Y115200D02*
Y122000D01*
X44500Y151000D02*
X49500Y146000D01*
Y134500D02*
Y146000D01*
X46500Y131500D02*
X49500Y134500D01*
X46500Y116900D02*
Y131500D01*
X43000Y113400D02*
X46500Y116900D01*
X43000Y93657D02*
Y113400D01*
Y93657D02*
X48000Y88657D01*
Y108343D02*
X51500Y111843D01*
Y122000D01*
X235100Y93400D02*
X240500Y88000D01*
X235100Y93400D02*
Y109900D01*
X239000Y113800D01*
Y126500D01*
X241500Y129000D01*
Y146000D01*
X236500Y151000D02*
X241500Y146000D01*
X224000Y122000D02*
Y126000D01*
X209000Y141000D02*
X224000Y126000D01*
X81500Y125000D02*
X97500Y141000D01*
X81500Y122000D02*
Y125000D01*
X139400Y92100D02*
Y110900D01*
Y92100D02*
X143500Y88000D01*
X210500D01*
X195000Y141000D02*
X214000Y122000D01*
X182000Y141000D02*
X195000D01*
X93500Y108500D02*
X103600Y98400D01*
X115715D01*
X131000Y113685D01*
X244000Y122000D02*
X246500Y124500D01*
X247500D01*
X264000Y141000D01*
X136000Y125500D02*
Y133500D01*
X153500Y151000D01*
X97500D02*
X106000Y142500D01*
Y125500D02*
Y142500D01*
X10100Y145600D02*
X15500Y151000D01*
X10100Y123400D02*
Y145600D01*
X93500Y89500D02*
X96100Y86900D01*
X133500D01*
X136500Y89900D01*
Y108000D01*
X274000Y122000D02*
X279000Y117000D01*
Y93157D02*
Y117000D01*
X274000Y88157D02*
X279000Y93157D01*
X155000Y97000D02*
X160000Y102000D01*
Y121500D01*
X153500Y128000D02*
X160000Y121500D01*
X153500Y128000D02*
Y141000D01*
X31500Y122000D02*
X34900Y118600D01*
Y94057D02*
Y118600D01*
X29500Y88657D02*
X34900Y94057D01*
X234000Y138500D02*
X236500Y141000D01*
X234000Y122000D02*
Y138500D01*
X285600Y130400D02*
X294000Y122000D01*
X285600Y130400D02*
Y145600D01*
X291000Y151000D01*
X136500Y108000D02*
X139400Y110900D01*
X150000Y121500D01*
X21500Y122000D02*
Y141000D01*
X36500Y156000D01*
X111315Y103843D02*
X112500Y105028D01*
X36500Y156000D02*
X103500D01*
X112500Y147000D01*
Y105028D02*
Y147000D01*
X10100Y123400D02*
X11500Y122000D01*
X9600Y42900D02*
X11000Y41500D01*
X112000Y24528D02*
Y66500D01*
X103000Y75500D02*
X112000Y66500D01*
X36000Y75500D02*
X103000D01*
X110815Y23343D02*
X112000Y24528D01*
X21000Y60500D02*
X36000Y75500D01*
X21000Y41500D02*
Y60500D01*
X138900Y30400D02*
X149500Y41000D01*
X136000Y27500D02*
X138900Y30400D01*
X285100Y65100D02*
X290500Y70500D01*
X285100Y49900D02*
Y65100D01*
Y49900D02*
X293500Y41500D01*
X233500D02*
Y58000D01*
X236000Y60500D01*
X29000Y8157D02*
X34400Y13557D01*
Y38100D01*
X31000Y41500D02*
X34400Y38100D01*
X153000Y47500D02*
Y60500D01*
Y47500D02*
X159500Y41000D01*
Y21500D02*
Y41000D01*
X154500Y16500D02*
X159500Y21500D01*
X273500Y7657D02*
X278500Y12657D01*
Y36500D01*
X273500Y41500D02*
X278500Y36500D01*
X136000Y9400D02*
Y27500D01*
X133000Y6400D02*
X136000Y9400D01*
X95600Y6400D02*
X133000D01*
X93000Y9000D02*
X95600Y6400D01*
X9600Y42900D02*
Y65100D01*
X15000Y70500D01*
X105500Y45000D02*
Y62000D01*
X97000Y70500D02*
X105500Y62000D01*
X135500Y53000D02*
X153000Y70500D01*
X135500Y45000D02*
Y53000D01*
X247000Y44000D02*
X263500Y60500D01*
X246000Y44000D02*
X247000D01*
X243500Y41500D02*
X246000Y44000D01*
X115215Y17900D02*
X130500Y33185D01*
X103100Y17900D02*
X115215D01*
X93000Y28000D02*
X103100Y17900D01*
X181500Y60500D02*
X194500D01*
X213500Y41500D01*
X143000Y7500D02*
X210000D01*
X138900Y11600D02*
X143000Y7500D01*
X138900Y11600D02*
Y30400D01*
X81000Y41500D02*
Y44500D01*
X97000Y60500D01*
X208500D02*
X223500Y45500D01*
Y41500D02*
Y45500D01*
X236000Y70500D02*
X241000Y65500D01*
Y48500D02*
Y65500D01*
X238500Y46000D02*
X241000Y48500D01*
X238500Y33300D02*
Y46000D01*
X234600Y29400D02*
X238500Y33300D01*
X234600Y12900D02*
Y29400D01*
Y12900D02*
X240000Y7500D01*
X51000Y31343D02*
Y41500D01*
X47500Y27843D02*
X51000Y31343D01*
X42500Y13157D02*
X47500Y8157D01*
X42500Y13157D02*
Y32900D01*
X46000Y36400D01*
Y51000D01*
X49000Y54000D01*
Y65500D01*
X44000Y70500D02*
X49000Y65500D01*
X253500Y34700D02*
Y41500D01*
Y34700D02*
X254000Y34200D01*
Y27500D02*
Y34200D01*
X71000Y41500D02*
Y60500D01*
D12*
X346000Y305000D02*
D03*
D13*
X152000Y318500D02*
D03*
D14*
X151000Y240000D02*
D03*
X152000Y160000D02*
D03*
Y79500D02*
D03*
D15*
X305500Y198000D02*
D03*
D16*
X368563Y340595D02*
D03*
X330563Y325437D02*
D03*
X329063Y376937D02*
D03*
X343500Y91000D02*
D03*
Y213500D02*
D03*
X124500Y389000D02*
D03*
X97500D02*
D03*
X71500D02*
D03*
X44500D02*
D03*
X15500D02*
D03*
X182000D02*
D03*
X11500Y326657D02*
D03*
X209000Y389000D02*
D03*
X236500D02*
D03*
X29500Y326657D02*
D03*
X264000Y389000D02*
D03*
X291000D02*
D03*
X48000Y326657D02*
D03*
X153500Y389000D02*
D03*
X124500Y311000D02*
D03*
X97500D02*
D03*
X71500D02*
D03*
X44500D02*
D03*
X15500D02*
D03*
X182000D02*
D03*
X11500Y248657D02*
D03*
X209000Y311000D02*
D03*
X236500D02*
D03*
X29500Y248657D02*
D03*
X264000Y311000D02*
D03*
X291000D02*
D03*
X48000Y248657D02*
D03*
X153500Y311000D02*
D03*
X124500Y231500D02*
D03*
X97500D02*
D03*
X71500D02*
D03*
X44500D02*
D03*
X15500D02*
D03*
X182000D02*
D03*
X11500Y169157D02*
D03*
X209000Y231500D02*
D03*
X236500D02*
D03*
X29500Y169157D02*
D03*
X264000Y231500D02*
D03*
X291000D02*
D03*
X48000Y169157D02*
D03*
X153500Y231500D02*
D03*
X124500Y151000D02*
D03*
X97500D02*
D03*
X71500D02*
D03*
X44500D02*
D03*
X15500D02*
D03*
X182000D02*
D03*
X11500Y88657D02*
D03*
X209000Y151000D02*
D03*
X236500D02*
D03*
X29500Y88657D02*
D03*
X264000Y151000D02*
D03*
X291000D02*
D03*
X48000Y88657D02*
D03*
X153500Y151000D02*
D03*
X29000Y8157D02*
D03*
X47500D02*
D03*
X153000Y70500D02*
D03*
X124000D02*
D03*
X97000D02*
D03*
X71000D02*
D03*
X44000D02*
D03*
X15000D02*
D03*
X290500D02*
D03*
X263500D02*
D03*
X236000D02*
D03*
X208500D02*
D03*
X181500D02*
D03*
X11000Y8157D02*
D03*
D17*
X368563Y360279D02*
D03*
X333221Y351437D02*
D03*
X330563Y315437D02*
D03*
X329063Y386937D02*
D03*
X368063Y315437D02*
D03*
X360563Y320437D02*
D03*
X368063Y325437D02*
D03*
X369563Y375937D02*
D03*
X362063Y380937D02*
D03*
X369563Y385937D02*
D03*
X353063Y337937D02*
D03*
X323063D02*
D03*
X353063Y364937D02*
D03*
X323063D02*
D03*
X324500Y124000D02*
D03*
Y97000D02*
D03*
Y71000D02*
D03*
Y44000D02*
D03*
Y15000D02*
D03*
Y181500D02*
D03*
X357157Y11000D02*
D03*
X357657Y293000D02*
D03*
X357000Y93000D02*
D03*
Y63000D02*
D03*
X360000Y209600D02*
D03*
Y239600D02*
D03*
X324500Y208500D02*
D03*
Y236000D02*
D03*
X357157Y29000D02*
D03*
X357657Y273500D02*
D03*
X324500Y263500D02*
D03*
Y290500D02*
D03*
X366000Y63000D02*
D03*
Y93000D02*
D03*
X369000Y240000D02*
D03*
Y210000D02*
D03*
X357157Y47500D02*
D03*
X357500Y254000D02*
D03*
X376000Y93000D02*
D03*
X377500Y210000D02*
D03*
Y240000D02*
D03*
X343500Y71000D02*
D03*
Y61000D02*
D03*
Y51000D02*
D03*
Y41000D02*
D03*
Y31000D02*
D03*
Y21000D02*
D03*
Y11000D02*
D03*
Y81000D02*
D03*
Y233500D02*
D03*
Y243500D02*
D03*
Y253500D02*
D03*
Y263500D02*
D03*
Y273500D02*
D03*
Y283500D02*
D03*
Y293500D02*
D03*
Y223500D02*
D03*
X324500Y153000D02*
D03*
X124500Y379000D02*
D03*
X97500D02*
D03*
X71500D02*
D03*
X44500D02*
D03*
X15500D02*
D03*
X182000D02*
D03*
X11500Y346343D02*
D03*
X293500Y345843D02*
D03*
X93500Y346500D02*
D03*
X63500D02*
D03*
X210100Y343500D02*
D03*
X240100D02*
D03*
X209000Y379000D02*
D03*
X236500D02*
D03*
X29500Y346343D02*
D03*
X274000Y345843D02*
D03*
X264000Y379000D02*
D03*
X291000D02*
D03*
X63500Y337500D02*
D03*
X93500D02*
D03*
X240500Y334500D02*
D03*
X210500D02*
D03*
X48000Y346343D02*
D03*
X254500Y346000D02*
D03*
X93500Y327500D02*
D03*
X210500Y326000D02*
D03*
X240500D02*
D03*
X71500Y360000D02*
D03*
X61500D02*
D03*
X51500D02*
D03*
X41500D02*
D03*
X31500D02*
D03*
X21500D02*
D03*
X11500D02*
D03*
X81500D02*
D03*
X234000D02*
D03*
X244000D02*
D03*
X254000D02*
D03*
X264000D02*
D03*
X274000D02*
D03*
X284000D02*
D03*
X294000D02*
D03*
X224000D02*
D03*
X153500Y379000D02*
D03*
X124500Y301000D02*
D03*
X97500D02*
D03*
X71500D02*
D03*
X44500D02*
D03*
X15500D02*
D03*
X182000D02*
D03*
X11500Y268343D02*
D03*
X293500Y267843D02*
D03*
X93500Y268500D02*
D03*
X63500D02*
D03*
X210100Y265500D02*
D03*
X240100D02*
D03*
X209000Y301000D02*
D03*
X236500D02*
D03*
X29500Y268343D02*
D03*
X274000Y267843D02*
D03*
X264000Y301000D02*
D03*
X291000D02*
D03*
X63500Y259500D02*
D03*
X93500D02*
D03*
X240500Y256500D02*
D03*
X210500D02*
D03*
X48000Y268343D02*
D03*
X254500Y268000D02*
D03*
X93500Y249500D02*
D03*
X210500Y248000D02*
D03*
X240500D02*
D03*
X71500Y282000D02*
D03*
X61500D02*
D03*
X51500D02*
D03*
X41500D02*
D03*
X31500D02*
D03*
X21500D02*
D03*
X11500D02*
D03*
X81500D02*
D03*
X234000D02*
D03*
X244000D02*
D03*
X254000D02*
D03*
X264000D02*
D03*
X274000D02*
D03*
X284000D02*
D03*
X294000D02*
D03*
X224000D02*
D03*
X153500Y301000D02*
D03*
X124500Y221500D02*
D03*
X97500D02*
D03*
X71500D02*
D03*
X44500D02*
D03*
X15500D02*
D03*
X182000D02*
D03*
X11500Y188843D02*
D03*
X293500Y188343D02*
D03*
X93500Y189000D02*
D03*
X63500D02*
D03*
X210100Y186000D02*
D03*
X240100D02*
D03*
X209000Y221500D02*
D03*
X236500D02*
D03*
X29500Y188843D02*
D03*
X274000Y188343D02*
D03*
X264000Y221500D02*
D03*
X291000D02*
D03*
X63500Y180000D02*
D03*
X93500D02*
D03*
X240500Y177000D02*
D03*
X210500D02*
D03*
X48000Y188843D02*
D03*
X254500Y188500D02*
D03*
X93500Y170000D02*
D03*
X210500Y168500D02*
D03*
X240500D02*
D03*
X71500Y202500D02*
D03*
X61500D02*
D03*
X51500D02*
D03*
X41500D02*
D03*
X31500D02*
D03*
X21500D02*
D03*
X11500D02*
D03*
X81500D02*
D03*
X234000D02*
D03*
X244000D02*
D03*
X254000D02*
D03*
X264000D02*
D03*
X274000D02*
D03*
X284000D02*
D03*
X294000D02*
D03*
X224000D02*
D03*
X153500Y221500D02*
D03*
X124500Y141000D02*
D03*
X97500D02*
D03*
X71500D02*
D03*
X44500D02*
D03*
X15500D02*
D03*
X182000D02*
D03*
X11500Y108343D02*
D03*
X293500Y107843D02*
D03*
X93500Y108500D02*
D03*
X63500D02*
D03*
X210100Y105500D02*
D03*
X240100D02*
D03*
X209000Y141000D02*
D03*
X236500D02*
D03*
X29500Y108343D02*
D03*
X274000Y107843D02*
D03*
X264000Y141000D02*
D03*
X291000D02*
D03*
X63500Y99500D02*
D03*
X93500D02*
D03*
X240500Y96500D02*
D03*
X210500D02*
D03*
X48000Y108343D02*
D03*
X254500Y108000D02*
D03*
X93500Y89500D02*
D03*
X210500Y88000D02*
D03*
X240500D02*
D03*
X71500Y122000D02*
D03*
X61500D02*
D03*
X51500D02*
D03*
X41500D02*
D03*
X31500D02*
D03*
X21500D02*
D03*
X11500D02*
D03*
X81500D02*
D03*
X234000D02*
D03*
X244000D02*
D03*
X254000D02*
D03*
X264000D02*
D03*
X274000D02*
D03*
X284000D02*
D03*
X294000D02*
D03*
X224000D02*
D03*
X153500Y141000D02*
D03*
X210000Y7500D02*
D03*
X240000D02*
D03*
X93000Y28000D02*
D03*
X63000D02*
D03*
X29000Y27843D02*
D03*
X47500D02*
D03*
X63000Y19000D02*
D03*
X93000D02*
D03*
Y9000D02*
D03*
X153000Y60500D02*
D03*
X124000D02*
D03*
X97000D02*
D03*
X71000D02*
D03*
X44000D02*
D03*
X15000D02*
D03*
X290500D02*
D03*
X263500D02*
D03*
X236000D02*
D03*
X208500D02*
D03*
X181500D02*
D03*
X233500Y41500D02*
D03*
X243500D02*
D03*
X253500D02*
D03*
X263500D02*
D03*
X273500D02*
D03*
X283500D02*
D03*
X293500D02*
D03*
X223500D02*
D03*
X254000Y27500D02*
D03*
X71000Y41500D02*
D03*
X61000D02*
D03*
X51000D02*
D03*
X41000D02*
D03*
X31000D02*
D03*
X21000D02*
D03*
X11000D02*
D03*
X81000D02*
D03*
X240000Y16000D02*
D03*
X210000D02*
D03*
X273500Y27343D02*
D03*
X209600Y25000D02*
D03*
X239600D02*
D03*
X293000Y27343D02*
D03*
X11000Y27843D02*
D03*
D18*
X352906Y351437D02*
D03*
X314500Y124000D02*
D03*
Y97000D02*
D03*
Y71000D02*
D03*
Y44000D02*
D03*
Y15000D02*
D03*
Y181500D02*
D03*
X376843Y11000D02*
D03*
X314500Y208500D02*
D03*
Y236000D02*
D03*
X376843Y29000D02*
D03*
X314500Y263500D02*
D03*
Y290500D02*
D03*
X376843Y47500D02*
D03*
X314500Y153000D02*
D03*
X91500Y360000D02*
D03*
X214000D02*
D03*
X91500Y282000D02*
D03*
X214000D02*
D03*
X91500Y202500D02*
D03*
X214000D02*
D03*
X91500Y122000D02*
D03*
X214000D02*
D03*
X213500Y41500D02*
D03*
X91000D02*
D03*
D19*
X349563Y386937D02*
D03*
D20*
Y376937D02*
D03*
D21*
X377343Y293000D02*
D03*
Y273500D02*
D03*
X377185Y254000D02*
D03*
D22*
X371500Y130500D02*
D03*
X370843Y196343D02*
D03*
D23*
X361657Y110815D02*
D03*
X351815Y130500D02*
D03*
X361000Y176657D02*
D03*
X351157Y196343D02*
D03*
X111315Y341843D02*
D03*
X131000Y351685D02*
D03*
X177157Y342500D02*
D03*
X196843Y352343D02*
D03*
X111315Y263843D02*
D03*
X131000Y273685D02*
D03*
X177157Y264500D02*
D03*
X196843Y274343D02*
D03*
X111315Y184343D02*
D03*
X131000Y194185D02*
D03*
X177157Y185000D02*
D03*
X196843Y194843D02*
D03*
X111315Y103843D02*
D03*
X131000Y113685D02*
D03*
X177157Y104500D02*
D03*
X196843Y114343D02*
D03*
X176657Y24000D02*
D03*
X196343Y33843D02*
D03*
X110815Y23343D02*
D03*
X130500Y33185D02*
D03*
D24*
X376000Y63000D02*
D03*
X340000Y135500D02*
D03*
Y105500D02*
D03*
X63500Y327500D02*
D03*
X136000Y363500D02*
D03*
X106000D02*
D03*
X63500Y249500D02*
D03*
X136000Y285500D02*
D03*
X106000D02*
D03*
X63500Y170000D02*
D03*
X136000Y206000D02*
D03*
X106000D02*
D03*
X63500Y89500D02*
D03*
X136000Y125500D02*
D03*
X106000D02*
D03*
X135500Y45000D02*
D03*
X105500D02*
D03*
X63000Y9000D02*
D03*
D25*
X368500Y144500D02*
D03*
Y164500D02*
D03*
X344000Y149500D02*
D03*
D26*
X368500Y154500D02*
D03*
X344000Y159500D02*
D03*
X155000Y335000D02*
D03*
X160000Y359500D02*
D03*
X155000Y257000D02*
D03*
X160000Y281500D02*
D03*
X155000Y177500D02*
D03*
X160000Y202000D02*
D03*
X155000Y97000D02*
D03*
X160000Y121500D02*
D03*
X154500Y16500D02*
D03*
X159500Y41000D02*
D03*
D27*
X293500Y326157D02*
D03*
X274000D02*
D03*
X254500Y326315D02*
D03*
X293500Y248157D02*
D03*
X274000D02*
D03*
X254500Y248315D02*
D03*
X293500Y168657D02*
D03*
X274000D02*
D03*
X254500Y168815D02*
D03*
X293500Y88157D02*
D03*
X274000D02*
D03*
X254500Y88315D02*
D03*
X254000Y7815D02*
D03*
X273500Y7657D02*
D03*
X293000D02*
D03*
D28*
X131000Y332000D02*
D03*
X196843Y332657D02*
D03*
X131000Y254000D02*
D03*
X196843Y254657D02*
D03*
X131000Y174500D02*
D03*
X196843Y175157D02*
D03*
X131000Y94000D02*
D03*
X196843Y94657D02*
D03*
X196343Y14157D02*
D03*
X130500Y13500D02*
D03*
D29*
X145000Y335000D02*
D03*
X165000D02*
D03*
X150000Y359500D02*
D03*
X145000Y257000D02*
D03*
X165000D02*
D03*
X150000Y281500D02*
D03*
X145000Y177500D02*
D03*
X165000D02*
D03*
X150000Y202000D02*
D03*
X145000Y97000D02*
D03*
X165000D02*
D03*
X150000Y121500D02*
D03*
X144500Y16500D02*
D03*
X164500D02*
D03*
X149500Y41000D02*
D03*
M02*
