G04 Layer_Physical_Order=2*
G04 Layer_Color=16711680*
%FSLAX25Y25*%
%MOIN*%
G70*
G01*
G75*
%ADD10C,0.03000*%
%ADD11C,0.02000*%
%ADD12R,0.70866X0.02756*%
%ADD13R,2.95276X0.02756*%
%ADD14R,2.95276X0.03150*%
%ADD15R,0.03937X3.89764*%
%ADD16R,0.05905X0.05905*%
%ADD17C,0.05905*%
%ADD18R,0.05905X0.05905*%
%ADD19C,0.07874*%
%ADD20R,0.07874X0.07874*%
%ADD21R,0.05315X0.05315*%
%ADD22R,0.06693X0.06693*%
%ADD23C,0.06693*%
%ADD24C,0.05512*%
%ADD25R,0.07087X0.07087*%
%ADD26C,0.07087*%
%ADD27R,0.05315X0.05315*%
%ADD28R,0.06693X0.06693*%
%ADD29R,0.07087X0.07087*%
G36*
X370958Y388928D02*
X372664Y387066D01*
X372554Y384542D01*
X370692Y382836D01*
X368168Y382946D01*
X366462Y384808D01*
X366572Y387332D01*
X368434Y389038D01*
X370958Y388928D01*
D02*
G37*
G36*
X363458Y383928D02*
X365164Y382066D01*
X365054Y379542D01*
X363192Y377836D01*
X360668Y377946D01*
X358962Y379808D01*
X359072Y382332D01*
X360934Y384038D01*
X363458Y383928D01*
D02*
G37*
G36*
X370958Y378928D02*
X372664Y377066D01*
X372554Y374542D01*
X370692Y372836D01*
X368168Y372946D01*
X366462Y374808D01*
X366572Y377332D01*
X368434Y379038D01*
X370958Y378928D01*
D02*
G37*
G36*
X369458Y328428D02*
X371164Y326566D01*
X371054Y324042D01*
X369192Y322336D01*
X366668Y322446D01*
X364962Y324308D01*
X365072Y326832D01*
X366934Y328538D01*
X369458Y328428D01*
D02*
G37*
G36*
X361958Y323428D02*
X363664Y321566D01*
X363554Y319042D01*
X361692Y317336D01*
X359168Y317446D01*
X357462Y319308D01*
X357572Y321832D01*
X359434Y323538D01*
X361958Y323428D01*
D02*
G37*
G36*
X369458Y318428D02*
X371164Y316566D01*
X371054Y314042D01*
X369192Y312336D01*
X366668Y312446D01*
X364962Y314308D01*
X365072Y316832D01*
X366934Y318538D01*
X369458Y318428D01*
D02*
G37*
D10*
X323063Y337937D02*
Y364937D01*
Y370937D01*
X329063Y376937D01*
X333221Y351437D02*
X339563D01*
X353063Y337937D01*
X330563Y315437D02*
X350063D01*
X353563Y311937D01*
X364563D01*
X368063Y315437D01*
X360563Y320437D02*
Y330437D01*
X353063Y337937D02*
X360563Y330437D01*
X368063Y315437D02*
X374063Y321437D01*
Y335937D01*
X369406Y340595D02*
X374063Y335937D01*
X368563Y340595D02*
X369406D01*
X357720Y360279D02*
X368563D01*
X353063Y364937D02*
X357720Y360279D01*
X329063Y386937D02*
X337563D01*
X377563Y383937D02*
Y390937D01*
X369563Y375937D02*
X377563Y383937D01*
X353063Y364937D02*
Y365437D01*
X362063Y374437D01*
Y380937D01*
X329063Y376937D02*
X349563D01*
Y386937D02*
X368563D01*
X369563Y385937D01*
X323063Y337937D02*
X330563Y330437D01*
Y325437D02*
Y330437D01*
X374563Y393937D02*
X377563Y390937D01*
X344563Y393937D02*
X374563D01*
X337563Y386937D02*
X344563Y393937D01*
D11*
X376843Y47500D02*
Y62157D01*
X314500Y71000D02*
Y97000D01*
Y44000D02*
Y71000D01*
Y97000D02*
Y124000D01*
Y15000D02*
Y44000D01*
X370843Y196343D02*
Y202200D01*
X369000Y204043D02*
X370843Y202200D01*
X369000Y204043D02*
Y210000D01*
X357157Y29000D02*
Y47500D01*
X357500Y254000D02*
Y263600D01*
X357657Y263757D01*
Y273500D01*
X314500Y181500D02*
Y208500D01*
Y236000D01*
Y263500D01*
Y290500D01*
X377500Y240000D02*
Y246800D01*
X377185Y247115D02*
X377500Y246800D01*
X377185Y247115D02*
Y254000D01*
X370843Y175057D02*
Y196343D01*
Y175057D02*
X374100Y171800D01*
Y160100D02*
Y171800D01*
X368500Y154500D02*
X374100Y160100D01*
X371500Y130500D02*
Y134600D01*
X374100Y137200D01*
Y148900D01*
X368500Y154500D02*
X374100Y148900D01*
X368500Y164500D02*
Y168800D01*
X367100Y170200D02*
X368500Y168800D01*
X367100Y170200D02*
Y182400D01*
X363000Y186500D02*
X367100Y182400D01*
X347600Y186500D02*
X363000D01*
X343000Y191100D02*
X347600Y186500D01*
X343000Y191100D02*
Y199700D01*
X351800Y208500D01*
Y287143D01*
X357657Y293000D01*
X351157Y196343D02*
X360000Y205185D01*
Y209600D01*
X352047Y79047D02*
X366000Y93000D01*
X352047Y52610D02*
Y79047D01*
Y52610D02*
X357157Y47500D01*
X349047Y19110D02*
X357157Y11000D01*
X349047Y19110D02*
Y119447D01*
X368500Y138900D01*
Y144500D01*
X357000Y63000D02*
X365100Y54900D01*
Y22743D02*
Y54900D01*
Y22743D02*
X376843Y11000D01*
X371400Y34443D02*
X376843Y29000D01*
X371400Y34443D02*
Y57600D01*
X366000Y63000D02*
X371400Y57600D01*
X324500Y110000D02*
X343500Y91000D01*
X324500Y110000D02*
Y124000D01*
X346000Y176657D02*
X361000D01*
X336800Y185857D02*
X346000Y176657D01*
X336800Y185857D02*
Y276800D01*
X343500Y283500D01*
X332100Y49600D02*
X343500Y61000D01*
X332100Y47000D02*
Y49600D01*
X329100Y44000D02*
X332100Y47000D01*
X324500Y44000D02*
X329100D01*
X324500Y15000D02*
Y22000D01*
X343500Y41000D01*
Y263500D02*
X348500Y268500D01*
Y287000D01*
X347000Y288500D02*
X348500Y287000D01*
X324500Y288500D02*
Y290500D01*
X369000Y240000D02*
Y265157D01*
X377343Y273500D01*
X355900Y103100D02*
X366000Y93000D01*
X355900Y103100D02*
Y114900D01*
X371500Y130500D01*
X355000Y251500D02*
X357500Y254000D01*
X355000Y224000D02*
Y251500D01*
Y224000D02*
X369000Y210000D01*
X365600Y281257D02*
X377343Y293000D01*
X365600Y245200D02*
Y281257D01*
X360000Y239600D02*
X365600Y245200D01*
X376000Y63000D02*
X376843Y62157D01*
X324500Y288500D02*
X347000D01*
X48000Y326657D02*
X62657D01*
X71500Y389000D02*
X97500D01*
X44500D02*
X71500D01*
X97500D02*
X124500D01*
X15500D02*
X44500D01*
X196843Y332657D02*
X202700D01*
X204543Y334500D01*
X210500D01*
X29500Y346343D02*
X48000D01*
X254500Y346000D02*
X264100D01*
X264257Y345843D01*
X274000D01*
X182000Y389000D02*
X209000D01*
X236500D01*
X264000D01*
X291000D01*
X240500Y326000D02*
X247300D01*
X247615Y326315D01*
X254500D01*
X175557Y332657D02*
X196843D01*
X172300Y329400D02*
X175557Y332657D01*
X160600Y329400D02*
X172300D01*
X155000Y335000D02*
X160600Y329400D01*
X131000Y332000D02*
X135100D01*
X137700Y329400D01*
X149400D01*
X155000Y335000D01*
X165000D02*
X169300D01*
X170700Y336400D01*
X182900D01*
X187000Y340500D01*
Y355900D01*
X191600Y360500D01*
X200200D01*
X209000Y351700D01*
X287643D01*
X293500Y345843D01*
X196843Y352343D02*
X205685Y343500D01*
X210100D01*
X79547Y351453D02*
X93500Y337500D01*
X53110Y351453D02*
X79547D01*
X48000Y346343D02*
X53110Y351453D01*
X11500Y346343D02*
X19610Y354453D01*
X119947D01*
X139400Y335000D01*
X145000D01*
X55400Y338400D02*
X63500Y346500D01*
X23243Y338400D02*
X55400D01*
X11500Y326657D02*
X23243Y338400D01*
X29500Y326657D02*
X34943Y332100D01*
X58100D01*
X63500Y337500D01*
X91500Y360000D02*
X110500Y379000D01*
X124500D01*
X177157Y342500D02*
Y357500D01*
X186357Y366700D01*
X277300D01*
X284000Y360000D01*
X50100Y371400D02*
X61500Y360000D01*
X47500Y371400D02*
X50100D01*
X44500Y374400D02*
X47500Y371400D01*
X44500Y374400D02*
Y379000D01*
X15500D02*
X22500D01*
X41500Y360000D01*
X264000D02*
X269000Y355000D01*
X287500D01*
X289000Y356500D01*
Y379000D02*
X291000D01*
X240500Y334500D02*
X265657D01*
X274000Y326157D01*
X93500Y337500D02*
X103600Y347600D01*
X115400D01*
X131000Y332000D01*
X252000Y348500D02*
X254500Y346000D01*
X224500Y348500D02*
X252000D01*
X210500Y334500D02*
X224500Y348500D01*
X281757Y337900D02*
X293500Y326157D01*
X245700Y337900D02*
X281757D01*
X240100Y343500D02*
X245700Y337900D01*
X62657Y326657D02*
X63500Y327500D01*
X289000Y356500D02*
Y379000D01*
X48000Y248657D02*
X62657D01*
X71500Y311000D02*
X97500D01*
X44500D02*
X71500D01*
X97500D02*
X124500D01*
X15500D02*
X44500D01*
X196843Y254657D02*
X202700D01*
X204543Y256500D01*
X210500D01*
X29500Y268343D02*
X48000D01*
X254500Y268000D02*
X264100D01*
X264257Y267843D01*
X274000D01*
X182000Y311000D02*
X209000D01*
X236500D01*
X264000D01*
X291000D01*
X240500Y248000D02*
X247300D01*
X247615Y248315D01*
X254500D01*
X175557Y254657D02*
X196843D01*
X172300Y251400D02*
X175557Y254657D01*
X160600Y251400D02*
X172300D01*
X155000Y257000D02*
X160600Y251400D01*
X131000Y254000D02*
X135100D01*
X137700Y251400D01*
X149400D01*
X155000Y257000D01*
X165000D02*
X169300D01*
X170700Y258400D01*
X182900D01*
X187000Y262500D01*
Y277900D01*
X191600Y282500D01*
X200200D01*
X209000Y273700D01*
X287643D01*
X293500Y267843D01*
X196843Y274343D02*
X205685Y265500D01*
X210100D01*
X79547Y273453D02*
X93500Y259500D01*
X53110Y273453D02*
X79547D01*
X48000Y268343D02*
X53110Y273453D01*
X11500Y268343D02*
X19610Y276453D01*
X119947D01*
X139400Y257000D01*
X145000D01*
X55400Y260400D02*
X63500Y268500D01*
X23243Y260400D02*
X55400D01*
X11500Y248657D02*
X23243Y260400D01*
X29500Y248657D02*
X34943Y254100D01*
X58100D01*
X63500Y259500D01*
X91500Y282000D02*
X110500Y301000D01*
X124500D01*
X177157Y264500D02*
Y279500D01*
X186357Y288700D01*
X277300D01*
X284000Y282000D01*
X50100Y293400D02*
X61500Y282000D01*
X47500Y293400D02*
X50100D01*
X44500Y296400D02*
X47500Y293400D01*
X44500Y296400D02*
Y301000D01*
X15500D02*
X22500D01*
X41500Y282000D01*
X264000D02*
X269000Y277000D01*
X287500D01*
X289000Y278500D01*
Y301000D02*
X291000D01*
X240500Y256500D02*
X265657D01*
X274000Y248157D01*
X93500Y259500D02*
X103600Y269600D01*
X115400D01*
X131000Y254000D01*
X252000Y270500D02*
X254500Y268000D01*
X224500Y270500D02*
X252000D01*
X210500Y256500D02*
X224500Y270500D01*
X281757Y259900D02*
X293500Y248157D01*
X245700Y259900D02*
X281757D01*
X240100Y265500D02*
X245700Y259900D01*
X62657Y248657D02*
X63500Y249500D01*
X289000Y278500D02*
Y301000D01*
X48000Y169157D02*
X62657D01*
X71500Y231500D02*
X97500D01*
X44500D02*
X71500D01*
X97500D02*
X124500D01*
X15500D02*
X44500D01*
X196843Y175157D02*
X202700D01*
X204543Y177000D01*
X210500D01*
X29500Y188843D02*
X48000D01*
X254500Y188500D02*
X264100D01*
X264257Y188343D01*
X274000D01*
X182000Y231500D02*
X209000D01*
X236500D01*
X264000D01*
X291000D01*
X240500Y168500D02*
X247300D01*
X247615Y168815D01*
X254500D01*
X175557Y175157D02*
X196843D01*
X172300Y171900D02*
X175557Y175157D01*
X160600Y171900D02*
X172300D01*
X155000Y177500D02*
X160600Y171900D01*
X131000Y174500D02*
X135100D01*
X137700Y171900D01*
X149400D01*
X155000Y177500D01*
X165000D02*
X169300D01*
X170700Y178900D01*
X182900D01*
X187000Y183000D01*
Y198400D01*
X191600Y203000D01*
X200200D01*
X209000Y194200D01*
X287643D01*
X293500Y188343D01*
X196843Y194843D02*
X205685Y186000D01*
X210100D01*
X79547Y193953D02*
X93500Y180000D01*
X53110Y193953D02*
X79547D01*
X48000Y188843D02*
X53110Y193953D01*
X11500Y188843D02*
X19610Y196953D01*
X119947D01*
X139400Y177500D01*
X145000D01*
X55400Y180900D02*
X63500Y189000D01*
X23243Y180900D02*
X55400D01*
X11500Y169157D02*
X23243Y180900D01*
X29500Y169157D02*
X34943Y174600D01*
X58100D01*
X63500Y180000D01*
X91500Y202500D02*
X110500Y221500D01*
X124500D01*
X177157Y185000D02*
Y200000D01*
X186357Y209200D01*
X277300D01*
X284000Y202500D01*
X50100Y213900D02*
X61500Y202500D01*
X47500Y213900D02*
X50100D01*
X44500Y216900D02*
X47500Y213900D01*
X44500Y216900D02*
Y221500D01*
X15500D02*
X22500D01*
X41500Y202500D01*
X264000D02*
X269000Y197500D01*
X287500D01*
X289000Y199000D01*
Y221500D02*
X291000D01*
X240500Y177000D02*
X265657D01*
X274000Y168657D01*
X93500Y180000D02*
X103600Y190100D01*
X115400D01*
X131000Y174500D01*
X252000Y191000D02*
X254500Y188500D01*
X224500Y191000D02*
X252000D01*
X210500Y177000D02*
X224500Y191000D01*
X281757Y180400D02*
X293500Y168657D01*
X245700Y180400D02*
X281757D01*
X240100Y186000D02*
X245700Y180400D01*
X62657Y169157D02*
X63500Y170000D01*
X289000Y199000D02*
Y221500D01*
X48000Y88657D02*
X62657D01*
X71500Y151000D02*
X97500D01*
X44500D02*
X71500D01*
X97500D02*
X124500D01*
X15500D02*
X44500D01*
X196843Y94657D02*
X202700D01*
X204543Y96500D01*
X210500D01*
X29500Y108343D02*
X48000D01*
X254500Y108000D02*
X264100D01*
X264257Y107843D01*
X274000D01*
X182000Y151000D02*
X209000D01*
X236500D01*
X264000D01*
X291000D01*
X240500Y88000D02*
X247300D01*
X247615Y88315D01*
X254500D01*
X175557Y94657D02*
X196843D01*
X172300Y91400D02*
X175557Y94657D01*
X160600Y91400D02*
X172300D01*
X155000Y97000D02*
X160600Y91400D01*
X131000Y94000D02*
X135100D01*
X137700Y91400D01*
X149400D01*
X155000Y97000D01*
X165000D02*
X169300D01*
X170700Y98400D01*
X182900D01*
X187000Y102500D01*
Y117900D01*
X191600Y122500D01*
X200200D01*
X209000Y113700D01*
X287643D01*
X293500Y107843D01*
X196843Y114343D02*
X205685Y105500D01*
X210100D01*
X79547Y113453D02*
X93500Y99500D01*
X53110Y113453D02*
X79547D01*
X48000Y108343D02*
X53110Y113453D01*
X11500Y108343D02*
X19610Y116453D01*
X119947D01*
X139400Y97000D01*
X145000D01*
X55400Y100400D02*
X63500Y108500D01*
X23243Y100400D02*
X55400D01*
X11500Y88657D02*
X23243Y100400D01*
X29500Y88657D02*
X34943Y94100D01*
X58100D01*
X63500Y99500D01*
X91500Y122000D02*
X110500Y141000D01*
X124500D01*
X177157Y104500D02*
Y119500D01*
X186357Y128700D01*
X277300D01*
X284000Y122000D01*
X50100Y133400D02*
X61500Y122000D01*
X47500Y133400D02*
X50100D01*
X44500Y136400D02*
X47500Y133400D01*
X44500Y136400D02*
Y141000D01*
X15500D02*
X22500D01*
X41500Y122000D01*
X264000D02*
X269000Y117000D01*
X287500D01*
X289000Y118500D01*
Y141000D02*
X291000D01*
X240500Y96500D02*
X265657D01*
X274000Y88157D01*
X93500Y99500D02*
X103600Y109600D01*
X115400D01*
X131000Y94000D01*
X252000Y110500D02*
X254500Y108000D01*
X224500Y110500D02*
X252000D01*
X210500Y96500D02*
X224500Y110500D01*
X281757Y99900D02*
X293500Y88157D01*
X245700Y99900D02*
X281757D01*
X240100Y105500D02*
X245700Y99900D01*
X62657Y88657D02*
X63500Y89500D01*
X289000Y118500D02*
Y141000D01*
X288500Y38000D02*
Y60500D01*
X62157Y8157D02*
X63000Y9000D01*
X239600Y25000D02*
X245200Y19400D01*
X281257D01*
X293000Y7657D01*
X210000Y16000D02*
X224000Y30000D01*
X251500D01*
X254000Y27500D01*
X114900Y29100D02*
X130500Y13500D01*
X103100Y29100D02*
X114900D01*
X93000Y19000D02*
X103100Y29100D01*
X265157Y16000D02*
X273500Y7657D01*
X240000Y16000D02*
X265157D01*
X288500Y60500D02*
X290500D01*
X287000Y36500D02*
X288500Y38000D01*
X268500Y36500D02*
X287000D01*
X263500Y41500D02*
X268500Y36500D01*
X22000Y60500D02*
X41000Y41500D01*
X15000Y60500D02*
X22000D01*
X44000Y55900D02*
Y60500D01*
Y55900D02*
X47000Y52900D01*
X49600D01*
X61000Y41500D01*
X276800Y48200D02*
X283500Y41500D01*
X185857Y48200D02*
X276800D01*
X176657Y39000D02*
X185857Y48200D01*
X176657Y24000D02*
Y39000D01*
X110000Y60500D02*
X124000D01*
X91000Y41500D02*
X110000Y60500D01*
X57600Y13600D02*
X63000Y19000D01*
X34443Y13600D02*
X57600D01*
X29000Y8157D02*
X34443Y13600D01*
X11000Y8157D02*
X22743Y19900D01*
X54900D01*
X63000Y28000D01*
X138900Y16500D02*
X144500D01*
X119447Y35953D02*
X138900Y16500D01*
X19110Y35953D02*
X119447D01*
X11000Y27843D02*
X19110Y35953D01*
X47500Y27843D02*
X52610Y32953D01*
X79047D01*
X93000Y19000D01*
X205185Y25000D02*
X209600D01*
X196343Y33843D02*
X205185Y25000D01*
X287143Y33200D02*
X293000Y27343D01*
X208500Y33200D02*
X287143D01*
X199700Y42000D02*
X208500Y33200D01*
X191100Y42000D02*
X199700D01*
X186500Y37400D02*
X191100Y42000D01*
X186500Y22000D02*
Y37400D01*
X182400Y17900D02*
X186500Y22000D01*
X170200Y17900D02*
X182400D01*
X168800Y16500D02*
X170200Y17900D01*
X164500Y16500D02*
X168800D01*
X148900Y10900D02*
X154500Y16500D01*
X137200Y10900D02*
X148900D01*
X134600Y13500D02*
X137200Y10900D01*
X130500Y13500D02*
X134600D01*
X154500Y16500D02*
X160100Y10900D01*
X171800D01*
X175057Y14157D01*
X196343D01*
X247115Y7815D02*
X254000D01*
X246800Y7500D02*
X247115Y7815D01*
X240000Y7500D02*
X246800D01*
X263500Y70500D02*
X290500D01*
X236000D02*
X263500D01*
X208500D02*
X236000D01*
X181500D02*
X208500D01*
X263757Y27343D02*
X273500D01*
X263600Y27500D02*
X263757Y27343D01*
X254000Y27500D02*
X263600D01*
X29000Y27843D02*
X47500D01*
X204043Y16000D02*
X210000D01*
X202200Y14157D02*
X204043Y16000D01*
X196343Y14157D02*
X202200D01*
X15000Y70500D02*
X44000D01*
X97000D02*
X124000D01*
X44000D02*
X71000D01*
X97000D01*
X47500Y8157D02*
X62157D01*
D12*
X346000Y305000D02*
D03*
D13*
X152000Y318500D02*
D03*
D14*
X151000Y240000D02*
D03*
X152000Y160000D02*
D03*
Y79500D02*
D03*
D15*
X305500Y198000D02*
D03*
D16*
X368563Y340595D02*
D03*
X330563Y325437D02*
D03*
X329063Y376937D02*
D03*
X343500Y91000D02*
D03*
Y213500D02*
D03*
X124500Y389000D02*
D03*
X97500D02*
D03*
X71500D02*
D03*
X44500D02*
D03*
X15500D02*
D03*
X182000D02*
D03*
X11500Y326657D02*
D03*
X209000Y389000D02*
D03*
X236500D02*
D03*
X29500Y326657D02*
D03*
X264000Y389000D02*
D03*
X291000D02*
D03*
X48000Y326657D02*
D03*
X153500Y389000D02*
D03*
X124500Y311000D02*
D03*
X97500D02*
D03*
X71500D02*
D03*
X44500D02*
D03*
X15500D02*
D03*
X182000D02*
D03*
X11500Y248657D02*
D03*
X209000Y311000D02*
D03*
X236500D02*
D03*
X29500Y248657D02*
D03*
X264000Y311000D02*
D03*
X291000D02*
D03*
X48000Y248657D02*
D03*
X153500Y311000D02*
D03*
X124500Y231500D02*
D03*
X97500D02*
D03*
X71500D02*
D03*
X44500D02*
D03*
X15500D02*
D03*
X182000D02*
D03*
X11500Y169157D02*
D03*
X209000Y231500D02*
D03*
X236500D02*
D03*
X29500Y169157D02*
D03*
X264000Y231500D02*
D03*
X291000D02*
D03*
X48000Y169157D02*
D03*
X153500Y231500D02*
D03*
X124500Y151000D02*
D03*
X97500D02*
D03*
X71500D02*
D03*
X44500D02*
D03*
X15500D02*
D03*
X182000D02*
D03*
X11500Y88657D02*
D03*
X209000Y151000D02*
D03*
X236500D02*
D03*
X29500Y88657D02*
D03*
X264000Y151000D02*
D03*
X291000D02*
D03*
X48000Y88657D02*
D03*
X153500Y151000D02*
D03*
X29000Y8157D02*
D03*
X47500D02*
D03*
X153000Y70500D02*
D03*
X124000D02*
D03*
X97000D02*
D03*
X71000D02*
D03*
X44000D02*
D03*
X15000D02*
D03*
X290500D02*
D03*
X263500D02*
D03*
X236000D02*
D03*
X208500D02*
D03*
X181500D02*
D03*
X11000Y8157D02*
D03*
D17*
X368563Y360279D02*
D03*
X333221Y351437D02*
D03*
X330563Y315437D02*
D03*
X329063Y386937D02*
D03*
X368063Y315437D02*
D03*
X360563Y320437D02*
D03*
X368063Y325437D02*
D03*
X369563Y375937D02*
D03*
X362063Y380937D02*
D03*
X369563Y385937D02*
D03*
X353063Y337937D02*
D03*
X323063D02*
D03*
X353063Y364937D02*
D03*
X323063D02*
D03*
X324500Y124000D02*
D03*
Y97000D02*
D03*
Y71000D02*
D03*
Y44000D02*
D03*
Y15000D02*
D03*
Y181500D02*
D03*
X357157Y11000D02*
D03*
X357657Y293000D02*
D03*
X357000Y93000D02*
D03*
Y63000D02*
D03*
X360000Y209600D02*
D03*
Y239600D02*
D03*
X324500Y208500D02*
D03*
Y236000D02*
D03*
X357157Y29000D02*
D03*
X357657Y273500D02*
D03*
X324500Y263500D02*
D03*
Y290500D02*
D03*
X366000Y63000D02*
D03*
Y93000D02*
D03*
X369000Y240000D02*
D03*
Y210000D02*
D03*
X357157Y47500D02*
D03*
X357500Y254000D02*
D03*
X376000Y93000D02*
D03*
X377500Y210000D02*
D03*
Y240000D02*
D03*
X343500Y71000D02*
D03*
Y61000D02*
D03*
Y51000D02*
D03*
Y41000D02*
D03*
Y31000D02*
D03*
Y21000D02*
D03*
Y11000D02*
D03*
Y81000D02*
D03*
Y233500D02*
D03*
Y243500D02*
D03*
Y253500D02*
D03*
Y263500D02*
D03*
Y273500D02*
D03*
Y283500D02*
D03*
Y293500D02*
D03*
Y223500D02*
D03*
X324500Y153000D02*
D03*
X124500Y379000D02*
D03*
X97500D02*
D03*
X71500D02*
D03*
X44500D02*
D03*
X15500D02*
D03*
X182000D02*
D03*
X11500Y346343D02*
D03*
X293500Y345843D02*
D03*
X93500Y346500D02*
D03*
X63500D02*
D03*
X210100Y343500D02*
D03*
X240100D02*
D03*
X209000Y379000D02*
D03*
X236500D02*
D03*
X29500Y346343D02*
D03*
X274000Y345843D02*
D03*
X264000Y379000D02*
D03*
X291000D02*
D03*
X63500Y337500D02*
D03*
X93500D02*
D03*
X240500Y334500D02*
D03*
X210500D02*
D03*
X48000Y346343D02*
D03*
X254500Y346000D02*
D03*
X93500Y327500D02*
D03*
X210500Y326000D02*
D03*
X240500D02*
D03*
X71500Y360000D02*
D03*
X61500D02*
D03*
X51500D02*
D03*
X41500D02*
D03*
X31500D02*
D03*
X21500D02*
D03*
X11500D02*
D03*
X81500D02*
D03*
X234000D02*
D03*
X244000D02*
D03*
X254000D02*
D03*
X264000D02*
D03*
X274000D02*
D03*
X284000D02*
D03*
X294000D02*
D03*
X224000D02*
D03*
X153500Y379000D02*
D03*
X124500Y301000D02*
D03*
X97500D02*
D03*
X71500D02*
D03*
X44500D02*
D03*
X15500D02*
D03*
X182000D02*
D03*
X11500Y268343D02*
D03*
X293500Y267843D02*
D03*
X93500Y268500D02*
D03*
X63500D02*
D03*
X210100Y265500D02*
D03*
X240100D02*
D03*
X209000Y301000D02*
D03*
X236500D02*
D03*
X29500Y268343D02*
D03*
X274000Y267843D02*
D03*
X264000Y301000D02*
D03*
X291000D02*
D03*
X63500Y259500D02*
D03*
X93500D02*
D03*
X240500Y256500D02*
D03*
X210500D02*
D03*
X48000Y268343D02*
D03*
X254500Y268000D02*
D03*
X93500Y249500D02*
D03*
X210500Y248000D02*
D03*
X240500D02*
D03*
X71500Y282000D02*
D03*
X61500D02*
D03*
X51500D02*
D03*
X41500D02*
D03*
X31500D02*
D03*
X21500D02*
D03*
X11500D02*
D03*
X81500D02*
D03*
X234000D02*
D03*
X244000D02*
D03*
X254000D02*
D03*
X264000D02*
D03*
X274000D02*
D03*
X284000D02*
D03*
X294000D02*
D03*
X224000D02*
D03*
X153500Y301000D02*
D03*
X124500Y221500D02*
D03*
X97500D02*
D03*
X71500D02*
D03*
X44500D02*
D03*
X15500D02*
D03*
X182000D02*
D03*
X11500Y188843D02*
D03*
X293500Y188343D02*
D03*
X93500Y189000D02*
D03*
X63500D02*
D03*
X210100Y186000D02*
D03*
X240100D02*
D03*
X209000Y221500D02*
D03*
X236500D02*
D03*
X29500Y188843D02*
D03*
X274000Y188343D02*
D03*
X264000Y221500D02*
D03*
X291000D02*
D03*
X63500Y180000D02*
D03*
X93500D02*
D03*
X240500Y177000D02*
D03*
X210500D02*
D03*
X48000Y188843D02*
D03*
X254500Y188500D02*
D03*
X93500Y170000D02*
D03*
X210500Y168500D02*
D03*
X240500D02*
D03*
X71500Y202500D02*
D03*
X61500D02*
D03*
X51500D02*
D03*
X41500D02*
D03*
X31500D02*
D03*
X21500D02*
D03*
X11500D02*
D03*
X81500D02*
D03*
X234000D02*
D03*
X244000D02*
D03*
X254000D02*
D03*
X264000D02*
D03*
X274000D02*
D03*
X284000D02*
D03*
X294000D02*
D03*
X224000D02*
D03*
X153500Y221500D02*
D03*
X124500Y141000D02*
D03*
X97500D02*
D03*
X71500D02*
D03*
X44500D02*
D03*
X15500D02*
D03*
X182000D02*
D03*
X11500Y108343D02*
D03*
X293500Y107843D02*
D03*
X93500Y108500D02*
D03*
X63500D02*
D03*
X210100Y105500D02*
D03*
X240100D02*
D03*
X209000Y141000D02*
D03*
X236500D02*
D03*
X29500Y108343D02*
D03*
X274000Y107843D02*
D03*
X264000Y141000D02*
D03*
X291000D02*
D03*
X63500Y99500D02*
D03*
X93500D02*
D03*
X240500Y96500D02*
D03*
X210500D02*
D03*
X48000Y108343D02*
D03*
X254500Y108000D02*
D03*
X93500Y89500D02*
D03*
X210500Y88000D02*
D03*
X240500D02*
D03*
X71500Y122000D02*
D03*
X61500D02*
D03*
X51500D02*
D03*
X41500D02*
D03*
X31500D02*
D03*
X21500D02*
D03*
X11500D02*
D03*
X81500D02*
D03*
X234000D02*
D03*
X244000D02*
D03*
X254000D02*
D03*
X264000D02*
D03*
X274000D02*
D03*
X284000D02*
D03*
X294000D02*
D03*
X224000D02*
D03*
X153500Y141000D02*
D03*
X210000Y7500D02*
D03*
X240000D02*
D03*
X93000Y28000D02*
D03*
X63000D02*
D03*
X29000Y27843D02*
D03*
X47500D02*
D03*
X63000Y19000D02*
D03*
X93000D02*
D03*
Y9000D02*
D03*
X153000Y60500D02*
D03*
X124000D02*
D03*
X97000D02*
D03*
X71000D02*
D03*
X44000D02*
D03*
X15000D02*
D03*
X290500D02*
D03*
X263500D02*
D03*
X236000D02*
D03*
X208500D02*
D03*
X181500D02*
D03*
X233500Y41500D02*
D03*
X243500D02*
D03*
X253500D02*
D03*
X263500D02*
D03*
X273500D02*
D03*
X283500D02*
D03*
X293500D02*
D03*
X223500D02*
D03*
X254000Y27500D02*
D03*
X71000Y41500D02*
D03*
X61000D02*
D03*
X51000D02*
D03*
X41000D02*
D03*
X31000D02*
D03*
X21000D02*
D03*
X11000D02*
D03*
X81000D02*
D03*
X240000Y16000D02*
D03*
X210000D02*
D03*
X273500Y27343D02*
D03*
X209600Y25000D02*
D03*
X239600D02*
D03*
X293000Y27343D02*
D03*
X11000Y27843D02*
D03*
D18*
X352906Y351437D02*
D03*
X314500Y124000D02*
D03*
Y97000D02*
D03*
Y71000D02*
D03*
Y44000D02*
D03*
Y15000D02*
D03*
Y181500D02*
D03*
X376843Y11000D02*
D03*
X314500Y208500D02*
D03*
Y236000D02*
D03*
X376843Y29000D02*
D03*
X314500Y263500D02*
D03*
Y290500D02*
D03*
X376843Y47500D02*
D03*
X314500Y153000D02*
D03*
X91500Y360000D02*
D03*
X214000D02*
D03*
X91500Y282000D02*
D03*
X214000D02*
D03*
X91500Y202500D02*
D03*
X214000D02*
D03*
X91500Y122000D02*
D03*
X214000D02*
D03*
X213500Y41500D02*
D03*
X91000D02*
D03*
D19*
X349563Y386937D02*
D03*
D20*
Y376937D02*
D03*
D21*
X377343Y293000D02*
D03*
Y273500D02*
D03*
X377185Y254000D02*
D03*
D22*
X371500Y130500D02*
D03*
X370843Y196343D02*
D03*
D23*
X361657Y110815D02*
D03*
X351815Y130500D02*
D03*
X361000Y176657D02*
D03*
X351157Y196343D02*
D03*
X111315Y341843D02*
D03*
X131000Y351685D02*
D03*
X177157Y342500D02*
D03*
X196843Y352343D02*
D03*
X111315Y263843D02*
D03*
X131000Y273685D02*
D03*
X177157Y264500D02*
D03*
X196843Y274343D02*
D03*
X111315Y184343D02*
D03*
X131000Y194185D02*
D03*
X177157Y185000D02*
D03*
X196843Y194843D02*
D03*
X111315Y103843D02*
D03*
X131000Y113685D02*
D03*
X177157Y104500D02*
D03*
X196843Y114343D02*
D03*
X176657Y24000D02*
D03*
X196343Y33843D02*
D03*
X110815Y23343D02*
D03*
X130500Y33185D02*
D03*
D24*
X376000Y63000D02*
D03*
X340000Y135500D02*
D03*
Y105500D02*
D03*
X63500Y327500D02*
D03*
X136000Y363500D02*
D03*
X106000D02*
D03*
X63500Y249500D02*
D03*
X136000Y285500D02*
D03*
X106000D02*
D03*
X63500Y170000D02*
D03*
X136000Y206000D02*
D03*
X106000D02*
D03*
X63500Y89500D02*
D03*
X136000Y125500D02*
D03*
X106000D02*
D03*
X135500Y45000D02*
D03*
X105500D02*
D03*
X63000Y9000D02*
D03*
D25*
X368500Y144500D02*
D03*
Y164500D02*
D03*
X344000Y149500D02*
D03*
D26*
X368500Y154500D02*
D03*
X344000Y159500D02*
D03*
X155000Y335000D02*
D03*
X160000Y359500D02*
D03*
X155000Y257000D02*
D03*
X160000Y281500D02*
D03*
X155000Y177500D02*
D03*
X160000Y202000D02*
D03*
X155000Y97000D02*
D03*
X160000Y121500D02*
D03*
X154500Y16500D02*
D03*
X159500Y41000D02*
D03*
D27*
X293500Y326157D02*
D03*
X274000D02*
D03*
X254500Y326315D02*
D03*
X293500Y248157D02*
D03*
X274000D02*
D03*
X254500Y248315D02*
D03*
X293500Y168657D02*
D03*
X274000D02*
D03*
X254500Y168815D02*
D03*
X293500Y88157D02*
D03*
X274000D02*
D03*
X254500Y88315D02*
D03*
X254000Y7815D02*
D03*
X273500Y7657D02*
D03*
X293000D02*
D03*
D28*
X131000Y332000D02*
D03*
X196843Y332657D02*
D03*
X131000Y254000D02*
D03*
X196843Y254657D02*
D03*
X131000Y174500D02*
D03*
X196843Y175157D02*
D03*
X131000Y94000D02*
D03*
X196843Y94657D02*
D03*
X196343Y14157D02*
D03*
X130500Y13500D02*
D03*
D29*
X145000Y335000D02*
D03*
X165000D02*
D03*
X150000Y359500D02*
D03*
X145000Y257000D02*
D03*
X165000D02*
D03*
X150000Y281500D02*
D03*
X145000Y177500D02*
D03*
X165000D02*
D03*
X150000Y202000D02*
D03*
X145000Y97000D02*
D03*
X165000D02*
D03*
X150000Y121500D02*
D03*
X144500Y16500D02*
D03*
X164500D02*
D03*
X149500Y41000D02*
D03*
M02*
