G04 Layer_Color=16711935*
%FSLAX25Y25*%
%MOIN*%
G70*
G01*
G75*
%ADD37R,0.71666X0.03556*%
%ADD38R,2.96076X0.03556*%
%ADD39R,2.96076X0.03950*%
%ADD40R,0.04737X3.90564*%
%ADD41R,0.06706X0.06706*%
%ADD42C,0.06706*%
%ADD43R,0.06706X0.06706*%
%ADD44C,0.08674*%
%ADD45R,0.08674X0.08674*%
%ADD46R,0.06115X0.06115*%
%ADD47R,0.07493X0.07493*%
%ADD48C,0.07493*%
%ADD49C,0.06312*%
%ADD50R,0.07887X0.07887*%
%ADD51C,0.07887*%
%ADD52R,0.06115X0.06115*%
%ADD53R,0.07493X0.07493*%
%ADD54R,0.07887X0.07887*%
D37*
X346000Y305000D02*
D03*
D38*
X152000Y318500D02*
D03*
D39*
X151000Y240000D02*
D03*
X152000Y160000D02*
D03*
Y79500D02*
D03*
D40*
X305500Y198000D02*
D03*
D41*
X368563Y340595D02*
D03*
X330563Y325437D02*
D03*
X329063Y376937D02*
D03*
X343500Y91000D02*
D03*
Y213500D02*
D03*
X124500Y389000D02*
D03*
X97500D02*
D03*
X71500D02*
D03*
X44500D02*
D03*
X15500D02*
D03*
X182000D02*
D03*
X11500Y326657D02*
D03*
X209000Y389000D02*
D03*
X236500D02*
D03*
X29500Y326657D02*
D03*
X264000Y389000D02*
D03*
X291000D02*
D03*
X48000Y326657D02*
D03*
X153500Y389000D02*
D03*
X124500Y311000D02*
D03*
X97500D02*
D03*
X71500D02*
D03*
X44500D02*
D03*
X15500D02*
D03*
X182000D02*
D03*
X11500Y248657D02*
D03*
X209000Y311000D02*
D03*
X236500D02*
D03*
X29500Y248657D02*
D03*
X264000Y311000D02*
D03*
X291000D02*
D03*
X48000Y248657D02*
D03*
X153500Y311000D02*
D03*
X124500Y231500D02*
D03*
X97500D02*
D03*
X71500D02*
D03*
X44500D02*
D03*
X15500D02*
D03*
X182000D02*
D03*
X11500Y169157D02*
D03*
X209000Y231500D02*
D03*
X236500D02*
D03*
X29500Y169157D02*
D03*
X264000Y231500D02*
D03*
X291000D02*
D03*
X48000Y169157D02*
D03*
X153500Y231500D02*
D03*
X124500Y151000D02*
D03*
X97500D02*
D03*
X71500D02*
D03*
X44500D02*
D03*
X15500D02*
D03*
X182000D02*
D03*
X11500Y88657D02*
D03*
X209000Y151000D02*
D03*
X236500D02*
D03*
X29500Y88657D02*
D03*
X264000Y151000D02*
D03*
X291000D02*
D03*
X48000Y88657D02*
D03*
X153500Y151000D02*
D03*
X29000Y8157D02*
D03*
X47500D02*
D03*
X153000Y70500D02*
D03*
X124000D02*
D03*
X97000D02*
D03*
X71000D02*
D03*
X44000D02*
D03*
X15000D02*
D03*
X290500D02*
D03*
X263500D02*
D03*
X236000D02*
D03*
X208500D02*
D03*
X181500D02*
D03*
X11000Y8157D02*
D03*
D42*
X368563Y360279D02*
D03*
X333221Y351437D02*
D03*
X330563Y315437D02*
D03*
X329063Y386937D02*
D03*
X368063Y315437D02*
D03*
X360563Y320437D02*
D03*
X368063Y325437D02*
D03*
X369563Y375937D02*
D03*
X362063Y380937D02*
D03*
X369563Y385937D02*
D03*
X353063Y337937D02*
D03*
X323063D02*
D03*
X353063Y364937D02*
D03*
X323063D02*
D03*
X324500Y124000D02*
D03*
Y97000D02*
D03*
Y71000D02*
D03*
Y44000D02*
D03*
Y15000D02*
D03*
Y181500D02*
D03*
X357157Y11000D02*
D03*
X357657Y293000D02*
D03*
X357000Y93000D02*
D03*
Y63000D02*
D03*
X360000Y209600D02*
D03*
Y239600D02*
D03*
X324500Y208500D02*
D03*
Y236000D02*
D03*
X357157Y29000D02*
D03*
X357657Y273500D02*
D03*
X324500Y263500D02*
D03*
Y290500D02*
D03*
X366000Y63000D02*
D03*
Y93000D02*
D03*
X369000Y240000D02*
D03*
Y210000D02*
D03*
X357157Y47500D02*
D03*
X357500Y254000D02*
D03*
X376000Y93000D02*
D03*
X377500Y210000D02*
D03*
Y240000D02*
D03*
X343500Y71000D02*
D03*
Y61000D02*
D03*
Y51000D02*
D03*
Y41000D02*
D03*
Y31000D02*
D03*
Y21000D02*
D03*
Y11000D02*
D03*
Y81000D02*
D03*
Y233500D02*
D03*
Y243500D02*
D03*
Y253500D02*
D03*
Y263500D02*
D03*
Y273500D02*
D03*
Y283500D02*
D03*
Y293500D02*
D03*
Y223500D02*
D03*
X324500Y153000D02*
D03*
X124500Y379000D02*
D03*
X97500D02*
D03*
X71500D02*
D03*
X44500D02*
D03*
X15500D02*
D03*
X182000D02*
D03*
X11500Y346343D02*
D03*
X293500Y345843D02*
D03*
X93500Y346500D02*
D03*
X63500D02*
D03*
X210100Y343500D02*
D03*
X240100D02*
D03*
X209000Y379000D02*
D03*
X236500D02*
D03*
X29500Y346343D02*
D03*
X274000Y345843D02*
D03*
X264000Y379000D02*
D03*
X291000D02*
D03*
X63500Y337500D02*
D03*
X93500D02*
D03*
X240500Y334500D02*
D03*
X210500D02*
D03*
X48000Y346343D02*
D03*
X254500Y346000D02*
D03*
X93500Y327500D02*
D03*
X210500Y326000D02*
D03*
X240500D02*
D03*
X71500Y360000D02*
D03*
X61500D02*
D03*
X51500D02*
D03*
X41500D02*
D03*
X31500D02*
D03*
X21500D02*
D03*
X11500D02*
D03*
X81500D02*
D03*
X234000D02*
D03*
X244000D02*
D03*
X254000D02*
D03*
X264000D02*
D03*
X274000D02*
D03*
X284000D02*
D03*
X294000D02*
D03*
X224000D02*
D03*
X153500Y379000D02*
D03*
X124500Y301000D02*
D03*
X97500D02*
D03*
X71500D02*
D03*
X44500D02*
D03*
X15500D02*
D03*
X182000D02*
D03*
X11500Y268343D02*
D03*
X293500Y267843D02*
D03*
X93500Y268500D02*
D03*
X63500D02*
D03*
X210100Y265500D02*
D03*
X240100D02*
D03*
X209000Y301000D02*
D03*
X236500D02*
D03*
X29500Y268343D02*
D03*
X274000Y267843D02*
D03*
X264000Y301000D02*
D03*
X291000D02*
D03*
X63500Y259500D02*
D03*
X93500D02*
D03*
X240500Y256500D02*
D03*
X210500D02*
D03*
X48000Y268343D02*
D03*
X254500Y268000D02*
D03*
X93500Y249500D02*
D03*
X210500Y248000D02*
D03*
X240500D02*
D03*
X71500Y282000D02*
D03*
X61500D02*
D03*
X51500D02*
D03*
X41500D02*
D03*
X31500D02*
D03*
X21500D02*
D03*
X11500D02*
D03*
X81500D02*
D03*
X234000D02*
D03*
X244000D02*
D03*
X254000D02*
D03*
X264000D02*
D03*
X274000D02*
D03*
X284000D02*
D03*
X294000D02*
D03*
X224000D02*
D03*
X153500Y301000D02*
D03*
X124500Y221500D02*
D03*
X97500D02*
D03*
X71500D02*
D03*
X44500D02*
D03*
X15500D02*
D03*
X182000D02*
D03*
X11500Y188843D02*
D03*
X293500Y188343D02*
D03*
X93500Y189000D02*
D03*
X63500D02*
D03*
X210100Y186000D02*
D03*
X240100D02*
D03*
X209000Y221500D02*
D03*
X236500D02*
D03*
X29500Y188843D02*
D03*
X274000Y188343D02*
D03*
X264000Y221500D02*
D03*
X291000D02*
D03*
X63500Y180000D02*
D03*
X93500D02*
D03*
X240500Y177000D02*
D03*
X210500D02*
D03*
X48000Y188843D02*
D03*
X254500Y188500D02*
D03*
X93500Y170000D02*
D03*
X210500Y168500D02*
D03*
X240500D02*
D03*
X71500Y202500D02*
D03*
X61500D02*
D03*
X51500D02*
D03*
X41500D02*
D03*
X31500D02*
D03*
X21500D02*
D03*
X11500D02*
D03*
X81500D02*
D03*
X234000D02*
D03*
X244000D02*
D03*
X254000D02*
D03*
X264000D02*
D03*
X274000D02*
D03*
X284000D02*
D03*
X294000D02*
D03*
X224000D02*
D03*
X153500Y221500D02*
D03*
X124500Y141000D02*
D03*
X97500D02*
D03*
X71500D02*
D03*
X44500D02*
D03*
X15500D02*
D03*
X182000D02*
D03*
X11500Y108343D02*
D03*
X293500Y107843D02*
D03*
X93500Y108500D02*
D03*
X63500D02*
D03*
X210100Y105500D02*
D03*
X240100D02*
D03*
X209000Y141000D02*
D03*
X236500D02*
D03*
X29500Y108343D02*
D03*
X274000Y107843D02*
D03*
X264000Y141000D02*
D03*
X291000D02*
D03*
X63500Y99500D02*
D03*
X93500D02*
D03*
X240500Y96500D02*
D03*
X210500D02*
D03*
X48000Y108343D02*
D03*
X254500Y108000D02*
D03*
X93500Y89500D02*
D03*
X210500Y88000D02*
D03*
X240500D02*
D03*
X71500Y122000D02*
D03*
X61500D02*
D03*
X51500D02*
D03*
X41500D02*
D03*
X31500D02*
D03*
X21500D02*
D03*
X11500D02*
D03*
X81500D02*
D03*
X234000D02*
D03*
X244000D02*
D03*
X254000D02*
D03*
X264000D02*
D03*
X274000D02*
D03*
X284000D02*
D03*
X294000D02*
D03*
X224000D02*
D03*
X153500Y141000D02*
D03*
X210000Y7500D02*
D03*
X240000D02*
D03*
X93000Y28000D02*
D03*
X63000D02*
D03*
X29000Y27843D02*
D03*
X47500D02*
D03*
X63000Y19000D02*
D03*
X93000D02*
D03*
Y9000D02*
D03*
X153000Y60500D02*
D03*
X124000D02*
D03*
X97000D02*
D03*
X71000D02*
D03*
X44000D02*
D03*
X15000D02*
D03*
X290500D02*
D03*
X263500D02*
D03*
X236000D02*
D03*
X208500D02*
D03*
X181500D02*
D03*
X233500Y41500D02*
D03*
X243500D02*
D03*
X253500D02*
D03*
X263500D02*
D03*
X273500D02*
D03*
X283500D02*
D03*
X293500D02*
D03*
X223500D02*
D03*
X254000Y27500D02*
D03*
X71000Y41500D02*
D03*
X61000D02*
D03*
X51000D02*
D03*
X41000D02*
D03*
X31000D02*
D03*
X21000D02*
D03*
X11000D02*
D03*
X81000D02*
D03*
X240000Y16000D02*
D03*
X210000D02*
D03*
X273500Y27343D02*
D03*
X209600Y25000D02*
D03*
X239600D02*
D03*
X293000Y27343D02*
D03*
X11000Y27843D02*
D03*
D43*
X352906Y351437D02*
D03*
X314500Y124000D02*
D03*
Y97000D02*
D03*
Y71000D02*
D03*
Y44000D02*
D03*
Y15000D02*
D03*
Y181500D02*
D03*
X376843Y11000D02*
D03*
X314500Y208500D02*
D03*
Y236000D02*
D03*
X376843Y29000D02*
D03*
X314500Y263500D02*
D03*
Y290500D02*
D03*
X376843Y47500D02*
D03*
X314500Y153000D02*
D03*
X91500Y360000D02*
D03*
X214000D02*
D03*
X91500Y282000D02*
D03*
X214000D02*
D03*
X91500Y202500D02*
D03*
X214000D02*
D03*
X91500Y122000D02*
D03*
X214000D02*
D03*
X213500Y41500D02*
D03*
X91000D02*
D03*
D44*
X349563Y386937D02*
D03*
D45*
Y376937D02*
D03*
D46*
X377343Y293000D02*
D03*
Y273500D02*
D03*
X377185Y254000D02*
D03*
D47*
X371500Y130500D02*
D03*
X370843Y196343D02*
D03*
D48*
X361657Y110815D02*
D03*
X351815Y130500D02*
D03*
X361000Y176657D02*
D03*
X351157Y196343D02*
D03*
X111315Y341843D02*
D03*
X131000Y351685D02*
D03*
X177157Y342500D02*
D03*
X196843Y352343D02*
D03*
X111315Y263843D02*
D03*
X131000Y273685D02*
D03*
X177157Y264500D02*
D03*
X196843Y274343D02*
D03*
X111315Y184343D02*
D03*
X131000Y194185D02*
D03*
X177157Y185000D02*
D03*
X196843Y194843D02*
D03*
X111315Y103843D02*
D03*
X131000Y113685D02*
D03*
X177157Y104500D02*
D03*
X196843Y114343D02*
D03*
X176657Y24000D02*
D03*
X196343Y33843D02*
D03*
X110815Y23343D02*
D03*
X130500Y33185D02*
D03*
D49*
X376000Y63000D02*
D03*
X340000Y135500D02*
D03*
Y105500D02*
D03*
X63500Y327500D02*
D03*
X136000Y363500D02*
D03*
X106000D02*
D03*
X63500Y249500D02*
D03*
X136000Y285500D02*
D03*
X106000D02*
D03*
X63500Y170000D02*
D03*
X136000Y206000D02*
D03*
X106000D02*
D03*
X63500Y89500D02*
D03*
X136000Y125500D02*
D03*
X106000D02*
D03*
X135500Y45000D02*
D03*
X105500D02*
D03*
X63000Y9000D02*
D03*
D50*
X368500Y144500D02*
D03*
Y164500D02*
D03*
X344000Y149500D02*
D03*
D51*
X368500Y154500D02*
D03*
X344000Y159500D02*
D03*
X155000Y335000D02*
D03*
X160000Y359500D02*
D03*
X155000Y257000D02*
D03*
X160000Y281500D02*
D03*
X155000Y177500D02*
D03*
X160000Y202000D02*
D03*
X155000Y97000D02*
D03*
X160000Y121500D02*
D03*
X154500Y16500D02*
D03*
X159500Y41000D02*
D03*
D52*
X293500Y326157D02*
D03*
X274000D02*
D03*
X254500Y326315D02*
D03*
X293500Y248157D02*
D03*
X274000D02*
D03*
X254500Y248315D02*
D03*
X293500Y168657D02*
D03*
X274000D02*
D03*
X254500Y168815D02*
D03*
X293500Y88157D02*
D03*
X274000D02*
D03*
X254500Y88315D02*
D03*
X254000Y7815D02*
D03*
X273500Y7657D02*
D03*
X293000D02*
D03*
D53*
X131000Y332000D02*
D03*
X196843Y332657D02*
D03*
X131000Y254000D02*
D03*
X196843Y254657D02*
D03*
X131000Y174500D02*
D03*
X196843Y175157D02*
D03*
X131000Y94000D02*
D03*
X196843Y94657D02*
D03*
X196343Y14157D02*
D03*
X130500Y13500D02*
D03*
D54*
X145000Y335000D02*
D03*
X165000D02*
D03*
X150000Y359500D02*
D03*
X145000Y257000D02*
D03*
X165000D02*
D03*
X150000Y281500D02*
D03*
X145000Y177500D02*
D03*
X165000D02*
D03*
X150000Y202000D02*
D03*
X145000Y97000D02*
D03*
X165000D02*
D03*
X150000Y121500D02*
D03*
X144500Y16500D02*
D03*
X164500D02*
D03*
X149500Y41000D02*
D03*
M02*
