M48
;Layer_Color=9474304
;FILE_FORMAT=2:5
INCH,LZ
;TYPE=PLATED
T1F00S00C0.02756
T3F00S00C0.03150
T5F00S00C0.03346
T6F00S00C0.03543
T7F00S00C0.03937
%
T01
X0011Y0008157
X0029
X00475
Y0027843
X0051Y00415
X0041
X0031
X0021
X0011
Y0027843
X0029
X0063Y0028
Y0019
X0061Y00415
X0071
X0081
X0091
X0093Y0028
Y0019
Y0009
X01055Y0045
X01355
X02096Y0025
X021Y0016
Y00075
X024
Y0016
X02396Y0025
X0254Y00275
X02535Y00415
X02435
X02335
X02235
X02135
X02635
X02735
X02835
X02935
X0293Y0027343
X02735
X03145Y0015
X03245
X03435Y0011
Y0021
Y0031
Y0041
Y0051
X0357157Y00475
Y0029
Y0011
X03245Y0044
X03145
X0376843Y00475
Y0029
Y0011
X0376Y0093
X03775Y021
X0369
X036Y02096
X03245Y02085
X03145
X0294Y02025
X0284
X0274
X0264
X0254
X0244
X0234
X0224
X0214
X02401Y0186
X02405Y0177
Y01685
X02365Y0151
Y0141
X0234Y0122
X0244
X0254
X0264
X0274
X0284
X0294
X02935Y0107843
X0274
X02545Y0108
X02401Y01055
X02405Y00965
Y0088
X0236Y00705
Y00605
X02635
Y00705
X02905
Y00605
X03145Y0071
X03245
X03435
Y0061
X0357Y0063
X0366
Y0093
X0357
X03435Y0091
Y0081
X034Y01055
X03245Y0097
X03145
Y0124
X03245
X034Y01355
X03245Y0153
X03145
X0291Y0151
Y0141
X0264
Y0151
X02545Y01885
X0274Y0188343
X02935
X03145Y01815
X03245
X0224Y0122
X0214
X02101Y01055
X02105Y00965
Y0088
X02085Y00705
Y00605
X01815
Y00705
X0153
Y00605
X0124
Y00705
X0097
Y00605
X0071
Y00705
X00635Y00995
Y01085
X00615Y0122
X00715
X00815
X00915
X00935Y01085
Y00995
Y00895
X0106Y01255
X00975Y0141
Y0151
X00935Y017
Y018
Y0189
X00915Y02025
X00815
X00715
X00615
X00635Y0189
Y018
X00715Y0151
Y0141
X01245
Y0151
X01535
Y0141
X0182
Y0151
X0209
Y0141
X02105Y01685
Y0177
X02101Y0186
X0136Y0206
X0106
X0136Y01255
X00515Y0122
X00415
X00315
X00215
X00115
Y0108343
X00295
X0048
Y0088657
X00295
X00115
X0015Y00705
Y00605
X0044
Y00705
X00445Y0141
Y0151
X0048Y0169157
X00295
X00115
Y0188843
Y02025
X00215
X00315
X00415
X00515
X0048Y0188843
X00295
X00155Y0151
Y0141
Y02215
Y02315
X00115Y0248657
X00295
X0048
Y0268343
X00515Y0282
X00415
X00315
X00215
X00115
Y0268343
X00295
X00155Y0301
Y0311
X00115Y0326657
X00295
X0048
X00445Y0311
Y0301
X0048Y0346343
X00515Y036
X00415
X00315
X00215
X00115
Y0346343
X00295
X00445Y02315
Y02215
X00715
Y02315
X00975
Y02215
X01245
Y02315
X01535
Y02215
X0182
Y02315
X0209
Y02215
X02105Y0248
Y02565
X02101Y02655
X0209Y0301
Y0311
X02105Y0326
Y03345
X02101Y03435
X0182Y0311
Y0301
X01535
Y0311
X01245
Y0301
X00975
Y0311
X00935Y03275
Y03375
Y03465
X00915Y036
X00815
X00715
X00615
X00635Y03465
Y03375
X00715Y0311
Y0301
Y0282
X00615
X00635Y02685
Y02595
X00935
Y02685
X00915Y0282
X00815
X0106Y02855
X0136
Y03635
X0106
X00935Y02495
X02405Y0248
Y02565
X02401Y02655
X02545Y0268
X0254Y0282
X0244
X0234
X0224
X0214
X02365Y0301
Y0311
X02405Y0326
Y03345
X02401Y03435
X02545Y0346
X0254Y036
X0244
X0234
X0224
X0214
X0264
X0274
X0284
X0294
X02935Y0345843
X0274
X0264Y0311
Y0301
Y0282
X0274
X0284
X0294
X02935Y0267843
X0274
X03145Y02635
X03245
X03435
Y02535
Y02435
Y02335
Y02235
Y02135
X03245Y0236
X03145
X0291Y02315
Y02215
X0264
Y02315
X02365
Y02215
X0291Y0301
Y0311
X0330563Y0315437
Y0325437
X0323063Y0337937
X0333221Y0351437
X0352906Y0351437
X0353063Y0337937
X0368563Y0340595
X0368063Y0325437
Y0315437
X0360563Y0320437
X0357657Y0293
X03435Y02935
Y02835
Y02735
X0357657
X03575Y0254
X036Y02396
X03245Y02905
X03145
X0323063Y0364937
X0353063
X0368563Y0360279
X0369Y024
X03775
X0369563Y0375937
Y0385937
X0362063Y0380937
X0329063Y0376937
Y0386937
X0291Y0389
Y0379
X0264
Y0389
X02365
Y0379
X0209
Y0389
X0182
Y0379
X01535
Y0389
X01245
Y0379
X00975
Y0389
X00715
Y0379
X00445
Y0389
X00155
Y0379
T03
X01445Y00165
X01545
X01645
X01595Y0041
X01495
X0254Y0007815
X02735Y0007657
X0293
X02935Y0088157
X0274
X02545Y0088315
Y0168815
X0274Y0168657
X02935
X0344Y01595
Y01495
X03685Y01445
Y01545
Y01645
X0165Y01775
X0155
X0145
X015Y0202
X016
Y01215
X015
X0145Y0097
X0155
X0165
Y0257
X0155
X0145
X015Y02815
X016
X0155Y0335
X0145
X0165
X016Y03595
X015
X02545Y0326315
X0274Y0326157
X02935
Y0248157
X0274
X02545Y0248315
X0377185Y0254
X0377343Y02735
Y0293
T05
X0063Y0009
X0376Y0063
X00635Y00895
Y017
Y02495
Y03275
T06
X0349563Y0376937
Y0386937
T07
X0110815Y0023343
X01305Y0033185
Y00135
X0176657Y0024
X0196343Y0014157
Y0033843
X03715Y01305
X0370843Y0196343
X0351157
X0361Y0176657
X0351815Y01305
X0361657Y0110815
X0196843Y0114343
Y0094657
X0177157Y01045
X0131Y0113685
Y0094
X0111315Y0103843
Y0184343
X0131Y0194185
Y01745
X0177157Y0185
X0196843Y0175157
Y0194843
Y0254657
Y0274343
X0177157Y02645
X0131Y0273685
Y0254
X0111315Y0263843
Y0341843
X0131Y0351685
Y0332
X0177157Y03425
X0196843Y0332657
Y0352343
M30
