G04 Layer_Physical_Order=1*
G04 Layer_Color=255*
%FSLAX25Y25*%
%MOIN*%
G70*
G01*
G75*
%ADD10C,0.03000*%
%ADD11C,0.02000*%
%ADD12R,0.74803X0.02362*%
%ADD13C,0.05905*%
%ADD14C,0.07874*%
%ADD15R,0.07874X0.07874*%
%ADD16R,0.05905X0.05905*%
%ADD17R,0.05905X0.05905*%
%ADD18R,0.02756X3.89764*%
%ADD19C,0.06600*%
%ADD20R,0.06600X0.06600*%
%ADD21R,0.07087X0.07087*%
%ADD22C,0.05937*%
%ADD23R,3.03150X0.02362*%
%ADD24R,0.06600X0.06600*%
%ADD25R,0.07087X0.07087*%
%ADD26C,0.05000*%
G36*
X375958Y389428D02*
X377664Y387566D01*
X377554Y385042D01*
X375692Y383336D01*
X373168Y383446D01*
X371462Y385308D01*
X371572Y387832D01*
X373434Y389538D01*
X375958Y389428D01*
D02*
G37*
G36*
X368458Y384428D02*
X370164Y382566D01*
X370054Y380042D01*
X368192Y378336D01*
X365668Y378446D01*
X363962Y380308D01*
X364072Y382832D01*
X365934Y384538D01*
X368458Y384428D01*
D02*
G37*
G36*
X375958Y379428D02*
X377664Y377566D01*
X377554Y375042D01*
X375692Y373336D01*
X373168Y373446D01*
X371462Y375308D01*
X371572Y377832D01*
X373434Y379538D01*
X375958Y379428D01*
D02*
G37*
G36*
X374458Y328928D02*
X376164Y327066D01*
X376054Y324542D01*
X374192Y322836D01*
X371668Y322946D01*
X369962Y324808D01*
X370072Y327332D01*
X371934Y329038D01*
X374458Y328928D01*
D02*
G37*
G36*
X366958Y323928D02*
X368664Y322066D01*
X368554Y319542D01*
X366692Y317836D01*
X364168Y317946D01*
X362462Y319808D01*
X362572Y322332D01*
X364434Y324038D01*
X366958Y323928D01*
D02*
G37*
G36*
X374458Y318928D02*
X376164Y317066D01*
X376054Y314542D01*
X374192Y312836D01*
X371668Y312946D01*
X369962Y314808D01*
X370072Y317332D01*
X371934Y319038D01*
X374458Y318928D01*
D02*
G37*
D10*
X374563Y386437D02*
X381563Y379437D01*
Y338937D02*
Y379437D01*
X373063Y330437D02*
X381563Y338937D01*
X373063Y325937D02*
Y330437D01*
X374563Y371937D02*
Y376437D01*
X357906Y355279D02*
X374563Y371937D01*
X357906Y351937D02*
Y355279D01*
D11*
X323000Y291000D02*
X336000Y278000D01*
X345000D01*
X352300Y134200D02*
X376000Y110500D01*
X344000Y134200D02*
X352300D01*
X341700Y136500D02*
X344000Y134200D01*
X341700Y136500D02*
Y154200D01*
X347000Y159500D01*
X332000Y173500D02*
X338700Y166800D01*
Y133500D02*
Y166800D01*
Y133500D02*
X341270Y130930D01*
X344370D01*
X370700Y104600D01*
X327500Y82000D02*
X346000Y100500D01*
X327500Y61000D02*
Y82000D01*
X318400Y39500D02*
X346200D01*
X352900Y46200D01*
X364300D01*
X371500Y39000D01*
X357000Y139500D02*
X376000Y120500D01*
X347000Y139500D02*
X357000D01*
X333000Y44500D02*
X345900D01*
X327500Y229100D02*
Y236500D01*
X377000Y199500D02*
X382900Y205400D01*
X327000Y144500D02*
X332000Y139500D01*
X327000Y144500D02*
Y179500D01*
X347000Y199500D01*
X356000Y200500D02*
X377000Y179500D01*
X356000Y200500D02*
Y210800D01*
X352000Y214800D02*
X356000Y210800D01*
X342800Y214800D02*
X352000D01*
X332000Y204000D02*
X342800Y214800D01*
X332500Y234000D02*
X345800Y220700D01*
X356000D01*
X360000Y216700D01*
Y206500D02*
Y216700D01*
Y206500D02*
X377000Y189500D01*
X380200Y85200D02*
X381500Y86500D01*
Y135000D01*
X377000Y139500D02*
X381500Y135000D01*
X317500Y40400D02*
X318400Y39500D01*
X317500Y40400D02*
Y51000D01*
X327500Y61000D01*
X317000Y218600D02*
X327500Y229100D01*
X317000Y124500D02*
X332500Y109000D01*
X317000Y124500D02*
Y218600D01*
X327500Y236500D02*
X327547Y236547D01*
Y238047D01*
X332000Y242500D01*
X370700Y85200D02*
X380200D01*
X370700D02*
Y104600D01*
X332500Y77500D02*
X335500Y80500D01*
X380000D01*
X345900Y44500D02*
X362800Y61400D01*
Y76000D01*
X382900Y205400D02*
Y221600D01*
X362000Y242500D02*
X382900Y221600D01*
X332000Y242500D02*
X362000D01*
X377000Y169500D02*
X384500Y162000D01*
X380000Y80500D02*
X384500Y85000D01*
Y162000D01*
X278500Y133000D02*
X291500Y146000D01*
X278500Y124000D02*
Y133000D01*
X111000Y93000D02*
X134700Y116700D01*
Y125000D01*
X137000Y127300D01*
X154700D01*
X160000Y122000D01*
X167300Y130300D02*
X174000Y137000D01*
X134000Y130300D02*
X167300D01*
X131430Y127730D02*
X134000Y130300D01*
X131430Y124630D02*
Y127730D01*
X105100Y98300D02*
X131430Y124630D01*
X82500Y141500D02*
X101000Y123000D01*
X61500Y141500D02*
X82500D01*
X40000Y122800D02*
Y150600D01*
Y122800D02*
X46700Y116100D01*
Y104700D02*
Y116100D01*
X39500Y97500D02*
X46700Y104700D01*
X121000Y93000D02*
X140000Y112000D01*
Y122000D01*
X45000Y123100D02*
Y136000D01*
X229600Y141500D02*
X237000D01*
X200000Y92000D02*
X205900Y86100D01*
X140000Y137000D02*
X145000Y142000D01*
X180000D01*
X200000Y122000D01*
X180000Y92000D02*
X201000Y113000D01*
X211300D01*
X215300Y117000D01*
Y126200D01*
X204500Y137000D02*
X215300Y126200D01*
X221200Y123200D02*
X234500Y136500D01*
X221200Y113000D02*
Y123200D01*
X217200Y109000D02*
X221200Y113000D01*
X207000Y109000D02*
X217200D01*
X190000Y92000D02*
X207000Y109000D01*
X85700Y88800D02*
X87000Y87500D01*
X135500D01*
X140000Y92000D01*
X40000Y150600D02*
X40900Y151500D01*
X51500D01*
X61500Y141500D01*
X219100Y152000D02*
X229600Y141500D01*
X109500Y136500D02*
X125000Y152000D01*
X219100D01*
X237000Y141500D02*
X237047Y141453D01*
X238547D01*
X243000Y137000D01*
X85700Y88800D02*
Y98300D01*
X105100D01*
X78000Y136500D02*
X81000Y133500D01*
Y89000D02*
Y133500D01*
X45000Y123100D02*
X61900Y106200D01*
X76500D01*
X205900Y86100D02*
X222100D01*
X243000Y107000D01*
Y137000D01*
X162500Y84500D02*
X170000Y92000D01*
X81000Y89000D02*
X85500Y84500D01*
X162500D01*
X278500Y213500D02*
X291500Y226500D01*
X278500Y204500D02*
Y213500D01*
X111000Y173500D02*
X134700Y197200D01*
Y205500D01*
X137000Y207800D01*
X154700D01*
X160000Y202500D01*
X167300Y210800D02*
X174000Y217500D01*
X134000Y210800D02*
X167300D01*
X131430Y208230D02*
X134000Y210800D01*
X131430Y205130D02*
Y208230D01*
X105100Y178800D02*
X131430Y205130D01*
X82500Y222000D02*
X101000Y203500D01*
X61500Y222000D02*
X82500D01*
X40000Y203300D02*
Y231100D01*
Y203300D02*
X46700Y196600D01*
Y185200D02*
Y196600D01*
X39500Y178000D02*
X46700Y185200D01*
X121000Y173500D02*
X140000Y192500D01*
Y202500D01*
X45000Y203600D02*
Y216500D01*
X229600Y222000D02*
X237000D01*
X200000Y172500D02*
X205900Y166600D01*
X140000Y217500D02*
X145000Y222500D01*
X180000D01*
X200000Y202500D01*
X180000Y172500D02*
X201000Y193500D01*
X211300D01*
X215300Y197500D01*
Y206700D01*
X204500Y217500D02*
X215300Y206700D01*
X221200Y203700D02*
X234500Y217000D01*
X221200Y193500D02*
Y203700D01*
X217200Y189500D02*
X221200Y193500D01*
X207000Y189500D02*
X217200D01*
X190000Y172500D02*
X207000Y189500D01*
X85700Y169300D02*
X87000Y168000D01*
X135500D01*
X140000Y172500D01*
X40000Y231100D02*
X40900Y232000D01*
X51500D01*
X61500Y222000D01*
X219100Y232500D02*
X229600Y222000D01*
X109500Y217000D02*
X125000Y232500D01*
X219100D01*
X237000Y222000D02*
X237047Y221953D01*
X238547D01*
X243000Y217500D01*
X85700Y169300D02*
Y178800D01*
X105100D01*
X78000Y217000D02*
X81000Y214000D01*
Y169500D02*
Y214000D01*
X45000Y203600D02*
X61900Y186700D01*
X76500D01*
X205900Y166600D02*
X222100D01*
X243000Y187500D01*
Y217500D01*
X162500Y165000D02*
X170000Y172500D01*
X81000Y169500D02*
X85500Y165000D01*
X162500D01*
X278000Y293000D02*
X291000Y306000D01*
X278000Y284000D02*
Y293000D01*
X110500Y253000D02*
X134200Y276700D01*
Y285000D01*
X136500Y287300D01*
X154200D01*
X159500Y282000D01*
X166800Y290300D02*
X173500Y297000D01*
X133500Y290300D02*
X166800D01*
X130930Y287730D02*
X133500Y290300D01*
X130930Y284630D02*
Y287730D01*
X104600Y258300D02*
X130930Y284630D01*
X82000Y301500D02*
X100500Y283000D01*
X61000Y301500D02*
X82000D01*
X39500Y282800D02*
Y310600D01*
Y282800D02*
X46200Y276100D01*
Y264700D02*
Y276100D01*
X39000Y257500D02*
X46200Y264700D01*
X120500Y253000D02*
X139500Y272000D01*
Y282000D01*
X44500Y283100D02*
Y296000D01*
X229100Y301500D02*
X236500D01*
X199500Y252000D02*
X205400Y246100D01*
X139500Y297000D02*
X144500Y302000D01*
X179500D01*
X199500Y282000D01*
X179500Y252000D02*
X200500Y273000D01*
X210800D01*
X214800Y277000D01*
Y286200D01*
X204000Y297000D02*
X214800Y286200D01*
X220700Y283200D02*
X234000Y296500D01*
X220700Y273000D02*
Y283200D01*
X216700Y269000D02*
X220700Y273000D01*
X206500Y269000D02*
X216700D01*
X189500Y252000D02*
X206500Y269000D01*
X85200Y248800D02*
X86500Y247500D01*
X135000D01*
X139500Y252000D01*
X39500Y310600D02*
X40400Y311500D01*
X51000D01*
X61000Y301500D01*
X218600Y312000D02*
X229100Y301500D01*
X109000Y296500D02*
X124500Y312000D01*
X218600D01*
X236500Y301500D02*
X236547Y301453D01*
X238047D01*
X242500Y297000D01*
X85200Y248800D02*
Y258300D01*
X104600D01*
X77500Y296500D02*
X80500Y293500D01*
Y249000D02*
Y293500D01*
X44500Y283100D02*
X61400Y266200D01*
X76000D01*
X205400Y246100D02*
X221600D01*
X242500Y267000D01*
Y297000D01*
X162000Y244500D02*
X169500Y252000D01*
X80500Y249000D02*
X85000Y244500D01*
X162000D01*
X278000Y373000D02*
X291000Y386000D01*
X278000Y364000D02*
Y373000D01*
X110500Y333000D02*
X134200Y356700D01*
Y365000D01*
X136500Y367300D01*
X154200D01*
X159500Y362000D01*
X166800Y370300D02*
X173500Y377000D01*
X133500Y370300D02*
X166800D01*
X130930Y367730D02*
X133500Y370300D01*
X130930Y364630D02*
Y367730D01*
X104600Y338300D02*
X130930Y364630D01*
X82000Y381500D02*
X100500Y363000D01*
X61000Y381500D02*
X82000D01*
X39500Y362800D02*
Y390600D01*
Y362800D02*
X46200Y356100D01*
Y344700D02*
Y356100D01*
X39000Y337500D02*
X46200Y344700D01*
X120500Y333000D02*
X139500Y352000D01*
Y362000D01*
X44500Y363100D02*
Y376000D01*
X229100Y381500D02*
X236500D01*
X199500Y332000D02*
X205400Y326100D01*
X139500Y377000D02*
X144500Y382000D01*
X179500D01*
X199500Y362000D01*
X179500Y332000D02*
X200500Y353000D01*
X210800D01*
X214800Y357000D01*
Y366200D01*
X204000Y377000D02*
X214800Y366200D01*
X220700Y363200D02*
X234000Y376500D01*
X220700Y353000D02*
Y363200D01*
X216700Y349000D02*
X220700Y353000D01*
X206500Y349000D02*
X216700D01*
X189500Y332000D02*
X206500Y349000D01*
X85200Y328800D02*
X86500Y327500D01*
X135000D01*
X139500Y332000D01*
X39500Y390600D02*
X40400Y391500D01*
X51000D01*
X61000Y381500D01*
X218600Y392000D02*
X229100Y381500D01*
X109000Y376500D02*
X124500Y392000D01*
X218600D01*
X236500Y381500D02*
X236547Y381453D01*
X238047D01*
X242500Y377000D01*
X85200Y328800D02*
Y338300D01*
X104600D01*
X77500Y376500D02*
X80500Y373500D01*
Y329000D02*
Y373500D01*
X44500Y363100D02*
X61400Y346200D01*
X76000D01*
X205400Y326100D02*
X221600D01*
X242500Y347000D01*
Y377000D01*
X162000Y324500D02*
X169500Y332000D01*
X80500Y329000D02*
X85000Y324500D01*
X162000D01*
X85000Y5000D02*
X162000D01*
X80500Y9500D02*
X85000Y5000D01*
X162000D02*
X169500Y12500D01*
X242500Y27500D02*
Y57500D01*
X221600Y6600D02*
X242500Y27500D01*
X205400Y6600D02*
X221600D01*
X61400Y26700D02*
X76000D01*
X44500Y43600D02*
X61400Y26700D01*
X80500Y9500D02*
Y54000D01*
X77500Y57000D02*
X80500Y54000D01*
X85200Y18800D02*
X104600D01*
X85200Y9300D02*
Y18800D01*
X238047Y61953D02*
X242500Y57500D01*
X236547Y61953D02*
X238047D01*
X236500Y62000D02*
X236547Y61953D01*
X124500Y72500D02*
X218600D01*
X109000Y57000D02*
X124500Y72500D01*
X218600D02*
X229100Y62000D01*
X51000Y72000D02*
X61000Y62000D01*
X40400Y72000D02*
X51000D01*
X39500Y71100D02*
X40400Y72000D01*
X135000Y8000D02*
X139500Y12500D01*
X86500Y8000D02*
X135000D01*
X85200Y9300D02*
X86500Y8000D01*
X189500Y12500D02*
X206500Y29500D01*
X216700D01*
X220700Y33500D01*
Y43700D01*
X234000Y57000D01*
X204000Y57500D02*
X214800Y46700D01*
Y37500D02*
Y46700D01*
X210800Y33500D02*
X214800Y37500D01*
X200500Y33500D02*
X210800D01*
X179500Y12500D02*
X200500Y33500D01*
X179500Y62500D02*
X199500Y42500D01*
X144500Y62500D02*
X179500D01*
X139500Y57500D02*
X144500Y62500D01*
X199500Y12500D02*
X205400Y6600D01*
X229100Y62000D02*
X236500D01*
X44500Y43600D02*
Y56500D01*
X139500Y32500D02*
Y42500D01*
X120500Y13500D02*
X139500Y32500D01*
X39000Y18000D02*
X46200Y25200D01*
Y36600D01*
X39500Y43300D02*
X46200Y36600D01*
X39500Y43300D02*
Y71100D01*
X61000Y62000D02*
X82000D01*
X100500Y43500D01*
X104600Y18800D02*
X130930Y45130D01*
Y48230D01*
X133500Y50800D01*
X166800D01*
X173500Y57500D01*
X154200Y47800D02*
X159500Y42500D01*
X136500Y47800D02*
X154200D01*
X134200Y45500D02*
X136500Y47800D01*
X134200Y37200D02*
Y45500D01*
X110500Y13500D02*
X134200Y37200D01*
X278000Y44500D02*
Y53500D01*
X291000Y66500D01*
D12*
X351500Y306000D02*
D03*
D13*
X358063Y365437D02*
D03*
X328063D02*
D03*
X358063Y338437D02*
D03*
X328063D02*
D03*
X374563Y376437D02*
D03*
X367063Y381437D02*
D03*
X374563Y386437D02*
D03*
X373063Y315937D02*
D03*
X365563Y320937D02*
D03*
X373063Y325937D02*
D03*
X334063Y387437D02*
D03*
X335563Y315937D02*
D03*
X338221Y351937D02*
D03*
X373563Y360780D02*
D03*
X345000Y278000D02*
D03*
X375000D02*
D03*
X353500Y17657D02*
D03*
X323000Y291000D02*
D03*
X371500Y9000D02*
D03*
Y39000D02*
D03*
X323500Y264000D02*
D03*
X322500Y234000D02*
D03*
X322000Y204000D02*
D03*
Y173500D02*
D03*
Y139500D02*
D03*
X322500Y109000D02*
D03*
Y77500D02*
D03*
X323000Y44500D02*
D03*
Y15000D02*
D03*
X278500Y124000D02*
D03*
Y94000D02*
D03*
X18157Y115500D02*
D03*
X291500Y146000D02*
D03*
X9500Y97500D02*
D03*
X39500D02*
D03*
X264500Y145500D02*
D03*
X234500Y146500D02*
D03*
X204500Y147000D02*
D03*
X174000D02*
D03*
X140000D02*
D03*
X109500Y146500D02*
D03*
X78000D02*
D03*
X45000Y146000D02*
D03*
X15500D02*
D03*
X278500Y204500D02*
D03*
Y174500D02*
D03*
X18157Y196000D02*
D03*
X291500Y226500D02*
D03*
X9500Y178000D02*
D03*
X39500D02*
D03*
X264500Y226000D02*
D03*
X234500Y227000D02*
D03*
X204500Y227500D02*
D03*
X174000D02*
D03*
X140000D02*
D03*
X109500Y227000D02*
D03*
X78000D02*
D03*
X45000Y226500D02*
D03*
X15500D02*
D03*
X278000Y284000D02*
D03*
Y254000D02*
D03*
X17657Y275500D02*
D03*
X291000Y306000D02*
D03*
X9000Y257500D02*
D03*
X39000D02*
D03*
X264000Y305500D02*
D03*
X234000Y306500D02*
D03*
X204000Y307000D02*
D03*
X173500D02*
D03*
X139500D02*
D03*
X109000Y306500D02*
D03*
X77500D02*
D03*
X44500Y306000D02*
D03*
X15000D02*
D03*
X278000Y364000D02*
D03*
Y334000D02*
D03*
X17657Y355500D02*
D03*
X291000Y386000D02*
D03*
X9000Y337500D02*
D03*
X39000D02*
D03*
X264000Y385500D02*
D03*
X234000Y386500D02*
D03*
X204000Y387000D02*
D03*
X173500D02*
D03*
X139500D02*
D03*
X109000Y386500D02*
D03*
X77500D02*
D03*
X44500Y386000D02*
D03*
X15000D02*
D03*
X278000Y44500D02*
D03*
Y14500D02*
D03*
X17657Y36000D02*
D03*
X9000Y18000D02*
D03*
X39000D02*
D03*
X15000Y66500D02*
D03*
X44500D02*
D03*
X77500Y67000D02*
D03*
X109000D02*
D03*
X139500Y67500D02*
D03*
X173500D02*
D03*
X204000D02*
D03*
X234000Y67000D02*
D03*
X264000Y66000D02*
D03*
X291000Y66500D02*
D03*
D14*
X354563Y387437D02*
D03*
X364500Y228500D02*
D03*
X229000Y104500D02*
D03*
Y185000D02*
D03*
X228500Y264500D02*
D03*
Y344500D02*
D03*
Y25000D02*
D03*
D15*
X354563Y377437D02*
D03*
D16*
X334063D02*
D03*
X335563Y325937D02*
D03*
X373563Y341094D02*
D03*
X370343Y54157D02*
D03*
X353500Y37343D02*
D03*
X291500Y136000D02*
D03*
X264500Y135500D02*
D03*
X234500Y136500D02*
D03*
X204500Y137000D02*
D03*
X174000D02*
D03*
X140000D02*
D03*
X109500Y136500D02*
D03*
X78000D02*
D03*
X45000Y136000D02*
D03*
X15500D02*
D03*
X291500Y216500D02*
D03*
X264500Y216000D02*
D03*
X234500Y217000D02*
D03*
X204500Y217500D02*
D03*
X174000D02*
D03*
X140000D02*
D03*
X109500Y217000D02*
D03*
X78000D02*
D03*
X45000Y216500D02*
D03*
X15500D02*
D03*
X291000Y296000D02*
D03*
X264000Y295500D02*
D03*
X234000Y296500D02*
D03*
X204000Y297000D02*
D03*
X173500D02*
D03*
X139500D02*
D03*
X109000Y296500D02*
D03*
X77500D02*
D03*
X44500Y296000D02*
D03*
X15000D02*
D03*
X291000Y376000D02*
D03*
X264000Y375500D02*
D03*
X234000Y376500D02*
D03*
X204000Y377000D02*
D03*
X173500D02*
D03*
X139500D02*
D03*
X109000Y376500D02*
D03*
X77500D02*
D03*
X44500Y376000D02*
D03*
X15000D02*
D03*
Y56500D02*
D03*
X44500D02*
D03*
X77500Y57000D02*
D03*
X109000D02*
D03*
X139500Y57500D02*
D03*
X173500D02*
D03*
X204000D02*
D03*
X234000Y57000D02*
D03*
X264000Y56000D02*
D03*
X291000Y56500D02*
D03*
D17*
X357906Y351937D02*
D03*
X333000Y291000D02*
D03*
X333500Y264000D02*
D03*
X332500Y234000D02*
D03*
X332000Y204000D02*
D03*
Y173500D02*
D03*
Y139500D02*
D03*
X332500Y109000D02*
D03*
Y77500D02*
D03*
X333000Y44500D02*
D03*
Y15000D02*
D03*
X54657Y98657D02*
D03*
X37843Y115500D02*
D03*
X54657Y179157D02*
D03*
X37843Y196000D02*
D03*
X54157Y258657D02*
D03*
X37343Y275500D02*
D03*
X54157Y338657D02*
D03*
X37343Y355500D02*
D03*
X54157Y19157D02*
D03*
X37343Y36000D02*
D03*
D18*
X310000Y199000D02*
D03*
D19*
X346000Y90500D02*
D03*
Y100500D02*
D03*
Y110500D02*
D03*
Y120500D02*
D03*
X376000D02*
D03*
Y110500D02*
D03*
Y100500D02*
D03*
X347000Y139500D02*
D03*
Y149500D02*
D03*
Y159500D02*
D03*
Y169500D02*
D03*
Y179500D02*
D03*
Y189500D02*
D03*
Y199500D02*
D03*
Y209500D02*
D03*
X377000D02*
D03*
Y199500D02*
D03*
Y189500D02*
D03*
Y179500D02*
D03*
Y169500D02*
D03*
Y159500D02*
D03*
Y149500D02*
D03*
X91000Y123000D02*
D03*
X101000D02*
D03*
X111000D02*
D03*
X121000D02*
D03*
Y93000D02*
D03*
X111000D02*
D03*
X101000D02*
D03*
X140000Y122000D02*
D03*
X150000D02*
D03*
X160000D02*
D03*
X170000D02*
D03*
X180000D02*
D03*
X190000D02*
D03*
X200000D02*
D03*
X210000D02*
D03*
Y92000D02*
D03*
X200000D02*
D03*
X190000D02*
D03*
X180000D02*
D03*
X170000D02*
D03*
X160000D02*
D03*
X150000D02*
D03*
X91000Y203500D02*
D03*
X101000D02*
D03*
X111000D02*
D03*
X121000D02*
D03*
Y173500D02*
D03*
X111000D02*
D03*
X101000D02*
D03*
X140000Y202500D02*
D03*
X150000D02*
D03*
X160000D02*
D03*
X170000D02*
D03*
X180000D02*
D03*
X190000D02*
D03*
X200000D02*
D03*
X210000D02*
D03*
Y172500D02*
D03*
X200000D02*
D03*
X190000D02*
D03*
X180000D02*
D03*
X170000D02*
D03*
X160000D02*
D03*
X150000D02*
D03*
X90500Y283000D02*
D03*
X100500D02*
D03*
X110500D02*
D03*
X120500D02*
D03*
Y253000D02*
D03*
X110500D02*
D03*
X100500D02*
D03*
X139500Y282000D02*
D03*
X149500D02*
D03*
X159500D02*
D03*
X169500D02*
D03*
X179500D02*
D03*
X189500D02*
D03*
X199500D02*
D03*
X209500D02*
D03*
Y252000D02*
D03*
X199500D02*
D03*
X189500D02*
D03*
X179500D02*
D03*
X169500D02*
D03*
X159500D02*
D03*
X149500D02*
D03*
X90500Y363000D02*
D03*
X100500D02*
D03*
X110500D02*
D03*
X120500D02*
D03*
Y333000D02*
D03*
X110500D02*
D03*
X100500D02*
D03*
X139500Y362000D02*
D03*
X149500D02*
D03*
X159500D02*
D03*
X169500D02*
D03*
X179500D02*
D03*
X189500D02*
D03*
X199500D02*
D03*
X209500D02*
D03*
Y332000D02*
D03*
X199500D02*
D03*
X189500D02*
D03*
X179500D02*
D03*
X169500D02*
D03*
X159500D02*
D03*
X149500D02*
D03*
X90500Y43500D02*
D03*
X100500D02*
D03*
X110500D02*
D03*
X120500D02*
D03*
Y13500D02*
D03*
X110500D02*
D03*
X100500D02*
D03*
X139500Y42500D02*
D03*
X149500D02*
D03*
X159500D02*
D03*
X169500D02*
D03*
X179500D02*
D03*
X189500D02*
D03*
X199500D02*
D03*
X209500D02*
D03*
Y12500D02*
D03*
X199500D02*
D03*
X189500D02*
D03*
X179500D02*
D03*
X169500D02*
D03*
X159500D02*
D03*
X149500D02*
D03*
D20*
X376000Y90500D02*
D03*
X377000Y139500D02*
D03*
D21*
X354500Y228500D02*
D03*
D22*
X370343Y73843D02*
D03*
X350657Y64000D02*
D03*
X74343Y98657D02*
D03*
X64500Y118343D02*
D03*
X74343Y179157D02*
D03*
X64500Y198843D02*
D03*
X73843Y258657D02*
D03*
X64000Y278343D02*
D03*
X73843Y338657D02*
D03*
X64000Y358343D02*
D03*
X73843Y19157D02*
D03*
X64000Y38843D02*
D03*
D23*
X153500Y318500D02*
D03*
Y239000D02*
D03*
Y159000D02*
D03*
X154500Y78500D02*
D03*
D24*
X91000Y93000D02*
D03*
X140000Y92000D02*
D03*
X91000Y173500D02*
D03*
X140000Y172500D02*
D03*
X90500Y253000D02*
D03*
X139500Y252000D02*
D03*
X90500Y333000D02*
D03*
X139500Y332000D02*
D03*
X90500Y13500D02*
D03*
X139500Y12500D02*
D03*
D25*
X229000Y114500D02*
D03*
Y195000D02*
D03*
X228500Y274500D02*
D03*
Y354500D02*
D03*
Y35000D02*
D03*
D26*
X362800Y76000D02*
D03*
X76500Y106200D02*
D03*
Y186700D02*
D03*
X76000Y266200D02*
D03*
Y346200D02*
D03*
Y26700D02*
D03*
M02*
