M48
;Layer_Color=9474304
;FILE_FORMAT=2:5
INCH,LZ
;TYPE=PLATED
T1F00S00C0.01968
T3F00S00C0.02756
T5F00S00C0.03543
%
T01
X0076Y00267
X03628Y0076
X00765Y01062
Y01867
X0076Y02662
Y03462
T03
X0009Y0018
X0017657Y0036
X0037343
X0039Y0018
X0054157Y0019157
X0073843
X00905Y00135
X01005
X01105
X01205
X01395Y00125
X01495
X01595
X01695
X01795
X01895
X01995
X02095
Y00425
X01995
X01895
X01795
X01695
X01595
X01495
X01395
X01205Y00435
X01105
X01005
X00905
X0064Y0038843
X0264Y0056
X0278Y00445
Y00145
X0323Y0015
X0333
X03535Y0017657
Y0037343
X0333Y00445
X0323
X03715Y0039
X0370343Y0054157
X03715Y0009
X0370343Y0073843
X0376Y00905
Y01005
Y01105
Y01205
X0377Y01395
Y01495
Y01595
Y01695
Y01795
Y01895
Y01995
Y02095
X0347
Y01995
Y01895
Y01795
Y01695
Y01595
Y01495
Y01395
X0332
X0322
X03225Y0109
X03325
X0346Y01105
Y01005
Y00905
X03325Y00775
X03225
X0350657Y0064
X0346Y01205
X0332Y01735
X0322
Y0204
X0332
X02785Y02045
Y01745
X02915Y0146
Y0136
X02785Y0124
X02645Y01355
Y01455
X02345Y01465
Y01365
X0234Y0067
Y0057
X0264Y0066
X0291Y00665
Y00565
X02785Y0094
X021Y0092
X02
X019
X018
X017
X016
X015
X014
X0121Y0093
X0111
X0101
X0091
X0074343Y0098657
X00645Y0118343
X0091Y0123
X0101
X0111
X0121
X014Y0122
X015
X016
X017
X018
X019
X02
X021
X02045Y0137
Y0147
X02Y01725
X021
X019
X018
X017
X016
X015
X014
X0121Y01735
X0111
X0101
X0091
X0074343Y0179157
X00645Y0198843
X0091Y02035
X0101
X0111
X0121
X014Y02025
X015
X016
X017
X018
X019
X02
X021
X0174Y0147
Y0137
X014
Y0147
X01095Y01465
Y01365
X0078
Y01465
X00775Y0067
Y0057
X0109
Y0067
X01395Y00675
Y00575
X01735
Y00675
X0204
Y00575
X00445Y00565
Y00665
X0015
Y00565
X00095Y00975
X0018157Y01155
X0037843
X00395Y00975
X0054657Y0098657
X0045Y0136
Y0146
X00155
Y0136
X00095Y0178
X0018157Y0196
X0037843
X00395Y0178
X0054657Y0179157
X0045Y02165
Y02265
X00155
Y02165
X0009Y02575
X0017657Y02755
X0037343
X0039Y02575
X0054157Y0258657
X00445Y0296
Y0306
X0015
Y0296
X0009Y03375
X0017657Y03555
X0037343
X0039Y03375
X0054157Y0338657
X0073843
X00905Y0333
X01005
X01105
X01205
X01395Y0332
X01495
X01595
X01695
X01795
X01895
X01995
X02095
Y0362
X01995
X01895
X01795
X01695
X01595
X01495
X01395
X01205Y0363
X01105
X01005
X00905
X0064Y0358343
X00775Y03065
Y02965
X00905Y0283
X01005
X01105
X01205
X01395Y0282
X01495
X01595
X01695
X01795
X01895
X01995
X02095
X0204Y0297
Y0307
X01735
Y0297
X01395
Y0307
X0109Y03065
Y02965
X01105Y0253
X01205
X01005
X00905
X0073843Y0258657
X0064Y0278343
X0078Y0227
Y0217
X01095
Y0227
X014Y02275
Y02175
X0174
Y02275
X01695Y0252
X01795
X01895
X01995
X02095
X02045Y02275
Y02175
X01595Y0252
X01495
X01395
X02345Y0227
Y0217
X02645Y0216
Y0226
X02915Y02265
Y02165
X03225Y0234
X03325
X03335Y0264
X03235
X0323Y0291
X0333
X0345Y0278
X0335563Y0315937
Y0325937
X0328063Y0338437
X0338221Y0351937
X0357906Y0351937
X0358063Y0338437
X0365563Y0320937
X0358063Y0365437
X0328063
X0278Y0364
Y0334
X0291Y0306
Y0296
X0278Y0284
X0264Y02955
Y03055
X0234Y03065
Y02965
X0278Y0254
X0375Y0278
X0373063Y0315937
Y0325937
X0373563Y0341094
X0373563Y036078
X0374563Y0376437
Y0386437
X0367063Y0381437
X0334063Y0377437
Y0387437
X0291Y0386
Y0376
X0264Y03755
Y03855
X0234Y03865
Y03765
X0204Y0377
Y0387
X01735
Y0377
X01395
Y0387
X0109Y03865
Y03765
X00775
Y03865
X00445Y0386
Y0376
X0015
Y0386
T05
X02285Y0025
Y0035
X0229Y01045
Y01145
Y0185
Y0195
X02285Y02645
Y02745
Y03445
Y03545
X03545Y02285
X03645
X0354563Y0377437
Y0387437
M30
