G04 Layer_Physical_Order=2*
G04 Layer_Color=16711680*
%FSLAX25Y25*%
%MOIN*%
G70*
G01*
G75*
%ADD10C,0.03000*%
%ADD11C,0.02000*%
%ADD12R,0.74803X0.02362*%
%ADD13C,0.05905*%
%ADD14C,0.07874*%
%ADD15R,0.07874X0.07874*%
%ADD16R,0.05905X0.05905*%
%ADD17R,0.05905X0.05905*%
%ADD18R,0.02756X3.89764*%
%ADD19C,0.06600*%
%ADD20R,0.06600X0.06600*%
%ADD21R,0.07087X0.07087*%
%ADD22C,0.05937*%
%ADD23R,3.03150X0.02362*%
%ADD24R,0.06600X0.06600*%
%ADD25R,0.07087X0.07087*%
%ADD26C,0.05000*%
G36*
X375958Y389428D02*
X377664Y387566D01*
X377554Y385042D01*
X375692Y383336D01*
X373168Y383446D01*
X371462Y385308D01*
X371572Y387832D01*
X373434Y389538D01*
X375958Y389428D01*
D02*
G37*
G36*
X368458Y384428D02*
X370164Y382566D01*
X370054Y380042D01*
X368192Y378336D01*
X365668Y378446D01*
X363962Y380308D01*
X364072Y382832D01*
X365934Y384538D01*
X368458Y384428D01*
D02*
G37*
G36*
X375958Y379428D02*
X377664Y377566D01*
X377554Y375042D01*
X375692Y373336D01*
X373168Y373446D01*
X371462Y375308D01*
X371572Y377832D01*
X373434Y379538D01*
X375958Y379428D01*
D02*
G37*
G36*
X374458Y328928D02*
X376164Y327066D01*
X376054Y324542D01*
X374192Y322836D01*
X371668Y322946D01*
X369962Y324808D01*
X370072Y327332D01*
X371934Y329038D01*
X374458Y328928D01*
D02*
G37*
G36*
X366958Y323928D02*
X368664Y322066D01*
X368554Y319542D01*
X366692Y317836D01*
X364168Y317946D01*
X362462Y319808D01*
X362572Y322332D01*
X364434Y324038D01*
X366958Y323928D01*
D02*
G37*
G36*
X374458Y318928D02*
X376164Y317066D01*
X376054Y314542D01*
X374192Y312836D01*
X371668Y312946D01*
X369962Y314808D01*
X370072Y317332D01*
X371934Y319038D01*
X374458Y318928D01*
D02*
G37*
D10*
X348626Y393500D02*
X382563D01*
X342563Y387437D02*
X348626Y393500D01*
X382563Y384437D02*
Y393500D01*
X335563Y325937D02*
Y330937D01*
X328063Y338437D02*
X335563Y330937D01*
X373563Y387437D02*
X374563Y386437D01*
X354563Y387437D02*
X373563D01*
X334063Y377437D02*
X354563D01*
X367063Y374937D02*
Y381437D01*
X358063Y365937D02*
X367063Y374937D01*
X358063Y365437D02*
Y365937D01*
X374563Y376437D02*
X382563Y384437D01*
X334063Y387437D02*
X342563D01*
X358063Y365437D02*
X362720Y360780D01*
X373563D01*
X373563Y341094D02*
X374406D01*
X379063Y336437D01*
Y321937D02*
Y336437D01*
X373063Y315937D02*
X379063Y321937D01*
X358063Y338437D02*
X365563Y330937D01*
Y320937D02*
Y330937D01*
X369563Y312437D02*
X373063Y315937D01*
X358563Y312437D02*
X369563D01*
X355063Y315937D02*
X358563Y312437D01*
X335563Y315937D02*
X355063D01*
X344563Y351937D02*
X358063Y338437D01*
X338221Y351937D02*
X344563D01*
X328063Y371437D02*
X334063Y377437D01*
X328063Y365437D02*
Y371437D01*
Y338437D02*
Y365437D01*
D11*
X322500Y109000D02*
Y124000D01*
X322000Y124500D02*
X322500Y124000D01*
X322000Y124500D02*
Y139500D01*
X322500Y77500D02*
Y109000D01*
X322000Y139500D02*
Y173500D01*
X323000Y15000D02*
Y44500D01*
X322000Y173500D02*
Y204000D01*
Y233500D01*
X323000Y264500D02*
Y291000D01*
X371500Y39000D02*
Y46000D01*
X370343Y47157D02*
X371500Y46000D01*
X370343Y47157D02*
Y54157D01*
X364500Y267500D02*
X375000Y278000D01*
X370343Y73843D02*
Y94843D01*
X376000Y100500D01*
X340700Y105200D02*
X346000Y110500D01*
X340700Y73957D02*
Y105200D01*
Y73957D02*
X350657Y64000D01*
X364500Y228500D02*
X377000Y216000D01*
Y209500D02*
Y216000D01*
X354500Y218600D02*
Y228500D01*
Y218600D02*
X355300Y217800D01*
Y147800D02*
Y217800D01*
X347000Y139500D02*
X355300Y147800D01*
X353500Y37343D02*
X364200Y48043D01*
Y67700D01*
X370343Y73843D01*
X346000Y90500D02*
X358900Y103400D01*
Y127600D01*
X347000Y139500D02*
X358900Y127600D01*
X361900Y144400D02*
X377000Y159500D01*
X328000Y269500D02*
X333500Y264000D01*
X328000Y269500D02*
Y294000D01*
X347000Y209500D02*
Y218400D01*
X352300Y174800D02*
Y212000D01*
X347000Y169500D02*
X352300Y174800D01*
X340900Y195600D02*
X347000Y189500D01*
X340900Y195600D02*
Y270244D01*
X333000Y278144D02*
X340900Y270244D01*
X333000Y278144D02*
Y291000D01*
X322500Y61500D02*
X323000Y44500D01*
X322500Y61500D02*
Y77500D01*
X341700Y154800D02*
X347000Y149500D01*
X341700Y154800D02*
Y164200D01*
X347000Y169500D01*
X353500Y17657D02*
X359757D01*
X376000Y85100D02*
Y90500D01*
X364900Y137400D02*
X377000Y149500D01*
X364900Y78100D02*
Y137400D01*
X359757Y17657D02*
X375057D01*
X322500Y234000D02*
Y263000D01*
X323500Y264000D01*
X323000Y264500D02*
X323500Y264000D01*
X322000Y233500D02*
X322500Y234000D01*
X329500Y9000D02*
X371500D01*
X328000Y10500D02*
X329500Y9000D01*
X333000Y15000D02*
Y28500D01*
X361200Y56700D01*
X328000Y10500D02*
Y30000D01*
X358050Y60050D01*
X328047Y294047D02*
Y294781D01*
X328000Y294000D02*
X328047Y294047D01*
X330766Y297500D02*
X336500D01*
X328047Y294781D02*
X330766Y297500D01*
X361200Y56700D02*
Y70800D01*
X346000Y81200D02*
Y90500D01*
X358050Y60050D02*
Y69150D01*
X346000Y81200D02*
X358050Y69150D01*
X358300Y73700D02*
X361200Y70800D01*
X358300Y73700D02*
Y84200D01*
X361900Y87800D01*
Y144400D01*
X362800Y76000D02*
X364900Y78100D01*
X359757Y17657D02*
X377042Y34942D01*
X376750Y84359D02*
X377042Y34942D01*
X376000Y85100D02*
X376750Y84359D01*
X350000Y214300D02*
X352300Y212000D01*
X344000Y221400D02*
X347000Y218400D01*
X344000Y221400D02*
Y271744D01*
X350000Y214300D02*
Y219643D01*
X347000Y222643D02*
X350000Y219643D01*
X347000Y222643D02*
Y237000D01*
X349500Y239500D01*
X358000D01*
X364500Y233000D01*
Y228500D02*
Y233000D01*
Y267500D01*
X339000Y276744D02*
X344000Y271744D01*
X339000Y276744D02*
Y295000D01*
X336500Y297500D02*
X339000Y295000D01*
X377000Y209500D02*
X383500Y203000D01*
X375057Y17657D02*
X383500Y26100D01*
Y203000D01*
X109500Y146500D02*
X124500D01*
X125000Y147000D01*
X140000D01*
X78000Y146500D02*
X109500D01*
X140000Y147000D02*
X174000D01*
X15500Y146000D02*
X45000D01*
X174000Y147000D02*
X204500D01*
X234000D01*
X265000Y146000D02*
X291500D01*
X39500Y97500D02*
X46500D01*
X47657Y98657D01*
X54657D01*
X268000Y104500D02*
X278500Y94000D01*
X74343Y98657D02*
X95343D01*
X101000Y93000D01*
X105700Y128300D02*
X111000Y123000D01*
X74457Y128300D02*
X105700D01*
X64500Y118343D02*
X74457Y128300D01*
X216500Y92000D02*
X229000Y104500D01*
X210000Y92000D02*
X216500D01*
X219100Y114500D02*
X229000D01*
X218300Y113700D02*
X219100Y114500D01*
X148300Y113700D02*
X218300D01*
X140000Y122000D02*
X148300Y113700D01*
X37843Y115500D02*
X48543Y104800D01*
X68200D01*
X74343Y98657D01*
X91000Y123000D02*
X103900Y110100D01*
X128100D01*
X140000Y122000D01*
X144900Y107100D02*
X160000Y92000D01*
X264500Y135500D02*
X270000Y141000D01*
X294500D01*
X210000Y122000D02*
X218900D01*
X175300Y116700D02*
X212500D01*
X170000Y122000D02*
X175300Y116700D01*
X190000Y122000D02*
X196100Y128100D01*
X270744D01*
X278644Y136000D01*
X291500D01*
X45000Y146000D02*
X62000Y146500D01*
X78000D01*
X150000Y122000D02*
X155300Y127300D01*
X164700D01*
X170000Y122000D01*
X18157Y109243D02*
Y115500D01*
X85600Y93000D02*
X91000D01*
X137900Y104100D02*
X150000Y92000D01*
X78600Y104100D02*
X137900D01*
X18157Y93943D02*
Y109243D01*
X234500Y146500D02*
X263500D01*
X264500Y145500D01*
X265000Y146000D01*
X234000Y147000D02*
X234500Y146500D01*
X9500Y97500D02*
Y139500D01*
X11000Y141000D01*
X15500Y136000D02*
X29000D01*
X57200Y107800D01*
X11000Y141000D02*
X30500D01*
X60550Y110950D01*
X294547Y140953D02*
X295281D01*
X294500Y141000D02*
X294547Y140953D01*
X298000Y132500D02*
Y138234D01*
X295281Y140953D02*
X298000Y138234D01*
X57200Y107800D02*
X71300D01*
X81700Y123000D02*
X91000D01*
X60550Y110950D02*
X69650D01*
X81700Y123000D01*
X71300Y107800D02*
X74200Y110700D01*
X84700D01*
X88300Y107100D01*
X144900D01*
X76500Y106200D02*
X78600Y104100D01*
X18157Y109243D02*
X35442Y91958D01*
X84859Y92250D01*
X85600Y93000D01*
X212500Y116700D02*
X214800Y119000D01*
X218900Y122000D02*
X221900Y125000D01*
X272244D01*
X214800Y119000D02*
X220143D01*
X223143Y122000D01*
X237500D01*
X240000Y119500D01*
Y111000D02*
Y119500D01*
X233500Y104500D02*
X240000Y111000D01*
X229000Y104500D02*
X233500D01*
X268000D01*
X272244Y125000D02*
X277244Y130000D01*
X295500D01*
X298000Y132500D01*
X203500Y85500D02*
X210000Y92000D01*
X18157Y93943D02*
X26600Y85500D01*
X203500D01*
X109500Y227000D02*
X124500D01*
X125000Y227500D01*
X140000D01*
X78000Y227000D02*
X109500D01*
X140000Y227500D02*
X174000D01*
X15500Y226500D02*
X45000D01*
X174000Y227500D02*
X204500D01*
X234000D01*
X265000Y226500D02*
X291500D01*
X39500Y178000D02*
X46500D01*
X47657Y179157D01*
X54657D01*
X268000Y185000D02*
X278500Y174500D01*
X74343Y179157D02*
X95343D01*
X101000Y173500D01*
X105700Y208800D02*
X111000Y203500D01*
X74457Y208800D02*
X105700D01*
X64500Y198843D02*
X74457Y208800D01*
X216500Y172500D02*
X229000Y185000D01*
X210000Y172500D02*
X216500D01*
X219100Y195000D02*
X229000D01*
X218300Y194200D02*
X219100Y195000D01*
X148300Y194200D02*
X218300D01*
X140000Y202500D02*
X148300Y194200D01*
X37843Y196000D02*
X48543Y185300D01*
X68200D01*
X74343Y179157D01*
X91000Y203500D02*
X103900Y190600D01*
X128100D01*
X140000Y202500D01*
X144900Y187600D02*
X160000Y172500D01*
X264500Y216000D02*
X270000Y221500D01*
X294500D01*
X210000Y202500D02*
X218900D01*
X175300Y197200D02*
X212500D01*
X170000Y202500D02*
X175300Y197200D01*
X190000Y202500D02*
X196100Y208600D01*
X270744D01*
X278644Y216500D01*
X291500D01*
X45000Y226500D02*
X62000Y227000D01*
X78000D01*
X150000Y202500D02*
X155300Y207800D01*
X164700D01*
X170000Y202500D01*
X18157Y189743D02*
Y196000D01*
X85600Y173500D02*
X91000D01*
X137900Y184600D02*
X150000Y172500D01*
X78600Y184600D02*
X137900D01*
X18157Y174443D02*
Y189743D01*
X234500Y227000D02*
X263500D01*
X264500Y226000D01*
X265000Y226500D01*
X234000Y227500D02*
X234500Y227000D01*
X9500Y178000D02*
Y220000D01*
X11000Y221500D01*
X15500Y216500D02*
X29000D01*
X57200Y188300D01*
X11000Y221500D02*
X30500D01*
X60550Y191450D01*
X294547Y221453D02*
X295281D01*
X294500Y221500D02*
X294547Y221453D01*
X298000Y213000D02*
Y218734D01*
X295281Y221453D02*
X298000Y218734D01*
X57200Y188300D02*
X71300D01*
X81700Y203500D02*
X91000D01*
X60550Y191450D02*
X69650D01*
X81700Y203500D01*
X71300Y188300D02*
X74200Y191200D01*
X84700D01*
X88300Y187600D01*
X144900D01*
X76500Y186700D02*
X78600Y184600D01*
X18157Y189743D02*
X35442Y172458D01*
X84859Y172750D01*
X85600Y173500D01*
X212500Y197200D02*
X214800Y199500D01*
X218900Y202500D02*
X221900Y205500D01*
X272244D01*
X214800Y199500D02*
X220143D01*
X223143Y202500D01*
X237500D01*
X240000Y200000D01*
Y191500D02*
Y200000D01*
X233500Y185000D02*
X240000Y191500D01*
X229000Y185000D02*
X233500D01*
X268000D01*
X272244Y205500D02*
X277244Y210500D01*
X295500D01*
X298000Y213000D01*
X203500Y166000D02*
X210000Y172500D01*
X18157Y174443D02*
X26600Y166000D01*
X203500D01*
X109000Y306500D02*
X124000D01*
X124500Y307000D01*
X139500D01*
X77500Y306500D02*
X109000D01*
X139500Y307000D02*
X173500D01*
X15000Y306000D02*
X44500D01*
X173500Y307000D02*
X204000D01*
X233500D01*
X264500Y306000D02*
X291000D01*
X39000Y257500D02*
X46000D01*
X47157Y258657D01*
X54157D01*
X267500Y264500D02*
X278000Y254000D01*
X73843Y258657D02*
X94843D01*
X100500Y253000D01*
X105200Y288300D02*
X110500Y283000D01*
X73957Y288300D02*
X105200D01*
X64000Y278343D02*
X73957Y288300D01*
X216000Y252000D02*
X228500Y264500D01*
X209500Y252000D02*
X216000D01*
X218600Y274500D02*
X228500D01*
X217800Y273700D02*
X218600Y274500D01*
X147800Y273700D02*
X217800D01*
X139500Y282000D02*
X147800Y273700D01*
X37343Y275500D02*
X48043Y264800D01*
X67700D01*
X73843Y258657D01*
X90500Y283000D02*
X103400Y270100D01*
X127600D01*
X139500Y282000D01*
X144400Y267100D02*
X159500Y252000D01*
X264000Y295500D02*
X269500Y301000D01*
X294000D01*
X209500Y282000D02*
X218400D01*
X174800Y276700D02*
X212000D01*
X169500Y282000D02*
X174800Y276700D01*
X189500Y282000D02*
X195600Y288100D01*
X270244D01*
X278144Y296000D01*
X291000D01*
X44500Y306000D02*
X61500Y306500D01*
X77500D01*
X149500Y282000D02*
X154800Y287300D01*
X164200D01*
X169500Y282000D01*
X17657Y269243D02*
Y275500D01*
X85100Y253000D02*
X90500D01*
X137400Y264100D02*
X149500Y252000D01*
X78100Y264100D02*
X137400D01*
X17657Y253943D02*
Y269243D01*
X234000Y306500D02*
X263000D01*
X264000Y305500D01*
X264500Y306000D01*
X233500Y307000D02*
X234000Y306500D01*
X9000Y257500D02*
Y299500D01*
X10500Y301000D01*
X15000Y296000D02*
X28500D01*
X56700Y267800D01*
X10500Y301000D02*
X30000D01*
X60050Y270950D01*
X294047Y300953D02*
X294781D01*
X294000Y301000D02*
X294047Y300953D01*
X297500Y292500D02*
Y298234D01*
X294781Y300953D02*
X297500Y298234D01*
X56700Y267800D02*
X70800D01*
X81200Y283000D02*
X90500D01*
X60050Y270950D02*
X69150D01*
X81200Y283000D01*
X70800Y267800D02*
X73700Y270700D01*
X84200D01*
X87800Y267100D01*
X144400D01*
X76000Y266200D02*
X78100Y264100D01*
X17657Y269243D02*
X34942Y251958D01*
X84359Y252250D01*
X85100Y253000D01*
X212000Y276700D02*
X214300Y279000D01*
X218400Y282000D02*
X221400Y285000D01*
X271744D01*
X214300Y279000D02*
X219643D01*
X222643Y282000D01*
X237000D01*
X239500Y279500D01*
Y271000D02*
Y279500D01*
X233000Y264500D02*
X239500Y271000D01*
X228500Y264500D02*
X233000D01*
X267500D01*
X271744Y285000D02*
X276744Y290000D01*
X295000D01*
X297500Y292500D01*
X203000Y245500D02*
X209500Y252000D01*
X17657Y253943D02*
X26100Y245500D01*
X203000D01*
X109000Y386500D02*
X124000D01*
X124500Y387000D01*
X139500D01*
X77500Y386500D02*
X109000D01*
X139500Y387000D02*
X173500D01*
X15000Y386000D02*
X44500D01*
X173500Y387000D02*
X204000D01*
X233500D01*
X264500Y386000D02*
X291000D01*
X39000Y337500D02*
X46000D01*
X47157Y338657D01*
X54157D01*
X267500Y344500D02*
X278000Y334000D01*
X73843Y338657D02*
X94843D01*
X100500Y333000D01*
X105200Y368300D02*
X110500Y363000D01*
X73957Y368300D02*
X105200D01*
X64000Y358343D02*
X73957Y368300D01*
X216000Y332000D02*
X228500Y344500D01*
X209500Y332000D02*
X216000D01*
X218600Y354500D02*
X228500D01*
X217800Y353700D02*
X218600Y354500D01*
X147800Y353700D02*
X217800D01*
X139500Y362000D02*
X147800Y353700D01*
X37343Y355500D02*
X48043Y344800D01*
X67700D01*
X73843Y338657D01*
X90500Y363000D02*
X103400Y350100D01*
X127600D01*
X139500Y362000D01*
X144400Y347100D02*
X159500Y332000D01*
X264000Y375500D02*
X269500Y381000D01*
X294000D01*
X209500Y362000D02*
X218400D01*
X174800Y356700D02*
X212000D01*
X169500Y362000D02*
X174800Y356700D01*
X189500Y362000D02*
X195600Y368100D01*
X270244D01*
X278144Y376000D01*
X291000D01*
X44500Y386000D02*
X61500Y386500D01*
X77500D01*
X149500Y362000D02*
X154800Y367300D01*
X164200D01*
X169500Y362000D01*
X17657Y349243D02*
Y355500D01*
X85100Y333000D02*
X90500D01*
X137400Y344100D02*
X149500Y332000D01*
X78100Y344100D02*
X137400D01*
X17657Y333943D02*
Y349243D01*
X234000Y386500D02*
X263000D01*
X264000Y385500D01*
X264500Y386000D01*
X233500Y387000D02*
X234000Y386500D01*
X9000Y337500D02*
Y379500D01*
X10500Y381000D01*
X15000Y376000D02*
X28500D01*
X56700Y347800D01*
X10500Y381000D02*
X30000D01*
X60050Y350950D01*
X294047Y380953D02*
X294781D01*
X294000Y381000D02*
X294047Y380953D01*
X297500Y372500D02*
Y378234D01*
X294781Y380953D02*
X297500Y378234D01*
X56700Y347800D02*
X70800D01*
X81200Y363000D02*
X90500D01*
X60050Y350950D02*
X69150D01*
X81200Y363000D01*
X70800Y347800D02*
X73700Y350700D01*
X84200D01*
X87800Y347100D01*
X144400D01*
X76000Y346200D02*
X78100Y344100D01*
X17657Y349243D02*
X34942Y331958D01*
X84359Y332250D01*
X85100Y333000D01*
X212000Y356700D02*
X214300Y359000D01*
X218400Y362000D02*
X221400Y365000D01*
X271744D01*
X214300Y359000D02*
X219643D01*
X222643Y362000D01*
X237000D01*
X239500Y359500D01*
Y351000D02*
Y359500D01*
X233000Y344500D02*
X239500Y351000D01*
X228500Y344500D02*
X233000D01*
X267500D01*
X271744Y365000D02*
X276744Y370000D01*
X295000D01*
X297500Y372500D01*
X203000Y325500D02*
X209500Y332000D01*
X17657Y333943D02*
X26100Y325500D01*
X203000D01*
X26100Y6000D02*
X203000D01*
X17657Y14443D02*
X26100Y6000D01*
X203000D02*
X209500Y12500D01*
X295000Y50500D02*
X297500Y53000D01*
X276744Y50500D02*
X295000D01*
X271744Y45500D02*
X276744Y50500D01*
X233000Y25000D02*
X267500D01*
X228500D02*
X233000D01*
X239500Y31500D01*
Y40000D01*
X237000Y42500D02*
X239500Y40000D01*
X222643Y42500D02*
X237000D01*
X219643Y39500D02*
X222643Y42500D01*
X214300Y39500D02*
X219643D01*
X221400Y45500D02*
X271744D01*
X218400Y42500D02*
X221400Y45500D01*
X212000Y37200D02*
X214300Y39500D01*
X84359Y12750D02*
X85100Y13500D01*
X34942Y12458D02*
X84359Y12750D01*
X17657Y29743D02*
X34942Y12458D01*
X76000Y26700D02*
X78100Y24600D01*
X87800Y27600D02*
X144400D01*
X84200Y31200D02*
X87800Y27600D01*
X73700Y31200D02*
X84200D01*
X70800Y28300D02*
X73700Y31200D01*
X69150Y31450D02*
X81200Y43500D01*
X60050Y31450D02*
X69150D01*
X81200Y43500D02*
X90500D01*
X56700Y28300D02*
X70800D01*
X294781Y61453D02*
X297500Y58734D01*
Y53000D02*
Y58734D01*
X294000Y61500D02*
X294047Y61453D01*
X294781D01*
X30000Y61500D02*
X60050Y31450D01*
X10500Y61500D02*
X30000D01*
X28500Y56500D02*
X56700Y28300D01*
X15000Y56500D02*
X28500D01*
X9000Y60000D02*
X10500Y61500D01*
X9000Y18000D02*
Y60000D01*
X233500Y67500D02*
X234000Y67000D01*
X264000Y66000D02*
X264500Y66500D01*
X263000Y67000D02*
X264000Y66000D01*
X234000Y67000D02*
X263000D01*
X17657Y14443D02*
Y29743D01*
X78100Y24600D02*
X137400D01*
X149500Y12500D01*
X85100Y13500D02*
X90500D01*
X17657Y29743D02*
Y36000D01*
X164200Y47800D02*
X169500Y42500D01*
X154800Y47800D02*
X164200D01*
X149500Y42500D02*
X154800Y47800D01*
X61500Y67000D02*
X77500D01*
X44500Y66500D02*
X61500Y67000D01*
X278144Y56500D02*
X291000D01*
X270244Y48600D02*
X278144Y56500D01*
X195600Y48600D02*
X270244D01*
X189500Y42500D02*
X195600Y48600D01*
X169500Y42500D02*
X174800Y37200D01*
X212000D01*
X209500Y42500D02*
X218400D01*
X269500Y61500D02*
X294000D01*
X264000Y56000D02*
X269500Y61500D01*
X144400Y27600D02*
X159500Y12500D01*
X127600Y30600D02*
X139500Y42500D01*
X103400Y30600D02*
X127600D01*
X90500Y43500D02*
X103400Y30600D01*
X67700Y25300D02*
X73843Y19157D01*
X48043Y25300D02*
X67700D01*
X37343Y36000D02*
X48043Y25300D01*
X139500Y42500D02*
X147800Y34200D01*
X217800D01*
X218600Y35000D01*
X228500D01*
X209500Y12500D02*
X216000D01*
X228500Y25000D01*
X64000Y38843D02*
X73957Y48800D01*
X105200D01*
X110500Y43500D01*
X94843Y19157D02*
X100500Y13500D01*
X73843Y19157D02*
X94843D01*
X267500Y25000D02*
X278000Y14500D01*
X47157Y19157D02*
X54157D01*
X46000Y18000D02*
X47157Y19157D01*
X39000Y18000D02*
X46000D01*
X264500Y66500D02*
X291000D01*
X204000Y67500D02*
X233500D01*
X173500D02*
X204000D01*
X15000Y66500D02*
X44500D01*
X139500Y67500D02*
X173500D01*
X77500Y67000D02*
X109000D01*
X124500Y67500D02*
X139500D01*
X124000Y67000D02*
X124500Y67500D01*
X109000Y67000D02*
X124000D01*
D12*
X351500Y306000D02*
D03*
D13*
X358063Y365437D02*
D03*
X328063D02*
D03*
X358063Y338437D02*
D03*
X328063D02*
D03*
X374563Y376437D02*
D03*
X367063Y381437D02*
D03*
X374563Y386437D02*
D03*
X373063Y315937D02*
D03*
X365563Y320937D02*
D03*
X373063Y325937D02*
D03*
X334063Y387437D02*
D03*
X335563Y315937D02*
D03*
X338221Y351937D02*
D03*
X373563Y360780D02*
D03*
X345000Y278000D02*
D03*
X375000D02*
D03*
X353500Y17657D02*
D03*
X323000Y291000D02*
D03*
X371500Y9000D02*
D03*
Y39000D02*
D03*
X323500Y264000D02*
D03*
X322500Y234000D02*
D03*
X322000Y204000D02*
D03*
Y173500D02*
D03*
Y139500D02*
D03*
X322500Y109000D02*
D03*
Y77500D02*
D03*
X323000Y44500D02*
D03*
Y15000D02*
D03*
X278500Y124000D02*
D03*
Y94000D02*
D03*
X18157Y115500D02*
D03*
X291500Y146000D02*
D03*
X9500Y97500D02*
D03*
X39500D02*
D03*
X264500Y145500D02*
D03*
X234500Y146500D02*
D03*
X204500Y147000D02*
D03*
X174000D02*
D03*
X140000D02*
D03*
X109500Y146500D02*
D03*
X78000D02*
D03*
X45000Y146000D02*
D03*
X15500D02*
D03*
X278500Y204500D02*
D03*
Y174500D02*
D03*
X18157Y196000D02*
D03*
X291500Y226500D02*
D03*
X9500Y178000D02*
D03*
X39500D02*
D03*
X264500Y226000D02*
D03*
X234500Y227000D02*
D03*
X204500Y227500D02*
D03*
X174000D02*
D03*
X140000D02*
D03*
X109500Y227000D02*
D03*
X78000D02*
D03*
X45000Y226500D02*
D03*
X15500D02*
D03*
X278000Y284000D02*
D03*
Y254000D02*
D03*
X17657Y275500D02*
D03*
X291000Y306000D02*
D03*
X9000Y257500D02*
D03*
X39000D02*
D03*
X264000Y305500D02*
D03*
X234000Y306500D02*
D03*
X204000Y307000D02*
D03*
X173500D02*
D03*
X139500D02*
D03*
X109000Y306500D02*
D03*
X77500D02*
D03*
X44500Y306000D02*
D03*
X15000D02*
D03*
X278000Y364000D02*
D03*
Y334000D02*
D03*
X17657Y355500D02*
D03*
X291000Y386000D02*
D03*
X9000Y337500D02*
D03*
X39000D02*
D03*
X264000Y385500D02*
D03*
X234000Y386500D02*
D03*
X204000Y387000D02*
D03*
X173500D02*
D03*
X139500D02*
D03*
X109000Y386500D02*
D03*
X77500D02*
D03*
X44500Y386000D02*
D03*
X15000D02*
D03*
X278000Y44500D02*
D03*
Y14500D02*
D03*
X17657Y36000D02*
D03*
X9000Y18000D02*
D03*
X39000D02*
D03*
X15000Y66500D02*
D03*
X44500D02*
D03*
X77500Y67000D02*
D03*
X109000D02*
D03*
X139500Y67500D02*
D03*
X173500D02*
D03*
X204000D02*
D03*
X234000Y67000D02*
D03*
X264000Y66000D02*
D03*
X291000Y66500D02*
D03*
D14*
X354563Y387437D02*
D03*
X364500Y228500D02*
D03*
X229000Y104500D02*
D03*
Y185000D02*
D03*
X228500Y264500D02*
D03*
Y344500D02*
D03*
Y25000D02*
D03*
D15*
X354563Y377437D02*
D03*
D16*
X334063D02*
D03*
X335563Y325937D02*
D03*
X373563Y341094D02*
D03*
X370343Y54157D02*
D03*
X353500Y37343D02*
D03*
X291500Y136000D02*
D03*
X264500Y135500D02*
D03*
X234500Y136500D02*
D03*
X204500Y137000D02*
D03*
X174000D02*
D03*
X140000D02*
D03*
X109500Y136500D02*
D03*
X78000D02*
D03*
X45000Y136000D02*
D03*
X15500D02*
D03*
X291500Y216500D02*
D03*
X264500Y216000D02*
D03*
X234500Y217000D02*
D03*
X204500Y217500D02*
D03*
X174000D02*
D03*
X140000D02*
D03*
X109500Y217000D02*
D03*
X78000D02*
D03*
X45000Y216500D02*
D03*
X15500D02*
D03*
X291000Y296000D02*
D03*
X264000Y295500D02*
D03*
X234000Y296500D02*
D03*
X204000Y297000D02*
D03*
X173500D02*
D03*
X139500D02*
D03*
X109000Y296500D02*
D03*
X77500D02*
D03*
X44500Y296000D02*
D03*
X15000D02*
D03*
X291000Y376000D02*
D03*
X264000Y375500D02*
D03*
X234000Y376500D02*
D03*
X204000Y377000D02*
D03*
X173500D02*
D03*
X139500D02*
D03*
X109000Y376500D02*
D03*
X77500D02*
D03*
X44500Y376000D02*
D03*
X15000D02*
D03*
Y56500D02*
D03*
X44500D02*
D03*
X77500Y57000D02*
D03*
X109000D02*
D03*
X139500Y57500D02*
D03*
X173500D02*
D03*
X204000D02*
D03*
X234000Y57000D02*
D03*
X264000Y56000D02*
D03*
X291000Y56500D02*
D03*
D17*
X357906Y351937D02*
D03*
X333000Y291000D02*
D03*
X333500Y264000D02*
D03*
X332500Y234000D02*
D03*
X332000Y204000D02*
D03*
Y173500D02*
D03*
Y139500D02*
D03*
X332500Y109000D02*
D03*
Y77500D02*
D03*
X333000Y44500D02*
D03*
Y15000D02*
D03*
X54657Y98657D02*
D03*
X37843Y115500D02*
D03*
X54657Y179157D02*
D03*
X37843Y196000D02*
D03*
X54157Y258657D02*
D03*
X37343Y275500D02*
D03*
X54157Y338657D02*
D03*
X37343Y355500D02*
D03*
X54157Y19157D02*
D03*
X37343Y36000D02*
D03*
D18*
X310000Y199000D02*
D03*
D19*
X346000Y90500D02*
D03*
Y100500D02*
D03*
Y110500D02*
D03*
Y120500D02*
D03*
X376000D02*
D03*
Y110500D02*
D03*
Y100500D02*
D03*
X347000Y139500D02*
D03*
Y149500D02*
D03*
Y159500D02*
D03*
Y169500D02*
D03*
Y179500D02*
D03*
Y189500D02*
D03*
Y199500D02*
D03*
Y209500D02*
D03*
X377000D02*
D03*
Y199500D02*
D03*
Y189500D02*
D03*
Y179500D02*
D03*
Y169500D02*
D03*
Y159500D02*
D03*
Y149500D02*
D03*
X91000Y123000D02*
D03*
X101000D02*
D03*
X111000D02*
D03*
X121000D02*
D03*
Y93000D02*
D03*
X111000D02*
D03*
X101000D02*
D03*
X140000Y122000D02*
D03*
X150000D02*
D03*
X160000D02*
D03*
X170000D02*
D03*
X180000D02*
D03*
X190000D02*
D03*
X200000D02*
D03*
X210000D02*
D03*
Y92000D02*
D03*
X200000D02*
D03*
X190000D02*
D03*
X180000D02*
D03*
X170000D02*
D03*
X160000D02*
D03*
X150000D02*
D03*
X91000Y203500D02*
D03*
X101000D02*
D03*
X111000D02*
D03*
X121000D02*
D03*
Y173500D02*
D03*
X111000D02*
D03*
X101000D02*
D03*
X140000Y202500D02*
D03*
X150000D02*
D03*
X160000D02*
D03*
X170000D02*
D03*
X180000D02*
D03*
X190000D02*
D03*
X200000D02*
D03*
X210000D02*
D03*
Y172500D02*
D03*
X200000D02*
D03*
X190000D02*
D03*
X180000D02*
D03*
X170000D02*
D03*
X160000D02*
D03*
X150000D02*
D03*
X90500Y283000D02*
D03*
X100500D02*
D03*
X110500D02*
D03*
X120500D02*
D03*
Y253000D02*
D03*
X110500D02*
D03*
X100500D02*
D03*
X139500Y282000D02*
D03*
X149500D02*
D03*
X159500D02*
D03*
X169500D02*
D03*
X179500D02*
D03*
X189500D02*
D03*
X199500D02*
D03*
X209500D02*
D03*
Y252000D02*
D03*
X199500D02*
D03*
X189500D02*
D03*
X179500D02*
D03*
X169500D02*
D03*
X159500D02*
D03*
X149500D02*
D03*
X90500Y363000D02*
D03*
X100500D02*
D03*
X110500D02*
D03*
X120500D02*
D03*
Y333000D02*
D03*
X110500D02*
D03*
X100500D02*
D03*
X139500Y362000D02*
D03*
X149500D02*
D03*
X159500D02*
D03*
X169500D02*
D03*
X179500D02*
D03*
X189500D02*
D03*
X199500D02*
D03*
X209500D02*
D03*
Y332000D02*
D03*
X199500D02*
D03*
X189500D02*
D03*
X179500D02*
D03*
X169500D02*
D03*
X159500D02*
D03*
X149500D02*
D03*
X90500Y43500D02*
D03*
X100500D02*
D03*
X110500D02*
D03*
X120500D02*
D03*
Y13500D02*
D03*
X110500D02*
D03*
X100500D02*
D03*
X139500Y42500D02*
D03*
X149500D02*
D03*
X159500D02*
D03*
X169500D02*
D03*
X179500D02*
D03*
X189500D02*
D03*
X199500D02*
D03*
X209500D02*
D03*
Y12500D02*
D03*
X199500D02*
D03*
X189500D02*
D03*
X179500D02*
D03*
X169500D02*
D03*
X159500D02*
D03*
X149500D02*
D03*
D20*
X376000Y90500D02*
D03*
X377000Y139500D02*
D03*
D21*
X354500Y228500D02*
D03*
D22*
X370343Y73843D02*
D03*
X350657Y64000D02*
D03*
X74343Y98657D02*
D03*
X64500Y118343D02*
D03*
X74343Y179157D02*
D03*
X64500Y198843D02*
D03*
X73843Y258657D02*
D03*
X64000Y278343D02*
D03*
X73843Y338657D02*
D03*
X64000Y358343D02*
D03*
X73843Y19157D02*
D03*
X64000Y38843D02*
D03*
D23*
X153500Y318500D02*
D03*
Y239000D02*
D03*
Y159000D02*
D03*
X154500Y78500D02*
D03*
D24*
X91000Y93000D02*
D03*
X140000Y92000D02*
D03*
X91000Y173500D02*
D03*
X140000Y172500D02*
D03*
X90500Y253000D02*
D03*
X139500Y252000D02*
D03*
X90500Y333000D02*
D03*
X139500Y332000D02*
D03*
X90500Y13500D02*
D03*
X139500Y12500D02*
D03*
D25*
X229000Y114500D02*
D03*
Y195000D02*
D03*
X228500Y274500D02*
D03*
Y354500D02*
D03*
Y35000D02*
D03*
D26*
X362800Y76000D02*
D03*
X76500Y106200D02*
D03*
Y186700D02*
D03*
X76000Y266200D02*
D03*
Y346200D02*
D03*
Y26700D02*
D03*
M02*
