G04 Layer_Color=32896*
%FSLAX25Y25*%
%MOIN*%
G70*
G01*
G75*
%ADD27C,0.00800*%
%ADD29C,0.00787*%
%ADD30C,0.00600*%
%ADD31C,0.00000*%
%ADD32C,0.00500*%
D27*
X365518Y386966D02*
G03*
X365518Y375908I8848J-5529D01*
G01*
Y386966D02*
G03*
X365518Y375908I8848J-5529D01*
G01*
X364018Y326466D02*
G03*
X364018Y315408I8848J-5529D01*
G01*
Y326466D02*
G03*
X364018Y315408I8848J-5529D01*
G01*
D29*
X370736Y47465D02*
G03*
X370736Y47465I-394J0D01*
G01*
D02*
G03*
X370736Y47465I-394J0D01*
G01*
X48358Y98658D02*
G03*
X48358Y98658I-394J0D01*
G01*
D02*
G03*
X48358Y98658I-394J0D01*
G01*
Y179157D02*
G03*
X48358Y179157I-394J0D01*
G01*
D02*
G03*
X48358Y179157I-394J0D01*
G01*
X47858Y258658D02*
G03*
X47858Y258658I-394J0D01*
G01*
D02*
G03*
X47858Y258658I-394J0D01*
G01*
Y338657D02*
G03*
X47858Y338657I-394J0D01*
G01*
D02*
G03*
X47858Y338657I-394J0D01*
G01*
Y19158D02*
G03*
X47858Y19158I-394J0D01*
G01*
D02*
G03*
X47858Y19158I-394J0D01*
G01*
D30*
X375000Y135700D02*
Y213300D01*
X363200Y135700D02*
X375000D01*
X360800D02*
X363200D01*
X349000D02*
X360800D01*
X349000D02*
Y213300D01*
X375000D01*
X344800Y137300D02*
X349000D01*
X344800D02*
Y141700D01*
X349000D01*
Y137300D02*
Y141700D01*
X344800Y147300D02*
X349000D01*
X344800D02*
Y151700D01*
X349000D01*
Y147300D02*
Y151700D01*
X344800Y157300D02*
X349000D01*
X344800D02*
Y161700D01*
X349000D01*
Y157300D02*
Y161700D01*
X344800Y167300D02*
X349000D01*
X344800D02*
Y171700D01*
X349000D01*
Y167300D02*
Y171700D01*
X344800Y177300D02*
X349000D01*
X344800D02*
Y181700D01*
X349000D01*
Y177300D02*
Y181700D01*
X344800Y187300D02*
X349000D01*
X344800D02*
Y191700D01*
X349000D01*
Y187300D02*
Y191700D01*
X344800Y197300D02*
X349000D01*
X344800D02*
Y201700D01*
X349000D01*
Y197300D02*
Y201700D01*
X344800Y207300D02*
X349000D01*
X344800D02*
Y211700D01*
X349000D01*
Y207300D02*
Y211700D01*
X375000D02*
X379200D01*
Y207300D02*
Y211700D01*
X375000Y207300D02*
X379200D01*
X375000D02*
Y211700D01*
Y201700D02*
X379200D01*
Y197300D02*
Y201700D01*
X375000Y197300D02*
X379200D01*
X375000D02*
Y201700D01*
Y191700D02*
X379200D01*
Y187300D02*
Y191700D01*
X375000Y187300D02*
X379200D01*
X375000D02*
Y191700D01*
Y181700D02*
X379200D01*
Y177300D02*
Y181700D01*
X375000Y177300D02*
X379200D01*
X375000D02*
Y181700D01*
Y171700D02*
X379200D01*
Y167300D02*
Y171700D01*
X375000Y167300D02*
X379200D01*
X375000D02*
Y171700D01*
Y161700D02*
X379200D01*
Y157300D02*
Y161700D01*
X375000Y157300D02*
X379200D01*
X375000D02*
Y161700D01*
Y151700D02*
X379200D01*
Y147300D02*
Y151700D01*
X375000Y147300D02*
X379200D01*
X375000D02*
Y151700D01*
Y141700D02*
X379200D01*
Y137300D02*
Y141700D01*
X375000Y137300D02*
X379200D01*
X375000D02*
Y141700D01*
Y135700D02*
Y213300D01*
X363200Y135700D02*
X375000D01*
X360800D02*
X363200D01*
X349000D02*
X360800D01*
X349000D02*
Y213300D01*
X375000D01*
X344800Y137300D02*
X349000D01*
X344800D02*
Y141700D01*
X349000D01*
Y137300D02*
Y141700D01*
X344800Y147300D02*
X349000D01*
X344800D02*
Y151700D01*
X349000D01*
Y147300D02*
Y151700D01*
X344800Y157300D02*
X349000D01*
X344800D02*
Y161700D01*
X349000D01*
Y157300D02*
Y161700D01*
X344800Y167300D02*
X349000D01*
X344800D02*
Y171700D01*
X349000D01*
Y167300D02*
Y171700D01*
X344800Y177300D02*
X349000D01*
X344800D02*
Y181700D01*
X349000D01*
Y177300D02*
Y181700D01*
X344800Y187300D02*
X349000D01*
X344800D02*
Y191700D01*
X349000D01*
Y187300D02*
Y191700D01*
X344800Y197300D02*
X349000D01*
X344800D02*
Y201700D01*
X349000D01*
Y197300D02*
Y201700D01*
X344800Y207300D02*
X349000D01*
X344800D02*
Y211700D01*
X349000D01*
Y207300D02*
Y211700D01*
X375000D02*
X379200D01*
Y207300D02*
Y211700D01*
X375000Y207300D02*
X379200D01*
X375000D02*
Y211700D01*
Y201700D02*
X379200D01*
Y197300D02*
Y201700D01*
X375000Y197300D02*
X379200D01*
X375000D02*
Y201700D01*
Y191700D02*
X379200D01*
Y187300D02*
Y191700D01*
X375000Y187300D02*
X379200D01*
X375000D02*
Y191700D01*
Y181700D02*
X379200D01*
Y177300D02*
Y181700D01*
X375000Y177300D02*
X379200D01*
X375000D02*
Y181700D01*
Y171700D02*
X379200D01*
Y167300D02*
Y171700D01*
X375000Y167300D02*
X379200D01*
X375000D02*
Y171700D01*
Y161700D02*
X379200D01*
Y157300D02*
Y161700D01*
X375000Y157300D02*
X379200D01*
X375000D02*
Y161700D01*
Y151700D02*
X379200D01*
Y147300D02*
Y151700D01*
X375000Y147300D02*
X379200D01*
X375000D02*
Y151700D01*
Y141700D02*
X379200D01*
Y137300D02*
Y141700D01*
X375000Y137300D02*
X379200D01*
X375000D02*
Y141700D01*
X136200Y94000D02*
X213800D01*
X136200D02*
Y105800D01*
Y108200D01*
Y120000D01*
X213800D01*
Y94000D02*
Y120000D01*
X137800D02*
Y124200D01*
X142200D01*
Y120000D02*
Y124200D01*
X137800Y120000D02*
X142200D01*
X147800D02*
Y124200D01*
X152200D01*
Y120000D02*
Y124200D01*
X147800Y120000D02*
X152200D01*
X157800D02*
Y124200D01*
X162200D01*
Y120000D02*
Y124200D01*
X157800Y120000D02*
X162200D01*
X167800D02*
Y124200D01*
X172200D01*
Y120000D02*
Y124200D01*
X167800Y120000D02*
X172200D01*
X177800D02*
Y124200D01*
X182200D01*
Y120000D02*
Y124200D01*
X177800Y120000D02*
X182200D01*
X187800D02*
Y124200D01*
X192200D01*
Y120000D02*
Y124200D01*
X187800Y120000D02*
X192200D01*
X197800D02*
Y124200D01*
X202200D01*
Y120000D02*
Y124200D01*
X197800Y120000D02*
X202200D01*
X207800D02*
Y124200D01*
X212200D01*
Y120000D02*
Y124200D01*
X207800Y120000D02*
X212200D01*
Y89800D02*
Y94000D01*
X207800Y89800D02*
X212200D01*
X207800D02*
Y94000D01*
X212200D01*
X202200Y89800D02*
Y94000D01*
X197800Y89800D02*
X202200D01*
X197800D02*
Y94000D01*
X202200D01*
X192200Y89800D02*
Y94000D01*
X187800Y89800D02*
X192200D01*
X187800D02*
Y94000D01*
X192200D01*
X182200Y89800D02*
Y94000D01*
X177800Y89800D02*
X182200D01*
X177800D02*
Y94000D01*
X182200D01*
X172200Y89800D02*
Y94000D01*
X167800Y89800D02*
X172200D01*
X167800D02*
Y94000D01*
X172200D01*
X162200Y89800D02*
Y94000D01*
X157800Y89800D02*
X162200D01*
X157800D02*
Y94000D01*
X162200D01*
X152200Y89800D02*
Y94000D01*
X147800Y89800D02*
X152200D01*
X147800D02*
Y94000D01*
X152200D01*
X142200Y89800D02*
Y94000D01*
X137800Y89800D02*
X142200D01*
X137800D02*
Y94000D01*
X142200D01*
X136200D02*
X213800D01*
X136200D02*
Y105800D01*
Y108200D01*
Y120000D01*
X213800D01*
Y94000D02*
Y120000D01*
X137800D02*
Y124200D01*
X142200D01*
Y120000D02*
Y124200D01*
X137800Y120000D02*
X142200D01*
X147800D02*
Y124200D01*
X152200D01*
Y120000D02*
Y124200D01*
X147800Y120000D02*
X152200D01*
X157800D02*
Y124200D01*
X162200D01*
Y120000D02*
Y124200D01*
X157800Y120000D02*
X162200D01*
X167800D02*
Y124200D01*
X172200D01*
Y120000D02*
Y124200D01*
X167800Y120000D02*
X172200D01*
X177800D02*
Y124200D01*
X182200D01*
Y120000D02*
Y124200D01*
X177800Y120000D02*
X182200D01*
X187800D02*
Y124200D01*
X192200D01*
Y120000D02*
Y124200D01*
X187800Y120000D02*
X192200D01*
X197800D02*
Y124200D01*
X202200D01*
Y120000D02*
Y124200D01*
X197800Y120000D02*
X202200D01*
X207800D02*
Y124200D01*
X212200D01*
Y120000D02*
Y124200D01*
X207800Y120000D02*
X212200D01*
Y89800D02*
Y94000D01*
X207800Y89800D02*
X212200D01*
X207800D02*
Y94000D01*
X212200D01*
X202200Y89800D02*
Y94000D01*
X197800Y89800D02*
X202200D01*
X197800D02*
Y94000D01*
X202200D01*
X192200Y89800D02*
Y94000D01*
X187800Y89800D02*
X192200D01*
X187800D02*
Y94000D01*
X192200D01*
X182200Y89800D02*
Y94000D01*
X177800Y89800D02*
X182200D01*
X177800D02*
Y94000D01*
X182200D01*
X172200Y89800D02*
Y94000D01*
X167800Y89800D02*
X172200D01*
X167800D02*
Y94000D01*
X172200D01*
X162200Y89800D02*
Y94000D01*
X157800Y89800D02*
X162200D01*
X157800D02*
Y94000D01*
X162200D01*
X152200Y89800D02*
Y94000D01*
X147800Y89800D02*
X152200D01*
X147800D02*
Y94000D01*
X152200D01*
X142200Y89800D02*
Y94000D01*
X137800Y89800D02*
X142200D01*
X137800D02*
Y94000D01*
X142200D01*
X136200Y174500D02*
X213800D01*
X136200D02*
Y186300D01*
Y188700D01*
Y200500D01*
X213800D01*
Y174500D02*
Y200500D01*
X137800D02*
Y204700D01*
X142200D01*
Y200500D02*
Y204700D01*
X137800Y200500D02*
X142200D01*
X147800D02*
Y204700D01*
X152200D01*
Y200500D02*
Y204700D01*
X147800Y200500D02*
X152200D01*
X157800D02*
Y204700D01*
X162200D01*
Y200500D02*
Y204700D01*
X157800Y200500D02*
X162200D01*
X167800D02*
Y204700D01*
X172200D01*
Y200500D02*
Y204700D01*
X167800Y200500D02*
X172200D01*
X177800D02*
Y204700D01*
X182200D01*
Y200500D02*
Y204700D01*
X177800Y200500D02*
X182200D01*
X187800D02*
Y204700D01*
X192200D01*
Y200500D02*
Y204700D01*
X187800Y200500D02*
X192200D01*
X197800D02*
Y204700D01*
X202200D01*
Y200500D02*
Y204700D01*
X197800Y200500D02*
X202200D01*
X207800D02*
Y204700D01*
X212200D01*
Y200500D02*
Y204700D01*
X207800Y200500D02*
X212200D01*
Y170300D02*
Y174500D01*
X207800Y170300D02*
X212200D01*
X207800D02*
Y174500D01*
X212200D01*
X202200Y170300D02*
Y174500D01*
X197800Y170300D02*
X202200D01*
X197800D02*
Y174500D01*
X202200D01*
X192200Y170300D02*
Y174500D01*
X187800Y170300D02*
X192200D01*
X187800D02*
Y174500D01*
X192200D01*
X182200Y170300D02*
Y174500D01*
X177800Y170300D02*
X182200D01*
X177800D02*
Y174500D01*
X182200D01*
X172200Y170300D02*
Y174500D01*
X167800Y170300D02*
X172200D01*
X167800D02*
Y174500D01*
X172200D01*
X162200Y170300D02*
Y174500D01*
X157800Y170300D02*
X162200D01*
X157800D02*
Y174500D01*
X162200D01*
X152200Y170300D02*
Y174500D01*
X147800Y170300D02*
X152200D01*
X147800D02*
Y174500D01*
X152200D01*
X142200Y170300D02*
Y174500D01*
X137800Y170300D02*
X142200D01*
X137800D02*
Y174500D01*
X142200D01*
X136200D02*
X213800D01*
X136200D02*
Y186300D01*
Y188700D01*
Y200500D01*
X213800D01*
Y174500D02*
Y200500D01*
X137800D02*
Y204700D01*
X142200D01*
Y200500D02*
Y204700D01*
X137800Y200500D02*
X142200D01*
X147800D02*
Y204700D01*
X152200D01*
Y200500D02*
Y204700D01*
X147800Y200500D02*
X152200D01*
X157800D02*
Y204700D01*
X162200D01*
Y200500D02*
Y204700D01*
X157800Y200500D02*
X162200D01*
X167800D02*
Y204700D01*
X172200D01*
Y200500D02*
Y204700D01*
X167800Y200500D02*
X172200D01*
X177800D02*
Y204700D01*
X182200D01*
Y200500D02*
Y204700D01*
X177800Y200500D02*
X182200D01*
X187800D02*
Y204700D01*
X192200D01*
Y200500D02*
Y204700D01*
X187800Y200500D02*
X192200D01*
X197800D02*
Y204700D01*
X202200D01*
Y200500D02*
Y204700D01*
X197800Y200500D02*
X202200D01*
X207800D02*
Y204700D01*
X212200D01*
Y200500D02*
Y204700D01*
X207800Y200500D02*
X212200D01*
Y170300D02*
Y174500D01*
X207800Y170300D02*
X212200D01*
X207800D02*
Y174500D01*
X212200D01*
X202200Y170300D02*
Y174500D01*
X197800Y170300D02*
X202200D01*
X197800D02*
Y174500D01*
X202200D01*
X192200Y170300D02*
Y174500D01*
X187800Y170300D02*
X192200D01*
X187800D02*
Y174500D01*
X192200D01*
X182200Y170300D02*
Y174500D01*
X177800Y170300D02*
X182200D01*
X177800D02*
Y174500D01*
X182200D01*
X172200Y170300D02*
Y174500D01*
X167800Y170300D02*
X172200D01*
X167800D02*
Y174500D01*
X172200D01*
X162200Y170300D02*
Y174500D01*
X157800Y170300D02*
X162200D01*
X157800D02*
Y174500D01*
X162200D01*
X152200Y170300D02*
Y174500D01*
X147800Y170300D02*
X152200D01*
X147800D02*
Y174500D01*
X152200D01*
X142200Y170300D02*
Y174500D01*
X137800Y170300D02*
X142200D01*
X137800D02*
Y174500D01*
X142200D01*
X135700Y254000D02*
X213300D01*
X135700D02*
Y265800D01*
Y268200D01*
Y280000D01*
X213300D01*
Y254000D02*
Y280000D01*
X137300D02*
Y284200D01*
X141700D01*
Y280000D02*
Y284200D01*
X137300Y280000D02*
X141700D01*
X147300D02*
Y284200D01*
X151700D01*
Y280000D02*
Y284200D01*
X147300Y280000D02*
X151700D01*
X157300D02*
Y284200D01*
X161700D01*
Y280000D02*
Y284200D01*
X157300Y280000D02*
X161700D01*
X167300D02*
Y284200D01*
X171700D01*
Y280000D02*
Y284200D01*
X167300Y280000D02*
X171700D01*
X177300D02*
Y284200D01*
X181700D01*
Y280000D02*
Y284200D01*
X177300Y280000D02*
X181700D01*
X187300D02*
Y284200D01*
X191700D01*
Y280000D02*
Y284200D01*
X187300Y280000D02*
X191700D01*
X197300D02*
Y284200D01*
X201700D01*
Y280000D02*
Y284200D01*
X197300Y280000D02*
X201700D01*
X207300D02*
Y284200D01*
X211700D01*
Y280000D02*
Y284200D01*
X207300Y280000D02*
X211700D01*
Y249800D02*
Y254000D01*
X207300Y249800D02*
X211700D01*
X207300D02*
Y254000D01*
X211700D01*
X201700Y249800D02*
Y254000D01*
X197300Y249800D02*
X201700D01*
X197300D02*
Y254000D01*
X201700D01*
X191700Y249800D02*
Y254000D01*
X187300Y249800D02*
X191700D01*
X187300D02*
Y254000D01*
X191700D01*
X181700Y249800D02*
Y254000D01*
X177300Y249800D02*
X181700D01*
X177300D02*
Y254000D01*
X181700D01*
X171700Y249800D02*
Y254000D01*
X167300Y249800D02*
X171700D01*
X167300D02*
Y254000D01*
X171700D01*
X161700Y249800D02*
Y254000D01*
X157300Y249800D02*
X161700D01*
X157300D02*
Y254000D01*
X161700D01*
X151700Y249800D02*
Y254000D01*
X147300Y249800D02*
X151700D01*
X147300D02*
Y254000D01*
X151700D01*
X141700Y249800D02*
Y254000D01*
X137300Y249800D02*
X141700D01*
X137300D02*
Y254000D01*
X141700D01*
X135700D02*
X213300D01*
X135700D02*
Y265800D01*
Y268200D01*
Y280000D01*
X213300D01*
Y254000D02*
Y280000D01*
X137300D02*
Y284200D01*
X141700D01*
Y280000D02*
Y284200D01*
X137300Y280000D02*
X141700D01*
X147300D02*
Y284200D01*
X151700D01*
Y280000D02*
Y284200D01*
X147300Y280000D02*
X151700D01*
X157300D02*
Y284200D01*
X161700D01*
Y280000D02*
Y284200D01*
X157300Y280000D02*
X161700D01*
X167300D02*
Y284200D01*
X171700D01*
Y280000D02*
Y284200D01*
X167300Y280000D02*
X171700D01*
X177300D02*
Y284200D01*
X181700D01*
Y280000D02*
Y284200D01*
X177300Y280000D02*
X181700D01*
X187300D02*
Y284200D01*
X191700D01*
Y280000D02*
Y284200D01*
X187300Y280000D02*
X191700D01*
X197300D02*
Y284200D01*
X201700D01*
Y280000D02*
Y284200D01*
X197300Y280000D02*
X201700D01*
X207300D02*
Y284200D01*
X211700D01*
Y280000D02*
Y284200D01*
X207300Y280000D02*
X211700D01*
Y249800D02*
Y254000D01*
X207300Y249800D02*
X211700D01*
X207300D02*
Y254000D01*
X211700D01*
X201700Y249800D02*
Y254000D01*
X197300Y249800D02*
X201700D01*
X197300D02*
Y254000D01*
X201700D01*
X191700Y249800D02*
Y254000D01*
X187300Y249800D02*
X191700D01*
X187300D02*
Y254000D01*
X191700D01*
X181700Y249800D02*
Y254000D01*
X177300Y249800D02*
X181700D01*
X177300D02*
Y254000D01*
X181700D01*
X171700Y249800D02*
Y254000D01*
X167300Y249800D02*
X171700D01*
X167300D02*
Y254000D01*
X171700D01*
X161700Y249800D02*
Y254000D01*
X157300Y249800D02*
X161700D01*
X157300D02*
Y254000D01*
X161700D01*
X151700Y249800D02*
Y254000D01*
X147300Y249800D02*
X151700D01*
X147300D02*
Y254000D01*
X151700D01*
X141700Y249800D02*
Y254000D01*
X137300Y249800D02*
X141700D01*
X137300D02*
Y254000D01*
X141700D01*
X135700Y334000D02*
X213300D01*
X135700D02*
Y345800D01*
Y348200D01*
Y360000D01*
X213300D01*
Y334000D02*
Y360000D01*
X137300D02*
Y364200D01*
X141700D01*
Y360000D02*
Y364200D01*
X137300Y360000D02*
X141700D01*
X147300D02*
Y364200D01*
X151700D01*
Y360000D02*
Y364200D01*
X147300Y360000D02*
X151700D01*
X157300D02*
Y364200D01*
X161700D01*
Y360000D02*
Y364200D01*
X157300Y360000D02*
X161700D01*
X167300D02*
Y364200D01*
X171700D01*
Y360000D02*
Y364200D01*
X167300Y360000D02*
X171700D01*
X177300D02*
Y364200D01*
X181700D01*
Y360000D02*
Y364200D01*
X177300Y360000D02*
X181700D01*
X187300D02*
Y364200D01*
X191700D01*
Y360000D02*
Y364200D01*
X187300Y360000D02*
X191700D01*
X197300D02*
Y364200D01*
X201700D01*
Y360000D02*
Y364200D01*
X197300Y360000D02*
X201700D01*
X207300D02*
Y364200D01*
X211700D01*
Y360000D02*
Y364200D01*
X207300Y360000D02*
X211700D01*
Y329800D02*
Y334000D01*
X207300Y329800D02*
X211700D01*
X207300D02*
Y334000D01*
X211700D01*
X201700Y329800D02*
Y334000D01*
X197300Y329800D02*
X201700D01*
X197300D02*
Y334000D01*
X201700D01*
X191700Y329800D02*
Y334000D01*
X187300Y329800D02*
X191700D01*
X187300D02*
Y334000D01*
X191700D01*
X181700Y329800D02*
Y334000D01*
X177300Y329800D02*
X181700D01*
X177300D02*
Y334000D01*
X181700D01*
X171700Y329800D02*
Y334000D01*
X167300Y329800D02*
X171700D01*
X167300D02*
Y334000D01*
X171700D01*
X161700Y329800D02*
Y334000D01*
X157300Y329800D02*
X161700D01*
X157300D02*
Y334000D01*
X161700D01*
X151700Y329800D02*
Y334000D01*
X147300Y329800D02*
X151700D01*
X147300D02*
Y334000D01*
X151700D01*
X141700Y329800D02*
Y334000D01*
X137300Y329800D02*
X141700D01*
X137300D02*
Y334000D01*
X141700D01*
X135700D02*
X213300D01*
X135700D02*
Y345800D01*
Y348200D01*
Y360000D01*
X213300D01*
Y334000D02*
Y360000D01*
X137300D02*
Y364200D01*
X141700D01*
Y360000D02*
Y364200D01*
X137300Y360000D02*
X141700D01*
X147300D02*
Y364200D01*
X151700D01*
Y360000D02*
Y364200D01*
X147300Y360000D02*
X151700D01*
X157300D02*
Y364200D01*
X161700D01*
Y360000D02*
Y364200D01*
X157300Y360000D02*
X161700D01*
X167300D02*
Y364200D01*
X171700D01*
Y360000D02*
Y364200D01*
X167300Y360000D02*
X171700D01*
X177300D02*
Y364200D01*
X181700D01*
Y360000D02*
Y364200D01*
X177300Y360000D02*
X181700D01*
X187300D02*
Y364200D01*
X191700D01*
Y360000D02*
Y364200D01*
X187300Y360000D02*
X191700D01*
X197300D02*
Y364200D01*
X201700D01*
Y360000D02*
Y364200D01*
X197300Y360000D02*
X201700D01*
X207300D02*
Y364200D01*
X211700D01*
Y360000D02*
Y364200D01*
X207300Y360000D02*
X211700D01*
Y329800D02*
Y334000D01*
X207300Y329800D02*
X211700D01*
X207300D02*
Y334000D01*
X211700D01*
X201700Y329800D02*
Y334000D01*
X197300Y329800D02*
X201700D01*
X197300D02*
Y334000D01*
X201700D01*
X191700Y329800D02*
Y334000D01*
X187300Y329800D02*
X191700D01*
X187300D02*
Y334000D01*
X191700D01*
X181700Y329800D02*
Y334000D01*
X177300Y329800D02*
X181700D01*
X177300D02*
Y334000D01*
X181700D01*
X171700Y329800D02*
Y334000D01*
X167300Y329800D02*
X171700D01*
X167300D02*
Y334000D01*
X171700D01*
X161700Y329800D02*
Y334000D01*
X157300Y329800D02*
X161700D01*
X157300D02*
Y334000D01*
X161700D01*
X151700Y329800D02*
Y334000D01*
X147300Y329800D02*
X151700D01*
X147300D02*
Y334000D01*
X151700D01*
X141700Y329800D02*
Y334000D01*
X137300Y329800D02*
X141700D01*
X137300D02*
Y334000D01*
X141700D01*
X135700Y14500D02*
X213300D01*
X135700D02*
Y26300D01*
Y28700D01*
Y40500D01*
X213300D01*
Y14500D02*
Y40500D01*
X137300D02*
Y44700D01*
X141700D01*
Y40500D02*
Y44700D01*
X137300Y40500D02*
X141700D01*
X147300D02*
Y44700D01*
X151700D01*
Y40500D02*
Y44700D01*
X147300Y40500D02*
X151700D01*
X157300D02*
Y44700D01*
X161700D01*
Y40500D02*
Y44700D01*
X157300Y40500D02*
X161700D01*
X167300D02*
Y44700D01*
X171700D01*
Y40500D02*
Y44700D01*
X167300Y40500D02*
X171700D01*
X177300D02*
Y44700D01*
X181700D01*
Y40500D02*
Y44700D01*
X177300Y40500D02*
X181700D01*
X187300D02*
Y44700D01*
X191700D01*
Y40500D02*
Y44700D01*
X187300Y40500D02*
X191700D01*
X197300D02*
Y44700D01*
X201700D01*
Y40500D02*
Y44700D01*
X197300Y40500D02*
X201700D01*
X207300D02*
Y44700D01*
X211700D01*
Y40500D02*
Y44700D01*
X207300Y40500D02*
X211700D01*
Y10300D02*
Y14500D01*
X207300Y10300D02*
X211700D01*
X207300D02*
Y14500D01*
X211700D01*
X201700Y10300D02*
Y14500D01*
X197300Y10300D02*
X201700D01*
X197300D02*
Y14500D01*
X201700D01*
X191700Y10300D02*
Y14500D01*
X187300Y10300D02*
X191700D01*
X187300D02*
Y14500D01*
X191700D01*
X181700Y10300D02*
Y14500D01*
X177300Y10300D02*
X181700D01*
X177300D02*
Y14500D01*
X181700D01*
X171700Y10300D02*
Y14500D01*
X167300Y10300D02*
X171700D01*
X167300D02*
Y14500D01*
X171700D01*
X161700Y10300D02*
Y14500D01*
X157300Y10300D02*
X161700D01*
X157300D02*
Y14500D01*
X161700D01*
X151700Y10300D02*
Y14500D01*
X147300Y10300D02*
X151700D01*
X147300D02*
Y14500D01*
X151700D01*
X141700Y10300D02*
Y14500D01*
X137300Y10300D02*
X141700D01*
X137300D02*
Y14500D01*
X141700D01*
X135700D02*
X213300D01*
X135700D02*
Y26300D01*
Y28700D01*
Y40500D01*
X213300D01*
Y14500D02*
Y40500D01*
X137300D02*
Y44700D01*
X141700D01*
Y40500D02*
Y44700D01*
X137300Y40500D02*
X141700D01*
X147300D02*
Y44700D01*
X151700D01*
Y40500D02*
Y44700D01*
X147300Y40500D02*
X151700D01*
X157300D02*
Y44700D01*
X161700D01*
Y40500D02*
Y44700D01*
X157300Y40500D02*
X161700D01*
X167300D02*
Y44700D01*
X171700D01*
Y40500D02*
Y44700D01*
X167300Y40500D02*
X171700D01*
X177300D02*
Y44700D01*
X181700D01*
Y40500D02*
Y44700D01*
X177300Y40500D02*
X181700D01*
X187300D02*
Y44700D01*
X191700D01*
Y40500D02*
Y44700D01*
X187300Y40500D02*
X191700D01*
X197300D02*
Y44700D01*
X201700D01*
Y40500D02*
Y44700D01*
X197300Y40500D02*
X201700D01*
X207300D02*
Y44700D01*
X211700D01*
Y40500D02*
Y44700D01*
X207300Y40500D02*
X211700D01*
Y10300D02*
Y14500D01*
X207300Y10300D02*
X211700D01*
X207300D02*
Y14500D01*
X211700D01*
X201700Y10300D02*
Y14500D01*
X197300Y10300D02*
X201700D01*
X197300D02*
Y14500D01*
X201700D01*
X191700Y10300D02*
Y14500D01*
X187300Y10300D02*
X191700D01*
X187300D02*
Y14500D01*
X191700D01*
X181700Y10300D02*
Y14500D01*
X177300Y10300D02*
X181700D01*
X177300D02*
Y14500D01*
X181700D01*
X171700Y10300D02*
Y14500D01*
X167300Y10300D02*
X171700D01*
X167300D02*
Y14500D01*
X171700D01*
X161700Y10300D02*
Y14500D01*
X157300Y10300D02*
X161700D01*
X157300D02*
Y14500D01*
X161700D01*
X151700Y10300D02*
Y14500D01*
X147300Y10300D02*
X151700D01*
X147300D02*
Y14500D01*
X151700D01*
X141700Y10300D02*
Y14500D01*
X137300Y10300D02*
X141700D01*
X137300D02*
Y14500D01*
X141700D01*
D31*
X362200Y85500D02*
G03*
X359800Y85500I-1200J0D01*
G01*
X362200D02*
G03*
X359800Y85500I-1200J0D01*
G01*
X363200Y135700D02*
G03*
X360800Y135700I-1200J0D01*
G01*
X363200D02*
G03*
X360800Y135700I-1200J0D01*
G01*
X86000Y106800D02*
G03*
X86000Y109200I0J1200D01*
G01*
Y106800D02*
G03*
X86000Y109200I0J1200D01*
G01*
X136200Y105800D02*
G03*
X136200Y108200I0J1200D01*
G01*
Y105800D02*
G03*
X136200Y108200I0J1200D01*
G01*
X86000Y187300D02*
G03*
X86000Y189700I0J1200D01*
G01*
Y187300D02*
G03*
X86000Y189700I0J1200D01*
G01*
X136200Y186300D02*
G03*
X136200Y188700I0J1200D01*
G01*
Y186300D02*
G03*
X136200Y188700I0J1200D01*
G01*
X85500Y266800D02*
G03*
X85500Y269200I0J1200D01*
G01*
Y266800D02*
G03*
X85500Y269200I0J1200D01*
G01*
X135700Y265800D02*
G03*
X135700Y268200I0J1200D01*
G01*
Y265800D02*
G03*
X135700Y268200I0J1200D01*
G01*
X85500Y346800D02*
G03*
X85500Y349200I0J1200D01*
G01*
Y346800D02*
G03*
X85500Y349200I0J1200D01*
G01*
X135700Y345800D02*
G03*
X135700Y348200I0J1200D01*
G01*
Y345800D02*
G03*
X135700Y348200I0J1200D01*
G01*
X85500Y27300D02*
G03*
X85500Y29700I0J1200D01*
G01*
Y27300D02*
G03*
X85500Y29700I0J1200D01*
G01*
X135700Y26300D02*
G03*
X135700Y28700I0J1200D01*
G01*
Y26300D02*
G03*
X135700Y28700I0J1200D01*
G01*
X375000Y85500D02*
Y125500D01*
X362200Y85500D02*
X375000D01*
X359800D02*
X362200D01*
X347000D02*
X359800D01*
X347000D02*
Y125500D01*
X375000D01*
X343800Y88300D02*
X347000D01*
X343800D02*
Y92700D01*
X347000D01*
Y88300D02*
Y92700D01*
X343800Y98300D02*
X347000D01*
X343800D02*
Y102700D01*
X347000D01*
Y98300D02*
Y102700D01*
X343800Y108300D02*
X347000D01*
X343800D02*
Y112700D01*
X347000D01*
Y108300D02*
Y112700D01*
X343800Y118300D02*
X347000D01*
X343800D02*
Y122700D01*
X347000D01*
Y118300D02*
Y122700D01*
X375000D02*
X378200D01*
Y118300D02*
Y122700D01*
X375000Y118300D02*
X378200D01*
X375000D02*
Y122700D01*
Y112700D02*
X378200D01*
Y108300D02*
Y112700D01*
X375000Y108300D02*
X378200D01*
X375000D02*
Y112700D01*
Y102700D02*
X378200D01*
Y98300D02*
Y102700D01*
X375000Y98300D02*
X378200D01*
X375000D02*
Y102700D01*
Y92700D02*
X378200D01*
Y88300D02*
Y92700D01*
X375000Y88300D02*
X378200D01*
X375000D02*
Y92700D01*
Y85500D02*
Y125500D01*
X362200Y85500D02*
X375000D01*
X359800D02*
X362200D01*
X347000D02*
X359800D01*
X347000D02*
Y125500D01*
X375000D01*
X343800Y88300D02*
X347000D01*
X343800D02*
Y92700D01*
X347000D01*
Y88300D02*
Y92700D01*
X343800Y98300D02*
X347000D01*
X343800D02*
Y102700D01*
X347000D01*
Y98300D02*
Y102700D01*
X343800Y108300D02*
X347000D01*
X343800D02*
Y112700D01*
X347000D01*
Y108300D02*
Y112700D01*
X343800Y118300D02*
X347000D01*
X343800D02*
Y122700D01*
X347000D01*
Y118300D02*
Y122700D01*
X375000D02*
X378200D01*
Y118300D02*
Y122700D01*
X375000Y118300D02*
X378200D01*
X375000D02*
Y122700D01*
Y112700D02*
X378200D01*
Y108300D02*
Y112700D01*
X375000Y108300D02*
X378200D01*
X375000D02*
Y112700D01*
Y102700D02*
X378200D01*
Y98300D02*
Y102700D01*
X375000Y98300D02*
X378200D01*
X375000D02*
Y102700D01*
Y92700D02*
X378200D01*
Y88300D02*
Y92700D01*
X375000Y88300D02*
X378200D01*
X375000D02*
Y92700D01*
X86000Y94000D02*
X126000D01*
X86000D02*
Y106800D01*
Y109200D01*
Y122000D01*
X126000D01*
Y94000D02*
Y122000D01*
X88800D02*
Y125200D01*
X93200D01*
Y122000D02*
Y125200D01*
X88800Y122000D02*
X93200D01*
X98800D02*
Y125200D01*
X103200D01*
Y122000D02*
Y125200D01*
X98800Y122000D02*
X103200D01*
X108800D02*
Y125200D01*
X113200D01*
Y122000D02*
Y125200D01*
X108800Y122000D02*
X113200D01*
X118800D02*
Y125200D01*
X123200D01*
Y122000D02*
Y125200D01*
X118800Y122000D02*
X123200D01*
Y90800D02*
Y94000D01*
X118800Y90800D02*
X123200D01*
X118800D02*
Y94000D01*
X123200D01*
X113200Y90800D02*
Y94000D01*
X108800Y90800D02*
X113200D01*
X108800D02*
Y94000D01*
X113200D01*
X103200Y90800D02*
Y94000D01*
X98800Y90800D02*
X103200D01*
X98800D02*
Y94000D01*
X103200D01*
X93200Y90800D02*
Y94000D01*
X88800Y90800D02*
X93200D01*
X88800D02*
Y94000D01*
X93200D01*
X86000D02*
X126000D01*
X86000D02*
Y106800D01*
Y109200D01*
Y122000D01*
X126000D01*
Y94000D02*
Y122000D01*
X88800D02*
Y125200D01*
X93200D01*
Y122000D02*
Y125200D01*
X88800Y122000D02*
X93200D01*
X98800D02*
Y125200D01*
X103200D01*
Y122000D02*
Y125200D01*
X98800Y122000D02*
X103200D01*
X108800D02*
Y125200D01*
X113200D01*
Y122000D02*
Y125200D01*
X108800Y122000D02*
X113200D01*
X118800D02*
Y125200D01*
X123200D01*
Y122000D02*
Y125200D01*
X118800Y122000D02*
X123200D01*
Y90800D02*
Y94000D01*
X118800Y90800D02*
X123200D01*
X118800D02*
Y94000D01*
X123200D01*
X113200Y90800D02*
Y94000D01*
X108800Y90800D02*
X113200D01*
X108800D02*
Y94000D01*
X113200D01*
X103200Y90800D02*
Y94000D01*
X98800Y90800D02*
X103200D01*
X98800D02*
Y94000D01*
X103200D01*
X93200Y90800D02*
Y94000D01*
X88800Y90800D02*
X93200D01*
X88800D02*
Y94000D01*
X93200D01*
X86000Y174500D02*
X126000D01*
X86000D02*
Y187300D01*
Y189700D01*
Y202500D01*
X126000D01*
Y174500D02*
Y202500D01*
X88800D02*
Y205700D01*
X93200D01*
Y202500D02*
Y205700D01*
X88800Y202500D02*
X93200D01*
X98800D02*
Y205700D01*
X103200D01*
Y202500D02*
Y205700D01*
X98800Y202500D02*
X103200D01*
X108800D02*
Y205700D01*
X113200D01*
Y202500D02*
Y205700D01*
X108800Y202500D02*
X113200D01*
X118800D02*
Y205700D01*
X123200D01*
Y202500D02*
Y205700D01*
X118800Y202500D02*
X123200D01*
Y171300D02*
Y174500D01*
X118800Y171300D02*
X123200D01*
X118800D02*
Y174500D01*
X123200D01*
X113200Y171300D02*
Y174500D01*
X108800Y171300D02*
X113200D01*
X108800D02*
Y174500D01*
X113200D01*
X103200Y171300D02*
Y174500D01*
X98800Y171300D02*
X103200D01*
X98800D02*
Y174500D01*
X103200D01*
X93200Y171300D02*
Y174500D01*
X88800Y171300D02*
X93200D01*
X88800D02*
Y174500D01*
X93200D01*
X86000D02*
X126000D01*
X86000D02*
Y187300D01*
Y189700D01*
Y202500D01*
X126000D01*
Y174500D02*
Y202500D01*
X88800D02*
Y205700D01*
X93200D01*
Y202500D02*
Y205700D01*
X88800Y202500D02*
X93200D01*
X98800D02*
Y205700D01*
X103200D01*
Y202500D02*
Y205700D01*
X98800Y202500D02*
X103200D01*
X108800D02*
Y205700D01*
X113200D01*
Y202500D02*
Y205700D01*
X108800Y202500D02*
X113200D01*
X118800D02*
Y205700D01*
X123200D01*
Y202500D02*
Y205700D01*
X118800Y202500D02*
X123200D01*
Y171300D02*
Y174500D01*
X118800Y171300D02*
X123200D01*
X118800D02*
Y174500D01*
X123200D01*
X113200Y171300D02*
Y174500D01*
X108800Y171300D02*
X113200D01*
X108800D02*
Y174500D01*
X113200D01*
X103200Y171300D02*
Y174500D01*
X98800Y171300D02*
X103200D01*
X98800D02*
Y174500D01*
X103200D01*
X93200Y171300D02*
Y174500D01*
X88800Y171300D02*
X93200D01*
X88800D02*
Y174500D01*
X93200D01*
X85500Y254000D02*
X125500D01*
X85500D02*
Y266800D01*
Y269200D01*
Y282000D01*
X125500D01*
Y254000D02*
Y282000D01*
X88300D02*
Y285200D01*
X92700D01*
Y282000D02*
Y285200D01*
X88300Y282000D02*
X92700D01*
X98300D02*
Y285200D01*
X102700D01*
Y282000D02*
Y285200D01*
X98300Y282000D02*
X102700D01*
X108300D02*
Y285200D01*
X112700D01*
Y282000D02*
Y285200D01*
X108300Y282000D02*
X112700D01*
X118300D02*
Y285200D01*
X122700D01*
Y282000D02*
Y285200D01*
X118300Y282000D02*
X122700D01*
Y250800D02*
Y254000D01*
X118300Y250800D02*
X122700D01*
X118300D02*
Y254000D01*
X122700D01*
X112700Y250800D02*
Y254000D01*
X108300Y250800D02*
X112700D01*
X108300D02*
Y254000D01*
X112700D01*
X102700Y250800D02*
Y254000D01*
X98300Y250800D02*
X102700D01*
X98300D02*
Y254000D01*
X102700D01*
X92700Y250800D02*
Y254000D01*
X88300Y250800D02*
X92700D01*
X88300D02*
Y254000D01*
X92700D01*
X85500D02*
X125500D01*
X85500D02*
Y266800D01*
Y269200D01*
Y282000D01*
X125500D01*
Y254000D02*
Y282000D01*
X88300D02*
Y285200D01*
X92700D01*
Y282000D02*
Y285200D01*
X88300Y282000D02*
X92700D01*
X98300D02*
Y285200D01*
X102700D01*
Y282000D02*
Y285200D01*
X98300Y282000D02*
X102700D01*
X108300D02*
Y285200D01*
X112700D01*
Y282000D02*
Y285200D01*
X108300Y282000D02*
X112700D01*
X118300D02*
Y285200D01*
X122700D01*
Y282000D02*
Y285200D01*
X118300Y282000D02*
X122700D01*
Y250800D02*
Y254000D01*
X118300Y250800D02*
X122700D01*
X118300D02*
Y254000D01*
X122700D01*
X112700Y250800D02*
Y254000D01*
X108300Y250800D02*
X112700D01*
X108300D02*
Y254000D01*
X112700D01*
X102700Y250800D02*
Y254000D01*
X98300Y250800D02*
X102700D01*
X98300D02*
Y254000D01*
X102700D01*
X92700Y250800D02*
Y254000D01*
X88300Y250800D02*
X92700D01*
X88300D02*
Y254000D01*
X92700D01*
X85500Y334000D02*
X125500D01*
X85500D02*
Y346800D01*
Y349200D01*
Y362000D01*
X125500D01*
Y334000D02*
Y362000D01*
X88300D02*
Y365200D01*
X92700D01*
Y362000D02*
Y365200D01*
X88300Y362000D02*
X92700D01*
X98300D02*
Y365200D01*
X102700D01*
Y362000D02*
Y365200D01*
X98300Y362000D02*
X102700D01*
X108300D02*
Y365200D01*
X112700D01*
Y362000D02*
Y365200D01*
X108300Y362000D02*
X112700D01*
X118300D02*
Y365200D01*
X122700D01*
Y362000D02*
Y365200D01*
X118300Y362000D02*
X122700D01*
Y330800D02*
Y334000D01*
X118300Y330800D02*
X122700D01*
X118300D02*
Y334000D01*
X122700D01*
X112700Y330800D02*
Y334000D01*
X108300Y330800D02*
X112700D01*
X108300D02*
Y334000D01*
X112700D01*
X102700Y330800D02*
Y334000D01*
X98300Y330800D02*
X102700D01*
X98300D02*
Y334000D01*
X102700D01*
X92700Y330800D02*
Y334000D01*
X88300Y330800D02*
X92700D01*
X88300D02*
Y334000D01*
X92700D01*
X85500D02*
X125500D01*
X85500D02*
Y346800D01*
Y349200D01*
Y362000D01*
X125500D01*
Y334000D02*
Y362000D01*
X88300D02*
Y365200D01*
X92700D01*
Y362000D02*
Y365200D01*
X88300Y362000D02*
X92700D01*
X98300D02*
Y365200D01*
X102700D01*
Y362000D02*
Y365200D01*
X98300Y362000D02*
X102700D01*
X108300D02*
Y365200D01*
X112700D01*
Y362000D02*
Y365200D01*
X108300Y362000D02*
X112700D01*
X118300D02*
Y365200D01*
X122700D01*
Y362000D02*
Y365200D01*
X118300Y362000D02*
X122700D01*
Y330800D02*
Y334000D01*
X118300Y330800D02*
X122700D01*
X118300D02*
Y334000D01*
X122700D01*
X112700Y330800D02*
Y334000D01*
X108300Y330800D02*
X112700D01*
X108300D02*
Y334000D01*
X112700D01*
X102700Y330800D02*
Y334000D01*
X98300Y330800D02*
X102700D01*
X98300D02*
Y334000D01*
X102700D01*
X92700Y330800D02*
Y334000D01*
X88300Y330800D02*
X92700D01*
X88300D02*
Y334000D01*
X92700D01*
X85500Y14500D02*
X125500D01*
X85500D02*
Y27300D01*
Y29700D01*
Y42500D01*
X125500D01*
Y14500D02*
Y42500D01*
X88300D02*
Y45700D01*
X92700D01*
Y42500D02*
Y45700D01*
X88300Y42500D02*
X92700D01*
X98300D02*
Y45700D01*
X102700D01*
Y42500D02*
Y45700D01*
X98300Y42500D02*
X102700D01*
X108300D02*
Y45700D01*
X112700D01*
Y42500D02*
Y45700D01*
X108300Y42500D02*
X112700D01*
X118300D02*
Y45700D01*
X122700D01*
Y42500D02*
Y45700D01*
X118300Y42500D02*
X122700D01*
Y11300D02*
Y14500D01*
X118300Y11300D02*
X122700D01*
X118300D02*
Y14500D01*
X122700D01*
X112700Y11300D02*
Y14500D01*
X108300Y11300D02*
X112700D01*
X108300D02*
Y14500D01*
X112700D01*
X102700Y11300D02*
Y14500D01*
X98300Y11300D02*
X102700D01*
X98300D02*
Y14500D01*
X102700D01*
X92700Y11300D02*
Y14500D01*
X88300Y11300D02*
X92700D01*
X88300D02*
Y14500D01*
X92700D01*
X85500D02*
X125500D01*
X85500D02*
Y27300D01*
Y29700D01*
Y42500D01*
X125500D01*
Y14500D02*
Y42500D01*
X88300D02*
Y45700D01*
X92700D01*
Y42500D02*
Y45700D01*
X88300Y42500D02*
X92700D01*
X98300D02*
Y45700D01*
X102700D01*
Y42500D02*
Y45700D01*
X98300Y42500D02*
X102700D01*
X108300D02*
Y45700D01*
X112700D01*
Y42500D02*
Y45700D01*
X108300Y42500D02*
X112700D01*
X118300D02*
Y45700D01*
X122700D01*
Y42500D02*
Y45700D01*
X118300Y42500D02*
X122700D01*
Y11300D02*
Y14500D01*
X118300Y11300D02*
X122700D01*
X118300D02*
Y14500D01*
X122700D01*
X112700Y11300D02*
Y14500D01*
X108300Y11300D02*
X112700D01*
X108300D02*
Y14500D01*
X112700D01*
X102700Y11300D02*
Y14500D01*
X98300Y11300D02*
X102700D01*
X98300D02*
Y14500D01*
X102700D01*
X92700Y11300D02*
Y14500D01*
X88300Y11300D02*
X92700D01*
X88300D02*
Y14500D01*
X92700D01*
D32*
X374280Y51402D02*
Y76598D01*
X347902D02*
X374280D01*
X347902Y51402D02*
Y76598D01*
Y51402D02*
X374280D01*
Y76598D01*
X347902D02*
X374280D01*
X347902Y51402D02*
Y76598D01*
Y51402D02*
X374280D01*
X51902Y94720D02*
X77098D01*
Y121098D01*
X51902D02*
X77098D01*
X51902Y94720D02*
Y121098D01*
Y94720D02*
X77098D01*
Y121098D01*
X51902D02*
X77098D01*
X51902Y94720D02*
Y121098D01*
Y175220D02*
X77098D01*
Y201598D01*
X51902D02*
X77098D01*
X51902Y175220D02*
Y201598D01*
Y175220D02*
X77098D01*
Y201598D01*
X51902D02*
X77098D01*
X51902Y175220D02*
Y201598D01*
X51402Y254720D02*
X76598D01*
Y281098D01*
X51402D02*
X76598D01*
X51402Y254720D02*
Y281098D01*
Y254720D02*
X76598D01*
Y281098D01*
X51402D02*
X76598D01*
X51402Y254720D02*
Y281098D01*
Y334720D02*
X76598D01*
Y361098D01*
X51402D02*
X76598D01*
X51402Y334720D02*
Y361098D01*
Y334720D02*
X76598D01*
Y361098D01*
X51402D02*
X76598D01*
X51402Y334720D02*
Y361098D01*
Y15220D02*
X76598D01*
Y41598D01*
X51402D02*
X76598D01*
X51402Y15220D02*
Y41598D01*
Y15220D02*
X76598D01*
Y41598D01*
X51402D02*
X76598D01*
X51402Y15220D02*
Y41598D01*
M02*
