G04 Layer_Color=32896*
%FSLAX25Y25*%
%MOIN*%
G70*
G01*
G75*
%ADD23C,0.01000*%
%ADD29C,0.01968*%
D23*
X48000Y4000D02*
Y7673D01*
X46163Y9510D01*
X44327Y7673D01*
Y4000D01*
Y6755D01*
X48000D01*
X42490Y4000D02*
Y4918D01*
X41572D01*
Y4000D01*
X42490D01*
X37898Y9510D02*
X36062D01*
X36980D01*
Y4000D01*
X37898D01*
X36062D01*
X33307D02*
Y4918D01*
X32388D01*
Y4000D01*
X33307D01*
X23205D02*
Y9510D01*
X20450D01*
X19532Y8592D01*
Y6755D01*
X20450Y5837D01*
X23205D01*
X14021Y8592D02*
X14940Y9510D01*
X16777D01*
X17695Y8592D01*
Y4918D01*
X16777Y4000D01*
X14940D01*
X14021Y4918D01*
X12185Y9510D02*
Y4000D01*
X9430D01*
X8512Y4918D01*
Y5837D01*
X9430Y6755D01*
X12185D01*
X9430D01*
X8512Y7673D01*
Y8592D01*
X9430Y9510D01*
X12185D01*
X48000Y159000D02*
Y162673D01*
X46163Y164510D01*
X44327Y162673D01*
Y159000D01*
Y161755D01*
X48000D01*
X42490Y159000D02*
Y159918D01*
X41572D01*
Y159000D01*
X42490D01*
X37898Y164510D02*
X36062D01*
X36980D01*
Y159000D01*
X37898D01*
X36062D01*
X33307D02*
Y159918D01*
X32388D01*
Y159000D01*
X33307D01*
X23205D02*
Y164510D01*
X20450D01*
X19532Y163592D01*
Y161755D01*
X20450Y160837D01*
X23205D01*
X14021Y163592D02*
X14940Y164510D01*
X16777D01*
X17695Y163592D01*
Y159918D01*
X16777Y159000D01*
X14940D01*
X14021Y159918D01*
X12185Y164510D02*
Y159000D01*
X9430D01*
X8512Y159918D01*
Y160837D01*
X9430Y161755D01*
X12185D01*
X9430D01*
X8512Y162673D01*
Y163592D01*
X9430Y164510D01*
X12185D01*
X48000Y81500D02*
Y85173D01*
X46163Y87010D01*
X44327Y85173D01*
Y81500D01*
Y84255D01*
X48000D01*
X42490Y81500D02*
Y82418D01*
X41572D01*
Y81500D01*
X42490D01*
X37898Y87010D02*
X36062D01*
X36980D01*
Y81500D01*
X37898D01*
X36062D01*
X33307D02*
Y82418D01*
X32388D01*
Y81500D01*
X33307D01*
X23205D02*
Y87010D01*
X20450D01*
X19532Y86092D01*
Y84255D01*
X20450Y83337D01*
X23205D01*
X14021Y86092D02*
X14940Y87010D01*
X16777D01*
X17695Y86092D01*
Y82418D01*
X16777Y81500D01*
X14940D01*
X14021Y82418D01*
X12185Y87010D02*
Y81500D01*
X9430D01*
X8512Y82418D01*
Y83337D01*
X9430Y84255D01*
X12185D01*
X9430D01*
X8512Y85173D01*
Y86092D01*
X9430Y87010D01*
X12185D01*
X48000Y237000D02*
Y240673D01*
X46163Y242510D01*
X44327Y240673D01*
Y237000D01*
Y239755D01*
X48000D01*
X42490Y237000D02*
Y237918D01*
X41572D01*
Y237000D01*
X42490D01*
X37898Y242510D02*
X36062D01*
X36980D01*
Y237000D01*
X37898D01*
X36062D01*
X33307D02*
Y237918D01*
X32388D01*
Y237000D01*
X33307D01*
X23205D02*
Y242510D01*
X20450D01*
X19532Y241592D01*
Y239755D01*
X20450Y238837D01*
X23205D01*
X14021Y241592D02*
X14940Y242510D01*
X16777D01*
X17695Y241592D01*
Y237918D01*
X16777Y237000D01*
X14940D01*
X14021Y237918D01*
X12185Y242510D02*
Y237000D01*
X9430D01*
X8512Y237918D01*
Y238837D01*
X9430Y239755D01*
X12185D01*
X9430D01*
X8512Y240673D01*
Y241592D01*
X9430Y242510D01*
X12185D01*
X48000Y315500D02*
Y319173D01*
X46163Y321010D01*
X44327Y319173D01*
Y315500D01*
Y318255D01*
X48000D01*
X42490Y315500D02*
Y316418D01*
X41572D01*
Y315500D01*
X42490D01*
X37898Y321010D02*
X36062D01*
X36980D01*
Y315500D01*
X37898D01*
X36062D01*
X33307D02*
Y316418D01*
X32388D01*
Y315500D01*
X33307D01*
X23205D02*
Y321010D01*
X20450D01*
X19532Y320092D01*
Y318255D01*
X20450Y317337D01*
X23205D01*
X14021Y320092D02*
X14940Y321010D01*
X16777D01*
X17695Y320092D01*
Y316418D01*
X16777Y315500D01*
X14940D01*
X14021Y316418D01*
X12185Y321010D02*
Y315500D01*
X9430D01*
X8512Y316418D01*
Y317337D01*
X9430Y318255D01*
X12185D01*
X9430D01*
X8512Y319173D01*
Y320092D01*
X9430Y321010D01*
X12185D01*
D29*
X228000Y5500D02*
X225507D01*
X226754D01*
Y12978D01*
X228000Y11732D01*
X221768Y12978D02*
X216783D01*
Y11732D01*
X221768Y6746D01*
Y5500D01*
X206813Y12978D02*
Y5500D01*
X201827D01*
X194350Y12978D02*
X199335D01*
Y5500D01*
X194350D01*
X199335Y9239D02*
X196842D01*
X191857Y12978D02*
Y5500D01*
X188118D01*
X186872Y6746D01*
Y11732D01*
X188118Y12978D01*
X191857D01*
X176901D02*
Y5500D01*
Y7993D01*
X171916Y12978D01*
X175655Y9239D01*
X171916Y5500D01*
X169423D02*
Y12978D01*
X164438Y5500D01*
Y12978D01*
X161945D02*
X159453D01*
X160699D01*
Y5500D01*
X161945D01*
X159453D01*
X150728Y11732D02*
X151975Y12978D01*
X154467D01*
X155714Y11732D01*
Y6746D01*
X154467Y5500D01*
X151975D01*
X150728Y6746D01*
Y9239D01*
X153221D01*
X148236Y12978D02*
Y5500D01*
Y9239D01*
X143251D01*
Y12978D01*
Y5500D01*
X140758Y12978D02*
X135773D01*
X138265D01*
Y5500D01*
X125802D02*
Y12978D01*
X122063D01*
X120817Y11732D01*
Y9239D01*
X122063Y7993D01*
X125802D01*
X123310D02*
X120817Y5500D01*
X118324Y12978D02*
X115832D01*
X117078D01*
Y5500D01*
X118324D01*
X115832D01*
X112093Y12978D02*
Y5500D01*
X108354D01*
X107107Y6746D01*
Y11732D01*
X108354Y12978D01*
X112093D01*
X99629D02*
X104615D01*
Y5500D01*
X99629D01*
X104615Y9239D02*
X102122D01*
X97137Y5500D02*
Y12978D01*
X93398D01*
X92152Y11732D01*
Y9239D01*
X93398Y7993D01*
X97137D01*
X94644D02*
X92152Y5500D01*
X228000Y160500D02*
X225507D01*
X226754D01*
Y167978D01*
X228000Y166732D01*
X221768Y167978D02*
X216783D01*
Y166732D01*
X221768Y161746D01*
Y160500D01*
X206813Y167978D02*
Y160500D01*
X201827D01*
X194350Y167978D02*
X199335D01*
Y160500D01*
X194350D01*
X199335Y164239D02*
X196842D01*
X191857Y167978D02*
Y160500D01*
X188118D01*
X186872Y161746D01*
Y166732D01*
X188118Y167978D01*
X191857D01*
X176901D02*
Y160500D01*
Y162993D01*
X171916Y167978D01*
X175655Y164239D01*
X171916Y160500D01*
X169423D02*
Y167978D01*
X164438Y160500D01*
Y167978D01*
X161945D02*
X159453D01*
X160699D01*
Y160500D01*
X161945D01*
X159453D01*
X150728Y166732D02*
X151975Y167978D01*
X154467D01*
X155714Y166732D01*
Y161746D01*
X154467Y160500D01*
X151975D01*
X150728Y161746D01*
Y164239D01*
X153221D01*
X148236Y167978D02*
Y160500D01*
Y164239D01*
X143251D01*
Y167978D01*
Y160500D01*
X140758Y167978D02*
X135773D01*
X138265D01*
Y160500D01*
X125802D02*
Y167978D01*
X122063D01*
X120817Y166732D01*
Y164239D01*
X122063Y162993D01*
X125802D01*
X123310D02*
X120817Y160500D01*
X118324Y167978D02*
X115832D01*
X117078D01*
Y160500D01*
X118324D01*
X115832D01*
X112093Y167978D02*
Y160500D01*
X108354D01*
X107107Y161746D01*
Y166732D01*
X108354Y167978D01*
X112093D01*
X99629D02*
X104615D01*
Y160500D01*
X99629D01*
X104615Y164239D02*
X102122D01*
X97137Y160500D02*
Y167978D01*
X93398D01*
X92152Y166732D01*
Y164239D01*
X93398Y162993D01*
X97137D01*
X94644D02*
X92152Y160500D01*
X228000Y83000D02*
X225507D01*
X226754D01*
Y90478D01*
X228000Y89232D01*
X221768Y90478D02*
X216783D01*
Y89232D01*
X221768Y84246D01*
Y83000D01*
X206813Y90478D02*
Y83000D01*
X201827D01*
X194350Y90478D02*
X199335D01*
Y83000D01*
X194350D01*
X199335Y86739D02*
X196842D01*
X191857Y90478D02*
Y83000D01*
X188118D01*
X186872Y84246D01*
Y89232D01*
X188118Y90478D01*
X191857D01*
X176901D02*
Y83000D01*
Y85493D01*
X171916Y90478D01*
X175655Y86739D01*
X171916Y83000D01*
X169423D02*
Y90478D01*
X164438Y83000D01*
Y90478D01*
X161945D02*
X159453D01*
X160699D01*
Y83000D01*
X161945D01*
X159453D01*
X150728Y89232D02*
X151975Y90478D01*
X154467D01*
X155714Y89232D01*
Y84246D01*
X154467Y83000D01*
X151975D01*
X150728Y84246D01*
Y86739D01*
X153221D01*
X148236Y90478D02*
Y83000D01*
Y86739D01*
X143251D01*
Y90478D01*
Y83000D01*
X140758Y90478D02*
X135773D01*
X138265D01*
Y83000D01*
X125802D02*
Y90478D01*
X122063D01*
X120817Y89232D01*
Y86739D01*
X122063Y85493D01*
X125802D01*
X123310D02*
X120817Y83000D01*
X118324Y90478D02*
X115832D01*
X117078D01*
Y83000D01*
X118324D01*
X115832D01*
X112093Y90478D02*
Y83000D01*
X108354D01*
X107107Y84246D01*
Y89232D01*
X108354Y90478D01*
X112093D01*
X99629D02*
X104615D01*
Y83000D01*
X99629D01*
X104615Y86739D02*
X102122D01*
X97137Y83000D02*
Y90478D01*
X93398D01*
X92152Y89232D01*
Y86739D01*
X93398Y85493D01*
X97137D01*
X94644D02*
X92152Y83000D01*
X228000Y238500D02*
X225507D01*
X226754D01*
Y245978D01*
X228000Y244732D01*
X221768Y245978D02*
X216783D01*
Y244732D01*
X221768Y239746D01*
Y238500D01*
X206813Y245978D02*
Y238500D01*
X201827D01*
X194350Y245978D02*
X199335D01*
Y238500D01*
X194350D01*
X199335Y242239D02*
X196842D01*
X191857Y245978D02*
Y238500D01*
X188118D01*
X186872Y239746D01*
Y244732D01*
X188118Y245978D01*
X191857D01*
X176901D02*
Y238500D01*
Y240993D01*
X171916Y245978D01*
X175655Y242239D01*
X171916Y238500D01*
X169423D02*
Y245978D01*
X164438Y238500D01*
Y245978D01*
X161945D02*
X159453D01*
X160699D01*
Y238500D01*
X161945D01*
X159453D01*
X150728Y244732D02*
X151975Y245978D01*
X154467D01*
X155714Y244732D01*
Y239746D01*
X154467Y238500D01*
X151975D01*
X150728Y239746D01*
Y242239D01*
X153221D01*
X148236Y245978D02*
Y238500D01*
Y242239D01*
X143251D01*
Y245978D01*
Y238500D01*
X140758Y245978D02*
X135773D01*
X138265D01*
Y238500D01*
X125802D02*
Y245978D01*
X122063D01*
X120817Y244732D01*
Y242239D01*
X122063Y240993D01*
X125802D01*
X123310D02*
X120817Y238500D01*
X118324Y245978D02*
X115832D01*
X117078D01*
Y238500D01*
X118324D01*
X115832D01*
X112093Y245978D02*
Y238500D01*
X108354D01*
X107107Y239746D01*
Y244732D01*
X108354Y245978D01*
X112093D01*
X99629D02*
X104615D01*
Y238500D01*
X99629D01*
X104615Y242239D02*
X102122D01*
X97137Y238500D02*
Y245978D01*
X93398D01*
X92152Y244732D01*
Y242239D01*
X93398Y240993D01*
X97137D01*
X94644D02*
X92152Y238500D01*
X228000Y317000D02*
X225507D01*
X226754D01*
Y324478D01*
X228000Y323232D01*
X221768Y324478D02*
X216783D01*
Y323232D01*
X221768Y318246D01*
Y317000D01*
X206813Y324478D02*
Y317000D01*
X201827D01*
X194350Y324478D02*
X199335D01*
Y317000D01*
X194350D01*
X199335Y320739D02*
X196842D01*
X191857Y324478D02*
Y317000D01*
X188118D01*
X186872Y318246D01*
Y323232D01*
X188118Y324478D01*
X191857D01*
X176901D02*
Y317000D01*
Y319493D01*
X171916Y324478D01*
X175655Y320739D01*
X171916Y317000D01*
X169423D02*
Y324478D01*
X164438Y317000D01*
Y324478D01*
X161945D02*
X159453D01*
X160699D01*
Y317000D01*
X161945D01*
X159453D01*
X150728Y323232D02*
X151975Y324478D01*
X154467D01*
X155714Y323232D01*
Y318246D01*
X154467Y317000D01*
X151975D01*
X150728Y318246D01*
Y320739D01*
X153221D01*
X148236Y324478D02*
Y317000D01*
Y320739D01*
X143251D01*
Y324478D01*
Y317000D01*
X140758Y324478D02*
X135773D01*
X138265D01*
Y317000D01*
X125802D02*
Y324478D01*
X122063D01*
X120817Y323232D01*
Y320739D01*
X122063Y319493D01*
X125802D01*
X123310D02*
X120817Y317000D01*
X118324Y324478D02*
X115832D01*
X117078D01*
Y317000D01*
X118324D01*
X115832D01*
X112093Y324478D02*
Y317000D01*
X108354D01*
X107107Y318246D01*
Y323232D01*
X108354Y324478D01*
X112093D01*
X99629D02*
X104615D01*
Y317000D01*
X99629D01*
X104615Y320739D02*
X102122D01*
X97137Y317000D02*
Y324478D01*
X93398D01*
X92152Y323232D01*
Y320739D01*
X93398Y319493D01*
X97137D01*
X94644D02*
X92152Y317000D01*
M02*
