G04 Layer_Color=8388736*
%FSLAX25Y25*%
%MOIN*%
G70*
G01*
G75*
%ADD33R,3.94501X0.03950*%
%ADD34C,0.06706*%
%ADD35R,0.06737X0.06737*%
%ADD36C,0.06737*%
%ADD37R,0.06115X0.06115*%
%ADD38R,0.06706X0.06706*%
%ADD39R,0.08674X0.08674*%
%ADD40C,0.08674*%
%ADD41R,0.07887X0.07887*%
%ADD42C,0.08280*%
%ADD43R,0.07400X0.07400*%
%ADD44C,0.07400*%
D33*
X200500Y312000D02*
D03*
Y233500D02*
D03*
Y156000D02*
D03*
Y78000D02*
D03*
D34*
X209000Y32500D02*
D03*
X201500Y27500D02*
D03*
X209000Y22500D02*
D03*
X148000Y32500D02*
D03*
X140500Y27500D02*
D03*
X148000Y22500D02*
D03*
X115000Y37343D02*
D03*
X177000Y39343D02*
D03*
X256000Y42000D02*
D03*
Y12000D02*
D03*
X239500Y11500D02*
D03*
Y41500D02*
D03*
X276000Y26000D02*
D03*
X306000D02*
D03*
Y13000D02*
D03*
X276000D02*
D03*
X365000Y45843D02*
D03*
X305500Y40000D02*
D03*
X275500D02*
D03*
X382000Y68500D02*
D03*
X359000D02*
D03*
X336000D02*
D03*
X313000D02*
D03*
X290000D02*
D03*
X267000D02*
D03*
X244000D02*
D03*
X221000D02*
D03*
X198000D02*
D03*
X175000D02*
D03*
X152000D02*
D03*
X129000D02*
D03*
X106000D02*
D03*
X83000D02*
D03*
X60000D02*
D03*
X37000D02*
D03*
X14000D02*
D03*
X306000Y168000D02*
D03*
X276000D02*
D03*
X14000Y223500D02*
D03*
X177000Y194343D02*
D03*
X115000Y192343D02*
D03*
X37000Y223500D02*
D03*
X60000D02*
D03*
X83000D02*
D03*
X106000D02*
D03*
X129000D02*
D03*
X152000D02*
D03*
X175000D02*
D03*
X198000D02*
D03*
X221000D02*
D03*
X244000D02*
D03*
X267000D02*
D03*
X290000D02*
D03*
X313000D02*
D03*
X336000D02*
D03*
X359000D02*
D03*
X276000Y181000D02*
D03*
X306000D02*
D03*
X382000Y223500D02*
D03*
X305500Y195000D02*
D03*
X275500D02*
D03*
X256000Y197000D02*
D03*
Y167000D02*
D03*
X239500Y166500D02*
D03*
Y196500D02*
D03*
X365000Y200843D02*
D03*
X148000Y187500D02*
D03*
X140500Y182500D02*
D03*
X148000Y177500D02*
D03*
X209000Y187500D02*
D03*
X201500Y182500D02*
D03*
X209000Y177500D02*
D03*
X306000Y90500D02*
D03*
X276000D02*
D03*
X14000Y146000D02*
D03*
X177000Y116843D02*
D03*
X115000Y114843D02*
D03*
X37000Y146000D02*
D03*
X60000D02*
D03*
X83000D02*
D03*
X106000D02*
D03*
X129000D02*
D03*
X152000D02*
D03*
X175000D02*
D03*
X198000D02*
D03*
X221000D02*
D03*
X244000D02*
D03*
X267000D02*
D03*
X290000D02*
D03*
X313000D02*
D03*
X336000D02*
D03*
X359000D02*
D03*
X276000Y103500D02*
D03*
X306000D02*
D03*
X382000Y146000D02*
D03*
X305500Y117500D02*
D03*
X275500D02*
D03*
X256000Y119500D02*
D03*
Y89500D02*
D03*
X239500Y89000D02*
D03*
Y119000D02*
D03*
X365000Y123343D02*
D03*
X148000Y110000D02*
D03*
X140500Y105000D02*
D03*
X148000Y100000D02*
D03*
X209000Y110000D02*
D03*
X201500Y105000D02*
D03*
X209000Y100000D02*
D03*
X306000Y246000D02*
D03*
X276000D02*
D03*
X14000Y301500D02*
D03*
X177000Y272343D02*
D03*
X115000Y270343D02*
D03*
X37000Y301500D02*
D03*
X60000D02*
D03*
X83000D02*
D03*
X106000D02*
D03*
X129000D02*
D03*
X152000D02*
D03*
X175000D02*
D03*
X198000D02*
D03*
X221000D02*
D03*
X244000D02*
D03*
X267000D02*
D03*
X290000D02*
D03*
X313000D02*
D03*
X336000D02*
D03*
X359000D02*
D03*
X276000Y259000D02*
D03*
X306000D02*
D03*
X382000Y301500D02*
D03*
X305500Y273000D02*
D03*
X275500D02*
D03*
X256000Y275000D02*
D03*
Y245000D02*
D03*
X239500Y244500D02*
D03*
Y274500D02*
D03*
X365000Y278843D02*
D03*
X148000Y265500D02*
D03*
X140500Y260500D02*
D03*
X148000Y255500D02*
D03*
X209000Y265500D02*
D03*
X201500Y260500D02*
D03*
X209000Y255500D02*
D03*
X306000Y324500D02*
D03*
X276000D02*
D03*
X14000Y380000D02*
D03*
X177000Y350843D02*
D03*
X115000Y348843D02*
D03*
X37000Y380000D02*
D03*
X60000D02*
D03*
X83000D02*
D03*
X106000D02*
D03*
X129000D02*
D03*
X152000D02*
D03*
X175000D02*
D03*
X198000D02*
D03*
X221000D02*
D03*
X244000D02*
D03*
X267000D02*
D03*
X290000D02*
D03*
X313000D02*
D03*
X336000D02*
D03*
X359000D02*
D03*
X276000Y337500D02*
D03*
X306000D02*
D03*
X382000Y380000D02*
D03*
X305500Y351500D02*
D03*
X275500D02*
D03*
X256000Y353500D02*
D03*
Y323500D02*
D03*
X239500Y323000D02*
D03*
Y353000D02*
D03*
X365000Y357343D02*
D03*
X148000Y344000D02*
D03*
X140500Y339000D02*
D03*
X148000Y334000D02*
D03*
X209000Y344000D02*
D03*
X201500Y339000D02*
D03*
X209000Y334000D02*
D03*
D35*
X340343Y18157D02*
D03*
Y173157D02*
D03*
Y95657D02*
D03*
Y251157D02*
D03*
Y329657D02*
D03*
D36*
X320657Y28000D02*
D03*
X340343Y37843D02*
D03*
X320657Y183000D02*
D03*
X340343Y192843D02*
D03*
X320657Y105500D02*
D03*
X340343Y115343D02*
D03*
X320657Y261000D02*
D03*
X340343Y270843D02*
D03*
X320657Y339500D02*
D03*
X340343Y349343D02*
D03*
D37*
X115000Y17657D02*
D03*
Y172657D02*
D03*
Y95157D02*
D03*
Y250657D02*
D03*
Y329157D02*
D03*
D38*
X177000Y19657D02*
D03*
X365000Y26157D02*
D03*
X382000Y58500D02*
D03*
X359000D02*
D03*
X336000D02*
D03*
X313000D02*
D03*
X290000D02*
D03*
X267000D02*
D03*
X244000D02*
D03*
X221000D02*
D03*
X198000D02*
D03*
X175000D02*
D03*
X152000D02*
D03*
X129000D02*
D03*
X106000D02*
D03*
X83000D02*
D03*
X60000D02*
D03*
X37000D02*
D03*
X14000D02*
D03*
Y213500D02*
D03*
X177000Y174657D02*
D03*
X37000Y213500D02*
D03*
X60000D02*
D03*
X83000D02*
D03*
X106000D02*
D03*
X129000D02*
D03*
X152000D02*
D03*
X175000D02*
D03*
X198000D02*
D03*
X221000D02*
D03*
X244000D02*
D03*
X267000D02*
D03*
X290000D02*
D03*
X313000D02*
D03*
X336000D02*
D03*
X359000D02*
D03*
X382000D02*
D03*
X365000Y181157D02*
D03*
X14000Y136000D02*
D03*
X177000Y97157D02*
D03*
X37000Y136000D02*
D03*
X60000D02*
D03*
X83000D02*
D03*
X106000D02*
D03*
X129000D02*
D03*
X152000D02*
D03*
X175000D02*
D03*
X198000D02*
D03*
X221000D02*
D03*
X244000D02*
D03*
X267000D02*
D03*
X290000D02*
D03*
X313000D02*
D03*
X336000D02*
D03*
X359000D02*
D03*
X382000D02*
D03*
X365000Y103657D02*
D03*
X14000Y291500D02*
D03*
X177000Y252657D02*
D03*
X37000Y291500D02*
D03*
X60000D02*
D03*
X83000D02*
D03*
X106000D02*
D03*
X129000D02*
D03*
X152000D02*
D03*
X175000D02*
D03*
X198000D02*
D03*
X221000D02*
D03*
X244000D02*
D03*
X267000D02*
D03*
X290000D02*
D03*
X313000D02*
D03*
X336000D02*
D03*
X359000D02*
D03*
X382000D02*
D03*
X365000Y259157D02*
D03*
X14000Y370000D02*
D03*
X177000Y331157D02*
D03*
X37000Y370000D02*
D03*
X60000D02*
D03*
X83000D02*
D03*
X106000D02*
D03*
X129000D02*
D03*
X152000D02*
D03*
X175000D02*
D03*
X198000D02*
D03*
X221000D02*
D03*
X244000D02*
D03*
X267000D02*
D03*
X290000D02*
D03*
X313000D02*
D03*
X336000D02*
D03*
X359000D02*
D03*
X382000D02*
D03*
X365000Y337657D02*
D03*
D39*
X392591Y13000D02*
D03*
Y168000D02*
D03*
Y90500D02*
D03*
Y246000D02*
D03*
Y324500D02*
D03*
D40*
X351409Y13000D02*
D03*
Y168000D02*
D03*
Y90500D02*
D03*
Y246000D02*
D03*
Y324500D02*
D03*
D41*
X389000Y29500D02*
D03*
Y184500D02*
D03*
Y107000D02*
D03*
Y262500D02*
D03*
Y341000D02*
D03*
D42*
Y39500D02*
D03*
Y194500D02*
D03*
Y117000D02*
D03*
Y272500D02*
D03*
Y351000D02*
D03*
D43*
X82500Y43000D02*
D03*
Y198000D02*
D03*
Y120500D02*
D03*
Y276000D02*
D03*
Y354500D02*
D03*
D44*
X72500Y43000D02*
D03*
X62500D02*
D03*
X52500D02*
D03*
X42500D02*
D03*
X32500D02*
D03*
X22500D02*
D03*
X12500D02*
D03*
Y13000D02*
D03*
X22500D02*
D03*
X32500D02*
D03*
X42500D02*
D03*
X52500D02*
D03*
X62500D02*
D03*
X72500D02*
D03*
X82500D02*
D03*
X72500Y198000D02*
D03*
X62500D02*
D03*
X52500D02*
D03*
X42500D02*
D03*
X32500D02*
D03*
X22500D02*
D03*
X12500D02*
D03*
Y168000D02*
D03*
X22500D02*
D03*
X32500D02*
D03*
X42500D02*
D03*
X52500D02*
D03*
X62500D02*
D03*
X72500D02*
D03*
X82500D02*
D03*
X72500Y120500D02*
D03*
X62500D02*
D03*
X52500D02*
D03*
X42500D02*
D03*
X32500D02*
D03*
X22500D02*
D03*
X12500D02*
D03*
Y90500D02*
D03*
X22500D02*
D03*
X32500D02*
D03*
X42500D02*
D03*
X52500D02*
D03*
X62500D02*
D03*
X72500D02*
D03*
X82500D02*
D03*
X72500Y276000D02*
D03*
X62500D02*
D03*
X52500D02*
D03*
X42500D02*
D03*
X32500D02*
D03*
X22500D02*
D03*
X12500D02*
D03*
Y246000D02*
D03*
X22500D02*
D03*
X32500D02*
D03*
X42500D02*
D03*
X52500D02*
D03*
X62500D02*
D03*
X72500D02*
D03*
X82500D02*
D03*
X72500Y354500D02*
D03*
X62500D02*
D03*
X52500D02*
D03*
X42500D02*
D03*
X32500D02*
D03*
X22500D02*
D03*
X12500D02*
D03*
Y324500D02*
D03*
X22500D02*
D03*
X32500D02*
D03*
X42500D02*
D03*
X52500D02*
D03*
X62500D02*
D03*
X72500D02*
D03*
X82500D02*
D03*
M02*
