M48
;Layer_Color=9474304
;FILE_FORMAT=2:5
INCH,LZ
;TYPE=PLATED
T1F00S00C0.02756
T3F00S00C0.03543
T4F00S00C0.03937
;TYPE=NON_PLATED
%
T01
X00125Y0013
X00225
X00325
X00425
Y0043
X00325
X00225
X00125
X00525
X00625
X00725
X00825
Y0013
X00725
X00625
X00525
X0115Y0017657
Y0037343
X01405Y00275
X0148Y00325
Y00225
X0177Y0019657
Y0039343
X02015Y00275
X0209Y00325
Y00225
X02395Y00115
X0256Y0012
X0276Y0013
Y0026
X02755Y004
X0256Y0042
X02395Y00415
X03055Y004
X0306Y0026
Y0013
X0320657Y0028
X0340343Y0018157
Y0037843
X0365Y0045843
Y0026157
X0382Y00585
Y00685
X0365Y0103657
Y0123343
X0382Y0136
Y0146
X0365Y0181157
Y0200843
X0382Y02135
X0359
X0336
X0313
X029
X0267
X0244
X02395Y01965
X0256Y0197
X02755Y0195
X0276Y0181
Y0168
X0256Y0167
X02395Y01665
X0244Y0146
Y0136
X02395Y0119
X0256Y01195
X02755Y01175
X0276Y01035
Y00905
X0256Y00895
X02395Y0089
X0244Y00685
Y00585
X0267
Y00685
X029
Y00585
X0313
Y00685
X0336
Y00585
X0359
Y00685
X0340343Y0095657
Y0115343
X0336Y0136
Y0146
X0313
Y0136
X029
Y0146
X0267
Y0136
X0221
Y0146
X0209Y01775
Y01875
X0221Y02135
X03055Y0195
X0306Y0181
Y0168
X0320657Y0183
X0340343Y0173157
Y0192843
X0359Y0146
Y0136
X0320657Y01055
X0306Y01035
Y00905
X03055Y01175
X0209Y011
Y01
X0221Y00685
Y00585
X0198
Y00685
X0175
Y00585
X0152
Y00685
X0129
Y00585
X0106
Y00685
X0083
Y00585
X006
Y00685
X00625Y00905
X00525
X00725
X00825
Y01205
X00725
X00625
X00525
X006Y0136
Y0146
X0083
Y0136
X0106
Y0146
X0129
Y0136
X0152
Y0146
X0175
Y0136
X0177Y0116843
Y0097157
X0148Y01
Y011
X01405Y0105
X0115Y0114843
Y0095157
Y0172657
Y0192343
X0106Y02135
X0083
X00825Y0198
X00725
X00625
X00525
X006Y02135
X00625Y0168
X00525
X00725
X00825
X01405Y01825
X0148Y01875
Y01775
X0177Y0174657
Y0194343
X0175Y02135
X0152
X0129
X0198
X02015Y01825
X0198Y0146
Y0136
X02015Y0105
X00425Y00905
X00325
X00225
X00125
X0014Y00685
Y00585
X0037
Y00685
X00325Y01205
X00425
X00225
X00125
X0014Y0136
Y0146
X0037
Y0136
X00325Y0168
X00225
X00125
Y0198
X00225
X00325
X00425
X0037Y02135
X0014
X00425Y0168
X0037Y02235
X0014
X00125Y0246
X00225
X00325
X00425
Y0276
X00325
X00225
X00125
X0014Y02915
Y03015
X0037
Y02915
X00325Y03245
X00225
X00125
Y03545
X00225
X00325
X00425
X0037Y037
X0014
X00425Y03245
X00525
X00625
X00725
X00825
X0083Y03015
Y02915
X00825Y0276
X00725
X00625
X00525
X006Y02915
Y03015
X0106
Y02915
X0129
Y03015
X0152
Y02915
X0175
Y03015
X0198
Y02915
X02015Y02605
X0177Y0252657
Y0272343
X0148Y02655
Y02555
X01405Y02605
X0115Y0270343
Y0250657
X0106Y02235
X0083
X006
X00625Y0246
X00525
X00725
X00825
X0129Y02235
X0152
X0175
X0198
X02015Y0339
X0177Y0331157
Y0350843
X0175Y037
X0152
X0129
X0106
X0083
X00825Y03545
X00725
X00625
X00525
X006Y037
X0115Y0348843
Y0329157
X01405Y0339
X0148Y0344
Y0334
X0198Y037
X0221
X0244
X02395Y0353
X0256Y03535
X02755Y03515
X0276Y03375
Y03245
X0256Y03235
X02395Y0323
X0244Y03015
Y02915
X02395Y02745
X0256Y0275
X02755Y0273
X0276Y0259
Y0246
X0256Y0245
X02395Y02445
X0244Y02235
X0221
X0209Y02555
Y02655
X0221Y02915
Y03015
X0209Y0334
Y0344
X0267Y037
X029
X0313
X0336
X0359
X0340343Y0349343
Y0329657
X0320657Y03395
X0306Y03375
Y03245
X03055Y03515
X0313Y03015
Y02915
X029
Y03015
X0267
Y02915
X03055Y0273
X0306Y0259
Y0246
X0313Y02235
X029
X0267
X0336
X0359
X0340343Y0251157
Y0270843
X0336Y02915
Y03015
X0359
Y02915
X0320657Y0261
X0365Y0259157
Y0278843
X0382Y02915
Y03015
X0365Y0337657
Y0357343
X0382Y037
Y02235
Y038
X0359
X0336
X0313
X029
X0267
X0244
X0221
X0198
X0175
X0152
X0129
X0106
X0083
X006
X0037
X0014
T03
X0389Y00295
Y00395
Y0107
Y0117
Y01845
Y01945
Y02625
Y02725
Y0341
Y0351
T04
X0351409Y0013
X0392591
Y00905
Y0168
X0351409
Y00905
Y0246
Y03245
X0392591
Y0246
M30
