G04 Layer_Physical_Order=1*
G04 Layer_Color=255*
%FSLAX25Y25*%
%MOIN*%
G70*
G01*
G75*
%ADD10C,0.02000*%
%ADD11R,3.93701X0.03150*%
%ADD12C,0.05905*%
%ADD13R,0.05937X0.05937*%
%ADD14C,0.05937*%
%ADD15R,0.05315X0.05315*%
%ADD16R,0.05905X0.05905*%
%ADD17R,0.07874X0.07874*%
%ADD18C,0.07874*%
%ADD19R,0.07087X0.07087*%
%ADD20C,0.07480*%
%ADD21R,0.06600X0.06600*%
%ADD22C,0.06600*%
G36*
X210395Y346991D02*
X212101Y345129D01*
X211991Y342605D01*
X210129Y340899D01*
X207605Y341009D01*
X205899Y342871D01*
X206009Y345395D01*
X207871Y347101D01*
X210395Y346991D01*
D02*
G37*
G36*
X149395D02*
X151101Y345129D01*
X150991Y342605D01*
X149129Y340899D01*
X146605Y341009D01*
X144899Y342871D01*
X145009Y345395D01*
X146871Y347101D01*
X149395Y346991D01*
D02*
G37*
G36*
X202895Y341991D02*
X204601Y340129D01*
X204491Y337605D01*
X202629Y335899D01*
X200105Y336009D01*
X198399Y337871D01*
X198509Y340395D01*
X200371Y342101D01*
X202895Y341991D01*
D02*
G37*
G36*
X141895D02*
X143601Y340129D01*
X143491Y337605D01*
X141629Y335899D01*
X139105Y336009D01*
X137399Y337871D01*
X137509Y340395D01*
X139371Y342101D01*
X141895Y341991D01*
D02*
G37*
G36*
X210395Y336991D02*
X212101Y335129D01*
X211991Y332605D01*
X210129Y330899D01*
X207605Y331009D01*
X205899Y332871D01*
X206009Y335395D01*
X207871Y337101D01*
X210395Y336991D01*
D02*
G37*
G36*
X149395D02*
X151101Y335129D01*
X150991Y332605D01*
X149129Y330899D01*
X146605Y331009D01*
X144899Y332871D01*
X145009Y335395D01*
X146871Y337101D01*
X149395Y336991D01*
D02*
G37*
G36*
X210395Y268491D02*
X212101Y266629D01*
X211991Y264105D01*
X210129Y262399D01*
X207605Y262509D01*
X205899Y264371D01*
X206009Y266895D01*
X207871Y268601D01*
X210395Y268491D01*
D02*
G37*
G36*
X149395D02*
X151101Y266629D01*
X150991Y264105D01*
X149129Y262399D01*
X146605Y262509D01*
X144899Y264371D01*
X145009Y266895D01*
X146871Y268601D01*
X149395Y268491D01*
D02*
G37*
G36*
X202895Y263491D02*
X204601Y261629D01*
X204491Y259105D01*
X202629Y257399D01*
X200105Y257509D01*
X198399Y259371D01*
X198509Y261895D01*
X200371Y263601D01*
X202895Y263491D01*
D02*
G37*
G36*
X141895D02*
X143601Y261629D01*
X143491Y259105D01*
X141629Y257399D01*
X139105Y257509D01*
X137399Y259371D01*
X137509Y261895D01*
X139371Y263601D01*
X141895Y263491D01*
D02*
G37*
G36*
X210395Y258491D02*
X212101Y256629D01*
X211991Y254105D01*
X210129Y252399D01*
X207605Y252509D01*
X205899Y254371D01*
X206009Y256895D01*
X207871Y258601D01*
X210395Y258491D01*
D02*
G37*
G36*
X149395D02*
X151101Y256629D01*
X150991Y254105D01*
X149129Y252399D01*
X146605Y252509D01*
X144899Y254371D01*
X145009Y256895D01*
X146871Y258601D01*
X149395Y258491D01*
D02*
G37*
G36*
X210395Y190491D02*
X212101Y188629D01*
X211991Y186105D01*
X210129Y184399D01*
X207605Y184509D01*
X205899Y186371D01*
X206009Y188895D01*
X207871Y190601D01*
X210395Y190491D01*
D02*
G37*
G36*
X149395D02*
X151101Y188629D01*
X150991Y186105D01*
X149129Y184399D01*
X146605Y184509D01*
X144899Y186371D01*
X145009Y188895D01*
X146871Y190601D01*
X149395Y190491D01*
D02*
G37*
G36*
X202895Y185491D02*
X204601Y183629D01*
X204491Y181105D01*
X202629Y179399D01*
X200105Y179509D01*
X198399Y181371D01*
X198509Y183895D01*
X200371Y185601D01*
X202895Y185491D01*
D02*
G37*
G36*
X141895D02*
X143601Y183629D01*
X143491Y181105D01*
X141629Y179399D01*
X139105Y179509D01*
X137399Y181371D01*
X137509Y183895D01*
X139371Y185601D01*
X141895Y185491D01*
D02*
G37*
G36*
X210395Y180491D02*
X212101Y178629D01*
X211991Y176105D01*
X210129Y174399D01*
X207605Y174509D01*
X205899Y176371D01*
X206009Y178895D01*
X207871Y180601D01*
X210395Y180491D01*
D02*
G37*
G36*
X149395D02*
X151101Y178629D01*
X150991Y176105D01*
X149129Y174399D01*
X146605Y174509D01*
X144899Y176371D01*
X145009Y178895D01*
X146871Y180601D01*
X149395Y180491D01*
D02*
G37*
G36*
X210395Y112991D02*
X212101Y111129D01*
X211991Y108605D01*
X210129Y106899D01*
X207605Y107009D01*
X205899Y108871D01*
X206009Y111395D01*
X207871Y113101D01*
X210395Y112991D01*
D02*
G37*
G36*
X149395D02*
X151101Y111129D01*
X150991Y108605D01*
X149129Y106899D01*
X146605Y107009D01*
X144899Y108871D01*
X145009Y111395D01*
X146871Y113101D01*
X149395Y112991D01*
D02*
G37*
G36*
X202895Y107991D02*
X204601Y106129D01*
X204491Y103605D01*
X202629Y101899D01*
X200105Y102009D01*
X198399Y103871D01*
X198509Y106395D01*
X200371Y108101D01*
X202895Y107991D01*
D02*
G37*
G36*
X141895D02*
X143601Y106129D01*
X143491Y103605D01*
X141629Y101899D01*
X139105Y102009D01*
X137399Y103871D01*
X137509Y106395D01*
X139371Y108101D01*
X141895Y107991D01*
D02*
G37*
G36*
X210395Y102991D02*
X212101Y101129D01*
X211991Y98605D01*
X210129Y96899D01*
X207605Y97009D01*
X205899Y98871D01*
X206009Y101395D01*
X207871Y103101D01*
X210395Y102991D01*
D02*
G37*
G36*
X149395D02*
X151101Y101129D01*
X150991Y98605D01*
X149129Y96899D01*
X146605Y97009D01*
X144899Y98871D01*
X145009Y101395D01*
X146871Y103101D01*
X149395Y102991D01*
D02*
G37*
G36*
X210395Y35491D02*
X212101Y33629D01*
X211991Y31105D01*
X210129Y29399D01*
X207605Y29509D01*
X205899Y31371D01*
X206009Y33895D01*
X207871Y35601D01*
X210395Y35491D01*
D02*
G37*
G36*
X149395D02*
X151101Y33629D01*
X150991Y31105D01*
X149129Y29399D01*
X146605Y29509D01*
X144899Y31371D01*
X145009Y33895D01*
X146871Y35601D01*
X149395Y35491D01*
D02*
G37*
G36*
X202895Y30491D02*
X204601Y28629D01*
X204491Y26105D01*
X202629Y24399D01*
X200105Y24509D01*
X198399Y26371D01*
X198509Y28895D01*
X200371Y30601D01*
X202895Y30491D01*
D02*
G37*
G36*
X141895D02*
X143601Y28629D01*
X143491Y26105D01*
X141629Y24399D01*
X139105Y24509D01*
X137399Y26371D01*
X137509Y28895D01*
X139371Y30601D01*
X141895Y30491D01*
D02*
G37*
G36*
X210395Y25491D02*
X212101Y23629D01*
X211991Y21105D01*
X210129Y19399D01*
X207605Y19509D01*
X205899Y21371D01*
X206009Y23895D01*
X207871Y25601D01*
X210395Y25491D01*
D02*
G37*
G36*
X149395D02*
X151101Y23629D01*
X150991Y21105D01*
X149129Y19399D01*
X146605Y19509D01*
X144899Y21371D01*
X145009Y23895D01*
X146871Y25601D01*
X149395Y25491D01*
D02*
G37*
D10*
X237000Y27500D02*
X255500D01*
X225500Y16000D02*
X237000Y27500D01*
X255500D02*
X261000Y33000D01*
X206000Y16000D02*
X225500D01*
X201500Y20500D02*
X206000Y16000D01*
X201500Y20500D02*
Y27500D01*
X186300Y18300D02*
Y27500D01*
X181500Y13500D02*
X186300Y18300D01*
X147000Y13500D02*
X181500D01*
X140500Y20000D02*
X147000Y13500D01*
X140500Y20000D02*
Y27500D01*
X6000Y26200D02*
X11900Y32100D01*
X6000Y10200D02*
Y26200D01*
Y10200D02*
X8700Y7500D01*
X17000D02*
X22500Y13000D01*
X8700Y7500D02*
X17000D01*
X32000Y43000D02*
Y71500D01*
X114000Y73500D02*
X129000Y58500D01*
X34000Y73500D02*
X114000D01*
X32000Y71500D02*
X34000Y73500D01*
X37000Y48500D02*
Y58500D01*
Y48500D02*
X42500Y43000D01*
X32000D02*
X32500D01*
X12500Y13000D02*
X27500Y28000D01*
X92000D01*
X114547Y50547D01*
X213047D01*
X221000Y58500D01*
X392591Y13000D02*
Y25909D01*
X389000Y29500D02*
X392591Y25909D01*
X52500Y43000D02*
Y48000D01*
X58000Y53500D01*
X64100D01*
X74100Y63500D01*
X88200D01*
X98153Y53547D01*
X134000D01*
Y69500D01*
X138000Y73500D01*
X252000D01*
X267000Y58500D01*
X297000Y35000D02*
X306000Y26000D01*
X273000Y35000D02*
X297000D01*
X270500Y37500D02*
X273000Y35000D01*
X270500Y37500D02*
Y46100D01*
X253100Y63500D02*
X270500Y46100D01*
X240000Y63500D02*
X253100D01*
X222000Y45500D02*
X240000Y63500D01*
X183157Y45500D02*
X222000D01*
X177000Y39343D02*
X183157Y45500D01*
X320657Y28000D02*
X330500Y37843D01*
X340343D01*
X186300Y27500D02*
X196500Y37700D01*
X214400D01*
X218500Y33600D01*
X247600D01*
X256000Y42000D01*
X261000Y33000D02*
Y45500D01*
X258300Y48200D02*
X261000Y45500D01*
X246200Y48200D02*
X258300D01*
X239500Y41500D02*
X246200Y48200D01*
X83000Y58500D02*
X92500Y49000D01*
Y34700D02*
Y49000D01*
X89900Y32100D02*
X92500Y34700D01*
X11900Y32100D02*
X89900D01*
X75000Y35500D02*
X82500Y43000D01*
X11500Y35500D02*
X75000D01*
X7200Y39800D02*
X11500Y35500D01*
X7200Y39800D02*
Y51700D01*
X14000Y58500D01*
X276000Y13000D02*
X281157Y18157D01*
X340343D01*
X275500Y40000D02*
Y60000D01*
X267000Y68500D02*
X275500Y60000D01*
X267000Y223500D02*
X275500Y215000D01*
Y195000D02*
Y215000D01*
X281157Y173157D02*
X340343D01*
X276000Y168000D02*
X281157Y173157D01*
X7200Y206700D02*
X14000Y213500D01*
X7200Y194800D02*
Y206700D01*
Y194800D02*
X11500Y190500D01*
X75000D01*
X82500Y198000D01*
X11900Y187100D02*
X89900D01*
X92500Y189700D01*
Y204000D01*
X83000Y213500D02*
X92500Y204000D01*
X239500Y196500D02*
X246200Y203200D01*
X258300D01*
X261000Y200500D01*
Y188000D02*
Y200500D01*
X247600Y188600D02*
X256000Y197000D01*
X218500Y188600D02*
X247600D01*
X214400Y192700D02*
X218500Y188600D01*
X196500Y192700D02*
X214400D01*
X186300Y182500D02*
X196500Y192700D01*
X330500Y192843D02*
X340343D01*
X320657Y183000D02*
X330500Y192843D01*
X177000Y194343D02*
X183157Y200500D01*
X222000D01*
X240000Y218500D01*
X253100D01*
X270500Y201100D01*
Y192500D02*
Y201100D01*
Y192500D02*
X273000Y190000D01*
X297000D01*
X306000Y181000D01*
X252000Y228500D02*
X267000Y213500D01*
X138000Y228500D02*
X252000D01*
X134000Y224500D02*
X138000Y228500D01*
X134000Y208547D02*
Y224500D01*
X98153Y208547D02*
X134000D01*
X88200Y218500D02*
X98153Y208547D01*
X74100Y218500D02*
X88200D01*
X64100Y208500D02*
X74100Y218500D01*
X58000Y208500D02*
X64100D01*
X52500Y203000D02*
X58000Y208500D01*
X52500Y198000D02*
Y203000D01*
X389000Y184500D02*
X392591Y180909D01*
Y168000D02*
Y180909D01*
X213047Y205547D02*
X221000Y213500D01*
X114547Y205547D02*
X213047D01*
X92000Y183000D02*
X114547Y205547D01*
X27500Y183000D02*
X92000D01*
X12500Y168000D02*
X27500Y183000D01*
X32000Y198000D02*
X32500D01*
X37000Y203500D02*
X42500Y198000D01*
X37000Y203500D02*
Y213500D01*
X32000Y226500D02*
X34000Y228500D01*
X114000D01*
X129000Y213500D01*
X32000Y198000D02*
Y226500D01*
X8700Y162500D02*
X17000D01*
X22500Y168000D01*
X6000Y165200D02*
X8700Y162500D01*
X6000Y165200D02*
Y181200D01*
X11900Y187100D01*
X140500Y175000D02*
Y182500D01*
Y175000D02*
X147000Y168500D01*
X181500D01*
X186300Y173300D01*
Y182500D01*
X201500Y175500D02*
Y182500D01*
Y175500D02*
X206000Y171000D01*
X225500D01*
X255500Y182500D02*
X261000Y188000D01*
X225500Y171000D02*
X237000Y182500D01*
X255500D01*
X267000Y146000D02*
X275500Y137500D01*
Y117500D02*
Y137500D01*
X281157Y95657D02*
X340343D01*
X276000Y90500D02*
X281157Y95657D01*
X7200Y129200D02*
X14000Y136000D01*
X7200Y117300D02*
Y129200D01*
Y117300D02*
X11500Y113000D01*
X75000D01*
X82500Y120500D01*
X11900Y109600D02*
X89900D01*
X92500Y112200D01*
Y126500D01*
X83000Y136000D02*
X92500Y126500D01*
X239500Y119000D02*
X246200Y125700D01*
X258300D01*
X261000Y123000D01*
Y110500D02*
Y123000D01*
X247600Y111100D02*
X256000Y119500D01*
X218500Y111100D02*
X247600D01*
X214400Y115200D02*
X218500Y111100D01*
X196500Y115200D02*
X214400D01*
X186300Y105000D02*
X196500Y115200D01*
X330500Y115343D02*
X340343D01*
X320657Y105500D02*
X330500Y115343D01*
X177000Y116843D02*
X183157Y123000D01*
X222000D01*
X240000Y141000D01*
X253100D01*
X270500Y123600D01*
Y115000D02*
Y123600D01*
Y115000D02*
X273000Y112500D01*
X297000D01*
X306000Y103500D01*
X252000Y151000D02*
X267000Y136000D01*
X138000Y151000D02*
X252000D01*
X134000Y147000D02*
X138000Y151000D01*
X134000Y131047D02*
Y147000D01*
X98153Y131047D02*
X134000D01*
X88200Y141000D02*
X98153Y131047D01*
X74100Y141000D02*
X88200D01*
X64100Y131000D02*
X74100Y141000D01*
X58000Y131000D02*
X64100D01*
X52500Y125500D02*
X58000Y131000D01*
X52500Y120500D02*
Y125500D01*
X389000Y107000D02*
X392591Y103409D01*
Y90500D02*
Y103409D01*
X213047Y128047D02*
X221000Y136000D01*
X114547Y128047D02*
X213047D01*
X92000Y105500D02*
X114547Y128047D01*
X27500Y105500D02*
X92000D01*
X12500Y90500D02*
X27500Y105500D01*
X32000Y120500D02*
X32500D01*
X37000Y126000D02*
X42500Y120500D01*
X37000Y126000D02*
Y136000D01*
X32000Y149000D02*
X34000Y151000D01*
X114000D01*
X129000Y136000D01*
X32000Y120500D02*
Y149000D01*
X8700Y85000D02*
X17000D01*
X22500Y90500D01*
X6000Y87700D02*
X8700Y85000D01*
X6000Y87700D02*
Y103700D01*
X11900Y109600D01*
X140500Y97500D02*
Y105000D01*
Y97500D02*
X147000Y91000D01*
X181500D01*
X186300Y95800D01*
Y105000D01*
X201500Y98000D02*
Y105000D01*
Y98000D02*
X206000Y93500D01*
X225500D01*
X255500Y105000D02*
X261000Y110500D01*
X225500Y93500D02*
X237000Y105000D01*
X255500D01*
X267000Y301500D02*
X275500Y293000D01*
Y273000D02*
Y293000D01*
X281157Y251157D02*
X340343D01*
X276000Y246000D02*
X281157Y251157D01*
X7200Y284700D02*
X14000Y291500D01*
X7200Y272800D02*
Y284700D01*
Y272800D02*
X11500Y268500D01*
X75000D01*
X82500Y276000D01*
X11900Y265100D02*
X89900D01*
X92500Y267700D01*
Y282000D01*
X83000Y291500D02*
X92500Y282000D01*
X239500Y274500D02*
X246200Y281200D01*
X258300D01*
X261000Y278500D01*
Y266000D02*
Y278500D01*
X247600Y266600D02*
X256000Y275000D01*
X218500Y266600D02*
X247600D01*
X214400Y270700D02*
X218500Y266600D01*
X196500Y270700D02*
X214400D01*
X186300Y260500D02*
X196500Y270700D01*
X330500Y270843D02*
X340343D01*
X320657Y261000D02*
X330500Y270843D01*
X177000Y272343D02*
X183157Y278500D01*
X222000D01*
X240000Y296500D01*
X253100D01*
X270500Y279100D01*
Y270500D02*
Y279100D01*
Y270500D02*
X273000Y268000D01*
X297000D01*
X306000Y259000D01*
X252000Y306500D02*
X267000Y291500D01*
X138000Y306500D02*
X252000D01*
X134000Y302500D02*
X138000Y306500D01*
X134000Y286547D02*
Y302500D01*
X98153Y286547D02*
X134000D01*
X88200Y296500D02*
X98153Y286547D01*
X74100Y296500D02*
X88200D01*
X64100Y286500D02*
X74100Y296500D01*
X58000Y286500D02*
X64100D01*
X52500Y281000D02*
X58000Y286500D01*
X52500Y276000D02*
Y281000D01*
X389000Y262500D02*
X392591Y258909D01*
Y246000D02*
Y258909D01*
X213047Y283547D02*
X221000Y291500D01*
X114547Y283547D02*
X213047D01*
X92000Y261000D02*
X114547Y283547D01*
X27500Y261000D02*
X92000D01*
X12500Y246000D02*
X27500Y261000D01*
X32000Y276000D02*
X32500D01*
X37000Y281500D02*
X42500Y276000D01*
X37000Y281500D02*
Y291500D01*
X32000Y304500D02*
X34000Y306500D01*
X114000D01*
X129000Y291500D01*
X32000Y276000D02*
Y304500D01*
X8700Y240500D02*
X17000D01*
X22500Y246000D01*
X6000Y243200D02*
X8700Y240500D01*
X6000Y243200D02*
Y259200D01*
X11900Y265100D01*
X140500Y253000D02*
Y260500D01*
Y253000D02*
X147000Y246500D01*
X181500D01*
X186300Y251300D01*
Y260500D01*
X201500Y253500D02*
Y260500D01*
Y253500D02*
X206000Y249000D01*
X225500D01*
X255500Y260500D02*
X261000Y266000D01*
X225500Y249000D02*
X237000Y260500D01*
X255500D01*
X267000Y380000D02*
X275500Y371500D01*
Y351500D02*
Y371500D01*
X281157Y329657D02*
X340343D01*
X276000Y324500D02*
X281157Y329657D01*
X7200Y363200D02*
X14000Y370000D01*
X7200Y351300D02*
Y363200D01*
Y351300D02*
X11500Y347000D01*
X75000D01*
X82500Y354500D01*
X11900Y343600D02*
X89900D01*
X92500Y346200D01*
Y360500D01*
X83000Y370000D02*
X92500Y360500D01*
X239500Y353000D02*
X246200Y359700D01*
X258300D01*
X261000Y357000D01*
Y344500D02*
Y357000D01*
X247600Y345100D02*
X256000Y353500D01*
X218500Y345100D02*
X247600D01*
X214400Y349200D02*
X218500Y345100D01*
X196500Y349200D02*
X214400D01*
X186300Y339000D02*
X196500Y349200D01*
X330500Y349343D02*
X340343D01*
X320657Y339500D02*
X330500Y349343D01*
X177000Y350843D02*
X183157Y357000D01*
X222000D01*
X240000Y375000D01*
X253100D01*
X270500Y357600D01*
Y349000D02*
Y357600D01*
Y349000D02*
X273000Y346500D01*
X297000D01*
X306000Y337500D01*
X252000Y385000D02*
X267000Y370000D01*
X138000Y385000D02*
X252000D01*
X134000Y381000D02*
X138000Y385000D01*
X134000Y365047D02*
Y381000D01*
X98153Y365047D02*
X134000D01*
X88200Y375000D02*
X98153Y365047D01*
X74100Y375000D02*
X88200D01*
X64100Y365000D02*
X74100Y375000D01*
X58000Y365000D02*
X64100D01*
X52500Y359500D02*
X58000Y365000D01*
X52500Y354500D02*
Y359500D01*
X389000Y341000D02*
X392591Y337409D01*
Y324500D02*
Y337409D01*
X213047Y362047D02*
X221000Y370000D01*
X114547Y362047D02*
X213047D01*
X92000Y339500D02*
X114547Y362047D01*
X27500Y339500D02*
X92000D01*
X12500Y324500D02*
X27500Y339500D01*
X32000Y354500D02*
X32500D01*
X37000Y360000D02*
X42500Y354500D01*
X37000Y360000D02*
Y370000D01*
X32000Y383000D02*
X34000Y385000D01*
X114000D01*
X129000Y370000D01*
X32000Y354500D02*
Y383000D01*
X8700Y319000D02*
X17000D01*
X22500Y324500D01*
X6000Y321700D02*
X8700Y319000D01*
X6000Y321700D02*
Y337700D01*
X11900Y343600D01*
X140500Y331500D02*
Y339000D01*
Y331500D02*
X147000Y325000D01*
X181500D01*
X186300Y329800D01*
Y339000D01*
X201500Y332000D02*
Y339000D01*
Y332000D02*
X206000Y327500D01*
X225500D01*
X255500Y339000D02*
X261000Y344500D01*
X225500Y327500D02*
X237000Y339000D01*
X255500D01*
D11*
X200500Y312000D02*
D03*
Y233500D02*
D03*
Y156000D02*
D03*
Y78000D02*
D03*
D12*
X209000Y32500D02*
D03*
X201500Y27500D02*
D03*
X209000Y22500D02*
D03*
X148000Y32500D02*
D03*
X140500Y27500D02*
D03*
X148000Y22500D02*
D03*
X115000Y37343D02*
D03*
X177000Y39343D02*
D03*
X256000Y42000D02*
D03*
Y12000D02*
D03*
X239500Y11500D02*
D03*
Y41500D02*
D03*
X276000Y26000D02*
D03*
X306000D02*
D03*
Y13000D02*
D03*
X276000D02*
D03*
X365000Y45843D02*
D03*
X305500Y40000D02*
D03*
X275500D02*
D03*
X382000Y68500D02*
D03*
X359000D02*
D03*
X336000D02*
D03*
X313000D02*
D03*
X290000D02*
D03*
X267000D02*
D03*
X244000D02*
D03*
X221000D02*
D03*
X198000D02*
D03*
X175000D02*
D03*
X152000D02*
D03*
X129000D02*
D03*
X106000D02*
D03*
X83000D02*
D03*
X60000D02*
D03*
X37000D02*
D03*
X14000D02*
D03*
X306000Y168000D02*
D03*
X276000D02*
D03*
X14000Y223500D02*
D03*
X177000Y194343D02*
D03*
X115000Y192343D02*
D03*
X37000Y223500D02*
D03*
X60000D02*
D03*
X83000D02*
D03*
X106000D02*
D03*
X129000D02*
D03*
X152000D02*
D03*
X175000D02*
D03*
X198000D02*
D03*
X221000D02*
D03*
X244000D02*
D03*
X267000D02*
D03*
X290000D02*
D03*
X313000D02*
D03*
X336000D02*
D03*
X359000D02*
D03*
X276000Y181000D02*
D03*
X306000D02*
D03*
X382000Y223500D02*
D03*
X305500Y195000D02*
D03*
X275500D02*
D03*
X256000Y197000D02*
D03*
Y167000D02*
D03*
X239500Y166500D02*
D03*
Y196500D02*
D03*
X365000Y200843D02*
D03*
X148000Y187500D02*
D03*
X140500Y182500D02*
D03*
X148000Y177500D02*
D03*
X209000Y187500D02*
D03*
X201500Y182500D02*
D03*
X209000Y177500D02*
D03*
X306000Y90500D02*
D03*
X276000D02*
D03*
X14000Y146000D02*
D03*
X177000Y116843D02*
D03*
X115000Y114843D02*
D03*
X37000Y146000D02*
D03*
X60000D02*
D03*
X83000D02*
D03*
X106000D02*
D03*
X129000D02*
D03*
X152000D02*
D03*
X175000D02*
D03*
X198000D02*
D03*
X221000D02*
D03*
X244000D02*
D03*
X267000D02*
D03*
X290000D02*
D03*
X313000D02*
D03*
X336000D02*
D03*
X359000D02*
D03*
X276000Y103500D02*
D03*
X306000D02*
D03*
X382000Y146000D02*
D03*
X305500Y117500D02*
D03*
X275500D02*
D03*
X256000Y119500D02*
D03*
Y89500D02*
D03*
X239500Y89000D02*
D03*
Y119000D02*
D03*
X365000Y123343D02*
D03*
X148000Y110000D02*
D03*
X140500Y105000D02*
D03*
X148000Y100000D02*
D03*
X209000Y110000D02*
D03*
X201500Y105000D02*
D03*
X209000Y100000D02*
D03*
X306000Y246000D02*
D03*
X276000D02*
D03*
X14000Y301500D02*
D03*
X177000Y272343D02*
D03*
X115000Y270343D02*
D03*
X37000Y301500D02*
D03*
X60000D02*
D03*
X83000D02*
D03*
X106000D02*
D03*
X129000D02*
D03*
X152000D02*
D03*
X175000D02*
D03*
X198000D02*
D03*
X221000D02*
D03*
X244000D02*
D03*
X267000D02*
D03*
X290000D02*
D03*
X313000D02*
D03*
X336000D02*
D03*
X359000D02*
D03*
X276000Y259000D02*
D03*
X306000D02*
D03*
X382000Y301500D02*
D03*
X305500Y273000D02*
D03*
X275500D02*
D03*
X256000Y275000D02*
D03*
Y245000D02*
D03*
X239500Y244500D02*
D03*
Y274500D02*
D03*
X365000Y278843D02*
D03*
X148000Y265500D02*
D03*
X140500Y260500D02*
D03*
X148000Y255500D02*
D03*
X209000Y265500D02*
D03*
X201500Y260500D02*
D03*
X209000Y255500D02*
D03*
X306000Y324500D02*
D03*
X276000D02*
D03*
X14000Y380000D02*
D03*
X177000Y350843D02*
D03*
X115000Y348843D02*
D03*
X37000Y380000D02*
D03*
X60000D02*
D03*
X83000D02*
D03*
X106000D02*
D03*
X129000D02*
D03*
X152000D02*
D03*
X175000D02*
D03*
X198000D02*
D03*
X221000D02*
D03*
X244000D02*
D03*
X267000D02*
D03*
X290000D02*
D03*
X313000D02*
D03*
X336000D02*
D03*
X359000D02*
D03*
X276000Y337500D02*
D03*
X306000D02*
D03*
X382000Y380000D02*
D03*
X305500Y351500D02*
D03*
X275500D02*
D03*
X256000Y353500D02*
D03*
Y323500D02*
D03*
X239500Y323000D02*
D03*
Y353000D02*
D03*
X365000Y357343D02*
D03*
X148000Y344000D02*
D03*
X140500Y339000D02*
D03*
X148000Y334000D02*
D03*
X209000Y344000D02*
D03*
X201500Y339000D02*
D03*
X209000Y334000D02*
D03*
D13*
X340343Y18157D02*
D03*
Y173157D02*
D03*
Y95657D02*
D03*
Y251157D02*
D03*
Y329657D02*
D03*
D14*
X320657Y28000D02*
D03*
X340343Y37843D02*
D03*
X320657Y183000D02*
D03*
X340343Y192843D02*
D03*
X320657Y105500D02*
D03*
X340343Y115343D02*
D03*
X320657Y261000D02*
D03*
X340343Y270843D02*
D03*
X320657Y339500D02*
D03*
X340343Y349343D02*
D03*
D15*
X115000Y17657D02*
D03*
Y172657D02*
D03*
Y95157D02*
D03*
Y250657D02*
D03*
Y329157D02*
D03*
D16*
X177000Y19657D02*
D03*
X365000Y26157D02*
D03*
X382000Y58500D02*
D03*
X359000D02*
D03*
X336000D02*
D03*
X313000D02*
D03*
X290000D02*
D03*
X267000D02*
D03*
X244000D02*
D03*
X221000D02*
D03*
X198000D02*
D03*
X175000D02*
D03*
X152000D02*
D03*
X129000D02*
D03*
X106000D02*
D03*
X83000D02*
D03*
X60000D02*
D03*
X37000D02*
D03*
X14000D02*
D03*
Y213500D02*
D03*
X177000Y174657D02*
D03*
X37000Y213500D02*
D03*
X60000D02*
D03*
X83000D02*
D03*
X106000D02*
D03*
X129000D02*
D03*
X152000D02*
D03*
X175000D02*
D03*
X198000D02*
D03*
X221000D02*
D03*
X244000D02*
D03*
X267000D02*
D03*
X290000D02*
D03*
X313000D02*
D03*
X336000D02*
D03*
X359000D02*
D03*
X382000D02*
D03*
X365000Y181157D02*
D03*
X14000Y136000D02*
D03*
X177000Y97157D02*
D03*
X37000Y136000D02*
D03*
X60000D02*
D03*
X83000D02*
D03*
X106000D02*
D03*
X129000D02*
D03*
X152000D02*
D03*
X175000D02*
D03*
X198000D02*
D03*
X221000D02*
D03*
X244000D02*
D03*
X267000D02*
D03*
X290000D02*
D03*
X313000D02*
D03*
X336000D02*
D03*
X359000D02*
D03*
X382000D02*
D03*
X365000Y103657D02*
D03*
X14000Y291500D02*
D03*
X177000Y252657D02*
D03*
X37000Y291500D02*
D03*
X60000D02*
D03*
X83000D02*
D03*
X106000D02*
D03*
X129000D02*
D03*
X152000D02*
D03*
X175000D02*
D03*
X198000D02*
D03*
X221000D02*
D03*
X244000D02*
D03*
X267000D02*
D03*
X290000D02*
D03*
X313000D02*
D03*
X336000D02*
D03*
X359000D02*
D03*
X382000D02*
D03*
X365000Y259157D02*
D03*
X14000Y370000D02*
D03*
X177000Y331157D02*
D03*
X37000Y370000D02*
D03*
X60000D02*
D03*
X83000D02*
D03*
X106000D02*
D03*
X129000D02*
D03*
X152000D02*
D03*
X175000D02*
D03*
X198000D02*
D03*
X221000D02*
D03*
X244000D02*
D03*
X267000D02*
D03*
X290000D02*
D03*
X313000D02*
D03*
X336000D02*
D03*
X359000D02*
D03*
X382000D02*
D03*
X365000Y337657D02*
D03*
D17*
X392591Y13000D02*
D03*
Y168000D02*
D03*
Y90500D02*
D03*
Y246000D02*
D03*
Y324500D02*
D03*
D18*
X351409Y13000D02*
D03*
Y168000D02*
D03*
Y90500D02*
D03*
Y246000D02*
D03*
Y324500D02*
D03*
D19*
X389000Y29500D02*
D03*
Y184500D02*
D03*
Y107000D02*
D03*
Y262500D02*
D03*
Y341000D02*
D03*
D20*
Y39500D02*
D03*
Y194500D02*
D03*
Y117000D02*
D03*
Y272500D02*
D03*
Y351000D02*
D03*
D21*
X82500Y43000D02*
D03*
Y198000D02*
D03*
Y120500D02*
D03*
Y276000D02*
D03*
Y354500D02*
D03*
D22*
X72500Y43000D02*
D03*
X62500D02*
D03*
X52500D02*
D03*
X42500D02*
D03*
X32500D02*
D03*
X22500D02*
D03*
X12500D02*
D03*
Y13000D02*
D03*
X22500D02*
D03*
X32500D02*
D03*
X42500D02*
D03*
X52500D02*
D03*
X62500D02*
D03*
X72500D02*
D03*
X82500D02*
D03*
X72500Y198000D02*
D03*
X62500D02*
D03*
X52500D02*
D03*
X42500D02*
D03*
X32500D02*
D03*
X22500D02*
D03*
X12500D02*
D03*
Y168000D02*
D03*
X22500D02*
D03*
X32500D02*
D03*
X42500D02*
D03*
X52500D02*
D03*
X62500D02*
D03*
X72500D02*
D03*
X82500D02*
D03*
X72500Y120500D02*
D03*
X62500D02*
D03*
X52500D02*
D03*
X42500D02*
D03*
X32500D02*
D03*
X22500D02*
D03*
X12500D02*
D03*
Y90500D02*
D03*
X22500D02*
D03*
X32500D02*
D03*
X42500D02*
D03*
X52500D02*
D03*
X62500D02*
D03*
X72500D02*
D03*
X82500D02*
D03*
X72500Y276000D02*
D03*
X62500D02*
D03*
X52500D02*
D03*
X42500D02*
D03*
X32500D02*
D03*
X22500D02*
D03*
X12500D02*
D03*
Y246000D02*
D03*
X22500D02*
D03*
X32500D02*
D03*
X42500D02*
D03*
X52500D02*
D03*
X62500D02*
D03*
X72500D02*
D03*
X82500D02*
D03*
X72500Y354500D02*
D03*
X62500D02*
D03*
X52500D02*
D03*
X42500D02*
D03*
X32500D02*
D03*
X22500D02*
D03*
X12500D02*
D03*
Y324500D02*
D03*
X22500D02*
D03*
X32500D02*
D03*
X42500D02*
D03*
X52500D02*
D03*
X62500D02*
D03*
X72500D02*
D03*
X82500D02*
D03*
M02*
