G04 Layer_Color=32896*
%FSLAX25Y25*%
%MOIN*%
G70*
G01*
G75*
%ADD24C,0.00800*%
%ADD25C,0.00787*%
%ADD26C,0.00000*%
%ADD27C,0.00500*%
%ADD28C,0.00600*%
D24*
X199955Y33029D02*
G03*
X199955Y21971I8848J-5529D01*
G01*
Y33029D02*
G03*
X199955Y21971I8848J-5529D01*
G01*
X138955Y33029D02*
G03*
X138955Y21971I8848J-5529D01*
G01*
Y33029D02*
G03*
X138955Y21971I8848J-5529D01*
G01*
Y188029D02*
G03*
X138955Y176971I8848J-5529D01*
G01*
Y188029D02*
G03*
X138955Y176971I8848J-5529D01*
G01*
X199955Y188029D02*
G03*
X199955Y176971I8848J-5529D01*
G01*
Y188029D02*
G03*
X199955Y176971I8848J-5529D01*
G01*
X138955Y110529D02*
G03*
X138955Y99471I8848J-5529D01*
G01*
Y110529D02*
G03*
X138955Y99471I8848J-5529D01*
G01*
X199955Y110529D02*
G03*
X199955Y99471I8848J-5529D01*
G01*
Y110529D02*
G03*
X199955Y99471I8848J-5529D01*
G01*
X138955Y266029D02*
G03*
X138955Y254971I8848J-5529D01*
G01*
Y266029D02*
G03*
X138955Y254971I8848J-5529D01*
G01*
X199955Y266029D02*
G03*
X199955Y254971I8848J-5529D01*
G01*
Y266029D02*
G03*
X199955Y254971I8848J-5529D01*
G01*
X138955Y344529D02*
G03*
X138955Y333471I8848J-5529D01*
G01*
Y344529D02*
G03*
X138955Y333471I8848J-5529D01*
G01*
X199955Y344529D02*
G03*
X199955Y333471I8848J-5529D01*
G01*
Y344529D02*
G03*
X199955Y333471I8848J-5529D01*
G01*
D25*
X340736Y11465D02*
G03*
X340736Y11465I-394J0D01*
G01*
D02*
G03*
X340736Y11465I-394J0D01*
G01*
Y166465D02*
G03*
X340736Y166465I-394J0D01*
G01*
D02*
G03*
X340736Y166465I-394J0D01*
G01*
Y88965D02*
G03*
X340736Y88965I-394J0D01*
G01*
D02*
G03*
X340736Y88965I-394J0D01*
G01*
Y244465D02*
G03*
X340736Y244465I-394J0D01*
G01*
D02*
G03*
X340736Y244465I-394J0D01*
G01*
Y322965D02*
G03*
X340736Y322965I-394J0D01*
G01*
D02*
G03*
X340736Y322965I-394J0D01*
G01*
D26*
X86300Y29200D02*
G03*
X86300Y26800I0J-1200D01*
G01*
Y29200D02*
G03*
X86300Y26800I0J-1200D01*
G01*
Y184200D02*
G03*
X86300Y181800I0J-1200D01*
G01*
Y184200D02*
G03*
X86300Y181800I0J-1200D01*
G01*
Y106700D02*
G03*
X86300Y104300I0J-1200D01*
G01*
Y106700D02*
G03*
X86300Y104300I0J-1200D01*
G01*
Y262200D02*
G03*
X86300Y259800I0J-1200D01*
G01*
Y262200D02*
G03*
X86300Y259800I0J-1200D01*
G01*
Y340700D02*
G03*
X86300Y338300I0J-1200D01*
G01*
Y340700D02*
G03*
X86300Y338300I0J-1200D01*
G01*
D27*
X317902Y15402D02*
X344280D01*
X317902D02*
Y40598D01*
X344280D01*
Y15402D02*
Y40598D01*
X317902Y15402D02*
X344280D01*
X317902D02*
Y40598D01*
X344280D01*
Y15402D02*
Y40598D01*
X317902Y170402D02*
X344280D01*
X317902D02*
Y195598D01*
X344280D01*
Y170402D02*
Y195598D01*
X317902Y170402D02*
X344280D01*
X317902D02*
Y195598D01*
X344280D01*
Y170402D02*
Y195598D01*
X317902Y92902D02*
X344280D01*
X317902D02*
Y118098D01*
X344280D01*
Y92902D02*
Y118098D01*
X317902Y92902D02*
X344280D01*
X317902D02*
Y118098D01*
X344280D01*
Y92902D02*
Y118098D01*
X317902Y248402D02*
X344280D01*
X317902D02*
Y273598D01*
X344280D01*
Y248402D02*
Y273598D01*
X317902Y248402D02*
X344280D01*
X317902D02*
Y273598D01*
X344280D01*
Y248402D02*
Y273598D01*
X317902Y326902D02*
X344280D01*
X317902D02*
Y352098D01*
X344280D01*
Y326902D02*
Y352098D01*
X317902Y326902D02*
X344280D01*
X317902D02*
Y352098D01*
X344280D01*
Y326902D02*
Y352098D01*
D28*
X80300Y41000D02*
X84700D01*
Y45200D01*
X80300D02*
X84700D01*
X80300Y41000D02*
Y45200D01*
X70300Y41000D02*
X74700D01*
Y45200D01*
X70300D02*
X74700D01*
X70300Y41000D02*
Y45200D01*
X60300Y41000D02*
X64700D01*
Y45200D01*
X60300D02*
X64700D01*
X60300Y41000D02*
Y45200D01*
X50300Y41000D02*
X54700D01*
Y45200D01*
X50300D02*
X54700D01*
X50300Y41000D02*
Y45200D01*
X40300Y41000D02*
X44700D01*
Y45200D01*
X40300D02*
X44700D01*
X40300Y41000D02*
Y45200D01*
X30300Y41000D02*
X34700D01*
Y45200D01*
X30300D02*
X34700D01*
X30300Y41000D02*
Y45200D01*
X20300Y41000D02*
X24700D01*
Y45200D01*
X20300D02*
X24700D01*
X20300Y41000D02*
Y45200D01*
X10300Y41000D02*
X14700D01*
Y45200D01*
X10300D02*
X14700D01*
X10300Y41000D02*
Y45200D01*
Y15000D02*
X14700D01*
X10300Y10800D02*
Y15000D01*
Y10800D02*
X14700D01*
Y15000D01*
X20300D02*
X24700D01*
X20300Y10800D02*
Y15000D01*
Y10800D02*
X24700D01*
Y15000D01*
X30300D02*
X34700D01*
X30300Y10800D02*
Y15000D01*
Y10800D02*
X34700D01*
Y15000D01*
X40300D02*
X44700D01*
X40300Y10800D02*
Y15000D01*
Y10800D02*
X44700D01*
Y15000D01*
X50300D02*
X54700D01*
X50300Y10800D02*
Y15000D01*
Y10800D02*
X54700D01*
Y15000D01*
X60300D02*
X64700D01*
X60300Y10800D02*
Y15000D01*
Y10800D02*
X64700D01*
Y15000D01*
X70300D02*
X74700D01*
X70300Y10800D02*
Y15000D01*
Y10800D02*
X74700D01*
Y15000D01*
X80300D02*
X84700D01*
X80300Y10800D02*
Y15000D01*
Y10800D02*
X84700D01*
Y15000D01*
X8700D02*
Y41000D01*
Y15000D02*
X86300D01*
Y26800D01*
Y29200D01*
Y41000D01*
X8700D02*
X86300D01*
X80300D02*
X84700D01*
Y45200D01*
X80300D02*
X84700D01*
X80300Y41000D02*
Y45200D01*
X70300Y41000D02*
X74700D01*
Y45200D01*
X70300D02*
X74700D01*
X70300Y41000D02*
Y45200D01*
X60300Y41000D02*
X64700D01*
Y45200D01*
X60300D02*
X64700D01*
X60300Y41000D02*
Y45200D01*
X50300Y41000D02*
X54700D01*
Y45200D01*
X50300D02*
X54700D01*
X50300Y41000D02*
Y45200D01*
X40300Y41000D02*
X44700D01*
Y45200D01*
X40300D02*
X44700D01*
X40300Y41000D02*
Y45200D01*
X30300Y41000D02*
X34700D01*
Y45200D01*
X30300D02*
X34700D01*
X30300Y41000D02*
Y45200D01*
X20300Y41000D02*
X24700D01*
Y45200D01*
X20300D02*
X24700D01*
X20300Y41000D02*
Y45200D01*
X10300Y41000D02*
X14700D01*
Y45200D01*
X10300D02*
X14700D01*
X10300Y41000D02*
Y45200D01*
Y15000D02*
X14700D01*
X10300Y10800D02*
Y15000D01*
Y10800D02*
X14700D01*
Y15000D01*
X20300D02*
X24700D01*
X20300Y10800D02*
Y15000D01*
Y10800D02*
X24700D01*
Y15000D01*
X30300D02*
X34700D01*
X30300Y10800D02*
Y15000D01*
Y10800D02*
X34700D01*
Y15000D01*
X40300D02*
X44700D01*
X40300Y10800D02*
Y15000D01*
Y10800D02*
X44700D01*
Y15000D01*
X50300D02*
X54700D01*
X50300Y10800D02*
Y15000D01*
Y10800D02*
X54700D01*
Y15000D01*
X60300D02*
X64700D01*
X60300Y10800D02*
Y15000D01*
Y10800D02*
X64700D01*
Y15000D01*
X70300D02*
X74700D01*
X70300Y10800D02*
Y15000D01*
Y10800D02*
X74700D01*
Y15000D01*
X80300D02*
X84700D01*
X80300Y10800D02*
Y15000D01*
Y10800D02*
X84700D01*
Y15000D01*
X8700D02*
Y41000D01*
Y15000D02*
X86300D01*
Y26800D01*
Y29200D01*
Y41000D01*
X8700D02*
X86300D01*
X80300Y196000D02*
X84700D01*
Y200200D01*
X80300D02*
X84700D01*
X80300Y196000D02*
Y200200D01*
X70300Y196000D02*
X74700D01*
Y200200D01*
X70300D02*
X74700D01*
X70300Y196000D02*
Y200200D01*
X60300Y196000D02*
X64700D01*
Y200200D01*
X60300D02*
X64700D01*
X60300Y196000D02*
Y200200D01*
X50300Y196000D02*
X54700D01*
Y200200D01*
X50300D02*
X54700D01*
X50300Y196000D02*
Y200200D01*
X40300Y196000D02*
X44700D01*
Y200200D01*
X40300D02*
X44700D01*
X40300Y196000D02*
Y200200D01*
X30300Y196000D02*
X34700D01*
Y200200D01*
X30300D02*
X34700D01*
X30300Y196000D02*
Y200200D01*
X20300Y196000D02*
X24700D01*
Y200200D01*
X20300D02*
X24700D01*
X20300Y196000D02*
Y200200D01*
X10300Y196000D02*
X14700D01*
Y200200D01*
X10300D02*
X14700D01*
X10300Y196000D02*
Y200200D01*
Y170000D02*
X14700D01*
X10300Y165800D02*
Y170000D01*
Y165800D02*
X14700D01*
Y170000D01*
X20300D02*
X24700D01*
X20300Y165800D02*
Y170000D01*
Y165800D02*
X24700D01*
Y170000D01*
X30300D02*
X34700D01*
X30300Y165800D02*
Y170000D01*
Y165800D02*
X34700D01*
Y170000D01*
X40300D02*
X44700D01*
X40300Y165800D02*
Y170000D01*
Y165800D02*
X44700D01*
Y170000D01*
X50300D02*
X54700D01*
X50300Y165800D02*
Y170000D01*
Y165800D02*
X54700D01*
Y170000D01*
X60300D02*
X64700D01*
X60300Y165800D02*
Y170000D01*
Y165800D02*
X64700D01*
Y170000D01*
X70300D02*
X74700D01*
X70300Y165800D02*
Y170000D01*
Y165800D02*
X74700D01*
Y170000D01*
X80300D02*
X84700D01*
X80300Y165800D02*
Y170000D01*
Y165800D02*
X84700D01*
Y170000D01*
X8700D02*
Y196000D01*
Y170000D02*
X86300D01*
Y181800D01*
Y184200D01*
Y196000D01*
X8700D02*
X86300D01*
X80300D02*
X84700D01*
Y200200D01*
X80300D02*
X84700D01*
X80300Y196000D02*
Y200200D01*
X70300Y196000D02*
X74700D01*
Y200200D01*
X70300D02*
X74700D01*
X70300Y196000D02*
Y200200D01*
X60300Y196000D02*
X64700D01*
Y200200D01*
X60300D02*
X64700D01*
X60300Y196000D02*
Y200200D01*
X50300Y196000D02*
X54700D01*
Y200200D01*
X50300D02*
X54700D01*
X50300Y196000D02*
Y200200D01*
X40300Y196000D02*
X44700D01*
Y200200D01*
X40300D02*
X44700D01*
X40300Y196000D02*
Y200200D01*
X30300Y196000D02*
X34700D01*
Y200200D01*
X30300D02*
X34700D01*
X30300Y196000D02*
Y200200D01*
X20300Y196000D02*
X24700D01*
Y200200D01*
X20300D02*
X24700D01*
X20300Y196000D02*
Y200200D01*
X10300Y196000D02*
X14700D01*
Y200200D01*
X10300D02*
X14700D01*
X10300Y196000D02*
Y200200D01*
Y170000D02*
X14700D01*
X10300Y165800D02*
Y170000D01*
Y165800D02*
X14700D01*
Y170000D01*
X20300D02*
X24700D01*
X20300Y165800D02*
Y170000D01*
Y165800D02*
X24700D01*
Y170000D01*
X30300D02*
X34700D01*
X30300Y165800D02*
Y170000D01*
Y165800D02*
X34700D01*
Y170000D01*
X40300D02*
X44700D01*
X40300Y165800D02*
Y170000D01*
Y165800D02*
X44700D01*
Y170000D01*
X50300D02*
X54700D01*
X50300Y165800D02*
Y170000D01*
Y165800D02*
X54700D01*
Y170000D01*
X60300D02*
X64700D01*
X60300Y165800D02*
Y170000D01*
Y165800D02*
X64700D01*
Y170000D01*
X70300D02*
X74700D01*
X70300Y165800D02*
Y170000D01*
Y165800D02*
X74700D01*
Y170000D01*
X80300D02*
X84700D01*
X80300Y165800D02*
Y170000D01*
Y165800D02*
X84700D01*
Y170000D01*
X8700D02*
Y196000D01*
Y170000D02*
X86300D01*
Y181800D01*
Y184200D01*
Y196000D01*
X8700D02*
X86300D01*
X80300Y118500D02*
X84700D01*
Y122700D01*
X80300D02*
X84700D01*
X80300Y118500D02*
Y122700D01*
X70300Y118500D02*
X74700D01*
Y122700D01*
X70300D02*
X74700D01*
X70300Y118500D02*
Y122700D01*
X60300Y118500D02*
X64700D01*
Y122700D01*
X60300D02*
X64700D01*
X60300Y118500D02*
Y122700D01*
X50300Y118500D02*
X54700D01*
Y122700D01*
X50300D02*
X54700D01*
X50300Y118500D02*
Y122700D01*
X40300Y118500D02*
X44700D01*
Y122700D01*
X40300D02*
X44700D01*
X40300Y118500D02*
Y122700D01*
X30300Y118500D02*
X34700D01*
Y122700D01*
X30300D02*
X34700D01*
X30300Y118500D02*
Y122700D01*
X20300Y118500D02*
X24700D01*
Y122700D01*
X20300D02*
X24700D01*
X20300Y118500D02*
Y122700D01*
X10300Y118500D02*
X14700D01*
Y122700D01*
X10300D02*
X14700D01*
X10300Y118500D02*
Y122700D01*
Y92500D02*
X14700D01*
X10300Y88300D02*
Y92500D01*
Y88300D02*
X14700D01*
Y92500D01*
X20300D02*
X24700D01*
X20300Y88300D02*
Y92500D01*
Y88300D02*
X24700D01*
Y92500D01*
X30300D02*
X34700D01*
X30300Y88300D02*
Y92500D01*
Y88300D02*
X34700D01*
Y92500D01*
X40300D02*
X44700D01*
X40300Y88300D02*
Y92500D01*
Y88300D02*
X44700D01*
Y92500D01*
X50300D02*
X54700D01*
X50300Y88300D02*
Y92500D01*
Y88300D02*
X54700D01*
Y92500D01*
X60300D02*
X64700D01*
X60300Y88300D02*
Y92500D01*
Y88300D02*
X64700D01*
Y92500D01*
X70300D02*
X74700D01*
X70300Y88300D02*
Y92500D01*
Y88300D02*
X74700D01*
Y92500D01*
X80300D02*
X84700D01*
X80300Y88300D02*
Y92500D01*
Y88300D02*
X84700D01*
Y92500D01*
X8700D02*
Y118500D01*
Y92500D02*
X86300D01*
Y104300D01*
Y106700D01*
Y118500D01*
X8700D02*
X86300D01*
X80300D02*
X84700D01*
Y122700D01*
X80300D02*
X84700D01*
X80300Y118500D02*
Y122700D01*
X70300Y118500D02*
X74700D01*
Y122700D01*
X70300D02*
X74700D01*
X70300Y118500D02*
Y122700D01*
X60300Y118500D02*
X64700D01*
Y122700D01*
X60300D02*
X64700D01*
X60300Y118500D02*
Y122700D01*
X50300Y118500D02*
X54700D01*
Y122700D01*
X50300D02*
X54700D01*
X50300Y118500D02*
Y122700D01*
X40300Y118500D02*
X44700D01*
Y122700D01*
X40300D02*
X44700D01*
X40300Y118500D02*
Y122700D01*
X30300Y118500D02*
X34700D01*
Y122700D01*
X30300D02*
X34700D01*
X30300Y118500D02*
Y122700D01*
X20300Y118500D02*
X24700D01*
Y122700D01*
X20300D02*
X24700D01*
X20300Y118500D02*
Y122700D01*
X10300Y118500D02*
X14700D01*
Y122700D01*
X10300D02*
X14700D01*
X10300Y118500D02*
Y122700D01*
Y92500D02*
X14700D01*
X10300Y88300D02*
Y92500D01*
Y88300D02*
X14700D01*
Y92500D01*
X20300D02*
X24700D01*
X20300Y88300D02*
Y92500D01*
Y88300D02*
X24700D01*
Y92500D01*
X30300D02*
X34700D01*
X30300Y88300D02*
Y92500D01*
Y88300D02*
X34700D01*
Y92500D01*
X40300D02*
X44700D01*
X40300Y88300D02*
Y92500D01*
Y88300D02*
X44700D01*
Y92500D01*
X50300D02*
X54700D01*
X50300Y88300D02*
Y92500D01*
Y88300D02*
X54700D01*
Y92500D01*
X60300D02*
X64700D01*
X60300Y88300D02*
Y92500D01*
Y88300D02*
X64700D01*
Y92500D01*
X70300D02*
X74700D01*
X70300Y88300D02*
Y92500D01*
Y88300D02*
X74700D01*
Y92500D01*
X80300D02*
X84700D01*
X80300Y88300D02*
Y92500D01*
Y88300D02*
X84700D01*
Y92500D01*
X8700D02*
Y118500D01*
Y92500D02*
X86300D01*
Y104300D01*
Y106700D01*
Y118500D01*
X8700D02*
X86300D01*
X80300Y274000D02*
X84700D01*
Y278200D01*
X80300D02*
X84700D01*
X80300Y274000D02*
Y278200D01*
X70300Y274000D02*
X74700D01*
Y278200D01*
X70300D02*
X74700D01*
X70300Y274000D02*
Y278200D01*
X60300Y274000D02*
X64700D01*
Y278200D01*
X60300D02*
X64700D01*
X60300Y274000D02*
Y278200D01*
X50300Y274000D02*
X54700D01*
Y278200D01*
X50300D02*
X54700D01*
X50300Y274000D02*
Y278200D01*
X40300Y274000D02*
X44700D01*
Y278200D01*
X40300D02*
X44700D01*
X40300Y274000D02*
Y278200D01*
X30300Y274000D02*
X34700D01*
Y278200D01*
X30300D02*
X34700D01*
X30300Y274000D02*
Y278200D01*
X20300Y274000D02*
X24700D01*
Y278200D01*
X20300D02*
X24700D01*
X20300Y274000D02*
Y278200D01*
X10300Y274000D02*
X14700D01*
Y278200D01*
X10300D02*
X14700D01*
X10300Y274000D02*
Y278200D01*
Y248000D02*
X14700D01*
X10300Y243800D02*
Y248000D01*
Y243800D02*
X14700D01*
Y248000D01*
X20300D02*
X24700D01*
X20300Y243800D02*
Y248000D01*
Y243800D02*
X24700D01*
Y248000D01*
X30300D02*
X34700D01*
X30300Y243800D02*
Y248000D01*
Y243800D02*
X34700D01*
Y248000D01*
X40300D02*
X44700D01*
X40300Y243800D02*
Y248000D01*
Y243800D02*
X44700D01*
Y248000D01*
X50300D02*
X54700D01*
X50300Y243800D02*
Y248000D01*
Y243800D02*
X54700D01*
Y248000D01*
X60300D02*
X64700D01*
X60300Y243800D02*
Y248000D01*
Y243800D02*
X64700D01*
Y248000D01*
X70300D02*
X74700D01*
X70300Y243800D02*
Y248000D01*
Y243800D02*
X74700D01*
Y248000D01*
X80300D02*
X84700D01*
X80300Y243800D02*
Y248000D01*
Y243800D02*
X84700D01*
Y248000D01*
X8700D02*
Y274000D01*
Y248000D02*
X86300D01*
Y259800D01*
Y262200D01*
Y274000D01*
X8700D02*
X86300D01*
X80300D02*
X84700D01*
Y278200D01*
X80300D02*
X84700D01*
X80300Y274000D02*
Y278200D01*
X70300Y274000D02*
X74700D01*
Y278200D01*
X70300D02*
X74700D01*
X70300Y274000D02*
Y278200D01*
X60300Y274000D02*
X64700D01*
Y278200D01*
X60300D02*
X64700D01*
X60300Y274000D02*
Y278200D01*
X50300Y274000D02*
X54700D01*
Y278200D01*
X50300D02*
X54700D01*
X50300Y274000D02*
Y278200D01*
X40300Y274000D02*
X44700D01*
Y278200D01*
X40300D02*
X44700D01*
X40300Y274000D02*
Y278200D01*
X30300Y274000D02*
X34700D01*
Y278200D01*
X30300D02*
X34700D01*
X30300Y274000D02*
Y278200D01*
X20300Y274000D02*
X24700D01*
Y278200D01*
X20300D02*
X24700D01*
X20300Y274000D02*
Y278200D01*
X10300Y274000D02*
X14700D01*
Y278200D01*
X10300D02*
X14700D01*
X10300Y274000D02*
Y278200D01*
Y248000D02*
X14700D01*
X10300Y243800D02*
Y248000D01*
Y243800D02*
X14700D01*
Y248000D01*
X20300D02*
X24700D01*
X20300Y243800D02*
Y248000D01*
Y243800D02*
X24700D01*
Y248000D01*
X30300D02*
X34700D01*
X30300Y243800D02*
Y248000D01*
Y243800D02*
X34700D01*
Y248000D01*
X40300D02*
X44700D01*
X40300Y243800D02*
Y248000D01*
Y243800D02*
X44700D01*
Y248000D01*
X50300D02*
X54700D01*
X50300Y243800D02*
Y248000D01*
Y243800D02*
X54700D01*
Y248000D01*
X60300D02*
X64700D01*
X60300Y243800D02*
Y248000D01*
Y243800D02*
X64700D01*
Y248000D01*
X70300D02*
X74700D01*
X70300Y243800D02*
Y248000D01*
Y243800D02*
X74700D01*
Y248000D01*
X80300D02*
X84700D01*
X80300Y243800D02*
Y248000D01*
Y243800D02*
X84700D01*
Y248000D01*
X8700D02*
Y274000D01*
Y248000D02*
X86300D01*
Y259800D01*
Y262200D01*
Y274000D01*
X8700D02*
X86300D01*
X80300Y352500D02*
X84700D01*
Y356700D01*
X80300D02*
X84700D01*
X80300Y352500D02*
Y356700D01*
X70300Y352500D02*
X74700D01*
Y356700D01*
X70300D02*
X74700D01*
X70300Y352500D02*
Y356700D01*
X60300Y352500D02*
X64700D01*
Y356700D01*
X60300D02*
X64700D01*
X60300Y352500D02*
Y356700D01*
X50300Y352500D02*
X54700D01*
Y356700D01*
X50300D02*
X54700D01*
X50300Y352500D02*
Y356700D01*
X40300Y352500D02*
X44700D01*
Y356700D01*
X40300D02*
X44700D01*
X40300Y352500D02*
Y356700D01*
X30300Y352500D02*
X34700D01*
Y356700D01*
X30300D02*
X34700D01*
X30300Y352500D02*
Y356700D01*
X20300Y352500D02*
X24700D01*
Y356700D01*
X20300D02*
X24700D01*
X20300Y352500D02*
Y356700D01*
X10300Y352500D02*
X14700D01*
Y356700D01*
X10300D02*
X14700D01*
X10300Y352500D02*
Y356700D01*
Y326500D02*
X14700D01*
X10300Y322300D02*
Y326500D01*
Y322300D02*
X14700D01*
Y326500D01*
X20300D02*
X24700D01*
X20300Y322300D02*
Y326500D01*
Y322300D02*
X24700D01*
Y326500D01*
X30300D02*
X34700D01*
X30300Y322300D02*
Y326500D01*
Y322300D02*
X34700D01*
Y326500D01*
X40300D02*
X44700D01*
X40300Y322300D02*
Y326500D01*
Y322300D02*
X44700D01*
Y326500D01*
X50300D02*
X54700D01*
X50300Y322300D02*
Y326500D01*
Y322300D02*
X54700D01*
Y326500D01*
X60300D02*
X64700D01*
X60300Y322300D02*
Y326500D01*
Y322300D02*
X64700D01*
Y326500D01*
X70300D02*
X74700D01*
X70300Y322300D02*
Y326500D01*
Y322300D02*
X74700D01*
Y326500D01*
X80300D02*
X84700D01*
X80300Y322300D02*
Y326500D01*
Y322300D02*
X84700D01*
Y326500D01*
X8700D02*
Y352500D01*
Y326500D02*
X86300D01*
Y338300D01*
Y340700D01*
Y352500D01*
X8700D02*
X86300D01*
X80300D02*
X84700D01*
Y356700D01*
X80300D02*
X84700D01*
X80300Y352500D02*
Y356700D01*
X70300Y352500D02*
X74700D01*
Y356700D01*
X70300D02*
X74700D01*
X70300Y352500D02*
Y356700D01*
X60300Y352500D02*
X64700D01*
Y356700D01*
X60300D02*
X64700D01*
X60300Y352500D02*
Y356700D01*
X50300Y352500D02*
X54700D01*
Y356700D01*
X50300D02*
X54700D01*
X50300Y352500D02*
Y356700D01*
X40300Y352500D02*
X44700D01*
Y356700D01*
X40300D02*
X44700D01*
X40300Y352500D02*
Y356700D01*
X30300Y352500D02*
X34700D01*
Y356700D01*
X30300D02*
X34700D01*
X30300Y352500D02*
Y356700D01*
X20300Y352500D02*
X24700D01*
Y356700D01*
X20300D02*
X24700D01*
X20300Y352500D02*
Y356700D01*
X10300Y352500D02*
X14700D01*
Y356700D01*
X10300D02*
X14700D01*
X10300Y352500D02*
Y356700D01*
Y326500D02*
X14700D01*
X10300Y322300D02*
Y326500D01*
Y322300D02*
X14700D01*
Y326500D01*
X20300D02*
X24700D01*
X20300Y322300D02*
Y326500D01*
Y322300D02*
X24700D01*
Y326500D01*
X30300D02*
X34700D01*
X30300Y322300D02*
Y326500D01*
Y322300D02*
X34700D01*
Y326500D01*
X40300D02*
X44700D01*
X40300Y322300D02*
Y326500D01*
Y322300D02*
X44700D01*
Y326500D01*
X50300D02*
X54700D01*
X50300Y322300D02*
Y326500D01*
Y322300D02*
X54700D01*
Y326500D01*
X60300D02*
X64700D01*
X60300Y322300D02*
Y326500D01*
Y322300D02*
X64700D01*
Y326500D01*
X70300D02*
X74700D01*
X70300Y322300D02*
Y326500D01*
Y322300D02*
X74700D01*
Y326500D01*
X80300D02*
X84700D01*
X80300Y322300D02*
Y326500D01*
Y322300D02*
X84700D01*
Y326500D01*
X8700D02*
Y352500D01*
Y326500D02*
X86300D01*
Y338300D01*
Y340700D01*
Y352500D01*
X8700D02*
X86300D01*
M02*
