M48
;Layer_Color=9474304
;FILE_FORMAT=2:5
INCH,LZ
T5F00S00C0.20000
%
G90
G05
T05
G00X0403562Y-00098
M15
G01X040547Y-000921
G01X0407223Y-0008252
G01X0408751Y-0006965
G01X0409992Y-00054
G01X0410897Y-0003619
G01X041143Y-0001694
G01X0411575Y0
G01X0411575Y0393
G01X0411375Y0394988
G01X0410785Y0396896
G01X0409827Y0398648
G01X040854Y0400176
G01X0406974Y0401417
G01X0405194Y0402322
G01X0403269Y0402856
G01X0401575Y0403
G01X0Y0403
G01X-0001988Y04028
G01X-0003896Y040221
G01X-0005648Y0401252
G01X-0007176Y0399965
G01X-0008417Y03984
G01X-0009322Y0396619
G01X-0009855Y0394694
G01X-001Y0393
G01X-001Y0
G01X-00098Y-0001988
G01X-000921Y-0003896
G01X-0008252Y-0005648
G01X-0006965Y-0007176
G01X-00054Y-0008417
G01X-0003619Y-0009322
G01X-0001694Y-0009855
G01X0Y-001
G01X0401575Y-001
G01X0403562Y-00098
M16
M17
M30
