G04 Layer_Color=8388736*
%FSLAX25Y25*%
%MOIN*%
G70*
G01*
G75*
%ADD26R,3.92532X0.04737*%
%ADD27C,0.06706*%
%ADD28R,0.06706X0.06706*%
%ADD29R,0.07400X0.07400*%
%ADD30C,0.07400*%
%ADD31O,0.07400X0.07398*%
%ADD32R,0.08280X0.08280*%
%ADD33C,0.08674*%
D26*
X200500Y320000D02*
D03*
Y240000D02*
D03*
Y160000D02*
D03*
Y80000D02*
D03*
D27*
X86500Y346500D02*
D03*
X56500D02*
D03*
X17000Y390000D02*
D03*
X40000D02*
D03*
X63000D02*
D03*
X86000D02*
D03*
X109000D02*
D03*
X132000D02*
D03*
X155000D02*
D03*
X178000D02*
D03*
X201000D02*
D03*
X224000D02*
D03*
X247000D02*
D03*
X270000D02*
D03*
X293000D02*
D03*
X316000D02*
D03*
X339000D02*
D03*
X362000D02*
D03*
X385000D02*
D03*
X247000Y346000D02*
D03*
X217000D02*
D03*
X286500Y351000D02*
D03*
X86500Y266500D02*
D03*
X56500D02*
D03*
X17000Y310000D02*
D03*
X40000D02*
D03*
X63000D02*
D03*
X86000D02*
D03*
X109000D02*
D03*
X132000D02*
D03*
X155000D02*
D03*
X178000D02*
D03*
X201000D02*
D03*
X224000D02*
D03*
X247000D02*
D03*
X270000D02*
D03*
X293000D02*
D03*
X316000D02*
D03*
X339000D02*
D03*
X362000D02*
D03*
X385000D02*
D03*
X247000Y266000D02*
D03*
X217000D02*
D03*
X286500Y271000D02*
D03*
X86500Y186500D02*
D03*
X56500D02*
D03*
X17000Y230000D02*
D03*
X40000D02*
D03*
X63000D02*
D03*
X86000D02*
D03*
X109000D02*
D03*
X132000D02*
D03*
X155000D02*
D03*
X178000D02*
D03*
X201000D02*
D03*
X224000D02*
D03*
X247000D02*
D03*
X270000D02*
D03*
X293000D02*
D03*
X316000D02*
D03*
X339000D02*
D03*
X362000D02*
D03*
X385000D02*
D03*
X247000Y186000D02*
D03*
X217000D02*
D03*
X286500Y191000D02*
D03*
X86500Y106500D02*
D03*
X56500D02*
D03*
X17000Y150000D02*
D03*
X40000D02*
D03*
X63000D02*
D03*
X86000D02*
D03*
X109000D02*
D03*
X132000D02*
D03*
X155000D02*
D03*
X178000D02*
D03*
X201000D02*
D03*
X224000D02*
D03*
X247000D02*
D03*
X270000D02*
D03*
X293000D02*
D03*
X316000D02*
D03*
X339000D02*
D03*
X362000D02*
D03*
X385000D02*
D03*
X247000Y106000D02*
D03*
X217000D02*
D03*
X286500Y111000D02*
D03*
X86500Y26500D02*
D03*
X56500D02*
D03*
X286500Y31000D02*
D03*
X247000Y26000D02*
D03*
X217000D02*
D03*
X201000Y70000D02*
D03*
X224000D02*
D03*
X178000D02*
D03*
X155000D02*
D03*
X132000D02*
D03*
X109000D02*
D03*
X86000D02*
D03*
X63000D02*
D03*
X40000D02*
D03*
X17000D02*
D03*
X385000D02*
D03*
X362000D02*
D03*
X339000D02*
D03*
X316000D02*
D03*
X293000D02*
D03*
X270000D02*
D03*
X247000D02*
D03*
D28*
X17000Y380000D02*
D03*
X40000D02*
D03*
X63000D02*
D03*
X86000D02*
D03*
X109000D02*
D03*
X132000D02*
D03*
X155000D02*
D03*
X178000D02*
D03*
X201000D02*
D03*
X224000D02*
D03*
X247000D02*
D03*
X270000D02*
D03*
X293000D02*
D03*
X316000D02*
D03*
X339000D02*
D03*
X362000D02*
D03*
X385000D02*
D03*
X286500Y341000D02*
D03*
X17000Y300000D02*
D03*
X40000D02*
D03*
X63000D02*
D03*
X86000D02*
D03*
X109000D02*
D03*
X132000D02*
D03*
X155000D02*
D03*
X178000D02*
D03*
X201000D02*
D03*
X224000D02*
D03*
X247000D02*
D03*
X270000D02*
D03*
X293000D02*
D03*
X316000D02*
D03*
X339000D02*
D03*
X362000D02*
D03*
X385000D02*
D03*
X286500Y261000D02*
D03*
X17000Y220000D02*
D03*
X40000D02*
D03*
X63000D02*
D03*
X86000D02*
D03*
X109000D02*
D03*
X132000D02*
D03*
X155000D02*
D03*
X178000D02*
D03*
X201000D02*
D03*
X224000D02*
D03*
X247000D02*
D03*
X270000D02*
D03*
X293000D02*
D03*
X316000D02*
D03*
X339000D02*
D03*
X362000D02*
D03*
X385000D02*
D03*
X286500Y181000D02*
D03*
X17000Y140000D02*
D03*
X40000D02*
D03*
X63000D02*
D03*
X86000D02*
D03*
X109000D02*
D03*
X132000D02*
D03*
X155000D02*
D03*
X178000D02*
D03*
X201000D02*
D03*
X224000D02*
D03*
X247000D02*
D03*
X270000D02*
D03*
X293000D02*
D03*
X316000D02*
D03*
X339000D02*
D03*
X362000D02*
D03*
X385000D02*
D03*
X286500Y101000D02*
D03*
Y21000D02*
D03*
X201000Y60000D02*
D03*
X224000D02*
D03*
X178000D02*
D03*
X155000D02*
D03*
X132000D02*
D03*
X109000D02*
D03*
X86000D02*
D03*
X63000D02*
D03*
X40000D02*
D03*
X17000D02*
D03*
X385000D02*
D03*
X362000D02*
D03*
X339000D02*
D03*
X316000D02*
D03*
X293000D02*
D03*
X270000D02*
D03*
X247000D02*
D03*
D29*
X184500Y363500D02*
D03*
Y283500D02*
D03*
Y203500D02*
D03*
Y123500D02*
D03*
Y43500D02*
D03*
D30*
X174500Y363500D02*
D03*
X164500D02*
D03*
X154500D02*
D03*
X144500D02*
D03*
X134500D02*
D03*
X114500D02*
D03*
Y333500D02*
D03*
X124500D02*
D03*
X134500D02*
D03*
X144500D02*
D03*
X154500D02*
D03*
X164500D02*
D03*
X174500D02*
D03*
X184500D02*
D03*
X174500Y283500D02*
D03*
X164500D02*
D03*
X154500D02*
D03*
X144500D02*
D03*
X134500D02*
D03*
X114500D02*
D03*
Y253500D02*
D03*
X124500D02*
D03*
X134500D02*
D03*
X144500D02*
D03*
X154500D02*
D03*
X164500D02*
D03*
X174500D02*
D03*
X184500D02*
D03*
X174500Y203500D02*
D03*
X164500D02*
D03*
X154500D02*
D03*
X144500D02*
D03*
X134500D02*
D03*
X114500D02*
D03*
Y173500D02*
D03*
X124500D02*
D03*
X134500D02*
D03*
X144500D02*
D03*
X154500D02*
D03*
X164500D02*
D03*
X174500D02*
D03*
X184500D02*
D03*
X174500Y123500D02*
D03*
X164500D02*
D03*
X154500D02*
D03*
X144500D02*
D03*
X134500D02*
D03*
X114500D02*
D03*
Y93500D02*
D03*
X124500D02*
D03*
X134500D02*
D03*
X144500D02*
D03*
X154500D02*
D03*
X164500D02*
D03*
X174500D02*
D03*
X184500D02*
D03*
X174500Y43500D02*
D03*
X164500D02*
D03*
X154500D02*
D03*
X144500D02*
D03*
X134500D02*
D03*
X114500D02*
D03*
Y13500D02*
D03*
X124500D02*
D03*
X134500D02*
D03*
X144500D02*
D03*
X154500D02*
D03*
X164500D02*
D03*
X174500D02*
D03*
X184500D02*
D03*
D31*
X124500Y363500D02*
D03*
Y283500D02*
D03*
Y203500D02*
D03*
Y123500D02*
D03*
Y43500D02*
D03*
D32*
X28500Y346000D02*
D03*
Y266000D02*
D03*
Y186000D02*
D03*
Y106000D02*
D03*
Y26000D02*
D03*
D33*
X38500Y346000D02*
D03*
Y266000D02*
D03*
Y186000D02*
D03*
Y106000D02*
D03*
Y26000D02*
D03*
M02*
