G04 Layer_Physical_Order=1*
G04 Layer_Color=255*
%FSLAX25Y25*%
%MOIN*%
G70*
G01*
G75*
%ADD10C,0.02000*%
%ADD11R,3.91732X0.03937*%
%ADD12C,0.05905*%
%ADD13R,0.05905X0.05905*%
%ADD14R,0.06600X0.06600*%
%ADD15C,0.06600*%
%ADD16O,0.06600X0.06598*%
%ADD17R,0.07480X0.07480*%
%ADD18C,0.07874*%
D10*
X17000Y380000D02*
X22000Y385000D01*
X166200Y355200D02*
X174500Y363500D01*
X103300Y355200D02*
X166200D01*
X92800Y365700D02*
X103300Y355200D01*
X77300Y365700D02*
X92800D01*
X63000Y380000D02*
X77300Y365700D01*
X94500Y353500D02*
X114500Y333500D01*
X178000Y380000D02*
X189800Y368200D01*
Y351000D02*
Y368200D01*
X184300Y345500D02*
X189800Y351000D01*
X136500Y345500D02*
X184300D01*
X124500Y333500D02*
X136500Y345500D01*
X124500Y363500D02*
X132000Y371000D01*
Y380000D01*
X149200Y358200D02*
X154500Y363500D01*
X111900Y358200D02*
X149200D01*
X109000Y361100D02*
X111900Y358200D01*
X109000Y361100D02*
Y380000D01*
X247000Y346000D02*
X258000Y357000D01*
X247000Y390000D02*
X250500D01*
X258000Y382500D01*
Y357000D02*
Y382500D01*
X56500Y346500D02*
X75000Y328000D01*
X149000D01*
X154500Y333500D01*
X307000Y325000D02*
X362000Y380000D01*
X49500Y351000D02*
X52000Y353500D01*
X94500D01*
X49500Y341000D02*
Y351000D01*
Y341000D02*
X65500Y325000D01*
X307000D01*
X219000Y385000D02*
X224000Y380000D01*
X169500Y376000D02*
X182000Y363500D01*
X184500D01*
X169500Y376000D02*
Y382000D01*
X172500Y385000D01*
X219000D01*
X22000D02*
X160000D01*
X164500Y380500D01*
Y363500D02*
Y380500D01*
X17000Y300000D02*
X22000Y305000D01*
X166200Y275200D02*
X174500Y283500D01*
X103300Y275200D02*
X166200D01*
X92800Y285700D02*
X103300Y275200D01*
X77300Y285700D02*
X92800D01*
X63000Y300000D02*
X77300Y285700D01*
X94500Y273500D02*
X114500Y253500D01*
X178000Y300000D02*
X189800Y288200D01*
Y271000D02*
Y288200D01*
X184300Y265500D02*
X189800Y271000D01*
X136500Y265500D02*
X184300D01*
X124500Y253500D02*
X136500Y265500D01*
X124500Y283500D02*
X132000Y291000D01*
Y300000D01*
X149200Y278200D02*
X154500Y283500D01*
X111900Y278200D02*
X149200D01*
X109000Y281100D02*
X111900Y278200D01*
X109000Y281100D02*
Y300000D01*
X247000Y266000D02*
X258000Y277000D01*
X247000Y310000D02*
X250500D01*
X258000Y302500D01*
Y277000D02*
Y302500D01*
X56500Y266500D02*
X75000Y248000D01*
X149000D01*
X154500Y253500D01*
X307000Y245000D02*
X362000Y300000D01*
X49500Y271000D02*
X52000Y273500D01*
X94500D01*
X49500Y261000D02*
Y271000D01*
Y261000D02*
X65500Y245000D01*
X307000D01*
X219000Y305000D02*
X224000Y300000D01*
X169500Y296000D02*
X182000Y283500D01*
X184500D01*
X169500Y296000D02*
Y302000D01*
X172500Y305000D01*
X219000D01*
X22000D02*
X160000D01*
X164500Y300500D01*
Y283500D02*
Y300500D01*
X17000Y220000D02*
X22000Y225000D01*
X166200Y195200D02*
X174500Y203500D01*
X103300Y195200D02*
X166200D01*
X92800Y205700D02*
X103300Y195200D01*
X77300Y205700D02*
X92800D01*
X63000Y220000D02*
X77300Y205700D01*
X94500Y193500D02*
X114500Y173500D01*
X178000Y220000D02*
X189800Y208200D01*
Y191000D02*
Y208200D01*
X184300Y185500D02*
X189800Y191000D01*
X136500Y185500D02*
X184300D01*
X124500Y173500D02*
X136500Y185500D01*
X124500Y203500D02*
X132000Y211000D01*
Y220000D01*
X149200Y198200D02*
X154500Y203500D01*
X111900Y198200D02*
X149200D01*
X109000Y201100D02*
X111900Y198200D01*
X109000Y201100D02*
Y220000D01*
X247000Y186000D02*
X258000Y197000D01*
X247000Y230000D02*
X250500D01*
X258000Y222500D01*
Y197000D02*
Y222500D01*
X56500Y186500D02*
X75000Y168000D01*
X149000D01*
X154500Y173500D01*
X307000Y165000D02*
X362000Y220000D01*
X49500Y191000D02*
X52000Y193500D01*
X94500D01*
X49500Y181000D02*
Y191000D01*
Y181000D02*
X65500Y165000D01*
X307000D01*
X219000Y225000D02*
X224000Y220000D01*
X169500Y216000D02*
X182000Y203500D01*
X184500D01*
X169500Y216000D02*
Y222000D01*
X172500Y225000D01*
X219000D01*
X22000D02*
X160000D01*
X164500Y220500D01*
Y203500D02*
Y220500D01*
X17000Y140000D02*
X22000Y145000D01*
X166200Y115200D02*
X174500Y123500D01*
X103300Y115200D02*
X166200D01*
X92800Y125700D02*
X103300Y115200D01*
X77300Y125700D02*
X92800D01*
X63000Y140000D02*
X77300Y125700D01*
X94500Y113500D02*
X114500Y93500D01*
X178000Y140000D02*
X189800Y128200D01*
Y111000D02*
Y128200D01*
X184300Y105500D02*
X189800Y111000D01*
X136500Y105500D02*
X184300D01*
X124500Y93500D02*
X136500Y105500D01*
X124500Y123500D02*
X132000Y131000D01*
Y140000D01*
X149200Y118200D02*
X154500Y123500D01*
X111900Y118200D02*
X149200D01*
X109000Y121100D02*
X111900Y118200D01*
X109000Y121100D02*
Y140000D01*
X247000Y106000D02*
X258000Y117000D01*
X247000Y150000D02*
X250500D01*
X258000Y142500D01*
Y117000D02*
Y142500D01*
X56500Y106500D02*
X75000Y88000D01*
X149000D01*
X154500Y93500D01*
X307000Y85000D02*
X362000Y140000D01*
X49500Y111000D02*
X52000Y113500D01*
X94500D01*
X49500Y101000D02*
Y111000D01*
Y101000D02*
X65500Y85000D01*
X307000D01*
X219000Y145000D02*
X224000Y140000D01*
X169500Y136000D02*
X182000Y123500D01*
X184500D01*
X169500Y136000D02*
Y142000D01*
X172500Y145000D01*
X219000D01*
X22000D02*
X160000D01*
X164500Y140500D01*
Y123500D02*
Y140500D01*
Y43500D02*
Y60500D01*
X160000Y65000D02*
X164500Y60500D01*
X22000Y65000D02*
X160000D01*
X172500D02*
X219000D01*
X169500Y62000D02*
X172500Y65000D01*
X169500Y56000D02*
Y62000D01*
X182000Y43500D02*
X184500D01*
X169500Y56000D02*
X182000Y43500D01*
X219000Y65000D02*
X224000Y60000D01*
X65500Y5000D02*
X307000D01*
X49500Y21000D02*
X65500Y5000D01*
X49500Y21000D02*
Y31000D01*
X52000Y33500D02*
X94500D01*
X49500Y31000D02*
X52000Y33500D01*
X307000Y5000D02*
X362000Y60000D01*
X149000Y8000D02*
X154500Y13500D01*
X75000Y8000D02*
X149000D01*
X56500Y26500D02*
X75000Y8000D01*
X258000Y37000D02*
Y62500D01*
X250500Y70000D02*
X258000Y62500D01*
X247000Y70000D02*
X250500D01*
X247000Y26000D02*
X258000Y37000D01*
X109000Y41100D02*
Y60000D01*
Y41100D02*
X111900Y38200D01*
X149200D01*
X154500Y43500D01*
X132000Y51000D02*
Y60000D01*
X124500Y43500D02*
X132000Y51000D01*
X124500Y13500D02*
X136500Y25500D01*
X184300D01*
X189800Y31000D01*
Y48200D01*
X178000Y60000D02*
X189800Y48200D01*
X94500Y33500D02*
X114500Y13500D01*
X63000Y60000D02*
X77300Y45700D01*
X92800D01*
X103300Y35200D01*
X166200D01*
X174500Y43500D01*
X17000Y60000D02*
X22000Y65000D01*
D11*
X200500Y320000D02*
D03*
Y240000D02*
D03*
Y160000D02*
D03*
Y80000D02*
D03*
D12*
X86500Y346500D02*
D03*
X56500D02*
D03*
X17000Y390000D02*
D03*
X40000D02*
D03*
X63000D02*
D03*
X86000D02*
D03*
X109000D02*
D03*
X132000D02*
D03*
X155000D02*
D03*
X178000D02*
D03*
X201000D02*
D03*
X224000D02*
D03*
X247000D02*
D03*
X270000D02*
D03*
X293000D02*
D03*
X316000D02*
D03*
X339000D02*
D03*
X362000D02*
D03*
X385000D02*
D03*
X247000Y346000D02*
D03*
X217000D02*
D03*
X286500Y351000D02*
D03*
X86500Y266500D02*
D03*
X56500D02*
D03*
X17000Y310000D02*
D03*
X40000D02*
D03*
X63000D02*
D03*
X86000D02*
D03*
X109000D02*
D03*
X132000D02*
D03*
X155000D02*
D03*
X178000D02*
D03*
X201000D02*
D03*
X224000D02*
D03*
X247000D02*
D03*
X270000D02*
D03*
X293000D02*
D03*
X316000D02*
D03*
X339000D02*
D03*
X362000D02*
D03*
X385000D02*
D03*
X247000Y266000D02*
D03*
X217000D02*
D03*
X286500Y271000D02*
D03*
X86500Y186500D02*
D03*
X56500D02*
D03*
X17000Y230000D02*
D03*
X40000D02*
D03*
X63000D02*
D03*
X86000D02*
D03*
X109000D02*
D03*
X132000D02*
D03*
X155000D02*
D03*
X178000D02*
D03*
X201000D02*
D03*
X224000D02*
D03*
X247000D02*
D03*
X270000D02*
D03*
X293000D02*
D03*
X316000D02*
D03*
X339000D02*
D03*
X362000D02*
D03*
X385000D02*
D03*
X247000Y186000D02*
D03*
X217000D02*
D03*
X286500Y191000D02*
D03*
X86500Y106500D02*
D03*
X56500D02*
D03*
X17000Y150000D02*
D03*
X40000D02*
D03*
X63000D02*
D03*
X86000D02*
D03*
X109000D02*
D03*
X132000D02*
D03*
X155000D02*
D03*
X178000D02*
D03*
X201000D02*
D03*
X224000D02*
D03*
X247000D02*
D03*
X270000D02*
D03*
X293000D02*
D03*
X316000D02*
D03*
X339000D02*
D03*
X362000D02*
D03*
X385000D02*
D03*
X247000Y106000D02*
D03*
X217000D02*
D03*
X286500Y111000D02*
D03*
X86500Y26500D02*
D03*
X56500D02*
D03*
X286500Y31000D02*
D03*
X247000Y26000D02*
D03*
X217000D02*
D03*
X201000Y70000D02*
D03*
X224000D02*
D03*
X178000D02*
D03*
X155000D02*
D03*
X132000D02*
D03*
X109000D02*
D03*
X86000D02*
D03*
X63000D02*
D03*
X40000D02*
D03*
X17000D02*
D03*
X385000D02*
D03*
X362000D02*
D03*
X339000D02*
D03*
X316000D02*
D03*
X293000D02*
D03*
X270000D02*
D03*
X247000D02*
D03*
D13*
X17000Y380000D02*
D03*
X40000D02*
D03*
X63000D02*
D03*
X86000D02*
D03*
X109000D02*
D03*
X132000D02*
D03*
X155000D02*
D03*
X178000D02*
D03*
X201000D02*
D03*
X224000D02*
D03*
X247000D02*
D03*
X270000D02*
D03*
X293000D02*
D03*
X316000D02*
D03*
X339000D02*
D03*
X362000D02*
D03*
X385000D02*
D03*
X286500Y341000D02*
D03*
X17000Y300000D02*
D03*
X40000D02*
D03*
X63000D02*
D03*
X86000D02*
D03*
X109000D02*
D03*
X132000D02*
D03*
X155000D02*
D03*
X178000D02*
D03*
X201000D02*
D03*
X224000D02*
D03*
X247000D02*
D03*
X270000D02*
D03*
X293000D02*
D03*
X316000D02*
D03*
X339000D02*
D03*
X362000D02*
D03*
X385000D02*
D03*
X286500Y261000D02*
D03*
X17000Y220000D02*
D03*
X40000D02*
D03*
X63000D02*
D03*
X86000D02*
D03*
X109000D02*
D03*
X132000D02*
D03*
X155000D02*
D03*
X178000D02*
D03*
X201000D02*
D03*
X224000D02*
D03*
X247000D02*
D03*
X270000D02*
D03*
X293000D02*
D03*
X316000D02*
D03*
X339000D02*
D03*
X362000D02*
D03*
X385000D02*
D03*
X286500Y181000D02*
D03*
X17000Y140000D02*
D03*
X40000D02*
D03*
X63000D02*
D03*
X86000D02*
D03*
X109000D02*
D03*
X132000D02*
D03*
X155000D02*
D03*
X178000D02*
D03*
X201000D02*
D03*
X224000D02*
D03*
X247000D02*
D03*
X270000D02*
D03*
X293000D02*
D03*
X316000D02*
D03*
X339000D02*
D03*
X362000D02*
D03*
X385000D02*
D03*
X286500Y101000D02*
D03*
Y21000D02*
D03*
X201000Y60000D02*
D03*
X224000D02*
D03*
X178000D02*
D03*
X155000D02*
D03*
X132000D02*
D03*
X109000D02*
D03*
X86000D02*
D03*
X63000D02*
D03*
X40000D02*
D03*
X17000D02*
D03*
X385000D02*
D03*
X362000D02*
D03*
X339000D02*
D03*
X316000D02*
D03*
X293000D02*
D03*
X270000D02*
D03*
X247000D02*
D03*
D14*
X184500Y363500D02*
D03*
Y283500D02*
D03*
Y203500D02*
D03*
Y123500D02*
D03*
Y43500D02*
D03*
D15*
X174500Y363500D02*
D03*
X164500D02*
D03*
X154500D02*
D03*
X144500D02*
D03*
X134500D02*
D03*
X114500D02*
D03*
Y333500D02*
D03*
X124500D02*
D03*
X134500D02*
D03*
X144500D02*
D03*
X154500D02*
D03*
X164500D02*
D03*
X174500D02*
D03*
X184500D02*
D03*
X174500Y283500D02*
D03*
X164500D02*
D03*
X154500D02*
D03*
X144500D02*
D03*
X134500D02*
D03*
X114500D02*
D03*
Y253500D02*
D03*
X124500D02*
D03*
X134500D02*
D03*
X144500D02*
D03*
X154500D02*
D03*
X164500D02*
D03*
X174500D02*
D03*
X184500D02*
D03*
X174500Y203500D02*
D03*
X164500D02*
D03*
X154500D02*
D03*
X144500D02*
D03*
X134500D02*
D03*
X114500D02*
D03*
Y173500D02*
D03*
X124500D02*
D03*
X134500D02*
D03*
X144500D02*
D03*
X154500D02*
D03*
X164500D02*
D03*
X174500D02*
D03*
X184500D02*
D03*
X174500Y123500D02*
D03*
X164500D02*
D03*
X154500D02*
D03*
X144500D02*
D03*
X134500D02*
D03*
X114500D02*
D03*
Y93500D02*
D03*
X124500D02*
D03*
X134500D02*
D03*
X144500D02*
D03*
X154500D02*
D03*
X164500D02*
D03*
X174500D02*
D03*
X184500D02*
D03*
X174500Y43500D02*
D03*
X164500D02*
D03*
X154500D02*
D03*
X144500D02*
D03*
X134500D02*
D03*
X114500D02*
D03*
Y13500D02*
D03*
X124500D02*
D03*
X134500D02*
D03*
X144500D02*
D03*
X154500D02*
D03*
X164500D02*
D03*
X174500D02*
D03*
X184500D02*
D03*
D16*
X124500Y363500D02*
D03*
Y283500D02*
D03*
Y203500D02*
D03*
Y123500D02*
D03*
Y43500D02*
D03*
D17*
X28500Y346000D02*
D03*
Y266000D02*
D03*
Y186000D02*
D03*
Y106000D02*
D03*
Y26000D02*
D03*
D18*
X38500Y346000D02*
D03*
Y266000D02*
D03*
Y186000D02*
D03*
Y106000D02*
D03*
Y26000D02*
D03*
M02*
