M48
;Layer_Color=9474304
;FILE_FORMAT=2:5
INCH,LZ
;TYPE=PLATED
T1F00S00C0.02756
T2F00S00C0.03543
%
T01
X00565Y00265
X00865
X01145Y00135
X01245
X01345
X01445
X01545
X01645
X01745
X01845
Y00435
X01745
X01645
X01545
X01445
X01345
X01245
X01145
X0217Y0026
X0247
X02865Y0021
Y0031
X0385Y006
Y007
Y014
Y015
X0362
Y014
X0339
Y015
X0316
Y014
X0293
Y015
X027
Y014
X0247
Y015
X0224
Y014
X0217Y0106
X0247
Y007
Y006
X0224
Y007
X027
Y006
X0293
Y007
X0316
Y006
X0339
Y007
X0362
Y006
X02865Y0101
Y0111
Y0181
Y0191
X0247Y0186
X0217
X01845Y01735
X01745
X01645
X01545
X01445
X01345
X01245
X01145
X0109Y015
Y014
X01145Y01235
X01245
X01345
X01445
X01545
X01645
X01745
X01845
X0178Y014
Y015
X0155
Y014
X0132
Y015
X0086
Y014
X0063
Y015
X00565Y01865
X00865
X01145Y02035
X01245
X01345
X01445
X01545
X01645
X01745
X01845
X0201Y015
Y014
X01845Y00935
X01745
X01645
X01545
X01445
X01345
X01245
X01145
X0109Y007
Y006
X0132
Y007
X0155
Y006
X0178
Y007
X0201
Y006
X0086
Y007
X0063
Y006
X00565Y01065
X00865
X004Y014
Y015
X0017
Y014
Y007
Y006
X004
Y007
Y022
Y023
X0017
Y022
Y03
Y031
X004
Y03
X0063
Y031
X0086
Y03
X0109
Y031
X0132
Y03
X01345Y02835
X01445
X01545
X01645
X01745
X01845
X0178Y03
Y031
X0155
Y03
X01545Y03335
X01445
X01345
X01245
X01145
Y03635
X01245
X01345
X01445
X01545
X01645
X01745
X01845
Y03335
X01745
X01645
X0201Y031
Y03
X01845Y02535
X01745
X01645
X01545
X01445
X01345
X01245
X01145
X0109Y023
Y022
X0086
Y023
X0063
Y022
X00565Y02665
X00865
X01145Y02835
X01245
X0132Y023
Y022
X0155
Y023
X0178
Y022
X0201
Y023
X00865Y03465
X00565
X0217Y0346
X0247
Y031
Y03
X0224
Y031
X027
Y03
X0293
Y031
X0316
Y03
X0339
Y031
X0362
Y03
Y023
Y022
X0339
Y023
X0316
Y022
X0293
Y023
X027
Y022
X0247
Y023
X0224
Y022
X0217Y0266
X0247
X02865Y0261
Y0271
Y0341
Y0351
X0385Y031
Y03
Y023
Y022
Y038
Y039
X0362
Y038
X0339
Y039
X0316
Y038
X0293
Y039
X027
Y038
X0247
Y039
X0224
Y038
X0201
Y039
X0178
Y038
X0155
Y039
X0132
Y038
X0109
Y039
X0086
Y038
X0063
Y039
X004
Y038
X0017
Y039
T02
X00285Y0026
X00385
Y0106
X00285
Y0186
X00385
Y0266
X00285
Y0346
X00385
M30
