G04 Layer_Color=32896*
%FSLAX25Y25*%
%MOIN*%
G70*
G01*
G75*
%ADD20C,0.00000*%
%ADD22C,0.00600*%
D20*
X188300Y349700D02*
G03*
X188300Y347300I0J-1200D01*
G01*
Y349700D02*
G03*
X188300Y347300I0J-1200D01*
G01*
Y269700D02*
G03*
X188300Y267300I0J-1200D01*
G01*
Y269700D02*
G03*
X188300Y267300I0J-1200D01*
G01*
Y189700D02*
G03*
X188300Y187300I0J-1200D01*
G01*
Y189700D02*
G03*
X188300Y187300I0J-1200D01*
G01*
Y109700D02*
G03*
X188300Y107300I0J-1200D01*
G01*
Y109700D02*
G03*
X188300Y107300I0J-1200D01*
G01*
Y29700D02*
G03*
X188300Y27300I0J-1200D01*
G01*
Y29700D02*
G03*
X188300Y27300I0J-1200D01*
G01*
D22*
X182300Y361500D02*
X186700D01*
Y365700D01*
X182300D02*
X186700D01*
X182300Y361500D02*
Y365700D01*
X172300Y361500D02*
X176700D01*
Y365700D01*
X172300D02*
X176700D01*
X172300Y361500D02*
Y365700D01*
X162300Y361500D02*
X166700D01*
Y365700D01*
X162300D02*
X166700D01*
X162300Y361500D02*
Y365700D01*
X152300Y361500D02*
X156700D01*
Y365700D01*
X152300D02*
X156700D01*
X152300Y361500D02*
Y365700D01*
X142300Y361500D02*
X146700D01*
Y365700D01*
X142300D02*
X146700D01*
X142300Y361500D02*
Y365700D01*
X132300Y361500D02*
X136700D01*
Y365700D01*
X132300D02*
X136700D01*
X132300Y361500D02*
Y365700D01*
X122300Y361500D02*
X126700D01*
Y365700D01*
X122300D02*
X126700D01*
X122300Y361500D02*
Y365700D01*
X112300Y361500D02*
X116700D01*
Y365700D01*
X112300D02*
X116700D01*
X112300Y361500D02*
Y365700D01*
Y335500D02*
X116700D01*
X112300Y331300D02*
Y335500D01*
Y331300D02*
X116700D01*
Y335500D01*
X122300D02*
X126700D01*
X122300Y331300D02*
Y335500D01*
Y331300D02*
X126700D01*
Y335500D01*
X132300D02*
X136700D01*
X132300Y331300D02*
Y335500D01*
Y331300D02*
X136700D01*
Y335500D01*
X142300D02*
X146700D01*
X142300Y331300D02*
Y335500D01*
Y331300D02*
X146700D01*
Y335500D01*
X152300D02*
X156700D01*
X152300Y331300D02*
Y335500D01*
Y331300D02*
X156700D01*
Y335500D01*
X162300D02*
X166700D01*
X162300Y331300D02*
Y335500D01*
Y331300D02*
X166700D01*
Y335500D01*
X172300D02*
X176700D01*
X172300Y331300D02*
Y335500D01*
Y331300D02*
X176700D01*
Y335500D01*
X182300D02*
X186700D01*
X182300Y331300D02*
Y335500D01*
Y331300D02*
X186700D01*
Y335500D01*
X110700D02*
Y361500D01*
Y335500D02*
X188300D01*
Y347300D01*
Y349700D01*
Y361500D01*
X110700D02*
X188300D01*
X182300D02*
X186700D01*
Y365700D01*
X182300D02*
X186700D01*
X182300Y361500D02*
Y365700D01*
X172300Y361500D02*
X176700D01*
Y365700D01*
X172300D02*
X176700D01*
X172300Y361500D02*
Y365700D01*
X162300Y361500D02*
X166700D01*
Y365700D01*
X162300D02*
X166700D01*
X162300Y361500D02*
Y365700D01*
X152300Y361500D02*
X156700D01*
Y365700D01*
X152300D02*
X156700D01*
X152300Y361500D02*
Y365700D01*
X142300Y361500D02*
X146700D01*
Y365700D01*
X142300D02*
X146700D01*
X142300Y361500D02*
Y365700D01*
X132300Y361500D02*
X136700D01*
Y365700D01*
X132300D02*
X136700D01*
X132300Y361500D02*
Y365700D01*
X122300Y361500D02*
X126700D01*
Y365700D01*
X122300D02*
X126700D01*
X122300Y361500D02*
Y365700D01*
X112300Y361500D02*
X116700D01*
Y365700D01*
X112300D02*
X116700D01*
X112300Y361500D02*
Y365700D01*
Y335500D02*
X116700D01*
X112300Y331300D02*
Y335500D01*
Y331300D02*
X116700D01*
Y335500D01*
X122300D02*
X126700D01*
X122300Y331300D02*
Y335500D01*
Y331300D02*
X126700D01*
Y335500D01*
X132300D02*
X136700D01*
X132300Y331300D02*
Y335500D01*
Y331300D02*
X136700D01*
Y335500D01*
X142300D02*
X146700D01*
X142300Y331300D02*
Y335500D01*
Y331300D02*
X146700D01*
Y335500D01*
X152300D02*
X156700D01*
X152300Y331300D02*
Y335500D01*
Y331300D02*
X156700D01*
Y335500D01*
X162300D02*
X166700D01*
X162300Y331300D02*
Y335500D01*
Y331300D02*
X166700D01*
Y335500D01*
X172300D02*
X176700D01*
X172300Y331300D02*
Y335500D01*
Y331300D02*
X176700D01*
Y335500D01*
X182300D02*
X186700D01*
X182300Y331300D02*
Y335500D01*
Y331300D02*
X186700D01*
Y335500D01*
X110700D02*
Y361500D01*
Y335500D02*
X188300D01*
Y347300D01*
Y349700D01*
Y361500D01*
X110700D02*
X188300D01*
X182300Y281500D02*
X186700D01*
Y285700D01*
X182300D02*
X186700D01*
X182300Y281500D02*
Y285700D01*
X172300Y281500D02*
X176700D01*
Y285700D01*
X172300D02*
X176700D01*
X172300Y281500D02*
Y285700D01*
X162300Y281500D02*
X166700D01*
Y285700D01*
X162300D02*
X166700D01*
X162300Y281500D02*
Y285700D01*
X152300Y281500D02*
X156700D01*
Y285700D01*
X152300D02*
X156700D01*
X152300Y281500D02*
Y285700D01*
X142300Y281500D02*
X146700D01*
Y285700D01*
X142300D02*
X146700D01*
X142300Y281500D02*
Y285700D01*
X132300Y281500D02*
X136700D01*
Y285700D01*
X132300D02*
X136700D01*
X132300Y281500D02*
Y285700D01*
X122300Y281500D02*
X126700D01*
Y285700D01*
X122300D02*
X126700D01*
X122300Y281500D02*
Y285700D01*
X112300Y281500D02*
X116700D01*
Y285700D01*
X112300D02*
X116700D01*
X112300Y281500D02*
Y285700D01*
Y255500D02*
X116700D01*
X112300Y251300D02*
Y255500D01*
Y251300D02*
X116700D01*
Y255500D01*
X122300D02*
X126700D01*
X122300Y251300D02*
Y255500D01*
Y251300D02*
X126700D01*
Y255500D01*
X132300D02*
X136700D01*
X132300Y251300D02*
Y255500D01*
Y251300D02*
X136700D01*
Y255500D01*
X142300D02*
X146700D01*
X142300Y251300D02*
Y255500D01*
Y251300D02*
X146700D01*
Y255500D01*
X152300D02*
X156700D01*
X152300Y251300D02*
Y255500D01*
Y251300D02*
X156700D01*
Y255500D01*
X162300D02*
X166700D01*
X162300Y251300D02*
Y255500D01*
Y251300D02*
X166700D01*
Y255500D01*
X172300D02*
X176700D01*
X172300Y251300D02*
Y255500D01*
Y251300D02*
X176700D01*
Y255500D01*
X182300D02*
X186700D01*
X182300Y251300D02*
Y255500D01*
Y251300D02*
X186700D01*
Y255500D01*
X110700D02*
Y281500D01*
Y255500D02*
X188300D01*
Y267300D01*
Y269700D01*
Y281500D01*
X110700D02*
X188300D01*
X182300D02*
X186700D01*
Y285700D01*
X182300D02*
X186700D01*
X182300Y281500D02*
Y285700D01*
X172300Y281500D02*
X176700D01*
Y285700D01*
X172300D02*
X176700D01*
X172300Y281500D02*
Y285700D01*
X162300Y281500D02*
X166700D01*
Y285700D01*
X162300D02*
X166700D01*
X162300Y281500D02*
Y285700D01*
X152300Y281500D02*
X156700D01*
Y285700D01*
X152300D02*
X156700D01*
X152300Y281500D02*
Y285700D01*
X142300Y281500D02*
X146700D01*
Y285700D01*
X142300D02*
X146700D01*
X142300Y281500D02*
Y285700D01*
X132300Y281500D02*
X136700D01*
Y285700D01*
X132300D02*
X136700D01*
X132300Y281500D02*
Y285700D01*
X122300Y281500D02*
X126700D01*
Y285700D01*
X122300D02*
X126700D01*
X122300Y281500D02*
Y285700D01*
X112300Y281500D02*
X116700D01*
Y285700D01*
X112300D02*
X116700D01*
X112300Y281500D02*
Y285700D01*
Y255500D02*
X116700D01*
X112300Y251300D02*
Y255500D01*
Y251300D02*
X116700D01*
Y255500D01*
X122300D02*
X126700D01*
X122300Y251300D02*
Y255500D01*
Y251300D02*
X126700D01*
Y255500D01*
X132300D02*
X136700D01*
X132300Y251300D02*
Y255500D01*
Y251300D02*
X136700D01*
Y255500D01*
X142300D02*
X146700D01*
X142300Y251300D02*
Y255500D01*
Y251300D02*
X146700D01*
Y255500D01*
X152300D02*
X156700D01*
X152300Y251300D02*
Y255500D01*
Y251300D02*
X156700D01*
Y255500D01*
X162300D02*
X166700D01*
X162300Y251300D02*
Y255500D01*
Y251300D02*
X166700D01*
Y255500D01*
X172300D02*
X176700D01*
X172300Y251300D02*
Y255500D01*
Y251300D02*
X176700D01*
Y255500D01*
X182300D02*
X186700D01*
X182300Y251300D02*
Y255500D01*
Y251300D02*
X186700D01*
Y255500D01*
X110700D02*
Y281500D01*
Y255500D02*
X188300D01*
Y267300D01*
Y269700D01*
Y281500D01*
X110700D02*
X188300D01*
X182300Y201500D02*
X186700D01*
Y205700D01*
X182300D02*
X186700D01*
X182300Y201500D02*
Y205700D01*
X172300Y201500D02*
X176700D01*
Y205700D01*
X172300D02*
X176700D01*
X172300Y201500D02*
Y205700D01*
X162300Y201500D02*
X166700D01*
Y205700D01*
X162300D02*
X166700D01*
X162300Y201500D02*
Y205700D01*
X152300Y201500D02*
X156700D01*
Y205700D01*
X152300D02*
X156700D01*
X152300Y201500D02*
Y205700D01*
X142300Y201500D02*
X146700D01*
Y205700D01*
X142300D02*
X146700D01*
X142300Y201500D02*
Y205700D01*
X132300Y201500D02*
X136700D01*
Y205700D01*
X132300D02*
X136700D01*
X132300Y201500D02*
Y205700D01*
X122300Y201500D02*
X126700D01*
Y205700D01*
X122300D02*
X126700D01*
X122300Y201500D02*
Y205700D01*
X112300Y201500D02*
X116700D01*
Y205700D01*
X112300D02*
X116700D01*
X112300Y201500D02*
Y205700D01*
Y175500D02*
X116700D01*
X112300Y171300D02*
Y175500D01*
Y171300D02*
X116700D01*
Y175500D01*
X122300D02*
X126700D01*
X122300Y171300D02*
Y175500D01*
Y171300D02*
X126700D01*
Y175500D01*
X132300D02*
X136700D01*
X132300Y171300D02*
Y175500D01*
Y171300D02*
X136700D01*
Y175500D01*
X142300D02*
X146700D01*
X142300Y171300D02*
Y175500D01*
Y171300D02*
X146700D01*
Y175500D01*
X152300D02*
X156700D01*
X152300Y171300D02*
Y175500D01*
Y171300D02*
X156700D01*
Y175500D01*
X162300D02*
X166700D01*
X162300Y171300D02*
Y175500D01*
Y171300D02*
X166700D01*
Y175500D01*
X172300D02*
X176700D01*
X172300Y171300D02*
Y175500D01*
Y171300D02*
X176700D01*
Y175500D01*
X182300D02*
X186700D01*
X182300Y171300D02*
Y175500D01*
Y171300D02*
X186700D01*
Y175500D01*
X110700D02*
Y201500D01*
Y175500D02*
X188300D01*
Y187300D01*
Y189700D01*
Y201500D01*
X110700D02*
X188300D01*
X182300D02*
X186700D01*
Y205700D01*
X182300D02*
X186700D01*
X182300Y201500D02*
Y205700D01*
X172300Y201500D02*
X176700D01*
Y205700D01*
X172300D02*
X176700D01*
X172300Y201500D02*
Y205700D01*
X162300Y201500D02*
X166700D01*
Y205700D01*
X162300D02*
X166700D01*
X162300Y201500D02*
Y205700D01*
X152300Y201500D02*
X156700D01*
Y205700D01*
X152300D02*
X156700D01*
X152300Y201500D02*
Y205700D01*
X142300Y201500D02*
X146700D01*
Y205700D01*
X142300D02*
X146700D01*
X142300Y201500D02*
Y205700D01*
X132300Y201500D02*
X136700D01*
Y205700D01*
X132300D02*
X136700D01*
X132300Y201500D02*
Y205700D01*
X122300Y201500D02*
X126700D01*
Y205700D01*
X122300D02*
X126700D01*
X122300Y201500D02*
Y205700D01*
X112300Y201500D02*
X116700D01*
Y205700D01*
X112300D02*
X116700D01*
X112300Y201500D02*
Y205700D01*
Y175500D02*
X116700D01*
X112300Y171300D02*
Y175500D01*
Y171300D02*
X116700D01*
Y175500D01*
X122300D02*
X126700D01*
X122300Y171300D02*
Y175500D01*
Y171300D02*
X126700D01*
Y175500D01*
X132300D02*
X136700D01*
X132300Y171300D02*
Y175500D01*
Y171300D02*
X136700D01*
Y175500D01*
X142300D02*
X146700D01*
X142300Y171300D02*
Y175500D01*
Y171300D02*
X146700D01*
Y175500D01*
X152300D02*
X156700D01*
X152300Y171300D02*
Y175500D01*
Y171300D02*
X156700D01*
Y175500D01*
X162300D02*
X166700D01*
X162300Y171300D02*
Y175500D01*
Y171300D02*
X166700D01*
Y175500D01*
X172300D02*
X176700D01*
X172300Y171300D02*
Y175500D01*
Y171300D02*
X176700D01*
Y175500D01*
X182300D02*
X186700D01*
X182300Y171300D02*
Y175500D01*
Y171300D02*
X186700D01*
Y175500D01*
X110700D02*
Y201500D01*
Y175500D02*
X188300D01*
Y187300D01*
Y189700D01*
Y201500D01*
X110700D02*
X188300D01*
X182300Y121500D02*
X186700D01*
Y125700D01*
X182300D02*
X186700D01*
X182300Y121500D02*
Y125700D01*
X172300Y121500D02*
X176700D01*
Y125700D01*
X172300D02*
X176700D01*
X172300Y121500D02*
Y125700D01*
X162300Y121500D02*
X166700D01*
Y125700D01*
X162300D02*
X166700D01*
X162300Y121500D02*
Y125700D01*
X152300Y121500D02*
X156700D01*
Y125700D01*
X152300D02*
X156700D01*
X152300Y121500D02*
Y125700D01*
X142300Y121500D02*
X146700D01*
Y125700D01*
X142300D02*
X146700D01*
X142300Y121500D02*
Y125700D01*
X132300Y121500D02*
X136700D01*
Y125700D01*
X132300D02*
X136700D01*
X132300Y121500D02*
Y125700D01*
X122300Y121500D02*
X126700D01*
Y125700D01*
X122300D02*
X126700D01*
X122300Y121500D02*
Y125700D01*
X112300Y121500D02*
X116700D01*
Y125700D01*
X112300D02*
X116700D01*
X112300Y121500D02*
Y125700D01*
Y95500D02*
X116700D01*
X112300Y91300D02*
Y95500D01*
Y91300D02*
X116700D01*
Y95500D01*
X122300D02*
X126700D01*
X122300Y91300D02*
Y95500D01*
Y91300D02*
X126700D01*
Y95500D01*
X132300D02*
X136700D01*
X132300Y91300D02*
Y95500D01*
Y91300D02*
X136700D01*
Y95500D01*
X142300D02*
X146700D01*
X142300Y91300D02*
Y95500D01*
Y91300D02*
X146700D01*
Y95500D01*
X152300D02*
X156700D01*
X152300Y91300D02*
Y95500D01*
Y91300D02*
X156700D01*
Y95500D01*
X162300D02*
X166700D01*
X162300Y91300D02*
Y95500D01*
Y91300D02*
X166700D01*
Y95500D01*
X172300D02*
X176700D01*
X172300Y91300D02*
Y95500D01*
Y91300D02*
X176700D01*
Y95500D01*
X182300D02*
X186700D01*
X182300Y91300D02*
Y95500D01*
Y91300D02*
X186700D01*
Y95500D01*
X110700D02*
Y121500D01*
Y95500D02*
X188300D01*
Y107300D01*
Y109700D01*
Y121500D01*
X110700D02*
X188300D01*
X182300D02*
X186700D01*
Y125700D01*
X182300D02*
X186700D01*
X182300Y121500D02*
Y125700D01*
X172300Y121500D02*
X176700D01*
Y125700D01*
X172300D02*
X176700D01*
X172300Y121500D02*
Y125700D01*
X162300Y121500D02*
X166700D01*
Y125700D01*
X162300D02*
X166700D01*
X162300Y121500D02*
Y125700D01*
X152300Y121500D02*
X156700D01*
Y125700D01*
X152300D02*
X156700D01*
X152300Y121500D02*
Y125700D01*
X142300Y121500D02*
X146700D01*
Y125700D01*
X142300D02*
X146700D01*
X142300Y121500D02*
Y125700D01*
X132300Y121500D02*
X136700D01*
Y125700D01*
X132300D02*
X136700D01*
X132300Y121500D02*
Y125700D01*
X122300Y121500D02*
X126700D01*
Y125700D01*
X122300D02*
X126700D01*
X122300Y121500D02*
Y125700D01*
X112300Y121500D02*
X116700D01*
Y125700D01*
X112300D02*
X116700D01*
X112300Y121500D02*
Y125700D01*
Y95500D02*
X116700D01*
X112300Y91300D02*
Y95500D01*
Y91300D02*
X116700D01*
Y95500D01*
X122300D02*
X126700D01*
X122300Y91300D02*
Y95500D01*
Y91300D02*
X126700D01*
Y95500D01*
X132300D02*
X136700D01*
X132300Y91300D02*
Y95500D01*
Y91300D02*
X136700D01*
Y95500D01*
X142300D02*
X146700D01*
X142300Y91300D02*
Y95500D01*
Y91300D02*
X146700D01*
Y95500D01*
X152300D02*
X156700D01*
X152300Y91300D02*
Y95500D01*
Y91300D02*
X156700D01*
Y95500D01*
X162300D02*
X166700D01*
X162300Y91300D02*
Y95500D01*
Y91300D02*
X166700D01*
Y95500D01*
X172300D02*
X176700D01*
X172300Y91300D02*
Y95500D01*
Y91300D02*
X176700D01*
Y95500D01*
X182300D02*
X186700D01*
X182300Y91300D02*
Y95500D01*
Y91300D02*
X186700D01*
Y95500D01*
X110700D02*
Y121500D01*
Y95500D02*
X188300D01*
Y107300D01*
Y109700D01*
Y121500D01*
X110700D02*
X188300D01*
X182300Y41500D02*
X186700D01*
Y45700D01*
X182300D02*
X186700D01*
X182300Y41500D02*
Y45700D01*
X172300Y41500D02*
X176700D01*
Y45700D01*
X172300D02*
X176700D01*
X172300Y41500D02*
Y45700D01*
X162300Y41500D02*
X166700D01*
Y45700D01*
X162300D02*
X166700D01*
X162300Y41500D02*
Y45700D01*
X152300Y41500D02*
X156700D01*
Y45700D01*
X152300D02*
X156700D01*
X152300Y41500D02*
Y45700D01*
X142300Y41500D02*
X146700D01*
Y45700D01*
X142300D02*
X146700D01*
X142300Y41500D02*
Y45700D01*
X132300Y41500D02*
X136700D01*
Y45700D01*
X132300D02*
X136700D01*
X132300Y41500D02*
Y45700D01*
X122300Y41500D02*
X126700D01*
Y45700D01*
X122300D02*
X126700D01*
X122300Y41500D02*
Y45700D01*
X112300Y41500D02*
X116700D01*
Y45700D01*
X112300D02*
X116700D01*
X112300Y41500D02*
Y45700D01*
Y15500D02*
X116700D01*
X112300Y11300D02*
Y15500D01*
Y11300D02*
X116700D01*
Y15500D01*
X122300D02*
X126700D01*
X122300Y11300D02*
Y15500D01*
Y11300D02*
X126700D01*
Y15500D01*
X132300D02*
X136700D01*
X132300Y11300D02*
Y15500D01*
Y11300D02*
X136700D01*
Y15500D01*
X142300D02*
X146700D01*
X142300Y11300D02*
Y15500D01*
Y11300D02*
X146700D01*
Y15500D01*
X152300D02*
X156700D01*
X152300Y11300D02*
Y15500D01*
Y11300D02*
X156700D01*
Y15500D01*
X162300D02*
X166700D01*
X162300Y11300D02*
Y15500D01*
Y11300D02*
X166700D01*
Y15500D01*
X172300D02*
X176700D01*
X172300Y11300D02*
Y15500D01*
Y11300D02*
X176700D01*
Y15500D01*
X182300D02*
X186700D01*
X182300Y11300D02*
Y15500D01*
Y11300D02*
X186700D01*
Y15500D01*
X110700D02*
Y41500D01*
Y15500D02*
X188300D01*
Y27300D01*
Y29700D01*
Y41500D01*
X110700D02*
X188300D01*
X182300D02*
X186700D01*
Y45700D01*
X182300D02*
X186700D01*
X182300Y41500D02*
Y45700D01*
X172300Y41500D02*
X176700D01*
Y45700D01*
X172300D02*
X176700D01*
X172300Y41500D02*
Y45700D01*
X162300Y41500D02*
X166700D01*
Y45700D01*
X162300D02*
X166700D01*
X162300Y41500D02*
Y45700D01*
X152300Y41500D02*
X156700D01*
Y45700D01*
X152300D02*
X156700D01*
X152300Y41500D02*
Y45700D01*
X142300Y41500D02*
X146700D01*
Y45700D01*
X142300D02*
X146700D01*
X142300Y41500D02*
Y45700D01*
X132300Y41500D02*
X136700D01*
Y45700D01*
X132300D02*
X136700D01*
X132300Y41500D02*
Y45700D01*
X122300Y41500D02*
X126700D01*
Y45700D01*
X122300D02*
X126700D01*
X122300Y41500D02*
Y45700D01*
X112300Y41500D02*
X116700D01*
Y45700D01*
X112300D02*
X116700D01*
X112300Y41500D02*
Y45700D01*
Y15500D02*
X116700D01*
X112300Y11300D02*
Y15500D01*
Y11300D02*
X116700D01*
Y15500D01*
X122300D02*
X126700D01*
X122300Y11300D02*
Y15500D01*
Y11300D02*
X126700D01*
Y15500D01*
X132300D02*
X136700D01*
X132300Y11300D02*
Y15500D01*
Y11300D02*
X136700D01*
Y15500D01*
X142300D02*
X146700D01*
X142300Y11300D02*
Y15500D01*
Y11300D02*
X146700D01*
Y15500D01*
X152300D02*
X156700D01*
X152300Y11300D02*
Y15500D01*
Y11300D02*
X156700D01*
Y15500D01*
X162300D02*
X166700D01*
X162300Y11300D02*
Y15500D01*
Y11300D02*
X166700D01*
Y15500D01*
X172300D02*
X176700D01*
X172300Y11300D02*
Y15500D01*
Y11300D02*
X176700D01*
Y15500D01*
X182300D02*
X186700D01*
X182300Y11300D02*
Y15500D01*
Y11300D02*
X186700D01*
Y15500D01*
X110700D02*
Y41500D01*
Y15500D02*
X188300D01*
Y27300D01*
Y29700D01*
Y41500D01*
X110700D02*
X188300D01*
M02*
