G04 Layer_Color=32896*
%FSLAX25Y25*%
%MOIN*%
G70*
G01*
G75*
%ADD24C,0.02362*%
D24*
X92500Y326500D02*
Y334371D01*
X88564Y338307D01*
X84628Y334371D01*
Y326500D01*
Y332404D01*
X92500D01*
X80693Y326500D02*
Y328468D01*
X78725D01*
Y326500D01*
X80693D01*
X70854Y338307D02*
X66918D01*
X68886D01*
Y326500D01*
X70854D01*
X66918D01*
X49207D02*
Y338307D01*
X43303D01*
X41335Y336339D01*
Y332404D01*
X43303Y330436D01*
X49207D01*
X29528Y336339D02*
X31496Y338307D01*
X35432D01*
X37400Y336339D01*
Y328468D01*
X35432Y326500D01*
X31496D01*
X29528Y328468D01*
X25592Y338307D02*
Y326500D01*
X19689D01*
X17721Y328468D01*
Y330436D01*
X19689Y332404D01*
X25592D01*
X19689D01*
X17721Y334371D01*
Y336339D01*
X19689Y338307D01*
X25592D01*
X92500Y246500D02*
Y254372D01*
X88564Y258307D01*
X84628Y254372D01*
Y246500D01*
Y252404D01*
X92500D01*
X80693Y246500D02*
Y248468D01*
X78725D01*
Y246500D01*
X80693D01*
X70854Y258307D02*
X66918D01*
X68886D01*
Y246500D01*
X70854D01*
X66918D01*
X49207D02*
Y258307D01*
X43303D01*
X41335Y256339D01*
Y252404D01*
X43303Y250436D01*
X49207D01*
X29528Y256339D02*
X31496Y258307D01*
X35432D01*
X37400Y256339D01*
Y248468D01*
X35432Y246500D01*
X31496D01*
X29528Y248468D01*
X25592Y258307D02*
Y246500D01*
X19689D01*
X17721Y248468D01*
Y250436D01*
X19689Y252404D01*
X25592D01*
X19689D01*
X17721Y254372D01*
Y256339D01*
X19689Y258307D01*
X25592D01*
X92500Y166500D02*
Y174372D01*
X88564Y178307D01*
X84628Y174372D01*
Y166500D01*
Y172404D01*
X92500D01*
X80693Y166500D02*
Y168468D01*
X78725D01*
Y166500D01*
X80693D01*
X70854Y178307D02*
X66918D01*
X68886D01*
Y166500D01*
X70854D01*
X66918D01*
X49207D02*
Y178307D01*
X43303D01*
X41335Y176339D01*
Y172404D01*
X43303Y170436D01*
X49207D01*
X29528Y176339D02*
X31496Y178307D01*
X35432D01*
X37400Y176339D01*
Y168468D01*
X35432Y166500D01*
X31496D01*
X29528Y168468D01*
X25592Y178307D02*
Y166500D01*
X19689D01*
X17721Y168468D01*
Y170436D01*
X19689Y172404D01*
X25592D01*
X19689D01*
X17721Y174372D01*
Y176339D01*
X19689Y178307D01*
X25592D01*
X92500Y86500D02*
Y94371D01*
X88564Y98307D01*
X84628Y94371D01*
Y86500D01*
Y92404D01*
X92500D01*
X80693Y86500D02*
Y88468D01*
X78725D01*
Y86500D01*
X80693D01*
X70854Y98307D02*
X66918D01*
X68886D01*
Y86500D01*
X70854D01*
X66918D01*
X49207D02*
Y98307D01*
X43303D01*
X41335Y96339D01*
Y92404D01*
X43303Y90436D01*
X49207D01*
X29528Y96339D02*
X31496Y98307D01*
X35432D01*
X37400Y96339D01*
Y88468D01*
X35432Y86500D01*
X31496D01*
X29528Y88468D01*
X25592Y98307D02*
Y86500D01*
X19689D01*
X17721Y88468D01*
Y90436D01*
X19689Y92404D01*
X25592D01*
X19689D01*
X17721Y94371D01*
Y96339D01*
X19689Y98307D01*
X25592D01*
X92500Y6500D02*
Y14371D01*
X88564Y18307D01*
X84628Y14371D01*
Y6500D01*
Y12404D01*
X92500D01*
X80693Y6500D02*
Y8468D01*
X78725D01*
Y6500D01*
X80693D01*
X70854Y18307D02*
X66918D01*
X68886D01*
Y6500D01*
X70854D01*
X66918D01*
X49207D02*
Y18307D01*
X43303D01*
X41335Y16339D01*
Y12404D01*
X43303Y10436D01*
X49207D01*
X29528Y16339D02*
X31496Y18307D01*
X35432D01*
X37400Y16339D01*
Y8468D01*
X35432Y6500D01*
X31496D01*
X29528Y8468D01*
X25592Y18307D02*
Y6500D01*
X19689D01*
X17721Y8468D01*
Y10436D01*
X19689Y12404D01*
X25592D01*
X19689D01*
X17721Y14371D01*
Y16339D01*
X19689Y18307D01*
X25592D01*
M02*
