G04 Layer_Color=65535*
%FSLAX25Y25*%
%MOIN*%
G70*
G01*
G75*
%ADD19C,0.01000*%
%ADD20C,0.00000*%
%ADD21C,0.00787*%
%ADD22C,0.00600*%
%ADD23C,0.01181*%
%ADD24C,0.02362*%
%ADD25C,0.01575*%
D19*
X27433Y385000D02*
G03*
X27433Y385000I-10433J0D01*
G01*
X50433D02*
G03*
X50433Y385000I-10433J0D01*
G01*
X73433D02*
G03*
X73433Y385000I-10433J0D01*
G01*
X96433D02*
G03*
X96433Y385000I-10433J0D01*
G01*
X119433D02*
G03*
X119433Y385000I-10433J0D01*
G01*
X142433D02*
G03*
X142433Y385000I-10433J0D01*
G01*
X165433D02*
G03*
X165433Y385000I-10433J0D01*
G01*
X188433D02*
G03*
X188433Y385000I-10433J0D01*
G01*
X211433D02*
G03*
X211433Y385000I-10433J0D01*
G01*
X234433D02*
G03*
X234433Y385000I-10433J0D01*
G01*
X257433D02*
G03*
X257433Y385000I-10433J0D01*
G01*
X280433D02*
G03*
X280433Y385000I-10433J0D01*
G01*
X303433D02*
G03*
X303433Y385000I-10433J0D01*
G01*
X326433D02*
G03*
X326433Y385000I-10433J0D01*
G01*
X349433D02*
G03*
X349433Y385000I-10433J0D01*
G01*
X372433D02*
G03*
X372433Y385000I-10433J0D01*
G01*
X395433D02*
G03*
X395433Y385000I-10433J0D01*
G01*
X296933Y346000D02*
G03*
X296933Y346000I-10433J0D01*
G01*
X188011Y352837D02*
G03*
X188011Y344163I289J-4337D01*
G01*
X27433Y305000D02*
G03*
X27433Y305000I-10433J0D01*
G01*
X50433D02*
G03*
X50433Y305000I-10433J0D01*
G01*
X73433D02*
G03*
X73433Y305000I-10433J0D01*
G01*
X96433D02*
G03*
X96433Y305000I-10433J0D01*
G01*
X119433D02*
G03*
X119433Y305000I-10433J0D01*
G01*
X142433D02*
G03*
X142433Y305000I-10433J0D01*
G01*
X165433D02*
G03*
X165433Y305000I-10433J0D01*
G01*
X188433D02*
G03*
X188433Y305000I-10433J0D01*
G01*
X211433D02*
G03*
X211433Y305000I-10433J0D01*
G01*
X234433D02*
G03*
X234433Y305000I-10433J0D01*
G01*
X257433D02*
G03*
X257433Y305000I-10433J0D01*
G01*
X280433D02*
G03*
X280433Y305000I-10433J0D01*
G01*
X303433D02*
G03*
X303433Y305000I-10433J0D01*
G01*
X326433D02*
G03*
X326433Y305000I-10433J0D01*
G01*
X349433D02*
G03*
X349433Y305000I-10433J0D01*
G01*
X372433D02*
G03*
X372433Y305000I-10433J0D01*
G01*
X395433D02*
G03*
X395433Y305000I-10433J0D01*
G01*
X296933Y266000D02*
G03*
X296933Y266000I-10433J0D01*
G01*
X188011Y272837D02*
G03*
X188011Y264163I289J-4337D01*
G01*
X27433Y225000D02*
G03*
X27433Y225000I-10433J0D01*
G01*
X50433D02*
G03*
X50433Y225000I-10433J0D01*
G01*
X73433D02*
G03*
X73433Y225000I-10433J0D01*
G01*
X96433D02*
G03*
X96433Y225000I-10433J0D01*
G01*
X119433D02*
G03*
X119433Y225000I-10433J0D01*
G01*
X142433D02*
G03*
X142433Y225000I-10433J0D01*
G01*
X165433D02*
G03*
X165433Y225000I-10433J0D01*
G01*
X188433D02*
G03*
X188433Y225000I-10433J0D01*
G01*
X211433D02*
G03*
X211433Y225000I-10433J0D01*
G01*
X234433D02*
G03*
X234433Y225000I-10433J0D01*
G01*
X257433D02*
G03*
X257433Y225000I-10433J0D01*
G01*
X280433D02*
G03*
X280433Y225000I-10433J0D01*
G01*
X303433D02*
G03*
X303433Y225000I-10433J0D01*
G01*
X326433D02*
G03*
X326433Y225000I-10433J0D01*
G01*
X349433D02*
G03*
X349433Y225000I-10433J0D01*
G01*
X372433D02*
G03*
X372433Y225000I-10433J0D01*
G01*
X395433D02*
G03*
X395433Y225000I-10433J0D01*
G01*
X296933Y186000D02*
G03*
X296933Y186000I-10433J0D01*
G01*
X188011Y192837D02*
G03*
X188011Y184163I289J-4337D01*
G01*
X27433Y145000D02*
G03*
X27433Y145000I-10433J0D01*
G01*
X50433D02*
G03*
X50433Y145000I-10433J0D01*
G01*
X73433D02*
G03*
X73433Y145000I-10433J0D01*
G01*
X96433D02*
G03*
X96433Y145000I-10433J0D01*
G01*
X119433D02*
G03*
X119433Y145000I-10433J0D01*
G01*
X142433D02*
G03*
X142433Y145000I-10433J0D01*
G01*
X165433D02*
G03*
X165433Y145000I-10433J0D01*
G01*
X188433D02*
G03*
X188433Y145000I-10433J0D01*
G01*
X211433D02*
G03*
X211433Y145000I-10433J0D01*
G01*
X234433D02*
G03*
X234433Y145000I-10433J0D01*
G01*
X257433D02*
G03*
X257433Y145000I-10433J0D01*
G01*
X280433D02*
G03*
X280433Y145000I-10433J0D01*
G01*
X303433D02*
G03*
X303433Y145000I-10433J0D01*
G01*
X326433D02*
G03*
X326433Y145000I-10433J0D01*
G01*
X349433D02*
G03*
X349433Y145000I-10433J0D01*
G01*
X372433D02*
G03*
X372433Y145000I-10433J0D01*
G01*
X395433D02*
G03*
X395433Y145000I-10433J0D01*
G01*
X296933Y106000D02*
G03*
X296933Y106000I-10433J0D01*
G01*
X188011Y112837D02*
G03*
X188011Y104163I289J-4337D01*
G01*
Y32837D02*
G03*
X188011Y24163I289J-4337D01*
G01*
X296933Y26000D02*
G03*
X296933Y26000I-10433J0D01*
G01*
X211433Y65000D02*
G03*
X211433Y65000I-10433J0D01*
G01*
X234433D02*
G03*
X234433Y65000I-10433J0D01*
G01*
X188433D02*
G03*
X188433Y65000I-10433J0D01*
G01*
X165433D02*
G03*
X165433Y65000I-10433J0D01*
G01*
X142433D02*
G03*
X142433Y65000I-10433J0D01*
G01*
X119433D02*
G03*
X119433Y65000I-10433J0D01*
G01*
X96433D02*
G03*
X96433Y65000I-10433J0D01*
G01*
X73433D02*
G03*
X73433Y65000I-10433J0D01*
G01*
X50433D02*
G03*
X50433Y65000I-10433J0D01*
G01*
X27433D02*
G03*
X27433Y65000I-10433J0D01*
G01*
X395433D02*
G03*
X395433Y65000I-10433J0D01*
G01*
X372433D02*
G03*
X372433Y65000I-10433J0D01*
G01*
X349433D02*
G03*
X349433Y65000I-10433J0D01*
G01*
X326433D02*
G03*
X326433Y65000I-10433J0D01*
G01*
X303433D02*
G03*
X303433Y65000I-10433J0D01*
G01*
X280433D02*
G03*
X280433Y65000I-10433J0D01*
G01*
X257433D02*
G03*
X257433Y65000I-10433J0D01*
G01*
X2500Y322500D02*
Y397500D01*
X399000D01*
Y322500D02*
Y397500D01*
X2500Y322500D02*
X399000D01*
X2500Y242500D02*
Y317500D01*
X399000D01*
Y242500D02*
Y317500D01*
X2500Y242500D02*
X399000D01*
X2500Y162500D02*
Y237500D01*
X399000D01*
Y162500D02*
Y237500D01*
X2500Y162500D02*
X399000D01*
X2500Y82500D02*
Y157500D01*
X399000D01*
Y82500D02*
Y157500D01*
X2500Y82500D02*
X399000D01*
X2500Y2500D02*
X399000D01*
Y77500D01*
X2500D02*
X399000D01*
X2500Y2500D02*
Y77500D01*
X8500Y380999D02*
X12499D01*
X10499Y382998D02*
Y379000D01*
X32000Y380499D02*
X35999D01*
X33999Y382498D02*
Y378500D01*
X55000Y380499D02*
X58999D01*
X56999Y382498D02*
Y378500D01*
X78000Y380499D02*
X81999D01*
X79999Y382498D02*
Y378500D01*
X101000Y380999D02*
X104999D01*
X102999Y382998D02*
Y379000D01*
X124000Y380999D02*
X127999D01*
X125999Y382998D02*
Y379000D01*
X147000Y380999D02*
X150999D01*
X148999Y382998D02*
Y379000D01*
X170000Y380499D02*
X173999D01*
X171999Y382498D02*
Y378500D01*
X193000Y380499D02*
X196999D01*
X194999Y382498D02*
Y378500D01*
X216000Y380999D02*
X219999D01*
X217999Y382998D02*
Y379000D01*
X239000Y381499D02*
X242999D01*
X240999Y383498D02*
Y379500D01*
X262000Y381499D02*
X265999D01*
X263999Y383498D02*
Y379500D01*
X285000Y380999D02*
X288999D01*
X286999Y382998D02*
Y379000D01*
X308000Y380999D02*
X311999D01*
X309999Y382998D02*
Y379000D01*
X331000Y380999D02*
X334999D01*
X332999Y382998D02*
Y379000D01*
X354000Y380999D02*
X357999D01*
X355999Y382998D02*
Y379000D01*
X377000Y380999D02*
X380999D01*
X378999Y382998D02*
Y379000D01*
X26000Y354999D02*
X29999D01*
X27999Y356998D02*
Y353000D01*
X8500Y388999D02*
X12499D01*
X32000Y389499D02*
X35999D01*
X55000Y388999D02*
X58999D01*
X78000D02*
X81999D01*
X101000D02*
X104999D01*
X124000D02*
X127999D01*
X147000D02*
X150999D01*
X170000D02*
X173999D01*
X193000D02*
X196999D01*
X216000D02*
X219999D01*
X239000D02*
X242999D01*
X262500D02*
X266499D01*
X285000D02*
X288999D01*
X308000D02*
X311999D01*
X331000D02*
X334999D01*
X354500D02*
X358499D01*
X377000D02*
X380999D01*
X36500Y354999D02*
X40499D01*
X278500Y341999D02*
X282499D01*
X280499Y343998D02*
Y340000D01*
X278500Y349999D02*
X282499D01*
X8500Y300999D02*
X12499D01*
X10499Y302998D02*
Y299000D01*
X32000Y300499D02*
X35999D01*
X33999Y302498D02*
Y298500D01*
X55000Y300499D02*
X58999D01*
X56999Y302498D02*
Y298500D01*
X78000Y300499D02*
X81999D01*
X79999Y302498D02*
Y298500D01*
X101000Y300999D02*
X104999D01*
X102999Y302998D02*
Y299000D01*
X124000Y300999D02*
X127999D01*
X125999Y302998D02*
Y299000D01*
X147000Y300999D02*
X150999D01*
X148999Y302998D02*
Y299000D01*
X170000Y300499D02*
X173999D01*
X171999Y302498D02*
Y298500D01*
X193000Y300499D02*
X196999D01*
X194999Y302498D02*
Y298500D01*
X216000Y300999D02*
X219999D01*
X217999Y302998D02*
Y299000D01*
X239000Y301499D02*
X242999D01*
X240999Y303498D02*
Y299500D01*
X262000Y301499D02*
X265999D01*
X263999Y303498D02*
Y299500D01*
X285000Y300999D02*
X288999D01*
X286999Y302998D02*
Y299000D01*
X308000Y300999D02*
X311999D01*
X309999Y302998D02*
Y299000D01*
X331000Y300999D02*
X334999D01*
X332999Y302998D02*
Y299000D01*
X354000Y300999D02*
X357999D01*
X355999Y302998D02*
Y299000D01*
X377000Y300999D02*
X380999D01*
X378999Y302998D02*
Y299000D01*
X26000Y274999D02*
X29999D01*
X27999Y276998D02*
Y273000D01*
X8500Y308999D02*
X12499D01*
X32000Y309499D02*
X35999D01*
X55000Y308999D02*
X58999D01*
X78000D02*
X81999D01*
X101000D02*
X104999D01*
X124000D02*
X127999D01*
X147000D02*
X150999D01*
X170000D02*
X173999D01*
X193000D02*
X196999D01*
X216000D02*
X219999D01*
X239000D02*
X242999D01*
X262500D02*
X266499D01*
X285000D02*
X288999D01*
X308000D02*
X311999D01*
X331000D02*
X334999D01*
X354500D02*
X358499D01*
X377000D02*
X380999D01*
X36500Y274999D02*
X40499D01*
X278500Y261999D02*
X282499D01*
X280499Y263998D02*
Y260000D01*
X278500Y269999D02*
X282499D01*
X8500Y220999D02*
X12499D01*
X10499Y222998D02*
Y219000D01*
X32000Y220499D02*
X35999D01*
X33999Y222498D02*
Y218500D01*
X55000Y220499D02*
X58999D01*
X56999Y222498D02*
Y218500D01*
X78000Y220499D02*
X81999D01*
X79999Y222498D02*
Y218500D01*
X101000Y220999D02*
X104999D01*
X102999Y222998D02*
Y219000D01*
X124000Y220999D02*
X127999D01*
X125999Y222998D02*
Y219000D01*
X147000Y220999D02*
X150999D01*
X148999Y222998D02*
Y219000D01*
X170000Y220499D02*
X173999D01*
X171999Y222498D02*
Y218500D01*
X193000Y220499D02*
X196999D01*
X194999Y222498D02*
Y218500D01*
X216000Y220999D02*
X219999D01*
X217999Y222998D02*
Y219000D01*
X239000Y221499D02*
X242999D01*
X240999Y223498D02*
Y219500D01*
X262000Y221499D02*
X265999D01*
X263999Y223498D02*
Y219500D01*
X285000Y220999D02*
X288999D01*
X286999Y222998D02*
Y219000D01*
X308000Y220999D02*
X311999D01*
X309999Y222998D02*
Y219000D01*
X331000Y220999D02*
X334999D01*
X332999Y222998D02*
Y219000D01*
X354000Y220999D02*
X357999D01*
X355999Y222998D02*
Y219000D01*
X377000Y220999D02*
X380999D01*
X378999Y222998D02*
Y219000D01*
X26000Y194999D02*
X29999D01*
X27999Y196998D02*
Y193000D01*
X8500Y228999D02*
X12499D01*
X32000Y229499D02*
X35999D01*
X55000Y228999D02*
X58999D01*
X78000D02*
X81999D01*
X101000D02*
X104999D01*
X124000D02*
X127999D01*
X147000D02*
X150999D01*
X170000D02*
X173999D01*
X193000D02*
X196999D01*
X216000D02*
X219999D01*
X239000D02*
X242999D01*
X262500D02*
X266499D01*
X285000D02*
X288999D01*
X308000D02*
X311999D01*
X331000D02*
X334999D01*
X354500D02*
X358499D01*
X377000D02*
X380999D01*
X36500Y194999D02*
X40499D01*
X278500Y181999D02*
X282499D01*
X280499Y183998D02*
Y180000D01*
X278500Y189999D02*
X282499D01*
X8500Y140999D02*
X12499D01*
X10499Y142998D02*
Y139000D01*
X32000Y140499D02*
X35999D01*
X33999Y142498D02*
Y138500D01*
X55000Y140499D02*
X58999D01*
X56999Y142498D02*
Y138500D01*
X78000Y140499D02*
X81999D01*
X79999Y142498D02*
Y138500D01*
X101000Y140999D02*
X104999D01*
X102999Y142998D02*
Y139000D01*
X124000Y140999D02*
X127999D01*
X125999Y142998D02*
Y139000D01*
X147000Y140999D02*
X150999D01*
X148999Y142998D02*
Y139000D01*
X170000Y140499D02*
X173999D01*
X171999Y142498D02*
Y138500D01*
X193000Y140499D02*
X196999D01*
X194999Y142498D02*
Y138500D01*
X216000Y140999D02*
X219999D01*
X217999Y142998D02*
Y139000D01*
X239000Y141499D02*
X242999D01*
X240999Y143498D02*
Y139500D01*
X262000Y141499D02*
X265999D01*
X263999Y143498D02*
Y139500D01*
X285000Y140999D02*
X288999D01*
X286999Y142998D02*
Y139000D01*
X308000Y140999D02*
X311999D01*
X309999Y142998D02*
Y139000D01*
X331000Y140999D02*
X334999D01*
X332999Y142998D02*
Y139000D01*
X354000Y140999D02*
X357999D01*
X355999Y142998D02*
Y139000D01*
X377000Y140999D02*
X380999D01*
X378999Y142998D02*
Y139000D01*
X26000Y114999D02*
X29999D01*
X27999Y116998D02*
Y113000D01*
X8500Y148999D02*
X12499D01*
X32000Y149499D02*
X35999D01*
X55000Y148999D02*
X58999D01*
X78000D02*
X81999D01*
X101000D02*
X104999D01*
X124000D02*
X127999D01*
X147000D02*
X150999D01*
X170000D02*
X173999D01*
X193000D02*
X196999D01*
X216000D02*
X219999D01*
X239000D02*
X242999D01*
X262500D02*
X266499D01*
X285000D02*
X288999D01*
X308000D02*
X311999D01*
X331000D02*
X334999D01*
X354500D02*
X358499D01*
X377000D02*
X380999D01*
X36500Y114999D02*
X40499D01*
X278500Y101999D02*
X282499D01*
X280499Y103998D02*
Y100000D01*
X278500Y109999D02*
X282499D01*
X278500Y29999D02*
X282499D01*
X278500Y21999D02*
X282499D01*
X280499Y23998D02*
Y20000D01*
X36500Y34999D02*
X40499D01*
X377000Y68999D02*
X380999D01*
X354500D02*
X358499D01*
X331000D02*
X334999D01*
X308000D02*
X311999D01*
X285000D02*
X288999D01*
X262500D02*
X266499D01*
X239000D02*
X242999D01*
X216000D02*
X219999D01*
X193000D02*
X196999D01*
X170000D02*
X173999D01*
X147000D02*
X150999D01*
X124000D02*
X127999D01*
X101000D02*
X104999D01*
X78000D02*
X81999D01*
X55000D02*
X58999D01*
X32000Y69499D02*
X35999D01*
X8500Y68999D02*
X12499D01*
X26000Y34999D02*
X29999D01*
X27999Y36998D02*
Y33000D01*
X377000Y60999D02*
X380999D01*
X378999Y62998D02*
Y59000D01*
X354000Y60999D02*
X357999D01*
X355999Y62998D02*
Y59000D01*
X331000Y60999D02*
X334999D01*
X332999Y62998D02*
Y59000D01*
X308000Y60999D02*
X311999D01*
X309999Y62998D02*
Y59000D01*
X285000Y60999D02*
X288999D01*
X286999Y62998D02*
Y59000D01*
X262000Y61499D02*
X265999D01*
X263999Y63498D02*
Y59500D01*
X239000Y61499D02*
X242999D01*
X240999Y63498D02*
Y59500D01*
X216000Y60999D02*
X219999D01*
X217999Y62998D02*
Y59000D01*
X193000Y60499D02*
X196999D01*
X194999Y62498D02*
Y58500D01*
X170000Y60499D02*
X173999D01*
X171999Y62498D02*
Y58500D01*
X147000Y60999D02*
X150999D01*
X148999Y62998D02*
Y59000D01*
X124000Y60999D02*
X127999D01*
X125999Y62998D02*
Y59000D01*
X101000Y60999D02*
X104999D01*
X102999Y62998D02*
Y59000D01*
X78000Y60499D02*
X81999D01*
X79999Y62498D02*
Y58500D01*
X55000Y60499D02*
X58999D01*
X56999Y62498D02*
Y58500D01*
X32000Y60499D02*
X35999D01*
X33999Y62498D02*
Y58500D01*
X8500Y60999D02*
X12499D01*
X10499Y62998D02*
Y59000D01*
D20*
X188300Y349700D02*
G03*
X188300Y347300I0J-1200D01*
G01*
Y269700D02*
G03*
X188300Y267300I0J-1200D01*
G01*
Y189700D02*
G03*
X188300Y187300I0J-1200D01*
G01*
Y109700D02*
G03*
X188300Y107300I0J-1200D01*
G01*
Y29700D02*
G03*
X188300Y27300I0J-1200D01*
G01*
D21*
X81500Y346500D02*
Y349500D01*
X61500D02*
X81500D01*
X61500Y343500D02*
Y349500D01*
Y343500D02*
X81500D01*
Y346500D01*
X60600D02*
X61500D01*
X81500D02*
X82400D01*
X242000Y346000D02*
Y349000D01*
X222000D02*
X242000D01*
X222000Y343000D02*
Y349000D01*
Y343000D02*
X242000D01*
Y346000D01*
X221100D02*
X222000D01*
X242000D02*
X242900D01*
X43500Y341000D02*
Y351000D01*
X23500Y341000D02*
X43500D01*
X23500D02*
Y351000D01*
X43500D01*
X81500Y266500D02*
Y269500D01*
X61500D02*
X81500D01*
X61500Y263500D02*
Y269500D01*
Y263500D02*
X81500D01*
Y266500D01*
X60600D02*
X61500D01*
X81500D02*
X82400D01*
X242000Y266000D02*
Y269000D01*
X222000D02*
X242000D01*
X222000Y263000D02*
Y269000D01*
Y263000D02*
X242000D01*
Y266000D01*
X221100D02*
X222000D01*
X242000D02*
X242900D01*
X43500Y261000D02*
Y271000D01*
X23500Y261000D02*
X43500D01*
X23500D02*
Y271000D01*
X43500D01*
X81500Y186500D02*
Y189500D01*
X61500D02*
X81500D01*
X61500Y183500D02*
Y189500D01*
Y183500D02*
X81500D01*
Y186500D01*
X60600D02*
X61500D01*
X81500D02*
X82400D01*
X242000Y186000D02*
Y189000D01*
X222000D02*
X242000D01*
X222000Y183000D02*
Y189000D01*
Y183000D02*
X242000D01*
Y186000D01*
X221100D02*
X222000D01*
X242000D02*
X242900D01*
X43500Y181000D02*
Y191000D01*
X23500Y181000D02*
X43500D01*
X23500D02*
Y191000D01*
X43500D01*
X81500Y106500D02*
Y109500D01*
X61500D02*
X81500D01*
X61500Y103500D02*
Y109500D01*
Y103500D02*
X81500D01*
Y106500D01*
X60600D02*
X61500D01*
X81500D02*
X82400D01*
X242000Y106000D02*
Y109000D01*
X222000D02*
X242000D01*
X222000Y103000D02*
Y109000D01*
Y103000D02*
X242000D01*
Y106000D01*
X221100D02*
X222000D01*
X242000D02*
X242900D01*
X43500Y101000D02*
Y111000D01*
X23500Y101000D02*
X43500D01*
X23500D02*
Y111000D01*
X43500D01*
Y21000D02*
Y31000D01*
X23500Y21000D02*
X43500D01*
X23500D02*
Y31000D01*
X43500D01*
X81500Y26500D02*
Y29500D01*
X61500D02*
X81500D01*
X61500Y23500D02*
Y29500D01*
Y23500D02*
X81500D01*
Y26500D01*
X60600D02*
X61500D01*
X81500D02*
X82400D01*
X242000Y26000D02*
Y29000D01*
X222000D02*
X242000D01*
X222000Y23000D02*
Y29000D01*
Y23000D02*
X242000D01*
Y26000D01*
X221100D02*
X222000D01*
X242000D02*
X242900D01*
X299787Y107400D02*
Y111336D01*
X301099Y110024D01*
X302411Y111336D01*
Y107400D01*
X303723Y111336D02*
Y108056D01*
X304379Y107400D01*
X305691D01*
X306347Y108056D01*
Y111336D01*
X307659D02*
Y107400D01*
X310283D01*
X311595Y111336D02*
X314218D01*
X312907D01*
Y107400D01*
X315530Y111336D02*
X316842D01*
X316186D01*
Y107400D01*
X315530D01*
X316842D01*
X325370Y110680D02*
X324714Y111336D01*
X323402D01*
X322746Y110680D01*
Y108056D01*
X323402Y107400D01*
X324714D01*
X325370Y108056D01*
X328649Y111336D02*
X327338D01*
X326682Y110680D01*
Y108056D01*
X327338Y107400D01*
X328649D01*
X329305Y108056D01*
Y110680D01*
X328649Y111336D01*
X330617D02*
Y107400D01*
X333241D01*
X336521Y111336D02*
X335209D01*
X334553Y110680D01*
Y108056D01*
X335209Y107400D01*
X336521D01*
X337177Y108056D01*
Y110680D01*
X336521Y111336D01*
X338489Y107400D02*
Y111336D01*
X340457D01*
X341113Y110680D01*
Y109368D01*
X340457Y108712D01*
X338489D01*
X339801D02*
X341113Y107400D01*
X299787Y100787D02*
Y104723D01*
X301755D01*
X302411Y104067D01*
Y102755D01*
X301755Y102099D01*
X299787D01*
X301099D02*
X302411Y100787D01*
X306347Y104067D02*
X305691Y104723D01*
X304379D01*
X303723Y104067D01*
Y101443D01*
X304379Y100787D01*
X305691D01*
X306347Y101443D01*
Y102755D01*
X305035D01*
X307659Y104723D02*
Y100787D01*
X309627D01*
X310283Y101443D01*
Y102099D01*
X309627Y102755D01*
X307659D01*
X309627D01*
X310283Y103411D01*
Y104067D01*
X309627Y104723D01*
X307659D01*
X315530D02*
Y100787D01*
X318154D01*
X322090Y104723D02*
X319466D01*
Y100787D01*
X322090D01*
X319466Y102755D02*
X320778D01*
X323402Y104723D02*
Y100787D01*
X325370D01*
X326026Y101443D01*
Y104067D01*
X325370Y104723D01*
X323402D01*
X299787Y347400D02*
Y351336D01*
X301099Y350024D01*
X302411Y351336D01*
Y347400D01*
X303723Y351336D02*
Y348056D01*
X304379Y347400D01*
X305691D01*
X306347Y348056D01*
Y351336D01*
X307659D02*
Y347400D01*
X310283D01*
X311595Y351336D02*
X314218D01*
X312907D01*
Y347400D01*
X315530Y351336D02*
X316842D01*
X316186D01*
Y347400D01*
X315530D01*
X316842D01*
X325370Y350680D02*
X324714Y351336D01*
X323402D01*
X322746Y350680D01*
Y348056D01*
X323402Y347400D01*
X324714D01*
X325370Y348056D01*
X328649Y351336D02*
X327338D01*
X326682Y350680D01*
Y348056D01*
X327338Y347400D01*
X328649D01*
X329305Y348056D01*
Y350680D01*
X328649Y351336D01*
X330617D02*
Y347400D01*
X333241D01*
X336521Y351336D02*
X335209D01*
X334553Y350680D01*
Y348056D01*
X335209Y347400D01*
X336521D01*
X337177Y348056D01*
Y350680D01*
X336521Y351336D01*
X338489Y347400D02*
Y351336D01*
X340457D01*
X341113Y350680D01*
Y349368D01*
X340457Y348712D01*
X338489D01*
X339801D02*
X341113Y347400D01*
X299787Y340787D02*
Y344723D01*
X301755D01*
X302411Y344067D01*
Y342755D01*
X301755Y342099D01*
X299787D01*
X301099D02*
X302411Y340787D01*
X306347Y344067D02*
X305691Y344723D01*
X304379D01*
X303723Y344067D01*
Y341443D01*
X304379Y340787D01*
X305691D01*
X306347Y341443D01*
Y342755D01*
X305035D01*
X307659Y344723D02*
Y340787D01*
X309627D01*
X310283Y341443D01*
Y342099D01*
X309627Y342755D01*
X307659D01*
X309627D01*
X310283Y343411D01*
Y344067D01*
X309627Y344723D01*
X307659D01*
X315530D02*
Y340787D01*
X318154D01*
X322090Y344723D02*
X319466D01*
Y340787D01*
X322090D01*
X319466Y342755D02*
X320778D01*
X323402Y344723D02*
Y340787D01*
X325370D01*
X326026Y341443D01*
Y344067D01*
X325370Y344723D01*
X323402D01*
X299787Y187400D02*
Y191336D01*
X301099Y190024D01*
X302411Y191336D01*
Y187400D01*
X303723Y191336D02*
Y188056D01*
X304379Y187400D01*
X305691D01*
X306347Y188056D01*
Y191336D01*
X307659D02*
Y187400D01*
X310283D01*
X311595Y191336D02*
X314218D01*
X312907D01*
Y187400D01*
X315530Y191336D02*
X316842D01*
X316186D01*
Y187400D01*
X315530D01*
X316842D01*
X325370Y190680D02*
X324714Y191336D01*
X323402D01*
X322746Y190680D01*
Y188056D01*
X323402Y187400D01*
X324714D01*
X325370Y188056D01*
X328649Y191336D02*
X327338D01*
X326682Y190680D01*
Y188056D01*
X327338Y187400D01*
X328649D01*
X329305Y188056D01*
Y190680D01*
X328649Y191336D01*
X330617D02*
Y187400D01*
X333241D01*
X336521Y191336D02*
X335209D01*
X334553Y190680D01*
Y188056D01*
X335209Y187400D01*
X336521D01*
X337177Y188056D01*
Y190680D01*
X336521Y191336D01*
X338489Y187400D02*
Y191336D01*
X340457D01*
X341113Y190680D01*
Y189368D01*
X340457Y188712D01*
X338489D01*
X339801D02*
X341113Y187400D01*
X299787Y180787D02*
Y184723D01*
X301755D01*
X302411Y184067D01*
Y182755D01*
X301755Y182099D01*
X299787D01*
X301099D02*
X302411Y180787D01*
X306347Y184067D02*
X305691Y184723D01*
X304379D01*
X303723Y184067D01*
Y181443D01*
X304379Y180787D01*
X305691D01*
X306347Y181443D01*
Y182755D01*
X305035D01*
X307659Y184723D02*
Y180787D01*
X309627D01*
X310283Y181443D01*
Y182099D01*
X309627Y182755D01*
X307659D01*
X309627D01*
X310283Y183411D01*
Y184067D01*
X309627Y184723D01*
X307659D01*
X315530D02*
Y180787D01*
X318154D01*
X322090Y184723D02*
X319466D01*
Y180787D01*
X322090D01*
X319466Y182755D02*
X320778D01*
X323402Y184723D02*
Y180787D01*
X325370D01*
X326026Y181443D01*
Y184067D01*
X325370Y184723D01*
X323402D01*
X299787Y27400D02*
Y31336D01*
X301099Y30024D01*
X302411Y31336D01*
Y27400D01*
X303723Y31336D02*
Y28056D01*
X304379Y27400D01*
X305691D01*
X306347Y28056D01*
Y31336D01*
X307659D02*
Y27400D01*
X310283D01*
X311595Y31336D02*
X314218D01*
X312907D01*
Y27400D01*
X315530Y31336D02*
X316842D01*
X316186D01*
Y27400D01*
X315530D01*
X316842D01*
X325370Y30680D02*
X324714Y31336D01*
X323402D01*
X322746Y30680D01*
Y28056D01*
X323402Y27400D01*
X324714D01*
X325370Y28056D01*
X328649Y31336D02*
X327338D01*
X326682Y30680D01*
Y28056D01*
X327338Y27400D01*
X328649D01*
X329305Y28056D01*
Y30680D01*
X328649Y31336D01*
X330617D02*
Y27400D01*
X333241D01*
X336521Y31336D02*
X335209D01*
X334553Y30680D01*
Y28056D01*
X335209Y27400D01*
X336521D01*
X337177Y28056D01*
Y30680D01*
X336521Y31336D01*
X338489Y27400D02*
Y31336D01*
X340457D01*
X341113Y30680D01*
Y29368D01*
X340457Y28712D01*
X338489D01*
X339801D02*
X341113Y27400D01*
X299787Y20787D02*
Y24723D01*
X301755D01*
X302411Y24067D01*
Y22755D01*
X301755Y22099D01*
X299787D01*
X301099D02*
X302411Y20787D01*
X306347Y24067D02*
X305691Y24723D01*
X304379D01*
X303723Y24067D01*
Y21443D01*
X304379Y20787D01*
X305691D01*
X306347Y21443D01*
Y22755D01*
X305035D01*
X307659Y24723D02*
Y20787D01*
X309627D01*
X310283Y21443D01*
Y22099D01*
X309627Y22755D01*
X307659D01*
X309627D01*
X310283Y23411D01*
Y24067D01*
X309627Y24723D01*
X307659D01*
X315530D02*
Y20787D01*
X318154D01*
X322090Y24723D02*
X319466D01*
Y20787D01*
X322090D01*
X319466Y22755D02*
X320778D01*
X323402Y24723D02*
Y20787D01*
X325370D01*
X326026Y21443D01*
Y24067D01*
X325370Y24723D01*
X323402D01*
X299787Y267400D02*
Y271336D01*
X301099Y270024D01*
X302411Y271336D01*
Y267400D01*
X303723Y271336D02*
Y268056D01*
X304379Y267400D01*
X305691D01*
X306347Y268056D01*
Y271336D01*
X307659D02*
Y267400D01*
X310283D01*
X311595Y271336D02*
X314218D01*
X312907D01*
Y267400D01*
X315530Y271336D02*
X316842D01*
X316186D01*
Y267400D01*
X315530D01*
X316842D01*
X325370Y270680D02*
X324714Y271336D01*
X323402D01*
X322746Y270680D01*
Y268056D01*
X323402Y267400D01*
X324714D01*
X325370Y268056D01*
X328649Y271336D02*
X327338D01*
X326682Y270680D01*
Y268056D01*
X327338Y267400D01*
X328649D01*
X329305Y268056D01*
Y270680D01*
X328649Y271336D01*
X330617D02*
Y267400D01*
X333241D01*
X336521Y271336D02*
X335209D01*
X334553Y270680D01*
Y268056D01*
X335209Y267400D01*
X336521D01*
X337177Y268056D01*
Y270680D01*
X336521Y271336D01*
X338489Y267400D02*
Y271336D01*
X340457D01*
X341113Y270680D01*
Y269368D01*
X340457Y268712D01*
X338489D01*
X339801D02*
X341113Y267400D01*
X299787Y260787D02*
Y264723D01*
X301755D01*
X302411Y264067D01*
Y262755D01*
X301755Y262099D01*
X299787D01*
X301099D02*
X302411Y260787D01*
X306347Y264067D02*
X305691Y264723D01*
X304379D01*
X303723Y264067D01*
Y261443D01*
X304379Y260787D01*
X305691D01*
X306347Y261443D01*
Y262755D01*
X305035D01*
X307659Y264723D02*
Y260787D01*
X309627D01*
X310283Y261443D01*
Y262099D01*
X309627Y262755D01*
X307659D01*
X309627D01*
X310283Y263411D01*
Y264067D01*
X309627Y264723D01*
X307659D01*
X315530D02*
Y260787D01*
X318154D01*
X322090Y264723D02*
X319466D01*
Y260787D01*
X322090D01*
X319466Y262755D02*
X320778D01*
X323402Y264723D02*
Y260787D01*
X325370D01*
X326026Y261443D01*
Y264067D01*
X325370Y264723D01*
X323402D01*
X68000Y344500D02*
X69312D01*
X68656D01*
Y348436D01*
X68000Y347780D01*
X71280Y348436D02*
Y344500D01*
Y345812D01*
X73904Y348436D01*
X71936Y346468D01*
X73904Y344500D01*
X226500Y344000D02*
X227812D01*
X227156D01*
Y347936D01*
X226500Y347280D01*
X229780D02*
X230436Y347936D01*
X231748D01*
X232404Y347280D01*
Y344656D01*
X231748Y344000D01*
X230436D01*
X229780Y344656D01*
Y347280D01*
X233716D02*
X234371Y347936D01*
X235683D01*
X236339Y347280D01*
Y344656D01*
X235683Y344000D01*
X234371D01*
X233716Y344656D01*
Y347280D01*
X68000Y264500D02*
X69312D01*
X68656D01*
Y268436D01*
X68000Y267780D01*
X71280Y268436D02*
Y264500D01*
Y265812D01*
X73904Y268436D01*
X71936Y266468D01*
X73904Y264500D01*
X226500Y264000D02*
X227812D01*
X227156D01*
Y267936D01*
X226500Y267280D01*
X229780D02*
X230436Y267936D01*
X231748D01*
X232404Y267280D01*
Y264656D01*
X231748Y264000D01*
X230436D01*
X229780Y264656D01*
Y267280D01*
X233716D02*
X234371Y267936D01*
X235683D01*
X236339Y267280D01*
Y264656D01*
X235683Y264000D01*
X234371D01*
X233716Y264656D01*
Y267280D01*
X68000Y184500D02*
X69312D01*
X68656D01*
Y188436D01*
X68000Y187780D01*
X71280Y188436D02*
Y184500D01*
Y185812D01*
X73904Y188436D01*
X71936Y186468D01*
X73904Y184500D01*
X226500Y184000D02*
X227812D01*
X227156D01*
Y187936D01*
X226500Y187280D01*
X229780D02*
X230436Y187936D01*
X231748D01*
X232404Y187280D01*
Y184656D01*
X231748Y184000D01*
X230436D01*
X229780Y184656D01*
Y187280D01*
X233716D02*
X234371Y187936D01*
X235683D01*
X236339Y187280D01*
Y184656D01*
X235683Y184000D01*
X234371D01*
X233716Y184656D01*
Y187280D01*
X68000Y104500D02*
X69312D01*
X68656D01*
Y108436D01*
X68000Y107780D01*
X71280Y108436D02*
Y104500D01*
Y105812D01*
X73904Y108436D01*
X71936Y106468D01*
X73904Y104500D01*
X226500Y104000D02*
X227812D01*
X227156D01*
Y107936D01*
X226500Y107280D01*
X229780D02*
X230436Y107936D01*
X231748D01*
X232404Y107280D01*
Y104656D01*
X231748Y104000D01*
X230436D01*
X229780Y104656D01*
Y107280D01*
X233716D02*
X234371Y107936D01*
X235683D01*
X236339Y107280D01*
Y104656D01*
X235683Y104000D01*
X234371D01*
X233716Y104656D01*
Y107280D01*
X226500Y24000D02*
X227812D01*
X227156D01*
Y27936D01*
X226500Y27280D01*
X229780D02*
X230436Y27936D01*
X231748D01*
X232404Y27280D01*
Y24656D01*
X231748Y24000D01*
X230436D01*
X229780Y24656D01*
Y27280D01*
X233716D02*
X234371Y27936D01*
X235683D01*
X236339Y27280D01*
Y24656D01*
X235683Y24000D01*
X234371D01*
X233716Y24656D01*
Y27280D01*
X68000Y24500D02*
X69312D01*
X68656D01*
Y28436D01*
X68000Y27780D01*
X71280Y28436D02*
Y24500D01*
Y25812D01*
X73904Y28436D01*
X71936Y26468D01*
X73904Y24500D01*
D22*
X110700Y337000D02*
Y360000D01*
X188300Y337000D02*
Y347300D01*
Y349700D01*
Y358300D01*
X110700Y257000D02*
Y280000D01*
X188300Y257000D02*
Y267300D01*
Y269700D01*
Y278300D01*
X110700Y177000D02*
Y200000D01*
X188300Y177000D02*
Y187300D01*
Y189700D01*
Y198300D01*
X110700Y97000D02*
Y120000D01*
X188300Y97000D02*
Y107300D01*
Y109700D01*
Y118300D01*
X110700Y17000D02*
Y40000D01*
X188300Y17000D02*
Y27300D01*
Y29700D01*
Y38300D01*
D23*
X130248Y350560D02*
X128936Y351871D01*
X126312D01*
X125000Y350560D01*
Y345312D01*
X126312Y344000D01*
X128936D01*
X130248Y345312D01*
X132871Y351871D02*
Y344000D01*
X136807D01*
X138119Y345312D01*
Y350560D01*
X136807Y351871D01*
X132871D01*
X144679Y344000D02*
Y351871D01*
X140743Y347936D01*
X145991D01*
X148614Y350560D02*
X149926Y351871D01*
X152550D01*
X153862Y350560D01*
Y345312D01*
X152550Y344000D01*
X149926D01*
X148614Y345312D01*
Y350560D01*
X156486Y344000D02*
X159110D01*
X157798D01*
Y351871D01*
X156486Y350560D01*
X163046Y351871D02*
X168293D01*
Y350560D01*
X163046Y345312D01*
Y344000D01*
X7500Y344312D02*
X8812Y343000D01*
X11436D01*
X12748Y344312D01*
Y349560D01*
X11436Y350871D01*
X8812D01*
X7500Y349560D01*
Y348248D01*
X8812Y346936D01*
X12748D01*
X15371Y350871D02*
Y345624D01*
X17995Y343000D01*
X20619Y345624D01*
Y350871D01*
X130248Y270560D02*
X128936Y271871D01*
X126312D01*
X125000Y270560D01*
Y265312D01*
X126312Y264000D01*
X128936D01*
X130248Y265312D01*
X132871Y271871D02*
Y264000D01*
X136807D01*
X138119Y265312D01*
Y270560D01*
X136807Y271871D01*
X132871D01*
X144679Y264000D02*
Y271871D01*
X140743Y267936D01*
X145991D01*
X148614Y270560D02*
X149926Y271871D01*
X152550D01*
X153862Y270560D01*
Y265312D01*
X152550Y264000D01*
X149926D01*
X148614Y265312D01*
Y270560D01*
X156486Y264000D02*
X159110D01*
X157798D01*
Y271871D01*
X156486Y270560D01*
X163046Y271871D02*
X168293D01*
Y270560D01*
X163046Y265312D01*
Y264000D01*
X7500Y264312D02*
X8812Y263000D01*
X11436D01*
X12748Y264312D01*
Y269560D01*
X11436Y270871D01*
X8812D01*
X7500Y269560D01*
Y268248D01*
X8812Y266936D01*
X12748D01*
X15371Y270871D02*
Y265624D01*
X17995Y263000D01*
X20619Y265624D01*
Y270871D01*
X130248Y190560D02*
X128936Y191872D01*
X126312D01*
X125000Y190560D01*
Y185312D01*
X126312Y184000D01*
X128936D01*
X130248Y185312D01*
X132871Y191872D02*
Y184000D01*
X136807D01*
X138119Y185312D01*
Y190560D01*
X136807Y191872D01*
X132871D01*
X144679Y184000D02*
Y191872D01*
X140743Y187936D01*
X145991D01*
X148614Y190560D02*
X149926Y191872D01*
X152550D01*
X153862Y190560D01*
Y185312D01*
X152550Y184000D01*
X149926D01*
X148614Y185312D01*
Y190560D01*
X156486Y184000D02*
X159110D01*
X157798D01*
Y191872D01*
X156486Y190560D01*
X163046Y191872D02*
X168293D01*
Y190560D01*
X163046Y185312D01*
Y184000D01*
X7500Y184312D02*
X8812Y183000D01*
X11436D01*
X12748Y184312D01*
Y189560D01*
X11436Y190872D01*
X8812D01*
X7500Y189560D01*
Y188248D01*
X8812Y186936D01*
X12748D01*
X15371Y190872D02*
Y185624D01*
X17995Y183000D01*
X20619Y185624D01*
Y190872D01*
X130248Y110560D02*
X128936Y111872D01*
X126312D01*
X125000Y110560D01*
Y105312D01*
X126312Y104000D01*
X128936D01*
X130248Y105312D01*
X132871Y111872D02*
Y104000D01*
X136807D01*
X138119Y105312D01*
Y110560D01*
X136807Y111872D01*
X132871D01*
X144679Y104000D02*
Y111872D01*
X140743Y107936D01*
X145991D01*
X148614Y110560D02*
X149926Y111872D01*
X152550D01*
X153862Y110560D01*
Y105312D01*
X152550Y104000D01*
X149926D01*
X148614Y105312D01*
Y110560D01*
X156486Y104000D02*
X159110D01*
X157798D01*
Y111872D01*
X156486Y110560D01*
X163046Y111872D02*
X168293D01*
Y110560D01*
X163046Y105312D01*
Y104000D01*
X7500Y104312D02*
X8812Y103000D01*
X11436D01*
X12748Y104312D01*
Y109560D01*
X11436Y110872D01*
X8812D01*
X7500Y109560D01*
Y108248D01*
X8812Y106936D01*
X12748D01*
X15371Y110872D02*
Y105624D01*
X17995Y103000D01*
X20619Y105624D01*
Y110872D01*
X7500Y24312D02*
X8812Y23000D01*
X11436D01*
X12748Y24312D01*
Y29560D01*
X11436Y30871D01*
X8812D01*
X7500Y29560D01*
Y28248D01*
X8812Y26936D01*
X12748D01*
X15371Y30871D02*
Y25624D01*
X17995Y23000D01*
X20619Y25624D01*
Y30871D01*
X130248Y30560D02*
X128936Y31872D01*
X126312D01*
X125000Y30560D01*
Y25312D01*
X126312Y24000D01*
X128936D01*
X130248Y25312D01*
X132871Y31872D02*
Y24000D01*
X136807D01*
X138119Y25312D01*
Y30560D01*
X136807Y31872D01*
X132871D01*
X144679Y24000D02*
Y31872D01*
X140743Y27936D01*
X145991D01*
X148614Y30560D02*
X149926Y31872D01*
X152550D01*
X153862Y30560D01*
Y25312D01*
X152550Y24000D01*
X149926D01*
X148614Y25312D01*
Y30560D01*
X156486Y24000D02*
X159110D01*
X157798D01*
Y31872D01*
X156486Y30560D01*
X163046Y31872D02*
X168293D01*
Y30560D01*
X163046Y25312D01*
Y24000D01*
D24*
X18000Y326500D02*
Y334371D01*
X21936Y338307D01*
X25872Y334371D01*
Y326500D01*
Y332404D01*
X18000D01*
X29807Y326500D02*
Y328468D01*
X31775D01*
Y326500D01*
X29807D01*
X39647Y338307D02*
X43582D01*
X41614D01*
Y326500D01*
X39647D01*
X43582D01*
X61293D02*
Y338307D01*
X67197D01*
X69165Y336339D01*
Y332404D01*
X67197Y330436D01*
X61293D01*
X80972Y336339D02*
X79004Y338307D01*
X75068D01*
X73100Y336339D01*
Y328468D01*
X75068Y326500D01*
X79004D01*
X80972Y328468D01*
X84908Y338307D02*
Y326500D01*
X90811D01*
X92779Y328468D01*
Y330436D01*
X90811Y332404D01*
X84908D01*
X90811D01*
X92779Y334371D01*
Y336339D01*
X90811Y338307D01*
X84908D01*
X18000Y246500D02*
Y254372D01*
X21936Y258307D01*
X25872Y254372D01*
Y246500D01*
Y252404D01*
X18000D01*
X29807Y246500D02*
Y248468D01*
X31775D01*
Y246500D01*
X29807D01*
X39647Y258307D02*
X43582D01*
X41614D01*
Y246500D01*
X39647D01*
X43582D01*
X61293D02*
Y258307D01*
X67197D01*
X69165Y256339D01*
Y252404D01*
X67197Y250436D01*
X61293D01*
X80972Y256339D02*
X79004Y258307D01*
X75068D01*
X73100Y256339D01*
Y248468D01*
X75068Y246500D01*
X79004D01*
X80972Y248468D01*
X84908Y258307D02*
Y246500D01*
X90811D01*
X92779Y248468D01*
Y250436D01*
X90811Y252404D01*
X84908D01*
X90811D01*
X92779Y254372D01*
Y256339D01*
X90811Y258307D01*
X84908D01*
X18000Y166500D02*
Y174372D01*
X21936Y178307D01*
X25872Y174372D01*
Y166500D01*
Y172404D01*
X18000D01*
X29807Y166500D02*
Y168468D01*
X31775D01*
Y166500D01*
X29807D01*
X39647Y178307D02*
X43582D01*
X41614D01*
Y166500D01*
X39647D01*
X43582D01*
X61293D02*
Y178307D01*
X67197D01*
X69165Y176339D01*
Y172404D01*
X67197Y170436D01*
X61293D01*
X80972Y176339D02*
X79004Y178307D01*
X75068D01*
X73100Y176339D01*
Y168468D01*
X75068Y166500D01*
X79004D01*
X80972Y168468D01*
X84908Y178307D02*
Y166500D01*
X90811D01*
X92779Y168468D01*
Y170436D01*
X90811Y172404D01*
X84908D01*
X90811D01*
X92779Y174372D01*
Y176339D01*
X90811Y178307D01*
X84908D01*
X18000Y86500D02*
Y94371D01*
X21936Y98307D01*
X25872Y94371D01*
Y86500D01*
Y92404D01*
X18000D01*
X29807Y86500D02*
Y88468D01*
X31775D01*
Y86500D01*
X29807D01*
X39647Y98307D02*
X43582D01*
X41614D01*
Y86500D01*
X39647D01*
X43582D01*
X61293D02*
Y98307D01*
X67197D01*
X69165Y96339D01*
Y92404D01*
X67197Y90436D01*
X61293D01*
X80972Y96339D02*
X79004Y98307D01*
X75068D01*
X73100Y96339D01*
Y88468D01*
X75068Y86500D01*
X79004D01*
X80972Y88468D01*
X84908Y98307D02*
Y86500D01*
X90811D01*
X92779Y88468D01*
Y90436D01*
X90811Y92404D01*
X84908D01*
X90811D01*
X92779Y94371D01*
Y96339D01*
X90811Y98307D01*
X84908D01*
X18000Y6500D02*
Y14371D01*
X21936Y18307D01*
X25872Y14371D01*
Y6500D01*
Y12404D01*
X18000D01*
X29807Y6500D02*
Y8468D01*
X31775D01*
Y6500D01*
X29807D01*
X39647Y18307D02*
X43582D01*
X41614D01*
Y6500D01*
X39647D01*
X43582D01*
X61293D02*
Y18307D01*
X67197D01*
X69165Y16339D01*
Y12404D01*
X67197Y10436D01*
X61293D01*
X80972Y16339D02*
X79004Y18307D01*
X75068D01*
X73100Y16339D01*
Y8468D01*
X75068Y6500D01*
X79004D01*
X80972Y8468D01*
X84908Y18307D02*
Y6500D01*
X90811D01*
X92779Y8468D01*
Y10436D01*
X90811Y12404D01*
X84908D01*
X90811D01*
X92779Y14371D01*
Y16339D01*
X90811Y18307D01*
X84908D01*
D25*
X189000Y325000D02*
Y330998D01*
X190999Y328999D01*
X192999Y330998D01*
Y325000D01*
X194998Y330998D02*
Y326000D01*
X195998Y325000D01*
X197997D01*
X198997Y326000D01*
Y330998D01*
X200996D02*
Y325000D01*
X204995D01*
X206994Y330998D02*
X210993D01*
X208994D01*
Y325000D01*
X212992Y330998D02*
X214992D01*
X213992D01*
Y325000D01*
X212992D01*
X214992D01*
X227987Y329998D02*
X226988Y330998D01*
X224988D01*
X223989Y329998D01*
Y326000D01*
X224988Y325000D01*
X226988D01*
X227987Y326000D01*
X232986Y330998D02*
X230986D01*
X229987Y329998D01*
Y326000D01*
X230986Y325000D01*
X232986D01*
X233985Y326000D01*
Y329998D01*
X232986Y330998D01*
X235985D02*
Y325000D01*
X239984D01*
X244982Y330998D02*
X242983D01*
X241983Y329998D01*
Y326000D01*
X242983Y325000D01*
X244982D01*
X245982Y326000D01*
Y329998D01*
X244982Y330998D01*
X247981Y325000D02*
Y330998D01*
X250980D01*
X251980Y329998D01*
Y327999D01*
X250980Y326999D01*
X247981D01*
X249980D02*
X251980Y325000D01*
X259977D02*
Y330998D01*
X262976D01*
X263976Y329998D01*
Y327999D01*
X262976Y326999D01*
X259977D01*
X261976D02*
X263976Y325000D01*
X269974Y329998D02*
X268974Y330998D01*
X266975D01*
X265975Y329998D01*
Y326000D01*
X266975Y325000D01*
X268974D01*
X269974Y326000D01*
Y327999D01*
X267974D01*
X271973Y330998D02*
Y325000D01*
X274972D01*
X275972Y326000D01*
Y326999D01*
X274972Y327999D01*
X271973D01*
X274972D01*
X275972Y328999D01*
Y329998D01*
X274972Y330998D01*
X271973D01*
X283969D02*
Y325000D01*
X287968D01*
X293966Y330998D02*
X289967D01*
Y325000D01*
X293966D01*
X289967Y327999D02*
X291967D01*
X295965Y330998D02*
Y325000D01*
X298964D01*
X299964Y326000D01*
Y329998D01*
X298964Y330998D01*
X295965D01*
X307962Y327999D02*
X311960D01*
X319958Y325000D02*
X321957D01*
X320957D01*
Y330998D01*
X319958Y329998D01*
X324956Y330998D02*
X328955D01*
Y329998D01*
X324956Y326000D01*
Y325000D01*
X336952Y330998D02*
Y325000D01*
X340951D01*
X346949Y330998D02*
X342950D01*
Y325000D01*
X346949D01*
X342950Y327999D02*
X344950D01*
X348948Y330998D02*
Y325000D01*
X351947D01*
X352947Y326000D01*
Y329998D01*
X351947Y330998D01*
X348948D01*
X364943Y329998D02*
X363943Y330998D01*
X361944D01*
X360944Y329998D01*
Y326000D01*
X361944Y325000D01*
X363943D01*
X364943Y326000D01*
X366942Y330998D02*
Y325000D01*
Y327999D01*
X370941D01*
Y330998D01*
Y325000D01*
X372940D02*
Y328999D01*
X374940Y330998D01*
X376939Y328999D01*
Y325000D01*
Y327999D01*
X372940D01*
X382937Y329998D02*
X381938Y330998D01*
X379938D01*
X378939Y329998D01*
Y328999D01*
X379938Y327999D01*
X381938D01*
X382937Y326999D01*
Y326000D01*
X381938Y325000D01*
X379938D01*
X378939Y326000D01*
X388935Y330998D02*
X384937D01*
Y325000D01*
X388935D01*
X384937Y327999D02*
X386936D01*
X390935Y325000D02*
Y330998D01*
X393934D01*
X394933Y329998D01*
Y327999D01*
X393934Y326999D01*
X390935D01*
X392934D02*
X394933Y325000D01*
X189000Y245000D02*
Y250998D01*
X190999Y248999D01*
X192999Y250998D01*
Y245000D01*
X194998Y250998D02*
Y246000D01*
X195998Y245000D01*
X197997D01*
X198997Y246000D01*
Y250998D01*
X200996D02*
Y245000D01*
X204995D01*
X206994Y250998D02*
X210993D01*
X208994D01*
Y245000D01*
X212992Y250998D02*
X214992D01*
X213992D01*
Y245000D01*
X212992D01*
X214992D01*
X227987Y249998D02*
X226988Y250998D01*
X224988D01*
X223989Y249998D01*
Y246000D01*
X224988Y245000D01*
X226988D01*
X227987Y246000D01*
X232986Y250998D02*
X230986D01*
X229987Y249998D01*
Y246000D01*
X230986Y245000D01*
X232986D01*
X233985Y246000D01*
Y249998D01*
X232986Y250998D01*
X235985D02*
Y245000D01*
X239984D01*
X244982Y250998D02*
X242983D01*
X241983Y249998D01*
Y246000D01*
X242983Y245000D01*
X244982D01*
X245982Y246000D01*
Y249998D01*
X244982Y250998D01*
X247981Y245000D02*
Y250998D01*
X250980D01*
X251980Y249998D01*
Y247999D01*
X250980Y246999D01*
X247981D01*
X249980D02*
X251980Y245000D01*
X259977D02*
Y250998D01*
X262976D01*
X263976Y249998D01*
Y247999D01*
X262976Y246999D01*
X259977D01*
X261976D02*
X263976Y245000D01*
X269974Y249998D02*
X268974Y250998D01*
X266975D01*
X265975Y249998D01*
Y246000D01*
X266975Y245000D01*
X268974D01*
X269974Y246000D01*
Y247999D01*
X267974D01*
X271973Y250998D02*
Y245000D01*
X274972D01*
X275972Y246000D01*
Y246999D01*
X274972Y247999D01*
X271973D01*
X274972D01*
X275972Y248999D01*
Y249998D01*
X274972Y250998D01*
X271973D01*
X283969D02*
Y245000D01*
X287968D01*
X293966Y250998D02*
X289967D01*
Y245000D01*
X293966D01*
X289967Y247999D02*
X291967D01*
X295965Y250998D02*
Y245000D01*
X298964D01*
X299964Y246000D01*
Y249998D01*
X298964Y250998D01*
X295965D01*
X307962Y247999D02*
X311960D01*
X319958Y245000D02*
X321957D01*
X320957D01*
Y250998D01*
X319958Y249998D01*
X324956Y250998D02*
X328955D01*
Y249998D01*
X324956Y246000D01*
Y245000D01*
X336952Y250998D02*
Y245000D01*
X340951D01*
X346949Y250998D02*
X342950D01*
Y245000D01*
X346949D01*
X342950Y247999D02*
X344950D01*
X348948Y250998D02*
Y245000D01*
X351947D01*
X352947Y246000D01*
Y249998D01*
X351947Y250998D01*
X348948D01*
X364943Y249998D02*
X363943Y250998D01*
X361944D01*
X360944Y249998D01*
Y246000D01*
X361944Y245000D01*
X363943D01*
X364943Y246000D01*
X366942Y250998D02*
Y245000D01*
Y247999D01*
X370941D01*
Y250998D01*
Y245000D01*
X372940D02*
Y248999D01*
X374940Y250998D01*
X376939Y248999D01*
Y245000D01*
Y247999D01*
X372940D01*
X382937Y249998D02*
X381938Y250998D01*
X379938D01*
X378939Y249998D01*
Y248999D01*
X379938Y247999D01*
X381938D01*
X382937Y246999D01*
Y246000D01*
X381938Y245000D01*
X379938D01*
X378939Y246000D01*
X388935Y250998D02*
X384937D01*
Y245000D01*
X388935D01*
X384937Y247999D02*
X386936D01*
X390935Y245000D02*
Y250998D01*
X393934D01*
X394933Y249998D01*
Y247999D01*
X393934Y246999D01*
X390935D01*
X392934D02*
X394933Y245000D01*
X189000Y165000D02*
Y170998D01*
X190999Y168999D01*
X192999Y170998D01*
Y165000D01*
X194998Y170998D02*
Y166000D01*
X195998Y165000D01*
X197997D01*
X198997Y166000D01*
Y170998D01*
X200996D02*
Y165000D01*
X204995D01*
X206994Y170998D02*
X210993D01*
X208994D01*
Y165000D01*
X212992Y170998D02*
X214992D01*
X213992D01*
Y165000D01*
X212992D01*
X214992D01*
X227987Y169998D02*
X226988Y170998D01*
X224988D01*
X223989Y169998D01*
Y166000D01*
X224988Y165000D01*
X226988D01*
X227987Y166000D01*
X232986Y170998D02*
X230986D01*
X229987Y169998D01*
Y166000D01*
X230986Y165000D01*
X232986D01*
X233985Y166000D01*
Y169998D01*
X232986Y170998D01*
X235985D02*
Y165000D01*
X239984D01*
X244982Y170998D02*
X242983D01*
X241983Y169998D01*
Y166000D01*
X242983Y165000D01*
X244982D01*
X245982Y166000D01*
Y169998D01*
X244982Y170998D01*
X247981Y165000D02*
Y170998D01*
X250980D01*
X251980Y169998D01*
Y167999D01*
X250980Y166999D01*
X247981D01*
X249980D02*
X251980Y165000D01*
X259977D02*
Y170998D01*
X262976D01*
X263976Y169998D01*
Y167999D01*
X262976Y166999D01*
X259977D01*
X261976D02*
X263976Y165000D01*
X269974Y169998D02*
X268974Y170998D01*
X266975D01*
X265975Y169998D01*
Y166000D01*
X266975Y165000D01*
X268974D01*
X269974Y166000D01*
Y167999D01*
X267974D01*
X271973Y170998D02*
Y165000D01*
X274972D01*
X275972Y166000D01*
Y166999D01*
X274972Y167999D01*
X271973D01*
X274972D01*
X275972Y168999D01*
Y169998D01*
X274972Y170998D01*
X271973D01*
X283969D02*
Y165000D01*
X287968D01*
X293966Y170998D02*
X289967D01*
Y165000D01*
X293966D01*
X289967Y167999D02*
X291967D01*
X295965Y170998D02*
Y165000D01*
X298964D01*
X299964Y166000D01*
Y169998D01*
X298964Y170998D01*
X295965D01*
X307962Y167999D02*
X311960D01*
X319958Y165000D02*
X321957D01*
X320957D01*
Y170998D01*
X319958Y169998D01*
X324956Y170998D02*
X328955D01*
Y169998D01*
X324956Y166000D01*
Y165000D01*
X336952Y170998D02*
Y165000D01*
X340951D01*
X346949Y170998D02*
X342950D01*
Y165000D01*
X346949D01*
X342950Y167999D02*
X344950D01*
X348948Y170998D02*
Y165000D01*
X351947D01*
X352947Y166000D01*
Y169998D01*
X351947Y170998D01*
X348948D01*
X364943Y169998D02*
X363943Y170998D01*
X361944D01*
X360944Y169998D01*
Y166000D01*
X361944Y165000D01*
X363943D01*
X364943Y166000D01*
X366942Y170998D02*
Y165000D01*
Y167999D01*
X370941D01*
Y170998D01*
Y165000D01*
X372940D02*
Y168999D01*
X374940Y170998D01*
X376939Y168999D01*
Y165000D01*
Y167999D01*
X372940D01*
X382937Y169998D02*
X381938Y170998D01*
X379938D01*
X378939Y169998D01*
Y168999D01*
X379938Y167999D01*
X381938D01*
X382937Y166999D01*
Y166000D01*
X381938Y165000D01*
X379938D01*
X378939Y166000D01*
X388935Y170998D02*
X384937D01*
Y165000D01*
X388935D01*
X384937Y167999D02*
X386936D01*
X390935Y165000D02*
Y170998D01*
X393934D01*
X394933Y169998D01*
Y167999D01*
X393934Y166999D01*
X390935D01*
X392934D02*
X394933Y165000D01*
X189000Y85000D02*
Y90998D01*
X190999Y88999D01*
X192999Y90998D01*
Y85000D01*
X194998Y90998D02*
Y86000D01*
X195998Y85000D01*
X197997D01*
X198997Y86000D01*
Y90998D01*
X200996D02*
Y85000D01*
X204995D01*
X206994Y90998D02*
X210993D01*
X208994D01*
Y85000D01*
X212992Y90998D02*
X214992D01*
X213992D01*
Y85000D01*
X212992D01*
X214992D01*
X227987Y89998D02*
X226988Y90998D01*
X224988D01*
X223989Y89998D01*
Y86000D01*
X224988Y85000D01*
X226988D01*
X227987Y86000D01*
X232986Y90998D02*
X230986D01*
X229987Y89998D01*
Y86000D01*
X230986Y85000D01*
X232986D01*
X233985Y86000D01*
Y89998D01*
X232986Y90998D01*
X235985D02*
Y85000D01*
X239984D01*
X244982Y90998D02*
X242983D01*
X241983Y89998D01*
Y86000D01*
X242983Y85000D01*
X244982D01*
X245982Y86000D01*
Y89998D01*
X244982Y90998D01*
X247981Y85000D02*
Y90998D01*
X250980D01*
X251980Y89998D01*
Y87999D01*
X250980Y86999D01*
X247981D01*
X249980D02*
X251980Y85000D01*
X259977D02*
Y90998D01*
X262976D01*
X263976Y89998D01*
Y87999D01*
X262976Y86999D01*
X259977D01*
X261976D02*
X263976Y85000D01*
X269974Y89998D02*
X268974Y90998D01*
X266975D01*
X265975Y89998D01*
Y86000D01*
X266975Y85000D01*
X268974D01*
X269974Y86000D01*
Y87999D01*
X267974D01*
X271973Y90998D02*
Y85000D01*
X274972D01*
X275972Y86000D01*
Y86999D01*
X274972Y87999D01*
X271973D01*
X274972D01*
X275972Y88999D01*
Y89998D01*
X274972Y90998D01*
X271973D01*
X283969D02*
Y85000D01*
X287968D01*
X293966Y90998D02*
X289967D01*
Y85000D01*
X293966D01*
X289967Y87999D02*
X291967D01*
X295965Y90998D02*
Y85000D01*
X298964D01*
X299964Y86000D01*
Y89998D01*
X298964Y90998D01*
X295965D01*
X307962Y87999D02*
X311960D01*
X319958Y85000D02*
X321957D01*
X320957D01*
Y90998D01*
X319958Y89998D01*
X324956Y90998D02*
X328955D01*
Y89998D01*
X324956Y86000D01*
Y85000D01*
X336952Y90998D02*
Y85000D01*
X340951D01*
X346949Y90998D02*
X342950D01*
Y85000D01*
X346949D01*
X342950Y87999D02*
X344950D01*
X348948Y90998D02*
Y85000D01*
X351947D01*
X352947Y86000D01*
Y89998D01*
X351947Y90998D01*
X348948D01*
X364943Y89998D02*
X363943Y90998D01*
X361944D01*
X360944Y89998D01*
Y86000D01*
X361944Y85000D01*
X363943D01*
X364943Y86000D01*
X366942Y90998D02*
Y85000D01*
Y87999D01*
X370941D01*
Y90998D01*
Y85000D01*
X372940D02*
Y88999D01*
X374940Y90998D01*
X376939Y88999D01*
Y85000D01*
Y87999D01*
X372940D01*
X382937Y89998D02*
X381938Y90998D01*
X379938D01*
X378939Y89998D01*
Y88999D01*
X379938Y87999D01*
X381938D01*
X382937Y86999D01*
Y86000D01*
X381938Y85000D01*
X379938D01*
X378939Y86000D01*
X388935Y90998D02*
X384937D01*
Y85000D01*
X388935D01*
X384937Y87999D02*
X386936D01*
X390935Y85000D02*
Y90998D01*
X393934D01*
X394933Y89998D01*
Y87999D01*
X393934Y86999D01*
X390935D01*
X392934D02*
X394933Y85000D01*
X189000Y5000D02*
Y10998D01*
X190999Y8999D01*
X192999Y10998D01*
Y5000D01*
X194998Y10998D02*
Y6000D01*
X195998Y5000D01*
X197997D01*
X198997Y6000D01*
Y10998D01*
X200996D02*
Y5000D01*
X204995D01*
X206994Y10998D02*
X210993D01*
X208994D01*
Y5000D01*
X212992Y10998D02*
X214992D01*
X213992D01*
Y5000D01*
X212992D01*
X214992D01*
X227987Y9998D02*
X226988Y10998D01*
X224988D01*
X223989Y9998D01*
Y6000D01*
X224988Y5000D01*
X226988D01*
X227987Y6000D01*
X232986Y10998D02*
X230986D01*
X229987Y9998D01*
Y6000D01*
X230986Y5000D01*
X232986D01*
X233985Y6000D01*
Y9998D01*
X232986Y10998D01*
X235985D02*
Y5000D01*
X239984D01*
X244982Y10998D02*
X242983D01*
X241983Y9998D01*
Y6000D01*
X242983Y5000D01*
X244982D01*
X245982Y6000D01*
Y9998D01*
X244982Y10998D01*
X247981Y5000D02*
Y10998D01*
X250980D01*
X251980Y9998D01*
Y7999D01*
X250980Y6999D01*
X247981D01*
X249980D02*
X251980Y5000D01*
X259977D02*
Y10998D01*
X262976D01*
X263976Y9998D01*
Y7999D01*
X262976Y6999D01*
X259977D01*
X261976D02*
X263976Y5000D01*
X269974Y9998D02*
X268974Y10998D01*
X266975D01*
X265975Y9998D01*
Y6000D01*
X266975Y5000D01*
X268974D01*
X269974Y6000D01*
Y7999D01*
X267974D01*
X271973Y10998D02*
Y5000D01*
X274972D01*
X275972Y6000D01*
Y6999D01*
X274972Y7999D01*
X271973D01*
X274972D01*
X275972Y8999D01*
Y9998D01*
X274972Y10998D01*
X271973D01*
X283969D02*
Y5000D01*
X287968D01*
X293966Y10998D02*
X289967D01*
Y5000D01*
X293966D01*
X289967Y7999D02*
X291967D01*
X295965Y10998D02*
Y5000D01*
X298964D01*
X299964Y6000D01*
Y9998D01*
X298964Y10998D01*
X295965D01*
X307962Y7999D02*
X311960D01*
X319958Y5000D02*
X321957D01*
X320957D01*
Y10998D01*
X319958Y9998D01*
X324956Y10998D02*
X328955D01*
Y9998D01*
X324956Y6000D01*
Y5000D01*
X336952Y10998D02*
Y5000D01*
X340951D01*
X346949Y10998D02*
X342950D01*
Y5000D01*
X346949D01*
X342950Y7999D02*
X344950D01*
X348948Y10998D02*
Y5000D01*
X351947D01*
X352947Y6000D01*
Y9998D01*
X351947Y10998D01*
X348948D01*
X364943Y9998D02*
X363943Y10998D01*
X361944D01*
X360944Y9998D01*
Y6000D01*
X361944Y5000D01*
X363943D01*
X364943Y6000D01*
X366942Y10998D02*
Y5000D01*
Y7999D01*
X370941D01*
Y10998D01*
Y5000D01*
X372940D02*
Y8999D01*
X374940Y10998D01*
X376939Y8999D01*
Y5000D01*
Y7999D01*
X372940D01*
X382937Y9998D02*
X381938Y10998D01*
X379938D01*
X378939Y9998D01*
Y8999D01*
X379938Y7999D01*
X381938D01*
X382937Y6999D01*
Y6000D01*
X381938Y5000D01*
X379938D01*
X378939Y6000D01*
X388935Y10998D02*
X384937D01*
Y5000D01*
X388935D01*
X384937Y7999D02*
X386936D01*
X390935Y5000D02*
Y10998D01*
X393934D01*
X394933Y9998D01*
Y7999D01*
X393934Y6999D01*
X390935D01*
X392934D02*
X394933Y5000D01*
M02*
