G04 Layer_Color=65535*
%FSLAX25Y25*%
%MOIN*%
G70*
G01*
G75*
%ADD29C,0.00787*%
%ADD30C,0.01000*%
%ADD31C,0.00800*%
%ADD32C,0.00600*%
%ADD33C,0.00000*%
%ADD34C,0.00500*%
%ADD35C,0.00394*%
%ADD36C,0.01181*%
%ADD37C,0.01575*%
%ADD38C,0.01968*%
D29*
X376732Y36797D02*
G03*
X375774Y50598I-4232J6640D01*
G01*
X369226D02*
G03*
X368268Y36797I3274J-7161D01*
G01*
X353640Y48669D02*
G03*
X339839Y47711I-6640J-4232D01*
G01*
Y41163D02*
G03*
X353640Y40205I7161J3274D01*
G01*
X345858Y175157D02*
G03*
X345858Y175157I-394J0D01*
G01*
X356018Y144268D02*
G03*
X369818Y145226I6640J4232D01*
G01*
Y151774D02*
G03*
X356018Y152732I-7161J-3274D01*
G01*
X86051Y128035D02*
G03*
X86051Y128035I-394J0D01*
G01*
X54768Y117482D02*
G03*
X55726Y103682I4232J-6640D01*
G01*
X62274D02*
G03*
X63232Y117482I-3274J7161D01*
G01*
X86051Y207535D02*
G03*
X86051Y207535I-394J0D01*
G01*
X54768Y196982D02*
G03*
X55726Y183182I4232J-6640D01*
G01*
X62274D02*
G03*
X63232Y196982I-3274J7161D01*
G01*
X86051Y286535D02*
G03*
X86051Y286535I-394J0D01*
G01*
X54768Y275982D02*
G03*
X55726Y262182I4232J-6640D01*
G01*
X62274D02*
G03*
X63232Y275982I-3274J7161D01*
G01*
X85551Y366035D02*
G03*
X85551Y366035I-394J0D01*
G01*
X54268Y355482D02*
G03*
X55226Y341682I4232J-6640D01*
G01*
X61774D02*
G03*
X62732Y355482I-3274J7161D01*
G01*
X54268Y37211D02*
G03*
X55226Y23410I4232J-6640D01*
G01*
X61774D02*
G03*
X62732Y37211I-3274J7161D01*
G01*
X85551Y47764D02*
G03*
X85551Y47764I-394J0D01*
G01*
X348500Y64937D02*
Y84937D01*
Y64937D02*
X358500D01*
Y84937D01*
X348500D02*
X358500D01*
X331100Y30937D02*
X332000D01*
X352000D02*
X352900D01*
X332000D02*
Y33937D01*
X352000D01*
Y27937D02*
Y33937D01*
X332000Y27937D02*
X352000D01*
X332000D02*
Y30937D01*
X331100Y57937D02*
X332000D01*
X352000D02*
X352900D01*
X332000D02*
Y60937D01*
X352000D01*
Y54937D02*
Y60937D01*
X332000Y54937D02*
X352000D01*
X332000D02*
Y57937D01*
X355000Y108000D02*
X375000D01*
X355000Y98000D02*
Y108000D01*
Y98000D02*
X375000D01*
Y108000D01*
X347600Y379000D02*
X348500D01*
X368500D02*
X369400D01*
X348500D02*
Y382000D01*
X368500D01*
Y376000D02*
Y382000D01*
X348500Y376000D02*
X368500D01*
X348500D02*
Y379000D01*
X348100Y391000D02*
X349000D01*
X369000D02*
X369900D01*
X349000D02*
Y394000D01*
X369000D01*
Y388000D02*
Y394000D01*
X349000Y388000D02*
X369000D01*
X349000D02*
Y391000D01*
X353600Y123000D02*
X354500D01*
X374500D02*
X375400D01*
X354500D02*
Y126000D01*
X374500D01*
Y120000D02*
Y126000D01*
X354500Y120000D02*
X374500D01*
X354500D02*
Y123000D01*
X18500Y98500D02*
Y118500D01*
X8500D02*
X18500D01*
X8500Y98500D02*
Y118500D01*
Y98500D02*
X18500D01*
X289500Y125000D02*
Y125900D01*
Y104100D02*
Y105000D01*
Y125000D02*
X292500D01*
Y105000D02*
Y125000D01*
X286500Y105000D02*
X292500D01*
X286500D02*
Y125000D01*
X289500D01*
X301500Y124500D02*
Y125400D01*
Y103600D02*
Y104500D01*
Y124500D02*
X304500D01*
Y104500D02*
Y124500D01*
X298500Y104500D02*
X304500D01*
X298500D02*
Y124500D01*
X301500D01*
X33500Y119000D02*
Y119900D01*
Y98100D02*
Y99000D01*
Y119000D02*
X36500D01*
Y99000D02*
Y119000D01*
X30500Y99000D02*
X36500D01*
X30500D02*
Y119000D01*
X33500D01*
X18500Y178000D02*
Y198000D01*
X8500D02*
X18500D01*
X8500Y178000D02*
Y198000D01*
Y178000D02*
X18500D01*
X289500Y204500D02*
Y205400D01*
Y183600D02*
Y184500D01*
Y204500D02*
X292500D01*
Y184500D02*
Y204500D01*
X286500Y184500D02*
X292500D01*
X286500D02*
Y204500D01*
X289500D01*
X301500Y204000D02*
Y204900D01*
Y183100D02*
Y184000D01*
Y204000D02*
X304500D01*
Y184000D02*
Y204000D01*
X298500Y184000D02*
X304500D01*
X298500D02*
Y204000D01*
X301500D01*
X33500Y198500D02*
Y199400D01*
Y177600D02*
Y178500D01*
Y198500D02*
X36500D01*
Y178500D02*
Y198500D01*
X30500Y178500D02*
X36500D01*
X30500D02*
Y198500D01*
X33500D01*
X18500Y257000D02*
Y277000D01*
X8500D02*
X18500D01*
X8500Y257000D02*
Y277000D01*
Y257000D02*
X18500D01*
X289500Y283500D02*
Y284400D01*
Y262600D02*
Y263500D01*
Y283500D02*
X292500D01*
Y263500D02*
Y283500D01*
X286500Y263500D02*
X292500D01*
X286500D02*
Y283500D01*
X289500D01*
X301500Y283000D02*
Y283900D01*
Y262100D02*
Y263000D01*
Y283000D02*
X304500D01*
Y263000D02*
Y283000D01*
X298500Y263000D02*
X304500D01*
X298500D02*
Y283000D01*
X301500D01*
X33500Y277500D02*
Y278400D01*
Y256600D02*
Y257500D01*
Y277500D02*
X36500D01*
Y257500D02*
Y277500D01*
X30500Y257500D02*
X36500D01*
X30500D02*
Y277500D01*
X33500D01*
X18000Y336500D02*
Y356500D01*
X8000D02*
X18000D01*
X8000Y336500D02*
Y356500D01*
Y336500D02*
X18000D01*
X289000Y363000D02*
Y363900D01*
Y342100D02*
Y343000D01*
Y363000D02*
X292000D01*
Y343000D02*
Y363000D01*
X286000Y343000D02*
X292000D01*
X286000D02*
Y363000D01*
X289000D01*
X301000Y362500D02*
Y363400D01*
Y341600D02*
Y342500D01*
Y362500D02*
X304000D01*
Y342500D02*
Y362500D01*
X298000Y342500D02*
X304000D01*
X298000D02*
Y362500D01*
X301000D01*
X33000Y357000D02*
Y357900D01*
Y336100D02*
Y337000D01*
Y357000D02*
X36000D01*
Y337000D02*
Y357000D01*
X30000Y337000D02*
X36000D01*
X30000D02*
Y357000D01*
X33000D01*
X18000Y18228D02*
Y38228D01*
X8000D02*
X18000D01*
X8000Y18228D02*
Y38228D01*
Y18228D02*
X18000D01*
X33000Y38728D02*
Y39628D01*
Y17828D02*
Y18728D01*
Y38728D02*
X36000D01*
Y18728D02*
Y38728D01*
X30000Y18728D02*
X36000D01*
X30000D02*
Y38728D01*
X33000D01*
X289000Y44728D02*
Y45628D01*
Y23828D02*
Y24728D01*
Y44728D02*
X292000D01*
Y24728D02*
Y44728D01*
X286000Y24728D02*
X292000D01*
X286000D02*
Y44728D01*
X289000D01*
X301000Y44228D02*
Y45128D01*
Y23328D02*
Y24228D01*
Y44228D02*
X304000D01*
Y24228D02*
Y44228D01*
X298000Y24228D02*
X304000D01*
X298000D02*
Y44228D01*
X301000D01*
X360657Y80500D02*
X360001Y81156D01*
Y82468D01*
X360657Y83124D01*
X361313D01*
X361969Y82468D01*
Y81812D01*
Y82468D01*
X362625Y83124D01*
X363281D01*
X363937Y82468D01*
Y81156D01*
X363281Y80500D01*
X360001Y84436D02*
X362625D01*
X363937Y85748D01*
X362625Y87060D01*
X360001D01*
X346500Y29657D02*
X345844Y29001D01*
X344532D01*
X343876Y29657D01*
Y30313D01*
X344532Y30969D01*
X345188D01*
X344532D01*
X343876Y31625D01*
Y32281D01*
X344532Y32937D01*
X345844D01*
X346500Y32281D01*
X342564Y29657D02*
X341908Y29001D01*
X340596D01*
X339940Y29657D01*
Y30313D01*
X340596Y30969D01*
X341252D01*
X340596D01*
X339940Y31625D01*
Y32281D01*
X340596Y32937D01*
X341908D01*
X342564Y32281D01*
X338629Y29001D02*
Y32937D01*
Y31625D01*
X336005Y29001D01*
X337973Y30969D01*
X336005Y32937D01*
X345000Y56657D02*
X344344Y56001D01*
X343032D01*
X342376Y56657D01*
Y57313D01*
X343032Y57969D01*
X343688D01*
X343032D01*
X342376Y58625D01*
Y59281D01*
X343032Y59937D01*
X344344D01*
X345000Y59281D01*
X341064Y56657D02*
X340408Y56001D01*
X339096D01*
X338440Y56657D01*
Y57313D01*
X339096Y57969D01*
X339752D01*
X339096D01*
X338440Y58625D01*
Y59281D01*
X339096Y59937D01*
X340408D01*
X341064Y59281D01*
X337128Y56001D02*
Y59937D01*
Y58625D01*
X334505Y56001D01*
X336473Y57969D01*
X334505Y59937D01*
X384000Y4561D02*
Y1937D01*
X381376Y4561D01*
X380720D01*
X380064Y3905D01*
Y2593D01*
X380720Y1937D01*
X384000Y5873D02*
X380064D01*
X384000Y8497D01*
X380064D01*
X384000Y12432D02*
Y9809D01*
X381376Y12432D01*
X380720D01*
X380064Y11776D01*
Y10464D01*
X380720Y9809D01*
X384000Y16368D02*
Y13744D01*
X381376Y16368D01*
X380720D01*
X380064Y15712D01*
Y14400D01*
X380720Y13744D01*
X384000Y20304D02*
Y17680D01*
X381376Y20304D01*
X380720D01*
X380064Y19648D01*
Y18336D01*
X380720Y17680D01*
X384000Y24239D02*
Y21616D01*
X381376Y24239D01*
X380720D01*
X380064Y23584D01*
Y22272D01*
X380720Y21616D01*
X384000Y64561D02*
Y61937D01*
X381376Y64561D01*
X380720D01*
X380064Y63905D01*
Y62593D01*
X380720Y61937D01*
X384000Y65873D02*
X380064D01*
X384000Y68497D01*
X380064D01*
X384000Y72432D02*
Y69809D01*
X381376Y72432D01*
X380720D01*
X380064Y71776D01*
Y70464D01*
X380720Y69809D01*
X384000Y76368D02*
Y73744D01*
X381376Y76368D01*
X380720D01*
X380064Y75712D01*
Y74400D01*
X380720Y73744D01*
X384000Y80304D02*
Y77680D01*
X381376Y80304D01*
X380720D01*
X380064Y79648D01*
Y78336D01*
X380720Y77680D01*
X384000Y84240D02*
Y81616D01*
X381376Y84240D01*
X380720D01*
X380064Y83584D01*
Y82272D01*
X380720Y81616D01*
X364000Y381000D02*
X362688D01*
X363344D01*
Y377064D01*
X364000Y377720D01*
X360720D02*
X360064Y377064D01*
X358752D01*
X358096Y377720D01*
Y380344D01*
X358752Y381000D01*
X360064D01*
X360720Y380344D01*
Y377720D01*
X356785D02*
X356129Y377064D01*
X354817D01*
X354161Y377720D01*
Y380344D01*
X354817Y381000D01*
X356129D01*
X356785Y380344D01*
Y377720D01*
X368000Y150000D02*
X366688D01*
X367344D01*
Y146064D01*
X368000Y146720D01*
X364720D02*
X364064Y146064D01*
X362752D01*
X362096Y146720D01*
Y149344D01*
X362752Y150000D01*
X364064D01*
X364720Y149344D01*
Y146720D01*
X360785Y147376D02*
Y149344D01*
X360128Y150000D01*
X358161D01*
Y147376D01*
X363000Y389720D02*
X362344Y389064D01*
X361032D01*
X360376Y389720D01*
Y390376D01*
X361032Y391032D01*
X361688D01*
X361032D01*
X360376Y391688D01*
Y392344D01*
X361032Y393000D01*
X362344D01*
X363000Y392344D01*
X359064Y389720D02*
X358408Y389064D01*
X357096D01*
X356440Y389720D01*
Y390376D01*
X357096Y391032D01*
X357752D01*
X357096D01*
X356440Y391688D01*
Y392344D01*
X357096Y393000D01*
X358408D01*
X359064Y392344D01*
X369500Y125000D02*
X368188D01*
X368844D01*
Y121064D01*
X369500Y121720D01*
X366220D02*
X365564Y121064D01*
X364252D01*
X363596Y121720D01*
Y124344D01*
X364252Y125000D01*
X365564D01*
X366220Y124344D01*
Y121720D01*
X362284Y121064D02*
Y125000D01*
Y123688D01*
X359661Y121064D01*
X361629Y123032D01*
X359661Y125000D01*
X291500Y109500D02*
Y110812D01*
Y110156D01*
X287564D01*
X288220Y109500D01*
Y112780D02*
X287564Y113436D01*
Y114748D01*
X288220Y115404D01*
X290844D01*
X291500Y114748D01*
Y113436D01*
X290844Y112780D01*
X288220D01*
Y116716D02*
X287564Y117371D01*
Y118683D01*
X288220Y119339D01*
X290844D01*
X291500Y118683D01*
Y117371D01*
X290844Y116716D01*
X288220D01*
X60500Y105500D02*
Y106812D01*
Y106156D01*
X56564D01*
X57220Y105500D01*
Y108780D02*
X56564Y109436D01*
Y110748D01*
X57220Y111404D01*
X59844D01*
X60500Y110748D01*
Y109436D01*
X59844Y108780D01*
X57220D01*
X57876Y112715D02*
X59844D01*
X60500Y113372D01*
Y115339D01*
X57876D01*
X300220Y110500D02*
X299564Y111156D01*
Y112468D01*
X300220Y113124D01*
X300876D01*
X301532Y112468D01*
Y111812D01*
Y112468D01*
X302188Y113124D01*
X302844D01*
X303500Y112468D01*
Y111156D01*
X302844Y110500D01*
X300220Y114436D02*
X299564Y115092D01*
Y116404D01*
X300220Y117060D01*
X300876D01*
X301532Y116404D01*
Y115748D01*
Y116404D01*
X302188Y117060D01*
X302844D01*
X303500Y116404D01*
Y115092D01*
X302844Y114436D01*
X35500Y104000D02*
Y105312D01*
Y104656D01*
X31564D01*
X32220Y104000D01*
Y107280D02*
X31564Y107936D01*
Y109248D01*
X32220Y109904D01*
X34844D01*
X35500Y109248D01*
Y107936D01*
X34844Y107280D01*
X32220D01*
X31564Y111215D02*
X35500D01*
X34188D01*
X31564Y113839D01*
X33532Y111872D01*
X35500Y113839D01*
X291500Y189000D02*
Y190312D01*
Y189656D01*
X287564D01*
X288220Y189000D01*
Y192280D02*
X287564Y192936D01*
Y194248D01*
X288220Y194904D01*
X290844D01*
X291500Y194248D01*
Y192936D01*
X290844Y192280D01*
X288220D01*
Y196215D02*
X287564Y196871D01*
Y198183D01*
X288220Y198839D01*
X290844D01*
X291500Y198183D01*
Y196871D01*
X290844Y196215D01*
X288220D01*
X60500Y185000D02*
Y186312D01*
Y185656D01*
X56564D01*
X57220Y185000D01*
Y188280D02*
X56564Y188936D01*
Y190248D01*
X57220Y190904D01*
X59844D01*
X60500Y190248D01*
Y188936D01*
X59844Y188280D01*
X57220D01*
X57876Y192216D02*
X59844D01*
X60500Y192871D01*
Y194839D01*
X57876D01*
X300220Y190000D02*
X299564Y190656D01*
Y191968D01*
X300220Y192624D01*
X300876D01*
X301532Y191968D01*
Y191312D01*
Y191968D01*
X302188Y192624D01*
X302844D01*
X303500Y191968D01*
Y190656D01*
X302844Y190000D01*
X300220Y193936D02*
X299564Y194592D01*
Y195904D01*
X300220Y196560D01*
X300876D01*
X301532Y195904D01*
Y195248D01*
Y195904D01*
X302188Y196560D01*
X302844D01*
X303500Y195904D01*
Y194592D01*
X302844Y193936D01*
X35500Y183500D02*
Y184812D01*
Y184156D01*
X31564D01*
X32220Y183500D01*
Y186780D02*
X31564Y187436D01*
Y188748D01*
X32220Y189404D01*
X34844D01*
X35500Y188748D01*
Y187436D01*
X34844Y186780D01*
X32220D01*
X31564Y190716D02*
X35500D01*
X34188D01*
X31564Y193339D01*
X33532Y191372D01*
X35500Y193339D01*
X291500Y268000D02*
Y269312D01*
Y268656D01*
X287564D01*
X288220Y268000D01*
Y271280D02*
X287564Y271936D01*
Y273248D01*
X288220Y273904D01*
X290844D01*
X291500Y273248D01*
Y271936D01*
X290844Y271280D01*
X288220D01*
Y275216D02*
X287564Y275871D01*
Y277183D01*
X288220Y277839D01*
X290844D01*
X291500Y277183D01*
Y275871D01*
X290844Y275216D01*
X288220D01*
X60500Y264000D02*
Y265312D01*
Y264656D01*
X56564D01*
X57220Y264000D01*
Y267280D02*
X56564Y267936D01*
Y269248D01*
X57220Y269904D01*
X59844D01*
X60500Y269248D01*
Y267936D01*
X59844Y267280D01*
X57220D01*
X57876Y271216D02*
X59844D01*
X60500Y271871D01*
Y273839D01*
X57876D01*
X300220Y269000D02*
X299564Y269656D01*
Y270968D01*
X300220Y271624D01*
X300876D01*
X301532Y270968D01*
Y270312D01*
Y270968D01*
X302188Y271624D01*
X302844D01*
X303500Y270968D01*
Y269656D01*
X302844Y269000D01*
X300220Y272936D02*
X299564Y273592D01*
Y274904D01*
X300220Y275560D01*
X300876D01*
X301532Y274904D01*
Y274248D01*
Y274904D01*
X302188Y275560D01*
X302844D01*
X303500Y274904D01*
Y273592D01*
X302844Y272936D01*
X35500Y262500D02*
Y263812D01*
Y263156D01*
X31564D01*
X32220Y262500D01*
Y265780D02*
X31564Y266436D01*
Y267748D01*
X32220Y268404D01*
X34844D01*
X35500Y267748D01*
Y266436D01*
X34844Y265780D01*
X32220D01*
X31564Y269715D02*
X35500D01*
X34188D01*
X31564Y272339D01*
X33532Y270372D01*
X35500Y272339D01*
X291000Y347500D02*
Y348812D01*
Y348156D01*
X287064D01*
X287720Y347500D01*
Y350780D02*
X287064Y351436D01*
Y352748D01*
X287720Y353404D01*
X290344D01*
X291000Y352748D01*
Y351436D01*
X290344Y350780D01*
X287720D01*
Y354715D02*
X287064Y355371D01*
Y356683D01*
X287720Y357339D01*
X290344D01*
X291000Y356683D01*
Y355371D01*
X290344Y354715D01*
X287720D01*
X60000Y343500D02*
Y344812D01*
Y344156D01*
X56064D01*
X56720Y343500D01*
Y346780D02*
X56064Y347436D01*
Y348748D01*
X56720Y349404D01*
X59344D01*
X60000Y348748D01*
Y347436D01*
X59344Y346780D01*
X56720D01*
X57376Y350715D02*
X59344D01*
X60000Y351372D01*
Y353339D01*
X57376D01*
X299720Y348500D02*
X299064Y349156D01*
Y350468D01*
X299720Y351124D01*
X300376D01*
X301032Y350468D01*
Y349812D01*
Y350468D01*
X301688Y351124D01*
X302344D01*
X303000Y350468D01*
Y349156D01*
X302344Y348500D01*
X299720Y352436D02*
X299064Y353092D01*
Y354404D01*
X299720Y355060D01*
X300376D01*
X301032Y354404D01*
Y353748D01*
Y354404D01*
X301688Y355060D01*
X302344D01*
X303000Y354404D01*
Y353092D01*
X302344Y352436D01*
X35000Y342000D02*
Y343312D01*
Y342656D01*
X31064D01*
X31720Y342000D01*
Y345280D02*
X31064Y345936D01*
Y347248D01*
X31720Y347904D01*
X34344D01*
X35000Y347248D01*
Y345936D01*
X34344Y345280D01*
X31720D01*
X31064Y349216D02*
X35000D01*
X33688D01*
X31064Y351839D01*
X33032Y349871D01*
X35000Y351839D01*
Y23728D02*
Y25040D01*
Y24384D01*
X31064D01*
X31720Y23728D01*
Y27008D02*
X31064Y27664D01*
Y28976D01*
X31720Y29632D01*
X34344D01*
X35000Y28976D01*
Y27664D01*
X34344Y27008D01*
X31720D01*
X31064Y30944D02*
X35000D01*
X33688D01*
X31064Y33568D01*
X33032Y31600D01*
X35000Y33568D01*
X299720Y30228D02*
X299064Y30884D01*
Y32196D01*
X299720Y32852D01*
X300376D01*
X301032Y32196D01*
Y31540D01*
Y32196D01*
X301688Y32852D01*
X302344D01*
X303000Y32196D01*
Y30884D01*
X302344Y30228D01*
X299720Y34164D02*
X299064Y34820D01*
Y36132D01*
X299720Y36788D01*
X300376D01*
X301032Y36132D01*
Y35476D01*
Y36132D01*
X301688Y36788D01*
X302344D01*
X303000Y36132D01*
Y34820D01*
X302344Y34164D01*
X60000Y25228D02*
Y26540D01*
Y25884D01*
X56064D01*
X56720Y25228D01*
Y28508D02*
X56064Y29164D01*
Y30476D01*
X56720Y31132D01*
X59344D01*
X60000Y30476D01*
Y29164D01*
X59344Y28508D01*
X56720D01*
X57376Y32444D02*
X59344D01*
X60000Y33100D01*
Y35068D01*
X57376D01*
X291000Y29228D02*
Y30540D01*
Y29884D01*
X287064D01*
X287720Y29228D01*
Y32508D02*
X287064Y33164D01*
Y34476D01*
X287720Y35132D01*
X290344D01*
X291000Y34476D01*
Y33164D01*
X290344Y32508D01*
X287720D01*
Y36444D02*
X287064Y37100D01*
Y38412D01*
X287720Y39068D01*
X290344D01*
X291000Y38412D01*
Y37100D01*
X290344Y36444D01*
X287720D01*
D30*
X346114Y13437D02*
G03*
X346114Y13437I-11614J0D01*
G01*
X344614Y74937D02*
G03*
X344614Y74937I-11614J0D01*
G01*
X337114Y384000D02*
G03*
X337114Y384000I-11614J0D01*
G01*
Y358500D02*
G03*
X337114Y358500I-11614J0D01*
G01*
Y333000D02*
G03*
X337114Y333000I-11614J0D01*
G01*
Y307500D02*
G03*
X337114Y307500I-11614J0D01*
G01*
Y282000D02*
G03*
X337114Y282000I-11614J0D01*
G01*
Y256500D02*
G03*
X337114Y256500I-11614J0D01*
G01*
Y231000D02*
G03*
X337114Y231000I-11614J0D01*
G01*
Y205500D02*
G03*
X337114Y205500I-11614J0D01*
G01*
Y180000D02*
G03*
X337114Y180000I-11614J0D01*
G01*
Y154500D02*
G03*
X337114Y154500I-11614J0D01*
G01*
Y129000D02*
G03*
X337114Y129000I-11614J0D01*
G01*
X337614Y103500D02*
G03*
X337614Y103500I-11614J0D01*
G01*
X365000Y221000D02*
G03*
X361500Y224000I-3250J-250D01*
G01*
D02*
G03*
X358000Y221000I-250J-3250D01*
G01*
X363000Y363000D02*
G03*
X366500Y366000I250J3250D01*
G01*
X359500D02*
G03*
X363000Y363000I3250J250D01*
G01*
X306114Y148000D02*
G03*
X306114Y148000I-11614J0D01*
G01*
X280614D02*
G03*
X280614Y148000I-11614J0D01*
G01*
X255114D02*
G03*
X255114Y148000I-11614J0D01*
G01*
X229614D02*
G03*
X229614Y148000I-11614J0D01*
G01*
X204114D02*
G03*
X204114Y148000I-11614J0D01*
G01*
X178614D02*
G03*
X178614Y148000I-11614J0D01*
G01*
X153114D02*
G03*
X153114Y148000I-11614J0D01*
G01*
X127614D02*
G03*
X127614Y148000I-11614J0D01*
G01*
X102114D02*
G03*
X102114Y148000I-11614J0D01*
G01*
X76614D02*
G03*
X76614Y148000I-11614J0D01*
G01*
X51114D02*
G03*
X51114Y148000I-11614J0D01*
G01*
X25614Y147500D02*
G03*
X25614Y147500I-11614J0D01*
G01*
X131500Y108500D02*
G03*
X134500Y112000I-250J3250D01*
G01*
D02*
G03*
X131500Y115500I-3250J250D01*
G01*
X273500Y110500D02*
G03*
X276500Y107000I3250J-250D01*
G01*
Y114000D02*
G03*
X273500Y110500I250J-3250D01*
G01*
X306114Y227500D02*
G03*
X306114Y227500I-11614J0D01*
G01*
X280614D02*
G03*
X280614Y227500I-11614J0D01*
G01*
X255114D02*
G03*
X255114Y227500I-11614J0D01*
G01*
X229614D02*
G03*
X229614Y227500I-11614J0D01*
G01*
X204114D02*
G03*
X204114Y227500I-11614J0D01*
G01*
X178614D02*
G03*
X178614Y227500I-11614J0D01*
G01*
X153114D02*
G03*
X153114Y227500I-11614J0D01*
G01*
X127614D02*
G03*
X127614Y227500I-11614J0D01*
G01*
X102114D02*
G03*
X102114Y227500I-11614J0D01*
G01*
X76614D02*
G03*
X76614Y227500I-11614J0D01*
G01*
X51114D02*
G03*
X51114Y227500I-11614J0D01*
G01*
X25614Y227000D02*
G03*
X25614Y227000I-11614J0D01*
G01*
X131500Y188000D02*
G03*
X134500Y191500I-250J3250D01*
G01*
D02*
G03*
X131500Y195000I-3250J250D01*
G01*
X273500Y190000D02*
G03*
X276500Y186500I3250J-250D01*
G01*
Y193500D02*
G03*
X273500Y190000I250J-3250D01*
G01*
X306114Y306500D02*
G03*
X306114Y306500I-11614J0D01*
G01*
X280614D02*
G03*
X280614Y306500I-11614J0D01*
G01*
X255114D02*
G03*
X255114Y306500I-11614J0D01*
G01*
X229614D02*
G03*
X229614Y306500I-11614J0D01*
G01*
X204114D02*
G03*
X204114Y306500I-11614J0D01*
G01*
X178614D02*
G03*
X178614Y306500I-11614J0D01*
G01*
X153114D02*
G03*
X153114Y306500I-11614J0D01*
G01*
X127614D02*
G03*
X127614Y306500I-11614J0D01*
G01*
X102114D02*
G03*
X102114Y306500I-11614J0D01*
G01*
X76614D02*
G03*
X76614Y306500I-11614J0D01*
G01*
X51114D02*
G03*
X51114Y306500I-11614J0D01*
G01*
X25614Y306000D02*
G03*
X25614Y306000I-11614J0D01*
G01*
X131500Y267000D02*
G03*
X134500Y270500I-250J3250D01*
G01*
D02*
G03*
X131500Y274000I-3250J250D01*
G01*
X273500Y269000D02*
G03*
X276500Y265500I3250J-250D01*
G01*
Y272500D02*
G03*
X273500Y269000I250J-3250D01*
G01*
X305614Y386000D02*
G03*
X305614Y386000I-11614J0D01*
G01*
X280114D02*
G03*
X280114Y386000I-11614J0D01*
G01*
X254614D02*
G03*
X254614Y386000I-11614J0D01*
G01*
X229114D02*
G03*
X229114Y386000I-11614J0D01*
G01*
X203614D02*
G03*
X203614Y386000I-11614J0D01*
G01*
X178114D02*
G03*
X178114Y386000I-11614J0D01*
G01*
X152614D02*
G03*
X152614Y386000I-11614J0D01*
G01*
X127114D02*
G03*
X127114Y386000I-11614J0D01*
G01*
X101614D02*
G03*
X101614Y386000I-11614J0D01*
G01*
X76114D02*
G03*
X76114Y386000I-11614J0D01*
G01*
X50614D02*
G03*
X50614Y386000I-11614J0D01*
G01*
X25114Y385500D02*
G03*
X25114Y385500I-11614J0D01*
G01*
X131000Y346500D02*
G03*
X134000Y350000I-250J3250D01*
G01*
D02*
G03*
X131000Y353500I-3250J250D01*
G01*
X273000Y348500D02*
G03*
X276000Y345000I3250J-250D01*
G01*
Y352000D02*
G03*
X273000Y348500I250J-3250D01*
G01*
X276000Y33728D02*
G03*
X273000Y30228I250J-3250D01*
G01*
D02*
G03*
X276000Y26728I3250J-250D01*
G01*
X134000Y31728D02*
G03*
X131000Y35228I-3250J250D01*
G01*
Y28228D02*
G03*
X134000Y31728I-250J3250D01*
G01*
X305614Y67728D02*
G03*
X305614Y67728I-11614J0D01*
G01*
X280114D02*
G03*
X280114Y67728I-11614J0D01*
G01*
X254614D02*
G03*
X254614Y67728I-11614J0D01*
G01*
X229114D02*
G03*
X229114Y67728I-11614J0D01*
G01*
X203614D02*
G03*
X203614Y67728I-11614J0D01*
G01*
X178114D02*
G03*
X178114Y67728I-11614J0D01*
G01*
X152614D02*
G03*
X152614Y67728I-11614J0D01*
G01*
X127114D02*
G03*
X127114Y67728I-11614J0D01*
G01*
X101614D02*
G03*
X101614Y67728I-11614J0D01*
G01*
X76114D02*
G03*
X76114Y67728I-11614J0D01*
G01*
X50614D02*
G03*
X50614Y67728I-11614J0D01*
G01*
X25114Y67228D02*
G03*
X25114Y67228I-11614J0D01*
G01*
X315437Y1000D02*
X385500D01*
X315437D02*
Y88500D01*
X385500D01*
Y1000D02*
Y88500D01*
X387000Y91500D02*
Y92500D01*
Y397500D01*
X313728D02*
X387000D01*
X313728Y91500D02*
Y397500D01*
Y91500D02*
X387000D01*
X2000Y86500D02*
X3000D01*
X308000D01*
Y159772D01*
X2000D02*
X308000D01*
X2000Y86500D02*
Y159772D01*
Y166000D02*
X3000D01*
X308000D01*
Y239272D01*
X2000D02*
X308000D01*
X2000Y166000D02*
Y239272D01*
Y245000D02*
X3000D01*
X308000D01*
Y318272D01*
X2000D02*
X308000D01*
X2000Y245000D02*
Y318272D01*
X1500Y324500D02*
X2500D01*
X307500D01*
Y397772D01*
X1500D02*
X307500D01*
X1500Y324500D02*
Y397772D01*
Y6228D02*
Y79500D01*
X307500D01*
Y6228D02*
Y79500D01*
X2500Y6228D02*
X307500D01*
X1500D02*
X2500D01*
X328532Y16937D02*
Y19561D01*
X327220Y18249D02*
X329844D01*
X322500Y31437D02*
X319876D01*
X318564Y32749D01*
X319876Y34061D01*
X322500D01*
X320532D01*
Y31437D01*
X322500Y35373D02*
X321844D01*
Y36029D01*
X322500D01*
Y35373D01*
X318564Y38653D02*
Y39964D01*
Y39309D01*
X322500D01*
Y38653D01*
Y39964D01*
Y41932D02*
X321844D01*
Y42588D01*
X322500D01*
Y41932D01*
Y49148D02*
X318564D01*
Y51116D01*
X319220Y51772D01*
X320532D01*
X321188Y51116D01*
Y49148D01*
X319220Y55707D02*
X318564Y55051D01*
Y53740D01*
X319220Y53084D01*
X321844D01*
X322500Y53740D01*
Y55051D01*
X321844Y55707D01*
X318564Y57019D02*
X322500D01*
Y58987D01*
X321844Y59643D01*
X321188D01*
X320532Y58987D01*
Y57019D01*
Y58987D01*
X319876Y59643D01*
X319220D01*
X318564Y58987D01*
Y57019D01*
X329032Y9937D02*
Y12561D01*
X326532Y68937D02*
Y71561D01*
X325220Y70249D02*
X327844D01*
X327032Y78437D02*
Y81061D01*
X351532Y43437D02*
Y46061D01*
X350220Y44749D02*
X352844D01*
X372532Y38437D02*
Y41061D01*
X371220Y39749D02*
X373844D01*
X346032Y65437D02*
Y68061D01*
X344720Y66749D02*
X347344D01*
X372532Y45937D02*
Y48561D01*
X341032Y42437D02*
Y45061D01*
X347032Y79937D02*
Y82561D01*
X317064Y7437D02*
X321000D01*
Y10061D01*
X317064Y13997D02*
Y11373D01*
X321000D01*
Y13997D01*
X319032Y11373D02*
Y12685D01*
X317064Y15308D02*
X321000D01*
Y17276D01*
X320344Y17932D01*
X317720D01*
X317064Y17276D01*
Y15308D01*
X316501Y71000D02*
X320437D01*
Y73624D01*
X316501Y77560D02*
Y74936D01*
X320437D01*
Y77560D01*
X318469Y74936D02*
Y76248D01*
X316501Y78872D02*
X320437D01*
Y80839D01*
X319781Y81495D01*
X317157D01*
X316501Y80839D01*
Y78872D01*
X372501Y140000D02*
Y143999D01*
X320501Y376000D02*
Y379999D01*
Y350000D02*
Y353999D01*
Y324500D02*
Y328499D01*
Y299500D02*
Y303499D01*
Y273500D02*
Y277499D01*
Y248000D02*
Y251999D01*
Y222500D02*
Y226499D01*
Y197000D02*
Y200999D01*
Y171500D02*
Y175499D01*
Y146000D02*
Y149999D01*
Y120500D02*
Y124499D01*
X321001Y95000D02*
Y98999D01*
X352501Y139500D02*
Y143499D01*
X350502Y141499D02*
X354500D01*
X330501Y375500D02*
Y379499D01*
X328502Y377499D02*
X332500D01*
X330501Y350000D02*
Y353999D01*
X328502Y351999D02*
X332500D01*
X330501Y324500D02*
Y328499D01*
X328502Y326499D02*
X332500D01*
X330501Y299000D02*
Y302999D01*
X328502Y300999D02*
X332500D01*
X330501Y274000D02*
Y277999D01*
X328502Y275999D02*
X332500D01*
X330501Y248000D02*
Y251999D01*
X328502Y249999D02*
X332500D01*
X330501Y222500D02*
Y226499D01*
X328502Y224499D02*
X332500D01*
X330501Y197000D02*
Y200999D01*
X328502Y198999D02*
X332500D01*
X330501Y171500D02*
Y175499D01*
X328502Y173499D02*
X332500D01*
X330501Y146000D02*
Y149999D01*
X328502Y147999D02*
X332500D01*
X330501Y120500D02*
Y124499D01*
X328502Y122499D02*
X332500D01*
X331001Y95000D02*
Y98999D01*
X329002Y96999D02*
X333000D01*
X365000Y172500D02*
Y174337D01*
Y173418D01*
X359490D01*
X360408Y172500D01*
Y177092D02*
X359490Y178010D01*
Y179847D01*
X360408Y180765D01*
X364082D01*
X365000Y179847D01*
Y178010D01*
X364082Y177092D01*
X360408D01*
Y182602D02*
X359490Y183520D01*
Y185357D01*
X360408Y186275D01*
X364082D01*
X365000Y185357D01*
Y183520D01*
X364082Y182602D01*
X360408D01*
X359490Y188112D02*
X365000D01*
X363163D01*
X359490Y191785D01*
X362245Y189030D01*
X365000Y191785D01*
X370001Y93000D02*
Y96999D01*
X360000Y111000D02*
X361000Y110000D01*
X362999D01*
X363999Y111000D01*
Y114998D01*
X362999Y115998D01*
X361000D01*
X360000Y114998D01*
Y113999D01*
X361000Y112999D01*
X363999D01*
X365998Y115998D02*
Y111999D01*
X367997Y110000D01*
X369997Y111999D01*
Y115998D01*
X359501Y93000D02*
Y96999D01*
X357502Y94999D02*
X361500D01*
X50500Y100999D02*
X54499D01*
X286500Y152999D02*
X290499D01*
X260500D02*
X264499D01*
X235000D02*
X238999D01*
X210000D02*
X213999D01*
X184000D02*
X187999D01*
X158500D02*
X162499D01*
X133000D02*
X136999D01*
X107500D02*
X111499D01*
X82000D02*
X85999D01*
X56500D02*
X60499D01*
X31000D02*
X34999D01*
X5500Y152499D02*
X9499D01*
X50000Y120999D02*
X53999D01*
X51999Y122998D02*
Y119000D01*
X286000Y142999D02*
X289999D01*
X287999Y144998D02*
Y141000D01*
X260500Y142999D02*
X264499D01*
X262499Y144998D02*
Y141000D01*
X235000Y142999D02*
X238999D01*
X236999Y144998D02*
Y141000D01*
X209500Y142999D02*
X213499D01*
X211499Y144998D02*
Y141000D01*
X184500Y142999D02*
X188499D01*
X186499Y144998D02*
Y141000D01*
X158500Y142999D02*
X162499D01*
X160499Y144998D02*
Y141000D01*
X133000Y142999D02*
X136999D01*
X134999Y144998D02*
Y141000D01*
X107500Y142999D02*
X111499D01*
X109499Y144998D02*
Y141000D01*
X82000Y142999D02*
X85999D01*
X83999Y144998D02*
Y141000D01*
X56500Y142999D02*
X60499D01*
X58499Y144998D02*
Y141000D01*
X31000Y142999D02*
X34999D01*
X32999Y144998D02*
Y141000D01*
X5500Y142499D02*
X9499D01*
X7499Y144498D02*
Y140500D01*
X83000Y108500D02*
X84837D01*
X83918D01*
Y114010D01*
X83000Y113092D01*
X87592D02*
X88510Y114010D01*
X90347D01*
X91265Y113092D01*
Y109418D01*
X90347Y108500D01*
X88510D01*
X87592Y109418D01*
Y113092D01*
X93102D02*
X94020Y114010D01*
X95857D01*
X96775Y113092D01*
Y109418D01*
X95857Y108500D01*
X94020D01*
X93102Y109418D01*
Y113092D01*
X98612Y114010D02*
Y108500D01*
Y110337D01*
X102285Y114010D01*
X99530Y111255D01*
X102285Y108500D01*
X3500Y103499D02*
X7499D01*
X21500Y113500D02*
X20500Y112500D01*
Y110501D01*
X21500Y109501D01*
X25498D01*
X26498Y110501D01*
Y112500D01*
X25498Y113500D01*
X24499D01*
X23499Y112500D01*
Y109501D01*
X26498Y107502D02*
X22499D01*
X20500Y105503D01*
X22499Y103503D01*
X26498D01*
X3500Y113999D02*
X7499D01*
X5499Y115998D02*
Y112000D01*
X50500Y180499D02*
X54499D01*
X286500Y232499D02*
X290499D01*
X260500D02*
X264499D01*
X235000D02*
X238999D01*
X210000D02*
X213999D01*
X184000D02*
X187999D01*
X158500D02*
X162499D01*
X133000D02*
X136999D01*
X107500D02*
X111499D01*
X82000D02*
X85999D01*
X56500D02*
X60499D01*
X31000D02*
X34999D01*
X5500Y231999D02*
X9499D01*
X50000Y200499D02*
X53999D01*
X51999Y202498D02*
Y198500D01*
X286000Y222499D02*
X289999D01*
X287999Y224498D02*
Y220500D01*
X260500Y222499D02*
X264499D01*
X262499Y224498D02*
Y220500D01*
X235000Y222499D02*
X238999D01*
X236999Y224498D02*
Y220500D01*
X209500Y222499D02*
X213499D01*
X211499Y224498D02*
Y220500D01*
X184500Y222499D02*
X188499D01*
X186499Y224498D02*
Y220500D01*
X158500Y222499D02*
X162499D01*
X160499Y224498D02*
Y220500D01*
X133000Y222499D02*
X136999D01*
X134999Y224498D02*
Y220500D01*
X107500Y222499D02*
X111499D01*
X109499Y224498D02*
Y220500D01*
X82000Y222499D02*
X85999D01*
X83999Y224498D02*
Y220500D01*
X56500Y222499D02*
X60499D01*
X58499Y224498D02*
Y220500D01*
X31000Y222499D02*
X34999D01*
X32999Y224498D02*
Y220500D01*
X5500Y221999D02*
X9499D01*
X7499Y223998D02*
Y220000D01*
X83000Y188000D02*
X84837D01*
X83918D01*
Y193510D01*
X83000Y192592D01*
X87592D02*
X88510Y193510D01*
X90347D01*
X91265Y192592D01*
Y188918D01*
X90347Y188000D01*
X88510D01*
X87592Y188918D01*
Y192592D01*
X93102D02*
X94020Y193510D01*
X95857D01*
X96775Y192592D01*
Y188918D01*
X95857Y188000D01*
X94020D01*
X93102Y188918D01*
Y192592D01*
X98612Y193510D02*
Y188000D01*
Y189837D01*
X102285Y193510D01*
X99530Y190755D01*
X102285Y188000D01*
X3500Y182999D02*
X7499D01*
X21500Y193000D02*
X20500Y192000D01*
Y190001D01*
X21500Y189001D01*
X25498D01*
X26498Y190001D01*
Y192000D01*
X25498Y193000D01*
X24499D01*
X23499Y192000D01*
Y189001D01*
X26498Y187002D02*
X22499D01*
X20500Y185003D01*
X22499Y183003D01*
X26498D01*
X3500Y193499D02*
X7499D01*
X5499Y195498D02*
Y191500D01*
X50500Y259499D02*
X54499D01*
X286500Y311499D02*
X290499D01*
X260500D02*
X264499D01*
X235000D02*
X238999D01*
X210000D02*
X213999D01*
X184000D02*
X187999D01*
X158500D02*
X162499D01*
X133000D02*
X136999D01*
X107500D02*
X111499D01*
X82000D02*
X85999D01*
X56500D02*
X60499D01*
X31000D02*
X34999D01*
X5500Y310999D02*
X9499D01*
X50000Y279499D02*
X53999D01*
X51999Y281498D02*
Y277500D01*
X286000Y301499D02*
X289999D01*
X287999Y303498D02*
Y299500D01*
X260500Y301499D02*
X264499D01*
X262499Y303498D02*
Y299500D01*
X235000Y301499D02*
X238999D01*
X236999Y303498D02*
Y299500D01*
X209500Y301499D02*
X213499D01*
X211499Y303498D02*
Y299500D01*
X184500Y301499D02*
X188499D01*
X186499Y303498D02*
Y299500D01*
X158500Y301499D02*
X162499D01*
X160499Y303498D02*
Y299500D01*
X133000Y301499D02*
X136999D01*
X134999Y303498D02*
Y299500D01*
X107500Y301499D02*
X111499D01*
X109499Y303498D02*
Y299500D01*
X82000Y301499D02*
X85999D01*
X83999Y303498D02*
Y299500D01*
X56500Y301499D02*
X60499D01*
X58499Y303498D02*
Y299500D01*
X31000Y301499D02*
X34999D01*
X32999Y303498D02*
Y299500D01*
X5500Y300999D02*
X9499D01*
X7499Y302998D02*
Y299000D01*
X83000Y267000D02*
X84837D01*
X83918D01*
Y272510D01*
X83000Y271592D01*
X87592D02*
X88510Y272510D01*
X90347D01*
X91265Y271592D01*
Y267918D01*
X90347Y267000D01*
X88510D01*
X87592Y267918D01*
Y271592D01*
X93102D02*
X94020Y272510D01*
X95857D01*
X96775Y271592D01*
Y267918D01*
X95857Y267000D01*
X94020D01*
X93102Y267918D01*
Y271592D01*
X98612Y272510D02*
Y267000D01*
Y268837D01*
X102285Y272510D01*
X99530Y269755D01*
X102285Y267000D01*
X3500Y261999D02*
X7499D01*
X21500Y272000D02*
X20500Y271000D01*
Y269001D01*
X21500Y268001D01*
X25498D01*
X26498Y269001D01*
Y271000D01*
X25498Y272000D01*
X24499D01*
X23499Y271000D01*
Y268001D01*
X26498Y266002D02*
X22499D01*
X20500Y264003D01*
X22499Y262003D01*
X26498D01*
X3500Y272499D02*
X7499D01*
X5499Y274498D02*
Y270500D01*
X50000Y338999D02*
X53999D01*
X286000Y390999D02*
X289999D01*
X260000D02*
X263999D01*
X234500D02*
X238499D01*
X209500D02*
X213499D01*
X183500D02*
X187499D01*
X158000D02*
X161999D01*
X132500D02*
X136499D01*
X107000D02*
X110999D01*
X81500D02*
X85499D01*
X56000D02*
X59999D01*
X30500D02*
X34499D01*
X5000Y390499D02*
X8999D01*
X49500Y358999D02*
X53499D01*
X51499Y360998D02*
Y357000D01*
X285500Y380999D02*
X289499D01*
X287499Y382998D02*
Y379000D01*
X260000Y380999D02*
X263999D01*
X261999Y382998D02*
Y379000D01*
X234500Y380999D02*
X238499D01*
X236499Y382998D02*
Y379000D01*
X209000Y380999D02*
X212999D01*
X210999Y382998D02*
Y379000D01*
X184000Y380999D02*
X187999D01*
X185999Y382998D02*
Y379000D01*
X158000Y380999D02*
X161999D01*
X159999Y382998D02*
Y379000D01*
X132500Y380999D02*
X136499D01*
X134499Y382998D02*
Y379000D01*
X107000Y380999D02*
X110999D01*
X108999Y382998D02*
Y379000D01*
X81500Y380999D02*
X85499D01*
X83499Y382998D02*
Y379000D01*
X56000Y380999D02*
X59999D01*
X57999Y382998D02*
Y379000D01*
X30500Y380999D02*
X34499D01*
X32499Y382998D02*
Y379000D01*
X5000Y380499D02*
X8999D01*
X6999Y382498D02*
Y378500D01*
X82500Y346500D02*
X84337D01*
X83418D01*
Y352010D01*
X82500Y351092D01*
X87092D02*
X88010Y352010D01*
X89847D01*
X90765Y351092D01*
Y347418D01*
X89847Y346500D01*
X88010D01*
X87092Y347418D01*
Y351092D01*
X92602D02*
X93520Y352010D01*
X95357D01*
X96275Y351092D01*
Y347418D01*
X95357Y346500D01*
X93520D01*
X92602Y347418D01*
Y351092D01*
X98112Y352010D02*
Y346500D01*
Y348337D01*
X101785Y352010D01*
X99030Y349255D01*
X101785Y346500D01*
X3000Y341499D02*
X6999D01*
X21000Y351500D02*
X20000Y350500D01*
Y348501D01*
X21000Y347501D01*
X24998D01*
X25998Y348501D01*
Y350500D01*
X24998Y351500D01*
X23999D01*
X22999Y350500D01*
Y347501D01*
X25998Y345502D02*
X21999D01*
X20000Y343503D01*
X21999Y341503D01*
X25998D01*
X3000Y351999D02*
X6999D01*
X4999Y353998D02*
Y350000D01*
X3000Y33727D02*
X6999D01*
X4999Y35727D02*
Y31728D01*
X21000Y33228D02*
X20000Y32229D01*
Y30229D01*
X21000Y29230D01*
X24998D01*
X25998Y30229D01*
Y32229D01*
X24998Y33228D01*
X23999D01*
X22999Y32229D01*
Y29230D01*
X25998Y27230D02*
X21999D01*
X20000Y25231D01*
X21999Y23232D01*
X25998D01*
X3000Y23227D02*
X6999D01*
X82500Y28228D02*
X84337D01*
X83418D01*
Y33738D01*
X82500Y32820D01*
X87092D02*
X88010Y33738D01*
X89847D01*
X90765Y32820D01*
Y29147D01*
X89847Y28228D01*
X88010D01*
X87092Y29147D01*
Y32820D01*
X92602D02*
X93520Y33738D01*
X95357D01*
X96275Y32820D01*
Y29147D01*
X95357Y28228D01*
X93520D01*
X92602Y29147D01*
Y32820D01*
X98112Y33738D02*
Y28228D01*
Y30065D01*
X101785Y33738D01*
X99030Y30983D01*
X101785Y28228D01*
X5000Y62227D02*
X8999D01*
X6999Y64227D02*
Y60228D01*
X30500Y62727D02*
X34499D01*
X32499Y64727D02*
Y60728D01*
X56000Y62727D02*
X59999D01*
X57999Y64727D02*
Y60728D01*
X81500Y62727D02*
X85499D01*
X83499Y64727D02*
Y60728D01*
X107000Y62727D02*
X110999D01*
X108999Y64727D02*
Y60728D01*
X132500Y62727D02*
X136499D01*
X134499Y64727D02*
Y60728D01*
X158000Y62727D02*
X161999D01*
X159999Y64727D02*
Y60728D01*
X184000Y62727D02*
X187999D01*
X185999Y64727D02*
Y60728D01*
X209000Y62727D02*
X212999D01*
X210999Y64727D02*
Y60728D01*
X234500Y62727D02*
X238499D01*
X236499Y64727D02*
Y60728D01*
X260000Y62727D02*
X263999D01*
X261999Y64727D02*
Y60728D01*
X285500Y62727D02*
X289499D01*
X287499Y64727D02*
Y60728D01*
X49500Y40727D02*
X53499D01*
X51499Y42727D02*
Y38728D01*
X5000Y72227D02*
X8999D01*
X30500Y72727D02*
X34499D01*
X56000D02*
X59999D01*
X81500D02*
X85499D01*
X107000D02*
X110999D01*
X132500D02*
X136499D01*
X158000D02*
X161999D01*
X183500D02*
X187499D01*
X209500D02*
X213499D01*
X234500D02*
X238499D01*
X260000D02*
X263999D01*
X286000D02*
X289999D01*
X50000Y20727D02*
X53999D01*
D31*
X378337Y21673D02*
G03*
X362951Y18960I-6555J-7811D01*
G01*
X362964Y7894D02*
G03*
X378320Y5186I8855J5321D01*
G01*
X379837Y82173D02*
G03*
X364452Y79460I-6555J-7811D01*
G01*
X364464Y68394D02*
G03*
X379820Y65686I8855J5321D01*
G01*
X378299Y5169D02*
Y21705D01*
X379799Y65669D02*
Y82205D01*
D32*
X362700Y220500D02*
G03*
X360300Y220500I-1200J0D01*
G01*
X131000Y110800D02*
G03*
X131000Y113200I0J1200D01*
G01*
Y190300D02*
G03*
X131000Y192700I0J1200D01*
G01*
Y269300D02*
G03*
X131000Y271700I0J1200D01*
G01*
X130500Y348800D02*
G03*
X130500Y351200I0J1200D01*
G01*
Y30528D02*
G03*
X130500Y32928I0J1200D01*
G01*
X362700Y220500D02*
X372000D01*
X360300D02*
X362700D01*
X347800D02*
X360300D01*
X347800Y260500D02*
X375200D01*
X353200Y366300D02*
X361800D01*
X364200D01*
X374500D01*
X351500Y288700D02*
X374500D01*
X131000Y101500D02*
Y110800D01*
Y113200D01*
Y125700D01*
X171000Y98300D02*
Y125700D01*
X276800Y111700D02*
Y120300D01*
Y109300D02*
Y111700D01*
Y99000D02*
Y109300D01*
X199200Y99000D02*
Y122000D01*
X131000Y181000D02*
Y190300D01*
Y192700D01*
Y205200D01*
X171000Y177800D02*
Y205200D01*
X276800Y191200D02*
Y199800D01*
Y188800D02*
Y191200D01*
Y178500D02*
Y188800D01*
X199200Y178500D02*
Y201500D01*
X131000Y260000D02*
Y269300D01*
Y271700D01*
Y284200D01*
X171000Y256800D02*
Y284200D01*
X276800Y270200D02*
Y278800D01*
Y267800D02*
Y270200D01*
Y257500D02*
Y267800D01*
X199200Y257500D02*
Y280500D01*
X130500Y339500D02*
Y348800D01*
Y351200D01*
Y363700D01*
X170500Y336300D02*
Y363700D01*
X276300Y349700D02*
Y358300D01*
Y347300D02*
Y349700D01*
Y337000D02*
Y347300D01*
X198700Y337000D02*
Y360000D01*
X276300Y31428D02*
Y40028D01*
Y29028D02*
Y31428D01*
Y18728D02*
Y29028D01*
X198700Y18728D02*
Y41728D01*
X130500Y21228D02*
Y30528D01*
Y32928D01*
Y45428D01*
X170500Y18028D02*
Y45428D01*
D33*
X361800Y366300D02*
G03*
X364200Y366300I1200J0D01*
G01*
X276800Y111700D02*
G03*
X276800Y109300I0J-1200D01*
G01*
Y191200D02*
G03*
X276800Y188800I0J-1200D01*
G01*
Y270200D02*
G03*
X276800Y267800I0J-1200D01*
G01*
X276300Y349700D02*
G03*
X276300Y347300I0J-1200D01*
G01*
Y31428D02*
G03*
X276300Y29028I0J-1200D01*
G01*
D34*
X349402Y170945D02*
X374598D01*
Y179370D02*
Y197598D01*
X364874D02*
X374598D01*
X349402D02*
X359126D01*
X349402Y179370D02*
Y197598D01*
X81445Y98902D02*
Y124098D01*
X89870Y98902D02*
X108098D01*
Y108626D01*
Y114374D02*
Y124098D01*
X89870D02*
X108098D01*
X81445Y178402D02*
Y203598D01*
X89870Y178402D02*
X108098D01*
Y188126D01*
Y193874D02*
Y203598D01*
X89870D02*
X108098D01*
X81445Y257402D02*
Y282598D01*
X89870Y257402D02*
X108098D01*
Y267126D01*
Y272874D02*
Y282598D01*
X89870D02*
X108098D01*
X80945Y336902D02*
Y362098D01*
X89370Y336902D02*
X107598D01*
Y346626D01*
Y352374D02*
Y362098D01*
X89370D02*
X107598D01*
X80945Y18630D02*
Y43827D01*
X89370Y18630D02*
X107598D01*
Y28354D01*
Y34102D02*
Y43827D01*
X89370D02*
X107598D01*
D35*
X348500Y38937D02*
Y39987D01*
Y39462D01*
X345351D01*
X345876Y38937D01*
Y41561D02*
X345351Y42086D01*
Y43135D01*
X345876Y43660D01*
X347975D01*
X348500Y43135D01*
Y42086D01*
X347975Y41561D01*
X345876D01*
Y44709D02*
X345351Y45234D01*
Y46284D01*
X345876Y46808D01*
X347975D01*
X348500Y46284D01*
Y45234D01*
X347975Y44709D01*
X345876D01*
X345351Y47858D02*
X347975D01*
X348500Y48383D01*
Y49432D01*
X347975Y49957D01*
X345351D01*
X371000Y38437D02*
Y39487D01*
Y38962D01*
X367851D01*
X368376Y38437D01*
Y41061D02*
X367851Y41586D01*
Y42635D01*
X368376Y43160D01*
X370475D01*
X371000Y42635D01*
Y41586D01*
X370475Y41061D01*
X368376D01*
Y44209D02*
X367851Y44734D01*
Y45784D01*
X368376Y46308D01*
X370475D01*
X371000Y45784D01*
Y44734D01*
X370475Y44209D01*
X368376D01*
X367851Y47358D02*
X370475D01*
X371000Y47883D01*
Y48932D01*
X370475Y49457D01*
X367851D01*
D36*
X359440Y310248D02*
X358128Y308936D01*
Y306312D01*
X359440Y305000D01*
X364688D01*
X366000Y306312D01*
Y308936D01*
X364688Y310248D01*
X358128Y312872D02*
X366000D01*
Y316807D01*
X364688Y318119D01*
X359440D01*
X358128Y316807D01*
Y312872D01*
X366000Y324679D02*
X358128D01*
X362064Y320743D01*
Y325991D01*
X359440Y328614D02*
X358128Y329926D01*
Y332550D01*
X359440Y333862D01*
X364688D01*
X366000Y332550D01*
Y329926D01*
X364688Y328614D01*
X359440D01*
X366000Y336486D02*
Y339110D01*
Y337798D01*
X358128D01*
X359440Y336486D01*
X358128Y343045D02*
Y348293D01*
X359440D01*
X364688Y343045D01*
X366000D01*
X364500Y226000D02*
X357416D01*
X364500Y230723D01*
X357416D01*
Y237807D02*
Y233084D01*
X364500D01*
Y237807D01*
X360958Y233084D02*
Y235446D01*
X357416Y244892D02*
Y240169D01*
X360958D01*
X359777Y242530D01*
Y243711D01*
X360958Y244892D01*
X363319D01*
X364500Y243711D01*
Y241349D01*
X363319Y240169D01*
X357416Y251976D02*
Y247253D01*
X360958D01*
X359777Y249614D01*
Y250795D01*
X360958Y251976D01*
X363319D01*
X364500Y250795D01*
Y248434D01*
X363319Y247253D01*
X357416Y259060D02*
Y254337D01*
X360958D01*
X359777Y256699D01*
Y257879D01*
X360958Y259060D01*
X363319D01*
X364500Y257879D01*
Y255518D01*
X363319Y254337D01*
X220748Y114060D02*
X219436Y115372D01*
X216812D01*
X215500Y114060D01*
Y108812D01*
X216812Y107500D01*
X219436D01*
X220748Y108812D01*
X223372Y115372D02*
Y107500D01*
X227307D01*
X228619Y108812D01*
Y114060D01*
X227307Y115372D01*
X223372D01*
X235179Y107500D02*
Y115372D01*
X231243Y111436D01*
X236491D01*
X239114Y114060D02*
X240426Y115372D01*
X243050D01*
X244362Y114060D01*
Y108812D01*
X243050Y107500D01*
X240426D01*
X239114Y108812D01*
Y114060D01*
X246986Y107500D02*
X249610D01*
X248298D01*
Y115372D01*
X246986Y114060D01*
X253545Y115372D02*
X258793D01*
Y114060D01*
X253545Y108812D01*
Y107500D01*
X136500Y109000D02*
Y116084D01*
X141223Y109000D01*
Y116084D01*
X148307D02*
X143584D01*
Y109000D01*
X148307D01*
X143584Y112542D02*
X145946D01*
X155392Y116084D02*
X150669D01*
Y112542D01*
X153030Y113723D01*
X154211D01*
X155392Y112542D01*
Y110181D01*
X154211Y109000D01*
X151849D01*
X150669Y110181D01*
X162476Y116084D02*
X157753D01*
Y112542D01*
X160114Y113723D01*
X161295D01*
X162476Y112542D01*
Y110181D01*
X161295Y109000D01*
X158934D01*
X157753Y110181D01*
X169560Y116084D02*
X164837D01*
Y112542D01*
X167199Y113723D01*
X168379D01*
X169560Y112542D01*
Y110181D01*
X168379Y109000D01*
X166018D01*
X164837Y110181D01*
X220748Y193560D02*
X219436Y194871D01*
X216812D01*
X215500Y193560D01*
Y188312D01*
X216812Y187000D01*
X219436D01*
X220748Y188312D01*
X223372Y194871D02*
Y187000D01*
X227307D01*
X228619Y188312D01*
Y193560D01*
X227307Y194871D01*
X223372D01*
X235179Y187000D02*
Y194871D01*
X231243Y190936D01*
X236491D01*
X239114Y193560D02*
X240426Y194871D01*
X243050D01*
X244362Y193560D01*
Y188312D01*
X243050Y187000D01*
X240426D01*
X239114Y188312D01*
Y193560D01*
X246986Y187000D02*
X249610D01*
X248298D01*
Y194871D01*
X246986Y193560D01*
X253545Y194871D02*
X258793D01*
Y193560D01*
X253545Y188312D01*
Y187000D01*
X136500Y188500D02*
Y195584D01*
X141223Y188500D01*
Y195584D01*
X148307D02*
X143584D01*
Y188500D01*
X148307D01*
X143584Y192042D02*
X145946D01*
X155392Y195584D02*
X150669D01*
Y192042D01*
X153030Y193223D01*
X154211D01*
X155392Y192042D01*
Y189681D01*
X154211Y188500D01*
X151849D01*
X150669Y189681D01*
X162476Y195584D02*
X157753D01*
Y192042D01*
X160114Y193223D01*
X161295D01*
X162476Y192042D01*
Y189681D01*
X161295Y188500D01*
X158934D01*
X157753Y189681D01*
X169560Y195584D02*
X164837D01*
Y192042D01*
X167199Y193223D01*
X168379D01*
X169560Y192042D01*
Y189681D01*
X168379Y188500D01*
X166018D01*
X164837Y189681D01*
X220748Y272560D02*
X219436Y273871D01*
X216812D01*
X215500Y272560D01*
Y267312D01*
X216812Y266000D01*
X219436D01*
X220748Y267312D01*
X223372Y273871D02*
Y266000D01*
X227307D01*
X228619Y267312D01*
Y272560D01*
X227307Y273871D01*
X223372D01*
X235179Y266000D02*
Y273871D01*
X231243Y269936D01*
X236491D01*
X239114Y272560D02*
X240426Y273871D01*
X243050D01*
X244362Y272560D01*
Y267312D01*
X243050Y266000D01*
X240426D01*
X239114Y267312D01*
Y272560D01*
X246986Y266000D02*
X249610D01*
X248298D01*
Y273871D01*
X246986Y272560D01*
X253545Y273871D02*
X258793D01*
Y272560D01*
X253545Y267312D01*
Y266000D01*
X136500Y267500D02*
Y274584D01*
X141223Y267500D01*
Y274584D01*
X148307D02*
X143584D01*
Y267500D01*
X148307D01*
X143584Y271042D02*
X145946D01*
X155392Y274584D02*
X150669D01*
Y271042D01*
X153030Y272223D01*
X154211D01*
X155392Y271042D01*
Y268681D01*
X154211Y267500D01*
X151849D01*
X150669Y268681D01*
X162476Y274584D02*
X157753D01*
Y271042D01*
X160114Y272223D01*
X161295D01*
X162476Y271042D01*
Y268681D01*
X161295Y267500D01*
X158934D01*
X157753Y268681D01*
X169560Y274584D02*
X164837D01*
Y271042D01*
X167199Y272223D01*
X168379D01*
X169560Y271042D01*
Y268681D01*
X168379Y267500D01*
X166018D01*
X164837Y268681D01*
X220248Y352060D02*
X218936Y353372D01*
X216312D01*
X215000Y352060D01*
Y346812D01*
X216312Y345500D01*
X218936D01*
X220248Y346812D01*
X222871Y353372D02*
Y345500D01*
X226807D01*
X228119Y346812D01*
Y352060D01*
X226807Y353372D01*
X222871D01*
X234679Y345500D02*
Y353372D01*
X230743Y349436D01*
X235991D01*
X238614Y352060D02*
X239926Y353372D01*
X242550D01*
X243862Y352060D01*
Y346812D01*
X242550Y345500D01*
X239926D01*
X238614Y346812D01*
Y352060D01*
X246486Y345500D02*
X249110D01*
X247798D01*
Y353372D01*
X246486Y352060D01*
X253046Y353372D02*
X258293D01*
Y352060D01*
X253046Y346812D01*
Y345500D01*
X136000Y347000D02*
Y354084D01*
X140723Y347000D01*
Y354084D01*
X147807D02*
X143084D01*
Y347000D01*
X147807D01*
X143084Y350542D02*
X145446D01*
X154892Y354084D02*
X150169D01*
Y350542D01*
X152530Y351723D01*
X153711D01*
X154892Y350542D01*
Y348181D01*
X153711Y347000D01*
X151349D01*
X150169Y348181D01*
X161976Y354084D02*
X157253D01*
Y350542D01*
X159614Y351723D01*
X160795D01*
X161976Y350542D01*
Y348181D01*
X160795Y347000D01*
X158434D01*
X157253Y348181D01*
X169060Y354084D02*
X164337D01*
Y350542D01*
X166699Y351723D01*
X167879D01*
X169060Y350542D01*
Y348181D01*
X167879Y347000D01*
X165518D01*
X164337Y348181D01*
X136000Y28728D02*
Y35813D01*
X140723Y28728D01*
Y35813D01*
X147807D02*
X143084D01*
Y28728D01*
X147807D01*
X143084Y32271D02*
X145446D01*
X154892Y35813D02*
X150169D01*
Y32271D01*
X152530Y33451D01*
X153711D01*
X154892Y32271D01*
Y29909D01*
X153711Y28728D01*
X151349D01*
X150169Y29909D01*
X161976Y35813D02*
X157253D01*
Y32271D01*
X159614Y33451D01*
X160795D01*
X161976Y32271D01*
Y29909D01*
X160795Y28728D01*
X158434D01*
X157253Y29909D01*
X169060Y35813D02*
X164337D01*
Y32271D01*
X166699Y33451D01*
X167879D01*
X169060Y32271D01*
Y29909D01*
X167879Y28728D01*
X165518D01*
X164337Y29909D01*
X220248Y33788D02*
X218936Y35100D01*
X216312D01*
X215000Y33788D01*
Y28540D01*
X216312Y27228D01*
X218936D01*
X220248Y28540D01*
X222871Y35100D02*
Y27228D01*
X226807D01*
X228119Y28540D01*
Y33788D01*
X226807Y35100D01*
X222871D01*
X234679Y27228D02*
Y35100D01*
X230743Y31164D01*
X235991D01*
X238614Y33788D02*
X239926Y35100D01*
X242550D01*
X243862Y33788D01*
Y28540D01*
X242550Y27228D01*
X239926D01*
X238614Y28540D01*
Y33788D01*
X246486Y27228D02*
X249110D01*
X247798D01*
Y35100D01*
X246486Y33788D01*
X253046Y35100D02*
X258293D01*
Y33788D01*
X253046Y28540D01*
Y27228D01*
D37*
X347000Y131000D02*
X342015D01*
X339522Y133493D01*
X342015Y135985D01*
X347000D01*
X343261D01*
Y131000D01*
X347000Y138478D02*
X345754D01*
Y139724D01*
X347000D01*
Y138478D01*
X339522Y144710D02*
Y147202D01*
Y145956D01*
X347000D01*
Y144710D01*
Y147202D01*
Y150941D02*
X345754D01*
Y152187D01*
X347000D01*
Y150941D01*
Y164650D02*
X339522D01*
Y168389D01*
X340768Y169636D01*
X343261D01*
X344507Y168389D01*
Y164650D01*
X340768Y177114D02*
X339522Y175867D01*
Y173375D01*
X340768Y172128D01*
X345754D01*
X347000Y173375D01*
Y175867D01*
X345754Y177114D01*
X339522Y179606D02*
X347000D01*
Y183345D01*
X345754Y184592D01*
X344507D01*
X343261Y183345D01*
Y179606D01*
Y183345D01*
X342015Y184592D01*
X340768D01*
X339522Y183345D01*
Y179606D01*
X41500Y126500D02*
Y131485D01*
X43993Y133978D01*
X46485Y131485D01*
Y126500D01*
Y130239D01*
X41500D01*
X48978Y126500D02*
Y127746D01*
X50224D01*
Y126500D01*
X48978D01*
X55209Y133978D02*
X57702D01*
X56456D01*
Y126500D01*
X55209D01*
X57702D01*
X61441D02*
Y127746D01*
X62687D01*
Y126500D01*
X61441D01*
X75151D02*
Y133978D01*
X78890D01*
X80136Y132732D01*
Y130239D01*
X78890Y128993D01*
X75151D01*
X87614Y132732D02*
X86367Y133978D01*
X83875D01*
X82628Y132732D01*
Y127746D01*
X83875Y126500D01*
X86367D01*
X87614Y127746D01*
X90106Y133978D02*
Y126500D01*
X93845D01*
X95092Y127746D01*
Y128993D01*
X93845Y130239D01*
X90106D01*
X93845D01*
X95092Y131485D01*
Y132732D01*
X93845Y133978D01*
X90106D01*
X41500Y206000D02*
Y210985D01*
X43993Y213478D01*
X46485Y210985D01*
Y206000D01*
Y209739D01*
X41500D01*
X48978Y206000D02*
Y207246D01*
X50224D01*
Y206000D01*
X48978D01*
X55209Y213478D02*
X57702D01*
X56456D01*
Y206000D01*
X55209D01*
X57702D01*
X61441D02*
Y207246D01*
X62687D01*
Y206000D01*
X61441D01*
X75151D02*
Y213478D01*
X78890D01*
X80136Y212232D01*
Y209739D01*
X78890Y208493D01*
X75151D01*
X87614Y212232D02*
X86367Y213478D01*
X83875D01*
X82628Y212232D01*
Y207246D01*
X83875Y206000D01*
X86367D01*
X87614Y207246D01*
X90106Y213478D02*
Y206000D01*
X93845D01*
X95092Y207246D01*
Y208493D01*
X93845Y209739D01*
X90106D01*
X93845D01*
X95092Y210985D01*
Y212232D01*
X93845Y213478D01*
X90106D01*
X41500Y285000D02*
Y289985D01*
X43993Y292478D01*
X46485Y289985D01*
Y285000D01*
Y288739D01*
X41500D01*
X48978Y285000D02*
Y286246D01*
X50224D01*
Y285000D01*
X48978D01*
X55209Y292478D02*
X57702D01*
X56456D01*
Y285000D01*
X55209D01*
X57702D01*
X61441D02*
Y286246D01*
X62687D01*
Y285000D01*
X61441D01*
X75151D02*
Y292478D01*
X78890D01*
X80136Y291232D01*
Y288739D01*
X78890Y287493D01*
X75151D01*
X87614Y291232D02*
X86367Y292478D01*
X83875D01*
X82628Y291232D01*
Y286246D01*
X83875Y285000D01*
X86367D01*
X87614Y286246D01*
X90106Y292478D02*
Y285000D01*
X93845D01*
X95092Y286246D01*
Y287493D01*
X93845Y288739D01*
X90106D01*
X93845D01*
X95092Y289985D01*
Y291232D01*
X93845Y292478D01*
X90106D01*
X41000Y364500D02*
Y369485D01*
X43493Y371978D01*
X45985Y369485D01*
Y364500D01*
Y368239D01*
X41000D01*
X48478Y364500D02*
Y365746D01*
X49724D01*
Y364500D01*
X48478D01*
X54710Y371978D02*
X57202D01*
X55956D01*
Y364500D01*
X54710D01*
X57202D01*
X60941D02*
Y365746D01*
X62187D01*
Y364500D01*
X60941D01*
X74651D02*
Y371978D01*
X78390D01*
X79636Y370732D01*
Y368239D01*
X78390Y366993D01*
X74651D01*
X87114Y370732D02*
X85867Y371978D01*
X83375D01*
X82128Y370732D01*
Y365746D01*
X83375Y364500D01*
X85867D01*
X87114Y365746D01*
X89606Y371978D02*
Y364500D01*
X93345D01*
X94592Y365746D01*
Y366993D01*
X93345Y368239D01*
X89606D01*
X93345D01*
X94592Y369485D01*
Y370732D01*
X93345Y371978D01*
X89606D01*
X41000Y46228D02*
Y51214D01*
X43493Y53706D01*
X45985Y51214D01*
Y46228D01*
Y49967D01*
X41000D01*
X48478Y46228D02*
Y47475D01*
X49724D01*
Y46228D01*
X48478D01*
X54710Y53706D02*
X57202D01*
X55956D01*
Y46228D01*
X54710D01*
X57202D01*
X60941D02*
Y47475D01*
X62187D01*
Y46228D01*
X60941D01*
X74651D02*
Y53706D01*
X78390D01*
X79636Y52460D01*
Y49967D01*
X78390Y48721D01*
X74651D01*
X87114Y52460D02*
X85867Y53706D01*
X83375D01*
X82128Y52460D01*
Y47475D01*
X83375Y46228D01*
X85867D01*
X87114Y47475D01*
X89606Y53706D02*
Y46228D01*
X93345D01*
X94592Y47475D01*
Y48721D01*
X93345Y49967D01*
X89606D01*
X93345D01*
X94592Y51214D01*
Y52460D01*
X93345Y53706D01*
X89606D01*
D38*
X377129Y129000D02*
X385000D01*
X382376D01*
X377129Y134248D01*
X381064Y130312D01*
X385000Y134248D01*
Y136872D02*
X377129D01*
X385000Y142119D01*
X377129D01*
Y144743D02*
Y147367D01*
Y146055D01*
X385000D01*
Y144743D01*
Y147367D01*
X378440Y156550D02*
X377129Y155238D01*
Y152614D01*
X378440Y151303D01*
X383688D01*
X385000Y152614D01*
Y155238D01*
X383688Y156550D01*
X381064D01*
Y153926D01*
X377129Y159174D02*
X385000D01*
X381064D01*
Y164422D01*
X377129D01*
X385000D01*
X377129Y167045D02*
Y172293D01*
Y169669D01*
X385000D01*
Y182788D02*
X377129D01*
Y186724D01*
X378440Y188036D01*
X381064D01*
X382376Y186724D01*
Y182788D01*
Y185412D02*
X385000Y188036D01*
X377129Y190660D02*
Y193284D01*
Y191972D01*
X385000D01*
Y190660D01*
Y193284D01*
X377129Y197220D02*
X385000D01*
Y201155D01*
X383688Y202467D01*
X378440D01*
X377129Y201155D01*
Y197220D01*
Y210339D02*
Y205091D01*
X385000D01*
Y210339D01*
X381064Y205091D02*
Y207715D01*
X385000Y212962D02*
X377129D01*
Y216898D01*
X378440Y218210D01*
X381064D01*
X382376Y216898D01*
Y212962D01*
Y215586D02*
X385000Y218210D01*
X39500Y96372D02*
Y88500D01*
Y91124D01*
X44748Y96372D01*
X40812Y92436D01*
X44748Y88500D01*
X47372D02*
Y96372D01*
X52619Y88500D01*
Y96372D01*
X55243D02*
X57867D01*
X56555D01*
Y88500D01*
X55243D01*
X57867D01*
X67050Y95060D02*
X65738Y96372D01*
X63114D01*
X61803Y95060D01*
Y89812D01*
X63114Y88500D01*
X65738D01*
X67050Y89812D01*
Y92436D01*
X64426D01*
X69674Y96372D02*
Y88500D01*
Y92436D01*
X74922D01*
Y96372D01*
Y88500D01*
X77545Y96372D02*
X82793D01*
X80169D01*
Y88500D01*
X93288D02*
Y96372D01*
X97224D01*
X98536Y95060D01*
Y92436D01*
X97224Y91124D01*
X93288D01*
X95912D02*
X98536Y88500D01*
X101160Y96372D02*
X103784D01*
X102472D01*
Y88500D01*
X101160D01*
X103784D01*
X107720Y96372D02*
Y88500D01*
X111655D01*
X112967Y89812D01*
Y95060D01*
X111655Y96372D01*
X107720D01*
X120839D02*
X115591D01*
Y88500D01*
X120839D01*
X115591Y92436D02*
X118215D01*
X123462Y88500D02*
Y96372D01*
X127398D01*
X128710Y95060D01*
Y92436D01*
X127398Y91124D01*
X123462D01*
X126086D02*
X128710Y88500D01*
X39500Y175872D02*
Y168000D01*
Y170624D01*
X44748Y175872D01*
X40812Y171936D01*
X44748Y168000D01*
X47372D02*
Y175872D01*
X52619Y168000D01*
Y175872D01*
X55243D02*
X57867D01*
X56555D01*
Y168000D01*
X55243D01*
X57867D01*
X67050Y174560D02*
X65738Y175872D01*
X63114D01*
X61803Y174560D01*
Y169312D01*
X63114Y168000D01*
X65738D01*
X67050Y169312D01*
Y171936D01*
X64426D01*
X69674Y175872D02*
Y168000D01*
Y171936D01*
X74922D01*
Y175872D01*
Y168000D01*
X77545Y175872D02*
X82793D01*
X80169D01*
Y168000D01*
X93288D02*
Y175872D01*
X97224D01*
X98536Y174560D01*
Y171936D01*
X97224Y170624D01*
X93288D01*
X95912D02*
X98536Y168000D01*
X101160Y175872D02*
X103784D01*
X102472D01*
Y168000D01*
X101160D01*
X103784D01*
X107720Y175872D02*
Y168000D01*
X111655D01*
X112967Y169312D01*
Y174560D01*
X111655Y175872D01*
X107720D01*
X120839D02*
X115591D01*
Y168000D01*
X120839D01*
X115591Y171936D02*
X118215D01*
X123462Y168000D02*
Y175872D01*
X127398D01*
X128710Y174560D01*
Y171936D01*
X127398Y170624D01*
X123462D01*
X126086D02*
X128710Y168000D01*
X39500Y254872D02*
Y247000D01*
Y249624D01*
X44748Y254872D01*
X40812Y250936D01*
X44748Y247000D01*
X47372D02*
Y254872D01*
X52619Y247000D01*
Y254872D01*
X55243D02*
X57867D01*
X56555D01*
Y247000D01*
X55243D01*
X57867D01*
X67050Y253560D02*
X65738Y254872D01*
X63114D01*
X61803Y253560D01*
Y248312D01*
X63114Y247000D01*
X65738D01*
X67050Y248312D01*
Y250936D01*
X64426D01*
X69674Y254872D02*
Y247000D01*
Y250936D01*
X74922D01*
Y254872D01*
Y247000D01*
X77545Y254872D02*
X82793D01*
X80169D01*
Y247000D01*
X93288D02*
Y254872D01*
X97224D01*
X98536Y253560D01*
Y250936D01*
X97224Y249624D01*
X93288D01*
X95912D02*
X98536Y247000D01*
X101160Y254872D02*
X103784D01*
X102472D01*
Y247000D01*
X101160D01*
X103784D01*
X107720Y254872D02*
Y247000D01*
X111655D01*
X112967Y248312D01*
Y253560D01*
X111655Y254872D01*
X107720D01*
X120839D02*
X115591D01*
Y247000D01*
X120839D01*
X115591Y250936D02*
X118215D01*
X123462Y247000D02*
Y254872D01*
X127398D01*
X128710Y253560D01*
Y250936D01*
X127398Y249624D01*
X123462D01*
X126086D02*
X128710Y247000D01*
X39000Y334371D02*
Y326500D01*
Y329124D01*
X44248Y334371D01*
X40312Y330436D01*
X44248Y326500D01*
X46872D02*
Y334371D01*
X52119Y326500D01*
Y334371D01*
X54743D02*
X57367D01*
X56055D01*
Y326500D01*
X54743D01*
X57367D01*
X66550Y333060D02*
X65238Y334371D01*
X62614D01*
X61303Y333060D01*
Y327812D01*
X62614Y326500D01*
X65238D01*
X66550Y327812D01*
Y330436D01*
X63926D01*
X69174Y334371D02*
Y326500D01*
Y330436D01*
X74422D01*
Y334371D01*
Y326500D01*
X77046Y334371D02*
X82293D01*
X79669D01*
Y326500D01*
X92788D02*
Y334371D01*
X96724D01*
X98036Y333060D01*
Y330436D01*
X96724Y329124D01*
X92788D01*
X95412D02*
X98036Y326500D01*
X100660Y334371D02*
X103284D01*
X101972D01*
Y326500D01*
X100660D01*
X103284D01*
X107220Y334371D02*
Y326500D01*
X111155D01*
X112467Y327812D01*
Y333060D01*
X111155Y334371D01*
X107220D01*
X120339D02*
X115091D01*
Y326500D01*
X120339D01*
X115091Y330436D02*
X117715D01*
X122962Y326500D02*
Y334371D01*
X126898D01*
X128210Y333060D01*
Y330436D01*
X126898Y329124D01*
X122962D01*
X125586D02*
X128210Y326500D01*
X39000Y16100D02*
Y8228D01*
Y10852D01*
X44248Y16100D01*
X40312Y12164D01*
X44248Y8228D01*
X46872D02*
Y16100D01*
X52119Y8228D01*
Y16100D01*
X54743D02*
X57367D01*
X56055D01*
Y8228D01*
X54743D01*
X57367D01*
X66550Y14788D02*
X65238Y16100D01*
X62614D01*
X61303Y14788D01*
Y9540D01*
X62614Y8228D01*
X65238D01*
X66550Y9540D01*
Y12164D01*
X63926D01*
X69174Y16100D02*
Y8228D01*
Y12164D01*
X74422D01*
Y16100D01*
Y8228D01*
X77046Y16100D02*
X82293D01*
X79669D01*
Y8228D01*
X92788D02*
Y16100D01*
X96724D01*
X98036Y14788D01*
Y12164D01*
X96724Y10852D01*
X92788D01*
X95412D02*
X98036Y8228D01*
X100660Y16100D02*
X103284D01*
X101972D01*
Y8228D01*
X100660D01*
X103284D01*
X107220Y16100D02*
Y8228D01*
X111155D01*
X112467Y9540D01*
Y14788D01*
X111155Y16100D01*
X107220D01*
X120339D02*
X115091D01*
Y8228D01*
X120339D01*
X115091Y12164D02*
X117715D01*
X122962Y8228D02*
Y16100D01*
X126898D01*
X128210Y14788D01*
Y12164D01*
X126898Y10852D01*
X122962D01*
X125586D02*
X128210Y8228D01*
M02*
