M48
;Layer_Color=9474304
;FILE_FORMAT=2:5
INCH,LZ
;TYPE=PLATED
T2F00S00C0.02756
T3F00S00C0.03150
T4F00S00C0.03543
%
T02
X0033Y0013728
Y0043728
X00585Y0040413
Y0020728
X01355Y0016728
X01455
X01555
X01655
Y0046728
X01555
X01455
X01355
X02025Y0045228
Y0015228
X02125
X02225
X02325
X02425
X02525
X02625
X02725
X0289Y0019728
X0301Y0019228
Y0049228
X0289Y0049728
X02725Y0045228
X02625
X02525
X02425
X02325
X02225
X02125
X0337158Y0044437
X0356842Y0044437
X0357Y0030937
X03645Y0013437
X03345Y0008437
Y0018437
X0327Y0030937
X03725Y0033595
X0372Y0018437
Y0008437
X03725Y005328
X03735Y0068937
Y0078937
X03795Y0123
X03725Y01485
X0352815
X03305Y01545
X03205
Y018
X03305
Y02055
X03205
X03015Y0209
X02895Y02095
X0273Y0205
X0263
X0253
X0243
X0233
X0223
X0213
Y0175
X0223
X0233
X0243
X0253
X0263
X0273
X02895Y01795
X03015Y0179
X02945Y0153
Y0143
X02895Y013
X03015Y01295
X03205Y0129
X03305
X03495Y0123
X0331Y01035
X0321
X03015Y00995
X02895Y01
X0273Y00955
X0263
X0253
X0243
X0233
X0223
X0213
X02175Y0072728
Y0062728
X0243
Y0072728
X02685
Y0062728
X0294
Y0072728
X0333Y0069937
Y0079937
X0327Y0057937
X0357
X0366Y0073937
X0273Y01255
X0263
X0253
X0243
X0233
X0223
X0213
X0218Y0143
Y0153
X02435
Y0143
X0269
Y0153
X01925
Y0143
X0167
Y0153
X0166Y01765
X0156
X0146
X0136
X01415Y0153
Y0143
X0146Y0127
X0136
X0156
X0166
Y0097
X0156
X0146
X0136
X0141Y0072728
Y0062728
X01665
Y0072728
X0192
Y0062728
X0203Y00955
Y01255
Y0175
Y0205
X0166Y02065
X0156
X0146
X0136
X0116Y0153
Y0143
X00905
Y0153
X0065
Y0143
X0059Y0120685
Y0101
X00645Y0072728
Y0062728
X009
Y0072728
X01155
Y0062728
X0059Y01805
Y0200185
X00335Y02035
Y01735
X00395Y0153
Y0143
X00335Y0124
Y0094
X0039Y0072728
Y0062728
X00135Y0062228
Y0072228
X0014Y01425
Y01525
Y0222
Y0232
X00395Y02325
Y02225
X00335Y02525
Y02825
X00395Y03015
Y03115
X0014Y0311
Y0301
X0033Y0332
Y0362
X00585Y0358685
Y0339
X0065Y03115
Y03015
X00905
Y03115
X0116
Y03015
X01415
Y03115
X0167
Y03015
X0166Y02855
X0156
X0146
X0136
Y02555
X0146
X0156
X0166
X0167Y02325
Y02225
X01925
Y02325
X0203Y0254
Y0284
X01925Y03015
Y03115
X02025Y03335
Y03635
X01655Y0365
X01555
X01455
X01355
Y0335
X01455
X01555
X01655
X01415Y02325
Y02225
X0116
Y02325
X00905
Y02225
X0065
Y02325
X0059Y02595
Y0279185
X0213Y0284
X0223
X0233
X0243
X0253
X0263
X0273
X02895Y02885
X03015Y0288
X02945Y03015
Y03115
X0269
Y03015
X02435
Y03115
X02425Y03335
X02525
X02625
X02725
X0289Y0338
X0301Y03375
X03205Y0333
X03305
X0348Y03325
Y03225
Y03125
Y03025
Y02925
X03305Y0282
X03205
Y03075
X03305
Y03585
X03205
X0348Y03625
Y03525
Y03425
X03465Y02555
Y02455
Y02355
Y02255
X03305Y0231
X03205
Y02565
X03305
X03015Y0258
X02895Y02585
X0273Y0254
X0263
X0253
X0243
X0233
X0223
X0213
X0218Y02325
Y02225
X02435
Y02325
X0269
Y02225
X02945
Y02325
X0218Y03015
Y03115
X02225Y03335
X02325
X02125
Y03635
X02225
X02325
X02425
X02525
X02625
X02725
X0378Y03625
Y03525
Y03425
Y03325
Y03225
Y03125
Y03025
Y02925
X03765Y02555
Y02455
Y02355
Y02255
X03735Y0379
X0374Y0391
X0344
X03435Y0379
X03305Y0384
X03205
X0294Y0381
Y0391
X02685
Y0381
X0243
Y0391
X02175
Y0381
X0289Y0368
X0301Y03675
X0192Y0381
Y0391
X01665
Y0381
X0141
Y0391
X01155
Y0381
X009
Y0391
X00645
Y0381
X0039
Y0391
X00135Y03905
Y03805
T03
X0085157Y0021386
Y0041071
X0104843Y0031228
X0371843Y0175157
X0352157
X0362Y0194843
X0105343Y0191
X0085657Y0181157
Y0200843
Y0121343
Y0101657
X0105343Y01115
Y027
X0085657Y0260157
Y0279843
X0085157Y0339657
Y0359343
X0104843Y03495
T04
X0013Y0023228
Y0033228
X037Y0103
X036
X03535Y0079937
Y0069937
X00135Y01035
Y01135
Y0183
Y0193
Y0262
Y0272
X0013Y03415
Y03515
M30
