G04 Layer_Color=8388736*
%FSLAX25Y25*%
%MOIN*%
G70*
G01*
G75*
%ADD39R,0.73635X0.02768*%
%ADD40R,0.06706X0.06706*%
%ADD41C,0.06706*%
%ADD42R,0.06706X0.06706*%
%ADD43C,0.08674*%
%ADD44R,0.08674X0.08674*%
%ADD45R,3.03950X0.04737*%
%ADD46C,0.07400*%
%ADD47R,0.07400X0.07400*%
%ADD48R,0.07887X0.07887*%
%ADD49C,0.06312*%
%ADD50C,0.06737*%
%ADD51R,0.06737X0.06737*%
%ADD52R,0.04737X3.90564*%
%ADD53R,0.07400X0.07400*%
%ADD54R,0.07887X0.07887*%
%ADD55R,0.06737X0.06737*%
D39*
X351000Y90000D02*
D03*
D40*
X372500Y33595D02*
D03*
X334500Y18437D02*
D03*
X333000Y69937D02*
D03*
X294500Y143000D02*
D03*
X269000D02*
D03*
X59000Y120685D02*
D03*
X243500Y143000D02*
D03*
X218000D02*
D03*
X192500D02*
D03*
X167000D02*
D03*
X141500D02*
D03*
X116000D02*
D03*
X90500D02*
D03*
X65000D02*
D03*
X39500D02*
D03*
X14000Y142500D02*
D03*
X294500Y222500D02*
D03*
X269000D02*
D03*
X59000Y200185D02*
D03*
X243500Y222500D02*
D03*
X218000D02*
D03*
X192500D02*
D03*
X167000D02*
D03*
X141500D02*
D03*
X116000D02*
D03*
X90500D02*
D03*
X65000D02*
D03*
X39500D02*
D03*
X14000Y222000D02*
D03*
X294500Y301500D02*
D03*
X269000D02*
D03*
X59000Y279185D02*
D03*
X243500Y301500D02*
D03*
X218000D02*
D03*
X192500D02*
D03*
X167000D02*
D03*
X141500D02*
D03*
X116000D02*
D03*
X90500D02*
D03*
X65000D02*
D03*
X39500D02*
D03*
X14000Y301000D02*
D03*
X294000Y381000D02*
D03*
X268500D02*
D03*
X58500Y358685D02*
D03*
X243000Y381000D02*
D03*
X217500D02*
D03*
X192000D02*
D03*
X166500D02*
D03*
X141000D02*
D03*
X115500D02*
D03*
X90000D02*
D03*
X64500D02*
D03*
X39000D02*
D03*
X13500Y380500D02*
D03*
X294000Y62728D02*
D03*
X268500D02*
D03*
X243000D02*
D03*
X217500D02*
D03*
X192000D02*
D03*
X166500D02*
D03*
X141000D02*
D03*
X115500D02*
D03*
X90000D02*
D03*
X64500D02*
D03*
X39000D02*
D03*
X13500Y62228D02*
D03*
X58500Y40413D02*
D03*
D41*
X372500Y53280D02*
D03*
X337158Y44437D02*
D03*
X334500Y8437D02*
D03*
X333000Y79937D02*
D03*
X372000Y8437D02*
D03*
X364500Y13437D02*
D03*
X372000Y18437D02*
D03*
X373500Y68937D02*
D03*
X366000Y73937D02*
D03*
X373500Y78937D02*
D03*
X357000Y30937D02*
D03*
X327000D02*
D03*
X357000Y57937D02*
D03*
X327000D02*
D03*
X320500Y384000D02*
D03*
Y358500D02*
D03*
X372500Y148500D02*
D03*
X320500Y333000D02*
D03*
X379500Y123000D02*
D03*
X349500D02*
D03*
X320500Y307500D02*
D03*
Y282000D02*
D03*
Y256500D02*
D03*
Y231000D02*
D03*
Y205500D02*
D03*
Y180000D02*
D03*
Y154500D02*
D03*
Y129000D02*
D03*
X321000Y103500D02*
D03*
X294500Y153000D02*
D03*
X269000D02*
D03*
X59000Y101000D02*
D03*
X243500Y153000D02*
D03*
X33500Y94000D02*
D03*
Y124000D02*
D03*
X218000Y153000D02*
D03*
X192500D02*
D03*
X167000D02*
D03*
X141500D02*
D03*
X116000D02*
D03*
X90500D02*
D03*
X65000D02*
D03*
X39500D02*
D03*
X14000Y152500D02*
D03*
X294500Y232500D02*
D03*
X269000D02*
D03*
X59000Y180500D02*
D03*
X243500Y232500D02*
D03*
X33500Y173500D02*
D03*
Y203500D02*
D03*
X218000Y232500D02*
D03*
X192500D02*
D03*
X167000D02*
D03*
X141500D02*
D03*
X116000D02*
D03*
X90500D02*
D03*
X65000D02*
D03*
X39500D02*
D03*
X14000Y232000D02*
D03*
X294500Y311500D02*
D03*
X269000D02*
D03*
X59000Y259500D02*
D03*
X243500Y311500D02*
D03*
X33500Y252500D02*
D03*
Y282500D02*
D03*
X218000Y311500D02*
D03*
X192500D02*
D03*
X167000D02*
D03*
X141500D02*
D03*
X116000D02*
D03*
X90500D02*
D03*
X65000D02*
D03*
X39500D02*
D03*
X14000Y311000D02*
D03*
X294000Y391000D02*
D03*
X268500D02*
D03*
X58500Y339000D02*
D03*
X243000Y391000D02*
D03*
X33000Y332000D02*
D03*
Y362000D02*
D03*
X217500Y391000D02*
D03*
X192000D02*
D03*
X166500D02*
D03*
X141000D02*
D03*
X115500D02*
D03*
X90000D02*
D03*
X64500D02*
D03*
X39000D02*
D03*
X13500Y390500D02*
D03*
X294000Y72728D02*
D03*
X268500D02*
D03*
X243000D02*
D03*
X217500D02*
D03*
X192000D02*
D03*
X166500D02*
D03*
X141000D02*
D03*
X115500D02*
D03*
X90000D02*
D03*
X64500D02*
D03*
X39000D02*
D03*
X13500Y72228D02*
D03*
X33000Y13728D02*
D03*
Y43728D02*
D03*
X58500Y20728D02*
D03*
D42*
X356842Y44437D02*
D03*
X330500Y384000D02*
D03*
Y358500D02*
D03*
X352815Y148500D02*
D03*
X330500Y333000D02*
D03*
Y307500D02*
D03*
Y282000D02*
D03*
Y256500D02*
D03*
Y231000D02*
D03*
Y205500D02*
D03*
Y180000D02*
D03*
Y154500D02*
D03*
Y129000D02*
D03*
X331000Y103500D02*
D03*
D43*
X353500Y79937D02*
D03*
X370000Y103000D02*
D03*
X13500Y103500D02*
D03*
Y183000D02*
D03*
Y262000D02*
D03*
X13000Y341500D02*
D03*
Y23228D02*
D03*
D44*
X353500Y69937D02*
D03*
D45*
X154500Y83000D02*
D03*
Y163000D02*
D03*
Y242000D02*
D03*
X155000Y321500D02*
D03*
D46*
X346500Y225500D02*
D03*
Y235500D02*
D03*
Y245500D02*
D03*
Y255500D02*
D03*
X376500D02*
D03*
Y245500D02*
D03*
Y235500D02*
D03*
X378000Y362500D02*
D03*
Y352500D02*
D03*
Y342500D02*
D03*
Y332500D02*
D03*
Y322500D02*
D03*
Y312500D02*
D03*
Y302500D02*
D03*
Y292500D02*
D03*
X348000D02*
D03*
Y302500D02*
D03*
Y312500D02*
D03*
Y322500D02*
D03*
Y332500D02*
D03*
Y342500D02*
D03*
Y352500D02*
D03*
X136000Y127000D02*
D03*
X146000D02*
D03*
X156000D02*
D03*
X166000D02*
D03*
Y97000D02*
D03*
X156000D02*
D03*
X146000D02*
D03*
X273000Y95500D02*
D03*
X263000D02*
D03*
X253000D02*
D03*
X243000D02*
D03*
X233000D02*
D03*
X223000D02*
D03*
X213000D02*
D03*
X203000D02*
D03*
Y125500D02*
D03*
X213000D02*
D03*
X223000D02*
D03*
X233000D02*
D03*
X243000D02*
D03*
X253000D02*
D03*
X263000D02*
D03*
X136000Y206500D02*
D03*
X146000D02*
D03*
X156000D02*
D03*
X166000D02*
D03*
Y176500D02*
D03*
X156000D02*
D03*
X146000D02*
D03*
X273000Y175000D02*
D03*
X263000D02*
D03*
X253000D02*
D03*
X243000D02*
D03*
X233000D02*
D03*
X223000D02*
D03*
X213000D02*
D03*
X203000D02*
D03*
Y205000D02*
D03*
X213000D02*
D03*
X223000D02*
D03*
X233000D02*
D03*
X243000D02*
D03*
X253000D02*
D03*
X263000D02*
D03*
X136000Y285500D02*
D03*
X146000D02*
D03*
X156000D02*
D03*
X166000D02*
D03*
Y255500D02*
D03*
X156000D02*
D03*
X146000D02*
D03*
X273000Y254000D02*
D03*
X263000D02*
D03*
X253000D02*
D03*
X243000D02*
D03*
X233000D02*
D03*
X223000D02*
D03*
X213000D02*
D03*
X203000D02*
D03*
Y284000D02*
D03*
X213000D02*
D03*
X223000D02*
D03*
X233000D02*
D03*
X243000D02*
D03*
X253000D02*
D03*
X263000D02*
D03*
X135500Y365000D02*
D03*
X145500D02*
D03*
X155500D02*
D03*
X165500D02*
D03*
Y335000D02*
D03*
X155500D02*
D03*
X145500D02*
D03*
X272500Y333500D02*
D03*
X262500D02*
D03*
X252500D02*
D03*
X242500D02*
D03*
X232500D02*
D03*
X222500D02*
D03*
X212500D02*
D03*
X202500D02*
D03*
Y363500D02*
D03*
X212500D02*
D03*
X222500D02*
D03*
X232500D02*
D03*
X242500D02*
D03*
X252500D02*
D03*
X262500D02*
D03*
X272500Y15228D02*
D03*
X262500D02*
D03*
X252500D02*
D03*
X242500D02*
D03*
X232500D02*
D03*
X222500D02*
D03*
X212500D02*
D03*
X202500D02*
D03*
Y45228D02*
D03*
X212500D02*
D03*
X222500D02*
D03*
X232500D02*
D03*
X242500D02*
D03*
X252500D02*
D03*
X262500D02*
D03*
X135500Y46728D02*
D03*
X145500D02*
D03*
X155500D02*
D03*
X165500D02*
D03*
Y16728D02*
D03*
X155500D02*
D03*
X145500D02*
D03*
D47*
X376500Y225500D02*
D03*
X348000Y362500D02*
D03*
D48*
X360000Y103000D02*
D03*
D49*
X373500Y379000D02*
D03*
X343500D02*
D03*
X374000Y391000D02*
D03*
X344000D02*
D03*
X289500Y100000D02*
D03*
Y130000D02*
D03*
X301500Y99500D02*
D03*
Y129500D02*
D03*
X289500Y179500D02*
D03*
Y209500D02*
D03*
X301500Y179000D02*
D03*
Y209000D02*
D03*
X289500Y258500D02*
D03*
Y288500D02*
D03*
X301500Y258000D02*
D03*
Y288000D02*
D03*
X289000Y338000D02*
D03*
Y368000D02*
D03*
X301000Y337500D02*
D03*
Y367500D02*
D03*
X289000Y19728D02*
D03*
Y49728D02*
D03*
X301000Y19228D02*
D03*
Y49228D02*
D03*
D50*
X371843Y175157D02*
D03*
X362000Y194843D02*
D03*
X85657Y101657D02*
D03*
X105343Y111500D02*
D03*
X85657Y181157D02*
D03*
X105343Y191000D02*
D03*
X85657Y260157D02*
D03*
X105343Y270000D02*
D03*
X85157Y339657D02*
D03*
X104843Y349500D02*
D03*
X85157Y21386D02*
D03*
X104843Y31228D02*
D03*
D51*
X352157Y175157D02*
D03*
D52*
X310500Y201500D02*
D03*
D53*
X136000Y97000D02*
D03*
X273000Y125500D02*
D03*
X136000Y176500D02*
D03*
X273000Y205000D02*
D03*
X136000Y255500D02*
D03*
X273000Y284000D02*
D03*
X135500Y335000D02*
D03*
X272500Y363500D02*
D03*
Y45228D02*
D03*
X135500Y16728D02*
D03*
D54*
X13500Y113500D02*
D03*
Y193000D02*
D03*
Y272000D02*
D03*
X13000Y351500D02*
D03*
Y33228D02*
D03*
D55*
X85657Y121343D02*
D03*
Y200843D02*
D03*
Y279843D02*
D03*
X85157Y359343D02*
D03*
Y41071D02*
D03*
M02*
