G04 Layer_Physical_Order=1*
G04 Layer_Color=255*
%FSLAX25Y25*%
%MOIN*%
G70*
G01*
G75*
%ADD10C,0.03000*%
%ADD11C,0.02000*%
%ADD12R,0.72835X0.01968*%
%ADD13R,0.05905X0.05905*%
%ADD14C,0.05905*%
%ADD15R,0.05905X0.05905*%
%ADD16C,0.07874*%
%ADD17R,0.07874X0.07874*%
%ADD18R,3.03150X0.03937*%
%ADD19C,0.06600*%
%ADD20R,0.06600X0.06600*%
%ADD21R,0.07087X0.07087*%
%ADD22C,0.05512*%
%ADD23C,0.05937*%
%ADD24R,0.05937X0.05937*%
%ADD25R,0.03937X3.89764*%
%ADD26R,0.06600X0.06600*%
%ADD27R,0.07087X0.07087*%
%ADD28R,0.05937X0.05937*%
G36*
X374895Y81928D02*
X376601Y80066D01*
X376491Y77542D01*
X374629Y75836D01*
X372105Y75946D01*
X370399Y77808D01*
X370509Y80332D01*
X372371Y82038D01*
X374895Y81928D01*
D02*
G37*
G36*
X367395Y76928D02*
X369101Y75066D01*
X368991Y72542D01*
X367129Y70836D01*
X364605Y70946D01*
X362899Y72808D01*
X363009Y75332D01*
X364871Y77038D01*
X367395Y76928D01*
D02*
G37*
G36*
X374895Y71928D02*
X376601Y70066D01*
X376491Y67542D01*
X374629Y65836D01*
X372105Y65946D01*
X370399Y67808D01*
X370509Y70332D01*
X372371Y72038D01*
X374895Y71928D01*
D02*
G37*
G36*
X373395Y21428D02*
X375101Y19566D01*
X374991Y17042D01*
X373129Y15336D01*
X370605Y15446D01*
X368899Y17308D01*
X369009Y19832D01*
X370871Y21538D01*
X373395Y21428D01*
D02*
G37*
G36*
X365895Y16428D02*
X367601Y14566D01*
X367491Y12042D01*
X365629Y10336D01*
X363105Y10446D01*
X361399Y12308D01*
X361509Y14832D01*
X363371Y16538D01*
X365895Y16428D01*
D02*
G37*
G36*
X373395Y11428D02*
X375101Y9566D01*
X374991Y7042D01*
X373129Y5336D01*
X370605Y5446D01*
X368899Y7308D01*
X369009Y9832D01*
X370871Y11538D01*
X373395Y11428D01*
D02*
G37*
D10*
X356842Y44437D02*
Y47780D01*
X373500Y64437D01*
Y68937D01*
X372000Y18437D02*
Y22937D01*
X380500Y31437D01*
Y71937D01*
X373500Y78937D02*
X380500Y71937D01*
D11*
X325500Y274300D02*
X330500Y269300D01*
X325500Y274300D02*
Y337000D01*
X341000Y230000D02*
X346500Y235500D01*
X341000Y206000D02*
Y230000D01*
Y206000D02*
X371843Y175157D01*
X320500Y384000D02*
Y389000D01*
X322500Y391000D01*
X344000D01*
X354800Y269300D02*
X378000Y292500D01*
X330500Y358500D02*
X344000D01*
X348000Y362500D01*
X379500Y123000D02*
Y167500D01*
X371843Y175157D02*
X379500Y167500D01*
X346500Y225500D02*
X376500Y255500D01*
X342500Y338000D02*
X348000Y332500D01*
X326500Y338000D02*
X342500D01*
X325500Y337000D02*
X326500Y338000D01*
X330500Y282000D02*
Y285000D01*
X348000Y302500D01*
X325500Y236000D02*
X330500Y231000D01*
X325500Y236000D02*
Y264300D01*
X330500Y269300D01*
X354800D01*
X348000Y352500D02*
X372500Y328000D01*
Y318000D02*
Y328000D01*
Y318000D02*
X378000Y312500D01*
X368000Y302500D02*
X378000D01*
X348000Y322500D02*
X368000Y302500D01*
X341000Y322500D02*
X348000D01*
X330500Y333000D02*
X341000Y322500D01*
X179800Y143000D02*
X184800Y148000D01*
X247500D01*
X140500Y132500D02*
X146000Y127000D01*
X116500Y132500D02*
X140500D01*
X85657Y101657D02*
X116500Y132500D01*
X294500Y153000D02*
X299500D01*
X301500Y151000D01*
Y129500D02*
Y151000D01*
X179800Y118700D02*
X203000Y95500D01*
X269000Y129500D02*
Y143000D01*
Y129500D02*
X273000Y125500D01*
X33500Y94000D02*
X78000D01*
X85657Y101657D01*
X136000Y127000D02*
X166000Y97000D01*
X243000Y125500D02*
X248500Y131000D01*
Y147000D01*
X247500Y148000D02*
X248500Y147000D01*
X192500Y143000D02*
X195500D01*
X213000Y125500D01*
X141500Y143000D02*
X146500Y148000D01*
X174800D01*
X179800Y143000D01*
Y118700D02*
Y143000D01*
X238500Y101000D02*
X263000Y125500D01*
X228500Y101000D02*
X238500D01*
X223000Y95500D02*
X228500Y101000D01*
X213000Y95500D02*
Y105500D01*
X233000Y125500D01*
Y132500D01*
X243500Y143000D01*
X179800Y222500D02*
X184800Y227500D01*
X247500D01*
X140500Y212000D02*
X146000Y206500D01*
X116500Y212000D02*
X140500D01*
X85657Y181157D02*
X116500Y212000D01*
X294500Y232500D02*
X299500D01*
X301500Y230500D01*
Y209000D02*
Y230500D01*
X179800Y198200D02*
X203000Y175000D01*
X269000Y209000D02*
Y222500D01*
Y209000D02*
X273000Y205000D01*
X33500Y173500D02*
X78000D01*
X85657Y181157D01*
X136000Y206500D02*
X166000Y176500D01*
X243000Y205000D02*
X248500Y210500D01*
Y226500D01*
X247500Y227500D02*
X248500Y226500D01*
X192500Y222500D02*
X195500D01*
X213000Y205000D01*
X141500Y222500D02*
X146500Y227500D01*
X174800D01*
X179800Y222500D01*
Y198200D02*
Y222500D01*
X238500Y180500D02*
X263000Y205000D01*
X228500Y180500D02*
X238500D01*
X223000Y175000D02*
X228500Y180500D01*
X213000Y175000D02*
Y185000D01*
X233000Y205000D01*
Y212000D01*
X243500Y222500D01*
X179800Y301500D02*
X184800Y306500D01*
X247500D01*
X140500Y291000D02*
X146000Y285500D01*
X116500Y291000D02*
X140500D01*
X85657Y260157D02*
X116500Y291000D01*
X294500Y311500D02*
X299500D01*
X301500Y309500D01*
Y288000D02*
Y309500D01*
X179800Y277200D02*
X203000Y254000D01*
X269000Y288000D02*
Y301500D01*
Y288000D02*
X273000Y284000D01*
X33500Y252500D02*
X78000D01*
X85657Y260157D01*
X136000Y285500D02*
X166000Y255500D01*
X243000Y284000D02*
X248500Y289500D01*
Y305500D01*
X247500Y306500D02*
X248500Y305500D01*
X192500Y301500D02*
X195500D01*
X213000Y284000D01*
X141500Y301500D02*
X146500Y306500D01*
X174800D01*
X179800Y301500D01*
Y277200D02*
Y301500D01*
X238500Y259500D02*
X263000Y284000D01*
X228500Y259500D02*
X238500D01*
X223000Y254000D02*
X228500Y259500D01*
X213000Y254000D02*
Y264000D01*
X233000Y284000D01*
Y291000D01*
X243500Y301500D01*
X179300Y381000D02*
X184300Y386000D01*
X247000D01*
X140000Y370500D02*
X145500Y365000D01*
X116000Y370500D02*
X140000D01*
X85157Y339657D02*
X116000Y370500D01*
X294000Y391000D02*
X299000D01*
X301000Y389000D01*
Y367500D02*
Y389000D01*
X179300Y356700D02*
X202500Y333500D01*
X268500Y367500D02*
Y381000D01*
Y367500D02*
X272500Y363500D01*
X33000Y332000D02*
X77500D01*
X85157Y339657D01*
X135500Y365000D02*
X165500Y335000D01*
X242500Y363500D02*
X248000Y369000D01*
Y385000D01*
X247000Y386000D02*
X248000Y385000D01*
X192000Y381000D02*
X195000D01*
X212500Y363500D01*
X141000Y381000D02*
X146000Y386000D01*
X174300D01*
X179300Y381000D01*
Y356700D02*
Y381000D01*
X238000Y339000D02*
X262500Y363500D01*
X228000Y339000D02*
X238000D01*
X222500Y333500D02*
X228000Y339000D01*
X212500Y333500D02*
Y343500D01*
X232500Y363500D01*
Y370500D01*
X243000Y381000D01*
X232500Y52228D02*
X243000Y62728D01*
X232500Y45228D02*
Y52228D01*
X212500Y25228D02*
X232500Y45228D01*
X212500Y15228D02*
Y25228D01*
X222500Y15228D02*
X228000Y20728D01*
X238000D01*
X262500Y45228D01*
X179300Y38428D02*
Y62728D01*
X174300Y67728D02*
X179300Y62728D01*
X146000Y67728D02*
X174300D01*
X141000Y62728D02*
X146000Y67728D01*
X195000Y62728D02*
X212500Y45228D01*
X192000Y62728D02*
X195000D01*
X247000Y67728D02*
X248000Y66728D01*
Y50728D02*
Y66728D01*
X242500Y45228D02*
X248000Y50728D01*
X135500Y46728D02*
X165500Y16728D01*
X77500Y13728D02*
X85157Y21386D01*
X33000Y13728D02*
X77500D01*
X268500Y49228D02*
X272500Y45228D01*
X268500Y49228D02*
Y62728D01*
X179300Y38428D02*
X202500Y15228D01*
X301000Y49228D02*
Y70728D01*
X299000Y72728D02*
X301000Y70728D01*
X294000Y72728D02*
X299000D01*
X85157Y21386D02*
X116000Y52228D01*
X140000D01*
X145500Y46728D01*
X184300Y67728D02*
X247000D01*
X179300Y62728D02*
X184300Y67728D01*
D12*
X351000Y90000D02*
D03*
D13*
X372500Y33595D02*
D03*
X334500Y18437D02*
D03*
X333000Y69937D02*
D03*
X294500Y143000D02*
D03*
X269000D02*
D03*
X59000Y120685D02*
D03*
X243500Y143000D02*
D03*
X218000D02*
D03*
X192500D02*
D03*
X167000D02*
D03*
X141500D02*
D03*
X116000D02*
D03*
X90500D02*
D03*
X65000D02*
D03*
X39500D02*
D03*
X14000Y142500D02*
D03*
X294500Y222500D02*
D03*
X269000D02*
D03*
X59000Y200185D02*
D03*
X243500Y222500D02*
D03*
X218000D02*
D03*
X192500D02*
D03*
X167000D02*
D03*
X141500D02*
D03*
X116000D02*
D03*
X90500D02*
D03*
X65000D02*
D03*
X39500D02*
D03*
X14000Y222000D02*
D03*
X294500Y301500D02*
D03*
X269000D02*
D03*
X59000Y279185D02*
D03*
X243500Y301500D02*
D03*
X218000D02*
D03*
X192500D02*
D03*
X167000D02*
D03*
X141500D02*
D03*
X116000D02*
D03*
X90500D02*
D03*
X65000D02*
D03*
X39500D02*
D03*
X14000Y301000D02*
D03*
X294000Y381000D02*
D03*
X268500D02*
D03*
X58500Y358685D02*
D03*
X243000Y381000D02*
D03*
X217500D02*
D03*
X192000D02*
D03*
X166500D02*
D03*
X141000D02*
D03*
X115500D02*
D03*
X90000D02*
D03*
X64500D02*
D03*
X39000D02*
D03*
X13500Y380500D02*
D03*
X294000Y62728D02*
D03*
X268500D02*
D03*
X243000D02*
D03*
X217500D02*
D03*
X192000D02*
D03*
X166500D02*
D03*
X141000D02*
D03*
X115500D02*
D03*
X90000D02*
D03*
X64500D02*
D03*
X39000D02*
D03*
X13500Y62228D02*
D03*
X58500Y40413D02*
D03*
D14*
X372500Y53280D02*
D03*
X337158Y44437D02*
D03*
X334500Y8437D02*
D03*
X333000Y79937D02*
D03*
X372000Y8437D02*
D03*
X364500Y13437D02*
D03*
X372000Y18437D02*
D03*
X373500Y68937D02*
D03*
X366000Y73937D02*
D03*
X373500Y78937D02*
D03*
X357000Y30937D02*
D03*
X327000D02*
D03*
X357000Y57937D02*
D03*
X327000D02*
D03*
X320500Y384000D02*
D03*
Y358500D02*
D03*
X372500Y148500D02*
D03*
X320500Y333000D02*
D03*
X379500Y123000D02*
D03*
X349500D02*
D03*
X320500Y307500D02*
D03*
Y282000D02*
D03*
Y256500D02*
D03*
Y231000D02*
D03*
Y205500D02*
D03*
Y180000D02*
D03*
Y154500D02*
D03*
Y129000D02*
D03*
X321000Y103500D02*
D03*
X294500Y153000D02*
D03*
X269000D02*
D03*
X59000Y101000D02*
D03*
X243500Y153000D02*
D03*
X33500Y94000D02*
D03*
Y124000D02*
D03*
X218000Y153000D02*
D03*
X192500D02*
D03*
X167000D02*
D03*
X141500D02*
D03*
X116000D02*
D03*
X90500D02*
D03*
X65000D02*
D03*
X39500D02*
D03*
X14000Y152500D02*
D03*
X294500Y232500D02*
D03*
X269000D02*
D03*
X59000Y180500D02*
D03*
X243500Y232500D02*
D03*
X33500Y173500D02*
D03*
Y203500D02*
D03*
X218000Y232500D02*
D03*
X192500D02*
D03*
X167000D02*
D03*
X141500D02*
D03*
X116000D02*
D03*
X90500D02*
D03*
X65000D02*
D03*
X39500D02*
D03*
X14000Y232000D02*
D03*
X294500Y311500D02*
D03*
X269000D02*
D03*
X59000Y259500D02*
D03*
X243500Y311500D02*
D03*
X33500Y252500D02*
D03*
Y282500D02*
D03*
X218000Y311500D02*
D03*
X192500D02*
D03*
X167000D02*
D03*
X141500D02*
D03*
X116000D02*
D03*
X90500D02*
D03*
X65000D02*
D03*
X39500D02*
D03*
X14000Y311000D02*
D03*
X294000Y391000D02*
D03*
X268500D02*
D03*
X58500Y339000D02*
D03*
X243000Y391000D02*
D03*
X33000Y332000D02*
D03*
Y362000D02*
D03*
X217500Y391000D02*
D03*
X192000D02*
D03*
X166500D02*
D03*
X141000D02*
D03*
X115500D02*
D03*
X90000D02*
D03*
X64500D02*
D03*
X39000D02*
D03*
X13500Y390500D02*
D03*
X294000Y72728D02*
D03*
X268500D02*
D03*
X243000D02*
D03*
X217500D02*
D03*
X192000D02*
D03*
X166500D02*
D03*
X141000D02*
D03*
X115500D02*
D03*
X90000D02*
D03*
X64500D02*
D03*
X39000D02*
D03*
X13500Y72228D02*
D03*
X33000Y13728D02*
D03*
Y43728D02*
D03*
X58500Y20728D02*
D03*
D15*
X356842Y44437D02*
D03*
X330500Y384000D02*
D03*
Y358500D02*
D03*
X352815Y148500D02*
D03*
X330500Y333000D02*
D03*
Y307500D02*
D03*
Y282000D02*
D03*
Y256500D02*
D03*
Y231000D02*
D03*
Y205500D02*
D03*
Y180000D02*
D03*
Y154500D02*
D03*
Y129000D02*
D03*
X331000Y103500D02*
D03*
D16*
X353500Y79937D02*
D03*
X370000Y103000D02*
D03*
X13500Y103500D02*
D03*
Y183000D02*
D03*
Y262000D02*
D03*
X13000Y341500D02*
D03*
Y23228D02*
D03*
D17*
X353500Y69937D02*
D03*
D18*
X154500Y83000D02*
D03*
Y163000D02*
D03*
Y242000D02*
D03*
X155000Y321500D02*
D03*
D19*
X346500Y225500D02*
D03*
Y235500D02*
D03*
Y245500D02*
D03*
Y255500D02*
D03*
X376500D02*
D03*
Y245500D02*
D03*
Y235500D02*
D03*
X378000Y362500D02*
D03*
Y352500D02*
D03*
Y342500D02*
D03*
Y332500D02*
D03*
Y322500D02*
D03*
Y312500D02*
D03*
Y302500D02*
D03*
Y292500D02*
D03*
X348000D02*
D03*
Y302500D02*
D03*
Y312500D02*
D03*
Y322500D02*
D03*
Y332500D02*
D03*
Y342500D02*
D03*
Y352500D02*
D03*
X136000Y127000D02*
D03*
X146000D02*
D03*
X156000D02*
D03*
X166000D02*
D03*
Y97000D02*
D03*
X156000D02*
D03*
X146000D02*
D03*
X273000Y95500D02*
D03*
X263000D02*
D03*
X253000D02*
D03*
X243000D02*
D03*
X233000D02*
D03*
X223000D02*
D03*
X213000D02*
D03*
X203000D02*
D03*
Y125500D02*
D03*
X213000D02*
D03*
X223000D02*
D03*
X233000D02*
D03*
X243000D02*
D03*
X253000D02*
D03*
X263000D02*
D03*
X136000Y206500D02*
D03*
X146000D02*
D03*
X156000D02*
D03*
X166000D02*
D03*
Y176500D02*
D03*
X156000D02*
D03*
X146000D02*
D03*
X273000Y175000D02*
D03*
X263000D02*
D03*
X253000D02*
D03*
X243000D02*
D03*
X233000D02*
D03*
X223000D02*
D03*
X213000D02*
D03*
X203000D02*
D03*
Y205000D02*
D03*
X213000D02*
D03*
X223000D02*
D03*
X233000D02*
D03*
X243000D02*
D03*
X253000D02*
D03*
X263000D02*
D03*
X136000Y285500D02*
D03*
X146000D02*
D03*
X156000D02*
D03*
X166000D02*
D03*
Y255500D02*
D03*
X156000D02*
D03*
X146000D02*
D03*
X273000Y254000D02*
D03*
X263000D02*
D03*
X253000D02*
D03*
X243000D02*
D03*
X233000D02*
D03*
X223000D02*
D03*
X213000D02*
D03*
X203000D02*
D03*
Y284000D02*
D03*
X213000D02*
D03*
X223000D02*
D03*
X233000D02*
D03*
X243000D02*
D03*
X253000D02*
D03*
X263000D02*
D03*
X135500Y365000D02*
D03*
X145500D02*
D03*
X155500D02*
D03*
X165500D02*
D03*
Y335000D02*
D03*
X155500D02*
D03*
X145500D02*
D03*
X272500Y333500D02*
D03*
X262500D02*
D03*
X252500D02*
D03*
X242500D02*
D03*
X232500D02*
D03*
X222500D02*
D03*
X212500D02*
D03*
X202500D02*
D03*
Y363500D02*
D03*
X212500D02*
D03*
X222500D02*
D03*
X232500D02*
D03*
X242500D02*
D03*
X252500D02*
D03*
X262500D02*
D03*
X272500Y15228D02*
D03*
X262500D02*
D03*
X252500D02*
D03*
X242500D02*
D03*
X232500D02*
D03*
X222500D02*
D03*
X212500D02*
D03*
X202500D02*
D03*
Y45228D02*
D03*
X212500D02*
D03*
X222500D02*
D03*
X232500D02*
D03*
X242500D02*
D03*
X252500D02*
D03*
X262500D02*
D03*
X135500Y46728D02*
D03*
X145500D02*
D03*
X155500D02*
D03*
X165500D02*
D03*
Y16728D02*
D03*
X155500D02*
D03*
X145500D02*
D03*
D20*
X376500Y225500D02*
D03*
X348000Y362500D02*
D03*
D21*
X360000Y103000D02*
D03*
D22*
X373500Y379000D02*
D03*
X343500D02*
D03*
X374000Y391000D02*
D03*
X344000D02*
D03*
X289500Y100000D02*
D03*
Y130000D02*
D03*
X301500Y99500D02*
D03*
Y129500D02*
D03*
X289500Y179500D02*
D03*
Y209500D02*
D03*
X301500Y179000D02*
D03*
Y209000D02*
D03*
X289500Y258500D02*
D03*
Y288500D02*
D03*
X301500Y258000D02*
D03*
Y288000D02*
D03*
X289000Y338000D02*
D03*
Y368000D02*
D03*
X301000Y337500D02*
D03*
Y367500D02*
D03*
X289000Y19728D02*
D03*
Y49728D02*
D03*
X301000Y19228D02*
D03*
Y49228D02*
D03*
D23*
X371843Y175157D02*
D03*
X362000Y194843D02*
D03*
X85657Y101657D02*
D03*
X105343Y111500D02*
D03*
X85657Y181157D02*
D03*
X105343Y191000D02*
D03*
X85657Y260157D02*
D03*
X105343Y270000D02*
D03*
X85157Y339657D02*
D03*
X104843Y349500D02*
D03*
X85157Y21386D02*
D03*
X104843Y31228D02*
D03*
D24*
X352157Y175157D02*
D03*
D25*
X310500Y201500D02*
D03*
D26*
X136000Y97000D02*
D03*
X273000Y125500D02*
D03*
X136000Y176500D02*
D03*
X273000Y205000D02*
D03*
X136000Y255500D02*
D03*
X273000Y284000D02*
D03*
X135500Y335000D02*
D03*
X272500Y363500D02*
D03*
Y45228D02*
D03*
X135500Y16728D02*
D03*
D27*
X13500Y113500D02*
D03*
Y193000D02*
D03*
Y272000D02*
D03*
X13000Y351500D02*
D03*
Y33228D02*
D03*
D28*
X85657Y121343D02*
D03*
Y200843D02*
D03*
Y279843D02*
D03*
X85157Y359343D02*
D03*
Y41071D02*
D03*
M02*
