G04 Layer_Color=16711935*
%FSLAX25Y25*%
%MOIN*%
G70*
G01*
G75*
%ADD22R,0.91351X0.03556*%
%ADD23R,0.03556X3.90564*%
%ADD24C,0.06706*%
%ADD25R,0.06706X0.06706*%
%ADD26R,0.06706X0.06706*%
%ADD27R,0.08674X0.08674*%
%ADD28C,0.08674*%
D22*
X345500Y78000D02*
D03*
X346000Y158000D02*
D03*
Y237500D02*
D03*
X345500Y316500D02*
D03*
X246500Y78000D02*
D03*
Y158000D02*
D03*
Y237500D02*
D03*
Y316500D02*
D03*
X146500Y78000D02*
D03*
Y158000D02*
D03*
Y237500D02*
D03*
Y316500D02*
D03*
X47500Y78000D02*
D03*
Y158000D02*
D03*
X48000Y237500D02*
D03*
X47500Y316500D02*
D03*
D23*
X296500Y197000D02*
D03*
X196500D02*
D03*
X97000Y196500D02*
D03*
D24*
X56279Y94937D02*
D03*
X47437Y130280D02*
D03*
X11437Y132937D02*
D03*
X82937Y134437D02*
D03*
X21437Y95437D02*
D03*
X16437Y102937D02*
D03*
X11437Y95437D02*
D03*
X81937Y93937D02*
D03*
X76937Y101437D02*
D03*
X71937Y93937D02*
D03*
X33937Y140437D02*
D03*
Y110437D02*
D03*
X60937Y140437D02*
D03*
Y110437D02*
D03*
X359437Y140437D02*
D03*
Y110437D02*
D03*
X332437Y140437D02*
D03*
Y110437D02*
D03*
X380437Y93937D02*
D03*
X375437Y101437D02*
D03*
X370437Y93937D02*
D03*
X319937Y95437D02*
D03*
X314937Y102937D02*
D03*
X309937Y95437D02*
D03*
X381437Y134437D02*
D03*
X309937Y132937D02*
D03*
X345937Y130280D02*
D03*
X354780Y94937D02*
D03*
X259937Y140437D02*
D03*
Y110437D02*
D03*
X232937Y140437D02*
D03*
Y110437D02*
D03*
X280937Y93937D02*
D03*
X275937Y101437D02*
D03*
X270937Y93937D02*
D03*
X220437Y95437D02*
D03*
X215437Y102937D02*
D03*
X210437Y95437D02*
D03*
X281937Y134437D02*
D03*
X210437Y132937D02*
D03*
X246437Y130280D02*
D03*
X255279Y94937D02*
D03*
X159937Y140437D02*
D03*
Y110437D02*
D03*
X132937Y140437D02*
D03*
Y110437D02*
D03*
X180937Y93937D02*
D03*
X175937Y101437D02*
D03*
X170937Y93937D02*
D03*
X120437Y95437D02*
D03*
X115437Y102937D02*
D03*
X110437Y95437D02*
D03*
X181937Y134437D02*
D03*
X110437Y132937D02*
D03*
X146437Y130280D02*
D03*
X155280Y94937D02*
D03*
X56779Y174437D02*
D03*
X47937Y209780D02*
D03*
X11937Y212437D02*
D03*
X83437Y213937D02*
D03*
X21937Y174937D02*
D03*
X16937Y182437D02*
D03*
X11937Y174937D02*
D03*
X82437Y173437D02*
D03*
X77437Y180937D02*
D03*
X72437Y173437D02*
D03*
X34437Y219937D02*
D03*
Y189937D02*
D03*
X61437Y219937D02*
D03*
Y189937D02*
D03*
X359937Y219937D02*
D03*
Y189937D02*
D03*
X332937Y219937D02*
D03*
Y189937D02*
D03*
X380937Y173437D02*
D03*
X375937Y180937D02*
D03*
X370937Y173437D02*
D03*
X320437Y174937D02*
D03*
X315437Y182437D02*
D03*
X310437Y174937D02*
D03*
X381937Y213937D02*
D03*
X310437Y212437D02*
D03*
X346437Y209780D02*
D03*
X355279Y174437D02*
D03*
X260437Y219937D02*
D03*
Y189937D02*
D03*
X233437Y219937D02*
D03*
Y189937D02*
D03*
X281437Y173437D02*
D03*
X276437Y180937D02*
D03*
X271437Y173437D02*
D03*
X220937Y174937D02*
D03*
X215937Y182437D02*
D03*
X210937Y174937D02*
D03*
X282437Y213937D02*
D03*
X210937Y212437D02*
D03*
X246937Y209780D02*
D03*
X255780Y174437D02*
D03*
X160437Y219937D02*
D03*
Y189937D02*
D03*
X133437Y219937D02*
D03*
Y189937D02*
D03*
X181437Y173437D02*
D03*
X176437Y180937D02*
D03*
X171437Y173437D02*
D03*
X120937Y174937D02*
D03*
X115937Y182437D02*
D03*
X110937Y174937D02*
D03*
X182437Y213937D02*
D03*
X110937Y212437D02*
D03*
X146937Y209780D02*
D03*
X155780Y174437D02*
D03*
X56779Y253937D02*
D03*
X47937Y289280D02*
D03*
X11937Y291937D02*
D03*
X83437Y293437D02*
D03*
X21937Y254437D02*
D03*
X16937Y261937D02*
D03*
X11937Y254437D02*
D03*
X82437Y252937D02*
D03*
X77437Y260437D02*
D03*
X72437Y252937D02*
D03*
X34437Y299437D02*
D03*
Y269437D02*
D03*
X61437Y299437D02*
D03*
Y269437D02*
D03*
X359937Y299437D02*
D03*
Y269437D02*
D03*
X332937Y299437D02*
D03*
Y269437D02*
D03*
X380937Y252937D02*
D03*
X375937Y260437D02*
D03*
X370937Y252937D02*
D03*
X320437Y254437D02*
D03*
X315437Y261937D02*
D03*
X310437Y254437D02*
D03*
X381937Y293437D02*
D03*
X310437Y291937D02*
D03*
X346437Y289280D02*
D03*
X355279Y253937D02*
D03*
X260437Y299437D02*
D03*
Y269437D02*
D03*
X233437Y299437D02*
D03*
Y269437D02*
D03*
X281437Y252937D02*
D03*
X276437Y260437D02*
D03*
X271437Y252937D02*
D03*
X220937Y254437D02*
D03*
X215937Y261937D02*
D03*
X210937Y254437D02*
D03*
X282437Y293437D02*
D03*
X210937Y291937D02*
D03*
X246937Y289280D02*
D03*
X255780Y253937D02*
D03*
X160437Y299437D02*
D03*
Y269437D02*
D03*
X133437Y299437D02*
D03*
Y269437D02*
D03*
X181437Y252937D02*
D03*
X176437Y260437D02*
D03*
X171437Y252937D02*
D03*
X120937Y254437D02*
D03*
X115937Y261937D02*
D03*
X110937Y254437D02*
D03*
X182437Y293437D02*
D03*
X110937Y291937D02*
D03*
X146937Y289280D02*
D03*
X155780Y253937D02*
D03*
X56779Y332437D02*
D03*
X47937Y367779D02*
D03*
X11937Y370437D02*
D03*
X83437Y371937D02*
D03*
X21937Y332937D02*
D03*
X16937Y340437D02*
D03*
X11937Y332937D02*
D03*
X82437Y331437D02*
D03*
X77437Y338937D02*
D03*
X72437Y331437D02*
D03*
X34437Y377937D02*
D03*
Y347937D02*
D03*
X61437Y377937D02*
D03*
Y347937D02*
D03*
X359937Y377937D02*
D03*
Y347937D02*
D03*
X332937Y377937D02*
D03*
Y347937D02*
D03*
X380937Y331437D02*
D03*
X375937Y338937D02*
D03*
X370937Y331437D02*
D03*
X320437Y332937D02*
D03*
X315437Y340437D02*
D03*
X310437Y332937D02*
D03*
X381937Y371937D02*
D03*
X310437Y370437D02*
D03*
X346437Y367779D02*
D03*
X355279Y332437D02*
D03*
X260437Y377937D02*
D03*
Y347937D02*
D03*
X233437Y377937D02*
D03*
Y347937D02*
D03*
X281437Y331437D02*
D03*
X276437Y338937D02*
D03*
X271437Y331437D02*
D03*
X220937Y332937D02*
D03*
X215937Y340437D02*
D03*
X210937Y332937D02*
D03*
X282437Y371937D02*
D03*
X210937Y370437D02*
D03*
X246937Y367779D02*
D03*
X255780Y332437D02*
D03*
X160437Y377937D02*
D03*
Y347937D02*
D03*
X133437Y377937D02*
D03*
Y347937D02*
D03*
X181437Y331437D02*
D03*
X176437Y338937D02*
D03*
X171437Y331437D02*
D03*
X120937Y332937D02*
D03*
X115937Y340437D02*
D03*
X110937Y332937D02*
D03*
X182437Y371937D02*
D03*
X110937Y370437D02*
D03*
X146937Y367779D02*
D03*
X155780Y332437D02*
D03*
Y14437D02*
D03*
X146937Y49779D02*
D03*
X110937Y52437D02*
D03*
X182437Y53937D02*
D03*
X120937Y14937D02*
D03*
X115937Y22437D02*
D03*
X110937Y14937D02*
D03*
X181437Y13437D02*
D03*
X176437Y20937D02*
D03*
X171437Y13437D02*
D03*
X133437Y59937D02*
D03*
Y29937D02*
D03*
X160437Y59937D02*
D03*
Y29937D02*
D03*
X255780Y14437D02*
D03*
X246937Y49779D02*
D03*
X210937Y52437D02*
D03*
X282437Y53937D02*
D03*
X220937Y14937D02*
D03*
X215937Y22437D02*
D03*
X210937Y14937D02*
D03*
X281437Y13437D02*
D03*
X276437Y20937D02*
D03*
X271437Y13437D02*
D03*
X233437Y59937D02*
D03*
Y29937D02*
D03*
X260437Y59937D02*
D03*
Y29937D02*
D03*
X355279Y14437D02*
D03*
X346437Y49779D02*
D03*
X310437Y52437D02*
D03*
X381937Y53937D02*
D03*
X320437Y14937D02*
D03*
X315437Y22437D02*
D03*
X310437Y14937D02*
D03*
X380937Y13437D02*
D03*
X375937Y20937D02*
D03*
X370937Y13437D02*
D03*
X332937Y59937D02*
D03*
Y29937D02*
D03*
X359937Y59937D02*
D03*
Y29937D02*
D03*
X61437Y59937D02*
D03*
Y29937D02*
D03*
X11937Y52437D02*
D03*
X83437Y53937D02*
D03*
X34437Y59937D02*
D03*
Y29937D02*
D03*
X56779Y14437D02*
D03*
X21937Y14937D02*
D03*
X16937Y22437D02*
D03*
X11937Y14937D02*
D03*
X47937Y49779D02*
D03*
X82437Y13437D02*
D03*
X77437Y20937D02*
D03*
X72437Y13437D02*
D03*
D25*
X36595Y94937D02*
D03*
X21437Y132937D02*
D03*
X72937Y134437D02*
D03*
X371437D02*
D03*
X319937Y132937D02*
D03*
X335094Y94937D02*
D03*
X271937Y134437D02*
D03*
X220437Y132937D02*
D03*
X235595Y94937D02*
D03*
X171937Y134437D02*
D03*
X120437Y132937D02*
D03*
X135594Y94937D02*
D03*
X37095Y174437D02*
D03*
X21937Y212437D02*
D03*
X73437Y213937D02*
D03*
X371937D02*
D03*
X320437Y212437D02*
D03*
X335595Y174437D02*
D03*
X272437Y213937D02*
D03*
X220937Y212437D02*
D03*
X236094Y174437D02*
D03*
X172437Y213937D02*
D03*
X120937Y212437D02*
D03*
X136094Y174437D02*
D03*
X37095Y253937D02*
D03*
X21937Y291937D02*
D03*
X73437Y293437D02*
D03*
X371937D02*
D03*
X320437Y291937D02*
D03*
X335595Y253937D02*
D03*
X272437Y293437D02*
D03*
X220937Y291937D02*
D03*
X236094Y253937D02*
D03*
X172437Y293437D02*
D03*
X120937Y291937D02*
D03*
X136094Y253937D02*
D03*
X37095Y332437D02*
D03*
X21937Y370437D02*
D03*
X73437Y371937D02*
D03*
X371937D02*
D03*
X320437Y370437D02*
D03*
X335595Y332437D02*
D03*
X272437Y371937D02*
D03*
X220937Y370437D02*
D03*
X236094Y332437D02*
D03*
X172437Y371937D02*
D03*
X120937Y370437D02*
D03*
X136094Y332437D02*
D03*
Y14437D02*
D03*
X120937Y52437D02*
D03*
X172437Y53937D02*
D03*
X236094Y14437D02*
D03*
X220937Y52437D02*
D03*
X272437Y53937D02*
D03*
X335595Y14437D02*
D03*
X320437Y52437D02*
D03*
X371937Y53937D02*
D03*
X21937Y52437D02*
D03*
X73437Y53937D02*
D03*
X37095Y14437D02*
D03*
D26*
X47437Y110594D02*
D03*
X345937D02*
D03*
X246437D02*
D03*
X146437D02*
D03*
X47937Y190094D02*
D03*
X346437D02*
D03*
X246937D02*
D03*
X146937D02*
D03*
X47937Y269595D02*
D03*
X346437D02*
D03*
X246937D02*
D03*
X146937D02*
D03*
X47937Y348095D02*
D03*
X346437D02*
D03*
X246937D02*
D03*
X146937D02*
D03*
Y30095D02*
D03*
X246937D02*
D03*
X346437D02*
D03*
X47937D02*
D03*
D27*
X72937Y113937D02*
D03*
X371437D02*
D03*
X271937D02*
D03*
X171937D02*
D03*
X73437Y193437D02*
D03*
X371937D02*
D03*
X272437D02*
D03*
X172437D02*
D03*
X73437Y272937D02*
D03*
X371937D02*
D03*
X272437D02*
D03*
X172437D02*
D03*
X73437Y351437D02*
D03*
X371937D02*
D03*
X272437D02*
D03*
X172437D02*
D03*
Y33437D02*
D03*
X272437D02*
D03*
X371937D02*
D03*
X73437D02*
D03*
D28*
X82937Y113937D02*
D03*
X381437D02*
D03*
X281937D02*
D03*
X181937D02*
D03*
X83437Y193437D02*
D03*
X381937D02*
D03*
X282437D02*
D03*
X182437D02*
D03*
X83437Y272937D02*
D03*
X381937D02*
D03*
X282437D02*
D03*
X182437D02*
D03*
X83437Y351437D02*
D03*
X381937D02*
D03*
X282437D02*
D03*
X182437D02*
D03*
Y33437D02*
D03*
X282437D02*
D03*
X381937D02*
D03*
X83437D02*
D03*
M02*
