G04 Layer_Physical_Order=2*
G04 Layer_Color=16711680*
%FSLAX25Y25*%
%MOIN*%
G70*
G01*
G75*
%ADD10C,0.03000*%
%ADD12R,0.90551X0.02756*%
%ADD13R,0.02756X3.89764*%
%ADD14C,0.05905*%
%ADD15R,0.05905X0.05905*%
%ADD16R,0.05905X0.05905*%
%ADD17R,0.07874X0.07874*%
%ADD18C,0.07874*%
G36*
X316832Y343428D02*
X318538Y341566D01*
X318428Y339042D01*
X316566Y337336D01*
X314042Y337446D01*
X312336Y339308D01*
X312446Y341832D01*
X314308Y343538D01*
X316832Y343428D01*
D02*
G37*
G36*
X217332D02*
X219038Y341566D01*
X218928Y339042D01*
X217066Y337336D01*
X214542Y337446D01*
X212836Y339308D01*
X212946Y341832D01*
X214808Y343538D01*
X217332Y343428D01*
D02*
G37*
G36*
X117332D02*
X119038Y341566D01*
X118928Y339042D01*
X117066Y337336D01*
X114542Y337446D01*
X112836Y339308D01*
X112946Y341832D01*
X114808Y343538D01*
X117332Y343428D01*
D02*
G37*
G36*
X18332D02*
X20038Y341566D01*
X19928Y339042D01*
X18066Y337336D01*
X15542Y337446D01*
X13836Y339308D01*
X13946Y341832D01*
X15808Y343538D01*
X18332Y343428D01*
D02*
G37*
G36*
X377332Y341928D02*
X379038Y340066D01*
X378928Y337542D01*
X377066Y335836D01*
X374542Y335946D01*
X372836Y337808D01*
X372946Y340332D01*
X374808Y342038D01*
X377332Y341928D01*
D02*
G37*
G36*
X277832D02*
X279538Y340066D01*
X279428Y337542D01*
X277566Y335836D01*
X275042Y335946D01*
X273336Y337808D01*
X273446Y340332D01*
X275308Y342038D01*
X277832Y341928D01*
D02*
G37*
G36*
X177832D02*
X179538Y340066D01*
X179428Y337542D01*
X177566Y335836D01*
X175042Y335946D01*
X173336Y337808D01*
X173446Y340332D01*
X175308Y342038D01*
X177832Y341928D01*
D02*
G37*
G36*
X78832D02*
X80538Y340066D01*
X80428Y337542D01*
X78566Y335836D01*
X76042Y335946D01*
X74336Y337808D01*
X74446Y340332D01*
X76308Y342038D01*
X78832Y341928D01*
D02*
G37*
G36*
X321832Y335928D02*
X323538Y334066D01*
X323428Y331542D01*
X321566Y329836D01*
X319042Y329946D01*
X317336Y331808D01*
X317446Y334332D01*
X319308Y336038D01*
X321832Y335928D01*
D02*
G37*
G36*
X311832D02*
X313538Y334066D01*
X313428Y331542D01*
X311566Y329836D01*
X309042Y329946D01*
X307336Y331808D01*
X307446Y334332D01*
X309308Y336038D01*
X311832Y335928D01*
D02*
G37*
G36*
X222332D02*
X224038Y334066D01*
X223928Y331542D01*
X222066Y329836D01*
X219542Y329946D01*
X217836Y331808D01*
X217946Y334332D01*
X219808Y336038D01*
X222332Y335928D01*
D02*
G37*
G36*
X212332D02*
X214038Y334066D01*
X213928Y331542D01*
X212066Y329836D01*
X209542Y329946D01*
X207836Y331808D01*
X207946Y334332D01*
X209808Y336038D01*
X212332Y335928D01*
D02*
G37*
G36*
X122332D02*
X124038Y334066D01*
X123928Y331542D01*
X122066Y329836D01*
X119542Y329946D01*
X117836Y331808D01*
X117946Y334332D01*
X119808Y336038D01*
X122332Y335928D01*
D02*
G37*
G36*
X112332D02*
X114038Y334066D01*
X113928Y331542D01*
X112066Y329836D01*
X109542Y329946D01*
X107836Y331808D01*
X107946Y334332D01*
X109808Y336038D01*
X112332Y335928D01*
D02*
G37*
G36*
X23332D02*
X25038Y334066D01*
X24928Y331542D01*
X23066Y329836D01*
X20542Y329946D01*
X18836Y331808D01*
X18946Y334332D01*
X20808Y336038D01*
X23332Y335928D01*
D02*
G37*
G36*
X13332D02*
X15038Y334066D01*
X14928Y331542D01*
X13066Y329836D01*
X10542Y329946D01*
X8836Y331808D01*
X8946Y334332D01*
X10808Y336038D01*
X13332Y335928D01*
D02*
G37*
G36*
X382332Y334428D02*
X384038Y332566D01*
X383928Y330042D01*
X382066Y328336D01*
X379542Y328446D01*
X377836Y330308D01*
X377946Y332832D01*
X379808Y334538D01*
X382332Y334428D01*
D02*
G37*
G36*
X372332D02*
X374038Y332566D01*
X373928Y330042D01*
X372066Y328336D01*
X369542Y328446D01*
X367836Y330308D01*
X367946Y332832D01*
X369808Y334538D01*
X372332Y334428D01*
D02*
G37*
G36*
X282832D02*
X284538Y332566D01*
X284428Y330042D01*
X282566Y328336D01*
X280042Y328446D01*
X278336Y330308D01*
X278446Y332832D01*
X280308Y334538D01*
X282832Y334428D01*
D02*
G37*
G36*
X272832D02*
X274538Y332566D01*
X274428Y330042D01*
X272566Y328336D01*
X270042Y328446D01*
X268336Y330308D01*
X268446Y332832D01*
X270308Y334538D01*
X272832Y334428D01*
D02*
G37*
G36*
X182832D02*
X184538Y332566D01*
X184428Y330042D01*
X182566Y328336D01*
X180042Y328446D01*
X178336Y330308D01*
X178446Y332832D01*
X180308Y334538D01*
X182832Y334428D01*
D02*
G37*
G36*
X172832D02*
X174538Y332566D01*
X174428Y330042D01*
X172566Y328336D01*
X170042Y328446D01*
X168336Y330308D01*
X168446Y332832D01*
X170308Y334538D01*
X172832Y334428D01*
D02*
G37*
G36*
X83832D02*
X85538Y332566D01*
X85428Y330042D01*
X83566Y328336D01*
X81042Y328446D01*
X79336Y330308D01*
X79446Y332832D01*
X81308Y334538D01*
X83832Y334428D01*
D02*
G37*
G36*
X73832D02*
X75538Y332566D01*
X75428Y330042D01*
X73566Y328336D01*
X71042Y328446D01*
X69336Y330308D01*
X69446Y332832D01*
X71308Y334538D01*
X73832Y334428D01*
D02*
G37*
G36*
X316832Y264928D02*
X318538Y263066D01*
X318428Y260542D01*
X316566Y258836D01*
X314042Y258946D01*
X312336Y260808D01*
X312446Y263332D01*
X314308Y265038D01*
X316832Y264928D01*
D02*
G37*
G36*
X217332D02*
X219038Y263066D01*
X218928Y260542D01*
X217066Y258836D01*
X214542Y258946D01*
X212836Y260808D01*
X212946Y263332D01*
X214808Y265038D01*
X217332Y264928D01*
D02*
G37*
G36*
X117332D02*
X119038Y263066D01*
X118928Y260542D01*
X117066Y258836D01*
X114542Y258946D01*
X112836Y260808D01*
X112946Y263332D01*
X114808Y265038D01*
X117332Y264928D01*
D02*
G37*
G36*
X18332D02*
X20038Y263066D01*
X19928Y260542D01*
X18066Y258836D01*
X15542Y258946D01*
X13836Y260808D01*
X13946Y263332D01*
X15808Y265038D01*
X18332Y264928D01*
D02*
G37*
G36*
X377332Y263428D02*
X379038Y261566D01*
X378928Y259042D01*
X377066Y257336D01*
X374542Y257446D01*
X372836Y259308D01*
X372946Y261832D01*
X374808Y263538D01*
X377332Y263428D01*
D02*
G37*
G36*
X277832D02*
X279538Y261566D01*
X279428Y259042D01*
X277566Y257336D01*
X275042Y257446D01*
X273336Y259308D01*
X273446Y261832D01*
X275308Y263538D01*
X277832Y263428D01*
D02*
G37*
G36*
X177832D02*
X179538Y261566D01*
X179428Y259042D01*
X177566Y257336D01*
X175042Y257446D01*
X173336Y259308D01*
X173446Y261832D01*
X175308Y263538D01*
X177832Y263428D01*
D02*
G37*
G36*
X78832D02*
X80538Y261566D01*
X80428Y259042D01*
X78566Y257336D01*
X76042Y257446D01*
X74336Y259308D01*
X74446Y261832D01*
X76308Y263538D01*
X78832Y263428D01*
D02*
G37*
G36*
X321832Y257428D02*
X323538Y255566D01*
X323428Y253042D01*
X321566Y251336D01*
X319042Y251446D01*
X317336Y253308D01*
X317446Y255832D01*
X319308Y257538D01*
X321832Y257428D01*
D02*
G37*
G36*
X311832D02*
X313538Y255566D01*
X313428Y253042D01*
X311566Y251336D01*
X309042Y251446D01*
X307336Y253308D01*
X307446Y255832D01*
X309308Y257538D01*
X311832Y257428D01*
D02*
G37*
G36*
X222332D02*
X224038Y255566D01*
X223928Y253042D01*
X222066Y251336D01*
X219542Y251446D01*
X217836Y253308D01*
X217946Y255832D01*
X219808Y257538D01*
X222332Y257428D01*
D02*
G37*
G36*
X212332D02*
X214038Y255566D01*
X213928Y253042D01*
X212066Y251336D01*
X209542Y251446D01*
X207836Y253308D01*
X207946Y255832D01*
X209808Y257538D01*
X212332Y257428D01*
D02*
G37*
G36*
X122332D02*
X124038Y255566D01*
X123928Y253042D01*
X122066Y251336D01*
X119542Y251446D01*
X117836Y253308D01*
X117946Y255832D01*
X119808Y257538D01*
X122332Y257428D01*
D02*
G37*
G36*
X112332D02*
X114038Y255566D01*
X113928Y253042D01*
X112066Y251336D01*
X109542Y251446D01*
X107836Y253308D01*
X107946Y255832D01*
X109808Y257538D01*
X112332Y257428D01*
D02*
G37*
G36*
X23332D02*
X25038Y255566D01*
X24928Y253042D01*
X23066Y251336D01*
X20542Y251446D01*
X18836Y253308D01*
X18946Y255832D01*
X20808Y257538D01*
X23332Y257428D01*
D02*
G37*
G36*
X13332D02*
X15038Y255566D01*
X14928Y253042D01*
X13066Y251336D01*
X10542Y251446D01*
X8836Y253308D01*
X8946Y255832D01*
X10808Y257538D01*
X13332Y257428D01*
D02*
G37*
G36*
X382332Y255928D02*
X384038Y254066D01*
X383928Y251542D01*
X382066Y249836D01*
X379542Y249946D01*
X377836Y251808D01*
X377946Y254332D01*
X379808Y256038D01*
X382332Y255928D01*
D02*
G37*
G36*
X372332D02*
X374038Y254066D01*
X373928Y251542D01*
X372066Y249836D01*
X369542Y249946D01*
X367836Y251808D01*
X367946Y254332D01*
X369808Y256038D01*
X372332Y255928D01*
D02*
G37*
G36*
X282832D02*
X284538Y254066D01*
X284428Y251542D01*
X282566Y249836D01*
X280042Y249946D01*
X278336Y251808D01*
X278446Y254332D01*
X280308Y256038D01*
X282832Y255928D01*
D02*
G37*
G36*
X272832D02*
X274538Y254066D01*
X274428Y251542D01*
X272566Y249836D01*
X270042Y249946D01*
X268336Y251808D01*
X268446Y254332D01*
X270308Y256038D01*
X272832Y255928D01*
D02*
G37*
G36*
X182832D02*
X184538Y254066D01*
X184428Y251542D01*
X182566Y249836D01*
X180042Y249946D01*
X178336Y251808D01*
X178446Y254332D01*
X180308Y256038D01*
X182832Y255928D01*
D02*
G37*
G36*
X172832D02*
X174538Y254066D01*
X174428Y251542D01*
X172566Y249836D01*
X170042Y249946D01*
X168336Y251808D01*
X168446Y254332D01*
X170308Y256038D01*
X172832Y255928D01*
D02*
G37*
G36*
X83832D02*
X85538Y254066D01*
X85428Y251542D01*
X83566Y249836D01*
X81042Y249946D01*
X79336Y251808D01*
X79446Y254332D01*
X81308Y256038D01*
X83832Y255928D01*
D02*
G37*
G36*
X73832D02*
X75538Y254066D01*
X75428Y251542D01*
X73566Y249836D01*
X71042Y249946D01*
X69336Y251808D01*
X69446Y254332D01*
X71308Y256038D01*
X73832Y255928D01*
D02*
G37*
G36*
X316832Y185428D02*
X318538Y183566D01*
X318428Y181042D01*
X316566Y179336D01*
X314042Y179446D01*
X312336Y181308D01*
X312446Y183832D01*
X314308Y185538D01*
X316832Y185428D01*
D02*
G37*
G36*
X217332D02*
X219038Y183566D01*
X218928Y181042D01*
X217066Y179336D01*
X214542Y179446D01*
X212836Y181308D01*
X212946Y183832D01*
X214808Y185538D01*
X217332Y185428D01*
D02*
G37*
G36*
X117332D02*
X119038Y183566D01*
X118928Y181042D01*
X117066Y179336D01*
X114542Y179446D01*
X112836Y181308D01*
X112946Y183832D01*
X114808Y185538D01*
X117332Y185428D01*
D02*
G37*
G36*
X18332D02*
X20038Y183566D01*
X19928Y181042D01*
X18066Y179336D01*
X15542Y179446D01*
X13836Y181308D01*
X13946Y183832D01*
X15808Y185538D01*
X18332Y185428D01*
D02*
G37*
G36*
X377332Y183928D02*
X379038Y182066D01*
X378928Y179542D01*
X377066Y177836D01*
X374542Y177946D01*
X372836Y179808D01*
X372946Y182332D01*
X374808Y184038D01*
X377332Y183928D01*
D02*
G37*
G36*
X277832D02*
X279538Y182066D01*
X279428Y179542D01*
X277566Y177836D01*
X275042Y177946D01*
X273336Y179808D01*
X273446Y182332D01*
X275308Y184038D01*
X277832Y183928D01*
D02*
G37*
G36*
X177832D02*
X179538Y182066D01*
X179428Y179542D01*
X177566Y177836D01*
X175042Y177946D01*
X173336Y179808D01*
X173446Y182332D01*
X175308Y184038D01*
X177832Y183928D01*
D02*
G37*
G36*
X78832D02*
X80538Y182066D01*
X80428Y179542D01*
X78566Y177836D01*
X76042Y177946D01*
X74336Y179808D01*
X74446Y182332D01*
X76308Y184038D01*
X78832Y183928D01*
D02*
G37*
G36*
X321832Y177928D02*
X323538Y176066D01*
X323428Y173542D01*
X321566Y171836D01*
X319042Y171946D01*
X317336Y173808D01*
X317446Y176332D01*
X319308Y178038D01*
X321832Y177928D01*
D02*
G37*
G36*
X311832D02*
X313538Y176066D01*
X313428Y173542D01*
X311566Y171836D01*
X309042Y171946D01*
X307336Y173808D01*
X307446Y176332D01*
X309308Y178038D01*
X311832Y177928D01*
D02*
G37*
G36*
X222332D02*
X224038Y176066D01*
X223928Y173542D01*
X222066Y171836D01*
X219542Y171946D01*
X217836Y173808D01*
X217946Y176332D01*
X219808Y178038D01*
X222332Y177928D01*
D02*
G37*
G36*
X212332D02*
X214038Y176066D01*
X213928Y173542D01*
X212066Y171836D01*
X209542Y171946D01*
X207836Y173808D01*
X207946Y176332D01*
X209808Y178038D01*
X212332Y177928D01*
D02*
G37*
G36*
X122332D02*
X124038Y176066D01*
X123928Y173542D01*
X122066Y171836D01*
X119542Y171946D01*
X117836Y173808D01*
X117946Y176332D01*
X119808Y178038D01*
X122332Y177928D01*
D02*
G37*
G36*
X112332D02*
X114038Y176066D01*
X113928Y173542D01*
X112066Y171836D01*
X109542Y171946D01*
X107836Y173808D01*
X107946Y176332D01*
X109808Y178038D01*
X112332Y177928D01*
D02*
G37*
G36*
X23332D02*
X25038Y176066D01*
X24928Y173542D01*
X23066Y171836D01*
X20542Y171946D01*
X18836Y173808D01*
X18946Y176332D01*
X20808Y178038D01*
X23332Y177928D01*
D02*
G37*
G36*
X13332D02*
X15038Y176066D01*
X14928Y173542D01*
X13066Y171836D01*
X10542Y171946D01*
X8836Y173808D01*
X8946Y176332D01*
X10808Y178038D01*
X13332Y177928D01*
D02*
G37*
G36*
X382332Y176428D02*
X384038Y174566D01*
X383928Y172042D01*
X382066Y170336D01*
X379542Y170446D01*
X377836Y172308D01*
X377946Y174832D01*
X379808Y176538D01*
X382332Y176428D01*
D02*
G37*
G36*
X372332D02*
X374038Y174566D01*
X373928Y172042D01*
X372066Y170336D01*
X369542Y170446D01*
X367836Y172308D01*
X367946Y174832D01*
X369808Y176538D01*
X372332Y176428D01*
D02*
G37*
G36*
X282832D02*
X284538Y174566D01*
X284428Y172042D01*
X282566Y170336D01*
X280042Y170446D01*
X278336Y172308D01*
X278446Y174832D01*
X280308Y176538D01*
X282832Y176428D01*
D02*
G37*
G36*
X272832D02*
X274538Y174566D01*
X274428Y172042D01*
X272566Y170336D01*
X270042Y170446D01*
X268336Y172308D01*
X268446Y174832D01*
X270308Y176538D01*
X272832Y176428D01*
D02*
G37*
G36*
X182832D02*
X184538Y174566D01*
X184428Y172042D01*
X182566Y170336D01*
X180042Y170446D01*
X178336Y172308D01*
X178446Y174832D01*
X180308Y176538D01*
X182832Y176428D01*
D02*
G37*
G36*
X172832D02*
X174538Y174566D01*
X174428Y172042D01*
X172566Y170336D01*
X170042Y170446D01*
X168336Y172308D01*
X168446Y174832D01*
X170308Y176538D01*
X172832Y176428D01*
D02*
G37*
G36*
X83832D02*
X85538Y174566D01*
X85428Y172042D01*
X83566Y170336D01*
X81042Y170446D01*
X79336Y172308D01*
X79446Y174832D01*
X81308Y176538D01*
X83832Y176428D01*
D02*
G37*
G36*
X73832D02*
X75538Y174566D01*
X75428Y172042D01*
X73566Y170336D01*
X71042Y170446D01*
X69336Y172308D01*
X69446Y174832D01*
X71308Y176538D01*
X73832Y176428D01*
D02*
G37*
G36*
X316332Y105928D02*
X318038Y104066D01*
X317928Y101542D01*
X316066Y99836D01*
X313542Y99946D01*
X311836Y101808D01*
X311946Y104332D01*
X313808Y106038D01*
X316332Y105928D01*
D02*
G37*
G36*
X216832D02*
X218538Y104066D01*
X218428Y101542D01*
X216566Y99836D01*
X214042Y99946D01*
X212336Y101808D01*
X212446Y104332D01*
X214308Y106038D01*
X216832Y105928D01*
D02*
G37*
G36*
X116832D02*
X118538Y104066D01*
X118428Y101542D01*
X116566Y99836D01*
X114042Y99946D01*
X112336Y101808D01*
X112446Y104332D01*
X114308Y106038D01*
X116832Y105928D01*
D02*
G37*
G36*
X17832D02*
X19538Y104066D01*
X19428Y101542D01*
X17566Y99836D01*
X15042Y99946D01*
X13336Y101808D01*
X13446Y104332D01*
X15308Y106038D01*
X17832Y105928D01*
D02*
G37*
G36*
X376832Y104428D02*
X378538Y102566D01*
X378428Y100042D01*
X376566Y98336D01*
X374042Y98446D01*
X372336Y100308D01*
X372446Y102832D01*
X374308Y104538D01*
X376832Y104428D01*
D02*
G37*
G36*
X277332D02*
X279038Y102566D01*
X278928Y100042D01*
X277066Y98336D01*
X274542Y98446D01*
X272836Y100308D01*
X272946Y102832D01*
X274808Y104538D01*
X277332Y104428D01*
D02*
G37*
G36*
X177332D02*
X179038Y102566D01*
X178928Y100042D01*
X177066Y98336D01*
X174542Y98446D01*
X172836Y100308D01*
X172946Y102832D01*
X174808Y104538D01*
X177332Y104428D01*
D02*
G37*
G36*
X78332D02*
X80038Y102566D01*
X79928Y100042D01*
X78066Y98336D01*
X75542Y98446D01*
X73836Y100308D01*
X73946Y102832D01*
X75808Y104538D01*
X78332Y104428D01*
D02*
G37*
G36*
X321332Y98428D02*
X323038Y96566D01*
X322928Y94042D01*
X321066Y92336D01*
X318542Y92446D01*
X316836Y94308D01*
X316946Y96832D01*
X318808Y98538D01*
X321332Y98428D01*
D02*
G37*
G36*
X311332D02*
X313038Y96566D01*
X312928Y94042D01*
X311066Y92336D01*
X308542Y92446D01*
X306836Y94308D01*
X306946Y96832D01*
X308808Y98538D01*
X311332Y98428D01*
D02*
G37*
G36*
X221832D02*
X223538Y96566D01*
X223428Y94042D01*
X221566Y92336D01*
X219042Y92446D01*
X217336Y94308D01*
X217446Y96832D01*
X219308Y98538D01*
X221832Y98428D01*
D02*
G37*
G36*
X211832D02*
X213538Y96566D01*
X213428Y94042D01*
X211566Y92336D01*
X209042Y92446D01*
X207336Y94308D01*
X207446Y96832D01*
X209308Y98538D01*
X211832Y98428D01*
D02*
G37*
G36*
X121832D02*
X123538Y96566D01*
X123428Y94042D01*
X121566Y92336D01*
X119042Y92446D01*
X117336Y94308D01*
X117446Y96832D01*
X119308Y98538D01*
X121832Y98428D01*
D02*
G37*
G36*
X111832D02*
X113538Y96566D01*
X113428Y94042D01*
X111566Y92336D01*
X109042Y92446D01*
X107336Y94308D01*
X107446Y96832D01*
X109308Y98538D01*
X111832Y98428D01*
D02*
G37*
G36*
X22832D02*
X24538Y96566D01*
X24428Y94042D01*
X22566Y92336D01*
X20042Y92446D01*
X18336Y94308D01*
X18446Y96832D01*
X20308Y98538D01*
X22832Y98428D01*
D02*
G37*
G36*
X12832D02*
X14538Y96566D01*
X14428Y94042D01*
X12566Y92336D01*
X10042Y92446D01*
X8336Y94308D01*
X8446Y96832D01*
X10308Y98538D01*
X12832Y98428D01*
D02*
G37*
G36*
X381832Y96928D02*
X383538Y95066D01*
X383428Y92542D01*
X381566Y90836D01*
X379042Y90946D01*
X377336Y92808D01*
X377446Y95332D01*
X379308Y97038D01*
X381832Y96928D01*
D02*
G37*
G36*
X371832D02*
X373538Y95066D01*
X373428Y92542D01*
X371566Y90836D01*
X369042Y90946D01*
X367336Y92808D01*
X367446Y95332D01*
X369308Y97038D01*
X371832Y96928D01*
D02*
G37*
G36*
X282332D02*
X284038Y95066D01*
X283928Y92542D01*
X282066Y90836D01*
X279542Y90946D01*
X277836Y92808D01*
X277946Y95332D01*
X279808Y97038D01*
X282332Y96928D01*
D02*
G37*
G36*
X272332D02*
X274038Y95066D01*
X273928Y92542D01*
X272066Y90836D01*
X269542Y90946D01*
X267836Y92808D01*
X267946Y95332D01*
X269808Y97038D01*
X272332Y96928D01*
D02*
G37*
G36*
X182332D02*
X184038Y95066D01*
X183928Y92542D01*
X182066Y90836D01*
X179542Y90946D01*
X177836Y92808D01*
X177946Y95332D01*
X179808Y97038D01*
X182332Y96928D01*
D02*
G37*
G36*
X172332D02*
X174038Y95066D01*
X173928Y92542D01*
X172066Y90836D01*
X169542Y90946D01*
X167836Y92808D01*
X167946Y95332D01*
X169808Y97038D01*
X172332Y96928D01*
D02*
G37*
G36*
X83332D02*
X85038Y95066D01*
X84928Y92542D01*
X83066Y90836D01*
X80542Y90946D01*
X78836Y92808D01*
X78946Y95332D01*
X80808Y97038D01*
X83332Y96928D01*
D02*
G37*
G36*
X73332D02*
X75038Y95066D01*
X74928Y92542D01*
X73066Y90836D01*
X70542Y90946D01*
X68836Y92808D01*
X68946Y95332D01*
X70808Y97038D01*
X73332Y96928D01*
D02*
G37*
G36*
X316832Y25428D02*
X318538Y23566D01*
X318428Y21042D01*
X316566Y19336D01*
X314042Y19446D01*
X312336Y21308D01*
X312446Y23832D01*
X314308Y25538D01*
X316832Y25428D01*
D02*
G37*
G36*
X217332D02*
X219038Y23566D01*
X218928Y21042D01*
X217066Y19336D01*
X214542Y19446D01*
X212836Y21308D01*
X212946Y23832D01*
X214808Y25538D01*
X217332Y25428D01*
D02*
G37*
G36*
X117332D02*
X119038Y23566D01*
X118928Y21042D01*
X117066Y19336D01*
X114542Y19446D01*
X112836Y21308D01*
X112946Y23832D01*
X114808Y25538D01*
X117332Y25428D01*
D02*
G37*
G36*
X18332D02*
X20038Y23566D01*
X19928Y21042D01*
X18066Y19336D01*
X15542Y19446D01*
X13836Y21308D01*
X13946Y23832D01*
X15808Y25538D01*
X18332Y25428D01*
D02*
G37*
G36*
X377332Y23928D02*
X379038Y22066D01*
X378928Y19542D01*
X377066Y17836D01*
X374542Y17946D01*
X372836Y19808D01*
X372946Y22332D01*
X374808Y24038D01*
X377332Y23928D01*
D02*
G37*
G36*
X277832D02*
X279538Y22066D01*
X279428Y19542D01*
X277566Y17836D01*
X275042Y17946D01*
X273336Y19808D01*
X273446Y22332D01*
X275308Y24038D01*
X277832Y23928D01*
D02*
G37*
G36*
X177832D02*
X179538Y22066D01*
X179428Y19542D01*
X177566Y17836D01*
X175042Y17946D01*
X173336Y19808D01*
X173446Y22332D01*
X175308Y24038D01*
X177832Y23928D01*
D02*
G37*
G36*
X78832D02*
X80538Y22066D01*
X80428Y19542D01*
X78566Y17836D01*
X76042Y17946D01*
X74336Y19808D01*
X74446Y22332D01*
X76308Y24038D01*
X78832Y23928D01*
D02*
G37*
G36*
X321832Y17928D02*
X323538Y16066D01*
X323428Y13542D01*
X321566Y11836D01*
X319042Y11946D01*
X317336Y13808D01*
X317446Y16332D01*
X319308Y18038D01*
X321832Y17928D01*
D02*
G37*
G36*
X311832D02*
X313538Y16066D01*
X313428Y13542D01*
X311566Y11836D01*
X309042Y11946D01*
X307336Y13808D01*
X307446Y16332D01*
X309308Y18038D01*
X311832Y17928D01*
D02*
G37*
G36*
X222332D02*
X224038Y16066D01*
X223928Y13542D01*
X222066Y11836D01*
X219542Y11946D01*
X217836Y13808D01*
X217946Y16332D01*
X219808Y18038D01*
X222332Y17928D01*
D02*
G37*
G36*
X212332D02*
X214038Y16066D01*
X213928Y13542D01*
X212066Y11836D01*
X209542Y11946D01*
X207836Y13808D01*
X207946Y16332D01*
X209808Y18038D01*
X212332Y17928D01*
D02*
G37*
G36*
X122332D02*
X124038Y16066D01*
X123928Y13542D01*
X122066Y11836D01*
X119542Y11946D01*
X117836Y13808D01*
X117946Y16332D01*
X119808Y18038D01*
X122332Y17928D01*
D02*
G37*
G36*
X112332D02*
X114038Y16066D01*
X113928Y13542D01*
X112066Y11836D01*
X109542Y11946D01*
X107836Y13808D01*
X107946Y16332D01*
X109808Y18038D01*
X112332Y17928D01*
D02*
G37*
G36*
X23332D02*
X25038Y16066D01*
X24928Y13542D01*
X23066Y11836D01*
X20542Y11946D01*
X18836Y13808D01*
X18946Y16332D01*
X20808Y18038D01*
X23332Y17928D01*
D02*
G37*
G36*
X13332D02*
X15038Y16066D01*
X14928Y13542D01*
X13066Y11836D01*
X10542Y11946D01*
X8836Y13808D01*
X8946Y16332D01*
X10808Y18038D01*
X13332Y17928D01*
D02*
G37*
G36*
X382332Y16428D02*
X384038Y14566D01*
X383928Y12042D01*
X382066Y10336D01*
X379542Y10446D01*
X377836Y12308D01*
X377946Y14832D01*
X379808Y16538D01*
X382332Y16428D01*
D02*
G37*
G36*
X372332D02*
X374038Y14566D01*
X373928Y12042D01*
X372066Y10336D01*
X369542Y10446D01*
X367836Y12308D01*
X367946Y14832D01*
X369808Y16538D01*
X372332Y16428D01*
D02*
G37*
G36*
X282832D02*
X284538Y14566D01*
X284428Y12042D01*
X282566Y10336D01*
X280042Y10446D01*
X278336Y12308D01*
X278446Y14832D01*
X280308Y16538D01*
X282832Y16428D01*
D02*
G37*
G36*
X272832D02*
X274538Y14566D01*
X274428Y12042D01*
X272566Y10336D01*
X270042Y10446D01*
X268336Y12308D01*
X268446Y14832D01*
X270308Y16538D01*
X272832Y16428D01*
D02*
G37*
G36*
X182832D02*
X184538Y14566D01*
X184428Y12042D01*
X182566Y10336D01*
X180042Y10446D01*
X178336Y12308D01*
X178446Y14832D01*
X180308Y16538D01*
X182832Y16428D01*
D02*
G37*
G36*
X172832D02*
X174538Y14566D01*
X174428Y12042D01*
X172566Y10336D01*
X170042Y10446D01*
X168336Y12308D01*
X168446Y14832D01*
X170308Y16538D01*
X172832Y16428D01*
D02*
G37*
G36*
X83832D02*
X85538Y14566D01*
X85428Y12042D01*
X83566Y10336D01*
X81042Y10446D01*
X79336Y12308D01*
X79446Y14832D01*
X81308Y16538D01*
X83832Y16428D01*
D02*
G37*
G36*
X73832D02*
X75538Y14566D01*
X75428Y12042D01*
X73566Y10336D01*
X71042Y10446D01*
X69336Y12308D01*
X69446Y14832D01*
X71308Y16538D01*
X73832Y16428D01*
D02*
G37*
D10*
X33937Y140437D02*
X60937D01*
X66937D01*
X72937Y134437D01*
X47437Y123937D02*
Y130280D01*
X33937Y110437D02*
X47437Y123937D01*
X11437Y113437D02*
Y132937D01*
X7937Y109937D02*
X11437Y113437D01*
X7937Y98937D02*
Y109937D01*
Y98937D02*
X11437Y95437D01*
X16437Y102937D02*
X26437D01*
X33937Y110437D01*
X11437Y95437D02*
X17437Y89437D01*
X31937D01*
X36595Y94095D01*
Y94937D01*
X56279Y94937D02*
Y105780D01*
X60937Y110437D01*
X82937Y125937D02*
Y134437D01*
X79937Y85937D02*
X86937D01*
X71937Y93937D02*
X79937Y85937D01*
X60937Y110437D02*
X61437D01*
X70437Y101437D01*
X76937D01*
X72937Y113937D02*
Y134437D01*
X82937Y94937D02*
Y113937D01*
X81937Y93937D02*
X82937Y94937D01*
X26437Y132937D02*
X33937Y140437D01*
X21437Y132937D02*
X26437D01*
X86937Y85937D02*
X89937Y88937D01*
Y118937D01*
X82937Y125937D02*
X89937Y118937D01*
X381437Y125937D02*
X388437Y118937D01*
Y88937D02*
Y118937D01*
X385437Y85937D02*
X388437Y88937D01*
X319937Y132937D02*
X324937D01*
X332437Y140437D01*
X380437Y93937D02*
X381437Y94937D01*
Y113937D01*
X371437D02*
Y134437D01*
X368937Y101437D02*
X375437D01*
X359937Y110437D02*
X368937Y101437D01*
X359437Y110437D02*
X359937D01*
X370437Y93937D02*
X378437Y85937D01*
X385437D01*
X381437Y125937D02*
Y134437D01*
X354780Y105780D02*
X359437Y110437D01*
X354780Y94937D02*
Y105780D01*
X335094Y94095D02*
Y94937D01*
X330437Y89437D02*
X335094Y94095D01*
X315937Y89437D02*
X330437D01*
X309937Y95437D02*
X315937Y89437D01*
X324937Y102937D02*
X332437Y110437D01*
X314937Y102937D02*
X324937D01*
X306437Y98937D02*
X309937Y95437D01*
X306437Y98937D02*
Y109937D01*
X309937Y113437D01*
Y132937D01*
X332437Y110437D02*
X345937Y123937D01*
Y130280D01*
X365437Y140437D02*
X371437Y134437D01*
X359437Y140437D02*
X365437D01*
X332437D02*
X359437D01*
X281937Y125937D02*
X288937Y118937D01*
Y88937D02*
Y118937D01*
X285937Y85937D02*
X288937Y88937D01*
X220437Y132937D02*
X225437D01*
X232937Y140437D01*
X280937Y93937D02*
X281937Y94937D01*
Y113937D01*
X271937D02*
Y134437D01*
X269437Y101437D02*
X275937D01*
X260437Y110437D02*
X269437Y101437D01*
X259937Y110437D02*
X260437D01*
X270937Y93937D02*
X278937Y85937D01*
X285937D01*
X281937Y125937D02*
Y134437D01*
X255279Y105780D02*
X259937Y110437D01*
X255279Y94937D02*
Y105780D01*
X235595Y94095D02*
Y94937D01*
X230937Y89437D02*
X235595Y94095D01*
X216437Y89437D02*
X230937D01*
X210437Y95437D02*
X216437Y89437D01*
X225437Y102937D02*
X232937Y110437D01*
X215437Y102937D02*
X225437D01*
X206937Y98937D02*
X210437Y95437D01*
X206937Y98937D02*
Y109937D01*
X210437Y113437D01*
Y132937D01*
X232937Y110437D02*
X246437Y123937D01*
Y130280D01*
X265937Y140437D02*
X271937Y134437D01*
X259937Y140437D02*
X265937D01*
X232937D02*
X259937D01*
X181937Y125937D02*
X188937Y118937D01*
Y88937D02*
Y118937D01*
X185937Y85937D02*
X188937Y88937D01*
X120437Y132937D02*
X125437D01*
X132937Y140437D01*
X180937Y93937D02*
X181937Y94937D01*
Y113937D01*
X171937D02*
Y134437D01*
X169437Y101437D02*
X175937D01*
X160437Y110437D02*
X169437Y101437D01*
X159937Y110437D02*
X160437D01*
X170937Y93937D02*
X178937Y85937D01*
X185937D01*
X181937Y125937D02*
Y134437D01*
X155280Y105780D02*
X159937Y110437D01*
X155280Y94937D02*
Y105780D01*
X135594Y94095D02*
Y94937D01*
X130937Y89437D02*
X135594Y94095D01*
X116437Y89437D02*
X130937D01*
X110437Y95437D02*
X116437Y89437D01*
X125437Y102937D02*
X132937Y110437D01*
X115437Y102937D02*
X125437D01*
X106937Y98937D02*
X110437Y95437D01*
X106937Y98937D02*
Y109937D01*
X110437Y113437D01*
Y132937D01*
X132937Y110437D02*
X146437Y123937D01*
Y130280D01*
X165937Y140437D02*
X171937Y134437D01*
X159937Y140437D02*
X165937D01*
X132937D02*
X159937D01*
X34437Y219937D02*
X61437D01*
X67437D01*
X73437Y213937D01*
X47937Y203437D02*
Y209780D01*
X34437Y189937D02*
X47937Y203437D01*
X11937Y192937D02*
Y212437D01*
X8437Y189437D02*
X11937Y192937D01*
X8437Y178437D02*
Y189437D01*
Y178437D02*
X11937Y174937D01*
X16937Y182437D02*
X26937D01*
X34437Y189937D01*
X11937Y174937D02*
X17937Y168937D01*
X32437D01*
X37095Y173594D01*
Y174437D01*
X56779Y174437D02*
Y185280D01*
X61437Y189937D01*
X83437Y205437D02*
Y213937D01*
X80437Y165437D02*
X87437D01*
X72437Y173437D02*
X80437Y165437D01*
X61437Y189937D02*
X61937D01*
X70937Y180937D01*
X77437D01*
X73437Y193437D02*
Y213937D01*
X83437Y174437D02*
Y193437D01*
X82437Y173437D02*
X83437Y174437D01*
X26937Y212437D02*
X34437Y219937D01*
X21937Y212437D02*
X26937D01*
X87437Y165437D02*
X90437Y168437D01*
Y198437D01*
X83437Y205437D02*
X90437Y198437D01*
X381937Y205437D02*
X388937Y198437D01*
Y168437D02*
Y198437D01*
X385937Y165437D02*
X388937Y168437D01*
X320437Y212437D02*
X325437D01*
X332937Y219937D01*
X380937Y173437D02*
X381937Y174437D01*
Y193437D01*
X371937D02*
Y213937D01*
X369437Y180937D02*
X375937D01*
X360437Y189937D02*
X369437Y180937D01*
X359937Y189937D02*
X360437D01*
X370937Y173437D02*
X378937Y165437D01*
X385937D01*
X381937Y205437D02*
Y213937D01*
X355279Y185280D02*
X359937Y189937D01*
X355279Y174437D02*
Y185280D01*
X335595Y173594D02*
Y174437D01*
X330937Y168937D02*
X335595Y173594D01*
X316437Y168937D02*
X330937D01*
X310437Y174937D02*
X316437Y168937D01*
X325437Y182437D02*
X332937Y189937D01*
X315437Y182437D02*
X325437D01*
X306937Y178437D02*
X310437Y174937D01*
X306937Y178437D02*
Y189437D01*
X310437Y192937D01*
Y212437D01*
X332937Y189937D02*
X346437Y203437D01*
Y209780D01*
X365937Y219937D02*
X371937Y213937D01*
X359937Y219937D02*
X365937D01*
X332937D02*
X359937D01*
X282437Y205437D02*
X289437Y198437D01*
Y168437D02*
Y198437D01*
X286437Y165437D02*
X289437Y168437D01*
X220937Y212437D02*
X225937D01*
X233437Y219937D01*
X281437Y173437D02*
X282437Y174437D01*
Y193437D01*
X272437D02*
Y213937D01*
X269937Y180937D02*
X276437D01*
X260937Y189937D02*
X269937Y180937D01*
X260437Y189937D02*
X260937D01*
X271437Y173437D02*
X279437Y165437D01*
X286437D01*
X282437Y205437D02*
Y213937D01*
X255780Y185280D02*
X260437Y189937D01*
X255780Y174437D02*
Y185280D01*
X236094Y173594D02*
Y174437D01*
X231437Y168937D02*
X236094Y173594D01*
X216937Y168937D02*
X231437D01*
X210937Y174937D02*
X216937Y168937D01*
X225937Y182437D02*
X233437Y189937D01*
X215937Y182437D02*
X225937D01*
X207437Y178437D02*
X210937Y174937D01*
X207437Y178437D02*
Y189437D01*
X210937Y192937D01*
Y212437D01*
X233437Y189937D02*
X246937Y203437D01*
Y209780D01*
X266437Y219937D02*
X272437Y213937D01*
X260437Y219937D02*
X266437D01*
X233437D02*
X260437D01*
X182437Y205437D02*
X189437Y198437D01*
Y168437D02*
Y198437D01*
X186437Y165437D02*
X189437Y168437D01*
X120937Y212437D02*
X125937D01*
X133437Y219937D01*
X181437Y173437D02*
X182437Y174437D01*
Y193437D01*
X172437D02*
Y213937D01*
X169937Y180937D02*
X176437D01*
X160937Y189937D02*
X169937Y180937D01*
X160437Y189937D02*
X160937D01*
X171437Y173437D02*
X179437Y165437D01*
X186437D01*
X182437Y205437D02*
Y213937D01*
X155780Y185280D02*
X160437Y189937D01*
X155780Y174437D02*
Y185280D01*
X136094Y173594D02*
Y174437D01*
X131437Y168937D02*
X136094Y173594D01*
X116937Y168937D02*
X131437D01*
X110937Y174937D02*
X116937Y168937D01*
X125937Y182437D02*
X133437Y189937D01*
X115937Y182437D02*
X125937D01*
X107437Y178437D02*
X110937Y174937D01*
X107437Y178437D02*
Y189437D01*
X110937Y192937D01*
Y212437D01*
X133437Y189937D02*
X146937Y203437D01*
Y209780D01*
X166437Y219937D02*
X172437Y213937D01*
X160437Y219937D02*
X166437D01*
X133437D02*
X160437D01*
X34437Y299437D02*
X61437D01*
X67437D01*
X73437Y293437D01*
X47937Y282937D02*
Y289280D01*
X34437Y269437D02*
X47937Y282937D01*
X11937Y272437D02*
Y291937D01*
X8437Y268937D02*
X11937Y272437D01*
X8437Y257937D02*
Y268937D01*
Y257937D02*
X11937Y254437D01*
X16937Y261937D02*
X26937D01*
X34437Y269437D01*
X11937Y254437D02*
X17937Y248437D01*
X32437D01*
X37095Y253095D01*
Y253937D01*
X56779Y253937D02*
Y264779D01*
X61437Y269437D01*
X83437Y284937D02*
Y293437D01*
X80437Y244937D02*
X87437D01*
X72437Y252937D02*
X80437Y244937D01*
X61437Y269437D02*
X61937D01*
X70937Y260437D01*
X77437D01*
X73437Y272937D02*
Y293437D01*
X83437Y253937D02*
Y272937D01*
X82437Y252937D02*
X83437Y253937D01*
X26937Y291937D02*
X34437Y299437D01*
X21937Y291937D02*
X26937D01*
X87437Y244937D02*
X90437Y247937D01*
Y277937D01*
X83437Y284937D02*
X90437Y277937D01*
X381937Y284937D02*
X388937Y277937D01*
Y247937D02*
Y277937D01*
X385937Y244937D02*
X388937Y247937D01*
X320437Y291937D02*
X325437D01*
X332937Y299437D01*
X380937Y252937D02*
X381937Y253937D01*
Y272937D01*
X371937D02*
Y293437D01*
X369437Y260437D02*
X375937D01*
X360437Y269437D02*
X369437Y260437D01*
X359937Y269437D02*
X360437D01*
X370937Y252937D02*
X378937Y244937D01*
X385937D01*
X381937Y284937D02*
Y293437D01*
X355279Y264779D02*
X359937Y269437D01*
X355279Y253937D02*
Y264779D01*
X335595Y253095D02*
Y253937D01*
X330937Y248437D02*
X335595Y253095D01*
X316437Y248437D02*
X330937D01*
X310437Y254437D02*
X316437Y248437D01*
X325437Y261937D02*
X332937Y269437D01*
X315437Y261937D02*
X325437D01*
X306937Y257937D02*
X310437Y254437D01*
X306937Y257937D02*
Y268937D01*
X310437Y272437D01*
Y291937D01*
X332937Y269437D02*
X346437Y282937D01*
Y289280D01*
X365937Y299437D02*
X371937Y293437D01*
X359937Y299437D02*
X365937D01*
X332937D02*
X359937D01*
X282437Y284937D02*
X289437Y277937D01*
Y247937D02*
Y277937D01*
X286437Y244937D02*
X289437Y247937D01*
X220937Y291937D02*
X225937D01*
X233437Y299437D01*
X281437Y252937D02*
X282437Y253937D01*
Y272937D01*
X272437D02*
Y293437D01*
X269937Y260437D02*
X276437D01*
X260937Y269437D02*
X269937Y260437D01*
X260437Y269437D02*
X260937D01*
X271437Y252937D02*
X279437Y244937D01*
X286437D01*
X282437Y284937D02*
Y293437D01*
X255780Y264779D02*
X260437Y269437D01*
X255780Y253937D02*
Y264779D01*
X236094Y253095D02*
Y253937D01*
X231437Y248437D02*
X236094Y253095D01*
X216937Y248437D02*
X231437D01*
X210937Y254437D02*
X216937Y248437D01*
X225937Y261937D02*
X233437Y269437D01*
X215937Y261937D02*
X225937D01*
X207437Y257937D02*
X210937Y254437D01*
X207437Y257937D02*
Y268937D01*
X210937Y272437D01*
Y291937D01*
X233437Y269437D02*
X246937Y282937D01*
Y289280D01*
X266437Y299437D02*
X272437Y293437D01*
X260437Y299437D02*
X266437D01*
X233437D02*
X260437D01*
X182437Y284937D02*
X189437Y277937D01*
Y247937D02*
Y277937D01*
X186437Y244937D02*
X189437Y247937D01*
X120937Y291937D02*
X125937D01*
X133437Y299437D01*
X181437Y252937D02*
X182437Y253937D01*
Y272937D01*
X172437D02*
Y293437D01*
X169937Y260437D02*
X176437D01*
X160937Y269437D02*
X169937Y260437D01*
X160437Y269437D02*
X160937D01*
X171437Y252937D02*
X179437Y244937D01*
X186437D01*
X182437Y284937D02*
Y293437D01*
X155780Y264779D02*
X160437Y269437D01*
X155780Y253937D02*
Y264779D01*
X136094Y253095D02*
Y253937D01*
X131437Y248437D02*
X136094Y253095D01*
X116937Y248437D02*
X131437D01*
X110937Y254437D02*
X116937Y248437D01*
X125937Y261937D02*
X133437Y269437D01*
X115937Y261937D02*
X125937D01*
X107437Y257937D02*
X110937Y254437D01*
X107437Y257937D02*
Y268937D01*
X110937Y272437D01*
Y291937D01*
X133437Y269437D02*
X146937Y282937D01*
Y289280D01*
X166437Y299437D02*
X172437Y293437D01*
X160437Y299437D02*
X166437D01*
X133437D02*
X160437D01*
X34437Y377937D02*
X61437D01*
X67437D01*
X73437Y371937D01*
X47937Y361437D02*
Y367779D01*
X34437Y347937D02*
X47937Y361437D01*
X11937Y350937D02*
Y370437D01*
X8437Y347437D02*
X11937Y350937D01*
X8437Y336437D02*
Y347437D01*
Y336437D02*
X11937Y332937D01*
X16937Y340437D02*
X26937D01*
X34437Y347937D01*
X11937Y332937D02*
X17937Y326937D01*
X32437D01*
X37095Y331594D01*
Y332437D01*
X56779Y332437D02*
Y343280D01*
X61437Y347937D01*
X83437Y363437D02*
Y371937D01*
X80437Y323437D02*
X87437D01*
X72437Y331437D02*
X80437Y323437D01*
X61437Y347937D02*
X61937D01*
X70937Y338937D01*
X77437D01*
X73437Y351437D02*
Y371937D01*
X83437Y332437D02*
Y351437D01*
X82437Y331437D02*
X83437Y332437D01*
X26937Y370437D02*
X34437Y377937D01*
X21937Y370437D02*
X26937D01*
X87437Y323437D02*
X90437Y326437D01*
Y356437D01*
X83437Y363437D02*
X90437Y356437D01*
X381937Y363437D02*
X388937Y356437D01*
Y326437D02*
Y356437D01*
X385937Y323437D02*
X388937Y326437D01*
X320437Y370437D02*
X325437D01*
X332937Y377937D01*
X380937Y331437D02*
X381937Y332437D01*
Y351437D01*
X371937D02*
Y371937D01*
X369437Y338937D02*
X375937D01*
X360437Y347937D02*
X369437Y338937D01*
X359937Y347937D02*
X360437D01*
X370937Y331437D02*
X378937Y323437D01*
X385937D01*
X381937Y363437D02*
Y371937D01*
X355279Y343280D02*
X359937Y347937D01*
X355279Y332437D02*
Y343280D01*
X335595Y331594D02*
Y332437D01*
X330937Y326937D02*
X335595Y331594D01*
X316437Y326937D02*
X330937D01*
X310437Y332937D02*
X316437Y326937D01*
X325437Y340437D02*
X332937Y347937D01*
X315437Y340437D02*
X325437D01*
X306937Y336437D02*
X310437Y332937D01*
X306937Y336437D02*
Y347437D01*
X310437Y350937D01*
Y370437D01*
X332937Y347937D02*
X346437Y361437D01*
Y367779D01*
X365937Y377937D02*
X371937Y371937D01*
X359937Y377937D02*
X365937D01*
X332937D02*
X359937D01*
X282437Y363437D02*
X289437Y356437D01*
Y326437D02*
Y356437D01*
X286437Y323437D02*
X289437Y326437D01*
X220937Y370437D02*
X225937D01*
X233437Y377937D01*
X281437Y331437D02*
X282437Y332437D01*
Y351437D01*
X272437D02*
Y371937D01*
X269937Y338937D02*
X276437D01*
X260937Y347937D02*
X269937Y338937D01*
X260437Y347937D02*
X260937D01*
X271437Y331437D02*
X279437Y323437D01*
X286437D01*
X282437Y363437D02*
Y371937D01*
X255780Y343280D02*
X260437Y347937D01*
X255780Y332437D02*
Y343280D01*
X236094Y331594D02*
Y332437D01*
X231437Y326937D02*
X236094Y331594D01*
X216937Y326937D02*
X231437D01*
X210937Y332937D02*
X216937Y326937D01*
X225937Y340437D02*
X233437Y347937D01*
X215937Y340437D02*
X225937D01*
X207437Y336437D02*
X210937Y332937D01*
X207437Y336437D02*
Y347437D01*
X210937Y350937D01*
Y370437D01*
X233437Y347937D02*
X246937Y361437D01*
Y367779D01*
X266437Y377937D02*
X272437Y371937D01*
X260437Y377937D02*
X266437D01*
X233437D02*
X260437D01*
X182437Y363437D02*
X189437Y356437D01*
Y326437D02*
Y356437D01*
X186437Y323437D02*
X189437Y326437D01*
X120937Y370437D02*
X125937D01*
X133437Y377937D01*
X181437Y331437D02*
X182437Y332437D01*
Y351437D01*
X172437D02*
Y371937D01*
X169937Y338937D02*
X176437D01*
X160937Y347937D02*
X169937Y338937D01*
X160437Y347937D02*
X160937D01*
X171437Y331437D02*
X179437Y323437D01*
X186437D01*
X182437Y363437D02*
Y371937D01*
X155780Y343280D02*
X160437Y347937D01*
X155780Y332437D02*
Y343280D01*
X136094Y331594D02*
Y332437D01*
X131437Y326937D02*
X136094Y331594D01*
X116937Y326937D02*
X131437D01*
X110937Y332937D02*
X116937Y326937D01*
X125937Y340437D02*
X133437Y347937D01*
X115937Y340437D02*
X125937D01*
X107437Y336437D02*
X110937Y332937D01*
X107437Y336437D02*
Y347437D01*
X110937Y350937D01*
Y370437D01*
X133437Y347937D02*
X146937Y361437D01*
Y367779D01*
X166437Y377937D02*
X172437Y371937D01*
X160437Y377937D02*
X166437D01*
X133437D02*
X160437D01*
X133437Y59937D02*
X160437D01*
X166437D01*
X172437Y53937D01*
X146937Y43437D02*
Y49779D01*
X133437Y29937D02*
X146937Y43437D01*
X110937Y32937D02*
Y52437D01*
X107437Y29437D02*
X110937Y32937D01*
X107437Y18437D02*
Y29437D01*
Y18437D02*
X110937Y14937D01*
X115937Y22437D02*
X125937D01*
X133437Y29937D01*
X110937Y14937D02*
X116937Y8937D01*
X131437D01*
X136094Y13595D01*
Y14437D01*
X155780Y14437D02*
Y25280D01*
X160437Y29937D01*
X182437Y45437D02*
Y53937D01*
X179437Y5437D02*
X186437D01*
X171437Y13437D02*
X179437Y5437D01*
X160437Y29937D02*
X160937D01*
X169937Y20937D01*
X176437D01*
X172437Y33437D02*
Y53937D01*
X182437Y14437D02*
Y33437D01*
X181437Y13437D02*
X182437Y14437D01*
X125937Y52437D02*
X133437Y59937D01*
X120937Y52437D02*
X125937D01*
X186437Y5437D02*
X189437Y8437D01*
Y38437D01*
X182437Y45437D02*
X189437Y38437D01*
X233437Y59937D02*
X260437D01*
X266437D01*
X272437Y53937D01*
X246937Y43437D02*
Y49779D01*
X233437Y29937D02*
X246937Y43437D01*
X210937Y32937D02*
Y52437D01*
X207437Y29437D02*
X210937Y32937D01*
X207437Y18437D02*
Y29437D01*
Y18437D02*
X210937Y14937D01*
X215937Y22437D02*
X225937D01*
X233437Y29937D01*
X210937Y14937D02*
X216937Y8937D01*
X231437D01*
X236094Y13595D01*
Y14437D01*
X255780Y14437D02*
Y25280D01*
X260437Y29937D01*
X282437Y45437D02*
Y53937D01*
X279437Y5437D02*
X286437D01*
X271437Y13437D02*
X279437Y5437D01*
X260437Y29937D02*
X260937D01*
X269937Y20937D01*
X276437D01*
X272437Y33437D02*
Y53937D01*
X282437Y14437D02*
Y33437D01*
X281437Y13437D02*
X282437Y14437D01*
X225937Y52437D02*
X233437Y59937D01*
X220937Y52437D02*
X225937D01*
X286437Y5437D02*
X289437Y8437D01*
Y38437D01*
X282437Y45437D02*
X289437Y38437D01*
X332937Y59937D02*
X359937D01*
X365937D01*
X371937Y53937D01*
X346437Y43437D02*
Y49779D01*
X332937Y29937D02*
X346437Y43437D01*
X310437Y32937D02*
Y52437D01*
X306937Y29437D02*
X310437Y32937D01*
X306937Y18437D02*
Y29437D01*
Y18437D02*
X310437Y14937D01*
X315437Y22437D02*
X325437D01*
X332937Y29937D01*
X310437Y14937D02*
X316437Y8937D01*
X330937D01*
X335595Y13595D01*
Y14437D01*
X355279Y14437D02*
Y25280D01*
X359937Y29937D01*
X381937Y45437D02*
Y53937D01*
X378937Y5437D02*
X385937D01*
X370937Y13437D02*
X378937Y5437D01*
X359937Y29937D02*
X360437D01*
X369437Y20937D01*
X375937D01*
X371937Y33437D02*
Y53937D01*
X381937Y14437D02*
Y33437D01*
X380937Y13437D02*
X381937Y14437D01*
X325437Y52437D02*
X332937Y59937D01*
X320437Y52437D02*
X325437D01*
X385937Y5437D02*
X388937Y8437D01*
Y38437D01*
X381937Y45437D02*
X388937Y38437D01*
X83437Y45437D02*
X90437Y38437D01*
Y8437D02*
Y38437D01*
X87437Y5437D02*
X90437Y8437D01*
X21937Y52437D02*
X26937D01*
X34437Y59937D01*
X82437Y13437D02*
X83437Y14437D01*
Y33437D01*
X73437D02*
Y53937D01*
X70937Y20937D02*
X77437D01*
X61937Y29937D02*
X70937Y20937D01*
X61437Y29937D02*
X61937D01*
X72437Y13437D02*
X80437Y5437D01*
X87437D01*
X83437Y45437D02*
Y53937D01*
X56779Y25280D02*
X61437Y29937D01*
X56779Y14437D02*
Y25280D01*
X37095Y13595D02*
Y14437D01*
X32437Y8937D02*
X37095Y13595D01*
X17937Y8937D02*
X32437D01*
X11937Y14937D02*
X17937Y8937D01*
X26937Y22437D02*
X34437Y29937D01*
X16937Y22437D02*
X26937D01*
X8437Y18437D02*
X11937Y14937D01*
X8437Y18437D02*
Y29437D01*
X11937Y32937D01*
Y52437D01*
X34437Y29937D02*
X47937Y43437D01*
Y49779D01*
X67437Y59937D02*
X73437Y53937D01*
X61437Y59937D02*
X67437D01*
X34437D02*
X61437D01*
D12*
X345500Y78000D02*
D03*
X346000Y158000D02*
D03*
Y237500D02*
D03*
X345500Y316500D02*
D03*
X246500Y78000D02*
D03*
Y158000D02*
D03*
Y237500D02*
D03*
Y316500D02*
D03*
X146500Y78000D02*
D03*
Y158000D02*
D03*
Y237500D02*
D03*
Y316500D02*
D03*
X47500Y78000D02*
D03*
Y158000D02*
D03*
X48000Y237500D02*
D03*
X47500Y316500D02*
D03*
D13*
X296500Y197000D02*
D03*
X196500D02*
D03*
X97000Y196500D02*
D03*
D14*
X56279Y94937D02*
D03*
X47437Y130280D02*
D03*
X11437Y132937D02*
D03*
X82937Y134437D02*
D03*
X21437Y95437D02*
D03*
X16437Y102937D02*
D03*
X11437Y95437D02*
D03*
X81937Y93937D02*
D03*
X76937Y101437D02*
D03*
X71937Y93937D02*
D03*
X33937Y140437D02*
D03*
Y110437D02*
D03*
X60937Y140437D02*
D03*
Y110437D02*
D03*
X359437Y140437D02*
D03*
Y110437D02*
D03*
X332437Y140437D02*
D03*
Y110437D02*
D03*
X380437Y93937D02*
D03*
X375437Y101437D02*
D03*
X370437Y93937D02*
D03*
X319937Y95437D02*
D03*
X314937Y102937D02*
D03*
X309937Y95437D02*
D03*
X381437Y134437D02*
D03*
X309937Y132937D02*
D03*
X345937Y130280D02*
D03*
X354780Y94937D02*
D03*
X259937Y140437D02*
D03*
Y110437D02*
D03*
X232937Y140437D02*
D03*
Y110437D02*
D03*
X280937Y93937D02*
D03*
X275937Y101437D02*
D03*
X270937Y93937D02*
D03*
X220437Y95437D02*
D03*
X215437Y102937D02*
D03*
X210437Y95437D02*
D03*
X281937Y134437D02*
D03*
X210437Y132937D02*
D03*
X246437Y130280D02*
D03*
X255279Y94937D02*
D03*
X159937Y140437D02*
D03*
Y110437D02*
D03*
X132937Y140437D02*
D03*
Y110437D02*
D03*
X180937Y93937D02*
D03*
X175937Y101437D02*
D03*
X170937Y93937D02*
D03*
X120437Y95437D02*
D03*
X115437Y102937D02*
D03*
X110437Y95437D02*
D03*
X181937Y134437D02*
D03*
X110437Y132937D02*
D03*
X146437Y130280D02*
D03*
X155280Y94937D02*
D03*
X56779Y174437D02*
D03*
X47937Y209780D02*
D03*
X11937Y212437D02*
D03*
X83437Y213937D02*
D03*
X21937Y174937D02*
D03*
X16937Y182437D02*
D03*
X11937Y174937D02*
D03*
X82437Y173437D02*
D03*
X77437Y180937D02*
D03*
X72437Y173437D02*
D03*
X34437Y219937D02*
D03*
Y189937D02*
D03*
X61437Y219937D02*
D03*
Y189937D02*
D03*
X359937Y219937D02*
D03*
Y189937D02*
D03*
X332937Y219937D02*
D03*
Y189937D02*
D03*
X380937Y173437D02*
D03*
X375937Y180937D02*
D03*
X370937Y173437D02*
D03*
X320437Y174937D02*
D03*
X315437Y182437D02*
D03*
X310437Y174937D02*
D03*
X381937Y213937D02*
D03*
X310437Y212437D02*
D03*
X346437Y209780D02*
D03*
X355279Y174437D02*
D03*
X260437Y219937D02*
D03*
Y189937D02*
D03*
X233437Y219937D02*
D03*
Y189937D02*
D03*
X281437Y173437D02*
D03*
X276437Y180937D02*
D03*
X271437Y173437D02*
D03*
X220937Y174937D02*
D03*
X215937Y182437D02*
D03*
X210937Y174937D02*
D03*
X282437Y213937D02*
D03*
X210937Y212437D02*
D03*
X246937Y209780D02*
D03*
X255780Y174437D02*
D03*
X160437Y219937D02*
D03*
Y189937D02*
D03*
X133437Y219937D02*
D03*
Y189937D02*
D03*
X181437Y173437D02*
D03*
X176437Y180937D02*
D03*
X171437Y173437D02*
D03*
X120937Y174937D02*
D03*
X115937Y182437D02*
D03*
X110937Y174937D02*
D03*
X182437Y213937D02*
D03*
X110937Y212437D02*
D03*
X146937Y209780D02*
D03*
X155780Y174437D02*
D03*
X56779Y253937D02*
D03*
X47937Y289280D02*
D03*
X11937Y291937D02*
D03*
X83437Y293437D02*
D03*
X21937Y254437D02*
D03*
X16937Y261937D02*
D03*
X11937Y254437D02*
D03*
X82437Y252937D02*
D03*
X77437Y260437D02*
D03*
X72437Y252937D02*
D03*
X34437Y299437D02*
D03*
Y269437D02*
D03*
X61437Y299437D02*
D03*
Y269437D02*
D03*
X359937Y299437D02*
D03*
Y269437D02*
D03*
X332937Y299437D02*
D03*
Y269437D02*
D03*
X380937Y252937D02*
D03*
X375937Y260437D02*
D03*
X370937Y252937D02*
D03*
X320437Y254437D02*
D03*
X315437Y261937D02*
D03*
X310437Y254437D02*
D03*
X381937Y293437D02*
D03*
X310437Y291937D02*
D03*
X346437Y289280D02*
D03*
X355279Y253937D02*
D03*
X260437Y299437D02*
D03*
Y269437D02*
D03*
X233437Y299437D02*
D03*
Y269437D02*
D03*
X281437Y252937D02*
D03*
X276437Y260437D02*
D03*
X271437Y252937D02*
D03*
X220937Y254437D02*
D03*
X215937Y261937D02*
D03*
X210937Y254437D02*
D03*
X282437Y293437D02*
D03*
X210937Y291937D02*
D03*
X246937Y289280D02*
D03*
X255780Y253937D02*
D03*
X160437Y299437D02*
D03*
Y269437D02*
D03*
X133437Y299437D02*
D03*
Y269437D02*
D03*
X181437Y252937D02*
D03*
X176437Y260437D02*
D03*
X171437Y252937D02*
D03*
X120937Y254437D02*
D03*
X115937Y261937D02*
D03*
X110937Y254437D02*
D03*
X182437Y293437D02*
D03*
X110937Y291937D02*
D03*
X146937Y289280D02*
D03*
X155780Y253937D02*
D03*
X56779Y332437D02*
D03*
X47937Y367779D02*
D03*
X11937Y370437D02*
D03*
X83437Y371937D02*
D03*
X21937Y332937D02*
D03*
X16937Y340437D02*
D03*
X11937Y332937D02*
D03*
X82437Y331437D02*
D03*
X77437Y338937D02*
D03*
X72437Y331437D02*
D03*
X34437Y377937D02*
D03*
Y347937D02*
D03*
X61437Y377937D02*
D03*
Y347937D02*
D03*
X359937Y377937D02*
D03*
Y347937D02*
D03*
X332937Y377937D02*
D03*
Y347937D02*
D03*
X380937Y331437D02*
D03*
X375937Y338937D02*
D03*
X370937Y331437D02*
D03*
X320437Y332937D02*
D03*
X315437Y340437D02*
D03*
X310437Y332937D02*
D03*
X381937Y371937D02*
D03*
X310437Y370437D02*
D03*
X346437Y367779D02*
D03*
X355279Y332437D02*
D03*
X260437Y377937D02*
D03*
Y347937D02*
D03*
X233437Y377937D02*
D03*
Y347937D02*
D03*
X281437Y331437D02*
D03*
X276437Y338937D02*
D03*
X271437Y331437D02*
D03*
X220937Y332937D02*
D03*
X215937Y340437D02*
D03*
X210937Y332937D02*
D03*
X282437Y371937D02*
D03*
X210937Y370437D02*
D03*
X246937Y367779D02*
D03*
X255780Y332437D02*
D03*
X160437Y377937D02*
D03*
Y347937D02*
D03*
X133437Y377937D02*
D03*
Y347937D02*
D03*
X181437Y331437D02*
D03*
X176437Y338937D02*
D03*
X171437Y331437D02*
D03*
X120937Y332937D02*
D03*
X115937Y340437D02*
D03*
X110937Y332937D02*
D03*
X182437Y371937D02*
D03*
X110937Y370437D02*
D03*
X146937Y367779D02*
D03*
X155780Y332437D02*
D03*
Y14437D02*
D03*
X146937Y49779D02*
D03*
X110937Y52437D02*
D03*
X182437Y53937D02*
D03*
X120937Y14937D02*
D03*
X115937Y22437D02*
D03*
X110937Y14937D02*
D03*
X181437Y13437D02*
D03*
X176437Y20937D02*
D03*
X171437Y13437D02*
D03*
X133437Y59937D02*
D03*
Y29937D02*
D03*
X160437Y59937D02*
D03*
Y29937D02*
D03*
X255780Y14437D02*
D03*
X246937Y49779D02*
D03*
X210937Y52437D02*
D03*
X282437Y53937D02*
D03*
X220937Y14937D02*
D03*
X215937Y22437D02*
D03*
X210937Y14937D02*
D03*
X281437Y13437D02*
D03*
X276437Y20937D02*
D03*
X271437Y13437D02*
D03*
X233437Y59937D02*
D03*
Y29937D02*
D03*
X260437Y59937D02*
D03*
Y29937D02*
D03*
X355279Y14437D02*
D03*
X346437Y49779D02*
D03*
X310437Y52437D02*
D03*
X381937Y53937D02*
D03*
X320437Y14937D02*
D03*
X315437Y22437D02*
D03*
X310437Y14937D02*
D03*
X380937Y13437D02*
D03*
X375937Y20937D02*
D03*
X370937Y13437D02*
D03*
X332937Y59937D02*
D03*
Y29937D02*
D03*
X359937Y59937D02*
D03*
Y29937D02*
D03*
X61437Y59937D02*
D03*
Y29937D02*
D03*
X11937Y52437D02*
D03*
X83437Y53937D02*
D03*
X34437Y59937D02*
D03*
Y29937D02*
D03*
X56779Y14437D02*
D03*
X21937Y14937D02*
D03*
X16937Y22437D02*
D03*
X11937Y14937D02*
D03*
X47937Y49779D02*
D03*
X82437Y13437D02*
D03*
X77437Y20937D02*
D03*
X72437Y13437D02*
D03*
D15*
X36595Y94937D02*
D03*
X21437Y132937D02*
D03*
X72937Y134437D02*
D03*
X371437D02*
D03*
X319937Y132937D02*
D03*
X335094Y94937D02*
D03*
X271937Y134437D02*
D03*
X220437Y132937D02*
D03*
X235595Y94937D02*
D03*
X171937Y134437D02*
D03*
X120437Y132937D02*
D03*
X135594Y94937D02*
D03*
X37095Y174437D02*
D03*
X21937Y212437D02*
D03*
X73437Y213937D02*
D03*
X371937D02*
D03*
X320437Y212437D02*
D03*
X335595Y174437D02*
D03*
X272437Y213937D02*
D03*
X220937Y212437D02*
D03*
X236094Y174437D02*
D03*
X172437Y213937D02*
D03*
X120937Y212437D02*
D03*
X136094Y174437D02*
D03*
X37095Y253937D02*
D03*
X21937Y291937D02*
D03*
X73437Y293437D02*
D03*
X371937D02*
D03*
X320437Y291937D02*
D03*
X335595Y253937D02*
D03*
X272437Y293437D02*
D03*
X220937Y291937D02*
D03*
X236094Y253937D02*
D03*
X172437Y293437D02*
D03*
X120937Y291937D02*
D03*
X136094Y253937D02*
D03*
X37095Y332437D02*
D03*
X21937Y370437D02*
D03*
X73437Y371937D02*
D03*
X371937D02*
D03*
X320437Y370437D02*
D03*
X335595Y332437D02*
D03*
X272437Y371937D02*
D03*
X220937Y370437D02*
D03*
X236094Y332437D02*
D03*
X172437Y371937D02*
D03*
X120937Y370437D02*
D03*
X136094Y332437D02*
D03*
Y14437D02*
D03*
X120937Y52437D02*
D03*
X172437Y53937D02*
D03*
X236094Y14437D02*
D03*
X220937Y52437D02*
D03*
X272437Y53937D02*
D03*
X335595Y14437D02*
D03*
X320437Y52437D02*
D03*
X371937Y53937D02*
D03*
X21937Y52437D02*
D03*
X73437Y53937D02*
D03*
X37095Y14437D02*
D03*
D16*
X47437Y110594D02*
D03*
X345937D02*
D03*
X246437D02*
D03*
X146437D02*
D03*
X47937Y190094D02*
D03*
X346437D02*
D03*
X246937D02*
D03*
X146937D02*
D03*
X47937Y269595D02*
D03*
X346437D02*
D03*
X246937D02*
D03*
X146937D02*
D03*
X47937Y348095D02*
D03*
X346437D02*
D03*
X246937D02*
D03*
X146937D02*
D03*
Y30095D02*
D03*
X246937D02*
D03*
X346437D02*
D03*
X47937D02*
D03*
D17*
X72937Y113937D02*
D03*
X371437D02*
D03*
X271937D02*
D03*
X171937D02*
D03*
X73437Y193437D02*
D03*
X371937D02*
D03*
X272437D02*
D03*
X172437D02*
D03*
X73437Y272937D02*
D03*
X371937D02*
D03*
X272437D02*
D03*
X172437D02*
D03*
X73437Y351437D02*
D03*
X371937D02*
D03*
X272437D02*
D03*
X172437D02*
D03*
Y33437D02*
D03*
X272437D02*
D03*
X371937D02*
D03*
X73437D02*
D03*
D18*
X82937Y113937D02*
D03*
X381437D02*
D03*
X281937D02*
D03*
X181937D02*
D03*
X83437Y193437D02*
D03*
X381937D02*
D03*
X282437D02*
D03*
X182437D02*
D03*
X83437Y272937D02*
D03*
X381937D02*
D03*
X282437D02*
D03*
X182437D02*
D03*
X83437Y351437D02*
D03*
X381937D02*
D03*
X282437D02*
D03*
X182437D02*
D03*
Y33437D02*
D03*
X282437D02*
D03*
X381937D02*
D03*
X83437D02*
D03*
M02*
