M48
;Layer_Color=9474304
;FILE_FORMAT=2:5
INCH,LZ
;TYPE=PLATED
T1F00S00C0.02756
T3F00S00C0.03543
%
T01
X0011937Y0014937
X0021937
X0016937Y0022437
X0034437Y0029937
X0047937Y0030095
X0047937Y0049779
X0034437Y0059937
X0021937Y0052437
X0011937
X0037095Y0014437
X0056779Y0014437
X0072437Y0013437
X0082437
X0077437Y0020937
X0061437Y0029937
Y0059937
X0073437Y0053937
X0083437
X0110937Y0052437
X0120937
X0133437Y0059937
X0146937Y0049779
X0146937Y0030095
X0133437Y0029937
X0136094Y0014437
X0120937Y0014937
X0110937
X0115937Y0022437
X015578Y0014437
X0171437Y0013437
X0181437
X0176437Y0020937
X0160437Y0029937
Y0059937
X0172437Y0053937
X0182437
X0210937Y0052437
X0215937Y0022437
X0210937Y0014937
X0220937
X0236094Y0014437
X0233437Y0029937
X0246937Y0030095
X0260437Y0029937
X025578Y0014437
X0271437Y0013437
X0281437
X0276437Y0020937
X0272437Y0053937
X0282437
X0260437Y0059937
X0246937Y0049779
X0233437Y0059937
X0220937Y0052437
X0310437
X0320437
X0332937Y0059937
X0346437Y0049779
X0346437Y0030095
X0332937Y0029937
X0335595Y0014437
X0320437Y0014937
X0310437
X0315437Y0022437
X0355279Y0014437
X0370937Y0013437
X0359937Y0029937
Y0059937
X0371937Y0053937
X0381937
X0375937Y0020937
X0380937Y0013437
X0380437Y0093937
X0375437Y0101437
X0381437Y0134437
X0380937Y0173437
X0375937Y0180937
X0381937Y0213937
X0371937
X0346437Y020978
X0346437Y0190094
X0332937Y0189937
X0335595Y0174437
X0320437Y0174937
X0310437
X0315437Y0182437
X0320437Y0212437
X0310437
X0282437Y0213937
X0272437
X0246937Y020978
X0246937Y0190094
X0233437Y0189937
X0236094Y0174437
X0220937Y0174937
X025578Y0174437
X0271437Y0173437
X0281437
X0276437Y0180937
X0260437Y0189937
X0259937Y0140437
X0271937Y0134437
X0281937
X0309937Y0132937
X0319937
X0332437Y0140437
X0345937Y013028
X0345937Y0110594
X0332437Y0110437
X0335094Y0094937
X0319937Y0095437
X0309937
X0314937Y0102937
X0275937Y0101437
X0280937Y0093937
X0270937
X0255279Y0094937
X0235595Y0094937
X0220437Y0095437
X0232937Y0110437
X0246437Y0110594
X0259937Y0110437
X0246437Y013028
X0232937Y0140437
X0220437Y0132937
X0220937Y0212437
X0359937Y0189937
X0355279Y0174437
X0370937Y0173437
X0371437Y0134437
X0359437Y0140437
Y0110437
X035478Y0094937
X0370437Y0093937
X0210437Y0095437
X0215437Y0102937
X0210437Y0132937
X0181937Y0134437
X0171937
X0159937Y0140437
X0146437Y013028
X0146437Y0110594
X0132937Y0110437
X0135594Y0094937
X0120437Y0095437
X0110437
X0115437Y0102937
X0120437Y0132937
X0110437
X0082937Y0134437
X0072937
X0060937Y0140437
Y0110437
X0076937Y0101437
X0081937Y0093937
X0071937
X0072437Y0173437
X0082437
X0077437Y0180937
X0061437Y0189937
X0073437Y0213937
X0083437
X0110937Y0212437
X0120937
X0146937Y020978
X0146937Y0190094
X0133437Y0189937
X0136094Y0174437
X0120937Y0174937
X0110937
X0115937Y0182437
X015578Y0174437
X0171437Y0173437
X0181437
X0176437Y0180937
X0160437Y0189937
X0172437Y0213937
X0182437
X0210937Y0212437
X0215937Y0182437
X0210937Y0174937
X0175937Y0101437
X0180937Y0093937
X0170937
X015528Y0094937
X0159937Y0110437
X0132937Y0140437
X0047437Y013028
X0047437Y0110594
X0033937Y0110437
X0036595Y0094937
X0021437Y0095437
X0011437
X0016437Y0102937
X0021437Y0132937
X0011437
X0033937Y0140437
X0037095Y0174437
X0021937Y0174937
X0011937
X0016937Y0182437
X0034437Y0189937
X0047937Y0190094
X0047937Y020978
X0021937Y0212437
X0011937
X0056779Y0174437
X0056279Y0094937
X0034437Y0219937
X0037095Y0253937
X0021937Y0254437
X0011937
X0016937Y0261937
X0034437Y0269437
X0047937Y0269595
X0047937Y028928
X0034437Y0299437
X0021937Y0291937
X0011937
Y0332937
X0021937
X0016937Y0340437
X0034437Y0347937
X0047937Y0348095
X0047937Y0367779
X0021937Y0370437
X0011937
X0037095Y0332437
X0056779Y0332437
Y0253937
X0072437Y0252937
X0082437
X0077437Y0260437
X0061437Y0269437
Y0299437
X0073437Y0293437
X0083437
X0110937Y0291937
X0120937
X0133437Y0299437
X0146937Y028928
X0146937Y0269595
X0133437Y0269437
X0136094Y0253937
X0120937Y0254437
X0110937
X0115937Y0261937
X015578Y0253937
X0171437Y0252937
X0181437
X0176437Y0260437
X0160437Y0269437
Y0299437
X0172437Y0293437
X0182437
X0210937Y0291937
X0215937Y0261937
X0210937Y0254437
Y0332937
X0215937Y0340437
X0210937Y0370437
X0182437Y0371937
X0172437
X0146937Y0367779
X0146937Y0348095
X0133437Y0347937
X0136094Y0332437
X0120937Y0332937
X0110937
X0115937Y0340437
X0120937Y0370437
X0110937
X0083437Y0371937
X0073437
X0061437Y0347937
X0077437Y0338937
X0082437Y0331437
X0072437
X015578Y0332437
X0171437Y0331437
X0181437
X0176437Y0338937
X0160437Y0347937
Y0219937
X0133437
X0061437
X0233437
X0260437
X025578Y0253937
X0271437Y0252937
X0281437
X0276437Y0260437
X0260437Y0269437
X0246937Y0269595
X0233437Y0269437
X0236094Y0253937
X0220937Y0254437
Y0291937
X0233437Y0299437
X0246937Y028928
X0260437Y0299437
X0272437Y0293437
X0282437
X0310437Y0291937
X0320437
X0332937Y0299437
X0346437Y028928
X0346437Y0269595
X0332937Y0269437
X0335595Y0253937
X0320437Y0254437
X0310437
X0315437Y0261937
X0355279Y0253937
X0370937Y0252937
X0359937Y0269437
Y0299437
X0371937Y0293437
X0370937Y0331437
X0355279Y0332437
X0335595Y0332437
X0320437Y0332937
X0310437
X0315437Y0340437
X0332937Y0347937
X0346437Y0348095
X0359937Y0347937
X0346437Y0367779
X0320437Y0370437
X0310437
X0282437Y0371937
X0272437
X0246937Y0367779
X0246937Y0348095
X0233437Y0347937
X0236094Y0332437
X0220937Y0332937
X025578Y0332437
X0271437Y0331437
X0281437
X0276437Y0338937
X0260437Y0347937
X0220937Y0370437
X0371937Y0371937
X0359937Y0219937
X0332937
X0380937Y0252937
X0375937Y0260437
X0381937Y0293437
X0380937Y0331437
X0375937Y0338937
X0381937Y0371937
X0359937Y0377937
X0332937
X0260437
X0233437
X0160437
X0133437
X0061437
X0034437
T03
X0073437Y0033437
X0083437
X0172437
X0182437
X0272437
X0282437
X0371937
X0381937
X0381437Y0113937
X0381937Y0193437
X0371937
X0371437Y0113937
X0281937
X0271937
X0272437Y0193437
X0282437
X0182437
X0172437
X0171937Y0113937
X0181937
X0082937
X0072937
X0073437Y0193437
X0083437
Y0272937
X0073437
Y0351437
X0083437
X0172437
X0182437
Y0272937
X0172437
X0272437
X0282437
Y0351437
X0272437
X0371937
Y0272937
X0381937
Y0351437
M30
