G04 Layer_Color=32896*
%FSLAX25Y25*%
%MOIN*%
G70*
G01*
G75*
%ADD19C,0.00787*%
D19*
X62937Y146937D02*
Y149561D01*
X61625Y150873D01*
X60313Y149561D01*
Y146937D01*
Y148905D01*
X62937D01*
X59001Y146937D02*
Y147593D01*
X58345D01*
Y146937D01*
X59001D01*
X55721Y150873D02*
X54410D01*
X55066D01*
Y146937D01*
X55721D01*
X54410D01*
X52442D02*
Y147593D01*
X51786D01*
Y146937D01*
X52442D01*
X45226D02*
Y150873D01*
X43258D01*
X42602Y150217D01*
Y148905D01*
X43258Y148249D01*
X45226D01*
X38667Y150217D02*
X39323Y150873D01*
X40635D01*
X41290Y150217D01*
Y147593D01*
X40635Y146937D01*
X39323D01*
X38667Y147593D01*
X37355Y150873D02*
Y146937D01*
X35387D01*
X34731Y147593D01*
Y148249D01*
X35387Y148905D01*
X37355D01*
X35387D01*
X34731Y149561D01*
Y150217D01*
X35387Y150873D01*
X37355D01*
X361437Y146937D02*
Y149561D01*
X360125Y150873D01*
X358813Y149561D01*
Y146937D01*
Y148905D01*
X361437D01*
X357501Y146937D02*
Y147593D01*
X356845D01*
Y146937D01*
X357501D01*
X354222Y150873D02*
X352910D01*
X353566D01*
Y146937D01*
X354222D01*
X352910D01*
X350942D02*
Y147593D01*
X350286D01*
Y146937D01*
X350942D01*
X343726D02*
Y150873D01*
X341758D01*
X341102Y150217D01*
Y148905D01*
X341758Y148249D01*
X343726D01*
X337167Y150217D02*
X337823Y150873D01*
X339135D01*
X339791Y150217D01*
Y147593D01*
X339135Y146937D01*
X337823D01*
X337167Y147593D01*
X335855Y150873D02*
Y146937D01*
X333887D01*
X333231Y147593D01*
Y148249D01*
X333887Y148905D01*
X335855D01*
X333887D01*
X333231Y149561D01*
Y150217D01*
X333887Y150873D01*
X335855D01*
X261937Y146937D02*
Y149561D01*
X260625Y150873D01*
X259313Y149561D01*
Y146937D01*
Y148905D01*
X261937D01*
X258001Y146937D02*
Y147593D01*
X257345D01*
Y146937D01*
X258001D01*
X254721Y150873D02*
X253410D01*
X254065D01*
Y146937D01*
X254721D01*
X253410D01*
X251442D02*
Y147593D01*
X250786D01*
Y146937D01*
X251442D01*
X244226D02*
Y150873D01*
X242258D01*
X241602Y150217D01*
Y148905D01*
X242258Y148249D01*
X244226D01*
X237667Y150217D02*
X238323Y150873D01*
X239634D01*
X240290Y150217D01*
Y147593D01*
X239634Y146937D01*
X238323D01*
X237667Y147593D01*
X236355Y150873D02*
Y146937D01*
X234387D01*
X233731Y147593D01*
Y148249D01*
X234387Y148905D01*
X236355D01*
X234387D01*
X233731Y149561D01*
Y150217D01*
X234387Y150873D01*
X236355D01*
X161937Y146937D02*
Y149561D01*
X160625Y150873D01*
X159313Y149561D01*
Y146937D01*
Y148905D01*
X161937D01*
X158001Y146937D02*
Y147593D01*
X157345D01*
Y146937D01*
X158001D01*
X154721Y150873D02*
X153410D01*
X154066D01*
Y146937D01*
X154721D01*
X153410D01*
X151442D02*
Y147593D01*
X150786D01*
Y146937D01*
X151442D01*
X144226D02*
Y150873D01*
X142258D01*
X141602Y150217D01*
Y148905D01*
X142258Y148249D01*
X144226D01*
X137667Y150217D02*
X138323Y150873D01*
X139635D01*
X140290Y150217D01*
Y147593D01*
X139635Y146937D01*
X138323D01*
X137667Y147593D01*
X136355Y150873D02*
Y146937D01*
X134387D01*
X133731Y147593D01*
Y148249D01*
X134387Y148905D01*
X136355D01*
X134387D01*
X133731Y149561D01*
Y150217D01*
X134387Y150873D01*
X136355D01*
X63437Y226437D02*
Y229061D01*
X62125Y230373D01*
X60813Y229061D01*
Y226437D01*
Y228405D01*
X63437D01*
X59501Y226437D02*
Y227093D01*
X58845D01*
Y226437D01*
X59501D01*
X56221Y230373D02*
X54910D01*
X55566D01*
Y226437D01*
X56221D01*
X54910D01*
X52942D02*
Y227093D01*
X52286D01*
Y226437D01*
X52942D01*
X45726D02*
Y230373D01*
X43758D01*
X43102Y229717D01*
Y228405D01*
X43758Y227749D01*
X45726D01*
X39167Y229717D02*
X39823Y230373D01*
X41135D01*
X41790Y229717D01*
Y227093D01*
X41135Y226437D01*
X39823D01*
X39167Y227093D01*
X37855Y230373D02*
Y226437D01*
X35887D01*
X35231Y227093D01*
Y227749D01*
X35887Y228405D01*
X37855D01*
X35887D01*
X35231Y229061D01*
Y229717D01*
X35887Y230373D01*
X37855D01*
X361937Y226437D02*
Y229061D01*
X360625Y230373D01*
X359313Y229061D01*
Y226437D01*
Y228405D01*
X361937D01*
X358001Y226437D02*
Y227093D01*
X357345D01*
Y226437D01*
X358001D01*
X354721Y230373D02*
X353410D01*
X354065D01*
Y226437D01*
X354721D01*
X353410D01*
X351442D02*
Y227093D01*
X350786D01*
Y226437D01*
X351442D01*
X344226D02*
Y230373D01*
X342258D01*
X341602Y229717D01*
Y228405D01*
X342258Y227749D01*
X344226D01*
X337667Y229717D02*
X338323Y230373D01*
X339634D01*
X340290Y229717D01*
Y227093D01*
X339634Y226437D01*
X338323D01*
X337667Y227093D01*
X336355Y230373D02*
Y226437D01*
X334387D01*
X333731Y227093D01*
Y227749D01*
X334387Y228405D01*
X336355D01*
X334387D01*
X333731Y229061D01*
Y229717D01*
X334387Y230373D01*
X336355D01*
X262437Y226437D02*
Y229061D01*
X261125Y230373D01*
X259813Y229061D01*
Y226437D01*
Y228405D01*
X262437D01*
X258501Y226437D02*
Y227093D01*
X257845D01*
Y226437D01*
X258501D01*
X255222Y230373D02*
X253910D01*
X254566D01*
Y226437D01*
X255222D01*
X253910D01*
X251942D02*
Y227093D01*
X251286D01*
Y226437D01*
X251942D01*
X244726D02*
Y230373D01*
X242758D01*
X242102Y229717D01*
Y228405D01*
X242758Y227749D01*
X244726D01*
X238167Y229717D02*
X238823Y230373D01*
X240135D01*
X240791Y229717D01*
Y227093D01*
X240135Y226437D01*
X238823D01*
X238167Y227093D01*
X236855Y230373D02*
Y226437D01*
X234887D01*
X234231Y227093D01*
Y227749D01*
X234887Y228405D01*
X236855D01*
X234887D01*
X234231Y229061D01*
Y229717D01*
X234887Y230373D01*
X236855D01*
X162437Y226437D02*
Y229061D01*
X161125Y230373D01*
X159813Y229061D01*
Y226437D01*
Y228405D01*
X162437D01*
X158501Y226437D02*
Y227093D01*
X157845D01*
Y226437D01*
X158501D01*
X155221Y230373D02*
X153910D01*
X154566D01*
Y226437D01*
X155221D01*
X153910D01*
X151942D02*
Y227093D01*
X151286D01*
Y226437D01*
X151942D01*
X144726D02*
Y230373D01*
X142758D01*
X142102Y229717D01*
Y228405D01*
X142758Y227749D01*
X144726D01*
X138167Y229717D02*
X138823Y230373D01*
X140135D01*
X140790Y229717D01*
Y227093D01*
X140135Y226437D01*
X138823D01*
X138167Y227093D01*
X136855Y230373D02*
Y226437D01*
X134887D01*
X134231Y227093D01*
Y227749D01*
X134887Y228405D01*
X136855D01*
X134887D01*
X134231Y229061D01*
Y229717D01*
X134887Y230373D01*
X136855D01*
X63437Y305937D02*
Y308561D01*
X62125Y309873D01*
X60813Y308561D01*
Y305937D01*
Y307905D01*
X63437D01*
X59501Y305937D02*
Y306593D01*
X58845D01*
Y305937D01*
X59501D01*
X56221Y309873D02*
X54910D01*
X55566D01*
Y305937D01*
X56221D01*
X54910D01*
X52942D02*
Y306593D01*
X52286D01*
Y305937D01*
X52942D01*
X45726D02*
Y309873D01*
X43758D01*
X43102Y309217D01*
Y307905D01*
X43758Y307249D01*
X45726D01*
X39167Y309217D02*
X39823Y309873D01*
X41135D01*
X41790Y309217D01*
Y306593D01*
X41135Y305937D01*
X39823D01*
X39167Y306593D01*
X37855Y309873D02*
Y305937D01*
X35887D01*
X35231Y306593D01*
Y307249D01*
X35887Y307905D01*
X37855D01*
X35887D01*
X35231Y308561D01*
Y309217D01*
X35887Y309873D01*
X37855D01*
X361937Y305937D02*
Y308561D01*
X360625Y309873D01*
X359313Y308561D01*
Y305937D01*
Y307905D01*
X361937D01*
X358001Y305937D02*
Y306593D01*
X357345D01*
Y305937D01*
X358001D01*
X354721Y309873D02*
X353410D01*
X354065D01*
Y305937D01*
X354721D01*
X353410D01*
X351442D02*
Y306593D01*
X350786D01*
Y305937D01*
X351442D01*
X344226D02*
Y309873D01*
X342258D01*
X341602Y309217D01*
Y307905D01*
X342258Y307249D01*
X344226D01*
X337667Y309217D02*
X338323Y309873D01*
X339634D01*
X340290Y309217D01*
Y306593D01*
X339634Y305937D01*
X338323D01*
X337667Y306593D01*
X336355Y309873D02*
Y305937D01*
X334387D01*
X333731Y306593D01*
Y307249D01*
X334387Y307905D01*
X336355D01*
X334387D01*
X333731Y308561D01*
Y309217D01*
X334387Y309873D01*
X336355D01*
X262437Y305937D02*
Y308561D01*
X261125Y309873D01*
X259813Y308561D01*
Y305937D01*
Y307905D01*
X262437D01*
X258501Y305937D02*
Y306593D01*
X257845D01*
Y305937D01*
X258501D01*
X255222Y309873D02*
X253910D01*
X254566D01*
Y305937D01*
X255222D01*
X253910D01*
X251942D02*
Y306593D01*
X251286D01*
Y305937D01*
X251942D01*
X244726D02*
Y309873D01*
X242758D01*
X242102Y309217D01*
Y307905D01*
X242758Y307249D01*
X244726D01*
X238167Y309217D02*
X238823Y309873D01*
X240135D01*
X240791Y309217D01*
Y306593D01*
X240135Y305937D01*
X238823D01*
X238167Y306593D01*
X236855Y309873D02*
Y305937D01*
X234887D01*
X234231Y306593D01*
Y307249D01*
X234887Y307905D01*
X236855D01*
X234887D01*
X234231Y308561D01*
Y309217D01*
X234887Y309873D01*
X236855D01*
X162437Y305937D02*
Y308561D01*
X161125Y309873D01*
X159813Y308561D01*
Y305937D01*
Y307905D01*
X162437D01*
X158501Y305937D02*
Y306593D01*
X157845D01*
Y305937D01*
X158501D01*
X155221Y309873D02*
X153910D01*
X154566D01*
Y305937D01*
X155221D01*
X153910D01*
X151942D02*
Y306593D01*
X151286D01*
Y305937D01*
X151942D01*
X144726D02*
Y309873D01*
X142758D01*
X142102Y309217D01*
Y307905D01*
X142758Y307249D01*
X144726D01*
X138167Y309217D02*
X138823Y309873D01*
X140135D01*
X140790Y309217D01*
Y306593D01*
X140135Y305937D01*
X138823D01*
X138167Y306593D01*
X136855Y309873D02*
Y305937D01*
X134887D01*
X134231Y306593D01*
Y307249D01*
X134887Y307905D01*
X136855D01*
X134887D01*
X134231Y308561D01*
Y309217D01*
X134887Y309873D01*
X136855D01*
X63437Y384437D02*
Y387061D01*
X62125Y388373D01*
X60813Y387061D01*
Y384437D01*
Y386405D01*
X63437D01*
X59501Y384437D02*
Y385093D01*
X58845D01*
Y384437D01*
X59501D01*
X56221Y388373D02*
X54910D01*
X55566D01*
Y384437D01*
X56221D01*
X54910D01*
X52942D02*
Y385093D01*
X52286D01*
Y384437D01*
X52942D01*
X45726D02*
Y388373D01*
X43758D01*
X43102Y387717D01*
Y386405D01*
X43758Y385749D01*
X45726D01*
X39167Y387717D02*
X39823Y388373D01*
X41135D01*
X41790Y387717D01*
Y385093D01*
X41135Y384437D01*
X39823D01*
X39167Y385093D01*
X37855Y388373D02*
Y384437D01*
X35887D01*
X35231Y385093D01*
Y385749D01*
X35887Y386405D01*
X37855D01*
X35887D01*
X35231Y387061D01*
Y387717D01*
X35887Y388373D01*
X37855D01*
X361937Y384437D02*
Y387061D01*
X360625Y388373D01*
X359313Y387061D01*
Y384437D01*
Y386405D01*
X361937D01*
X358001Y384437D02*
Y385093D01*
X357345D01*
Y384437D01*
X358001D01*
X354721Y388373D02*
X353410D01*
X354065D01*
Y384437D01*
X354721D01*
X353410D01*
X351442D02*
Y385093D01*
X350786D01*
Y384437D01*
X351442D01*
X344226D02*
Y388373D01*
X342258D01*
X341602Y387717D01*
Y386405D01*
X342258Y385749D01*
X344226D01*
X337667Y387717D02*
X338323Y388373D01*
X339634D01*
X340290Y387717D01*
Y385093D01*
X339634Y384437D01*
X338323D01*
X337667Y385093D01*
X336355Y388373D02*
Y384437D01*
X334387D01*
X333731Y385093D01*
Y385749D01*
X334387Y386405D01*
X336355D01*
X334387D01*
X333731Y387061D01*
Y387717D01*
X334387Y388373D01*
X336355D01*
X262437Y384437D02*
Y387061D01*
X261125Y388373D01*
X259813Y387061D01*
Y384437D01*
Y386405D01*
X262437D01*
X258501Y384437D02*
Y385093D01*
X257845D01*
Y384437D01*
X258501D01*
X255222Y388373D02*
X253910D01*
X254566D01*
Y384437D01*
X255222D01*
X253910D01*
X251942D02*
Y385093D01*
X251286D01*
Y384437D01*
X251942D01*
X244726D02*
Y388373D01*
X242758D01*
X242102Y387717D01*
Y386405D01*
X242758Y385749D01*
X244726D01*
X238167Y387717D02*
X238823Y388373D01*
X240135D01*
X240791Y387717D01*
Y385093D01*
X240135Y384437D01*
X238823D01*
X238167Y385093D01*
X236855Y388373D02*
Y384437D01*
X234887D01*
X234231Y385093D01*
Y385749D01*
X234887Y386405D01*
X236855D01*
X234887D01*
X234231Y387061D01*
Y387717D01*
X234887Y388373D01*
X236855D01*
X162437Y384437D02*
Y387061D01*
X161125Y388373D01*
X159813Y387061D01*
Y384437D01*
Y386405D01*
X162437D01*
X158501Y384437D02*
Y385093D01*
X157845D01*
Y384437D01*
X158501D01*
X155221Y388373D02*
X153910D01*
X154566D01*
Y384437D01*
X155221D01*
X153910D01*
X151942D02*
Y385093D01*
X151286D01*
Y384437D01*
X151942D01*
X144726D02*
Y388373D01*
X142758D01*
X142102Y387717D01*
Y386405D01*
X142758Y385749D01*
X144726D01*
X138167Y387717D02*
X138823Y388373D01*
X140135D01*
X140790Y387717D01*
Y385093D01*
X140135Y384437D01*
X138823D01*
X138167Y385093D01*
X136855Y388373D02*
Y384437D01*
X134887D01*
X134231Y385093D01*
Y385749D01*
X134887Y386405D01*
X136855D01*
X134887D01*
X134231Y387061D01*
Y387717D01*
X134887Y388373D01*
X136855D01*
X162437Y66437D02*
Y69061D01*
X161125Y70373D01*
X159813Y69061D01*
Y66437D01*
Y68405D01*
X162437D01*
X158501Y66437D02*
Y67093D01*
X157845D01*
Y66437D01*
X158501D01*
X155221Y70373D02*
X153910D01*
X154566D01*
Y66437D01*
X155221D01*
X153910D01*
X151942D02*
Y67093D01*
X151286D01*
Y66437D01*
X151942D01*
X144726D02*
Y70373D01*
X142758D01*
X142102Y69717D01*
Y68405D01*
X142758Y67749D01*
X144726D01*
X138167Y69717D02*
X138823Y70373D01*
X140135D01*
X140790Y69717D01*
Y67093D01*
X140135Y66437D01*
X138823D01*
X138167Y67093D01*
X136855Y70373D02*
Y66437D01*
X134887D01*
X134231Y67093D01*
Y67749D01*
X134887Y68405D01*
X136855D01*
X134887D01*
X134231Y69061D01*
Y69717D01*
X134887Y70373D01*
X136855D01*
X262437Y66437D02*
Y69061D01*
X261125Y70373D01*
X259813Y69061D01*
Y66437D01*
Y68405D01*
X262437D01*
X258501Y66437D02*
Y67093D01*
X257845D01*
Y66437D01*
X258501D01*
X255222Y70373D02*
X253910D01*
X254566D01*
Y66437D01*
X255222D01*
X253910D01*
X251942D02*
Y67093D01*
X251286D01*
Y66437D01*
X251942D01*
X244726D02*
Y70373D01*
X242758D01*
X242102Y69717D01*
Y68405D01*
X242758Y67749D01*
X244726D01*
X238167Y69717D02*
X238823Y70373D01*
X240135D01*
X240791Y69717D01*
Y67093D01*
X240135Y66437D01*
X238823D01*
X238167Y67093D01*
X236855Y70373D02*
Y66437D01*
X234887D01*
X234231Y67093D01*
Y67749D01*
X234887Y68405D01*
X236855D01*
X234887D01*
X234231Y69061D01*
Y69717D01*
X234887Y70373D01*
X236855D01*
X361937Y66437D02*
Y69061D01*
X360625Y70373D01*
X359313Y69061D01*
Y66437D01*
Y68405D01*
X361937D01*
X358001Y66437D02*
Y67093D01*
X357345D01*
Y66437D01*
X358001D01*
X354721Y70373D02*
X353410D01*
X354065D01*
Y66437D01*
X354721D01*
X353410D01*
X351442D02*
Y67093D01*
X350786D01*
Y66437D01*
X351442D01*
X344226D02*
Y70373D01*
X342258D01*
X341602Y69717D01*
Y68405D01*
X342258Y67749D01*
X344226D01*
X337667Y69717D02*
X338323Y70373D01*
X339634D01*
X340290Y69717D01*
Y67093D01*
X339634Y66437D01*
X338323D01*
X337667Y67093D01*
X336355Y70373D02*
Y66437D01*
X334387D01*
X333731Y67093D01*
Y67749D01*
X334387Y68405D01*
X336355D01*
X334387D01*
X333731Y69061D01*
Y69717D01*
X334387Y70373D01*
X336355D01*
X63437Y66437D02*
Y69061D01*
X62125Y70373D01*
X60813Y69061D01*
Y66437D01*
Y68405D01*
X63437D01*
X59501Y66437D02*
Y67093D01*
X58845D01*
Y66437D01*
X59501D01*
X56221Y70373D02*
X54910D01*
X55566D01*
Y66437D01*
X56221D01*
X54910D01*
X52942D02*
Y67093D01*
X52286D01*
Y66437D01*
X52942D01*
X45726D02*
Y70373D01*
X43758D01*
X43102Y69717D01*
Y68405D01*
X43758Y67749D01*
X45726D01*
X39167Y69717D02*
X39823Y70373D01*
X41135D01*
X41790Y69717D01*
Y67093D01*
X41135Y66437D01*
X39823D01*
X39167Y67093D01*
X37855Y70373D02*
Y66437D01*
X35887D01*
X35231Y67093D01*
Y67749D01*
X35887Y68405D01*
X37855D01*
X35887D01*
X35231Y69061D01*
Y69717D01*
X35887Y70373D01*
X37855D01*
M02*
