M48
;Layer_Color=9474304
;FILE_FORMAT=2:5
INCH,LZ
;TYPE=PLATED
T2F00S00C0.02756
%
G90
G05
T02
G00X0202602Y0078
M15
G01X0290398
M16
G00X0202602Y0158
M15
G01X0290398
M16
G00X02965Y0003496
M15
G01Y0390504
M16
G00X0302102Y0158
M15
G01X0389898
M16
G00X0301602Y0078
M15
G01X0389398
M16
G00X0102602Y0078
M15
G01X0190398
M16
G00X0102602Y0158
M15
G01X0190398
M16
G00X0097Y0002996
M15
G01Y0390004
M16
G00X01965Y0003496
M15
G01Y0390504
M16
G00X0003602Y0158
M15
G01X0091398
M16
G00X0003602Y0078
M15
G01X0091398
M16
G00X0004102Y02375
M15
G01X0091898
M16
G00X0003602Y03165
M15
G01X0091398
M16
G00X0102602Y03165
M15
G01X0190398
M16
G00X0102602Y02375
M15
G01X0190398
M16
G00X0202602Y02375
M15
G01X0290398
M16
G00X0202602Y03165
M15
G01X0290398
M16
G00X0301602Y03165
M15
G01X0389398
M16
G00X0302102Y02375
M15
G01X0389898
M16
M30
