G04 Layer_Color=65535*
%FSLAX25Y25*%
%MOIN*%
G70*
G01*
G75*
%ADD11C,0.01000*%
%ADD19C,0.00787*%
%ADD20C,0.00800*%
%ADD21C,0.00394*%
D11*
X28051Y132937D02*
G03*
X28051Y132937I-11614J0D01*
G01*
X89551Y134437D02*
G03*
X89551Y134437I-11614J0D01*
G01*
X388051D02*
G03*
X388051Y134437I-11614J0D01*
G01*
X326551Y132937D02*
G03*
X326551Y132937I-11614J0D01*
G01*
X288551Y134437D02*
G03*
X288551Y134437I-11614J0D01*
G01*
X227051Y132937D02*
G03*
X227051Y132937I-11614J0D01*
G01*
X188551Y134437D02*
G03*
X188551Y134437I-11614J0D01*
G01*
X127051Y132937D02*
G03*
X127051Y132937I-11614J0D01*
G01*
X28551Y212437D02*
G03*
X28551Y212437I-11614J0D01*
G01*
X90051Y213937D02*
G03*
X90051Y213937I-11614J0D01*
G01*
X388551D02*
G03*
X388551Y213937I-11614J0D01*
G01*
X327051Y212437D02*
G03*
X327051Y212437I-11614J0D01*
G01*
X289051Y213937D02*
G03*
X289051Y213937I-11614J0D01*
G01*
X227551Y212437D02*
G03*
X227551Y212437I-11614J0D01*
G01*
X189051Y213937D02*
G03*
X189051Y213937I-11614J0D01*
G01*
X127551Y212437D02*
G03*
X127551Y212437I-11614J0D01*
G01*
X28551Y291937D02*
G03*
X28551Y291937I-11614J0D01*
G01*
X90051Y293437D02*
G03*
X90051Y293437I-11614J0D01*
G01*
X388551D02*
G03*
X388551Y293437I-11614J0D01*
G01*
X327051Y291937D02*
G03*
X327051Y291937I-11614J0D01*
G01*
X289051Y293437D02*
G03*
X289051Y293437I-11614J0D01*
G01*
X227551Y291937D02*
G03*
X227551Y291937I-11614J0D01*
G01*
X189051Y293437D02*
G03*
X189051Y293437I-11614J0D01*
G01*
X127551Y291937D02*
G03*
X127551Y291937I-11614J0D01*
G01*
X28551Y370437D02*
G03*
X28551Y370437I-11614J0D01*
G01*
X90051Y371937D02*
G03*
X90051Y371937I-11614J0D01*
G01*
X388551D02*
G03*
X388551Y371937I-11614J0D01*
G01*
X327051Y370437D02*
G03*
X327051Y370437I-11614J0D01*
G01*
X289051Y371937D02*
G03*
X289051Y371937I-11614J0D01*
G01*
X227551Y370437D02*
G03*
X227551Y370437I-11614J0D01*
G01*
X189051Y371937D02*
G03*
X189051Y371937I-11614J0D01*
G01*
X127551Y370437D02*
G03*
X127551Y370437I-11614J0D01*
G01*
Y52437D02*
G03*
X127551Y52437I-11614J0D01*
G01*
X189051Y53937D02*
G03*
X189051Y53937I-11614J0D01*
G01*
X227551Y52437D02*
G03*
X227551Y52437I-11614J0D01*
G01*
X289051Y53937D02*
G03*
X289051Y53937I-11614J0D01*
G01*
X327051Y52437D02*
G03*
X327051Y52437I-11614J0D01*
G01*
X388551Y53937D02*
G03*
X388551Y53937I-11614J0D01*
G01*
X28551Y52437D02*
G03*
X28551Y52437I-11614J0D01*
G01*
X90051Y53937D02*
G03*
X90051Y53937I-11614J0D01*
G01*
X937Y81937D02*
Y154437D01*
X93437D01*
Y81937D02*
Y154437D01*
X937Y81937D02*
X93437D01*
X299437D02*
X391937D01*
Y154437D01*
X299437D02*
X391937D01*
X299437Y81937D02*
Y154437D01*
X199937Y81937D02*
X292437D01*
Y154437D01*
X199937D02*
X292437D01*
X199937Y81937D02*
Y154437D01*
X99937Y81937D02*
X192437D01*
Y154437D01*
X99937D02*
X192437D01*
X99937Y81937D02*
Y154437D01*
X1437Y161437D02*
Y233937D01*
X93937D01*
Y161437D02*
Y233937D01*
X1437Y161437D02*
X93937D01*
X299937D02*
X392437D01*
Y233937D01*
X299937D02*
X392437D01*
X299937Y161437D02*
Y233937D01*
X200437Y161437D02*
X292937D01*
Y233937D01*
X200437D02*
X292937D01*
X200437Y161437D02*
Y233937D01*
X100437Y161437D02*
X192937D01*
Y233937D01*
X100437D02*
X192937D01*
X100437Y161437D02*
Y233937D01*
X1437Y240937D02*
Y313437D01*
X93937D01*
Y240937D02*
Y313437D01*
X1437Y240937D02*
X93937D01*
X299937D02*
X392437D01*
Y313437D01*
X299937D02*
X392437D01*
X299937Y240937D02*
Y313437D01*
X200437Y240937D02*
X292937D01*
Y313437D01*
X200437D02*
X292937D01*
X200437Y240937D02*
Y313437D01*
X100437Y240937D02*
X192937D01*
Y313437D01*
X100437D02*
X192937D01*
X100437Y240937D02*
Y313437D01*
X1437Y319437D02*
Y391937D01*
X93937D01*
Y319437D02*
Y391937D01*
X1437Y319437D02*
X93937D01*
X299937D02*
X392437D01*
Y391937D01*
X299937D02*
X392437D01*
X299937Y319437D02*
Y391937D01*
X200437Y319437D02*
X292937D01*
Y391937D01*
X200437D02*
X292937D01*
X200437Y319437D02*
Y391937D01*
X100437Y319437D02*
X192937D01*
Y391937D01*
X100437D02*
X192937D01*
X100437Y319437D02*
Y391937D01*
Y1437D02*
Y73937D01*
X192937D01*
Y1437D02*
Y73937D01*
X100437Y1437D02*
X192937D01*
X200437D02*
Y73937D01*
X292937D01*
Y1437D02*
Y73937D01*
X200437Y1437D02*
X292937D01*
X299937D02*
Y73937D01*
X392437D01*
Y1437D02*
Y73937D01*
X299937Y1437D02*
X392437D01*
X1437D02*
X93937D01*
Y73937D01*
X1437D02*
X93937D01*
X1437Y1437D02*
Y73937D01*
X19937Y138905D02*
X22561D01*
X21249Y140217D02*
Y137593D01*
X34437Y146937D02*
Y149561D01*
X35749Y150873D01*
X37061Y149561D01*
Y146937D01*
Y148905D01*
X34437D01*
X38373Y146937D02*
Y147593D01*
X39029D01*
Y146937D01*
X38373D01*
X41653Y150873D02*
X42964D01*
X42309D01*
Y146937D01*
X41653D01*
X42964D01*
X44932D02*
Y147593D01*
X45588D01*
Y146937D01*
X44932D01*
X52148D02*
Y150873D01*
X54116D01*
X54772Y150217D01*
Y148905D01*
X54116Y148249D01*
X52148D01*
X58707Y150217D02*
X58051Y150873D01*
X56739D01*
X56084Y150217D01*
Y147593D01*
X56739Y146937D01*
X58051D01*
X58707Y147593D01*
X60019Y150873D02*
Y146937D01*
X61987D01*
X62643Y147593D01*
Y148249D01*
X61987Y148905D01*
X60019D01*
X61987D01*
X62643Y149561D01*
Y150217D01*
X61987Y150873D01*
X60019D01*
X12937Y138405D02*
X15561D01*
X71937Y140905D02*
X74561D01*
X73249Y142217D02*
Y139593D01*
X81437Y140405D02*
X84061D01*
X46437Y115905D02*
X49061D01*
X47749Y117217D02*
Y114593D01*
X41437Y94905D02*
X44061D01*
X42749Y96217D02*
Y93593D01*
X68437Y121405D02*
X71061D01*
X69749Y122717D02*
Y120093D01*
X48937Y94905D02*
X51561D01*
X45437Y126405D02*
X48061D01*
X82937Y120405D02*
X85561D01*
X10437Y150373D02*
Y146437D01*
X13061D01*
X16997Y150373D02*
X14373D01*
Y146437D01*
X16997D01*
X14373Y148405D02*
X15685D01*
X18308Y150373D02*
Y146437D01*
X20276D01*
X20932Y147093D01*
Y149717D01*
X20276Y150373D01*
X18308D01*
X73937Y151873D02*
Y147937D01*
X76561D01*
X80497Y151873D02*
X77873D01*
Y147937D01*
X80497D01*
X77873Y149905D02*
X79185D01*
X81809Y151873D02*
Y147937D01*
X83776D01*
X84432Y148593D01*
Y151217D01*
X83776Y151873D01*
X81809D01*
X372437D02*
Y147937D01*
X375061D01*
X378997Y151873D02*
X376373D01*
Y147937D01*
X378997D01*
X376373Y149905D02*
X377685D01*
X380309Y151873D02*
Y147937D01*
X382276D01*
X382932Y148593D01*
Y151217D01*
X382276Y151873D01*
X380309D01*
X308937Y150373D02*
Y146437D01*
X311561D01*
X315497Y150373D02*
X312873D01*
Y146437D01*
X315497D01*
X312873Y148405D02*
X314185D01*
X316809Y150373D02*
Y146437D01*
X318776D01*
X319432Y147093D01*
Y149717D01*
X318776Y150373D01*
X316809D01*
X381437Y120405D02*
X384061D01*
X343937Y126405D02*
X346561D01*
X347437Y94905D02*
X350061D01*
X366937Y121405D02*
X369561D01*
X368249Y122717D02*
Y120093D01*
X339937Y94905D02*
X342561D01*
X341249Y96217D02*
Y93593D01*
X344937Y115905D02*
X347561D01*
X346249Y117217D02*
Y114593D01*
X379937Y140405D02*
X382561D01*
X370437Y140905D02*
X373061D01*
X371749Y142217D02*
Y139593D01*
X311437Y138405D02*
X314061D01*
X332937Y146937D02*
Y149561D01*
X334249Y150873D01*
X335561Y149561D01*
Y146937D01*
Y148905D01*
X332937D01*
X336873Y146937D02*
Y147593D01*
X337529D01*
Y146937D01*
X336873D01*
X340153Y150873D02*
X341464D01*
X340809D01*
Y146937D01*
X340153D01*
X341464D01*
X343432D02*
Y147593D01*
X344088D01*
Y146937D01*
X343432D01*
X350648D02*
Y150873D01*
X352616D01*
X353272Y150217D01*
Y148905D01*
X352616Y148249D01*
X350648D01*
X357207Y150217D02*
X356551Y150873D01*
X355240D01*
X354584Y150217D01*
Y147593D01*
X355240Y146937D01*
X356551D01*
X357207Y147593D01*
X358519Y150873D02*
Y146937D01*
X360487D01*
X361143Y147593D01*
Y148249D01*
X360487Y148905D01*
X358519D01*
X360487D01*
X361143Y149561D01*
Y150217D01*
X360487Y150873D01*
X358519D01*
X318437Y138905D02*
X321061D01*
X319749Y140217D02*
Y137593D01*
X272937Y151873D02*
Y147937D01*
X275561D01*
X279497Y151873D02*
X276873D01*
Y147937D01*
X279497D01*
X276873Y149905D02*
X278185D01*
X280808Y151873D02*
Y147937D01*
X282776D01*
X283432Y148593D01*
Y151217D01*
X282776Y151873D01*
X280808D01*
X209437Y150373D02*
Y146437D01*
X212061D01*
X215997Y150373D02*
X213373D01*
Y146437D01*
X215997D01*
X213373Y148405D02*
X214685D01*
X217308Y150373D02*
Y146437D01*
X219276D01*
X219932Y147093D01*
Y149717D01*
X219276Y150373D01*
X217308D01*
X281937Y120405D02*
X284561D01*
X244437Y126405D02*
X247061D01*
X247937Y94905D02*
X250561D01*
X267437Y121405D02*
X270061D01*
X268749Y122717D02*
Y120093D01*
X240437Y94905D02*
X243061D01*
X241749Y96217D02*
Y93593D01*
X245437Y115905D02*
X248061D01*
X246749Y117217D02*
Y114593D01*
X280437Y140405D02*
X283061D01*
X270937Y140905D02*
X273561D01*
X272249Y142217D02*
Y139593D01*
X211937Y138405D02*
X214561D01*
X233437Y146937D02*
Y149561D01*
X234749Y150873D01*
X236061Y149561D01*
Y146937D01*
Y148905D01*
X233437D01*
X237373Y146937D02*
Y147593D01*
X238029D01*
Y146937D01*
X237373D01*
X240652Y150873D02*
X241964D01*
X241308D01*
Y146937D01*
X240652D01*
X241964D01*
X243932D02*
Y147593D01*
X244588D01*
Y146937D01*
X243932D01*
X251148D02*
Y150873D01*
X253116D01*
X253772Y150217D01*
Y148905D01*
X253116Y148249D01*
X251148D01*
X257707Y150217D02*
X257051Y150873D01*
X255739D01*
X255084Y150217D01*
Y147593D01*
X255739Y146937D01*
X257051D01*
X257707Y147593D01*
X259019Y150873D02*
Y146937D01*
X260987D01*
X261643Y147593D01*
Y148249D01*
X260987Y148905D01*
X259019D01*
X260987D01*
X261643Y149561D01*
Y150217D01*
X260987Y150873D01*
X259019D01*
X218937Y138905D02*
X221561D01*
X220249Y140217D02*
Y137593D01*
X172937Y151873D02*
Y147937D01*
X175561D01*
X179497Y151873D02*
X176873D01*
Y147937D01*
X179497D01*
X176873Y149905D02*
X178185D01*
X180808Y151873D02*
Y147937D01*
X182776D01*
X183432Y148593D01*
Y151217D01*
X182776Y151873D01*
X180808D01*
X109437Y150373D02*
Y146437D01*
X112061D01*
X115997Y150373D02*
X113373D01*
Y146437D01*
X115997D01*
X113373Y148405D02*
X114685D01*
X117308Y150373D02*
Y146437D01*
X119276D01*
X119932Y147093D01*
Y149717D01*
X119276Y150373D01*
X117308D01*
X181937Y120405D02*
X184561D01*
X144437Y126405D02*
X147061D01*
X147937Y94905D02*
X150561D01*
X167437Y121405D02*
X170061D01*
X168749Y122717D02*
Y120093D01*
X140437Y94905D02*
X143061D01*
X141749Y96217D02*
Y93593D01*
X145437Y115905D02*
X148061D01*
X146749Y117217D02*
Y114593D01*
X180437Y140405D02*
X183061D01*
X170937Y140905D02*
X173561D01*
X172249Y142217D02*
Y139593D01*
X111937Y138405D02*
X114561D01*
X133437Y146937D02*
Y149561D01*
X134749Y150873D01*
X136061Y149561D01*
Y146937D01*
Y148905D01*
X133437D01*
X137373Y146937D02*
Y147593D01*
X138029D01*
Y146937D01*
X137373D01*
X140653Y150873D02*
X141964D01*
X141308D01*
Y146937D01*
X140653D01*
X141964D01*
X143932D02*
Y147593D01*
X144588D01*
Y146937D01*
X143932D01*
X151148D02*
Y150873D01*
X153116D01*
X153772Y150217D01*
Y148905D01*
X153116Y148249D01*
X151148D01*
X157707Y150217D02*
X157051Y150873D01*
X155739D01*
X155084Y150217D01*
Y147593D01*
X155739Y146937D01*
X157051D01*
X157707Y147593D01*
X159019Y150873D02*
Y146937D01*
X160987D01*
X161643Y147593D01*
Y148249D01*
X160987Y148905D01*
X159019D01*
X160987D01*
X161643Y149561D01*
Y150217D01*
X160987Y150873D01*
X159019D01*
X118937Y138905D02*
X121561D01*
X120249Y140217D02*
Y137593D01*
X20437Y218405D02*
X23061D01*
X21749Y219717D02*
Y217093D01*
X34937Y226437D02*
Y229061D01*
X36249Y230373D01*
X37561Y229061D01*
Y226437D01*
Y228405D01*
X34937D01*
X38873Y226437D02*
Y227093D01*
X39529D01*
Y226437D01*
X38873D01*
X42153Y230373D02*
X43464D01*
X42808D01*
Y226437D01*
X42153D01*
X43464D01*
X45432D02*
Y227093D01*
X46088D01*
Y226437D01*
X45432D01*
X52648D02*
Y230373D01*
X54616D01*
X55272Y229717D01*
Y228405D01*
X54616Y227749D01*
X52648D01*
X59207Y229717D02*
X58551Y230373D01*
X57240D01*
X56584Y229717D01*
Y227093D01*
X57240Y226437D01*
X58551D01*
X59207Y227093D01*
X60519Y230373D02*
Y226437D01*
X62487D01*
X63143Y227093D01*
Y227749D01*
X62487Y228405D01*
X60519D01*
X62487D01*
X63143Y229061D01*
Y229717D01*
X62487Y230373D01*
X60519D01*
X13437Y217905D02*
X16061D01*
X72437Y220405D02*
X75061D01*
X73749Y221717D02*
Y219093D01*
X81937Y219905D02*
X84561D01*
X46937Y195405D02*
X49561D01*
X48249Y196717D02*
Y194093D01*
X41937Y174405D02*
X44561D01*
X43249Y175717D02*
Y173093D01*
X68937Y200905D02*
X71561D01*
X70249Y202217D02*
Y199593D01*
X49437Y174405D02*
X52061D01*
X45937Y205905D02*
X48561D01*
X83437Y199905D02*
X86061D01*
X10937Y229873D02*
Y225937D01*
X13561D01*
X17497Y229873D02*
X14873D01*
Y225937D01*
X17497D01*
X14873Y227905D02*
X16185D01*
X18809Y229873D02*
Y225937D01*
X20776D01*
X21432Y226593D01*
Y229217D01*
X20776Y229873D01*
X18809D01*
X74437Y231373D02*
Y227437D01*
X77061D01*
X80997Y231373D02*
X78373D01*
Y227437D01*
X80997D01*
X78373Y229405D02*
X79685D01*
X82309Y231373D02*
Y227437D01*
X84276D01*
X84932Y228093D01*
Y230717D01*
X84276Y231373D01*
X82309D01*
X372937D02*
Y227437D01*
X375561D01*
X379497Y231373D02*
X376873D01*
Y227437D01*
X379497D01*
X376873Y229405D02*
X378185D01*
X380808Y231373D02*
Y227437D01*
X382776D01*
X383432Y228093D01*
Y230717D01*
X382776Y231373D01*
X380808D01*
X309437Y229873D02*
Y225937D01*
X312061D01*
X315997Y229873D02*
X313373D01*
Y225937D01*
X315997D01*
X313373Y227905D02*
X314685D01*
X317308Y229873D02*
Y225937D01*
X319276D01*
X319932Y226593D01*
Y229217D01*
X319276Y229873D01*
X317308D01*
X381937Y199905D02*
X384561D01*
X344437Y205905D02*
X347061D01*
X347937Y174405D02*
X350561D01*
X367437Y200905D02*
X370061D01*
X368749Y202217D02*
Y199593D01*
X340437Y174405D02*
X343061D01*
X341749Y175717D02*
Y173093D01*
X345437Y195405D02*
X348061D01*
X346749Y196717D02*
Y194093D01*
X380437Y219905D02*
X383061D01*
X370937Y220405D02*
X373561D01*
X372249Y221717D02*
Y219093D01*
X311937Y217905D02*
X314561D01*
X333437Y226437D02*
Y229061D01*
X334749Y230373D01*
X336061Y229061D01*
Y226437D01*
Y228405D01*
X333437D01*
X337373Y226437D02*
Y227093D01*
X338029D01*
Y226437D01*
X337373D01*
X340652Y230373D02*
X341964D01*
X341308D01*
Y226437D01*
X340652D01*
X341964D01*
X343932D02*
Y227093D01*
X344588D01*
Y226437D01*
X343932D01*
X351148D02*
Y230373D01*
X353116D01*
X353772Y229717D01*
Y228405D01*
X353116Y227749D01*
X351148D01*
X357707Y229717D02*
X357051Y230373D01*
X355739D01*
X355084Y229717D01*
Y227093D01*
X355739Y226437D01*
X357051D01*
X357707Y227093D01*
X359019Y230373D02*
Y226437D01*
X360987D01*
X361643Y227093D01*
Y227749D01*
X360987Y228405D01*
X359019D01*
X360987D01*
X361643Y229061D01*
Y229717D01*
X360987Y230373D01*
X359019D01*
X318937Y218405D02*
X321561D01*
X320249Y219717D02*
Y217093D01*
X273437Y231373D02*
Y227437D01*
X276061D01*
X279997Y231373D02*
X277373D01*
Y227437D01*
X279997D01*
X277373Y229405D02*
X278685D01*
X281309Y231373D02*
Y227437D01*
X283276D01*
X283932Y228093D01*
Y230717D01*
X283276Y231373D01*
X281309D01*
X209937Y229873D02*
Y225937D01*
X212561D01*
X216497Y229873D02*
X213873D01*
Y225937D01*
X216497D01*
X213873Y227905D02*
X215185D01*
X217809Y229873D02*
Y225937D01*
X219776D01*
X220432Y226593D01*
Y229217D01*
X219776Y229873D01*
X217809D01*
X282437Y199905D02*
X285061D01*
X244937Y205905D02*
X247561D01*
X248437Y174405D02*
X251061D01*
X267937Y200905D02*
X270561D01*
X269249Y202217D02*
Y199593D01*
X240937Y174405D02*
X243561D01*
X242249Y175717D02*
Y173093D01*
X245937Y195405D02*
X248561D01*
X247249Y196717D02*
Y194093D01*
X280937Y219905D02*
X283561D01*
X271437Y220405D02*
X274061D01*
X272749Y221717D02*
Y219093D01*
X212437Y217905D02*
X215061D01*
X233937Y226437D02*
Y229061D01*
X235249Y230373D01*
X236561Y229061D01*
Y226437D01*
Y228405D01*
X233937D01*
X237873Y226437D02*
Y227093D01*
X238529D01*
Y226437D01*
X237873D01*
X241153Y230373D02*
X242464D01*
X241809D01*
Y226437D01*
X241153D01*
X242464D01*
X244432D02*
Y227093D01*
X245088D01*
Y226437D01*
X244432D01*
X251648D02*
Y230373D01*
X253616D01*
X254272Y229717D01*
Y228405D01*
X253616Y227749D01*
X251648D01*
X258207Y229717D02*
X257551Y230373D01*
X256240D01*
X255584Y229717D01*
Y227093D01*
X256240Y226437D01*
X257551D01*
X258207Y227093D01*
X259519Y230373D02*
Y226437D01*
X261487D01*
X262143Y227093D01*
Y227749D01*
X261487Y228405D01*
X259519D01*
X261487D01*
X262143Y229061D01*
Y229717D01*
X261487Y230373D01*
X259519D01*
X219437Y218405D02*
X222061D01*
X220749Y219717D02*
Y217093D01*
X173437Y231373D02*
Y227437D01*
X176061D01*
X179997Y231373D02*
X177373D01*
Y227437D01*
X179997D01*
X177373Y229405D02*
X178685D01*
X181308Y231373D02*
Y227437D01*
X183276D01*
X183932Y228093D01*
Y230717D01*
X183276Y231373D01*
X181308D01*
X109937Y229873D02*
Y225937D01*
X112561D01*
X116497Y229873D02*
X113873D01*
Y225937D01*
X116497D01*
X113873Y227905D02*
X115185D01*
X117808Y229873D02*
Y225937D01*
X119776D01*
X120432Y226593D01*
Y229217D01*
X119776Y229873D01*
X117808D01*
X182437Y199905D02*
X185061D01*
X144937Y205905D02*
X147561D01*
X148437Y174405D02*
X151061D01*
X167937Y200905D02*
X170561D01*
X169249Y202217D02*
Y199593D01*
X140937Y174405D02*
X143561D01*
X142249Y175717D02*
Y173093D01*
X145937Y195405D02*
X148561D01*
X147249Y196717D02*
Y194093D01*
X180937Y219905D02*
X183561D01*
X171437Y220405D02*
X174061D01*
X172749Y221717D02*
Y219093D01*
X112437Y217905D02*
X115061D01*
X133937Y226437D02*
Y229061D01*
X135249Y230373D01*
X136561Y229061D01*
Y226437D01*
Y228405D01*
X133937D01*
X137873Y226437D02*
Y227093D01*
X138529D01*
Y226437D01*
X137873D01*
X141153Y230373D02*
X142464D01*
X141808D01*
Y226437D01*
X141153D01*
X142464D01*
X144432D02*
Y227093D01*
X145088D01*
Y226437D01*
X144432D01*
X151648D02*
Y230373D01*
X153616D01*
X154272Y229717D01*
Y228405D01*
X153616Y227749D01*
X151648D01*
X158207Y229717D02*
X157551Y230373D01*
X156239D01*
X155584Y229717D01*
Y227093D01*
X156239Y226437D01*
X157551D01*
X158207Y227093D01*
X159519Y230373D02*
Y226437D01*
X161487D01*
X162143Y227093D01*
Y227749D01*
X161487Y228405D01*
X159519D01*
X161487D01*
X162143Y229061D01*
Y229717D01*
X161487Y230373D01*
X159519D01*
X119437Y218405D02*
X122061D01*
X120749Y219717D02*
Y217093D01*
X20437Y297905D02*
X23061D01*
X21749Y299217D02*
Y296593D01*
X34937Y305937D02*
Y308561D01*
X36249Y309873D01*
X37561Y308561D01*
Y305937D01*
Y307905D01*
X34937D01*
X38873Y305937D02*
Y306593D01*
X39529D01*
Y305937D01*
X38873D01*
X42153Y309873D02*
X43464D01*
X42808D01*
Y305937D01*
X42153D01*
X43464D01*
X45432D02*
Y306593D01*
X46088D01*
Y305937D01*
X45432D01*
X52648D02*
Y309873D01*
X54616D01*
X55272Y309217D01*
Y307905D01*
X54616Y307249D01*
X52648D01*
X59207Y309217D02*
X58551Y309873D01*
X57240D01*
X56584Y309217D01*
Y306593D01*
X57240Y305937D01*
X58551D01*
X59207Y306593D01*
X60519Y309873D02*
Y305937D01*
X62487D01*
X63143Y306593D01*
Y307249D01*
X62487Y307905D01*
X60519D01*
X62487D01*
X63143Y308561D01*
Y309217D01*
X62487Y309873D01*
X60519D01*
X13437Y297405D02*
X16061D01*
X72437Y299905D02*
X75061D01*
X73749Y301217D02*
Y298593D01*
X81937Y299405D02*
X84561D01*
X46937Y274905D02*
X49561D01*
X48249Y276217D02*
Y273593D01*
X41937Y253905D02*
X44561D01*
X43249Y255217D02*
Y252593D01*
X68937Y280405D02*
X71561D01*
X70249Y281717D02*
Y279093D01*
X49437Y253905D02*
X52061D01*
X45937Y285405D02*
X48561D01*
X83437Y279405D02*
X86061D01*
X10937Y309373D02*
Y305437D01*
X13561D01*
X17497Y309373D02*
X14873D01*
Y305437D01*
X17497D01*
X14873Y307405D02*
X16185D01*
X18809Y309373D02*
Y305437D01*
X20776D01*
X21432Y306093D01*
Y308717D01*
X20776Y309373D01*
X18809D01*
X74437Y310873D02*
Y306937D01*
X77061D01*
X80997Y310873D02*
X78373D01*
Y306937D01*
X80997D01*
X78373Y308905D02*
X79685D01*
X82309Y310873D02*
Y306937D01*
X84276D01*
X84932Y307593D01*
Y310217D01*
X84276Y310873D01*
X82309D01*
X372937D02*
Y306937D01*
X375561D01*
X379497Y310873D02*
X376873D01*
Y306937D01*
X379497D01*
X376873Y308905D02*
X378185D01*
X380808Y310873D02*
Y306937D01*
X382776D01*
X383432Y307593D01*
Y310217D01*
X382776Y310873D01*
X380808D01*
X309437Y309373D02*
Y305437D01*
X312061D01*
X315997Y309373D02*
X313373D01*
Y305437D01*
X315997D01*
X313373Y307405D02*
X314685D01*
X317308Y309373D02*
Y305437D01*
X319276D01*
X319932Y306093D01*
Y308717D01*
X319276Y309373D01*
X317308D01*
X381937Y279405D02*
X384561D01*
X344437Y285405D02*
X347061D01*
X347937Y253905D02*
X350561D01*
X367437Y280405D02*
X370061D01*
X368749Y281717D02*
Y279093D01*
X340437Y253905D02*
X343061D01*
X341749Y255217D02*
Y252593D01*
X345437Y274905D02*
X348061D01*
X346749Y276217D02*
Y273593D01*
X380437Y299405D02*
X383061D01*
X370937Y299905D02*
X373561D01*
X372249Y301217D02*
Y298593D01*
X311937Y297405D02*
X314561D01*
X333437Y305937D02*
Y308561D01*
X334749Y309873D01*
X336061Y308561D01*
Y305937D01*
Y307905D01*
X333437D01*
X337373Y305937D02*
Y306593D01*
X338029D01*
Y305937D01*
X337373D01*
X340652Y309873D02*
X341964D01*
X341308D01*
Y305937D01*
X340652D01*
X341964D01*
X343932D02*
Y306593D01*
X344588D01*
Y305937D01*
X343932D01*
X351148D02*
Y309873D01*
X353116D01*
X353772Y309217D01*
Y307905D01*
X353116Y307249D01*
X351148D01*
X357707Y309217D02*
X357051Y309873D01*
X355739D01*
X355084Y309217D01*
Y306593D01*
X355739Y305937D01*
X357051D01*
X357707Y306593D01*
X359019Y309873D02*
Y305937D01*
X360987D01*
X361643Y306593D01*
Y307249D01*
X360987Y307905D01*
X359019D01*
X360987D01*
X361643Y308561D01*
Y309217D01*
X360987Y309873D01*
X359019D01*
X318937Y297905D02*
X321561D01*
X320249Y299217D02*
Y296593D01*
X273437Y310873D02*
Y306937D01*
X276061D01*
X279997Y310873D02*
X277373D01*
Y306937D01*
X279997D01*
X277373Y308905D02*
X278685D01*
X281309Y310873D02*
Y306937D01*
X283276D01*
X283932Y307593D01*
Y310217D01*
X283276Y310873D01*
X281309D01*
X209937Y309373D02*
Y305437D01*
X212561D01*
X216497Y309373D02*
X213873D01*
Y305437D01*
X216497D01*
X213873Y307405D02*
X215185D01*
X217809Y309373D02*
Y305437D01*
X219776D01*
X220432Y306093D01*
Y308717D01*
X219776Y309373D01*
X217809D01*
X282437Y279405D02*
X285061D01*
X244937Y285405D02*
X247561D01*
X248437Y253905D02*
X251061D01*
X267937Y280405D02*
X270561D01*
X269249Y281717D02*
Y279093D01*
X240937Y253905D02*
X243561D01*
X242249Y255217D02*
Y252593D01*
X245937Y274905D02*
X248561D01*
X247249Y276217D02*
Y273593D01*
X280937Y299405D02*
X283561D01*
X271437Y299905D02*
X274061D01*
X272749Y301217D02*
Y298593D01*
X212437Y297405D02*
X215061D01*
X233937Y305937D02*
Y308561D01*
X235249Y309873D01*
X236561Y308561D01*
Y305937D01*
Y307905D01*
X233937D01*
X237873Y305937D02*
Y306593D01*
X238529D01*
Y305937D01*
X237873D01*
X241153Y309873D02*
X242464D01*
X241809D01*
Y305937D01*
X241153D01*
X242464D01*
X244432D02*
Y306593D01*
X245088D01*
Y305937D01*
X244432D01*
X251648D02*
Y309873D01*
X253616D01*
X254272Y309217D01*
Y307905D01*
X253616Y307249D01*
X251648D01*
X258207Y309217D02*
X257551Y309873D01*
X256240D01*
X255584Y309217D01*
Y306593D01*
X256240Y305937D01*
X257551D01*
X258207Y306593D01*
X259519Y309873D02*
Y305937D01*
X261487D01*
X262143Y306593D01*
Y307249D01*
X261487Y307905D01*
X259519D01*
X261487D01*
X262143Y308561D01*
Y309217D01*
X261487Y309873D01*
X259519D01*
X219437Y297905D02*
X222061D01*
X220749Y299217D02*
Y296593D01*
X173437Y310873D02*
Y306937D01*
X176061D01*
X179997Y310873D02*
X177373D01*
Y306937D01*
X179997D01*
X177373Y308905D02*
X178685D01*
X181308Y310873D02*
Y306937D01*
X183276D01*
X183932Y307593D01*
Y310217D01*
X183276Y310873D01*
X181308D01*
X109937Y309373D02*
Y305437D01*
X112561D01*
X116497Y309373D02*
X113873D01*
Y305437D01*
X116497D01*
X113873Y307405D02*
X115185D01*
X117808Y309373D02*
Y305437D01*
X119776D01*
X120432Y306093D01*
Y308717D01*
X119776Y309373D01*
X117808D01*
X182437Y279405D02*
X185061D01*
X144937Y285405D02*
X147561D01*
X148437Y253905D02*
X151061D01*
X167937Y280405D02*
X170561D01*
X169249Y281717D02*
Y279093D01*
X140937Y253905D02*
X143561D01*
X142249Y255217D02*
Y252593D01*
X145937Y274905D02*
X148561D01*
X147249Y276217D02*
Y273593D01*
X180937Y299405D02*
X183561D01*
X171437Y299905D02*
X174061D01*
X172749Y301217D02*
Y298593D01*
X112437Y297405D02*
X115061D01*
X133937Y305937D02*
Y308561D01*
X135249Y309873D01*
X136561Y308561D01*
Y305937D01*
Y307905D01*
X133937D01*
X137873Y305937D02*
Y306593D01*
X138529D01*
Y305937D01*
X137873D01*
X141153Y309873D02*
X142464D01*
X141808D01*
Y305937D01*
X141153D01*
X142464D01*
X144432D02*
Y306593D01*
X145088D01*
Y305937D01*
X144432D01*
X151648D02*
Y309873D01*
X153616D01*
X154272Y309217D01*
Y307905D01*
X153616Y307249D01*
X151648D01*
X158207Y309217D02*
X157551Y309873D01*
X156239D01*
X155584Y309217D01*
Y306593D01*
X156239Y305937D01*
X157551D01*
X158207Y306593D01*
X159519Y309873D02*
Y305937D01*
X161487D01*
X162143Y306593D01*
Y307249D01*
X161487Y307905D01*
X159519D01*
X161487D01*
X162143Y308561D01*
Y309217D01*
X161487Y309873D01*
X159519D01*
X119437Y297905D02*
X122061D01*
X120749Y299217D02*
Y296593D01*
X20437Y376405D02*
X23061D01*
X21749Y377717D02*
Y375093D01*
X34937Y384437D02*
Y387061D01*
X36249Y388373D01*
X37561Y387061D01*
Y384437D01*
Y386405D01*
X34937D01*
X38873Y384437D02*
Y385093D01*
X39529D01*
Y384437D01*
X38873D01*
X42153Y388373D02*
X43464D01*
X42808D01*
Y384437D01*
X42153D01*
X43464D01*
X45432D02*
Y385093D01*
X46088D01*
Y384437D01*
X45432D01*
X52648D02*
Y388373D01*
X54616D01*
X55272Y387717D01*
Y386405D01*
X54616Y385749D01*
X52648D01*
X59207Y387717D02*
X58551Y388373D01*
X57240D01*
X56584Y387717D01*
Y385093D01*
X57240Y384437D01*
X58551D01*
X59207Y385093D01*
X60519Y388373D02*
Y384437D01*
X62487D01*
X63143Y385093D01*
Y385749D01*
X62487Y386405D01*
X60519D01*
X62487D01*
X63143Y387061D01*
Y387717D01*
X62487Y388373D01*
X60519D01*
X13437Y375905D02*
X16061D01*
X72437Y378405D02*
X75061D01*
X73749Y379717D02*
Y377093D01*
X81937Y377905D02*
X84561D01*
X46937Y353405D02*
X49561D01*
X48249Y354717D02*
Y352093D01*
X41937Y332405D02*
X44561D01*
X43249Y333717D02*
Y331093D01*
X68937Y358905D02*
X71561D01*
X70249Y360217D02*
Y357593D01*
X49437Y332405D02*
X52061D01*
X45937Y363905D02*
X48561D01*
X83437Y357905D02*
X86061D01*
X10937Y387873D02*
Y383937D01*
X13561D01*
X17497Y387873D02*
X14873D01*
Y383937D01*
X17497D01*
X14873Y385905D02*
X16185D01*
X18809Y387873D02*
Y383937D01*
X20776D01*
X21432Y384593D01*
Y387217D01*
X20776Y387873D01*
X18809D01*
X74437Y389373D02*
Y385437D01*
X77061D01*
X80997Y389373D02*
X78373D01*
Y385437D01*
X80997D01*
X78373Y387405D02*
X79685D01*
X82309Y389373D02*
Y385437D01*
X84276D01*
X84932Y386093D01*
Y388717D01*
X84276Y389373D01*
X82309D01*
X372937D02*
Y385437D01*
X375561D01*
X379497Y389373D02*
X376873D01*
Y385437D01*
X379497D01*
X376873Y387405D02*
X378185D01*
X380808Y389373D02*
Y385437D01*
X382776D01*
X383432Y386093D01*
Y388717D01*
X382776Y389373D01*
X380808D01*
X309437Y387873D02*
Y383937D01*
X312061D01*
X315997Y387873D02*
X313373D01*
Y383937D01*
X315997D01*
X313373Y385905D02*
X314685D01*
X317308Y387873D02*
Y383937D01*
X319276D01*
X319932Y384593D01*
Y387217D01*
X319276Y387873D01*
X317308D01*
X381937Y357905D02*
X384561D01*
X344437Y363905D02*
X347061D01*
X347937Y332405D02*
X350561D01*
X367437Y358905D02*
X370061D01*
X368749Y360217D02*
Y357593D01*
X340437Y332405D02*
X343061D01*
X341749Y333717D02*
Y331093D01*
X345437Y353405D02*
X348061D01*
X346749Y354717D02*
Y352093D01*
X380437Y377905D02*
X383061D01*
X370937Y378405D02*
X373561D01*
X372249Y379717D02*
Y377093D01*
X311937Y375905D02*
X314561D01*
X333437Y384437D02*
Y387061D01*
X334749Y388373D01*
X336061Y387061D01*
Y384437D01*
Y386405D01*
X333437D01*
X337373Y384437D02*
Y385093D01*
X338029D01*
Y384437D01*
X337373D01*
X340652Y388373D02*
X341964D01*
X341308D01*
Y384437D01*
X340652D01*
X341964D01*
X343932D02*
Y385093D01*
X344588D01*
Y384437D01*
X343932D01*
X351148D02*
Y388373D01*
X353116D01*
X353772Y387717D01*
Y386405D01*
X353116Y385749D01*
X351148D01*
X357707Y387717D02*
X357051Y388373D01*
X355739D01*
X355084Y387717D01*
Y385093D01*
X355739Y384437D01*
X357051D01*
X357707Y385093D01*
X359019Y388373D02*
Y384437D01*
X360987D01*
X361643Y385093D01*
Y385749D01*
X360987Y386405D01*
X359019D01*
X360987D01*
X361643Y387061D01*
Y387717D01*
X360987Y388373D01*
X359019D01*
X318937Y376405D02*
X321561D01*
X320249Y377717D02*
Y375093D01*
X273437Y389373D02*
Y385437D01*
X276061D01*
X279997Y389373D02*
X277373D01*
Y385437D01*
X279997D01*
X277373Y387405D02*
X278685D01*
X281309Y389373D02*
Y385437D01*
X283276D01*
X283932Y386093D01*
Y388717D01*
X283276Y389373D01*
X281309D01*
X209937Y387873D02*
Y383937D01*
X212561D01*
X216497Y387873D02*
X213873D01*
Y383937D01*
X216497D01*
X213873Y385905D02*
X215185D01*
X217809Y387873D02*
Y383937D01*
X219776D01*
X220432Y384593D01*
Y387217D01*
X219776Y387873D01*
X217809D01*
X282437Y357905D02*
X285061D01*
X244937Y363905D02*
X247561D01*
X248437Y332405D02*
X251061D01*
X267937Y358905D02*
X270561D01*
X269249Y360217D02*
Y357593D01*
X240937Y332405D02*
X243561D01*
X242249Y333717D02*
Y331093D01*
X245937Y353405D02*
X248561D01*
X247249Y354717D02*
Y352093D01*
X280937Y377905D02*
X283561D01*
X271437Y378405D02*
X274061D01*
X272749Y379717D02*
Y377093D01*
X212437Y375905D02*
X215061D01*
X233937Y384437D02*
Y387061D01*
X235249Y388373D01*
X236561Y387061D01*
Y384437D01*
Y386405D01*
X233937D01*
X237873Y384437D02*
Y385093D01*
X238529D01*
Y384437D01*
X237873D01*
X241153Y388373D02*
X242464D01*
X241809D01*
Y384437D01*
X241153D01*
X242464D01*
X244432D02*
Y385093D01*
X245088D01*
Y384437D01*
X244432D01*
X251648D02*
Y388373D01*
X253616D01*
X254272Y387717D01*
Y386405D01*
X253616Y385749D01*
X251648D01*
X258207Y387717D02*
X257551Y388373D01*
X256240D01*
X255584Y387717D01*
Y385093D01*
X256240Y384437D01*
X257551D01*
X258207Y385093D01*
X259519Y388373D02*
Y384437D01*
X261487D01*
X262143Y385093D01*
Y385749D01*
X261487Y386405D01*
X259519D01*
X261487D01*
X262143Y387061D01*
Y387717D01*
X261487Y388373D01*
X259519D01*
X219437Y376405D02*
X222061D01*
X220749Y377717D02*
Y375093D01*
X173437Y389373D02*
Y385437D01*
X176061D01*
X179997Y389373D02*
X177373D01*
Y385437D01*
X179997D01*
X177373Y387405D02*
X178685D01*
X181308Y389373D02*
Y385437D01*
X183276D01*
X183932Y386093D01*
Y388717D01*
X183276Y389373D01*
X181308D01*
X109937Y387873D02*
Y383937D01*
X112561D01*
X116497Y387873D02*
X113873D01*
Y383937D01*
X116497D01*
X113873Y385905D02*
X115185D01*
X117808Y387873D02*
Y383937D01*
X119776D01*
X120432Y384593D01*
Y387217D01*
X119776Y387873D01*
X117808D01*
X182437Y357905D02*
X185061D01*
X144937Y363905D02*
X147561D01*
X148437Y332405D02*
X151061D01*
X167937Y358905D02*
X170561D01*
X169249Y360217D02*
Y357593D01*
X140937Y332405D02*
X143561D01*
X142249Y333717D02*
Y331093D01*
X145937Y353405D02*
X148561D01*
X147249Y354717D02*
Y352093D01*
X180937Y377905D02*
X183561D01*
X171437Y378405D02*
X174061D01*
X172749Y379717D02*
Y377093D01*
X112437Y375905D02*
X115061D01*
X133937Y384437D02*
Y387061D01*
X135249Y388373D01*
X136561Y387061D01*
Y384437D01*
Y386405D01*
X133937D01*
X137873Y384437D02*
Y385093D01*
X138529D01*
Y384437D01*
X137873D01*
X141153Y388373D02*
X142464D01*
X141808D01*
Y384437D01*
X141153D01*
X142464D01*
X144432D02*
Y385093D01*
X145088D01*
Y384437D01*
X144432D01*
X151648D02*
Y388373D01*
X153616D01*
X154272Y387717D01*
Y386405D01*
X153616Y385749D01*
X151648D01*
X158207Y387717D02*
X157551Y388373D01*
X156239D01*
X155584Y387717D01*
Y385093D01*
X156239Y384437D01*
X157551D01*
X158207Y385093D01*
X159519Y388373D02*
Y384437D01*
X161487D01*
X162143Y385093D01*
Y385749D01*
X161487Y386405D01*
X159519D01*
X161487D01*
X162143Y387061D01*
Y387717D01*
X161487Y388373D01*
X159519D01*
X119437Y376405D02*
X122061D01*
X120749Y377717D02*
Y375093D01*
X119437Y58405D02*
X122061D01*
X120749Y59717D02*
Y57093D01*
X133937Y66437D02*
Y69061D01*
X135249Y70373D01*
X136561Y69061D01*
Y66437D01*
Y68405D01*
X133937D01*
X137873Y66437D02*
Y67093D01*
X138529D01*
Y66437D01*
X137873D01*
X141153Y70373D02*
X142464D01*
X141808D01*
Y66437D01*
X141153D01*
X142464D01*
X144432D02*
Y67093D01*
X145088D01*
Y66437D01*
X144432D01*
X151648D02*
Y70373D01*
X153616D01*
X154272Y69717D01*
Y68405D01*
X153616Y67749D01*
X151648D01*
X158207Y69717D02*
X157551Y70373D01*
X156239D01*
X155584Y69717D01*
Y67093D01*
X156239Y66437D01*
X157551D01*
X158207Y67093D01*
X159519Y70373D02*
Y66437D01*
X161487D01*
X162143Y67093D01*
Y67749D01*
X161487Y68405D01*
X159519D01*
X161487D01*
X162143Y69061D01*
Y69717D01*
X161487Y70373D01*
X159519D01*
X112437Y57905D02*
X115061D01*
X171437Y60405D02*
X174061D01*
X172749Y61717D02*
Y59093D01*
X180937Y59905D02*
X183561D01*
X145937Y35405D02*
X148561D01*
X147249Y36717D02*
Y34093D01*
X140937Y14405D02*
X143561D01*
X142249Y15717D02*
Y13093D01*
X167937Y40905D02*
X170561D01*
X169249Y42217D02*
Y39593D01*
X148437Y14405D02*
X151061D01*
X144937Y45905D02*
X147561D01*
X182437Y39905D02*
X185061D01*
X109937Y69873D02*
Y65937D01*
X112561D01*
X116497Y69873D02*
X113873D01*
Y65937D01*
X116497D01*
X113873Y67905D02*
X115185D01*
X117808Y69873D02*
Y65937D01*
X119776D01*
X120432Y66593D01*
Y69217D01*
X119776Y69873D01*
X117808D01*
X173437Y71373D02*
Y67437D01*
X176061D01*
X179997Y71373D02*
X177373D01*
Y67437D01*
X179997D01*
X177373Y69405D02*
X178685D01*
X181308Y71373D02*
Y67437D01*
X183276D01*
X183932Y68093D01*
Y70717D01*
X183276Y71373D01*
X181308D01*
X219437Y58405D02*
X222061D01*
X220749Y59717D02*
Y57093D01*
X233937Y66437D02*
Y69061D01*
X235249Y70373D01*
X236561Y69061D01*
Y66437D01*
Y68405D01*
X233937D01*
X237873Y66437D02*
Y67093D01*
X238529D01*
Y66437D01*
X237873D01*
X241153Y70373D02*
X242464D01*
X241809D01*
Y66437D01*
X241153D01*
X242464D01*
X244432D02*
Y67093D01*
X245088D01*
Y66437D01*
X244432D01*
X251648D02*
Y70373D01*
X253616D01*
X254272Y69717D01*
Y68405D01*
X253616Y67749D01*
X251648D01*
X258207Y69717D02*
X257551Y70373D01*
X256240D01*
X255584Y69717D01*
Y67093D01*
X256240Y66437D01*
X257551D01*
X258207Y67093D01*
X259519Y70373D02*
Y66437D01*
X261487D01*
X262143Y67093D01*
Y67749D01*
X261487Y68405D01*
X259519D01*
X261487D01*
X262143Y69061D01*
Y69717D01*
X261487Y70373D01*
X259519D01*
X212437Y57905D02*
X215061D01*
X271437Y60405D02*
X274061D01*
X272749Y61717D02*
Y59093D01*
X280937Y59905D02*
X283561D01*
X245937Y35405D02*
X248561D01*
X247249Y36717D02*
Y34093D01*
X240937Y14405D02*
X243561D01*
X242249Y15717D02*
Y13093D01*
X267937Y40905D02*
X270561D01*
X269249Y42217D02*
Y39593D01*
X248437Y14405D02*
X251061D01*
X244937Y45905D02*
X247561D01*
X282437Y39905D02*
X285061D01*
X209937Y69873D02*
Y65937D01*
X212561D01*
X216497Y69873D02*
X213873D01*
Y65937D01*
X216497D01*
X213873Y67905D02*
X215185D01*
X217809Y69873D02*
Y65937D01*
X219776D01*
X220432Y66593D01*
Y69217D01*
X219776Y69873D01*
X217809D01*
X273437Y71373D02*
Y67437D01*
X276061D01*
X279997Y71373D02*
X277373D01*
Y67437D01*
X279997D01*
X277373Y69405D02*
X278685D01*
X281309Y71373D02*
Y67437D01*
X283276D01*
X283932Y68093D01*
Y70717D01*
X283276Y71373D01*
X281309D01*
X318937Y58405D02*
X321561D01*
X320249Y59717D02*
Y57093D01*
X333437Y66437D02*
Y69061D01*
X334749Y70373D01*
X336061Y69061D01*
Y66437D01*
Y68405D01*
X333437D01*
X337373Y66437D02*
Y67093D01*
X338029D01*
Y66437D01*
X337373D01*
X340652Y70373D02*
X341964D01*
X341308D01*
Y66437D01*
X340652D01*
X341964D01*
X343932D02*
Y67093D01*
X344588D01*
Y66437D01*
X343932D01*
X351148D02*
Y70373D01*
X353116D01*
X353772Y69717D01*
Y68405D01*
X353116Y67749D01*
X351148D01*
X357707Y69717D02*
X357051Y70373D01*
X355739D01*
X355084Y69717D01*
Y67093D01*
X355739Y66437D01*
X357051D01*
X357707Y67093D01*
X359019Y70373D02*
Y66437D01*
X360987D01*
X361643Y67093D01*
Y67749D01*
X360987Y68405D01*
X359019D01*
X360987D01*
X361643Y69061D01*
Y69717D01*
X360987Y70373D01*
X359019D01*
X311937Y57905D02*
X314561D01*
X370937Y60405D02*
X373561D01*
X372249Y61717D02*
Y59093D01*
X380437Y59905D02*
X383061D01*
X345437Y35405D02*
X348061D01*
X346749Y36717D02*
Y34093D01*
X340437Y14405D02*
X343061D01*
X341749Y15717D02*
Y13093D01*
X367437Y40905D02*
X370061D01*
X368749Y42217D02*
Y39593D01*
X347937Y14405D02*
X350561D01*
X344437Y45905D02*
X347061D01*
X381937Y39905D02*
X384561D01*
X309437Y69873D02*
Y65937D01*
X312061D01*
X315997Y69873D02*
X313373D01*
Y65937D01*
X315997D01*
X313373Y67905D02*
X314685D01*
X317308Y69873D02*
Y65937D01*
X319276D01*
X319932Y66593D01*
Y69217D01*
X319276Y69873D01*
X317308D01*
X372937Y71373D02*
Y67437D01*
X375561D01*
X379497Y71373D02*
X376873D01*
Y67437D01*
X379497D01*
X376873Y69405D02*
X378185D01*
X380808Y71373D02*
Y67437D01*
X382776D01*
X383432Y68093D01*
Y70717D01*
X382776Y71373D01*
X380808D01*
X74437D02*
Y67437D01*
X77061D01*
X80997Y71373D02*
X78373D01*
Y67437D01*
X80997D01*
X78373Y69405D02*
X79685D01*
X82309Y71373D02*
Y67437D01*
X84276D01*
X84932Y68093D01*
Y70717D01*
X84276Y71373D01*
X82309D01*
X10937Y69873D02*
Y65937D01*
X13561D01*
X17497Y69873D02*
X14873D01*
Y65937D01*
X17497D01*
X14873Y67905D02*
X16185D01*
X18809Y69873D02*
Y65937D01*
X20776D01*
X21432Y66593D01*
Y69217D01*
X20776Y69873D01*
X18809D01*
X83437Y39905D02*
X86061D01*
X45937Y45905D02*
X48561D01*
X49437Y14405D02*
X52061D01*
X68937Y40905D02*
X71561D01*
X70249Y42217D02*
Y39593D01*
X41937Y14405D02*
X44561D01*
X43249Y15717D02*
Y13093D01*
X46937Y35405D02*
X49561D01*
X48249Y36717D02*
Y34093D01*
X81937Y59905D02*
X84561D01*
X72437Y60405D02*
X75061D01*
X73749Y61717D02*
Y59093D01*
X13437Y57905D02*
X16061D01*
X34937Y66437D02*
Y69061D01*
X36249Y70373D01*
X37561Y69061D01*
Y66437D01*
Y68405D01*
X34937D01*
X38873Y66437D02*
Y67093D01*
X39529D01*
Y66437D01*
X38873D01*
X42153Y70373D02*
X43464D01*
X42808D01*
Y66437D01*
X42153D01*
X43464D01*
X45432D02*
Y67093D01*
X46088D01*
Y66437D01*
X45432D01*
X52648D02*
Y70373D01*
X54616D01*
X55272Y69717D01*
Y68405D01*
X54616Y67749D01*
X52648D01*
X59207Y69717D02*
X58551Y70373D01*
X57240D01*
X56584Y69717D01*
Y67093D01*
X57240Y66437D01*
X58551D01*
X59207Y67093D01*
X60519Y70373D02*
Y66437D01*
X62487D01*
X63143Y67093D01*
Y67749D01*
X62487Y68405D01*
X60519D01*
X62487D01*
X63143Y69061D01*
Y69717D01*
X62487Y70373D01*
X60519D01*
X20437Y58405D02*
X23061D01*
X21749Y59717D02*
Y57093D01*
D19*
X53598Y98211D02*
G03*
X39797Y99169I-7161J-3274D01*
G01*
Y90705D02*
G03*
X53598Y91663I6640J4232D01*
G01*
X44163Y127598D02*
G03*
X43205Y113797I3274J-7161D01*
G01*
X51669D02*
G03*
X50711Y127598I-4232J6640D01*
G01*
X342663D02*
G03*
X341705Y113797I3274J-7161D01*
G01*
X350169D02*
G03*
X349211Y127598I-4232J6640D01*
G01*
X352098Y98211D02*
G03*
X338297Y99169I-7161J-3274D01*
G01*
Y90705D02*
G03*
X352098Y91663I6640J4232D01*
G01*
X243163Y127598D02*
G03*
X242205Y113797I3274J-7161D01*
G01*
X250669D02*
G03*
X249711Y127598I-4232J6640D01*
G01*
X252598Y98211D02*
G03*
X238797Y99169I-7161J-3274D01*
G01*
Y90705D02*
G03*
X252598Y91663I6640J4232D01*
G01*
X143163Y127598D02*
G03*
X142205Y113797I3274J-7161D01*
G01*
X150669D02*
G03*
X149711Y127598I-4232J6640D01*
G01*
X152598Y98211D02*
G03*
X138797Y99169I-7161J-3274D01*
G01*
Y90705D02*
G03*
X152598Y91663I6640J4232D01*
G01*
X54098Y177711D02*
G03*
X40297Y178669I-7161J-3274D01*
G01*
Y170205D02*
G03*
X54098Y171163I6640J4232D01*
G01*
X44663Y207098D02*
G03*
X43705Y193297I3274J-7161D01*
G01*
X52169D02*
G03*
X51211Y207098I-4232J6640D01*
G01*
X343163D02*
G03*
X342205Y193297I3274J-7161D01*
G01*
X350669D02*
G03*
X349711Y207098I-4232J6640D01*
G01*
X352598Y177711D02*
G03*
X338797Y178669I-7161J-3274D01*
G01*
Y170205D02*
G03*
X352598Y171163I6640J4232D01*
G01*
X243663Y207098D02*
G03*
X242705Y193297I3274J-7161D01*
G01*
X251169D02*
G03*
X250211Y207098I-4232J6640D01*
G01*
X253098Y177711D02*
G03*
X239297Y178669I-7161J-3274D01*
G01*
Y170205D02*
G03*
X253098Y171163I6640J4232D01*
G01*
X143663Y207098D02*
G03*
X142705Y193297I3274J-7161D01*
G01*
X151169D02*
G03*
X150211Y207098I-4232J6640D01*
G01*
X153098Y177711D02*
G03*
X139297Y178669I-7161J-3274D01*
G01*
Y170205D02*
G03*
X153098Y171163I6640J4232D01*
G01*
X54098Y257211D02*
G03*
X40297Y258169I-7161J-3274D01*
G01*
Y249705D02*
G03*
X54098Y250663I6640J4232D01*
G01*
X44663Y286598D02*
G03*
X43705Y272797I3274J-7161D01*
G01*
X52169D02*
G03*
X51211Y286598I-4232J6640D01*
G01*
X343163D02*
G03*
X342205Y272797I3274J-7161D01*
G01*
X350669D02*
G03*
X349711Y286598I-4232J6640D01*
G01*
X352598Y257211D02*
G03*
X338797Y258169I-7161J-3274D01*
G01*
Y249705D02*
G03*
X352598Y250663I6640J4232D01*
G01*
X243663Y286598D02*
G03*
X242705Y272797I3274J-7161D01*
G01*
X251169D02*
G03*
X250211Y286598I-4232J6640D01*
G01*
X253098Y257211D02*
G03*
X239297Y258169I-7161J-3274D01*
G01*
Y249705D02*
G03*
X253098Y250663I6640J4232D01*
G01*
X143663Y286598D02*
G03*
X142705Y272797I3274J-7161D01*
G01*
X151169D02*
G03*
X150211Y286598I-4232J6640D01*
G01*
X153098Y257211D02*
G03*
X139297Y258169I-7161J-3274D01*
G01*
Y249705D02*
G03*
X153098Y250663I6640J4232D01*
G01*
X54098Y335711D02*
G03*
X40297Y336669I-7161J-3274D01*
G01*
Y328205D02*
G03*
X54098Y329163I6640J4232D01*
G01*
X44663Y365098D02*
G03*
X43705Y351297I3274J-7161D01*
G01*
X52169D02*
G03*
X51211Y365098I-4232J6640D01*
G01*
X343163D02*
G03*
X342205Y351297I3274J-7161D01*
G01*
X350669D02*
G03*
X349711Y365098I-4232J6640D01*
G01*
X352598Y335711D02*
G03*
X338797Y336669I-7161J-3274D01*
G01*
Y328205D02*
G03*
X352598Y329163I6640J4232D01*
G01*
X243663Y365098D02*
G03*
X242705Y351297I3274J-7161D01*
G01*
X251169D02*
G03*
X250211Y365098I-4232J6640D01*
G01*
X253098Y335711D02*
G03*
X239297Y336669I-7161J-3274D01*
G01*
Y328205D02*
G03*
X253098Y329163I6640J4232D01*
G01*
X143663Y365098D02*
G03*
X142705Y351297I3274J-7161D01*
G01*
X151169D02*
G03*
X150211Y365098I-4232J6640D01*
G01*
X153098Y335711D02*
G03*
X139297Y336669I-7161J-3274D01*
G01*
Y328205D02*
G03*
X153098Y329163I6640J4232D01*
G01*
Y17711D02*
G03*
X139297Y18669I-7161J-3274D01*
G01*
Y10205D02*
G03*
X153098Y11163I6640J4232D01*
G01*
X143663Y47098D02*
G03*
X142705Y33297I3274J-7161D01*
G01*
X151169D02*
G03*
X150211Y47098I-4232J6640D01*
G01*
X253098Y17711D02*
G03*
X239297Y18669I-7161J-3274D01*
G01*
Y10205D02*
G03*
X253098Y11163I6640J4232D01*
G01*
X243663Y47098D02*
G03*
X242705Y33297I3274J-7161D01*
G01*
X251169D02*
G03*
X250211Y47098I-4232J6640D01*
G01*
X352598Y17711D02*
G03*
X338797Y18669I-7161J-3274D01*
G01*
Y10205D02*
G03*
X352598Y11163I6640J4232D01*
G01*
X343163Y47098D02*
G03*
X342205Y33297I3274J-7161D01*
G01*
X350669D02*
G03*
X349711Y47098I-4232J6640D01*
G01*
X54098Y17711D02*
G03*
X40297Y18669I-7161J-3274D01*
G01*
Y10205D02*
G03*
X54098Y11163I6640J4232D01*
G01*
X44663Y47098D02*
G03*
X43705Y33297I3274J-7161D01*
G01*
X52169D02*
G03*
X51211Y47098I-4232J6640D01*
G01*
X87937Y108937D02*
Y118937D01*
X67937Y108937D02*
X87937D01*
X67937D02*
Y118937D01*
X87937D01*
X30937Y135437D02*
X33937D01*
X30937Y115437D02*
Y135437D01*
Y115437D02*
X36937D01*
Y135437D01*
X33937D02*
X36937D01*
X33937Y114537D02*
Y115437D01*
Y135437D02*
Y136337D01*
X57937Y135437D02*
X60937D01*
X57937Y115437D02*
Y135437D01*
Y115437D02*
X63937D01*
Y135437D01*
X60937D02*
X63937D01*
X60937Y114537D02*
Y115437D01*
Y135437D02*
Y136337D01*
X356437Y135437D02*
X359437D01*
X356437Y115437D02*
Y135437D01*
Y115437D02*
X362437D01*
Y135437D01*
X359437D02*
X362437D01*
X359437Y114537D02*
Y115437D01*
Y135437D02*
Y136337D01*
X329437Y135437D02*
X332437D01*
X329437Y115437D02*
Y135437D01*
Y115437D02*
X335437D01*
Y135437D01*
X332437D02*
X335437D01*
X332437Y114537D02*
Y115437D01*
Y135437D02*
Y136337D01*
X386437Y108937D02*
Y118937D01*
X366437Y108937D02*
X386437D01*
X366437D02*
Y118937D01*
X386437D01*
X256937Y135437D02*
X259937D01*
X256937Y115437D02*
Y135437D01*
Y115437D02*
X262937D01*
Y135437D01*
X259937D02*
X262937D01*
X259937Y114537D02*
Y115437D01*
Y135437D02*
Y136337D01*
X229937Y135437D02*
X232937D01*
X229937Y115437D02*
Y135437D01*
Y115437D02*
X235937D01*
Y135437D01*
X232937D02*
X235937D01*
X232937Y114537D02*
Y115437D01*
Y135437D02*
Y136337D01*
X286937Y108937D02*
Y118937D01*
X266937Y108937D02*
X286937D01*
X266937D02*
Y118937D01*
X286937D01*
X156937Y135437D02*
X159937D01*
X156937Y115437D02*
Y135437D01*
Y115437D02*
X162937D01*
Y135437D01*
X159937D02*
X162937D01*
X159937Y114537D02*
Y115437D01*
Y135437D02*
Y136337D01*
X129937Y135437D02*
X132937D01*
X129937Y115437D02*
Y135437D01*
Y115437D02*
X135937D01*
Y135437D01*
X132937D02*
X135937D01*
X132937Y114537D02*
Y115437D01*
Y135437D02*
Y136337D01*
X186937Y108937D02*
Y118937D01*
X166937Y108937D02*
X186937D01*
X166937D02*
Y118937D01*
X186937D01*
X88437Y188437D02*
Y198437D01*
X68437Y188437D02*
X88437D01*
X68437D02*
Y198437D01*
X88437D01*
X31437Y214937D02*
X34437D01*
X31437Y194937D02*
Y214937D01*
Y194937D02*
X37437D01*
Y214937D01*
X34437D02*
X37437D01*
X34437Y194037D02*
Y194937D01*
Y214937D02*
Y215837D01*
X58437Y214937D02*
X61437D01*
X58437Y194937D02*
Y214937D01*
Y194937D02*
X64437D01*
Y214937D01*
X61437D02*
X64437D01*
X61437Y194037D02*
Y194937D01*
Y214937D02*
Y215837D01*
X356937Y214937D02*
X359937D01*
X356937Y194937D02*
Y214937D01*
Y194937D02*
X362937D01*
Y214937D01*
X359937D02*
X362937D01*
X359937Y194037D02*
Y194937D01*
Y214937D02*
Y215837D01*
X329937Y214937D02*
X332937D01*
X329937Y194937D02*
Y214937D01*
Y194937D02*
X335937D01*
Y214937D01*
X332937D02*
X335937D01*
X332937Y194037D02*
Y194937D01*
Y214937D02*
Y215837D01*
X386937Y188437D02*
Y198437D01*
X366937Y188437D02*
X386937D01*
X366937D02*
Y198437D01*
X386937D01*
X257437Y214937D02*
X260437D01*
X257437Y194937D02*
Y214937D01*
Y194937D02*
X263437D01*
Y214937D01*
X260437D02*
X263437D01*
X260437Y194037D02*
Y194937D01*
Y214937D02*
Y215837D01*
X230437Y214937D02*
X233437D01*
X230437Y194937D02*
Y214937D01*
Y194937D02*
X236437D01*
Y214937D01*
X233437D02*
X236437D01*
X233437Y194037D02*
Y194937D01*
Y214937D02*
Y215837D01*
X287437Y188437D02*
Y198437D01*
X267437Y188437D02*
X287437D01*
X267437D02*
Y198437D01*
X287437D01*
X157437Y214937D02*
X160437D01*
X157437Y194937D02*
Y214937D01*
Y194937D02*
X163437D01*
Y214937D01*
X160437D02*
X163437D01*
X160437Y194037D02*
Y194937D01*
Y214937D02*
Y215837D01*
X130437Y214937D02*
X133437D01*
X130437Y194937D02*
Y214937D01*
Y194937D02*
X136437D01*
Y214937D01*
X133437D02*
X136437D01*
X133437Y194037D02*
Y194937D01*
Y214937D02*
Y215837D01*
X187437Y188437D02*
Y198437D01*
X167437Y188437D02*
X187437D01*
X167437D02*
Y198437D01*
X187437D01*
X88437Y267937D02*
Y277937D01*
X68437Y267937D02*
X88437D01*
X68437D02*
Y277937D01*
X88437D01*
X31437Y294437D02*
X34437D01*
X31437Y274437D02*
Y294437D01*
Y274437D02*
X37437D01*
Y294437D01*
X34437D02*
X37437D01*
X34437Y273537D02*
Y274437D01*
Y294437D02*
Y295337D01*
X58437Y294437D02*
X61437D01*
X58437Y274437D02*
Y294437D01*
Y274437D02*
X64437D01*
Y294437D01*
X61437D02*
X64437D01*
X61437Y273537D02*
Y274437D01*
Y294437D02*
Y295337D01*
X356937Y294437D02*
X359937D01*
X356937Y274437D02*
Y294437D01*
Y274437D02*
X362937D01*
Y294437D01*
X359937D02*
X362937D01*
X359937Y273537D02*
Y274437D01*
Y294437D02*
Y295337D01*
X329937Y294437D02*
X332937D01*
X329937Y274437D02*
Y294437D01*
Y274437D02*
X335937D01*
Y294437D01*
X332937D02*
X335937D01*
X332937Y273537D02*
Y274437D01*
Y294437D02*
Y295337D01*
X386937Y267937D02*
Y277937D01*
X366937Y267937D02*
X386937D01*
X366937D02*
Y277937D01*
X386937D01*
X257437Y294437D02*
X260437D01*
X257437Y274437D02*
Y294437D01*
Y274437D02*
X263437D01*
Y294437D01*
X260437D02*
X263437D01*
X260437Y273537D02*
Y274437D01*
Y294437D02*
Y295337D01*
X230437Y294437D02*
X233437D01*
X230437Y274437D02*
Y294437D01*
Y274437D02*
X236437D01*
Y294437D01*
X233437D02*
X236437D01*
X233437Y273537D02*
Y274437D01*
Y294437D02*
Y295337D01*
X287437Y267937D02*
Y277937D01*
X267437Y267937D02*
X287437D01*
X267437D02*
Y277937D01*
X287437D01*
X157437Y294437D02*
X160437D01*
X157437Y274437D02*
Y294437D01*
Y274437D02*
X163437D01*
Y294437D01*
X160437D02*
X163437D01*
X160437Y273537D02*
Y274437D01*
Y294437D02*
Y295337D01*
X130437Y294437D02*
X133437D01*
X130437Y274437D02*
Y294437D01*
Y274437D02*
X136437D01*
Y294437D01*
X133437D02*
X136437D01*
X133437Y273537D02*
Y274437D01*
Y294437D02*
Y295337D01*
X187437Y267937D02*
Y277937D01*
X167437Y267937D02*
X187437D01*
X167437D02*
Y277937D01*
X187437D01*
X88437Y346437D02*
Y356437D01*
X68437Y346437D02*
X88437D01*
X68437D02*
Y356437D01*
X88437D01*
X31437Y372937D02*
X34437D01*
X31437Y352937D02*
Y372937D01*
Y352937D02*
X37437D01*
Y372937D01*
X34437D02*
X37437D01*
X34437Y352037D02*
Y352937D01*
Y372937D02*
Y373837D01*
X58437Y372937D02*
X61437D01*
X58437Y352937D02*
Y372937D01*
Y352937D02*
X64437D01*
Y372937D01*
X61437D02*
X64437D01*
X61437Y352037D02*
Y352937D01*
Y372937D02*
Y373837D01*
X356937Y372937D02*
X359937D01*
X356937Y352937D02*
Y372937D01*
Y352937D02*
X362937D01*
Y372937D01*
X359937D02*
X362937D01*
X359937Y352037D02*
Y352937D01*
Y372937D02*
Y373837D01*
X329937Y372937D02*
X332937D01*
X329937Y352937D02*
Y372937D01*
Y352937D02*
X335937D01*
Y372937D01*
X332937D02*
X335937D01*
X332937Y352037D02*
Y352937D01*
Y372937D02*
Y373837D01*
X386937Y346437D02*
Y356437D01*
X366937Y346437D02*
X386937D01*
X366937D02*
Y356437D01*
X386937D01*
X257437Y372937D02*
X260437D01*
X257437Y352937D02*
Y372937D01*
Y352937D02*
X263437D01*
Y372937D01*
X260437D02*
X263437D01*
X260437Y352037D02*
Y352937D01*
Y372937D02*
Y373837D01*
X230437Y372937D02*
X233437D01*
X230437Y352937D02*
Y372937D01*
Y352937D02*
X236437D01*
Y372937D01*
X233437D02*
X236437D01*
X233437Y352037D02*
Y352937D01*
Y372937D02*
Y373837D01*
X287437Y346437D02*
Y356437D01*
X267437Y346437D02*
X287437D01*
X267437D02*
Y356437D01*
X287437D01*
X157437Y372937D02*
X160437D01*
X157437Y352937D02*
Y372937D01*
Y352937D02*
X163437D01*
Y372937D01*
X160437D02*
X163437D01*
X160437Y352037D02*
Y352937D01*
Y372937D02*
Y373837D01*
X130437Y372937D02*
X133437D01*
X130437Y352937D02*
Y372937D01*
Y352937D02*
X136437D01*
Y372937D01*
X133437D02*
X136437D01*
X133437Y352037D02*
Y352937D01*
Y372937D02*
Y373837D01*
X187437Y346437D02*
Y356437D01*
X167437Y346437D02*
X187437D01*
X167437D02*
Y356437D01*
X187437D01*
Y28437D02*
Y38437D01*
X167437Y28437D02*
X187437D01*
X167437D02*
Y38437D01*
X187437D01*
X130437Y54937D02*
X133437D01*
X130437Y34937D02*
Y54937D01*
Y34937D02*
X136437D01*
Y54937D01*
X133437D02*
X136437D01*
X133437Y34037D02*
Y34937D01*
Y54937D02*
Y55837D01*
X157437Y54937D02*
X160437D01*
X157437Y34937D02*
Y54937D01*
Y34937D02*
X163437D01*
Y54937D01*
X160437D02*
X163437D01*
X160437Y34037D02*
Y34937D01*
Y54937D02*
Y55837D01*
X287437Y28437D02*
Y38437D01*
X267437Y28437D02*
X287437D01*
X267437D02*
Y38437D01*
X287437D01*
X230437Y54937D02*
X233437D01*
X230437Y34937D02*
Y54937D01*
Y34937D02*
X236437D01*
Y54937D01*
X233437D02*
X236437D01*
X233437Y34037D02*
Y34937D01*
Y54937D02*
Y55837D01*
X257437Y54937D02*
X260437D01*
X257437Y34937D02*
Y54937D01*
Y34937D02*
X263437D01*
Y54937D01*
X260437D02*
X263437D01*
X260437Y34037D02*
Y34937D01*
Y54937D02*
Y55837D01*
X386937Y28437D02*
Y38437D01*
X366937Y28437D02*
X386937D01*
X366937D02*
Y38437D01*
X386937D01*
X329937Y54937D02*
X332937D01*
X329937Y34937D02*
Y54937D01*
Y34937D02*
X335937D01*
Y54937D01*
X332937D02*
X335937D01*
X332937Y34037D02*
Y34937D01*
Y54937D02*
Y55837D01*
X356937Y54937D02*
X359937D01*
X356937Y34937D02*
Y54937D01*
Y34937D02*
X362937D01*
Y54937D01*
X359937D02*
X362937D01*
X359937Y34037D02*
Y34937D01*
Y54937D02*
Y55837D01*
X58437Y54937D02*
X61437D01*
X58437Y34937D02*
Y54937D01*
Y34937D02*
X64437D01*
Y54937D01*
X61437D02*
X64437D01*
X61437Y34037D02*
Y34937D01*
Y54937D02*
Y55837D01*
X31437Y54937D02*
X34437D01*
X31437Y34937D02*
Y54937D01*
Y34937D02*
X37437D01*
Y54937D01*
X34437D02*
X37437D01*
X34437Y34037D02*
Y34937D01*
Y54937D02*
Y55837D01*
X88437Y28437D02*
Y38437D01*
X68437Y28437D02*
X88437D01*
X68437D02*
Y38437D01*
X88437D01*
X84437Y106717D02*
X85093Y107373D01*
X86405D01*
X87061Y106717D01*
Y106061D01*
X86405Y105405D01*
X85749D01*
X86405D01*
X87061Y104749D01*
Y104093D01*
X86405Y103437D01*
X85093D01*
X84437Y104093D01*
X88373Y107373D02*
Y104749D01*
X89685Y103437D01*
X90997Y104749D01*
Y107373D01*
X32657Y120937D02*
X32001Y121593D01*
Y122905D01*
X32657Y123561D01*
X33313D01*
X33969Y122905D01*
Y122249D01*
Y122905D01*
X34625Y123561D01*
X35281D01*
X35937Y122905D01*
Y121593D01*
X35281Y120937D01*
X32657Y124873D02*
X32001Y125529D01*
Y126841D01*
X32657Y127497D01*
X33313D01*
X33969Y126841D01*
Y126185D01*
Y126841D01*
X34625Y127497D01*
X35281D01*
X35937Y126841D01*
Y125529D01*
X35281Y124873D01*
X32001Y128808D02*
X35937D01*
X34625D01*
X32001Y131432D01*
X33969Y129464D01*
X35937Y131432D01*
X59657Y122437D02*
X59001Y123093D01*
Y124405D01*
X59657Y125061D01*
X60313D01*
X60969Y124405D01*
Y123749D01*
Y124405D01*
X61625Y125061D01*
X62281D01*
X62937Y124405D01*
Y123093D01*
X62281Y122437D01*
X59657Y126373D02*
X59001Y127029D01*
Y128341D01*
X59657Y128997D01*
X60313D01*
X60969Y128341D01*
Y127685D01*
Y128341D01*
X61625Y128997D01*
X62281D01*
X62937Y128341D01*
Y127029D01*
X62281Y126373D01*
X59001Y130308D02*
X62937D01*
X61625D01*
X59001Y132932D01*
X60969Y130965D01*
X62937Y132932D01*
X7561Y83437D02*
X4937D01*
X7561Y86061D01*
Y86717D01*
X6905Y87373D01*
X5593D01*
X4937Y86717D01*
X8873Y83437D02*
Y87373D01*
X11497Y83437D01*
Y87373D01*
X15432Y83437D02*
X12809D01*
X15432Y86061D01*
Y86717D01*
X14776Y87373D01*
X13464D01*
X12809Y86717D01*
X19368Y83437D02*
X16744D01*
X19368Y86061D01*
Y86717D01*
X18712Y87373D01*
X17400D01*
X16744Y86717D01*
X23304Y83437D02*
X20680D01*
X23304Y86061D01*
Y86717D01*
X22648Y87373D01*
X21336D01*
X20680Y86717D01*
X27240Y83437D02*
X24616D01*
X27240Y86061D01*
Y86717D01*
X26584Y87373D01*
X25272D01*
X24616Y86717D01*
X67561Y83437D02*
X64937D01*
X67561Y86061D01*
Y86717D01*
X66905Y87373D01*
X65593D01*
X64937Y86717D01*
X68873Y83437D02*
Y87373D01*
X71497Y83437D01*
Y87373D01*
X75432Y83437D02*
X72808D01*
X75432Y86061D01*
Y86717D01*
X74776Y87373D01*
X73464D01*
X72808Y86717D01*
X79368Y83437D02*
X76744D01*
X79368Y86061D01*
Y86717D01*
X78712Y87373D01*
X77400D01*
X76744Y86717D01*
X83304Y83437D02*
X80680D01*
X83304Y86061D01*
Y86717D01*
X82648Y87373D01*
X81336D01*
X80680Y86717D01*
X87239Y83437D02*
X84616D01*
X87239Y86061D01*
Y86717D01*
X86584Y87373D01*
X85272D01*
X84616Y86717D01*
X366061Y83437D02*
X363437D01*
X366061Y86061D01*
Y86717D01*
X365405Y87373D01*
X364093D01*
X363437Y86717D01*
X367373Y83437D02*
Y87373D01*
X369997Y83437D01*
Y87373D01*
X373932Y83437D02*
X371308D01*
X373932Y86061D01*
Y86717D01*
X373276Y87373D01*
X371964D01*
X371308Y86717D01*
X377868Y83437D02*
X375244D01*
X377868Y86061D01*
Y86717D01*
X377212Y87373D01*
X375900D01*
X375244Y86717D01*
X381804Y83437D02*
X379180D01*
X381804Y86061D01*
Y86717D01*
X381148Y87373D01*
X379836D01*
X379180Y86717D01*
X385739Y83437D02*
X383116D01*
X385739Y86061D01*
Y86717D01*
X385084Y87373D01*
X383772D01*
X383116Y86717D01*
X306061Y83437D02*
X303437D01*
X306061Y86061D01*
Y86717D01*
X305405Y87373D01*
X304093D01*
X303437Y86717D01*
X307373Y83437D02*
Y87373D01*
X309997Y83437D01*
Y87373D01*
X313932Y83437D02*
X311309D01*
X313932Y86061D01*
Y86717D01*
X313276Y87373D01*
X311964D01*
X311309Y86717D01*
X317868Y83437D02*
X315244D01*
X317868Y86061D01*
Y86717D01*
X317212Y87373D01*
X315900D01*
X315244Y86717D01*
X321804Y83437D02*
X319180D01*
X321804Y86061D01*
Y86717D01*
X321148Y87373D01*
X319836D01*
X319180Y86717D01*
X325740Y83437D02*
X323116D01*
X325740Y86061D01*
Y86717D01*
X325084Y87373D01*
X323772D01*
X323116Y86717D01*
X358157Y122437D02*
X357501Y123093D01*
Y124405D01*
X358157Y125061D01*
X358813D01*
X359469Y124405D01*
Y123749D01*
Y124405D01*
X360125Y125061D01*
X360781D01*
X361437Y124405D01*
Y123093D01*
X360781Y122437D01*
X358157Y126373D02*
X357501Y127029D01*
Y128341D01*
X358157Y128997D01*
X358813D01*
X359469Y128341D01*
Y127685D01*
Y128341D01*
X360125Y128997D01*
X360781D01*
X361437Y128341D01*
Y127029D01*
X360781Y126373D01*
X357501Y130308D02*
X361437D01*
X360125D01*
X357501Y132932D01*
X359469Y130965D01*
X361437Y132932D01*
X331157Y120937D02*
X330501Y121593D01*
Y122905D01*
X331157Y123561D01*
X331813D01*
X332469Y122905D01*
Y122249D01*
Y122905D01*
X333125Y123561D01*
X333781D01*
X334437Y122905D01*
Y121593D01*
X333781Y120937D01*
X331157Y124873D02*
X330501Y125529D01*
Y126841D01*
X331157Y127497D01*
X331813D01*
X332469Y126841D01*
Y126185D01*
Y126841D01*
X333125Y127497D01*
X333781D01*
X334437Y126841D01*
Y125529D01*
X333781Y124873D01*
X330501Y128808D02*
X334437D01*
X333125D01*
X330501Y131432D01*
X332469Y129464D01*
X334437Y131432D01*
X382937Y106717D02*
X383593Y107373D01*
X384905D01*
X385561Y106717D01*
Y106061D01*
X384905Y105405D01*
X384249D01*
X384905D01*
X385561Y104749D01*
Y104093D01*
X384905Y103437D01*
X383593D01*
X382937Y104093D01*
X386873Y107373D02*
Y104749D01*
X388185Y103437D01*
X389497Y104749D01*
Y107373D01*
X266561Y83437D02*
X263937D01*
X266561Y86061D01*
Y86717D01*
X265905Y87373D01*
X264593D01*
X263937Y86717D01*
X267873Y83437D02*
Y87373D01*
X270497Y83437D01*
Y87373D01*
X274432Y83437D02*
X271809D01*
X274432Y86061D01*
Y86717D01*
X273776Y87373D01*
X272464D01*
X271809Y86717D01*
X278368Y83437D02*
X275744D01*
X278368Y86061D01*
Y86717D01*
X277712Y87373D01*
X276400D01*
X275744Y86717D01*
X282304Y83437D02*
X279680D01*
X282304Y86061D01*
Y86717D01*
X281648Y87373D01*
X280336D01*
X279680Y86717D01*
X286240Y83437D02*
X283616D01*
X286240Y86061D01*
Y86717D01*
X285584Y87373D01*
X284272D01*
X283616Y86717D01*
X206561Y83437D02*
X203937D01*
X206561Y86061D01*
Y86717D01*
X205905Y87373D01*
X204593D01*
X203937Y86717D01*
X207873Y83437D02*
Y87373D01*
X210497Y83437D01*
Y87373D01*
X214432Y83437D02*
X211808D01*
X214432Y86061D01*
Y86717D01*
X213776Y87373D01*
X212464D01*
X211808Y86717D01*
X218368Y83437D02*
X215744D01*
X218368Y86061D01*
Y86717D01*
X217712Y87373D01*
X216400D01*
X215744Y86717D01*
X222304Y83437D02*
X219680D01*
X222304Y86061D01*
Y86717D01*
X221648Y87373D01*
X220336D01*
X219680Y86717D01*
X226239Y83437D02*
X223616D01*
X226239Y86061D01*
Y86717D01*
X225584Y87373D01*
X224272D01*
X223616Y86717D01*
X258657Y122437D02*
X258001Y123093D01*
Y124405D01*
X258657Y125061D01*
X259313D01*
X259969Y124405D01*
Y123749D01*
Y124405D01*
X260625Y125061D01*
X261281D01*
X261937Y124405D01*
Y123093D01*
X261281Y122437D01*
X258657Y126373D02*
X258001Y127029D01*
Y128341D01*
X258657Y128997D01*
X259313D01*
X259969Y128341D01*
Y127685D01*
Y128341D01*
X260625Y128997D01*
X261281D01*
X261937Y128341D01*
Y127029D01*
X261281Y126373D01*
X258001Y130308D02*
X261937D01*
X260625D01*
X258001Y132932D01*
X259969Y130965D01*
X261937Y132932D01*
X231657Y120937D02*
X231001Y121593D01*
Y122905D01*
X231657Y123561D01*
X232313D01*
X232969Y122905D01*
Y122249D01*
Y122905D01*
X233625Y123561D01*
X234281D01*
X234937Y122905D01*
Y121593D01*
X234281Y120937D01*
X231657Y124873D02*
X231001Y125529D01*
Y126841D01*
X231657Y127497D01*
X232313D01*
X232969Y126841D01*
Y126185D01*
Y126841D01*
X233625Y127497D01*
X234281D01*
X234937Y126841D01*
Y125529D01*
X234281Y124873D01*
X231001Y128808D02*
X234937D01*
X233625D01*
X231001Y131432D01*
X232969Y129464D01*
X234937Y131432D01*
X283437Y106717D02*
X284093Y107373D01*
X285405D01*
X286061Y106717D01*
Y106061D01*
X285405Y105405D01*
X284749D01*
X285405D01*
X286061Y104749D01*
Y104093D01*
X285405Y103437D01*
X284093D01*
X283437Y104093D01*
X287373Y107373D02*
Y104749D01*
X288685Y103437D01*
X289997Y104749D01*
Y107373D01*
X166561Y83437D02*
X163937D01*
X166561Y86061D01*
Y86717D01*
X165905Y87373D01*
X164593D01*
X163937Y86717D01*
X167873Y83437D02*
Y87373D01*
X170497Y83437D01*
Y87373D01*
X174432Y83437D02*
X171809D01*
X174432Y86061D01*
Y86717D01*
X173776Y87373D01*
X172465D01*
X171809Y86717D01*
X178368Y83437D02*
X175744D01*
X178368Y86061D01*
Y86717D01*
X177712Y87373D01*
X176400D01*
X175744Y86717D01*
X182304Y83437D02*
X179680D01*
X182304Y86061D01*
Y86717D01*
X181648Y87373D01*
X180336D01*
X179680Y86717D01*
X186240Y83437D02*
X183616D01*
X186240Y86061D01*
Y86717D01*
X185584Y87373D01*
X184272D01*
X183616Y86717D01*
X106561Y83437D02*
X103937D01*
X106561Y86061D01*
Y86717D01*
X105905Y87373D01*
X104593D01*
X103937Y86717D01*
X107873Y83437D02*
Y87373D01*
X110497Y83437D01*
Y87373D01*
X114432Y83437D02*
X111809D01*
X114432Y86061D01*
Y86717D01*
X113776Y87373D01*
X112464D01*
X111809Y86717D01*
X118368Y83437D02*
X115744D01*
X118368Y86061D01*
Y86717D01*
X117712Y87373D01*
X116400D01*
X115744Y86717D01*
X122304Y83437D02*
X119680D01*
X122304Y86061D01*
Y86717D01*
X121648Y87373D01*
X120336D01*
X119680Y86717D01*
X126240Y83437D02*
X123616D01*
X126240Y86061D01*
Y86717D01*
X125584Y87373D01*
X124272D01*
X123616Y86717D01*
X158657Y122437D02*
X158001Y123093D01*
Y124405D01*
X158657Y125061D01*
X159313D01*
X159969Y124405D01*
Y123749D01*
Y124405D01*
X160625Y125061D01*
X161281D01*
X161937Y124405D01*
Y123093D01*
X161281Y122437D01*
X158657Y126373D02*
X158001Y127029D01*
Y128341D01*
X158657Y128997D01*
X159313D01*
X159969Y128341D01*
Y127685D01*
Y128341D01*
X160625Y128997D01*
X161281D01*
X161937Y128341D01*
Y127029D01*
X161281Y126373D01*
X158001Y130308D02*
X161937D01*
X160625D01*
X158001Y132932D01*
X159969Y130965D01*
X161937Y132932D01*
X131657Y120937D02*
X131001Y121593D01*
Y122905D01*
X131657Y123561D01*
X132313D01*
X132969Y122905D01*
Y122249D01*
Y122905D01*
X133625Y123561D01*
X134281D01*
X134937Y122905D01*
Y121593D01*
X134281Y120937D01*
X131657Y124873D02*
X131001Y125529D01*
Y126841D01*
X131657Y127497D01*
X132313D01*
X132969Y126841D01*
Y126185D01*
Y126841D01*
X133625Y127497D01*
X134281D01*
X134937Y126841D01*
Y125529D01*
X134281Y124873D01*
X131001Y128808D02*
X134937D01*
X133625D01*
X131001Y131432D01*
X132969Y129464D01*
X134937Y131432D01*
X183437Y106717D02*
X184093Y107373D01*
X185405D01*
X186061Y106717D01*
Y106061D01*
X185405Y105405D01*
X184749D01*
X185405D01*
X186061Y104749D01*
Y104093D01*
X185405Y103437D01*
X184093D01*
X183437Y104093D01*
X187373Y107373D02*
Y104749D01*
X188685Y103437D01*
X189997Y104749D01*
Y107373D01*
X84937Y186217D02*
X85593Y186873D01*
X86905D01*
X87561Y186217D01*
Y185561D01*
X86905Y184905D01*
X86249D01*
X86905D01*
X87561Y184249D01*
Y183593D01*
X86905Y182937D01*
X85593D01*
X84937Y183593D01*
X88873Y186873D02*
Y184249D01*
X90185Y182937D01*
X91497Y184249D01*
Y186873D01*
X33157Y200437D02*
X32501Y201093D01*
Y202405D01*
X33157Y203061D01*
X33813D01*
X34469Y202405D01*
Y201749D01*
Y202405D01*
X35125Y203061D01*
X35781D01*
X36437Y202405D01*
Y201093D01*
X35781Y200437D01*
X33157Y204373D02*
X32501Y205029D01*
Y206341D01*
X33157Y206997D01*
X33813D01*
X34469Y206341D01*
Y205685D01*
Y206341D01*
X35125Y206997D01*
X35781D01*
X36437Y206341D01*
Y205029D01*
X35781Y204373D01*
X32501Y208309D02*
X36437D01*
X35125D01*
X32501Y210932D01*
X34469Y208964D01*
X36437Y210932D01*
X60157Y201937D02*
X59501Y202593D01*
Y203905D01*
X60157Y204561D01*
X60813D01*
X61469Y203905D01*
Y203249D01*
Y203905D01*
X62125Y204561D01*
X62781D01*
X63437Y203905D01*
Y202593D01*
X62781Y201937D01*
X60157Y205873D02*
X59501Y206529D01*
Y207841D01*
X60157Y208497D01*
X60813D01*
X61469Y207841D01*
Y207185D01*
Y207841D01*
X62125Y208497D01*
X62781D01*
X63437Y207841D01*
Y206529D01*
X62781Y205873D01*
X59501Y209808D02*
X63437D01*
X62125D01*
X59501Y212432D01*
X61469Y210464D01*
X63437Y212432D01*
X8061Y162937D02*
X5437D01*
X8061Y165561D01*
Y166217D01*
X7405Y166873D01*
X6093D01*
X5437Y166217D01*
X9373Y162937D02*
Y166873D01*
X11997Y162937D01*
Y166873D01*
X15932Y162937D02*
X13308D01*
X15932Y165561D01*
Y166217D01*
X15276Y166873D01*
X13964D01*
X13308Y166217D01*
X19868Y162937D02*
X17244D01*
X19868Y165561D01*
Y166217D01*
X19212Y166873D01*
X17900D01*
X17244Y166217D01*
X23804Y162937D02*
X21180D01*
X23804Y165561D01*
Y166217D01*
X23148Y166873D01*
X21836D01*
X21180Y166217D01*
X27740Y162937D02*
X25116D01*
X27740Y165561D01*
Y166217D01*
X27084Y166873D01*
X25772D01*
X25116Y166217D01*
X68061Y162937D02*
X65437D01*
X68061Y165561D01*
Y166217D01*
X67405Y166873D01*
X66093D01*
X65437Y166217D01*
X69373Y162937D02*
Y166873D01*
X71997Y162937D01*
Y166873D01*
X75932Y162937D02*
X73308D01*
X75932Y165561D01*
Y166217D01*
X75276Y166873D01*
X73964D01*
X73308Y166217D01*
X79868Y162937D02*
X77244D01*
X79868Y165561D01*
Y166217D01*
X79212Y166873D01*
X77900D01*
X77244Y166217D01*
X83804Y162937D02*
X81180D01*
X83804Y165561D01*
Y166217D01*
X83148Y166873D01*
X81836D01*
X81180Y166217D01*
X87739Y162937D02*
X85116D01*
X87739Y165561D01*
Y166217D01*
X87084Y166873D01*
X85772D01*
X85116Y166217D01*
X366561Y162937D02*
X363937D01*
X366561Y165561D01*
Y166217D01*
X365905Y166873D01*
X364593D01*
X363937Y166217D01*
X367873Y162937D02*
Y166873D01*
X370497Y162937D01*
Y166873D01*
X374432Y162937D02*
X371809D01*
X374432Y165561D01*
Y166217D01*
X373776Y166873D01*
X372464D01*
X371809Y166217D01*
X378368Y162937D02*
X375744D01*
X378368Y165561D01*
Y166217D01*
X377712Y166873D01*
X376400D01*
X375744Y166217D01*
X382304Y162937D02*
X379680D01*
X382304Y165561D01*
Y166217D01*
X381648Y166873D01*
X380336D01*
X379680Y166217D01*
X386240Y162937D02*
X383616D01*
X386240Y165561D01*
Y166217D01*
X385584Y166873D01*
X384272D01*
X383616Y166217D01*
X306561Y162937D02*
X303937D01*
X306561Y165561D01*
Y166217D01*
X305905Y166873D01*
X304593D01*
X303937Y166217D01*
X307873Y162937D02*
Y166873D01*
X310497Y162937D01*
Y166873D01*
X314432Y162937D02*
X311808D01*
X314432Y165561D01*
Y166217D01*
X313776Y166873D01*
X312464D01*
X311808Y166217D01*
X318368Y162937D02*
X315744D01*
X318368Y165561D01*
Y166217D01*
X317712Y166873D01*
X316400D01*
X315744Y166217D01*
X322304Y162937D02*
X319680D01*
X322304Y165561D01*
Y166217D01*
X321648Y166873D01*
X320336D01*
X319680Y166217D01*
X326239Y162937D02*
X323616D01*
X326239Y165561D01*
Y166217D01*
X325584Y166873D01*
X324272D01*
X323616Y166217D01*
X358657Y201937D02*
X358001Y202593D01*
Y203905D01*
X358657Y204561D01*
X359313D01*
X359969Y203905D01*
Y203249D01*
Y203905D01*
X360625Y204561D01*
X361281D01*
X361937Y203905D01*
Y202593D01*
X361281Y201937D01*
X358657Y205873D02*
X358001Y206529D01*
Y207841D01*
X358657Y208497D01*
X359313D01*
X359969Y207841D01*
Y207185D01*
Y207841D01*
X360625Y208497D01*
X361281D01*
X361937Y207841D01*
Y206529D01*
X361281Y205873D01*
X358001Y209808D02*
X361937D01*
X360625D01*
X358001Y212432D01*
X359969Y210464D01*
X361937Y212432D01*
X331657Y200437D02*
X331001Y201093D01*
Y202405D01*
X331657Y203061D01*
X332313D01*
X332969Y202405D01*
Y201749D01*
Y202405D01*
X333625Y203061D01*
X334281D01*
X334937Y202405D01*
Y201093D01*
X334281Y200437D01*
X331657Y204373D02*
X331001Y205029D01*
Y206341D01*
X331657Y206997D01*
X332313D01*
X332969Y206341D01*
Y205685D01*
Y206341D01*
X333625Y206997D01*
X334281D01*
X334937Y206341D01*
Y205029D01*
X334281Y204373D01*
X331001Y208309D02*
X334937D01*
X333625D01*
X331001Y210932D01*
X332969Y208964D01*
X334937Y210932D01*
X383437Y186217D02*
X384093Y186873D01*
X385405D01*
X386061Y186217D01*
Y185561D01*
X385405Y184905D01*
X384749D01*
X385405D01*
X386061Y184249D01*
Y183593D01*
X385405Y182937D01*
X384093D01*
X383437Y183593D01*
X387373Y186873D02*
Y184249D01*
X388685Y182937D01*
X389997Y184249D01*
Y186873D01*
X267061Y162937D02*
X264437D01*
X267061Y165561D01*
Y166217D01*
X266405Y166873D01*
X265093D01*
X264437Y166217D01*
X268373Y162937D02*
Y166873D01*
X270997Y162937D01*
Y166873D01*
X274932Y162937D02*
X272308D01*
X274932Y165561D01*
Y166217D01*
X274276Y166873D01*
X272964D01*
X272308Y166217D01*
X278868Y162937D02*
X276244D01*
X278868Y165561D01*
Y166217D01*
X278212Y166873D01*
X276900D01*
X276244Y166217D01*
X282804Y162937D02*
X280180D01*
X282804Y165561D01*
Y166217D01*
X282148Y166873D01*
X280836D01*
X280180Y166217D01*
X286739Y162937D02*
X284116D01*
X286739Y165561D01*
Y166217D01*
X286084Y166873D01*
X284772D01*
X284116Y166217D01*
X207061Y162937D02*
X204437D01*
X207061Y165561D01*
Y166217D01*
X206405Y166873D01*
X205093D01*
X204437Y166217D01*
X208373Y162937D02*
Y166873D01*
X210997Y162937D01*
Y166873D01*
X214932Y162937D02*
X212309D01*
X214932Y165561D01*
Y166217D01*
X214276Y166873D01*
X212964D01*
X212309Y166217D01*
X218868Y162937D02*
X216244D01*
X218868Y165561D01*
Y166217D01*
X218212Y166873D01*
X216900D01*
X216244Y166217D01*
X222804Y162937D02*
X220180D01*
X222804Y165561D01*
Y166217D01*
X222148Y166873D01*
X220836D01*
X220180Y166217D01*
X226740Y162937D02*
X224116D01*
X226740Y165561D01*
Y166217D01*
X226084Y166873D01*
X224772D01*
X224116Y166217D01*
X259157Y201937D02*
X258501Y202593D01*
Y203905D01*
X259157Y204561D01*
X259813D01*
X260469Y203905D01*
Y203249D01*
Y203905D01*
X261125Y204561D01*
X261781D01*
X262437Y203905D01*
Y202593D01*
X261781Y201937D01*
X259157Y205873D02*
X258501Y206529D01*
Y207841D01*
X259157Y208497D01*
X259813D01*
X260469Y207841D01*
Y207185D01*
Y207841D01*
X261125Y208497D01*
X261781D01*
X262437Y207841D01*
Y206529D01*
X261781Y205873D01*
X258501Y209808D02*
X262437D01*
X261125D01*
X258501Y212432D01*
X260469Y210464D01*
X262437Y212432D01*
X232157Y200437D02*
X231501Y201093D01*
Y202405D01*
X232157Y203061D01*
X232813D01*
X233469Y202405D01*
Y201749D01*
Y202405D01*
X234125Y203061D01*
X234781D01*
X235437Y202405D01*
Y201093D01*
X234781Y200437D01*
X232157Y204373D02*
X231501Y205029D01*
Y206341D01*
X232157Y206997D01*
X232813D01*
X233469Y206341D01*
Y205685D01*
Y206341D01*
X234125Y206997D01*
X234781D01*
X235437Y206341D01*
Y205029D01*
X234781Y204373D01*
X231501Y208309D02*
X235437D01*
X234125D01*
X231501Y210932D01*
X233469Y208964D01*
X235437Y210932D01*
X283937Y186217D02*
X284593Y186873D01*
X285905D01*
X286561Y186217D01*
Y185561D01*
X285905Y184905D01*
X285249D01*
X285905D01*
X286561Y184249D01*
Y183593D01*
X285905Y182937D01*
X284593D01*
X283937Y183593D01*
X287873Y186873D02*
Y184249D01*
X289185Y182937D01*
X290497Y184249D01*
Y186873D01*
X167061Y162937D02*
X164437D01*
X167061Y165561D01*
Y166217D01*
X166405Y166873D01*
X165093D01*
X164437Y166217D01*
X168373Y162937D02*
Y166873D01*
X170997Y162937D01*
Y166873D01*
X174932Y162937D02*
X172309D01*
X174932Y165561D01*
Y166217D01*
X174276Y166873D01*
X172965D01*
X172309Y166217D01*
X178868Y162937D02*
X176244D01*
X178868Y165561D01*
Y166217D01*
X178212Y166873D01*
X176900D01*
X176244Y166217D01*
X182804Y162937D02*
X180180D01*
X182804Y165561D01*
Y166217D01*
X182148Y166873D01*
X180836D01*
X180180Y166217D01*
X186740Y162937D02*
X184116D01*
X186740Y165561D01*
Y166217D01*
X186084Y166873D01*
X184772D01*
X184116Y166217D01*
X107061Y162937D02*
X104437D01*
X107061Y165561D01*
Y166217D01*
X106405Y166873D01*
X105093D01*
X104437Y166217D01*
X108373Y162937D02*
Y166873D01*
X110997Y162937D01*
Y166873D01*
X114932Y162937D02*
X112309D01*
X114932Y165561D01*
Y166217D01*
X114276Y166873D01*
X112964D01*
X112309Y166217D01*
X118868Y162937D02*
X116244D01*
X118868Y165561D01*
Y166217D01*
X118212Y166873D01*
X116900D01*
X116244Y166217D01*
X122804Y162937D02*
X120180D01*
X122804Y165561D01*
Y166217D01*
X122148Y166873D01*
X120836D01*
X120180Y166217D01*
X126740Y162937D02*
X124116D01*
X126740Y165561D01*
Y166217D01*
X126084Y166873D01*
X124772D01*
X124116Y166217D01*
X159157Y201937D02*
X158501Y202593D01*
Y203905D01*
X159157Y204561D01*
X159813D01*
X160469Y203905D01*
Y203249D01*
Y203905D01*
X161125Y204561D01*
X161781D01*
X162437Y203905D01*
Y202593D01*
X161781Y201937D01*
X159157Y205873D02*
X158501Y206529D01*
Y207841D01*
X159157Y208497D01*
X159813D01*
X160469Y207841D01*
Y207185D01*
Y207841D01*
X161125Y208497D01*
X161781D01*
X162437Y207841D01*
Y206529D01*
X161781Y205873D01*
X158501Y209808D02*
X162437D01*
X161125D01*
X158501Y212432D01*
X160469Y210464D01*
X162437Y212432D01*
X132157Y200437D02*
X131501Y201093D01*
Y202405D01*
X132157Y203061D01*
X132813D01*
X133469Y202405D01*
Y201749D01*
Y202405D01*
X134125Y203061D01*
X134781D01*
X135437Y202405D01*
Y201093D01*
X134781Y200437D01*
X132157Y204373D02*
X131501Y205029D01*
Y206341D01*
X132157Y206997D01*
X132813D01*
X133469Y206341D01*
Y205685D01*
Y206341D01*
X134125Y206997D01*
X134781D01*
X135437Y206341D01*
Y205029D01*
X134781Y204373D01*
X131501Y208309D02*
X135437D01*
X134125D01*
X131501Y210932D01*
X133469Y208964D01*
X135437Y210932D01*
X183937Y186217D02*
X184593Y186873D01*
X185905D01*
X186561Y186217D01*
Y185561D01*
X185905Y184905D01*
X185249D01*
X185905D01*
X186561Y184249D01*
Y183593D01*
X185905Y182937D01*
X184593D01*
X183937Y183593D01*
X187873Y186873D02*
Y184249D01*
X189185Y182937D01*
X190497Y184249D01*
Y186873D01*
X84937Y265717D02*
X85593Y266373D01*
X86905D01*
X87561Y265717D01*
Y265061D01*
X86905Y264405D01*
X86249D01*
X86905D01*
X87561Y263749D01*
Y263093D01*
X86905Y262437D01*
X85593D01*
X84937Y263093D01*
X88873Y266373D02*
Y263749D01*
X90185Y262437D01*
X91497Y263749D01*
Y266373D01*
X33157Y279937D02*
X32501Y280593D01*
Y281905D01*
X33157Y282561D01*
X33813D01*
X34469Y281905D01*
Y281249D01*
Y281905D01*
X35125Y282561D01*
X35781D01*
X36437Y281905D01*
Y280593D01*
X35781Y279937D01*
X33157Y283873D02*
X32501Y284529D01*
Y285841D01*
X33157Y286497D01*
X33813D01*
X34469Y285841D01*
Y285185D01*
Y285841D01*
X35125Y286497D01*
X35781D01*
X36437Y285841D01*
Y284529D01*
X35781Y283873D01*
X32501Y287808D02*
X36437D01*
X35125D01*
X32501Y290432D01*
X34469Y288464D01*
X36437Y290432D01*
X60157Y281437D02*
X59501Y282093D01*
Y283405D01*
X60157Y284061D01*
X60813D01*
X61469Y283405D01*
Y282749D01*
Y283405D01*
X62125Y284061D01*
X62781D01*
X63437Y283405D01*
Y282093D01*
X62781Y281437D01*
X60157Y285373D02*
X59501Y286029D01*
Y287341D01*
X60157Y287997D01*
X60813D01*
X61469Y287341D01*
Y286685D01*
Y287341D01*
X62125Y287997D01*
X62781D01*
X63437Y287341D01*
Y286029D01*
X62781Y285373D01*
X59501Y289309D02*
X63437D01*
X62125D01*
X59501Y291932D01*
X61469Y289964D01*
X63437Y291932D01*
X8061Y242437D02*
X5437D01*
X8061Y245061D01*
Y245717D01*
X7405Y246373D01*
X6093D01*
X5437Y245717D01*
X9373Y242437D02*
Y246373D01*
X11997Y242437D01*
Y246373D01*
X15932Y242437D02*
X13308D01*
X15932Y245061D01*
Y245717D01*
X15276Y246373D01*
X13964D01*
X13308Y245717D01*
X19868Y242437D02*
X17244D01*
X19868Y245061D01*
Y245717D01*
X19212Y246373D01*
X17900D01*
X17244Y245717D01*
X23804Y242437D02*
X21180D01*
X23804Y245061D01*
Y245717D01*
X23148Y246373D01*
X21836D01*
X21180Y245717D01*
X27740Y242437D02*
X25116D01*
X27740Y245061D01*
Y245717D01*
X27084Y246373D01*
X25772D01*
X25116Y245717D01*
X68061Y242437D02*
X65437D01*
X68061Y245061D01*
Y245717D01*
X67405Y246373D01*
X66093D01*
X65437Y245717D01*
X69373Y242437D02*
Y246373D01*
X71997Y242437D01*
Y246373D01*
X75932Y242437D02*
X73308D01*
X75932Y245061D01*
Y245717D01*
X75276Y246373D01*
X73964D01*
X73308Y245717D01*
X79868Y242437D02*
X77244D01*
X79868Y245061D01*
Y245717D01*
X79212Y246373D01*
X77900D01*
X77244Y245717D01*
X83804Y242437D02*
X81180D01*
X83804Y245061D01*
Y245717D01*
X83148Y246373D01*
X81836D01*
X81180Y245717D01*
X87739Y242437D02*
X85116D01*
X87739Y245061D01*
Y245717D01*
X87084Y246373D01*
X85772D01*
X85116Y245717D01*
X366561Y242437D02*
X363937D01*
X366561Y245061D01*
Y245717D01*
X365905Y246373D01*
X364593D01*
X363937Y245717D01*
X367873Y242437D02*
Y246373D01*
X370497Y242437D01*
Y246373D01*
X374432Y242437D02*
X371809D01*
X374432Y245061D01*
Y245717D01*
X373776Y246373D01*
X372464D01*
X371809Y245717D01*
X378368Y242437D02*
X375744D01*
X378368Y245061D01*
Y245717D01*
X377712Y246373D01*
X376400D01*
X375744Y245717D01*
X382304Y242437D02*
X379680D01*
X382304Y245061D01*
Y245717D01*
X381648Y246373D01*
X380336D01*
X379680Y245717D01*
X386240Y242437D02*
X383616D01*
X386240Y245061D01*
Y245717D01*
X385584Y246373D01*
X384272D01*
X383616Y245717D01*
X306561Y242437D02*
X303937D01*
X306561Y245061D01*
Y245717D01*
X305905Y246373D01*
X304593D01*
X303937Y245717D01*
X307873Y242437D02*
Y246373D01*
X310497Y242437D01*
Y246373D01*
X314432Y242437D02*
X311808D01*
X314432Y245061D01*
Y245717D01*
X313776Y246373D01*
X312464D01*
X311808Y245717D01*
X318368Y242437D02*
X315744D01*
X318368Y245061D01*
Y245717D01*
X317712Y246373D01*
X316400D01*
X315744Y245717D01*
X322304Y242437D02*
X319680D01*
X322304Y245061D01*
Y245717D01*
X321648Y246373D01*
X320336D01*
X319680Y245717D01*
X326239Y242437D02*
X323616D01*
X326239Y245061D01*
Y245717D01*
X325584Y246373D01*
X324272D01*
X323616Y245717D01*
X358657Y281437D02*
X358001Y282093D01*
Y283405D01*
X358657Y284061D01*
X359313D01*
X359969Y283405D01*
Y282749D01*
Y283405D01*
X360625Y284061D01*
X361281D01*
X361937Y283405D01*
Y282093D01*
X361281Y281437D01*
X358657Y285373D02*
X358001Y286029D01*
Y287341D01*
X358657Y287997D01*
X359313D01*
X359969Y287341D01*
Y286685D01*
Y287341D01*
X360625Y287997D01*
X361281D01*
X361937Y287341D01*
Y286029D01*
X361281Y285373D01*
X358001Y289309D02*
X361937D01*
X360625D01*
X358001Y291932D01*
X359969Y289964D01*
X361937Y291932D01*
X331657Y279937D02*
X331001Y280593D01*
Y281905D01*
X331657Y282561D01*
X332313D01*
X332969Y281905D01*
Y281249D01*
Y281905D01*
X333625Y282561D01*
X334281D01*
X334937Y281905D01*
Y280593D01*
X334281Y279937D01*
X331657Y283873D02*
X331001Y284529D01*
Y285841D01*
X331657Y286497D01*
X332313D01*
X332969Y285841D01*
Y285185D01*
Y285841D01*
X333625Y286497D01*
X334281D01*
X334937Y285841D01*
Y284529D01*
X334281Y283873D01*
X331001Y287808D02*
X334937D01*
X333625D01*
X331001Y290432D01*
X332969Y288464D01*
X334937Y290432D01*
X383437Y265717D02*
X384093Y266373D01*
X385405D01*
X386061Y265717D01*
Y265061D01*
X385405Y264405D01*
X384749D01*
X385405D01*
X386061Y263749D01*
Y263093D01*
X385405Y262437D01*
X384093D01*
X383437Y263093D01*
X387373Y266373D02*
Y263749D01*
X388685Y262437D01*
X389997Y263749D01*
Y266373D01*
X267061Y242437D02*
X264437D01*
X267061Y245061D01*
Y245717D01*
X266405Y246373D01*
X265093D01*
X264437Y245717D01*
X268373Y242437D02*
Y246373D01*
X270997Y242437D01*
Y246373D01*
X274932Y242437D02*
X272308D01*
X274932Y245061D01*
Y245717D01*
X274276Y246373D01*
X272964D01*
X272308Y245717D01*
X278868Y242437D02*
X276244D01*
X278868Y245061D01*
Y245717D01*
X278212Y246373D01*
X276900D01*
X276244Y245717D01*
X282804Y242437D02*
X280180D01*
X282804Y245061D01*
Y245717D01*
X282148Y246373D01*
X280836D01*
X280180Y245717D01*
X286739Y242437D02*
X284116D01*
X286739Y245061D01*
Y245717D01*
X286084Y246373D01*
X284772D01*
X284116Y245717D01*
X207061Y242437D02*
X204437D01*
X207061Y245061D01*
Y245717D01*
X206405Y246373D01*
X205093D01*
X204437Y245717D01*
X208373Y242437D02*
Y246373D01*
X210997Y242437D01*
Y246373D01*
X214932Y242437D02*
X212309D01*
X214932Y245061D01*
Y245717D01*
X214276Y246373D01*
X212964D01*
X212309Y245717D01*
X218868Y242437D02*
X216244D01*
X218868Y245061D01*
Y245717D01*
X218212Y246373D01*
X216900D01*
X216244Y245717D01*
X222804Y242437D02*
X220180D01*
X222804Y245061D01*
Y245717D01*
X222148Y246373D01*
X220836D01*
X220180Y245717D01*
X226740Y242437D02*
X224116D01*
X226740Y245061D01*
Y245717D01*
X226084Y246373D01*
X224772D01*
X224116Y245717D01*
X259157Y281437D02*
X258501Y282093D01*
Y283405D01*
X259157Y284061D01*
X259813D01*
X260469Y283405D01*
Y282749D01*
Y283405D01*
X261125Y284061D01*
X261781D01*
X262437Y283405D01*
Y282093D01*
X261781Y281437D01*
X259157Y285373D02*
X258501Y286029D01*
Y287341D01*
X259157Y287997D01*
X259813D01*
X260469Y287341D01*
Y286685D01*
Y287341D01*
X261125Y287997D01*
X261781D01*
X262437Y287341D01*
Y286029D01*
X261781Y285373D01*
X258501Y289309D02*
X262437D01*
X261125D01*
X258501Y291932D01*
X260469Y289964D01*
X262437Y291932D01*
X232157Y279937D02*
X231501Y280593D01*
Y281905D01*
X232157Y282561D01*
X232813D01*
X233469Y281905D01*
Y281249D01*
Y281905D01*
X234125Y282561D01*
X234781D01*
X235437Y281905D01*
Y280593D01*
X234781Y279937D01*
X232157Y283873D02*
X231501Y284529D01*
Y285841D01*
X232157Y286497D01*
X232813D01*
X233469Y285841D01*
Y285185D01*
Y285841D01*
X234125Y286497D01*
X234781D01*
X235437Y285841D01*
Y284529D01*
X234781Y283873D01*
X231501Y287808D02*
X235437D01*
X234125D01*
X231501Y290432D01*
X233469Y288464D01*
X235437Y290432D01*
X283937Y265717D02*
X284593Y266373D01*
X285905D01*
X286561Y265717D01*
Y265061D01*
X285905Y264405D01*
X285249D01*
X285905D01*
X286561Y263749D01*
Y263093D01*
X285905Y262437D01*
X284593D01*
X283937Y263093D01*
X287873Y266373D02*
Y263749D01*
X289185Y262437D01*
X290497Y263749D01*
Y266373D01*
X167061Y242437D02*
X164437D01*
X167061Y245061D01*
Y245717D01*
X166405Y246373D01*
X165093D01*
X164437Y245717D01*
X168373Y242437D02*
Y246373D01*
X170997Y242437D01*
Y246373D01*
X174932Y242437D02*
X172309D01*
X174932Y245061D01*
Y245717D01*
X174276Y246373D01*
X172965D01*
X172309Y245717D01*
X178868Y242437D02*
X176244D01*
X178868Y245061D01*
Y245717D01*
X178212Y246373D01*
X176900D01*
X176244Y245717D01*
X182804Y242437D02*
X180180D01*
X182804Y245061D01*
Y245717D01*
X182148Y246373D01*
X180836D01*
X180180Y245717D01*
X186740Y242437D02*
X184116D01*
X186740Y245061D01*
Y245717D01*
X186084Y246373D01*
X184772D01*
X184116Y245717D01*
X107061Y242437D02*
X104437D01*
X107061Y245061D01*
Y245717D01*
X106405Y246373D01*
X105093D01*
X104437Y245717D01*
X108373Y242437D02*
Y246373D01*
X110997Y242437D01*
Y246373D01*
X114932Y242437D02*
X112309D01*
X114932Y245061D01*
Y245717D01*
X114276Y246373D01*
X112964D01*
X112309Y245717D01*
X118868Y242437D02*
X116244D01*
X118868Y245061D01*
Y245717D01*
X118212Y246373D01*
X116900D01*
X116244Y245717D01*
X122804Y242437D02*
X120180D01*
X122804Y245061D01*
Y245717D01*
X122148Y246373D01*
X120836D01*
X120180Y245717D01*
X126740Y242437D02*
X124116D01*
X126740Y245061D01*
Y245717D01*
X126084Y246373D01*
X124772D01*
X124116Y245717D01*
X159157Y281437D02*
X158501Y282093D01*
Y283405D01*
X159157Y284061D01*
X159813D01*
X160469Y283405D01*
Y282749D01*
Y283405D01*
X161125Y284061D01*
X161781D01*
X162437Y283405D01*
Y282093D01*
X161781Y281437D01*
X159157Y285373D02*
X158501Y286029D01*
Y287341D01*
X159157Y287997D01*
X159813D01*
X160469Y287341D01*
Y286685D01*
Y287341D01*
X161125Y287997D01*
X161781D01*
X162437Y287341D01*
Y286029D01*
X161781Y285373D01*
X158501Y289309D02*
X162437D01*
X161125D01*
X158501Y291932D01*
X160469Y289964D01*
X162437Y291932D01*
X132157Y279937D02*
X131501Y280593D01*
Y281905D01*
X132157Y282561D01*
X132813D01*
X133469Y281905D01*
Y281249D01*
Y281905D01*
X134125Y282561D01*
X134781D01*
X135437Y281905D01*
Y280593D01*
X134781Y279937D01*
X132157Y283873D02*
X131501Y284529D01*
Y285841D01*
X132157Y286497D01*
X132813D01*
X133469Y285841D01*
Y285185D01*
Y285841D01*
X134125Y286497D01*
X134781D01*
X135437Y285841D01*
Y284529D01*
X134781Y283873D01*
X131501Y287808D02*
X135437D01*
X134125D01*
X131501Y290432D01*
X133469Y288464D01*
X135437Y290432D01*
X183937Y265717D02*
X184593Y266373D01*
X185905D01*
X186561Y265717D01*
Y265061D01*
X185905Y264405D01*
X185249D01*
X185905D01*
X186561Y263749D01*
Y263093D01*
X185905Y262437D01*
X184593D01*
X183937Y263093D01*
X187873Y266373D02*
Y263749D01*
X189185Y262437D01*
X190497Y263749D01*
Y266373D01*
X84937Y344217D02*
X85593Y344873D01*
X86905D01*
X87561Y344217D01*
Y343561D01*
X86905Y342905D01*
X86249D01*
X86905D01*
X87561Y342249D01*
Y341593D01*
X86905Y340937D01*
X85593D01*
X84937Y341593D01*
X88873Y344873D02*
Y342249D01*
X90185Y340937D01*
X91497Y342249D01*
Y344873D01*
X33157Y358437D02*
X32501Y359093D01*
Y360405D01*
X33157Y361061D01*
X33813D01*
X34469Y360405D01*
Y359749D01*
Y360405D01*
X35125Y361061D01*
X35781D01*
X36437Y360405D01*
Y359093D01*
X35781Y358437D01*
X33157Y362373D02*
X32501Y363029D01*
Y364341D01*
X33157Y364997D01*
X33813D01*
X34469Y364341D01*
Y363685D01*
Y364341D01*
X35125Y364997D01*
X35781D01*
X36437Y364341D01*
Y363029D01*
X35781Y362373D01*
X32501Y366308D02*
X36437D01*
X35125D01*
X32501Y368932D01*
X34469Y366964D01*
X36437Y368932D01*
X60157Y359937D02*
X59501Y360593D01*
Y361905D01*
X60157Y362561D01*
X60813D01*
X61469Y361905D01*
Y361249D01*
Y361905D01*
X62125Y362561D01*
X62781D01*
X63437Y361905D01*
Y360593D01*
X62781Y359937D01*
X60157Y363873D02*
X59501Y364529D01*
Y365841D01*
X60157Y366497D01*
X60813D01*
X61469Y365841D01*
Y365185D01*
Y365841D01*
X62125Y366497D01*
X62781D01*
X63437Y365841D01*
Y364529D01*
X62781Y363873D01*
X59501Y367809D02*
X63437D01*
X62125D01*
X59501Y370432D01*
X61469Y368464D01*
X63437Y370432D01*
X8061Y320937D02*
X5437D01*
X8061Y323561D01*
Y324217D01*
X7405Y324873D01*
X6093D01*
X5437Y324217D01*
X9373Y320937D02*
Y324873D01*
X11997Y320937D01*
Y324873D01*
X15932Y320937D02*
X13308D01*
X15932Y323561D01*
Y324217D01*
X15276Y324873D01*
X13964D01*
X13308Y324217D01*
X19868Y320937D02*
X17244D01*
X19868Y323561D01*
Y324217D01*
X19212Y324873D01*
X17900D01*
X17244Y324217D01*
X23804Y320937D02*
X21180D01*
X23804Y323561D01*
Y324217D01*
X23148Y324873D01*
X21836D01*
X21180Y324217D01*
X27740Y320937D02*
X25116D01*
X27740Y323561D01*
Y324217D01*
X27084Y324873D01*
X25772D01*
X25116Y324217D01*
X68061Y320937D02*
X65437D01*
X68061Y323561D01*
Y324217D01*
X67405Y324873D01*
X66093D01*
X65437Y324217D01*
X69373Y320937D02*
Y324873D01*
X71997Y320937D01*
Y324873D01*
X75932Y320937D02*
X73308D01*
X75932Y323561D01*
Y324217D01*
X75276Y324873D01*
X73964D01*
X73308Y324217D01*
X79868Y320937D02*
X77244D01*
X79868Y323561D01*
Y324217D01*
X79212Y324873D01*
X77900D01*
X77244Y324217D01*
X83804Y320937D02*
X81180D01*
X83804Y323561D01*
Y324217D01*
X83148Y324873D01*
X81836D01*
X81180Y324217D01*
X87739Y320937D02*
X85116D01*
X87739Y323561D01*
Y324217D01*
X87084Y324873D01*
X85772D01*
X85116Y324217D01*
X366561Y320937D02*
X363937D01*
X366561Y323561D01*
Y324217D01*
X365905Y324873D01*
X364593D01*
X363937Y324217D01*
X367873Y320937D02*
Y324873D01*
X370497Y320937D01*
Y324873D01*
X374432Y320937D02*
X371809D01*
X374432Y323561D01*
Y324217D01*
X373776Y324873D01*
X372464D01*
X371809Y324217D01*
X378368Y320937D02*
X375744D01*
X378368Y323561D01*
Y324217D01*
X377712Y324873D01*
X376400D01*
X375744Y324217D01*
X382304Y320937D02*
X379680D01*
X382304Y323561D01*
Y324217D01*
X381648Y324873D01*
X380336D01*
X379680Y324217D01*
X386240Y320937D02*
X383616D01*
X386240Y323561D01*
Y324217D01*
X385584Y324873D01*
X384272D01*
X383616Y324217D01*
X306561Y320937D02*
X303937D01*
X306561Y323561D01*
Y324217D01*
X305905Y324873D01*
X304593D01*
X303937Y324217D01*
X307873Y320937D02*
Y324873D01*
X310497Y320937D01*
Y324873D01*
X314432Y320937D02*
X311808D01*
X314432Y323561D01*
Y324217D01*
X313776Y324873D01*
X312464D01*
X311808Y324217D01*
X318368Y320937D02*
X315744D01*
X318368Y323561D01*
Y324217D01*
X317712Y324873D01*
X316400D01*
X315744Y324217D01*
X322304Y320937D02*
X319680D01*
X322304Y323561D01*
Y324217D01*
X321648Y324873D01*
X320336D01*
X319680Y324217D01*
X326239Y320937D02*
X323616D01*
X326239Y323561D01*
Y324217D01*
X325584Y324873D01*
X324272D01*
X323616Y324217D01*
X358657Y359937D02*
X358001Y360593D01*
Y361905D01*
X358657Y362561D01*
X359313D01*
X359969Y361905D01*
Y361249D01*
Y361905D01*
X360625Y362561D01*
X361281D01*
X361937Y361905D01*
Y360593D01*
X361281Y359937D01*
X358657Y363873D02*
X358001Y364529D01*
Y365841D01*
X358657Y366497D01*
X359313D01*
X359969Y365841D01*
Y365185D01*
Y365841D01*
X360625Y366497D01*
X361281D01*
X361937Y365841D01*
Y364529D01*
X361281Y363873D01*
X358001Y367809D02*
X361937D01*
X360625D01*
X358001Y370432D01*
X359969Y368464D01*
X361937Y370432D01*
X331657Y358437D02*
X331001Y359093D01*
Y360405D01*
X331657Y361061D01*
X332313D01*
X332969Y360405D01*
Y359749D01*
Y360405D01*
X333625Y361061D01*
X334281D01*
X334937Y360405D01*
Y359093D01*
X334281Y358437D01*
X331657Y362373D02*
X331001Y363029D01*
Y364341D01*
X331657Y364997D01*
X332313D01*
X332969Y364341D01*
Y363685D01*
Y364341D01*
X333625Y364997D01*
X334281D01*
X334937Y364341D01*
Y363029D01*
X334281Y362373D01*
X331001Y366308D02*
X334937D01*
X333625D01*
X331001Y368932D01*
X332969Y366964D01*
X334937Y368932D01*
X383437Y344217D02*
X384093Y344873D01*
X385405D01*
X386061Y344217D01*
Y343561D01*
X385405Y342905D01*
X384749D01*
X385405D01*
X386061Y342249D01*
Y341593D01*
X385405Y340937D01*
X384093D01*
X383437Y341593D01*
X387373Y344873D02*
Y342249D01*
X388685Y340937D01*
X389997Y342249D01*
Y344873D01*
X267061Y320937D02*
X264437D01*
X267061Y323561D01*
Y324217D01*
X266405Y324873D01*
X265093D01*
X264437Y324217D01*
X268373Y320937D02*
Y324873D01*
X270997Y320937D01*
Y324873D01*
X274932Y320937D02*
X272308D01*
X274932Y323561D01*
Y324217D01*
X274276Y324873D01*
X272964D01*
X272308Y324217D01*
X278868Y320937D02*
X276244D01*
X278868Y323561D01*
Y324217D01*
X278212Y324873D01*
X276900D01*
X276244Y324217D01*
X282804Y320937D02*
X280180D01*
X282804Y323561D01*
Y324217D01*
X282148Y324873D01*
X280836D01*
X280180Y324217D01*
X286739Y320937D02*
X284116D01*
X286739Y323561D01*
Y324217D01*
X286084Y324873D01*
X284772D01*
X284116Y324217D01*
X207061Y320937D02*
X204437D01*
X207061Y323561D01*
Y324217D01*
X206405Y324873D01*
X205093D01*
X204437Y324217D01*
X208373Y320937D02*
Y324873D01*
X210997Y320937D01*
Y324873D01*
X214932Y320937D02*
X212309D01*
X214932Y323561D01*
Y324217D01*
X214276Y324873D01*
X212964D01*
X212309Y324217D01*
X218868Y320937D02*
X216244D01*
X218868Y323561D01*
Y324217D01*
X218212Y324873D01*
X216900D01*
X216244Y324217D01*
X222804Y320937D02*
X220180D01*
X222804Y323561D01*
Y324217D01*
X222148Y324873D01*
X220836D01*
X220180Y324217D01*
X226740Y320937D02*
X224116D01*
X226740Y323561D01*
Y324217D01*
X226084Y324873D01*
X224772D01*
X224116Y324217D01*
X259157Y359937D02*
X258501Y360593D01*
Y361905D01*
X259157Y362561D01*
X259813D01*
X260469Y361905D01*
Y361249D01*
Y361905D01*
X261125Y362561D01*
X261781D01*
X262437Y361905D01*
Y360593D01*
X261781Y359937D01*
X259157Y363873D02*
X258501Y364529D01*
Y365841D01*
X259157Y366497D01*
X259813D01*
X260469Y365841D01*
Y365185D01*
Y365841D01*
X261125Y366497D01*
X261781D01*
X262437Y365841D01*
Y364529D01*
X261781Y363873D01*
X258501Y367809D02*
X262437D01*
X261125D01*
X258501Y370432D01*
X260469Y368464D01*
X262437Y370432D01*
X232157Y358437D02*
X231501Y359093D01*
Y360405D01*
X232157Y361061D01*
X232813D01*
X233469Y360405D01*
Y359749D01*
Y360405D01*
X234125Y361061D01*
X234781D01*
X235437Y360405D01*
Y359093D01*
X234781Y358437D01*
X232157Y362373D02*
X231501Y363029D01*
Y364341D01*
X232157Y364997D01*
X232813D01*
X233469Y364341D01*
Y363685D01*
Y364341D01*
X234125Y364997D01*
X234781D01*
X235437Y364341D01*
Y363029D01*
X234781Y362373D01*
X231501Y366308D02*
X235437D01*
X234125D01*
X231501Y368932D01*
X233469Y366964D01*
X235437Y368932D01*
X283937Y344217D02*
X284593Y344873D01*
X285905D01*
X286561Y344217D01*
Y343561D01*
X285905Y342905D01*
X285249D01*
X285905D01*
X286561Y342249D01*
Y341593D01*
X285905Y340937D01*
X284593D01*
X283937Y341593D01*
X287873Y344873D02*
Y342249D01*
X289185Y340937D01*
X290497Y342249D01*
Y344873D01*
X167061Y320937D02*
X164437D01*
X167061Y323561D01*
Y324217D01*
X166405Y324873D01*
X165093D01*
X164437Y324217D01*
X168373Y320937D02*
Y324873D01*
X170997Y320937D01*
Y324873D01*
X174932Y320937D02*
X172309D01*
X174932Y323561D01*
Y324217D01*
X174276Y324873D01*
X172965D01*
X172309Y324217D01*
X178868Y320937D02*
X176244D01*
X178868Y323561D01*
Y324217D01*
X178212Y324873D01*
X176900D01*
X176244Y324217D01*
X182804Y320937D02*
X180180D01*
X182804Y323561D01*
Y324217D01*
X182148Y324873D01*
X180836D01*
X180180Y324217D01*
X186740Y320937D02*
X184116D01*
X186740Y323561D01*
Y324217D01*
X186084Y324873D01*
X184772D01*
X184116Y324217D01*
X107061Y320937D02*
X104437D01*
X107061Y323561D01*
Y324217D01*
X106405Y324873D01*
X105093D01*
X104437Y324217D01*
X108373Y320937D02*
Y324873D01*
X110997Y320937D01*
Y324873D01*
X114932Y320937D02*
X112309D01*
X114932Y323561D01*
Y324217D01*
X114276Y324873D01*
X112964D01*
X112309Y324217D01*
X118868Y320937D02*
X116244D01*
X118868Y323561D01*
Y324217D01*
X118212Y324873D01*
X116900D01*
X116244Y324217D01*
X122804Y320937D02*
X120180D01*
X122804Y323561D01*
Y324217D01*
X122148Y324873D01*
X120836D01*
X120180Y324217D01*
X126740Y320937D02*
X124116D01*
X126740Y323561D01*
Y324217D01*
X126084Y324873D01*
X124772D01*
X124116Y324217D01*
X159157Y359937D02*
X158501Y360593D01*
Y361905D01*
X159157Y362561D01*
X159813D01*
X160469Y361905D01*
Y361249D01*
Y361905D01*
X161125Y362561D01*
X161781D01*
X162437Y361905D01*
Y360593D01*
X161781Y359937D01*
X159157Y363873D02*
X158501Y364529D01*
Y365841D01*
X159157Y366497D01*
X159813D01*
X160469Y365841D01*
Y365185D01*
Y365841D01*
X161125Y366497D01*
X161781D01*
X162437Y365841D01*
Y364529D01*
X161781Y363873D01*
X158501Y367809D02*
X162437D01*
X161125D01*
X158501Y370432D01*
X160469Y368464D01*
X162437Y370432D01*
X132157Y358437D02*
X131501Y359093D01*
Y360405D01*
X132157Y361061D01*
X132813D01*
X133469Y360405D01*
Y359749D01*
Y360405D01*
X134125Y361061D01*
X134781D01*
X135437Y360405D01*
Y359093D01*
X134781Y358437D01*
X132157Y362373D02*
X131501Y363029D01*
Y364341D01*
X132157Y364997D01*
X132813D01*
X133469Y364341D01*
Y363685D01*
Y364341D01*
X134125Y364997D01*
X134781D01*
X135437Y364341D01*
Y363029D01*
X134781Y362373D01*
X131501Y366308D02*
X135437D01*
X134125D01*
X131501Y368932D01*
X133469Y366964D01*
X135437Y368932D01*
X183937Y344217D02*
X184593Y344873D01*
X185905D01*
X186561Y344217D01*
Y343561D01*
X185905Y342905D01*
X185249D01*
X185905D01*
X186561Y342249D01*
Y341593D01*
X185905Y340937D01*
X184593D01*
X183937Y341593D01*
X187873Y344873D02*
Y342249D01*
X189185Y340937D01*
X190497Y342249D01*
Y344873D01*
X183937Y26217D02*
X184593Y26873D01*
X185905D01*
X186561Y26217D01*
Y25561D01*
X185905Y24905D01*
X185249D01*
X185905D01*
X186561Y24249D01*
Y23593D01*
X185905Y22937D01*
X184593D01*
X183937Y23593D01*
X187873Y26873D02*
Y24249D01*
X189185Y22937D01*
X190497Y24249D01*
Y26873D01*
X132157Y40437D02*
X131501Y41093D01*
Y42405D01*
X132157Y43061D01*
X132813D01*
X133469Y42405D01*
Y41749D01*
Y42405D01*
X134125Y43061D01*
X134781D01*
X135437Y42405D01*
Y41093D01*
X134781Y40437D01*
X132157Y44373D02*
X131501Y45029D01*
Y46341D01*
X132157Y46997D01*
X132813D01*
X133469Y46341D01*
Y45685D01*
Y46341D01*
X134125Y46997D01*
X134781D01*
X135437Y46341D01*
Y45029D01*
X134781Y44373D01*
X131501Y48309D02*
X135437D01*
X134125D01*
X131501Y50932D01*
X133469Y48964D01*
X135437Y50932D01*
X159157Y41937D02*
X158501Y42593D01*
Y43905D01*
X159157Y44561D01*
X159813D01*
X160469Y43905D01*
Y43249D01*
Y43905D01*
X161125Y44561D01*
X161781D01*
X162437Y43905D01*
Y42593D01*
X161781Y41937D01*
X159157Y45873D02*
X158501Y46529D01*
Y47841D01*
X159157Y48497D01*
X159813D01*
X160469Y47841D01*
Y47185D01*
Y47841D01*
X161125Y48497D01*
X161781D01*
X162437Y47841D01*
Y46529D01*
X161781Y45873D01*
X158501Y49808D02*
X162437D01*
X161125D01*
X158501Y52432D01*
X160469Y50464D01*
X162437Y52432D01*
X107061Y2937D02*
X104437D01*
X107061Y5561D01*
Y6217D01*
X106405Y6873D01*
X105093D01*
X104437Y6217D01*
X108373Y2937D02*
Y6873D01*
X110997Y2937D01*
Y6873D01*
X114932Y2937D02*
X112309D01*
X114932Y5561D01*
Y6217D01*
X114276Y6873D01*
X112964D01*
X112309Y6217D01*
X118868Y2937D02*
X116244D01*
X118868Y5561D01*
Y6217D01*
X118212Y6873D01*
X116900D01*
X116244Y6217D01*
X122804Y2937D02*
X120180D01*
X122804Y5561D01*
Y6217D01*
X122148Y6873D01*
X120836D01*
X120180Y6217D01*
X126740Y2937D02*
X124116D01*
X126740Y5561D01*
Y6217D01*
X126084Y6873D01*
X124772D01*
X124116Y6217D01*
X167061Y2937D02*
X164437D01*
X167061Y5561D01*
Y6217D01*
X166405Y6873D01*
X165093D01*
X164437Y6217D01*
X168373Y2937D02*
Y6873D01*
X170997Y2937D01*
Y6873D01*
X174932Y2937D02*
X172309D01*
X174932Y5561D01*
Y6217D01*
X174276Y6873D01*
X172965D01*
X172309Y6217D01*
X178868Y2937D02*
X176244D01*
X178868Y5561D01*
Y6217D01*
X178212Y6873D01*
X176900D01*
X176244Y6217D01*
X182804Y2937D02*
X180180D01*
X182804Y5561D01*
Y6217D01*
X182148Y6873D01*
X180836D01*
X180180Y6217D01*
X186740Y2937D02*
X184116D01*
X186740Y5561D01*
Y6217D01*
X186084Y6873D01*
X184772D01*
X184116Y6217D01*
X283937Y26217D02*
X284593Y26873D01*
X285905D01*
X286561Y26217D01*
Y25561D01*
X285905Y24905D01*
X285249D01*
X285905D01*
X286561Y24249D01*
Y23593D01*
X285905Y22937D01*
X284593D01*
X283937Y23593D01*
X287873Y26873D02*
Y24249D01*
X289185Y22937D01*
X290497Y24249D01*
Y26873D01*
X232157Y40437D02*
X231501Y41093D01*
Y42405D01*
X232157Y43061D01*
X232813D01*
X233469Y42405D01*
Y41749D01*
Y42405D01*
X234125Y43061D01*
X234781D01*
X235437Y42405D01*
Y41093D01*
X234781Y40437D01*
X232157Y44373D02*
X231501Y45029D01*
Y46341D01*
X232157Y46997D01*
X232813D01*
X233469Y46341D01*
Y45685D01*
Y46341D01*
X234125Y46997D01*
X234781D01*
X235437Y46341D01*
Y45029D01*
X234781Y44373D01*
X231501Y48309D02*
X235437D01*
X234125D01*
X231501Y50932D01*
X233469Y48964D01*
X235437Y50932D01*
X259157Y41937D02*
X258501Y42593D01*
Y43905D01*
X259157Y44561D01*
X259813D01*
X260469Y43905D01*
Y43249D01*
Y43905D01*
X261125Y44561D01*
X261781D01*
X262437Y43905D01*
Y42593D01*
X261781Y41937D01*
X259157Y45873D02*
X258501Y46529D01*
Y47841D01*
X259157Y48497D01*
X259813D01*
X260469Y47841D01*
Y47185D01*
Y47841D01*
X261125Y48497D01*
X261781D01*
X262437Y47841D01*
Y46529D01*
X261781Y45873D01*
X258501Y49808D02*
X262437D01*
X261125D01*
X258501Y52432D01*
X260469Y50464D01*
X262437Y52432D01*
X207061Y2937D02*
X204437D01*
X207061Y5561D01*
Y6217D01*
X206405Y6873D01*
X205093D01*
X204437Y6217D01*
X208373Y2937D02*
Y6873D01*
X210997Y2937D01*
Y6873D01*
X214932Y2937D02*
X212309D01*
X214932Y5561D01*
Y6217D01*
X214276Y6873D01*
X212964D01*
X212309Y6217D01*
X218868Y2937D02*
X216244D01*
X218868Y5561D01*
Y6217D01*
X218212Y6873D01*
X216900D01*
X216244Y6217D01*
X222804Y2937D02*
X220180D01*
X222804Y5561D01*
Y6217D01*
X222148Y6873D01*
X220836D01*
X220180Y6217D01*
X226740Y2937D02*
X224116D01*
X226740Y5561D01*
Y6217D01*
X226084Y6873D01*
X224772D01*
X224116Y6217D01*
X267061Y2937D02*
X264437D01*
X267061Y5561D01*
Y6217D01*
X266405Y6873D01*
X265093D01*
X264437Y6217D01*
X268373Y2937D02*
Y6873D01*
X270997Y2937D01*
Y6873D01*
X274932Y2937D02*
X272308D01*
X274932Y5561D01*
Y6217D01*
X274276Y6873D01*
X272964D01*
X272308Y6217D01*
X278868Y2937D02*
X276244D01*
X278868Y5561D01*
Y6217D01*
X278212Y6873D01*
X276900D01*
X276244Y6217D01*
X282804Y2937D02*
X280180D01*
X282804Y5561D01*
Y6217D01*
X282148Y6873D01*
X280836D01*
X280180Y6217D01*
X286739Y2937D02*
X284116D01*
X286739Y5561D01*
Y6217D01*
X286084Y6873D01*
X284772D01*
X284116Y6217D01*
X383437Y26217D02*
X384093Y26873D01*
X385405D01*
X386061Y26217D01*
Y25561D01*
X385405Y24905D01*
X384749D01*
X385405D01*
X386061Y24249D01*
Y23593D01*
X385405Y22937D01*
X384093D01*
X383437Y23593D01*
X387373Y26873D02*
Y24249D01*
X388685Y22937D01*
X389997Y24249D01*
Y26873D01*
X331657Y40437D02*
X331001Y41093D01*
Y42405D01*
X331657Y43061D01*
X332313D01*
X332969Y42405D01*
Y41749D01*
Y42405D01*
X333625Y43061D01*
X334281D01*
X334937Y42405D01*
Y41093D01*
X334281Y40437D01*
X331657Y44373D02*
X331001Y45029D01*
Y46341D01*
X331657Y46997D01*
X332313D01*
X332969Y46341D01*
Y45685D01*
Y46341D01*
X333625Y46997D01*
X334281D01*
X334937Y46341D01*
Y45029D01*
X334281Y44373D01*
X331001Y48309D02*
X334937D01*
X333625D01*
X331001Y50932D01*
X332969Y48964D01*
X334937Y50932D01*
X358657Y41937D02*
X358001Y42593D01*
Y43905D01*
X358657Y44561D01*
X359313D01*
X359969Y43905D01*
Y43249D01*
Y43905D01*
X360625Y44561D01*
X361281D01*
X361937Y43905D01*
Y42593D01*
X361281Y41937D01*
X358657Y45873D02*
X358001Y46529D01*
Y47841D01*
X358657Y48497D01*
X359313D01*
X359969Y47841D01*
Y47185D01*
Y47841D01*
X360625Y48497D01*
X361281D01*
X361937Y47841D01*
Y46529D01*
X361281Y45873D01*
X358001Y49808D02*
X361937D01*
X360625D01*
X358001Y52432D01*
X359969Y50464D01*
X361937Y52432D01*
X306561Y2937D02*
X303937D01*
X306561Y5561D01*
Y6217D01*
X305905Y6873D01*
X304593D01*
X303937Y6217D01*
X307873Y2937D02*
Y6873D01*
X310497Y2937D01*
Y6873D01*
X314432Y2937D02*
X311808D01*
X314432Y5561D01*
Y6217D01*
X313776Y6873D01*
X312464D01*
X311808Y6217D01*
X318368Y2937D02*
X315744D01*
X318368Y5561D01*
Y6217D01*
X317712Y6873D01*
X316400D01*
X315744Y6217D01*
X322304Y2937D02*
X319680D01*
X322304Y5561D01*
Y6217D01*
X321648Y6873D01*
X320336D01*
X319680Y6217D01*
X326239Y2937D02*
X323616D01*
X326239Y5561D01*
Y6217D01*
X325584Y6873D01*
X324272D01*
X323616Y6217D01*
X366561Y2937D02*
X363937D01*
X366561Y5561D01*
Y6217D01*
X365905Y6873D01*
X364593D01*
X363937Y6217D01*
X367873Y2937D02*
Y6873D01*
X370497Y2937D01*
Y6873D01*
X374432Y2937D02*
X371809D01*
X374432Y5561D01*
Y6217D01*
X373776Y6873D01*
X372464D01*
X371809Y6217D01*
X378368Y2937D02*
X375744D01*
X378368Y5561D01*
Y6217D01*
X377712Y6873D01*
X376400D01*
X375744Y6217D01*
X382304Y2937D02*
X379680D01*
X382304Y5561D01*
Y6217D01*
X381648Y6873D01*
X380336D01*
X379680Y6217D01*
X386240Y2937D02*
X383616D01*
X386240Y5561D01*
Y6217D01*
X385584Y6873D01*
X384272D01*
X383616Y6217D01*
X68061Y2937D02*
X65437D01*
X68061Y5561D01*
Y6217D01*
X67405Y6873D01*
X66093D01*
X65437Y6217D01*
X69373Y2937D02*
Y6873D01*
X71997Y2937D01*
Y6873D01*
X75932Y2937D02*
X73308D01*
X75932Y5561D01*
Y6217D01*
X75276Y6873D01*
X73964D01*
X73308Y6217D01*
X79868Y2937D02*
X77244D01*
X79868Y5561D01*
Y6217D01*
X79212Y6873D01*
X77900D01*
X77244Y6217D01*
X83804Y2937D02*
X81180D01*
X83804Y5561D01*
Y6217D01*
X83148Y6873D01*
X81836D01*
X81180Y6217D01*
X87739Y2937D02*
X85116D01*
X87739Y5561D01*
Y6217D01*
X87084Y6873D01*
X85772D01*
X85116Y6217D01*
X8061Y2937D02*
X5437D01*
X8061Y5561D01*
Y6217D01*
X7405Y6873D01*
X6093D01*
X5437Y6217D01*
X9373Y2937D02*
Y6873D01*
X11997Y2937D01*
Y6873D01*
X15932Y2937D02*
X13308D01*
X15932Y5561D01*
Y6217D01*
X15276Y6873D01*
X13964D01*
X13308Y6217D01*
X19868Y2937D02*
X17244D01*
X19868Y5561D01*
Y6217D01*
X19212Y6873D01*
X17900D01*
X17244Y6217D01*
X23804Y2937D02*
X21180D01*
X23804Y5561D01*
Y6217D01*
X23148Y6873D01*
X21836D01*
X21180Y6217D01*
X27740Y2937D02*
X25116D01*
X27740Y5561D01*
Y6217D01*
X27084Y6873D01*
X25772D01*
X25116Y6217D01*
X60157Y41937D02*
X59501Y42593D01*
Y43905D01*
X60157Y44561D01*
X60813D01*
X61469Y43905D01*
Y43249D01*
Y43905D01*
X62125Y44561D01*
X62781D01*
X63437Y43905D01*
Y42593D01*
X62781Y41937D01*
X60157Y45873D02*
X59501Y46529D01*
Y47841D01*
X60157Y48497D01*
X60813D01*
X61469Y47841D01*
Y47185D01*
Y47841D01*
X62125Y48497D01*
X62781D01*
X63437Y47841D01*
Y46529D01*
X62781Y45873D01*
X59501Y49808D02*
X63437D01*
X62125D01*
X59501Y52432D01*
X61469Y50464D01*
X63437Y52432D01*
X33157Y40437D02*
X32501Y41093D01*
Y42405D01*
X33157Y43061D01*
X33813D01*
X34469Y42405D01*
Y41749D01*
Y42405D01*
X35125Y43061D01*
X35781D01*
X36437Y42405D01*
Y41093D01*
X35781Y40437D01*
X33157Y44373D02*
X32501Y45029D01*
Y46341D01*
X33157Y46997D01*
X33813D01*
X34469Y46341D01*
Y45685D01*
Y46341D01*
X35125Y46997D01*
X35781D01*
X36437Y46341D01*
Y45029D01*
X35781Y44373D01*
X32501Y48309D02*
X36437D01*
X35125D01*
X32501Y50932D01*
X34469Y48964D01*
X36437Y50932D01*
X84937Y26217D02*
X85593Y26873D01*
X86905D01*
X87561Y26217D01*
Y25561D01*
X86905Y24905D01*
X86249D01*
X86905D01*
X87561Y24249D01*
Y23593D01*
X86905Y22937D01*
X85593D01*
X84937Y23593D01*
X88873Y26873D02*
Y24249D01*
X90185Y22937D01*
X91497Y24249D01*
Y26873D01*
D20*
X10894Y104473D02*
G03*
X8186Y89117I5321J-8855D01*
G01*
X24673Y89100D02*
G03*
X21960Y104485I-7811J6555D01*
G01*
X71394Y102973D02*
G03*
X68686Y87617I5321J-8855D01*
G01*
X85173Y87600D02*
G03*
X82460Y102986I-7811J6555D01*
G01*
X369894Y102973D02*
G03*
X367186Y87617I5321J-8855D01*
G01*
X383673Y87600D02*
G03*
X380960Y102986I-7811J6555D01*
G01*
X309394Y104473D02*
G03*
X306686Y89117I5321J-8855D01*
G01*
X323173Y89100D02*
G03*
X320460Y104485I-7811J6555D01*
G01*
X270394Y102973D02*
G03*
X267686Y87617I5321J-8855D01*
G01*
X284173Y87600D02*
G03*
X281460Y102986I-7811J6555D01*
G01*
X209894Y104473D02*
G03*
X207186Y89117I5321J-8855D01*
G01*
X223673Y89100D02*
G03*
X220960Y104485I-7811J6555D01*
G01*
X170394Y102973D02*
G03*
X167686Y87617I5321J-8855D01*
G01*
X184173Y87600D02*
G03*
X181460Y102986I-7811J6555D01*
G01*
X109894Y104473D02*
G03*
X107186Y89117I5321J-8855D01*
G01*
X123673Y89100D02*
G03*
X120960Y104485I-7811J6555D01*
G01*
X11394Y183973D02*
G03*
X8686Y168617I5321J-8855D01*
G01*
X25173Y168600D02*
G03*
X22460Y183985I-7811J6555D01*
G01*
X71894Y182473D02*
G03*
X69186Y167117I5321J-8855D01*
G01*
X85673Y167100D02*
G03*
X82960Y182485I-7811J6555D01*
G01*
X370394Y182473D02*
G03*
X367686Y167117I5321J-8855D01*
G01*
X384173Y167100D02*
G03*
X381460Y182485I-7811J6555D01*
G01*
X309894Y183973D02*
G03*
X307186Y168617I5321J-8855D01*
G01*
X323673Y168600D02*
G03*
X320960Y183985I-7811J6555D01*
G01*
X270894Y182473D02*
G03*
X268186Y167117I5321J-8855D01*
G01*
X284673Y167100D02*
G03*
X281960Y182485I-7811J6555D01*
G01*
X210394Y183973D02*
G03*
X207686Y168617I5321J-8855D01*
G01*
X224173Y168600D02*
G03*
X221460Y183985I-7811J6555D01*
G01*
X170894Y182473D02*
G03*
X168186Y167117I5321J-8855D01*
G01*
X184673Y167100D02*
G03*
X181960Y182485I-7811J6555D01*
G01*
X110394Y183973D02*
G03*
X107686Y168617I5321J-8855D01*
G01*
X124173Y168600D02*
G03*
X121460Y183985I-7811J6555D01*
G01*
X11394Y263473D02*
G03*
X8686Y248117I5321J-8855D01*
G01*
X25173Y248100D02*
G03*
X22460Y263486I-7811J6555D01*
G01*
X71894Y261973D02*
G03*
X69186Y246617I5321J-8855D01*
G01*
X85673Y246600D02*
G03*
X82960Y261985I-7811J6555D01*
G01*
X370394Y261973D02*
G03*
X367686Y246617I5321J-8855D01*
G01*
X384173Y246600D02*
G03*
X381460Y261985I-7811J6555D01*
G01*
X309894Y263473D02*
G03*
X307186Y248117I5321J-8855D01*
G01*
X323673Y248100D02*
G03*
X320960Y263486I-7811J6555D01*
G01*
X270894Y261973D02*
G03*
X268186Y246617I5321J-8855D01*
G01*
X284673Y246600D02*
G03*
X281960Y261985I-7811J6555D01*
G01*
X210394Y263473D02*
G03*
X207686Y248117I5321J-8855D01*
G01*
X224173Y248100D02*
G03*
X221460Y263486I-7811J6555D01*
G01*
X170894Y261973D02*
G03*
X168186Y246617I5321J-8855D01*
G01*
X184673Y246600D02*
G03*
X181960Y261985I-7811J6555D01*
G01*
X110394Y263473D02*
G03*
X107686Y248117I5321J-8855D01*
G01*
X124173Y248100D02*
G03*
X121460Y263486I-7811J6555D01*
G01*
X11394Y341973D02*
G03*
X8686Y326617I5321J-8855D01*
G01*
X25173Y326600D02*
G03*
X22460Y341986I-7811J6555D01*
G01*
X71894Y340473D02*
G03*
X69186Y325117I5321J-8855D01*
G01*
X85673Y325100D02*
G03*
X82960Y340486I-7811J6555D01*
G01*
X370394Y340473D02*
G03*
X367686Y325117I5321J-8855D01*
G01*
X384173Y325100D02*
G03*
X381460Y340486I-7811J6555D01*
G01*
X309894Y341973D02*
G03*
X307186Y326617I5321J-8855D01*
G01*
X323673Y326600D02*
G03*
X320960Y341986I-7811J6555D01*
G01*
X270894Y340473D02*
G03*
X268186Y325117I5321J-8855D01*
G01*
X284673Y325100D02*
G03*
X281960Y340486I-7811J6555D01*
G01*
X210394Y341973D02*
G03*
X207686Y326617I5321J-8855D01*
G01*
X224173Y326600D02*
G03*
X221460Y341986I-7811J6555D01*
G01*
X170894Y340473D02*
G03*
X168186Y325117I5321J-8855D01*
G01*
X184673Y325100D02*
G03*
X181960Y340486I-7811J6555D01*
G01*
X110394Y341973D02*
G03*
X107686Y326617I5321J-8855D01*
G01*
X124173Y326600D02*
G03*
X121460Y341986I-7811J6555D01*
G01*
X110394Y23973D02*
G03*
X107686Y8617I5321J-8855D01*
G01*
X124173Y8600D02*
G03*
X121460Y23986I-7811J6555D01*
G01*
X170894Y22473D02*
G03*
X168186Y7117I5321J-8855D01*
G01*
X184673Y7100D02*
G03*
X181960Y22486I-7811J6555D01*
G01*
X210394Y23973D02*
G03*
X207686Y8617I5321J-8855D01*
G01*
X224173Y8600D02*
G03*
X221460Y23986I-7811J6555D01*
G01*
X270894Y22473D02*
G03*
X268186Y7117I5321J-8855D01*
G01*
X284673Y7100D02*
G03*
X281960Y22486I-7811J6555D01*
G01*
X309894Y23973D02*
G03*
X307186Y8617I5321J-8855D01*
G01*
X323673Y8600D02*
G03*
X320960Y23986I-7811J6555D01*
G01*
X370394Y22473D02*
G03*
X367686Y7117I5321J-8855D01*
G01*
X384173Y7100D02*
G03*
X381460Y22486I-7811J6555D01*
G01*
X11394Y23973D02*
G03*
X8686Y8617I5321J-8855D01*
G01*
X25173Y8600D02*
G03*
X22460Y23986I-7811J6555D01*
G01*
X71894Y22473D02*
G03*
X69186Y7117I5321J-8855D01*
G01*
X85673Y7100D02*
G03*
X82960Y22486I-7811J6555D01*
G01*
X8169Y89138D02*
X24705D01*
X68669Y87638D02*
X85205D01*
X367169D02*
X383705D01*
X306669Y89138D02*
X323205D01*
X267669Y87638D02*
X284205D01*
X207169Y89138D02*
X223705D01*
X167669Y87638D02*
X184205D01*
X107169Y89138D02*
X123705D01*
X8669Y168638D02*
X25205D01*
X69169Y167138D02*
X85705D01*
X367669D02*
X384205D01*
X307169Y168638D02*
X323705D01*
X268169Y167138D02*
X284705D01*
X207669Y168638D02*
X224205D01*
X168169Y167138D02*
X184705D01*
X107669Y168638D02*
X124205D01*
X8669Y248138D02*
X25205D01*
X69169Y246638D02*
X85705D01*
X367669D02*
X384205D01*
X307169Y248138D02*
X323705D01*
X268169Y246638D02*
X284705D01*
X207669Y248138D02*
X224205D01*
X168169Y246638D02*
X184705D01*
X107669Y248138D02*
X124205D01*
X8669Y326638D02*
X25205D01*
X69169Y325138D02*
X85705D01*
X367669D02*
X384205D01*
X307169Y326638D02*
X323705D01*
X268169Y325138D02*
X284705D01*
X207669Y326638D02*
X224205D01*
X168169Y325138D02*
X184705D01*
X107669Y326638D02*
X124205D01*
X107669Y8638D02*
X124205D01*
X168169Y7138D02*
X184705D01*
X207669Y8638D02*
X224205D01*
X268169Y7138D02*
X284705D01*
X307169Y8638D02*
X323705D01*
X367669Y7138D02*
X384205D01*
X8669Y8638D02*
X25205D01*
X69169Y7138D02*
X85705D01*
D21*
X41937Y118937D02*
X42987D01*
X42462D01*
Y122086D01*
X41937Y121561D01*
X44561D02*
X45086Y122086D01*
X46135D01*
X46660Y121561D01*
Y119462D01*
X46135Y118937D01*
X45086D01*
X44561Y119462D01*
Y121561D01*
X47709D02*
X48234Y122086D01*
X49284D01*
X49808Y121561D01*
Y119462D01*
X49284Y118937D01*
X48234D01*
X47709Y119462D01*
Y121561D01*
X50858Y122086D02*
Y119462D01*
X51383Y118937D01*
X52432D01*
X52957Y119462D01*
Y122086D01*
X41437Y96437D02*
X42487D01*
X41962D01*
Y99586D01*
X41437Y99061D01*
X44061D02*
X44586Y99586D01*
X45635D01*
X46160Y99061D01*
Y96962D01*
X45635Y96437D01*
X44586D01*
X44061Y96962D01*
Y99061D01*
X47209D02*
X47734Y99586D01*
X48784D01*
X49308Y99061D01*
Y96962D01*
X48784Y96437D01*
X47734D01*
X47209Y96962D01*
Y99061D01*
X50358Y99586D02*
Y96962D01*
X50883Y96437D01*
X51932D01*
X52457Y96962D01*
Y99586D01*
X339937Y96437D02*
X340986D01*
X340462D01*
Y99586D01*
X339937Y99061D01*
X342561D02*
X343086Y99586D01*
X344135D01*
X344660Y99061D01*
Y96962D01*
X344135Y96437D01*
X343086D01*
X342561Y96962D01*
Y99061D01*
X345709D02*
X346234Y99586D01*
X347284D01*
X347809Y99061D01*
Y96962D01*
X347284Y96437D01*
X346234D01*
X345709Y96962D01*
Y99061D01*
X348858Y99586D02*
Y96962D01*
X349383Y96437D01*
X350432D01*
X350957Y96962D01*
Y99586D01*
X340437Y118937D02*
X341487D01*
X340962D01*
Y122086D01*
X340437Y121561D01*
X343061D02*
X343586Y122086D01*
X344635D01*
X345160Y121561D01*
Y119462D01*
X344635Y118937D01*
X343586D01*
X343061Y119462D01*
Y121561D01*
X346209D02*
X346734Y122086D01*
X347784D01*
X348308Y121561D01*
Y119462D01*
X347784Y118937D01*
X346734D01*
X346209Y119462D01*
Y121561D01*
X349358Y122086D02*
Y119462D01*
X349883Y118937D01*
X350932D01*
X351457Y119462D01*
Y122086D01*
X240437Y96437D02*
X241487D01*
X240962D01*
Y99586D01*
X240437Y99061D01*
X243061D02*
X243586Y99586D01*
X244635D01*
X245160Y99061D01*
Y96962D01*
X244635Y96437D01*
X243586D01*
X243061Y96962D01*
Y99061D01*
X246209D02*
X246734Y99586D01*
X247784D01*
X248308Y99061D01*
Y96962D01*
X247784Y96437D01*
X246734D01*
X246209Y96962D01*
Y99061D01*
X249358Y99586D02*
Y96962D01*
X249883Y96437D01*
X250932D01*
X251457Y96962D01*
Y99586D01*
X240937Y118937D02*
X241986D01*
X241462D01*
Y122086D01*
X240937Y121561D01*
X243561D02*
X244086Y122086D01*
X245135D01*
X245660Y121561D01*
Y119462D01*
X245135Y118937D01*
X244086D01*
X243561Y119462D01*
Y121561D01*
X246709D02*
X247234Y122086D01*
X248284D01*
X248809Y121561D01*
Y119462D01*
X248284Y118937D01*
X247234D01*
X246709Y119462D01*
Y121561D01*
X249858Y122086D02*
Y119462D01*
X250383Y118937D01*
X251432D01*
X251957Y119462D01*
Y122086D01*
X140437Y96437D02*
X141487D01*
X140962D01*
Y99586D01*
X140437Y99061D01*
X143061D02*
X143586Y99586D01*
X144635D01*
X145160Y99061D01*
Y96962D01*
X144635Y96437D01*
X143586D01*
X143061Y96962D01*
Y99061D01*
X146209D02*
X146734Y99586D01*
X147784D01*
X148309Y99061D01*
Y96962D01*
X147784Y96437D01*
X146734D01*
X146209Y96962D01*
Y99061D01*
X149358Y99586D02*
Y96962D01*
X149883Y96437D01*
X150932D01*
X151457Y96962D01*
Y99586D01*
X140937Y118937D02*
X141987D01*
X141462D01*
Y122086D01*
X140937Y121561D01*
X143561D02*
X144086Y122086D01*
X145135D01*
X145660Y121561D01*
Y119462D01*
X145135Y118937D01*
X144086D01*
X143561Y119462D01*
Y121561D01*
X146709D02*
X147234Y122086D01*
X148284D01*
X148809Y121561D01*
Y119462D01*
X148284Y118937D01*
X147234D01*
X146709Y119462D01*
Y121561D01*
X149858Y122086D02*
Y119462D01*
X150383Y118937D01*
X151432D01*
X151957Y119462D01*
Y122086D01*
X42437Y198437D02*
X43486D01*
X42962D01*
Y201586D01*
X42437Y201061D01*
X45061D02*
X45586Y201586D01*
X46635D01*
X47160Y201061D01*
Y198962D01*
X46635Y198437D01*
X45586D01*
X45061Y198962D01*
Y201061D01*
X48209D02*
X48734Y201586D01*
X49784D01*
X50309Y201061D01*
Y198962D01*
X49784Y198437D01*
X48734D01*
X48209Y198962D01*
Y201061D01*
X51358Y201586D02*
Y198962D01*
X51883Y198437D01*
X52932D01*
X53457Y198962D01*
Y201586D01*
X41937Y175937D02*
X42987D01*
X42462D01*
Y179086D01*
X41937Y178561D01*
X44561D02*
X45086Y179086D01*
X46135D01*
X46660Y178561D01*
Y176462D01*
X46135Y175937D01*
X45086D01*
X44561Y176462D01*
Y178561D01*
X47709D02*
X48234Y179086D01*
X49284D01*
X49808Y178561D01*
Y176462D01*
X49284Y175937D01*
X48234D01*
X47709Y176462D01*
Y178561D01*
X50858Y179086D02*
Y176462D01*
X51383Y175937D01*
X52432D01*
X52957Y176462D01*
Y179086D01*
X340437Y175937D02*
X341487D01*
X340962D01*
Y179086D01*
X340437Y178561D01*
X343061D02*
X343586Y179086D01*
X344635D01*
X345160Y178561D01*
Y176462D01*
X344635Y175937D01*
X343586D01*
X343061Y176462D01*
Y178561D01*
X346209D02*
X346734Y179086D01*
X347784D01*
X348308Y178561D01*
Y176462D01*
X347784Y175937D01*
X346734D01*
X346209Y176462D01*
Y178561D01*
X349358Y179086D02*
Y176462D01*
X349883Y175937D01*
X350932D01*
X351457Y176462D01*
Y179086D01*
X340937Y198437D02*
X341986D01*
X341462D01*
Y201586D01*
X340937Y201061D01*
X343561D02*
X344086Y201586D01*
X345135D01*
X345660Y201061D01*
Y198962D01*
X345135Y198437D01*
X344086D01*
X343561Y198962D01*
Y201061D01*
X346709D02*
X347234Y201586D01*
X348284D01*
X348809Y201061D01*
Y198962D01*
X348284Y198437D01*
X347234D01*
X346709Y198962D01*
Y201061D01*
X349858Y201586D02*
Y198962D01*
X350383Y198437D01*
X351432D01*
X351957Y198962D01*
Y201586D01*
X240937Y175937D02*
X241986D01*
X241462D01*
Y179086D01*
X240937Y178561D01*
X243561D02*
X244086Y179086D01*
X245135D01*
X245660Y178561D01*
Y176462D01*
X245135Y175937D01*
X244086D01*
X243561Y176462D01*
Y178561D01*
X246709D02*
X247234Y179086D01*
X248284D01*
X248809Y178561D01*
Y176462D01*
X248284Y175937D01*
X247234D01*
X246709Y176462D01*
Y178561D01*
X249858Y179086D02*
Y176462D01*
X250383Y175937D01*
X251432D01*
X251957Y176462D01*
Y179086D01*
X241437Y198437D02*
X242487D01*
X241962D01*
Y201586D01*
X241437Y201061D01*
X244061D02*
X244586Y201586D01*
X245635D01*
X246160Y201061D01*
Y198962D01*
X245635Y198437D01*
X244586D01*
X244061Y198962D01*
Y201061D01*
X247209D02*
X247734Y201586D01*
X248784D01*
X249308Y201061D01*
Y198962D01*
X248784Y198437D01*
X247734D01*
X247209Y198962D01*
Y201061D01*
X250358Y201586D02*
Y198962D01*
X250883Y198437D01*
X251932D01*
X252457Y198962D01*
Y201586D01*
X140937Y175937D02*
X141987D01*
X141462D01*
Y179086D01*
X140937Y178561D01*
X143561D02*
X144086Y179086D01*
X145135D01*
X145660Y178561D01*
Y176462D01*
X145135Y175937D01*
X144086D01*
X143561Y176462D01*
Y178561D01*
X146709D02*
X147234Y179086D01*
X148284D01*
X148809Y178561D01*
Y176462D01*
X148284Y175937D01*
X147234D01*
X146709Y176462D01*
Y178561D01*
X149858Y179086D02*
Y176462D01*
X150383Y175937D01*
X151432D01*
X151957Y176462D01*
Y179086D01*
X141437Y198437D02*
X142487D01*
X141962D01*
Y201586D01*
X141437Y201061D01*
X144061D02*
X144586Y201586D01*
X145635D01*
X146160Y201061D01*
Y198962D01*
X145635Y198437D01*
X144586D01*
X144061Y198962D01*
Y201061D01*
X147209D02*
X147734Y201586D01*
X148784D01*
X149309Y201061D01*
Y198962D01*
X148784Y198437D01*
X147734D01*
X147209Y198962D01*
Y201061D01*
X150358Y201586D02*
Y198962D01*
X150883Y198437D01*
X151932D01*
X152457Y198962D01*
Y201586D01*
X42437Y277937D02*
X43486D01*
X42962D01*
Y281086D01*
X42437Y280561D01*
X45061D02*
X45586Y281086D01*
X46635D01*
X47160Y280561D01*
Y278462D01*
X46635Y277937D01*
X45586D01*
X45061Y278462D01*
Y280561D01*
X48209D02*
X48734Y281086D01*
X49784D01*
X50309Y280561D01*
Y278462D01*
X49784Y277937D01*
X48734D01*
X48209Y278462D01*
Y280561D01*
X51358Y281086D02*
Y278462D01*
X51883Y277937D01*
X52932D01*
X53457Y278462D01*
Y281086D01*
X41937Y255437D02*
X42987D01*
X42462D01*
Y258586D01*
X41937Y258061D01*
X44561D02*
X45086Y258586D01*
X46135D01*
X46660Y258061D01*
Y255962D01*
X46135Y255437D01*
X45086D01*
X44561Y255962D01*
Y258061D01*
X47709D02*
X48234Y258586D01*
X49284D01*
X49808Y258061D01*
Y255962D01*
X49284Y255437D01*
X48234D01*
X47709Y255962D01*
Y258061D01*
X50858Y258586D02*
Y255962D01*
X51383Y255437D01*
X52432D01*
X52957Y255962D01*
Y258586D01*
X340437Y255437D02*
X341487D01*
X340962D01*
Y258586D01*
X340437Y258061D01*
X343061D02*
X343586Y258586D01*
X344635D01*
X345160Y258061D01*
Y255962D01*
X344635Y255437D01*
X343586D01*
X343061Y255962D01*
Y258061D01*
X346209D02*
X346734Y258586D01*
X347784D01*
X348308Y258061D01*
Y255962D01*
X347784Y255437D01*
X346734D01*
X346209Y255962D01*
Y258061D01*
X349358Y258586D02*
Y255962D01*
X349883Y255437D01*
X350932D01*
X351457Y255962D01*
Y258586D01*
X340937Y277937D02*
X341986D01*
X341462D01*
Y281086D01*
X340937Y280561D01*
X343561D02*
X344086Y281086D01*
X345135D01*
X345660Y280561D01*
Y278462D01*
X345135Y277937D01*
X344086D01*
X343561Y278462D01*
Y280561D01*
X346709D02*
X347234Y281086D01*
X348284D01*
X348809Y280561D01*
Y278462D01*
X348284Y277937D01*
X347234D01*
X346709Y278462D01*
Y280561D01*
X349858Y281086D02*
Y278462D01*
X350383Y277937D01*
X351432D01*
X351957Y278462D01*
Y281086D01*
X240937Y255437D02*
X241986D01*
X241462D01*
Y258586D01*
X240937Y258061D01*
X243561D02*
X244086Y258586D01*
X245135D01*
X245660Y258061D01*
Y255962D01*
X245135Y255437D01*
X244086D01*
X243561Y255962D01*
Y258061D01*
X246709D02*
X247234Y258586D01*
X248284D01*
X248809Y258061D01*
Y255962D01*
X248284Y255437D01*
X247234D01*
X246709Y255962D01*
Y258061D01*
X249858Y258586D02*
Y255962D01*
X250383Y255437D01*
X251432D01*
X251957Y255962D01*
Y258586D01*
X241437Y277937D02*
X242487D01*
X241962D01*
Y281086D01*
X241437Y280561D01*
X244061D02*
X244586Y281086D01*
X245635D01*
X246160Y280561D01*
Y278462D01*
X245635Y277937D01*
X244586D01*
X244061Y278462D01*
Y280561D01*
X247209D02*
X247734Y281086D01*
X248784D01*
X249308Y280561D01*
Y278462D01*
X248784Y277937D01*
X247734D01*
X247209Y278462D01*
Y280561D01*
X250358Y281086D02*
Y278462D01*
X250883Y277937D01*
X251932D01*
X252457Y278462D01*
Y281086D01*
X140937Y255437D02*
X141987D01*
X141462D01*
Y258586D01*
X140937Y258061D01*
X143561D02*
X144086Y258586D01*
X145135D01*
X145660Y258061D01*
Y255962D01*
X145135Y255437D01*
X144086D01*
X143561Y255962D01*
Y258061D01*
X146709D02*
X147234Y258586D01*
X148284D01*
X148809Y258061D01*
Y255962D01*
X148284Y255437D01*
X147234D01*
X146709Y255962D01*
Y258061D01*
X149858Y258586D02*
Y255962D01*
X150383Y255437D01*
X151432D01*
X151957Y255962D01*
Y258586D01*
X141437Y277937D02*
X142487D01*
X141962D01*
Y281086D01*
X141437Y280561D01*
X144061D02*
X144586Y281086D01*
X145635D01*
X146160Y280561D01*
Y278462D01*
X145635Y277937D01*
X144586D01*
X144061Y278462D01*
Y280561D01*
X147209D02*
X147734Y281086D01*
X148784D01*
X149309Y280561D01*
Y278462D01*
X148784Y277937D01*
X147734D01*
X147209Y278462D01*
Y280561D01*
X150358Y281086D02*
Y278462D01*
X150883Y277937D01*
X151932D01*
X152457Y278462D01*
Y281086D01*
X42437Y356437D02*
X43486D01*
X42962D01*
Y359586D01*
X42437Y359061D01*
X45061D02*
X45586Y359586D01*
X46635D01*
X47160Y359061D01*
Y356962D01*
X46635Y356437D01*
X45586D01*
X45061Y356962D01*
Y359061D01*
X48209D02*
X48734Y359586D01*
X49784D01*
X50309Y359061D01*
Y356962D01*
X49784Y356437D01*
X48734D01*
X48209Y356962D01*
Y359061D01*
X51358Y359586D02*
Y356962D01*
X51883Y356437D01*
X52932D01*
X53457Y356962D01*
Y359586D01*
X41937Y333937D02*
X42987D01*
X42462D01*
Y337086D01*
X41937Y336561D01*
X44561D02*
X45086Y337086D01*
X46135D01*
X46660Y336561D01*
Y334462D01*
X46135Y333937D01*
X45086D01*
X44561Y334462D01*
Y336561D01*
X47709D02*
X48234Y337086D01*
X49284D01*
X49808Y336561D01*
Y334462D01*
X49284Y333937D01*
X48234D01*
X47709Y334462D01*
Y336561D01*
X50858Y337086D02*
Y334462D01*
X51383Y333937D01*
X52432D01*
X52957Y334462D01*
Y337086D01*
X340437Y333937D02*
X341487D01*
X340962D01*
Y337086D01*
X340437Y336561D01*
X343061D02*
X343586Y337086D01*
X344635D01*
X345160Y336561D01*
Y334462D01*
X344635Y333937D01*
X343586D01*
X343061Y334462D01*
Y336561D01*
X346209D02*
X346734Y337086D01*
X347784D01*
X348308Y336561D01*
Y334462D01*
X347784Y333937D01*
X346734D01*
X346209Y334462D01*
Y336561D01*
X349358Y337086D02*
Y334462D01*
X349883Y333937D01*
X350932D01*
X351457Y334462D01*
Y337086D01*
X340937Y356437D02*
X341986D01*
X341462D01*
Y359586D01*
X340937Y359061D01*
X343561D02*
X344086Y359586D01*
X345135D01*
X345660Y359061D01*
Y356962D01*
X345135Y356437D01*
X344086D01*
X343561Y356962D01*
Y359061D01*
X346709D02*
X347234Y359586D01*
X348284D01*
X348809Y359061D01*
Y356962D01*
X348284Y356437D01*
X347234D01*
X346709Y356962D01*
Y359061D01*
X349858Y359586D02*
Y356962D01*
X350383Y356437D01*
X351432D01*
X351957Y356962D01*
Y359586D01*
X240937Y333937D02*
X241986D01*
X241462D01*
Y337086D01*
X240937Y336561D01*
X243561D02*
X244086Y337086D01*
X245135D01*
X245660Y336561D01*
Y334462D01*
X245135Y333937D01*
X244086D01*
X243561Y334462D01*
Y336561D01*
X246709D02*
X247234Y337086D01*
X248284D01*
X248809Y336561D01*
Y334462D01*
X248284Y333937D01*
X247234D01*
X246709Y334462D01*
Y336561D01*
X249858Y337086D02*
Y334462D01*
X250383Y333937D01*
X251432D01*
X251957Y334462D01*
Y337086D01*
X241437Y356437D02*
X242487D01*
X241962D01*
Y359586D01*
X241437Y359061D01*
X244061D02*
X244586Y359586D01*
X245635D01*
X246160Y359061D01*
Y356962D01*
X245635Y356437D01*
X244586D01*
X244061Y356962D01*
Y359061D01*
X247209D02*
X247734Y359586D01*
X248784D01*
X249308Y359061D01*
Y356962D01*
X248784Y356437D01*
X247734D01*
X247209Y356962D01*
Y359061D01*
X250358Y359586D02*
Y356962D01*
X250883Y356437D01*
X251932D01*
X252457Y356962D01*
Y359586D01*
X140937Y333937D02*
X141987D01*
X141462D01*
Y337086D01*
X140937Y336561D01*
X143561D02*
X144086Y337086D01*
X145135D01*
X145660Y336561D01*
Y334462D01*
X145135Y333937D01*
X144086D01*
X143561Y334462D01*
Y336561D01*
X146709D02*
X147234Y337086D01*
X148284D01*
X148809Y336561D01*
Y334462D01*
X148284Y333937D01*
X147234D01*
X146709Y334462D01*
Y336561D01*
X149858Y337086D02*
Y334462D01*
X150383Y333937D01*
X151432D01*
X151957Y334462D01*
Y337086D01*
X141437Y356437D02*
X142487D01*
X141962D01*
Y359586D01*
X141437Y359061D01*
X144061D02*
X144586Y359586D01*
X145635D01*
X146160Y359061D01*
Y356962D01*
X145635Y356437D01*
X144586D01*
X144061Y356962D01*
Y359061D01*
X147209D02*
X147734Y359586D01*
X148784D01*
X149309Y359061D01*
Y356962D01*
X148784Y356437D01*
X147734D01*
X147209Y356962D01*
Y359061D01*
X150358Y359586D02*
Y356962D01*
X150883Y356437D01*
X151932D01*
X152457Y356962D01*
Y359586D01*
X141437Y38437D02*
X142487D01*
X141962D01*
Y41586D01*
X141437Y41061D01*
X144061D02*
X144586Y41586D01*
X145635D01*
X146160Y41061D01*
Y38962D01*
X145635Y38437D01*
X144586D01*
X144061Y38962D01*
Y41061D01*
X147209D02*
X147734Y41586D01*
X148784D01*
X149309Y41061D01*
Y38962D01*
X148784Y38437D01*
X147734D01*
X147209Y38962D01*
Y41061D01*
X150358Y41586D02*
Y38962D01*
X150883Y38437D01*
X151932D01*
X152457Y38962D01*
Y41586D01*
X140937Y15937D02*
X141987D01*
X141462D01*
Y19086D01*
X140937Y18561D01*
X143561D02*
X144086Y19086D01*
X145135D01*
X145660Y18561D01*
Y16462D01*
X145135Y15937D01*
X144086D01*
X143561Y16462D01*
Y18561D01*
X146709D02*
X147234Y19086D01*
X148284D01*
X148809Y18561D01*
Y16462D01*
X148284Y15937D01*
X147234D01*
X146709Y16462D01*
Y18561D01*
X149858Y19086D02*
Y16462D01*
X150383Y15937D01*
X151432D01*
X151957Y16462D01*
Y19086D01*
X241437Y38437D02*
X242487D01*
X241962D01*
Y41586D01*
X241437Y41061D01*
X244061D02*
X244586Y41586D01*
X245635D01*
X246160Y41061D01*
Y38962D01*
X245635Y38437D01*
X244586D01*
X244061Y38962D01*
Y41061D01*
X247209D02*
X247734Y41586D01*
X248784D01*
X249308Y41061D01*
Y38962D01*
X248784Y38437D01*
X247734D01*
X247209Y38962D01*
Y41061D01*
X250358Y41586D02*
Y38962D01*
X250883Y38437D01*
X251932D01*
X252457Y38962D01*
Y41586D01*
X240937Y15937D02*
X241986D01*
X241462D01*
Y19086D01*
X240937Y18561D01*
X243561D02*
X244086Y19086D01*
X245135D01*
X245660Y18561D01*
Y16462D01*
X245135Y15937D01*
X244086D01*
X243561Y16462D01*
Y18561D01*
X246709D02*
X247234Y19086D01*
X248284D01*
X248809Y18561D01*
Y16462D01*
X248284Y15937D01*
X247234D01*
X246709Y16462D01*
Y18561D01*
X249858Y19086D02*
Y16462D01*
X250383Y15937D01*
X251432D01*
X251957Y16462D01*
Y19086D01*
X340937Y38437D02*
X341986D01*
X341462D01*
Y41586D01*
X340937Y41061D01*
X343561D02*
X344086Y41586D01*
X345135D01*
X345660Y41061D01*
Y38962D01*
X345135Y38437D01*
X344086D01*
X343561Y38962D01*
Y41061D01*
X346709D02*
X347234Y41586D01*
X348284D01*
X348809Y41061D01*
Y38962D01*
X348284Y38437D01*
X347234D01*
X346709Y38962D01*
Y41061D01*
X349858Y41586D02*
Y38962D01*
X350383Y38437D01*
X351432D01*
X351957Y38962D01*
Y41586D01*
X340437Y15937D02*
X341487D01*
X340962D01*
Y19086D01*
X340437Y18561D01*
X343061D02*
X343586Y19086D01*
X344635D01*
X345160Y18561D01*
Y16462D01*
X344635Y15937D01*
X343586D01*
X343061Y16462D01*
Y18561D01*
X346209D02*
X346734Y19086D01*
X347784D01*
X348308Y18561D01*
Y16462D01*
X347784Y15937D01*
X346734D01*
X346209Y16462D01*
Y18561D01*
X349358Y19086D02*
Y16462D01*
X349883Y15937D01*
X350932D01*
X351457Y16462D01*
Y19086D01*
X41937Y15937D02*
X42987D01*
X42462D01*
Y19086D01*
X41937Y18561D01*
X44561D02*
X45086Y19086D01*
X46135D01*
X46660Y18561D01*
Y16462D01*
X46135Y15937D01*
X45086D01*
X44561Y16462D01*
Y18561D01*
X47709D02*
X48234Y19086D01*
X49284D01*
X49808Y18561D01*
Y16462D01*
X49284Y15937D01*
X48234D01*
X47709Y16462D01*
Y18561D01*
X50858Y19086D02*
Y16462D01*
X51383Y15937D01*
X52432D01*
X52957Y16462D01*
Y19086D01*
X42437Y38437D02*
X43486D01*
X42962D01*
Y41586D01*
X42437Y41061D01*
X45061D02*
X45586Y41586D01*
X46635D01*
X47160Y41061D01*
Y38962D01*
X46635Y38437D01*
X45586D01*
X45061Y38962D01*
Y41061D01*
X48209D02*
X48734Y41586D01*
X49784D01*
X50309Y41061D01*
Y38962D01*
X49784Y38437D01*
X48734D01*
X48209Y38962D01*
Y41061D01*
X51358Y41586D02*
Y38962D01*
X51883Y38437D01*
X52932D01*
X53457Y38962D01*
Y41586D01*
M02*
