G04 Layer_Color=32896*
%FSLAX25Y25*%
%MOIN*%
G70*
G01*
G75*
%ADD20C,0.00800*%
D20*
X21966Y104482D02*
G03*
X10908Y104482I-5529J-8848D01*
G01*
X21966D02*
G03*
X10908Y104482I-5529J-8848D01*
G01*
X82466Y102982D02*
G03*
X71408Y102982I-5529J-8848D01*
G01*
X82466D02*
G03*
X71408Y102982I-5529J-8848D01*
G01*
X380966D02*
G03*
X369908Y102982I-5529J-8848D01*
G01*
X380966D02*
G03*
X369908Y102982I-5529J-8848D01*
G01*
X320466Y104482D02*
G03*
X309408Y104482I-5529J-8848D01*
G01*
X320466D02*
G03*
X309408Y104482I-5529J-8848D01*
G01*
X281466Y102982D02*
G03*
X270408Y102982I-5529J-8848D01*
G01*
X281466D02*
G03*
X270408Y102982I-5529J-8848D01*
G01*
X220966Y104482D02*
G03*
X209908Y104482I-5529J-8848D01*
G01*
X220966D02*
G03*
X209908Y104482I-5529J-8848D01*
G01*
X181466Y102982D02*
G03*
X170408Y102982I-5529J-8848D01*
G01*
X181466D02*
G03*
X170408Y102982I-5529J-8848D01*
G01*
X120966Y104482D02*
G03*
X109908Y104482I-5529J-8848D01*
G01*
X120966D02*
G03*
X109908Y104482I-5529J-8848D01*
G01*
X22466Y183982D02*
G03*
X11408Y183982I-5529J-8848D01*
G01*
X22466D02*
G03*
X11408Y183982I-5529J-8848D01*
G01*
X82966Y182482D02*
G03*
X71908Y182482I-5529J-8848D01*
G01*
X82966D02*
G03*
X71908Y182482I-5529J-8848D01*
G01*
X381466D02*
G03*
X370408Y182482I-5529J-8848D01*
G01*
X381466D02*
G03*
X370408Y182482I-5529J-8848D01*
G01*
X320966Y183982D02*
G03*
X309908Y183982I-5529J-8848D01*
G01*
X320966D02*
G03*
X309908Y183982I-5529J-8848D01*
G01*
X281966Y182482D02*
G03*
X270908Y182482I-5529J-8848D01*
G01*
X281966D02*
G03*
X270908Y182482I-5529J-8848D01*
G01*
X221466Y183982D02*
G03*
X210408Y183982I-5529J-8848D01*
G01*
X221466D02*
G03*
X210408Y183982I-5529J-8848D01*
G01*
X181966Y182482D02*
G03*
X170908Y182482I-5529J-8848D01*
G01*
X181966D02*
G03*
X170908Y182482I-5529J-8848D01*
G01*
X121466Y183982D02*
G03*
X110408Y183982I-5529J-8848D01*
G01*
X121466D02*
G03*
X110408Y183982I-5529J-8848D01*
G01*
X22466Y263482D02*
G03*
X11408Y263482I-5529J-8848D01*
G01*
X22466D02*
G03*
X11408Y263482I-5529J-8848D01*
G01*
X82966Y261982D02*
G03*
X71908Y261982I-5529J-8848D01*
G01*
X82966D02*
G03*
X71908Y261982I-5529J-8848D01*
G01*
X381466D02*
G03*
X370408Y261982I-5529J-8848D01*
G01*
X381466D02*
G03*
X370408Y261982I-5529J-8848D01*
G01*
X320966Y263482D02*
G03*
X309908Y263482I-5529J-8848D01*
G01*
X320966D02*
G03*
X309908Y263482I-5529J-8848D01*
G01*
X281966Y261982D02*
G03*
X270908Y261982I-5529J-8848D01*
G01*
X281966D02*
G03*
X270908Y261982I-5529J-8848D01*
G01*
X221466Y263482D02*
G03*
X210408Y263482I-5529J-8848D01*
G01*
X221466D02*
G03*
X210408Y263482I-5529J-8848D01*
G01*
X181966Y261982D02*
G03*
X170908Y261982I-5529J-8848D01*
G01*
X181966D02*
G03*
X170908Y261982I-5529J-8848D01*
G01*
X121466Y263482D02*
G03*
X110408Y263482I-5529J-8848D01*
G01*
X121466D02*
G03*
X110408Y263482I-5529J-8848D01*
G01*
X22466Y341982D02*
G03*
X11408Y341982I-5529J-8848D01*
G01*
X22466D02*
G03*
X11408Y341982I-5529J-8848D01*
G01*
X82966Y340482D02*
G03*
X71908Y340482I-5529J-8848D01*
G01*
X82966D02*
G03*
X71908Y340482I-5529J-8848D01*
G01*
X381466D02*
G03*
X370408Y340482I-5529J-8848D01*
G01*
X381466D02*
G03*
X370408Y340482I-5529J-8848D01*
G01*
X320966Y341982D02*
G03*
X309908Y341982I-5529J-8848D01*
G01*
X320966D02*
G03*
X309908Y341982I-5529J-8848D01*
G01*
X281966Y340482D02*
G03*
X270908Y340482I-5529J-8848D01*
G01*
X281966D02*
G03*
X270908Y340482I-5529J-8848D01*
G01*
X221466Y341982D02*
G03*
X210408Y341982I-5529J-8848D01*
G01*
X221466D02*
G03*
X210408Y341982I-5529J-8848D01*
G01*
X181966Y340482D02*
G03*
X170908Y340482I-5529J-8848D01*
G01*
X181966D02*
G03*
X170908Y340482I-5529J-8848D01*
G01*
X121466Y341982D02*
G03*
X110408Y341982I-5529J-8848D01*
G01*
X121466D02*
G03*
X110408Y341982I-5529J-8848D01*
G01*
X121466Y23982D02*
G03*
X110408Y23982I-5529J-8848D01*
G01*
X121466D02*
G03*
X110408Y23982I-5529J-8848D01*
G01*
X181966Y22482D02*
G03*
X170908Y22482I-5529J-8848D01*
G01*
X181966D02*
G03*
X170908Y22482I-5529J-8848D01*
G01*
X221466Y23982D02*
G03*
X210408Y23982I-5529J-8848D01*
G01*
X221466D02*
G03*
X210408Y23982I-5529J-8848D01*
G01*
X281966Y22482D02*
G03*
X270908Y22482I-5529J-8848D01*
G01*
X281966D02*
G03*
X270908Y22482I-5529J-8848D01*
G01*
X320966Y23982D02*
G03*
X309908Y23982I-5529J-8848D01*
G01*
X320966D02*
G03*
X309908Y23982I-5529J-8848D01*
G01*
X381466Y22482D02*
G03*
X370408Y22482I-5529J-8848D01*
G01*
X381466D02*
G03*
X370408Y22482I-5529J-8848D01*
G01*
X22466Y23982D02*
G03*
X11408Y23982I-5529J-8848D01*
G01*
X22466D02*
G03*
X11408Y23982I-5529J-8848D01*
G01*
X82966Y22482D02*
G03*
X71908Y22482I-5529J-8848D01*
G01*
X82966D02*
G03*
X71908Y22482I-5529J-8848D01*
G01*
M02*
