M48
;Layer_Color=9474304
;FILE_FORMAT=2:5
INCH,LZ
T6F00S00C0.20000
%
G90
G05
T06
G00X0389488Y-00098
M15
G01X0391396Y-000921
G01X0393148Y-0008252
G01X0394676Y-0006965
G01X0395917Y-00054
G01X0396822Y-0003619
G01X0397356Y-0001694
G01X03975Y0
G01X03975Y03995
G01X03973Y0401488
G01X039671Y0403396
G01X0395752Y0405148
G01X0394465Y0406676
G01X03929Y0407917
G01X0391119Y0408822
G01X0389194Y0409356
G01X03875Y04095
G01X00045Y04095
G01X0002512Y0409301
G01X0000604Y040871
G01X-0001148Y0407752
G01X-0002676Y0406465
G01X-0003917Y04049
G01X-0004822Y0403119
G01X-0005355Y0401194
G01X-00055Y03995
G01X-00055Y0
G01X-00053Y-0001988
G01X-000471Y-0003896
G01X-0003752Y-0005648
G01X-0002465Y-0007176
G01X-00009Y-0008417
G01X0000881Y-0009322
G01X0002806Y-0009855
G01X00045Y-001
G01X03875Y-001
G01X0389488Y-00098
M16
M17
M30
