M48
;Layer_Color=9474304
;FILE_FORMAT=2:5
INCH,LZ
;TYPE=PLATED
T1F00S00C0.02756
T3F00S00C0.03150
T4F00S00C0.03346
;TYPE=NON_PLATED
%
T01
X0017Y0015
Y0025
Y0035
Y0045
Y0055
X0047
Y0045
Y0035
Y0025
Y0015
X01235Y00155
X0132Y0031
X0142
X0137Y00385
X0165657Y00375
X0185343Y00375
X01885Y00165
X0168815Y00165
X01535Y00155
X0207Y002
Y003
X02145Y0025
X02355Y0013
X02365Y0036
X02665
X02655Y0013
X02745Y00105
X03045
X0305315Y0035342
X0325Y0045185
Y00255
X03525Y0022158
X03525Y0041842
X0354Y00815
X0344
X0326Y0081
X0316
X03
X029
X02745
X02645
X0245Y00805
X0235
X02165Y0082
X0216Y0125
X0237Y0113
X0238Y0136
X0268
X0267Y0113
X0276Y01105
X0306
X0306815Y0135343
X03265Y0145185
Y01255
X0354Y0122158
X0354Y0141842
X03555Y01815
X03455
X03275Y0181
X03175
X03015
X02915
X0276
X0266
X02465Y01805
X02365
X0218Y0182
X0208
X019Y01805
X018
X01595Y0181
X01495
X013Y01805
X012
X0098Y0181
X0088
X01385Y01385
X01335Y0131
X01435
X0155Y01155
X0170315Y01165
X019Y01165
X02085Y012
Y013
X0186843Y01375
X0167157Y01375
X0125Y01155
X01285Y00805
X01185
X00965Y0081
X00865
X0148
X0158
X01785Y00805
X01885
X02065Y0082
X0047Y0085
Y0075
Y0065
X0017
Y0075
Y0085
X00185Y0115
Y0125
Y0135
Y0145
Y0155
Y0165
Y0175
Y0185
X00485
Y0175
Y0165
Y0155
Y0145
Y0135
Y0125
Y0115
X0048Y0217
Y0227
Y0237
Y0247
Y0257
Y0267
Y0277
Y0287
X00475Y03155
Y03255
Y03355
Y03455
Y03555
Y03655
X00175
Y03555
Y03455
Y03355
Y03255
Y03155
X0018Y0287
Y0277
Y0267
Y0257
Y0247
Y0237
Y0227
Y0217
X01245Y02175
X0133Y0233
X0143
X0138Y02405
X0166657Y02395
X0186343Y02395
X01895Y02185
X0169815Y02185
X01545Y02175
X0208Y0222
Y0232
X02075Y0284
X01895Y02825
X01795
X0159Y0283
X0149
X01295Y02825
X01195
X00975Y0283
X00875
X0124Y0316
X01325Y03315
X01425
X01375Y0339
X0166157Y0338
X0185843Y0338
X0189Y0317
X0169315Y0317
X0154Y0316
X02075Y03205
Y03305
X0215Y03255
X0236Y03135
X0237Y03365
X0267
X0266Y03135
X0275Y0311
X02755Y0283
X02655
X0246Y02825
X0236
X02175Y0284
X02155Y0227
X02365Y0215
X02375Y0238
X02675
X02665Y0215
X02755Y02125
X03055
X0306315Y0237343
X0326Y0247185
Y02275
X03535Y0224158
X03535Y0243843
X0355Y02835
X0345
X0327Y0283
X0317
X0301
X0291
X0305Y0311
X0305815Y0335842
X03255Y0345685
Y0326
X0353Y0322657
X0353Y0342342
X03545Y0382
X03445
X03265Y03815
X03165
X03005
X02905
X0275
X0265
X02455Y0381
X02355
X0217Y03825
X0207
X0189Y0381
X0179
X01585Y03815
X01485
X0129Y0381
X0119
X0097Y03815
X0087
X00475Y03855
Y03755
X00175
Y03855
T03
X0335409Y00115
X037659
X03745Y00245
Y00345
X0378091Y01115
X0376Y01245
Y01345
X033691Y01115
X0336409Y02135
X033591Y0312
X0377091
X0375Y0325
Y0335
X03755Y02365
Y02265
X037759Y02135
T04
X03725Y00585
Y00885
X0374Y01585
Y01885
X03735Y02605
Y02905
X0373Y0359
Y0389
M30
