G04 Layer_Physical_Order=2*
G04 Layer_Color=16711680*
%FSLAX25Y25*%
%MOIN*%
G70*
G01*
G75*
%ADD10C,0.02000*%
%ADD11R,3.77953X0.02756*%
%ADD12R,3.77953X0.03937*%
%ADD13C,0.05905*%
%ADD14C,0.06600*%
%ADD15R,0.06600X0.06600*%
%ADD16C,0.05512*%
%ADD17C,0.07874*%
%ADD18R,0.07874X0.07874*%
%ADD19R,0.07874X0.07874*%
%ADD20R,0.05905X0.05905*%
%ADD21C,0.05937*%
%ADD22R,0.05937X0.05937*%
%ADD23C,0.05827*%
%ADD24R,0.05827X0.05827*%
%ADD25R,0.05905X0.05905*%
G36*
X138895Y341991D02*
X140601Y340129D01*
X140491Y337605D01*
X138629Y335899D01*
X136105Y336009D01*
X134399Y337871D01*
X134509Y340395D01*
X136371Y342101D01*
X138895Y341991D01*
D02*
G37*
G36*
X143895Y334491D02*
X145601Y332629D01*
X145491Y330105D01*
X143629Y328399D01*
X141105Y328509D01*
X139399Y330371D01*
X139509Y332895D01*
X141371Y334601D01*
X143895Y334491D01*
D02*
G37*
G36*
X133895D02*
X135601Y332629D01*
X135491Y330105D01*
X133629Y328399D01*
X131105Y328509D01*
X129399Y330371D01*
X129509Y332895D01*
X131371Y334601D01*
X133895Y334491D01*
D02*
G37*
G36*
X208895Y333491D02*
X210601Y331629D01*
X210491Y329105D01*
X208629Y327399D01*
X206105Y327509D01*
X204399Y329371D01*
X204509Y331895D01*
X206371Y333601D01*
X208895Y333491D01*
D02*
G37*
G36*
X216395Y328491D02*
X218101Y326629D01*
X217991Y324105D01*
X216129Y322399D01*
X213605Y322509D01*
X211899Y324371D01*
X212009Y326895D01*
X213871Y328601D01*
X216395Y328491D01*
D02*
G37*
G36*
X208895Y323491D02*
X210601Y321629D01*
X210491Y319105D01*
X208629Y317399D01*
X206105Y317509D01*
X204399Y319371D01*
X204509Y321895D01*
X206371Y323601D01*
X208895Y323491D01*
D02*
G37*
G36*
X139395Y243491D02*
X141101Y241629D01*
X140991Y239105D01*
X139129Y237399D01*
X136605Y237509D01*
X134899Y239371D01*
X135009Y241895D01*
X136871Y243601D01*
X139395Y243491D01*
D02*
G37*
G36*
X144395Y235991D02*
X146101Y234129D01*
X145991Y231605D01*
X144129Y229899D01*
X141605Y230009D01*
X139899Y231871D01*
X140009Y234395D01*
X141871Y236101D01*
X144395Y235991D01*
D02*
G37*
G36*
X134395D02*
X136101Y234129D01*
X135991Y231605D01*
X134129Y229899D01*
X131605Y230009D01*
X129899Y231871D01*
X130009Y234395D01*
X131871Y236101D01*
X134395Y235991D01*
D02*
G37*
G36*
X209395Y234991D02*
X211101Y233129D01*
X210991Y230605D01*
X209129Y228899D01*
X206605Y229009D01*
X204899Y230871D01*
X205009Y233395D01*
X206871Y235101D01*
X209395Y234991D01*
D02*
G37*
G36*
X216895Y229991D02*
X218601Y228129D01*
X218491Y225605D01*
X216629Y223899D01*
X214105Y224009D01*
X212399Y225871D01*
X212509Y228395D01*
X214371Y230101D01*
X216895Y229991D01*
D02*
G37*
G36*
X209395Y224991D02*
X211101Y223129D01*
X210991Y220605D01*
X209129Y218899D01*
X206605Y219009D01*
X204899Y220871D01*
X205009Y223395D01*
X206871Y225101D01*
X209395Y224991D01*
D02*
G37*
G36*
X139895Y141491D02*
X141601Y139629D01*
X141491Y137105D01*
X139629Y135399D01*
X137105Y135509D01*
X135399Y137371D01*
X135509Y139895D01*
X137371Y141601D01*
X139895Y141491D01*
D02*
G37*
G36*
X144895Y133991D02*
X146601Y132129D01*
X146491Y129605D01*
X144629Y127899D01*
X142105Y128009D01*
X140399Y129871D01*
X140509Y132395D01*
X142371Y134101D01*
X144895Y133991D01*
D02*
G37*
G36*
X134895D02*
X136601Y132129D01*
X136491Y129605D01*
X134629Y127899D01*
X132105Y128009D01*
X130399Y129871D01*
X130509Y132395D01*
X132371Y134101D01*
X134895Y133991D01*
D02*
G37*
G36*
X209895Y132991D02*
X211601Y131129D01*
X211491Y128605D01*
X209629Y126899D01*
X207105Y127009D01*
X205399Y128871D01*
X205509Y131395D01*
X207371Y133101D01*
X209895Y132991D01*
D02*
G37*
G36*
X217395Y127991D02*
X219101Y126129D01*
X218991Y123605D01*
X217129Y121899D01*
X214605Y122009D01*
X212899Y123871D01*
X213009Y126395D01*
X214871Y128101D01*
X217395Y127991D01*
D02*
G37*
G36*
X209895Y122991D02*
X211601Y121129D01*
X211491Y118605D01*
X209629Y116899D01*
X207105Y117009D01*
X205399Y118871D01*
X205509Y121395D01*
X207371Y123101D01*
X209895Y122991D01*
D02*
G37*
G36*
X138395Y41491D02*
X140101Y39629D01*
X139991Y37105D01*
X138129Y35399D01*
X135605Y35509D01*
X133899Y37371D01*
X134009Y39895D01*
X135871Y41601D01*
X138395Y41491D01*
D02*
G37*
G36*
X143395Y33991D02*
X145101Y32129D01*
X144991Y29605D01*
X143129Y27899D01*
X140605Y28009D01*
X138899Y29871D01*
X139009Y32395D01*
X140871Y34101D01*
X143395Y33991D01*
D02*
G37*
G36*
X133395D02*
X135101Y32129D01*
X134991Y29605D01*
X133129Y27899D01*
X130605Y28009D01*
X128899Y29871D01*
X129009Y32395D01*
X130871Y34101D01*
X133395Y33991D01*
D02*
G37*
G36*
X208395Y32991D02*
X210101Y31129D01*
X209991Y28605D01*
X208129Y26899D01*
X205605Y27009D01*
X203899Y28871D01*
X204009Y31395D01*
X205871Y33101D01*
X208395Y32991D01*
D02*
G37*
G36*
X215895Y27991D02*
X217601Y26129D01*
X217491Y23605D01*
X215629Y21899D01*
X213105Y22009D01*
X211399Y23871D01*
X211509Y26395D01*
X213371Y28101D01*
X215895Y27991D01*
D02*
G37*
G36*
X208395Y22991D02*
X210101Y21129D01*
X209991Y18605D01*
X208129Y16899D01*
X205605Y17009D01*
X203899Y18871D01*
X204009Y21395D01*
X205871Y23101D01*
X208395Y22991D01*
D02*
G37*
D10*
X48500Y125000D02*
X106500D01*
X131500Y150000D01*
X314000D01*
X345500Y181500D01*
X48500Y135000D02*
X112257D01*
X130257Y153000D01*
X289500D01*
X317500Y181000D01*
X48500Y145000D02*
X118015D01*
X129015Y156000D01*
X241000D01*
X266000Y181000D01*
X48500Y155000D02*
X94500D01*
X120000Y180500D01*
X236500D02*
Y181500D01*
X148500Y171500D02*
X197500D01*
X208000Y182000D01*
X224700Y193300D02*
X236500Y181500D01*
X18500Y185000D02*
X26800Y193300D01*
X140200Y190300D02*
X149500Y181000D01*
X18500Y175000D02*
X33800Y190300D01*
X132700Y187300D02*
X148500Y171500D01*
X48500Y175000D02*
X60800Y187300D01*
X26800Y193300D02*
X224700D01*
X33800Y190300D02*
X140200D01*
X60800Y187300D02*
X132700D01*
X28000Y164500D02*
X48500Y185000D01*
X28000Y154500D02*
Y164500D01*
X18500Y145000D02*
X28000Y154500D01*
X18500Y145000D02*
X26500Y137000D01*
Y130000D02*
Y137000D01*
X21500Y125000D02*
X26500Y130000D01*
X18500Y125000D02*
X21500D01*
X125000Y115500D02*
Y134500D01*
X129000Y138500D01*
X138500D01*
X143500Y131000D02*
X155815D01*
X170315Y116500D01*
X147500Y108000D02*
X155000Y115500D01*
X25500Y108000D02*
X147500D01*
X18500Y115000D02*
X25500Y108000D01*
X186843Y137500D02*
X204343Y120000D01*
X208500D01*
X216000Y125000D02*
X227000D01*
X238000Y136000D01*
X208500Y130000D02*
Y130101D01*
X224601D02*
X238000Y143500D01*
X345689Y150154D02*
X354000Y141842D01*
X322847Y150154D02*
X345689D01*
X355500Y181500D02*
X367000D01*
X374000Y188500D01*
Y136500D02*
Y158500D01*
X354000Y141842D02*
X368657D01*
X374000Y136500D01*
X376000Y134500D01*
X347567Y122158D02*
X354000D01*
X336910Y111500D02*
X347567Y122158D01*
X376000Y113591D02*
Y124500D01*
Y113591D02*
X378091Y111500D01*
X190000Y116500D02*
X198500D01*
X204500Y110500D01*
X213000D01*
X216000Y113500D01*
Y125000D01*
X268000Y114000D02*
Y136000D01*
X267000Y113000D02*
X268000Y114000D01*
X267000Y113000D02*
X273500D01*
X276000Y110500D01*
X138500Y138500D02*
X166157D01*
X167157Y137500D01*
X170315Y116500D02*
X179315Y107500D01*
X231500D01*
X237000Y113000D01*
X306000Y110500D02*
X311500D01*
X326500Y125500D01*
X306815Y135343D02*
X316657D01*
X326500Y145185D01*
X238000Y143500D02*
X316193D01*
X322847Y150154D01*
X208500Y130101D02*
X224601D01*
X48000Y227000D02*
X106000D01*
X131000Y252000D01*
X313500D01*
X345000Y283500D01*
X48000Y237000D02*
X111757D01*
X129757Y255000D01*
X289000D01*
X317000Y283000D01*
X48000Y247000D02*
X117515D01*
X128515Y258000D01*
X240500D01*
X265500Y283000D01*
X48000Y257000D02*
X94000D01*
X119500Y282500D01*
X236000D02*
Y283500D01*
X148000Y273500D02*
X197000D01*
X207500Y284000D01*
X224200Y295300D02*
X236000Y283500D01*
X18000Y287000D02*
X26300Y295300D01*
X139700Y292300D02*
X149000Y283000D01*
X18000Y277000D02*
X33300Y292300D01*
X132200Y289300D02*
X148000Y273500D01*
X48000Y277000D02*
X60300Y289300D01*
X26300Y295300D02*
X224200D01*
X33300Y292300D02*
X139700D01*
X60300Y289300D02*
X132200D01*
X27500Y266500D02*
X48000Y287000D01*
X27500Y256500D02*
Y266500D01*
X18000Y247000D02*
X27500Y256500D01*
X18000Y247000D02*
X26000Y239000D01*
Y232000D02*
Y239000D01*
X21000Y227000D02*
X26000Y232000D01*
X18000Y227000D02*
X21000D01*
X124500Y217500D02*
Y236500D01*
X128500Y240500D01*
X138000D01*
X143000Y233000D02*
X155315D01*
X169815Y218500D01*
X147000Y210000D02*
X154500Y217500D01*
X25000Y210000D02*
X147000D01*
X18000Y217000D02*
X25000Y210000D01*
X186343Y239500D02*
X203842Y222000D01*
X208000D01*
X215500Y227000D02*
X226500D01*
X237500Y238000D01*
X208000Y232000D02*
Y232101D01*
X224101D02*
X237500Y245500D01*
X345189Y252153D02*
X353500Y243843D01*
X322346Y252153D02*
X345189D01*
X355000Y283500D02*
X366500D01*
X373500Y290500D01*
Y238500D02*
Y260500D01*
X353500Y243843D02*
X368158D01*
X373500Y238500D01*
X375500Y236500D01*
X347067Y224158D02*
X353500D01*
X336409Y213500D02*
X347067Y224158D01*
X375500Y215591D02*
Y226500D01*
Y215591D02*
X377590Y213500D01*
X189500Y218500D02*
X198000D01*
X204000Y212500D01*
X212500D01*
X215500Y215500D01*
Y227000D01*
X267500Y216000D02*
Y238000D01*
X266500Y215000D02*
X267500Y216000D01*
X266500Y215000D02*
X273000D01*
X275500Y212500D01*
X138000Y240500D02*
X165657D01*
X166657Y239500D01*
X169815Y218500D02*
X178815Y209500D01*
X231000D01*
X236500Y215000D01*
X305500Y212500D02*
X311000D01*
X326000Y227500D01*
X306315Y237343D02*
X316158D01*
X326000Y247185D01*
X237500Y245500D02*
X315693D01*
X322346Y252153D01*
X208000Y232101D02*
X224101D01*
X47500Y325500D02*
X105500D01*
X47500Y335500D02*
X111257D01*
X129257Y353500D01*
X288500D01*
X316500Y381500D01*
X47500Y345500D02*
X117015D01*
X128015Y356500D01*
X240000D01*
X265000Y381500D01*
X47500Y355500D02*
X93500D01*
X119000Y381000D01*
X235500D02*
Y382000D01*
X147500Y372000D02*
X196500D01*
X207000Y382500D01*
X223700Y393800D02*
X235500Y382000D01*
X17500Y385500D02*
X25800Y393800D01*
X139200Y390800D02*
X148500Y381500D01*
X17500Y375500D02*
X32800Y390800D01*
X131700Y387800D02*
X147500Y372000D01*
X47500Y375500D02*
X59800Y387800D01*
X25800Y393800D02*
X223700D01*
X32800Y390800D02*
X139200D01*
X59800Y387800D02*
X131700D01*
X27000Y365000D02*
X47500Y385500D01*
X27000Y355000D02*
Y365000D01*
X17500Y345500D02*
X27000Y355000D01*
X17500Y345500D02*
X25500Y337500D01*
Y330500D02*
Y337500D01*
X20500Y325500D02*
X25500Y330500D01*
X17500Y325500D02*
X20500D01*
X124000Y316000D02*
Y335000D01*
X128000Y339000D01*
X137500D01*
X142500Y331500D02*
X154815D01*
X169315Y317000D01*
X146500Y308500D02*
X154000Y316000D01*
X24500Y308500D02*
X146500D01*
X17500Y315500D02*
X24500Y308500D01*
X185843Y338000D02*
X203343Y320500D01*
X207500D01*
X215000Y325500D02*
X226000D01*
X237000Y336500D01*
X207500Y330500D02*
Y330601D01*
X223601D02*
X237000Y344000D01*
X344689Y350654D02*
X353000Y342342D01*
X321847Y350654D02*
X344689D01*
X354500Y382000D02*
X366000D01*
X373000Y389000D01*
Y337000D02*
Y359000D01*
X353000Y342342D02*
X367657D01*
X373000Y337000D01*
X375000Y335000D01*
X346567Y322657D02*
X353000D01*
X335910Y312000D02*
X346567Y322657D01*
X375000Y314090D02*
Y325000D01*
Y314090D02*
X377091Y312000D01*
X189000Y317000D02*
X197500D01*
X203500Y311000D01*
X212000D01*
X215000Y314000D01*
Y325500D01*
X267000Y314500D02*
Y336500D01*
X266000Y313500D02*
X267000Y314500D01*
X266000Y313500D02*
X272500D01*
X275000Y311000D01*
X137500Y339000D02*
X165157D01*
X166157Y338000D01*
X169315Y317000D02*
X178315Y308000D01*
X230500D01*
X236000Y313500D01*
X305000Y311000D02*
X310500D01*
X325500Y326000D01*
X305815Y335842D02*
X315657D01*
X325500Y345685D01*
X237000Y344000D02*
X315193D01*
X321847Y350654D01*
X207500Y330601D02*
X223601D01*
X207000Y30101D02*
X223101D01*
X314693Y43500D02*
X321346Y50154D01*
X236500Y43500D02*
X314693D01*
X315158Y35342D02*
X325000Y45185D01*
X305315Y35342D02*
X315158D01*
X310000Y10500D02*
X325000Y25500D01*
X304500Y10500D02*
X310000D01*
X230000Y7500D02*
X235500Y13000D01*
X177815Y7500D02*
X230000D01*
X168815Y16500D02*
X177815Y7500D01*
X164657Y38500D02*
X165657Y37500D01*
X137000Y38500D02*
X164657D01*
X272000Y13000D02*
X274500Y10500D01*
X265500Y13000D02*
X272000D01*
X265500D02*
X266500Y14000D01*
Y36000D01*
X214500Y13500D02*
Y25000D01*
X211500Y10500D02*
X214500Y13500D01*
X203000Y10500D02*
X211500D01*
X197000Y16500D02*
X203000Y10500D01*
X188500Y16500D02*
X197000D01*
X374500Y13590D02*
X376590Y11500D01*
X374500Y13590D02*
Y24500D01*
X335409Y11500D02*
X346067Y22158D01*
X352500D01*
X372500Y36500D02*
X374500Y34500D01*
X367158Y41842D02*
X372500Y36500D01*
X352500Y41842D02*
X367158D01*
X372500Y36500D02*
Y58500D01*
X365500Y81500D02*
X372500Y88500D01*
X354000Y81500D02*
X365500D01*
X321346Y50154D02*
X344189D01*
X352500Y41842D01*
X223101Y30101D02*
X236500Y43500D01*
X207000Y30000D02*
Y30101D01*
X225500Y25000D02*
X236500Y36000D01*
X214500Y25000D02*
X225500D01*
X202842Y20000D02*
X207000D01*
X185343Y37500D02*
X202842Y20000D01*
X17000Y15000D02*
X24000Y8000D01*
X146000D01*
X153500Y15500D01*
X154315Y31000D02*
X168815Y16500D01*
X142000Y31000D02*
X154315D01*
X127500Y38500D02*
X137000D01*
X123500Y34500D02*
X127500Y38500D01*
X123500Y15500D02*
Y34500D01*
X17000Y25000D02*
X20000D01*
X25000Y30000D01*
Y37000D01*
X17000Y45000D02*
X25000Y37000D01*
X17000Y45000D02*
X26500Y54500D01*
Y64500D01*
X47000Y85000D01*
X59300Y87300D02*
X131200D01*
X32300Y90300D02*
X138700D01*
X25300Y93300D02*
X223200D01*
X47000Y75000D02*
X59300Y87300D01*
X131200D02*
X147000Y71500D01*
X17000Y75000D02*
X32300Y90300D01*
X138700D02*
X148000Y81000D01*
X17000Y85000D02*
X25300Y93300D01*
X223200D02*
X235000Y81500D01*
X196000Y71500D02*
X206500Y82000D01*
X147000Y71500D02*
X196000D01*
X235000Y80500D02*
Y81500D01*
X93000Y55000D02*
X118500Y80500D01*
X47000Y55000D02*
X93000D01*
X239500Y56000D02*
X264500Y81000D01*
X127515Y56000D02*
X239500D01*
X116515Y45000D02*
X127515Y56000D01*
X47000Y45000D02*
X116515D01*
X288000Y53000D02*
X316000Y81000D01*
X128757Y53000D02*
X288000D01*
X110757Y35000D02*
X128757Y53000D01*
X47000Y35000D02*
X110757D01*
X312500Y50000D02*
X344000Y81500D01*
X130000Y50000D02*
X312500D01*
X105000Y25000D02*
X130000Y50000D01*
X47000Y25000D02*
X105000D01*
X313000Y350500D02*
X344500Y382000D01*
X105500Y325500D02*
X130500Y350500D01*
X313000D01*
D11*
X196000Y301000D02*
D03*
Y100000D02*
D03*
D12*
Y201000D02*
D03*
D13*
X208500Y130000D02*
D03*
X216000Y125000D02*
D03*
X208500Y120000D02*
D03*
X133500Y131000D02*
D03*
X138500Y138500D02*
D03*
X143500Y131000D02*
D03*
X306000Y110500D02*
D03*
X276000D02*
D03*
X237000Y113000D02*
D03*
X267000D02*
D03*
X155000Y115500D02*
D03*
X125000D02*
D03*
X238000Y136000D02*
D03*
X268000D02*
D03*
X186843Y137500D02*
D03*
X170315Y116500D02*
D03*
X354000Y141842D02*
D03*
X208000Y232000D02*
D03*
X215500Y227000D02*
D03*
X208000Y222000D02*
D03*
X133000Y233000D02*
D03*
X138000Y240500D02*
D03*
X143000Y233000D02*
D03*
X305500Y212500D02*
D03*
X275500D02*
D03*
X236500Y215000D02*
D03*
X266500D02*
D03*
X154500Y217500D02*
D03*
X124500D02*
D03*
X237500Y238000D02*
D03*
X267500D02*
D03*
X186343Y239500D02*
D03*
X169815Y218500D02*
D03*
X353500Y243843D02*
D03*
X207500Y330500D02*
D03*
X215000Y325500D02*
D03*
X207500Y320500D02*
D03*
X132500Y331500D02*
D03*
X137500Y339000D02*
D03*
X142500Y331500D02*
D03*
X305000Y311000D02*
D03*
X275000D02*
D03*
X236000Y313500D02*
D03*
X266000D02*
D03*
X154000Y316000D02*
D03*
X124000D02*
D03*
X237000Y336500D02*
D03*
X267000D02*
D03*
X185843Y338000D02*
D03*
X169315Y317000D02*
D03*
X353000Y342342D02*
D03*
X352500Y41842D02*
D03*
X304500Y10500D02*
D03*
X274500D02*
D03*
X235500Y13000D02*
D03*
X265500D02*
D03*
X153500Y15500D02*
D03*
X123500D02*
D03*
X185343Y37500D02*
D03*
X236500Y36000D02*
D03*
X266500D02*
D03*
X168815Y16500D02*
D03*
X132000Y31000D02*
D03*
X137000Y38500D02*
D03*
X142000Y31000D02*
D03*
X207000Y30000D02*
D03*
X214500Y25000D02*
D03*
X207000Y20000D02*
D03*
D14*
X18500Y115000D02*
D03*
Y125000D02*
D03*
Y135000D02*
D03*
Y145000D02*
D03*
Y155000D02*
D03*
Y165000D02*
D03*
Y175000D02*
D03*
Y185000D02*
D03*
X48500D02*
D03*
Y175000D02*
D03*
Y165000D02*
D03*
Y155000D02*
D03*
Y145000D02*
D03*
Y135000D02*
D03*
Y125000D02*
D03*
X18000Y217000D02*
D03*
Y227000D02*
D03*
Y237000D02*
D03*
Y247000D02*
D03*
Y257000D02*
D03*
Y267000D02*
D03*
Y277000D02*
D03*
Y287000D02*
D03*
X48000D02*
D03*
Y277000D02*
D03*
Y267000D02*
D03*
Y257000D02*
D03*
Y247000D02*
D03*
Y237000D02*
D03*
Y227000D02*
D03*
X17500Y315500D02*
D03*
Y325500D02*
D03*
Y335500D02*
D03*
Y345500D02*
D03*
Y355500D02*
D03*
Y365500D02*
D03*
Y375500D02*
D03*
Y385500D02*
D03*
X47500D02*
D03*
Y375500D02*
D03*
Y365500D02*
D03*
Y355500D02*
D03*
Y345500D02*
D03*
Y335500D02*
D03*
Y325500D02*
D03*
X17000Y15000D02*
D03*
Y25000D02*
D03*
Y35000D02*
D03*
Y45000D02*
D03*
Y55000D02*
D03*
Y65000D02*
D03*
Y75000D02*
D03*
Y85000D02*
D03*
X47000D02*
D03*
Y75000D02*
D03*
Y65000D02*
D03*
Y55000D02*
D03*
Y45000D02*
D03*
Y35000D02*
D03*
Y25000D02*
D03*
D15*
X48500Y115000D02*
D03*
X48000Y217000D02*
D03*
X47500Y315500D02*
D03*
X47000Y15000D02*
D03*
D16*
X374000Y188500D02*
D03*
Y158500D02*
D03*
X373500Y290500D02*
D03*
Y260500D02*
D03*
X373000Y389000D02*
D03*
Y359000D02*
D03*
X372500Y88500D02*
D03*
Y58500D02*
D03*
D17*
X376000Y134500D02*
D03*
X336910Y111500D02*
D03*
X375500Y236500D02*
D03*
X336409Y213500D02*
D03*
X375000Y335000D02*
D03*
X335910Y312000D02*
D03*
X335409Y11500D02*
D03*
X374500Y34500D02*
D03*
D18*
X376000Y124500D02*
D03*
X375500Y226500D02*
D03*
X375000Y325000D02*
D03*
X374500Y24500D02*
D03*
D19*
X378091Y111500D02*
D03*
X377590Y213500D02*
D03*
X377091Y312000D02*
D03*
X376590Y11500D02*
D03*
D20*
X167157Y137500D02*
D03*
X190000Y116500D02*
D03*
X166657Y239500D02*
D03*
X189500Y218500D02*
D03*
X166157Y338000D02*
D03*
X189000Y317000D02*
D03*
X165657Y37500D02*
D03*
X188500Y16500D02*
D03*
D21*
X326500Y145185D02*
D03*
X306815Y135343D02*
D03*
X326000Y247185D02*
D03*
X306315Y237343D02*
D03*
X325500Y345685D02*
D03*
X305815Y335842D02*
D03*
X325000Y45185D02*
D03*
X305315Y35342D02*
D03*
D22*
X326500Y125500D02*
D03*
X326000Y227500D02*
D03*
X325500Y326000D02*
D03*
X325000Y25500D02*
D03*
D23*
X355500Y181500D02*
D03*
X327500Y181000D02*
D03*
X301500D02*
D03*
X276000D02*
D03*
X246500Y180500D02*
D03*
X218000Y182000D02*
D03*
X190000Y180500D02*
D03*
X159500Y181000D02*
D03*
X130000Y180500D02*
D03*
X98000Y181000D02*
D03*
X355000Y283500D02*
D03*
X327000Y283000D02*
D03*
X301000D02*
D03*
X275500D02*
D03*
X246000Y282500D02*
D03*
X217500Y284000D02*
D03*
X189500Y282500D02*
D03*
X159000Y283000D02*
D03*
X129500Y282500D02*
D03*
X97500Y283000D02*
D03*
X354500Y382000D02*
D03*
X326500Y381500D02*
D03*
X300500D02*
D03*
X275000D02*
D03*
X245500Y381000D02*
D03*
X217000Y382500D02*
D03*
X189000Y381000D02*
D03*
X158500Y381500D02*
D03*
X129000Y381000D02*
D03*
X97000Y381500D02*
D03*
X326000Y81000D02*
D03*
X96500D02*
D03*
X128500Y80500D02*
D03*
X158000Y81000D02*
D03*
X188500Y80500D02*
D03*
X216500Y82000D02*
D03*
X245000Y80500D02*
D03*
X274500Y81000D02*
D03*
X300000D02*
D03*
X354000Y81500D02*
D03*
D24*
X345500Y181500D02*
D03*
X317500Y181000D02*
D03*
X291500D02*
D03*
X266000D02*
D03*
X236500Y180500D02*
D03*
X208000Y182000D02*
D03*
X180000Y180500D02*
D03*
X149500Y181000D02*
D03*
X120000Y180500D02*
D03*
X88000Y181000D02*
D03*
X345000Y283500D02*
D03*
X317000Y283000D02*
D03*
X291000D02*
D03*
X265500D02*
D03*
X236000Y282500D02*
D03*
X207500Y284000D02*
D03*
X179500Y282500D02*
D03*
X149000Y283000D02*
D03*
X119500Y282500D02*
D03*
X87500Y283000D02*
D03*
X344500Y382000D02*
D03*
X316500Y381500D02*
D03*
X290500D02*
D03*
X265000D02*
D03*
X235500Y381000D02*
D03*
X207000Y382500D02*
D03*
X179000Y381000D02*
D03*
X148500Y381500D02*
D03*
X119000Y381000D02*
D03*
X87000Y381500D02*
D03*
X316000Y81000D02*
D03*
X86500D02*
D03*
X118500Y80500D02*
D03*
X148000Y81000D02*
D03*
X178500Y80500D02*
D03*
X206500Y82000D02*
D03*
X235000Y80500D02*
D03*
X264500Y81000D02*
D03*
X290000D02*
D03*
X344000Y81500D02*
D03*
D25*
X354000Y122158D02*
D03*
X353500Y224158D02*
D03*
X353000Y322657D02*
D03*
X352500Y22158D02*
D03*
M02*
