G04 Layer_Physical_Order=2*
G04 Layer_Color=16711680*
%FSLAX25Y25*%
%MOIN*%
G70*
G01*
G75*
%ADD10C,0.02000*%
%ADD11R,0.05905X0.05905*%
%ADD12C,0.05905*%
%ADD13R,0.05937X0.05937*%
%ADD14C,0.05937*%
%ADD15R,0.06600X0.06600*%
%ADD16C,0.06600*%
%ADD17R,0.07087X0.07087*%
%ADD18C,0.07874*%
%ADD19R,3.93701X0.02362*%
%ADD20C,0.05000*%
D10*
X321500Y373500D02*
X345000D01*
X35500D02*
X60000D01*
X69500Y330657D02*
X86900D01*
X87057Y330500D01*
X104500D01*
X274500Y383500D02*
X298000D01*
X251000D02*
X274500D01*
X298000D02*
X321500D01*
X345000D01*
X227500D02*
X251000D01*
X345000D02*
X368500D01*
X204000D02*
X227500D01*
X180000D02*
X204000D01*
X368500D02*
X392000D01*
X156000D02*
X180000D01*
X132000D02*
X156000D01*
X108000D02*
X132000D01*
X84000D02*
X108000D01*
X60000D02*
X84000D01*
X35500D02*
X60000D01*
X11500D02*
X35500D01*
X119200Y345200D02*
X120200Y346200D01*
X152200D01*
X162000Y356000D01*
X166700Y331300D02*
X172000Y326000D01*
X155400Y331300D02*
X166700D01*
X84000Y373500D02*
X84712Y374212D01*
X107288D01*
X108000Y373500D01*
X155500Y374000D02*
X156000Y373500D01*
X132500Y374000D02*
X155500D01*
X132000Y373500D02*
X132500Y374000D01*
X180000Y373500D02*
X181000Y374500D01*
X203000D01*
X204000Y373500D01*
X227500D02*
X228375Y374375D01*
X250125D01*
X251000Y373500D01*
X264594D01*
X269547Y368547D01*
X300453D01*
X314000Y355000D01*
X286453Y362547D02*
X294000Y355000D01*
X263547Y362547D02*
X286453D01*
X260794Y365300D02*
X263547Y362547D01*
X19700Y365300D02*
X260794D01*
X11500Y373500D02*
X19700Y365300D01*
X297476Y374024D02*
X298000Y373500D01*
X275024Y374024D02*
X297476D01*
X274500Y373500D02*
X275024Y374024D01*
X108000Y373500D02*
X113000Y378500D01*
X306800D01*
X319300Y366000D01*
Y349700D02*
Y366000D01*
X289300Y349700D02*
X319300D01*
X284000Y355000D02*
X289300Y349700D01*
X6900Y343600D02*
X12500Y338000D01*
X6900Y343600D02*
Y354900D01*
X13000Y361000D01*
X58843D01*
X69500Y350343D01*
X244000Y355000D02*
X260800Y338200D01*
X302100D01*
X328700Y333700D02*
X368500Y373500D01*
X252700Y333700D02*
X328700D01*
X244000Y325000D02*
X252700Y333700D01*
X345000Y366600D02*
Y373500D01*
X325000Y346600D02*
X345000Y366600D01*
X272400Y346600D02*
X325000D01*
X264000Y355000D02*
X272400Y346600D01*
X60000Y373500D02*
X64953Y368547D01*
X263547D01*
X266547Y365547D01*
X293453D01*
X304000Y355000D01*
X166343Y340343D02*
X182000Y356000D01*
X124185Y340343D02*
X166343D01*
X284000Y325000D02*
X289300Y330300D01*
X298700D01*
X304000Y325000D01*
X370300Y319300D02*
X377000Y326000D01*
X309700Y319300D02*
X370300D01*
X304000Y325000D02*
X309700Y319300D01*
X12500Y338000D02*
X32600D01*
X45300Y325300D01*
X162000D02*
Y326000D01*
X104500Y350185D02*
X116015Y361700D01*
X166300D01*
X172000Y356000D01*
X12500Y348000D02*
X20500Y356000D01*
X34500D01*
X45300Y345200D01*
X107100D01*
X119200D01*
X288500Y319500D02*
X294000Y325000D01*
X182000Y326000D02*
X188500Y319500D01*
X288500D01*
X183000Y335000D02*
X192000Y326000D01*
X107100Y345200D02*
X117300Y335000D01*
X183000D01*
X154600Y330500D02*
X155400Y331300D01*
X104500Y330500D02*
X154600D01*
X45300Y325300D02*
X162000D01*
X321500Y295000D02*
X345000D01*
X35500D02*
X60000D01*
X69500Y252157D02*
X86900D01*
X87057Y252000D01*
X104500D01*
X274500Y305000D02*
X298000D01*
X251000D02*
X274500D01*
X298000D02*
X321500D01*
X345000D01*
X227500D02*
X251000D01*
X345000D02*
X368500D01*
X204000D02*
X227500D01*
X180000D02*
X204000D01*
X368500D02*
X392000D01*
X156000D02*
X180000D01*
X132000D02*
X156000D01*
X108000D02*
X132000D01*
X84000D02*
X108000D01*
X60000D02*
X84000D01*
X35500D02*
X60000D01*
X11500D02*
X35500D01*
X119200Y266700D02*
X120200Y267700D01*
X152200D01*
X162000Y277500D01*
X166700Y252800D02*
X172000Y247500D01*
X155400Y252800D02*
X166700D01*
X84000Y295000D02*
X84712Y295712D01*
X107288D01*
X108000Y295000D01*
X155500Y295500D02*
X156000Y295000D01*
X132500Y295500D02*
X155500D01*
X132000Y295000D02*
X132500Y295500D01*
X180000Y295000D02*
X181000Y296000D01*
X203000D01*
X204000Y295000D01*
X227500D02*
X228375Y295875D01*
X250125D01*
X251000Y295000D01*
X264594D01*
X269547Y290047D01*
X300453D01*
X314000Y276500D01*
X286453Y284047D02*
X294000Y276500D01*
X263547Y284047D02*
X286453D01*
X260794Y286800D02*
X263547Y284047D01*
X19700Y286800D02*
X260794D01*
X11500Y295000D02*
X19700Y286800D01*
X297476Y295524D02*
X298000Y295000D01*
X275024Y295524D02*
X297476D01*
X274500Y295000D02*
X275024Y295524D01*
X108000Y295000D02*
X113000Y300000D01*
X306800D01*
X319300Y287500D01*
Y271200D02*
Y287500D01*
X289300Y271200D02*
X319300D01*
X284000Y276500D02*
X289300Y271200D01*
X6900Y265100D02*
X12500Y259500D01*
X6900Y265100D02*
Y276400D01*
X13000Y282500D01*
X58843D01*
X69500Y271843D01*
X244000Y276500D02*
X260800Y259700D01*
X302100D01*
X328700Y255200D02*
X368500Y295000D01*
X252700Y255200D02*
X328700D01*
X244000Y246500D02*
X252700Y255200D01*
X345000Y288100D02*
Y295000D01*
X325000Y268100D02*
X345000Y288100D01*
X272400Y268100D02*
X325000D01*
X264000Y276500D02*
X272400Y268100D01*
X60000Y295000D02*
X64953Y290047D01*
X263547D01*
X266547Y287047D01*
X293453D01*
X304000Y276500D01*
X166343Y261843D02*
X182000Y277500D01*
X124185Y261843D02*
X166343D01*
X284000Y246500D02*
X289300Y251800D01*
X298700D01*
X304000Y246500D01*
X370300Y240800D02*
X377000Y247500D01*
X309700Y240800D02*
X370300D01*
X304000Y246500D02*
X309700Y240800D01*
X12500Y259500D02*
X32600D01*
X45300Y246800D01*
X162000D02*
Y247500D01*
X104500Y271685D02*
X116015Y283200D01*
X166300D01*
X172000Y277500D01*
X12500Y269500D02*
X20500Y277500D01*
X34500D01*
X45300Y266700D01*
X107100D01*
X119200D01*
X288500Y241000D02*
X294000Y246500D01*
X182000Y247500D02*
X188500Y241000D01*
X288500D01*
X183000Y256500D02*
X192000Y247500D01*
X107100Y266700D02*
X117300Y256500D01*
X183000D01*
X154600Y252000D02*
X155400Y252800D01*
X104500Y252000D02*
X154600D01*
X45300Y246800D02*
X162000D01*
X321500Y216500D02*
X345000D01*
X35500D02*
X60000D01*
X69500Y173657D02*
X86900D01*
X87057Y173500D01*
X104500D01*
X274500Y226500D02*
X298000D01*
X251000D02*
X274500D01*
X298000D02*
X321500D01*
X345000D01*
X227500D02*
X251000D01*
X345000D02*
X368500D01*
X204000D02*
X227500D01*
X180000D02*
X204000D01*
X368500D02*
X392000D01*
X156000D02*
X180000D01*
X132000D02*
X156000D01*
X108000D02*
X132000D01*
X84000D02*
X108000D01*
X60000D02*
X84000D01*
X35500D02*
X60000D01*
X11500D02*
X35500D01*
X119200Y188200D02*
X120200Y189200D01*
X152200D01*
X162000Y199000D01*
X166700Y174300D02*
X172000Y169000D01*
X155400Y174300D02*
X166700D01*
X84000Y216500D02*
X84712Y217212D01*
X107288D01*
X108000Y216500D01*
X155500Y217000D02*
X156000Y216500D01*
X132500Y217000D02*
X155500D01*
X132000Y216500D02*
X132500Y217000D01*
X180000Y216500D02*
X181000Y217500D01*
X203000D01*
X204000Y216500D01*
X227500D02*
X228375Y217375D01*
X250125D01*
X251000Y216500D01*
X264594D01*
X269547Y211547D01*
X300453D01*
X314000Y198000D01*
X286453Y205547D02*
X294000Y198000D01*
X263547Y205547D02*
X286453D01*
X260794Y208300D02*
X263547Y205547D01*
X19700Y208300D02*
X260794D01*
X11500Y216500D02*
X19700Y208300D01*
X297476Y217024D02*
X298000Y216500D01*
X275024Y217024D02*
X297476D01*
X274500Y216500D02*
X275024Y217024D01*
X108000Y216500D02*
X113000Y221500D01*
X306800D01*
X319300Y209000D01*
Y192700D02*
Y209000D01*
X289300Y192700D02*
X319300D01*
X284000Y198000D02*
X289300Y192700D01*
X6900Y186600D02*
X12500Y181000D01*
X6900Y186600D02*
Y197900D01*
X13000Y204000D01*
X58843D01*
X69500Y193343D01*
X244000Y198000D02*
X260800Y181200D01*
X302100D01*
X328700Y176700D02*
X368500Y216500D01*
X252700Y176700D02*
X328700D01*
X244000Y168000D02*
X252700Y176700D01*
X345000Y209600D02*
Y216500D01*
X325000Y189600D02*
X345000Y209600D01*
X272400Y189600D02*
X325000D01*
X264000Y198000D02*
X272400Y189600D01*
X60000Y216500D02*
X64953Y211547D01*
X263547D01*
X266547Y208547D01*
X293453D01*
X304000Y198000D01*
X166343Y183343D02*
X182000Y199000D01*
X124185Y183343D02*
X166343D01*
X284000Y168000D02*
X289300Y173300D01*
X298700D01*
X304000Y168000D01*
X370300Y162300D02*
X377000Y169000D01*
X309700Y162300D02*
X370300D01*
X304000Y168000D02*
X309700Y162300D01*
X12500Y181000D02*
X32600D01*
X45300Y168300D01*
X162000D02*
Y169000D01*
X104500Y193185D02*
X116015Y204700D01*
X166300D01*
X172000Y199000D01*
X12500Y191000D02*
X20500Y199000D01*
X34500D01*
X45300Y188200D01*
X107100D01*
X119200D01*
X288500Y162500D02*
X294000Y168000D01*
X182000Y169000D02*
X188500Y162500D01*
X288500D01*
X183000Y178000D02*
X192000Y169000D01*
X107100Y188200D02*
X117300Y178000D01*
X183000D01*
X154600Y173500D02*
X155400Y174300D01*
X104500Y173500D02*
X154600D01*
X45300Y168300D02*
X162000D01*
X321500Y138000D02*
X345000D01*
X35500D02*
X60000D01*
X69500Y95157D02*
X86900D01*
X87057Y95000D01*
X104500D01*
X274500Y148000D02*
X298000D01*
X251000D02*
X274500D01*
X298000D02*
X321500D01*
X345000D01*
X227500D02*
X251000D01*
X345000D02*
X368500D01*
X204000D02*
X227500D01*
X180000D02*
X204000D01*
X368500D02*
X392000D01*
X156000D02*
X180000D01*
X132000D02*
X156000D01*
X108000D02*
X132000D01*
X84000D02*
X108000D01*
X60000D02*
X84000D01*
X35500D02*
X60000D01*
X11500D02*
X35500D01*
X119200Y109700D02*
X120200Y110700D01*
X152200D01*
X162000Y120500D01*
X166700Y95800D02*
X172000Y90500D01*
X155400Y95800D02*
X166700D01*
X84000Y138000D02*
X84712Y138712D01*
X107288D01*
X108000Y138000D01*
X155500Y138500D02*
X156000Y138000D01*
X132500Y138500D02*
X155500D01*
X132000Y138000D02*
X132500Y138500D01*
X180000Y138000D02*
X181000Y139000D01*
X203000D01*
X204000Y138000D01*
X227500D02*
X228375Y138875D01*
X250125D01*
X251000Y138000D01*
X264594D01*
X269547Y133047D01*
X300453D01*
X314000Y119500D01*
X286453Y127047D02*
X294000Y119500D01*
X263547Y127047D02*
X286453D01*
X260794Y129800D02*
X263547Y127047D01*
X19700Y129800D02*
X260794D01*
X11500Y138000D02*
X19700Y129800D01*
X297476Y138524D02*
X298000Y138000D01*
X275024Y138524D02*
X297476D01*
X274500Y138000D02*
X275024Y138524D01*
X108000Y138000D02*
X113000Y143000D01*
X306800D01*
X319300Y130500D01*
Y114200D02*
Y130500D01*
X289300Y114200D02*
X319300D01*
X284000Y119500D02*
X289300Y114200D01*
X6900Y108100D02*
X12500Y102500D01*
X6900Y108100D02*
Y119400D01*
X13000Y125500D01*
X58843D01*
X69500Y114843D01*
X244000Y119500D02*
X260800Y102700D01*
X302100D01*
X328700Y98200D02*
X368500Y138000D01*
X252700Y98200D02*
X328700D01*
X244000Y89500D02*
X252700Y98200D01*
X345000Y131100D02*
Y138000D01*
X325000Y111100D02*
X345000Y131100D01*
X272400Y111100D02*
X325000D01*
X264000Y119500D02*
X272400Y111100D01*
X60000Y138000D02*
X64953Y133047D01*
X263547D01*
X266547Y130047D01*
X293453D01*
X304000Y119500D01*
X166343Y104843D02*
X182000Y120500D01*
X124185Y104843D02*
X166343D01*
X284000Y89500D02*
X289300Y94800D01*
X298700D01*
X304000Y89500D01*
X370300Y83800D02*
X377000Y90500D01*
X309700Y83800D02*
X370300D01*
X304000Y89500D02*
X309700Y83800D01*
X12500Y102500D02*
X32600D01*
X45300Y89800D01*
X162000D02*
Y90500D01*
X104500Y114685D02*
X116015Y126200D01*
X166300D01*
X172000Y120500D01*
X12500Y112500D02*
X20500Y120500D01*
X34500D01*
X45300Y109700D01*
X107100D01*
X119200D01*
X288500Y84000D02*
X294000Y89500D01*
X182000Y90500D02*
X188500Y84000D01*
X288500D01*
X183000Y99500D02*
X192000Y90500D01*
X107100Y109700D02*
X117300Y99500D01*
X183000D01*
X154600Y95000D02*
X155400Y95800D01*
X104500Y95000D02*
X154600D01*
X45300Y89800D02*
X162000D01*
X11500Y60000D02*
X19700Y51800D01*
X11500Y70000D02*
X35500D01*
X45300Y11800D02*
X162000D01*
X368500Y70000D02*
X392000D01*
X104500Y17000D02*
X154600D01*
X155400Y17800D01*
X117300Y21500D02*
X183000D01*
X107100Y31700D02*
X117300Y21500D01*
X183000D02*
X192000Y12500D01*
X188500Y6000D02*
X288500D01*
X182000Y12500D02*
X188500Y6000D01*
X288500D02*
X294000Y11500D01*
X107100Y31700D02*
X119200D01*
X45300D02*
X107100D01*
X34500Y42500D02*
X45300Y31700D01*
X20500Y42500D02*
X34500D01*
X12500Y34500D02*
X20500Y42500D01*
X166300Y48200D02*
X172000Y42500D01*
X116015Y48200D02*
X166300D01*
X104500Y36685D02*
X116015Y48200D01*
X162000Y11800D02*
Y12500D01*
X32600Y24500D02*
X45300Y11800D01*
X12500Y24500D02*
X32600D01*
X304000Y11500D02*
X309700Y5800D01*
X370300D01*
X377000Y12500D01*
X298700Y16800D02*
X304000Y11500D01*
X289300Y16800D02*
X298700D01*
X284000Y11500D02*
X289300Y16800D01*
X124185Y26843D02*
X166343D01*
X182000Y42500D01*
X293453Y52047D02*
X304000Y41500D01*
X266547Y52047D02*
X293453D01*
X263547Y55047D02*
X266547Y52047D01*
X64953Y55047D02*
X263547D01*
X60000Y60000D02*
X64953Y55047D01*
X264000Y41500D02*
X272400Y33100D01*
X325000D01*
X345000Y53100D01*
Y60000D01*
X244000Y11500D02*
X252700Y20200D01*
X328700D01*
X368500Y60000D01*
X260800Y24700D02*
X302100D01*
X244000Y41500D02*
X260800Y24700D01*
X58843Y47500D02*
X69500Y36843D01*
X13000Y47500D02*
X58843D01*
X6900Y41400D02*
X13000Y47500D01*
X6900Y30100D02*
Y41400D01*
Y30100D02*
X12500Y24500D01*
X284000Y41500D02*
X289300Y36200D01*
X319300D01*
Y52500D01*
X306800Y65000D02*
X319300Y52500D01*
X113000Y65000D02*
X306800D01*
X108000Y60000D02*
X113000Y65000D01*
X274500Y60000D02*
X275024Y60524D01*
X297476D01*
X298000Y60000D01*
X19700Y51800D02*
X260794D01*
X263547Y49047D01*
X286453D01*
X294000Y41500D01*
X300453Y55047D02*
X314000Y41500D01*
X269547Y55047D02*
X300453D01*
X264594Y60000D02*
X269547Y55047D01*
X251000Y60000D02*
X264594D01*
X250125Y60875D02*
X251000Y60000D01*
X228375Y60875D02*
X250125D01*
X227500Y60000D02*
X228375Y60875D01*
X203000Y61000D02*
X204000Y60000D01*
X181000Y61000D02*
X203000D01*
X180000Y60000D02*
X181000Y61000D01*
X132000Y60000D02*
X132500Y60500D01*
X155500D01*
X156000Y60000D01*
X107288Y60712D02*
X108000Y60000D01*
X84712Y60712D02*
X107288D01*
X84000Y60000D02*
X84712Y60712D01*
X155400Y17800D02*
X166700D01*
X172000Y12500D01*
X152200Y32700D02*
X162000Y42500D01*
X120200Y32700D02*
X152200D01*
X119200Y31700D02*
X120200Y32700D01*
X35500Y70000D02*
X60000D01*
X84000D01*
X108000D01*
X132000D01*
X156000D01*
X180000D01*
X204000D01*
X227500D01*
X345000D02*
X368500D01*
X227500D02*
X251000D01*
X321500D02*
X345000D01*
X298000D02*
X321500D01*
X251000D02*
X274500D01*
X298000D01*
X87057Y17000D02*
X104500D01*
X86900Y17157D02*
X87057Y17000D01*
X69500Y17157D02*
X86900D01*
X35500Y60000D02*
X60000D01*
X321500D02*
X345000D01*
D11*
X11500Y373500D02*
D03*
X35500D02*
D03*
X60000D02*
D03*
X84000D02*
D03*
X108000D02*
D03*
X132000D02*
D03*
X156000D02*
D03*
X180000D02*
D03*
X204000D02*
D03*
X227500D02*
D03*
X69500Y330657D02*
D03*
X251000Y373500D02*
D03*
X274500D02*
D03*
X298000D02*
D03*
X321500D02*
D03*
X345000D02*
D03*
X368500D02*
D03*
X392000D02*
D03*
X11500Y295000D02*
D03*
X35500D02*
D03*
X60000D02*
D03*
X84000D02*
D03*
X108000D02*
D03*
X132000D02*
D03*
X156000D02*
D03*
X180000D02*
D03*
X204000D02*
D03*
X227500D02*
D03*
X69500Y252157D02*
D03*
X251000Y295000D02*
D03*
X274500D02*
D03*
X298000D02*
D03*
X321500D02*
D03*
X345000D02*
D03*
X368500D02*
D03*
X392000D02*
D03*
X11500Y216500D02*
D03*
X35500D02*
D03*
X60000D02*
D03*
X84000D02*
D03*
X108000D02*
D03*
X132000D02*
D03*
X156000D02*
D03*
X180000D02*
D03*
X204000D02*
D03*
X227500D02*
D03*
X69500Y173657D02*
D03*
X251000Y216500D02*
D03*
X274500D02*
D03*
X298000D02*
D03*
X321500D02*
D03*
X345000D02*
D03*
X368500D02*
D03*
X392000D02*
D03*
X11500Y138000D02*
D03*
X35500D02*
D03*
X60000D02*
D03*
X84000D02*
D03*
X108000D02*
D03*
X132000D02*
D03*
X156000D02*
D03*
X180000D02*
D03*
X204000D02*
D03*
X227500D02*
D03*
X69500Y95157D02*
D03*
X251000Y138000D02*
D03*
X274500D02*
D03*
X298000D02*
D03*
X321500D02*
D03*
X345000D02*
D03*
X368500D02*
D03*
X392000D02*
D03*
X204000Y60000D02*
D03*
X180000D02*
D03*
X156000D02*
D03*
X132000D02*
D03*
X108000D02*
D03*
X84000D02*
D03*
X60000D02*
D03*
X35500D02*
D03*
X11500D02*
D03*
X392000D02*
D03*
X368500D02*
D03*
X345000D02*
D03*
X321500D02*
D03*
X298000D02*
D03*
X274500D02*
D03*
X251000D02*
D03*
X227500D02*
D03*
X69500Y17157D02*
D03*
D12*
X11500Y383500D02*
D03*
X35500D02*
D03*
X60000D02*
D03*
X84000D02*
D03*
X108000D02*
D03*
X132000D02*
D03*
X156000D02*
D03*
X180000D02*
D03*
X204000D02*
D03*
X34500Y326000D02*
D03*
Y356000D02*
D03*
X227500Y383500D02*
D03*
X69500Y350343D02*
D03*
X251000Y383500D02*
D03*
X274500D02*
D03*
X298000D02*
D03*
X321500D02*
D03*
X345000D02*
D03*
X368500D02*
D03*
X392000D02*
D03*
X377000Y326000D02*
D03*
Y356000D02*
D03*
X11500Y305000D02*
D03*
X35500D02*
D03*
X60000D02*
D03*
X84000D02*
D03*
X108000D02*
D03*
X132000D02*
D03*
X156000D02*
D03*
X180000D02*
D03*
X204000D02*
D03*
X34500Y247500D02*
D03*
Y277500D02*
D03*
X227500Y305000D02*
D03*
X69500Y271843D02*
D03*
X251000Y305000D02*
D03*
X274500D02*
D03*
X298000D02*
D03*
X321500D02*
D03*
X345000D02*
D03*
X368500D02*
D03*
X392000D02*
D03*
X377000Y247500D02*
D03*
Y277500D02*
D03*
X11500Y226500D02*
D03*
X35500D02*
D03*
X60000D02*
D03*
X84000D02*
D03*
X108000D02*
D03*
X132000D02*
D03*
X156000D02*
D03*
X180000D02*
D03*
X204000D02*
D03*
X34500Y169000D02*
D03*
Y199000D02*
D03*
X227500Y226500D02*
D03*
X69500Y193343D02*
D03*
X251000Y226500D02*
D03*
X274500D02*
D03*
X298000D02*
D03*
X321500D02*
D03*
X345000D02*
D03*
X368500D02*
D03*
X392000D02*
D03*
X377000Y169000D02*
D03*
Y199000D02*
D03*
X11500Y148000D02*
D03*
X35500D02*
D03*
X60000D02*
D03*
X84000D02*
D03*
X108000D02*
D03*
X132000D02*
D03*
X156000D02*
D03*
X180000D02*
D03*
X204000D02*
D03*
X34500Y90500D02*
D03*
Y120500D02*
D03*
X227500Y148000D02*
D03*
X69500Y114843D02*
D03*
X251000Y148000D02*
D03*
X274500D02*
D03*
X298000D02*
D03*
X321500D02*
D03*
X345000D02*
D03*
X368500D02*
D03*
X392000D02*
D03*
X377000Y90500D02*
D03*
Y120500D02*
D03*
X204000Y70000D02*
D03*
X180000D02*
D03*
X156000D02*
D03*
X132000D02*
D03*
X108000D02*
D03*
X84000D02*
D03*
X60000D02*
D03*
X35500D02*
D03*
X11500D02*
D03*
X392000D02*
D03*
X368500D02*
D03*
X345000D02*
D03*
X321500D02*
D03*
X298000D02*
D03*
X274500D02*
D03*
X251000D02*
D03*
X227500D02*
D03*
X377000Y12500D02*
D03*
Y42500D02*
D03*
X34500Y12500D02*
D03*
Y42500D02*
D03*
X69500Y36843D02*
D03*
D13*
X104500Y350185D02*
D03*
Y271685D02*
D03*
Y193185D02*
D03*
Y114685D02*
D03*
Y36685D02*
D03*
D14*
X124185Y340343D02*
D03*
X104500Y330500D02*
D03*
X124185Y261843D02*
D03*
X104500Y252000D02*
D03*
X124185Y183343D02*
D03*
X104500Y173500D02*
D03*
X124185Y104843D02*
D03*
X104500Y95000D02*
D03*
X124185Y26843D02*
D03*
X104500Y17000D02*
D03*
D15*
X314000Y355000D02*
D03*
X162000Y326000D02*
D03*
X314000Y276500D02*
D03*
X162000Y247500D02*
D03*
X314000Y198000D02*
D03*
X162000Y169000D02*
D03*
X314000Y119500D02*
D03*
X162000Y90500D02*
D03*
X314000Y41500D02*
D03*
X162000Y12500D02*
D03*
D16*
X304000Y355000D02*
D03*
X294000D02*
D03*
X284000D02*
D03*
X274000D02*
D03*
X264000D02*
D03*
X254000D02*
D03*
X244000D02*
D03*
Y325000D02*
D03*
X254000D02*
D03*
X264000D02*
D03*
X274000D02*
D03*
X284000D02*
D03*
X294000D02*
D03*
X304000D02*
D03*
X314000D02*
D03*
X172000Y326000D02*
D03*
X182000D02*
D03*
X192000D02*
D03*
Y356000D02*
D03*
X182000D02*
D03*
X172000D02*
D03*
X162000D02*
D03*
X304000Y276500D02*
D03*
X294000D02*
D03*
X284000D02*
D03*
X274000D02*
D03*
X264000D02*
D03*
X254000D02*
D03*
X244000D02*
D03*
Y246500D02*
D03*
X254000D02*
D03*
X264000D02*
D03*
X274000D02*
D03*
X284000D02*
D03*
X294000D02*
D03*
X304000D02*
D03*
X314000D02*
D03*
X172000Y247500D02*
D03*
X182000D02*
D03*
X192000D02*
D03*
Y277500D02*
D03*
X182000D02*
D03*
X172000D02*
D03*
X162000D02*
D03*
X304000Y198000D02*
D03*
X294000D02*
D03*
X284000D02*
D03*
X274000D02*
D03*
X264000D02*
D03*
X254000D02*
D03*
X244000D02*
D03*
Y168000D02*
D03*
X254000D02*
D03*
X264000D02*
D03*
X274000D02*
D03*
X284000D02*
D03*
X294000D02*
D03*
X304000D02*
D03*
X314000D02*
D03*
X172000Y169000D02*
D03*
X182000D02*
D03*
X192000D02*
D03*
Y199000D02*
D03*
X182000D02*
D03*
X172000D02*
D03*
X162000D02*
D03*
X304000Y119500D02*
D03*
X294000D02*
D03*
X284000D02*
D03*
X274000D02*
D03*
X264000D02*
D03*
X254000D02*
D03*
X244000D02*
D03*
Y89500D02*
D03*
X254000D02*
D03*
X264000D02*
D03*
X274000D02*
D03*
X284000D02*
D03*
X294000D02*
D03*
X304000D02*
D03*
X314000D02*
D03*
X172000Y90500D02*
D03*
X182000D02*
D03*
X192000D02*
D03*
Y120500D02*
D03*
X182000D02*
D03*
X172000D02*
D03*
X162000D02*
D03*
X304000Y41500D02*
D03*
X294000D02*
D03*
X284000D02*
D03*
X274000D02*
D03*
X264000D02*
D03*
X254000D02*
D03*
X244000D02*
D03*
Y11500D02*
D03*
X254000D02*
D03*
X264000D02*
D03*
X274000D02*
D03*
X284000D02*
D03*
X294000D02*
D03*
X304000D02*
D03*
X314000D02*
D03*
X172000Y12500D02*
D03*
X182000D02*
D03*
X192000D02*
D03*
Y42500D02*
D03*
X182000D02*
D03*
X172000D02*
D03*
X162000D02*
D03*
D17*
X12500Y348000D02*
D03*
Y269500D02*
D03*
Y191000D02*
D03*
Y112500D02*
D03*
Y34500D02*
D03*
D18*
Y338000D02*
D03*
Y259500D02*
D03*
Y181000D02*
D03*
Y102500D02*
D03*
Y24500D02*
D03*
D19*
X201000Y312500D02*
D03*
X201500Y234000D02*
D03*
Y155500D02*
D03*
Y77500D02*
D03*
D20*
X302100Y338200D02*
D03*
Y259700D02*
D03*
Y181200D02*
D03*
Y102700D02*
D03*
Y24700D02*
D03*
M02*
