G04 Layer_Color=65535*
%FSLAX25Y25*%
%MOIN*%
G70*
G01*
G75*
%ADD21C,0.01000*%
%ADD22C,0.00787*%
%ADD23C,0.00000*%
%ADD24C,0.00600*%
%ADD25C,0.00500*%
%ADD26C,0.01181*%
%ADD27C,0.02165*%
%ADD28C,0.01575*%
D21*
X317500Y343500D02*
G03*
X314500Y340000I250J-3250D01*
G01*
D02*
G03*
X317500Y336500I3250J-250D01*
G01*
Y265000D02*
G03*
X314500Y261500I250J-3250D01*
G01*
D02*
G03*
X317500Y258000I3250J-250D01*
G01*
Y186500D02*
G03*
X314500Y183000I250J-3250D01*
G01*
D02*
G03*
X317500Y179500I3250J-250D01*
G01*
Y108000D02*
G03*
X314500Y104500I250J-3250D01*
G01*
D02*
G03*
X317500Y101000I3250J-250D01*
G01*
Y30000D02*
G03*
X314500Y26500I250J-3250D01*
G01*
D02*
G03*
X317500Y23000I3250J-250D01*
G01*
X157500Y24000D02*
G03*
X160500Y27500I-250J3250D01*
G01*
D02*
G03*
X157500Y31000I-3250J250D01*
G01*
Y102000D02*
G03*
X160500Y105500I-250J3250D01*
G01*
D02*
G03*
X157500Y109000I-3250J250D01*
G01*
Y180500D02*
G03*
X160500Y184000I-250J3250D01*
G01*
D02*
G03*
X157500Y187500I-3250J250D01*
G01*
Y259000D02*
G03*
X160500Y262500I-250J3250D01*
G01*
D02*
G03*
X157500Y266000I-3250J250D01*
G01*
X160500Y341000D02*
G03*
X157500Y344500I-3250J250D01*
G01*
Y337500D02*
G03*
X160500Y341000I-250J3250D01*
G01*
X21933Y378500D02*
G03*
X21933Y378500I-10433J0D01*
G01*
X45933D02*
G03*
X45933Y378500I-10433J0D01*
G01*
X70433D02*
G03*
X70433Y378500I-10433J0D01*
G01*
X94433D02*
G03*
X94433Y378500I-10433J0D01*
G01*
X118433D02*
G03*
X118433Y378500I-10433J0D01*
G01*
X142433D02*
G03*
X142433Y378500I-10433J0D01*
G01*
X166433D02*
G03*
X166433Y378500I-10433J0D01*
G01*
X190433D02*
G03*
X190433Y378500I-10433J0D01*
G01*
X214433D02*
G03*
X214433Y378500I-10433J0D01*
G01*
X237933D02*
G03*
X237933Y378500I-10433J0D01*
G01*
X261433D02*
G03*
X261433Y378500I-10433J0D01*
G01*
X284933D02*
G03*
X284933Y378500I-10433J0D01*
G01*
X308433D02*
G03*
X308433Y378500I-10433J0D01*
G01*
X331933D02*
G03*
X331933Y378500I-10433J0D01*
G01*
X355433D02*
G03*
X355433Y378500I-10433J0D01*
G01*
X378933D02*
G03*
X378933Y378500I-10433J0D01*
G01*
X402433D02*
G03*
X402433Y378500I-10433J0D01*
G01*
X21933Y300000D02*
G03*
X21933Y300000I-10433J0D01*
G01*
X45933D02*
G03*
X45933Y300000I-10433J0D01*
G01*
X70433D02*
G03*
X70433Y300000I-10433J0D01*
G01*
X94433D02*
G03*
X94433Y300000I-10433J0D01*
G01*
X118433D02*
G03*
X118433Y300000I-10433J0D01*
G01*
X142433D02*
G03*
X142433Y300000I-10433J0D01*
G01*
X166433D02*
G03*
X166433Y300000I-10433J0D01*
G01*
X190433D02*
G03*
X190433Y300000I-10433J0D01*
G01*
X214433D02*
G03*
X214433Y300000I-10433J0D01*
G01*
X237933D02*
G03*
X237933Y300000I-10433J0D01*
G01*
X261433D02*
G03*
X261433Y300000I-10433J0D01*
G01*
X284933D02*
G03*
X284933Y300000I-10433J0D01*
G01*
X308433D02*
G03*
X308433Y300000I-10433J0D01*
G01*
X331933D02*
G03*
X331933Y300000I-10433J0D01*
G01*
X355433D02*
G03*
X355433Y300000I-10433J0D01*
G01*
X378933D02*
G03*
X378933Y300000I-10433J0D01*
G01*
X402433D02*
G03*
X402433Y300000I-10433J0D01*
G01*
X21933Y221500D02*
G03*
X21933Y221500I-10433J0D01*
G01*
X45933D02*
G03*
X45933Y221500I-10433J0D01*
G01*
X70433D02*
G03*
X70433Y221500I-10433J0D01*
G01*
X94433D02*
G03*
X94433Y221500I-10433J0D01*
G01*
X118433D02*
G03*
X118433Y221500I-10433J0D01*
G01*
X142433D02*
G03*
X142433Y221500I-10433J0D01*
G01*
X166433D02*
G03*
X166433Y221500I-10433J0D01*
G01*
X190433D02*
G03*
X190433Y221500I-10433J0D01*
G01*
X214433D02*
G03*
X214433Y221500I-10433J0D01*
G01*
X237933D02*
G03*
X237933Y221500I-10433J0D01*
G01*
X261433D02*
G03*
X261433Y221500I-10433J0D01*
G01*
X284933D02*
G03*
X284933Y221500I-10433J0D01*
G01*
X308433D02*
G03*
X308433Y221500I-10433J0D01*
G01*
X331933D02*
G03*
X331933Y221500I-10433J0D01*
G01*
X355433D02*
G03*
X355433Y221500I-10433J0D01*
G01*
X378933D02*
G03*
X378933Y221500I-10433J0D01*
G01*
X402433D02*
G03*
X402433Y221500I-10433J0D01*
G01*
X21933Y143000D02*
G03*
X21933Y143000I-10433J0D01*
G01*
X45933D02*
G03*
X45933Y143000I-10433J0D01*
G01*
X70433D02*
G03*
X70433Y143000I-10433J0D01*
G01*
X94433D02*
G03*
X94433Y143000I-10433J0D01*
G01*
X118433D02*
G03*
X118433Y143000I-10433J0D01*
G01*
X142433D02*
G03*
X142433Y143000I-10433J0D01*
G01*
X166433D02*
G03*
X166433Y143000I-10433J0D01*
G01*
X190433D02*
G03*
X190433Y143000I-10433J0D01*
G01*
X214433D02*
G03*
X214433Y143000I-10433J0D01*
G01*
X237933D02*
G03*
X237933Y143000I-10433J0D01*
G01*
X261433D02*
G03*
X261433Y143000I-10433J0D01*
G01*
X284933D02*
G03*
X284933Y143000I-10433J0D01*
G01*
X308433D02*
G03*
X308433Y143000I-10433J0D01*
G01*
X331933D02*
G03*
X331933Y143000I-10433J0D01*
G01*
X355433D02*
G03*
X355433Y143000I-10433J0D01*
G01*
X378933D02*
G03*
X378933Y143000I-10433J0D01*
G01*
X402433D02*
G03*
X402433Y143000I-10433J0D01*
G01*
X214433Y65000D02*
G03*
X214433Y65000I-10433J0D01*
G01*
X190433D02*
G03*
X190433Y65000I-10433J0D01*
G01*
X166433D02*
G03*
X166433Y65000I-10433J0D01*
G01*
X142433D02*
G03*
X142433Y65000I-10433J0D01*
G01*
X118433D02*
G03*
X118433Y65000I-10433J0D01*
G01*
X94433D02*
G03*
X94433Y65000I-10433J0D01*
G01*
X70433D02*
G03*
X70433Y65000I-10433J0D01*
G01*
X45933D02*
G03*
X45933Y65000I-10433J0D01*
G01*
X21933D02*
G03*
X21933Y65000I-10433J0D01*
G01*
X402433D02*
G03*
X402433Y65000I-10433J0D01*
G01*
X378933D02*
G03*
X378933Y65000I-10433J0D01*
G01*
X355433D02*
G03*
X355433Y65000I-10433J0D01*
G01*
X331933D02*
G03*
X331933Y65000I-10433J0D01*
G01*
X308433D02*
G03*
X308433Y65000I-10433J0D01*
G01*
X284933D02*
G03*
X284933Y65000I-10433J0D01*
G01*
X261433D02*
G03*
X261433Y65000I-10433J0D01*
G01*
X237933D02*
G03*
X237933Y65000I-10433J0D01*
G01*
X1500Y314500D02*
Y389303D01*
X402000D01*
Y314500D02*
Y389303D01*
X1500Y314500D02*
X402000D01*
X1500Y236000D02*
Y310803D01*
X402000D01*
Y236000D02*
Y310803D01*
X1500Y236000D02*
X402000D01*
X1500Y157500D02*
Y232303D01*
X402000D01*
Y157500D02*
Y232303D01*
X1500Y157500D02*
X402000D01*
X1500Y79000D02*
Y153803D01*
X402000D01*
Y79000D02*
Y153803D01*
X1500Y79000D02*
X402000D01*
X1500Y1000D02*
X402000D01*
Y75803D01*
X1500D02*
X402000D01*
X1500Y1000D02*
Y75803D01*
X20681Y347500D02*
X19500Y346319D01*
Y343958D01*
X20681Y342777D01*
X25404D01*
X26584Y343958D01*
Y346319D01*
X25404Y347500D01*
X24223D01*
X23042Y346319D01*
Y342777D01*
X26584Y340416D02*
X21861D01*
X19500Y338054D01*
X21861Y335693D01*
X26584D01*
X105173Y343010D02*
X101500D01*
Y340255D01*
X103337Y341173D01*
X104255D01*
X105173Y340255D01*
Y338418D01*
X104255Y337500D01*
X102418D01*
X101500Y338418D01*
X107010Y342092D02*
X107928Y343010D01*
X109765D01*
X110683Y342092D01*
Y338418D01*
X109765Y337500D01*
X107928D01*
X107010Y338418D01*
Y342092D01*
X112520Y343010D02*
Y337500D01*
Y339337D01*
X116193Y343010D01*
X113438Y340255D01*
X116193Y337500D01*
X3500Y374499D02*
X7499D01*
X5499Y376498D02*
Y372500D01*
X27500Y374499D02*
X31499D01*
X29499Y376498D02*
Y372500D01*
X52000Y373999D02*
X55999D01*
X53999Y375998D02*
Y372000D01*
X76000Y373499D02*
X79999D01*
X77999Y375498D02*
Y371500D01*
X100000Y373999D02*
X103999D01*
X101999Y375998D02*
Y372000D01*
X124000Y373499D02*
X127999D01*
X125999Y375498D02*
Y371500D01*
X148000Y374499D02*
X151999D01*
X149999Y376498D02*
Y372500D01*
X172000Y373999D02*
X175999D01*
X173999Y375998D02*
Y372000D01*
X196000Y373999D02*
X199999D01*
X197999Y375998D02*
Y372000D01*
X219500Y373499D02*
X223499D01*
X221499Y375498D02*
Y371500D01*
X243000Y373499D02*
X246999D01*
X244999Y375498D02*
Y371500D01*
X266500Y373499D02*
X270499D01*
X268499Y375498D02*
Y371500D01*
X290500Y373499D02*
X294499D01*
X292499Y375498D02*
Y371500D01*
X313500Y373499D02*
X317499D01*
X315499Y375498D02*
Y371500D01*
X337000Y373999D02*
X340999D01*
X338999Y375998D02*
Y372000D01*
X360500Y374499D02*
X364499D01*
X362499Y376498D02*
Y372500D01*
X383500Y374499D02*
X387499D01*
X385499Y376498D02*
Y372500D01*
X60000Y330499D02*
X63999D01*
X61999Y332498D02*
Y328500D01*
X3000Y381499D02*
X6999D01*
X28000D02*
X31999D01*
X52000Y381999D02*
X55999D01*
X76000Y382499D02*
X79999D01*
X100000D02*
X103999D01*
X124000Y381999D02*
X127999D01*
X148000Y382499D02*
X151999D01*
X172000D02*
X175999D01*
X196000D02*
X199999D01*
X219500D02*
X223499D01*
X243000D02*
X246999D01*
X266500D02*
X270499D01*
X290000D02*
X293999D01*
X313500D02*
X317499D01*
X337000D02*
X340999D01*
X360500D02*
X364499D01*
X384000D02*
X387999D01*
X60000Y349999D02*
X63999D01*
X2000Y348499D02*
X5999D01*
X3999Y350498D02*
Y346500D01*
X2500Y336999D02*
X6499D01*
X20681Y269000D02*
X19500Y267819D01*
Y265458D01*
X20681Y264277D01*
X25404D01*
X26584Y265458D01*
Y267819D01*
X25404Y269000D01*
X24223D01*
X23042Y267819D01*
Y264277D01*
X26584Y261916D02*
X21861D01*
X19500Y259554D01*
X21861Y257193D01*
X26584D01*
X105173Y264510D02*
X101500D01*
Y261755D01*
X103337Y262673D01*
X104255D01*
X105173Y261755D01*
Y259918D01*
X104255Y259000D01*
X102418D01*
X101500Y259918D01*
X107010Y263592D02*
X107928Y264510D01*
X109765D01*
X110683Y263592D01*
Y259918D01*
X109765Y259000D01*
X107928D01*
X107010Y259918D01*
Y263592D01*
X112520Y264510D02*
Y259000D01*
Y260837D01*
X116193Y264510D01*
X113438Y261755D01*
X116193Y259000D01*
X3500Y295999D02*
X7499D01*
X5499Y297998D02*
Y294000D01*
X27500Y295999D02*
X31499D01*
X29499Y297998D02*
Y294000D01*
X52000Y295499D02*
X55999D01*
X53999Y297498D02*
Y293500D01*
X76000Y294999D02*
X79999D01*
X77999Y296998D02*
Y293000D01*
X100000Y295499D02*
X103999D01*
X101999Y297498D02*
Y293500D01*
X124000Y294999D02*
X127999D01*
X125999Y296998D02*
Y293000D01*
X148000Y295999D02*
X151999D01*
X149999Y297998D02*
Y294000D01*
X172000Y295499D02*
X175999D01*
X173999Y297498D02*
Y293500D01*
X196000Y295499D02*
X199999D01*
X197999Y297498D02*
Y293500D01*
X219500Y294999D02*
X223499D01*
X221499Y296998D02*
Y293000D01*
X243000Y294999D02*
X246999D01*
X244999Y296998D02*
Y293000D01*
X266500Y294999D02*
X270499D01*
X268499Y296998D02*
Y293000D01*
X290500Y294999D02*
X294499D01*
X292499Y296998D02*
Y293000D01*
X313500Y294999D02*
X317499D01*
X315499Y296998D02*
Y293000D01*
X337000Y295499D02*
X340999D01*
X338999Y297498D02*
Y293500D01*
X360500Y295999D02*
X364499D01*
X362499Y297998D02*
Y294000D01*
X383500Y295999D02*
X387499D01*
X385499Y297998D02*
Y294000D01*
X60000Y251999D02*
X63999D01*
X61999Y253998D02*
Y250000D01*
X3000Y302999D02*
X6999D01*
X28000D02*
X31999D01*
X52000Y303499D02*
X55999D01*
X76000Y303999D02*
X79999D01*
X100000D02*
X103999D01*
X124000Y303499D02*
X127999D01*
X148000Y303999D02*
X151999D01*
X172000D02*
X175999D01*
X196000D02*
X199999D01*
X219500D02*
X223499D01*
X243000D02*
X246999D01*
X266500D02*
X270499D01*
X290000D02*
X293999D01*
X313500D02*
X317499D01*
X337000D02*
X340999D01*
X360500D02*
X364499D01*
X384000D02*
X387999D01*
X60000Y271499D02*
X63999D01*
X2000Y269999D02*
X5999D01*
X3999Y271998D02*
Y268000D01*
X2500Y258499D02*
X6499D01*
X20681Y190500D02*
X19500Y189319D01*
Y186958D01*
X20681Y185777D01*
X25404D01*
X26584Y186958D01*
Y189319D01*
X25404Y190500D01*
X24223D01*
X23042Y189319D01*
Y185777D01*
X26584Y183416D02*
X21861D01*
X19500Y181054D01*
X21861Y178693D01*
X26584D01*
X105173Y186010D02*
X101500D01*
Y183255D01*
X103337Y184173D01*
X104255D01*
X105173Y183255D01*
Y181418D01*
X104255Y180500D01*
X102418D01*
X101500Y181418D01*
X107010Y185092D02*
X107928Y186010D01*
X109765D01*
X110683Y185092D01*
Y181418D01*
X109765Y180500D01*
X107928D01*
X107010Y181418D01*
Y185092D01*
X112520Y186010D02*
Y180500D01*
Y182337D01*
X116193Y186010D01*
X113438Y183255D01*
X116193Y180500D01*
X3500Y217499D02*
X7499D01*
X5499Y219498D02*
Y215500D01*
X27500Y217499D02*
X31499D01*
X29499Y219498D02*
Y215500D01*
X52000Y216999D02*
X55999D01*
X53999Y218998D02*
Y215000D01*
X76000Y216499D02*
X79999D01*
X77999Y218498D02*
Y214500D01*
X100000Y216999D02*
X103999D01*
X101999Y218998D02*
Y215000D01*
X124000Y216499D02*
X127999D01*
X125999Y218498D02*
Y214500D01*
X148000Y217499D02*
X151999D01*
X149999Y219498D02*
Y215500D01*
X172000Y216999D02*
X175999D01*
X173999Y218998D02*
Y215000D01*
X196000Y216999D02*
X199999D01*
X197999Y218998D02*
Y215000D01*
X219500Y216499D02*
X223499D01*
X221499Y218498D02*
Y214500D01*
X243000Y216499D02*
X246999D01*
X244999Y218498D02*
Y214500D01*
X266500Y216499D02*
X270499D01*
X268499Y218498D02*
Y214500D01*
X290500Y216499D02*
X294499D01*
X292499Y218498D02*
Y214500D01*
X313500Y216499D02*
X317499D01*
X315499Y218498D02*
Y214500D01*
X337000Y216999D02*
X340999D01*
X338999Y218998D02*
Y215000D01*
X360500Y217499D02*
X364499D01*
X362499Y219498D02*
Y215500D01*
X383500Y217499D02*
X387499D01*
X385499Y219498D02*
Y215500D01*
X60000Y173499D02*
X63999D01*
X61999Y175498D02*
Y171500D01*
X3000Y224499D02*
X6999D01*
X28000D02*
X31999D01*
X52000Y224999D02*
X55999D01*
X76000Y225499D02*
X79999D01*
X100000D02*
X103999D01*
X124000Y224999D02*
X127999D01*
X148000Y225499D02*
X151999D01*
X172000D02*
X175999D01*
X196000D02*
X199999D01*
X219500D02*
X223499D01*
X243000D02*
X246999D01*
X266500D02*
X270499D01*
X290000D02*
X293999D01*
X313500D02*
X317499D01*
X337000D02*
X340999D01*
X360500D02*
X364499D01*
X384000D02*
X387999D01*
X60000Y192999D02*
X63999D01*
X2000Y191499D02*
X5999D01*
X3999Y193498D02*
Y189500D01*
X2500Y179999D02*
X6499D01*
X20681Y112000D02*
X19500Y110819D01*
Y108458D01*
X20681Y107277D01*
X25404D01*
X26584Y108458D01*
Y110819D01*
X25404Y112000D01*
X24223D01*
X23042Y110819D01*
Y107277D01*
X26584Y104916D02*
X21861D01*
X19500Y102554D01*
X21861Y100193D01*
X26584D01*
X105173Y107510D02*
X101500D01*
Y104755D01*
X103337Y105673D01*
X104255D01*
X105173Y104755D01*
Y102918D01*
X104255Y102000D01*
X102418D01*
X101500Y102918D01*
X107010Y106592D02*
X107928Y107510D01*
X109765D01*
X110683Y106592D01*
Y102918D01*
X109765Y102000D01*
X107928D01*
X107010Y102918D01*
Y106592D01*
X112520Y107510D02*
Y102000D01*
Y103837D01*
X116193Y107510D01*
X113438Y104755D01*
X116193Y102000D01*
X3500Y138999D02*
X7499D01*
X5499Y140998D02*
Y137000D01*
X27500Y138999D02*
X31499D01*
X29499Y140998D02*
Y137000D01*
X52000Y138499D02*
X55999D01*
X53999Y140498D02*
Y136500D01*
X76000Y137999D02*
X79999D01*
X77999Y139998D02*
Y136000D01*
X100000Y138499D02*
X103999D01*
X101999Y140498D02*
Y136500D01*
X124000Y137999D02*
X127999D01*
X125999Y139998D02*
Y136000D01*
X148000Y138999D02*
X151999D01*
X149999Y140998D02*
Y137000D01*
X172000Y138499D02*
X175999D01*
X173999Y140498D02*
Y136500D01*
X196000Y138499D02*
X199999D01*
X197999Y140498D02*
Y136500D01*
X219500Y137999D02*
X223499D01*
X221499Y139998D02*
Y136000D01*
X243000Y137999D02*
X246999D01*
X244999Y139998D02*
Y136000D01*
X266500Y137999D02*
X270499D01*
X268499Y139998D02*
Y136000D01*
X290500Y137999D02*
X294499D01*
X292499Y139998D02*
Y136000D01*
X313500Y137999D02*
X317499D01*
X315499Y139998D02*
Y136000D01*
X337000Y138499D02*
X340999D01*
X338999Y140498D02*
Y136500D01*
X360500Y138999D02*
X364499D01*
X362499Y140998D02*
Y137000D01*
X383500Y138999D02*
X387499D01*
X385499Y140998D02*
Y137000D01*
X60000Y94999D02*
X63999D01*
X61999Y96998D02*
Y93000D01*
X3000Y145999D02*
X6999D01*
X28000D02*
X31999D01*
X52000Y146499D02*
X55999D01*
X76000Y146999D02*
X79999D01*
X100000D02*
X103999D01*
X124000Y146499D02*
X127999D01*
X148000Y146999D02*
X151999D01*
X172000D02*
X175999D01*
X196000D02*
X199999D01*
X219500D02*
X223499D01*
X243000D02*
X246999D01*
X266500D02*
X270499D01*
X290000D02*
X293999D01*
X313500D02*
X317499D01*
X337000D02*
X340999D01*
X360500D02*
X364499D01*
X384000D02*
X387999D01*
X60000Y114499D02*
X63999D01*
X2000Y112999D02*
X5999D01*
X3999Y114998D02*
Y111000D01*
X2500Y101499D02*
X6499D01*
X2500Y23499D02*
X6499D01*
X2000Y34999D02*
X5999D01*
X3999Y36998D02*
Y33000D01*
X60000Y36499D02*
X63999D01*
X384000Y68999D02*
X387999D01*
X360500D02*
X364499D01*
X337000D02*
X340999D01*
X313500D02*
X317499D01*
X290000D02*
X293999D01*
X266500D02*
X270499D01*
X243000D02*
X246999D01*
X219500D02*
X223499D01*
X196000D02*
X199999D01*
X172000D02*
X175999D01*
X148000D02*
X151999D01*
X124000Y68499D02*
X127999D01*
X100000Y68999D02*
X103999D01*
X76000D02*
X79999D01*
X52000Y68499D02*
X55999D01*
X28000Y67999D02*
X31999D01*
X3000D02*
X6999D01*
X60000Y16999D02*
X63999D01*
X61999Y18998D02*
Y15000D01*
X383500Y60999D02*
X387499D01*
X385499Y62998D02*
Y59000D01*
X360500Y60999D02*
X364499D01*
X362499Y62998D02*
Y59000D01*
X337000Y60499D02*
X340999D01*
X338999Y62498D02*
Y58500D01*
X313500Y59999D02*
X317499D01*
X315499Y61998D02*
Y58000D01*
X290500Y59999D02*
X294499D01*
X292499Y61998D02*
Y58000D01*
X266500Y59999D02*
X270499D01*
X268499Y61998D02*
Y58000D01*
X243000Y59999D02*
X246999D01*
X244999Y61998D02*
Y58000D01*
X219500Y59999D02*
X223499D01*
X221499Y61998D02*
Y58000D01*
X196000Y60499D02*
X199999D01*
X197999Y62498D02*
Y58500D01*
X172000Y60499D02*
X175999D01*
X173999Y62498D02*
Y58500D01*
X148000Y60999D02*
X151999D01*
X149999Y62998D02*
Y59000D01*
X124000Y59999D02*
X127999D01*
X125999Y61998D02*
Y58000D01*
X100000Y60499D02*
X103999D01*
X101999Y62498D02*
Y58500D01*
X76000Y59999D02*
X79999D01*
X77999Y61998D02*
Y58000D01*
X52000Y60499D02*
X55999D01*
X53999Y62498D02*
Y58500D01*
X27500Y60999D02*
X31499D01*
X29499Y62998D02*
Y59000D01*
X3500Y60999D02*
X7499D01*
X5499Y62998D02*
Y59000D01*
X105173Y29510D02*
X101500D01*
Y26755D01*
X103337Y27673D01*
X104255D01*
X105173Y26755D01*
Y24918D01*
X104255Y24000D01*
X102418D01*
X101500Y24918D01*
X107010Y28592D02*
X107928Y29510D01*
X109765D01*
X110683Y28592D01*
Y24918D01*
X109765Y24000D01*
X107928D01*
X107010Y24918D01*
Y28592D01*
X112520Y29510D02*
Y24000D01*
Y25837D01*
X116193Y29510D01*
X113438Y26755D01*
X116193Y24000D01*
X20681Y34000D02*
X19500Y32819D01*
Y30458D01*
X20681Y29277D01*
X25404D01*
X26584Y30458D01*
Y32819D01*
X25404Y34000D01*
X24223D01*
X23042Y32819D01*
Y29277D01*
X26584Y26916D02*
X21861D01*
X19500Y24554D01*
X21861Y22193D01*
X26584D01*
D22*
X66226Y347661D02*
G03*
X65268Y333860I3274J-7161D01*
G01*
X73732D02*
G03*
X72774Y347661I-4232J6640D01*
G01*
X104894Y356878D02*
G03*
X104894Y356878I-394J0D01*
G01*
X66226Y269161D02*
G03*
X65268Y255360I3274J-7161D01*
G01*
X73732D02*
G03*
X72774Y269161I-4232J6640D01*
G01*
X104894Y278378D02*
G03*
X104894Y278378I-394J0D01*
G01*
X66226Y190661D02*
G03*
X65268Y176860I3274J-7161D01*
G01*
X73732D02*
G03*
X72774Y190661I-4232J6640D01*
G01*
X104894Y199878D02*
G03*
X104894Y199878I-394J0D01*
G01*
X66226Y112161D02*
G03*
X65268Y98360I3274J-7161D01*
G01*
X73732D02*
G03*
X72774Y112161I-4232J6640D01*
G01*
X104894Y121378D02*
G03*
X104894Y121378I-394J0D01*
G01*
X66226Y34161D02*
G03*
X65268Y20360I3274J-7161D01*
G01*
X73732D02*
G03*
X72774Y34161I-4232J6640D01*
G01*
X104894Y43378D02*
G03*
X104894Y43378I-394J0D01*
G01*
X34500Y331000D02*
X37500D01*
Y351000D01*
X31500D02*
X37500D01*
X31500Y331000D02*
Y351000D01*
Y331000D02*
X34500D01*
Y351000D02*
Y351900D01*
Y330100D02*
Y331000D01*
X377000D02*
X380000D01*
Y351000D01*
X374000D02*
X380000D01*
X374000Y331000D02*
Y351000D01*
Y331000D02*
X377000D01*
Y351000D02*
Y351900D01*
Y330100D02*
Y331000D01*
X7500Y333000D02*
X17500D01*
X7500D02*
Y353000D01*
X17500D01*
Y333000D02*
Y353000D01*
X34500Y252500D02*
X37500D01*
Y272500D01*
X31500D02*
X37500D01*
X31500Y252500D02*
Y272500D01*
Y252500D02*
X34500D01*
Y272500D02*
Y273400D01*
Y251600D02*
Y252500D01*
X377000D02*
X380000D01*
Y272500D01*
X374000D02*
X380000D01*
X374000Y252500D02*
Y272500D01*
Y252500D02*
X377000D01*
Y272500D02*
Y273400D01*
Y251600D02*
Y252500D01*
X7500Y254500D02*
X17500D01*
X7500D02*
Y274500D01*
X17500D01*
Y254500D02*
Y274500D01*
X34500Y174000D02*
X37500D01*
Y194000D01*
X31500D02*
X37500D01*
X31500Y174000D02*
Y194000D01*
Y174000D02*
X34500D01*
Y194000D02*
Y194900D01*
Y173100D02*
Y174000D01*
X377000D02*
X380000D01*
Y194000D01*
X374000D02*
X380000D01*
X374000Y174000D02*
Y194000D01*
Y174000D02*
X377000D01*
Y194000D02*
Y194900D01*
Y173100D02*
Y174000D01*
X7500Y176000D02*
X17500D01*
X7500D02*
Y196000D01*
X17500D01*
Y176000D02*
Y196000D01*
X34500Y95500D02*
X37500D01*
Y115500D01*
X31500D02*
X37500D01*
X31500Y95500D02*
Y115500D01*
Y95500D02*
X34500D01*
Y115500D02*
Y116400D01*
Y94600D02*
Y95500D01*
X377000D02*
X380000D01*
Y115500D01*
X374000D02*
X380000D01*
X374000Y95500D02*
Y115500D01*
Y95500D02*
X377000D01*
Y115500D02*
Y116400D01*
Y94600D02*
Y95500D01*
X7500Y97500D02*
X17500D01*
X7500D02*
Y117500D01*
X17500D01*
Y97500D02*
Y117500D01*
X377000Y17500D02*
X380000D01*
Y37500D01*
X374000D02*
X380000D01*
X374000Y17500D02*
Y37500D01*
Y17500D02*
X377000D01*
Y37500D02*
Y38400D01*
Y16600D02*
Y17500D01*
X7500Y19500D02*
X17500D01*
X7500D02*
Y39500D01*
X17500D01*
Y19500D02*
Y39500D01*
X34500Y17500D02*
X37500D01*
Y37500D01*
X31500D02*
X37500D01*
X31500Y17500D02*
Y37500D01*
Y17500D02*
X34500D01*
Y37500D02*
Y38400D01*
Y16600D02*
Y17500D01*
X32500Y345500D02*
Y344188D01*
Y344844D01*
X36436D01*
X35780Y345500D01*
X36436Y342220D02*
X32500D01*
X33812D01*
X36436Y339596D01*
X34468Y341564D01*
X32500Y339596D01*
X65493Y338500D02*
X63000D01*
X65493Y340993D01*
Y341616D01*
X64869Y342239D01*
X63623D01*
X63000Y341616D01*
X66739Y338500D02*
Y339123D01*
X67362D01*
Y338500D01*
X66739D01*
X72347D02*
X69855D01*
X72347Y340993D01*
Y341616D01*
X71724Y342239D01*
X70478D01*
X69855Y341616D01*
X73594Y340993D02*
Y339123D01*
X74217Y338500D01*
X76086D01*
Y340993D01*
X379000Y337000D02*
Y338312D01*
Y337656D01*
X375064D01*
X375720Y337000D01*
Y340280D02*
X375064Y340936D01*
Y342248D01*
X375720Y342904D01*
X378344D01*
X379000Y342248D01*
Y340936D01*
X378344Y340280D01*
X375720D01*
Y344215D02*
X375064Y344871D01*
Y346183D01*
X375720Y346839D01*
X378344D01*
X379000Y346183D01*
Y344871D01*
X378344Y344215D01*
X375720D01*
X32500Y267000D02*
Y265688D01*
Y266344D01*
X36436D01*
X35780Y267000D01*
X36436Y263720D02*
X32500D01*
X33812D01*
X36436Y261096D01*
X34468Y263064D01*
X32500Y261096D01*
X379000Y258500D02*
Y259812D01*
Y259156D01*
X375064D01*
X375720Y258500D01*
Y261780D02*
X375064Y262436D01*
Y263748D01*
X375720Y264404D01*
X378344D01*
X379000Y263748D01*
Y262436D01*
X378344Y261780D01*
X375720D01*
Y265716D02*
X375064Y266371D01*
Y267683D01*
X375720Y268339D01*
X378344D01*
X379000Y267683D01*
Y266371D01*
X378344Y265716D01*
X375720D01*
X32500Y188500D02*
Y187188D01*
Y187844D01*
X36436D01*
X35780Y188500D01*
X36436Y185220D02*
X32500D01*
X33812D01*
X36436Y182596D01*
X34468Y184564D01*
X32500Y182596D01*
X379000Y180000D02*
Y181312D01*
Y180656D01*
X375064D01*
X375720Y180000D01*
Y183280D02*
X375064Y183936D01*
Y185248D01*
X375720Y185904D01*
X378344D01*
X379000Y185248D01*
Y183936D01*
X378344Y183280D01*
X375720D01*
Y187215D02*
X375064Y187872D01*
Y189183D01*
X375720Y189839D01*
X378344D01*
X379000Y189183D01*
Y187872D01*
X378344Y187215D01*
X375720D01*
X32500Y110000D02*
Y108688D01*
Y109344D01*
X36436D01*
X35780Y110000D01*
X36436Y106720D02*
X32500D01*
X33812D01*
X36436Y104096D01*
X34468Y106064D01*
X32500Y104096D01*
X379000Y101500D02*
Y102812D01*
Y102156D01*
X375064D01*
X375720Y101500D01*
Y104780D02*
X375064Y105436D01*
Y106748D01*
X375720Y107404D01*
X378344D01*
X379000Y106748D01*
Y105436D01*
X378344Y104780D01*
X375720D01*
Y108715D02*
X375064Y109371D01*
Y110683D01*
X375720Y111339D01*
X378344D01*
X379000Y110683D01*
Y109371D01*
X378344Y108715D01*
X375720D01*
X379000Y23500D02*
Y24812D01*
Y24156D01*
X375064D01*
X375720Y23500D01*
Y26780D02*
X375064Y27436D01*
Y28748D01*
X375720Y29404D01*
X378344D01*
X379000Y28748D01*
Y27436D01*
X378344Y26780D01*
X375720D01*
Y30716D02*
X375064Y31372D01*
Y32683D01*
X375720Y33339D01*
X378344D01*
X379000Y32683D01*
Y31372D01*
X378344Y30716D01*
X375720D01*
X32500Y32000D02*
Y30688D01*
Y31344D01*
X36436D01*
X35780Y32000D01*
X36436Y28720D02*
X32500D01*
X33812D01*
X36436Y26096D01*
X34468Y28064D01*
X32500Y26096D01*
X65493Y103500D02*
X63000D01*
X65493Y105993D01*
Y106616D01*
X64869Y107239D01*
X63623D01*
X63000Y106616D01*
X66739Y103500D02*
Y104123D01*
X67362D01*
Y103500D01*
X66739D01*
X72347D02*
X69855D01*
X72347Y105993D01*
Y106616D01*
X71724Y107239D01*
X70478D01*
X69855Y106616D01*
X73594Y105993D02*
Y104123D01*
X74217Y103500D01*
X76086D01*
Y105993D01*
X65493Y182000D02*
X63000D01*
X65493Y184493D01*
Y185116D01*
X64869Y185739D01*
X63623D01*
X63000Y185116D01*
X66739Y182000D02*
Y182623D01*
X67362D01*
Y182000D01*
X66739D01*
X72347D02*
X69855D01*
X72347Y184493D01*
Y185116D01*
X71724Y185739D01*
X70478D01*
X69855Y185116D01*
X73594Y184493D02*
Y182623D01*
X74217Y182000D01*
X76086D01*
Y184493D01*
X65493Y260000D02*
X63000D01*
X65493Y262493D01*
Y263116D01*
X64869Y263739D01*
X63623D01*
X63000Y263116D01*
X66739Y260000D02*
Y260623D01*
X67362D01*
Y260000D01*
X66739D01*
X72347D02*
X69855D01*
X72347Y262493D01*
Y263116D01*
X71724Y263739D01*
X70478D01*
X69855Y263116D01*
X73594Y262493D02*
Y260623D01*
X74217Y260000D01*
X76086D01*
Y262493D01*
X65493Y25000D02*
X63000D01*
X65493Y27493D01*
Y28116D01*
X64869Y28739D01*
X63623D01*
X63000Y28116D01*
X66739Y25000D02*
Y25623D01*
X67362D01*
Y25000D01*
X66739D01*
X72347D02*
X69855D01*
X72347Y27493D01*
Y28116D01*
X71724Y28739D01*
X70478D01*
X69855Y28116D01*
X73594Y27493D02*
Y25623D01*
X74217Y25000D01*
X76086D01*
Y27493D01*
D23*
X317800Y341200D02*
G03*
X317800Y338800I0J-1200D01*
G01*
Y262700D02*
G03*
X317800Y260300I0J-1200D01*
G01*
Y184200D02*
G03*
X317800Y181800I0J-1200D01*
G01*
Y105700D02*
G03*
X317800Y103300I0J-1200D01*
G01*
Y27700D02*
G03*
X317800Y25300I0J-1200D01*
G01*
D24*
X157000Y339800D02*
G03*
X157000Y342200I0J1200D01*
G01*
Y261300D02*
G03*
X157000Y263700I0J1200D01*
G01*
Y182800D02*
G03*
X157000Y185200I0J1200D01*
G01*
Y104300D02*
G03*
X157000Y106700I0J1200D01*
G01*
Y26300D02*
G03*
X157000Y28700I0J1200D01*
G01*
X240200Y328500D02*
Y351500D01*
X317800Y328500D02*
Y338800D01*
Y341200D01*
Y349800D01*
X197000Y327300D02*
Y354700D01*
X157000Y342200D02*
Y354700D01*
Y339800D02*
Y342200D01*
Y330500D02*
Y339800D01*
X240200Y250000D02*
Y273000D01*
X317800Y250000D02*
Y260300D01*
Y262700D01*
Y271300D01*
X197000Y248800D02*
Y276200D01*
X157000Y263700D02*
Y276200D01*
Y261300D02*
Y263700D01*
Y252000D02*
Y261300D01*
X240200Y171500D02*
Y194500D01*
X317800Y171500D02*
Y181800D01*
Y184200D01*
Y192800D01*
X197000Y170300D02*
Y197700D01*
X157000Y185200D02*
Y197700D01*
Y182800D02*
Y185200D01*
Y173500D02*
Y182800D01*
X240200Y93000D02*
Y116000D01*
X317800Y93000D02*
Y103300D01*
Y105700D01*
Y114300D01*
X197000Y91800D02*
Y119200D01*
X157000Y106700D02*
Y119200D01*
Y104300D02*
Y106700D01*
Y95000D02*
Y104300D01*
X240200Y15000D02*
Y38000D01*
X317800Y15000D02*
Y25300D01*
Y27700D01*
Y36300D01*
X197000Y13800D02*
Y41200D01*
X157000Y28700D02*
Y41200D01*
Y26300D02*
Y28700D01*
Y17000D02*
Y26300D01*
D25*
X108713Y352941D02*
X126941D01*
Y343217D02*
Y352941D01*
Y327744D02*
Y337469D01*
X108713Y327744D02*
X126941D01*
X100287D02*
Y352941D01*
X108713Y274441D02*
X126941D01*
Y264717D02*
Y274441D01*
Y249244D02*
Y258969D01*
X108713Y249244D02*
X126941D01*
X100287D02*
Y274441D01*
X108713Y195941D02*
X126941D01*
Y186217D02*
Y195941D01*
Y170744D02*
Y180469D01*
X108713Y170744D02*
X126941D01*
X100287D02*
Y195941D01*
X108713Y117441D02*
X126941D01*
Y107717D02*
Y117441D01*
Y92244D02*
Y101969D01*
X108713Y92244D02*
X126941D01*
X100287D02*
Y117441D01*
X108713Y39441D02*
X126941D01*
Y29717D02*
Y39441D01*
Y14244D02*
Y23969D01*
X108713Y14244D02*
X126941D01*
X100287D02*
Y39441D01*
D26*
X162500Y337000D02*
Y344084D01*
X167223Y337000D01*
Y344084D01*
X174307D02*
X169584D01*
Y337000D01*
X174307D01*
X169584Y340542D02*
X171946D01*
X181392Y344084D02*
X176669D01*
Y340542D01*
X179030Y341723D01*
X180211D01*
X181392Y340542D01*
Y338181D01*
X180211Y337000D01*
X177849D01*
X176669Y338181D01*
X188476Y344084D02*
X183753D01*
Y340542D01*
X186114Y341723D01*
X187295D01*
X188476Y340542D01*
Y338181D01*
X187295Y337000D01*
X184934D01*
X183753Y338181D01*
X195560Y344084D02*
X190837D01*
Y340542D01*
X193199Y341723D01*
X194379D01*
X195560Y340542D01*
Y338181D01*
X194379Y337000D01*
X192018D01*
X190837Y338181D01*
X254748Y344060D02*
X253436Y345372D01*
X250812D01*
X249500Y344060D01*
Y338812D01*
X250812Y337500D01*
X253436D01*
X254748Y338812D01*
X257371Y345372D02*
Y337500D01*
X261307D01*
X262619Y338812D01*
Y344060D01*
X261307Y345372D01*
X257371D01*
X269179Y337500D02*
Y345372D01*
X265243Y341436D01*
X270491D01*
X273114Y344060D02*
X274426Y345372D01*
X277050D01*
X278362Y344060D01*
Y338812D01*
X277050Y337500D01*
X274426D01*
X273114Y338812D01*
Y344060D01*
X280986Y337500D02*
X283610D01*
X282298D01*
Y345372D01*
X280986Y344060D01*
X287545Y345372D02*
X292793D01*
Y344060D01*
X287545Y338812D01*
Y337500D01*
X162500Y258500D02*
Y265584D01*
X167223Y258500D01*
Y265584D01*
X174307D02*
X169584D01*
Y258500D01*
X174307D01*
X169584Y262042D02*
X171946D01*
X181392Y265584D02*
X176669D01*
Y262042D01*
X179030Y263223D01*
X180211D01*
X181392Y262042D01*
Y259681D01*
X180211Y258500D01*
X177849D01*
X176669Y259681D01*
X188476Y265584D02*
X183753D01*
Y262042D01*
X186114Y263223D01*
X187295D01*
X188476Y262042D01*
Y259681D01*
X187295Y258500D01*
X184934D01*
X183753Y259681D01*
X195560Y265584D02*
X190837D01*
Y262042D01*
X193199Y263223D01*
X194379D01*
X195560Y262042D01*
Y259681D01*
X194379Y258500D01*
X192018D01*
X190837Y259681D01*
X254748Y265560D02*
X253436Y266872D01*
X250812D01*
X249500Y265560D01*
Y260312D01*
X250812Y259000D01*
X253436D01*
X254748Y260312D01*
X257371Y266872D02*
Y259000D01*
X261307D01*
X262619Y260312D01*
Y265560D01*
X261307Y266872D01*
X257371D01*
X269179Y259000D02*
Y266872D01*
X265243Y262936D01*
X270491D01*
X273114Y265560D02*
X274426Y266872D01*
X277050D01*
X278362Y265560D01*
Y260312D01*
X277050Y259000D01*
X274426D01*
X273114Y260312D01*
Y265560D01*
X280986Y259000D02*
X283610D01*
X282298D01*
Y266872D01*
X280986Y265560D01*
X287545Y266872D02*
X292793D01*
Y265560D01*
X287545Y260312D01*
Y259000D01*
X162500Y180000D02*
Y187084D01*
X167223Y180000D01*
Y187084D01*
X174307D02*
X169584D01*
Y180000D01*
X174307D01*
X169584Y183542D02*
X171946D01*
X181392Y187084D02*
X176669D01*
Y183542D01*
X179030Y184723D01*
X180211D01*
X181392Y183542D01*
Y181181D01*
X180211Y180000D01*
X177849D01*
X176669Y181181D01*
X188476Y187084D02*
X183753D01*
Y183542D01*
X186114Y184723D01*
X187295D01*
X188476Y183542D01*
Y181181D01*
X187295Y180000D01*
X184934D01*
X183753Y181181D01*
X195560Y187084D02*
X190837D01*
Y183542D01*
X193199Y184723D01*
X194379D01*
X195560Y183542D01*
Y181181D01*
X194379Y180000D01*
X192018D01*
X190837Y181181D01*
X254748Y187060D02*
X253436Y188372D01*
X250812D01*
X249500Y187060D01*
Y181812D01*
X250812Y180500D01*
X253436D01*
X254748Y181812D01*
X257371Y188372D02*
Y180500D01*
X261307D01*
X262619Y181812D01*
Y187060D01*
X261307Y188372D01*
X257371D01*
X269179Y180500D02*
Y188372D01*
X265243Y184436D01*
X270491D01*
X273114Y187060D02*
X274426Y188372D01*
X277050D01*
X278362Y187060D01*
Y181812D01*
X277050Y180500D01*
X274426D01*
X273114Y181812D01*
Y187060D01*
X280986Y180500D02*
X283610D01*
X282298D01*
Y188372D01*
X280986Y187060D01*
X287545Y188372D02*
X292793D01*
Y187060D01*
X287545Y181812D01*
Y180500D01*
X162500Y101500D02*
Y108584D01*
X167223Y101500D01*
Y108584D01*
X174307D02*
X169584D01*
Y101500D01*
X174307D01*
X169584Y105042D02*
X171946D01*
X181392Y108584D02*
X176669D01*
Y105042D01*
X179030Y106223D01*
X180211D01*
X181392Y105042D01*
Y102681D01*
X180211Y101500D01*
X177849D01*
X176669Y102681D01*
X188476Y108584D02*
X183753D01*
Y105042D01*
X186114Y106223D01*
X187295D01*
X188476Y105042D01*
Y102681D01*
X187295Y101500D01*
X184934D01*
X183753Y102681D01*
X195560Y108584D02*
X190837D01*
Y105042D01*
X193199Y106223D01*
X194379D01*
X195560Y105042D01*
Y102681D01*
X194379Y101500D01*
X192018D01*
X190837Y102681D01*
X254748Y108560D02*
X253436Y109871D01*
X250812D01*
X249500Y108560D01*
Y103312D01*
X250812Y102000D01*
X253436D01*
X254748Y103312D01*
X257371Y109871D02*
Y102000D01*
X261307D01*
X262619Y103312D01*
Y108560D01*
X261307Y109871D01*
X257371D01*
X269179Y102000D02*
Y109871D01*
X265243Y105936D01*
X270491D01*
X273114Y108560D02*
X274426Y109871D01*
X277050D01*
X278362Y108560D01*
Y103312D01*
X277050Y102000D01*
X274426D01*
X273114Y103312D01*
Y108560D01*
X280986Y102000D02*
X283610D01*
X282298D01*
Y109871D01*
X280986Y108560D01*
X287545Y109871D02*
X292793D01*
Y108560D01*
X287545Y103312D01*
Y102000D01*
X254748Y30560D02*
X253436Y31872D01*
X250812D01*
X249500Y30560D01*
Y25312D01*
X250812Y24000D01*
X253436D01*
X254748Y25312D01*
X257371Y31872D02*
Y24000D01*
X261307D01*
X262619Y25312D01*
Y30560D01*
X261307Y31872D01*
X257371D01*
X269179Y24000D02*
Y31872D01*
X265243Y27936D01*
X270491D01*
X273114Y30560D02*
X274426Y31872D01*
X277050D01*
X278362Y30560D01*
Y25312D01*
X277050Y24000D01*
X274426D01*
X273114Y25312D01*
Y30560D01*
X280986Y24000D02*
X283610D01*
X282298D01*
Y31872D01*
X280986Y30560D01*
X287545Y31872D02*
X292793D01*
Y30560D01*
X287545Y25312D01*
Y24000D01*
X162500Y23500D02*
Y30584D01*
X167223Y23500D01*
Y30584D01*
X174307D02*
X169584D01*
Y23500D01*
X174307D01*
X169584Y27042D02*
X171946D01*
X181392Y30584D02*
X176669D01*
Y27042D01*
X179030Y28223D01*
X180211D01*
X181392Y27042D01*
Y24681D01*
X180211Y23500D01*
X177849D01*
X176669Y24681D01*
X188476Y30584D02*
X183753D01*
Y27042D01*
X186114Y28223D01*
X187295D01*
X188476Y27042D01*
Y24681D01*
X187295Y23500D01*
X184934D01*
X183753Y24681D01*
X195560Y30584D02*
X190837D01*
Y27042D01*
X193199Y28223D01*
X194379D01*
X195560Y27042D01*
Y24681D01*
X194379Y23500D01*
X192018D01*
X190837Y24681D01*
D27*
X40500Y326339D02*
Y316500D01*
X47060D01*
X56899Y326339D02*
X50339D01*
Y316500D01*
X56899D01*
X50339Y321420D02*
X53619D01*
X60179Y326339D02*
Y316500D01*
X65098D01*
X66738Y318140D01*
Y324699D01*
X65098Y326339D01*
X60179D01*
X86417Y324699D02*
X84777Y326339D01*
X81497D01*
X79857Y324699D01*
Y318140D01*
X81497Y316500D01*
X84777D01*
X86417Y318140D01*
X89697Y326339D02*
Y316500D01*
Y321420D01*
X96256D01*
Y326339D01*
Y316500D01*
X99536D02*
Y323060D01*
X102816Y326339D01*
X106096Y323060D01*
Y316500D01*
Y321420D01*
X99536D01*
X115935Y324699D02*
X114295Y326339D01*
X111015D01*
X109375Y324699D01*
Y323060D01*
X111015Y321420D01*
X114295D01*
X115935Y319780D01*
Y318140D01*
X114295Y316500D01*
X111015D01*
X109375Y318140D01*
X125774Y326339D02*
X119215D01*
Y316500D01*
X125774D01*
X119215Y321420D02*
X122494D01*
X129054Y316500D02*
Y326339D01*
X133974D01*
X135614Y324699D01*
Y321420D01*
X133974Y319780D01*
X129054D01*
X132334D02*
X135614Y316500D01*
X40500Y247839D02*
Y238000D01*
X47060D01*
X56899Y247839D02*
X50339D01*
Y238000D01*
X56899D01*
X50339Y242920D02*
X53619D01*
X60179Y247839D02*
Y238000D01*
X65098D01*
X66738Y239640D01*
Y246199D01*
X65098Y247839D01*
X60179D01*
X86417Y246199D02*
X84777Y247839D01*
X81497D01*
X79857Y246199D01*
Y239640D01*
X81497Y238000D01*
X84777D01*
X86417Y239640D01*
X89697Y247839D02*
Y238000D01*
Y242920D01*
X96256D01*
Y247839D01*
Y238000D01*
X99536D02*
Y244560D01*
X102816Y247839D01*
X106096Y244560D01*
Y238000D01*
Y242920D01*
X99536D01*
X115935Y246199D02*
X114295Y247839D01*
X111015D01*
X109375Y246199D01*
Y244560D01*
X111015Y242920D01*
X114295D01*
X115935Y241280D01*
Y239640D01*
X114295Y238000D01*
X111015D01*
X109375Y239640D01*
X125774Y247839D02*
X119215D01*
Y238000D01*
X125774D01*
X119215Y242920D02*
X122494D01*
X129054Y238000D02*
Y247839D01*
X133974D01*
X135614Y246199D01*
Y242920D01*
X133974Y241280D01*
X129054D01*
X132334D02*
X135614Y238000D01*
X40500Y169339D02*
Y159500D01*
X47060D01*
X56899Y169339D02*
X50339D01*
Y159500D01*
X56899D01*
X50339Y164420D02*
X53619D01*
X60179Y169339D02*
Y159500D01*
X65098D01*
X66738Y161140D01*
Y167700D01*
X65098Y169339D01*
X60179D01*
X86417Y167700D02*
X84777Y169339D01*
X81497D01*
X79857Y167700D01*
Y161140D01*
X81497Y159500D01*
X84777D01*
X86417Y161140D01*
X89697Y169339D02*
Y159500D01*
Y164420D01*
X96256D01*
Y169339D01*
Y159500D01*
X99536D02*
Y166060D01*
X102816Y169339D01*
X106096Y166060D01*
Y159500D01*
Y164420D01*
X99536D01*
X115935Y167700D02*
X114295Y169339D01*
X111015D01*
X109375Y167700D01*
Y166060D01*
X111015Y164420D01*
X114295D01*
X115935Y162780D01*
Y161140D01*
X114295Y159500D01*
X111015D01*
X109375Y161140D01*
X125774Y169339D02*
X119215D01*
Y159500D01*
X125774D01*
X119215Y164420D02*
X122494D01*
X129054Y159500D02*
Y169339D01*
X133974D01*
X135614Y167700D01*
Y164420D01*
X133974Y162780D01*
X129054D01*
X132334D02*
X135614Y159500D01*
X40500Y90839D02*
Y81000D01*
X47060D01*
X56899Y90839D02*
X50339D01*
Y81000D01*
X56899D01*
X50339Y85920D02*
X53619D01*
X60179Y90839D02*
Y81000D01*
X65098D01*
X66738Y82640D01*
Y89200D01*
X65098Y90839D01*
X60179D01*
X86417Y89200D02*
X84777Y90839D01*
X81497D01*
X79857Y89200D01*
Y82640D01*
X81497Y81000D01*
X84777D01*
X86417Y82640D01*
X89697Y90839D02*
Y81000D01*
Y85920D01*
X96256D01*
Y90839D01*
Y81000D01*
X99536D02*
Y87560D01*
X102816Y90839D01*
X106096Y87560D01*
Y81000D01*
Y85920D01*
X99536D01*
X115935Y89200D02*
X114295Y90839D01*
X111015D01*
X109375Y89200D01*
Y87560D01*
X111015Y85920D01*
X114295D01*
X115935Y84280D01*
Y82640D01*
X114295Y81000D01*
X111015D01*
X109375Y82640D01*
X125774Y90839D02*
X119215D01*
Y81000D01*
X125774D01*
X119215Y85920D02*
X122494D01*
X129054Y81000D02*
Y90839D01*
X133974D01*
X135614Y89200D01*
Y85920D01*
X133974Y84280D01*
X129054D01*
X132334D02*
X135614Y81000D01*
X40500Y12839D02*
Y3000D01*
X47060D01*
X56899Y12839D02*
X50339D01*
Y3000D01*
X56899D01*
X50339Y7920D02*
X53619D01*
X60179Y12839D02*
Y3000D01*
X65098D01*
X66738Y4640D01*
Y11199D01*
X65098Y12839D01*
X60179D01*
X86417Y11199D02*
X84777Y12839D01*
X81497D01*
X79857Y11199D01*
Y4640D01*
X81497Y3000D01*
X84777D01*
X86417Y4640D01*
X89697Y12839D02*
Y3000D01*
Y7920D01*
X96256D01*
Y12839D01*
Y3000D01*
X99536D02*
Y9560D01*
X102816Y12839D01*
X106096Y9560D01*
Y3000D01*
Y7920D01*
X99536D01*
X115935Y11199D02*
X114295Y12839D01*
X111015D01*
X109375Y11199D01*
Y9560D01*
X111015Y7920D01*
X114295D01*
X115935Y6280D01*
Y4640D01*
X114295Y3000D01*
X111015D01*
X109375Y4640D01*
X125774Y12839D02*
X119215D01*
Y3000D01*
X125774D01*
X119215Y7920D02*
X122494D01*
X129054Y3000D02*
Y12839D01*
X133974D01*
X135614Y11199D01*
Y7920D01*
X133974Y6280D01*
X129054D01*
X132334D02*
X135614Y3000D01*
D28*
X43500Y355500D02*
Y360748D01*
X46124Y363371D01*
X48748Y360748D01*
Y355500D01*
Y359436D01*
X43500D01*
X51372Y355500D02*
Y356812D01*
X52683D01*
Y355500D01*
X51372D01*
X57931Y363371D02*
X60555D01*
X59243D01*
Y355500D01*
X57931D01*
X60555D01*
X64491D02*
Y356812D01*
X65803D01*
Y355500D01*
X64491D01*
X78922D02*
Y363371D01*
X82857D01*
X84169Y362060D01*
Y359436D01*
X82857Y358124D01*
X78922D01*
X92041Y362060D02*
X90729Y363371D01*
X88105D01*
X86793Y362060D01*
Y356812D01*
X88105Y355500D01*
X90729D01*
X92041Y356812D01*
X94665Y363371D02*
Y355500D01*
X98600D01*
X99912Y356812D01*
Y358124D01*
X98600Y359436D01*
X94665D01*
X98600D01*
X99912Y360748D01*
Y362060D01*
X98600Y363371D01*
X94665D01*
X43500Y277000D02*
Y282248D01*
X46124Y284872D01*
X48748Y282248D01*
Y277000D01*
Y280936D01*
X43500D01*
X51372Y277000D02*
Y278312D01*
X52683D01*
Y277000D01*
X51372D01*
X57931Y284872D02*
X60555D01*
X59243D01*
Y277000D01*
X57931D01*
X60555D01*
X64491D02*
Y278312D01*
X65803D01*
Y277000D01*
X64491D01*
X78922D02*
Y284872D01*
X82857D01*
X84169Y283560D01*
Y280936D01*
X82857Y279624D01*
X78922D01*
X92041Y283560D02*
X90729Y284872D01*
X88105D01*
X86793Y283560D01*
Y278312D01*
X88105Y277000D01*
X90729D01*
X92041Y278312D01*
X94665Y284872D02*
Y277000D01*
X98600D01*
X99912Y278312D01*
Y279624D01*
X98600Y280936D01*
X94665D01*
X98600D01*
X99912Y282248D01*
Y283560D01*
X98600Y284872D01*
X94665D01*
X43500Y198500D02*
Y203748D01*
X46124Y206371D01*
X48748Y203748D01*
Y198500D01*
Y202436D01*
X43500D01*
X51372Y198500D02*
Y199812D01*
X52683D01*
Y198500D01*
X51372D01*
X57931Y206371D02*
X60555D01*
X59243D01*
Y198500D01*
X57931D01*
X60555D01*
X64491D02*
Y199812D01*
X65803D01*
Y198500D01*
X64491D01*
X78922D02*
Y206371D01*
X82857D01*
X84169Y205060D01*
Y202436D01*
X82857Y201124D01*
X78922D01*
X92041Y205060D02*
X90729Y206371D01*
X88105D01*
X86793Y205060D01*
Y199812D01*
X88105Y198500D01*
X90729D01*
X92041Y199812D01*
X94665Y206371D02*
Y198500D01*
X98600D01*
X99912Y199812D01*
Y201124D01*
X98600Y202436D01*
X94665D01*
X98600D01*
X99912Y203748D01*
Y205060D01*
X98600Y206371D01*
X94665D01*
X43500Y120000D02*
Y125248D01*
X46124Y127872D01*
X48748Y125248D01*
Y120000D01*
Y123936D01*
X43500D01*
X51372Y120000D02*
Y121312D01*
X52683D01*
Y120000D01*
X51372D01*
X57931Y127872D02*
X60555D01*
X59243D01*
Y120000D01*
X57931D01*
X60555D01*
X64491D02*
Y121312D01*
X65803D01*
Y120000D01*
X64491D01*
X78922D02*
Y127872D01*
X82857D01*
X84169Y126560D01*
Y123936D01*
X82857Y122624D01*
X78922D01*
X92041Y126560D02*
X90729Y127872D01*
X88105D01*
X86793Y126560D01*
Y121312D01*
X88105Y120000D01*
X90729D01*
X92041Y121312D01*
X94665Y127872D02*
Y120000D01*
X98600D01*
X99912Y121312D01*
Y122624D01*
X98600Y123936D01*
X94665D01*
X98600D01*
X99912Y125248D01*
Y126560D01*
X98600Y127872D01*
X94665D01*
X43500Y42000D02*
Y47248D01*
X46124Y49872D01*
X48748Y47248D01*
Y42000D01*
Y45936D01*
X43500D01*
X51372Y42000D02*
Y43312D01*
X52683D01*
Y42000D01*
X51372D01*
X57931Y49872D02*
X60555D01*
X59243D01*
Y42000D01*
X57931D01*
X60555D01*
X64491D02*
Y43312D01*
X65803D01*
Y42000D01*
X64491D01*
X78922D02*
Y49872D01*
X82857D01*
X84169Y48560D01*
Y45936D01*
X82857Y44624D01*
X78922D01*
X92041Y48560D02*
X90729Y49872D01*
X88105D01*
X86793Y48560D01*
Y43312D01*
X88105Y42000D01*
X90729D01*
X92041Y43312D01*
X94665Y49872D02*
Y42000D01*
X98600D01*
X99912Y43312D01*
Y44624D01*
X98600Y45936D01*
X94665D01*
X98600D01*
X99912Y47248D01*
Y48560D01*
X98600Y49872D01*
X94665D01*
M02*
