G04 Layer_Physical_Order=1*
G04 Layer_Color=255*
%FSLAX25Y25*%
%MOIN*%
G70*
G01*
G75*
%ADD10C,0.02000*%
%ADD11R,0.05905X0.05905*%
%ADD12C,0.05905*%
%ADD13R,0.05937X0.05937*%
%ADD14C,0.05937*%
%ADD15R,0.06600X0.06600*%
%ADD16C,0.06600*%
%ADD17R,0.07087X0.07087*%
%ADD18C,0.07874*%
%ADD19R,3.93701X0.02362*%
%ADD20C,0.05000*%
D10*
X368500Y383500D02*
X377000Y375000D01*
Y356000D02*
Y375000D01*
X156000Y373500D02*
X165100Y364400D01*
X244600D01*
X254000Y355000D01*
X34500Y326000D02*
X35400Y325100D01*
X107000D01*
X109500Y327600D01*
Y348685D01*
X108000Y350185D02*
X109500Y348685D01*
X104500Y350185D02*
X108000D01*
X248500Y319500D02*
X254000Y325000D01*
X157500Y319500D02*
X248500D01*
X151000Y326000D02*
X157500Y319500D01*
X151000Y326000D02*
Y377500D01*
X152000Y378500D01*
X175000D01*
X180000Y373500D01*
X302100Y330500D02*
Y338200D01*
Y330500D02*
X304000Y328600D01*
Y325000D02*
Y328600D01*
X392000Y331600D02*
Y373500D01*
X380100Y319700D02*
X392000Y331600D01*
X269300Y319700D02*
X380100D01*
X264000Y325000D02*
X269300Y319700D01*
X211100Y355000D02*
X244000D01*
X192000Y335900D02*
X211100Y355000D01*
X171900Y335900D02*
X192000D01*
X162000Y326000D02*
X171900Y335900D01*
X314000Y325000D02*
Y333100D01*
X304400Y342700D02*
X314000Y333100D01*
X208700Y342700D02*
X304400D01*
X192000Y326000D02*
X208700Y342700D01*
X274000Y355000D02*
X274500Y355500D01*
Y373500D01*
X368500Y305000D02*
X377000Y296500D01*
Y277500D02*
Y296500D01*
X156000Y295000D02*
X165100Y285900D01*
X244600D01*
X254000Y276500D01*
X34500Y247500D02*
X35400Y246600D01*
X107000D01*
X109500Y249100D01*
Y270185D01*
X108000Y271685D02*
X109500Y270185D01*
X104500Y271685D02*
X108000D01*
X248500Y241000D02*
X254000Y246500D01*
X157500Y241000D02*
X248500D01*
X151000Y247500D02*
X157500Y241000D01*
X151000Y247500D02*
Y299000D01*
X152000Y300000D01*
X175000D01*
X180000Y295000D01*
X302100Y252000D02*
Y259700D01*
Y252000D02*
X304000Y250100D01*
Y246500D02*
Y250100D01*
X392000Y253100D02*
Y295000D01*
X380100Y241200D02*
X392000Y253100D01*
X269300Y241200D02*
X380100D01*
X264000Y246500D02*
X269300Y241200D01*
X211100Y276500D02*
X244000D01*
X192000Y257400D02*
X211100Y276500D01*
X171900Y257400D02*
X192000D01*
X162000Y247500D02*
X171900Y257400D01*
X314000Y246500D02*
Y254600D01*
X304400Y264200D02*
X314000Y254600D01*
X208700Y264200D02*
X304400D01*
X192000Y247500D02*
X208700Y264200D01*
X274000Y276500D02*
X274500Y277000D01*
Y295000D01*
X368500Y226500D02*
X377000Y218000D01*
Y199000D02*
Y218000D01*
X156000Y216500D02*
X165100Y207400D01*
X244600D01*
X254000Y198000D01*
X34500Y169000D02*
X35400Y168100D01*
X107000D01*
X109500Y170600D01*
Y191685D01*
X108000Y193185D02*
X109500Y191685D01*
X104500Y193185D02*
X108000D01*
X248500Y162500D02*
X254000Y168000D01*
X157500Y162500D02*
X248500D01*
X151000Y169000D02*
X157500Y162500D01*
X151000Y169000D02*
Y220500D01*
X152000Y221500D01*
X175000D01*
X180000Y216500D01*
X302100Y173500D02*
Y181200D01*
Y173500D02*
X304000Y171600D01*
Y168000D02*
Y171600D01*
X392000Y174600D02*
Y216500D01*
X380100Y162700D02*
X392000Y174600D01*
X269300Y162700D02*
X380100D01*
X264000Y168000D02*
X269300Y162700D01*
X211100Y198000D02*
X244000D01*
X192000Y178900D02*
X211100Y198000D01*
X171900Y178900D02*
X192000D01*
X162000Y169000D02*
X171900Y178900D01*
X314000Y168000D02*
Y176100D01*
X304400Y185700D02*
X314000Y176100D01*
X208700Y185700D02*
X304400D01*
X192000Y169000D02*
X208700Y185700D01*
X274000Y198000D02*
X274500Y198500D01*
Y216500D01*
X368500Y148000D02*
X377000Y139500D01*
Y120500D02*
Y139500D01*
X156000Y138000D02*
X165100Y128900D01*
X244600D01*
X254000Y119500D01*
X34500Y90500D02*
X35400Y89600D01*
X107000D01*
X109500Y92100D01*
Y113185D01*
X108000Y114685D02*
X109500Y113185D01*
X104500Y114685D02*
X108000D01*
X248500Y84000D02*
X254000Y89500D01*
X157500Y84000D02*
X248500D01*
X151000Y90500D02*
X157500Y84000D01*
X151000Y90500D02*
Y142000D01*
X152000Y143000D01*
X175000D01*
X180000Y138000D01*
X302100Y95000D02*
Y102700D01*
Y95000D02*
X304000Y93100D01*
Y89500D02*
Y93100D01*
X392000Y96100D02*
Y138000D01*
X380100Y84200D02*
X392000Y96100D01*
X269300Y84200D02*
X380100D01*
X264000Y89500D02*
X269300Y84200D01*
X211100Y119500D02*
X244000D01*
X192000Y100400D02*
X211100Y119500D01*
X171900Y100400D02*
X192000D01*
X162000Y90500D02*
X171900Y100400D01*
X314000Y89500D02*
Y97600D01*
X304400Y107200D02*
X314000Y97600D01*
X208700Y107200D02*
X304400D01*
X192000Y90500D02*
X208700Y107200D01*
X274000Y119500D02*
X274500Y120000D01*
Y138000D01*
X392000Y18100D02*
Y60000D01*
X274500Y42000D02*
Y60000D01*
X274000Y41500D02*
X274500Y42000D01*
X192000Y12500D02*
X208700Y29200D01*
X304400D01*
X314000Y19600D01*
Y11500D02*
Y19600D01*
X162000Y12500D02*
X171900Y22400D01*
X192000D01*
X211100Y41500D01*
X244000D01*
X264000Y11500D02*
X269300Y6200D01*
X380100D01*
X392000Y18100D01*
X304000Y11500D02*
Y15100D01*
X302100Y17000D02*
X304000Y15100D01*
X302100Y17000D02*
Y24700D01*
X175000Y65000D02*
X180000Y60000D01*
X152000Y65000D02*
X175000D01*
X151000Y64000D02*
X152000Y65000D01*
X151000Y12500D02*
Y64000D01*
Y12500D02*
X157500Y6000D01*
X248500D01*
X254000Y11500D01*
X104500Y36685D02*
X108000D01*
X109500Y35185D01*
Y14100D02*
Y35185D01*
X107000Y11600D02*
X109500Y14100D01*
X35400Y11600D02*
X107000D01*
X34500Y12500D02*
X35400Y11600D01*
X244600Y50900D02*
X254000Y41500D01*
X165100Y50900D02*
X244600D01*
X156000Y60000D02*
X165100Y50900D01*
X377000Y42500D02*
Y61500D01*
X368500Y70000D02*
X377000Y61500D01*
D11*
X11500Y373500D02*
D03*
X35500D02*
D03*
X60000D02*
D03*
X84000D02*
D03*
X108000D02*
D03*
X132000D02*
D03*
X156000D02*
D03*
X180000D02*
D03*
X204000D02*
D03*
X227500D02*
D03*
X69500Y330657D02*
D03*
X251000Y373500D02*
D03*
X274500D02*
D03*
X298000D02*
D03*
X321500D02*
D03*
X345000D02*
D03*
X368500D02*
D03*
X392000D02*
D03*
X11500Y295000D02*
D03*
X35500D02*
D03*
X60000D02*
D03*
X84000D02*
D03*
X108000D02*
D03*
X132000D02*
D03*
X156000D02*
D03*
X180000D02*
D03*
X204000D02*
D03*
X227500D02*
D03*
X69500Y252157D02*
D03*
X251000Y295000D02*
D03*
X274500D02*
D03*
X298000D02*
D03*
X321500D02*
D03*
X345000D02*
D03*
X368500D02*
D03*
X392000D02*
D03*
X11500Y216500D02*
D03*
X35500D02*
D03*
X60000D02*
D03*
X84000D02*
D03*
X108000D02*
D03*
X132000D02*
D03*
X156000D02*
D03*
X180000D02*
D03*
X204000D02*
D03*
X227500D02*
D03*
X69500Y173657D02*
D03*
X251000Y216500D02*
D03*
X274500D02*
D03*
X298000D02*
D03*
X321500D02*
D03*
X345000D02*
D03*
X368500D02*
D03*
X392000D02*
D03*
X11500Y138000D02*
D03*
X35500D02*
D03*
X60000D02*
D03*
X84000D02*
D03*
X108000D02*
D03*
X132000D02*
D03*
X156000D02*
D03*
X180000D02*
D03*
X204000D02*
D03*
X227500D02*
D03*
X69500Y95157D02*
D03*
X251000Y138000D02*
D03*
X274500D02*
D03*
X298000D02*
D03*
X321500D02*
D03*
X345000D02*
D03*
X368500D02*
D03*
X392000D02*
D03*
X204000Y60000D02*
D03*
X180000D02*
D03*
X156000D02*
D03*
X132000D02*
D03*
X108000D02*
D03*
X84000D02*
D03*
X60000D02*
D03*
X35500D02*
D03*
X11500D02*
D03*
X392000D02*
D03*
X368500D02*
D03*
X345000D02*
D03*
X321500D02*
D03*
X298000D02*
D03*
X274500D02*
D03*
X251000D02*
D03*
X227500D02*
D03*
X69500Y17157D02*
D03*
D12*
X11500Y383500D02*
D03*
X35500D02*
D03*
X60000D02*
D03*
X84000D02*
D03*
X108000D02*
D03*
X132000D02*
D03*
X156000D02*
D03*
X180000D02*
D03*
X204000D02*
D03*
X34500Y326000D02*
D03*
Y356000D02*
D03*
X227500Y383500D02*
D03*
X69500Y350343D02*
D03*
X251000Y383500D02*
D03*
X274500D02*
D03*
X298000D02*
D03*
X321500D02*
D03*
X345000D02*
D03*
X368500D02*
D03*
X392000D02*
D03*
X377000Y326000D02*
D03*
Y356000D02*
D03*
X11500Y305000D02*
D03*
X35500D02*
D03*
X60000D02*
D03*
X84000D02*
D03*
X108000D02*
D03*
X132000D02*
D03*
X156000D02*
D03*
X180000D02*
D03*
X204000D02*
D03*
X34500Y247500D02*
D03*
Y277500D02*
D03*
X227500Y305000D02*
D03*
X69500Y271843D02*
D03*
X251000Y305000D02*
D03*
X274500D02*
D03*
X298000D02*
D03*
X321500D02*
D03*
X345000D02*
D03*
X368500D02*
D03*
X392000D02*
D03*
X377000Y247500D02*
D03*
Y277500D02*
D03*
X11500Y226500D02*
D03*
X35500D02*
D03*
X60000D02*
D03*
X84000D02*
D03*
X108000D02*
D03*
X132000D02*
D03*
X156000D02*
D03*
X180000D02*
D03*
X204000D02*
D03*
X34500Y169000D02*
D03*
Y199000D02*
D03*
X227500Y226500D02*
D03*
X69500Y193343D02*
D03*
X251000Y226500D02*
D03*
X274500D02*
D03*
X298000D02*
D03*
X321500D02*
D03*
X345000D02*
D03*
X368500D02*
D03*
X392000D02*
D03*
X377000Y169000D02*
D03*
Y199000D02*
D03*
X11500Y148000D02*
D03*
X35500D02*
D03*
X60000D02*
D03*
X84000D02*
D03*
X108000D02*
D03*
X132000D02*
D03*
X156000D02*
D03*
X180000D02*
D03*
X204000D02*
D03*
X34500Y90500D02*
D03*
Y120500D02*
D03*
X227500Y148000D02*
D03*
X69500Y114843D02*
D03*
X251000Y148000D02*
D03*
X274500D02*
D03*
X298000D02*
D03*
X321500D02*
D03*
X345000D02*
D03*
X368500D02*
D03*
X392000D02*
D03*
X377000Y90500D02*
D03*
Y120500D02*
D03*
X204000Y70000D02*
D03*
X180000D02*
D03*
X156000D02*
D03*
X132000D02*
D03*
X108000D02*
D03*
X84000D02*
D03*
X60000D02*
D03*
X35500D02*
D03*
X11500D02*
D03*
X392000D02*
D03*
X368500D02*
D03*
X345000D02*
D03*
X321500D02*
D03*
X298000D02*
D03*
X274500D02*
D03*
X251000D02*
D03*
X227500D02*
D03*
X377000Y12500D02*
D03*
Y42500D02*
D03*
X34500Y12500D02*
D03*
Y42500D02*
D03*
X69500Y36843D02*
D03*
D13*
X104500Y350185D02*
D03*
Y271685D02*
D03*
Y193185D02*
D03*
Y114685D02*
D03*
Y36685D02*
D03*
D14*
X124185Y340343D02*
D03*
X104500Y330500D02*
D03*
X124185Y261843D02*
D03*
X104500Y252000D02*
D03*
X124185Y183343D02*
D03*
X104500Y173500D02*
D03*
X124185Y104843D02*
D03*
X104500Y95000D02*
D03*
X124185Y26843D02*
D03*
X104500Y17000D02*
D03*
D15*
X314000Y355000D02*
D03*
X162000Y326000D02*
D03*
X314000Y276500D02*
D03*
X162000Y247500D02*
D03*
X314000Y198000D02*
D03*
X162000Y169000D02*
D03*
X314000Y119500D02*
D03*
X162000Y90500D02*
D03*
X314000Y41500D02*
D03*
X162000Y12500D02*
D03*
D16*
X304000Y355000D02*
D03*
X294000D02*
D03*
X284000D02*
D03*
X274000D02*
D03*
X264000D02*
D03*
X254000D02*
D03*
X244000D02*
D03*
Y325000D02*
D03*
X254000D02*
D03*
X264000D02*
D03*
X274000D02*
D03*
X284000D02*
D03*
X294000D02*
D03*
X304000D02*
D03*
X314000D02*
D03*
X172000Y326000D02*
D03*
X182000D02*
D03*
X192000D02*
D03*
Y356000D02*
D03*
X182000D02*
D03*
X172000D02*
D03*
X162000D02*
D03*
X304000Y276500D02*
D03*
X294000D02*
D03*
X284000D02*
D03*
X274000D02*
D03*
X264000D02*
D03*
X254000D02*
D03*
X244000D02*
D03*
Y246500D02*
D03*
X254000D02*
D03*
X264000D02*
D03*
X274000D02*
D03*
X284000D02*
D03*
X294000D02*
D03*
X304000D02*
D03*
X314000D02*
D03*
X172000Y247500D02*
D03*
X182000D02*
D03*
X192000D02*
D03*
Y277500D02*
D03*
X182000D02*
D03*
X172000D02*
D03*
X162000D02*
D03*
X304000Y198000D02*
D03*
X294000D02*
D03*
X284000D02*
D03*
X274000D02*
D03*
X264000D02*
D03*
X254000D02*
D03*
X244000D02*
D03*
Y168000D02*
D03*
X254000D02*
D03*
X264000D02*
D03*
X274000D02*
D03*
X284000D02*
D03*
X294000D02*
D03*
X304000D02*
D03*
X314000D02*
D03*
X172000Y169000D02*
D03*
X182000D02*
D03*
X192000D02*
D03*
Y199000D02*
D03*
X182000D02*
D03*
X172000D02*
D03*
X162000D02*
D03*
X304000Y119500D02*
D03*
X294000D02*
D03*
X284000D02*
D03*
X274000D02*
D03*
X264000D02*
D03*
X254000D02*
D03*
X244000D02*
D03*
Y89500D02*
D03*
X254000D02*
D03*
X264000D02*
D03*
X274000D02*
D03*
X284000D02*
D03*
X294000D02*
D03*
X304000D02*
D03*
X314000D02*
D03*
X172000Y90500D02*
D03*
X182000D02*
D03*
X192000D02*
D03*
Y120500D02*
D03*
X182000D02*
D03*
X172000D02*
D03*
X162000D02*
D03*
X304000Y41500D02*
D03*
X294000D02*
D03*
X284000D02*
D03*
X274000D02*
D03*
X264000D02*
D03*
X254000D02*
D03*
X244000D02*
D03*
Y11500D02*
D03*
X254000D02*
D03*
X264000D02*
D03*
X274000D02*
D03*
X284000D02*
D03*
X294000D02*
D03*
X304000D02*
D03*
X314000D02*
D03*
X172000Y12500D02*
D03*
X182000D02*
D03*
X192000D02*
D03*
Y42500D02*
D03*
X182000D02*
D03*
X172000D02*
D03*
X162000D02*
D03*
D17*
X12500Y348000D02*
D03*
Y269500D02*
D03*
Y191000D02*
D03*
Y112500D02*
D03*
Y34500D02*
D03*
D18*
Y338000D02*
D03*
Y259500D02*
D03*
Y181000D02*
D03*
Y102500D02*
D03*
Y24500D02*
D03*
D19*
X201000Y312500D02*
D03*
X201500Y234000D02*
D03*
Y155500D02*
D03*
Y77500D02*
D03*
D20*
X302100Y338200D02*
D03*
Y259700D02*
D03*
Y181200D02*
D03*
Y102700D02*
D03*
Y24700D02*
D03*
M02*
