M48
;Layer_Color=9474304
;FILE_FORMAT=2:5
INCH,LZ
;TYPE=PLATED
T1F00S00C0.02362
T3F00S00C0.02756
T4F00S00C0.03543
%
T01
X03021Y00247
Y01027
Y01812
Y02597
Y03382
T03
X00345Y00125
Y00425
X00695Y0036843
Y0017157
X0162Y00125
X0172
X0182
X0192
Y00425
X0182
X0172
X0162
X0244Y00415
X0254
X0264
X0274
X0284
X0294
X0304
X0314
Y00115
X0304
X0294
X0284
X0274
X0264
X0254
X0244
X0377Y00125
Y00425
X0392Y006
Y007
X0377Y00905
Y01205
X0392Y0138
Y0148
X0377Y0169
Y0199
X03685Y0148
Y0138
X0345
Y0148
X03215
Y0138
X0298
Y0148
X02745
Y0138
X0274Y01195
X0284
X0294
X0304
X0314
Y00895
X0304
X0294
X0284
X0274
X0264
X0254
X0244
X0251Y007
Y006
X02745
Y007
X0298
Y006
X03215
Y007
X0345
Y006
X03685
Y007
X02275
Y006
X0244Y01195
X0254
X0264
X0251Y0138
Y0148
X0254Y0168
X0244
X0264
X0274
X0284
X0294
X0304
X0314
Y0198
X0304
X0294
X0284
X0274
X0264
X0254
X0244
X02275Y0148
Y0138
X0204
Y0148
X018
Y0138
X0182Y01205
X0192
X0172
X0162
X0156Y0138
Y0148
X0132
Y0138
X0108
Y0148
X0084
Y0138
X006
Y0148
X00695Y0173657
Y0193343
Y0114843
Y0095157
X006Y007
Y006
X0084
Y007
X0108
Y006
X0132
Y007
X0156
Y006
X018
Y007
X0182Y00905
X0172
X0162
X0192
X0204Y007
Y006
X0192Y0169
X0182
X0172
X0162
Y0199
X0172
X0182
X0192
X00345
Y0169
X00355Y0148
Y0138
X00345Y01205
Y00905
X00355Y007
Y006
X00115
Y007
Y0138
Y0148
Y02165
Y02265
X00355
Y02165
X00345Y02475
Y02775
X00355Y0295
Y0305
X00345Y0326
Y0356
X00115Y0305
Y0295
X006
Y0305
X0084
Y0295
X0108
Y0305
X0132
Y0295
X0156
Y0305
X018
Y0295
X0182Y02775
X0192
X0172
X0162
Y02475
X0172
X0182
X0192
X018Y02265
Y02165
X0156
Y02265
X0132
Y02165
X0108
Y02265
X0084
Y02165
X006
Y02265
X00695Y0252157
Y0271843
Y0330657
Y0350343
X0162Y0356
X0172
X0182
X0192
Y0326
X0182
X0172
X0162
X0204Y0305
Y0295
Y02265
Y02165
X02275
Y02265
X0251
Y02165
X02745
Y02265
X0274Y02465
X0264
X0254
X0244
Y02765
X0254
X0264
X0274
X0284
X0294
X0304
X0314
X03215Y0295
Y0305
X0298
Y0295
X02745
Y0305
X0274Y0325
X0264
X0254
X0244
X0251Y0305
Y0295
X02275
Y0305
X0244Y0355
X0254
X0264
X0274
X0284
X0294
X0304
X0314
Y0325
X0304
X0294
X0284
Y02465
X0294
X0304
X0314
X03215Y02265
Y02165
X0298
Y02265
X0345
Y02165
X03685
Y02265
Y0295
Y0305
X0345
Y0295
X0392
Y0305
X0377Y0326
Y0356
Y02775
Y02475
X0392Y02265
Y02165
Y03735
Y03835
X03685
Y03735
X0345
Y03835
X03215
Y03735
X0298
Y03835
X02745
Y03735
X0251
Y03835
X02275
Y03735
X0204
Y03835
X018
Y03735
X0156
Y03835
X0132
Y03735
X0108
Y03835
X0084
Y03735
X006
Y03835
X00355
Y03735
X00115
Y03835
T04
X00125Y00245
Y00345
X01045Y0036685
Y0017
X0124185Y0026843
Y0104843
X01045Y0114685
Y0095
Y01735
Y0193185
X0124185Y0183343
X00125Y0181
Y0191
Y01125
Y01025
Y02595
Y02695
Y0338
Y0348
X01045Y0350185
Y03305
X0124185Y0340343
Y0261843
X01045Y0271685
Y0252
M30
