G04 Layer_Color=8388736*
%FSLAX25Y25*%
%MOIN*%
G70*
G01*
G75*
%ADD29R,0.06706X0.06706*%
%ADD30C,0.06706*%
%ADD31R,0.06737X0.06737*%
%ADD32C,0.06737*%
%ADD33R,0.07400X0.07400*%
%ADD34C,0.07400*%
%ADD35R,0.07887X0.07887*%
%ADD36C,0.08674*%
%ADD37R,3.94501X0.03162*%
%ADD38C,0.05800*%
D29*
X11500Y373500D02*
D03*
X35500D02*
D03*
X60000D02*
D03*
X84000D02*
D03*
X108000D02*
D03*
X132000D02*
D03*
X156000D02*
D03*
X180000D02*
D03*
X204000D02*
D03*
X227500D02*
D03*
X69500Y330657D02*
D03*
X251000Y373500D02*
D03*
X274500D02*
D03*
X298000D02*
D03*
X321500D02*
D03*
X345000D02*
D03*
X368500D02*
D03*
X392000D02*
D03*
X11500Y295000D02*
D03*
X35500D02*
D03*
X60000D02*
D03*
X84000D02*
D03*
X108000D02*
D03*
X132000D02*
D03*
X156000D02*
D03*
X180000D02*
D03*
X204000D02*
D03*
X227500D02*
D03*
X69500Y252157D02*
D03*
X251000Y295000D02*
D03*
X274500D02*
D03*
X298000D02*
D03*
X321500D02*
D03*
X345000D02*
D03*
X368500D02*
D03*
X392000D02*
D03*
X11500Y216500D02*
D03*
X35500D02*
D03*
X60000D02*
D03*
X84000D02*
D03*
X108000D02*
D03*
X132000D02*
D03*
X156000D02*
D03*
X180000D02*
D03*
X204000D02*
D03*
X227500D02*
D03*
X69500Y173657D02*
D03*
X251000Y216500D02*
D03*
X274500D02*
D03*
X298000D02*
D03*
X321500D02*
D03*
X345000D02*
D03*
X368500D02*
D03*
X392000D02*
D03*
X11500Y138000D02*
D03*
X35500D02*
D03*
X60000D02*
D03*
X84000D02*
D03*
X108000D02*
D03*
X132000D02*
D03*
X156000D02*
D03*
X180000D02*
D03*
X204000D02*
D03*
X227500D02*
D03*
X69500Y95157D02*
D03*
X251000Y138000D02*
D03*
X274500D02*
D03*
X298000D02*
D03*
X321500D02*
D03*
X345000D02*
D03*
X368500D02*
D03*
X392000D02*
D03*
X204000Y60000D02*
D03*
X180000D02*
D03*
X156000D02*
D03*
X132000D02*
D03*
X108000D02*
D03*
X84000D02*
D03*
X60000D02*
D03*
X35500D02*
D03*
X11500D02*
D03*
X392000D02*
D03*
X368500D02*
D03*
X345000D02*
D03*
X321500D02*
D03*
X298000D02*
D03*
X274500D02*
D03*
X251000D02*
D03*
X227500D02*
D03*
X69500Y17157D02*
D03*
D30*
X11500Y383500D02*
D03*
X35500D02*
D03*
X60000D02*
D03*
X84000D02*
D03*
X108000D02*
D03*
X132000D02*
D03*
X156000D02*
D03*
X180000D02*
D03*
X204000D02*
D03*
X34500Y326000D02*
D03*
Y356000D02*
D03*
X227500Y383500D02*
D03*
X69500Y350343D02*
D03*
X251000Y383500D02*
D03*
X274500D02*
D03*
X298000D02*
D03*
X321500D02*
D03*
X345000D02*
D03*
X368500D02*
D03*
X392000D02*
D03*
X377000Y326000D02*
D03*
Y356000D02*
D03*
X11500Y305000D02*
D03*
X35500D02*
D03*
X60000D02*
D03*
X84000D02*
D03*
X108000D02*
D03*
X132000D02*
D03*
X156000D02*
D03*
X180000D02*
D03*
X204000D02*
D03*
X34500Y247500D02*
D03*
Y277500D02*
D03*
X227500Y305000D02*
D03*
X69500Y271843D02*
D03*
X251000Y305000D02*
D03*
X274500D02*
D03*
X298000D02*
D03*
X321500D02*
D03*
X345000D02*
D03*
X368500D02*
D03*
X392000D02*
D03*
X377000Y247500D02*
D03*
Y277500D02*
D03*
X11500Y226500D02*
D03*
X35500D02*
D03*
X60000D02*
D03*
X84000D02*
D03*
X108000D02*
D03*
X132000D02*
D03*
X156000D02*
D03*
X180000D02*
D03*
X204000D02*
D03*
X34500Y169000D02*
D03*
Y199000D02*
D03*
X227500Y226500D02*
D03*
X69500Y193343D02*
D03*
X251000Y226500D02*
D03*
X274500D02*
D03*
X298000D02*
D03*
X321500D02*
D03*
X345000D02*
D03*
X368500D02*
D03*
X392000D02*
D03*
X377000Y169000D02*
D03*
Y199000D02*
D03*
X11500Y148000D02*
D03*
X35500D02*
D03*
X60000D02*
D03*
X84000D02*
D03*
X108000D02*
D03*
X132000D02*
D03*
X156000D02*
D03*
X180000D02*
D03*
X204000D02*
D03*
X34500Y90500D02*
D03*
Y120500D02*
D03*
X227500Y148000D02*
D03*
X69500Y114843D02*
D03*
X251000Y148000D02*
D03*
X274500D02*
D03*
X298000D02*
D03*
X321500D02*
D03*
X345000D02*
D03*
X368500D02*
D03*
X392000D02*
D03*
X377000Y90500D02*
D03*
Y120500D02*
D03*
X204000Y70000D02*
D03*
X180000D02*
D03*
X156000D02*
D03*
X132000D02*
D03*
X108000D02*
D03*
X84000D02*
D03*
X60000D02*
D03*
X35500D02*
D03*
X11500D02*
D03*
X392000D02*
D03*
X368500D02*
D03*
X345000D02*
D03*
X321500D02*
D03*
X298000D02*
D03*
X274500D02*
D03*
X251000D02*
D03*
X227500D02*
D03*
X377000Y12500D02*
D03*
Y42500D02*
D03*
X34500Y12500D02*
D03*
Y42500D02*
D03*
X69500Y36843D02*
D03*
D31*
X104500Y350185D02*
D03*
Y271685D02*
D03*
Y193185D02*
D03*
Y114685D02*
D03*
Y36685D02*
D03*
D32*
X124185Y340343D02*
D03*
X104500Y330500D02*
D03*
X124185Y261843D02*
D03*
X104500Y252000D02*
D03*
X124185Y183343D02*
D03*
X104500Y173500D02*
D03*
X124185Y104843D02*
D03*
X104500Y95000D02*
D03*
X124185Y26843D02*
D03*
X104500Y17000D02*
D03*
D33*
X314000Y355000D02*
D03*
X162000Y326000D02*
D03*
X314000Y276500D02*
D03*
X162000Y247500D02*
D03*
X314000Y198000D02*
D03*
X162000Y169000D02*
D03*
X314000Y119500D02*
D03*
X162000Y90500D02*
D03*
X314000Y41500D02*
D03*
X162000Y12500D02*
D03*
D34*
X304000Y355000D02*
D03*
X294000D02*
D03*
X284000D02*
D03*
X274000D02*
D03*
X264000D02*
D03*
X254000D02*
D03*
X244000D02*
D03*
Y325000D02*
D03*
X254000D02*
D03*
X264000D02*
D03*
X274000D02*
D03*
X284000D02*
D03*
X294000D02*
D03*
X304000D02*
D03*
X314000D02*
D03*
X172000Y326000D02*
D03*
X182000D02*
D03*
X192000D02*
D03*
Y356000D02*
D03*
X182000D02*
D03*
X172000D02*
D03*
X162000D02*
D03*
X304000Y276500D02*
D03*
X294000D02*
D03*
X284000D02*
D03*
X274000D02*
D03*
X264000D02*
D03*
X254000D02*
D03*
X244000D02*
D03*
Y246500D02*
D03*
X254000D02*
D03*
X264000D02*
D03*
X274000D02*
D03*
X284000D02*
D03*
X294000D02*
D03*
X304000D02*
D03*
X314000D02*
D03*
X172000Y247500D02*
D03*
X182000D02*
D03*
X192000D02*
D03*
Y277500D02*
D03*
X182000D02*
D03*
X172000D02*
D03*
X162000D02*
D03*
X304000Y198000D02*
D03*
X294000D02*
D03*
X284000D02*
D03*
X274000D02*
D03*
X264000D02*
D03*
X254000D02*
D03*
X244000D02*
D03*
Y168000D02*
D03*
X254000D02*
D03*
X264000D02*
D03*
X274000D02*
D03*
X284000D02*
D03*
X294000D02*
D03*
X304000D02*
D03*
X314000D02*
D03*
X172000Y169000D02*
D03*
X182000D02*
D03*
X192000D02*
D03*
Y199000D02*
D03*
X182000D02*
D03*
X172000D02*
D03*
X162000D02*
D03*
X304000Y119500D02*
D03*
X294000D02*
D03*
X284000D02*
D03*
X274000D02*
D03*
X264000D02*
D03*
X254000D02*
D03*
X244000D02*
D03*
Y89500D02*
D03*
X254000D02*
D03*
X264000D02*
D03*
X274000D02*
D03*
X284000D02*
D03*
X294000D02*
D03*
X304000D02*
D03*
X314000D02*
D03*
X172000Y90500D02*
D03*
X182000D02*
D03*
X192000D02*
D03*
Y120500D02*
D03*
X182000D02*
D03*
X172000D02*
D03*
X162000D02*
D03*
X304000Y41500D02*
D03*
X294000D02*
D03*
X284000D02*
D03*
X274000D02*
D03*
X264000D02*
D03*
X254000D02*
D03*
X244000D02*
D03*
Y11500D02*
D03*
X254000D02*
D03*
X264000D02*
D03*
X274000D02*
D03*
X284000D02*
D03*
X294000D02*
D03*
X304000D02*
D03*
X314000D02*
D03*
X172000Y12500D02*
D03*
X182000D02*
D03*
X192000D02*
D03*
Y42500D02*
D03*
X182000D02*
D03*
X172000D02*
D03*
X162000D02*
D03*
D35*
X12500Y348000D02*
D03*
Y269500D02*
D03*
Y191000D02*
D03*
Y112500D02*
D03*
Y34500D02*
D03*
D36*
Y338000D02*
D03*
Y259500D02*
D03*
Y181000D02*
D03*
Y102500D02*
D03*
Y24500D02*
D03*
D37*
X201000Y312500D02*
D03*
X201500Y234000D02*
D03*
Y155500D02*
D03*
Y77500D02*
D03*
D38*
X302100Y338200D02*
D03*
Y259700D02*
D03*
Y181200D02*
D03*
Y102700D02*
D03*
Y24700D02*
D03*
M02*
