G04 Layer_Color=32896*
%FSLAX25Y25*%
%MOIN*%
G70*
G01*
G75*
%ADD22C,0.00787*%
%ADD23C,0.00000*%
%ADD24C,0.00600*%
%ADD25C,0.00500*%
D22*
X104894Y356878D02*
G03*
X104894Y356878I-394J0D01*
G01*
D02*
G03*
X104894Y356878I-394J0D01*
G01*
Y278378D02*
G03*
X104894Y278378I-394J0D01*
G01*
D02*
G03*
X104894Y278378I-394J0D01*
G01*
Y199878D02*
G03*
X104894Y199878I-394J0D01*
G01*
D02*
G03*
X104894Y199878I-394J0D01*
G01*
Y121378D02*
G03*
X104894Y121378I-394J0D01*
G01*
D02*
G03*
X104894Y121378I-394J0D01*
G01*
Y43378D02*
G03*
X104894Y43378I-394J0D01*
G01*
D02*
G03*
X104894Y43378I-394J0D01*
G01*
D23*
X317800Y341200D02*
G03*
X317800Y338800I0J-1200D01*
G01*
Y341200D02*
G03*
X317800Y338800I0J-1200D01*
G01*
X157000Y339800D02*
G03*
X157000Y342200I0J1200D01*
G01*
Y339800D02*
G03*
X157000Y342200I0J1200D01*
G01*
X317800Y262700D02*
G03*
X317800Y260300I0J-1200D01*
G01*
Y262700D02*
G03*
X317800Y260300I0J-1200D01*
G01*
X157000Y261300D02*
G03*
X157000Y263700I0J1200D01*
G01*
Y261300D02*
G03*
X157000Y263700I0J1200D01*
G01*
X317800Y184200D02*
G03*
X317800Y181800I0J-1200D01*
G01*
Y184200D02*
G03*
X317800Y181800I0J-1200D01*
G01*
X157000Y182800D02*
G03*
X157000Y185200I0J1200D01*
G01*
Y182800D02*
G03*
X157000Y185200I0J1200D01*
G01*
X317800Y105700D02*
G03*
X317800Y103300I0J-1200D01*
G01*
Y105700D02*
G03*
X317800Y103300I0J-1200D01*
G01*
X157000Y104300D02*
G03*
X157000Y106700I0J1200D01*
G01*
Y104300D02*
G03*
X157000Y106700I0J1200D01*
G01*
X317800Y27700D02*
G03*
X317800Y25300I0J-1200D01*
G01*
Y27700D02*
G03*
X317800Y25300I0J-1200D01*
G01*
X157000Y26300D02*
G03*
X157000Y28700I0J1200D01*
G01*
Y26300D02*
G03*
X157000Y28700I0J1200D01*
G01*
X159800Y327000D02*
X164200D01*
X159800Y323800D02*
Y327000D01*
Y323800D02*
X164200D01*
Y327000D01*
X169800D02*
X174200D01*
X169800Y323800D02*
Y327000D01*
Y323800D02*
X174200D01*
Y327000D01*
X179800D02*
X184200D01*
X179800Y323800D02*
Y327000D01*
Y323800D02*
X184200D01*
Y327000D01*
X189800D02*
X194200D01*
X189800Y323800D02*
Y327000D01*
Y323800D02*
X194200D01*
Y327000D01*
X189800Y355000D02*
X194200D01*
Y358200D01*
X189800D02*
X194200D01*
X189800Y355000D02*
Y358200D01*
X179800Y355000D02*
X184200D01*
Y358200D01*
X179800D02*
X184200D01*
X179800Y355000D02*
Y358200D01*
X169800Y355000D02*
X174200D01*
Y358200D01*
X169800D02*
X174200D01*
X169800Y355000D02*
Y358200D01*
X159800Y355000D02*
X164200D01*
Y358200D01*
X159800D02*
X164200D01*
X159800Y355000D02*
Y358200D01*
X197000Y327000D02*
Y355000D01*
X157000D02*
X197000D01*
X157000Y342200D02*
Y355000D01*
Y339800D02*
Y342200D01*
Y327000D02*
Y339800D01*
Y327000D02*
X197000D01*
X159800D02*
X164200D01*
X159800Y323800D02*
Y327000D01*
Y323800D02*
X164200D01*
Y327000D01*
X169800D02*
X174200D01*
X169800Y323800D02*
Y327000D01*
Y323800D02*
X174200D01*
Y327000D01*
X179800D02*
X184200D01*
X179800Y323800D02*
Y327000D01*
Y323800D02*
X184200D01*
Y327000D01*
X189800D02*
X194200D01*
X189800Y323800D02*
Y327000D01*
Y323800D02*
X194200D01*
Y327000D01*
X189800Y355000D02*
X194200D01*
Y358200D01*
X189800D02*
X194200D01*
X189800Y355000D02*
Y358200D01*
X179800Y355000D02*
X184200D01*
Y358200D01*
X179800D02*
X184200D01*
X179800Y355000D02*
Y358200D01*
X169800Y355000D02*
X174200D01*
Y358200D01*
X169800D02*
X174200D01*
X169800Y355000D02*
Y358200D01*
X159800Y355000D02*
X164200D01*
Y358200D01*
X159800D02*
X164200D01*
X159800Y355000D02*
Y358200D01*
X197000Y327000D02*
Y355000D01*
X157000D02*
X197000D01*
X157000Y342200D02*
Y355000D01*
Y339800D02*
Y342200D01*
Y327000D02*
Y339800D01*
Y327000D02*
X197000D01*
X159800Y248500D02*
X164200D01*
X159800Y245300D02*
Y248500D01*
Y245300D02*
X164200D01*
Y248500D01*
X169800D02*
X174200D01*
X169800Y245300D02*
Y248500D01*
Y245300D02*
X174200D01*
Y248500D01*
X179800D02*
X184200D01*
X179800Y245300D02*
Y248500D01*
Y245300D02*
X184200D01*
Y248500D01*
X189800D02*
X194200D01*
X189800Y245300D02*
Y248500D01*
Y245300D02*
X194200D01*
Y248500D01*
X189800Y276500D02*
X194200D01*
Y279700D01*
X189800D02*
X194200D01*
X189800Y276500D02*
Y279700D01*
X179800Y276500D02*
X184200D01*
Y279700D01*
X179800D02*
X184200D01*
X179800Y276500D02*
Y279700D01*
X169800Y276500D02*
X174200D01*
Y279700D01*
X169800D02*
X174200D01*
X169800Y276500D02*
Y279700D01*
X159800Y276500D02*
X164200D01*
Y279700D01*
X159800D02*
X164200D01*
X159800Y276500D02*
Y279700D01*
X197000Y248500D02*
Y276500D01*
X157000D02*
X197000D01*
X157000Y263700D02*
Y276500D01*
Y261300D02*
Y263700D01*
Y248500D02*
Y261300D01*
Y248500D02*
X197000D01*
X159800D02*
X164200D01*
X159800Y245300D02*
Y248500D01*
Y245300D02*
X164200D01*
Y248500D01*
X169800D02*
X174200D01*
X169800Y245300D02*
Y248500D01*
Y245300D02*
X174200D01*
Y248500D01*
X179800D02*
X184200D01*
X179800Y245300D02*
Y248500D01*
Y245300D02*
X184200D01*
Y248500D01*
X189800D02*
X194200D01*
X189800Y245300D02*
Y248500D01*
Y245300D02*
X194200D01*
Y248500D01*
X189800Y276500D02*
X194200D01*
Y279700D01*
X189800D02*
X194200D01*
X189800Y276500D02*
Y279700D01*
X179800Y276500D02*
X184200D01*
Y279700D01*
X179800D02*
X184200D01*
X179800Y276500D02*
Y279700D01*
X169800Y276500D02*
X174200D01*
Y279700D01*
X169800D02*
X174200D01*
X169800Y276500D02*
Y279700D01*
X159800Y276500D02*
X164200D01*
Y279700D01*
X159800D02*
X164200D01*
X159800Y276500D02*
Y279700D01*
X197000Y248500D02*
Y276500D01*
X157000D02*
X197000D01*
X157000Y263700D02*
Y276500D01*
Y261300D02*
Y263700D01*
Y248500D02*
Y261300D01*
Y248500D02*
X197000D01*
X159800Y170000D02*
X164200D01*
X159800Y166800D02*
Y170000D01*
Y166800D02*
X164200D01*
Y170000D01*
X169800D02*
X174200D01*
X169800Y166800D02*
Y170000D01*
Y166800D02*
X174200D01*
Y170000D01*
X179800D02*
X184200D01*
X179800Y166800D02*
Y170000D01*
Y166800D02*
X184200D01*
Y170000D01*
X189800D02*
X194200D01*
X189800Y166800D02*
Y170000D01*
Y166800D02*
X194200D01*
Y170000D01*
X189800Y198000D02*
X194200D01*
Y201200D01*
X189800D02*
X194200D01*
X189800Y198000D02*
Y201200D01*
X179800Y198000D02*
X184200D01*
Y201200D01*
X179800D02*
X184200D01*
X179800Y198000D02*
Y201200D01*
X169800Y198000D02*
X174200D01*
Y201200D01*
X169800D02*
X174200D01*
X169800Y198000D02*
Y201200D01*
X159800Y198000D02*
X164200D01*
Y201200D01*
X159800D02*
X164200D01*
X159800Y198000D02*
Y201200D01*
X197000Y170000D02*
Y198000D01*
X157000D02*
X197000D01*
X157000Y185200D02*
Y198000D01*
Y182800D02*
Y185200D01*
Y170000D02*
Y182800D01*
Y170000D02*
X197000D01*
X159800D02*
X164200D01*
X159800Y166800D02*
Y170000D01*
Y166800D02*
X164200D01*
Y170000D01*
X169800D02*
X174200D01*
X169800Y166800D02*
Y170000D01*
Y166800D02*
X174200D01*
Y170000D01*
X179800D02*
X184200D01*
X179800Y166800D02*
Y170000D01*
Y166800D02*
X184200D01*
Y170000D01*
X189800D02*
X194200D01*
X189800Y166800D02*
Y170000D01*
Y166800D02*
X194200D01*
Y170000D01*
X189800Y198000D02*
X194200D01*
Y201200D01*
X189800D02*
X194200D01*
X189800Y198000D02*
Y201200D01*
X179800Y198000D02*
X184200D01*
Y201200D01*
X179800D02*
X184200D01*
X179800Y198000D02*
Y201200D01*
X169800Y198000D02*
X174200D01*
Y201200D01*
X169800D02*
X174200D01*
X169800Y198000D02*
Y201200D01*
X159800Y198000D02*
X164200D01*
Y201200D01*
X159800D02*
X164200D01*
X159800Y198000D02*
Y201200D01*
X197000Y170000D02*
Y198000D01*
X157000D02*
X197000D01*
X157000Y185200D02*
Y198000D01*
Y182800D02*
Y185200D01*
Y170000D02*
Y182800D01*
Y170000D02*
X197000D01*
X159800Y91500D02*
X164200D01*
X159800Y88300D02*
Y91500D01*
Y88300D02*
X164200D01*
Y91500D01*
X169800D02*
X174200D01*
X169800Y88300D02*
Y91500D01*
Y88300D02*
X174200D01*
Y91500D01*
X179800D02*
X184200D01*
X179800Y88300D02*
Y91500D01*
Y88300D02*
X184200D01*
Y91500D01*
X189800D02*
X194200D01*
X189800Y88300D02*
Y91500D01*
Y88300D02*
X194200D01*
Y91500D01*
X189800Y119500D02*
X194200D01*
Y122700D01*
X189800D02*
X194200D01*
X189800Y119500D02*
Y122700D01*
X179800Y119500D02*
X184200D01*
Y122700D01*
X179800D02*
X184200D01*
X179800Y119500D02*
Y122700D01*
X169800Y119500D02*
X174200D01*
Y122700D01*
X169800D02*
X174200D01*
X169800Y119500D02*
Y122700D01*
X159800Y119500D02*
X164200D01*
Y122700D01*
X159800D02*
X164200D01*
X159800Y119500D02*
Y122700D01*
X197000Y91500D02*
Y119500D01*
X157000D02*
X197000D01*
X157000Y106700D02*
Y119500D01*
Y104300D02*
Y106700D01*
Y91500D02*
Y104300D01*
Y91500D02*
X197000D01*
X159800D02*
X164200D01*
X159800Y88300D02*
Y91500D01*
Y88300D02*
X164200D01*
Y91500D01*
X169800D02*
X174200D01*
X169800Y88300D02*
Y91500D01*
Y88300D02*
X174200D01*
Y91500D01*
X179800D02*
X184200D01*
X179800Y88300D02*
Y91500D01*
Y88300D02*
X184200D01*
Y91500D01*
X189800D02*
X194200D01*
X189800Y88300D02*
Y91500D01*
Y88300D02*
X194200D01*
Y91500D01*
X189800Y119500D02*
X194200D01*
Y122700D01*
X189800D02*
X194200D01*
X189800Y119500D02*
Y122700D01*
X179800Y119500D02*
X184200D01*
Y122700D01*
X179800D02*
X184200D01*
X179800Y119500D02*
Y122700D01*
X169800Y119500D02*
X174200D01*
Y122700D01*
X169800D02*
X174200D01*
X169800Y119500D02*
Y122700D01*
X159800Y119500D02*
X164200D01*
Y122700D01*
X159800D02*
X164200D01*
X159800Y119500D02*
Y122700D01*
X197000Y91500D02*
Y119500D01*
X157000D02*
X197000D01*
X157000Y106700D02*
Y119500D01*
Y104300D02*
Y106700D01*
Y91500D02*
Y104300D01*
Y91500D02*
X197000D01*
X159800Y13500D02*
X164200D01*
X159800Y10300D02*
Y13500D01*
Y10300D02*
X164200D01*
Y13500D01*
X169800D02*
X174200D01*
X169800Y10300D02*
Y13500D01*
Y10300D02*
X174200D01*
Y13500D01*
X179800D02*
X184200D01*
X179800Y10300D02*
Y13500D01*
Y10300D02*
X184200D01*
Y13500D01*
X189800D02*
X194200D01*
X189800Y10300D02*
Y13500D01*
Y10300D02*
X194200D01*
Y13500D01*
X189800Y41500D02*
X194200D01*
Y44700D01*
X189800D02*
X194200D01*
X189800Y41500D02*
Y44700D01*
X179800Y41500D02*
X184200D01*
Y44700D01*
X179800D02*
X184200D01*
X179800Y41500D02*
Y44700D01*
X169800Y41500D02*
X174200D01*
Y44700D01*
X169800D02*
X174200D01*
X169800Y41500D02*
Y44700D01*
X159800Y41500D02*
X164200D01*
Y44700D01*
X159800D02*
X164200D01*
X159800Y41500D02*
Y44700D01*
X197000Y13500D02*
Y41500D01*
X157000D02*
X197000D01*
X157000Y28700D02*
Y41500D01*
Y26300D02*
Y28700D01*
Y13500D02*
Y26300D01*
Y13500D02*
X197000D01*
X159800D02*
X164200D01*
X159800Y10300D02*
Y13500D01*
Y10300D02*
X164200D01*
Y13500D01*
X169800D02*
X174200D01*
X169800Y10300D02*
Y13500D01*
Y10300D02*
X174200D01*
Y13500D01*
X179800D02*
X184200D01*
X179800Y10300D02*
Y13500D01*
Y10300D02*
X184200D01*
Y13500D01*
X189800D02*
X194200D01*
X189800Y10300D02*
Y13500D01*
Y10300D02*
X194200D01*
Y13500D01*
X189800Y41500D02*
X194200D01*
Y44700D01*
X189800D02*
X194200D01*
X189800Y41500D02*
Y44700D01*
X179800Y41500D02*
X184200D01*
Y44700D01*
X179800D02*
X184200D01*
X179800Y41500D02*
Y44700D01*
X169800Y41500D02*
X174200D01*
Y44700D01*
X169800D02*
X174200D01*
X169800Y41500D02*
Y44700D01*
X159800Y41500D02*
X164200D01*
Y44700D01*
X159800D02*
X164200D01*
X159800Y41500D02*
Y44700D01*
X197000Y13500D02*
Y41500D01*
X157000D02*
X197000D01*
X157000Y28700D02*
Y41500D01*
Y26300D02*
Y28700D01*
Y13500D02*
Y26300D01*
Y13500D02*
X197000D01*
D24*
X311800Y353000D02*
X316200D01*
Y357200D01*
X311800D02*
X316200D01*
X311800Y353000D02*
Y357200D01*
X301800Y353000D02*
X306200D01*
Y357200D01*
X301800D02*
X306200D01*
X301800Y353000D02*
Y357200D01*
X291800Y353000D02*
X296200D01*
Y357200D01*
X291800D02*
X296200D01*
X291800Y353000D02*
Y357200D01*
X281800Y353000D02*
X286200D01*
Y357200D01*
X281800D02*
X286200D01*
X281800Y353000D02*
Y357200D01*
X271800Y353000D02*
X276200D01*
Y357200D01*
X271800D02*
X276200D01*
X271800Y353000D02*
Y357200D01*
X261800Y353000D02*
X266200D01*
Y357200D01*
X261800D02*
X266200D01*
X261800Y353000D02*
Y357200D01*
X251800Y353000D02*
X256200D01*
Y357200D01*
X251800D02*
X256200D01*
X251800Y353000D02*
Y357200D01*
X241800Y353000D02*
X246200D01*
Y357200D01*
X241800D02*
X246200D01*
X241800Y353000D02*
Y357200D01*
Y327000D02*
X246200D01*
X241800Y322800D02*
Y327000D01*
Y322800D02*
X246200D01*
Y327000D01*
X251800D02*
X256200D01*
X251800Y322800D02*
Y327000D01*
Y322800D02*
X256200D01*
Y327000D01*
X261800D02*
X266200D01*
X261800Y322800D02*
Y327000D01*
Y322800D02*
X266200D01*
Y327000D01*
X271800D02*
X276200D01*
X271800Y322800D02*
Y327000D01*
Y322800D02*
X276200D01*
Y327000D01*
X281800D02*
X286200D01*
X281800Y322800D02*
Y327000D01*
Y322800D02*
X286200D01*
Y327000D01*
X291800D02*
X296200D01*
X291800Y322800D02*
Y327000D01*
Y322800D02*
X296200D01*
Y327000D01*
X301800D02*
X306200D01*
X301800Y322800D02*
Y327000D01*
Y322800D02*
X306200D01*
Y327000D01*
X311800D02*
X316200D01*
X311800Y322800D02*
Y327000D01*
Y322800D02*
X316200D01*
Y327000D01*
X240200D02*
Y353000D01*
Y327000D02*
X317800D01*
Y338800D01*
Y341200D01*
Y353000D01*
X240200D02*
X317800D01*
X311800D02*
X316200D01*
Y357200D01*
X311800D02*
X316200D01*
X311800Y353000D02*
Y357200D01*
X301800Y353000D02*
X306200D01*
Y357200D01*
X301800D02*
X306200D01*
X301800Y353000D02*
Y357200D01*
X291800Y353000D02*
X296200D01*
Y357200D01*
X291800D02*
X296200D01*
X291800Y353000D02*
Y357200D01*
X281800Y353000D02*
X286200D01*
Y357200D01*
X281800D02*
X286200D01*
X281800Y353000D02*
Y357200D01*
X271800Y353000D02*
X276200D01*
Y357200D01*
X271800D02*
X276200D01*
X271800Y353000D02*
Y357200D01*
X261800Y353000D02*
X266200D01*
Y357200D01*
X261800D02*
X266200D01*
X261800Y353000D02*
Y357200D01*
X251800Y353000D02*
X256200D01*
Y357200D01*
X251800D02*
X256200D01*
X251800Y353000D02*
Y357200D01*
X241800Y353000D02*
X246200D01*
Y357200D01*
X241800D02*
X246200D01*
X241800Y353000D02*
Y357200D01*
Y327000D02*
X246200D01*
X241800Y322800D02*
Y327000D01*
Y322800D02*
X246200D01*
Y327000D01*
X251800D02*
X256200D01*
X251800Y322800D02*
Y327000D01*
Y322800D02*
X256200D01*
Y327000D01*
X261800D02*
X266200D01*
X261800Y322800D02*
Y327000D01*
Y322800D02*
X266200D01*
Y327000D01*
X271800D02*
X276200D01*
X271800Y322800D02*
Y327000D01*
Y322800D02*
X276200D01*
Y327000D01*
X281800D02*
X286200D01*
X281800Y322800D02*
Y327000D01*
Y322800D02*
X286200D01*
Y327000D01*
X291800D02*
X296200D01*
X291800Y322800D02*
Y327000D01*
Y322800D02*
X296200D01*
Y327000D01*
X301800D02*
X306200D01*
X301800Y322800D02*
Y327000D01*
Y322800D02*
X306200D01*
Y327000D01*
X311800D02*
X316200D01*
X311800Y322800D02*
Y327000D01*
Y322800D02*
X316200D01*
Y327000D01*
X240200D02*
Y353000D01*
Y327000D02*
X317800D01*
Y338800D01*
Y341200D01*
Y353000D01*
X240200D02*
X317800D01*
X311800Y274500D02*
X316200D01*
Y278700D01*
X311800D02*
X316200D01*
X311800Y274500D02*
Y278700D01*
X301800Y274500D02*
X306200D01*
Y278700D01*
X301800D02*
X306200D01*
X301800Y274500D02*
Y278700D01*
X291800Y274500D02*
X296200D01*
Y278700D01*
X291800D02*
X296200D01*
X291800Y274500D02*
Y278700D01*
X281800Y274500D02*
X286200D01*
Y278700D01*
X281800D02*
X286200D01*
X281800Y274500D02*
Y278700D01*
X271800Y274500D02*
X276200D01*
Y278700D01*
X271800D02*
X276200D01*
X271800Y274500D02*
Y278700D01*
X261800Y274500D02*
X266200D01*
Y278700D01*
X261800D02*
X266200D01*
X261800Y274500D02*
Y278700D01*
X251800Y274500D02*
X256200D01*
Y278700D01*
X251800D02*
X256200D01*
X251800Y274500D02*
Y278700D01*
X241800Y274500D02*
X246200D01*
Y278700D01*
X241800D02*
X246200D01*
X241800Y274500D02*
Y278700D01*
Y248500D02*
X246200D01*
X241800Y244300D02*
Y248500D01*
Y244300D02*
X246200D01*
Y248500D01*
X251800D02*
X256200D01*
X251800Y244300D02*
Y248500D01*
Y244300D02*
X256200D01*
Y248500D01*
X261800D02*
X266200D01*
X261800Y244300D02*
Y248500D01*
Y244300D02*
X266200D01*
Y248500D01*
X271800D02*
X276200D01*
X271800Y244300D02*
Y248500D01*
Y244300D02*
X276200D01*
Y248500D01*
X281800D02*
X286200D01*
X281800Y244300D02*
Y248500D01*
Y244300D02*
X286200D01*
Y248500D01*
X291800D02*
X296200D01*
X291800Y244300D02*
Y248500D01*
Y244300D02*
X296200D01*
Y248500D01*
X301800D02*
X306200D01*
X301800Y244300D02*
Y248500D01*
Y244300D02*
X306200D01*
Y248500D01*
X311800D02*
X316200D01*
X311800Y244300D02*
Y248500D01*
Y244300D02*
X316200D01*
Y248500D01*
X240200D02*
Y274500D01*
Y248500D02*
X317800D01*
Y260300D01*
Y262700D01*
Y274500D01*
X240200D02*
X317800D01*
X311800D02*
X316200D01*
Y278700D01*
X311800D02*
X316200D01*
X311800Y274500D02*
Y278700D01*
X301800Y274500D02*
X306200D01*
Y278700D01*
X301800D02*
X306200D01*
X301800Y274500D02*
Y278700D01*
X291800Y274500D02*
X296200D01*
Y278700D01*
X291800D02*
X296200D01*
X291800Y274500D02*
Y278700D01*
X281800Y274500D02*
X286200D01*
Y278700D01*
X281800D02*
X286200D01*
X281800Y274500D02*
Y278700D01*
X271800Y274500D02*
X276200D01*
Y278700D01*
X271800D02*
X276200D01*
X271800Y274500D02*
Y278700D01*
X261800Y274500D02*
X266200D01*
Y278700D01*
X261800D02*
X266200D01*
X261800Y274500D02*
Y278700D01*
X251800Y274500D02*
X256200D01*
Y278700D01*
X251800D02*
X256200D01*
X251800Y274500D02*
Y278700D01*
X241800Y274500D02*
X246200D01*
Y278700D01*
X241800D02*
X246200D01*
X241800Y274500D02*
Y278700D01*
Y248500D02*
X246200D01*
X241800Y244300D02*
Y248500D01*
Y244300D02*
X246200D01*
Y248500D01*
X251800D02*
X256200D01*
X251800Y244300D02*
Y248500D01*
Y244300D02*
X256200D01*
Y248500D01*
X261800D02*
X266200D01*
X261800Y244300D02*
Y248500D01*
Y244300D02*
X266200D01*
Y248500D01*
X271800D02*
X276200D01*
X271800Y244300D02*
Y248500D01*
Y244300D02*
X276200D01*
Y248500D01*
X281800D02*
X286200D01*
X281800Y244300D02*
Y248500D01*
Y244300D02*
X286200D01*
Y248500D01*
X291800D02*
X296200D01*
X291800Y244300D02*
Y248500D01*
Y244300D02*
X296200D01*
Y248500D01*
X301800D02*
X306200D01*
X301800Y244300D02*
Y248500D01*
Y244300D02*
X306200D01*
Y248500D01*
X311800D02*
X316200D01*
X311800Y244300D02*
Y248500D01*
Y244300D02*
X316200D01*
Y248500D01*
X240200D02*
Y274500D01*
Y248500D02*
X317800D01*
Y260300D01*
Y262700D01*
Y274500D01*
X240200D02*
X317800D01*
X311800Y196000D02*
X316200D01*
Y200200D01*
X311800D02*
X316200D01*
X311800Y196000D02*
Y200200D01*
X301800Y196000D02*
X306200D01*
Y200200D01*
X301800D02*
X306200D01*
X301800Y196000D02*
Y200200D01*
X291800Y196000D02*
X296200D01*
Y200200D01*
X291800D02*
X296200D01*
X291800Y196000D02*
Y200200D01*
X281800Y196000D02*
X286200D01*
Y200200D01*
X281800D02*
X286200D01*
X281800Y196000D02*
Y200200D01*
X271800Y196000D02*
X276200D01*
Y200200D01*
X271800D02*
X276200D01*
X271800Y196000D02*
Y200200D01*
X261800Y196000D02*
X266200D01*
Y200200D01*
X261800D02*
X266200D01*
X261800Y196000D02*
Y200200D01*
X251800Y196000D02*
X256200D01*
Y200200D01*
X251800D02*
X256200D01*
X251800Y196000D02*
Y200200D01*
X241800Y196000D02*
X246200D01*
Y200200D01*
X241800D02*
X246200D01*
X241800Y196000D02*
Y200200D01*
Y170000D02*
X246200D01*
X241800Y165800D02*
Y170000D01*
Y165800D02*
X246200D01*
Y170000D01*
X251800D02*
X256200D01*
X251800Y165800D02*
Y170000D01*
Y165800D02*
X256200D01*
Y170000D01*
X261800D02*
X266200D01*
X261800Y165800D02*
Y170000D01*
Y165800D02*
X266200D01*
Y170000D01*
X271800D02*
X276200D01*
X271800Y165800D02*
Y170000D01*
Y165800D02*
X276200D01*
Y170000D01*
X281800D02*
X286200D01*
X281800Y165800D02*
Y170000D01*
Y165800D02*
X286200D01*
Y170000D01*
X291800D02*
X296200D01*
X291800Y165800D02*
Y170000D01*
Y165800D02*
X296200D01*
Y170000D01*
X301800D02*
X306200D01*
X301800Y165800D02*
Y170000D01*
Y165800D02*
X306200D01*
Y170000D01*
X311800D02*
X316200D01*
X311800Y165800D02*
Y170000D01*
Y165800D02*
X316200D01*
Y170000D01*
X240200D02*
Y196000D01*
Y170000D02*
X317800D01*
Y181800D01*
Y184200D01*
Y196000D01*
X240200D02*
X317800D01*
X311800D02*
X316200D01*
Y200200D01*
X311800D02*
X316200D01*
X311800Y196000D02*
Y200200D01*
X301800Y196000D02*
X306200D01*
Y200200D01*
X301800D02*
X306200D01*
X301800Y196000D02*
Y200200D01*
X291800Y196000D02*
X296200D01*
Y200200D01*
X291800D02*
X296200D01*
X291800Y196000D02*
Y200200D01*
X281800Y196000D02*
X286200D01*
Y200200D01*
X281800D02*
X286200D01*
X281800Y196000D02*
Y200200D01*
X271800Y196000D02*
X276200D01*
Y200200D01*
X271800D02*
X276200D01*
X271800Y196000D02*
Y200200D01*
X261800Y196000D02*
X266200D01*
Y200200D01*
X261800D02*
X266200D01*
X261800Y196000D02*
Y200200D01*
X251800Y196000D02*
X256200D01*
Y200200D01*
X251800D02*
X256200D01*
X251800Y196000D02*
Y200200D01*
X241800Y196000D02*
X246200D01*
Y200200D01*
X241800D02*
X246200D01*
X241800Y196000D02*
Y200200D01*
Y170000D02*
X246200D01*
X241800Y165800D02*
Y170000D01*
Y165800D02*
X246200D01*
Y170000D01*
X251800D02*
X256200D01*
X251800Y165800D02*
Y170000D01*
Y165800D02*
X256200D01*
Y170000D01*
X261800D02*
X266200D01*
X261800Y165800D02*
Y170000D01*
Y165800D02*
X266200D01*
Y170000D01*
X271800D02*
X276200D01*
X271800Y165800D02*
Y170000D01*
Y165800D02*
X276200D01*
Y170000D01*
X281800D02*
X286200D01*
X281800Y165800D02*
Y170000D01*
Y165800D02*
X286200D01*
Y170000D01*
X291800D02*
X296200D01*
X291800Y165800D02*
Y170000D01*
Y165800D02*
X296200D01*
Y170000D01*
X301800D02*
X306200D01*
X301800Y165800D02*
Y170000D01*
Y165800D02*
X306200D01*
Y170000D01*
X311800D02*
X316200D01*
X311800Y165800D02*
Y170000D01*
Y165800D02*
X316200D01*
Y170000D01*
X240200D02*
Y196000D01*
Y170000D02*
X317800D01*
Y181800D01*
Y184200D01*
Y196000D01*
X240200D02*
X317800D01*
X311800Y117500D02*
X316200D01*
Y121700D01*
X311800D02*
X316200D01*
X311800Y117500D02*
Y121700D01*
X301800Y117500D02*
X306200D01*
Y121700D01*
X301800D02*
X306200D01*
X301800Y117500D02*
Y121700D01*
X291800Y117500D02*
X296200D01*
Y121700D01*
X291800D02*
X296200D01*
X291800Y117500D02*
Y121700D01*
X281800Y117500D02*
X286200D01*
Y121700D01*
X281800D02*
X286200D01*
X281800Y117500D02*
Y121700D01*
X271800Y117500D02*
X276200D01*
Y121700D01*
X271800D02*
X276200D01*
X271800Y117500D02*
Y121700D01*
X261800Y117500D02*
X266200D01*
Y121700D01*
X261800D02*
X266200D01*
X261800Y117500D02*
Y121700D01*
X251800Y117500D02*
X256200D01*
Y121700D01*
X251800D02*
X256200D01*
X251800Y117500D02*
Y121700D01*
X241800Y117500D02*
X246200D01*
Y121700D01*
X241800D02*
X246200D01*
X241800Y117500D02*
Y121700D01*
Y91500D02*
X246200D01*
X241800Y87300D02*
Y91500D01*
Y87300D02*
X246200D01*
Y91500D01*
X251800D02*
X256200D01*
X251800Y87300D02*
Y91500D01*
Y87300D02*
X256200D01*
Y91500D01*
X261800D02*
X266200D01*
X261800Y87300D02*
Y91500D01*
Y87300D02*
X266200D01*
Y91500D01*
X271800D02*
X276200D01*
X271800Y87300D02*
Y91500D01*
Y87300D02*
X276200D01*
Y91500D01*
X281800D02*
X286200D01*
X281800Y87300D02*
Y91500D01*
Y87300D02*
X286200D01*
Y91500D01*
X291800D02*
X296200D01*
X291800Y87300D02*
Y91500D01*
Y87300D02*
X296200D01*
Y91500D01*
X301800D02*
X306200D01*
X301800Y87300D02*
Y91500D01*
Y87300D02*
X306200D01*
Y91500D01*
X311800D02*
X316200D01*
X311800Y87300D02*
Y91500D01*
Y87300D02*
X316200D01*
Y91500D01*
X240200D02*
Y117500D01*
Y91500D02*
X317800D01*
Y103300D01*
Y105700D01*
Y117500D01*
X240200D02*
X317800D01*
X311800D02*
X316200D01*
Y121700D01*
X311800D02*
X316200D01*
X311800Y117500D02*
Y121700D01*
X301800Y117500D02*
X306200D01*
Y121700D01*
X301800D02*
X306200D01*
X301800Y117500D02*
Y121700D01*
X291800Y117500D02*
X296200D01*
Y121700D01*
X291800D02*
X296200D01*
X291800Y117500D02*
Y121700D01*
X281800Y117500D02*
X286200D01*
Y121700D01*
X281800D02*
X286200D01*
X281800Y117500D02*
Y121700D01*
X271800Y117500D02*
X276200D01*
Y121700D01*
X271800D02*
X276200D01*
X271800Y117500D02*
Y121700D01*
X261800Y117500D02*
X266200D01*
Y121700D01*
X261800D02*
X266200D01*
X261800Y117500D02*
Y121700D01*
X251800Y117500D02*
X256200D01*
Y121700D01*
X251800D02*
X256200D01*
X251800Y117500D02*
Y121700D01*
X241800Y117500D02*
X246200D01*
Y121700D01*
X241800D02*
X246200D01*
X241800Y117500D02*
Y121700D01*
Y91500D02*
X246200D01*
X241800Y87300D02*
Y91500D01*
Y87300D02*
X246200D01*
Y91500D01*
X251800D02*
X256200D01*
X251800Y87300D02*
Y91500D01*
Y87300D02*
X256200D01*
Y91500D01*
X261800D02*
X266200D01*
X261800Y87300D02*
Y91500D01*
Y87300D02*
X266200D01*
Y91500D01*
X271800D02*
X276200D01*
X271800Y87300D02*
Y91500D01*
Y87300D02*
X276200D01*
Y91500D01*
X281800D02*
X286200D01*
X281800Y87300D02*
Y91500D01*
Y87300D02*
X286200D01*
Y91500D01*
X291800D02*
X296200D01*
X291800Y87300D02*
Y91500D01*
Y87300D02*
X296200D01*
Y91500D01*
X301800D02*
X306200D01*
X301800Y87300D02*
Y91500D01*
Y87300D02*
X306200D01*
Y91500D01*
X311800D02*
X316200D01*
X311800Y87300D02*
Y91500D01*
Y87300D02*
X316200D01*
Y91500D01*
X240200D02*
Y117500D01*
Y91500D02*
X317800D01*
Y103300D01*
Y105700D01*
Y117500D01*
X240200D02*
X317800D01*
X311800Y39500D02*
X316200D01*
Y43700D01*
X311800D02*
X316200D01*
X311800Y39500D02*
Y43700D01*
X301800Y39500D02*
X306200D01*
Y43700D01*
X301800D02*
X306200D01*
X301800Y39500D02*
Y43700D01*
X291800Y39500D02*
X296200D01*
Y43700D01*
X291800D02*
X296200D01*
X291800Y39500D02*
Y43700D01*
X281800Y39500D02*
X286200D01*
Y43700D01*
X281800D02*
X286200D01*
X281800Y39500D02*
Y43700D01*
X271800Y39500D02*
X276200D01*
Y43700D01*
X271800D02*
X276200D01*
X271800Y39500D02*
Y43700D01*
X261800Y39500D02*
X266200D01*
Y43700D01*
X261800D02*
X266200D01*
X261800Y39500D02*
Y43700D01*
X251800Y39500D02*
X256200D01*
Y43700D01*
X251800D02*
X256200D01*
X251800Y39500D02*
Y43700D01*
X241800Y39500D02*
X246200D01*
Y43700D01*
X241800D02*
X246200D01*
X241800Y39500D02*
Y43700D01*
Y13500D02*
X246200D01*
X241800Y9300D02*
Y13500D01*
Y9300D02*
X246200D01*
Y13500D01*
X251800D02*
X256200D01*
X251800Y9300D02*
Y13500D01*
Y9300D02*
X256200D01*
Y13500D01*
X261800D02*
X266200D01*
X261800Y9300D02*
Y13500D01*
Y9300D02*
X266200D01*
Y13500D01*
X271800D02*
X276200D01*
X271800Y9300D02*
Y13500D01*
Y9300D02*
X276200D01*
Y13500D01*
X281800D02*
X286200D01*
X281800Y9300D02*
Y13500D01*
Y9300D02*
X286200D01*
Y13500D01*
X291800D02*
X296200D01*
X291800Y9300D02*
Y13500D01*
Y9300D02*
X296200D01*
Y13500D01*
X301800D02*
X306200D01*
X301800Y9300D02*
Y13500D01*
Y9300D02*
X306200D01*
Y13500D01*
X311800D02*
X316200D01*
X311800Y9300D02*
Y13500D01*
Y9300D02*
X316200D01*
Y13500D01*
X240200D02*
Y39500D01*
Y13500D02*
X317800D01*
Y25300D01*
Y27700D01*
Y39500D01*
X240200D02*
X317800D01*
X311800D02*
X316200D01*
Y43700D01*
X311800D02*
X316200D01*
X311800Y39500D02*
Y43700D01*
X301800Y39500D02*
X306200D01*
Y43700D01*
X301800D02*
X306200D01*
X301800Y39500D02*
Y43700D01*
X291800Y39500D02*
X296200D01*
Y43700D01*
X291800D02*
X296200D01*
X291800Y39500D02*
Y43700D01*
X281800Y39500D02*
X286200D01*
Y43700D01*
X281800D02*
X286200D01*
X281800Y39500D02*
Y43700D01*
X271800Y39500D02*
X276200D01*
Y43700D01*
X271800D02*
X276200D01*
X271800Y39500D02*
Y43700D01*
X261800Y39500D02*
X266200D01*
Y43700D01*
X261800D02*
X266200D01*
X261800Y39500D02*
Y43700D01*
X251800Y39500D02*
X256200D01*
Y43700D01*
X251800D02*
X256200D01*
X251800Y39500D02*
Y43700D01*
X241800Y39500D02*
X246200D01*
Y43700D01*
X241800D02*
X246200D01*
X241800Y39500D02*
Y43700D01*
Y13500D02*
X246200D01*
X241800Y9300D02*
Y13500D01*
Y9300D02*
X246200D01*
Y13500D01*
X251800D02*
X256200D01*
X251800Y9300D02*
Y13500D01*
Y9300D02*
X256200D01*
Y13500D01*
X261800D02*
X266200D01*
X261800Y9300D02*
Y13500D01*
Y9300D02*
X266200D01*
Y13500D01*
X271800D02*
X276200D01*
X271800Y9300D02*
Y13500D01*
Y9300D02*
X276200D01*
Y13500D01*
X281800D02*
X286200D01*
X281800Y9300D02*
Y13500D01*
Y9300D02*
X286200D01*
Y13500D01*
X291800D02*
X296200D01*
X291800Y9300D02*
Y13500D01*
Y9300D02*
X296200D01*
Y13500D01*
X301800D02*
X306200D01*
X301800Y9300D02*
Y13500D01*
Y9300D02*
X306200D01*
Y13500D01*
X311800D02*
X316200D01*
X311800Y9300D02*
Y13500D01*
Y9300D02*
X316200D01*
Y13500D01*
X240200D02*
Y39500D01*
Y13500D02*
X317800D01*
Y25300D01*
Y27700D01*
Y39500D01*
X240200D02*
X317800D01*
D25*
X100563Y352941D02*
X126941D01*
Y327744D02*
Y352941D01*
X100563Y327744D02*
X126941D01*
X100563D02*
Y352941D01*
X126941D01*
Y327744D02*
Y352941D01*
X100563Y327744D02*
X126941D01*
X100563D02*
Y352941D01*
Y274441D02*
X126941D01*
Y249244D02*
Y274441D01*
X100563Y249244D02*
X126941D01*
X100563D02*
Y274441D01*
X126941D01*
Y249244D02*
Y274441D01*
X100563Y249244D02*
X126941D01*
X100563D02*
Y274441D01*
Y195941D02*
X126941D01*
Y170744D02*
Y195941D01*
X100563Y170744D02*
X126941D01*
X100563D02*
Y195941D01*
X126941D01*
Y170744D02*
Y195941D01*
X100563Y170744D02*
X126941D01*
X100563D02*
Y195941D01*
Y117441D02*
X126941D01*
Y92244D02*
Y117441D01*
X100563Y92244D02*
X126941D01*
X100563D02*
Y117441D01*
X126941D01*
Y92244D02*
Y117441D01*
X100563Y92244D02*
X126941D01*
X100563D02*
Y117441D01*
Y39441D02*
X126941D01*
Y14244D02*
Y39441D01*
X100563Y14244D02*
X126941D01*
X100563D02*
Y39441D01*
X126941D01*
Y14244D02*
Y39441D01*
X100563Y14244D02*
X126941D01*
X100563D02*
Y39441D01*
M02*
