G04 Layer_Color=32896*
%FSLAX25Y25*%
%MOIN*%
G70*
G01*
G75*
%ADD36C,0.01181*%
%ADD38C,0.01575*%
%ADD39C,0.00591*%
%ADD63C,0.02362*%
%ADD64C,0.01968*%
D36*
X176436Y343500D02*
X172500D01*
Y345468D01*
X173156Y346124D01*
X175780D01*
X176436Y345468D01*
Y343500D01*
X172500Y347436D02*
X175124D01*
X176436Y348748D01*
X175124Y350060D01*
X172500D01*
X174468D01*
Y347436D01*
X172500Y351372D02*
X176436D01*
Y353339D01*
X175780Y353995D01*
X174468D01*
X173812Y353339D01*
Y351372D01*
Y352683D02*
X172500Y353995D01*
X176436Y355307D02*
X172500D01*
X173812D01*
X176436Y357931D01*
X174468Y355963D01*
X172500Y357931D01*
X175780Y365803D02*
X176436Y365147D01*
Y363835D01*
X175780Y363179D01*
X175124D01*
X174468Y363835D01*
Y365147D01*
X173812Y365803D01*
X173156D01*
X172500Y365147D01*
Y363835D01*
X173156Y363179D01*
X176436Y369738D02*
Y367114D01*
X172500D01*
Y369738D01*
X174468Y367114D02*
Y368426D01*
X172500Y371050D02*
X176436D01*
X172500Y373674D01*
X176436D01*
X175780Y377610D02*
X176436Y376954D01*
Y375642D01*
X175780Y374986D01*
X175124D01*
X174468Y375642D01*
Y376954D01*
X173812Y377610D01*
X173156D01*
X172500Y376954D01*
Y375642D01*
X173156Y374986D01*
X176436Y378922D02*
Y380234D01*
Y379578D01*
X172500D01*
Y378922D01*
Y380234D01*
X176436Y382201D02*
Y384825D01*
Y383513D01*
X172500D01*
X176436Y386137D02*
Y387449D01*
Y386793D01*
X172500D01*
Y386137D01*
Y387449D01*
X176436Y389417D02*
X173812D01*
X172500Y390729D01*
X173812Y392041D01*
X176436D01*
Y395976D02*
Y393353D01*
X172500D01*
Y395976D01*
X174468Y393353D02*
Y394665D01*
X92436Y343500D02*
X88500D01*
Y345468D01*
X89156Y346124D01*
X91780D01*
X92436Y345468D01*
Y343500D01*
X88500Y347436D02*
X91124D01*
X92436Y348748D01*
X91124Y350060D01*
X88500D01*
X90468D01*
Y347436D01*
X88500Y351372D02*
X92436D01*
Y353339D01*
X91780Y353995D01*
X90468D01*
X89812Y353339D01*
Y351372D01*
Y352683D02*
X88500Y353995D01*
X92436Y355307D02*
X88500D01*
X89812D01*
X92436Y357931D01*
X90468Y355963D01*
X88500Y357931D01*
X91780Y365803D02*
X92436Y365147D01*
Y363835D01*
X91780Y363179D01*
X91124D01*
X90468Y363835D01*
Y365147D01*
X89812Y365803D01*
X89156D01*
X88500Y365147D01*
Y363835D01*
X89156Y363179D01*
X92436Y369738D02*
Y367114D01*
X88500D01*
Y369738D01*
X90468Y367114D02*
Y368426D01*
X88500Y371050D02*
X92436D01*
X88500Y373674D01*
X92436D01*
X91780Y377610D02*
X92436Y376954D01*
Y375642D01*
X91780Y374986D01*
X91124D01*
X90468Y375642D01*
Y376954D01*
X89812Y377610D01*
X89156D01*
X88500Y376954D01*
Y375642D01*
X89156Y374986D01*
X92436Y378922D02*
Y380234D01*
Y379578D01*
X88500D01*
Y378922D01*
Y380234D01*
X92436Y382201D02*
Y384825D01*
Y383513D01*
X88500D01*
X92436Y386137D02*
Y387449D01*
Y386793D01*
X88500D01*
Y386137D01*
Y387449D01*
X92436Y389417D02*
X89812D01*
X88500Y390729D01*
X89812Y392041D01*
X92436D01*
Y395976D02*
Y393353D01*
X88500D01*
Y395976D01*
X90468Y393353D02*
Y394665D01*
X7436Y343500D02*
X3500D01*
Y345468D01*
X4156Y346124D01*
X6780D01*
X7436Y345468D01*
Y343500D01*
X3500Y347436D02*
X6124D01*
X7436Y348748D01*
X6124Y350060D01*
X3500D01*
X5468D01*
Y347436D01*
X3500Y351372D02*
X7436D01*
Y353339D01*
X6780Y353995D01*
X5468D01*
X4812Y353339D01*
Y351372D01*
Y352683D02*
X3500Y353995D01*
X7436Y355307D02*
X3500D01*
X4812D01*
X7436Y357931D01*
X5468Y355963D01*
X3500Y357931D01*
X6780Y365803D02*
X7436Y365147D01*
Y363835D01*
X6780Y363179D01*
X6124D01*
X5468Y363835D01*
Y365147D01*
X4812Y365803D01*
X4156D01*
X3500Y365147D01*
Y363835D01*
X4156Y363179D01*
X7436Y369738D02*
Y367114D01*
X3500D01*
Y369738D01*
X5468Y367114D02*
Y368426D01*
X3500Y371050D02*
X7436D01*
X3500Y373674D01*
X7436D01*
X6780Y377610D02*
X7436Y376954D01*
Y375642D01*
X6780Y374986D01*
X6124D01*
X5468Y375642D01*
Y376954D01*
X4812Y377610D01*
X4156D01*
X3500Y376954D01*
Y375642D01*
X4156Y374986D01*
X7436Y378922D02*
Y380234D01*
Y379578D01*
X3500D01*
Y378922D01*
Y380234D01*
X7436Y382201D02*
Y384825D01*
Y383513D01*
X3500D01*
X7436Y386137D02*
Y387449D01*
Y386793D01*
X3500D01*
Y386137D01*
Y387449D01*
X7436Y389417D02*
X4812D01*
X3500Y390729D01*
X4812Y392041D01*
X7436D01*
Y395976D02*
Y393353D01*
X3500D01*
Y395976D01*
X5468Y393353D02*
Y394665D01*
X391500Y141000D02*
Y139001D01*
Y140000D01*
X385502D01*
X386502Y141000D01*
Y136002D02*
X385502Y135002D01*
Y133003D01*
X386502Y132003D01*
X390500D01*
X391500Y133003D01*
Y135002D01*
X390500Y136002D01*
X386502D01*
X385502Y124005D02*
X391500D01*
Y120007D01*
X385502Y114009D02*
Y118007D01*
X391500D01*
Y114009D01*
X388501Y118007D02*
Y116008D01*
X385502Y112009D02*
X391500D01*
Y109010D01*
X390500Y108011D01*
X386502D01*
X385502Y109010D01*
Y112009D01*
X322500Y141000D02*
Y139001D01*
Y140000D01*
X316502D01*
X317502Y141000D01*
Y136002D02*
X316502Y135002D01*
Y133003D01*
X317502Y132003D01*
X321500D01*
X322500Y133003D01*
Y135002D01*
X321500Y136002D01*
X317502D01*
X316502Y124005D02*
X322500D01*
Y120007D01*
X316502Y114009D02*
Y118007D01*
X322500D01*
Y114009D01*
X319501Y118007D02*
Y116008D01*
X316502Y112009D02*
X322500D01*
Y109010D01*
X321500Y108011D01*
X317502D01*
X316502Y109010D01*
Y112009D01*
X141500Y274500D02*
X139501D01*
X140500D01*
Y280498D01*
X141500Y279498D01*
X136502D02*
X135502Y280498D01*
X133503D01*
X132503Y279498D01*
Y275500D01*
X133503Y274500D01*
X135502D01*
X136502Y275500D01*
Y279498D01*
X124505Y280498D02*
Y274500D01*
X120507D01*
X114509Y280498D02*
X118507D01*
Y274500D01*
X114509D01*
X118507Y277499D02*
X116508D01*
X112509Y280498D02*
Y274500D01*
X109510D01*
X108511Y275500D01*
Y279498D01*
X109510Y280498D01*
X112509D01*
X141500Y207000D02*
X139501D01*
X140500D01*
Y212998D01*
X141500Y211998D01*
X136502D02*
X135502Y212998D01*
X133503D01*
X132503Y211998D01*
Y208000D01*
X133503Y207000D01*
X135502D01*
X136502Y208000D01*
Y211998D01*
X124505Y212998D02*
Y207000D01*
X120507D01*
X114509Y212998D02*
X118507D01*
Y207000D01*
X114509D01*
X118507Y209999D02*
X116508D01*
X112509Y212998D02*
Y207000D01*
X109510D01*
X108511Y208000D01*
Y211998D01*
X109510Y212998D01*
X112509D01*
X141500Y140500D02*
X139501D01*
X140500D01*
Y146498D01*
X141500Y145498D01*
X136502D02*
X135502Y146498D01*
X133503D01*
X132503Y145498D01*
Y141500D01*
X133503Y140500D01*
X135502D01*
X136502Y141500D01*
Y145498D01*
X124505Y146498D02*
Y140500D01*
X120507D01*
X114509Y146498D02*
X118507D01*
Y140500D01*
X114509D01*
X118507Y143499D02*
X116508D01*
X112509Y146498D02*
Y140500D01*
X109510D01*
X108511Y141500D01*
Y145498D01*
X109510Y146498D01*
X112509D01*
X141500Y72000D02*
X139501D01*
X140500D01*
Y77998D01*
X141500Y76998D01*
X136502D02*
X135502Y77998D01*
X133503D01*
X132503Y76998D01*
Y73000D01*
X133503Y72000D01*
X135502D01*
X136502Y73000D01*
Y76998D01*
X124505Y77998D02*
Y72000D01*
X120507D01*
X114509Y77998D02*
X118507D01*
Y72000D01*
X114509D01*
X118507Y74999D02*
X116508D01*
X112509Y77998D02*
Y72000D01*
X109510D01*
X108511Y73000D01*
Y76998D01*
X109510Y77998D01*
X112509D01*
X141000Y4000D02*
X139001D01*
X140000D01*
Y9998D01*
X141000Y8998D01*
X136002D02*
X135002Y9998D01*
X133003D01*
X132003Y8998D01*
Y5000D01*
X133003Y4000D01*
X135002D01*
X136002Y5000D01*
Y8998D01*
X124005Y9998D02*
Y4000D01*
X120007D01*
X114009Y9998D02*
X118007D01*
Y4000D01*
X114009D01*
X118007Y6999D02*
X116008D01*
X112009Y9998D02*
Y4000D01*
X109010D01*
X108011Y5000D01*
Y8998D01*
X109010Y9998D01*
X112009D01*
D38*
X226500Y383500D02*
Y387173D01*
X224663Y389010D01*
X222827Y387173D01*
Y383500D01*
Y386255D01*
X226500D01*
X220990Y383500D02*
Y384418D01*
X220072D01*
Y383500D01*
X220990D01*
X216398Y389010D02*
X214562D01*
X215480D01*
Y383500D01*
X216398D01*
X214562D01*
X211807D02*
Y384418D01*
X210888D01*
Y383500D01*
X211807D01*
X201705D02*
Y389010D01*
X198950D01*
X198031Y388092D01*
Y386255D01*
X198950Y385337D01*
X201705D01*
X192522Y388092D02*
X193440Y389010D01*
X195276D01*
X196195Y388092D01*
Y384418D01*
X195276Y383500D01*
X193440D01*
X192522Y384418D01*
X190685Y389010D02*
Y383500D01*
X187930D01*
X187012Y384418D01*
Y385337D01*
X187930Y386255D01*
X190685D01*
X187930D01*
X187012Y387173D01*
Y388092D01*
X187930Y389010D01*
X190685D01*
X142500Y383500D02*
Y387173D01*
X140663Y389010D01*
X138827Y387173D01*
Y383500D01*
Y386255D01*
X142500D01*
X136990Y383500D02*
Y384418D01*
X136072D01*
Y383500D01*
X136990D01*
X132398Y389010D02*
X130562D01*
X131480D01*
Y383500D01*
X132398D01*
X130562D01*
X127807D02*
Y384418D01*
X126888D01*
Y383500D01*
X127807D01*
X117705D02*
Y389010D01*
X114950D01*
X114032Y388092D01*
Y386255D01*
X114950Y385337D01*
X117705D01*
X108521Y388092D02*
X109440Y389010D01*
X111276D01*
X112195Y388092D01*
Y384418D01*
X111276Y383500D01*
X109440D01*
X108521Y384418D01*
X106685Y389010D02*
Y383500D01*
X103930D01*
X103012Y384418D01*
Y385337D01*
X103930Y386255D01*
X106685D01*
X103930D01*
X103012Y387173D01*
Y388092D01*
X103930Y389010D01*
X106685D01*
X57500Y383500D02*
Y387173D01*
X55663Y389010D01*
X53827Y387173D01*
Y383500D01*
Y386255D01*
X57500D01*
X51990Y383500D02*
Y384418D01*
X51072D01*
Y383500D01*
X51990D01*
X47398Y389010D02*
X45562D01*
X46480D01*
Y383500D01*
X47398D01*
X45562D01*
X42807D02*
Y384418D01*
X41888D01*
Y383500D01*
X42807D01*
X32705D02*
Y389010D01*
X29950D01*
X29032Y388092D01*
Y386255D01*
X29950Y385337D01*
X32705D01*
X23521Y388092D02*
X24440Y389010D01*
X26276D01*
X27195Y388092D01*
Y384418D01*
X26276Y383500D01*
X24440D01*
X23521Y384418D01*
X21685Y389010D02*
Y383500D01*
X18930D01*
X18011Y384418D01*
Y385337D01*
X18930Y386255D01*
X21685D01*
X18930D01*
X18011Y387173D01*
Y388092D01*
X18930Y389010D01*
X21685D01*
X358500Y197500D02*
X353252D01*
X350628Y194876D01*
X353252Y192252D01*
X358500D01*
X354564D01*
Y197500D01*
X350628Y189629D02*
Y187005D01*
Y188317D01*
X358500D01*
Y189629D01*
Y187005D01*
Y175198D02*
X350628D01*
Y171262D01*
X351940Y169950D01*
X354564D01*
X355876Y171262D01*
Y175198D01*
X351940Y162078D02*
X350628Y163390D01*
Y166014D01*
X351940Y167326D01*
X357188D01*
X358500Y166014D01*
Y163390D01*
X357188Y162078D01*
X350628Y159455D02*
X358500D01*
Y155519D01*
X357188Y154207D01*
X355876D01*
X354564Y155519D01*
Y159455D01*
Y155519D01*
X353252Y154207D01*
X351940D01*
X350628Y155519D01*
Y159455D01*
X289500Y197500D02*
X284252D01*
X281628Y194876D01*
X284252Y192252D01*
X289500D01*
X285564D01*
Y197500D01*
X281628Y189629D02*
Y187005D01*
Y188317D01*
X289500D01*
Y189629D01*
Y187005D01*
Y175198D02*
X281628D01*
Y171262D01*
X282940Y169950D01*
X285564D01*
X286876Y171262D01*
Y175198D01*
X282940Y162078D02*
X281628Y163390D01*
Y166014D01*
X282940Y167326D01*
X288188D01*
X289500Y166014D01*
Y163390D01*
X288188Y162078D01*
X281628Y159455D02*
X289500D01*
Y155519D01*
X288188Y154207D01*
X286876D01*
X285564Y155519D01*
Y159455D01*
Y155519D01*
X284252Y154207D01*
X282940D01*
X281628Y155519D01*
Y159455D01*
X198000Y307500D02*
Y312748D01*
X195376Y315371D01*
X192752Y312748D01*
Y307500D01*
Y311436D01*
X198000D01*
X190129Y315371D02*
X187505D01*
X188817D01*
Y307500D01*
X190129D01*
X187505D01*
X175698D02*
Y315371D01*
X171762D01*
X170450Y314060D01*
Y311436D01*
X171762Y310124D01*
X175698D01*
X162578Y314060D02*
X163890Y315371D01*
X166514D01*
X167826Y314060D01*
Y308812D01*
X166514Y307500D01*
X163890D01*
X162578Y308812D01*
X159955Y315371D02*
Y307500D01*
X156019D01*
X154707Y308812D01*
Y310124D01*
X156019Y311436D01*
X159955D01*
X156019D01*
X154707Y312748D01*
Y314060D01*
X156019Y315371D01*
X159955D01*
X198000Y240000D02*
Y245248D01*
X195376Y247871D01*
X192752Y245248D01*
Y240000D01*
Y243936D01*
X198000D01*
X190129Y247871D02*
X187505D01*
X188817D01*
Y240000D01*
X190129D01*
X187505D01*
X175698D02*
Y247871D01*
X171762D01*
X170450Y246560D01*
Y243936D01*
X171762Y242624D01*
X175698D01*
X162578Y246560D02*
X163890Y247871D01*
X166514D01*
X167826Y246560D01*
Y241312D01*
X166514Y240000D01*
X163890D01*
X162578Y241312D01*
X159955Y247871D02*
Y240000D01*
X156019D01*
X154707Y241312D01*
Y242624D01*
X156019Y243936D01*
X159955D01*
X156019D01*
X154707Y245248D01*
Y246560D01*
X156019Y247871D01*
X159955D01*
X198000Y173500D02*
Y178748D01*
X195376Y181371D01*
X192752Y178748D01*
Y173500D01*
Y177436D01*
X198000D01*
X190129Y181371D02*
X187505D01*
X188817D01*
Y173500D01*
X190129D01*
X187505D01*
X175698D02*
Y181371D01*
X171762D01*
X170450Y180060D01*
Y177436D01*
X171762Y176124D01*
X175698D01*
X162578Y180060D02*
X163890Y181371D01*
X166514D01*
X167826Y180060D01*
Y174812D01*
X166514Y173500D01*
X163890D01*
X162578Y174812D01*
X159955Y181371D02*
Y173500D01*
X156019D01*
X154707Y174812D01*
Y176124D01*
X156019Y177436D01*
X159955D01*
X156019D01*
X154707Y178748D01*
Y180060D01*
X156019Y181371D01*
X159955D01*
X198000Y105000D02*
Y110248D01*
X195376Y112872D01*
X192752Y110248D01*
Y105000D01*
Y108936D01*
X198000D01*
X190129Y112872D02*
X187505D01*
X188817D01*
Y105000D01*
X190129D01*
X187505D01*
X175698D02*
Y112872D01*
X171762D01*
X170450Y111560D01*
Y108936D01*
X171762Y107624D01*
X175698D01*
X162578Y111560D02*
X163890Y112872D01*
X166514D01*
X167826Y111560D01*
Y106312D01*
X166514Y105000D01*
X163890D01*
X162578Y106312D01*
X159955Y112872D02*
Y105000D01*
X156019D01*
X154707Y106312D01*
Y107624D01*
X156019Y108936D01*
X159955D01*
X156019D01*
X154707Y110248D01*
Y111560D01*
X156019Y112872D01*
X159955D01*
X197500Y37000D02*
Y42248D01*
X194876Y44872D01*
X192252Y42248D01*
Y37000D01*
Y40936D01*
X197500D01*
X189629Y44872D02*
X187005D01*
X188317D01*
Y37000D01*
X189629D01*
X187005D01*
X175198D02*
Y44872D01*
X171262D01*
X169950Y43560D01*
Y40936D01*
X171262Y39624D01*
X175198D01*
X162078Y43560D02*
X163390Y44872D01*
X166014D01*
X167326Y43560D01*
Y38312D01*
X166014Y37000D01*
X163390D01*
X162078Y38312D01*
X159455Y44872D02*
Y37000D01*
X155519D01*
X154207Y38312D01*
Y39624D01*
X155519Y40936D01*
X159455D01*
X155519D01*
X154207Y42248D01*
Y43560D01*
X155519Y44872D01*
X159455D01*
D39*
X87826Y303940D02*
X85727D01*
X86776D01*
Y300791D01*
X84152D02*
X83103D01*
X82578Y301316D01*
Y302365D01*
X83103Y302890D01*
X84152D01*
X84677Y302365D01*
Y301316D01*
X84152Y300791D01*
X78380D02*
X76806D01*
X76281Y301316D01*
X76806Y301841D01*
X77855D01*
X78380Y302365D01*
X77855Y302890D01*
X76281D01*
X73657Y300791D02*
X74707D01*
X75231Y301316D01*
Y302365D01*
X74707Y302890D01*
X73657D01*
X73132Y302365D01*
Y301841D01*
X75231D01*
X72083Y300791D02*
X71033D01*
X71558D01*
Y303940D01*
X72083D01*
X67885Y300791D02*
X68934D01*
X69459Y301316D01*
Y302365D01*
X68934Y302890D01*
X67885D01*
X67360Y302365D01*
Y301841D01*
X69459D01*
X64211Y302890D02*
X65786D01*
X66310Y302365D01*
Y301316D01*
X65786Y300791D01*
X64211D01*
X62637Y303415D02*
Y302890D01*
X63162D01*
X62112D01*
X62637D01*
Y301316D01*
X62112Y300791D01*
X56865Y303415D02*
Y302890D01*
X57389D01*
X56340D01*
X56865D01*
Y301316D01*
X56340Y300791D01*
X54765Y303940D02*
Y300791D01*
Y302365D01*
X54241Y302890D01*
X53191D01*
X52666Y302365D01*
Y300791D01*
X50043D02*
X51092D01*
X51617Y301316D01*
Y302365D01*
X51092Y302890D01*
X50043D01*
X49518Y302365D01*
Y301841D01*
X51617D01*
X43221Y303940D02*
Y300791D01*
X44795D01*
X45320Y301316D01*
Y302365D01*
X44795Y302890D01*
X43221D01*
X41646Y300791D02*
X40597D01*
X40072Y301316D01*
Y302365D01*
X40597Y302890D01*
X41646D01*
X42171Y302365D01*
Y301316D01*
X41646Y300791D01*
X38498Y303415D02*
Y302890D01*
X39023D01*
X37973D01*
X38498D01*
Y301316D01*
X37973Y300791D01*
X33250D02*
Y302890D01*
X32725D01*
X32201Y302365D01*
Y300791D01*
Y302365D01*
X31676Y302890D01*
X31151Y302365D01*
Y300791D01*
X29577D02*
X28527D01*
X28003Y301316D01*
Y302365D01*
X28527Y302890D01*
X29577D01*
X30102Y302365D01*
Y301316D01*
X29577Y300791D01*
X24854Y303940D02*
Y300791D01*
X26428D01*
X26953Y301316D01*
Y302365D01*
X26428Y302890D01*
X24854D01*
X22230Y300791D02*
X23280D01*
X23804Y301316D01*
Y302365D01*
X23280Y302890D01*
X22230D01*
X21705Y302365D01*
Y301841D01*
X23804D01*
X16982Y300791D02*
X15933D01*
X15408Y301316D01*
Y302365D01*
X15933Y302890D01*
X16982D01*
X17507Y302365D01*
Y301316D01*
X16982Y300791D01*
X14359Y302890D02*
Y300791D01*
Y301841D01*
X13834Y302365D01*
X13309Y302890D01*
X12784D01*
X84152Y298744D02*
Y295596D01*
X82578D01*
X82053Y296120D01*
Y296645D01*
Y297170D01*
X82578Y297695D01*
X84152D01*
X80479D02*
X79430D01*
X78905Y297170D01*
Y295596D01*
X80479D01*
X81004Y296120D01*
X80479Y296645D01*
X78905D01*
X77855Y297695D02*
Y295596D01*
Y296645D01*
X77330Y297170D01*
X76806Y297695D01*
X76281D01*
X71558Y295596D02*
Y297695D01*
X71033D01*
X70508Y297170D01*
Y295596D01*
Y297170D01*
X69984Y297695D01*
X69459Y297170D01*
Y295596D01*
X67885D02*
X66835D01*
X66310Y296120D01*
Y297170D01*
X66835Y297695D01*
X67885D01*
X68409Y297170D01*
Y296120D01*
X67885Y295596D01*
X63162Y298744D02*
Y295596D01*
X64736D01*
X65261Y296120D01*
Y297170D01*
X64736Y297695D01*
X63162D01*
X60538Y295596D02*
X61588D01*
X62112Y296120D01*
Y297170D01*
X61588Y297695D01*
X60538D01*
X60013Y297170D01*
Y296645D01*
X62112D01*
X55815Y294546D02*
Y297695D01*
X54241D01*
X53716Y297170D01*
Y296120D01*
X54241Y295596D01*
X55815D01*
X52666Y297695D02*
Y296120D01*
X52142Y295596D01*
X50567D01*
Y297695D01*
X48993Y298219D02*
Y297695D01*
X49518D01*
X48468D01*
X48993D01*
Y296120D01*
X48468Y295596D01*
X43221D02*
X42171D01*
X41646Y296120D01*
Y297170D01*
X42171Y297695D01*
X43221D01*
X43745Y297170D01*
Y296120D01*
X43221Y295596D01*
X40597Y297695D02*
Y295596D01*
Y296645D01*
X40072Y297170D01*
X39547Y297695D01*
X39023D01*
X34300D02*
Y295596D01*
Y296645D01*
X33775Y297170D01*
X33250Y297695D01*
X32725D01*
X29577Y295596D02*
X30626D01*
X31151Y296120D01*
Y297170D01*
X30626Y297695D01*
X29577D01*
X29052Y297170D01*
Y296645D01*
X31151D01*
X28003Y295596D02*
Y297695D01*
X27478D01*
X26953Y297170D01*
Y295596D01*
Y297170D01*
X26428Y297695D01*
X25903Y297170D01*
Y295596D01*
X24329D02*
X23280D01*
X22755Y296120D01*
Y297170D01*
X23280Y297695D01*
X24329D01*
X24854Y297170D01*
Y296120D01*
X24329Y295596D01*
X21705Y297695D02*
X20656Y295596D01*
X19606Y297695D01*
X16982Y295596D02*
X18032D01*
X18557Y296120D01*
Y297170D01*
X18032Y297695D01*
X16982D01*
X16458Y297170D01*
Y296645D01*
X18557D01*
X78380Y291974D02*
Y291449D01*
X78905D01*
X77855D01*
X78380D01*
Y289875D01*
X77855Y289350D01*
X76281Y292499D02*
Y289350D01*
Y290925D01*
X75756Y291449D01*
X74707D01*
X74182Y290925D01*
Y289350D01*
X71558D02*
X72607D01*
X73132Y289875D01*
Y290925D01*
X72607Y291449D01*
X71558D01*
X71033Y290925D01*
Y290400D01*
X73132D01*
X66835Y288301D02*
X66310D01*
X65786Y288826D01*
Y291449D01*
X63687D02*
Y289875D01*
X63162Y289350D01*
X61588D01*
Y291449D01*
X60538Y289350D02*
Y291449D01*
X60013D01*
X59488Y290925D01*
Y289350D01*
Y290925D01*
X58964Y291449D01*
X58439Y290925D01*
Y289350D01*
X57389Y288301D02*
Y291449D01*
X55815D01*
X55290Y290925D01*
Y289875D01*
X55815Y289350D01*
X57389D01*
X52666D02*
X53716D01*
X54241Y289875D01*
Y290925D01*
X53716Y291449D01*
X52666D01*
X52142Y290925D01*
Y290400D01*
X54241D01*
X51092Y291449D02*
Y289350D01*
Y290400D01*
X50567Y290925D01*
X50043Y291449D01*
X49518D01*
X44270Y289350D02*
Y291974D01*
Y290925D01*
X44795D01*
X43745D01*
X44270D01*
Y291974D01*
X43745Y292499D01*
X42171Y291449D02*
Y289350D01*
Y290400D01*
X41646Y290925D01*
X41122Y291449D01*
X40597D01*
X38498Y289350D02*
X37448D01*
X36924Y289875D01*
Y290925D01*
X37448Y291449D01*
X38498D01*
X39023Y290925D01*
Y289875D01*
X38498Y289350D01*
X35874D02*
Y291449D01*
X35349D01*
X34824Y290925D01*
Y289350D01*
Y290925D01*
X34300Y291449D01*
X33775Y290925D01*
Y289350D01*
X29052Y291974D02*
Y291449D01*
X29577D01*
X28527D01*
X29052D01*
Y289875D01*
X28527Y289350D01*
X26953Y291449D02*
Y289875D01*
X26428Y289350D01*
X25903Y289875D01*
X25379Y289350D01*
X24854Y289875D01*
Y291449D01*
X23280Y289350D02*
X22230D01*
X21705Y289875D01*
Y290925D01*
X22230Y291449D01*
X23280D01*
X23804Y290925D01*
Y289875D01*
X23280Y289350D01*
X64999Y282056D02*
Y285204D01*
X63424D01*
X62899Y284680D01*
Y283630D01*
X63424Y283105D01*
X64999D01*
X61850D02*
X60800D01*
X61325D01*
Y285204D01*
X61850D01*
X59226Y283105D02*
Y285204D01*
X57652D01*
X57127Y284680D01*
Y283105D01*
X52929Y286254D02*
Y283105D01*
Y284680D01*
X52404Y285204D01*
X51354D01*
X50830Y284680D01*
Y283105D01*
X48206D02*
X49255D01*
X49780Y283630D01*
Y284680D01*
X49255Y285204D01*
X48206D01*
X47681Y284680D01*
Y284155D01*
X49780D01*
X46107Y285204D02*
X45057D01*
X44533Y284680D01*
Y283105D01*
X46107D01*
X46632Y283630D01*
X46107Y284155D01*
X44533D01*
X41384Y286254D02*
Y283105D01*
X42958D01*
X43483Y283630D01*
Y284680D01*
X42958Y285204D01*
X41384D01*
X38760Y283105D02*
X39810D01*
X40334Y283630D01*
Y284680D01*
X39810Y285204D01*
X38760D01*
X38235Y284680D01*
Y284155D01*
X40334D01*
X37186Y285204D02*
Y283105D01*
Y284155D01*
X36661Y284680D01*
X36136Y285204D01*
X35612D01*
X87826Y101440D02*
X85727D01*
X86776D01*
Y98291D01*
X84152D02*
X83103D01*
X82578Y98816D01*
Y99865D01*
X83103Y100390D01*
X84152D01*
X84677Y99865D01*
Y98816D01*
X84152Y98291D01*
X78380D02*
X76806D01*
X76281Y98816D01*
X76806Y99341D01*
X77855D01*
X78380Y99865D01*
X77855Y100390D01*
X76281D01*
X73657Y98291D02*
X74707D01*
X75231Y98816D01*
Y99865D01*
X74707Y100390D01*
X73657D01*
X73132Y99865D01*
Y99341D01*
X75231D01*
X72083Y98291D02*
X71033D01*
X71558D01*
Y101440D01*
X72083D01*
X67885Y98291D02*
X68934D01*
X69459Y98816D01*
Y99865D01*
X68934Y100390D01*
X67885D01*
X67360Y99865D01*
Y99341D01*
X69459D01*
X64211Y100390D02*
X65786D01*
X66310Y99865D01*
Y98816D01*
X65786Y98291D01*
X64211D01*
X62637Y100915D02*
Y100390D01*
X63162D01*
X62112D01*
X62637D01*
Y98816D01*
X62112Y98291D01*
X56865Y100915D02*
Y100390D01*
X57389D01*
X56340D01*
X56865D01*
Y98816D01*
X56340Y98291D01*
X54765Y101440D02*
Y98291D01*
Y99865D01*
X54241Y100390D01*
X53191D01*
X52666Y99865D01*
Y98291D01*
X50043D02*
X51092D01*
X51617Y98816D01*
Y99865D01*
X51092Y100390D01*
X50043D01*
X49518Y99865D01*
Y99341D01*
X51617D01*
X43221Y101440D02*
Y98291D01*
X44795D01*
X45320Y98816D01*
Y99865D01*
X44795Y100390D01*
X43221D01*
X41646Y98291D02*
X40597D01*
X40072Y98816D01*
Y99865D01*
X40597Y100390D01*
X41646D01*
X42171Y99865D01*
Y98816D01*
X41646Y98291D01*
X38498Y100915D02*
Y100390D01*
X39023D01*
X37973D01*
X38498D01*
Y98816D01*
X37973Y98291D01*
X33250D02*
Y100390D01*
X32725D01*
X32201Y99865D01*
Y98291D01*
Y99865D01*
X31676Y100390D01*
X31151Y99865D01*
Y98291D01*
X29577D02*
X28527D01*
X28003Y98816D01*
Y99865D01*
X28527Y100390D01*
X29577D01*
X30102Y99865D01*
Y98816D01*
X29577Y98291D01*
X24854Y101440D02*
Y98291D01*
X26428D01*
X26953Y98816D01*
Y99865D01*
X26428Y100390D01*
X24854D01*
X22230Y98291D02*
X23280D01*
X23804Y98816D01*
Y99865D01*
X23280Y100390D01*
X22230D01*
X21705Y99865D01*
Y99341D01*
X23804D01*
X16982Y98291D02*
X15933D01*
X15408Y98816D01*
Y99865D01*
X15933Y100390D01*
X16982D01*
X17507Y99865D01*
Y98816D01*
X16982Y98291D01*
X14359Y100390D02*
Y98291D01*
Y99341D01*
X13834Y99865D01*
X13309Y100390D01*
X12784D01*
X84152Y96244D02*
Y93095D01*
X82578D01*
X82053Y93620D01*
Y94145D01*
Y94670D01*
X82578Y95195D01*
X84152D01*
X80479D02*
X79430D01*
X78905Y94670D01*
Y93095D01*
X80479D01*
X81004Y93620D01*
X80479Y94145D01*
X78905D01*
X77855Y95195D02*
Y93095D01*
Y94145D01*
X77330Y94670D01*
X76806Y95195D01*
X76281D01*
X71558Y93095D02*
Y95195D01*
X71033D01*
X70508Y94670D01*
Y93095D01*
Y94670D01*
X69984Y95195D01*
X69459Y94670D01*
Y93095D01*
X67885D02*
X66835D01*
X66310Y93620D01*
Y94670D01*
X66835Y95195D01*
X67885D01*
X68409Y94670D01*
Y93620D01*
X67885Y93095D01*
X63162Y96244D02*
Y93095D01*
X64736D01*
X65261Y93620D01*
Y94670D01*
X64736Y95195D01*
X63162D01*
X60538Y93095D02*
X61588D01*
X62112Y93620D01*
Y94670D01*
X61588Y95195D01*
X60538D01*
X60013Y94670D01*
Y94145D01*
X62112D01*
X55815Y92046D02*
Y95195D01*
X54241D01*
X53716Y94670D01*
Y93620D01*
X54241Y93095D01*
X55815D01*
X52666Y95195D02*
Y93620D01*
X52142Y93095D01*
X50567D01*
Y95195D01*
X48993Y95719D02*
Y95195D01*
X49518D01*
X48468D01*
X48993D01*
Y93620D01*
X48468Y93095D01*
X43221D02*
X42171D01*
X41646Y93620D01*
Y94670D01*
X42171Y95195D01*
X43221D01*
X43745Y94670D01*
Y93620D01*
X43221Y93095D01*
X40597Y95195D02*
Y93095D01*
Y94145D01*
X40072Y94670D01*
X39547Y95195D01*
X39023D01*
X34300D02*
Y93095D01*
Y94145D01*
X33775Y94670D01*
X33250Y95195D01*
X32725D01*
X29577Y93095D02*
X30626D01*
X31151Y93620D01*
Y94670D01*
X30626Y95195D01*
X29577D01*
X29052Y94670D01*
Y94145D01*
X31151D01*
X28003Y93095D02*
Y95195D01*
X27478D01*
X26953Y94670D01*
Y93095D01*
Y94670D01*
X26428Y95195D01*
X25903Y94670D01*
Y93095D01*
X24329D02*
X23280D01*
X22755Y93620D01*
Y94670D01*
X23280Y95195D01*
X24329D01*
X24854Y94670D01*
Y93620D01*
X24329Y93095D01*
X21705Y95195D02*
X20656Y93095D01*
X19606Y95195D01*
X16982Y93095D02*
X18032D01*
X18557Y93620D01*
Y94670D01*
X18032Y95195D01*
X16982D01*
X16458Y94670D01*
Y94145D01*
X18557D01*
X78380Y89474D02*
Y88950D01*
X78905D01*
X77855D01*
X78380D01*
Y87375D01*
X77855Y86850D01*
X76281Y89999D02*
Y86850D01*
Y88425D01*
X75756Y88950D01*
X74707D01*
X74182Y88425D01*
Y86850D01*
X71558D02*
X72607D01*
X73132Y87375D01*
Y88425D01*
X72607Y88950D01*
X71558D01*
X71033Y88425D01*
Y87900D01*
X73132D01*
X66835Y85801D02*
X66310D01*
X65786Y86326D01*
Y88950D01*
X63687D02*
Y87375D01*
X63162Y86850D01*
X61588D01*
Y88950D01*
X60538Y86850D02*
Y88950D01*
X60013D01*
X59488Y88425D01*
Y86850D01*
Y88425D01*
X58964Y88950D01*
X58439Y88425D01*
Y86850D01*
X57389Y85801D02*
Y88950D01*
X55815D01*
X55290Y88425D01*
Y87375D01*
X55815Y86850D01*
X57389D01*
X52666D02*
X53716D01*
X54241Y87375D01*
Y88425D01*
X53716Y88950D01*
X52666D01*
X52142Y88425D01*
Y87900D01*
X54241D01*
X51092Y88950D02*
Y86850D01*
Y87900D01*
X50567Y88425D01*
X50043Y88950D01*
X49518D01*
X44270Y86850D02*
Y89474D01*
Y88425D01*
X44795D01*
X43745D01*
X44270D01*
Y89474D01*
X43745Y89999D01*
X42171Y88950D02*
Y86850D01*
Y87900D01*
X41646Y88425D01*
X41122Y88950D01*
X40597D01*
X38498Y86850D02*
X37448D01*
X36924Y87375D01*
Y88425D01*
X37448Y88950D01*
X38498D01*
X39023Y88425D01*
Y87375D01*
X38498Y86850D01*
X35874D02*
Y88950D01*
X35349D01*
X34824Y88425D01*
Y86850D01*
Y88425D01*
X34300Y88950D01*
X33775Y88425D01*
Y86850D01*
X29052Y89474D02*
Y88950D01*
X29577D01*
X28527D01*
X29052D01*
Y87375D01*
X28527Y86850D01*
X26953Y88950D02*
Y87375D01*
X26428Y86850D01*
X25903Y87375D01*
X25379Y86850D01*
X24854Y87375D01*
Y88950D01*
X23280Y86850D02*
X22230D01*
X21705Y87375D01*
Y88425D01*
X22230Y88950D01*
X23280D01*
X23804Y88425D01*
Y87375D01*
X23280Y86850D01*
X64999Y79556D02*
Y82704D01*
X63424D01*
X62899Y82180D01*
Y81130D01*
X63424Y80605D01*
X64999D01*
X61850D02*
X60800D01*
X61325D01*
Y82704D01*
X61850D01*
X59226Y80605D02*
Y82704D01*
X57652D01*
X57127Y82180D01*
Y80605D01*
X52929Y83754D02*
Y80605D01*
Y82180D01*
X52404Y82704D01*
X51354D01*
X50830Y82180D01*
Y80605D01*
X48206D02*
X49255D01*
X49780Y81130D01*
Y82180D01*
X49255Y82704D01*
X48206D01*
X47681Y82180D01*
Y81655D01*
X49780D01*
X46107Y82704D02*
X45057D01*
X44533Y82180D01*
Y80605D01*
X46107D01*
X46632Y81130D01*
X46107Y81655D01*
X44533D01*
X41384Y83754D02*
Y80605D01*
X42958D01*
X43483Y81130D01*
Y82180D01*
X42958Y82704D01*
X41384D01*
X38760Y80605D02*
X39810D01*
X40334Y81130D01*
Y82180D01*
X39810Y82704D01*
X38760D01*
X38235Y82180D01*
Y81655D01*
X40334D01*
X37186Y82704D02*
Y80605D01*
Y81655D01*
X36661Y82180D01*
X36136Y82704D01*
X35612D01*
X87826Y169940D02*
X85727D01*
X86776D01*
Y166791D01*
X84152D02*
X83103D01*
X82578Y167316D01*
Y168365D01*
X83103Y168890D01*
X84152D01*
X84677Y168365D01*
Y167316D01*
X84152Y166791D01*
X78380D02*
X76806D01*
X76281Y167316D01*
X76806Y167841D01*
X77855D01*
X78380Y168365D01*
X77855Y168890D01*
X76281D01*
X73657Y166791D02*
X74707D01*
X75231Y167316D01*
Y168365D01*
X74707Y168890D01*
X73657D01*
X73132Y168365D01*
Y167841D01*
X75231D01*
X72083Y166791D02*
X71033D01*
X71558D01*
Y169940D01*
X72083D01*
X67885Y166791D02*
X68934D01*
X69459Y167316D01*
Y168365D01*
X68934Y168890D01*
X67885D01*
X67360Y168365D01*
Y167841D01*
X69459D01*
X64211Y168890D02*
X65786D01*
X66310Y168365D01*
Y167316D01*
X65786Y166791D01*
X64211D01*
X62637Y169415D02*
Y168890D01*
X63162D01*
X62112D01*
X62637D01*
Y167316D01*
X62112Y166791D01*
X56865Y169415D02*
Y168890D01*
X57389D01*
X56340D01*
X56865D01*
Y167316D01*
X56340Y166791D01*
X54765Y169940D02*
Y166791D01*
Y168365D01*
X54241Y168890D01*
X53191D01*
X52666Y168365D01*
Y166791D01*
X50043D02*
X51092D01*
X51617Y167316D01*
Y168365D01*
X51092Y168890D01*
X50043D01*
X49518Y168365D01*
Y167841D01*
X51617D01*
X43221Y169940D02*
Y166791D01*
X44795D01*
X45320Y167316D01*
Y168365D01*
X44795Y168890D01*
X43221D01*
X41646Y166791D02*
X40597D01*
X40072Y167316D01*
Y168365D01*
X40597Y168890D01*
X41646D01*
X42171Y168365D01*
Y167316D01*
X41646Y166791D01*
X38498Y169415D02*
Y168890D01*
X39023D01*
X37973D01*
X38498D01*
Y167316D01*
X37973Y166791D01*
X33250D02*
Y168890D01*
X32725D01*
X32201Y168365D01*
Y166791D01*
Y168365D01*
X31676Y168890D01*
X31151Y168365D01*
Y166791D01*
X29577D02*
X28527D01*
X28003Y167316D01*
Y168365D01*
X28527Y168890D01*
X29577D01*
X30102Y168365D01*
Y167316D01*
X29577Y166791D01*
X24854Y169940D02*
Y166791D01*
X26428D01*
X26953Y167316D01*
Y168365D01*
X26428Y168890D01*
X24854D01*
X22230Y166791D02*
X23280D01*
X23804Y167316D01*
Y168365D01*
X23280Y168890D01*
X22230D01*
X21705Y168365D01*
Y167841D01*
X23804D01*
X16982Y166791D02*
X15933D01*
X15408Y167316D01*
Y168365D01*
X15933Y168890D01*
X16982D01*
X17507Y168365D01*
Y167316D01*
X16982Y166791D01*
X14359Y168890D02*
Y166791D01*
Y167841D01*
X13834Y168365D01*
X13309Y168890D01*
X12784D01*
X84152Y164744D02*
Y161595D01*
X82578D01*
X82053Y162120D01*
Y162645D01*
Y163170D01*
X82578Y163695D01*
X84152D01*
X80479D02*
X79430D01*
X78905Y163170D01*
Y161595D01*
X80479D01*
X81004Y162120D01*
X80479Y162645D01*
X78905D01*
X77855Y163695D02*
Y161595D01*
Y162645D01*
X77330Y163170D01*
X76806Y163695D01*
X76281D01*
X71558Y161595D02*
Y163695D01*
X71033D01*
X70508Y163170D01*
Y161595D01*
Y163170D01*
X69984Y163695D01*
X69459Y163170D01*
Y161595D01*
X67885D02*
X66835D01*
X66310Y162120D01*
Y163170D01*
X66835Y163695D01*
X67885D01*
X68409Y163170D01*
Y162120D01*
X67885Y161595D01*
X63162Y164744D02*
Y161595D01*
X64736D01*
X65261Y162120D01*
Y163170D01*
X64736Y163695D01*
X63162D01*
X60538Y161595D02*
X61588D01*
X62112Y162120D01*
Y163170D01*
X61588Y163695D01*
X60538D01*
X60013Y163170D01*
Y162645D01*
X62112D01*
X55815Y160546D02*
Y163695D01*
X54241D01*
X53716Y163170D01*
Y162120D01*
X54241Y161595D01*
X55815D01*
X52666Y163695D02*
Y162120D01*
X52142Y161595D01*
X50567D01*
Y163695D01*
X48993Y164219D02*
Y163695D01*
X49518D01*
X48468D01*
X48993D01*
Y162120D01*
X48468Y161595D01*
X43221D02*
X42171D01*
X41646Y162120D01*
Y163170D01*
X42171Y163695D01*
X43221D01*
X43745Y163170D01*
Y162120D01*
X43221Y161595D01*
X40597Y163695D02*
Y161595D01*
Y162645D01*
X40072Y163170D01*
X39547Y163695D01*
X39023D01*
X34300D02*
Y161595D01*
Y162645D01*
X33775Y163170D01*
X33250Y163695D01*
X32725D01*
X29577Y161595D02*
X30626D01*
X31151Y162120D01*
Y163170D01*
X30626Y163695D01*
X29577D01*
X29052Y163170D01*
Y162645D01*
X31151D01*
X28003Y161595D02*
Y163695D01*
X27478D01*
X26953Y163170D01*
Y161595D01*
Y163170D01*
X26428Y163695D01*
X25903Y163170D01*
Y161595D01*
X24329D02*
X23280D01*
X22755Y162120D01*
Y163170D01*
X23280Y163695D01*
X24329D01*
X24854Y163170D01*
Y162120D01*
X24329Y161595D01*
X21705Y163695D02*
X20656Y161595D01*
X19606Y163695D01*
X16982Y161595D02*
X18032D01*
X18557Y162120D01*
Y163170D01*
X18032Y163695D01*
X16982D01*
X16458Y163170D01*
Y162645D01*
X18557D01*
X78380Y157974D02*
Y157449D01*
X78905D01*
X77855D01*
X78380D01*
Y155875D01*
X77855Y155350D01*
X76281Y158499D02*
Y155350D01*
Y156925D01*
X75756Y157449D01*
X74707D01*
X74182Y156925D01*
Y155350D01*
X71558D02*
X72607D01*
X73132Y155875D01*
Y156925D01*
X72607Y157449D01*
X71558D01*
X71033Y156925D01*
Y156400D01*
X73132D01*
X66835Y154301D02*
X66310D01*
X65786Y154826D01*
Y157449D01*
X63687D02*
Y155875D01*
X63162Y155350D01*
X61588D01*
Y157449D01*
X60538Y155350D02*
Y157449D01*
X60013D01*
X59488Y156925D01*
Y155350D01*
Y156925D01*
X58964Y157449D01*
X58439Y156925D01*
Y155350D01*
X57389Y154301D02*
Y157449D01*
X55815D01*
X55290Y156925D01*
Y155875D01*
X55815Y155350D01*
X57389D01*
X52666D02*
X53716D01*
X54241Y155875D01*
Y156925D01*
X53716Y157449D01*
X52666D01*
X52142Y156925D01*
Y156400D01*
X54241D01*
X51092Y157449D02*
Y155350D01*
Y156400D01*
X50567Y156925D01*
X50043Y157449D01*
X49518D01*
X44270Y155350D02*
Y157974D01*
Y156925D01*
X44795D01*
X43745D01*
X44270D01*
Y157974D01*
X43745Y158499D01*
X42171Y157449D02*
Y155350D01*
Y156400D01*
X41646Y156925D01*
X41122Y157449D01*
X40597D01*
X38498Y155350D02*
X37448D01*
X36924Y155875D01*
Y156925D01*
X37448Y157449D01*
X38498D01*
X39023Y156925D01*
Y155875D01*
X38498Y155350D01*
X35874D02*
Y157449D01*
X35349D01*
X34824Y156925D01*
Y155350D01*
Y156925D01*
X34300Y157449D01*
X33775Y156925D01*
Y155350D01*
X29052Y157974D02*
Y157449D01*
X29577D01*
X28527D01*
X29052D01*
Y155875D01*
X28527Y155350D01*
X26953Y157449D02*
Y155875D01*
X26428Y155350D01*
X25903Y155875D01*
X25379Y155350D01*
X24854Y155875D01*
Y157449D01*
X23280Y155350D02*
X22230D01*
X21705Y155875D01*
Y156925D01*
X22230Y157449D01*
X23280D01*
X23804Y156925D01*
Y155875D01*
X23280Y155350D01*
X64999Y148056D02*
Y151204D01*
X63424D01*
X62899Y150680D01*
Y149630D01*
X63424Y149105D01*
X64999D01*
X61850D02*
X60800D01*
X61325D01*
Y151204D01*
X61850D01*
X59226Y149105D02*
Y151204D01*
X57652D01*
X57127Y150680D01*
Y149105D01*
X52929Y152254D02*
Y149105D01*
Y150680D01*
X52404Y151204D01*
X51354D01*
X50830Y150680D01*
Y149105D01*
X48206D02*
X49255D01*
X49780Y149630D01*
Y150680D01*
X49255Y151204D01*
X48206D01*
X47681Y150680D01*
Y150155D01*
X49780D01*
X46107Y151204D02*
X45057D01*
X44533Y150680D01*
Y149105D01*
X46107D01*
X46632Y149630D01*
X46107Y150155D01*
X44533D01*
X41384Y152254D02*
Y149105D01*
X42958D01*
X43483Y149630D01*
Y150680D01*
X42958Y151204D01*
X41384D01*
X38760Y149105D02*
X39810D01*
X40334Y149630D01*
Y150680D01*
X39810Y151204D01*
X38760D01*
X38235Y150680D01*
Y150155D01*
X40334D01*
X37186Y151204D02*
Y149105D01*
Y150155D01*
X36661Y150680D01*
X36136Y151204D01*
X35612D01*
X87826Y236440D02*
X85727D01*
X86776D01*
Y233291D01*
X84152D02*
X83103D01*
X82578Y233816D01*
Y234865D01*
X83103Y235390D01*
X84152D01*
X84677Y234865D01*
Y233816D01*
X84152Y233291D01*
X78380D02*
X76806D01*
X76281Y233816D01*
X76806Y234341D01*
X77855D01*
X78380Y234865D01*
X77855Y235390D01*
X76281D01*
X73657Y233291D02*
X74707D01*
X75231Y233816D01*
Y234865D01*
X74707Y235390D01*
X73657D01*
X73132Y234865D01*
Y234341D01*
X75231D01*
X72083Y233291D02*
X71033D01*
X71558D01*
Y236440D01*
X72083D01*
X67885Y233291D02*
X68934D01*
X69459Y233816D01*
Y234865D01*
X68934Y235390D01*
X67885D01*
X67360Y234865D01*
Y234341D01*
X69459D01*
X64211Y235390D02*
X65786D01*
X66310Y234865D01*
Y233816D01*
X65786Y233291D01*
X64211D01*
X62637Y235915D02*
Y235390D01*
X63162D01*
X62112D01*
X62637D01*
Y233816D01*
X62112Y233291D01*
X56865Y235915D02*
Y235390D01*
X57389D01*
X56340D01*
X56865D01*
Y233816D01*
X56340Y233291D01*
X54765Y236440D02*
Y233291D01*
Y234865D01*
X54241Y235390D01*
X53191D01*
X52666Y234865D01*
Y233291D01*
X50043D02*
X51092D01*
X51617Y233816D01*
Y234865D01*
X51092Y235390D01*
X50043D01*
X49518Y234865D01*
Y234341D01*
X51617D01*
X43221Y236440D02*
Y233291D01*
X44795D01*
X45320Y233816D01*
Y234865D01*
X44795Y235390D01*
X43221D01*
X41646Y233291D02*
X40597D01*
X40072Y233816D01*
Y234865D01*
X40597Y235390D01*
X41646D01*
X42171Y234865D01*
Y233816D01*
X41646Y233291D01*
X38498Y235915D02*
Y235390D01*
X39023D01*
X37973D01*
X38498D01*
Y233816D01*
X37973Y233291D01*
X33250D02*
Y235390D01*
X32725D01*
X32201Y234865D01*
Y233291D01*
Y234865D01*
X31676Y235390D01*
X31151Y234865D01*
Y233291D01*
X29577D02*
X28527D01*
X28003Y233816D01*
Y234865D01*
X28527Y235390D01*
X29577D01*
X30102Y234865D01*
Y233816D01*
X29577Y233291D01*
X24854Y236440D02*
Y233291D01*
X26428D01*
X26953Y233816D01*
Y234865D01*
X26428Y235390D01*
X24854D01*
X22230Y233291D02*
X23280D01*
X23804Y233816D01*
Y234865D01*
X23280Y235390D01*
X22230D01*
X21705Y234865D01*
Y234341D01*
X23804D01*
X16982Y233291D02*
X15933D01*
X15408Y233816D01*
Y234865D01*
X15933Y235390D01*
X16982D01*
X17507Y234865D01*
Y233816D01*
X16982Y233291D01*
X14359Y235390D02*
Y233291D01*
Y234341D01*
X13834Y234865D01*
X13309Y235390D01*
X12784D01*
X84152Y231244D02*
Y228096D01*
X82578D01*
X82053Y228620D01*
Y229145D01*
Y229670D01*
X82578Y230195D01*
X84152D01*
X80479D02*
X79430D01*
X78905Y229670D01*
Y228096D01*
X80479D01*
X81004Y228620D01*
X80479Y229145D01*
X78905D01*
X77855Y230195D02*
Y228096D01*
Y229145D01*
X77330Y229670D01*
X76806Y230195D01*
X76281D01*
X71558Y228096D02*
Y230195D01*
X71033D01*
X70508Y229670D01*
Y228096D01*
Y229670D01*
X69984Y230195D01*
X69459Y229670D01*
Y228096D01*
X67885D02*
X66835D01*
X66310Y228620D01*
Y229670D01*
X66835Y230195D01*
X67885D01*
X68409Y229670D01*
Y228620D01*
X67885Y228096D01*
X63162Y231244D02*
Y228096D01*
X64736D01*
X65261Y228620D01*
Y229670D01*
X64736Y230195D01*
X63162D01*
X60538Y228096D02*
X61588D01*
X62112Y228620D01*
Y229670D01*
X61588Y230195D01*
X60538D01*
X60013Y229670D01*
Y229145D01*
X62112D01*
X55815Y227046D02*
Y230195D01*
X54241D01*
X53716Y229670D01*
Y228620D01*
X54241Y228096D01*
X55815D01*
X52666Y230195D02*
Y228620D01*
X52142Y228096D01*
X50567D01*
Y230195D01*
X48993Y230719D02*
Y230195D01*
X49518D01*
X48468D01*
X48993D01*
Y228620D01*
X48468Y228096D01*
X43221D02*
X42171D01*
X41646Y228620D01*
Y229670D01*
X42171Y230195D01*
X43221D01*
X43745Y229670D01*
Y228620D01*
X43221Y228096D01*
X40597Y230195D02*
Y228096D01*
Y229145D01*
X40072Y229670D01*
X39547Y230195D01*
X39023D01*
X34300D02*
Y228096D01*
Y229145D01*
X33775Y229670D01*
X33250Y230195D01*
X32725D01*
X29577Y228096D02*
X30626D01*
X31151Y228620D01*
Y229670D01*
X30626Y230195D01*
X29577D01*
X29052Y229670D01*
Y229145D01*
X31151D01*
X28003Y228096D02*
Y230195D01*
X27478D01*
X26953Y229670D01*
Y228096D01*
Y229670D01*
X26428Y230195D01*
X25903Y229670D01*
Y228096D01*
X24329D02*
X23280D01*
X22755Y228620D01*
Y229670D01*
X23280Y230195D01*
X24329D01*
X24854Y229670D01*
Y228620D01*
X24329Y228096D01*
X21705Y230195D02*
X20656Y228096D01*
X19606Y230195D01*
X16982Y228096D02*
X18032D01*
X18557Y228620D01*
Y229670D01*
X18032Y230195D01*
X16982D01*
X16458Y229670D01*
Y229145D01*
X18557D01*
X78380Y224474D02*
Y223949D01*
X78905D01*
X77855D01*
X78380D01*
Y222375D01*
X77855Y221850D01*
X76281Y224999D02*
Y221850D01*
Y223425D01*
X75756Y223949D01*
X74707D01*
X74182Y223425D01*
Y221850D01*
X71558D02*
X72607D01*
X73132Y222375D01*
Y223425D01*
X72607Y223949D01*
X71558D01*
X71033Y223425D01*
Y222900D01*
X73132D01*
X66835Y220801D02*
X66310D01*
X65786Y221326D01*
Y223949D01*
X63687D02*
Y222375D01*
X63162Y221850D01*
X61588D01*
Y223949D01*
X60538Y221850D02*
Y223949D01*
X60013D01*
X59488Y223425D01*
Y221850D01*
Y223425D01*
X58964Y223949D01*
X58439Y223425D01*
Y221850D01*
X57389Y220801D02*
Y223949D01*
X55815D01*
X55290Y223425D01*
Y222375D01*
X55815Y221850D01*
X57389D01*
X52666D02*
X53716D01*
X54241Y222375D01*
Y223425D01*
X53716Y223949D01*
X52666D01*
X52142Y223425D01*
Y222900D01*
X54241D01*
X51092Y223949D02*
Y221850D01*
Y222900D01*
X50567Y223425D01*
X50043Y223949D01*
X49518D01*
X44270Y221850D02*
Y224474D01*
Y223425D01*
X44795D01*
X43745D01*
X44270D01*
Y224474D01*
X43745Y224999D01*
X42171Y223949D02*
Y221850D01*
Y222900D01*
X41646Y223425D01*
X41122Y223949D01*
X40597D01*
X38498Y221850D02*
X37448D01*
X36924Y222375D01*
Y223425D01*
X37448Y223949D01*
X38498D01*
X39023Y223425D01*
Y222375D01*
X38498Y221850D01*
X35874D02*
Y223949D01*
X35349D01*
X34824Y223425D01*
Y221850D01*
Y223425D01*
X34300Y223949D01*
X33775Y223425D01*
Y221850D01*
X29052Y224474D02*
Y223949D01*
X29577D01*
X28527D01*
X29052D01*
Y222375D01*
X28527Y221850D01*
X26953Y223949D02*
Y222375D01*
X26428Y221850D01*
X25903Y222375D01*
X25379Y221850D01*
X24854Y222375D01*
Y223949D01*
X23280Y221850D02*
X22230D01*
X21705Y222375D01*
Y223425D01*
X22230Y223949D01*
X23280D01*
X23804Y223425D01*
Y222375D01*
X23280Y221850D01*
X64999Y214556D02*
Y217704D01*
X63424D01*
X62899Y217180D01*
Y216130D01*
X63424Y215605D01*
X64999D01*
X61850D02*
X60800D01*
X61325D01*
Y217704D01*
X61850D01*
X59226Y215605D02*
Y217704D01*
X57652D01*
X57127Y217180D01*
Y215605D01*
X52929Y218754D02*
Y215605D01*
Y217180D01*
X52404Y217704D01*
X51354D01*
X50830Y217180D01*
Y215605D01*
X48206D02*
X49255D01*
X49780Y216130D01*
Y217180D01*
X49255Y217704D01*
X48206D01*
X47681Y217180D01*
Y216655D01*
X49780D01*
X46107Y217704D02*
X45057D01*
X44533Y217180D01*
Y215605D01*
X46107D01*
X46632Y216130D01*
X46107Y216655D01*
X44533D01*
X41384Y218754D02*
Y215605D01*
X42958D01*
X43483Y216130D01*
Y217180D01*
X42958Y217704D01*
X41384D01*
X38760Y215605D02*
X39810D01*
X40334Y216130D01*
Y217180D01*
X39810Y217704D01*
X38760D01*
X38235Y217180D01*
Y216655D01*
X40334D01*
X37186Y217704D02*
Y215605D01*
Y216655D01*
X36661Y217180D01*
X36136Y217704D01*
X35612D01*
X293060Y87326D02*
Y85227D01*
Y86276D01*
X296209D01*
Y83652D02*
Y82603D01*
X295684Y82078D01*
X294635D01*
X294110Y82603D01*
Y83652D01*
X294635Y84177D01*
X295684D01*
X296209Y83652D01*
Y77880D02*
Y76306D01*
X295684Y75781D01*
X295159Y76306D01*
Y77355D01*
X294635Y77880D01*
X294110Y77355D01*
Y75781D01*
X296209Y73157D02*
Y74207D01*
X295684Y74731D01*
X294635D01*
X294110Y74207D01*
Y73157D01*
X294635Y72632D01*
X295159D01*
Y74731D01*
X296209Y71583D02*
Y70533D01*
Y71058D01*
X293060D01*
Y71583D01*
X296209Y67385D02*
Y68434D01*
X295684Y68959D01*
X294635D01*
X294110Y68434D01*
Y67385D01*
X294635Y66860D01*
X295159D01*
Y68959D01*
X294110Y63711D02*
Y65286D01*
X294635Y65810D01*
X295684D01*
X296209Y65286D01*
Y63711D01*
X293585Y62137D02*
X294110D01*
Y62662D01*
Y61612D01*
Y62137D01*
X295684D01*
X296209Y61612D01*
X293585Y56365D02*
X294110D01*
Y56889D01*
Y55840D01*
Y56365D01*
X295684D01*
X296209Y55840D01*
X293060Y54265D02*
X296209D01*
X294635D01*
X294110Y53741D01*
Y52691D01*
X294635Y52166D01*
X296209D01*
Y49543D02*
Y50592D01*
X295684Y51117D01*
X294635D01*
X294110Y50592D01*
Y49543D01*
X294635Y49018D01*
X295159D01*
Y51117D01*
X293060Y42721D02*
X296209D01*
Y44295D01*
X295684Y44820D01*
X294635D01*
X294110Y44295D01*
Y42721D01*
X296209Y41146D02*
Y40097D01*
X295684Y39572D01*
X294635D01*
X294110Y40097D01*
Y41146D01*
X294635Y41671D01*
X295684D01*
X296209Y41146D01*
X293585Y37998D02*
X294110D01*
Y38523D01*
Y37473D01*
Y37998D01*
X295684D01*
X296209Y37473D01*
Y32750D02*
X294110D01*
Y32225D01*
X294635Y31701D01*
X296209D01*
X294635D01*
X294110Y31176D01*
X294635Y30651D01*
X296209D01*
Y29077D02*
Y28027D01*
X295684Y27503D01*
X294635D01*
X294110Y28027D01*
Y29077D01*
X294635Y29602D01*
X295684D01*
X296209Y29077D01*
X293060Y24354D02*
X296209D01*
Y25928D01*
X295684Y26453D01*
X294635D01*
X294110Y25928D01*
Y24354D01*
X296209Y21730D02*
Y22780D01*
X295684Y23304D01*
X294635D01*
X294110Y22780D01*
Y21730D01*
X294635Y21205D01*
X295159D01*
Y23304D01*
X296209Y16482D02*
Y15433D01*
X295684Y14908D01*
X294635D01*
X294110Y15433D01*
Y16482D01*
X294635Y17007D01*
X295684D01*
X296209Y16482D01*
X294110Y13859D02*
X296209D01*
X295159D01*
X294635Y13334D01*
X294110Y12809D01*
Y12284D01*
X298256Y83652D02*
X301405D01*
Y82078D01*
X300880Y81553D01*
X300355D01*
X299830D01*
X299305Y82078D01*
Y83652D01*
Y79979D02*
Y78930D01*
X299830Y78405D01*
X301405D01*
Y79979D01*
X300880Y80504D01*
X300355Y79979D01*
Y78405D01*
X299305Y77355D02*
X301405D01*
X300355D01*
X299830Y76830D01*
X299305Y76306D01*
Y75781D01*
X301405Y71058D02*
X299305D01*
Y70533D01*
X299830Y70008D01*
X301405D01*
X299830D01*
X299305Y69484D01*
X299830Y68959D01*
X301405D01*
Y67385D02*
Y66335D01*
X300880Y65810D01*
X299830D01*
X299305Y66335D01*
Y67385D01*
X299830Y67909D01*
X300880D01*
X301405Y67385D01*
X298256Y62662D02*
X301405D01*
Y64236D01*
X300880Y64761D01*
X299830D01*
X299305Y64236D01*
Y62662D01*
X301405Y60038D02*
Y61088D01*
X300880Y61612D01*
X299830D01*
X299305Y61088D01*
Y60038D01*
X299830Y59513D01*
X300355D01*
Y61612D01*
X302454Y55315D02*
X299305D01*
Y53741D01*
X299830Y53216D01*
X300880D01*
X301405Y53741D01*
Y55315D01*
X299305Y52166D02*
X300880D01*
X301405Y51642D01*
Y50067D01*
X299305D01*
X298781Y48493D02*
X299305D01*
Y49018D01*
Y47968D01*
Y48493D01*
X300880D01*
X301405Y47968D01*
Y42721D02*
Y41671D01*
X300880Y41146D01*
X299830D01*
X299305Y41671D01*
Y42721D01*
X299830Y43246D01*
X300880D01*
X301405Y42721D01*
X299305Y40097D02*
X301405D01*
X300355D01*
X299830Y39572D01*
X299305Y39047D01*
Y38523D01*
Y33800D02*
X301405D01*
X300355D01*
X299830Y33275D01*
X299305Y32750D01*
Y32225D01*
X301405Y29077D02*
Y30126D01*
X300880Y30651D01*
X299830D01*
X299305Y30126D01*
Y29077D01*
X299830Y28552D01*
X300355D01*
Y30651D01*
X301405Y27503D02*
X299305D01*
Y26978D01*
X299830Y26453D01*
X301405D01*
X299830D01*
X299305Y25928D01*
X299830Y25403D01*
X301405D01*
Y23829D02*
Y22780D01*
X300880Y22255D01*
X299830D01*
X299305Y22780D01*
Y23829D01*
X299830Y24354D01*
X300880D01*
X301405Y23829D01*
X299305Y21205D02*
X301405Y20156D01*
X299305Y19106D01*
X301405Y16482D02*
Y17532D01*
X300880Y18057D01*
X299830D01*
X299305Y17532D01*
Y16482D01*
X299830Y15958D01*
X300355D01*
Y18057D01*
X305026Y77880D02*
X305551D01*
Y78405D01*
Y77355D01*
Y77880D01*
X307125D01*
X307650Y77355D01*
X304501Y75781D02*
X307650D01*
X306075D01*
X305551Y75256D01*
Y74207D01*
X306075Y73682D01*
X307650D01*
Y71058D02*
Y72107D01*
X307125Y72632D01*
X306075D01*
X305551Y72107D01*
Y71058D01*
X306075Y70533D01*
X306600D01*
Y72632D01*
X308699Y66335D02*
Y65810D01*
X308174Y65286D01*
X305551D01*
Y63187D02*
X307125D01*
X307650Y62662D01*
Y61088D01*
X305551D01*
X307650Y60038D02*
X305551D01*
Y59513D01*
X306075Y58988D01*
X307650D01*
X306075D01*
X305551Y58464D01*
X306075Y57939D01*
X307650D01*
X308699Y56889D02*
X305551D01*
Y55315D01*
X306075Y54790D01*
X307125D01*
X307650Y55315D01*
Y56889D01*
Y52166D02*
Y53216D01*
X307125Y53741D01*
X306075D01*
X305551Y53216D01*
Y52166D01*
X306075Y51642D01*
X306600D01*
Y53741D01*
X305551Y50592D02*
X307650D01*
X306600D01*
X306075Y50067D01*
X305551Y49543D01*
Y49018D01*
X307650Y43770D02*
X305026D01*
X306075D01*
Y44295D01*
Y43246D01*
Y43770D01*
X305026D01*
X304501Y43246D01*
X305551Y41671D02*
X307650D01*
X306600D01*
X306075Y41146D01*
X305551Y40622D01*
Y40097D01*
X307650Y37998D02*
Y36948D01*
X307125Y36424D01*
X306075D01*
X305551Y36948D01*
Y37998D01*
X306075Y38523D01*
X307125D01*
X307650Y37998D01*
Y35374D02*
X305551D01*
Y34849D01*
X306075Y34324D01*
X307650D01*
X306075D01*
X305551Y33800D01*
X306075Y33275D01*
X307650D01*
X305026Y28552D02*
X305551D01*
Y29077D01*
Y28027D01*
Y28552D01*
X307125D01*
X307650Y28027D01*
X305551Y26453D02*
X307125D01*
X307650Y25928D01*
X307125Y25403D01*
X307650Y24879D01*
X307125Y24354D01*
X305551D01*
X307650Y22780D02*
Y21730D01*
X307125Y21205D01*
X306075D01*
X305551Y21730D01*
Y22780D01*
X306075Y23304D01*
X307125D01*
X307650Y22780D01*
X314944Y64499D02*
X311796D01*
Y62924D01*
X312320Y62399D01*
X313370D01*
X313895Y62924D01*
Y64499D01*
Y61350D02*
Y60300D01*
Y60825D01*
X311796D01*
Y61350D01*
X313895Y58726D02*
X311796D01*
Y57152D01*
X312320Y56627D01*
X313895D01*
X310746Y52429D02*
X313895D01*
X312320D01*
X311796Y51904D01*
Y50855D01*
X312320Y50330D01*
X313895D01*
Y47706D02*
Y48755D01*
X313370Y49280D01*
X312320D01*
X311796Y48755D01*
Y47706D01*
X312320Y47181D01*
X312845D01*
Y49280D01*
X311796Y45607D02*
Y44557D01*
X312320Y44033D01*
X313895D01*
Y45607D01*
X313370Y46132D01*
X312845Y45607D01*
Y44033D01*
X310746Y40884D02*
X313895D01*
Y42458D01*
X313370Y42983D01*
X312320D01*
X311796Y42458D01*
Y40884D01*
X313895Y38260D02*
Y39310D01*
X313370Y39834D01*
X312320D01*
X311796Y39310D01*
Y38260D01*
X312320Y37735D01*
X312845D01*
Y39834D01*
X311796Y36686D02*
X313895D01*
X312845D01*
X312320Y36161D01*
X311796Y35636D01*
Y35112D01*
X87326Y33440D02*
X85227D01*
X86276D01*
Y30291D01*
X83652D02*
X82603D01*
X82078Y30816D01*
Y31865D01*
X82603Y32390D01*
X83652D01*
X84177Y31865D01*
Y30816D01*
X83652Y30291D01*
X77880D02*
X76306D01*
X75781Y30816D01*
X76306Y31341D01*
X77355D01*
X77880Y31865D01*
X77355Y32390D01*
X75781D01*
X73157Y30291D02*
X74207D01*
X74731Y30816D01*
Y31865D01*
X74207Y32390D01*
X73157D01*
X72632Y31865D01*
Y31341D01*
X74731D01*
X71583Y30291D02*
X70533D01*
X71058D01*
Y33440D01*
X71583D01*
X67385Y30291D02*
X68434D01*
X68959Y30816D01*
Y31865D01*
X68434Y32390D01*
X67385D01*
X66860Y31865D01*
Y31341D01*
X68959D01*
X63711Y32390D02*
X65286D01*
X65810Y31865D01*
Y30816D01*
X65286Y30291D01*
X63711D01*
X62137Y32915D02*
Y32390D01*
X62662D01*
X61612D01*
X62137D01*
Y30816D01*
X61612Y30291D01*
X56365Y32915D02*
Y32390D01*
X56889D01*
X55840D01*
X56365D01*
Y30816D01*
X55840Y30291D01*
X54265Y33440D02*
Y30291D01*
Y31865D01*
X53741Y32390D01*
X52691D01*
X52166Y31865D01*
Y30291D01*
X49543D02*
X50592D01*
X51117Y30816D01*
Y31865D01*
X50592Y32390D01*
X49543D01*
X49018Y31865D01*
Y31341D01*
X51117D01*
X42721Y33440D02*
Y30291D01*
X44295D01*
X44820Y30816D01*
Y31865D01*
X44295Y32390D01*
X42721D01*
X41146Y30291D02*
X40097D01*
X39572Y30816D01*
Y31865D01*
X40097Y32390D01*
X41146D01*
X41671Y31865D01*
Y30816D01*
X41146Y30291D01*
X37998Y32915D02*
Y32390D01*
X38523D01*
X37473D01*
X37998D01*
Y30816D01*
X37473Y30291D01*
X32750D02*
Y32390D01*
X32225D01*
X31701Y31865D01*
Y30291D01*
Y31865D01*
X31176Y32390D01*
X30651Y31865D01*
Y30291D01*
X29077D02*
X28027D01*
X27503Y30816D01*
Y31865D01*
X28027Y32390D01*
X29077D01*
X29602Y31865D01*
Y30816D01*
X29077Y30291D01*
X24354Y33440D02*
Y30291D01*
X25928D01*
X26453Y30816D01*
Y31865D01*
X25928Y32390D01*
X24354D01*
X21730Y30291D02*
X22780D01*
X23304Y30816D01*
Y31865D01*
X22780Y32390D01*
X21730D01*
X21205Y31865D01*
Y31341D01*
X23304D01*
X16482Y30291D02*
X15433D01*
X14908Y30816D01*
Y31865D01*
X15433Y32390D01*
X16482D01*
X17007Y31865D01*
Y30816D01*
X16482Y30291D01*
X13859Y32390D02*
Y30291D01*
Y31341D01*
X13334Y31865D01*
X12809Y32390D01*
X12284D01*
X83652Y28244D02*
Y25095D01*
X82078D01*
X81553Y25620D01*
Y26145D01*
Y26670D01*
X82078Y27195D01*
X83652D01*
X79979D02*
X78930D01*
X78405Y26670D01*
Y25095D01*
X79979D01*
X80504Y25620D01*
X79979Y26145D01*
X78405D01*
X77355Y27195D02*
Y25095D01*
Y26145D01*
X76830Y26670D01*
X76306Y27195D01*
X75781D01*
X71058Y25095D02*
Y27195D01*
X70533D01*
X70008Y26670D01*
Y25095D01*
Y26670D01*
X69484Y27195D01*
X68959Y26670D01*
Y25095D01*
X67385D02*
X66335D01*
X65810Y25620D01*
Y26670D01*
X66335Y27195D01*
X67385D01*
X67909Y26670D01*
Y25620D01*
X67385Y25095D01*
X62662Y28244D02*
Y25095D01*
X64236D01*
X64761Y25620D01*
Y26670D01*
X64236Y27195D01*
X62662D01*
X60038Y25095D02*
X61088D01*
X61612Y25620D01*
Y26670D01*
X61088Y27195D01*
X60038D01*
X59513Y26670D01*
Y26145D01*
X61612D01*
X55315Y24046D02*
Y27195D01*
X53741D01*
X53216Y26670D01*
Y25620D01*
X53741Y25095D01*
X55315D01*
X52166Y27195D02*
Y25620D01*
X51642Y25095D01*
X50067D01*
Y27195D01*
X48493Y27719D02*
Y27195D01*
X49018D01*
X47968D01*
X48493D01*
Y25620D01*
X47968Y25095D01*
X42721D02*
X41671D01*
X41146Y25620D01*
Y26670D01*
X41671Y27195D01*
X42721D01*
X43246Y26670D01*
Y25620D01*
X42721Y25095D01*
X40097Y27195D02*
Y25095D01*
Y26145D01*
X39572Y26670D01*
X39047Y27195D01*
X38523D01*
X33800D02*
Y25095D01*
Y26145D01*
X33275Y26670D01*
X32750Y27195D01*
X32225D01*
X29077Y25095D02*
X30126D01*
X30651Y25620D01*
Y26670D01*
X30126Y27195D01*
X29077D01*
X28552Y26670D01*
Y26145D01*
X30651D01*
X27503Y25095D02*
Y27195D01*
X26978D01*
X26453Y26670D01*
Y25095D01*
Y26670D01*
X25928Y27195D01*
X25403Y26670D01*
Y25095D01*
X23829D02*
X22780D01*
X22255Y25620D01*
Y26670D01*
X22780Y27195D01*
X23829D01*
X24354Y26670D01*
Y25620D01*
X23829Y25095D01*
X21205Y27195D02*
X20156Y25095D01*
X19106Y27195D01*
X16482Y25095D02*
X17532D01*
X18057Y25620D01*
Y26670D01*
X17532Y27195D01*
X16482D01*
X15958Y26670D01*
Y26145D01*
X18057D01*
X77880Y21474D02*
Y20949D01*
X78405D01*
X77355D01*
X77880D01*
Y19375D01*
X77355Y18850D01*
X75781Y21999D02*
Y18850D01*
Y20425D01*
X75256Y20949D01*
X74207D01*
X73682Y20425D01*
Y18850D01*
X71058D02*
X72107D01*
X72632Y19375D01*
Y20425D01*
X72107Y20949D01*
X71058D01*
X70533Y20425D01*
Y19900D01*
X72632D01*
X66335Y17801D02*
X65810D01*
X65286Y18326D01*
Y20949D01*
X63187D02*
Y19375D01*
X62662Y18850D01*
X61088D01*
Y20949D01*
X60038Y18850D02*
Y20949D01*
X59513D01*
X58988Y20425D01*
Y18850D01*
Y20425D01*
X58464Y20949D01*
X57939Y20425D01*
Y18850D01*
X56889Y17801D02*
Y20949D01*
X55315D01*
X54790Y20425D01*
Y19375D01*
X55315Y18850D01*
X56889D01*
X52166D02*
X53216D01*
X53741Y19375D01*
Y20425D01*
X53216Y20949D01*
X52166D01*
X51642Y20425D01*
Y19900D01*
X53741D01*
X50592Y20949D02*
Y18850D01*
Y19900D01*
X50067Y20425D01*
X49543Y20949D01*
X49018D01*
X43770Y18850D02*
Y21474D01*
Y20425D01*
X44295D01*
X43246D01*
X43770D01*
Y21474D01*
X43246Y21999D01*
X41671Y20949D02*
Y18850D01*
Y19900D01*
X41146Y20425D01*
X40622Y20949D01*
X40097D01*
X37998Y18850D02*
X36948D01*
X36424Y19375D01*
Y20425D01*
X36948Y20949D01*
X37998D01*
X38523Y20425D01*
Y19375D01*
X37998Y18850D01*
X35374D02*
Y20949D01*
X34849D01*
X34324Y20425D01*
Y18850D01*
Y20425D01*
X33800Y20949D01*
X33275Y20425D01*
Y18850D01*
X28552Y21474D02*
Y20949D01*
X29077D01*
X28027D01*
X28552D01*
Y19375D01*
X28027Y18850D01*
X26453Y20949D02*
Y19375D01*
X25928Y18850D01*
X25403Y19375D01*
X24879Y18850D01*
X24354Y19375D01*
Y20949D01*
X22780Y18850D02*
X21730D01*
X21205Y19375D01*
Y20425D01*
X21730Y20949D01*
X22780D01*
X23304Y20425D01*
Y19375D01*
X22780Y18850D01*
X64499Y11556D02*
Y14704D01*
X62924D01*
X62399Y14180D01*
Y13130D01*
X62924Y12605D01*
X64499D01*
X61350D02*
X60300D01*
X60825D01*
Y14704D01*
X61350D01*
X58726Y12605D02*
Y14704D01*
X57152D01*
X56627Y14180D01*
Y12605D01*
X52429Y15754D02*
Y12605D01*
Y14180D01*
X51904Y14704D01*
X50855D01*
X50330Y14180D01*
Y12605D01*
X47706D02*
X48755D01*
X49280Y13130D01*
Y14180D01*
X48755Y14704D01*
X47706D01*
X47181Y14180D01*
Y13655D01*
X49280D01*
X45607Y14704D02*
X44557D01*
X44033Y14180D01*
Y12605D01*
X45607D01*
X46132Y13130D01*
X45607Y13655D01*
X44033D01*
X40884Y15754D02*
Y12605D01*
X42458D01*
X42983Y13130D01*
Y14180D01*
X42458Y14704D01*
X40884D01*
X38260Y12605D02*
X39310D01*
X39834Y13130D01*
Y14180D01*
X39310Y14704D01*
X38260D01*
X37735Y14180D01*
Y13655D01*
X39834D01*
X36686Y14704D02*
Y12605D01*
Y13655D01*
X36161Y14180D01*
X35636Y14704D01*
X35112D01*
X362060Y87326D02*
Y85227D01*
Y86276D01*
X365209D01*
Y83652D02*
Y82603D01*
X364684Y82078D01*
X363635D01*
X363110Y82603D01*
Y83652D01*
X363635Y84177D01*
X364684D01*
X365209Y83652D01*
Y77880D02*
Y76306D01*
X364684Y75781D01*
X364159Y76306D01*
Y77355D01*
X363635Y77880D01*
X363110Y77355D01*
Y75781D01*
X365209Y73157D02*
Y74207D01*
X364684Y74731D01*
X363635D01*
X363110Y74207D01*
Y73157D01*
X363635Y72632D01*
X364159D01*
Y74731D01*
X365209Y71583D02*
Y70533D01*
Y71058D01*
X362060D01*
Y71583D01*
X365209Y67385D02*
Y68434D01*
X364684Y68959D01*
X363635D01*
X363110Y68434D01*
Y67385D01*
X363635Y66860D01*
X364159D01*
Y68959D01*
X363110Y63711D02*
Y65286D01*
X363635Y65810D01*
X364684D01*
X365209Y65286D01*
Y63711D01*
X362585Y62137D02*
X363110D01*
Y62662D01*
Y61612D01*
Y62137D01*
X364684D01*
X365209Y61612D01*
X362585Y56365D02*
X363110D01*
Y56889D01*
Y55840D01*
Y56365D01*
X364684D01*
X365209Y55840D01*
X362060Y54265D02*
X365209D01*
X363635D01*
X363110Y53741D01*
Y52691D01*
X363635Y52166D01*
X365209D01*
Y49543D02*
Y50592D01*
X364684Y51117D01*
X363635D01*
X363110Y50592D01*
Y49543D01*
X363635Y49018D01*
X364159D01*
Y51117D01*
X362060Y42721D02*
X365209D01*
Y44295D01*
X364684Y44820D01*
X363635D01*
X363110Y44295D01*
Y42721D01*
X365209Y41146D02*
Y40097D01*
X364684Y39572D01*
X363635D01*
X363110Y40097D01*
Y41146D01*
X363635Y41671D01*
X364684D01*
X365209Y41146D01*
X362585Y37998D02*
X363110D01*
Y38523D01*
Y37473D01*
Y37998D01*
X364684D01*
X365209Y37473D01*
Y32750D02*
X363110D01*
Y32225D01*
X363635Y31701D01*
X365209D01*
X363635D01*
X363110Y31176D01*
X363635Y30651D01*
X365209D01*
Y29077D02*
Y28027D01*
X364684Y27503D01*
X363635D01*
X363110Y28027D01*
Y29077D01*
X363635Y29602D01*
X364684D01*
X365209Y29077D01*
X362060Y24354D02*
X365209D01*
Y25928D01*
X364684Y26453D01*
X363635D01*
X363110Y25928D01*
Y24354D01*
X365209Y21730D02*
Y22780D01*
X364684Y23304D01*
X363635D01*
X363110Y22780D01*
Y21730D01*
X363635Y21205D01*
X364159D01*
Y23304D01*
X365209Y16482D02*
Y15433D01*
X364684Y14908D01*
X363635D01*
X363110Y15433D01*
Y16482D01*
X363635Y17007D01*
X364684D01*
X365209Y16482D01*
X363110Y13859D02*
X365209D01*
X364159D01*
X363635Y13334D01*
X363110Y12809D01*
Y12284D01*
X367256Y83652D02*
X370405D01*
Y82078D01*
X369880Y81553D01*
X369355D01*
X368830D01*
X368305Y82078D01*
Y83652D01*
Y79979D02*
Y78930D01*
X368830Y78405D01*
X370405D01*
Y79979D01*
X369880Y80504D01*
X369355Y79979D01*
Y78405D01*
X368305Y77355D02*
X370405D01*
X369355D01*
X368830Y76830D01*
X368305Y76306D01*
Y75781D01*
X370405Y71058D02*
X368305D01*
Y70533D01*
X368830Y70008D01*
X370405D01*
X368830D01*
X368305Y69484D01*
X368830Y68959D01*
X370405D01*
Y67385D02*
Y66335D01*
X369880Y65810D01*
X368830D01*
X368305Y66335D01*
Y67385D01*
X368830Y67909D01*
X369880D01*
X370405Y67385D01*
X367256Y62662D02*
X370405D01*
Y64236D01*
X369880Y64761D01*
X368830D01*
X368305Y64236D01*
Y62662D01*
X370405Y60038D02*
Y61088D01*
X369880Y61612D01*
X368830D01*
X368305Y61088D01*
Y60038D01*
X368830Y59513D01*
X369355D01*
Y61612D01*
X371454Y55315D02*
X368305D01*
Y53741D01*
X368830Y53216D01*
X369880D01*
X370405Y53741D01*
Y55315D01*
X368305Y52166D02*
X369880D01*
X370405Y51642D01*
Y50067D01*
X368305D01*
X367781Y48493D02*
X368305D01*
Y49018D01*
Y47968D01*
Y48493D01*
X369880D01*
X370405Y47968D01*
Y42721D02*
Y41671D01*
X369880Y41146D01*
X368830D01*
X368305Y41671D01*
Y42721D01*
X368830Y43246D01*
X369880D01*
X370405Y42721D01*
X368305Y40097D02*
X370405D01*
X369355D01*
X368830Y39572D01*
X368305Y39047D01*
Y38523D01*
Y33800D02*
X370405D01*
X369355D01*
X368830Y33275D01*
X368305Y32750D01*
Y32225D01*
X370405Y29077D02*
Y30126D01*
X369880Y30651D01*
X368830D01*
X368305Y30126D01*
Y29077D01*
X368830Y28552D01*
X369355D01*
Y30651D01*
X370405Y27503D02*
X368305D01*
Y26978D01*
X368830Y26453D01*
X370405D01*
X368830D01*
X368305Y25928D01*
X368830Y25403D01*
X370405D01*
Y23829D02*
Y22780D01*
X369880Y22255D01*
X368830D01*
X368305Y22780D01*
Y23829D01*
X368830Y24354D01*
X369880D01*
X370405Y23829D01*
X368305Y21205D02*
X370405Y20156D01*
X368305Y19106D01*
X370405Y16482D02*
Y17532D01*
X369880Y18057D01*
X368830D01*
X368305Y17532D01*
Y16482D01*
X368830Y15958D01*
X369355D01*
Y18057D01*
X374026Y77880D02*
X374551D01*
Y78405D01*
Y77355D01*
Y77880D01*
X376125D01*
X376650Y77355D01*
X373501Y75781D02*
X376650D01*
X375075D01*
X374551Y75256D01*
Y74207D01*
X375075Y73682D01*
X376650D01*
Y71058D02*
Y72107D01*
X376125Y72632D01*
X375075D01*
X374551Y72107D01*
Y71058D01*
X375075Y70533D01*
X375600D01*
Y72632D01*
X377699Y66335D02*
Y65810D01*
X377174Y65286D01*
X374551D01*
Y63187D02*
X376125D01*
X376650Y62662D01*
Y61088D01*
X374551D01*
X376650Y60038D02*
X374551D01*
Y59513D01*
X375075Y58988D01*
X376650D01*
X375075D01*
X374551Y58464D01*
X375075Y57939D01*
X376650D01*
X377699Y56889D02*
X374551D01*
Y55315D01*
X375075Y54790D01*
X376125D01*
X376650Y55315D01*
Y56889D01*
Y52166D02*
Y53216D01*
X376125Y53741D01*
X375075D01*
X374551Y53216D01*
Y52166D01*
X375075Y51642D01*
X375600D01*
Y53741D01*
X374551Y50592D02*
X376650D01*
X375600D01*
X375075Y50067D01*
X374551Y49543D01*
Y49018D01*
X376650Y43770D02*
X374026D01*
X375075D01*
Y44295D01*
Y43246D01*
Y43770D01*
X374026D01*
X373501Y43246D01*
X374551Y41671D02*
X376650D01*
X375600D01*
X375075Y41146D01*
X374551Y40622D01*
Y40097D01*
X376650Y37998D02*
Y36948D01*
X376125Y36424D01*
X375075D01*
X374551Y36948D01*
Y37998D01*
X375075Y38523D01*
X376125D01*
X376650Y37998D01*
Y35374D02*
X374551D01*
Y34849D01*
X375075Y34324D01*
X376650D01*
X375075D01*
X374551Y33800D01*
X375075Y33275D01*
X376650D01*
X374026Y28552D02*
X374551D01*
Y29077D01*
Y28027D01*
Y28552D01*
X376125D01*
X376650Y28027D01*
X374551Y26453D02*
X376125D01*
X376650Y25928D01*
X376125Y25403D01*
X376650Y24879D01*
X376125Y24354D01*
X374551D01*
X376650Y22780D02*
Y21730D01*
X376125Y21205D01*
X375075D01*
X374551Y21730D01*
Y22780D01*
X375075Y23304D01*
X376125D01*
X376650Y22780D01*
X383944Y64499D02*
X380796D01*
Y62924D01*
X381320Y62399D01*
X382370D01*
X382895Y62924D01*
Y64499D01*
Y61350D02*
Y60300D01*
Y60825D01*
X380796D01*
Y61350D01*
X382895Y58726D02*
X380796D01*
Y57152D01*
X381320Y56627D01*
X382895D01*
X379746Y52429D02*
X382895D01*
X381320D01*
X380796Y51904D01*
Y50855D01*
X381320Y50330D01*
X382895D01*
Y47706D02*
Y48755D01*
X382370Y49280D01*
X381320D01*
X380796Y48755D01*
Y47706D01*
X381320Y47181D01*
X381845D01*
Y49280D01*
X380796Y45607D02*
Y44557D01*
X381320Y44033D01*
X382895D01*
Y45607D01*
X382370Y46132D01*
X381845Y45607D01*
Y44033D01*
X379746Y40884D02*
X382895D01*
Y42458D01*
X382370Y42983D01*
X381320D01*
X380796Y42458D01*
Y40884D01*
X382895Y38260D02*
Y39310D01*
X382370Y39834D01*
X381320D01*
X380796Y39310D01*
Y38260D01*
X381320Y37735D01*
X381845D01*
Y39834D01*
X380796Y36686D02*
X382895D01*
X381845D01*
X381320Y36161D01*
X380796Y35636D01*
Y35112D01*
D63*
X368000Y288000D02*
Y293248D01*
X365376Y295871D01*
X362752Y293248D01*
Y288000D01*
Y291936D01*
X368000D01*
X360128Y288000D02*
Y289312D01*
X358817D01*
Y288000D01*
X360128D01*
X353569Y295871D02*
X350945D01*
X352257D01*
Y288000D01*
X353569D01*
X350945D01*
X347009D02*
Y289312D01*
X345697D01*
Y288000D01*
X347009D01*
X332578D02*
Y295871D01*
X328643D01*
X327331Y294560D01*
Y291936D01*
X328643Y290624D01*
X332578D01*
X319459Y294560D02*
X320771Y295871D01*
X323395D01*
X324707Y294560D01*
Y289312D01*
X323395Y288000D01*
X320771D01*
X319459Y289312D01*
X316835Y295871D02*
Y288000D01*
X312900D01*
X311588Y289312D01*
Y290624D01*
X312900Y291936D01*
X316835D01*
X312900D01*
X311588Y293248D01*
Y294560D01*
X312900Y295871D01*
X316835D01*
D64*
X368022Y154000D02*
X373007D01*
X375500Y151507D01*
X373007Y149015D01*
X368022D01*
Y146522D02*
X374254D01*
X375500Y145276D01*
Y142783D01*
X374254Y141537D01*
X368022D01*
X375500Y131566D02*
X368022D01*
X370515Y129074D01*
X368022Y126581D01*
X375500D01*
X368022Y119103D02*
Y124088D01*
X375500D01*
Y119103D01*
X371761Y124088D02*
Y121596D01*
X368022Y116611D02*
Y111625D01*
Y114118D01*
X375500D01*
X368022Y104147D02*
Y109133D01*
X375500D01*
Y104147D01*
X371761Y109133D02*
Y106640D01*
X375500Y101655D02*
X368022D01*
Y97916D01*
X369268Y96670D01*
X371761D01*
X373007Y97916D01*
Y101655D01*
Y99162D02*
X375500Y96670D01*
X299022Y154000D02*
X304007D01*
X306500Y151507D01*
X304007Y149015D01*
X299022D01*
Y146522D02*
X305254D01*
X306500Y145276D01*
Y142783D01*
X305254Y141537D01*
X299022D01*
X306500Y131566D02*
X299022D01*
X301515Y129074D01*
X299022Y126581D01*
X306500D01*
X299022Y119103D02*
Y124088D01*
X306500D01*
Y119103D01*
X302761Y124088D02*
Y121596D01*
X299022Y116611D02*
Y111625D01*
Y114118D01*
X306500D01*
X299022Y104147D02*
Y109133D01*
X306500D01*
Y104147D01*
X302761Y109133D02*
Y106640D01*
X306500Y101655D02*
X299022D01*
Y97916D01*
X300268Y96670D01*
X302761D01*
X304007Y97916D01*
Y101655D01*
Y99162D02*
X306500Y96670D01*
X154500Y297978D02*
Y292993D01*
X152007Y290500D01*
X149515Y292993D01*
Y297978D01*
X147022D02*
Y291746D01*
X145776Y290500D01*
X143283D01*
X142037Y291746D01*
Y297978D01*
X132066Y290500D02*
Y297978D01*
X129574Y295485D01*
X127081Y297978D01*
Y290500D01*
X119603Y297978D02*
X124588D01*
Y290500D01*
X119603D01*
X124588Y294239D02*
X122096D01*
X117111Y297978D02*
X112125D01*
X114618D01*
Y290500D01*
X104647Y297978D02*
X109633D01*
Y290500D01*
X104647D01*
X109633Y294239D02*
X107140D01*
X102155Y290500D02*
Y297978D01*
X98416D01*
X97170Y296732D01*
Y294239D01*
X98416Y292993D01*
X102155D01*
X99662D02*
X97170Y290500D01*
X154500Y230478D02*
Y225493D01*
X152007Y223000D01*
X149515Y225493D01*
Y230478D01*
X147022D02*
Y224246D01*
X145776Y223000D01*
X143283D01*
X142037Y224246D01*
Y230478D01*
X132066Y223000D02*
Y230478D01*
X129574Y227985D01*
X127081Y230478D01*
Y223000D01*
X119603Y230478D02*
X124588D01*
Y223000D01*
X119603D01*
X124588Y226739D02*
X122096D01*
X117111Y230478D02*
X112125D01*
X114618D01*
Y223000D01*
X104647Y230478D02*
X109633D01*
Y223000D01*
X104647D01*
X109633Y226739D02*
X107140D01*
X102155Y223000D02*
Y230478D01*
X98416D01*
X97170Y229232D01*
Y226739D01*
X98416Y225493D01*
X102155D01*
X99662D02*
X97170Y223000D01*
X154500Y163978D02*
Y158993D01*
X152007Y156500D01*
X149515Y158993D01*
Y163978D01*
X147022D02*
Y157746D01*
X145776Y156500D01*
X143283D01*
X142037Y157746D01*
Y163978D01*
X132066Y156500D02*
Y163978D01*
X129574Y161485D01*
X127081Y163978D01*
Y156500D01*
X119603Y163978D02*
X124588D01*
Y156500D01*
X119603D01*
X124588Y160239D02*
X122096D01*
X117111Y163978D02*
X112125D01*
X114618D01*
Y156500D01*
X104647Y163978D02*
X109633D01*
Y156500D01*
X104647D01*
X109633Y160239D02*
X107140D01*
X102155Y156500D02*
Y163978D01*
X98416D01*
X97170Y162732D01*
Y160239D01*
X98416Y158993D01*
X102155D01*
X99662D02*
X97170Y156500D01*
X154500Y95478D02*
Y90493D01*
X152007Y88000D01*
X149515Y90493D01*
Y95478D01*
X147022D02*
Y89246D01*
X145776Y88000D01*
X143283D01*
X142037Y89246D01*
Y95478D01*
X132066Y88000D02*
Y95478D01*
X129574Y92985D01*
X127081Y95478D01*
Y88000D01*
X119603Y95478D02*
X124588D01*
Y88000D01*
X119603D01*
X124588Y91739D02*
X122096D01*
X117111Y95478D02*
X112125D01*
X114618D01*
Y88000D01*
X104647Y95478D02*
X109633D01*
Y88000D01*
X104647D01*
X109633Y91739D02*
X107140D01*
X102155Y88000D02*
Y95478D01*
X98416D01*
X97170Y94232D01*
Y91739D01*
X98416Y90493D01*
X102155D01*
X99662D02*
X97170Y88000D01*
X154000Y27478D02*
Y22493D01*
X151507Y20000D01*
X149015Y22493D01*
Y27478D01*
X146522D02*
Y21246D01*
X145276Y20000D01*
X142783D01*
X141537Y21246D01*
Y27478D01*
X131566Y20000D02*
Y27478D01*
X129074Y24985D01*
X126581Y27478D01*
Y20000D01*
X119103Y27478D02*
X124088D01*
Y20000D01*
X119103D01*
X124088Y23739D02*
X121596D01*
X116611Y27478D02*
X111625D01*
X114118D01*
Y20000D01*
X104147Y27478D02*
X109133D01*
Y20000D01*
X104147D01*
X109133Y23739D02*
X106640D01*
X101655Y20000D02*
Y27478D01*
X97916D01*
X96670Y26232D01*
Y23739D01*
X97916Y22493D01*
X101655D01*
X99162D02*
X96670Y20000D01*
M02*
