G04 Layer_Color=8388736*
%FSLAX25Y25*%
%MOIN*%
G70*
G01*
G75*
%ADD43R,0.03950X0.55918*%
%ADD44R,1.34658X0.03950*%
%ADD45R,0.03950X2.44895*%
%ADD46R,0.03950X3.94501*%
%ADD47R,2.44895X0.03950*%
%ADD48R,2.44895X0.03556*%
%ADD49C,0.06706*%
%ADD50C,0.06737*%
%ADD51R,0.06737X0.06737*%
%ADD52R,0.06706X0.06706*%
%ADD53C,0.08280*%
%ADD54R,0.07887X0.07887*%
%ADD55R,0.07887X0.07887*%
%ADD56R,0.06706X0.06706*%
%ADD57C,0.08674*%
%ADD58R,0.08674X0.08674*%
%ADD59C,0.07887*%
%ADD60C,0.05910*%
%ADD61R,0.08674X0.08674*%
%ADD62C,0.05800*%
D43*
X168500Y369500D02*
D03*
X84000D02*
D03*
D44*
X326500Y255000D02*
D03*
D45*
X327500Y126000D02*
D03*
D46*
X255000Y201000D02*
D03*
D47*
X125500Y338000D02*
D03*
Y135500D02*
D03*
Y67500D02*
D03*
D48*
Y270500D02*
D03*
Y203500D02*
D03*
D49*
X245000Y345000D02*
D03*
Y375000D02*
D03*
X232000Y345000D02*
D03*
Y375000D02*
D03*
X184000Y346500D02*
D03*
X191500Y351500D02*
D03*
X184000Y356500D02*
D03*
X182500Y375500D02*
D03*
Y385500D02*
D03*
X209000Y352000D02*
D03*
X161000Y345000D02*
D03*
Y375000D02*
D03*
X148000Y345000D02*
D03*
Y375000D02*
D03*
X100000Y346500D02*
D03*
X107500Y351500D02*
D03*
X100000Y356500D02*
D03*
X98500Y375500D02*
D03*
Y385500D02*
D03*
X125000Y352000D02*
D03*
X76000Y345000D02*
D03*
Y375000D02*
D03*
X63000Y345000D02*
D03*
Y375000D02*
D03*
X15000Y346500D02*
D03*
X22500Y351500D02*
D03*
X15000Y356500D02*
D03*
X13500Y375500D02*
D03*
Y385500D02*
D03*
X40000Y352000D02*
D03*
X332000Y301000D02*
D03*
X362000D02*
D03*
Y338000D02*
D03*
X332000D02*
D03*
Y310500D02*
D03*
X362000D02*
D03*
X332000Y329500D02*
D03*
X362000D02*
D03*
X332000Y320500D02*
D03*
X362000D02*
D03*
X298500Y349500D02*
D03*
X291000Y354500D02*
D03*
X298500Y359500D02*
D03*
X318000Y349500D02*
D03*
X310500Y354500D02*
D03*
X318000Y359500D02*
D03*
X338000Y349500D02*
D03*
X330500Y354500D02*
D03*
X338000Y359500D02*
D03*
X357000Y349500D02*
D03*
X349500Y354500D02*
D03*
X357000Y359500D02*
D03*
X317500Y300000D02*
D03*
X307500D02*
D03*
X306000Y378000D02*
D03*
X329000Y378500D02*
D03*
X352000Y378000D02*
D03*
X378000Y350500D02*
D03*
Y327000D02*
D03*
Y304000D02*
D03*
X346000Y275500D02*
D03*
X321500Y276000D02*
D03*
X297500Y275500D02*
D03*
X275500Y309500D02*
D03*
X276000Y335000D02*
D03*
X275000Y360000D02*
D03*
X346500Y14500D02*
D03*
X363000Y198157D02*
D03*
X375000Y159500D02*
D03*
Y189500D02*
D03*
X384500Y159000D02*
D03*
Y189000D02*
D03*
X346500Y37500D02*
D03*
Y60500D02*
D03*
Y83500D02*
D03*
Y106500D02*
D03*
Y129500D02*
D03*
Y152500D02*
D03*
Y175500D02*
D03*
Y198500D02*
D03*
Y221500D02*
D03*
X364000Y159000D02*
D03*
Y189000D02*
D03*
X381000Y212500D02*
D03*
Y202500D02*
D03*
X388000Y21000D02*
D03*
Y31000D02*
D03*
Y41000D02*
D03*
Y51000D02*
D03*
Y61000D02*
D03*
Y71000D02*
D03*
Y81000D02*
D03*
Y91000D02*
D03*
X358000Y81000D02*
D03*
Y71000D02*
D03*
Y61000D02*
D03*
Y51000D02*
D03*
Y41000D02*
D03*
Y31000D02*
D03*
Y21000D02*
D03*
Y11000D02*
D03*
X277500Y14500D02*
D03*
X294000Y198157D02*
D03*
X306000Y159500D02*
D03*
Y189500D02*
D03*
X315500Y159000D02*
D03*
Y189000D02*
D03*
X277500Y37500D02*
D03*
Y60500D02*
D03*
Y83500D02*
D03*
Y106500D02*
D03*
Y129500D02*
D03*
Y152500D02*
D03*
Y175500D02*
D03*
Y198500D02*
D03*
Y221500D02*
D03*
X295000Y159000D02*
D03*
Y189000D02*
D03*
X312000Y212500D02*
D03*
Y202500D02*
D03*
X319000Y21000D02*
D03*
Y31000D02*
D03*
Y41000D02*
D03*
Y51000D02*
D03*
Y61000D02*
D03*
Y71000D02*
D03*
Y81000D02*
D03*
Y91000D02*
D03*
X289000Y81000D02*
D03*
Y71000D02*
D03*
Y61000D02*
D03*
Y51000D02*
D03*
Y41000D02*
D03*
Y31000D02*
D03*
Y21000D02*
D03*
Y11000D02*
D03*
X15000Y319500D02*
D03*
X198657Y303000D02*
D03*
X160000Y291000D02*
D03*
X190000D02*
D03*
X159500Y281500D02*
D03*
X189500D02*
D03*
X38000Y319500D02*
D03*
X61000D02*
D03*
X84000D02*
D03*
X107000D02*
D03*
X130000D02*
D03*
X153000D02*
D03*
X176000D02*
D03*
X199000D02*
D03*
X222000D02*
D03*
X159500Y302000D02*
D03*
X189500D02*
D03*
X213000Y285000D02*
D03*
X203000D02*
D03*
X21500Y278000D02*
D03*
X31500D02*
D03*
X41500D02*
D03*
X51500D02*
D03*
X61500D02*
D03*
X71500D02*
D03*
X81500D02*
D03*
X91500D02*
D03*
X81500Y308000D02*
D03*
X71500D02*
D03*
X61500D02*
D03*
X51500D02*
D03*
X41500D02*
D03*
X31500D02*
D03*
X21500D02*
D03*
X11500D02*
D03*
X15000Y252000D02*
D03*
X198657Y235500D02*
D03*
X160000Y223500D02*
D03*
X190000D02*
D03*
X159500Y214000D02*
D03*
X189500D02*
D03*
X38000Y252000D02*
D03*
X61000D02*
D03*
X84000D02*
D03*
X107000D02*
D03*
X130000D02*
D03*
X153000D02*
D03*
X176000D02*
D03*
X199000D02*
D03*
X222000D02*
D03*
X159500Y234500D02*
D03*
X189500D02*
D03*
X213000Y217500D02*
D03*
X203000D02*
D03*
X21500Y210500D02*
D03*
X31500D02*
D03*
X41500D02*
D03*
X51500D02*
D03*
X61500D02*
D03*
X71500D02*
D03*
X81500D02*
D03*
X91500D02*
D03*
X81500Y240500D02*
D03*
X71500D02*
D03*
X61500D02*
D03*
X51500D02*
D03*
X41500D02*
D03*
X31500D02*
D03*
X21500D02*
D03*
X11500D02*
D03*
X15000Y185500D02*
D03*
X198657Y169000D02*
D03*
X160000Y157000D02*
D03*
X190000D02*
D03*
X159500Y147500D02*
D03*
X189500D02*
D03*
X38000Y185500D02*
D03*
X61000D02*
D03*
X84000D02*
D03*
X107000D02*
D03*
X130000D02*
D03*
X153000D02*
D03*
X176000D02*
D03*
X199000D02*
D03*
X222000D02*
D03*
X159500Y168000D02*
D03*
X189500D02*
D03*
X213000Y151000D02*
D03*
X203000D02*
D03*
X21500Y144000D02*
D03*
X31500D02*
D03*
X41500D02*
D03*
X51500D02*
D03*
X61500D02*
D03*
X71500D02*
D03*
X81500D02*
D03*
X91500D02*
D03*
X81500Y174000D02*
D03*
X71500D02*
D03*
X61500D02*
D03*
X51500D02*
D03*
X41500D02*
D03*
X31500D02*
D03*
X21500D02*
D03*
X11500D02*
D03*
X15000Y117000D02*
D03*
X198657Y100500D02*
D03*
X160000Y88500D02*
D03*
X190000D02*
D03*
X159500Y79000D02*
D03*
X189500D02*
D03*
X38000Y117000D02*
D03*
X61000D02*
D03*
X84000D02*
D03*
X107000D02*
D03*
X130000D02*
D03*
X153000D02*
D03*
X176000D02*
D03*
X199000D02*
D03*
X222000D02*
D03*
X159500Y99500D02*
D03*
X189500D02*
D03*
X213000Y82500D02*
D03*
X203000D02*
D03*
X21500Y75500D02*
D03*
X31500D02*
D03*
X41500D02*
D03*
X51500D02*
D03*
X61500D02*
D03*
X71500D02*
D03*
X81500D02*
D03*
X91500D02*
D03*
X81500Y105500D02*
D03*
X71500D02*
D03*
X61500D02*
D03*
X51500D02*
D03*
X41500D02*
D03*
X31500D02*
D03*
X21500D02*
D03*
X11500D02*
D03*
X198157Y32500D02*
D03*
X212500Y14500D02*
D03*
X202500D02*
D03*
X159000Y31500D02*
D03*
X189000D02*
D03*
X21000Y7500D02*
D03*
X31000D02*
D03*
X41000D02*
D03*
X51000D02*
D03*
X61000D02*
D03*
X71000D02*
D03*
X81000D02*
D03*
X91000D02*
D03*
X81000Y37500D02*
D03*
X71000D02*
D03*
X61000D02*
D03*
X51000D02*
D03*
X41000D02*
D03*
X31000D02*
D03*
X21000D02*
D03*
X11000D02*
D03*
X159000Y11000D02*
D03*
X189000D02*
D03*
X159500Y20500D02*
D03*
X189500D02*
D03*
X221500Y49000D02*
D03*
X198500D02*
D03*
X175500D02*
D03*
X152500D02*
D03*
X129500D02*
D03*
X106500D02*
D03*
X83500D02*
D03*
X60500D02*
D03*
X37500D02*
D03*
X14500D02*
D03*
D50*
X200157Y393342D02*
D03*
X210000Y373657D02*
D03*
X116157Y393342D02*
D03*
X126000Y373657D02*
D03*
X31157Y393342D02*
D03*
X41000Y373657D02*
D03*
X313000Y337843D02*
D03*
X322843Y318157D02*
D03*
D51*
X219843Y393342D02*
D03*
X135843D02*
D03*
X50842D02*
D03*
X303157Y318157D02*
D03*
D52*
X209000Y362000D02*
D03*
X125000D02*
D03*
X40000D02*
D03*
X378000Y360500D02*
D03*
Y337000D02*
D03*
Y314000D02*
D03*
X275500Y299500D02*
D03*
X276000Y325000D02*
D03*
X275000Y350000D02*
D03*
X363000Y217843D02*
D03*
X294000D02*
D03*
X15000Y329500D02*
D03*
X38000D02*
D03*
X61000D02*
D03*
X84000D02*
D03*
X107000D02*
D03*
X130000D02*
D03*
X153000D02*
D03*
X176000D02*
D03*
X199000D02*
D03*
X222000D02*
D03*
X11500Y278000D02*
D03*
X15000Y262000D02*
D03*
X38000D02*
D03*
X61000D02*
D03*
X84000D02*
D03*
X107000D02*
D03*
X130000D02*
D03*
X153000D02*
D03*
X176000D02*
D03*
X199000D02*
D03*
X222000D02*
D03*
X11500Y210500D02*
D03*
X15000Y195500D02*
D03*
X38000D02*
D03*
X61000D02*
D03*
X84000D02*
D03*
X107000D02*
D03*
X130000D02*
D03*
X153000D02*
D03*
X176000D02*
D03*
X199000D02*
D03*
X222000D02*
D03*
X11500Y144000D02*
D03*
X15000Y127000D02*
D03*
X38000D02*
D03*
X61000D02*
D03*
X84000D02*
D03*
X107000D02*
D03*
X130000D02*
D03*
X153000D02*
D03*
X176000D02*
D03*
X199000D02*
D03*
X222000D02*
D03*
X11500Y75500D02*
D03*
X11000Y7500D02*
D03*
X221500Y59000D02*
D03*
X198500D02*
D03*
X175500D02*
D03*
X152500D02*
D03*
X129500D02*
D03*
X106500D02*
D03*
X83500D02*
D03*
X60500D02*
D03*
X37500D02*
D03*
X14500D02*
D03*
D53*
X234000Y389000D02*
D03*
X150000D02*
D03*
X65000D02*
D03*
X380000Y274000D02*
D03*
D54*
X244000Y389000D02*
D03*
X160000D02*
D03*
X75000D02*
D03*
X241000Y284000D02*
D03*
Y301500D02*
D03*
Y216500D02*
D03*
Y234000D02*
D03*
Y150000D02*
D03*
Y167500D02*
D03*
Y81500D02*
D03*
Y99000D02*
D03*
X240500Y31000D02*
D03*
Y13500D02*
D03*
D55*
X380000Y284000D02*
D03*
X382000Y240500D02*
D03*
X364500D02*
D03*
X313000D02*
D03*
X295500D02*
D03*
D56*
X296000Y378000D02*
D03*
X319000Y378500D02*
D03*
X342000Y378000D02*
D03*
X356000Y275500D02*
D03*
X331500Y276000D02*
D03*
X307500Y275500D02*
D03*
X336500Y14500D02*
D03*
Y37500D02*
D03*
Y60500D02*
D03*
Y83500D02*
D03*
Y106500D02*
D03*
Y129500D02*
D03*
Y152500D02*
D03*
Y175500D02*
D03*
Y198500D02*
D03*
Y221500D02*
D03*
X388000Y11000D02*
D03*
X267500Y14500D02*
D03*
Y37500D02*
D03*
Y60500D02*
D03*
Y83500D02*
D03*
Y106500D02*
D03*
Y129500D02*
D03*
Y152500D02*
D03*
Y175500D02*
D03*
Y198500D02*
D03*
Y221500D02*
D03*
X319000Y11000D02*
D03*
X218343Y303000D02*
D03*
Y235500D02*
D03*
Y169000D02*
D03*
Y100500D02*
D03*
X217843Y32500D02*
D03*
D57*
X362500Y104909D02*
D03*
X381000Y105409D02*
D03*
X293500Y104909D02*
D03*
X312000Y105409D02*
D03*
X105409Y303500D02*
D03*
X105909Y285000D02*
D03*
X105409Y236000D02*
D03*
X105909Y217500D02*
D03*
X105409Y169500D02*
D03*
X105909Y151000D02*
D03*
X105409Y101000D02*
D03*
X105909Y82500D02*
D03*
X104909Y33000D02*
D03*
X105409Y14500D02*
D03*
D58*
X362500Y146091D02*
D03*
X381000Y146591D02*
D03*
X293500Y146091D02*
D03*
X312000Y146591D02*
D03*
D59*
X382000Y230500D02*
D03*
X364500D02*
D03*
X313000D02*
D03*
X295500D02*
D03*
X231000Y284000D02*
D03*
Y301500D02*
D03*
Y216500D02*
D03*
Y234000D02*
D03*
Y150000D02*
D03*
Y167500D02*
D03*
Y81500D02*
D03*
Y99000D02*
D03*
X230500Y31000D02*
D03*
Y13500D02*
D03*
D60*
X358000Y91000D02*
D03*
X289000D02*
D03*
X91500Y308000D02*
D03*
Y240500D02*
D03*
Y174000D02*
D03*
Y105500D02*
D03*
X91000Y37500D02*
D03*
D61*
X146591Y303500D02*
D03*
X147091Y285000D02*
D03*
X146591Y236000D02*
D03*
X147091Y217500D02*
D03*
X146591Y169500D02*
D03*
X147091Y151000D02*
D03*
X146591Y101000D02*
D03*
X147091Y82500D02*
D03*
X146091Y33000D02*
D03*
X146591Y14500D02*
D03*
D62*
X362500Y134600D02*
D03*
X293500D02*
D03*
X135100Y303500D02*
D03*
Y236000D02*
D03*
Y169500D02*
D03*
Y101000D02*
D03*
X134600Y33000D02*
D03*
M02*
