M48
;Layer_Color=9474304
;FILE_FORMAT=2:5
INCH,LZ
;TYPE=PLATED
T2F00S00C0.02756
T5F00S00C0.03150
%
G90
G05
T02
G00X0004831Y02035
M15
G01X0246169
M16
G00X0004831Y02705
M15
G01X0246169
M16
T05
G00X03275Y0005528
M15
G01Y0246472
M16
G00X0255Y0005724
M15
G01Y0396276
M16
G00X0005028Y01355
M15
G01X0245972
M16
G00X0005028Y00675
M15
G01X0245972
M16
G00X0005028Y0338
M15
G01X0245972
M16
G00X0261146Y0255
M15
G01X0391854
M16
G00X01685Y0343516
M15
G01Y0395484
M16
G00X0084Y0343516
M15
G01Y0395484
M16
M30
