G04 Layer_Color=65535*
%FSLAX25Y25*%
%MOIN*%
G70*
G01*
G75*
%ADD31C,0.00787*%
%ADD32C,0.00600*%
%ADD33C,0.01000*%
%ADD34C,0.00500*%
%ADD35C,0.00906*%
%ADD36C,0.01181*%
%ADD37C,0.00394*%
%ADD38C,0.01575*%
%ADD39C,0.00591*%
%ADD40C,0.00512*%
%ADD41R,0.11024X0.03150*%
%ADD42R,0.03150X0.11024*%
D31*
X226929Y393342D02*
G03*
X226929Y393342I-394J0D01*
G01*
X142929D02*
G03*
X142929Y393342I-394J0D01*
G01*
X57929D02*
G03*
X57929Y393342I-394J0D01*
G01*
X296858Y318158D02*
G03*
X296858Y318158I-394J0D01*
G01*
X366274Y200839D02*
G03*
X367232Y214640I-3274J7161D01*
G01*
X358768D02*
G03*
X359726Y200839I4232J-6640D01*
G01*
X394063Y11000D02*
G03*
X394063Y11000I-394J0D01*
G01*
X297274Y200839D02*
G03*
X298232Y214640I-3274J7161D01*
G01*
X289768D02*
G03*
X290726Y200839I4232J-6640D01*
G01*
X325063Y11000D02*
G03*
X325063Y11000I-394J0D01*
G01*
X201339Y299726D02*
G03*
X215140Y298768I7161J3274D01*
G01*
Y307232D02*
G03*
X201339Y306274I-6640J-4232D01*
G01*
X11894Y272331D02*
G03*
X11894Y272331I-394J0D01*
G01*
X201339Y232226D02*
G03*
X215140Y231268I7161J3274D01*
G01*
Y239732D02*
G03*
X201339Y238774I-6640J-4232D01*
G01*
X11894Y204831D02*
G03*
X11894Y204831I-394J0D01*
G01*
X201339Y165726D02*
G03*
X215140Y164768I7161J3274D01*
G01*
Y173232D02*
G03*
X201339Y172274I-6640J-4232D01*
G01*
X11894Y138331D02*
G03*
X11894Y138331I-394J0D01*
G01*
X201339Y97226D02*
G03*
X215140Y96268I7161J3274D01*
G01*
Y104732D02*
G03*
X201339Y103774I-6640J-4232D01*
G01*
X11894Y69831D02*
G03*
X11894Y69831I-394J0D01*
G01*
X200839Y29226D02*
G03*
X214640Y28268I7161J3274D01*
G01*
Y36732D02*
G03*
X200839Y35774I-6640J-4232D01*
G01*
X11394Y1831D02*
G03*
X11394Y1831I-394J0D01*
G01*
X245000Y370000D02*
Y370900D01*
Y349100D02*
Y350000D01*
Y370000D02*
X248000D01*
Y350000D02*
Y370000D01*
X242000Y350000D02*
X248000D01*
X242000D02*
Y370000D01*
X245000D01*
X232000D02*
Y370900D01*
Y349100D02*
Y350000D01*
Y370000D02*
X235000D01*
Y350000D02*
Y370000D01*
X229000Y350000D02*
X235000D01*
X229000D02*
Y370000D01*
X232000D01*
X229000Y384000D02*
X249000D01*
Y394000D01*
X229000D02*
X249000D01*
X229000Y384000D02*
Y394000D01*
X161000Y370000D02*
Y370900D01*
Y349100D02*
Y350000D01*
Y370000D02*
X164000D01*
Y350000D02*
Y370000D01*
X158000Y350000D02*
X164000D01*
X158000D02*
Y370000D01*
X161000D01*
X148000D02*
Y370900D01*
Y349100D02*
Y350000D01*
Y370000D02*
X151000D01*
Y350000D02*
Y370000D01*
X145000Y350000D02*
X151000D01*
X145000D02*
Y370000D01*
X148000D01*
X145000Y384000D02*
X165000D01*
Y394000D01*
X145000D02*
X165000D01*
X145000Y384000D02*
Y394000D01*
X76000Y370000D02*
Y370900D01*
Y349100D02*
Y350000D01*
Y370000D02*
X79000D01*
Y350000D02*
Y370000D01*
X73000Y350000D02*
X79000D01*
X73000D02*
Y370000D01*
X76000D01*
X63000D02*
Y370900D01*
Y349100D02*
Y350000D01*
Y370000D02*
X66000D01*
Y350000D02*
Y370000D01*
X60000Y350000D02*
X66000D01*
X60000D02*
Y370000D01*
X63000D01*
X60000Y384000D02*
X80000D01*
Y394000D01*
X60000D02*
X80000D01*
X60000Y384000D02*
Y394000D01*
X337000Y298000D02*
Y301000D01*
Y298000D02*
X357000D01*
Y304000D01*
X337000D02*
X357000D01*
X337000Y301000D02*
Y304000D01*
X357000Y301000D02*
X357900D01*
X336100D02*
X337000D01*
X357000Y338000D02*
Y341000D01*
X337000D02*
X357000D01*
X337000Y335000D02*
Y341000D01*
Y335000D02*
X357000D01*
Y338000D01*
X336100D02*
X337000D01*
X357000D02*
X357900D01*
X337000Y307500D02*
Y310500D01*
Y307500D02*
X357000D01*
Y313500D01*
X337000D02*
X357000D01*
X337000Y310500D02*
Y313500D01*
X357000Y310500D02*
X357900D01*
X336100D02*
X337000D01*
Y326500D02*
Y329500D01*
Y326500D02*
X357000D01*
Y332500D01*
X337000D02*
X357000D01*
X337000Y329500D02*
Y332500D01*
X357000Y329500D02*
X357900D01*
X336100D02*
X337000D01*
Y317500D02*
Y320500D01*
Y317500D02*
X357000D01*
Y323500D01*
X337000D02*
X357000D01*
X337000Y320500D02*
Y323500D01*
X357000Y320500D02*
X357900D01*
X336100D02*
X337000D01*
X375000Y269000D02*
X385000D01*
X375000D02*
Y289000D01*
X385000D01*
Y269000D02*
Y289000D01*
X356988Y115067D02*
X368012D01*
X356988D02*
Y135933D01*
X368012Y115067D02*
Y135933D01*
X375488Y115567D02*
X386512D01*
X375488D02*
Y136433D01*
X386512Y115567D02*
Y136433D01*
X375000Y164500D02*
X378000D01*
Y184500D01*
X372000D02*
X378000D01*
X372000Y164500D02*
Y184500D01*
Y164500D02*
X375000D01*
Y184500D02*
Y185400D01*
Y163600D02*
Y164500D01*
X384500Y164000D02*
X387500D01*
Y184000D01*
X381500D02*
X387500D01*
X381500Y164000D02*
Y184000D01*
Y164000D02*
X384500D01*
Y184000D02*
Y184900D01*
Y163100D02*
Y164000D01*
X364000D02*
X367000D01*
Y184000D01*
X361000D02*
X367000D01*
X361000Y164000D02*
Y184000D01*
Y164000D02*
X364000D01*
Y184000D02*
Y184900D01*
Y163100D02*
Y164000D01*
X377000Y225500D02*
X387000D01*
X377000D02*
Y245500D01*
X387000D01*
Y225500D02*
Y245500D01*
X376000Y197500D02*
X386000D01*
X376000D02*
Y217500D01*
X386000D01*
Y197500D02*
Y217500D01*
X359500Y225500D02*
X369500D01*
X359500D02*
Y245500D01*
X369500D01*
Y225500D02*
Y245500D01*
X287988Y115067D02*
X299012D01*
X287988D02*
Y135933D01*
X299012Y115067D02*
Y135933D01*
X306488Y115567D02*
X317512D01*
X306488D02*
Y136433D01*
X317512Y115567D02*
Y136433D01*
X306000Y164500D02*
X309000D01*
Y184500D01*
X303000D02*
X309000D01*
X303000Y164500D02*
Y184500D01*
Y164500D02*
X306000D01*
Y184500D02*
Y185400D01*
Y163600D02*
Y164500D01*
X315500Y164000D02*
X318500D01*
Y184000D01*
X312500D02*
X318500D01*
X312500Y164000D02*
Y184000D01*
Y164000D02*
X315500D01*
Y184000D02*
Y184900D01*
Y163100D02*
Y164000D01*
X295000D02*
X298000D01*
Y184000D01*
X292000D02*
X298000D01*
X292000Y164000D02*
Y184000D01*
Y164000D02*
X295000D01*
Y184000D02*
Y184900D01*
Y163100D02*
Y164000D01*
X308000Y225500D02*
X318000D01*
X308000D02*
Y245500D01*
X318000D01*
Y225500D02*
Y245500D01*
X307000Y197500D02*
X317000D01*
X307000D02*
Y217500D01*
X317000D01*
Y197500D02*
Y217500D01*
X290500Y225500D02*
X300500D01*
X290500D02*
Y245500D01*
X300500D01*
Y225500D02*
Y245500D01*
X115567Y297988D02*
Y309012D01*
X136433D01*
X115567Y297988D02*
X136433D01*
X116067Y279488D02*
Y290512D01*
X136933D01*
X116067Y279488D02*
X136933D01*
X165000Y288000D02*
Y291000D01*
Y288000D02*
X185000D01*
Y294000D01*
X165000D02*
X185000D01*
X165000Y291000D02*
Y294000D01*
X185000Y291000D02*
X185900D01*
X164100D02*
X165000D01*
X164500Y278500D02*
Y281500D01*
Y278500D02*
X184500D01*
Y284500D01*
X164500D02*
X184500D01*
X164500Y281500D02*
Y284500D01*
X184500Y281500D02*
X185400D01*
X163600D02*
X164500D01*
Y299000D02*
Y302000D01*
Y299000D02*
X184500D01*
Y305000D01*
X164500D02*
X184500D01*
X164500Y302000D02*
Y305000D01*
X184500Y302000D02*
X185400D01*
X163600D02*
X164500D01*
X226000Y279000D02*
Y289000D01*
X246000D01*
Y279000D02*
Y289000D01*
X226000Y279000D02*
X246000D01*
X198000Y280000D02*
Y290000D01*
X218000D01*
Y280000D02*
Y290000D01*
X198000Y280000D02*
X218000D01*
X226000Y296500D02*
Y306500D01*
X246000D01*
Y296500D02*
Y306500D01*
X226000Y296500D02*
X246000D01*
X115567Y230488D02*
Y241512D01*
X136433D01*
X115567Y230488D02*
X136433D01*
X116067Y211988D02*
Y223012D01*
X136933D01*
X116067Y211988D02*
X136933D01*
X165000Y220500D02*
Y223500D01*
Y220500D02*
X185000D01*
Y226500D01*
X165000D02*
X185000D01*
X165000Y223500D02*
Y226500D01*
X185000Y223500D02*
X185900D01*
X164100D02*
X165000D01*
X164500Y211000D02*
Y214000D01*
Y211000D02*
X184500D01*
Y217000D01*
X164500D02*
X184500D01*
X164500Y214000D02*
Y217000D01*
X184500Y214000D02*
X185400D01*
X163600D02*
X164500D01*
Y231500D02*
Y234500D01*
Y231500D02*
X184500D01*
Y237500D01*
X164500D02*
X184500D01*
X164500Y234500D02*
Y237500D01*
X184500Y234500D02*
X185400D01*
X163600D02*
X164500D01*
X226000Y211500D02*
Y221500D01*
X246000D01*
Y211500D02*
Y221500D01*
X226000Y211500D02*
X246000D01*
X198000Y212500D02*
Y222500D01*
X218000D01*
Y212500D02*
Y222500D01*
X198000Y212500D02*
X218000D01*
X226000Y229000D02*
Y239000D01*
X246000D01*
Y229000D02*
Y239000D01*
X226000Y229000D02*
X246000D01*
X115567Y163988D02*
Y175012D01*
X136433D01*
X115567Y163988D02*
X136433D01*
X116067Y145488D02*
Y156512D01*
X136933D01*
X116067Y145488D02*
X136933D01*
X165000Y154000D02*
Y157000D01*
Y154000D02*
X185000D01*
Y160000D01*
X165000D02*
X185000D01*
X165000Y157000D02*
Y160000D01*
X185000Y157000D02*
X185900D01*
X164100D02*
X165000D01*
X164500Y144500D02*
Y147500D01*
Y144500D02*
X184500D01*
Y150500D01*
X164500D02*
X184500D01*
X164500Y147500D02*
Y150500D01*
X184500Y147500D02*
X185400D01*
X163600D02*
X164500D01*
Y165000D02*
Y168000D01*
Y165000D02*
X184500D01*
Y171000D01*
X164500D02*
X184500D01*
X164500Y168000D02*
Y171000D01*
X184500Y168000D02*
X185400D01*
X163600D02*
X164500D01*
X226000Y145000D02*
Y155000D01*
X246000D01*
Y145000D02*
Y155000D01*
X226000Y145000D02*
X246000D01*
X198000Y146000D02*
Y156000D01*
X218000D01*
Y146000D02*
Y156000D01*
X198000Y146000D02*
X218000D01*
X226000Y162500D02*
Y172500D01*
X246000D01*
Y162500D02*
Y172500D01*
X226000Y162500D02*
X246000D01*
X115567Y95488D02*
Y106512D01*
X136433D01*
X115567Y95488D02*
X136433D01*
X116067Y76988D02*
Y88012D01*
X136933D01*
X116067Y76988D02*
X136933D01*
X165000Y85500D02*
Y88500D01*
Y85500D02*
X185000D01*
Y91500D01*
X165000D02*
X185000D01*
X165000Y88500D02*
Y91500D01*
X185000Y88500D02*
X185900D01*
X164100D02*
X165000D01*
X164500Y76000D02*
Y79000D01*
Y76000D02*
X184500D01*
Y82000D01*
X164500D02*
X184500D01*
X164500Y79000D02*
Y82000D01*
X184500Y79000D02*
X185400D01*
X163600D02*
X164500D01*
Y96500D02*
Y99500D01*
Y96500D02*
X184500D01*
Y102500D01*
X164500D02*
X184500D01*
X164500Y99500D02*
Y102500D01*
X184500Y99500D02*
X185400D01*
X163600D02*
X164500D01*
X226000Y76500D02*
Y86500D01*
X246000D01*
Y76500D02*
Y86500D01*
X226000Y76500D02*
X246000D01*
X198000Y77500D02*
Y87500D01*
X218000D01*
Y77500D02*
Y87500D01*
X198000Y77500D02*
X218000D01*
X226000Y94000D02*
Y104000D01*
X246000D01*
Y94000D02*
Y104000D01*
X226000Y94000D02*
X246000D01*
X225500Y26000D02*
Y36000D01*
X245500D01*
Y26000D02*
Y36000D01*
X225500Y26000D02*
X245500D01*
X225500Y8500D02*
Y18500D01*
X245500D01*
Y8500D02*
Y18500D01*
X225500Y8500D02*
X245500D01*
X197500Y9500D02*
Y19500D01*
X217500D01*
Y9500D02*
Y19500D01*
X197500Y9500D02*
X217500D01*
X164000Y28500D02*
Y31500D01*
Y28500D02*
X184000D01*
Y34500D01*
X164000D02*
X184000D01*
X164000Y31500D02*
Y34500D01*
X184000Y31500D02*
X184900D01*
X163100D02*
X164000D01*
Y8000D02*
Y11000D01*
Y8000D02*
X184000D01*
Y14000D01*
X164000D02*
X184000D01*
X164000Y11000D02*
Y14000D01*
X184000Y11000D02*
X184900D01*
X163100D02*
X164000D01*
X164500Y17500D02*
Y20500D01*
Y17500D02*
X184500D01*
Y23500D01*
X164500D02*
X184500D01*
X164500Y20500D02*
Y23500D01*
X184500Y20500D02*
X185400D01*
X163600D02*
X164500D01*
X115067Y27488D02*
Y38512D01*
X135933D01*
X115067Y27488D02*
X135933D01*
X115567Y8988D02*
Y20012D01*
X136433D01*
X115567Y8988D02*
X136433D01*
X243000Y363500D02*
Y362188D01*
Y362844D01*
X246936D01*
X246280Y363500D01*
X246936Y360220D02*
X243000D01*
X244312D01*
X246936Y357596D01*
X244968Y359564D01*
X243000Y357596D01*
X175000Y397116D02*
Y392000D01*
X178411D01*
X180116Y397116D02*
Y392000D01*
X182675D01*
X183527Y392853D01*
Y396264D01*
X182675Y397116D01*
X180116D01*
X185233Y392000D02*
Y397116D01*
X187791D01*
X188644Y396264D01*
Y394558D01*
X187791Y393706D01*
X185233D01*
X186938D02*
X188644Y392000D01*
X211000Y394500D02*
Y392926D01*
Y393713D01*
X215723D01*
X214936Y394500D01*
Y390564D02*
X215723Y389777D01*
Y388203D01*
X214936Y387416D01*
X211787D01*
X211000Y388203D01*
Y389777D01*
X211787Y390564D01*
X214936D01*
Y385841D02*
X215723Y385054D01*
Y383480D01*
X214936Y382693D01*
X211787D01*
X211000Y383480D01*
Y385054D01*
X211787Y385841D01*
X214936D01*
X215723Y381118D02*
X211000D01*
X212574D01*
X215723Y377970D01*
X213361Y380331D01*
X211000Y377970D01*
X176329Y363500D02*
X172000D01*
Y361335D01*
X172722Y360614D01*
X173443D01*
X174165Y361335D01*
Y363500D01*
Y361335D01*
X174886Y360614D01*
X175608D01*
X176329Y361335D01*
Y363500D01*
X175608Y356284D02*
X176329Y357006D01*
Y358449D01*
X175608Y359171D01*
X172722D01*
X172000Y358449D01*
Y357006D01*
X172722Y356284D01*
X176329Y351955D02*
Y354841D01*
X174165D01*
X174886Y353398D01*
Y352677D01*
X174165Y351955D01*
X172722D01*
X172000Y352677D01*
Y354120D01*
X172722Y354841D01*
X172000Y348347D02*
X176329D01*
X174165Y350512D01*
Y347626D01*
X176329Y346183D02*
Y343297D01*
X175608D01*
X172722Y346183D01*
X172000D01*
X204500Y395500D02*
X207649D01*
Y393926D01*
X207124Y393401D01*
X206074D01*
X205550Y393926D01*
Y395500D01*
X204500Y392351D02*
X207649D01*
Y390777D01*
X207124Y390252D01*
X206074D01*
X205550Y390777D01*
Y392351D01*
Y391302D02*
X204500Y390252D01*
X207649Y387104D02*
Y389203D01*
X204500D01*
Y387104D01*
X206074Y389203D02*
Y388153D01*
X207124Y383955D02*
X207649Y384480D01*
Y385529D01*
X207124Y386054D01*
X206599D01*
X206074Y385529D01*
Y384480D01*
X205550Y383955D01*
X205025D01*
X204500Y384480D01*
Y385529D01*
X205025Y386054D01*
X207649Y380807D02*
Y382906D01*
X204500D01*
Y380807D01*
X206074Y382906D02*
Y381856D01*
X207649Y379757D02*
Y377658D01*
Y378708D01*
X204500D01*
X230000Y363500D02*
Y362188D01*
Y362844D01*
X233936D01*
X233280Y363500D01*
X233936Y360220D02*
X230000D01*
X231312D01*
X233936Y357596D01*
X231968Y359564D01*
X230000Y357596D01*
X159000Y363500D02*
Y362188D01*
Y362844D01*
X162936D01*
X162280Y363500D01*
X162936Y360220D02*
X159000D01*
X160312D01*
X162936Y357596D01*
X160968Y359564D01*
X159000Y357596D01*
X91000Y397116D02*
Y392000D01*
X94411D01*
X96117Y397116D02*
Y392000D01*
X98675D01*
X99527Y392853D01*
Y396264D01*
X98675Y397116D01*
X96117D01*
X101233Y392000D02*
Y397116D01*
X103791D01*
X104644Y396264D01*
Y394558D01*
X103791Y393706D01*
X101233D01*
X102938D02*
X104644Y392000D01*
X127000Y394500D02*
Y392926D01*
Y393713D01*
X131723D01*
X130936Y394500D01*
Y390564D02*
X131723Y389777D01*
Y388203D01*
X130936Y387416D01*
X127787D01*
X127000Y388203D01*
Y389777D01*
X127787Y390564D01*
X130936D01*
Y385841D02*
X131723Y385054D01*
Y383480D01*
X130936Y382693D01*
X127787D01*
X127000Y383480D01*
Y385054D01*
X127787Y385841D01*
X130936D01*
X131723Y381118D02*
X127000D01*
X128574D01*
X131723Y377970D01*
X129361Y380331D01*
X127000Y377970D01*
X92329Y363500D02*
X88000D01*
Y361335D01*
X88722Y360614D01*
X89443D01*
X90165Y361335D01*
Y363500D01*
Y361335D01*
X90886Y360614D01*
X91608D01*
X92329Y361335D01*
Y363500D01*
X91608Y356284D02*
X92329Y357006D01*
Y358449D01*
X91608Y359171D01*
X88722D01*
X88000Y358449D01*
Y357006D01*
X88722Y356284D01*
X92329Y351955D02*
Y354841D01*
X90165D01*
X90886Y353398D01*
Y352677D01*
X90165Y351955D01*
X88722D01*
X88000Y352677D01*
Y354120D01*
X88722Y354841D01*
X88000Y348347D02*
X92329D01*
X90165Y350512D01*
Y347626D01*
X92329Y346183D02*
Y343297D01*
X91608D01*
X88722Y346183D01*
X88000D01*
X120500Y395500D02*
X123649D01*
Y393926D01*
X123124Y393401D01*
X122074D01*
X121549Y393926D01*
Y395500D01*
X120500Y392351D02*
X123649D01*
Y390777D01*
X123124Y390252D01*
X122074D01*
X121549Y390777D01*
Y392351D01*
Y391302D02*
X120500Y390252D01*
X123649Y387104D02*
Y389203D01*
X120500D01*
Y387104D01*
X122074Y389203D02*
Y388153D01*
X123124Y383955D02*
X123649Y384480D01*
Y385529D01*
X123124Y386054D01*
X122599D01*
X122074Y385529D01*
Y384480D01*
X121549Y383955D01*
X121025D01*
X120500Y384480D01*
Y385529D01*
X121025Y386054D01*
X123649Y380807D02*
Y382906D01*
X120500D01*
Y380807D01*
X122074Y382906D02*
Y381856D01*
X123649Y379757D02*
Y377658D01*
Y378708D01*
X120500D01*
X146000Y363500D02*
Y362188D01*
Y362844D01*
X149936D01*
X149280Y363500D01*
X149936Y360220D02*
X146000D01*
X147312D01*
X149936Y357596D01*
X147968Y359564D01*
X146000Y357596D01*
X74000Y363500D02*
Y362188D01*
Y362844D01*
X77936D01*
X77280Y363500D01*
X77936Y360220D02*
X74000D01*
X75312D01*
X77936Y357596D01*
X75968Y359564D01*
X74000Y357596D01*
X6000Y397116D02*
Y392000D01*
X9411D01*
X11117Y397116D02*
Y392000D01*
X13675D01*
X14527Y392853D01*
Y396264D01*
X13675Y397116D01*
X11117D01*
X16233Y392000D02*
Y397116D01*
X18791D01*
X19644Y396264D01*
Y394558D01*
X18791Y393706D01*
X16233D01*
X17938D02*
X19644Y392000D01*
X42000Y394500D02*
Y392926D01*
Y393713D01*
X46723D01*
X45936Y394500D01*
Y390564D02*
X46723Y389777D01*
Y388203D01*
X45936Y387416D01*
X42787D01*
X42000Y388203D01*
Y389777D01*
X42787Y390564D01*
X45936D01*
Y385841D02*
X46723Y385054D01*
Y383480D01*
X45936Y382693D01*
X42787D01*
X42000Y383480D01*
Y385054D01*
X42787Y385841D01*
X45936D01*
X46723Y381118D02*
X42000D01*
X43574D01*
X46723Y377970D01*
X44361Y380331D01*
X42000Y377970D01*
X7329Y363500D02*
X3000D01*
Y361335D01*
X3721Y360614D01*
X4443D01*
X5165Y361335D01*
Y363500D01*
Y361335D01*
X5886Y360614D01*
X6608D01*
X7329Y361335D01*
Y363500D01*
X6608Y356284D02*
X7329Y357006D01*
Y358449D01*
X6608Y359171D01*
X3721D01*
X3000Y358449D01*
Y357006D01*
X3721Y356284D01*
X7329Y351955D02*
Y354841D01*
X5165D01*
X5886Y353398D01*
Y352677D01*
X5165Y351955D01*
X3721D01*
X3000Y352677D01*
Y354120D01*
X3721Y354841D01*
X3000Y348347D02*
X7329D01*
X5165Y350512D01*
Y347626D01*
X7329Y346183D02*
Y343297D01*
X6608D01*
X3721Y346183D01*
X3000D01*
X35500Y395500D02*
X38649D01*
Y393926D01*
X38124Y393401D01*
X37074D01*
X36549Y393926D01*
Y395500D01*
X35500Y392351D02*
X38649D01*
Y390777D01*
X38124Y390252D01*
X37074D01*
X36549Y390777D01*
Y392351D01*
Y391302D02*
X35500Y390252D01*
X38649Y387104D02*
Y389203D01*
X35500D01*
Y387104D01*
X37074Y389203D02*
Y388153D01*
X38124Y383955D02*
X38649Y384480D01*
Y385529D01*
X38124Y386054D01*
X37599D01*
X37074Y385529D01*
Y384480D01*
X36549Y383955D01*
X36025D01*
X35500Y384480D01*
Y385529D01*
X36025Y386054D01*
X38649Y380807D02*
Y382906D01*
X35500D01*
Y380807D01*
X37074Y382906D02*
Y381856D01*
X38649Y379757D02*
Y377658D01*
Y378708D01*
X35500D01*
X61000Y363500D02*
Y362188D01*
Y362844D01*
X64936D01*
X64280Y363500D01*
X64936Y360220D02*
X61000D01*
X62312D01*
X64936Y357596D01*
X62968Y359564D01*
X61000Y357596D01*
X341000Y308500D02*
X342312D01*
X341656D01*
Y312436D01*
X341000Y311780D01*
X344280D02*
X344936Y312436D01*
X346248D01*
X346904Y311780D01*
Y309156D01*
X346248Y308500D01*
X344936D01*
X344280Y309156D01*
Y311780D01*
X348216D02*
X348871Y312436D01*
X350183D01*
X350839Y311780D01*
Y309156D01*
X350183Y308500D01*
X348871D01*
X348216Y309156D01*
Y311780D01*
X341000Y318500D02*
X342312D01*
X341656D01*
Y322436D01*
X341000Y321780D01*
X344280D02*
X344936Y322436D01*
X346248D01*
X346904Y321780D01*
Y319156D01*
X346248Y318500D01*
X344936D01*
X344280Y319156D01*
Y321780D01*
X348216D02*
X348871Y322436D01*
X350183D01*
X350839Y321780D01*
Y319156D01*
X350183Y318500D01*
X348871D01*
X348216Y319156D01*
Y321780D01*
X341000Y327500D02*
X342312D01*
X341656D01*
Y331436D01*
X341000Y330780D01*
X344280D02*
X344936Y331436D01*
X346248D01*
X346904Y330780D01*
Y328156D01*
X346248Y327500D01*
X344936D01*
X344280Y328156D01*
Y330780D01*
X348216D02*
X348871Y331436D01*
X350183D01*
X350839Y330780D01*
Y328156D01*
X350183Y327500D01*
X348871D01*
X348216Y328156D01*
Y330780D01*
X341000Y336000D02*
X342312D01*
X341656D01*
Y339936D01*
X341000Y339280D01*
X344280D02*
X344936Y339936D01*
X346248D01*
X346904Y339280D01*
Y336656D01*
X346248Y336000D01*
X344936D01*
X344280Y336656D01*
Y339280D01*
X348216D02*
X348871Y339936D01*
X350183D01*
X350839Y339280D01*
Y336656D01*
X350183Y336000D01*
X348871D01*
X348216Y336656D01*
Y339280D01*
X303000Y326000D02*
X304968D01*
X303984D01*
Y331904D01*
X303000Y330920D01*
X307920D02*
X308904Y331904D01*
X310872D01*
X311855Y330920D01*
Y326984D01*
X310872Y326000D01*
X308904D01*
X307920Y326984D01*
Y330920D01*
X313823D02*
X314807Y331904D01*
X316775D01*
X317759Y330920D01*
Y326984D01*
X316775Y326000D01*
X314807D01*
X313823Y326984D01*
Y330920D01*
X319727Y331904D02*
Y326000D01*
Y327968D01*
X323663Y331904D01*
X320711Y328952D01*
X323663Y326000D01*
X344500Y299000D02*
X345812D01*
X345156D01*
Y302936D01*
X344500Y302280D01*
X347780Y299000D02*
Y302936D01*
Y300312D02*
X349748Y301624D01*
X347780Y300312D02*
X349748Y299000D01*
X307000Y295436D02*
X309624D01*
Y294780D01*
X307000Y292156D01*
Y291500D01*
X310936D02*
Y294124D01*
X311592D01*
X312248Y293468D01*
Y291500D01*
Y293468D01*
X312904Y294124D01*
X313560Y293468D01*
Y291500D01*
X314872D02*
Y294124D01*
X315527D01*
X316183Y293468D01*
Y291500D01*
Y293468D01*
X316839Y294124D01*
X317495Y293468D01*
Y291500D01*
X322743Y295436D02*
Y291500D01*
X325367D01*
X326679Y295436D02*
Y291500D01*
X328647D01*
X329303Y292156D01*
Y294780D01*
X328647Y295436D01*
X326679D01*
X330614Y291500D02*
Y295436D01*
X332582D01*
X333238Y294780D01*
Y293468D01*
X332582Y292812D01*
X330614D01*
X331926D02*
X333238Y291500D01*
X392000Y115500D02*
Y116812D01*
Y116156D01*
X388064D01*
X388720Y115500D01*
X392000Y118780D02*
X388064D01*
X392000Y121404D01*
X388064D01*
X392000Y124683D02*
X388064D01*
X390032Y122715D01*
Y125339D01*
X388720Y126651D02*
X388064Y127307D01*
Y128619D01*
X388720Y129275D01*
X391344D01*
X392000Y128619D01*
Y127307D01*
X391344Y126651D01*
X388720D01*
Y130587D02*
X388064Y131243D01*
Y132555D01*
X388720Y133211D01*
X391344D01*
X392000Y132555D01*
Y131243D01*
X391344Y130587D01*
X388720D01*
X388064Y134523D02*
Y137147D01*
X388720D01*
X391344Y134523D01*
X392000D01*
X388064Y194500D02*
X392000D01*
Y196468D01*
X391344Y197124D01*
X388720D01*
X388064Y196468D01*
Y194500D01*
Y200404D02*
Y199092D01*
X388720Y198436D01*
X391344D01*
X392000Y199092D01*
Y200404D01*
X391344Y201060D01*
X388720D01*
X388064Y200404D01*
Y202372D02*
Y204995D01*
Y203683D01*
X392000D01*
Y206307D02*
X389376Y208931D01*
X388064Y210243D02*
X392000D01*
Y212211D01*
X391344Y212867D01*
X390688D01*
X390032Y212211D01*
Y210243D01*
Y212211D01*
X389376Y212867D01*
X388720D01*
X388064Y212211D01*
Y210243D01*
X392000Y214179D02*
X389376D01*
X388064Y215491D01*
X389376Y216803D01*
X392000D01*
X390032D01*
Y214179D01*
X392000Y218114D02*
X388064D01*
Y220082D01*
X388720Y220738D01*
X390032D01*
X390688Y220082D01*
Y218114D01*
Y219426D02*
X392000Y220738D01*
X353500Y228000D02*
X349564D01*
Y229968D01*
X350220Y230624D01*
X351532D01*
X352188Y229968D01*
Y228000D01*
X349564Y233904D02*
Y232592D01*
X350220Y231936D01*
X352844D01*
X353500Y232592D01*
Y233904D01*
X352844Y234560D01*
X350220D01*
X349564Y233904D01*
Y235872D02*
X353500D01*
X352188Y237183D01*
X353500Y238495D01*
X349564D01*
Y242431D02*
Y239807D01*
X353500D01*
Y242431D01*
X351532Y239807D02*
Y241119D01*
X353500Y243743D02*
X349564D01*
Y245711D01*
X350220Y246367D01*
X351532D01*
X352188Y245711D01*
Y243743D01*
Y245055D02*
X353500Y246367D01*
X392000Y226000D02*
X389376D01*
X388064Y227312D01*
X389376Y228624D01*
X392000D01*
X390032D01*
Y226000D01*
X388064Y229936D02*
X391344D01*
X392000Y230592D01*
Y231904D01*
X391344Y232560D01*
X388064D01*
Y233872D02*
X392000D01*
Y235839D01*
X391344Y236495D01*
X388720D01*
X388064Y235839D01*
Y233872D01*
Y237807D02*
Y239119D01*
Y238463D01*
X392000D01*
Y237807D01*
Y239119D01*
X388064Y243055D02*
Y241743D01*
X388720Y241087D01*
X391344D01*
X392000Y241743D01*
Y243055D01*
X391344Y243711D01*
X388720D01*
X388064Y243055D01*
X346442Y7000D02*
Y10411D01*
Y30000D02*
Y33411D01*
Y52500D02*
Y55911D01*
Y76000D02*
Y79411D01*
Y99000D02*
Y102411D01*
Y122000D02*
Y125411D01*
Y145000D02*
Y148411D01*
Y168000D02*
Y171411D01*
Y191000D02*
Y194411D01*
Y214000D02*
Y217411D01*
X374000Y115000D02*
Y116312D01*
Y115656D01*
X370064D01*
X370720Y115000D01*
X374000Y118280D02*
X370064D01*
X374000Y120904D01*
X370064D01*
X374000Y124183D02*
X370064D01*
X372032Y122215D01*
Y124839D01*
X370720Y126151D02*
X370064Y126807D01*
Y128119D01*
X370720Y128775D01*
X373344D01*
X374000Y128119D01*
Y126807D01*
X373344Y126151D01*
X370720D01*
Y130087D02*
X370064Y130743D01*
Y132055D01*
X370720Y132711D01*
X373344D01*
X374000Y132055D01*
Y130743D01*
X373344Y130087D01*
X370720D01*
X370064Y134023D02*
Y136647D01*
X370720D01*
X373344Y134023D01*
X374000D01*
X357442Y228500D02*
Y231911D01*
X392500Y154500D02*
X388958D01*
X390139Y155681D01*
X388958Y156861D01*
X392500D01*
X388958Y160404D02*
Y158042D01*
X392500D01*
Y160404D01*
X390729Y158042D02*
Y159223D01*
X388958Y161584D02*
Y163946D01*
Y162765D01*
X392500D01*
X388958Y167488D02*
Y165127D01*
X392500D01*
Y167488D01*
X390729Y165127D02*
Y166307D01*
X392500Y168669D02*
X388958D01*
Y170440D01*
X389548Y171030D01*
X390729D01*
X391319Y170440D01*
Y168669D01*
Y169849D02*
X392500Y171030D01*
X323000Y115500D02*
Y116812D01*
Y116156D01*
X319064D01*
X319720Y115500D01*
X323000Y118780D02*
X319064D01*
X323000Y121404D01*
X319064D01*
X323000Y124683D02*
X319064D01*
X321032Y122715D01*
Y125339D01*
X319720Y126651D02*
X319064Y127307D01*
Y128619D01*
X319720Y129275D01*
X322344D01*
X323000Y128619D01*
Y127307D01*
X322344Y126651D01*
X319720D01*
Y130587D02*
X319064Y131243D01*
Y132555D01*
X319720Y133211D01*
X322344D01*
X323000Y132555D01*
Y131243D01*
X322344Y130587D01*
X319720D01*
X319064Y134523D02*
Y137147D01*
X319720D01*
X322344Y134523D01*
X323000D01*
X319064Y194500D02*
X323000D01*
Y196468D01*
X322344Y197124D01*
X319720D01*
X319064Y196468D01*
Y194500D01*
Y200404D02*
Y199092D01*
X319720Y198436D01*
X322344D01*
X323000Y199092D01*
Y200404D01*
X322344Y201060D01*
X319720D01*
X319064Y200404D01*
Y202372D02*
Y204995D01*
Y203683D01*
X323000D01*
Y206307D02*
X320376Y208931D01*
X319064Y210243D02*
X323000D01*
Y212211D01*
X322344Y212867D01*
X321688D01*
X321032Y212211D01*
Y210243D01*
Y212211D01*
X320376Y212867D01*
X319720D01*
X319064Y212211D01*
Y210243D01*
X323000Y214179D02*
X320376D01*
X319064Y215491D01*
X320376Y216803D01*
X323000D01*
X321032D01*
Y214179D01*
X323000Y218114D02*
X319064D01*
Y220082D01*
X319720Y220738D01*
X321032D01*
X321688Y220082D01*
Y218114D01*
Y219426D02*
X323000Y220738D01*
X284500Y228000D02*
X280564D01*
Y229968D01*
X281220Y230624D01*
X282532D01*
X283188Y229968D01*
Y228000D01*
X280564Y233904D02*
Y232592D01*
X281220Y231936D01*
X283844D01*
X284500Y232592D01*
Y233904D01*
X283844Y234560D01*
X281220D01*
X280564Y233904D01*
Y235872D02*
X284500D01*
X283188Y237183D01*
X284500Y238495D01*
X280564D01*
Y242431D02*
Y239807D01*
X284500D01*
Y242431D01*
X282532Y239807D02*
Y241119D01*
X284500Y243743D02*
X280564D01*
Y245711D01*
X281220Y246367D01*
X282532D01*
X283188Y245711D01*
Y243743D01*
Y245055D02*
X284500Y246367D01*
X323000Y226000D02*
X320376D01*
X319064Y227312D01*
X320376Y228624D01*
X323000D01*
X321032D01*
Y226000D01*
X319064Y229936D02*
X322344D01*
X323000Y230592D01*
Y231904D01*
X322344Y232560D01*
X319064D01*
Y233872D02*
X323000D01*
Y235839D01*
X322344Y236495D01*
X319720D01*
X319064Y235839D01*
Y233872D01*
Y237807D02*
Y239119D01*
Y238463D01*
X323000D01*
Y237807D01*
Y239119D01*
X319064Y243055D02*
Y241743D01*
X319720Y241087D01*
X322344D01*
X323000Y241743D01*
Y243055D01*
X322344Y243711D01*
X319720D01*
X319064Y243055D01*
X277442Y7000D02*
Y10411D01*
Y30000D02*
Y33411D01*
Y52500D02*
Y55911D01*
Y76000D02*
Y79411D01*
Y99000D02*
Y102411D01*
Y122000D02*
Y125411D01*
Y145000D02*
Y148411D01*
Y168000D02*
Y171411D01*
Y191000D02*
Y194411D01*
Y214000D02*
Y217411D01*
X305000Y115000D02*
Y116312D01*
Y115656D01*
X301064D01*
X301720Y115000D01*
X305000Y118280D02*
X301064D01*
X305000Y120904D01*
X301064D01*
X305000Y124183D02*
X301064D01*
X303032Y122215D01*
Y124839D01*
X301720Y126151D02*
X301064Y126807D01*
Y128119D01*
X301720Y128775D01*
X304344D01*
X305000Y128119D01*
Y126807D01*
X304344Y126151D01*
X301720D01*
Y130087D02*
X301064Y130743D01*
Y132055D01*
X301720Y132711D01*
X304344D01*
X305000Y132055D01*
Y130743D01*
X304344Y130087D01*
X301720D01*
X301064Y134023D02*
Y136647D01*
X301720D01*
X304344Y134023D01*
X305000D01*
X288442Y228500D02*
Y231911D01*
X323500Y154500D02*
X319958D01*
X321139Y155681D01*
X319958Y156861D01*
X323500D01*
X319958Y160404D02*
Y158042D01*
X323500D01*
Y160404D01*
X321729Y158042D02*
Y159223D01*
X319958Y161584D02*
Y163946D01*
Y162765D01*
X323500D01*
X319958Y167488D02*
Y165127D01*
X323500D01*
Y167488D01*
X321729Y165127D02*
Y166307D01*
X323500Y168669D02*
X319958D01*
Y170440D01*
X320548Y171030D01*
X321729D01*
X322319Y170440D01*
Y168669D01*
Y169849D02*
X323500Y171030D01*
X116000Y274000D02*
X117312D01*
X116656D01*
Y277936D01*
X116000Y277280D01*
X119280Y274000D02*
Y277936D01*
X121904Y274000D01*
Y277936D01*
X125183Y274000D02*
Y277936D01*
X123215Y275968D01*
X125839D01*
X127151Y277280D02*
X127807Y277936D01*
X129119D01*
X129775Y277280D01*
Y274656D01*
X129119Y274000D01*
X127807D01*
X127151Y274656D01*
Y277280D01*
X131087D02*
X131743Y277936D01*
X133055D01*
X133711Y277280D01*
Y274656D01*
X133055Y274000D01*
X131743D01*
X131087Y274656D01*
Y277280D01*
X135023Y277936D02*
X137647D01*
Y277280D01*
X135023Y274656D01*
Y274000D01*
X195000Y277936D02*
Y274000D01*
X196968D01*
X197624Y274656D01*
Y277280D01*
X196968Y277936D01*
X195000D01*
X200904D02*
X199592D01*
X198936Y277280D01*
Y274656D01*
X199592Y274000D01*
X200904D01*
X201560Y274656D01*
Y277280D01*
X200904Y277936D01*
X202871D02*
X205495D01*
X204183D01*
Y274000D01*
X206807D02*
X209431Y276624D01*
X210743Y277936D02*
Y274000D01*
X212711D01*
X213367Y274656D01*
Y275312D01*
X212711Y275968D01*
X210743D01*
X212711D01*
X213367Y276624D01*
Y277280D01*
X212711Y277936D01*
X210743D01*
X214679Y274000D02*
Y276624D01*
X215991Y277936D01*
X217302Y276624D01*
Y274000D01*
Y275968D01*
X214679D01*
X218614Y274000D02*
Y277936D01*
X220582D01*
X221238Y277280D01*
Y275968D01*
X220582Y275312D01*
X218614D01*
X219926D02*
X221238Y274000D01*
X228500Y312500D02*
Y316436D01*
X230468D01*
X231124Y315780D01*
Y314468D01*
X230468Y313812D01*
X228500D01*
X234404Y316436D02*
X233092D01*
X232436Y315780D01*
Y313156D01*
X233092Y312500D01*
X234404D01*
X235060Y313156D01*
Y315780D01*
X234404Y316436D01*
X236371D02*
Y312500D01*
X237683Y313812D01*
X238995Y312500D01*
Y316436D01*
X242931D02*
X240307D01*
Y312500D01*
X242931D01*
X240307Y314468D02*
X241619D01*
X244243Y312500D02*
Y316436D01*
X246211D01*
X246867Y315780D01*
Y314468D01*
X246211Y313812D01*
X244243D01*
X245555D02*
X246867Y312500D01*
X226500Y274000D02*
Y276624D01*
X227812Y277936D01*
X229124Y276624D01*
Y274000D01*
Y275968D01*
X226500D01*
X230436Y277936D02*
Y274656D01*
X231092Y274000D01*
X232404D01*
X233060Y274656D01*
Y277936D01*
X234371D02*
Y274000D01*
X236339D01*
X236995Y274656D01*
Y277280D01*
X236339Y277936D01*
X234371D01*
X238307D02*
X239619D01*
X238963D01*
Y274000D01*
X238307D01*
X239619D01*
X243555Y277936D02*
X242243D01*
X241587Y277280D01*
Y274656D01*
X242243Y274000D01*
X243555D01*
X244211Y274656D01*
Y277280D01*
X243555Y277936D01*
X7500Y319558D02*
X10911D01*
X30500D02*
X33911D01*
X53000D02*
X56411D01*
X76500D02*
X79911D01*
X99500D02*
X102911D01*
X122500D02*
X125911D01*
X145500D02*
X148911D01*
X168500D02*
X171911D01*
X191500D02*
X194911D01*
X214500D02*
X217911D01*
X115500Y292000D02*
X116812D01*
X116156D01*
Y295936D01*
X115500Y295280D01*
X118780Y292000D02*
Y295936D01*
X121404Y292000D01*
Y295936D01*
X124683Y292000D02*
Y295936D01*
X122715Y293968D01*
X125339D01*
X126651Y295280D02*
X127307Y295936D01*
X128619D01*
X129275Y295280D01*
Y292656D01*
X128619Y292000D01*
X127307D01*
X126651Y292656D01*
Y295280D01*
X130587D02*
X131243Y295936D01*
X132555D01*
X133211Y295280D01*
Y292656D01*
X132555Y292000D01*
X131243D01*
X130587Y292656D01*
Y295280D01*
X134523Y295936D02*
X137147D01*
Y295280D01*
X134523Y292656D01*
Y292000D01*
X229000Y308558D02*
X232411D01*
X155000Y273500D02*
Y277042D01*
X156181Y275861D01*
X157361Y277042D01*
Y273500D01*
X160904Y277042D02*
X158542D01*
Y273500D01*
X160904D01*
X158542Y275271D02*
X159723D01*
X162084Y277042D02*
X164446D01*
X163265D01*
Y273500D01*
X167988Y277042D02*
X165627D01*
Y273500D01*
X167988D01*
X165627Y275271D02*
X166807D01*
X169169Y273500D02*
Y277042D01*
X170940D01*
X171530Y276452D01*
Y275271D01*
X170940Y274681D01*
X169169D01*
X170349D02*
X171530Y273500D01*
X116000Y206500D02*
X117312D01*
X116656D01*
Y210436D01*
X116000Y209780D01*
X119280Y206500D02*
Y210436D01*
X121904Y206500D01*
Y210436D01*
X125183Y206500D02*
Y210436D01*
X123215Y208468D01*
X125839D01*
X127151Y209780D02*
X127807Y210436D01*
X129119D01*
X129775Y209780D01*
Y207156D01*
X129119Y206500D01*
X127807D01*
X127151Y207156D01*
Y209780D01*
X131087D02*
X131743Y210436D01*
X133055D01*
X133711Y209780D01*
Y207156D01*
X133055Y206500D01*
X131743D01*
X131087Y207156D01*
Y209780D01*
X135023Y210436D02*
X137647D01*
Y209780D01*
X135023Y207156D01*
Y206500D01*
X195000Y210436D02*
Y206500D01*
X196968D01*
X197624Y207156D01*
Y209780D01*
X196968Y210436D01*
X195000D01*
X200904D02*
X199592D01*
X198936Y209780D01*
Y207156D01*
X199592Y206500D01*
X200904D01*
X201560Y207156D01*
Y209780D01*
X200904Y210436D01*
X202871D02*
X205495D01*
X204183D01*
Y206500D01*
X206807D02*
X209431Y209124D01*
X210743Y210436D02*
Y206500D01*
X212711D01*
X213367Y207156D01*
Y207812D01*
X212711Y208468D01*
X210743D01*
X212711D01*
X213367Y209124D01*
Y209780D01*
X212711Y210436D01*
X210743D01*
X214679Y206500D02*
Y209124D01*
X215991Y210436D01*
X217302Y209124D01*
Y206500D01*
Y208468D01*
X214679D01*
X218614Y206500D02*
Y210436D01*
X220582D01*
X221238Y209780D01*
Y208468D01*
X220582Y207812D01*
X218614D01*
X219926D02*
X221238Y206500D01*
X228500Y245000D02*
Y248936D01*
X230468D01*
X231124Y248280D01*
Y246968D01*
X230468Y246312D01*
X228500D01*
X234404Y248936D02*
X233092D01*
X232436Y248280D01*
Y245656D01*
X233092Y245000D01*
X234404D01*
X235060Y245656D01*
Y248280D01*
X234404Y248936D01*
X236371D02*
Y245000D01*
X237683Y246312D01*
X238995Y245000D01*
Y248936D01*
X242931D02*
X240307D01*
Y245000D01*
X242931D01*
X240307Y246968D02*
X241619D01*
X244243Y245000D02*
Y248936D01*
X246211D01*
X246867Y248280D01*
Y246968D01*
X246211Y246312D01*
X244243D01*
X245555D02*
X246867Y245000D01*
X226500Y206500D02*
Y209124D01*
X227812Y210436D01*
X229124Y209124D01*
Y206500D01*
Y208468D01*
X226500D01*
X230436Y210436D02*
Y207156D01*
X231092Y206500D01*
X232404D01*
X233060Y207156D01*
Y210436D01*
X234371D02*
Y206500D01*
X236339D01*
X236995Y207156D01*
Y209780D01*
X236339Y210436D01*
X234371D01*
X238307D02*
X239619D01*
X238963D01*
Y206500D01*
X238307D01*
X239619D01*
X243555Y210436D02*
X242243D01*
X241587Y209780D01*
Y207156D01*
X242243Y206500D01*
X243555D01*
X244211Y207156D01*
Y209780D01*
X243555Y210436D01*
X7500Y252058D02*
X10911D01*
X30500D02*
X33911D01*
X53000D02*
X56411D01*
X76500D02*
X79911D01*
X99500D02*
X102911D01*
X122500D02*
X125911D01*
X145500D02*
X148911D01*
X168500D02*
X171911D01*
X191500D02*
X194911D01*
X214500D02*
X217911D01*
X115500Y224500D02*
X116812D01*
X116156D01*
Y228436D01*
X115500Y227780D01*
X118780Y224500D02*
Y228436D01*
X121404Y224500D01*
Y228436D01*
X124683Y224500D02*
Y228436D01*
X122715Y226468D01*
X125339D01*
X126651Y227780D02*
X127307Y228436D01*
X128619D01*
X129275Y227780D01*
Y225156D01*
X128619Y224500D01*
X127307D01*
X126651Y225156D01*
Y227780D01*
X130587D02*
X131243Y228436D01*
X132555D01*
X133211Y227780D01*
Y225156D01*
X132555Y224500D01*
X131243D01*
X130587Y225156D01*
Y227780D01*
X134523Y228436D02*
X137147D01*
Y227780D01*
X134523Y225156D01*
Y224500D01*
X229000Y241058D02*
X232411D01*
X155000Y206000D02*
Y209542D01*
X156181Y208361D01*
X157361Y209542D01*
Y206000D01*
X160904Y209542D02*
X158542D01*
Y206000D01*
X160904D01*
X158542Y207771D02*
X159723D01*
X162084Y209542D02*
X164446D01*
X163265D01*
Y206000D01*
X167988Y209542D02*
X165627D01*
Y206000D01*
X167988D01*
X165627Y207771D02*
X166807D01*
X169169Y206000D02*
Y209542D01*
X170940D01*
X171530Y208952D01*
Y207771D01*
X170940Y207181D01*
X169169D01*
X170349D02*
X171530Y206000D01*
X116000Y140000D02*
X117312D01*
X116656D01*
Y143936D01*
X116000Y143280D01*
X119280Y140000D02*
Y143936D01*
X121904Y140000D01*
Y143936D01*
X125183Y140000D02*
Y143936D01*
X123215Y141968D01*
X125839D01*
X127151Y143280D02*
X127807Y143936D01*
X129119D01*
X129775Y143280D01*
Y140656D01*
X129119Y140000D01*
X127807D01*
X127151Y140656D01*
Y143280D01*
X131087D02*
X131743Y143936D01*
X133055D01*
X133711Y143280D01*
Y140656D01*
X133055Y140000D01*
X131743D01*
X131087Y140656D01*
Y143280D01*
X135023Y143936D02*
X137647D01*
Y143280D01*
X135023Y140656D01*
Y140000D01*
X195000Y143936D02*
Y140000D01*
X196968D01*
X197624Y140656D01*
Y143280D01*
X196968Y143936D01*
X195000D01*
X200904D02*
X199592D01*
X198936Y143280D01*
Y140656D01*
X199592Y140000D01*
X200904D01*
X201560Y140656D01*
Y143280D01*
X200904Y143936D01*
X202871D02*
X205495D01*
X204183D01*
Y140000D01*
X206807D02*
X209431Y142624D01*
X210743Y143936D02*
Y140000D01*
X212711D01*
X213367Y140656D01*
Y141312D01*
X212711Y141968D01*
X210743D01*
X212711D01*
X213367Y142624D01*
Y143280D01*
X212711Y143936D01*
X210743D01*
X214679Y140000D02*
Y142624D01*
X215991Y143936D01*
X217302Y142624D01*
Y140000D01*
Y141968D01*
X214679D01*
X218614Y140000D02*
Y143936D01*
X220582D01*
X221238Y143280D01*
Y141968D01*
X220582Y141312D01*
X218614D01*
X219926D02*
X221238Y140000D01*
X228500Y178500D02*
Y182436D01*
X230468D01*
X231124Y181780D01*
Y180468D01*
X230468Y179812D01*
X228500D01*
X234404Y182436D02*
X233092D01*
X232436Y181780D01*
Y179156D01*
X233092Y178500D01*
X234404D01*
X235060Y179156D01*
Y181780D01*
X234404Y182436D01*
X236371D02*
Y178500D01*
X237683Y179812D01*
X238995Y178500D01*
Y182436D01*
X242931D02*
X240307D01*
Y178500D01*
X242931D01*
X240307Y180468D02*
X241619D01*
X244243Y178500D02*
Y182436D01*
X246211D01*
X246867Y181780D01*
Y180468D01*
X246211Y179812D01*
X244243D01*
X245555D02*
X246867Y178500D01*
X226500Y140000D02*
Y142624D01*
X227812Y143936D01*
X229124Y142624D01*
Y140000D01*
Y141968D01*
X226500D01*
X230436Y143936D02*
Y140656D01*
X231092Y140000D01*
X232404D01*
X233060Y140656D01*
Y143936D01*
X234371D02*
Y140000D01*
X236339D01*
X236995Y140656D01*
Y143280D01*
X236339Y143936D01*
X234371D01*
X238307D02*
X239619D01*
X238963D01*
Y140000D01*
X238307D01*
X239619D01*
X243555Y143936D02*
X242243D01*
X241587Y143280D01*
Y140656D01*
X242243Y140000D01*
X243555D01*
X244211Y140656D01*
Y143280D01*
X243555Y143936D01*
X7500Y185558D02*
X10911D01*
X30500D02*
X33911D01*
X53000D02*
X56411D01*
X76500D02*
X79911D01*
X99500D02*
X102911D01*
X122500D02*
X125911D01*
X145500D02*
X148911D01*
X168500D02*
X171911D01*
X191500D02*
X194911D01*
X214500D02*
X217911D01*
X115500Y158000D02*
X116812D01*
X116156D01*
Y161936D01*
X115500Y161280D01*
X118780Y158000D02*
Y161936D01*
X121404Y158000D01*
Y161936D01*
X124683Y158000D02*
Y161936D01*
X122715Y159968D01*
X125339D01*
X126651Y161280D02*
X127307Y161936D01*
X128619D01*
X129275Y161280D01*
Y158656D01*
X128619Y158000D01*
X127307D01*
X126651Y158656D01*
Y161280D01*
X130587D02*
X131243Y161936D01*
X132555D01*
X133211Y161280D01*
Y158656D01*
X132555Y158000D01*
X131243D01*
X130587Y158656D01*
Y161280D01*
X134523Y161936D02*
X137147D01*
Y161280D01*
X134523Y158656D01*
Y158000D01*
X229000Y174558D02*
X232411D01*
X155000Y139500D02*
Y143042D01*
X156181Y141861D01*
X157361Y143042D01*
Y139500D01*
X160904Y143042D02*
X158542D01*
Y139500D01*
X160904D01*
X158542Y141271D02*
X159723D01*
X162084Y143042D02*
X164446D01*
X163265D01*
Y139500D01*
X167988Y143042D02*
X165627D01*
Y139500D01*
X167988D01*
X165627Y141271D02*
X166807D01*
X169169Y139500D02*
Y143042D01*
X170940D01*
X171530Y142452D01*
Y141271D01*
X170940Y140681D01*
X169169D01*
X170349D02*
X171530Y139500D01*
X116000Y71500D02*
X117312D01*
X116656D01*
Y75436D01*
X116000Y74780D01*
X119280Y71500D02*
Y75436D01*
X121904Y71500D01*
Y75436D01*
X125183Y71500D02*
Y75436D01*
X123215Y73468D01*
X125839D01*
X127151Y74780D02*
X127807Y75436D01*
X129119D01*
X129775Y74780D01*
Y72156D01*
X129119Y71500D01*
X127807D01*
X127151Y72156D01*
Y74780D01*
X131087D02*
X131743Y75436D01*
X133055D01*
X133711Y74780D01*
Y72156D01*
X133055Y71500D01*
X131743D01*
X131087Y72156D01*
Y74780D01*
X135023Y75436D02*
X137647D01*
Y74780D01*
X135023Y72156D01*
Y71500D01*
X195000Y75436D02*
Y71500D01*
X196968D01*
X197624Y72156D01*
Y74780D01*
X196968Y75436D01*
X195000D01*
X200904D02*
X199592D01*
X198936Y74780D01*
Y72156D01*
X199592Y71500D01*
X200904D01*
X201560Y72156D01*
Y74780D01*
X200904Y75436D01*
X202871D02*
X205495D01*
X204183D01*
Y71500D01*
X206807D02*
X209431Y74124D01*
X210743Y75436D02*
Y71500D01*
X212711D01*
X213367Y72156D01*
Y72812D01*
X212711Y73468D01*
X210743D01*
X212711D01*
X213367Y74124D01*
Y74780D01*
X212711Y75436D01*
X210743D01*
X214679Y71500D02*
Y74124D01*
X215991Y75436D01*
X217302Y74124D01*
Y71500D01*
Y73468D01*
X214679D01*
X218614Y71500D02*
Y75436D01*
X220582D01*
X221238Y74780D01*
Y73468D01*
X220582Y72812D01*
X218614D01*
X219926D02*
X221238Y71500D01*
X228500Y110000D02*
Y113936D01*
X230468D01*
X231124Y113280D01*
Y111968D01*
X230468Y111312D01*
X228500D01*
X234404Y113936D02*
X233092D01*
X232436Y113280D01*
Y110656D01*
X233092Y110000D01*
X234404D01*
X235060Y110656D01*
Y113280D01*
X234404Y113936D01*
X236371D02*
Y110000D01*
X237683Y111312D01*
X238995Y110000D01*
Y113936D01*
X242931D02*
X240307D01*
Y110000D01*
X242931D01*
X240307Y111968D02*
X241619D01*
X244243Y110000D02*
Y113936D01*
X246211D01*
X246867Y113280D01*
Y111968D01*
X246211Y111312D01*
X244243D01*
X245555D02*
X246867Y110000D01*
X226500Y71500D02*
Y74124D01*
X227812Y75436D01*
X229124Y74124D01*
Y71500D01*
Y73468D01*
X226500D01*
X230436Y75436D02*
Y72156D01*
X231092Y71500D01*
X232404D01*
X233060Y72156D01*
Y75436D01*
X234371D02*
Y71500D01*
X236339D01*
X236995Y72156D01*
Y74780D01*
X236339Y75436D01*
X234371D01*
X238307D02*
X239619D01*
X238963D01*
Y71500D01*
X238307D01*
X239619D01*
X243555Y75436D02*
X242243D01*
X241587Y74780D01*
Y72156D01*
X242243Y71500D01*
X243555D01*
X244211Y72156D01*
Y74780D01*
X243555Y75436D01*
X7500Y117058D02*
X10911D01*
X30500D02*
X33911D01*
X53000D02*
X56411D01*
X76500D02*
X79911D01*
X99500D02*
X102911D01*
X122500D02*
X125911D01*
X145500D02*
X148911D01*
X168500D02*
X171911D01*
X191500D02*
X194911D01*
X214500D02*
X217911D01*
X115500Y89500D02*
X116812D01*
X116156D01*
Y93436D01*
X115500Y92780D01*
X118780Y89500D02*
Y93436D01*
X121404Y89500D01*
Y93436D01*
X124683Y89500D02*
Y93436D01*
X122715Y91468D01*
X125339D01*
X126651Y92780D02*
X127307Y93436D01*
X128619D01*
X129275Y92780D01*
Y90156D01*
X128619Y89500D01*
X127307D01*
X126651Y90156D01*
Y92780D01*
X130587D02*
X131243Y93436D01*
X132555D01*
X133211Y92780D01*
Y90156D01*
X132555Y89500D01*
X131243D01*
X130587Y90156D01*
Y92780D01*
X134523Y93436D02*
X137147D01*
Y92780D01*
X134523Y90156D01*
Y89500D01*
X229000Y106058D02*
X232411D01*
X155000Y71000D02*
Y74542D01*
X156181Y73361D01*
X157361Y74542D01*
Y71000D01*
X160904Y74542D02*
X158542D01*
Y71000D01*
X160904D01*
X158542Y72771D02*
X159723D01*
X162084Y74542D02*
X164446D01*
X163265D01*
Y71000D01*
X167988Y74542D02*
X165627D01*
Y71000D01*
X167988D01*
X165627Y72771D02*
X166807D01*
X169169Y71000D02*
Y74542D01*
X170940D01*
X171530Y73952D01*
Y72771D01*
X170940Y72181D01*
X169169D01*
X170349D02*
X171530Y71000D01*
X154500Y3000D02*
Y6542D01*
X155681Y5361D01*
X156861Y6542D01*
Y3000D01*
X160404Y6542D02*
X158042D01*
Y3000D01*
X160404D01*
X158042Y4771D02*
X159223D01*
X161584Y6542D02*
X163946D01*
X162765D01*
Y3000D01*
X167488Y6542D02*
X165127D01*
Y3000D01*
X167488D01*
X165127Y4771D02*
X166307D01*
X168669Y3000D02*
Y6542D01*
X170440D01*
X171030Y5952D01*
Y4771D01*
X170440Y4181D01*
X168669D01*
X169849D02*
X171030Y3000D01*
X228500Y38058D02*
X231911D01*
X115000Y21500D02*
X116312D01*
X115656D01*
Y25436D01*
X115000Y24780D01*
X118280Y21500D02*
Y25436D01*
X120904Y21500D01*
Y25436D01*
X124183Y21500D02*
Y25436D01*
X122215Y23468D01*
X124839D01*
X126151Y24780D02*
X126807Y25436D01*
X128119D01*
X128775Y24780D01*
Y22156D01*
X128119Y21500D01*
X126807D01*
X126151Y22156D01*
Y24780D01*
X130087D02*
X130743Y25436D01*
X132055D01*
X132711Y24780D01*
Y22156D01*
X132055Y21500D01*
X130743D01*
X130087Y22156D01*
Y24780D01*
X134023Y25436D02*
X136647D01*
Y24780D01*
X134023Y22156D01*
Y21500D01*
X214000Y49058D02*
X217411D01*
X191000D02*
X194411D01*
X168000D02*
X171411D01*
X145000D02*
X148411D01*
X122000D02*
X125411D01*
X99000D02*
X102411D01*
X76000D02*
X79411D01*
X52500D02*
X55911D01*
X30000D02*
X33411D01*
X7000D02*
X10411D01*
X226000Y3500D02*
Y6124D01*
X227312Y7436D01*
X228624Y6124D01*
Y3500D01*
Y5468D01*
X226000D01*
X229936Y7436D02*
Y4156D01*
X230592Y3500D01*
X231904D01*
X232560Y4156D01*
Y7436D01*
X233872D02*
Y3500D01*
X235839D01*
X236495Y4156D01*
Y6780D01*
X235839Y7436D01*
X233872D01*
X237807D02*
X239119D01*
X238463D01*
Y3500D01*
X237807D01*
X239119D01*
X243055Y7436D02*
X241743D01*
X241087Y6780D01*
Y4156D01*
X241743Y3500D01*
X243055D01*
X243711Y4156D01*
Y6780D01*
X243055Y7436D01*
X228000Y42000D02*
Y45936D01*
X229968D01*
X230624Y45280D01*
Y43968D01*
X229968Y43312D01*
X228000D01*
X233904Y45936D02*
X232592D01*
X231936Y45280D01*
Y42656D01*
X232592Y42000D01*
X233904D01*
X234560Y42656D01*
Y45280D01*
X233904Y45936D01*
X235872D02*
Y42000D01*
X237183Y43312D01*
X238495Y42000D01*
Y45936D01*
X242431D02*
X239807D01*
Y42000D01*
X242431D01*
X239807Y43968D02*
X241119D01*
X243743Y42000D02*
Y45936D01*
X245711D01*
X246367Y45280D01*
Y43968D01*
X245711Y43312D01*
X243743D01*
X245055D02*
X246367Y42000D01*
X194500Y7436D02*
Y3500D01*
X196468D01*
X197124Y4156D01*
Y6780D01*
X196468Y7436D01*
X194500D01*
X200404D02*
X199092D01*
X198436Y6780D01*
Y4156D01*
X199092Y3500D01*
X200404D01*
X201060Y4156D01*
Y6780D01*
X200404Y7436D01*
X202372D02*
X204995D01*
X203683D01*
Y3500D01*
X206307D02*
X208931Y6124D01*
X210243Y7436D02*
Y3500D01*
X212211D01*
X212867Y4156D01*
Y4812D01*
X212211Y5468D01*
X210243D01*
X212211D01*
X212867Y6124D01*
Y6780D01*
X212211Y7436D01*
X210243D01*
X214179Y3500D02*
Y6124D01*
X215491Y7436D01*
X216803Y6124D01*
Y3500D01*
Y5468D01*
X214179D01*
X218114Y3500D02*
Y7436D01*
X220082D01*
X220738Y6780D01*
Y5468D01*
X220082Y4812D01*
X218114D01*
X219426D02*
X220738Y3500D01*
X115500D02*
X116812D01*
X116156D01*
Y7436D01*
X115500Y6780D01*
X118780Y3500D02*
Y7436D01*
X121404Y3500D01*
Y7436D01*
X124683Y3500D02*
Y7436D01*
X122715Y5468D01*
X125339D01*
X126651Y6780D02*
X127307Y7436D01*
X128619D01*
X129275Y6780D01*
Y4156D01*
X128619Y3500D01*
X127307D01*
X126651Y4156D01*
Y6780D01*
X130587D02*
X131243Y7436D01*
X132555D01*
X133211Y6780D01*
Y4156D01*
X132555Y3500D01*
X131243D01*
X130587Y4156D01*
Y6780D01*
X134523Y7436D02*
X137147D01*
Y6780D01*
X134523Y4156D01*
Y3500D01*
D32*
X177536Y343224D02*
G03*
X194041Y348428I6464J8274D01*
G01*
Y354572D02*
G03*
X177536Y359776I-10041J-3070D01*
G01*
X93536Y343224D02*
G03*
X110041Y348428I6464J8274D01*
G01*
Y354572D02*
G03*
X93536Y359776I-10041J-3070D01*
G01*
X8536Y343224D02*
G03*
X25041Y348428I6464J8274D01*
G01*
Y354572D02*
G03*
X8536Y359776I-10041J-3070D01*
G01*
X288459Y351428D02*
G03*
X304964Y346224I10041J3070D01*
G01*
Y362776D02*
G03*
X288459Y357572I-6464J-8274D01*
G01*
X307959Y351428D02*
G03*
X324464Y346224I10041J3070D01*
G01*
Y362776D02*
G03*
X307959Y357572I-6464J-8274D01*
G01*
X327959Y351428D02*
G03*
X344464Y346224I10041J3070D01*
G01*
Y362776D02*
G03*
X327959Y357572I-6464J-8274D01*
G01*
X346959Y351428D02*
G03*
X363464Y346224I10041J3070D01*
G01*
Y362776D02*
G03*
X346959Y357572I-6464J-8274D01*
G01*
X183000Y341047D02*
Y342626D01*
Y350374D02*
Y352626D01*
Y360374D02*
Y361953D01*
X177500Y343252D02*
Y359748D01*
X99000Y341047D02*
Y342626D01*
Y350374D02*
Y352626D01*
Y360374D02*
Y361953D01*
X93500Y343252D02*
Y359748D01*
X14000Y341047D02*
Y342626D01*
Y350374D02*
Y352626D01*
Y360374D02*
Y361953D01*
X8500Y343252D02*
Y359748D01*
X305000Y346252D02*
Y362748D01*
X299500Y344047D02*
Y345626D01*
Y353374D02*
Y355626D01*
Y363374D02*
Y364953D01*
X324500Y346252D02*
Y362748D01*
X319000Y344047D02*
Y345626D01*
Y353374D02*
Y355626D01*
Y363374D02*
Y364953D01*
X344500Y346252D02*
Y362748D01*
X339000Y344047D02*
Y345626D01*
Y353374D02*
Y355626D01*
Y363374D02*
Y364953D01*
X363500Y346252D02*
Y362748D01*
X358000Y344047D02*
Y345626D01*
Y353374D02*
Y355626D01*
Y363374D02*
Y364953D01*
D33*
X192933Y380500D02*
G03*
X192933Y380500I-10433J0D01*
G01*
X219433Y357000D02*
G03*
X219433Y357000I-10433J0D01*
G01*
X108933Y380500D02*
G03*
X108933Y380500I-10433J0D01*
G01*
X135433Y357000D02*
G03*
X135433Y357000I-10433J0D01*
G01*
X23933Y380500D02*
G03*
X23933Y380500I-10433J0D01*
G01*
X50433Y357000D02*
G03*
X50433Y357000I-10433J0D01*
G01*
X322933Y300000D02*
G03*
X322933Y300000I-10433J0D01*
G01*
X311433Y378000D02*
G03*
X311433Y378000I-10433J0D01*
G01*
X334433Y378500D02*
G03*
X334433Y378500I-10433J0D01*
G01*
X357433Y378000D02*
G03*
X357433Y378000I-10433J0D01*
G01*
X388433Y355500D02*
G03*
X388433Y355500I-10433J0D01*
G01*
Y332000D02*
G03*
X388433Y332000I-10433J0D01*
G01*
Y309000D02*
G03*
X388433Y309000I-10433J0D01*
G01*
X361433Y275500D02*
G03*
X361433Y275500I-10433J0D01*
G01*
X336933Y276000D02*
G03*
X336933Y276000I-10433J0D01*
G01*
X312933Y275500D02*
G03*
X312933Y275500I-10433J0D01*
G01*
X285933Y304500D02*
G03*
X285933Y304500I-10433J0D01*
G01*
X286433Y330000D02*
G03*
X286433Y330000I-10433J0D01*
G01*
X285433Y355000D02*
G03*
X285433Y355000I-10433J0D01*
G01*
X351933Y14500D02*
G03*
X351933Y14500I-10433J0D01*
G01*
Y37500D02*
G03*
X351933Y37500I-10433J0D01*
G01*
Y60500D02*
G03*
X351933Y60500I-10433J0D01*
G01*
Y83500D02*
G03*
X351933Y83500I-10433J0D01*
G01*
Y106500D02*
G03*
X351933Y106500I-10433J0D01*
G01*
Y129500D02*
G03*
X351933Y129500I-10433J0D01*
G01*
Y152500D02*
G03*
X351933Y152500I-10433J0D01*
G01*
Y175500D02*
G03*
X351933Y175500I-10433J0D01*
G01*
Y198500D02*
G03*
X351933Y198500I-10433J0D01*
G01*
Y221500D02*
G03*
X351933Y221500I-10433J0D01*
G01*
X377000Y4976D02*
G03*
X368000Y5000I-4500J0D01*
G01*
X282933Y14500D02*
G03*
X282933Y14500I-10433J0D01*
G01*
Y37500D02*
G03*
X282933Y37500I-10433J0D01*
G01*
Y60500D02*
G03*
X282933Y60500I-10433J0D01*
G01*
Y83500D02*
G03*
X282933Y83500I-10433J0D01*
G01*
Y106500D02*
G03*
X282933Y106500I-10433J0D01*
G01*
Y129500D02*
G03*
X282933Y129500I-10433J0D01*
G01*
Y152500D02*
G03*
X282933Y152500I-10433J0D01*
G01*
Y175500D02*
G03*
X282933Y175500I-10433J0D01*
G01*
Y198500D02*
G03*
X282933Y198500I-10433J0D01*
G01*
Y221500D02*
G03*
X282933Y221500I-10433J0D01*
G01*
X308000Y4976D02*
G03*
X299000Y5000I-4500J0D01*
G01*
X25433Y324500D02*
G03*
X25433Y324500I-10433J0D01*
G01*
X48433D02*
G03*
X48433Y324500I-10433J0D01*
G01*
X71433D02*
G03*
X71433Y324500I-10433J0D01*
G01*
X94433D02*
G03*
X94433Y324500I-10433J0D01*
G01*
X117433D02*
G03*
X117433Y324500I-10433J0D01*
G01*
X140433D02*
G03*
X140433Y324500I-10433J0D01*
G01*
X163433D02*
G03*
X163433Y324500I-10433J0D01*
G01*
X186433D02*
G03*
X186433Y324500I-10433J0D01*
G01*
X209433D02*
G03*
X209433Y324500I-10433J0D01*
G01*
X232433D02*
G03*
X232433Y324500I-10433J0D01*
G01*
X5476Y289000D02*
G03*
X5500Y298000I0J4500D01*
G01*
X25433Y257000D02*
G03*
X25433Y257000I-10433J0D01*
G01*
X48433D02*
G03*
X48433Y257000I-10433J0D01*
G01*
X71433D02*
G03*
X71433Y257000I-10433J0D01*
G01*
X94433D02*
G03*
X94433Y257000I-10433J0D01*
G01*
X117433D02*
G03*
X117433Y257000I-10433J0D01*
G01*
X140433D02*
G03*
X140433Y257000I-10433J0D01*
G01*
X163433D02*
G03*
X163433Y257000I-10433J0D01*
G01*
X186433D02*
G03*
X186433Y257000I-10433J0D01*
G01*
X209433D02*
G03*
X209433Y257000I-10433J0D01*
G01*
X232433D02*
G03*
X232433Y257000I-10433J0D01*
G01*
X5476Y221500D02*
G03*
X5500Y230500I0J4500D01*
G01*
X25433Y190500D02*
G03*
X25433Y190500I-10433J0D01*
G01*
X48433D02*
G03*
X48433Y190500I-10433J0D01*
G01*
X71433D02*
G03*
X71433Y190500I-10433J0D01*
G01*
X94433D02*
G03*
X94433Y190500I-10433J0D01*
G01*
X117433D02*
G03*
X117433Y190500I-10433J0D01*
G01*
X140433D02*
G03*
X140433Y190500I-10433J0D01*
G01*
X163433D02*
G03*
X163433Y190500I-10433J0D01*
G01*
X186433D02*
G03*
X186433Y190500I-10433J0D01*
G01*
X209433D02*
G03*
X209433Y190500I-10433J0D01*
G01*
X232433D02*
G03*
X232433Y190500I-10433J0D01*
G01*
X5476Y155000D02*
G03*
X5500Y164000I0J4500D01*
G01*
X25433Y122000D02*
G03*
X25433Y122000I-10433J0D01*
G01*
X48433D02*
G03*
X48433Y122000I-10433J0D01*
G01*
X71433D02*
G03*
X71433Y122000I-10433J0D01*
G01*
X94433D02*
G03*
X94433Y122000I-10433J0D01*
G01*
X117433D02*
G03*
X117433Y122000I-10433J0D01*
G01*
X140433D02*
G03*
X140433Y122000I-10433J0D01*
G01*
X163433D02*
G03*
X163433Y122000I-10433J0D01*
G01*
X186433D02*
G03*
X186433Y122000I-10433J0D01*
G01*
X209433D02*
G03*
X209433Y122000I-10433J0D01*
G01*
X232433D02*
G03*
X232433Y122000I-10433J0D01*
G01*
X5476Y86500D02*
G03*
X5500Y95500I0J4500D01*
G01*
X4976Y18500D02*
G03*
X5000Y27500I0J4500D01*
G01*
X231933Y54000D02*
G03*
X231933Y54000I-10433J0D01*
G01*
X208933D02*
G03*
X208933Y54000I-10433J0D01*
G01*
X185933D02*
G03*
X185933Y54000I-10433J0D01*
G01*
X162933D02*
G03*
X162933Y54000I-10433J0D01*
G01*
X139933D02*
G03*
X139933Y54000I-10433J0D01*
G01*
X116933D02*
G03*
X116933Y54000I-10433J0D01*
G01*
X93933D02*
G03*
X93933Y54000I-10433J0D01*
G01*
X70933D02*
G03*
X70933Y54000I-10433J0D01*
G01*
X47933D02*
G03*
X47933Y54000I-10433J0D01*
G01*
X24933D02*
G03*
X24933Y54000I-10433J0D01*
G01*
X191000Y372000D02*
X196500Y366500D01*
X187000Y369000D02*
X193000Y363000D01*
X191000Y372000D02*
X194000D01*
X191000Y369500D02*
Y372000D01*
X187000Y369000D02*
X189500D01*
X187000Y366500D02*
Y369000D01*
X225000Y345000D02*
Y347500D01*
X222500Y345000D02*
X225000D01*
X221500Y342500D02*
Y345000D01*
X218500Y342500D02*
X221500D01*
X219000Y351000D02*
X225000Y345000D01*
X216000Y348000D02*
X221500Y342500D01*
X170500Y399000D02*
X250500D01*
X170500Y340500D02*
Y399000D01*
Y340500D02*
X250500D01*
Y399000D01*
X107000Y372000D02*
X112500Y366500D01*
X103000Y369000D02*
X109000Y363000D01*
X107000Y372000D02*
X110000D01*
X107000Y369500D02*
Y372000D01*
X103000Y369000D02*
X105500D01*
X103000Y366500D02*
Y369000D01*
X141000Y345000D02*
Y347500D01*
X138500Y345000D02*
X141000D01*
X137500Y342500D02*
Y345000D01*
X134500Y342500D02*
X137500D01*
X135000Y351000D02*
X141000Y345000D01*
X132000Y348000D02*
X137500Y342500D01*
X86500Y399000D02*
X166500D01*
X86500Y340500D02*
Y399000D01*
Y340500D02*
X166500D01*
Y399000D01*
X22000Y372000D02*
X27500Y366500D01*
X18000Y369000D02*
X24000Y363000D01*
X22000Y372000D02*
X25000D01*
X22000Y369500D02*
Y372000D01*
X18000Y369000D02*
X20500D01*
X18000Y366500D02*
Y369000D01*
X56000Y345000D02*
Y347500D01*
X53500Y345000D02*
X56000D01*
X52500Y342500D02*
Y345000D01*
X49500Y342500D02*
X52500D01*
X50000Y351000D02*
X56000Y345000D01*
X47000Y348000D02*
X52500Y342500D01*
X1500Y399000D02*
X81500D01*
X1500Y340500D02*
Y399000D01*
Y340500D02*
X81500D01*
Y399000D01*
X297000Y297500D02*
X300500D01*
Y301500D01*
X292500Y305500D02*
X300500Y297500D01*
X302000Y306000D02*
Y310000D01*
X297500Y306000D02*
X302000D01*
X293000Y315000D02*
X302000Y306000D01*
X263000Y263500D02*
Y390500D01*
X390000D01*
Y263500D02*
Y390500D01*
X263000Y263500D02*
X390000D01*
X330500Y2000D02*
X393500D01*
X330500D02*
Y248000D01*
X393500D01*
Y2000D02*
Y248000D01*
X261500Y2000D02*
X324500D01*
X261500D02*
Y248000D01*
X324500D01*
Y2000D02*
Y248000D01*
X2500Y272500D02*
Y335500D01*
X248500D01*
Y272500D02*
Y335500D01*
X2500Y272500D02*
X248500D01*
X2500Y205000D02*
Y268000D01*
X248500D01*
Y205000D02*
Y268000D01*
X2500Y205000D02*
X248500D01*
X2500Y138500D02*
Y201500D01*
X248500D01*
Y138500D02*
Y201500D01*
X2500Y138500D02*
X248500D01*
X2500Y70000D02*
Y133000D01*
X248500D01*
Y70000D02*
Y133000D01*
X2500Y70000D02*
X248500D01*
X2000Y2000D02*
X248000D01*
Y65000D01*
X2000D02*
X248000D01*
X2000Y2000D02*
Y65000D01*
X347500Y233500D02*
Y235206D01*
Y234353D01*
X342384D01*
X343236Y233500D01*
X347500Y241175D02*
Y237764D01*
X344089Y241175D01*
X343236D01*
X342384Y240322D01*
Y238616D01*
X343236Y237764D01*
X342384Y242880D02*
X345795D01*
X347500Y244586D01*
X345795Y246291D01*
X342384D01*
X278500Y233500D02*
Y235206D01*
Y234353D01*
X273383D01*
X274236Y233500D01*
X278500Y241175D02*
Y237764D01*
X275089Y241175D01*
X274236D01*
X273383Y240322D01*
Y238616D01*
X274236Y237764D01*
X273383Y242880D02*
X276795D01*
X278500Y244586D01*
X276795Y246291D01*
X273383D01*
X233500Y318500D02*
X235206D01*
X234353D01*
Y323617D01*
X233500Y322764D01*
X241175Y318500D02*
X237764D01*
X241175Y321911D01*
Y322764D01*
X240322Y323617D01*
X238616D01*
X237764Y322764D01*
X242880Y323617D02*
Y320205D01*
X244586Y318500D01*
X246291Y320205D01*
Y323617D01*
X233500Y250500D02*
X235206D01*
X234353D01*
Y255616D01*
X233500Y254764D01*
X241175Y250500D02*
X237764D01*
X241175Y253911D01*
Y254764D01*
X240322Y255616D01*
X238616D01*
X237764Y254764D01*
X242880Y255616D02*
Y252205D01*
X244586Y250500D01*
X246291Y252205D01*
Y255616D01*
X233500Y184500D02*
X235206D01*
X234353D01*
Y189617D01*
X233500Y188764D01*
X241175Y184500D02*
X237764D01*
X241175Y187911D01*
Y188764D01*
X240322Y189617D01*
X238616D01*
X237764Y188764D01*
X242880Y189617D02*
Y186205D01*
X244586Y184500D01*
X246291Y186205D01*
Y189617D01*
X233500Y115500D02*
X235206D01*
X234353D01*
Y120616D01*
X233500Y119764D01*
X241175Y115500D02*
X237764D01*
X241175Y118911D01*
Y119764D01*
X240322Y120616D01*
X238616D01*
X237764Y119764D01*
X242880Y120616D02*
Y117206D01*
X244586Y115500D01*
X246291Y117206D01*
Y120616D01*
X233500Y47500D02*
X235206D01*
X234353D01*
Y52617D01*
X233500Y51764D01*
X241175Y47500D02*
X237764D01*
X241175Y50911D01*
Y51764D01*
X240322Y52617D01*
X238616D01*
X237764Y51764D01*
X242880Y52617D02*
Y49205D01*
X244586Y47500D01*
X246291Y49205D01*
Y52617D01*
X243999Y398000D02*
Y394001D01*
X245998Y396001D02*
X242000D01*
X233558Y398000D02*
Y394589D01*
X225617Y365500D02*
X220500D01*
Y362089D01*
X225617Y356973D02*
Y360384D01*
X220500D01*
Y356973D01*
X223058Y360384D02*
Y358678D01*
X225617Y355267D02*
X220500D01*
Y352709D01*
X221353Y351856D01*
X224764D01*
X225617Y352709D01*
Y355267D01*
X242500Y381713D02*
X241713Y382500D01*
X240139D01*
X239351Y381713D01*
Y378564D01*
X240139Y377777D01*
X241713D01*
X242500Y378564D01*
Y379351D01*
X241713Y380139D01*
X239351D01*
X237777Y377777D02*
Y380926D01*
X236203Y382500D01*
X234629Y380926D01*
Y377777D01*
X214999Y363500D02*
Y359501D01*
X216998Y361501D02*
X213000D01*
X213558Y353500D02*
Y350089D01*
X159999Y398000D02*
Y394001D01*
X161998Y396001D02*
X158000D01*
X149558Y398000D02*
Y394589D01*
X141616Y365500D02*
X136500D01*
Y362089D01*
X141616Y356973D02*
Y360384D01*
X136500D01*
Y356973D01*
X139058Y360384D02*
Y358678D01*
X141616Y355267D02*
X136500D01*
Y352709D01*
X137353Y351856D01*
X140764D01*
X141616Y352709D01*
Y355267D01*
X158500Y381713D02*
X157713Y382500D01*
X156139D01*
X155351Y381713D01*
Y378564D01*
X156139Y377777D01*
X157713D01*
X158500Y378564D01*
Y379351D01*
X157713Y380139D01*
X155351D01*
X153777Y377777D02*
Y380926D01*
X152203Y382500D01*
X150628Y380926D01*
Y377777D01*
X130999Y363500D02*
Y359501D01*
X132998Y361501D02*
X129000D01*
X129558Y353500D02*
Y350089D01*
X74999Y398000D02*
Y394001D01*
X76998Y396001D02*
X73000D01*
X64558Y398000D02*
Y394589D01*
X56616Y365500D02*
X51500D01*
Y362089D01*
X56616Y356973D02*
Y360384D01*
X51500D01*
Y356973D01*
X54058Y360384D02*
Y358678D01*
X56616Y355267D02*
X51500D01*
Y352709D01*
X52353Y351856D01*
X55764D01*
X56616Y352709D01*
Y355267D01*
X73500Y381713D02*
X72713Y382500D01*
X71139D01*
X70351Y381713D01*
Y378564D01*
X71139Y377777D01*
X72713D01*
X73500Y378564D01*
Y379351D01*
X72713Y380139D01*
X70351D01*
X68777Y377777D02*
Y380926D01*
X67203Y382500D01*
X65628Y380926D01*
Y377777D01*
X45999Y363500D02*
Y359501D01*
X47998Y361501D02*
X44000D01*
X44558Y353500D02*
Y350089D01*
X267000Y358499D02*
X270999D01*
X268000Y333499D02*
X271999D01*
X267500Y308499D02*
X271499D01*
X295500Y270499D02*
X299499D01*
X319500Y270999D02*
X323499D01*
X344500Y269999D02*
X348499D01*
X382000Y303999D02*
X385999D01*
X382000Y327499D02*
X385999D01*
X382500Y350999D02*
X386499D01*
X349500Y382999D02*
X353499D01*
X327000D02*
X330999D01*
X303500D02*
X307499D01*
X267000Y350499D02*
X270999D01*
X268999Y352498D02*
Y348500D01*
X267500Y326499D02*
X271499D01*
X269499Y328498D02*
Y324500D01*
X267500Y300499D02*
X271499D01*
X269499Y302498D02*
Y298500D01*
X304500Y269499D02*
X308499D01*
X306499Y271498D02*
Y267500D01*
X328500Y269499D02*
X332499D01*
X330499Y271498D02*
Y267500D01*
X353000Y269499D02*
X356999D01*
X354999Y271498D02*
Y267500D01*
X382000Y313499D02*
X385999D01*
X383999Y315498D02*
Y311500D01*
X382000Y336499D02*
X385999D01*
X383999Y338498D02*
Y334500D01*
X382000Y359999D02*
X385999D01*
X383999Y361998D02*
Y358000D01*
X340500Y384499D02*
X344499D01*
X342499Y386498D02*
Y382500D01*
X317000Y384499D02*
X320999D01*
X318999Y386498D02*
Y382500D01*
X294000Y383999D02*
X297999D01*
X295999Y385998D02*
Y382000D01*
X371000Y272500D02*
X372000Y273500D01*
Y275499D01*
X371000Y276499D01*
X367002D01*
X366002Y275499D01*
Y273500D01*
X367002Y272500D01*
X368001D01*
X369001Y273500D01*
Y276499D01*
X366002Y278498D02*
X370001D01*
X372000Y280497D01*
X370001Y282497D01*
X366002D01*
X266000Y286500D02*
Y289649D01*
X267574Y291223D01*
X269149Y289649D01*
Y286500D01*
Y288861D01*
X266000D01*
X270723Y286500D02*
Y287287D01*
X271510D01*
Y286500D01*
X270723D01*
X274659Y291223D02*
X276233D01*
X275446D01*
Y286500D01*
X274659D01*
X276233D01*
X278594D02*
Y287287D01*
X279381D01*
Y286500D01*
X278594D01*
X287253D02*
Y291223D01*
X289614D01*
X290402Y290436D01*
Y288861D01*
X289614Y288074D01*
X287253D01*
X295124Y290436D02*
X294337Y291223D01*
X292763D01*
X291976Y290436D01*
Y287287D01*
X292763Y286500D01*
X294337D01*
X295124Y287287D01*
X296699Y291223D02*
Y286500D01*
X299060D01*
X299847Y287287D01*
Y288074D01*
X299060Y288861D01*
X296699D01*
X299060D01*
X299847Y289649D01*
Y290436D01*
X299060Y291223D01*
X296699D01*
X308000Y307829D02*
Y303500D01*
X310886D01*
X312329Y307829D02*
Y303500D01*
X314494D01*
X315215Y304222D01*
Y307108D01*
X314494Y307829D01*
X312329D01*
X316659Y303500D02*
Y307829D01*
X318823D01*
X319545Y307108D01*
Y305665D01*
X318823Y304943D01*
X316659D01*
X318102D02*
X319545Y303500D01*
X378500Y266499D02*
X382499D01*
X378000Y292499D02*
X381999D01*
X379999Y294498D02*
Y290500D01*
X337942Y7000D02*
Y10411D01*
X336236Y8705D02*
X339647D01*
X337942Y29500D02*
Y32911D01*
X336236Y31205D02*
X339647D01*
X337942Y52500D02*
Y55911D01*
X336236Y54206D02*
X339647D01*
X337942Y75500D02*
Y78911D01*
X336236Y77205D02*
X339647D01*
X337942Y98500D02*
Y101911D01*
X336236Y100206D02*
X339647D01*
X337942Y121500D02*
Y124911D01*
X336236Y123205D02*
X339647D01*
X337942Y144500D02*
Y147911D01*
X336236Y146205D02*
X339647D01*
X337942Y167500D02*
Y170911D01*
X336236Y169205D02*
X339647D01*
X337942Y190500D02*
Y193911D01*
X336236Y192206D02*
X339647D01*
X337942Y213500D02*
Y216911D01*
X336236Y215206D02*
X339647D01*
X356442Y239000D02*
Y242411D01*
X354736Y240705D02*
X358147D01*
X344500Y19500D02*
Y21499D01*
Y20500D01*
X338502D01*
X339502Y19500D01*
X344500Y45999D02*
Y42000D01*
X340501Y45999D01*
X339502D01*
X338502Y44999D01*
Y43000D01*
X339502Y42000D01*
Y65000D02*
X338502Y66000D01*
Y67999D01*
X339502Y68999D01*
X340501D01*
X341501Y67999D01*
Y66999D01*
Y67999D01*
X342501Y68999D01*
X343500D01*
X344500Y67999D01*
Y66000D01*
X343500Y65000D01*
X344500Y90499D02*
X338502D01*
X341501Y87500D01*
Y91499D01*
X338502Y114999D02*
Y111000D01*
X341501D01*
X340501Y112999D01*
Y113999D01*
X341501Y114999D01*
X343500D01*
X344500Y113999D01*
Y112000D01*
X343500Y111000D01*
X339002Y137499D02*
X340002Y135499D01*
X342001Y133500D01*
X344000D01*
X345000Y134500D01*
Y136499D01*
X344000Y137499D01*
X343001D01*
X342001Y136499D01*
Y133500D01*
X338502Y157000D02*
Y160999D01*
X339502D01*
X343500Y157000D01*
X344500D01*
X340002Y180000D02*
X339002Y181000D01*
Y182999D01*
X340002Y183999D01*
X341001D01*
X342001Y182999D01*
X343001Y183999D01*
X344000D01*
X345000Y182999D01*
Y181000D01*
X344000Y180000D01*
X343001D01*
X342001Y181000D01*
X341001Y180000D01*
X340002D01*
X342001Y181000D02*
Y182999D01*
X343500Y203000D02*
X344500Y204000D01*
Y205999D01*
X343500Y206999D01*
X339502D01*
X338502Y205999D01*
Y204000D01*
X339502Y203000D01*
X340501D01*
X341501Y204000D01*
Y206999D01*
X268942Y7000D02*
Y10411D01*
X267236Y8705D02*
X270647D01*
X268942Y29500D02*
Y32911D01*
X267236Y31205D02*
X270647D01*
X268942Y52500D02*
Y55911D01*
X267236Y54206D02*
X270647D01*
X268942Y75500D02*
Y78911D01*
X267236Y77205D02*
X270647D01*
X268942Y98500D02*
Y101911D01*
X267236Y100206D02*
X270647D01*
X268942Y121500D02*
Y124911D01*
X267236Y123205D02*
X270647D01*
X268942Y144500D02*
Y147911D01*
X267236Y146205D02*
X270647D01*
X268942Y167500D02*
Y170911D01*
X267236Y169205D02*
X270647D01*
X268942Y190500D02*
Y193911D01*
X267236Y192206D02*
X270647D01*
X268942Y213500D02*
Y216911D01*
X267236Y215206D02*
X270647D01*
X287442Y239000D02*
Y242411D01*
X285736Y240705D02*
X289147D01*
X275500Y19500D02*
Y21499D01*
Y20500D01*
X269502D01*
X270502Y19500D01*
X275500Y45999D02*
Y42000D01*
X271501Y45999D01*
X270502D01*
X269502Y44999D01*
Y43000D01*
X270502Y42000D01*
Y65000D02*
X269502Y66000D01*
Y67999D01*
X270502Y68999D01*
X271501D01*
X272501Y67999D01*
Y66999D01*
Y67999D01*
X273501Y68999D01*
X274500D01*
X275500Y67999D01*
Y66000D01*
X274500Y65000D01*
X275500Y90499D02*
X269502D01*
X272501Y87500D01*
Y91499D01*
X269502Y114999D02*
Y111000D01*
X272501D01*
X271501Y112999D01*
Y113999D01*
X272501Y114999D01*
X274500D01*
X275500Y113999D01*
Y112000D01*
X274500Y111000D01*
X270002Y137499D02*
X271002Y135499D01*
X273001Y133500D01*
X275000D01*
X276000Y134500D01*
Y136499D01*
X275000Y137499D01*
X274001D01*
X273001Y136499D01*
Y133500D01*
X269502Y157000D02*
Y160999D01*
X270502D01*
X274500Y157000D01*
X275500D01*
X271002Y180000D02*
X270002Y181000D01*
Y182999D01*
X271002Y183999D01*
X272001D01*
X273001Y182999D01*
X274001Y183999D01*
X275000D01*
X276000Y182999D01*
Y181000D01*
X275000Y180000D01*
X274001D01*
X273001Y181000D01*
X272001Y180000D01*
X271002D01*
X273001Y181000D02*
Y182999D01*
X274500Y203000D02*
X275500Y204000D01*
Y205999D01*
X274500Y206999D01*
X270502D01*
X269502Y205999D01*
Y204000D01*
X270502Y203000D01*
X271501D01*
X272501Y204000D01*
Y206999D01*
X7500Y328058D02*
X10911D01*
X9206Y329764D02*
Y326353D01*
X30000Y328058D02*
X33411D01*
X31705Y329764D02*
Y326353D01*
X53000Y328058D02*
X56411D01*
X54706Y329764D02*
Y326353D01*
X76000Y328058D02*
X79411D01*
X77706Y329764D02*
Y326353D01*
X99000Y328058D02*
X102411D01*
X100706Y329764D02*
Y326353D01*
X122000Y328058D02*
X125411D01*
X123705Y329764D02*
Y326353D01*
X145000Y328058D02*
X148411D01*
X146705Y329764D02*
Y326353D01*
X168000Y328058D02*
X171411D01*
X169705Y329764D02*
Y326353D01*
X191000Y328058D02*
X194411D01*
X192706Y329764D02*
Y326353D01*
X214000Y328058D02*
X217411D01*
X215705Y329764D02*
Y326353D01*
X239500Y309558D02*
X242911D01*
X241206Y311264D02*
Y307853D01*
X20000Y321500D02*
X21999D01*
X21000D01*
Y327498D01*
X20000Y326498D01*
X46499Y321500D02*
X42500D01*
X46499Y325499D01*
Y326498D01*
X45499Y327498D01*
X43500D01*
X42500Y326498D01*
X65500D02*
X66500Y327498D01*
X68499D01*
X69499Y326498D01*
Y325499D01*
X68499Y324499D01*
X67499D01*
X68499D01*
X69499Y323499D01*
Y322500D01*
X68499Y321500D01*
X66500D01*
X65500Y322500D01*
X90999Y321500D02*
Y327498D01*
X88000Y324499D01*
X91999D01*
X115499Y327498D02*
X111500D01*
Y324499D01*
X113499Y325499D01*
X114499D01*
X115499Y324499D01*
Y322500D01*
X114499Y321500D01*
X112500D01*
X111500Y322500D01*
X137999Y326998D02*
X135999Y325998D01*
X134000Y323999D01*
Y322000D01*
X135000Y321000D01*
X136999D01*
X137999Y322000D01*
Y322999D01*
X136999Y323999D01*
X134000D01*
X157500Y327498D02*
X161499D01*
Y326498D01*
X157500Y322500D01*
Y321500D01*
X180500Y325998D02*
X181500Y326998D01*
X183499D01*
X184499Y325998D01*
Y324999D01*
X183499Y323999D01*
X184499Y322999D01*
Y322000D01*
X183499Y321000D01*
X181500D01*
X180500Y322000D01*
Y322999D01*
X181500Y323999D01*
X180500Y324999D01*
Y325998D01*
X181500Y323999D02*
X183499D01*
X203500Y322500D02*
X204500Y321500D01*
X206499D01*
X207499Y322500D01*
Y326498D01*
X206499Y327498D01*
X204500D01*
X203500Y326498D01*
Y325499D01*
X204500Y324499D01*
X207499D01*
X7500Y260558D02*
X10911D01*
X9206Y262264D02*
Y258853D01*
X30000Y260558D02*
X33411D01*
X31705Y262264D02*
Y258853D01*
X53000Y260558D02*
X56411D01*
X54706Y262264D02*
Y258853D01*
X76000Y260558D02*
X79411D01*
X77706Y262264D02*
Y258853D01*
X99000Y260558D02*
X102411D01*
X100706Y262264D02*
Y258853D01*
X122000Y260558D02*
X125411D01*
X123705Y262264D02*
Y258853D01*
X145000Y260558D02*
X148411D01*
X146705Y262264D02*
Y258853D01*
X168000Y260558D02*
X171411D01*
X169705Y262264D02*
Y258853D01*
X191000Y260558D02*
X194411D01*
X192706Y262264D02*
Y258853D01*
X214000Y260558D02*
X217411D01*
X215705Y262264D02*
Y258853D01*
X239500Y242058D02*
X242911D01*
X241206Y243764D02*
Y240353D01*
X20000Y254000D02*
X21999D01*
X21000D01*
Y259998D01*
X20000Y258998D01*
X46499Y254000D02*
X42500D01*
X46499Y257999D01*
Y258998D01*
X45499Y259998D01*
X43500D01*
X42500Y258998D01*
X65500D02*
X66500Y259998D01*
X68499D01*
X69499Y258998D01*
Y257999D01*
X68499Y256999D01*
X67499D01*
X68499D01*
X69499Y255999D01*
Y255000D01*
X68499Y254000D01*
X66500D01*
X65500Y255000D01*
X90999Y254000D02*
Y259998D01*
X88000Y256999D01*
X91999D01*
X115499Y259998D02*
X111500D01*
Y256999D01*
X113499Y257999D01*
X114499D01*
X115499Y256999D01*
Y255000D01*
X114499Y254000D01*
X112500D01*
X111500Y255000D01*
X137999Y259498D02*
X135999Y258498D01*
X134000Y256499D01*
Y254500D01*
X135000Y253500D01*
X136999D01*
X137999Y254500D01*
Y255499D01*
X136999Y256499D01*
X134000D01*
X157500Y259998D02*
X161499D01*
Y258998D01*
X157500Y255000D01*
Y254000D01*
X180500Y258498D02*
X181500Y259498D01*
X183499D01*
X184499Y258498D01*
Y257499D01*
X183499Y256499D01*
X184499Y255499D01*
Y254500D01*
X183499Y253500D01*
X181500D01*
X180500Y254500D01*
Y255499D01*
X181500Y256499D01*
X180500Y257499D01*
Y258498D01*
X181500Y256499D02*
X183499D01*
X203500Y255000D02*
X204500Y254000D01*
X206499D01*
X207499Y255000D01*
Y258998D01*
X206499Y259998D01*
X204500D01*
X203500Y258998D01*
Y257999D01*
X204500Y256999D01*
X207499D01*
X7500Y194058D02*
X10911D01*
X9206Y195764D02*
Y192353D01*
X30000Y194058D02*
X33411D01*
X31705Y195764D02*
Y192353D01*
X53000Y194058D02*
X56411D01*
X54706Y195764D02*
Y192353D01*
X76000Y194058D02*
X79411D01*
X77706Y195764D02*
Y192353D01*
X99000Y194058D02*
X102411D01*
X100706Y195764D02*
Y192353D01*
X122000Y194058D02*
X125411D01*
X123705Y195764D02*
Y192353D01*
X145000Y194058D02*
X148411D01*
X146705Y195764D02*
Y192353D01*
X168000Y194058D02*
X171411D01*
X169705Y195764D02*
Y192353D01*
X191000Y194058D02*
X194411D01*
X192706Y195764D02*
Y192353D01*
X214000Y194058D02*
X217411D01*
X215705Y195764D02*
Y192353D01*
X239500Y175558D02*
X242911D01*
X241206Y177264D02*
Y173853D01*
X20000Y187500D02*
X21999D01*
X21000D01*
Y193498D01*
X20000Y192498D01*
X46499Y187500D02*
X42500D01*
X46499Y191499D01*
Y192498D01*
X45499Y193498D01*
X43500D01*
X42500Y192498D01*
X65500D02*
X66500Y193498D01*
X68499D01*
X69499Y192498D01*
Y191499D01*
X68499Y190499D01*
X67499D01*
X68499D01*
X69499Y189499D01*
Y188500D01*
X68499Y187500D01*
X66500D01*
X65500Y188500D01*
X90999Y187500D02*
Y193498D01*
X88000Y190499D01*
X91999D01*
X115499Y193498D02*
X111500D01*
Y190499D01*
X113499Y191499D01*
X114499D01*
X115499Y190499D01*
Y188500D01*
X114499Y187500D01*
X112500D01*
X111500Y188500D01*
X137999Y192998D02*
X135999Y191998D01*
X134000Y189999D01*
Y188000D01*
X135000Y187000D01*
X136999D01*
X137999Y188000D01*
Y188999D01*
X136999Y189999D01*
X134000D01*
X157500Y193498D02*
X161499D01*
Y192498D01*
X157500Y188500D01*
Y187500D01*
X180500Y191998D02*
X181500Y192998D01*
X183499D01*
X184499Y191998D01*
Y190999D01*
X183499Y189999D01*
X184499Y188999D01*
Y188000D01*
X183499Y187000D01*
X181500D01*
X180500Y188000D01*
Y188999D01*
X181500Y189999D01*
X180500Y190999D01*
Y191998D01*
X181500Y189999D02*
X183499D01*
X203500Y188500D02*
X204500Y187500D01*
X206499D01*
X207499Y188500D01*
Y192498D01*
X206499Y193498D01*
X204500D01*
X203500Y192498D01*
Y191499D01*
X204500Y190499D01*
X207499D01*
X7500Y125558D02*
X10911D01*
X9206Y127264D02*
Y123853D01*
X30000Y125558D02*
X33411D01*
X31705Y127264D02*
Y123853D01*
X53000Y125558D02*
X56411D01*
X54706Y127264D02*
Y123853D01*
X76000Y125558D02*
X79411D01*
X77706Y127264D02*
Y123853D01*
X99000Y125558D02*
X102411D01*
X100706Y127264D02*
Y123853D01*
X122000Y125558D02*
X125411D01*
X123705Y127264D02*
Y123853D01*
X145000Y125558D02*
X148411D01*
X146705Y127264D02*
Y123853D01*
X168000Y125558D02*
X171411D01*
X169705Y127264D02*
Y123853D01*
X191000Y125558D02*
X194411D01*
X192706Y127264D02*
Y123853D01*
X214000Y125558D02*
X217411D01*
X215705Y127264D02*
Y123853D01*
X239500Y107058D02*
X242911D01*
X241206Y108764D02*
Y105353D01*
X20000Y119000D02*
X21999D01*
X21000D01*
Y124998D01*
X20000Y123998D01*
X46499Y119000D02*
X42500D01*
X46499Y122999D01*
Y123998D01*
X45499Y124998D01*
X43500D01*
X42500Y123998D01*
X65500D02*
X66500Y124998D01*
X68499D01*
X69499Y123998D01*
Y122999D01*
X68499Y121999D01*
X67499D01*
X68499D01*
X69499Y120999D01*
Y120000D01*
X68499Y119000D01*
X66500D01*
X65500Y120000D01*
X90999Y119000D02*
Y124998D01*
X88000Y121999D01*
X91999D01*
X115499Y124998D02*
X111500D01*
Y121999D01*
X113499Y122999D01*
X114499D01*
X115499Y121999D01*
Y120000D01*
X114499Y119000D01*
X112500D01*
X111500Y120000D01*
X137999Y124498D02*
X135999Y123498D01*
X134000Y121499D01*
Y119500D01*
X135000Y118500D01*
X136999D01*
X137999Y119500D01*
Y120499D01*
X136999Y121499D01*
X134000D01*
X157500Y124998D02*
X161499D01*
Y123998D01*
X157500Y120000D01*
Y119000D01*
X180500Y123498D02*
X181500Y124498D01*
X183499D01*
X184499Y123498D01*
Y122499D01*
X183499Y121499D01*
X184499Y120499D01*
Y119500D01*
X183499Y118500D01*
X181500D01*
X180500Y119500D01*
Y120499D01*
X181500Y121499D01*
X180500Y122499D01*
Y123498D01*
X181500Y121499D02*
X183499D01*
X203500Y120000D02*
X204500Y119000D01*
X206499D01*
X207499Y120000D01*
Y123998D01*
X206499Y124998D01*
X204500D01*
X203500Y123998D01*
Y122999D01*
X204500Y121999D01*
X207499D01*
X203000Y52000D02*
X204000Y51000D01*
X205999D01*
X206999Y52000D01*
Y55998D01*
X205999Y56998D01*
X204000D01*
X203000Y55998D01*
Y54999D01*
X204000Y53999D01*
X206999D01*
X180000Y55498D02*
X181000Y56498D01*
X182999D01*
X183999Y55498D01*
Y54499D01*
X182999Y53499D01*
X183999Y52499D01*
Y51500D01*
X182999Y50500D01*
X181000D01*
X180000Y51500D01*
Y52499D01*
X181000Y53499D01*
X180000Y54499D01*
Y55498D01*
X181000Y53499D02*
X182999D01*
X157000Y56998D02*
X160999D01*
Y55998D01*
X157000Y52000D01*
Y51000D01*
X137499Y56498D02*
X135499Y55498D01*
X133500Y53499D01*
Y51500D01*
X134500Y50500D01*
X136499D01*
X137499Y51500D01*
Y52499D01*
X136499Y53499D01*
X133500D01*
X114999Y56998D02*
X111000D01*
Y53999D01*
X112999Y54999D01*
X113999D01*
X114999Y53999D01*
Y52000D01*
X113999Y51000D01*
X112000D01*
X111000Y52000D01*
X90499Y51000D02*
Y56998D01*
X87500Y53999D01*
X91499D01*
X65000Y55998D02*
X66000Y56998D01*
X67999D01*
X68999Y55998D01*
Y54999D01*
X67999Y53999D01*
X66999D01*
X67999D01*
X68999Y52999D01*
Y52000D01*
X67999Y51000D01*
X66000D01*
X65000Y52000D01*
X45999Y51000D02*
X42000D01*
X45999Y54999D01*
Y55998D01*
X44999Y56998D01*
X43000D01*
X42000Y55998D01*
X19500Y51000D02*
X21499D01*
X20500D01*
Y56998D01*
X19500Y55998D01*
X239000Y39058D02*
X242411D01*
X240705Y40764D02*
Y37353D01*
X213500Y57558D02*
X216911D01*
X215206Y59264D02*
Y55853D01*
X190500Y57558D02*
X193911D01*
X192206Y59264D02*
Y55853D01*
X167500Y57558D02*
X170911D01*
X169205Y59264D02*
Y55853D01*
X144500Y57558D02*
X147911D01*
X146205Y59264D02*
Y55853D01*
X121500Y57558D02*
X124911D01*
X123205Y59264D02*
Y55853D01*
X98500Y57558D02*
X101911D01*
X100206Y59264D02*
Y55853D01*
X75500Y57558D02*
X78911D01*
X77205Y59264D02*
Y55853D01*
X52500Y57558D02*
X55911D01*
X54206Y59264D02*
Y55853D01*
X29500Y57558D02*
X32911D01*
X31205Y59264D02*
Y55853D01*
X7000Y57558D02*
X10411D01*
X8705Y59264D02*
Y55853D01*
D34*
X197402Y397555D02*
X222598D01*
X197402Y370902D02*
Y389130D01*
Y370902D02*
X207126D01*
X212874D02*
X222598D01*
Y389130D01*
X113402Y397555D02*
X138598D01*
X113402Y370902D02*
Y389130D01*
Y370902D02*
X123126D01*
X128874D02*
X138598D01*
Y389130D01*
X28402Y397555D02*
X53598D01*
X28402Y370902D02*
Y389130D01*
Y370902D02*
X38126D01*
X43874D02*
X53598D01*
Y389130D01*
X300402Y322370D02*
Y340598D01*
X310126D01*
X315874D02*
X325598D01*
Y322370D02*
Y340598D01*
X300402Y313945D02*
X325598D01*
X360008Y4976D02*
X385992D01*
X360008Y97024D02*
X385992D01*
Y4976D02*
Y7142D01*
X360008Y4976D02*
Y7142D01*
X385992Y94858D02*
Y97024D01*
X360008Y94858D02*
Y97024D01*
X291008Y4976D02*
X316992D01*
X291008Y97024D02*
X316992D01*
Y4976D02*
Y7142D01*
X291008Y4976D02*
Y7142D01*
X316992Y94858D02*
Y97024D01*
X291008Y94858D02*
Y97024D01*
X5476Y280008D02*
Y305992D01*
X97524Y280008D02*
Y305992D01*
X5476Y280008D02*
X7642D01*
X5476Y305992D02*
X7642D01*
X95358Y280008D02*
X97524D01*
X95358Y305992D02*
X97524D01*
X5476Y212508D02*
Y238492D01*
X97524Y212508D02*
Y238492D01*
X5476Y212508D02*
X7642D01*
X5476Y238492D02*
X7642D01*
X95358Y212508D02*
X97524D01*
X95358Y238492D02*
X97524D01*
X5476Y146008D02*
Y171992D01*
X97524Y146008D02*
Y171992D01*
X5476Y146008D02*
X7642D01*
X5476Y171992D02*
X7642D01*
X95358Y146008D02*
X97524D01*
X95358Y171992D02*
X97524D01*
X5476Y77508D02*
Y103492D01*
X97524Y77508D02*
Y103492D01*
X5476Y77508D02*
X7642D01*
X5476Y103492D02*
X7642D01*
X95358Y77508D02*
X97524D01*
X95358Y103492D02*
X97524D01*
X4976Y9508D02*
Y35492D01*
X97024Y9508D02*
Y35492D01*
X4976Y9508D02*
X7142D01*
X4976Y35492D02*
X7142D01*
X94858Y9508D02*
X97024D01*
X94858Y35492D02*
X97024D01*
D35*
X367498Y386292D02*
Y382749D01*
X369269D01*
X369859Y383340D01*
Y385701D01*
X369269Y386292D01*
X367498D01*
X371040Y382749D02*
Y385111D01*
X372221Y386292D01*
X373401Y385111D01*
Y382749D01*
Y384521D01*
X371040D01*
X374582Y382749D02*
Y386292D01*
X376353D01*
X376944Y385701D01*
Y384521D01*
X376353Y383930D01*
X374582D01*
X375763D02*
X376944Y382749D01*
X378124Y386292D02*
Y382749D01*
Y383930D01*
X380486Y386292D01*
X378715Y384521D01*
X380486Y382749D01*
X361594Y379277D02*
X361004Y379868D01*
X359823D01*
X359233Y379277D01*
Y378687D01*
X359823Y378097D01*
X361004D01*
X361594Y377506D01*
Y376916D01*
X361004Y376326D01*
X359823D01*
X359233Y376916D01*
X365137Y379868D02*
X362775D01*
Y376326D01*
X365137D01*
X362775Y378097D02*
X363956D01*
X366317Y376326D02*
Y379868D01*
X368679Y376326D01*
Y379868D01*
X372221Y379277D02*
X371631Y379868D01*
X370450D01*
X369859Y379277D01*
Y378687D01*
X370450Y378097D01*
X371631D01*
X372221Y377506D01*
Y376916D01*
X371631Y376326D01*
X370450D01*
X369859Y376916D01*
X373401Y379868D02*
X374582D01*
X373992D01*
Y376326D01*
X373401D01*
X374582D01*
X376353Y379868D02*
X378715D01*
X377534D01*
Y376326D01*
X379895Y379868D02*
X381076D01*
X380486D01*
Y376326D01*
X379895D01*
X381076D01*
X382847Y379868D02*
Y377506D01*
X384028Y376326D01*
X385209Y377506D01*
Y379868D01*
X388751D02*
X386389D01*
Y376326D01*
X388751D01*
X386389Y378097D02*
X387570D01*
X365137Y372854D02*
X364546Y373444D01*
X363365D01*
X362775Y372854D01*
Y370492D01*
X363365Y369902D01*
X364546D01*
X365137Y370492D01*
X366317Y373444D02*
X367498D01*
X366908D01*
Y369902D01*
X366317D01*
X367498D01*
X369269D02*
Y373444D01*
X371040D01*
X371631Y372854D01*
Y371673D01*
X371040Y371082D01*
X369269D01*
X370450D02*
X371631Y369902D01*
X375173Y372854D02*
X374582Y373444D01*
X373401D01*
X372811Y372854D01*
Y370492D01*
X373401Y369902D01*
X374582D01*
X375173Y370492D01*
X376353Y373444D02*
Y370492D01*
X376944Y369902D01*
X378124D01*
X378715Y370492D01*
Y373444D01*
X379895D02*
X381076D01*
X380486D01*
Y369902D01*
X379895D01*
X381076D01*
X382847Y373444D02*
X385209D01*
X384028D01*
Y369902D01*
D36*
X273577Y378600D02*
X275545D01*
X274561D01*
Y384504D01*
X273577Y383520D01*
X282432Y378600D02*
X278496D01*
X282432Y382536D01*
Y383520D01*
X281448Y384504D01*
X279480D01*
X278496Y383520D01*
X267181Y374585D02*
Y368681D01*
X271117D01*
X277020Y374585D02*
X273085D01*
Y368681D01*
X277020D01*
X273085Y371633D02*
X275053D01*
X278988Y374585D02*
Y368681D01*
X281940D01*
X282924Y369665D01*
Y373601D01*
X281940Y374585D01*
X278988D01*
X284892Y368681D02*
X287844D01*
X288828Y369665D01*
X287844Y370649D01*
X285876D01*
X284892Y371633D01*
X285876Y372617D01*
X288828D01*
X240000Y349500D02*
X237639D01*
X236458Y350681D01*
X237639Y351861D01*
X240000D01*
X238229D01*
Y349500D01*
X240000Y353042D02*
X239410D01*
Y353632D01*
X240000D01*
Y353042D01*
X236458Y355994D02*
Y357175D01*
Y356584D01*
X240000D01*
Y355994D01*
Y357175D01*
Y358946D02*
X239410D01*
Y359536D01*
X240000D01*
Y358946D01*
Y365440D02*
X236458D01*
Y367211D01*
X237048Y367801D01*
X238229D01*
X238819Y367211D01*
Y365440D01*
X237048Y371343D02*
X236458Y370753D01*
Y369572D01*
X237048Y368982D01*
X239410D01*
X240000Y369572D01*
Y370753D01*
X239410Y371343D01*
X236458Y372524D02*
X240000D01*
Y374295D01*
X239410Y374886D01*
X238819D01*
X238229Y374295D01*
Y372524D01*
Y374295D01*
X237639Y374886D01*
X237048D01*
X236458Y374295D01*
Y372524D01*
X156000Y349500D02*
X153639D01*
X152458Y350681D01*
X153639Y351861D01*
X156000D01*
X154229D01*
Y349500D01*
X156000Y353042D02*
X155410D01*
Y353632D01*
X156000D01*
Y353042D01*
X152458Y355994D02*
Y357175D01*
Y356584D01*
X156000D01*
Y355994D01*
Y357175D01*
Y358946D02*
X155410D01*
Y359536D01*
X156000D01*
Y358946D01*
Y365440D02*
X152458D01*
Y367211D01*
X153048Y367801D01*
X154229D01*
X154819Y367211D01*
Y365440D01*
X153048Y371343D02*
X152458Y370753D01*
Y369572D01*
X153048Y368982D01*
X155410D01*
X156000Y369572D01*
Y370753D01*
X155410Y371343D01*
X152458Y372524D02*
X156000D01*
Y374295D01*
X155410Y374886D01*
X154819D01*
X154229Y374295D01*
Y372524D01*
Y374295D01*
X153639Y374886D01*
X153048D01*
X152458Y374295D01*
Y372524D01*
X71000Y349500D02*
X68639D01*
X67458Y350681D01*
X68639Y351861D01*
X71000D01*
X69229D01*
Y349500D01*
X71000Y353042D02*
X70410D01*
Y353632D01*
X71000D01*
Y353042D01*
X67458Y355994D02*
Y357175D01*
Y356584D01*
X71000D01*
Y355994D01*
Y357175D01*
Y358946D02*
X70410D01*
Y359536D01*
X71000D01*
Y358946D01*
Y365440D02*
X67458D01*
Y367211D01*
X68048Y367801D01*
X69229D01*
X69819Y367211D01*
Y365440D01*
X68048Y371343D02*
X67458Y370753D01*
Y369572D01*
X68048Y368982D01*
X70410D01*
X71000Y369572D01*
Y370753D01*
X70410Y371343D01*
X67458Y372524D02*
X71000D01*
Y374295D01*
X70410Y374886D01*
X69819D01*
X69229Y374295D01*
Y372524D01*
Y374295D01*
X68639Y374886D01*
X68048D01*
X67458Y374295D01*
Y372524D01*
X359000Y163000D02*
X355851D01*
X354277Y164574D01*
X355851Y166149D01*
X359000D01*
X356639D01*
Y163000D01*
X354277Y167723D02*
Y169297D01*
Y168510D01*
X359000D01*
Y167723D01*
Y169297D01*
Y176382D02*
X354277D01*
Y178743D01*
X355064Y179530D01*
X356639D01*
X357426Y178743D01*
Y176382D01*
X355064Y184253D02*
X354277Y183466D01*
Y181892D01*
X355064Y181104D01*
X358213D01*
X359000Y181892D01*
Y183466D01*
X358213Y184253D01*
X354277Y185827D02*
X359000D01*
Y188189D01*
X358213Y188976D01*
X357426D01*
X356639Y188189D01*
Y185827D01*
Y188189D01*
X355851Y188976D01*
X355064D01*
X354277Y188189D01*
Y185827D01*
X290000Y163000D02*
X286851D01*
X285277Y164574D01*
X286851Y166149D01*
X290000D01*
X287639D01*
Y163000D01*
X285277Y167723D02*
Y169297D01*
Y168510D01*
X290000D01*
Y167723D01*
Y169297D01*
Y176382D02*
X285277D01*
Y178743D01*
X286064Y179530D01*
X287639D01*
X288426Y178743D01*
Y176382D01*
X286064Y184253D02*
X285277Y183466D01*
Y181892D01*
X286064Y181104D01*
X289213D01*
X290000Y181892D01*
Y183466D01*
X289213Y184253D01*
X285277Y185827D02*
X290000D01*
Y188189D01*
X289213Y188976D01*
X288426D01*
X287639Y188189D01*
Y185827D01*
Y188189D01*
X286851Y188976D01*
X286064D01*
X285277Y188189D01*
Y185827D01*
X163500Y307000D02*
Y310149D01*
X165074Y311723D01*
X166649Y310149D01*
Y307000D01*
Y309361D01*
X163500D01*
X168223Y311723D02*
X169797D01*
X169010D01*
Y307000D01*
X168223D01*
X169797D01*
X176882D02*
Y311723D01*
X179243D01*
X180030Y310936D01*
Y309361D01*
X179243Y308574D01*
X176882D01*
X184753Y310936D02*
X183966Y311723D01*
X182392D01*
X181604Y310936D01*
Y307787D01*
X182392Y307000D01*
X183966D01*
X184753Y307787D01*
X186327Y311723D02*
Y307000D01*
X188689D01*
X189476Y307787D01*
Y308574D01*
X188689Y309361D01*
X186327D01*
X188689D01*
X189476Y310149D01*
Y310936D01*
X188689Y311723D01*
X186327D01*
X163500Y239500D02*
Y242649D01*
X165074Y244223D01*
X166649Y242649D01*
Y239500D01*
Y241861D01*
X163500D01*
X168223Y244223D02*
X169797D01*
X169010D01*
Y239500D01*
X168223D01*
X169797D01*
X176882D02*
Y244223D01*
X179243D01*
X180030Y243436D01*
Y241861D01*
X179243Y241074D01*
X176882D01*
X184753Y243436D02*
X183966Y244223D01*
X182392D01*
X181604Y243436D01*
Y240287D01*
X182392Y239500D01*
X183966D01*
X184753Y240287D01*
X186327Y244223D02*
Y239500D01*
X188689D01*
X189476Y240287D01*
Y241074D01*
X188689Y241861D01*
X186327D01*
X188689D01*
X189476Y242649D01*
Y243436D01*
X188689Y244223D01*
X186327D01*
X163500Y173000D02*
Y176149D01*
X165074Y177723D01*
X166649Y176149D01*
Y173000D01*
Y175361D01*
X163500D01*
X168223Y177723D02*
X169797D01*
X169010D01*
Y173000D01*
X168223D01*
X169797D01*
X176882D02*
Y177723D01*
X179243D01*
X180030Y176936D01*
Y175361D01*
X179243Y174574D01*
X176882D01*
X184753Y176936D02*
X183966Y177723D01*
X182392D01*
X181604Y176936D01*
Y173787D01*
X182392Y173000D01*
X183966D01*
X184753Y173787D01*
X186327Y177723D02*
Y173000D01*
X188689D01*
X189476Y173787D01*
Y174574D01*
X188689Y175361D01*
X186327D01*
X188689D01*
X189476Y176149D01*
Y176936D01*
X188689Y177723D01*
X186327D01*
X163500Y104500D02*
Y107649D01*
X165074Y109223D01*
X166649Y107649D01*
Y104500D01*
Y106861D01*
X163500D01*
X168223Y109223D02*
X169797D01*
X169010D01*
Y104500D01*
X168223D01*
X169797D01*
X176882D02*
Y109223D01*
X179243D01*
X180030Y108436D01*
Y106861D01*
X179243Y106074D01*
X176882D01*
X184753Y108436D02*
X183966Y109223D01*
X182392D01*
X181604Y108436D01*
Y105287D01*
X182392Y104500D01*
X183966D01*
X184753Y105287D01*
X186327Y109223D02*
Y104500D01*
X188689D01*
X189476Y105287D01*
Y106074D01*
X188689Y106861D01*
X186327D01*
X188689D01*
X189476Y107649D01*
Y108436D01*
X188689Y109223D01*
X186327D01*
X163000Y36500D02*
Y39649D01*
X164574Y41223D01*
X166149Y39649D01*
Y36500D01*
Y38861D01*
X163000D01*
X167723Y41223D02*
X169297D01*
X168510D01*
Y36500D01*
X167723D01*
X169297D01*
X176382D02*
Y41223D01*
X178743D01*
X179530Y40436D01*
Y38861D01*
X178743Y38074D01*
X176382D01*
X184253Y40436D02*
X183466Y41223D01*
X181892D01*
X181104Y40436D01*
Y37287D01*
X181892Y36500D01*
X183466D01*
X184253Y37287D01*
X185827Y41223D02*
Y36500D01*
X188189D01*
X188976Y37287D01*
Y38074D01*
X188189Y38861D01*
X185827D01*
X188189D01*
X188976Y39649D01*
Y40436D01*
X188189Y41223D01*
X185827D01*
D37*
X360245Y348500D02*
X363000D01*
Y349878D01*
X362541Y350337D01*
X362082D01*
X361623Y349878D01*
Y348500D01*
Y349878D01*
X361163Y350337D01*
X360704D01*
X360245Y349878D01*
Y348500D01*
X360704Y353092D02*
X360245Y352632D01*
Y351714D01*
X360704Y351255D01*
X362541D01*
X363000Y351714D01*
Y352632D01*
X362541Y353092D01*
X360245Y355847D02*
Y354010D01*
X361623D01*
X361163Y354928D01*
Y355388D01*
X361623Y355847D01*
X362541D01*
X363000Y355388D01*
Y354469D01*
X362541Y354010D01*
X363000Y358143D02*
X360245D01*
X361623Y356765D01*
Y358602D01*
X360245Y359520D02*
Y361357D01*
X360704D01*
X362541Y359520D01*
X363000D01*
X341245Y348500D02*
X344000D01*
Y349878D01*
X343541Y350337D01*
X343082D01*
X342622Y349878D01*
Y348500D01*
Y349878D01*
X342163Y350337D01*
X341704D01*
X341245Y349878D01*
Y348500D01*
X341704Y353092D02*
X341245Y352632D01*
Y351714D01*
X341704Y351255D01*
X343541D01*
X344000Y351714D01*
Y352632D01*
X343541Y353092D01*
X341245Y355847D02*
Y354010D01*
X342622D01*
X342163Y354928D01*
Y355388D01*
X342622Y355847D01*
X343541D01*
X344000Y355388D01*
Y354469D01*
X343541Y354010D01*
X344000Y358143D02*
X341245D01*
X342622Y356765D01*
Y358602D01*
X341245Y359520D02*
Y361357D01*
X341704D01*
X343541Y359520D01*
X344000D01*
X321245Y348500D02*
X324000D01*
Y349878D01*
X323541Y350337D01*
X323082D01*
X322622Y349878D01*
Y348500D01*
Y349878D01*
X322163Y350337D01*
X321704D01*
X321245Y349878D01*
Y348500D01*
X321704Y353092D02*
X321245Y352632D01*
Y351714D01*
X321704Y351255D01*
X323541D01*
X324000Y351714D01*
Y352632D01*
X323541Y353092D01*
X321245Y355847D02*
Y354010D01*
X322622D01*
X322163Y354928D01*
Y355388D01*
X322622Y355847D01*
X323541D01*
X324000Y355388D01*
Y354469D01*
X323541Y354010D01*
X324000Y358143D02*
X321245D01*
X322622Y356765D01*
Y358602D01*
X321245Y359520D02*
Y361357D01*
X321704D01*
X323541Y359520D01*
X324000D01*
X301745Y348500D02*
X304500D01*
Y349878D01*
X304041Y350337D01*
X303582D01*
X303122Y349878D01*
Y348500D01*
Y349878D01*
X302663Y350337D01*
X302204D01*
X301745Y349878D01*
Y348500D01*
X302204Y353092D02*
X301745Y352632D01*
Y351714D01*
X302204Y351255D01*
X304041D01*
X304500Y351714D01*
Y352632D01*
X304041Y353092D01*
X301745Y355847D02*
Y354010D01*
X303122D01*
X302663Y354928D01*
Y355388D01*
X303122Y355847D01*
X304041D01*
X304500Y355388D01*
Y354469D01*
X304041Y354010D01*
X304500Y358143D02*
X301745D01*
X303122Y356765D01*
Y358602D01*
X301745Y359520D02*
Y361357D01*
X302204D01*
X304041Y359520D01*
X304500D01*
D38*
X367554Y27000D02*
X377000D01*
Y33297D01*
Y36446D02*
X367554D01*
X370703Y39594D01*
X367554Y42743D01*
X377000D01*
X369128Y45891D02*
X367554Y47466D01*
Y50614D01*
X369128Y52189D01*
X370703D01*
X372277Y50614D01*
Y49040D01*
Y50614D01*
X373851Y52189D01*
X375426D01*
X377000Y50614D01*
Y47466D01*
X375426Y45891D01*
Y55337D02*
X377000Y56912D01*
Y60060D01*
X375426Y61634D01*
X369128D01*
X367554Y60060D01*
Y56912D01*
X369128Y55337D01*
X370703D01*
X372277Y56912D01*
Y61634D01*
X377000Y64783D02*
Y67932D01*
Y66357D01*
X367554D01*
X369128Y64783D01*
X367554Y78952D02*
Y72654D01*
X372277D01*
X370703Y75803D01*
Y77377D01*
X372277Y78952D01*
X375426D01*
X377000Y77377D01*
Y74229D01*
X375426Y72654D01*
X385703Y142500D02*
X389901D01*
X392000Y144599D01*
X389901Y146698D01*
X385703D01*
Y148797D02*
X390950D01*
X392000Y149847D01*
Y151946D01*
X390950Y152995D01*
X385703D01*
X298554Y27000D02*
X308000D01*
Y33297D01*
Y36446D02*
X298554D01*
X301703Y39594D01*
X298554Y42743D01*
X308000D01*
X300129Y45891D02*
X298554Y47466D01*
Y50614D01*
X300129Y52189D01*
X301703D01*
X303277Y50614D01*
Y49040D01*
Y50614D01*
X304851Y52189D01*
X306426D01*
X308000Y50614D01*
Y47466D01*
X306426Y45891D01*
Y55337D02*
X308000Y56912D01*
Y60060D01*
X306426Y61634D01*
X300129D01*
X298554Y60060D01*
Y56912D01*
X300129Y55337D01*
X301703D01*
X303277Y56912D01*
Y61634D01*
X308000Y64783D02*
Y67932D01*
Y66357D01*
X298554D01*
X300129Y64783D01*
X298554Y78952D02*
Y72654D01*
X303277D01*
X301703Y75803D01*
Y77377D01*
X303277Y78952D01*
X306426D01*
X308000Y77377D01*
Y74229D01*
X306426Y72654D01*
X316703Y142500D02*
X320901D01*
X323000Y144599D01*
X320901Y146698D01*
X316703D01*
Y148797D02*
X321951D01*
X323000Y149847D01*
Y151946D01*
X321951Y152995D01*
X316703D01*
X27500Y298446D02*
Y289000D01*
X33797D01*
X36946D02*
Y298446D01*
X40094Y295297D01*
X43243Y298446D01*
Y289000D01*
X46391Y296871D02*
X47966Y298446D01*
X51114D01*
X52689Y296871D01*
Y295297D01*
X51114Y293723D01*
X49540D01*
X51114D01*
X52689Y292149D01*
Y290574D01*
X51114Y289000D01*
X47966D01*
X46391Y290574D01*
X55837D02*
X57412Y289000D01*
X60560D01*
X62134Y290574D01*
Y296871D01*
X60560Y298446D01*
X57412D01*
X55837Y296871D01*
Y295297D01*
X57412Y293723D01*
X62134D01*
X65283Y289000D02*
X68432D01*
X66857D01*
Y298446D01*
X65283Y296871D01*
X79452Y298446D02*
X73154D01*
Y293723D01*
X76303Y295297D01*
X77877D01*
X79452Y293723D01*
Y290574D01*
X77877Y289000D01*
X74729D01*
X73154Y290574D01*
X143000Y280297D02*
Y276099D01*
X145099Y274000D01*
X147198Y276099D01*
Y280297D01*
X149297D02*
Y275049D01*
X150347Y274000D01*
X152446D01*
X153495Y275049D01*
Y280297D01*
X27500Y230946D02*
Y221500D01*
X33797D01*
X36946D02*
Y230946D01*
X40094Y227797D01*
X43243Y230946D01*
Y221500D01*
X46391Y229372D02*
X47966Y230946D01*
X51114D01*
X52689Y229372D01*
Y227797D01*
X51114Y226223D01*
X49540D01*
X51114D01*
X52689Y224649D01*
Y223074D01*
X51114Y221500D01*
X47966D01*
X46391Y223074D01*
X55837D02*
X57412Y221500D01*
X60560D01*
X62134Y223074D01*
Y229372D01*
X60560Y230946D01*
X57412D01*
X55837Y229372D01*
Y227797D01*
X57412Y226223D01*
X62134D01*
X65283Y221500D02*
X68432D01*
X66857D01*
Y230946D01*
X65283Y229372D01*
X79452Y230946D02*
X73154D01*
Y226223D01*
X76303Y227797D01*
X77877D01*
X79452Y226223D01*
Y223074D01*
X77877Y221500D01*
X74729D01*
X73154Y223074D01*
X143000Y212797D02*
Y208599D01*
X145099Y206500D01*
X147198Y208599D01*
Y212797D01*
X149297D02*
Y207550D01*
X150347Y206500D01*
X152446D01*
X153495Y207550D01*
Y212797D01*
X27500Y164446D02*
Y155000D01*
X33797D01*
X36946D02*
Y164446D01*
X40094Y161297D01*
X43243Y164446D01*
Y155000D01*
X46391Y162872D02*
X47966Y164446D01*
X51114D01*
X52689Y162872D01*
Y161297D01*
X51114Y159723D01*
X49540D01*
X51114D01*
X52689Y158149D01*
Y156574D01*
X51114Y155000D01*
X47966D01*
X46391Y156574D01*
X55837D02*
X57412Y155000D01*
X60560D01*
X62134Y156574D01*
Y162872D01*
X60560Y164446D01*
X57412D01*
X55837Y162872D01*
Y161297D01*
X57412Y159723D01*
X62134D01*
X65283Y155000D02*
X68432D01*
X66857D01*
Y164446D01*
X65283Y162872D01*
X79452Y164446D02*
X73154D01*
Y159723D01*
X76303Y161297D01*
X77877D01*
X79452Y159723D01*
Y156574D01*
X77877Y155000D01*
X74729D01*
X73154Y156574D01*
X143000Y146297D02*
Y142099D01*
X145099Y140000D01*
X147198Y142099D01*
Y146297D01*
X149297D02*
Y141050D01*
X150347Y140000D01*
X152446D01*
X153495Y141050D01*
Y146297D01*
X27500Y95946D02*
Y86500D01*
X33797D01*
X36946D02*
Y95946D01*
X40094Y92797D01*
X43243Y95946D01*
Y86500D01*
X46391Y94371D02*
X47966Y95946D01*
X51114D01*
X52689Y94371D01*
Y92797D01*
X51114Y91223D01*
X49540D01*
X51114D01*
X52689Y89649D01*
Y88074D01*
X51114Y86500D01*
X47966D01*
X46391Y88074D01*
X55837D02*
X57412Y86500D01*
X60560D01*
X62134Y88074D01*
Y94371D01*
X60560Y95946D01*
X57412D01*
X55837Y94371D01*
Y92797D01*
X57412Y91223D01*
X62134D01*
X65283Y86500D02*
X68432D01*
X66857D01*
Y95946D01*
X65283Y94371D01*
X79452Y95946D02*
X73154D01*
Y91223D01*
X76303Y92797D01*
X77877D01*
X79452Y91223D01*
Y88074D01*
X77877Y86500D01*
X74729D01*
X73154Y88074D01*
X143000Y77797D02*
Y73599D01*
X145099Y71500D01*
X147198Y73599D01*
Y77797D01*
X149297D02*
Y72549D01*
X150347Y71500D01*
X152446D01*
X153495Y72549D01*
Y77797D01*
X142500Y9797D02*
Y5599D01*
X144599Y3500D01*
X146698Y5599D01*
Y9797D01*
X148797D02*
Y4549D01*
X149847Y3500D01*
X151946D01*
X152995Y4549D01*
Y9797D01*
X27000Y27946D02*
Y18500D01*
X33297D01*
X36446D02*
Y27946D01*
X39594Y24797D01*
X42743Y27946D01*
Y18500D01*
X45891Y26371D02*
X47466Y27946D01*
X50614D01*
X52189Y26371D01*
Y24797D01*
X50614Y23223D01*
X49040D01*
X50614D01*
X52189Y21649D01*
Y20074D01*
X50614Y18500D01*
X47466D01*
X45891Y20074D01*
X55337D02*
X56912Y18500D01*
X60060D01*
X61634Y20074D01*
Y26371D01*
X60060Y27946D01*
X56912D01*
X55337Y26371D01*
Y24797D01*
X56912Y23223D01*
X61634D01*
X64783Y18500D02*
X67932D01*
X66357D01*
Y27946D01*
X64783Y26371D01*
X78952Y27946D02*
X72654D01*
Y23223D01*
X75803Y24797D01*
X77377D01*
X78952Y23223D01*
Y20074D01*
X77377Y18500D01*
X74229D01*
X72654Y20074D01*
D39*
X366000Y167500D02*
Y168812D01*
Y168156D01*
X362064D01*
X362720Y167500D01*
Y170780D02*
X362064Y171436D01*
Y172748D01*
X362720Y173404D01*
X365344D01*
X366000Y172748D01*
Y171436D01*
X365344Y170780D01*
X362720D01*
Y174715D02*
X362064Y175372D01*
Y176683D01*
X362720Y177339D01*
X365344D01*
X366000Y176683D01*
Y175372D01*
X365344Y174715D01*
X362720D01*
X362064Y178651D02*
X366000D01*
X364688D01*
X362064Y181275D01*
X364032Y179307D01*
X366000Y181275D01*
X365000Y202500D02*
Y203943D01*
Y203222D01*
X360671D01*
X361392Y202500D01*
X362114Y206108D02*
X364279D01*
X365000Y206829D01*
Y208994D01*
X362114D01*
X360671Y213323D02*
Y210437D01*
X362835D01*
Y211880D01*
Y210437D01*
X365000D01*
X377000Y169624D02*
Y167000D01*
X374376Y169624D01*
X373720D01*
X373064Y168968D01*
Y167656D01*
X373720Y167000D01*
X377000Y170936D02*
X376344D01*
Y171592D01*
X377000D01*
Y170936D01*
Y176839D02*
Y174215D01*
X374376Y176839D01*
X373720D01*
X373064Y176183D01*
Y174872D01*
X373720Y174215D01*
X373064Y178151D02*
X377000D01*
X375688D01*
X373064Y180775D01*
X375032Y178807D01*
X377000Y180775D01*
X386500Y169624D02*
Y167000D01*
X383876Y169624D01*
X383220D01*
X382564Y168968D01*
Y167656D01*
X383220Y167000D01*
X386500Y170936D02*
X385844D01*
Y171592D01*
X386500D01*
Y170936D01*
Y176839D02*
Y174215D01*
X383876Y176839D01*
X383220D01*
X382564Y176183D01*
Y174872D01*
X383220Y174215D01*
X382564Y178151D02*
X386500D01*
X385188D01*
X382564Y180775D01*
X384532Y178807D01*
X386500Y180775D01*
X344000Y225000D02*
Y226312D01*
Y225656D01*
X340064D01*
X340720Y225000D01*
Y228280D02*
X340064Y228936D01*
Y230248D01*
X340720Y230904D01*
X343344D01*
X344000Y230248D01*
Y228936D01*
X343344Y228280D01*
X340720D01*
X297000Y167500D02*
Y168812D01*
Y168156D01*
X293064D01*
X293720Y167500D01*
Y170780D02*
X293064Y171436D01*
Y172748D01*
X293720Y173404D01*
X296344D01*
X297000Y172748D01*
Y171436D01*
X296344Y170780D01*
X293720D01*
Y174715D02*
X293064Y175372D01*
Y176683D01*
X293720Y177339D01*
X296344D01*
X297000Y176683D01*
Y175372D01*
X296344Y174715D01*
X293720D01*
X293064Y178651D02*
X297000D01*
X295688D01*
X293064Y181275D01*
X295032Y179307D01*
X297000Y181275D01*
X296000Y202500D02*
Y203943D01*
Y203222D01*
X291671D01*
X292392Y202500D01*
X293114Y206108D02*
X295279D01*
X296000Y206829D01*
Y208994D01*
X293114D01*
X291671Y213323D02*
Y210437D01*
X293835D01*
Y211880D01*
Y210437D01*
X296000D01*
X308000Y169624D02*
Y167000D01*
X305376Y169624D01*
X304720D01*
X304064Y168968D01*
Y167656D01*
X304720Y167000D01*
X308000Y170936D02*
X307344D01*
Y171592D01*
X308000D01*
Y170936D01*
Y176839D02*
Y174215D01*
X305376Y176839D01*
X304720D01*
X304064Y176183D01*
Y174872D01*
X304720Y174215D01*
X304064Y178151D02*
X308000D01*
X306688D01*
X304064Y180775D01*
X306032Y178807D01*
X308000Y180775D01*
X317500Y169624D02*
Y167000D01*
X314876Y169624D01*
X314220D01*
X313564Y168968D01*
Y167656D01*
X314220Y167000D01*
X317500Y170936D02*
X316844D01*
Y171592D01*
X317500D01*
Y170936D01*
Y176839D02*
Y174215D01*
X314876Y176839D01*
X314220D01*
X313564Y176183D01*
Y174872D01*
X314220Y174215D01*
X313564Y178151D02*
X317500D01*
X316188D01*
X313564Y180775D01*
X315532Y178807D01*
X317500Y180775D01*
X275000Y225000D02*
Y226312D01*
Y225656D01*
X271064D01*
X271720Y225000D01*
Y228280D02*
X271064Y228936D01*
Y230248D01*
X271720Y230904D01*
X274344D01*
X275000Y230248D01*
Y228936D01*
X274344Y228280D01*
X271720D01*
X168000Y300000D02*
X169312D01*
X168656D01*
Y303936D01*
X168000Y303280D01*
X171280D02*
X171936Y303936D01*
X173248D01*
X173904Y303280D01*
Y300656D01*
X173248Y300000D01*
X171936D01*
X171280Y300656D01*
Y303280D01*
X175215D02*
X175872Y303936D01*
X177183D01*
X177839Y303280D01*
Y300656D01*
X177183Y300000D01*
X175872D01*
X175215Y300656D01*
Y303280D01*
X179151Y303936D02*
Y300000D01*
Y301312D01*
X181775Y303936D01*
X179807Y301968D01*
X181775Y300000D01*
X203000Y301000D02*
X204443D01*
X203722D01*
Y305329D01*
X203000Y304608D01*
X206608Y303886D02*
Y301722D01*
X207329Y301000D01*
X209494D01*
Y303886D01*
X213823Y305329D02*
X210937D01*
Y303165D01*
X212380D01*
X210937D01*
Y301000D01*
X170124Y289000D02*
X167500D01*
X170124Y291624D01*
Y292280D01*
X169468Y292936D01*
X168156D01*
X167500Y292280D01*
X171436Y289000D02*
Y289656D01*
X172092D01*
Y289000D01*
X171436D01*
X177339D02*
X174715D01*
X177339Y291624D01*
Y292280D01*
X176683Y292936D01*
X175372D01*
X174715Y292280D01*
X178651Y292936D02*
Y289000D01*
Y290312D01*
X181275Y292936D01*
X179307Y290968D01*
X181275Y289000D01*
X170124Y279500D02*
X167500D01*
X170124Y282124D01*
Y282780D01*
X169468Y283436D01*
X168156D01*
X167500Y282780D01*
X171436Y279500D02*
Y280156D01*
X172092D01*
Y279500D01*
X171436D01*
X177339D02*
X174715D01*
X177339Y282124D01*
Y282780D01*
X176683Y283436D01*
X175372D01*
X174715Y282780D01*
X178651Y283436D02*
Y279500D01*
Y280812D01*
X181275Y283436D01*
X179307Y281468D01*
X181275Y279500D01*
X225500Y322000D02*
X226812D01*
X226156D01*
Y325936D01*
X225500Y325280D01*
X228780D02*
X229436Y325936D01*
X230748D01*
X231404Y325280D01*
Y322656D01*
X230748Y322000D01*
X229436D01*
X228780Y322656D01*
Y325280D01*
X168000Y232500D02*
X169312D01*
X168656D01*
Y236436D01*
X168000Y235780D01*
X171280D02*
X171936Y236436D01*
X173248D01*
X173904Y235780D01*
Y233156D01*
X173248Y232500D01*
X171936D01*
X171280Y233156D01*
Y235780D01*
X175215D02*
X175872Y236436D01*
X177183D01*
X177839Y235780D01*
Y233156D01*
X177183Y232500D01*
X175872D01*
X175215Y233156D01*
Y235780D01*
X179151Y236436D02*
Y232500D01*
Y233812D01*
X181775Y236436D01*
X179807Y234468D01*
X181775Y232500D01*
X203000Y233500D02*
X204443D01*
X203722D01*
Y237829D01*
X203000Y237108D01*
X206608Y236386D02*
Y234222D01*
X207329Y233500D01*
X209494D01*
Y236386D01*
X213823Y237829D02*
X210937D01*
Y235665D01*
X212380D01*
X210937D01*
Y233500D01*
X170124Y221500D02*
X167500D01*
X170124Y224124D01*
Y224780D01*
X169468Y225436D01*
X168156D01*
X167500Y224780D01*
X171436Y221500D02*
Y222156D01*
X172092D01*
Y221500D01*
X171436D01*
X177339D02*
X174715D01*
X177339Y224124D01*
Y224780D01*
X176683Y225436D01*
X175372D01*
X174715Y224780D01*
X178651Y225436D02*
Y221500D01*
Y222812D01*
X181275Y225436D01*
X179307Y223468D01*
X181275Y221500D01*
X170124Y212000D02*
X167500D01*
X170124Y214624D01*
Y215280D01*
X169468Y215936D01*
X168156D01*
X167500Y215280D01*
X171436Y212000D02*
Y212656D01*
X172092D01*
Y212000D01*
X171436D01*
X177339D02*
X174715D01*
X177339Y214624D01*
Y215280D01*
X176683Y215936D01*
X175372D01*
X174715Y215280D01*
X178651Y215936D02*
Y212000D01*
Y213312D01*
X181275Y215936D01*
X179307Y213968D01*
X181275Y212000D01*
X225500Y254500D02*
X226812D01*
X226156D01*
Y258436D01*
X225500Y257780D01*
X228780D02*
X229436Y258436D01*
X230748D01*
X231404Y257780D01*
Y255156D01*
X230748Y254500D01*
X229436D01*
X228780Y255156D01*
Y257780D01*
X168000Y166000D02*
X169312D01*
X168656D01*
Y169936D01*
X168000Y169280D01*
X171280D02*
X171936Y169936D01*
X173248D01*
X173904Y169280D01*
Y166656D01*
X173248Y166000D01*
X171936D01*
X171280Y166656D01*
Y169280D01*
X175215D02*
X175872Y169936D01*
X177183D01*
X177839Y169280D01*
Y166656D01*
X177183Y166000D01*
X175872D01*
X175215Y166656D01*
Y169280D01*
X179151Y169936D02*
Y166000D01*
Y167312D01*
X181775Y169936D01*
X179807Y167968D01*
X181775Y166000D01*
X203000Y167000D02*
X204443D01*
X203722D01*
Y171329D01*
X203000Y170608D01*
X206608Y169886D02*
Y167722D01*
X207329Y167000D01*
X209494D01*
Y169886D01*
X213823Y171329D02*
X210937D01*
Y169165D01*
X212380D01*
X210937D01*
Y167000D01*
X170124Y155000D02*
X167500D01*
X170124Y157624D01*
Y158280D01*
X169468Y158936D01*
X168156D01*
X167500Y158280D01*
X171436Y155000D02*
Y155656D01*
X172092D01*
Y155000D01*
X171436D01*
X177339D02*
X174715D01*
X177339Y157624D01*
Y158280D01*
X176683Y158936D01*
X175372D01*
X174715Y158280D01*
X178651Y158936D02*
Y155000D01*
Y156312D01*
X181275Y158936D01*
X179307Y156968D01*
X181275Y155000D01*
X170124Y145500D02*
X167500D01*
X170124Y148124D01*
Y148780D01*
X169468Y149436D01*
X168156D01*
X167500Y148780D01*
X171436Y145500D02*
Y146156D01*
X172092D01*
Y145500D01*
X171436D01*
X177339D02*
X174715D01*
X177339Y148124D01*
Y148780D01*
X176683Y149436D01*
X175372D01*
X174715Y148780D01*
X178651Y149436D02*
Y145500D01*
Y146812D01*
X181275Y149436D01*
X179307Y147468D01*
X181275Y145500D01*
X225500Y188000D02*
X226812D01*
X226156D01*
Y191936D01*
X225500Y191280D01*
X228780D02*
X229436Y191936D01*
X230748D01*
X231404Y191280D01*
Y188656D01*
X230748Y188000D01*
X229436D01*
X228780Y188656D01*
Y191280D01*
X168000Y97500D02*
X169312D01*
X168656D01*
Y101436D01*
X168000Y100780D01*
X171280D02*
X171936Y101436D01*
X173248D01*
X173904Y100780D01*
Y98156D01*
X173248Y97500D01*
X171936D01*
X171280Y98156D01*
Y100780D01*
X175215D02*
X175872Y101436D01*
X177183D01*
X177839Y100780D01*
Y98156D01*
X177183Y97500D01*
X175872D01*
X175215Y98156D01*
Y100780D01*
X179151Y101436D02*
Y97500D01*
Y98812D01*
X181775Y101436D01*
X179807Y99468D01*
X181775Y97500D01*
X203000Y98500D02*
X204443D01*
X203722D01*
Y102829D01*
X203000Y102108D01*
X206608Y101386D02*
Y99222D01*
X207329Y98500D01*
X209494D01*
Y101386D01*
X213823Y102829D02*
X210937D01*
Y100665D01*
X212380D01*
X210937D01*
Y98500D01*
X170124Y86500D02*
X167500D01*
X170124Y89124D01*
Y89780D01*
X169468Y90436D01*
X168156D01*
X167500Y89780D01*
X171436Y86500D02*
Y87156D01*
X172092D01*
Y86500D01*
X171436D01*
X177339D02*
X174715D01*
X177339Y89124D01*
Y89780D01*
X176683Y90436D01*
X175372D01*
X174715Y89780D01*
X178651Y90436D02*
Y86500D01*
Y87812D01*
X181275Y90436D01*
X179307Y88468D01*
X181275Y86500D01*
X170124Y77000D02*
X167500D01*
X170124Y79624D01*
Y80280D01*
X169468Y80936D01*
X168156D01*
X167500Y80280D01*
X171436Y77000D02*
Y77656D01*
X172092D01*
Y77000D01*
X171436D01*
X177339D02*
X174715D01*
X177339Y79624D01*
Y80280D01*
X176683Y80936D01*
X175372D01*
X174715Y80280D01*
X178651Y80936D02*
Y77000D01*
Y78312D01*
X181275Y80936D01*
X179307Y78968D01*
X181275Y77000D01*
X225500Y119500D02*
X226812D01*
X226156D01*
Y123436D01*
X225500Y122780D01*
X228780D02*
X229436Y123436D01*
X230748D01*
X231404Y122780D01*
Y120156D01*
X230748Y119500D01*
X229436D01*
X228780Y120156D01*
Y122780D01*
X225000Y51500D02*
X226312D01*
X225656D01*
Y55436D01*
X225000Y54780D01*
X228280D02*
X228936Y55436D01*
X230248D01*
X230904Y54780D01*
Y52156D01*
X230248Y51500D01*
X228936D01*
X228280Y52156D01*
Y54780D01*
X169624Y9000D02*
X167000D01*
X169624Y11624D01*
Y12280D01*
X168968Y12936D01*
X167656D01*
X167000Y12280D01*
X170936Y9000D02*
Y9656D01*
X171592D01*
Y9000D01*
X170936D01*
X176839D02*
X174215D01*
X176839Y11624D01*
Y12280D01*
X176183Y12936D01*
X174872D01*
X174215Y12280D01*
X178151Y12936D02*
Y9000D01*
Y10312D01*
X180775Y12936D01*
X178807Y10968D01*
X180775Y9000D01*
X169624Y18500D02*
X167000D01*
X169624Y21124D01*
Y21780D01*
X168968Y22436D01*
X167656D01*
X167000Y21780D01*
X170936Y18500D02*
Y19156D01*
X171592D01*
Y18500D01*
X170936D01*
X176839D02*
X174215D01*
X176839Y21124D01*
Y21780D01*
X176183Y22436D01*
X174872D01*
X174215Y21780D01*
X178151Y22436D02*
Y18500D01*
Y19812D01*
X180775Y22436D01*
X178807Y20468D01*
X180775Y18500D01*
X202500Y30500D02*
X203943D01*
X203222D01*
Y34829D01*
X202500Y34108D01*
X206108Y33386D02*
Y31222D01*
X206829Y30500D01*
X208994D01*
Y33386D01*
X213323Y34829D02*
X210437D01*
Y32665D01*
X211880D01*
X210437D01*
Y30500D01*
X167500Y29500D02*
X168812D01*
X168156D01*
Y33436D01*
X167500Y32780D01*
X170780D02*
X171436Y33436D01*
X172748D01*
X173404Y32780D01*
Y30156D01*
X172748Y29500D01*
X171436D01*
X170780Y30156D01*
Y32780D01*
X174715D02*
X175372Y33436D01*
X176683D01*
X177339Y32780D01*
Y30156D01*
X176683Y29500D01*
X175372D01*
X174715Y30156D01*
Y32780D01*
X178651Y33436D02*
Y29500D01*
Y30812D01*
X181275Y33436D01*
X179307Y31468D01*
X181275Y29500D01*
D40*
X374032Y236074D02*
X373639Y235681D01*
Y234894D01*
X374032Y234500D01*
X374426D01*
X374819Y234894D01*
Y235681D01*
X375213Y236074D01*
X375606D01*
X376000Y235681D01*
Y234894D01*
X375606Y234500D01*
X373639Y236861D02*
Y237649D01*
Y237255D01*
X376000D01*
Y236861D01*
Y237649D01*
X374032Y240404D02*
X373639Y240010D01*
Y239223D01*
X374032Y238829D01*
X375606D01*
X376000Y239223D01*
Y240010D01*
X375606Y240404D01*
X374819D01*
Y239616D01*
X376000Y241191D02*
X373639D01*
X376000Y242765D01*
X373639D01*
X376000Y243552D02*
X374426D01*
X373639Y244339D01*
X374426Y245127D01*
X376000D01*
X374819D01*
Y243552D01*
X373639Y245914D02*
X376000D01*
Y247488D01*
X374032Y226074D02*
X373639Y225681D01*
Y224894D01*
X374032Y224500D01*
X375606D01*
X376000Y224894D01*
Y225681D01*
X375606Y226074D01*
X374819D01*
Y225287D01*
X376000Y226861D02*
X373639D01*
X376000Y228436D01*
X373639D01*
Y229223D02*
X376000D01*
Y230404D01*
X375606Y230797D01*
X374032D01*
X373639Y230404D01*
Y229223D01*
X305032Y236074D02*
X304639Y235681D01*
Y234894D01*
X305032Y234500D01*
X305426D01*
X305819Y234894D01*
Y235681D01*
X306213Y236074D01*
X306606D01*
X307000Y235681D01*
Y234894D01*
X306606Y234500D01*
X304639Y236861D02*
Y237649D01*
Y237255D01*
X307000D01*
Y236861D01*
Y237649D01*
X305032Y240404D02*
X304639Y240010D01*
Y239223D01*
X305032Y238829D01*
X306606D01*
X307000Y239223D01*
Y240010D01*
X306606Y240404D01*
X305819D01*
Y239616D01*
X307000Y241191D02*
X304639D01*
X307000Y242765D01*
X304639D01*
X307000Y243552D02*
X305426D01*
X304639Y244339D01*
X305426Y245127D01*
X307000D01*
X305819D01*
Y243552D01*
X304639Y245914D02*
X307000D01*
Y247488D01*
X305032Y226074D02*
X304639Y225681D01*
Y224894D01*
X305032Y224500D01*
X306606D01*
X307000Y224894D01*
Y225681D01*
X306606Y226074D01*
X305819D01*
Y225287D01*
X307000Y226861D02*
X304639D01*
X307000Y228436D01*
X304639D01*
Y229223D02*
X307000D01*
Y230404D01*
X306606Y230797D01*
X305032D01*
X304639Y230404D01*
Y229223D01*
X236574Y291968D02*
X236181Y292361D01*
X235394D01*
X235000Y291968D01*
Y291574D01*
X235394Y291181D01*
X236181D01*
X236574Y290787D01*
Y290394D01*
X236181Y290000D01*
X235394D01*
X235000Y290394D01*
X237361Y292361D02*
X238149D01*
X237755D01*
Y290000D01*
X237361D01*
X238149D01*
X240904Y291968D02*
X240510Y292361D01*
X239723D01*
X239329Y291968D01*
Y290394D01*
X239723Y290000D01*
X240510D01*
X240904Y290394D01*
Y291181D01*
X240116D01*
X241691Y290000D02*
Y292361D01*
X243265Y290000D01*
Y292361D01*
X244052Y290000D02*
Y291574D01*
X244839Y292361D01*
X245626Y291574D01*
Y290000D01*
Y291181D01*
X244052D01*
X246414Y292361D02*
Y290000D01*
X247988D01*
X226574Y291968D02*
X226181Y292361D01*
X225394D01*
X225000Y291968D01*
Y290394D01*
X225394Y290000D01*
X226181D01*
X226574Y290394D01*
Y291181D01*
X225787D01*
X227361Y290000D02*
Y292361D01*
X228936Y290000D01*
Y292361D01*
X229723D02*
Y290000D01*
X230904D01*
X231297Y290394D01*
Y291968D01*
X230904Y292361D01*
X229723D01*
X236574Y224468D02*
X236181Y224861D01*
X235394D01*
X235000Y224468D01*
Y224074D01*
X235394Y223681D01*
X236181D01*
X236574Y223287D01*
Y222894D01*
X236181Y222500D01*
X235394D01*
X235000Y222894D01*
X237361Y224861D02*
X238149D01*
X237755D01*
Y222500D01*
X237361D01*
X238149D01*
X240904Y224468D02*
X240510Y224861D01*
X239723D01*
X239329Y224468D01*
Y222894D01*
X239723Y222500D01*
X240510D01*
X240904Y222894D01*
Y223681D01*
X240116D01*
X241691Y222500D02*
Y224861D01*
X243265Y222500D01*
Y224861D01*
X244052Y222500D02*
Y224074D01*
X244839Y224861D01*
X245626Y224074D01*
Y222500D01*
Y223681D01*
X244052D01*
X246414Y224861D02*
Y222500D01*
X247988D01*
X226574Y224468D02*
X226181Y224861D01*
X225394D01*
X225000Y224468D01*
Y222894D01*
X225394Y222500D01*
X226181D01*
X226574Y222894D01*
Y223681D01*
X225787D01*
X227361Y222500D02*
Y224861D01*
X228936Y222500D01*
Y224861D01*
X229723D02*
Y222500D01*
X230904D01*
X231297Y222894D01*
Y224468D01*
X230904Y224861D01*
X229723D01*
X236574Y157968D02*
X236181Y158361D01*
X235394D01*
X235000Y157968D01*
Y157574D01*
X235394Y157181D01*
X236181D01*
X236574Y156787D01*
Y156394D01*
X236181Y156000D01*
X235394D01*
X235000Y156394D01*
X237361Y158361D02*
X238149D01*
X237755D01*
Y156000D01*
X237361D01*
X238149D01*
X240904Y157968D02*
X240510Y158361D01*
X239723D01*
X239329Y157968D01*
Y156394D01*
X239723Y156000D01*
X240510D01*
X240904Y156394D01*
Y157181D01*
X240116D01*
X241691Y156000D02*
Y158361D01*
X243265Y156000D01*
Y158361D01*
X244052Y156000D02*
Y157574D01*
X244839Y158361D01*
X245626Y157574D01*
Y156000D01*
Y157181D01*
X244052D01*
X246414Y158361D02*
Y156000D01*
X247988D01*
X226574Y157968D02*
X226181Y158361D01*
X225394D01*
X225000Y157968D01*
Y156394D01*
X225394Y156000D01*
X226181D01*
X226574Y156394D01*
Y157181D01*
X225787D01*
X227361Y156000D02*
Y158361D01*
X228936Y156000D01*
Y158361D01*
X229723D02*
Y156000D01*
X230904D01*
X231297Y156394D01*
Y157968D01*
X230904Y158361D01*
X229723D01*
X236574Y89468D02*
X236181Y89861D01*
X235394D01*
X235000Y89468D01*
Y89074D01*
X235394Y88681D01*
X236181D01*
X236574Y88287D01*
Y87894D01*
X236181Y87500D01*
X235394D01*
X235000Y87894D01*
X237361Y89861D02*
X238149D01*
X237755D01*
Y87500D01*
X237361D01*
X238149D01*
X240904Y89468D02*
X240510Y89861D01*
X239723D01*
X239329Y89468D01*
Y87894D01*
X239723Y87500D01*
X240510D01*
X240904Y87894D01*
Y88681D01*
X240116D01*
X241691Y87500D02*
Y89861D01*
X243265Y87500D01*
Y89861D01*
X244052Y87500D02*
Y89074D01*
X244839Y89861D01*
X245626Y89074D01*
Y87500D01*
Y88681D01*
X244052D01*
X246414Y89861D02*
Y87500D01*
X247988D01*
X226574Y89468D02*
X226181Y89861D01*
X225394D01*
X225000Y89468D01*
Y87894D01*
X225394Y87500D01*
X226181D01*
X226574Y87894D01*
Y88681D01*
X225787D01*
X227361Y87500D02*
Y89861D01*
X228936Y87500D01*
Y89861D01*
X229723D02*
Y87500D01*
X230904D01*
X231297Y87894D01*
Y89468D01*
X230904Y89861D01*
X229723D01*
X226074Y21468D02*
X225681Y21861D01*
X224894D01*
X224500Y21468D01*
Y19894D01*
X224894Y19500D01*
X225681D01*
X226074Y19894D01*
Y20681D01*
X225287D01*
X226861Y19500D02*
Y21861D01*
X228436Y19500D01*
Y21861D01*
X229223D02*
Y19500D01*
X230404D01*
X230797Y19894D01*
Y21468D01*
X230404Y21861D01*
X229223D01*
X236074Y21468D02*
X235681Y21861D01*
X234894D01*
X234500Y21468D01*
Y21074D01*
X234894Y20681D01*
X235681D01*
X236074Y20287D01*
Y19894D01*
X235681Y19500D01*
X234894D01*
X234500Y19894D01*
X236861Y21861D02*
X237649D01*
X237255D01*
Y19500D01*
X236861D01*
X237649D01*
X240404Y21468D02*
X240010Y21861D01*
X239223D01*
X238829Y21468D01*
Y19894D01*
X239223Y19500D01*
X240010D01*
X240404Y19894D01*
Y20681D01*
X239616D01*
X241191Y19500D02*
Y21861D01*
X242765Y19500D01*
Y21861D01*
X243552Y19500D02*
Y21074D01*
X244339Y21861D01*
X245127Y21074D01*
Y19500D01*
Y20681D01*
X243552D01*
X245914Y21861D02*
Y19500D01*
X247488D01*
D41*
X362501Y134752D02*
D03*
X381001Y135252D02*
D03*
X293501Y134752D02*
D03*
X312001Y135252D02*
D03*
D42*
X135252Y303499D02*
D03*
X135752Y284999D02*
D03*
X135252Y235999D02*
D03*
X135752Y217499D02*
D03*
X135252Y169499D02*
D03*
X135752Y150999D02*
D03*
X135252Y100999D02*
D03*
X135752Y82499D02*
D03*
X134752Y32999D02*
D03*
X135252Y14499D02*
D03*
M02*
