M48
;Layer_Color=9474304
;FILE_FORMAT=2:5
INCH,LZ
;TYPE=PLATED
T1F00S00C0.02756
T3F00S00C0.02800
T4F00S00C0.03110
T6F00S00C0.03543
T7F00S00C0.03937
%
T01
X00145Y0049
X00375
X00605
X00835
X01065
X01295
X01525
X01755
X01985
X0198157Y00325
X0189Y00315
X01895Y00205
X0189Y0011
X02025Y00145
X0159Y0011
X01595Y00205
X0159Y00315
X0217843Y00325
X02215Y0049
X02125Y00145
X02675
X02775
Y00375
X02675
X03365
X03465
Y00145
X03365
X0375Y01595
X03845Y0159
Y0189
X0375Y01895
X0381Y02025
X0363Y0198157
X0364Y0189
X03465Y01985
X03365
Y01755
X03465
Y01525
X03365
Y01295
X03465
Y01065
X03365
Y00835
X03465
Y00605
X03365
X02775
X02675
Y00835
X02775
Y01065
X02675
Y01295
X02775
Y01525
X02675
Y01755
X02775
Y01985
X02675
X0294Y0198157
X0295Y0189
X0306Y01895
X03155Y0189
X0312Y02025
X03155Y0159
X0306Y01595
X0295Y0159
X0364
X0218343Y0169
X0222Y01855
Y01955
X0213Y0151
X0222Y0127
Y0117
X0218343Y01005
X0213Y00825
X02215Y0059
X01985
X01755
X01525
X01295
X01065
X00835
X00605
X0061Y0117
Y0127
X0084
Y0117
X0107
Y0127
X013
Y0117
X0153
Y0127
X0176
Y0117
X0199
Y0127
X0198657Y01005
X01895Y00995
X019Y00885
X01895Y0079
X0203Y00825
X01595Y0079
X016Y00885
X01595Y00995
Y01475
X016Y0157
X01595Y0168
X0153Y01855
Y01955
X013
Y01855
X0107
Y01955
X0084
Y01855
X0061
Y01955
X0176
Y01855
X0199
Y01955
X0198657Y0169
X01895Y0168
X019Y0157
X01895Y01475
X0203Y0151
X0038Y0127
Y0117
X0015
Y0127
Y01855
Y01955
X0038
Y01855
X00375Y0059
X00145
X0015Y0252
Y0262
X0038
Y0252
Y03195
Y03295
X0015
Y03195
Y03465
Y03565
X00225Y03515
X004Y0352
Y0362
X0063Y0345
X0076
X0084Y03295
Y03195
X0061
Y03295
X0107
Y03195
X013
Y03295
X0153
Y03195
X0176
Y03295
X0199
Y03195
X0198657Y0303
X01895Y0302
X019Y0291
X01895Y02815
X0203Y0285
X0199Y0262
Y0252
X0198657Y02355
X01895Y02345
X019Y02235
X01895Y0214
X0203Y02175
X01595Y0214
X016Y02235
X01595Y02345
X0153Y0252
Y0262
X013
Y0252
X0107
Y0262
X0084
Y0252
X0061
Y0262
X0176
Y0252
X01595Y02815
X016Y0291
X01595Y0302
X0161Y0345
X0148
X0125Y0352
Y0362
X01075Y03515
X01Y03465
Y03565
X0184
Y03465
X01915Y03515
X0209Y0352
Y0362
X0232Y0345
X0245
X0275Y035
Y036
X0291Y03545
X02985Y03495
Y03595
X03105Y03545
X0318Y03495
Y03595
X03305Y03545
X0338Y03495
Y03595
X03495Y03545
X0357Y03495
Y03595
X0362Y0338
Y03295
Y03205
Y03105
Y0301
X0332
Y03105
Y03205
Y03295
Y0338
X0313Y0337843
X0303157Y0318157
X0322843
X03175Y03
X03075
Y02755
X02975
X03215Y0276
X03315
X0346Y02755
X0356
X03465Y02215
X03365
X0363Y0217843
X0312Y02125
X0294Y0217843
X02775Y02215
X02675
X0213Y02175
X0218343Y02355
X0222Y0252
Y0262
X0213Y0285
X0218343Y0303
X0222Y03195
Y03295
X0276Y0325
Y0335
X02755Y03095
Y02995
X0378Y0304
Y0314
Y0327
Y0337
Y03505
Y03605
X0381Y02125
X0352Y0378
X0342
X0329Y03785
X0319
X0306Y0378
X0296
X0245Y0375
X0232
X0219843Y0393342
X0200157
X01825Y03855
Y03755
X0161Y0375
X0148
X0126Y0373657
X00985Y03755
Y03855
X0116157Y0393342
X0135843
X0076Y0375
X0063
X021Y0373657
X0041
X00135Y03755
Y03855
X0031157Y0393342
X0050842
T03
X01346Y0033
X02935Y01346
X03625
X01351Y0101
Y01695
Y0236
Y03035
T04
X0011Y00075
X0021
X0031
X0041
X0051
Y00375
X0041
X0031
X0021
X0011
X0061
X0071
X0081
X0091
Y00075
X0081
X0071
X0061
X0289Y0011
Y0021
Y0031
Y0041
Y0051
X0319
Y0041
Y0031
Y0021
Y0011
X0358
Y0021
Y0031
Y0041
Y0051
X0388
Y0041
Y0031
Y0021
Y0011
Y0061
Y0071
Y0081
Y0091
X0358
Y0081
Y0071
Y0061
X0319
Y0071
Y0081
Y0091
X0289
Y0081
Y0071
Y0061
X00915Y00755
X00815
X00715
X00615
Y01055
X00715
X00815
X00915
Y0144
X00815
X00715
X00615
Y0174
X00715
X00815
X00915
Y02105
X00815
X00715
X00615
X00515
X00415
X00315
X00215
X00115
Y0174
X00215
X00315
X00415
X00515
Y0144
X00415
X00315
X00215
X00115
Y01055
X00215
X00315
X00415
X00515
Y00755
X00415
X00315
X00215
X00115
Y02405
X00215
X00315
X00415
X00515
Y0278
X00415
X00315
X00215
X00115
Y0308
X00215
X00315
X00415
X00515
X00615
X00715
X00815
X00915
Y0278
X00815
X00715
X00615
Y02405
X00715
X00815
X00915
T06
X02305Y00135
X02405
Y0031
X02305
X0231Y00815
X0241
Y0099
X0231
Y015
X0241
Y01675
X0231
Y02165
X0241
Y0234
X0231
Y0284
X0241
Y03015
X0231
X02955Y02405
Y02305
X0313
Y02405
X03645
Y02305
X0382
Y02405
X038Y0274
Y0284
X0244Y0389
X0234
X016
X015
X0075
X0065
T07
X0105409Y00145
X0104909Y0033
X0146091
X0146591Y00145
X0381Y0105409
Y0146591
X03625Y0146091
Y0104909
X0312Y0105409
X02935Y0104909
Y0146091
X0312Y0146591
X0147091Y0151
X0146591Y01695
X0105409
X0105909Y0151
X0105409Y0101
X0105909Y00825
X0147091
X0146591Y0101
X0147091Y02175
X0146591Y0236
X0105409
X0105909Y02175
Y0285
X0105409Y03035
X0146591
X0147091Y0285
M30
