G04 Layer_Color=32896*
%FSLAX25Y25*%
%MOIN*%
G70*
G01*
G75*
%ADD31C,0.00787*%
%ADD32C,0.00600*%
%ADD34C,0.00500*%
D31*
X226929Y393342D02*
G03*
X226929Y393342I-394J0D01*
G01*
D02*
G03*
X226929Y393342I-394J0D01*
G01*
X142929D02*
G03*
X142929Y393342I-394J0D01*
G01*
D02*
G03*
X142929Y393342I-394J0D01*
G01*
X57929D02*
G03*
X57929Y393342I-394J0D01*
G01*
D02*
G03*
X57929Y393342I-394J0D01*
G01*
X296858Y318158D02*
G03*
X296858Y318158I-394J0D01*
G01*
D02*
G03*
X296858Y318158I-394J0D01*
G01*
X383236Y11000D02*
G03*
X383236Y11000I-394J0D01*
G01*
D02*
G03*
X383236Y11000I-394J0D01*
G01*
X314236D02*
G03*
X314236Y11000I-394J0D01*
G01*
D02*
G03*
X314236Y11000I-394J0D01*
G01*
X11894Y283157D02*
G03*
X11894Y283157I-394J0D01*
G01*
D02*
G03*
X11894Y283157I-394J0D01*
G01*
Y215657D02*
G03*
X11894Y215657I-394J0D01*
G01*
D02*
G03*
X11894Y215657I-394J0D01*
G01*
Y149158D02*
G03*
X11894Y149158I-394J0D01*
G01*
D02*
G03*
X11894Y149158I-394J0D01*
G01*
Y80658D02*
G03*
X11894Y80658I-394J0D01*
G01*
D02*
G03*
X11894Y80658I-394J0D01*
G01*
X11394Y12657D02*
G03*
X11394Y12657I-394J0D01*
G01*
D02*
G03*
X11394Y12657I-394J0D01*
G01*
D32*
X194041Y348430D02*
G03*
X194041Y354570I-10041J3070D01*
G01*
Y348430D02*
G03*
X194041Y354570I-10041J3070D01*
G01*
X110041Y348430D02*
G03*
X110041Y354570I-10041J3070D01*
G01*
Y348430D02*
G03*
X110041Y354570I-10041J3070D01*
G01*
X25041Y348430D02*
G03*
X25041Y354570I-10041J3070D01*
G01*
Y348430D02*
G03*
X25041Y354570I-10041J3070D01*
G01*
X288459Y357570D02*
G03*
X288459Y351430I10041J-3070D01*
G01*
Y357570D02*
G03*
X288459Y351430I10041J-3070D01*
G01*
X307959Y357570D02*
G03*
X307959Y351430I10041J-3070D01*
G01*
Y357570D02*
G03*
X307959Y351430I10041J-3070D01*
G01*
X327959Y357570D02*
G03*
X327959Y351430I10041J-3070D01*
G01*
Y357570D02*
G03*
X327959Y351430I10041J-3070D01*
G01*
X346959Y357570D02*
G03*
X346959Y351430I10041J-3070D01*
G01*
Y357570D02*
G03*
X346959Y351430I10041J-3070D01*
G01*
X183000Y342626D02*
Y350374D01*
Y352626D02*
Y360374D01*
Y342626D02*
Y350374D01*
Y352626D02*
Y360374D01*
X99000Y342626D02*
Y350374D01*
Y352626D02*
Y360374D01*
Y342626D02*
Y350374D01*
Y352626D02*
Y360374D01*
X14000Y342626D02*
Y350374D01*
Y352626D02*
Y360374D01*
Y342626D02*
Y350374D01*
Y352626D02*
Y360374D01*
X299500Y345626D02*
Y353374D01*
Y355626D02*
Y363374D01*
Y345626D02*
Y353374D01*
Y355626D02*
Y363374D01*
X319000Y345626D02*
Y353374D01*
Y355626D02*
Y363374D01*
Y345626D02*
Y353374D01*
Y355626D02*
Y363374D01*
X339000Y345626D02*
Y353374D01*
Y355626D02*
Y363374D01*
Y345626D02*
Y353374D01*
Y355626D02*
Y363374D01*
X358000Y345626D02*
Y353374D01*
Y355626D02*
Y363374D01*
Y345626D02*
Y353374D01*
Y355626D02*
Y363374D01*
D34*
X197402Y397280D02*
X222598D01*
X197402Y370902D02*
Y397280D01*
Y370902D02*
X222598D01*
Y397280D01*
X197402D02*
X222598D01*
X197402Y370902D02*
Y397280D01*
Y370902D02*
X222598D01*
Y397280D01*
X113402D02*
X138598D01*
X113402Y370902D02*
Y397280D01*
Y370902D02*
X138598D01*
Y397280D01*
X113402D02*
X138598D01*
X113402Y370902D02*
Y397280D01*
Y370902D02*
X138598D01*
Y397280D01*
X28402D02*
X53598D01*
X28402Y370902D02*
Y397280D01*
Y370902D02*
X53598D01*
Y397280D01*
X28402D02*
X53598D01*
X28402Y370902D02*
Y397280D01*
Y370902D02*
X53598D01*
Y397280D01*
X300402Y314220D02*
Y340598D01*
X325598D01*
Y314220D02*
Y340598D01*
X300402Y314220D02*
X325598D01*
X300402D02*
Y340598D01*
X325598D01*
Y314220D02*
Y340598D01*
X300402Y314220D02*
X325598D01*
X360008Y4976D02*
Y97024D01*
X385992D01*
Y4976D02*
Y97024D01*
X360008Y4976D02*
X385992D01*
X360008D02*
Y97024D01*
X385992D01*
Y4976D02*
Y97024D01*
X360008Y4976D02*
X385992D01*
X291008D02*
Y97024D01*
X316992D01*
Y4976D02*
Y97024D01*
X291008Y4976D02*
X316992D01*
X291008D02*
Y97024D01*
X316992D01*
Y4976D02*
Y97024D01*
X291008Y4976D02*
X316992D01*
X5476Y305992D02*
X97524D01*
Y280008D02*
Y305992D01*
X5476Y280008D02*
X97524D01*
X5476D02*
Y305992D01*
X97524D01*
Y280008D02*
Y305992D01*
X5476Y280008D02*
X97524D01*
X5476D02*
Y305992D01*
Y238492D02*
X97524D01*
Y212508D02*
Y238492D01*
X5476Y212508D02*
X97524D01*
X5476D02*
Y238492D01*
X97524D01*
Y212508D02*
Y238492D01*
X5476Y212508D02*
X97524D01*
X5476D02*
Y238492D01*
Y171992D02*
X97524D01*
Y146008D02*
Y171992D01*
X5476Y146008D02*
X97524D01*
X5476D02*
Y171992D01*
X97524D01*
Y146008D02*
Y171992D01*
X5476Y146008D02*
X97524D01*
X5476D02*
Y171992D01*
Y103492D02*
X97524D01*
Y77508D02*
Y103492D01*
X5476Y77508D02*
X97524D01*
X5476D02*
Y103492D01*
X97524D01*
Y77508D02*
Y103492D01*
X5476Y77508D02*
X97524D01*
X5476D02*
Y103492D01*
X4976Y35492D02*
X97024D01*
Y9508D02*
Y35492D01*
X4976Y9508D02*
X97024D01*
X4976D02*
Y35492D01*
X97024D01*
Y9508D02*
Y35492D01*
X4976Y9508D02*
X97024D01*
X4976D02*
Y35492D01*
M02*
