G04 Layer_Physical_Order=1*
G04 Layer_Color=255*
%FSLAX25Y25*%
%MOIN*%
G70*
G01*
G75*
%ADD10C,0.02000*%
%ADD11R,0.03150X0.55118*%
%ADD12R,1.33858X0.03150*%
%ADD13R,0.03150X2.44095*%
%ADD14R,0.03150X3.93701*%
%ADD15R,2.44095X0.03150*%
%ADD16R,2.44095X0.02756*%
%ADD17C,0.05905*%
%ADD18C,0.05937*%
%ADD19R,0.05937X0.05937*%
%ADD20R,0.05905X0.05905*%
%ADD21C,0.07480*%
%ADD22R,0.07087X0.07087*%
%ADD23R,0.07087X0.07087*%
%ADD24R,0.05905X0.05905*%
%ADD25C,0.07874*%
%ADD26R,0.07874X0.07874*%
%ADD27C,0.07087*%
%ADD28C,0.05110*%
%ADD29R,0.07874X0.07874*%
%ADD30C,0.05000*%
G36*
X358171Y362012D02*
X359605Y360448D01*
X359512Y358329D01*
X357948Y356895D01*
X355829Y356988D01*
X354396Y358552D01*
X354488Y360671D01*
X356052Y362105D01*
X358171Y362012D01*
D02*
G37*
G36*
X339171D02*
X340604Y360448D01*
X340512Y358329D01*
X338948Y356895D01*
X336829Y356988D01*
X335396Y358552D01*
X335488Y360671D01*
X337052Y362105D01*
X339171Y362012D01*
D02*
G37*
G36*
X319171D02*
X320604Y360448D01*
X320512Y358329D01*
X318948Y356895D01*
X316829Y356988D01*
X315395Y358552D01*
X315488Y360671D01*
X317052Y362105D01*
X319171Y362012D01*
D02*
G37*
G36*
X299671D02*
X301104Y360448D01*
X301012Y358329D01*
X299448Y356895D01*
X297329Y356988D01*
X295896Y358552D01*
X295988Y360671D01*
X297552Y362105D01*
X299671Y362012D01*
D02*
G37*
G36*
X185171Y359012D02*
X186604Y357448D01*
X186512Y355329D01*
X184948Y353895D01*
X182829Y353988D01*
X181395Y355552D01*
X181488Y357671D01*
X183052Y359104D01*
X185171Y359012D01*
D02*
G37*
G36*
X101171D02*
X102604Y357448D01*
X102512Y355329D01*
X100948Y353895D01*
X98829Y353988D01*
X97395Y355552D01*
X97488Y357671D01*
X99052Y359104D01*
X101171Y359012D01*
D02*
G37*
G36*
X16171D02*
X17605Y357448D01*
X17512Y355329D01*
X15948Y353895D01*
X13829Y353988D01*
X12395Y355552D01*
X12488Y357671D01*
X14052Y359104D01*
X16171Y359012D01*
D02*
G37*
G36*
X350671Y357012D02*
X352104Y355448D01*
X352012Y353329D01*
X350448Y351895D01*
X348329Y351988D01*
X346896Y353552D01*
X346988Y355671D01*
X348552Y357104D01*
X350671Y357012D01*
D02*
G37*
G36*
X331671D02*
X333104Y355448D01*
X333012Y353329D01*
X331448Y351895D01*
X329329Y351988D01*
X327895Y353552D01*
X327988Y355671D01*
X329552Y357104D01*
X331671Y357012D01*
D02*
G37*
G36*
X311671D02*
X313105Y355448D01*
X313012Y353329D01*
X311448Y351895D01*
X309329Y351988D01*
X307895Y353552D01*
X307988Y355671D01*
X309552Y357104D01*
X311671Y357012D01*
D02*
G37*
G36*
X292171D02*
X293604Y355448D01*
X293512Y353329D01*
X291948Y351895D01*
X289829Y351988D01*
X288396Y353552D01*
X288488Y355671D01*
X290052Y357104D01*
X292171Y357012D01*
D02*
G37*
G36*
X192671Y354012D02*
X194105Y352448D01*
X194012Y350329D01*
X192448Y348896D01*
X190329Y348988D01*
X188895Y350552D01*
X188988Y352671D01*
X190552Y354104D01*
X192671Y354012D01*
D02*
G37*
G36*
X108671D02*
X110105Y352448D01*
X110012Y350329D01*
X108448Y348896D01*
X106329Y348988D01*
X104895Y350552D01*
X104988Y352671D01*
X106552Y354104D01*
X108671Y354012D01*
D02*
G37*
G36*
X23671D02*
X25104Y352448D01*
X25012Y350329D01*
X23448Y348896D01*
X21329Y348988D01*
X19895Y350552D01*
X19988Y352671D01*
X21552Y354104D01*
X23671Y354012D01*
D02*
G37*
G36*
X358171Y352012D02*
X359605Y350448D01*
X359512Y348329D01*
X357948Y346896D01*
X355829Y346988D01*
X354396Y348552D01*
X354488Y350671D01*
X356052Y352104D01*
X358171Y352012D01*
D02*
G37*
G36*
X339171D02*
X340604Y350448D01*
X340512Y348329D01*
X338948Y346896D01*
X336829Y346988D01*
X335396Y348552D01*
X335488Y350671D01*
X337052Y352104D01*
X339171Y352012D01*
D02*
G37*
G36*
X319171D02*
X320604Y350448D01*
X320512Y348329D01*
X318948Y346896D01*
X316829Y346988D01*
X315395Y348552D01*
X315488Y350671D01*
X317052Y352104D01*
X319171Y352012D01*
D02*
G37*
G36*
X299671D02*
X301104Y350448D01*
X301012Y348329D01*
X299448Y346896D01*
X297329Y346988D01*
X295896Y348552D01*
X295988Y350671D01*
X297552Y352104D01*
X299671Y352012D01*
D02*
G37*
G36*
X185171Y349012D02*
X186604Y347448D01*
X186512Y345329D01*
X184948Y343896D01*
X182829Y343988D01*
X181395Y345552D01*
X181488Y347671D01*
X183052Y349104D01*
X185171Y349012D01*
D02*
G37*
G36*
X101171D02*
X102604Y347448D01*
X102512Y345329D01*
X100948Y343896D01*
X98829Y343988D01*
X97395Y345552D01*
X97488Y347671D01*
X99052Y349104D01*
X101171Y349012D01*
D02*
G37*
G36*
X16171D02*
X17605Y347448D01*
X17512Y345329D01*
X15948Y343896D01*
X13829Y343988D01*
X12395Y345552D01*
X12488Y347671D01*
X14052Y349104D01*
X16171Y349012D01*
D02*
G37*
D10*
X228000Y383000D02*
X234000Y389000D01*
X190000Y383000D02*
X228000D01*
X182500Y375500D02*
X190000Y383000D01*
X197500Y361157D02*
X210000Y373657D01*
X197500Y357500D02*
Y361157D01*
X191500Y351500D02*
X197500Y357500D01*
X144000Y383000D02*
X150000Y389000D01*
X106000Y383000D02*
X144000D01*
X98500Y375500D02*
X106000Y383000D01*
X113500Y361157D02*
X126000Y373657D01*
X113500Y357500D02*
Y361157D01*
X107500Y351500D02*
X113500Y357500D01*
X59000Y383000D02*
X65000Y389000D01*
X21000Y383000D02*
X59000D01*
X13500Y375500D02*
X21000Y383000D01*
X28500Y361157D02*
X41000Y373657D01*
X28500Y357500D02*
Y361157D01*
X22500Y351500D02*
X28500Y357500D01*
X304815Y316500D02*
X305315D01*
X318500Y268500D02*
X359500D01*
X362000Y271000D02*
Y301000D01*
X378000Y304000D02*
X383000Y309000D01*
Y322000D01*
X378000Y327000D02*
X383000Y332000D01*
X378000Y350500D02*
X383000Y345500D01*
X356000Y275500D02*
Y323500D01*
X362000Y329500D01*
X373000Y319000D02*
X378000Y314000D01*
X373000Y342000D02*
Y355500D01*
Y319000D02*
Y332000D01*
X378000Y337000D01*
X373000Y355500D02*
X378000Y360500D01*
X373000Y342000D02*
X378000Y337000D01*
X286000Y321500D02*
X307500Y300000D01*
X288500Y359500D02*
X298500D01*
X275500Y299500D02*
X280900Y304900D01*
X276000Y325000D02*
X280900Y320100D01*
X332000Y310500D02*
Y320500D01*
Y301000D02*
Y310500D01*
Y320500D02*
Y329500D01*
X338000Y283500D02*
Y349500D01*
X271000Y314000D02*
Y330000D01*
Y314000D02*
X275500Y309500D01*
X270000Y341000D02*
X276000Y335000D01*
X271000Y330000D02*
X276000Y335000D01*
X346500Y349500D02*
X357000D01*
X344500Y351500D02*
X346500Y349500D01*
X361000Y372000D02*
Y380500D01*
X356000Y385500D02*
X361000Y380500D01*
X310500Y340343D02*
Y354500D01*
X313000Y328000D02*
X322843Y318157D01*
X313000Y328000D02*
Y337843D01*
X310500Y340343D02*
X313000Y337843D01*
X317500Y300000D02*
X322843Y305343D01*
X305315Y316500D02*
X312500Y309315D01*
X303157Y318157D02*
X304815Y316500D01*
X322843Y305343D02*
Y318157D01*
X348000Y367400D02*
X356400D01*
X361000Y372000D01*
X282000Y385500D02*
X356000D01*
X275000Y378500D02*
X282000Y385500D01*
X344500Y363900D02*
X348000Y367400D01*
X344500Y351500D02*
Y363900D01*
X275000Y360000D02*
Y378500D01*
X338000Y283500D02*
X346000Y275500D01*
X298500Y349500D02*
X306000Y357000D01*
Y378000D01*
X276000Y325000D02*
X281400Y330400D01*
Y343600D01*
X275000Y350000D02*
X281400Y343600D01*
X286000Y321500D02*
Y357000D01*
X288500Y359500D01*
X359500Y268500D02*
X362000Y271000D01*
X312500Y274500D02*
X318500Y268500D01*
X312500Y274500D02*
Y309315D01*
X325500Y361500D02*
X342000Y378000D01*
X325500Y344500D02*
Y361500D01*
Y344500D02*
X332000Y338000D01*
X270000Y341000D02*
Y355000D01*
X275000Y360000D01*
X280900Y304900D02*
Y320100D01*
X383000Y332000D02*
Y345500D01*
X378000Y327000D02*
X383000Y322000D01*
X364500Y230500D02*
X382000D01*
X383000Y16000D02*
X388000Y11000D01*
X351900Y16000D02*
X383000D01*
X350400Y14500D02*
X351900Y16000D01*
X346500Y14500D02*
X350400D01*
X383000Y36000D02*
X388000Y31000D01*
X353000Y36000D02*
X383000D01*
X349500Y32500D02*
X353000Y36000D01*
X341500Y32500D02*
X349500D01*
X336500Y37500D02*
X341500Y32500D01*
X336500Y221500D02*
X355500Y240500D01*
X364500D01*
X356400Y139991D02*
X362500Y146091D01*
X356400Y102600D02*
Y139991D01*
Y102600D02*
X360067Y98933D01*
X365933D01*
X373000Y91867D01*
Y66000D02*
Y91867D01*
Y66000D02*
X388000Y51000D01*
X362500Y134600D02*
X368500Y140600D01*
Y151000D01*
X367000Y152500D02*
X368500Y151000D01*
X346500Y152500D02*
X367000D01*
X341500Y170500D02*
X346500Y175500D01*
X341500Y76000D02*
Y170500D01*
Y76000D02*
X346500Y71000D01*
X358000D01*
X353000Y46000D02*
X358000Y41000D01*
X353000Y46000D02*
Y64000D01*
X355000Y66000D01*
X360953D01*
X362953Y68000D01*
Y74000D01*
X360953Y76000D02*
X362953Y74000D01*
X354300Y76000D02*
X360953D01*
X352300Y78000D02*
X354300Y76000D01*
X352300Y78000D02*
Y91600D01*
X346500Y97400D02*
X352300Y91600D01*
X346500Y97400D02*
Y106500D01*
X381000Y202500D02*
X389500Y194000D01*
Y97500D02*
Y194000D01*
X388000Y96000D02*
X389500Y97500D01*
X388000Y91000D02*
Y96000D01*
X358000Y51000D02*
X365953Y58953D01*
Y90647D01*
X361000Y95600D02*
X365953Y90647D01*
X357800Y95600D02*
X361000D01*
X353400Y100000D02*
X357800Y95600D01*
X353400Y100000D02*
Y122600D01*
X346500Y129500D02*
X353400Y122600D01*
X381000Y123409D02*
Y146591D01*
X362500Y104909D02*
X381000Y123409D01*
X383500Y189000D02*
X384500D01*
X383000Y189500D02*
X383500Y189000D01*
X375000Y189500D02*
X383000D01*
X374500Y189000D02*
X375000Y189500D01*
X364000Y189000D02*
X374500D01*
X295500Y230500D02*
X313000D01*
X314000Y16000D02*
X319000Y11000D01*
X282900Y16000D02*
X314000D01*
X281400Y14500D02*
X282900Y16000D01*
X277500Y14500D02*
X281400D01*
X314000Y36000D02*
X319000Y31000D01*
X284000Y36000D02*
X314000D01*
X280500Y32500D02*
X284000Y36000D01*
X272500Y32500D02*
X280500D01*
X267500Y37500D02*
X272500Y32500D01*
X267500Y221500D02*
X286500Y240500D01*
X295500D01*
X287400Y139991D02*
X293500Y146091D01*
X287400Y102600D02*
Y139991D01*
Y102600D02*
X291067Y98933D01*
X296933D01*
X304000Y91867D01*
Y66000D02*
Y91867D01*
Y66000D02*
X319000Y51000D01*
X293500Y134600D02*
X299500Y140600D01*
Y151000D01*
X298000Y152500D02*
X299500Y151000D01*
X277500Y152500D02*
X298000D01*
X272500Y170500D02*
X277500Y175500D01*
X272500Y76000D02*
Y170500D01*
Y76000D02*
X277500Y71000D01*
X289000D01*
X284000Y46000D02*
X289000Y41000D01*
X284000Y46000D02*
Y64000D01*
X286000Y66000D01*
X291953D01*
X293953Y68000D01*
Y74000D01*
X291953Y76000D02*
X293953Y74000D01*
X285300Y76000D02*
X291953D01*
X283300Y78000D02*
X285300Y76000D01*
X283300Y78000D02*
Y91600D01*
X277500Y97400D02*
X283300Y91600D01*
X277500Y97400D02*
Y106500D01*
X312000Y202500D02*
X320500Y194000D01*
Y97500D02*
Y194000D01*
X319000Y96000D02*
X320500Y97500D01*
X319000Y91000D02*
Y96000D01*
X289000Y51000D02*
X296953Y58953D01*
Y90647D01*
X292000Y95600D02*
X296953Y90647D01*
X288800Y95600D02*
X292000D01*
X284400Y100000D02*
X288800Y95600D01*
X284400Y100000D02*
Y122600D01*
X277500Y129500D02*
X284400Y122600D01*
X312000Y123409D02*
Y146591D01*
X293500Y104909D02*
X312000Y123409D01*
X314500Y189000D02*
X315500D01*
X314000Y189500D02*
X314500Y189000D01*
X306000Y189500D02*
X314000D01*
X305500Y189000D02*
X306000Y189500D01*
X295000Y189000D02*
X305500D01*
X231000Y284000D02*
Y301500D01*
X11500Y278000D02*
X16500Y283000D01*
Y314100D01*
X15000Y315600D02*
X16500Y314100D01*
X15000Y315600D02*
Y319500D01*
X31500Y278000D02*
X36500Y283000D01*
Y313000D01*
X33000Y316500D02*
X36500Y313000D01*
X33000Y316500D02*
Y324500D01*
X38000Y329500D01*
X222000D02*
X241000Y310500D01*
Y301500D02*
Y310500D01*
X140491Y309600D02*
X146591Y303500D01*
X103100Y309600D02*
X140491D01*
X99433Y305933D02*
X103100Y309600D01*
X99433Y300067D02*
Y305933D01*
X92367Y293000D02*
X99433Y300067D01*
X66500Y293000D02*
X92367D01*
X51500Y278000D02*
X66500Y293000D01*
X135100Y303500D02*
X141100Y297500D01*
X151500D01*
X153000Y299000D01*
Y319500D01*
X171000Y324500D02*
X176000Y319500D01*
X76500Y324500D02*
X171000D01*
X71500Y319500D02*
X76500Y324500D01*
X71500Y308000D02*
Y319500D01*
X41500Y308000D02*
X46500Y313000D01*
X64500D01*
X66500Y311000D01*
Y305047D02*
Y311000D01*
Y305047D02*
X68500Y303047D01*
X74500D01*
X76500Y305047D01*
Y311700D01*
X78500Y313700D01*
X92100D01*
X97900Y319500D01*
X107000D01*
X194500Y276500D02*
X203000Y285000D01*
X98000Y276500D02*
X194500D01*
X96500Y278000D02*
X98000Y276500D01*
X91500Y278000D02*
X96500D01*
X51500Y308000D02*
X59453Y300047D01*
X91147D01*
X96100Y305000D01*
Y308200D01*
X100500Y312600D01*
X123100D01*
X130000Y319500D01*
X123909Y285000D02*
X147091D01*
X105409Y303500D02*
X123909Y285000D01*
X189500Y281500D02*
Y282500D01*
X190000Y283000D01*
Y291000D01*
X189500Y291500D02*
X190000Y291000D01*
X189500Y291500D02*
Y302000D01*
X231000Y216500D02*
Y234000D01*
X11500Y210500D02*
X16500Y215500D01*
Y246600D01*
X15000Y248100D02*
X16500Y246600D01*
X15000Y248100D02*
Y252000D01*
X31500Y210500D02*
X36500Y215500D01*
Y245500D01*
X33000Y249000D02*
X36500Y245500D01*
X33000Y249000D02*
Y257000D01*
X38000Y262000D01*
X222000D02*
X241000Y243000D01*
Y234000D02*
Y243000D01*
X140491Y242100D02*
X146591Y236000D01*
X103100Y242100D02*
X140491D01*
X99433Y238433D02*
X103100Y242100D01*
X99433Y232567D02*
Y238433D01*
X92367Y225500D02*
X99433Y232567D01*
X66500Y225500D02*
X92367D01*
X51500Y210500D02*
X66500Y225500D01*
X135100Y236000D02*
X141100Y230000D01*
X151500D01*
X153000Y231500D01*
Y252000D01*
X171000Y257000D02*
X176000Y252000D01*
X76500Y257000D02*
X171000D01*
X71500Y252000D02*
X76500Y257000D01*
X71500Y240500D02*
Y252000D01*
X41500Y240500D02*
X46500Y245500D01*
X64500D01*
X66500Y243500D01*
Y237547D02*
Y243500D01*
Y237547D02*
X68500Y235547D01*
X74500D01*
X76500Y237547D01*
Y244200D01*
X78500Y246200D01*
X92100D01*
X97900Y252000D01*
X107000D01*
X194500Y209000D02*
X203000Y217500D01*
X98000Y209000D02*
X194500D01*
X96500Y210500D02*
X98000Y209000D01*
X91500Y210500D02*
X96500D01*
X51500Y240500D02*
X59453Y232547D01*
X91147D01*
X96100Y237500D01*
Y240700D01*
X100500Y245100D01*
X123100D01*
X130000Y252000D01*
X123909Y217500D02*
X147091D01*
X105409Y236000D02*
X123909Y217500D01*
X189500Y214000D02*
Y215000D01*
X190000Y215500D01*
Y223500D01*
X189500Y224000D02*
X190000Y223500D01*
X189500Y224000D02*
Y234500D01*
X231000Y150000D02*
Y167500D01*
X11500Y144000D02*
X16500Y149000D01*
Y180100D01*
X15000Y181600D02*
X16500Y180100D01*
X15000Y181600D02*
Y185500D01*
X31500Y144000D02*
X36500Y149000D01*
Y179000D01*
X33000Y182500D02*
X36500Y179000D01*
X33000Y182500D02*
Y190500D01*
X38000Y195500D01*
X222000D02*
X241000Y176500D01*
Y167500D02*
Y176500D01*
X140491Y175600D02*
X146591Y169500D01*
X103100Y175600D02*
X140491D01*
X99433Y171933D02*
X103100Y175600D01*
X99433Y166067D02*
Y171933D01*
X92367Y159000D02*
X99433Y166067D01*
X66500Y159000D02*
X92367D01*
X51500Y144000D02*
X66500Y159000D01*
X135100Y169500D02*
X141100Y163500D01*
X151500D01*
X153000Y165000D01*
Y185500D01*
X171000Y190500D02*
X176000Y185500D01*
X76500Y190500D02*
X171000D01*
X71500Y185500D02*
X76500Y190500D01*
X71500Y174000D02*
Y185500D01*
X41500Y174000D02*
X46500Y179000D01*
X64500D01*
X66500Y177000D01*
Y171047D02*
Y177000D01*
Y171047D02*
X68500Y169047D01*
X74500D01*
X76500Y171047D01*
Y177700D01*
X78500Y179700D01*
X92100D01*
X97900Y185500D01*
X107000D01*
X194500Y142500D02*
X203000Y151000D01*
X98000Y142500D02*
X194500D01*
X96500Y144000D02*
X98000Y142500D01*
X91500Y144000D02*
X96500D01*
X51500Y174000D02*
X59453Y166047D01*
X91147D01*
X96100Y171000D01*
Y174200D01*
X100500Y178600D01*
X123100D01*
X130000Y185500D01*
X123909Y151000D02*
X147091D01*
X105409Y169500D02*
X123909Y151000D01*
X189500Y147500D02*
Y148500D01*
X190000Y149000D01*
Y157000D01*
X189500Y157500D02*
X190000Y157000D01*
X189500Y157500D02*
Y168000D01*
X231000Y81500D02*
Y99000D01*
X11500Y75500D02*
X16500Y80500D01*
Y111600D01*
X15000Y113100D02*
X16500Y111600D01*
X15000Y113100D02*
Y117000D01*
X31500Y75500D02*
X36500Y80500D01*
Y110500D01*
X33000Y114000D02*
X36500Y110500D01*
X33000Y114000D02*
Y122000D01*
X38000Y127000D01*
X222000D02*
X241000Y108000D01*
Y99000D02*
Y108000D01*
X140491Y107100D02*
X146591Y101000D01*
X103100Y107100D02*
X140491D01*
X99433Y103433D02*
X103100Y107100D01*
X99433Y97567D02*
Y103433D01*
X92367Y90500D02*
X99433Y97567D01*
X66500Y90500D02*
X92367D01*
X51500Y75500D02*
X66500Y90500D01*
X135100Y101000D02*
X141100Y95000D01*
X151500D01*
X153000Y96500D01*
Y117000D01*
X171000Y122000D02*
X176000Y117000D01*
X76500Y122000D02*
X171000D01*
X71500Y117000D02*
X76500Y122000D01*
X71500Y105500D02*
Y117000D01*
X41500Y105500D02*
X46500Y110500D01*
X64500D01*
X66500Y108500D01*
Y102547D02*
Y108500D01*
Y102547D02*
X68500Y100547D01*
X74500D01*
X76500Y102547D01*
Y109200D01*
X78500Y111200D01*
X92100D01*
X97900Y117000D01*
X107000D01*
X194500Y74000D02*
X203000Y82500D01*
X98000Y74000D02*
X194500D01*
X96500Y75500D02*
X98000Y74000D01*
X91500Y75500D02*
X96500D01*
X51500Y105500D02*
X59453Y97547D01*
X91147D01*
X96100Y102500D01*
Y105700D01*
X100500Y110100D01*
X123100D01*
X130000Y117000D01*
X123909Y82500D02*
X147091D01*
X105409Y101000D02*
X123909Y82500D01*
X189500Y79000D02*
Y80000D01*
X190000Y80500D01*
Y88500D01*
X189500Y89000D02*
X190000Y88500D01*
X189500Y89000D02*
Y99500D01*
X189000Y21000D02*
Y31500D01*
Y21000D02*
X189500Y20500D01*
Y12500D02*
Y20500D01*
X189000Y12000D02*
X189500Y12500D01*
X189000Y11000D02*
Y12000D01*
X104909Y33000D02*
X123409Y14500D01*
X146591D01*
X122600Y42100D02*
X129500Y49000D01*
X100000Y42100D02*
X122600D01*
X95600Y37700D02*
X100000Y42100D01*
X95600Y34500D02*
Y37700D01*
X90647Y29547D02*
X95600Y34500D01*
X58953Y29547D02*
X90647D01*
X51000Y37500D02*
X58953Y29547D01*
X91000Y7500D02*
X96000D01*
X97500Y6000D01*
X194000D01*
X202500Y14500D01*
X97400Y49000D02*
X106500D01*
X91600Y43200D02*
X97400Y49000D01*
X78000Y43200D02*
X91600D01*
X76000Y41200D02*
X78000Y43200D01*
X76000Y34547D02*
Y41200D01*
X74000Y32547D02*
X76000Y34547D01*
X68000Y32547D02*
X74000D01*
X66000Y34547D02*
X68000Y32547D01*
X66000Y34547D02*
Y40500D01*
X64000Y42500D02*
X66000Y40500D01*
X46000Y42500D02*
X64000D01*
X41000Y37500D02*
X46000Y42500D01*
X71000Y37500D02*
Y49000D01*
X76000Y54000D01*
X170500D01*
X175500Y49000D01*
X152500Y28500D02*
Y49000D01*
X151000Y27000D02*
X152500Y28500D01*
X140600Y27000D02*
X151000D01*
X134600Y33000D02*
X140600Y27000D01*
X51000Y7500D02*
X66000Y22500D01*
X91867D01*
X98933Y29567D01*
Y35433D01*
X102600Y39100D01*
X139991D01*
X146091Y33000D01*
X240500Y31000D02*
Y40000D01*
X221500Y59000D02*
X240500Y40000D01*
X32500Y54000D02*
X37500Y59000D01*
X32500Y46000D02*
Y54000D01*
Y46000D02*
X36000Y42500D01*
Y12500D02*
Y42500D01*
X31000Y7500D02*
X36000Y12500D01*
X14500Y45100D02*
Y49000D01*
Y45100D02*
X16000Y43600D01*
Y12500D02*
Y43600D01*
X11000Y7500D02*
X16000Y12500D01*
X230500Y13500D02*
Y31000D01*
D11*
X168500Y369500D02*
D03*
X84000D02*
D03*
D12*
X326500Y255000D02*
D03*
D13*
X327500Y126000D02*
D03*
D14*
X255000Y201000D02*
D03*
D15*
X125500Y338000D02*
D03*
Y135500D02*
D03*
Y67500D02*
D03*
D16*
Y270500D02*
D03*
Y203500D02*
D03*
D17*
X245000Y345000D02*
D03*
Y375000D02*
D03*
X232000Y345000D02*
D03*
Y375000D02*
D03*
X184000Y346500D02*
D03*
X191500Y351500D02*
D03*
X184000Y356500D02*
D03*
X182500Y375500D02*
D03*
Y385500D02*
D03*
X209000Y352000D02*
D03*
X161000Y345000D02*
D03*
Y375000D02*
D03*
X148000Y345000D02*
D03*
Y375000D02*
D03*
X100000Y346500D02*
D03*
X107500Y351500D02*
D03*
X100000Y356500D02*
D03*
X98500Y375500D02*
D03*
Y385500D02*
D03*
X125000Y352000D02*
D03*
X76000Y345000D02*
D03*
Y375000D02*
D03*
X63000Y345000D02*
D03*
Y375000D02*
D03*
X15000Y346500D02*
D03*
X22500Y351500D02*
D03*
X15000Y356500D02*
D03*
X13500Y375500D02*
D03*
Y385500D02*
D03*
X40000Y352000D02*
D03*
X332000Y301000D02*
D03*
X362000D02*
D03*
Y338000D02*
D03*
X332000D02*
D03*
Y310500D02*
D03*
X362000D02*
D03*
X332000Y329500D02*
D03*
X362000D02*
D03*
X332000Y320500D02*
D03*
X362000D02*
D03*
X298500Y349500D02*
D03*
X291000Y354500D02*
D03*
X298500Y359500D02*
D03*
X318000Y349500D02*
D03*
X310500Y354500D02*
D03*
X318000Y359500D02*
D03*
X338000Y349500D02*
D03*
X330500Y354500D02*
D03*
X338000Y359500D02*
D03*
X357000Y349500D02*
D03*
X349500Y354500D02*
D03*
X357000Y359500D02*
D03*
X317500Y300000D02*
D03*
X307500D02*
D03*
X306000Y378000D02*
D03*
X329000Y378500D02*
D03*
X352000Y378000D02*
D03*
X378000Y350500D02*
D03*
Y327000D02*
D03*
Y304000D02*
D03*
X346000Y275500D02*
D03*
X321500Y276000D02*
D03*
X297500Y275500D02*
D03*
X275500Y309500D02*
D03*
X276000Y335000D02*
D03*
X275000Y360000D02*
D03*
X346500Y14500D02*
D03*
X363000Y198157D02*
D03*
X375000Y159500D02*
D03*
Y189500D02*
D03*
X384500Y159000D02*
D03*
Y189000D02*
D03*
X346500Y37500D02*
D03*
Y60500D02*
D03*
Y83500D02*
D03*
Y106500D02*
D03*
Y129500D02*
D03*
Y152500D02*
D03*
Y175500D02*
D03*
Y198500D02*
D03*
Y221500D02*
D03*
X364000Y159000D02*
D03*
Y189000D02*
D03*
X381000Y212500D02*
D03*
Y202500D02*
D03*
X388000Y21000D02*
D03*
Y31000D02*
D03*
Y41000D02*
D03*
Y51000D02*
D03*
Y61000D02*
D03*
Y71000D02*
D03*
Y81000D02*
D03*
Y91000D02*
D03*
X358000Y81000D02*
D03*
Y71000D02*
D03*
Y61000D02*
D03*
Y51000D02*
D03*
Y41000D02*
D03*
Y31000D02*
D03*
Y21000D02*
D03*
Y11000D02*
D03*
X277500Y14500D02*
D03*
X294000Y198157D02*
D03*
X306000Y159500D02*
D03*
Y189500D02*
D03*
X315500Y159000D02*
D03*
Y189000D02*
D03*
X277500Y37500D02*
D03*
Y60500D02*
D03*
Y83500D02*
D03*
Y106500D02*
D03*
Y129500D02*
D03*
Y152500D02*
D03*
Y175500D02*
D03*
Y198500D02*
D03*
Y221500D02*
D03*
X295000Y159000D02*
D03*
Y189000D02*
D03*
X312000Y212500D02*
D03*
Y202500D02*
D03*
X319000Y21000D02*
D03*
Y31000D02*
D03*
Y41000D02*
D03*
Y51000D02*
D03*
Y61000D02*
D03*
Y71000D02*
D03*
Y81000D02*
D03*
Y91000D02*
D03*
X289000Y81000D02*
D03*
Y71000D02*
D03*
Y61000D02*
D03*
Y51000D02*
D03*
Y41000D02*
D03*
Y31000D02*
D03*
Y21000D02*
D03*
Y11000D02*
D03*
X15000Y319500D02*
D03*
X198657Y303000D02*
D03*
X160000Y291000D02*
D03*
X190000D02*
D03*
X159500Y281500D02*
D03*
X189500D02*
D03*
X38000Y319500D02*
D03*
X61000D02*
D03*
X84000D02*
D03*
X107000D02*
D03*
X130000D02*
D03*
X153000D02*
D03*
X176000D02*
D03*
X199000D02*
D03*
X222000D02*
D03*
X159500Y302000D02*
D03*
X189500D02*
D03*
X213000Y285000D02*
D03*
X203000D02*
D03*
X21500Y278000D02*
D03*
X31500D02*
D03*
X41500D02*
D03*
X51500D02*
D03*
X61500D02*
D03*
X71500D02*
D03*
X81500D02*
D03*
X91500D02*
D03*
X81500Y308000D02*
D03*
X71500D02*
D03*
X61500D02*
D03*
X51500D02*
D03*
X41500D02*
D03*
X31500D02*
D03*
X21500D02*
D03*
X11500D02*
D03*
X15000Y252000D02*
D03*
X198657Y235500D02*
D03*
X160000Y223500D02*
D03*
X190000D02*
D03*
X159500Y214000D02*
D03*
X189500D02*
D03*
X38000Y252000D02*
D03*
X61000D02*
D03*
X84000D02*
D03*
X107000D02*
D03*
X130000D02*
D03*
X153000D02*
D03*
X176000D02*
D03*
X199000D02*
D03*
X222000D02*
D03*
X159500Y234500D02*
D03*
X189500D02*
D03*
X213000Y217500D02*
D03*
X203000D02*
D03*
X21500Y210500D02*
D03*
X31500D02*
D03*
X41500D02*
D03*
X51500D02*
D03*
X61500D02*
D03*
X71500D02*
D03*
X81500D02*
D03*
X91500D02*
D03*
X81500Y240500D02*
D03*
X71500D02*
D03*
X61500D02*
D03*
X51500D02*
D03*
X41500D02*
D03*
X31500D02*
D03*
X21500D02*
D03*
X11500D02*
D03*
X15000Y185500D02*
D03*
X198657Y169000D02*
D03*
X160000Y157000D02*
D03*
X190000D02*
D03*
X159500Y147500D02*
D03*
X189500D02*
D03*
X38000Y185500D02*
D03*
X61000D02*
D03*
X84000D02*
D03*
X107000D02*
D03*
X130000D02*
D03*
X153000D02*
D03*
X176000D02*
D03*
X199000D02*
D03*
X222000D02*
D03*
X159500Y168000D02*
D03*
X189500D02*
D03*
X213000Y151000D02*
D03*
X203000D02*
D03*
X21500Y144000D02*
D03*
X31500D02*
D03*
X41500D02*
D03*
X51500D02*
D03*
X61500D02*
D03*
X71500D02*
D03*
X81500D02*
D03*
X91500D02*
D03*
X81500Y174000D02*
D03*
X71500D02*
D03*
X61500D02*
D03*
X51500D02*
D03*
X41500D02*
D03*
X31500D02*
D03*
X21500D02*
D03*
X11500D02*
D03*
X15000Y117000D02*
D03*
X198657Y100500D02*
D03*
X160000Y88500D02*
D03*
X190000D02*
D03*
X159500Y79000D02*
D03*
X189500D02*
D03*
X38000Y117000D02*
D03*
X61000D02*
D03*
X84000D02*
D03*
X107000D02*
D03*
X130000D02*
D03*
X153000D02*
D03*
X176000D02*
D03*
X199000D02*
D03*
X222000D02*
D03*
X159500Y99500D02*
D03*
X189500D02*
D03*
X213000Y82500D02*
D03*
X203000D02*
D03*
X21500Y75500D02*
D03*
X31500D02*
D03*
X41500D02*
D03*
X51500D02*
D03*
X61500D02*
D03*
X71500D02*
D03*
X81500D02*
D03*
X91500D02*
D03*
X81500Y105500D02*
D03*
X71500D02*
D03*
X61500D02*
D03*
X51500D02*
D03*
X41500D02*
D03*
X31500D02*
D03*
X21500D02*
D03*
X11500D02*
D03*
X198157Y32500D02*
D03*
X212500Y14500D02*
D03*
X202500D02*
D03*
X159000Y31500D02*
D03*
X189000D02*
D03*
X21000Y7500D02*
D03*
X31000D02*
D03*
X41000D02*
D03*
X51000D02*
D03*
X61000D02*
D03*
X71000D02*
D03*
X81000D02*
D03*
X91000D02*
D03*
X81000Y37500D02*
D03*
X71000D02*
D03*
X61000D02*
D03*
X51000D02*
D03*
X41000D02*
D03*
X31000D02*
D03*
X21000D02*
D03*
X11000D02*
D03*
X159000Y11000D02*
D03*
X189000D02*
D03*
X159500Y20500D02*
D03*
X189500D02*
D03*
X221500Y49000D02*
D03*
X198500D02*
D03*
X175500D02*
D03*
X152500D02*
D03*
X129500D02*
D03*
X106500D02*
D03*
X83500D02*
D03*
X60500D02*
D03*
X37500D02*
D03*
X14500D02*
D03*
D18*
X200157Y393342D02*
D03*
X210000Y373657D02*
D03*
X116157Y393342D02*
D03*
X126000Y373657D02*
D03*
X31157Y393342D02*
D03*
X41000Y373657D02*
D03*
X313000Y337843D02*
D03*
X322843Y318157D02*
D03*
D19*
X219843Y393342D02*
D03*
X135843D02*
D03*
X50842D02*
D03*
X303157Y318157D02*
D03*
D20*
X209000Y362000D02*
D03*
X125000D02*
D03*
X40000D02*
D03*
X378000Y360500D02*
D03*
Y337000D02*
D03*
Y314000D02*
D03*
X275500Y299500D02*
D03*
X276000Y325000D02*
D03*
X275000Y350000D02*
D03*
X363000Y217843D02*
D03*
X294000D02*
D03*
X15000Y329500D02*
D03*
X38000D02*
D03*
X61000D02*
D03*
X84000D02*
D03*
X107000D02*
D03*
X130000D02*
D03*
X153000D02*
D03*
X176000D02*
D03*
X199000D02*
D03*
X222000D02*
D03*
X11500Y278000D02*
D03*
X15000Y262000D02*
D03*
X38000D02*
D03*
X61000D02*
D03*
X84000D02*
D03*
X107000D02*
D03*
X130000D02*
D03*
X153000D02*
D03*
X176000D02*
D03*
X199000D02*
D03*
X222000D02*
D03*
X11500Y210500D02*
D03*
X15000Y195500D02*
D03*
X38000D02*
D03*
X61000D02*
D03*
X84000D02*
D03*
X107000D02*
D03*
X130000D02*
D03*
X153000D02*
D03*
X176000D02*
D03*
X199000D02*
D03*
X222000D02*
D03*
X11500Y144000D02*
D03*
X15000Y127000D02*
D03*
X38000D02*
D03*
X61000D02*
D03*
X84000D02*
D03*
X107000D02*
D03*
X130000D02*
D03*
X153000D02*
D03*
X176000D02*
D03*
X199000D02*
D03*
X222000D02*
D03*
X11500Y75500D02*
D03*
X11000Y7500D02*
D03*
X221500Y59000D02*
D03*
X198500D02*
D03*
X175500D02*
D03*
X152500D02*
D03*
X129500D02*
D03*
X106500D02*
D03*
X83500D02*
D03*
X60500D02*
D03*
X37500D02*
D03*
X14500D02*
D03*
D21*
X234000Y389000D02*
D03*
X150000D02*
D03*
X65000D02*
D03*
X380000Y274000D02*
D03*
D22*
X244000Y389000D02*
D03*
X160000D02*
D03*
X75000D02*
D03*
X241000Y284000D02*
D03*
Y301500D02*
D03*
Y216500D02*
D03*
Y234000D02*
D03*
Y150000D02*
D03*
Y167500D02*
D03*
Y81500D02*
D03*
Y99000D02*
D03*
X240500Y31000D02*
D03*
Y13500D02*
D03*
D23*
X380000Y284000D02*
D03*
X382000Y240500D02*
D03*
X364500D02*
D03*
X313000D02*
D03*
X295500D02*
D03*
D24*
X296000Y378000D02*
D03*
X319000Y378500D02*
D03*
X342000Y378000D02*
D03*
X356000Y275500D02*
D03*
X331500Y276000D02*
D03*
X307500Y275500D02*
D03*
X336500Y14500D02*
D03*
Y37500D02*
D03*
Y60500D02*
D03*
Y83500D02*
D03*
Y106500D02*
D03*
Y129500D02*
D03*
Y152500D02*
D03*
Y175500D02*
D03*
Y198500D02*
D03*
Y221500D02*
D03*
X388000Y11000D02*
D03*
X267500Y14500D02*
D03*
Y37500D02*
D03*
Y60500D02*
D03*
Y83500D02*
D03*
Y106500D02*
D03*
Y129500D02*
D03*
Y152500D02*
D03*
Y175500D02*
D03*
Y198500D02*
D03*
Y221500D02*
D03*
X319000Y11000D02*
D03*
X218343Y303000D02*
D03*
Y235500D02*
D03*
Y169000D02*
D03*
Y100500D02*
D03*
X217843Y32500D02*
D03*
D25*
X362500Y104909D02*
D03*
X381000Y105409D02*
D03*
X293500Y104909D02*
D03*
X312000Y105409D02*
D03*
X105409Y303500D02*
D03*
X105909Y285000D02*
D03*
X105409Y236000D02*
D03*
X105909Y217500D02*
D03*
X105409Y169500D02*
D03*
X105909Y151000D02*
D03*
X105409Y101000D02*
D03*
X105909Y82500D02*
D03*
X104909Y33000D02*
D03*
X105409Y14500D02*
D03*
D26*
X362500Y146091D02*
D03*
X381000Y146591D02*
D03*
X293500Y146091D02*
D03*
X312000Y146591D02*
D03*
D27*
X382000Y230500D02*
D03*
X364500D02*
D03*
X313000D02*
D03*
X295500D02*
D03*
X231000Y284000D02*
D03*
Y301500D02*
D03*
Y216500D02*
D03*
Y234000D02*
D03*
Y150000D02*
D03*
Y167500D02*
D03*
Y81500D02*
D03*
Y99000D02*
D03*
X230500Y31000D02*
D03*
Y13500D02*
D03*
D28*
X358000Y91000D02*
D03*
X289000D02*
D03*
X91500Y308000D02*
D03*
Y240500D02*
D03*
Y174000D02*
D03*
Y105500D02*
D03*
X91000Y37500D02*
D03*
D29*
X146591Y303500D02*
D03*
X147091Y285000D02*
D03*
X146591Y236000D02*
D03*
X147091Y217500D02*
D03*
X146591Y169500D02*
D03*
X147091Y151000D02*
D03*
X146591Y101000D02*
D03*
X147091Y82500D02*
D03*
X146091Y33000D02*
D03*
X146591Y14500D02*
D03*
D30*
X362500Y134600D02*
D03*
X293500D02*
D03*
X135100Y303500D02*
D03*
Y236000D02*
D03*
Y169500D02*
D03*
Y101000D02*
D03*
X134600Y33000D02*
D03*
M02*
