G04 Layer_Physical_Order=2*
G04 Layer_Color=16711680*
%FSLAX25Y25*%
%MOIN*%
G70*
G01*
G75*
%ADD10C,0.02000*%
%ADD11R,0.03150X0.55118*%
%ADD12R,1.33858X0.03150*%
%ADD13R,0.03150X2.44095*%
%ADD14R,0.03150X3.93701*%
%ADD15R,2.44095X0.03150*%
%ADD16R,2.44095X0.02756*%
%ADD17C,0.05905*%
%ADD18C,0.05937*%
%ADD19R,0.05937X0.05937*%
%ADD20R,0.05905X0.05905*%
%ADD21C,0.07480*%
%ADD22R,0.07087X0.07087*%
%ADD23R,0.07087X0.07087*%
%ADD24R,0.05905X0.05905*%
%ADD25C,0.07874*%
%ADD26R,0.07874X0.07874*%
%ADD27C,0.07087*%
%ADD28C,0.05110*%
%ADD29R,0.07874X0.07874*%
%ADD30C,0.05000*%
G36*
X358171Y362012D02*
X359605Y360448D01*
X359512Y358329D01*
X357948Y356895D01*
X355829Y356988D01*
X354396Y358552D01*
X354488Y360671D01*
X356052Y362105D01*
X358171Y362012D01*
D02*
G37*
G36*
X339171D02*
X340604Y360448D01*
X340512Y358329D01*
X338948Y356895D01*
X336829Y356988D01*
X335396Y358552D01*
X335488Y360671D01*
X337052Y362105D01*
X339171Y362012D01*
D02*
G37*
G36*
X319171D02*
X320604Y360448D01*
X320512Y358329D01*
X318948Y356895D01*
X316829Y356988D01*
X315395Y358552D01*
X315488Y360671D01*
X317052Y362105D01*
X319171Y362012D01*
D02*
G37*
G36*
X299671D02*
X301104Y360448D01*
X301012Y358329D01*
X299448Y356895D01*
X297329Y356988D01*
X295896Y358552D01*
X295988Y360671D01*
X297552Y362105D01*
X299671Y362012D01*
D02*
G37*
G36*
X185171Y359012D02*
X186604Y357448D01*
X186512Y355329D01*
X184948Y353895D01*
X182829Y353988D01*
X181395Y355552D01*
X181488Y357671D01*
X183052Y359104D01*
X185171Y359012D01*
D02*
G37*
G36*
X101171D02*
X102604Y357448D01*
X102512Y355329D01*
X100948Y353895D01*
X98829Y353988D01*
X97395Y355552D01*
X97488Y357671D01*
X99052Y359104D01*
X101171Y359012D01*
D02*
G37*
G36*
X16171D02*
X17605Y357448D01*
X17512Y355329D01*
X15948Y353895D01*
X13829Y353988D01*
X12395Y355552D01*
X12488Y357671D01*
X14052Y359104D01*
X16171Y359012D01*
D02*
G37*
G36*
X350671Y357012D02*
X352104Y355448D01*
X352012Y353329D01*
X350448Y351895D01*
X348329Y351988D01*
X346896Y353552D01*
X346988Y355671D01*
X348552Y357104D01*
X350671Y357012D01*
D02*
G37*
G36*
X331671D02*
X333104Y355448D01*
X333012Y353329D01*
X331448Y351895D01*
X329329Y351988D01*
X327895Y353552D01*
X327988Y355671D01*
X329552Y357104D01*
X331671Y357012D01*
D02*
G37*
G36*
X311671D02*
X313105Y355448D01*
X313012Y353329D01*
X311448Y351895D01*
X309329Y351988D01*
X307895Y353552D01*
X307988Y355671D01*
X309552Y357104D01*
X311671Y357012D01*
D02*
G37*
G36*
X292171D02*
X293604Y355448D01*
X293512Y353329D01*
X291948Y351895D01*
X289829Y351988D01*
X288396Y353552D01*
X288488Y355671D01*
X290052Y357104D01*
X292171Y357012D01*
D02*
G37*
G36*
X192671Y354012D02*
X194105Y352448D01*
X194012Y350329D01*
X192448Y348896D01*
X190329Y348988D01*
X188895Y350552D01*
X188988Y352671D01*
X190552Y354104D01*
X192671Y354012D01*
D02*
G37*
G36*
X108671D02*
X110105Y352448D01*
X110012Y350329D01*
X108448Y348896D01*
X106329Y348988D01*
X104895Y350552D01*
X104988Y352671D01*
X106552Y354104D01*
X108671Y354012D01*
D02*
G37*
G36*
X23671D02*
X25104Y352448D01*
X25012Y350329D01*
X23448Y348896D01*
X21329Y348988D01*
X19895Y350552D01*
X19988Y352671D01*
X21552Y354104D01*
X23671Y354012D01*
D02*
G37*
G36*
X358171Y352012D02*
X359605Y350448D01*
X359512Y348329D01*
X357948Y346896D01*
X355829Y346988D01*
X354396Y348552D01*
X354488Y350671D01*
X356052Y352104D01*
X358171Y352012D01*
D02*
G37*
G36*
X339171D02*
X340604Y350448D01*
X340512Y348329D01*
X338948Y346896D01*
X336829Y346988D01*
X335396Y348552D01*
X335488Y350671D01*
X337052Y352104D01*
X339171Y352012D01*
D02*
G37*
G36*
X319171D02*
X320604Y350448D01*
X320512Y348329D01*
X318948Y346896D01*
X316829Y346988D01*
X315395Y348552D01*
X315488Y350671D01*
X317052Y352104D01*
X319171Y352012D01*
D02*
G37*
G36*
X299671D02*
X301104Y350448D01*
X301012Y348329D01*
X299448Y346896D01*
X297329Y346988D01*
X295896Y348552D01*
X295988Y350671D01*
X297552Y352104D01*
X299671Y352012D01*
D02*
G37*
G36*
X185171Y349012D02*
X186604Y347448D01*
X186512Y345329D01*
X184948Y343896D01*
X182829Y343988D01*
X181395Y345552D01*
X181488Y347671D01*
X183052Y349104D01*
X185171Y349012D01*
D02*
G37*
G36*
X101171D02*
X102604Y347448D01*
X102512Y345329D01*
X100948Y343896D01*
X98829Y343988D01*
X97395Y345552D01*
X97488Y347671D01*
X99052Y349104D01*
X101171Y349012D01*
D02*
G37*
G36*
X16171D02*
X17605Y347448D01*
X17512Y345329D01*
X15948Y343896D01*
X13829Y343988D01*
X12395Y345552D01*
X12488Y347671D01*
X14052Y349104D01*
X16171Y349012D01*
D02*
G37*
D10*
X244000Y376000D02*
Y389000D01*
Y376000D02*
X245000Y375000D01*
X232000D02*
X245000D01*
X219843Y370158D02*
X245000Y345000D01*
X219843Y370158D02*
Y393342D01*
X215000Y362000D02*
X232000Y345000D01*
X209000Y362000D02*
X215000D01*
X202000Y359000D02*
X209000Y352000D01*
X186500Y359000D02*
X202000D01*
X184000Y356500D02*
X186500Y359000D01*
X178000Y352500D02*
X184000Y346500D01*
X178000Y352500D02*
Y371000D01*
X182500Y375500D01*
X190342Y393342D02*
X200157D01*
X182500Y385500D02*
X190342Y393342D01*
X200157Y383500D02*
Y393342D01*
Y383500D02*
X210000Y373657D01*
X160000Y376000D02*
Y389000D01*
Y376000D02*
X161000Y375000D01*
X148000D02*
X161000D01*
X135843Y370158D02*
X161000Y345000D01*
X135843Y370158D02*
Y393342D01*
X131000Y362000D02*
X148000Y345000D01*
X125000Y362000D02*
X131000D01*
X118000Y359000D02*
X125000Y352000D01*
X102500Y359000D02*
X118000D01*
X100000Y356500D02*
X102500Y359000D01*
X94000Y352500D02*
X100000Y346500D01*
X94000Y352500D02*
Y371000D01*
X98500Y375500D01*
X106342Y393342D02*
X116157D01*
X98500Y385500D02*
X106342Y393342D01*
X116157Y383500D02*
Y393342D01*
Y383500D02*
X126000Y373657D01*
X75000Y376000D02*
Y389000D01*
Y376000D02*
X76000Y375000D01*
X63000D02*
X76000D01*
X50842Y370158D02*
X76000Y345000D01*
X50842Y370158D02*
Y393342D01*
X46000Y362000D02*
X63000Y345000D01*
X40000Y362000D02*
X46000D01*
X33000Y359000D02*
X40000Y352000D01*
X17500Y359000D02*
X33000D01*
X15000Y356500D02*
X17500Y359000D01*
X9000Y352500D02*
X15000Y346500D01*
X9000Y352500D02*
Y371000D01*
X13500Y375500D01*
X21342Y393342D02*
X31157D01*
X13500Y385500D02*
X21342Y393342D01*
X31157Y383500D02*
Y393342D01*
Y383500D02*
X41000Y373657D01*
X301400Y372600D02*
X313100D01*
X319000Y378500D02*
X324400Y373100D01*
X337100D01*
X342000Y378000D01*
X318000Y349500D02*
X323000Y344500D01*
X372000D01*
X313400Y281400D02*
X326100D01*
X365500Y314000D02*
X378000D01*
X321500Y286000D02*
X368000D01*
X276000Y325000D02*
X287900Y313100D01*
X327596D01*
X329996Y315500D01*
X357000D02*
X362000Y320500D01*
X332000Y301000D02*
X341900Y291100D01*
X332000Y329500D02*
X340500Y338000D01*
X341900Y291100D02*
X372900D01*
X380000Y284000D01*
X302500Y270500D02*
X316000D01*
X297500Y275500D02*
X302500Y270500D01*
X329000Y268500D02*
X339000D01*
X316000Y270500D02*
X321500Y276000D01*
X306000Y378000D02*
X311800Y383800D01*
X346700Y383300D02*
X352000Y378000D01*
X311800Y383800D02*
X323700D01*
X291000Y354500D02*
X310500D01*
X330500D01*
X307500Y300000D02*
X321500Y286000D01*
X368000D02*
X380000Y274000D01*
X331500Y276000D02*
X336400Y280900D01*
X350600D01*
X356000Y275500D01*
X307500D02*
X313400Y281400D01*
X326100D02*
X331500Y276000D01*
X362000Y310500D02*
X365500Y314000D01*
X313100Y372600D02*
X319000Y378500D01*
X296000Y378000D02*
X301400Y372600D01*
X340500Y338000D02*
X362000D01*
X329996Y315500D02*
X357000D01*
X323700Y383800D02*
X329000Y378500D01*
X333800Y383300D01*
X346700D01*
X321500Y276000D02*
X329000Y268500D01*
X339000D02*
X346000Y275500D01*
X372000Y344500D02*
X378000Y350500D01*
X298500Y359500D02*
X318000D01*
X338000D01*
X357000D01*
X330500Y354500D02*
X349500D01*
X388000Y61000D02*
Y71000D01*
X364000Y189000D02*
Y193000D01*
X363000Y194000D02*
X364000Y193000D01*
X363000Y194000D02*
Y198157D01*
X362500Y146091D02*
Y151700D01*
X364000Y153200D01*
Y159000D01*
X336500Y60500D02*
Y83500D01*
Y37500D02*
Y60500D01*
Y83500D02*
Y106500D01*
Y14500D02*
Y37500D01*
Y106500D02*
Y129500D01*
Y152500D01*
Y175500D01*
Y198500D01*
Y221500D01*
X382000Y240500D02*
X389500Y233000D01*
Y155091D02*
Y233000D01*
X381000Y146591D02*
X389500Y155091D01*
X372000Y156500D02*
X375000Y159500D01*
X372000Y138100D02*
Y156500D01*
Y138100D02*
X386937Y123163D01*
Y102000D02*
Y123163D01*
X380000Y95063D02*
X386937Y102000D01*
X380000Y79000D02*
Y95063D01*
Y79000D02*
X388000Y71000D01*
X383000Y86000D02*
X388000Y81000D01*
X383000Y86000D02*
Y93500D01*
X389937Y100437D01*
Y125663D01*
X375000Y140600D02*
X389937Y125663D01*
X375000Y140600D02*
Y151500D01*
X377000Y153500D01*
X379000D01*
X384500Y159000D01*
X341500Y55500D02*
X346500Y60500D01*
X341500Y9500D02*
Y55500D01*
Y9500D02*
X345000Y6000D01*
X362200D01*
X364200Y8000D01*
Y14800D01*
X358000Y21000D02*
X364200Y14800D01*
X358000Y61000D02*
X368400Y71400D01*
Y103800D01*
X368500Y103900D01*
Y113200D01*
X362500Y119200D02*
X368500Y113200D01*
X362500Y119200D02*
Y134600D01*
X346500Y83500D02*
X352200Y77800D01*
Y36800D02*
Y77800D01*
Y36800D02*
X358000Y31000D01*
X354528Y94472D02*
X358000Y91000D01*
X354528Y94472D02*
Y182000D01*
X352514Y184014D02*
X354528Y182000D01*
X352514Y184014D02*
Y215486D01*
X346500Y221500D02*
X352514Y215486D01*
X351500Y87500D02*
X358000Y81000D01*
X351500Y87500D02*
Y180500D01*
X346500Y185500D02*
X351500Y180500D01*
X346500Y185500D02*
Y198500D01*
Y22500D02*
Y37500D01*
Y22500D02*
X358000Y11000D01*
X369000Y173500D02*
X384500Y189000D01*
X369000Y117409D02*
Y173500D01*
Y117409D02*
X381000Y105409D01*
X364500Y230500D02*
X368400Y226600D01*
Y203557D02*
Y226600D01*
X363000Y198157D02*
X368400Y203557D01*
X371400Y95809D02*
X381000Y105409D01*
X371400Y57600D02*
Y95809D01*
Y57600D02*
X388000Y41000D01*
X355600Y210443D02*
X363000Y217843D01*
X355600Y186453D02*
Y210443D01*
Y186453D02*
X364000Y178053D01*
Y159000D02*
Y178053D01*
X376500Y217000D02*
X381000Y212500D01*
X376500Y217000D02*
Y228500D01*
X364500Y240500D02*
X376500Y228500D01*
X392953Y25953D02*
Y36047D01*
X388000Y21000D02*
X392953Y25953D01*
X388000Y41000D02*
X392953Y36047D01*
X319000Y61000D02*
Y71000D01*
X295000Y189000D02*
Y193000D01*
X294000Y194000D02*
X295000Y193000D01*
X294000Y194000D02*
Y198157D01*
X293500Y146091D02*
Y151700D01*
X295000Y153200D01*
Y159000D01*
X267500Y60500D02*
Y83500D01*
Y37500D02*
Y60500D01*
Y83500D02*
Y106500D01*
Y14500D02*
Y37500D01*
Y106500D02*
Y129500D01*
Y152500D01*
Y175500D01*
Y198500D01*
Y221500D01*
X313000Y240500D02*
X320500Y233000D01*
Y155091D02*
Y233000D01*
X312000Y146591D02*
X320500Y155091D01*
X303000Y156500D02*
X306000Y159500D01*
X303000Y138100D02*
Y156500D01*
Y138100D02*
X317937Y123163D01*
Y102000D02*
Y123163D01*
X311000Y95063D02*
X317937Y102000D01*
X311000Y79000D02*
Y95063D01*
Y79000D02*
X319000Y71000D01*
X314000Y86000D02*
X319000Y81000D01*
X314000Y86000D02*
Y93500D01*
X320937Y100437D01*
Y125663D01*
X306000Y140600D02*
X320937Y125663D01*
X306000Y140600D02*
Y151500D01*
X308000Y153500D01*
X310000D01*
X315500Y159000D01*
X272500Y55500D02*
X277500Y60500D01*
X272500Y9500D02*
Y55500D01*
Y9500D02*
X276000Y6000D01*
X293200D01*
X295200Y8000D01*
Y14800D01*
X289000Y21000D02*
X295200Y14800D01*
X289000Y61000D02*
X299400Y71400D01*
Y103800D01*
X299500Y103900D01*
Y113200D01*
X293500Y119200D02*
X299500Y113200D01*
X293500Y119200D02*
Y134600D01*
X277500Y83500D02*
X283200Y77800D01*
Y36800D02*
Y77800D01*
Y36800D02*
X289000Y31000D01*
X285528Y94472D02*
X289000Y91000D01*
X285528Y94472D02*
Y182000D01*
X283514Y184014D02*
X285528Y182000D01*
X283514Y184014D02*
Y215486D01*
X277500Y221500D02*
X283514Y215486D01*
X282500Y87500D02*
X289000Y81000D01*
X282500Y87500D02*
Y180500D01*
X277500Y185500D02*
X282500Y180500D01*
X277500Y185500D02*
Y198500D01*
Y22500D02*
Y37500D01*
Y22500D02*
X289000Y11000D01*
X300000Y173500D02*
X315500Y189000D01*
X300000Y117409D02*
Y173500D01*
Y117409D02*
X312000Y105409D01*
X295500Y230500D02*
X299400Y226600D01*
Y203557D02*
Y226600D01*
X294000Y198157D02*
X299400Y203557D01*
X302400Y95809D02*
X312000Y105409D01*
X302400Y57600D02*
Y95809D01*
Y57600D02*
X319000Y41000D01*
X286600Y210443D02*
X294000Y217843D01*
X286600Y186453D02*
Y210443D01*
Y186453D02*
X295000Y178053D01*
Y159000D02*
Y178053D01*
X307500Y217000D02*
X312000Y212500D01*
X307500Y217000D02*
Y228500D01*
X295500Y240500D02*
X307500Y228500D01*
X323953Y25953D02*
Y36047D01*
X319000Y21000D02*
X323953Y25953D01*
X319000Y41000D02*
X323953Y36047D01*
X61500Y278000D02*
X71500D01*
X189500Y302000D02*
X193500D01*
X194500Y303000D01*
X198657D01*
X146591Y303500D02*
X152200D01*
X153700Y302000D01*
X159500D01*
X61000Y329500D02*
X84000D01*
X38000D02*
X61000D01*
X84000D02*
X107000D01*
X15000D02*
X38000D01*
X107000D02*
X130000D01*
X153000D01*
X176000D01*
X199000D01*
X222000D01*
X233500Y276500D02*
X241000Y284000D01*
X155591Y276500D02*
X233500D01*
X147091Y285000D02*
X155591Y276500D01*
X157000Y294000D02*
X160000Y291000D01*
X138600Y294000D02*
X157000D01*
X123663Y279063D02*
X138600Y294000D01*
X102500Y279063D02*
X123663D01*
X95563Y286000D02*
X102500Y279063D01*
X79500Y286000D02*
X95563D01*
X71500Y278000D02*
X79500Y286000D01*
X81500Y278000D02*
X86500Y283000D01*
X94000D01*
X100937Y276063D01*
X126163D01*
X141100Y291000D01*
X152000D01*
X154000Y289000D01*
Y287000D02*
Y289000D01*
Y287000D02*
X159500Y281500D01*
X56000Y324500D02*
X61000Y319500D01*
X10000Y324500D02*
X56000D01*
X6500Y321000D02*
X10000Y324500D01*
X6500Y303800D02*
Y321000D01*
Y303800D02*
X8500Y301800D01*
X15300D01*
X21500Y308000D01*
X61500D02*
X71900Y297600D01*
X104300D01*
X104400Y297500D01*
X113700D01*
X119700Y303500D01*
X135100D01*
X78300Y313800D02*
X84000Y319500D01*
X37300Y313800D02*
X78300D01*
X31500Y308000D02*
X37300Y313800D01*
X91500Y308000D02*
X94972Y311472D01*
X182500D01*
X184514Y313486D01*
X215986D01*
X222000Y319500D01*
X81500Y308000D02*
X88000Y314500D01*
X181000D01*
X186000Y319500D01*
X199000D01*
X23000D02*
X38000D01*
X11500Y308000D02*
X23000Y319500D01*
X174000Y297000D02*
X189500Y281500D01*
X117909Y297000D02*
X174000D01*
X105909Y285000D02*
X117909Y297000D01*
X227100Y297600D02*
X231000Y301500D01*
X204057Y297600D02*
X227100D01*
X198657Y303000D02*
X204057Y297600D01*
X96309Y294600D02*
X105909Y285000D01*
X58100Y294600D02*
X96309D01*
X41500Y278000D02*
X58100Y294600D01*
X210943Y310400D02*
X218343Y303000D01*
X186953Y310400D02*
X210943D01*
X178553Y302000D02*
X186953Y310400D01*
X159500Y302000D02*
X178553D01*
X213000Y285000D02*
X217500Y289500D01*
X229000D01*
X241000Y301500D01*
X26453Y273047D02*
X36547D01*
X21500Y278000D02*
X26453Y273047D01*
X36547D02*
X41500Y278000D01*
X61500Y210500D02*
X71500D01*
X189500Y234500D02*
X193500D01*
X194500Y235500D01*
X198657D01*
X146591Y236000D02*
X152200D01*
X153700Y234500D01*
X159500D01*
X61000Y262000D02*
X84000D01*
X38000D02*
X61000D01*
X84000D02*
X107000D01*
X15000D02*
X38000D01*
X107000D02*
X130000D01*
X153000D01*
X176000D01*
X199000D01*
X222000D01*
X233500Y209000D02*
X241000Y216500D01*
X155591Y209000D02*
X233500D01*
X147091Y217500D02*
X155591Y209000D01*
X157000Y226500D02*
X160000Y223500D01*
X138600Y226500D02*
X157000D01*
X123663Y211563D02*
X138600Y226500D01*
X102500Y211563D02*
X123663D01*
X95563Y218500D02*
X102500Y211563D01*
X79500Y218500D02*
X95563D01*
X71500Y210500D02*
X79500Y218500D01*
X81500Y210500D02*
X86500Y215500D01*
X94000D01*
X100937Y208563D01*
X126163D01*
X141100Y223500D01*
X152000D01*
X154000Y221500D01*
Y219500D02*
Y221500D01*
Y219500D02*
X159500Y214000D01*
X56000Y257000D02*
X61000Y252000D01*
X10000Y257000D02*
X56000D01*
X6500Y253500D02*
X10000Y257000D01*
X6500Y236300D02*
Y253500D01*
Y236300D02*
X8500Y234300D01*
X15300D01*
X21500Y240500D01*
X61500D02*
X71900Y230100D01*
X104300D01*
X104400Y230000D01*
X113700D01*
X119700Y236000D01*
X135100D01*
X78300Y246300D02*
X84000Y252000D01*
X37300Y246300D02*
X78300D01*
X31500Y240500D02*
X37300Y246300D01*
X91500Y240500D02*
X94972Y243972D01*
X182500D01*
X184514Y245986D01*
X215986D01*
X222000Y252000D01*
X81500Y240500D02*
X88000Y247000D01*
X181000D01*
X186000Y252000D01*
X199000D01*
X23000D02*
X38000D01*
X11500Y240500D02*
X23000Y252000D01*
X174000Y229500D02*
X189500Y214000D01*
X117909Y229500D02*
X174000D01*
X105909Y217500D02*
X117909Y229500D01*
X227100Y230100D02*
X231000Y234000D01*
X204057Y230100D02*
X227100D01*
X198657Y235500D02*
X204057Y230100D01*
X96309Y227100D02*
X105909Y217500D01*
X58100Y227100D02*
X96309D01*
X41500Y210500D02*
X58100Y227100D01*
X210943Y242900D02*
X218343Y235500D01*
X186953Y242900D02*
X210943D01*
X178553Y234500D02*
X186953Y242900D01*
X159500Y234500D02*
X178553D01*
X213000Y217500D02*
X217500Y222000D01*
X229000D01*
X241000Y234000D01*
X26453Y205547D02*
X36547D01*
X21500Y210500D02*
X26453Y205547D01*
X36547D02*
X41500Y210500D01*
X61500Y144000D02*
X71500D01*
X189500Y168000D02*
X193500D01*
X194500Y169000D01*
X198657D01*
X146591Y169500D02*
X152200D01*
X153700Y168000D01*
X159500D01*
X61000Y195500D02*
X84000D01*
X38000D02*
X61000D01*
X84000D02*
X107000D01*
X15000D02*
X38000D01*
X107000D02*
X130000D01*
X153000D01*
X176000D01*
X199000D01*
X222000D01*
X233500Y142500D02*
X241000Y150000D01*
X155591Y142500D02*
X233500D01*
X147091Y151000D02*
X155591Y142500D01*
X157000Y160000D02*
X160000Y157000D01*
X138600Y160000D02*
X157000D01*
X123663Y145063D02*
X138600Y160000D01*
X102500Y145063D02*
X123663D01*
X95563Y152000D02*
X102500Y145063D01*
X79500Y152000D02*
X95563D01*
X71500Y144000D02*
X79500Y152000D01*
X81500Y144000D02*
X86500Y149000D01*
X94000D01*
X100937Y142063D01*
X126163D01*
X141100Y157000D01*
X152000D01*
X154000Y155000D01*
Y153000D02*
Y155000D01*
Y153000D02*
X159500Y147500D01*
X56000Y190500D02*
X61000Y185500D01*
X10000Y190500D02*
X56000D01*
X6500Y187000D02*
X10000Y190500D01*
X6500Y169800D02*
Y187000D01*
Y169800D02*
X8500Y167800D01*
X15300D01*
X21500Y174000D01*
X61500D02*
X71900Y163600D01*
X104300D01*
X104400Y163500D01*
X113700D01*
X119700Y169500D01*
X135100D01*
X78300Y179800D02*
X84000Y185500D01*
X37300Y179800D02*
X78300D01*
X31500Y174000D02*
X37300Y179800D01*
X91500Y174000D02*
X94972Y177472D01*
X182500D01*
X184514Y179486D01*
X215986D01*
X222000Y185500D01*
X81500Y174000D02*
X88000Y180500D01*
X181000D01*
X186000Y185500D01*
X199000D01*
X23000D02*
X38000D01*
X11500Y174000D02*
X23000Y185500D01*
X174000Y163000D02*
X189500Y147500D01*
X117909Y163000D02*
X174000D01*
X105909Y151000D02*
X117909Y163000D01*
X227100Y163600D02*
X231000Y167500D01*
X204057Y163600D02*
X227100D01*
X198657Y169000D02*
X204057Y163600D01*
X96309Y160600D02*
X105909Y151000D01*
X58100Y160600D02*
X96309D01*
X41500Y144000D02*
X58100Y160600D01*
X210943Y176400D02*
X218343Y169000D01*
X186953Y176400D02*
X210943D01*
X178553Y168000D02*
X186953Y176400D01*
X159500Y168000D02*
X178553D01*
X213000Y151000D02*
X217500Y155500D01*
X229000D01*
X241000Y167500D01*
X26453Y139047D02*
X36547D01*
X21500Y144000D02*
X26453Y139047D01*
X36547D02*
X41500Y144000D01*
X61500Y75500D02*
X71500D01*
X189500Y99500D02*
X193500D01*
X194500Y100500D01*
X198657D01*
X146591Y101000D02*
X152200D01*
X153700Y99500D01*
X159500D01*
X61000Y127000D02*
X84000D01*
X38000D02*
X61000D01*
X84000D02*
X107000D01*
X15000D02*
X38000D01*
X107000D02*
X130000D01*
X153000D01*
X176000D01*
X199000D01*
X222000D01*
X233500Y74000D02*
X241000Y81500D01*
X155591Y74000D02*
X233500D01*
X147091Y82500D02*
X155591Y74000D01*
X157000Y91500D02*
X160000Y88500D01*
X138600Y91500D02*
X157000D01*
X123663Y76563D02*
X138600Y91500D01*
X102500Y76563D02*
X123663D01*
X95563Y83500D02*
X102500Y76563D01*
X79500Y83500D02*
X95563D01*
X71500Y75500D02*
X79500Y83500D01*
X81500Y75500D02*
X86500Y80500D01*
X94000D01*
X100937Y73563D01*
X126163D01*
X141100Y88500D01*
X152000D01*
X154000Y86500D01*
Y84500D02*
Y86500D01*
Y84500D02*
X159500Y79000D01*
X56000Y122000D02*
X61000Y117000D01*
X10000Y122000D02*
X56000D01*
X6500Y118500D02*
X10000Y122000D01*
X6500Y101300D02*
Y118500D01*
Y101300D02*
X8500Y99300D01*
X15300D01*
X21500Y105500D01*
X61500D02*
X71900Y95100D01*
X104300D01*
X104400Y95000D01*
X113700D01*
X119700Y101000D01*
X135100D01*
X78300Y111300D02*
X84000Y117000D01*
X37300Y111300D02*
X78300D01*
X31500Y105500D02*
X37300Y111300D01*
X91500Y105500D02*
X94972Y108972D01*
X182500D01*
X184514Y110986D01*
X215986D01*
X222000Y117000D01*
X81500Y105500D02*
X88000Y112000D01*
X181000D01*
X186000Y117000D01*
X199000D01*
X23000D02*
X38000D01*
X11500Y105500D02*
X23000Y117000D01*
X174000Y94500D02*
X189500Y79000D01*
X117909Y94500D02*
X174000D01*
X105909Y82500D02*
X117909Y94500D01*
X227100Y95100D02*
X231000Y99000D01*
X204057Y95100D02*
X227100D01*
X198657Y100500D02*
X204057Y95100D01*
X96309Y92100D02*
X105909Y82500D01*
X58100Y92100D02*
X96309D01*
X41500Y75500D02*
X58100Y92100D01*
X210943Y107900D02*
X218343Y100500D01*
X186953Y107900D02*
X210943D01*
X178553Y99500D02*
X186953Y107900D01*
X159500Y99500D02*
X178553D01*
X213000Y82500D02*
X217500Y87000D01*
X229000D01*
X241000Y99000D01*
X26453Y70547D02*
X36547D01*
X21500Y75500D02*
X26453Y70547D01*
X36547D02*
X41500Y75500D01*
X36047Y2547D02*
X41000Y7500D01*
X21000D02*
X25953Y2547D01*
X36047D01*
X228500Y19000D02*
X240500Y31000D01*
X217000Y19000D02*
X228500D01*
X212500Y14500D02*
X217000Y19000D01*
X159000Y31500D02*
X178053D01*
X186453Y39900D01*
X210443D01*
X217843Y32500D01*
X41000Y7500D02*
X57600Y24100D01*
X95809D01*
X105409Y14500D01*
X198157Y32500D02*
X203557Y27100D01*
X226600D01*
X230500Y31000D01*
X105409Y14500D02*
X117409Y26500D01*
X173500D01*
X189000Y11000D01*
X11000Y37500D02*
X22500Y49000D01*
X37500D01*
X185500D02*
X198500D01*
X180500Y44000D02*
X185500Y49000D01*
X87500Y44000D02*
X180500D01*
X81000Y37500D02*
X87500Y44000D01*
X215486Y42986D02*
X221500Y49000D01*
X184014Y42986D02*
X215486D01*
X182000Y40972D02*
X184014Y42986D01*
X94472Y40972D02*
X182000D01*
X91000Y37500D02*
X94472Y40972D01*
X31000Y37500D02*
X36800Y43300D01*
X77800D01*
X83500Y49000D01*
X119200Y33000D02*
X134600D01*
X113200Y27000D02*
X119200Y33000D01*
X103900Y27000D02*
X113200D01*
X103800Y27100D02*
X103900Y27000D01*
X71400Y27100D02*
X103800D01*
X61000Y37500D02*
X71400Y27100D01*
X14800Y31300D02*
X21000Y37500D01*
X8000Y31300D02*
X14800D01*
X6000Y33300D02*
X8000Y31300D01*
X6000Y33300D02*
Y50500D01*
X9500Y54000D01*
X55500D01*
X60500Y49000D01*
X153500Y16500D02*
X159000Y11000D01*
X153500Y16500D02*
Y18500D01*
X151500Y20500D02*
X153500Y18500D01*
X140600Y20500D02*
X151500D01*
X125663Y5563D02*
X140600Y20500D01*
X100437Y5563D02*
X125663D01*
X93500Y12500D02*
X100437Y5563D01*
X86000Y12500D02*
X93500D01*
X81000Y7500D02*
X86000Y12500D01*
X71000Y7500D02*
X79000Y15500D01*
X95063D01*
X102000Y8563D01*
X123163D01*
X138100Y23500D01*
X156500D01*
X159500Y20500D01*
X146591Y14500D02*
X155091Y6000D01*
X233000D01*
X240500Y13500D01*
X198500Y59000D02*
X221500D01*
X175500D02*
X198500D01*
X152500D02*
X175500D01*
X129500D02*
X152500D01*
X106500D02*
X129500D01*
X14500D02*
X37500D01*
X83500D02*
X106500D01*
X37500D02*
X60500D01*
X83500D01*
X153200Y31500D02*
X159000D01*
X151700Y33000D02*
X153200Y31500D01*
X146091Y33000D02*
X151700D01*
X194000Y32500D02*
X198157D01*
X193000Y31500D02*
X194000Y32500D01*
X189000Y31500D02*
X193000D01*
X61000Y7500D02*
X71000D01*
D11*
X168500Y369500D02*
D03*
X84000D02*
D03*
D12*
X326500Y255000D02*
D03*
D13*
X327500Y126000D02*
D03*
D14*
X255000Y201000D02*
D03*
D15*
X125500Y338000D02*
D03*
Y135500D02*
D03*
Y67500D02*
D03*
D16*
Y270500D02*
D03*
Y203500D02*
D03*
D17*
X245000Y345000D02*
D03*
Y375000D02*
D03*
X232000Y345000D02*
D03*
Y375000D02*
D03*
X184000Y346500D02*
D03*
X191500Y351500D02*
D03*
X184000Y356500D02*
D03*
X182500Y375500D02*
D03*
Y385500D02*
D03*
X209000Y352000D02*
D03*
X161000Y345000D02*
D03*
Y375000D02*
D03*
X148000Y345000D02*
D03*
Y375000D02*
D03*
X100000Y346500D02*
D03*
X107500Y351500D02*
D03*
X100000Y356500D02*
D03*
X98500Y375500D02*
D03*
Y385500D02*
D03*
X125000Y352000D02*
D03*
X76000Y345000D02*
D03*
Y375000D02*
D03*
X63000Y345000D02*
D03*
Y375000D02*
D03*
X15000Y346500D02*
D03*
X22500Y351500D02*
D03*
X15000Y356500D02*
D03*
X13500Y375500D02*
D03*
Y385500D02*
D03*
X40000Y352000D02*
D03*
X332000Y301000D02*
D03*
X362000D02*
D03*
Y338000D02*
D03*
X332000D02*
D03*
Y310500D02*
D03*
X362000D02*
D03*
X332000Y329500D02*
D03*
X362000D02*
D03*
X332000Y320500D02*
D03*
X362000D02*
D03*
X298500Y349500D02*
D03*
X291000Y354500D02*
D03*
X298500Y359500D02*
D03*
X318000Y349500D02*
D03*
X310500Y354500D02*
D03*
X318000Y359500D02*
D03*
X338000Y349500D02*
D03*
X330500Y354500D02*
D03*
X338000Y359500D02*
D03*
X357000Y349500D02*
D03*
X349500Y354500D02*
D03*
X357000Y359500D02*
D03*
X317500Y300000D02*
D03*
X307500D02*
D03*
X306000Y378000D02*
D03*
X329000Y378500D02*
D03*
X352000Y378000D02*
D03*
X378000Y350500D02*
D03*
Y327000D02*
D03*
Y304000D02*
D03*
X346000Y275500D02*
D03*
X321500Y276000D02*
D03*
X297500Y275500D02*
D03*
X275500Y309500D02*
D03*
X276000Y335000D02*
D03*
X275000Y360000D02*
D03*
X346500Y14500D02*
D03*
X363000Y198157D02*
D03*
X375000Y159500D02*
D03*
Y189500D02*
D03*
X384500Y159000D02*
D03*
Y189000D02*
D03*
X346500Y37500D02*
D03*
Y60500D02*
D03*
Y83500D02*
D03*
Y106500D02*
D03*
Y129500D02*
D03*
Y152500D02*
D03*
Y175500D02*
D03*
Y198500D02*
D03*
Y221500D02*
D03*
X364000Y159000D02*
D03*
Y189000D02*
D03*
X381000Y212500D02*
D03*
Y202500D02*
D03*
X388000Y21000D02*
D03*
Y31000D02*
D03*
Y41000D02*
D03*
Y51000D02*
D03*
Y61000D02*
D03*
Y71000D02*
D03*
Y81000D02*
D03*
Y91000D02*
D03*
X358000Y81000D02*
D03*
Y71000D02*
D03*
Y61000D02*
D03*
Y51000D02*
D03*
Y41000D02*
D03*
Y31000D02*
D03*
Y21000D02*
D03*
Y11000D02*
D03*
X277500Y14500D02*
D03*
X294000Y198157D02*
D03*
X306000Y159500D02*
D03*
Y189500D02*
D03*
X315500Y159000D02*
D03*
Y189000D02*
D03*
X277500Y37500D02*
D03*
Y60500D02*
D03*
Y83500D02*
D03*
Y106500D02*
D03*
Y129500D02*
D03*
Y152500D02*
D03*
Y175500D02*
D03*
Y198500D02*
D03*
Y221500D02*
D03*
X295000Y159000D02*
D03*
Y189000D02*
D03*
X312000Y212500D02*
D03*
Y202500D02*
D03*
X319000Y21000D02*
D03*
Y31000D02*
D03*
Y41000D02*
D03*
Y51000D02*
D03*
Y61000D02*
D03*
Y71000D02*
D03*
Y81000D02*
D03*
Y91000D02*
D03*
X289000Y81000D02*
D03*
Y71000D02*
D03*
Y61000D02*
D03*
Y51000D02*
D03*
Y41000D02*
D03*
Y31000D02*
D03*
Y21000D02*
D03*
Y11000D02*
D03*
X15000Y319500D02*
D03*
X198657Y303000D02*
D03*
X160000Y291000D02*
D03*
X190000D02*
D03*
X159500Y281500D02*
D03*
X189500D02*
D03*
X38000Y319500D02*
D03*
X61000D02*
D03*
X84000D02*
D03*
X107000D02*
D03*
X130000D02*
D03*
X153000D02*
D03*
X176000D02*
D03*
X199000D02*
D03*
X222000D02*
D03*
X159500Y302000D02*
D03*
X189500D02*
D03*
X213000Y285000D02*
D03*
X203000D02*
D03*
X21500Y278000D02*
D03*
X31500D02*
D03*
X41500D02*
D03*
X51500D02*
D03*
X61500D02*
D03*
X71500D02*
D03*
X81500D02*
D03*
X91500D02*
D03*
X81500Y308000D02*
D03*
X71500D02*
D03*
X61500D02*
D03*
X51500D02*
D03*
X41500D02*
D03*
X31500D02*
D03*
X21500D02*
D03*
X11500D02*
D03*
X15000Y252000D02*
D03*
X198657Y235500D02*
D03*
X160000Y223500D02*
D03*
X190000D02*
D03*
X159500Y214000D02*
D03*
X189500D02*
D03*
X38000Y252000D02*
D03*
X61000D02*
D03*
X84000D02*
D03*
X107000D02*
D03*
X130000D02*
D03*
X153000D02*
D03*
X176000D02*
D03*
X199000D02*
D03*
X222000D02*
D03*
X159500Y234500D02*
D03*
X189500D02*
D03*
X213000Y217500D02*
D03*
X203000D02*
D03*
X21500Y210500D02*
D03*
X31500D02*
D03*
X41500D02*
D03*
X51500D02*
D03*
X61500D02*
D03*
X71500D02*
D03*
X81500D02*
D03*
X91500D02*
D03*
X81500Y240500D02*
D03*
X71500D02*
D03*
X61500D02*
D03*
X51500D02*
D03*
X41500D02*
D03*
X31500D02*
D03*
X21500D02*
D03*
X11500D02*
D03*
X15000Y185500D02*
D03*
X198657Y169000D02*
D03*
X160000Y157000D02*
D03*
X190000D02*
D03*
X159500Y147500D02*
D03*
X189500D02*
D03*
X38000Y185500D02*
D03*
X61000D02*
D03*
X84000D02*
D03*
X107000D02*
D03*
X130000D02*
D03*
X153000D02*
D03*
X176000D02*
D03*
X199000D02*
D03*
X222000D02*
D03*
X159500Y168000D02*
D03*
X189500D02*
D03*
X213000Y151000D02*
D03*
X203000D02*
D03*
X21500Y144000D02*
D03*
X31500D02*
D03*
X41500D02*
D03*
X51500D02*
D03*
X61500D02*
D03*
X71500D02*
D03*
X81500D02*
D03*
X91500D02*
D03*
X81500Y174000D02*
D03*
X71500D02*
D03*
X61500D02*
D03*
X51500D02*
D03*
X41500D02*
D03*
X31500D02*
D03*
X21500D02*
D03*
X11500D02*
D03*
X15000Y117000D02*
D03*
X198657Y100500D02*
D03*
X160000Y88500D02*
D03*
X190000D02*
D03*
X159500Y79000D02*
D03*
X189500D02*
D03*
X38000Y117000D02*
D03*
X61000D02*
D03*
X84000D02*
D03*
X107000D02*
D03*
X130000D02*
D03*
X153000D02*
D03*
X176000D02*
D03*
X199000D02*
D03*
X222000D02*
D03*
X159500Y99500D02*
D03*
X189500D02*
D03*
X213000Y82500D02*
D03*
X203000D02*
D03*
X21500Y75500D02*
D03*
X31500D02*
D03*
X41500D02*
D03*
X51500D02*
D03*
X61500D02*
D03*
X71500D02*
D03*
X81500D02*
D03*
X91500D02*
D03*
X81500Y105500D02*
D03*
X71500D02*
D03*
X61500D02*
D03*
X51500D02*
D03*
X41500D02*
D03*
X31500D02*
D03*
X21500D02*
D03*
X11500D02*
D03*
X198157Y32500D02*
D03*
X212500Y14500D02*
D03*
X202500D02*
D03*
X159000Y31500D02*
D03*
X189000D02*
D03*
X21000Y7500D02*
D03*
X31000D02*
D03*
X41000D02*
D03*
X51000D02*
D03*
X61000D02*
D03*
X71000D02*
D03*
X81000D02*
D03*
X91000D02*
D03*
X81000Y37500D02*
D03*
X71000D02*
D03*
X61000D02*
D03*
X51000D02*
D03*
X41000D02*
D03*
X31000D02*
D03*
X21000D02*
D03*
X11000D02*
D03*
X159000Y11000D02*
D03*
X189000D02*
D03*
X159500Y20500D02*
D03*
X189500D02*
D03*
X221500Y49000D02*
D03*
X198500D02*
D03*
X175500D02*
D03*
X152500D02*
D03*
X129500D02*
D03*
X106500D02*
D03*
X83500D02*
D03*
X60500D02*
D03*
X37500D02*
D03*
X14500D02*
D03*
D18*
X200157Y393342D02*
D03*
X210000Y373657D02*
D03*
X116157Y393342D02*
D03*
X126000Y373657D02*
D03*
X31157Y393342D02*
D03*
X41000Y373657D02*
D03*
X313000Y337843D02*
D03*
X322843Y318157D02*
D03*
D19*
X219843Y393342D02*
D03*
X135843D02*
D03*
X50842D02*
D03*
X303157Y318157D02*
D03*
D20*
X209000Y362000D02*
D03*
X125000D02*
D03*
X40000D02*
D03*
X378000Y360500D02*
D03*
Y337000D02*
D03*
Y314000D02*
D03*
X275500Y299500D02*
D03*
X276000Y325000D02*
D03*
X275000Y350000D02*
D03*
X363000Y217843D02*
D03*
X294000D02*
D03*
X15000Y329500D02*
D03*
X38000D02*
D03*
X61000D02*
D03*
X84000D02*
D03*
X107000D02*
D03*
X130000D02*
D03*
X153000D02*
D03*
X176000D02*
D03*
X199000D02*
D03*
X222000D02*
D03*
X11500Y278000D02*
D03*
X15000Y262000D02*
D03*
X38000D02*
D03*
X61000D02*
D03*
X84000D02*
D03*
X107000D02*
D03*
X130000D02*
D03*
X153000D02*
D03*
X176000D02*
D03*
X199000D02*
D03*
X222000D02*
D03*
X11500Y210500D02*
D03*
X15000Y195500D02*
D03*
X38000D02*
D03*
X61000D02*
D03*
X84000D02*
D03*
X107000D02*
D03*
X130000D02*
D03*
X153000D02*
D03*
X176000D02*
D03*
X199000D02*
D03*
X222000D02*
D03*
X11500Y144000D02*
D03*
X15000Y127000D02*
D03*
X38000D02*
D03*
X61000D02*
D03*
X84000D02*
D03*
X107000D02*
D03*
X130000D02*
D03*
X153000D02*
D03*
X176000D02*
D03*
X199000D02*
D03*
X222000D02*
D03*
X11500Y75500D02*
D03*
X11000Y7500D02*
D03*
X221500Y59000D02*
D03*
X198500D02*
D03*
X175500D02*
D03*
X152500D02*
D03*
X129500D02*
D03*
X106500D02*
D03*
X83500D02*
D03*
X60500D02*
D03*
X37500D02*
D03*
X14500D02*
D03*
D21*
X234000Y389000D02*
D03*
X150000D02*
D03*
X65000D02*
D03*
X380000Y274000D02*
D03*
D22*
X244000Y389000D02*
D03*
X160000D02*
D03*
X75000D02*
D03*
X241000Y284000D02*
D03*
Y301500D02*
D03*
Y216500D02*
D03*
Y234000D02*
D03*
Y150000D02*
D03*
Y167500D02*
D03*
Y81500D02*
D03*
Y99000D02*
D03*
X240500Y31000D02*
D03*
Y13500D02*
D03*
D23*
X380000Y284000D02*
D03*
X382000Y240500D02*
D03*
X364500D02*
D03*
X313000D02*
D03*
X295500D02*
D03*
D24*
X296000Y378000D02*
D03*
X319000Y378500D02*
D03*
X342000Y378000D02*
D03*
X356000Y275500D02*
D03*
X331500Y276000D02*
D03*
X307500Y275500D02*
D03*
X336500Y14500D02*
D03*
Y37500D02*
D03*
Y60500D02*
D03*
Y83500D02*
D03*
Y106500D02*
D03*
Y129500D02*
D03*
Y152500D02*
D03*
Y175500D02*
D03*
Y198500D02*
D03*
Y221500D02*
D03*
X388000Y11000D02*
D03*
X267500Y14500D02*
D03*
Y37500D02*
D03*
Y60500D02*
D03*
Y83500D02*
D03*
Y106500D02*
D03*
Y129500D02*
D03*
Y152500D02*
D03*
Y175500D02*
D03*
Y198500D02*
D03*
Y221500D02*
D03*
X319000Y11000D02*
D03*
X218343Y303000D02*
D03*
Y235500D02*
D03*
Y169000D02*
D03*
Y100500D02*
D03*
X217843Y32500D02*
D03*
D25*
X362500Y104909D02*
D03*
X381000Y105409D02*
D03*
X293500Y104909D02*
D03*
X312000Y105409D02*
D03*
X105409Y303500D02*
D03*
X105909Y285000D02*
D03*
X105409Y236000D02*
D03*
X105909Y217500D02*
D03*
X105409Y169500D02*
D03*
X105909Y151000D02*
D03*
X105409Y101000D02*
D03*
X105909Y82500D02*
D03*
X104909Y33000D02*
D03*
X105409Y14500D02*
D03*
D26*
X362500Y146091D02*
D03*
X381000Y146591D02*
D03*
X293500Y146091D02*
D03*
X312000Y146591D02*
D03*
D27*
X382000Y230500D02*
D03*
X364500D02*
D03*
X313000D02*
D03*
X295500D02*
D03*
X231000Y284000D02*
D03*
Y301500D02*
D03*
Y216500D02*
D03*
Y234000D02*
D03*
Y150000D02*
D03*
Y167500D02*
D03*
Y81500D02*
D03*
Y99000D02*
D03*
X230500Y31000D02*
D03*
Y13500D02*
D03*
D28*
X358000Y91000D02*
D03*
X289000D02*
D03*
X91500Y308000D02*
D03*
Y240500D02*
D03*
Y174000D02*
D03*
Y105500D02*
D03*
X91000Y37500D02*
D03*
D29*
X146591Y303500D02*
D03*
X147091Y285000D02*
D03*
X146591Y236000D02*
D03*
X147091Y217500D02*
D03*
X146591Y169500D02*
D03*
X147091Y151000D02*
D03*
X146591Y101000D02*
D03*
X147091Y82500D02*
D03*
X146091Y33000D02*
D03*
X146591Y14500D02*
D03*
D30*
X362500Y134600D02*
D03*
X293500D02*
D03*
X135100Y303500D02*
D03*
Y236000D02*
D03*
Y169500D02*
D03*
Y101000D02*
D03*
X134600Y33000D02*
D03*
M02*
