M48
;Layer_Color=9474304
;FILE_FORMAT=2:5
INCH,LZ
;TYPE=PLATED
T3F00S00C0.03937
%
G90
G05
T03
G00X0272945Y00755
M15
G01X0391055
M16
G00X0273445Y0155
M15
G01X0391555
M16
G00X0265Y0006555
M15
G01Y0388445
M16
G00X0136976Y0155
M15
G01X0259024
M16
G00X0136976Y0075
M15
G01X0259024
M16
G00X0005445Y00755
M15
G01X0123555
M16
G00X0005945Y0155
M15
G01X0124055
M16
G00X01305Y0007055
M15
G01Y0388945
M16
G00X0004461Y0317
M15
G01X0124539
M16
G00X0003961Y02345
M15
G01X0124039
M16
G00X0137476Y02345
M15
G01X0259524
M16
G00X0137461Y03165
M15
G01X0257539
M16
G00X0272945Y03155
M15
G01X0391055
M16
G00X0272945Y02345
M15
G01X0391055
M16
M30
