M48
;Layer_Color=9474304
;FILE_FORMAT=2:5
INCH,LZ
;TYPE=PLATED
T1F00S00C0.02756
T2F00S00C0.03543
%
T01
X0025969Y00135
X0035969
X0030968Y0021
X0048968Y0022
X0039154Y00345
X0019468Y00345
X0011969Y00295
X0029969Y00515
X0048968Y0052
X0066969Y00515
X0086968Y0053
X0105968Y00515
X0115311Y00345
X0095626Y00345
X0078311Y0034
X0086968Y0023
X0067968Y00205
X0062968Y0013
X0072969
X0101969Y00135
X0111969
X0106968Y0021
X0146468Y00295
X0153969Y00345
X0173653Y00345
X0193126Y0034
X0212811Y0034
X0202468Y00205
X0197468Y0013
X0207469
X0183468Y0022
X0165469Y0021
X0160468Y00135
X0170468
X0164469Y00515
X0183468Y0052
X0201468Y00515
X0058626Y0034
X0230126Y00345
X0249811Y00345
X0241469Y0021
X0236469Y00135
X0246468
X0221468Y0023
Y0053
X0240469Y00515
X0301468
X0320468Y0052
X0338469Y00515
X0358469Y0053
X0367126Y00345
X0349811Y0034
X0358469Y0023
X0339469Y00205
X0334469Y0013
X0344468
X0320468Y0022
X0302468Y0021
X0297468Y00135
X0307469
X0310653Y00345
X0290968Y00345
X0283469Y00295
X0330126Y0034
X0386811Y00345
X0378468Y0021
X0373468Y00135
X0383469
X0377468Y00515
Y00615
X0373468Y00925
X0383469
X0378468Y01
X0386811Y01135
X0377468Y01305
Y01405
X0373969Y01725
X0383968
X0378969Y018
X0387311Y01935
X0377969Y02105
X0358968Y0212
X0338968Y02105
X0320969Y0211
X0301969Y02105
X0311154Y01935
X0291469Y01935
X0283968Y01885
X0302969Y018
X0297969Y01725
X0307968
X0320969Y0181
X0339968Y01795
X0334968Y0172
X0344969
X0358968Y0182
X0350311Y0193
X0367626Y01935
X0330626Y0193
X0338469Y01405
Y01305
X0320468Y0131
X0301468Y01305
Y01405
X0283469Y01385
Y01085
X0290968Y01135
X0310653Y01135
X0330126Y0113
X0349811Y0113
X0367126Y01135
X0358469Y0102
X0339469Y00995
X0334469Y0092
X0344468
X0320468Y0101
X0302468Y01
X0297468Y00925
X0307469
X0301468Y00615
X0283469Y00595
X0240469Y00615
X0236469Y00925
X0246468
X0241469Y01
X0249811Y01135
X0230126Y01135
X0221468Y0102
Y0132
X0240469Y01305
Y01405
X0236968Y01725
X0246969
X0241968Y018
X0250311Y01935
X0230626Y01935
X0221969Y0182
Y0212
X0240968Y02105
X0358469Y0132
X0338469Y00615
X0201468
X0197468Y0092
X0207469
X0202468Y00995
X0183468Y0101
X0165469Y01
X0160468Y00925
X0170468
X0173653Y01135
X0153969Y01135
X0146468Y01085
Y01385
X0164469Y01405
Y01305
X0183468Y0131
X0201468Y01305
Y01405
X0197968Y0172
X0207968
X0202969Y01795
X0183968Y0181
X0165969Y018
X0160968Y01725
X0170968
X0174153Y01935
X0154469Y01935
X0146968Y01885
X0115811Y01935
X0096126Y01935
X0078811Y0193
X0087468Y0182
X0068468Y01795
X0063468Y0172
X0073469
X0102469Y01725
X0112469
X0107468Y018
X0106468Y02105
X0087468Y0212
X0067469Y02105
X0059126Y0193
X0066969Y01405
Y01305
X0086968Y0132
X0105968Y01305
Y01405
X0115311Y01135
X0095626Y01135
X0078311Y0113
X0086968Y0102
X0067968Y00995
X0062968Y0092
X0072969
X0101969Y00925
X0111969
X0106968Y01
X0105968Y00615
X0066969
X0058626Y0113
X0193126
X0212811Y0113
X0213311Y0193
X0193626Y0193
X0201969Y02105
X0183968Y0211
X0164969Y02105
X0164469Y00615
X0146468Y00595
X0029969Y00615
X0011969Y00595
X0025969Y00925
X0035969
X0030968Y01
X0048968Y0101
X0039154Y01135
X0019468Y01135
X0011969Y01085
Y01385
X0029969Y01405
Y01305
X0048968Y0131
X0049468Y0181
X0031468Y018
X0026469Y01725
X0036468
X0039654Y01935
X0019969Y01935
X0012468Y01885
X0030468Y02105
X0049468Y0211
X0030468Y02205
X0012468Y02185
X0026469Y02525
X0036468
X0031468Y026
X0049468Y0261
X0039654Y02735
X0019969Y02735
X0012468Y02685
Y02985
X0030468Y03005
Y02905
X0049468Y0291
Y03435
X0031468Y03425
X0026469Y0335
X0036468
X0039654Y0356
X0019969Y0356
X0012468Y0351
X0059126Y03555
X0078811Y03555
X0096126Y0356
X0115811Y0356
X0107468Y03425
X0102469Y0335
X0112469
X0087468Y03445
X0068468Y0342
X0063468Y03345
X0073469
X0067469Y03005
Y02905
X0087468Y0292
X0106468Y02905
Y03005
X0115811Y02735
X0096126Y02735
X0078811Y0273
X0087468Y0262
X0068468Y02595
X0063468Y0252
X0073469
X0102469Y02525
X0112469
X0107468Y026
X0106468Y02205
X0067469
X0059126Y0273
X0146968Y02685
X0154469Y02735
X0174153Y02735
X0193626Y0273
X0213311Y0273
X0202969Y02595
X0197968Y0252
X0207968
X0183968Y0261
X0165969Y026
X0160968Y02525
X0170968
X0164969Y02205
X0146968Y02185
X0201969Y02205
Y02905
Y03005
X0183968Y0291
X0164969Y02905
Y03005
X0146968Y02985
X0160968Y0335
X0170968
X0165969Y03425
X0183968Y03435
X0202969Y0342
X0197968Y03345
X0207968
X0213311Y03555
X0193626Y03555
X0174153Y0356
X0154469Y0356
X0146968Y0351
X0221969Y03445
X0230626Y0356
X0250311Y0356
X0241968Y03425
X0236968Y0335
X0246969
X0240968Y03005
Y02905
X0221969Y0292
X0230626Y02735
X0250311Y02735
X0241968Y026
X0236968Y02525
X0246969
X0221969Y0262
X0240968Y02205
X0283968Y02185
X0301969Y02205
X0297969Y02525
X0307968
X0302969Y026
X0320969Y0261
X0339968Y02595
X0334968Y0252
X0344969
X0358968Y0262
X0350311Y0273
X0367626Y02735
X0358968Y0292
X0338968Y02905
Y03005
X0320969Y0291
X0301969Y02905
Y03005
X0283968Y02985
Y02685
X0291469Y02735
X0311154Y02735
X0330626Y0273
X0338968Y02205
X0334968Y03345
X0344969
X0339968Y0342
X0320969Y03435
X0302969Y03425
X0297969Y0335
X0307968
X0311154Y0356
X0291469Y0356
X0283968Y0351
X0330626Y03555
X0350311Y03555
X0367626Y0356
X0358968Y03445
X0378969Y03425
X0373969Y0335
X0383968
X0387311Y0356
X0377969Y03005
Y02905
X0387311Y02735
X0378969Y026
X0373969Y02525
X0383968
X0377969Y02205
Y0373
Y0383
X0358968Y03745
X0338968Y0373
Y0383
X0320969Y03735
X0301969Y0373
Y0383
X0283968Y0381
X0240968Y0383
Y0373
X0221969Y03745
X0201969Y0373
Y0383
X0183968Y03735
X0164969Y0373
Y0383
X0146968Y0381
X0106468Y0383
Y0373
X0087468Y03745
X0067469Y0373
Y0383
X0049468Y03735
X0030468Y0373
Y0383
X0012468Y0381
T02
X0010469Y00095
Y00195
X0144968
Y00095
X0281968
Y00195
Y00885
Y00985
X0282469Y01685
Y01785
X0145468
Y01685
X0144968Y00985
Y00885
X0010469
Y00985
X0010968Y01685
Y01785
Y02485
Y02585
Y0331
Y0341
X0145468
Y0331
Y02585
Y02485
X0282469
Y02585
Y0331
Y0341
M30
