G04 Layer_Color=32896*
%FSLAX25Y25*%
%MOIN*%
G70*
G01*
G75*
%ADD25C,0.00800*%
D25*
X36497Y22545D02*
G03*
X25440Y22545I-5529J-8848D01*
G01*
X36497D02*
G03*
X25440Y22545I-5529J-8848D01*
G01*
X73497Y22045D02*
G03*
X62440Y22045I-5529J-8848D01*
G01*
X73497D02*
G03*
X62440Y22045I-5529J-8848D01*
G01*
X112497Y22545D02*
G03*
X101440Y22545I-5529J-8848D01*
G01*
X112497D02*
G03*
X101440Y22545I-5529J-8848D01*
G01*
X383997D02*
G03*
X372940Y22545I-5529J-8848D01*
G01*
X383997D02*
G03*
X372940Y22545I-5529J-8848D01*
G01*
X344997Y22045D02*
G03*
X333940Y22045I-5529J-8848D01*
G01*
X344997D02*
G03*
X333940Y22045I-5529J-8848D01*
G01*
X307997Y22545D02*
G03*
X296940Y22545I-5529J-8848D01*
G01*
X307997D02*
G03*
X296940Y22545I-5529J-8848D01*
G01*
X246997D02*
G03*
X235940Y22545I-5529J-8848D01*
G01*
X246997D02*
G03*
X235940Y22545I-5529J-8848D01*
G01*
X207997Y22045D02*
G03*
X196940Y22045I-5529J-8848D01*
G01*
X207997D02*
G03*
X196940Y22045I-5529J-8848D01*
G01*
X170997Y22545D02*
G03*
X159940Y22545I-5529J-8848D01*
G01*
X170997D02*
G03*
X159940Y22545I-5529J-8848D01*
G01*
X171497Y344045D02*
G03*
X160440Y344045I-5529J-8848D01*
G01*
X171497D02*
G03*
X160440Y344045I-5529J-8848D01*
G01*
X208497Y343545D02*
G03*
X197440Y343545I-5529J-8848D01*
G01*
X208497D02*
G03*
X197440Y343545I-5529J-8848D01*
G01*
X247497Y344045D02*
G03*
X236440Y344045I-5529J-8848D01*
G01*
X247497D02*
G03*
X236440Y344045I-5529J-8848D01*
G01*
X308497D02*
G03*
X297440Y344045I-5529J-8848D01*
G01*
X308497D02*
G03*
X297440Y344045I-5529J-8848D01*
G01*
X345497Y343545D02*
G03*
X334440Y343545I-5529J-8848D01*
G01*
X345497D02*
G03*
X334440Y343545I-5529J-8848D01*
G01*
X384497Y344045D02*
G03*
X373440Y344045I-5529J-8848D01*
G01*
X384497D02*
G03*
X373440Y344045I-5529J-8848D01*
G01*
X112997D02*
G03*
X101940Y344045I-5529J-8848D01*
G01*
X112997D02*
G03*
X101940Y344045I-5529J-8848D01*
G01*
X73997Y343545D02*
G03*
X62940Y343545I-5529J-8848D01*
G01*
X73997D02*
G03*
X62940Y343545I-5529J-8848D01*
G01*
X36997Y344045D02*
G03*
X25940Y344045I-5529J-8848D01*
G01*
X36997D02*
G03*
X25940Y344045I-5529J-8848D01*
G01*
X171497Y261545D02*
G03*
X160440Y261545I-5529J-8848D01*
G01*
X171497D02*
G03*
X160440Y261545I-5529J-8848D01*
G01*
X208497Y261045D02*
G03*
X197440Y261045I-5529J-8848D01*
G01*
X208497D02*
G03*
X197440Y261045I-5529J-8848D01*
G01*
X247497Y261545D02*
G03*
X236440Y261545I-5529J-8848D01*
G01*
X247497D02*
G03*
X236440Y261545I-5529J-8848D01*
G01*
X308497D02*
G03*
X297440Y261545I-5529J-8848D01*
G01*
X308497D02*
G03*
X297440Y261545I-5529J-8848D01*
G01*
X345497Y261045D02*
G03*
X334440Y261045I-5529J-8848D01*
G01*
X345497D02*
G03*
X334440Y261045I-5529J-8848D01*
G01*
X384497Y261545D02*
G03*
X373440Y261545I-5529J-8848D01*
G01*
X384497D02*
G03*
X373440Y261545I-5529J-8848D01*
G01*
X112997D02*
G03*
X101940Y261545I-5529J-8848D01*
G01*
X112997D02*
G03*
X101940Y261545I-5529J-8848D01*
G01*
X73997Y261045D02*
G03*
X62940Y261045I-5529J-8848D01*
G01*
X73997D02*
G03*
X62940Y261045I-5529J-8848D01*
G01*
X36997Y261545D02*
G03*
X25940Y261545I-5529J-8848D01*
G01*
X36997D02*
G03*
X25940Y261545I-5529J-8848D01*
G01*
X170997Y101545D02*
G03*
X159940Y101545I-5529J-8848D01*
G01*
X170997D02*
G03*
X159940Y101545I-5529J-8848D01*
G01*
X207997Y101045D02*
G03*
X196940Y101045I-5529J-8848D01*
G01*
X207997D02*
G03*
X196940Y101045I-5529J-8848D01*
G01*
X246997Y101545D02*
G03*
X235940Y101545I-5529J-8848D01*
G01*
X246997D02*
G03*
X235940Y101545I-5529J-8848D01*
G01*
X307997D02*
G03*
X296940Y101545I-5529J-8848D01*
G01*
X307997D02*
G03*
X296940Y101545I-5529J-8848D01*
G01*
X344997Y101045D02*
G03*
X333940Y101045I-5529J-8848D01*
G01*
X344997D02*
G03*
X333940Y101045I-5529J-8848D01*
G01*
X383997Y101545D02*
G03*
X372940Y101545I-5529J-8848D01*
G01*
X383997D02*
G03*
X372940Y101545I-5529J-8848D01*
G01*
X112497D02*
G03*
X101440Y101545I-5529J-8848D01*
G01*
X112497D02*
G03*
X101440Y101545I-5529J-8848D01*
G01*
X73497Y101045D02*
G03*
X62440Y101045I-5529J-8848D01*
G01*
X73497D02*
G03*
X62440Y101045I-5529J-8848D01*
G01*
X36497Y101545D02*
G03*
X25440Y101545I-5529J-8848D01*
G01*
X36497D02*
G03*
X25440Y101545I-5529J-8848D01*
G01*
X171497Y181545D02*
G03*
X160440Y181545I-5529J-8848D01*
G01*
X171497D02*
G03*
X160440Y181545I-5529J-8848D01*
G01*
X208497Y181045D02*
G03*
X197440Y181045I-5529J-8848D01*
G01*
X208497D02*
G03*
X197440Y181045I-5529J-8848D01*
G01*
X247497Y181545D02*
G03*
X236440Y181545I-5529J-8848D01*
G01*
X247497D02*
G03*
X236440Y181545I-5529J-8848D01*
G01*
X308497D02*
G03*
X297440Y181545I-5529J-8848D01*
G01*
X308497D02*
G03*
X297440Y181545I-5529J-8848D01*
G01*
X345497Y181045D02*
G03*
X334440Y181045I-5529J-8848D01*
G01*
X345497D02*
G03*
X334440Y181045I-5529J-8848D01*
G01*
X384497Y181545D02*
G03*
X373440Y181545I-5529J-8848D01*
G01*
X384497D02*
G03*
X373440Y181545I-5529J-8848D01*
G01*
X112997D02*
G03*
X101940Y181545I-5529J-8848D01*
G01*
X112997D02*
G03*
X101940Y181545I-5529J-8848D01*
G01*
X73997Y181045D02*
G03*
X62940Y181045I-5529J-8848D01*
G01*
X73997D02*
G03*
X62940Y181045I-5529J-8848D01*
G01*
X36997Y181545D02*
G03*
X25940Y181545I-5529J-8848D01*
G01*
X36997D02*
G03*
X25940Y181545I-5529J-8848D01*
G01*
M02*
