G04 Layer_Physical_Order=1*
G04 Layer_Color=255*
%FSLAX25Y25*%
%MOIN*%
G70*
G01*
G75*
%ADD10C,0.03000*%
%ADD11R,0.03937X3.85827*%
%ADD12C,0.05905*%
%ADD13R,0.05315X0.05315*%
%ADD14C,0.05315*%
%ADD15C,0.07874*%
%ADD16R,0.07874X0.07874*%
%ADD17C,0.05512*%
%ADD18C,0.05827*%
%ADD19R,0.05827X0.05827*%
%ADD20O,0.05905X0.03937*%
%ADD21O,0.05905X0.03200*%
%ADD22R,1.24016X0.03937*%
%ADD23R,1.22047X0.03937*%
%ADD24R,1.25984X0.03937*%
G36*
X380363Y345491D02*
X382069Y343629D01*
X381959Y341105D01*
X380097Y339399D01*
X377574Y339509D01*
X375868Y341371D01*
X375978Y343895D01*
X377840Y345601D01*
X380363Y345491D01*
D02*
G37*
G36*
X304363D02*
X306069Y343629D01*
X305959Y341105D01*
X304097Y339399D01*
X301574Y339509D01*
X299868Y341371D01*
X299978Y343895D01*
X301840Y345601D01*
X304363Y345491D01*
D02*
G37*
G36*
X243363D02*
X245070Y343629D01*
X244959Y341105D01*
X243097Y339399D01*
X240574Y339509D01*
X238867Y341371D01*
X238978Y343895D01*
X240840Y345601D01*
X243363Y345491D01*
D02*
G37*
G36*
X167363D02*
X169070Y343629D01*
X168959Y341105D01*
X167097Y339399D01*
X164574Y339509D01*
X162867Y341371D01*
X162978Y343895D01*
X164840Y345601D01*
X167363Y345491D01*
D02*
G37*
G36*
X108863D02*
X110570Y343629D01*
X110459Y341105D01*
X108597Y339399D01*
X106074Y339509D01*
X104367Y341371D01*
X104478Y343895D01*
X106340Y345601D01*
X108863Y345491D01*
D02*
G37*
G36*
X32863D02*
X34569Y343629D01*
X34459Y341105D01*
X32597Y339399D01*
X30074Y339509D01*
X28367Y341371D01*
X28478Y343895D01*
X30340Y345601D01*
X32863Y345491D01*
D02*
G37*
G36*
X341363Y344991D02*
X343070Y343129D01*
X342959Y340605D01*
X341097Y338899D01*
X338574Y339009D01*
X336867Y340871D01*
X336978Y343395D01*
X338840Y345101D01*
X341363Y344991D01*
D02*
G37*
G36*
X204363D02*
X206069Y343129D01*
X205959Y340605D01*
X204097Y338899D01*
X201574Y339009D01*
X199867Y340871D01*
X199978Y343395D01*
X201840Y345101D01*
X204363Y344991D01*
D02*
G37*
G36*
X69863D02*
X71570Y343129D01*
X71459Y340605D01*
X69597Y338899D01*
X67074Y339009D01*
X65368Y340871D01*
X65478Y343395D01*
X67340Y345101D01*
X69863Y344991D01*
D02*
G37*
G36*
X385363Y337991D02*
X387070Y336129D01*
X386959Y333605D01*
X385097Y331899D01*
X382574Y332009D01*
X380868Y333871D01*
X380978Y336395D01*
X382840Y338101D01*
X385363Y337991D01*
D02*
G37*
G36*
X375363D02*
X377069Y336129D01*
X376959Y333605D01*
X375097Y331899D01*
X372574Y332009D01*
X370867Y333871D01*
X370978Y336395D01*
X372840Y338101D01*
X375363Y337991D01*
D02*
G37*
G36*
X309363D02*
X311069Y336129D01*
X310959Y333605D01*
X309097Y331899D01*
X306574Y332009D01*
X304868Y333871D01*
X304978Y336395D01*
X306840Y338101D01*
X309363Y337991D01*
D02*
G37*
G36*
X299363D02*
X301069Y336129D01*
X300959Y333605D01*
X299097Y331899D01*
X296574Y332009D01*
X294867Y333871D01*
X294978Y336395D01*
X296840Y338101D01*
X299363Y337991D01*
D02*
G37*
G36*
X248363D02*
X250069Y336129D01*
X249959Y333605D01*
X248097Y331899D01*
X245574Y332009D01*
X243867Y333871D01*
X243978Y336395D01*
X245840Y338101D01*
X248363Y337991D01*
D02*
G37*
G36*
X238363D02*
X240070Y336129D01*
X239959Y333605D01*
X238097Y331899D01*
X235574Y332009D01*
X233868Y333871D01*
X233978Y336395D01*
X235840Y338101D01*
X238363Y337991D01*
D02*
G37*
G36*
X172363D02*
X174069Y336129D01*
X173959Y333605D01*
X172097Y331899D01*
X169574Y332009D01*
X167868Y333871D01*
X167978Y336395D01*
X169840Y338101D01*
X172363Y337991D01*
D02*
G37*
G36*
X162363D02*
X164069Y336129D01*
X163959Y333605D01*
X162097Y331899D01*
X159574Y332009D01*
X157868Y333871D01*
X157978Y336395D01*
X159840Y338101D01*
X162363Y337991D01*
D02*
G37*
G36*
X113863D02*
X115569Y336129D01*
X115459Y333605D01*
X113597Y331899D01*
X111074Y332009D01*
X109368Y333871D01*
X109478Y336395D01*
X111340Y338101D01*
X113863Y337991D01*
D02*
G37*
G36*
X103863D02*
X105570Y336129D01*
X105459Y333605D01*
X103597Y331899D01*
X101074Y332009D01*
X99367Y333871D01*
X99478Y336395D01*
X101340Y338101D01*
X103863Y337991D01*
D02*
G37*
G36*
X37863D02*
X39570Y336129D01*
X39459Y333605D01*
X37597Y331899D01*
X35074Y332009D01*
X33367Y333871D01*
X33478Y336395D01*
X35340Y338101D01*
X37863Y337991D01*
D02*
G37*
G36*
X27863D02*
X29570Y336129D01*
X29459Y333605D01*
X27597Y331899D01*
X25074Y332009D01*
X23368Y333871D01*
X23478Y336395D01*
X25340Y338101D01*
X27863Y337991D01*
D02*
G37*
G36*
X346363Y337491D02*
X348070Y335629D01*
X347959Y333105D01*
X346097Y331399D01*
X343574Y331509D01*
X341867Y333371D01*
X341978Y335895D01*
X343840Y337601D01*
X346363Y337491D01*
D02*
G37*
G36*
X336363D02*
X338070Y335629D01*
X337959Y333105D01*
X336097Y331399D01*
X333574Y331509D01*
X331868Y333371D01*
X331978Y335895D01*
X333840Y337601D01*
X336363Y337491D01*
D02*
G37*
G36*
X209363D02*
X211069Y335629D01*
X210959Y333105D01*
X209097Y331399D01*
X206574Y331509D01*
X204868Y333371D01*
X204978Y335895D01*
X206840Y337601D01*
X209363Y337491D01*
D02*
G37*
G36*
X199363D02*
X201069Y335629D01*
X200959Y333105D01*
X199097Y331399D01*
X196574Y331509D01*
X194868Y333371D01*
X194978Y335895D01*
X196840Y337601D01*
X199363Y337491D01*
D02*
G37*
G36*
X74863D02*
X76569Y335629D01*
X76459Y333105D01*
X74597Y331399D01*
X72074Y331509D01*
X70367Y333371D01*
X70478Y335895D01*
X72340Y337601D01*
X74863Y337491D01*
D02*
G37*
G36*
X64863D02*
X66570Y335629D01*
X66459Y333105D01*
X64597Y331399D01*
X62074Y331509D01*
X60368Y333371D01*
X60478Y335895D01*
X62340Y337601D01*
X64863Y337491D01*
D02*
G37*
G36*
X380363Y262991D02*
X382069Y261129D01*
X381959Y258605D01*
X380097Y256899D01*
X377574Y257009D01*
X375868Y258871D01*
X375978Y261395D01*
X377840Y263101D01*
X380363Y262991D01*
D02*
G37*
G36*
X304363D02*
X306069Y261129D01*
X305959Y258605D01*
X304097Y256899D01*
X301574Y257009D01*
X299868Y258871D01*
X299978Y261395D01*
X301840Y263101D01*
X304363Y262991D01*
D02*
G37*
G36*
X243363D02*
X245070Y261129D01*
X244959Y258605D01*
X243097Y256899D01*
X240574Y257009D01*
X238867Y258871D01*
X238978Y261395D01*
X240840Y263101D01*
X243363Y262991D01*
D02*
G37*
G36*
X167363D02*
X169070Y261129D01*
X168959Y258605D01*
X167097Y256899D01*
X164574Y257009D01*
X162867Y258871D01*
X162978Y261395D01*
X164840Y263101D01*
X167363Y262991D01*
D02*
G37*
G36*
X108863D02*
X110570Y261129D01*
X110459Y258605D01*
X108597Y256899D01*
X106074Y257009D01*
X104367Y258871D01*
X104478Y261395D01*
X106340Y263101D01*
X108863Y262991D01*
D02*
G37*
G36*
X32863D02*
X34569Y261129D01*
X34459Y258605D01*
X32597Y256899D01*
X30074Y257009D01*
X28367Y258871D01*
X28478Y261395D01*
X30340Y263101D01*
X32863Y262991D01*
D02*
G37*
G36*
X341363Y262491D02*
X343070Y260629D01*
X342959Y258105D01*
X341097Y256399D01*
X338574Y256509D01*
X336867Y258371D01*
X336978Y260895D01*
X338840Y262601D01*
X341363Y262491D01*
D02*
G37*
G36*
X204363D02*
X206069Y260629D01*
X205959Y258105D01*
X204097Y256399D01*
X201574Y256509D01*
X199867Y258371D01*
X199978Y260895D01*
X201840Y262601D01*
X204363Y262491D01*
D02*
G37*
G36*
X69863D02*
X71570Y260629D01*
X71459Y258105D01*
X69597Y256399D01*
X67074Y256509D01*
X65368Y258371D01*
X65478Y260895D01*
X67340Y262601D01*
X69863Y262491D01*
D02*
G37*
G36*
X385363Y255491D02*
X387070Y253629D01*
X386959Y251105D01*
X385097Y249399D01*
X382574Y249509D01*
X380868Y251371D01*
X380978Y253895D01*
X382840Y255601D01*
X385363Y255491D01*
D02*
G37*
G36*
X375363D02*
X377069Y253629D01*
X376959Y251105D01*
X375097Y249399D01*
X372574Y249509D01*
X370867Y251371D01*
X370978Y253895D01*
X372840Y255601D01*
X375363Y255491D01*
D02*
G37*
G36*
X309363D02*
X311069Y253629D01*
X310959Y251105D01*
X309097Y249399D01*
X306574Y249509D01*
X304868Y251371D01*
X304978Y253895D01*
X306840Y255601D01*
X309363Y255491D01*
D02*
G37*
G36*
X299363D02*
X301069Y253629D01*
X300959Y251105D01*
X299097Y249399D01*
X296574Y249509D01*
X294867Y251371D01*
X294978Y253895D01*
X296840Y255601D01*
X299363Y255491D01*
D02*
G37*
G36*
X248363D02*
X250069Y253629D01*
X249959Y251105D01*
X248097Y249399D01*
X245574Y249509D01*
X243867Y251371D01*
X243978Y253895D01*
X245840Y255601D01*
X248363Y255491D01*
D02*
G37*
G36*
X238363D02*
X240070Y253629D01*
X239959Y251105D01*
X238097Y249399D01*
X235574Y249509D01*
X233868Y251371D01*
X233978Y253895D01*
X235840Y255601D01*
X238363Y255491D01*
D02*
G37*
G36*
X172363D02*
X174069Y253629D01*
X173959Y251105D01*
X172097Y249399D01*
X169574Y249509D01*
X167868Y251371D01*
X167978Y253895D01*
X169840Y255601D01*
X172363Y255491D01*
D02*
G37*
G36*
X162363D02*
X164069Y253629D01*
X163959Y251105D01*
X162097Y249399D01*
X159574Y249509D01*
X157868Y251371D01*
X157978Y253895D01*
X159840Y255601D01*
X162363Y255491D01*
D02*
G37*
G36*
X113863D02*
X115569Y253629D01*
X115459Y251105D01*
X113597Y249399D01*
X111074Y249509D01*
X109368Y251371D01*
X109478Y253895D01*
X111340Y255601D01*
X113863Y255491D01*
D02*
G37*
G36*
X103863D02*
X105570Y253629D01*
X105459Y251105D01*
X103597Y249399D01*
X101074Y249509D01*
X99367Y251371D01*
X99478Y253895D01*
X101340Y255601D01*
X103863Y255491D01*
D02*
G37*
G36*
X37863D02*
X39570Y253629D01*
X39459Y251105D01*
X37597Y249399D01*
X35074Y249509D01*
X33367Y251371D01*
X33478Y253895D01*
X35340Y255601D01*
X37863Y255491D01*
D02*
G37*
G36*
X27863D02*
X29570Y253629D01*
X29459Y251105D01*
X27597Y249399D01*
X25074Y249509D01*
X23368Y251371D01*
X23478Y253895D01*
X25340Y255601D01*
X27863Y255491D01*
D02*
G37*
G36*
X346363Y254991D02*
X348070Y253129D01*
X347959Y250605D01*
X346097Y248899D01*
X343574Y249009D01*
X341867Y250871D01*
X341978Y253395D01*
X343840Y255101D01*
X346363Y254991D01*
D02*
G37*
G36*
X336363D02*
X338070Y253129D01*
X337959Y250605D01*
X336097Y248899D01*
X333574Y249009D01*
X331868Y250871D01*
X331978Y253395D01*
X333840Y255101D01*
X336363Y254991D01*
D02*
G37*
G36*
X209363D02*
X211069Y253129D01*
X210959Y250605D01*
X209097Y248899D01*
X206574Y249009D01*
X204868Y250871D01*
X204978Y253395D01*
X206840Y255101D01*
X209363Y254991D01*
D02*
G37*
G36*
X199363D02*
X201069Y253129D01*
X200959Y250605D01*
X199097Y248899D01*
X196574Y249009D01*
X194868Y250871D01*
X194978Y253395D01*
X196840Y255101D01*
X199363Y254991D01*
D02*
G37*
G36*
X74863D02*
X76569Y253129D01*
X76459Y250605D01*
X74597Y248899D01*
X72074Y249009D01*
X70367Y250871D01*
X70478Y253395D01*
X72340Y255101D01*
X74863Y254991D01*
D02*
G37*
G36*
X64863D02*
X66570Y253129D01*
X66459Y250605D01*
X64597Y248899D01*
X62074Y249009D01*
X60368Y250871D01*
X60478Y253395D01*
X62340Y255101D01*
X64863Y254991D01*
D02*
G37*
G36*
X380363Y182991D02*
X382069Y181129D01*
X381959Y178605D01*
X380097Y176899D01*
X377574Y177009D01*
X375868Y178871D01*
X375978Y181395D01*
X377840Y183101D01*
X380363Y182991D01*
D02*
G37*
G36*
X304363D02*
X306069Y181129D01*
X305959Y178605D01*
X304097Y176899D01*
X301574Y177009D01*
X299868Y178871D01*
X299978Y181395D01*
X301840Y183101D01*
X304363Y182991D01*
D02*
G37*
G36*
X243363D02*
X245070Y181129D01*
X244959Y178605D01*
X243097Y176899D01*
X240574Y177009D01*
X238867Y178871D01*
X238978Y181395D01*
X240840Y183101D01*
X243363Y182991D01*
D02*
G37*
G36*
X167363D02*
X169070Y181129D01*
X168959Y178605D01*
X167097Y176899D01*
X164574Y177009D01*
X162867Y178871D01*
X162978Y181395D01*
X164840Y183101D01*
X167363Y182991D01*
D02*
G37*
G36*
X108863D02*
X110570Y181129D01*
X110459Y178605D01*
X108597Y176899D01*
X106074Y177009D01*
X104367Y178871D01*
X104478Y181395D01*
X106340Y183101D01*
X108863Y182991D01*
D02*
G37*
G36*
X32863D02*
X34569Y181129D01*
X34459Y178605D01*
X32597Y176899D01*
X30074Y177009D01*
X28367Y178871D01*
X28478Y181395D01*
X30340Y183101D01*
X32863Y182991D01*
D02*
G37*
G36*
X341363Y182491D02*
X343070Y180629D01*
X342959Y178105D01*
X341097Y176399D01*
X338574Y176509D01*
X336867Y178371D01*
X336978Y180895D01*
X338840Y182601D01*
X341363Y182491D01*
D02*
G37*
G36*
X204363D02*
X206069Y180629D01*
X205959Y178105D01*
X204097Y176399D01*
X201574Y176509D01*
X199867Y178371D01*
X199978Y180895D01*
X201840Y182601D01*
X204363Y182491D01*
D02*
G37*
G36*
X69863D02*
X71570Y180629D01*
X71459Y178105D01*
X69597Y176399D01*
X67074Y176509D01*
X65368Y178371D01*
X65478Y180895D01*
X67340Y182601D01*
X69863Y182491D01*
D02*
G37*
G36*
X385363Y175491D02*
X387070Y173629D01*
X386959Y171105D01*
X385097Y169399D01*
X382574Y169509D01*
X380868Y171371D01*
X380978Y173895D01*
X382840Y175601D01*
X385363Y175491D01*
D02*
G37*
G36*
X375363D02*
X377069Y173629D01*
X376959Y171105D01*
X375097Y169399D01*
X372574Y169509D01*
X370867Y171371D01*
X370978Y173895D01*
X372840Y175601D01*
X375363Y175491D01*
D02*
G37*
G36*
X309363D02*
X311069Y173629D01*
X310959Y171105D01*
X309097Y169399D01*
X306574Y169509D01*
X304868Y171371D01*
X304978Y173895D01*
X306840Y175601D01*
X309363Y175491D01*
D02*
G37*
G36*
X299363D02*
X301069Y173629D01*
X300959Y171105D01*
X299097Y169399D01*
X296574Y169509D01*
X294867Y171371D01*
X294978Y173895D01*
X296840Y175601D01*
X299363Y175491D01*
D02*
G37*
G36*
X248363D02*
X250069Y173629D01*
X249959Y171105D01*
X248097Y169399D01*
X245574Y169509D01*
X243867Y171371D01*
X243978Y173895D01*
X245840Y175601D01*
X248363Y175491D01*
D02*
G37*
G36*
X238363D02*
X240070Y173629D01*
X239959Y171105D01*
X238097Y169399D01*
X235574Y169509D01*
X233868Y171371D01*
X233978Y173895D01*
X235840Y175601D01*
X238363Y175491D01*
D02*
G37*
G36*
X172363D02*
X174069Y173629D01*
X173959Y171105D01*
X172097Y169399D01*
X169574Y169509D01*
X167868Y171371D01*
X167978Y173895D01*
X169840Y175601D01*
X172363Y175491D01*
D02*
G37*
G36*
X162363D02*
X164069Y173629D01*
X163959Y171105D01*
X162097Y169399D01*
X159574Y169509D01*
X157868Y171371D01*
X157978Y173895D01*
X159840Y175601D01*
X162363Y175491D01*
D02*
G37*
G36*
X113863D02*
X115569Y173629D01*
X115459Y171105D01*
X113597Y169399D01*
X111074Y169509D01*
X109368Y171371D01*
X109478Y173895D01*
X111340Y175601D01*
X113863Y175491D01*
D02*
G37*
G36*
X103863D02*
X105570Y173629D01*
X105459Y171105D01*
X103597Y169399D01*
X101074Y169509D01*
X99367Y171371D01*
X99478Y173895D01*
X101340Y175601D01*
X103863Y175491D01*
D02*
G37*
G36*
X37863D02*
X39570Y173629D01*
X39459Y171105D01*
X37597Y169399D01*
X35074Y169509D01*
X33367Y171371D01*
X33478Y173895D01*
X35340Y175601D01*
X37863Y175491D01*
D02*
G37*
G36*
X27863D02*
X29570Y173629D01*
X29459Y171105D01*
X27597Y169399D01*
X25074Y169509D01*
X23368Y171371D01*
X23478Y173895D01*
X25340Y175601D01*
X27863Y175491D01*
D02*
G37*
G36*
X346363Y174991D02*
X348070Y173129D01*
X347959Y170605D01*
X346097Y168899D01*
X343574Y169009D01*
X341867Y170871D01*
X341978Y173395D01*
X343840Y175101D01*
X346363Y174991D01*
D02*
G37*
G36*
X336363D02*
X338070Y173129D01*
X337959Y170605D01*
X336097Y168899D01*
X333574Y169009D01*
X331868Y170871D01*
X331978Y173395D01*
X333840Y175101D01*
X336363Y174991D01*
D02*
G37*
G36*
X209363D02*
X211069Y173129D01*
X210959Y170605D01*
X209097Y168899D01*
X206574Y169009D01*
X204868Y170871D01*
X204978Y173395D01*
X206840Y175101D01*
X209363Y174991D01*
D02*
G37*
G36*
X199363D02*
X201069Y173129D01*
X200959Y170605D01*
X199097Y168899D01*
X196574Y169009D01*
X194868Y170871D01*
X194978Y173395D01*
X196840Y175101D01*
X199363Y174991D01*
D02*
G37*
G36*
X74863D02*
X76569Y173129D01*
X76459Y170605D01*
X74597Y168899D01*
X72074Y169009D01*
X70367Y170871D01*
X70478Y173395D01*
X72340Y175101D01*
X74863Y174991D01*
D02*
G37*
G36*
X64863D02*
X66570Y173129D01*
X66459Y170605D01*
X64597Y168899D01*
X62074Y169009D01*
X60368Y170871D01*
X60478Y173395D01*
X62340Y175101D01*
X64863Y174991D01*
D02*
G37*
G36*
X379863Y102991D02*
X381570Y101129D01*
X381459Y98605D01*
X379597Y96899D01*
X377074Y97009D01*
X375367Y98871D01*
X375478Y101395D01*
X377340Y103101D01*
X379863Y102991D01*
D02*
G37*
G36*
X303863D02*
X305570Y101129D01*
X305459Y98605D01*
X303597Y96899D01*
X301074Y97009D01*
X299367Y98871D01*
X299478Y101395D01*
X301340Y103101D01*
X303863Y102991D01*
D02*
G37*
G36*
X242863D02*
X244569Y101129D01*
X244459Y98605D01*
X242597Y96899D01*
X240074Y97009D01*
X238368Y98871D01*
X238478Y101395D01*
X240340Y103101D01*
X242863Y102991D01*
D02*
G37*
G36*
X166863D02*
X168570Y101129D01*
X168459Y98605D01*
X166597Y96899D01*
X164074Y97009D01*
X162367Y98871D01*
X162478Y101395D01*
X164340Y103101D01*
X166863Y102991D01*
D02*
G37*
G36*
X108363D02*
X110070Y101129D01*
X109959Y98605D01*
X108097Y96899D01*
X105574Y97009D01*
X103867Y98871D01*
X103978Y101395D01*
X105840Y103101D01*
X108363Y102991D01*
D02*
G37*
G36*
X32363D02*
X34069Y101129D01*
X33959Y98605D01*
X32097Y96899D01*
X29574Y97009D01*
X27867Y98871D01*
X27978Y101395D01*
X29840Y103101D01*
X32363Y102991D01*
D02*
G37*
G36*
X340863Y102491D02*
X342569Y100629D01*
X342459Y98105D01*
X340597Y96399D01*
X338074Y96509D01*
X336368Y98371D01*
X336478Y100895D01*
X338340Y102601D01*
X340863Y102491D01*
D02*
G37*
G36*
X203863D02*
X205570Y100629D01*
X205459Y98105D01*
X203597Y96399D01*
X201074Y96509D01*
X199367Y98371D01*
X199478Y100895D01*
X201340Y102601D01*
X203863Y102491D01*
D02*
G37*
G36*
X69363D02*
X71070Y100629D01*
X70959Y98105D01*
X69097Y96399D01*
X66574Y96509D01*
X64868Y98371D01*
X64978Y100895D01*
X66840Y102601D01*
X69363Y102491D01*
D02*
G37*
G36*
X384863Y95491D02*
X386569Y93629D01*
X386459Y91105D01*
X384597Y89399D01*
X382074Y89509D01*
X380367Y91371D01*
X380478Y93895D01*
X382340Y95601D01*
X384863Y95491D01*
D02*
G37*
G36*
X374863D02*
X376570Y93629D01*
X376459Y91105D01*
X374597Y89399D01*
X372074Y89509D01*
X370368Y91371D01*
X370478Y93895D01*
X372340Y95601D01*
X374863Y95491D01*
D02*
G37*
G36*
X308863D02*
X310570Y93629D01*
X310459Y91105D01*
X308597Y89399D01*
X306074Y89509D01*
X304367Y91371D01*
X304478Y93895D01*
X306340Y95601D01*
X308863Y95491D01*
D02*
G37*
G36*
X298863D02*
X300570Y93629D01*
X300459Y91105D01*
X298597Y89399D01*
X296074Y89509D01*
X294368Y91371D01*
X294478Y93895D01*
X296340Y95601D01*
X298863Y95491D01*
D02*
G37*
G36*
X247863D02*
X249570Y93629D01*
X249459Y91105D01*
X247597Y89399D01*
X245074Y89509D01*
X243368Y91371D01*
X243478Y93895D01*
X245340Y95601D01*
X247863Y95491D01*
D02*
G37*
G36*
X237863D02*
X239569Y93629D01*
X239459Y91105D01*
X237597Y89399D01*
X235074Y89509D01*
X233367Y91371D01*
X233478Y93895D01*
X235340Y95601D01*
X237863Y95491D01*
D02*
G37*
G36*
X171863D02*
X173570Y93629D01*
X173459Y91105D01*
X171597Y89399D01*
X169074Y89509D01*
X167367Y91371D01*
X167478Y93895D01*
X169340Y95601D01*
X171863Y95491D01*
D02*
G37*
G36*
X161863D02*
X163569Y93629D01*
X163459Y91105D01*
X161597Y89399D01*
X159074Y89509D01*
X157368Y91371D01*
X157478Y93895D01*
X159340Y95601D01*
X161863Y95491D01*
D02*
G37*
G36*
X113363D02*
X115069Y93629D01*
X114959Y91105D01*
X113097Y89399D01*
X110574Y89509D01*
X108868Y91371D01*
X108978Y93895D01*
X110840Y95601D01*
X113363Y95491D01*
D02*
G37*
G36*
X103363D02*
X105069Y93629D01*
X104959Y91105D01*
X103097Y89399D01*
X100574Y89509D01*
X98867Y91371D01*
X98978Y93895D01*
X100840Y95601D01*
X103363Y95491D01*
D02*
G37*
G36*
X37363D02*
X39070Y93629D01*
X38959Y91105D01*
X37097Y89399D01*
X34574Y89509D01*
X32868Y91371D01*
X32978Y93895D01*
X34840Y95601D01*
X37363Y95491D01*
D02*
G37*
G36*
X27363D02*
X29070Y93629D01*
X28959Y91105D01*
X27097Y89399D01*
X24574Y89509D01*
X22867Y91371D01*
X22978Y93895D01*
X24840Y95601D01*
X27363Y95491D01*
D02*
G37*
G36*
X345863Y94991D02*
X347569Y93129D01*
X347459Y90605D01*
X345597Y88899D01*
X343074Y89009D01*
X341368Y90871D01*
X341478Y93395D01*
X343340Y95101D01*
X345863Y94991D01*
D02*
G37*
G36*
X335863D02*
X337569Y93129D01*
X337459Y90605D01*
X335597Y88899D01*
X333074Y89009D01*
X331367Y90871D01*
X331478Y93395D01*
X333340Y95101D01*
X335863Y94991D01*
D02*
G37*
G36*
X208863D02*
X210570Y93129D01*
X210459Y90605D01*
X208597Y88899D01*
X206074Y89009D01*
X204367Y90871D01*
X204478Y93395D01*
X206340Y95101D01*
X208863Y94991D01*
D02*
G37*
G36*
X198863D02*
X200570Y93129D01*
X200459Y90605D01*
X198597Y88899D01*
X196074Y89009D01*
X194368Y90871D01*
X194478Y93395D01*
X196340Y95101D01*
X198863Y94991D01*
D02*
G37*
G36*
X74363D02*
X76069Y93129D01*
X75959Y90605D01*
X74097Y88899D01*
X71574Y89009D01*
X69867Y90871D01*
X69978Y93395D01*
X71840Y95101D01*
X74363Y94991D01*
D02*
G37*
G36*
X64363D02*
X66070Y93129D01*
X65959Y90605D01*
X64097Y88899D01*
X61574Y89009D01*
X59868Y90871D01*
X59978Y93395D01*
X61840Y95101D01*
X64363Y94991D01*
D02*
G37*
G36*
X379863Y23991D02*
X381570Y22129D01*
X381459Y19605D01*
X379597Y17899D01*
X377074Y18009D01*
X375367Y19871D01*
X375478Y22395D01*
X377340Y24101D01*
X379863Y23991D01*
D02*
G37*
G36*
X303863D02*
X305570Y22129D01*
X305459Y19605D01*
X303597Y17899D01*
X301074Y18009D01*
X299367Y19871D01*
X299478Y22395D01*
X301340Y24101D01*
X303863Y23991D01*
D02*
G37*
G36*
X242863D02*
X244569Y22129D01*
X244459Y19605D01*
X242597Y17899D01*
X240074Y18009D01*
X238368Y19871D01*
X238478Y22395D01*
X240340Y24101D01*
X242863Y23991D01*
D02*
G37*
G36*
X166863D02*
X168570Y22129D01*
X168459Y19605D01*
X166597Y17899D01*
X164074Y18009D01*
X162367Y19871D01*
X162478Y22395D01*
X164340Y24101D01*
X166863Y23991D01*
D02*
G37*
G36*
X108363D02*
X110070Y22129D01*
X109959Y19605D01*
X108097Y17899D01*
X105574Y18009D01*
X103867Y19871D01*
X103978Y22395D01*
X105840Y24101D01*
X108363Y23991D01*
D02*
G37*
G36*
X32363D02*
X34069Y22129D01*
X33959Y19605D01*
X32097Y17899D01*
X29574Y18009D01*
X27867Y19871D01*
X27978Y22395D01*
X29840Y24101D01*
X32363Y23991D01*
D02*
G37*
G36*
X340863Y23491D02*
X342569Y21629D01*
X342459Y19105D01*
X340597Y17399D01*
X338074Y17509D01*
X336368Y19371D01*
X336478Y21895D01*
X338340Y23601D01*
X340863Y23491D01*
D02*
G37*
G36*
X203863D02*
X205570Y21629D01*
X205459Y19105D01*
X203597Y17399D01*
X201074Y17509D01*
X199367Y19371D01*
X199478Y21895D01*
X201340Y23601D01*
X203863Y23491D01*
D02*
G37*
G36*
X69363D02*
X71070Y21629D01*
X70959Y19105D01*
X69097Y17399D01*
X66574Y17509D01*
X64868Y19371D01*
X64978Y21895D01*
X66840Y23601D01*
X69363Y23491D01*
D02*
G37*
G36*
X384863Y16491D02*
X386569Y14629D01*
X386459Y12105D01*
X384597Y10399D01*
X382074Y10509D01*
X380367Y12371D01*
X380478Y14895D01*
X382340Y16601D01*
X384863Y16491D01*
D02*
G37*
G36*
X374863D02*
X376570Y14629D01*
X376459Y12105D01*
X374597Y10399D01*
X372074Y10509D01*
X370368Y12371D01*
X370478Y14895D01*
X372340Y16601D01*
X374863Y16491D01*
D02*
G37*
G36*
X308863D02*
X310570Y14629D01*
X310459Y12105D01*
X308597Y10399D01*
X306074Y10509D01*
X304367Y12371D01*
X304478Y14895D01*
X306340Y16601D01*
X308863Y16491D01*
D02*
G37*
G36*
X298863D02*
X300570Y14629D01*
X300459Y12105D01*
X298597Y10399D01*
X296074Y10509D01*
X294368Y12371D01*
X294478Y14895D01*
X296340Y16601D01*
X298863Y16491D01*
D02*
G37*
G36*
X247863D02*
X249570Y14629D01*
X249459Y12105D01*
X247597Y10399D01*
X245074Y10509D01*
X243368Y12371D01*
X243478Y14895D01*
X245340Y16601D01*
X247863Y16491D01*
D02*
G37*
G36*
X237863D02*
X239569Y14629D01*
X239459Y12105D01*
X237597Y10399D01*
X235074Y10509D01*
X233367Y12371D01*
X233478Y14895D01*
X235340Y16601D01*
X237863Y16491D01*
D02*
G37*
G36*
X171863D02*
X173570Y14629D01*
X173459Y12105D01*
X171597Y10399D01*
X169074Y10509D01*
X167367Y12371D01*
X167478Y14895D01*
X169340Y16601D01*
X171863Y16491D01*
D02*
G37*
G36*
X161863D02*
X163569Y14629D01*
X163459Y12105D01*
X161597Y10399D01*
X159074Y10509D01*
X157368Y12371D01*
X157478Y14895D01*
X159340Y16601D01*
X161863Y16491D01*
D02*
G37*
G36*
X113363D02*
X115069Y14629D01*
X114959Y12105D01*
X113097Y10399D01*
X110574Y10509D01*
X108868Y12371D01*
X108978Y14895D01*
X110840Y16601D01*
X113363Y16491D01*
D02*
G37*
G36*
X103363D02*
X105069Y14629D01*
X104959Y12105D01*
X103097Y10399D01*
X100574Y10509D01*
X98867Y12371D01*
X98978Y14895D01*
X100840Y16601D01*
X103363Y16491D01*
D02*
G37*
G36*
X37363D02*
X39070Y14629D01*
X38959Y12105D01*
X37097Y10399D01*
X34574Y10509D01*
X32868Y12371D01*
X32978Y14895D01*
X34840Y16601D01*
X37363Y16491D01*
D02*
G37*
G36*
X27363D02*
X29070Y14629D01*
X28959Y12105D01*
X27097Y10399D01*
X24574Y10509D01*
X22867Y12371D01*
X22978Y14895D01*
X24840Y16601D01*
X27363Y16491D01*
D02*
G37*
G36*
X345863Y15991D02*
X347569Y14129D01*
X347459Y11605D01*
X345597Y9899D01*
X343074Y10009D01*
X341368Y11871D01*
X341478Y14395D01*
X343340Y16101D01*
X345863Y15991D01*
D02*
G37*
G36*
X335863D02*
X337569Y14129D01*
X337459Y11605D01*
X335597Y9899D01*
X333074Y10009D01*
X331367Y11871D01*
X331478Y14395D01*
X333340Y16101D01*
X335863Y15991D01*
D02*
G37*
G36*
X208863D02*
X210570Y14129D01*
X210459Y11605D01*
X208597Y9899D01*
X206074Y10009D01*
X204367Y11871D01*
X204478Y14395D01*
X206340Y16101D01*
X208863Y15991D01*
D02*
G37*
G36*
X198863D02*
X200570Y14129D01*
X200459Y11605D01*
X198597Y9899D01*
X196074Y10009D01*
X194368Y11871D01*
X194478Y14395D01*
X196340Y16101D01*
X198863Y15991D01*
D02*
G37*
G36*
X74363D02*
X76069Y14129D01*
X75959Y11605D01*
X74097Y9899D01*
X71574Y10009D01*
X69867Y11871D01*
X69978Y14395D01*
X71840Y16101D01*
X74363Y15991D01*
D02*
G37*
G36*
X64363D02*
X66070Y14129D01*
X65959Y11605D01*
X64097Y9899D01*
X61574Y10009D01*
X59868Y11871D01*
X59978Y14395D01*
X61840Y16101D01*
X64363Y15991D01*
D02*
G37*
D10*
X11969Y29500D02*
Y39000D01*
X14968Y42000D01*
X107811D01*
X115311Y34500D01*
X11969Y29342D02*
Y29500D01*
X32126Y29342D02*
X39968Y21500D01*
Y17500D02*
Y21500D01*
X35969Y13500D02*
X39968Y17500D01*
X48968Y22000D02*
X53469Y26500D01*
X71969D01*
X77469Y21000D01*
Y17500D02*
Y21000D01*
X72969Y13000D02*
X77469Y17500D01*
X86968Y23000D02*
X90969Y27000D01*
X112469D01*
X115969Y23500D01*
Y17500D02*
Y23500D01*
X111969Y13500D02*
X115969Y17500D01*
X283469Y29342D02*
X303626D01*
X383469Y13500D02*
X387469Y17500D01*
Y23500D01*
X383968Y27000D02*
X387469Y23500D01*
X362469Y27000D02*
X383968D01*
X358469Y23000D02*
X362469Y27000D01*
X344468Y13000D02*
X348969Y17500D01*
Y21000D01*
X343468Y26500D02*
X348969Y21000D01*
X324969Y26500D02*
X343468D01*
X320468Y22000D02*
X324969Y26500D01*
X307469Y13500D02*
X311469Y17500D01*
Y21500D01*
X303626Y29342D02*
X311469Y21500D01*
X283469Y29342D02*
Y29500D01*
X379311Y42000D02*
X386811Y34500D01*
X286469Y42000D02*
X379311D01*
X283469Y39000D02*
X286469Y42000D01*
X283469Y29500D02*
Y39000D01*
X146468Y29342D02*
X166626D01*
X246468Y13500D02*
X250468Y17500D01*
Y23500D01*
X246969Y27000D02*
X250468Y23500D01*
X225468Y27000D02*
X246969D01*
X221468Y23000D02*
X225468Y27000D01*
X207469Y13000D02*
X211968Y17500D01*
Y21000D01*
X206469Y26500D02*
X211968Y21000D01*
X187969Y26500D02*
X206469D01*
X183468Y22000D02*
X187969Y26500D01*
X170468Y13500D02*
X174469Y17500D01*
Y21500D01*
X166626Y29342D02*
X174469Y21500D01*
X146468Y29342D02*
Y29500D01*
X242311Y42000D02*
X249811Y34500D01*
X149469Y42000D02*
X242311D01*
X146468Y39000D02*
X149469Y42000D01*
X146468Y29500D02*
Y39000D01*
X146968Y351000D02*
Y360500D01*
X149969Y363500D01*
X242811D01*
X250311Y356000D01*
X146968Y350842D02*
Y351000D01*
X167126Y350842D02*
X174969Y343000D01*
Y339000D02*
Y343000D01*
X170968Y335000D02*
X174969Y339000D01*
X183968Y343500D02*
X188469Y348000D01*
X206968D01*
X212469Y342500D01*
Y339000D02*
Y342500D01*
X207968Y334500D02*
X212469Y339000D01*
X221969Y344500D02*
X225969Y348500D01*
X247468D01*
X250969Y345000D01*
Y339000D02*
Y345000D01*
X246969Y335000D02*
X250969Y339000D01*
X146968Y350842D02*
X167126D01*
X283968Y351000D02*
Y360500D01*
X286968Y363500D01*
X379811D01*
X387311Y356000D01*
X283968Y350842D02*
Y351000D01*
X304126Y350842D02*
X311968Y343000D01*
Y339000D02*
Y343000D01*
X307968Y335000D02*
X311968Y339000D01*
X320969Y343500D02*
X325468Y348000D01*
X343969D01*
X349468Y342500D01*
Y339000D02*
Y342500D01*
X344969Y334500D02*
X349468Y339000D01*
X358968Y344500D02*
X362968Y348500D01*
X384469D01*
X387968Y345000D01*
Y339000D02*
Y345000D01*
X383968Y335000D02*
X387968Y339000D01*
X283968Y350842D02*
X304126D01*
X12468D02*
X32626D01*
X112469Y335000D02*
X116469Y339000D01*
Y345000D01*
X112969Y348500D02*
X116469Y345000D01*
X91469Y348500D02*
X112969D01*
X87468Y344500D02*
X91469Y348500D01*
X73469Y334500D02*
X77969Y339000D01*
Y342500D01*
X72469Y348000D02*
X77969Y342500D01*
X53969Y348000D02*
X72469D01*
X49468Y343500D02*
X53969Y348000D01*
X36468Y335000D02*
X40468Y339000D01*
Y343000D01*
X32626Y350842D02*
X40468Y343000D01*
X12468Y350842D02*
Y351000D01*
X108311Y363500D02*
X115811Y356000D01*
X15469Y363500D02*
X108311D01*
X12468Y360500D02*
X15469Y363500D01*
X12468Y351000D02*
Y360500D01*
X146968Y268500D02*
Y278000D01*
X149969Y281000D01*
X242811D01*
X250311Y273500D01*
X146968Y268342D02*
Y268500D01*
X167126Y268342D02*
X174969Y260500D01*
Y256500D02*
Y260500D01*
X170968Y252500D02*
X174969Y256500D01*
X183968Y261000D02*
X188469Y265500D01*
X206968D01*
X212469Y260000D01*
Y256500D02*
Y260000D01*
X207968Y252000D02*
X212469Y256500D01*
X221969Y262000D02*
X225969Y266000D01*
X247468D01*
X250969Y262500D01*
Y256500D02*
Y262500D01*
X246969Y252500D02*
X250969Y256500D01*
X146968Y268342D02*
X167126D01*
X283968Y268500D02*
Y278000D01*
X286968Y281000D01*
X379811D01*
X387311Y273500D01*
X283968Y268342D02*
Y268500D01*
X304126Y268342D02*
X311968Y260500D01*
Y256500D02*
Y260500D01*
X307968Y252500D02*
X311968Y256500D01*
X320969Y261000D02*
X325468Y265500D01*
X343969D01*
X349468Y260000D01*
Y256500D02*
Y260000D01*
X344969Y252000D02*
X349468Y256500D01*
X358968Y262000D02*
X362968Y266000D01*
X384469D01*
X387968Y262500D01*
Y256500D02*
Y262500D01*
X383968Y252500D02*
X387968Y256500D01*
X283968Y268342D02*
X304126D01*
X12468D02*
X32626D01*
X112469Y252500D02*
X116469Y256500D01*
Y262500D01*
X112969Y266000D02*
X116469Y262500D01*
X91469Y266000D02*
X112969D01*
X87468Y262000D02*
X91469Y266000D01*
X73469Y252000D02*
X77969Y256500D01*
Y260000D01*
X72469Y265500D02*
X77969Y260000D01*
X53969Y265500D02*
X72469D01*
X49468Y261000D02*
X53969Y265500D01*
X36468Y252500D02*
X40468Y256500D01*
Y260500D01*
X32626Y268342D02*
X40468Y260500D01*
X12468Y268342D02*
Y268500D01*
X108311Y281000D02*
X115811Y273500D01*
X15469Y281000D02*
X108311D01*
X12468Y278000D02*
X15469Y281000D01*
X12468Y268500D02*
Y278000D01*
X146468Y108500D02*
Y118000D01*
X149469Y121000D01*
X242311D01*
X249811Y113500D01*
X146468Y108343D02*
Y108500D01*
X166626Y108343D02*
X174469Y100500D01*
Y96500D02*
Y100500D01*
X170468Y92500D02*
X174469Y96500D01*
X183468Y101000D02*
X187969Y105500D01*
X206469D01*
X211968Y100000D01*
Y96500D02*
Y100000D01*
X207469Y92000D02*
X211968Y96500D01*
X221468Y102000D02*
X225468Y106000D01*
X246969D01*
X250468Y102500D01*
Y96500D02*
Y102500D01*
X246468Y92500D02*
X250468Y96500D01*
X146468Y108343D02*
X166626D01*
X283469Y108500D02*
Y118000D01*
X286469Y121000D01*
X379311D01*
X386811Y113500D01*
X283469Y108343D02*
Y108500D01*
X303626Y108343D02*
X311469Y100500D01*
Y96500D02*
Y100500D01*
X307469Y92500D02*
X311469Y96500D01*
X320468Y101000D02*
X324969Y105500D01*
X343468D01*
X348969Y100000D01*
Y96500D02*
Y100000D01*
X344468Y92000D02*
X348969Y96500D01*
X358469Y102000D02*
X362469Y106000D01*
X383968D01*
X387469Y102500D01*
Y96500D02*
Y102500D01*
X383469Y92500D02*
X387469Y96500D01*
X283469Y108343D02*
X303626D01*
X11969D02*
X32126D01*
X111969Y92500D02*
X115969Y96500D01*
Y102500D01*
X112469Y106000D02*
X115969Y102500D01*
X90969Y106000D02*
X112469D01*
X86968Y102000D02*
X90969Y106000D01*
X72969Y92000D02*
X77469Y96500D01*
Y100000D01*
X71969Y105500D02*
X77469Y100000D01*
X53469Y105500D02*
X71969D01*
X48968Y101000D02*
X53469Y105500D01*
X35969Y92500D02*
X39968Y96500D01*
Y100500D01*
X32126Y108343D02*
X39968Y100500D01*
X11969Y108343D02*
Y108500D01*
X107811Y121000D02*
X115311Y113500D01*
X14968Y121000D02*
X107811D01*
X11969Y118000D02*
X14968Y121000D01*
X11969Y108500D02*
Y118000D01*
X146968Y188500D02*
Y198000D01*
X149969Y201000D01*
X242811D01*
X250311Y193500D01*
X146968Y188342D02*
Y188500D01*
X167126Y188342D02*
X174969Y180500D01*
Y176500D02*
Y180500D01*
X170968Y172500D02*
X174969Y176500D01*
X183968Y181000D02*
X188469Y185500D01*
X206968D01*
X212469Y180000D01*
Y176500D02*
Y180000D01*
X207968Y172000D02*
X212469Y176500D01*
X221969Y182000D02*
X225969Y186000D01*
X247468D01*
X250969Y182500D01*
Y176500D02*
Y182500D01*
X246969Y172500D02*
X250969Y176500D01*
X146968Y188342D02*
X167126D01*
X283968Y188500D02*
Y198000D01*
X286968Y201000D01*
X379811D01*
X387311Y193500D01*
X283968Y188342D02*
Y188500D01*
X304126Y188342D02*
X311968Y180500D01*
Y176500D02*
Y180500D01*
X307968Y172500D02*
X311968Y176500D01*
X320969Y181000D02*
X325468Y185500D01*
X343969D01*
X349468Y180000D01*
Y176500D02*
Y180000D01*
X344969Y172000D02*
X349468Y176500D01*
X358968Y182000D02*
X362968Y186000D01*
X384469D01*
X387968Y182500D01*
Y176500D02*
Y182500D01*
X383968Y172500D02*
X387968Y176500D01*
X283968Y188342D02*
X304126D01*
X12468D02*
X32626D01*
X112469Y172500D02*
X116469Y176500D01*
Y182500D01*
X112969Y186000D02*
X116469Y182500D01*
X91469Y186000D02*
X112969D01*
X87468Y182000D02*
X91469Y186000D01*
X73469Y172000D02*
X77969Y176500D01*
Y180000D01*
X72469Y185500D02*
X77969Y180000D01*
X53969Y185500D02*
X72469D01*
X49468Y181000D02*
X53969Y185500D01*
X36468Y172500D02*
X40468Y176500D01*
Y180500D01*
X32626Y188342D02*
X40468Y180500D01*
X12468Y188342D02*
Y188500D01*
X108311Y201000D02*
X115811Y193500D01*
X15469Y201000D02*
X108311D01*
X12468Y198000D02*
X15469Y201000D01*
X12468Y188500D02*
Y198000D01*
X11969Y29342D02*
X32126D01*
D11*
X265000Y197500D02*
D03*
X130500Y198000D02*
D03*
D12*
X25969Y13500D02*
D03*
X30968Y21000D02*
D03*
X35969Y13500D02*
D03*
X62968Y13000D02*
D03*
X67968Y20500D02*
D03*
X72969Y13000D02*
D03*
X101969Y13500D02*
D03*
X106968Y21000D02*
D03*
X111969Y13500D02*
D03*
X373468D02*
D03*
X378468Y21000D02*
D03*
X383469Y13500D02*
D03*
X334469Y13000D02*
D03*
X339469Y20500D02*
D03*
X344468Y13000D02*
D03*
X297468Y13500D02*
D03*
X302468Y21000D02*
D03*
X307469Y13500D02*
D03*
X236469D02*
D03*
X241469Y21000D02*
D03*
X246468Y13500D02*
D03*
X197468Y13000D02*
D03*
X202468Y20500D02*
D03*
X207469Y13000D02*
D03*
X160468Y13500D02*
D03*
X165469Y21000D02*
D03*
X170468Y13500D02*
D03*
X160968Y335000D02*
D03*
X165969Y342500D02*
D03*
X170968Y335000D02*
D03*
X197968Y334500D02*
D03*
X202969Y342000D02*
D03*
X207968Y334500D02*
D03*
X236968Y335000D02*
D03*
X241968Y342500D02*
D03*
X246969Y335000D02*
D03*
X297969D02*
D03*
X302969Y342500D02*
D03*
X307968Y335000D02*
D03*
X334968Y334500D02*
D03*
X339968Y342000D02*
D03*
X344969Y334500D02*
D03*
X373969Y335000D02*
D03*
X378969Y342500D02*
D03*
X383968Y335000D02*
D03*
X102469D02*
D03*
X107468Y342500D02*
D03*
X112469Y335000D02*
D03*
X63468Y334500D02*
D03*
X73469D02*
D03*
X26469Y335000D02*
D03*
X31468Y342500D02*
D03*
X36468Y335000D02*
D03*
X160968Y252500D02*
D03*
X165969Y260000D02*
D03*
X170968Y252500D02*
D03*
X197968Y252000D02*
D03*
X202969Y259500D02*
D03*
X207968Y252000D02*
D03*
X236968Y252500D02*
D03*
X241968Y260000D02*
D03*
X246969Y252500D02*
D03*
X297969D02*
D03*
X302969Y260000D02*
D03*
X307968Y252500D02*
D03*
X334968Y252000D02*
D03*
X339968Y259500D02*
D03*
X344969Y252000D02*
D03*
X373969Y252500D02*
D03*
X378969Y260000D02*
D03*
X383968Y252500D02*
D03*
X102469D02*
D03*
X107468Y260000D02*
D03*
X112469Y252500D02*
D03*
X63468Y252000D02*
D03*
X68468Y259500D02*
D03*
X73469Y252000D02*
D03*
X26469Y252500D02*
D03*
X31468Y260000D02*
D03*
X36468Y252500D02*
D03*
X160468Y92500D02*
D03*
X165469Y100000D02*
D03*
X170468Y92500D02*
D03*
X197468Y92000D02*
D03*
X202468Y99500D02*
D03*
X207469Y92000D02*
D03*
X236469Y92500D02*
D03*
X241469Y100000D02*
D03*
X246468Y92500D02*
D03*
X297468D02*
D03*
X302468Y100000D02*
D03*
X307469Y92500D02*
D03*
X339469Y99500D02*
D03*
X344468Y92000D02*
D03*
X373468Y92500D02*
D03*
X378468Y100000D02*
D03*
X383469Y92500D02*
D03*
X101969D02*
D03*
X106968Y100000D02*
D03*
X111969Y92500D02*
D03*
X62968Y92000D02*
D03*
X67968Y99500D02*
D03*
X72969Y92000D02*
D03*
X25969Y92500D02*
D03*
X30968Y100000D02*
D03*
X35969Y92500D02*
D03*
X160968Y172500D02*
D03*
X165969Y180000D02*
D03*
X170968Y172500D02*
D03*
X197968Y172000D02*
D03*
X202969Y179500D02*
D03*
X207968Y172000D02*
D03*
X236968Y172500D02*
D03*
X241968Y180000D02*
D03*
X246969Y172500D02*
D03*
X297969D02*
D03*
X302969Y180000D02*
D03*
X307968Y172500D02*
D03*
X334968Y172000D02*
D03*
X339968Y179500D02*
D03*
X344969Y172000D02*
D03*
X373969Y172500D02*
D03*
X378969Y180000D02*
D03*
X383968Y172500D02*
D03*
X102469D02*
D03*
X107468Y180000D02*
D03*
X112469Y172500D02*
D03*
X63468Y172000D02*
D03*
X68468Y179500D02*
D03*
X73469Y172000D02*
D03*
X26469Y172500D02*
D03*
X31468Y180000D02*
D03*
X36468Y172500D02*
D03*
D13*
X39154Y34500D02*
D03*
X78311Y34000D02*
D03*
X115311Y34500D02*
D03*
X386811D02*
D03*
X349811Y34000D02*
D03*
X310653Y34500D02*
D03*
X249811Y34500D02*
D03*
X212811Y34000D02*
D03*
X173653Y34500D02*
D03*
X174153Y356000D02*
D03*
X213311Y355500D02*
D03*
X250311Y356000D02*
D03*
X311154Y356000D02*
D03*
X350311Y355500D02*
D03*
X387311Y356000D02*
D03*
X115811D02*
D03*
X78811Y355500D02*
D03*
X39654Y356000D02*
D03*
X174153Y273500D02*
D03*
X213311Y273000D02*
D03*
X250311Y273500D02*
D03*
X311154Y273500D02*
D03*
X350311Y273000D02*
D03*
X387311Y273500D02*
D03*
X115811D02*
D03*
X78811Y273000D02*
D03*
X39654Y273500D02*
D03*
X173653Y113500D02*
D03*
X212811Y113000D02*
D03*
X249811Y113500D02*
D03*
X310653Y113500D02*
D03*
X349811Y113000D02*
D03*
X386811Y113500D02*
D03*
X115311D02*
D03*
X78311Y113000D02*
D03*
X39154Y113500D02*
D03*
X174153Y193500D02*
D03*
X213311Y193000D02*
D03*
X250311Y193500D02*
D03*
X311154Y193500D02*
D03*
X350311Y193000D02*
D03*
X387311Y193500D02*
D03*
X115811D02*
D03*
X78811Y193000D02*
D03*
X39654Y193500D02*
D03*
D14*
X19468Y34500D02*
D03*
X58626Y34000D02*
D03*
X95626Y34500D02*
D03*
X367126D02*
D03*
X330126Y34000D02*
D03*
X290968Y34500D02*
D03*
X230126Y34500D02*
D03*
X193126Y34000D02*
D03*
X153969Y34500D02*
D03*
X154469Y356000D02*
D03*
X193626Y355500D02*
D03*
X230626Y356000D02*
D03*
X291469Y356000D02*
D03*
X330626Y355500D02*
D03*
X367626Y356000D02*
D03*
X96126D02*
D03*
X59126Y355500D02*
D03*
X19969Y356000D02*
D03*
X154469Y273500D02*
D03*
X193626Y273000D02*
D03*
X230626Y273500D02*
D03*
X291469Y273500D02*
D03*
X330626Y273000D02*
D03*
X367626Y273500D02*
D03*
X96126D02*
D03*
X59126Y273000D02*
D03*
X19969Y273500D02*
D03*
X153969Y113500D02*
D03*
X193126Y113000D02*
D03*
X230126Y113500D02*
D03*
X290968Y113500D02*
D03*
X330126Y113000D02*
D03*
X367126Y113500D02*
D03*
X95626D02*
D03*
X58626Y113000D02*
D03*
X19468Y113500D02*
D03*
X154469Y193500D02*
D03*
X193626Y193000D02*
D03*
X230626Y193500D02*
D03*
X291469Y193500D02*
D03*
X330626Y193000D02*
D03*
X367626Y193500D02*
D03*
X96126D02*
D03*
X59126Y193000D02*
D03*
X19969Y193500D02*
D03*
D15*
X10469Y9500D02*
D03*
X281968D02*
D03*
X144968D02*
D03*
X145468Y331000D02*
D03*
X282469D02*
D03*
X10968D02*
D03*
X145468Y248500D02*
D03*
X282469D02*
D03*
X10968D02*
D03*
X144968Y88500D02*
D03*
X281968D02*
D03*
X10469D02*
D03*
X145468Y168500D02*
D03*
X282469D02*
D03*
X10968D02*
D03*
D16*
X10469Y19500D02*
D03*
X281968D02*
D03*
X144968D02*
D03*
X145468Y341000D02*
D03*
X282469D02*
D03*
X10968D02*
D03*
X145468Y258500D02*
D03*
X282469D02*
D03*
X10968D02*
D03*
X144968Y98500D02*
D03*
X281968D02*
D03*
X10469D02*
D03*
X145468Y178500D02*
D03*
X282469D02*
D03*
X10968D02*
D03*
D17*
X11969Y29500D02*
D03*
Y59500D02*
D03*
X48968Y22000D02*
D03*
Y52000D02*
D03*
X86968Y23000D02*
D03*
Y53000D02*
D03*
X358469Y23000D02*
D03*
Y53000D02*
D03*
X320468Y22000D02*
D03*
Y52000D02*
D03*
X283469Y29500D02*
D03*
Y59500D02*
D03*
X221468Y23000D02*
D03*
Y53000D02*
D03*
X183468Y22000D02*
D03*
Y52000D02*
D03*
X146468Y29500D02*
D03*
Y59500D02*
D03*
X146968Y351000D02*
D03*
Y381000D02*
D03*
X183968Y343500D02*
D03*
Y373500D02*
D03*
X221969Y344500D02*
D03*
Y374500D02*
D03*
X283968Y351000D02*
D03*
Y381000D02*
D03*
X320969Y343500D02*
D03*
Y373500D02*
D03*
X358968Y344500D02*
D03*
Y374500D02*
D03*
X87468Y344500D02*
D03*
Y374500D02*
D03*
X49468Y343500D02*
D03*
Y373500D02*
D03*
X12468Y351000D02*
D03*
Y381000D02*
D03*
X146968Y268500D02*
D03*
Y298500D02*
D03*
X183968Y261000D02*
D03*
Y291000D02*
D03*
X221969Y262000D02*
D03*
Y292000D02*
D03*
X283968Y268500D02*
D03*
Y298500D02*
D03*
X320969Y261000D02*
D03*
Y291000D02*
D03*
X358968Y262000D02*
D03*
Y292000D02*
D03*
X87468Y262000D02*
D03*
Y292000D02*
D03*
X49468Y261000D02*
D03*
Y291000D02*
D03*
X12468Y268500D02*
D03*
Y298500D02*
D03*
X146468Y108500D02*
D03*
Y138500D02*
D03*
X183468Y101000D02*
D03*
Y131000D02*
D03*
X221468Y102000D02*
D03*
Y132000D02*
D03*
X283469Y108500D02*
D03*
Y138500D02*
D03*
X320468Y101000D02*
D03*
Y131000D02*
D03*
X358469Y102000D02*
D03*
Y132000D02*
D03*
X86968Y102000D02*
D03*
Y132000D02*
D03*
X48968Y101000D02*
D03*
Y131000D02*
D03*
X11969Y108500D02*
D03*
Y138500D02*
D03*
X146968Y188500D02*
D03*
Y218500D02*
D03*
X183968Y181000D02*
D03*
Y211000D02*
D03*
X221969Y182000D02*
D03*
Y212000D02*
D03*
X283968Y188500D02*
D03*
Y218500D02*
D03*
X320969Y181000D02*
D03*
Y211000D02*
D03*
X358968Y182000D02*
D03*
Y212000D02*
D03*
X87468Y182000D02*
D03*
Y212000D02*
D03*
X49468Y181000D02*
D03*
Y211000D02*
D03*
X12468Y188500D02*
D03*
Y218500D02*
D03*
D18*
X29969Y51500D02*
D03*
X66969D02*
D03*
X105968D02*
D03*
X377468D02*
D03*
X338469D02*
D03*
X301468D02*
D03*
X240469D02*
D03*
X201468D02*
D03*
X164469D02*
D03*
X164969Y373000D02*
D03*
X201969D02*
D03*
X240968D02*
D03*
X301969D02*
D03*
X338968D02*
D03*
X377969D02*
D03*
X106468D02*
D03*
X67469D02*
D03*
X30468D02*
D03*
X164969Y290500D02*
D03*
X201969D02*
D03*
X240968D02*
D03*
X301969D02*
D03*
X338968D02*
D03*
X377969D02*
D03*
X106468D02*
D03*
X67469D02*
D03*
X30468D02*
D03*
X164469Y130500D02*
D03*
X201468D02*
D03*
X240469D02*
D03*
X301468D02*
D03*
X338469D02*
D03*
X377468D02*
D03*
X105968D02*
D03*
X66969D02*
D03*
X29969D02*
D03*
X164969Y210500D02*
D03*
X201969D02*
D03*
X240968D02*
D03*
X301969D02*
D03*
X338968D02*
D03*
X377969D02*
D03*
X106468D02*
D03*
X67469D02*
D03*
X30468D02*
D03*
D19*
X29969Y61500D02*
D03*
X66969D02*
D03*
X105968D02*
D03*
X377468D02*
D03*
X338469D02*
D03*
X301468D02*
D03*
X240469D02*
D03*
X201468D02*
D03*
X164469D02*
D03*
X164969Y383000D02*
D03*
X201969D02*
D03*
X240968D02*
D03*
X301969D02*
D03*
X338968D02*
D03*
X377969D02*
D03*
X106468D02*
D03*
X67469D02*
D03*
X30468D02*
D03*
X164969Y300500D02*
D03*
X201969D02*
D03*
X240968D02*
D03*
X301969D02*
D03*
X338968D02*
D03*
X377969D02*
D03*
X106468D02*
D03*
X67469D02*
D03*
X30468D02*
D03*
X164469Y140500D02*
D03*
X201468D02*
D03*
X240469D02*
D03*
X301468D02*
D03*
X338469D02*
D03*
X377468D02*
D03*
X105968D02*
D03*
X66969D02*
D03*
X29969D02*
D03*
X164969Y220500D02*
D03*
X201969D02*
D03*
X240968D02*
D03*
X301969D02*
D03*
X338968D02*
D03*
X377969D02*
D03*
X106468D02*
D03*
X67469D02*
D03*
X30468D02*
D03*
D20*
X68468Y342000D02*
D03*
D21*
X334469Y92000D02*
D03*
D22*
X64500Y317000D02*
D03*
X197500Y316500D02*
D03*
D23*
X64000Y234500D02*
D03*
X65000Y155000D02*
D03*
X64500Y75500D02*
D03*
X332000D02*
D03*
X332500Y155000D02*
D03*
X332000Y234500D02*
D03*
Y315500D02*
D03*
D24*
X198500Y234500D02*
D03*
X198000Y155000D02*
D03*
Y75000D02*
D03*
M02*
