M48
;Layer_Color=9474304
;FILE_FORMAT=2:5
INCH,LZ
;TYPE=PLATED
T1F00S00C0.02756
T3F00S00C0.03543
%
T01
X03305Y0014
X03405
X0258
X0248
X0214Y0014697
X0186Y0024697
Y0034697
X0149Y0014197
X0139
X0129
X0119
X0109
X0099
X0089
X0079
X00475Y0012197
Y0042197
X00375Y0060197
Y0070197
X00605
Y0060197
X00835
Y0070197
X01065
Y0060197
X0109Y0044197
X0099
X0089
X0079
Y0095
X0089
X0099
X0109
Y0125
X0099
X0089
X0079
X00835Y0141
Y0151
X00605
Y0141
X00375
Y0151
X00145
Y0141
X00475Y0123
Y0093
X00145Y0070197
Y0060197
X0047Y01745
X00785Y01765
X00885
X00985
X01085
X01065Y0151
Y0141
X01295
Y0151
X01525
Y0141
X0149Y0125
X0139
X0129
X0119
Y0095
X0129
X0139
X0149
X01525Y0070197
Y0060197
X0149Y0044197
X0139
X0129
X0119
X01295Y0060197
Y0070197
X01755
Y0060197
X01985
Y0070197
X02215
Y0060197
X0214Y0044697
X0248Y0037
X0258
Y006
X0248
Y0083
X0258
Y0106
X0248
Y0129
X0258
Y0152
X0248
Y0175
X0258
X02135Y0177
X02215Y0151
Y0141
X01985
Y0151
X01755
Y0141
X0186Y01155
Y01055
X0214Y00955
Y01255
X01855Y0187
X01485Y01765
X01385
X01285
X01185
X02835Y01855
X02935
X03305Y0175
X03405
Y0152
X03305
Y0129
X03405
X03565Y01285
Y01385
Y01485
Y01185
Y01085
Y00985
Y00885
Y00785
X03405Y0083
X03305
Y006
X03405
Y0037
X03305
X0306Y0047
X0276
X0274Y00785
Y00885
Y00985
Y01085
Y01185
Y01285
Y01385
Y01485
X0304
Y01385
Y01285
Y01185
Y01085
Y00985
Y00885
Y00785
X03305Y0106
X03405
X03865Y01085
Y00985
Y00885
Y00785
X03885Y0047
X03585
X03865Y01185
Y01285
Y01385
Y01485
X0376Y01855
X0366
X03405Y0198
X03305
Y0221
X03405
X0356Y02135
X0386
X03515Y02515
X03415
X03465Y0259
X0354842Y02725
X0335157Y02725
X0317843Y0272
X03265Y0261
X03075Y02585
X03125Y0251
X03025
X02885Y026
X02755Y02515
X0278685Y02725
X0298158Y0272
X03065Y02895
Y02995
X02885Y029
X03265Y0291
X03455Y02895
Y02995
X0340968Y0339
X0350969
X0345969Y03465
X0306968Y0346
X0311968Y03385
X0301969
X0287968Y03475
X0274969Y0339
X02735Y02135
X03035
X0258Y0221
X0248
Y0198
X0258
X02135Y0207
X0221Y02225
Y02325
X0198
Y02225
X0175
Y02325
X0152
Y02225
X01485Y02065
X01385
X01285
X01185
X0129Y02225
Y02325
X01285Y02555
X01185
X01385
X01485
Y02855
X01385
X01285
X01185
X0129Y03015
Y03115
X0152
Y03015
X0175
Y03115
X0198
Y03015
X0221
Y03115
X0213Y0335
X0185Y0345
X0148Y03345
X0138
X0128
X0118
X01855Y0276
Y0266
X02135Y0256
Y0286
X02515Y02975
X02695Y02995
Y02895
X0259Y02725
X02515Y02675
X02705Y0259
X02655Y02515
X0264968Y0339
X0269969Y03465
X01855Y0197
X01085Y02065
X00985
X00885
X00785
X0083Y02225
Y02325
X006
Y02225
X0037
Y02325
X0014
Y02225
X0047Y02045
Y02535
Y02835
X0037Y03015
Y03115
X0014
Y03015
X006
Y03115
X0083
Y03015
X00785Y02855
X00885
X00985
X01085
X0106Y03015
Y03115
X0108Y03345
X0098
X0088
X0078
X00465Y03325
X00785Y02555
X00885
X00985
X01085
X0106Y02325
Y02225
X0108Y03645
X0098
X0088
X0078
X00825Y03805
Y03905
X00595
Y03805
X00365
Y03905
X00135
Y03805
X00465Y03625
X01055Y03805
Y03905
X01285
Y03805
X0128Y03645
X0138
X0148
X01515Y03805
Y03905
X01745
Y03805
X01975
Y03905
X02205
Y03805
X0213Y0365
X0185Y0355
X0250969
X0258469Y036
X0268969Y0377
Y0387
X0250969Y0385
X0118Y03645
X0278153Y036
X0297626Y03595
X0317311Y03595
X0334626Y036
X0354311Y036
X0344969Y0377
Y0387
X0325969Y03785
X0305968Y0377
Y0387
X0287968Y03775
X0325969Y03485
T03
X0289Y00135
X0299
X03715
X03815
X0014Y0019197
Y0029197
Y01
Y011
X00135Y01815
Y01915
X025Y02475
Y02575
X0249468Y0335
Y0345
X0013Y03395
X00135Y02705
Y02605
X0013Y03495
M30
