G04 Layer_Color=32896*
%FSLAX25Y25*%
%MOIN*%
G70*
G01*
G75*
%ADD32C,0.00800*%
%ADD35C,0.00000*%
%ADD36C,0.00600*%
D32*
X351497Y348045D02*
G03*
X340440Y348045I-5529J-8848D01*
G01*
X351497D02*
G03*
X340440Y348045I-5529J-8848D01*
G01*
X312497Y347545D02*
G03*
X301440Y347545I-5529J-8848D01*
G01*
X312497D02*
G03*
X301440Y347545I-5529J-8848D01*
G01*
X275497Y348045D02*
G03*
X264440Y348045I-5529J-8848D01*
G01*
X275497D02*
G03*
X264440Y348045I-5529J-8848D01*
G01*
X276029Y260545D02*
G03*
X264971Y260545I-5529J-8848D01*
G01*
X276029D02*
G03*
X264971Y260545I-5529J-8848D01*
G01*
X313029Y260045D02*
G03*
X301971Y260045I-5529J-8848D01*
G01*
X313029D02*
G03*
X301971Y260045I-5529J-8848D01*
G01*
X352029Y260545D02*
G03*
X340971Y260545I-5529J-8848D01*
G01*
X352029D02*
G03*
X340971Y260545I-5529J-8848D01*
G01*
D35*
X370300Y152300D02*
G03*
X372700Y152300I1200J0D01*
G01*
X370300D02*
G03*
X372700Y152300I1200J0D01*
G01*
X287800D02*
G03*
X290200Y152300I1200J0D01*
G01*
X287800D02*
G03*
X290200Y152300I1200J0D01*
G01*
X152800Y111200D02*
G03*
X152800Y108800I0J-1200D01*
G01*
Y111200D02*
G03*
X152800Y108800I0J-1200D01*
G01*
X152300Y192700D02*
G03*
X152300Y190300I0J-1200D01*
G01*
Y192700D02*
G03*
X152300Y190300I0J-1200D01*
G01*
Y271700D02*
G03*
X152300Y269300I0J-1200D01*
G01*
Y271700D02*
G03*
X152300Y269300I0J-1200D01*
G01*
X151800Y350700D02*
G03*
X151800Y348300I0J-1200D01*
G01*
Y350700D02*
G03*
X151800Y348300I0J-1200D01*
G01*
X152800Y30397D02*
G03*
X152800Y27997I0J-1200D01*
G01*
Y30397D02*
G03*
X152800Y27997I0J-1200D01*
G01*
D36*
X358500Y146300D02*
Y150700D01*
X354300D02*
X358500D01*
X354300Y146300D02*
Y150700D01*
Y146300D02*
X358500D01*
Y136300D02*
Y140700D01*
X354300D02*
X358500D01*
X354300Y136300D02*
Y140700D01*
Y136300D02*
X358500D01*
Y126300D02*
Y130700D01*
X354300D02*
X358500D01*
X354300Y126300D02*
Y130700D01*
Y126300D02*
X358500D01*
Y116300D02*
Y120700D01*
X354300D02*
X358500D01*
X354300Y116300D02*
Y120700D01*
Y116300D02*
X358500D01*
Y106300D02*
Y110700D01*
X354300D02*
X358500D01*
X354300Y106300D02*
Y110700D01*
Y106300D02*
X358500D01*
Y96300D02*
Y100700D01*
X354300D02*
X358500D01*
X354300Y96300D02*
Y100700D01*
Y96300D02*
X358500D01*
Y86300D02*
Y90700D01*
X354300D02*
X358500D01*
X354300Y86300D02*
Y90700D01*
Y86300D02*
X358500D01*
Y76300D02*
Y80700D01*
X354300D02*
X358500D01*
X354300Y76300D02*
Y80700D01*
Y76300D02*
X358500D01*
X384500D02*
Y80700D01*
Y76300D02*
X388700D01*
Y80700D01*
X384500D02*
X388700D01*
X384500Y86300D02*
Y90700D01*
Y86300D02*
X388700D01*
Y90700D01*
X384500D02*
X388700D01*
X384500Y96300D02*
Y100700D01*
Y96300D02*
X388700D01*
Y100700D01*
X384500D02*
X388700D01*
X384500Y106300D02*
Y110700D01*
Y106300D02*
X388700D01*
Y110700D01*
X384500D02*
X388700D01*
X384500Y116300D02*
Y120700D01*
Y116300D02*
X388700D01*
Y120700D01*
X384500D02*
X388700D01*
X384500Y126300D02*
Y130700D01*
Y126300D02*
X388700D01*
Y130700D01*
X384500D02*
X388700D01*
X384500Y136300D02*
Y140700D01*
Y136300D02*
X388700D01*
Y140700D01*
X384500D02*
X388700D01*
X384500Y146300D02*
Y150700D01*
Y146300D02*
X388700D01*
Y150700D01*
X384500D02*
X388700D01*
X358500Y74700D02*
X384500D01*
Y152300D01*
X372700D02*
X384500D01*
X370300D02*
X372700D01*
X358500D02*
X370300D01*
X358500Y74700D02*
Y152300D01*
Y146300D02*
Y150700D01*
X354300D02*
X358500D01*
X354300Y146300D02*
Y150700D01*
Y146300D02*
X358500D01*
Y136300D02*
Y140700D01*
X354300D02*
X358500D01*
X354300Y136300D02*
Y140700D01*
Y136300D02*
X358500D01*
Y126300D02*
Y130700D01*
X354300D02*
X358500D01*
X354300Y126300D02*
Y130700D01*
Y126300D02*
X358500D01*
Y116300D02*
Y120700D01*
X354300D02*
X358500D01*
X354300Y116300D02*
Y120700D01*
Y116300D02*
X358500D01*
Y106300D02*
Y110700D01*
X354300D02*
X358500D01*
X354300Y106300D02*
Y110700D01*
Y106300D02*
X358500D01*
Y96300D02*
Y100700D01*
X354300D02*
X358500D01*
X354300Y96300D02*
Y100700D01*
Y96300D02*
X358500D01*
Y86300D02*
Y90700D01*
X354300D02*
X358500D01*
X354300Y86300D02*
Y90700D01*
Y86300D02*
X358500D01*
Y76300D02*
Y80700D01*
X354300D02*
X358500D01*
X354300Y76300D02*
Y80700D01*
Y76300D02*
X358500D01*
X384500D02*
Y80700D01*
Y76300D02*
X388700D01*
Y80700D01*
X384500D02*
X388700D01*
X384500Y86300D02*
Y90700D01*
Y86300D02*
X388700D01*
Y90700D01*
X384500D02*
X388700D01*
X384500Y96300D02*
Y100700D01*
Y96300D02*
X388700D01*
Y100700D01*
X384500D02*
X388700D01*
X384500Y106300D02*
Y110700D01*
Y106300D02*
X388700D01*
Y110700D01*
X384500D02*
X388700D01*
X384500Y116300D02*
Y120700D01*
Y116300D02*
X388700D01*
Y120700D01*
X384500D02*
X388700D01*
X384500Y126300D02*
Y130700D01*
Y126300D02*
X388700D01*
Y130700D01*
X384500D02*
X388700D01*
X384500Y136300D02*
Y140700D01*
Y136300D02*
X388700D01*
Y140700D01*
X384500D02*
X388700D01*
X384500Y146300D02*
Y150700D01*
Y146300D02*
X388700D01*
Y150700D01*
X384500D02*
X388700D01*
X358500Y74700D02*
X384500D01*
Y152300D01*
X372700D02*
X384500D01*
X370300D02*
X372700D01*
X358500D02*
X370300D01*
X358500Y74700D02*
Y152300D01*
X276000Y146300D02*
Y150700D01*
X271800D02*
X276000D01*
X271800Y146300D02*
Y150700D01*
Y146300D02*
X276000D01*
Y136300D02*
Y140700D01*
X271800D02*
X276000D01*
X271800Y136300D02*
Y140700D01*
Y136300D02*
X276000D01*
Y126300D02*
Y130700D01*
X271800D02*
X276000D01*
X271800Y126300D02*
Y130700D01*
Y126300D02*
X276000D01*
Y116300D02*
Y120700D01*
X271800D02*
X276000D01*
X271800Y116300D02*
Y120700D01*
Y116300D02*
X276000D01*
Y106300D02*
Y110700D01*
X271800D02*
X276000D01*
X271800Y106300D02*
Y110700D01*
Y106300D02*
X276000D01*
Y96300D02*
Y100700D01*
X271800D02*
X276000D01*
X271800Y96300D02*
Y100700D01*
Y96300D02*
X276000D01*
Y86300D02*
Y90700D01*
X271800D02*
X276000D01*
X271800Y86300D02*
Y90700D01*
Y86300D02*
X276000D01*
Y76300D02*
Y80700D01*
X271800D02*
X276000D01*
X271800Y76300D02*
Y80700D01*
Y76300D02*
X276000D01*
X302000D02*
Y80700D01*
Y76300D02*
X306200D01*
Y80700D01*
X302000D02*
X306200D01*
X302000Y86300D02*
Y90700D01*
Y86300D02*
X306200D01*
Y90700D01*
X302000D02*
X306200D01*
X302000Y96300D02*
Y100700D01*
Y96300D02*
X306200D01*
Y100700D01*
X302000D02*
X306200D01*
X302000Y106300D02*
Y110700D01*
Y106300D02*
X306200D01*
Y110700D01*
X302000D02*
X306200D01*
X302000Y116300D02*
Y120700D01*
Y116300D02*
X306200D01*
Y120700D01*
X302000D02*
X306200D01*
X302000Y126300D02*
Y130700D01*
Y126300D02*
X306200D01*
Y130700D01*
X302000D02*
X306200D01*
X302000Y136300D02*
Y140700D01*
Y136300D02*
X306200D01*
Y140700D01*
X302000D02*
X306200D01*
X302000Y146300D02*
Y150700D01*
Y146300D02*
X306200D01*
Y150700D01*
X302000D02*
X306200D01*
X276000Y74700D02*
X302000D01*
Y152300D01*
X290200D02*
X302000D01*
X287800D02*
X290200D01*
X276000D02*
X287800D01*
X276000Y74700D02*
Y152300D01*
Y146300D02*
Y150700D01*
X271800D02*
X276000D01*
X271800Y146300D02*
Y150700D01*
Y146300D02*
X276000D01*
Y136300D02*
Y140700D01*
X271800D02*
X276000D01*
X271800Y136300D02*
Y140700D01*
Y136300D02*
X276000D01*
Y126300D02*
Y130700D01*
X271800D02*
X276000D01*
X271800Y126300D02*
Y130700D01*
Y126300D02*
X276000D01*
Y116300D02*
Y120700D01*
X271800D02*
X276000D01*
X271800Y116300D02*
Y120700D01*
Y116300D02*
X276000D01*
Y106300D02*
Y110700D01*
X271800D02*
X276000D01*
X271800Y106300D02*
Y110700D01*
Y106300D02*
X276000D01*
Y96300D02*
Y100700D01*
X271800D02*
X276000D01*
X271800Y96300D02*
Y100700D01*
Y96300D02*
X276000D01*
Y86300D02*
Y90700D01*
X271800D02*
X276000D01*
X271800Y86300D02*
Y90700D01*
Y86300D02*
X276000D01*
Y76300D02*
Y80700D01*
X271800D02*
X276000D01*
X271800Y76300D02*
Y80700D01*
Y76300D02*
X276000D01*
X302000D02*
Y80700D01*
Y76300D02*
X306200D01*
Y80700D01*
X302000D02*
X306200D01*
X302000Y86300D02*
Y90700D01*
Y86300D02*
X306200D01*
Y90700D01*
X302000D02*
X306200D01*
X302000Y96300D02*
Y100700D01*
Y96300D02*
X306200D01*
Y100700D01*
X302000D02*
X306200D01*
X302000Y106300D02*
Y110700D01*
Y106300D02*
X306200D01*
Y110700D01*
X302000D02*
X306200D01*
X302000Y116300D02*
Y120700D01*
Y116300D02*
X306200D01*
Y120700D01*
X302000D02*
X306200D01*
X302000Y126300D02*
Y130700D01*
Y126300D02*
X306200D01*
Y130700D01*
X302000D02*
X306200D01*
X302000Y136300D02*
Y140700D01*
Y136300D02*
X306200D01*
Y140700D01*
X302000D02*
X306200D01*
X302000Y146300D02*
Y150700D01*
Y146300D02*
X306200D01*
Y150700D01*
X302000D02*
X306200D01*
X276000Y74700D02*
X302000D01*
Y152300D01*
X290200D02*
X302000D01*
X287800D02*
X290200D01*
X276000D02*
X287800D01*
X276000Y74700D02*
Y152300D01*
X146800Y123000D02*
X151200D01*
Y127200D01*
X146800D02*
X151200D01*
X146800Y123000D02*
Y127200D01*
X136800Y123000D02*
X141200D01*
Y127200D01*
X136800D02*
X141200D01*
X136800Y123000D02*
Y127200D01*
X126800Y123000D02*
X131200D01*
Y127200D01*
X126800D02*
X131200D01*
X126800Y123000D02*
Y127200D01*
X116800Y123000D02*
X121200D01*
Y127200D01*
X116800D02*
X121200D01*
X116800Y123000D02*
Y127200D01*
X106800Y123000D02*
X111200D01*
Y127200D01*
X106800D02*
X111200D01*
X106800Y123000D02*
Y127200D01*
X96800Y123000D02*
X101200D01*
Y127200D01*
X96800D02*
X101200D01*
X96800Y123000D02*
Y127200D01*
X86800Y123000D02*
X91200D01*
Y127200D01*
X86800D02*
X91200D01*
X86800Y123000D02*
Y127200D01*
X76800Y123000D02*
X81200D01*
Y127200D01*
X76800D02*
X81200D01*
X76800Y123000D02*
Y127200D01*
Y97000D02*
X81200D01*
X76800Y92800D02*
Y97000D01*
Y92800D02*
X81200D01*
Y97000D01*
X86800D02*
X91200D01*
X86800Y92800D02*
Y97000D01*
Y92800D02*
X91200D01*
Y97000D01*
X96800D02*
X101200D01*
X96800Y92800D02*
Y97000D01*
Y92800D02*
X101200D01*
Y97000D01*
X106800D02*
X111200D01*
X106800Y92800D02*
Y97000D01*
Y92800D02*
X111200D01*
Y97000D01*
X116800D02*
X121200D01*
X116800Y92800D02*
Y97000D01*
Y92800D02*
X121200D01*
Y97000D01*
X126800D02*
X131200D01*
X126800Y92800D02*
Y97000D01*
Y92800D02*
X131200D01*
Y97000D01*
X136800D02*
X141200D01*
X136800Y92800D02*
Y97000D01*
Y92800D02*
X141200D01*
Y97000D01*
X146800D02*
X151200D01*
X146800Y92800D02*
Y97000D01*
Y92800D02*
X151200D01*
Y97000D01*
X75200D02*
Y123000D01*
Y97000D02*
X152800D01*
Y108800D01*
Y111200D01*
Y123000D01*
X75200D02*
X152800D01*
X146800D02*
X151200D01*
Y127200D01*
X146800D02*
X151200D01*
X146800Y123000D02*
Y127200D01*
X136800Y123000D02*
X141200D01*
Y127200D01*
X136800D02*
X141200D01*
X136800Y123000D02*
Y127200D01*
X126800Y123000D02*
X131200D01*
Y127200D01*
X126800D02*
X131200D01*
X126800Y123000D02*
Y127200D01*
X116800Y123000D02*
X121200D01*
Y127200D01*
X116800D02*
X121200D01*
X116800Y123000D02*
Y127200D01*
X106800Y123000D02*
X111200D01*
Y127200D01*
X106800D02*
X111200D01*
X106800Y123000D02*
Y127200D01*
X96800Y123000D02*
X101200D01*
Y127200D01*
X96800D02*
X101200D01*
X96800Y123000D02*
Y127200D01*
X86800Y123000D02*
X91200D01*
Y127200D01*
X86800D02*
X91200D01*
X86800Y123000D02*
Y127200D01*
X76800Y123000D02*
X81200D01*
Y127200D01*
X76800D02*
X81200D01*
X76800Y123000D02*
Y127200D01*
Y97000D02*
X81200D01*
X76800Y92800D02*
Y97000D01*
Y92800D02*
X81200D01*
Y97000D01*
X86800D02*
X91200D01*
X86800Y92800D02*
Y97000D01*
Y92800D02*
X91200D01*
Y97000D01*
X96800D02*
X101200D01*
X96800Y92800D02*
Y97000D01*
Y92800D02*
X101200D01*
Y97000D01*
X106800D02*
X111200D01*
X106800Y92800D02*
Y97000D01*
Y92800D02*
X111200D01*
Y97000D01*
X116800D02*
X121200D01*
X116800Y92800D02*
Y97000D01*
Y92800D02*
X121200D01*
Y97000D01*
X126800D02*
X131200D01*
X126800Y92800D02*
Y97000D01*
Y92800D02*
X131200D01*
Y97000D01*
X136800D02*
X141200D01*
X136800Y92800D02*
Y97000D01*
Y92800D02*
X141200D01*
Y97000D01*
X146800D02*
X151200D01*
X146800Y92800D02*
Y97000D01*
Y92800D02*
X151200D01*
Y97000D01*
X75200D02*
Y123000D01*
Y97000D02*
X152800D01*
Y108800D01*
Y111200D01*
Y123000D01*
X75200D02*
X152800D01*
X146300Y204500D02*
X150700D01*
Y208700D01*
X146300D02*
X150700D01*
X146300Y204500D02*
Y208700D01*
X136300Y204500D02*
X140700D01*
Y208700D01*
X136300D02*
X140700D01*
X136300Y204500D02*
Y208700D01*
X126300Y204500D02*
X130700D01*
Y208700D01*
X126300D02*
X130700D01*
X126300Y204500D02*
Y208700D01*
X116300Y204500D02*
X120700D01*
Y208700D01*
X116300D02*
X120700D01*
X116300Y204500D02*
Y208700D01*
X106300Y204500D02*
X110700D01*
Y208700D01*
X106300D02*
X110700D01*
X106300Y204500D02*
Y208700D01*
X96300Y204500D02*
X100700D01*
Y208700D01*
X96300D02*
X100700D01*
X96300Y204500D02*
Y208700D01*
X86300Y204500D02*
X90700D01*
Y208700D01*
X86300D02*
X90700D01*
X86300Y204500D02*
Y208700D01*
X76300Y204500D02*
X80700D01*
Y208700D01*
X76300D02*
X80700D01*
X76300Y204500D02*
Y208700D01*
Y178500D02*
X80700D01*
X76300Y174300D02*
Y178500D01*
Y174300D02*
X80700D01*
Y178500D01*
X86300D02*
X90700D01*
X86300Y174300D02*
Y178500D01*
Y174300D02*
X90700D01*
Y178500D01*
X96300D02*
X100700D01*
X96300Y174300D02*
Y178500D01*
Y174300D02*
X100700D01*
Y178500D01*
X106300D02*
X110700D01*
X106300Y174300D02*
Y178500D01*
Y174300D02*
X110700D01*
Y178500D01*
X116300D02*
X120700D01*
X116300Y174300D02*
Y178500D01*
Y174300D02*
X120700D01*
Y178500D01*
X126300D02*
X130700D01*
X126300Y174300D02*
Y178500D01*
Y174300D02*
X130700D01*
Y178500D01*
X136300D02*
X140700D01*
X136300Y174300D02*
Y178500D01*
Y174300D02*
X140700D01*
Y178500D01*
X146300D02*
X150700D01*
X146300Y174300D02*
Y178500D01*
Y174300D02*
X150700D01*
Y178500D01*
X74700D02*
Y204500D01*
Y178500D02*
X152300D01*
Y190300D01*
Y192700D01*
Y204500D01*
X74700D02*
X152300D01*
X146300D02*
X150700D01*
Y208700D01*
X146300D02*
X150700D01*
X146300Y204500D02*
Y208700D01*
X136300Y204500D02*
X140700D01*
Y208700D01*
X136300D02*
X140700D01*
X136300Y204500D02*
Y208700D01*
X126300Y204500D02*
X130700D01*
Y208700D01*
X126300D02*
X130700D01*
X126300Y204500D02*
Y208700D01*
X116300Y204500D02*
X120700D01*
Y208700D01*
X116300D02*
X120700D01*
X116300Y204500D02*
Y208700D01*
X106300Y204500D02*
X110700D01*
Y208700D01*
X106300D02*
X110700D01*
X106300Y204500D02*
Y208700D01*
X96300Y204500D02*
X100700D01*
Y208700D01*
X96300D02*
X100700D01*
X96300Y204500D02*
Y208700D01*
X86300Y204500D02*
X90700D01*
Y208700D01*
X86300D02*
X90700D01*
X86300Y204500D02*
Y208700D01*
X76300Y204500D02*
X80700D01*
Y208700D01*
X76300D02*
X80700D01*
X76300Y204500D02*
Y208700D01*
Y178500D02*
X80700D01*
X76300Y174300D02*
Y178500D01*
Y174300D02*
X80700D01*
Y178500D01*
X86300D02*
X90700D01*
X86300Y174300D02*
Y178500D01*
Y174300D02*
X90700D01*
Y178500D01*
X96300D02*
X100700D01*
X96300Y174300D02*
Y178500D01*
Y174300D02*
X100700D01*
Y178500D01*
X106300D02*
X110700D01*
X106300Y174300D02*
Y178500D01*
Y174300D02*
X110700D01*
Y178500D01*
X116300D02*
X120700D01*
X116300Y174300D02*
Y178500D01*
Y174300D02*
X120700D01*
Y178500D01*
X126300D02*
X130700D01*
X126300Y174300D02*
Y178500D01*
Y174300D02*
X130700D01*
Y178500D01*
X136300D02*
X140700D01*
X136300Y174300D02*
Y178500D01*
Y174300D02*
X140700D01*
Y178500D01*
X146300D02*
X150700D01*
X146300Y174300D02*
Y178500D01*
Y174300D02*
X150700D01*
Y178500D01*
X74700D02*
Y204500D01*
Y178500D02*
X152300D01*
Y190300D01*
Y192700D01*
Y204500D01*
X74700D02*
X152300D01*
X146300Y283500D02*
X150700D01*
Y287700D01*
X146300D02*
X150700D01*
X146300Y283500D02*
Y287700D01*
X136300Y283500D02*
X140700D01*
Y287700D01*
X136300D02*
X140700D01*
X136300Y283500D02*
Y287700D01*
X126300Y283500D02*
X130700D01*
Y287700D01*
X126300D02*
X130700D01*
X126300Y283500D02*
Y287700D01*
X116300Y283500D02*
X120700D01*
Y287700D01*
X116300D02*
X120700D01*
X116300Y283500D02*
Y287700D01*
X106300Y283500D02*
X110700D01*
Y287700D01*
X106300D02*
X110700D01*
X106300Y283500D02*
Y287700D01*
X96300Y283500D02*
X100700D01*
Y287700D01*
X96300D02*
X100700D01*
X96300Y283500D02*
Y287700D01*
X86300Y283500D02*
X90700D01*
Y287700D01*
X86300D02*
X90700D01*
X86300Y283500D02*
Y287700D01*
X76300Y283500D02*
X80700D01*
Y287700D01*
X76300D02*
X80700D01*
X76300Y283500D02*
Y287700D01*
Y257500D02*
X80700D01*
X76300Y253300D02*
Y257500D01*
Y253300D02*
X80700D01*
Y257500D01*
X86300D02*
X90700D01*
X86300Y253300D02*
Y257500D01*
Y253300D02*
X90700D01*
Y257500D01*
X96300D02*
X100700D01*
X96300Y253300D02*
Y257500D01*
Y253300D02*
X100700D01*
Y257500D01*
X106300D02*
X110700D01*
X106300Y253300D02*
Y257500D01*
Y253300D02*
X110700D01*
Y257500D01*
X116300D02*
X120700D01*
X116300Y253300D02*
Y257500D01*
Y253300D02*
X120700D01*
Y257500D01*
X126300D02*
X130700D01*
X126300Y253300D02*
Y257500D01*
Y253300D02*
X130700D01*
Y257500D01*
X136300D02*
X140700D01*
X136300Y253300D02*
Y257500D01*
Y253300D02*
X140700D01*
Y257500D01*
X146300D02*
X150700D01*
X146300Y253300D02*
Y257500D01*
Y253300D02*
X150700D01*
Y257500D01*
X74700D02*
Y283500D01*
Y257500D02*
X152300D01*
Y269300D01*
Y271700D01*
Y283500D01*
X74700D02*
X152300D01*
X146300D02*
X150700D01*
Y287700D01*
X146300D02*
X150700D01*
X146300Y283500D02*
Y287700D01*
X136300Y283500D02*
X140700D01*
Y287700D01*
X136300D02*
X140700D01*
X136300Y283500D02*
Y287700D01*
X126300Y283500D02*
X130700D01*
Y287700D01*
X126300D02*
X130700D01*
X126300Y283500D02*
Y287700D01*
X116300Y283500D02*
X120700D01*
Y287700D01*
X116300D02*
X120700D01*
X116300Y283500D02*
Y287700D01*
X106300Y283500D02*
X110700D01*
Y287700D01*
X106300D02*
X110700D01*
X106300Y283500D02*
Y287700D01*
X96300Y283500D02*
X100700D01*
Y287700D01*
X96300D02*
X100700D01*
X96300Y283500D02*
Y287700D01*
X86300Y283500D02*
X90700D01*
Y287700D01*
X86300D02*
X90700D01*
X86300Y283500D02*
Y287700D01*
X76300Y283500D02*
X80700D01*
Y287700D01*
X76300D02*
X80700D01*
X76300Y283500D02*
Y287700D01*
Y257500D02*
X80700D01*
X76300Y253300D02*
Y257500D01*
Y253300D02*
X80700D01*
Y257500D01*
X86300D02*
X90700D01*
X86300Y253300D02*
Y257500D01*
Y253300D02*
X90700D01*
Y257500D01*
X96300D02*
X100700D01*
X96300Y253300D02*
Y257500D01*
Y253300D02*
X100700D01*
Y257500D01*
X106300D02*
X110700D01*
X106300Y253300D02*
Y257500D01*
Y253300D02*
X110700D01*
Y257500D01*
X116300D02*
X120700D01*
X116300Y253300D02*
Y257500D01*
Y253300D02*
X120700D01*
Y257500D01*
X126300D02*
X130700D01*
X126300Y253300D02*
Y257500D01*
Y253300D02*
X130700D01*
Y257500D01*
X136300D02*
X140700D01*
X136300Y253300D02*
Y257500D01*
Y253300D02*
X140700D01*
Y257500D01*
X146300D02*
X150700D01*
X146300Y253300D02*
Y257500D01*
Y253300D02*
X150700D01*
Y257500D01*
X74700D02*
Y283500D01*
Y257500D02*
X152300D01*
Y269300D01*
Y271700D01*
Y283500D01*
X74700D02*
X152300D01*
X145800Y362500D02*
X150200D01*
Y366700D01*
X145800D02*
X150200D01*
X145800Y362500D02*
Y366700D01*
X135800Y362500D02*
X140200D01*
Y366700D01*
X135800D02*
X140200D01*
X135800Y362500D02*
Y366700D01*
X125800Y362500D02*
X130200D01*
Y366700D01*
X125800D02*
X130200D01*
X125800Y362500D02*
Y366700D01*
X115800Y362500D02*
X120200D01*
Y366700D01*
X115800D02*
X120200D01*
X115800Y362500D02*
Y366700D01*
X105800Y362500D02*
X110200D01*
Y366700D01*
X105800D02*
X110200D01*
X105800Y362500D02*
Y366700D01*
X95800Y362500D02*
X100200D01*
Y366700D01*
X95800D02*
X100200D01*
X95800Y362500D02*
Y366700D01*
X85800Y362500D02*
X90200D01*
Y366700D01*
X85800D02*
X90200D01*
X85800Y362500D02*
Y366700D01*
X75800Y362500D02*
X80200D01*
Y366700D01*
X75800D02*
X80200D01*
X75800Y362500D02*
Y366700D01*
Y336500D02*
X80200D01*
X75800Y332300D02*
Y336500D01*
Y332300D02*
X80200D01*
Y336500D01*
X85800D02*
X90200D01*
X85800Y332300D02*
Y336500D01*
Y332300D02*
X90200D01*
Y336500D01*
X95800D02*
X100200D01*
X95800Y332300D02*
Y336500D01*
Y332300D02*
X100200D01*
Y336500D01*
X105800D02*
X110200D01*
X105800Y332300D02*
Y336500D01*
Y332300D02*
X110200D01*
Y336500D01*
X115800D02*
X120200D01*
X115800Y332300D02*
Y336500D01*
Y332300D02*
X120200D01*
Y336500D01*
X125800D02*
X130200D01*
X125800Y332300D02*
Y336500D01*
Y332300D02*
X130200D01*
Y336500D01*
X135800D02*
X140200D01*
X135800Y332300D02*
Y336500D01*
Y332300D02*
X140200D01*
Y336500D01*
X145800D02*
X150200D01*
X145800Y332300D02*
Y336500D01*
Y332300D02*
X150200D01*
Y336500D01*
X74200D02*
Y362500D01*
Y336500D02*
X151800D01*
Y348300D01*
Y350700D01*
Y362500D01*
X74200D02*
X151800D01*
X145800D02*
X150200D01*
Y366700D01*
X145800D02*
X150200D01*
X145800Y362500D02*
Y366700D01*
X135800Y362500D02*
X140200D01*
Y366700D01*
X135800D02*
X140200D01*
X135800Y362500D02*
Y366700D01*
X125800Y362500D02*
X130200D01*
Y366700D01*
X125800D02*
X130200D01*
X125800Y362500D02*
Y366700D01*
X115800Y362500D02*
X120200D01*
Y366700D01*
X115800D02*
X120200D01*
X115800Y362500D02*
Y366700D01*
X105800Y362500D02*
X110200D01*
Y366700D01*
X105800D02*
X110200D01*
X105800Y362500D02*
Y366700D01*
X95800Y362500D02*
X100200D01*
Y366700D01*
X95800D02*
X100200D01*
X95800Y362500D02*
Y366700D01*
X85800Y362500D02*
X90200D01*
Y366700D01*
X85800D02*
X90200D01*
X85800Y362500D02*
Y366700D01*
X75800Y362500D02*
X80200D01*
Y366700D01*
X75800D02*
X80200D01*
X75800Y362500D02*
Y366700D01*
Y336500D02*
X80200D01*
X75800Y332300D02*
Y336500D01*
Y332300D02*
X80200D01*
Y336500D01*
X85800D02*
X90200D01*
X85800Y332300D02*
Y336500D01*
Y332300D02*
X90200D01*
Y336500D01*
X95800D02*
X100200D01*
X95800Y332300D02*
Y336500D01*
Y332300D02*
X100200D01*
Y336500D01*
X105800D02*
X110200D01*
X105800Y332300D02*
Y336500D01*
Y332300D02*
X110200D01*
Y336500D01*
X115800D02*
X120200D01*
X115800Y332300D02*
Y336500D01*
Y332300D02*
X120200D01*
Y336500D01*
X125800D02*
X130200D01*
X125800Y332300D02*
Y336500D01*
Y332300D02*
X130200D01*
Y336500D01*
X135800D02*
X140200D01*
X135800Y332300D02*
Y336500D01*
Y332300D02*
X140200D01*
Y336500D01*
X145800D02*
X150200D01*
X145800Y332300D02*
Y336500D01*
Y332300D02*
X150200D01*
Y336500D01*
X74200D02*
Y362500D01*
Y336500D02*
X151800D01*
Y348300D01*
Y350700D01*
Y362500D01*
X74200D02*
X151800D01*
X146800Y42197D02*
X151200D01*
Y46397D01*
X146800D02*
X151200D01*
X146800Y42197D02*
Y46397D01*
X136800Y42197D02*
X141200D01*
Y46397D01*
X136800D02*
X141200D01*
X136800Y42197D02*
Y46397D01*
X126800Y42197D02*
X131200D01*
Y46397D01*
X126800D02*
X131200D01*
X126800Y42197D02*
Y46397D01*
X116800Y42197D02*
X121200D01*
Y46397D01*
X116800D02*
X121200D01*
X116800Y42197D02*
Y46397D01*
X106800Y42197D02*
X111200D01*
Y46397D01*
X106800D02*
X111200D01*
X106800Y42197D02*
Y46397D01*
X96800Y42197D02*
X101200D01*
Y46397D01*
X96800D02*
X101200D01*
X96800Y42197D02*
Y46397D01*
X86800Y42197D02*
X91200D01*
Y46397D01*
X86800D02*
X91200D01*
X86800Y42197D02*
Y46397D01*
X76800Y42197D02*
X81200D01*
Y46397D01*
X76800D02*
X81200D01*
X76800Y42197D02*
Y46397D01*
Y16197D02*
X81200D01*
X76800Y11997D02*
Y16197D01*
Y11997D02*
X81200D01*
Y16197D01*
X86800D02*
X91200D01*
X86800Y11997D02*
Y16197D01*
Y11997D02*
X91200D01*
Y16197D01*
X96800D02*
X101200D01*
X96800Y11997D02*
Y16197D01*
Y11997D02*
X101200D01*
Y16197D01*
X106800D02*
X111200D01*
X106800Y11997D02*
Y16197D01*
Y11997D02*
X111200D01*
Y16197D01*
X116800D02*
X121200D01*
X116800Y11997D02*
Y16197D01*
Y11997D02*
X121200D01*
Y16197D01*
X126800D02*
X131200D01*
X126800Y11997D02*
Y16197D01*
Y11997D02*
X131200D01*
Y16197D01*
X136800D02*
X141200D01*
X136800Y11997D02*
Y16197D01*
Y11997D02*
X141200D01*
Y16197D01*
X146800D02*
X151200D01*
X146800Y11997D02*
Y16197D01*
Y11997D02*
X151200D01*
Y16197D01*
X75200D02*
Y42197D01*
Y16197D02*
X152800D01*
Y27997D01*
Y30397D01*
Y42197D01*
X75200D02*
X152800D01*
X146800D02*
X151200D01*
Y46397D01*
X146800D02*
X151200D01*
X146800Y42197D02*
Y46397D01*
X136800Y42197D02*
X141200D01*
Y46397D01*
X136800D02*
X141200D01*
X136800Y42197D02*
Y46397D01*
X126800Y42197D02*
X131200D01*
Y46397D01*
X126800D02*
X131200D01*
X126800Y42197D02*
Y46397D01*
X116800Y42197D02*
X121200D01*
Y46397D01*
X116800D02*
X121200D01*
X116800Y42197D02*
Y46397D01*
X106800Y42197D02*
X111200D01*
Y46397D01*
X106800D02*
X111200D01*
X106800Y42197D02*
Y46397D01*
X96800Y42197D02*
X101200D01*
Y46397D01*
X96800D02*
X101200D01*
X96800Y42197D02*
Y46397D01*
X86800Y42197D02*
X91200D01*
Y46397D01*
X86800D02*
X91200D01*
X86800Y42197D02*
Y46397D01*
X76800Y42197D02*
X81200D01*
Y46397D01*
X76800D02*
X81200D01*
X76800Y42197D02*
Y46397D01*
Y16197D02*
X81200D01*
X76800Y11997D02*
Y16197D01*
Y11997D02*
X81200D01*
Y16197D01*
X86800D02*
X91200D01*
X86800Y11997D02*
Y16197D01*
Y11997D02*
X91200D01*
Y16197D01*
X96800D02*
X101200D01*
X96800Y11997D02*
Y16197D01*
Y11997D02*
X101200D01*
Y16197D01*
X106800D02*
X111200D01*
X106800Y11997D02*
Y16197D01*
Y11997D02*
X111200D01*
Y16197D01*
X116800D02*
X121200D01*
X116800Y11997D02*
Y16197D01*
Y11997D02*
X121200D01*
Y16197D01*
X126800D02*
X131200D01*
X126800Y11997D02*
Y16197D01*
Y11997D02*
X131200D01*
Y16197D01*
X136800D02*
X141200D01*
X136800Y11997D02*
Y16197D01*
Y11997D02*
X141200D01*
Y16197D01*
X146800D02*
X151200D01*
X146800Y11997D02*
Y16197D01*
Y11997D02*
X151200D01*
Y16197D01*
X75200D02*
Y42197D01*
Y16197D02*
X152800D01*
Y27997D01*
Y30397D01*
Y42197D01*
X75200D02*
X152800D01*
M02*
