G04 Layer_Color=8388736*
%FSLAX25Y25*%
%MOIN*%
G70*
G01*
G75*
%ADD42R,1.18910X0.04737*%
%ADD43C,0.06312*%
%ADD44C,0.06706*%
%ADD45R,0.08674X0.08674*%
%ADD46C,0.08674*%
%ADD47R,0.06627X0.06627*%
%ADD48C,0.06627*%
%ADD49C,0.06115*%
%ADD50R,0.06115X0.06115*%
%ADD51R,1.18910X0.03556*%
%ADD52R,0.03556X2.29147*%
%ADD53R,0.03556X3.94501*%
%ADD54R,2.29147X0.03556*%
%ADD55R,0.06706X0.06706*%
%ADD56R,0.07400X0.07400*%
%ADD57C,0.07400*%
%ADD58R,0.08280X0.08280*%
%ADD59R,0.06706X0.06706*%
%ADD60R,0.07400X0.07400*%
%ADD61R,0.08280X0.08280*%
D42*
X302000Y319500D02*
D03*
D43*
X325969Y378500D02*
D03*
Y348500D02*
D03*
X287968Y377500D02*
D03*
Y347500D02*
D03*
X250969Y385000D02*
D03*
Y355000D02*
D03*
X251500Y297500D02*
D03*
Y267500D02*
D03*
X288500Y290000D02*
D03*
Y260000D02*
D03*
X326500Y291000D02*
D03*
Y261000D02*
D03*
D44*
X350969Y339000D02*
D03*
X345969Y346500D02*
D03*
X340968Y339000D02*
D03*
X311968Y338500D02*
D03*
X306968Y346000D02*
D03*
X301969Y338500D02*
D03*
X274969Y339000D02*
D03*
X269969Y346500D02*
D03*
X264968Y339000D02*
D03*
X275500Y251500D02*
D03*
X270500Y259000D02*
D03*
X265500Y251500D02*
D03*
X312500Y251000D02*
D03*
X307500Y258500D02*
D03*
X302500Y251000D02*
D03*
X351500Y251500D02*
D03*
X346500Y259000D02*
D03*
X341500Y251500D02*
D03*
X388500Y47000D02*
D03*
X358500D02*
D03*
X330500Y14000D02*
D03*
Y37000D02*
D03*
Y60000D02*
D03*
Y83000D02*
D03*
Y106000D02*
D03*
Y129000D02*
D03*
Y152000D02*
D03*
Y175000D02*
D03*
Y198000D02*
D03*
Y221000D02*
D03*
X356000Y213500D02*
D03*
X386000D02*
D03*
X366000Y185500D02*
D03*
X306000Y47000D02*
D03*
X276000D02*
D03*
X248000Y14000D02*
D03*
Y37000D02*
D03*
Y60000D02*
D03*
Y83000D02*
D03*
Y106000D02*
D03*
Y129000D02*
D03*
Y152000D02*
D03*
Y175000D02*
D03*
Y198000D02*
D03*
Y221000D02*
D03*
X273500Y213500D02*
D03*
X303500D02*
D03*
X283500Y185500D02*
D03*
X47500Y93000D02*
D03*
Y123000D02*
D03*
X14500Y151000D02*
D03*
X37500D02*
D03*
X60500D02*
D03*
X83500D02*
D03*
X106500D02*
D03*
X129500D02*
D03*
X152500D02*
D03*
X175500D02*
D03*
X198500D02*
D03*
X221500D02*
D03*
X214000Y125500D02*
D03*
Y95500D02*
D03*
X186000Y115500D02*
D03*
X47000Y174500D02*
D03*
Y204500D02*
D03*
X14000Y232500D02*
D03*
X37000D02*
D03*
X60000D02*
D03*
X83000D02*
D03*
X106000D02*
D03*
X129000D02*
D03*
X152000D02*
D03*
X175000D02*
D03*
X198000D02*
D03*
X221000D02*
D03*
X213500Y207000D02*
D03*
Y177000D02*
D03*
X185500Y197000D02*
D03*
X47000Y253500D02*
D03*
Y283500D02*
D03*
X14000Y311500D02*
D03*
X37000D02*
D03*
X60000D02*
D03*
X83000D02*
D03*
X106000D02*
D03*
X129000D02*
D03*
X152000D02*
D03*
X175000D02*
D03*
X198000D02*
D03*
X221000D02*
D03*
X213500Y286000D02*
D03*
Y256000D02*
D03*
X185500Y276000D02*
D03*
X46500Y332500D02*
D03*
Y362500D02*
D03*
X13500Y390500D02*
D03*
X36500D02*
D03*
X59500D02*
D03*
X82500D02*
D03*
X105500D02*
D03*
X128500D02*
D03*
X151500D02*
D03*
X174500D02*
D03*
X197500D02*
D03*
X220500D02*
D03*
X213000Y365000D02*
D03*
Y335000D02*
D03*
X185000Y355000D02*
D03*
X214000Y44697D02*
D03*
Y14697D02*
D03*
X186000Y34697D02*
D03*
X47500Y12197D02*
D03*
Y42197D02*
D03*
X221500Y70197D02*
D03*
X198500D02*
D03*
X175500D02*
D03*
X152500D02*
D03*
X129500D02*
D03*
X106500D02*
D03*
X83500D02*
D03*
X60500D02*
D03*
X37500D02*
D03*
X14500D02*
D03*
D45*
X249468Y345000D02*
D03*
X250000Y257500D02*
D03*
D46*
X249468Y335000D02*
D03*
X250000Y247500D02*
D03*
X371500Y13500D02*
D03*
X289000D02*
D03*
X14000Y110000D02*
D03*
X13500Y191500D02*
D03*
Y270500D02*
D03*
X13000Y349500D02*
D03*
X14000Y29197D02*
D03*
D47*
X344969Y387000D02*
D03*
X305968D02*
D03*
X268969D02*
D03*
X269500Y299500D02*
D03*
X306500D02*
D03*
X345500D02*
D03*
D48*
X344969Y377000D02*
D03*
X305968D02*
D03*
X268969D02*
D03*
X269500Y289500D02*
D03*
X306500D02*
D03*
X345500D02*
D03*
D49*
X334626Y360000D02*
D03*
X297626Y359500D02*
D03*
X258469Y360000D02*
D03*
X259000Y272500D02*
D03*
X298158Y272000D02*
D03*
X335157Y272500D02*
D03*
D50*
X354311Y360000D02*
D03*
X317311Y359500D02*
D03*
X278153Y360000D02*
D03*
X278685Y272500D02*
D03*
X317843Y272000D02*
D03*
X354842Y272500D02*
D03*
D51*
X301500Y238000D02*
D03*
D52*
X319000Y117500D02*
D03*
D53*
X238000Y200000D02*
D03*
D54*
X118500Y80500D02*
D03*
X118000Y161500D02*
D03*
Y242000D02*
D03*
Y321000D02*
D03*
D55*
X340500Y14000D02*
D03*
Y37000D02*
D03*
Y60000D02*
D03*
Y83000D02*
D03*
Y106000D02*
D03*
Y129000D02*
D03*
Y152000D02*
D03*
Y175000D02*
D03*
Y198000D02*
D03*
Y221000D02*
D03*
X376000Y185500D02*
D03*
X258000Y14000D02*
D03*
Y37000D02*
D03*
Y60000D02*
D03*
Y83000D02*
D03*
Y106000D02*
D03*
Y129000D02*
D03*
Y152000D02*
D03*
Y175000D02*
D03*
Y198000D02*
D03*
Y221000D02*
D03*
X293500Y185500D02*
D03*
D56*
X356500Y148500D02*
D03*
X274000D02*
D03*
D57*
X356500Y138500D02*
D03*
Y128500D02*
D03*
Y118500D02*
D03*
Y108500D02*
D03*
Y98500D02*
D03*
Y88500D02*
D03*
Y78500D02*
D03*
X386500D02*
D03*
Y88500D02*
D03*
Y98500D02*
D03*
Y108500D02*
D03*
Y118500D02*
D03*
Y128500D02*
D03*
Y138500D02*
D03*
Y148500D02*
D03*
X274000Y138500D02*
D03*
Y128500D02*
D03*
Y118500D02*
D03*
Y108500D02*
D03*
Y98500D02*
D03*
Y88500D02*
D03*
Y78500D02*
D03*
X304000D02*
D03*
Y88500D02*
D03*
Y98500D02*
D03*
Y108500D02*
D03*
Y118500D02*
D03*
Y128500D02*
D03*
Y138500D02*
D03*
Y148500D02*
D03*
X139000Y125000D02*
D03*
X129000D02*
D03*
X119000D02*
D03*
X109000D02*
D03*
X99000D02*
D03*
X89000D02*
D03*
X79000D02*
D03*
Y95000D02*
D03*
X89000D02*
D03*
X99000D02*
D03*
X109000D02*
D03*
X119000D02*
D03*
X129000D02*
D03*
X139000D02*
D03*
X149000D02*
D03*
X138500Y206500D02*
D03*
X128500D02*
D03*
X118500D02*
D03*
X108500D02*
D03*
X98500D02*
D03*
X88500D02*
D03*
X78500D02*
D03*
Y176500D02*
D03*
X88500D02*
D03*
X98500D02*
D03*
X108500D02*
D03*
X118500D02*
D03*
X128500D02*
D03*
X138500D02*
D03*
X148500D02*
D03*
X138500Y285500D02*
D03*
X128500D02*
D03*
X118500D02*
D03*
X108500D02*
D03*
X98500D02*
D03*
X88500D02*
D03*
X78500D02*
D03*
Y255500D02*
D03*
X88500D02*
D03*
X98500D02*
D03*
X108500D02*
D03*
X118500D02*
D03*
X128500D02*
D03*
X138500D02*
D03*
X148500D02*
D03*
X138000Y364500D02*
D03*
X128000D02*
D03*
X118000D02*
D03*
X108000D02*
D03*
X98000D02*
D03*
X88000D02*
D03*
X78000D02*
D03*
Y334500D02*
D03*
X88000D02*
D03*
X98000D02*
D03*
X108000D02*
D03*
X118000D02*
D03*
X128000D02*
D03*
X138000D02*
D03*
X148000D02*
D03*
X139000Y44197D02*
D03*
X129000D02*
D03*
X119000D02*
D03*
X109000D02*
D03*
X99000D02*
D03*
X89000D02*
D03*
X79000D02*
D03*
Y14197D02*
D03*
X89000D02*
D03*
X99000D02*
D03*
X109000D02*
D03*
X119000D02*
D03*
X129000D02*
D03*
X139000D02*
D03*
X149000D02*
D03*
D58*
X381500Y13500D02*
D03*
X299000D02*
D03*
D59*
X14500Y141000D02*
D03*
X37500D02*
D03*
X60500D02*
D03*
X83500D02*
D03*
X106500D02*
D03*
X129500D02*
D03*
X152500D02*
D03*
X175500D02*
D03*
X198500D02*
D03*
X221500D02*
D03*
X186000Y105500D02*
D03*
X14000Y222500D02*
D03*
X37000D02*
D03*
X60000D02*
D03*
X83000D02*
D03*
X106000D02*
D03*
X129000D02*
D03*
X152000D02*
D03*
X175000D02*
D03*
X198000D02*
D03*
X221000D02*
D03*
X185500Y187000D02*
D03*
X14000Y301500D02*
D03*
X37000D02*
D03*
X60000D02*
D03*
X83000D02*
D03*
X106000D02*
D03*
X129000D02*
D03*
X152000D02*
D03*
X175000D02*
D03*
X198000D02*
D03*
X221000D02*
D03*
X185500Y266000D02*
D03*
X13500Y380500D02*
D03*
X36500D02*
D03*
X59500D02*
D03*
X82500D02*
D03*
X105500D02*
D03*
X128500D02*
D03*
X151500D02*
D03*
X174500D02*
D03*
X197500D02*
D03*
X220500D02*
D03*
X185000Y345000D02*
D03*
X186000Y24697D02*
D03*
X221500Y60197D02*
D03*
X198500D02*
D03*
X175500D02*
D03*
X152500D02*
D03*
X129500D02*
D03*
X106500D02*
D03*
X83500D02*
D03*
X60500D02*
D03*
X37500D02*
D03*
X14500D02*
D03*
D60*
X149000Y125000D02*
D03*
X148500Y206500D02*
D03*
Y285500D02*
D03*
X148000Y364500D02*
D03*
X149000Y44197D02*
D03*
D61*
X14000Y100000D02*
D03*
X13500Y181500D02*
D03*
Y260500D02*
D03*
X13000Y339500D02*
D03*
X14000Y19197D02*
D03*
M02*
