G04 Layer_Physical_Order=2*
G04 Layer_Color=16711680*
%FSLAX25Y25*%
%MOIN*%
G70*
G01*
G75*
%ADD10C,0.03000*%
%ADD11C,0.02000*%
%ADD12R,1.18110X0.03937*%
%ADD13C,0.05512*%
%ADD14C,0.05905*%
%ADD15R,0.07874X0.07874*%
%ADD16C,0.07874*%
%ADD17R,0.05827X0.05827*%
%ADD18C,0.05827*%
%ADD19C,0.05315*%
%ADD20R,0.05315X0.05315*%
%ADD21R,1.18110X0.02756*%
%ADD22R,0.02756X2.28347*%
%ADD23R,0.02756X3.93701*%
%ADD24R,2.28347X0.02756*%
%ADD25R,0.05905X0.05905*%
%ADD26R,0.06600X0.06600*%
%ADD27C,0.06600*%
%ADD28R,0.07480X0.07480*%
%ADD29R,0.05905X0.05905*%
%ADD30R,0.06600X0.06600*%
%ADD31R,0.07480X0.07480*%
G36*
X347363Y349491D02*
X349069Y347629D01*
X348959Y345105D01*
X347097Y343399D01*
X344574Y343509D01*
X342867Y345371D01*
X342978Y347895D01*
X344840Y349601D01*
X347363Y349491D01*
D02*
G37*
G36*
X271363D02*
X273070Y347629D01*
X272959Y345105D01*
X271097Y343399D01*
X268574Y343509D01*
X266867Y345371D01*
X266978Y347895D01*
X268840Y349601D01*
X271363Y349491D01*
D02*
G37*
G36*
X308363Y348991D02*
X310069Y347129D01*
X309959Y344605D01*
X308097Y342899D01*
X305574Y343009D01*
X303868Y344871D01*
X303978Y347395D01*
X305840Y349101D01*
X308363Y348991D01*
D02*
G37*
G36*
X352363Y341991D02*
X354069Y340129D01*
X353959Y337605D01*
X352097Y335899D01*
X349574Y336009D01*
X347867Y337871D01*
X347978Y340395D01*
X349840Y342101D01*
X352363Y341991D01*
D02*
G37*
G36*
X342363D02*
X344070Y340129D01*
X343959Y337605D01*
X342097Y335899D01*
X339574Y336009D01*
X337867Y337871D01*
X337978Y340395D01*
X339840Y342101D01*
X342363Y341991D01*
D02*
G37*
G36*
X276363D02*
X278069Y340129D01*
X277959Y337605D01*
X276097Y335899D01*
X273574Y336009D01*
X271867Y337871D01*
X271978Y340395D01*
X273840Y342101D01*
X276363Y341991D01*
D02*
G37*
G36*
X266363D02*
X268070Y340129D01*
X267959Y337605D01*
X266097Y335899D01*
X263574Y336009D01*
X261867Y337871D01*
X261978Y340395D01*
X263840Y342101D01*
X266363Y341991D01*
D02*
G37*
G36*
X313363Y341491D02*
X315070Y339629D01*
X314959Y337105D01*
X313097Y335399D01*
X310574Y335509D01*
X308868Y337371D01*
X308978Y339895D01*
X310840Y341601D01*
X313363Y341491D01*
D02*
G37*
G36*
X303363D02*
X305069Y339629D01*
X304959Y337105D01*
X303097Y335399D01*
X300574Y335509D01*
X298868Y337371D01*
X298978Y339895D01*
X300840Y341601D01*
X303363Y341491D01*
D02*
G37*
G36*
X347895Y261991D02*
X349601Y260129D01*
X349491Y257605D01*
X347629Y255899D01*
X345105Y256009D01*
X343399Y257871D01*
X343509Y260395D01*
X345371Y262101D01*
X347895Y261991D01*
D02*
G37*
G36*
X271895D02*
X273601Y260129D01*
X273491Y257605D01*
X271629Y255899D01*
X269105Y256009D01*
X267399Y257871D01*
X267509Y260395D01*
X269371Y262101D01*
X271895Y261991D01*
D02*
G37*
G36*
X308895Y261491D02*
X310601Y259629D01*
X310491Y257105D01*
X308629Y255399D01*
X306105Y255509D01*
X304399Y257371D01*
X304509Y259895D01*
X306371Y261601D01*
X308895Y261491D01*
D02*
G37*
G36*
X352895Y254491D02*
X354601Y252629D01*
X354491Y250105D01*
X352629Y248399D01*
X350105Y248509D01*
X348399Y250371D01*
X348509Y252895D01*
X350371Y254601D01*
X352895Y254491D01*
D02*
G37*
G36*
X342895D02*
X344601Y252629D01*
X344491Y250105D01*
X342629Y248399D01*
X340105Y248509D01*
X338399Y250371D01*
X338509Y252895D01*
X340371Y254601D01*
X342895Y254491D01*
D02*
G37*
G36*
X276895D02*
X278601Y252629D01*
X278491Y250105D01*
X276629Y248399D01*
X274105Y248509D01*
X272399Y250371D01*
X272509Y252895D01*
X274371Y254601D01*
X276895Y254491D01*
D02*
G37*
G36*
X266895D02*
X268601Y252629D01*
X268491Y250105D01*
X266629Y248399D01*
X264105Y248509D01*
X262399Y250371D01*
X262509Y252895D01*
X264371Y254601D01*
X266895Y254491D01*
D02*
G37*
G36*
X313895Y253991D02*
X315601Y252129D01*
X315491Y249605D01*
X313629Y247899D01*
X311105Y248009D01*
X309399Y249871D01*
X309509Y252395D01*
X311371Y254101D01*
X313895Y253991D01*
D02*
G37*
G36*
X303895D02*
X305601Y252129D01*
X305491Y249605D01*
X303629Y247899D01*
X301105Y248009D01*
X299399Y249871D01*
X299509Y252395D01*
X301371Y254101D01*
X303895Y253991D01*
D02*
G37*
D10*
X325969Y348500D02*
Y350842D01*
X317311Y359500D02*
X325969Y350842D01*
X278153Y357315D02*
X287968Y347500D01*
X278153Y357315D02*
Y360000D01*
X245468Y349000D02*
X249468Y345000D01*
X245468Y349000D02*
Y359500D01*
X250969Y365000D01*
Y385000D01*
X336469Y378500D02*
X344969Y387000D01*
X325969Y378500D02*
X336469D01*
X317469Y387000D02*
X325969Y378500D01*
X305968Y387000D02*
X317469D01*
X296468Y377500D02*
X305968Y387000D01*
X287968Y377500D02*
X296468D01*
X278468Y387000D02*
X287968Y377500D01*
X268969Y387000D02*
X278468D01*
X266968Y385000D02*
X268969Y387000D01*
X250969Y385000D02*
X266968D01*
X256968Y331000D02*
X293969D01*
X253468D02*
X256968D01*
X264968Y339000D01*
X293969Y331000D02*
X332968D01*
X293969D02*
X301468Y338500D01*
X301969D01*
X332968Y331000D02*
X340968Y339000D01*
X249468Y335000D02*
X253468Y331000D01*
X345969Y346500D02*
Y348657D01*
X334626Y360000D02*
X345969Y348657D01*
X306968Y346000D02*
Y350157D01*
X297626Y359500D02*
X306968Y350157D01*
X269969Y346500D02*
Y348500D01*
X258469Y360000D02*
X269969Y348500D01*
X334626Y360000D02*
X344969Y370342D01*
Y377000D01*
X297626Y359500D02*
X305968Y367843D01*
Y377000D01*
X258469Y360000D02*
X268969Y370500D01*
Y377000D01*
X269500Y283000D02*
Y289500D01*
X259000Y272500D02*
X269500Y283000D01*
X306500Y280343D02*
Y289500D01*
X298158Y272000D02*
X306500Y280343D01*
X345500Y282842D02*
Y289500D01*
X335157Y272500D02*
X345500Y282842D01*
X259000Y272500D02*
X270500Y261000D01*
Y259000D02*
Y261000D01*
X298158Y272000D02*
X307500Y262657D01*
Y258500D02*
Y262657D01*
X335157Y272500D02*
X346500Y261157D01*
Y259000D02*
Y261157D01*
X250000Y247500D02*
X254000Y243500D01*
X333500D02*
X341500Y251500D01*
X302000Y251000D02*
X302500D01*
X294500Y243500D02*
X302000Y251000D01*
X294500Y243500D02*
X333500D01*
X257500D02*
X265500Y251500D01*
X254000Y243500D02*
X257500D01*
X294500D01*
X251500Y297500D02*
X267500D01*
X269500Y299500D01*
X279000D01*
X288500Y290000D01*
X297000D01*
X306500Y299500D01*
X318000D01*
X326500Y291000D01*
X337000D01*
X345500Y299500D01*
X251500Y277500D02*
Y297500D01*
X246000Y272000D02*
X251500Y277500D01*
X246000Y261500D02*
Y272000D01*
Y261500D02*
X250000Y257500D01*
X278685Y269815D02*
Y272500D01*
Y269815D02*
X288500Y260000D01*
X317843Y272000D02*
X326500Y263342D01*
Y261000D02*
Y263342D01*
D11*
X356500Y49000D02*
Y78500D01*
X330500Y83000D02*
Y106000D01*
Y60000D02*
Y83000D01*
Y106000D02*
Y129000D01*
Y37000D02*
Y60000D01*
Y129000D02*
Y152000D01*
Y175000D01*
Y198000D01*
Y221000D01*
Y14000D02*
Y37000D01*
X381200Y123800D02*
X386500Y118500D01*
X381200Y123800D02*
Y133200D01*
X386500Y138500D01*
X348453Y120453D02*
X356500Y128500D01*
X348453Y21953D02*
Y120453D01*
X340500Y14000D02*
X348453Y21953D01*
X376000Y159000D02*
X386500Y148500D01*
X376000Y159000D02*
Y185500D01*
X340500Y152000D02*
X344300D01*
X358500Y26500D02*
X371500Y13500D01*
X358500Y26500D02*
Y47000D01*
X374300Y20700D02*
X381500Y13500D01*
X374300Y20700D02*
Y136300D01*
X386500Y148500D01*
X349600Y141600D02*
X356500Y148500D01*
X349600Y138100D02*
Y141600D01*
X340500Y129000D02*
X349600Y138100D01*
X335500Y101000D02*
X340500Y106000D01*
X335500Y10000D02*
Y101000D01*
X390600Y12000D02*
Y19300D01*
X381200Y28700D02*
X390600Y19300D01*
X381200Y28700D02*
Y83200D01*
X386500Y88500D01*
X340500Y37000D02*
X345453Y41953D01*
Y127453D01*
X356500Y138500D01*
X388500Y47000D02*
X392500Y51000D01*
Y122500D01*
X386500Y128500D02*
X392500Y122500D01*
X386000Y213500D02*
X392200Y207300D01*
Y144200D02*
Y207300D01*
X386500Y138500D02*
X392200Y144200D01*
X356500Y98500D02*
X367000Y109000D01*
X340500Y175000D02*
X356500Y159000D01*
X363000D01*
X367000Y155000D01*
Y109000D02*
Y155000D01*
X356500Y108500D02*
X364000Y116000D01*
Y153757D01*
X361757Y156000D02*
X364000Y153757D01*
X348300Y156000D02*
X361757D01*
X344300Y152000D02*
X348300Y156000D01*
X356500Y49000D02*
X358500Y47000D01*
X384600Y6000D02*
X390600Y12000D01*
X339500Y6000D02*
X384600D01*
X335500Y10000D02*
X339500Y6000D01*
X274000Y49000D02*
Y78500D01*
X248000Y83000D02*
Y106000D01*
Y60000D02*
Y83000D01*
Y106000D02*
Y129000D01*
Y37000D02*
Y60000D01*
Y129000D02*
Y152000D01*
Y175000D01*
Y198000D01*
Y221000D01*
Y14000D02*
Y37000D01*
X298700Y123800D02*
X304000Y118500D01*
X298700Y123800D02*
Y133200D01*
X304000Y138500D01*
X265953Y120453D02*
X274000Y128500D01*
X265953Y21953D02*
Y120453D01*
X258000Y14000D02*
X265953Y21953D01*
X293500Y159000D02*
X304000Y148500D01*
X293500Y159000D02*
Y185500D01*
X258000Y152000D02*
X261800D01*
X276000Y26500D02*
X289000Y13500D01*
X276000Y26500D02*
Y47000D01*
X291800Y20700D02*
X299000Y13500D01*
X291800Y20700D02*
Y136300D01*
X304000Y148500D01*
X267100Y141600D02*
X274000Y148500D01*
X267100Y138100D02*
Y141600D01*
X258000Y129000D02*
X267100Y138100D01*
X253000Y101000D02*
X258000Y106000D01*
X253000Y10000D02*
Y101000D01*
X308100Y12000D02*
Y19300D01*
X298700Y28700D02*
X308100Y19300D01*
X298700Y28700D02*
Y83200D01*
X304000Y88500D01*
X258000Y37000D02*
X262953Y41953D01*
Y127453D01*
X274000Y138500D01*
X306000Y47000D02*
X310000Y51000D01*
Y122500D01*
X304000Y128500D02*
X310000Y122500D01*
X303500Y213500D02*
X309700Y207300D01*
Y144200D02*
Y207300D01*
X304000Y138500D02*
X309700Y144200D01*
X274000Y98500D02*
X284500Y109000D01*
X258000Y175000D02*
X274000Y159000D01*
X280500D01*
X284500Y155000D01*
Y109000D02*
Y155000D01*
X274000Y108500D02*
X281500Y116000D01*
Y153757D01*
X279257Y156000D02*
X281500Y153757D01*
X265800Y156000D02*
X279257D01*
X261800Y152000D02*
X265800Y156000D01*
X274000Y49000D02*
X276000Y47000D01*
X302100Y6000D02*
X308100Y12000D01*
X257000Y6000D02*
X302100D01*
X253000Y10000D02*
X257000Y6000D01*
X49500Y125000D02*
X79000D01*
X83500Y151000D02*
X106500D01*
X60500D02*
X83500D01*
X106500D02*
X129500D01*
X37500D02*
X60500D01*
X129500D02*
X152500D01*
X175500D01*
X198500D01*
X221500D01*
X14500D02*
X37500D01*
X119000Y95000D02*
X124300Y100300D01*
X133700D01*
X139000Y95000D01*
X120953Y133047D02*
X129000Y125000D01*
X22453Y133047D02*
X120953D01*
X14500Y141000D02*
X22453Y133047D01*
X149000Y95000D02*
X159500Y105500D01*
X186000D01*
X152500Y137200D02*
Y141000D01*
X14000Y110000D02*
X27000Y123000D01*
X47500D01*
X14000Y100000D02*
X21200Y107200D01*
X136800D01*
X149000Y95000D01*
X142100Y131900D02*
X149000Y125000D01*
X138600Y131900D02*
X142100D01*
X129500Y141000D02*
X138600Y131900D01*
X101500Y146000D02*
X106500Y141000D01*
X10500Y146000D02*
X101500D01*
X12500Y90900D02*
X19800D01*
X29200Y100300D01*
X83700D01*
X89000Y95000D01*
X37500Y141000D02*
X42453Y136047D01*
X127953D01*
X139000Y125000D01*
X47500Y93000D02*
X51500Y89000D01*
X123000D01*
X129000Y95000D01*
X207800Y89300D02*
X214000Y95500D01*
X144700Y89300D02*
X207800D01*
X139000Y95000D02*
X144700Y89300D01*
X99000Y125000D02*
X109500Y114500D01*
X159500Y125000D02*
X175500Y141000D01*
X159500Y118500D02*
Y125000D01*
X155500Y114500D02*
X159500Y118500D01*
X109500Y114500D02*
X155500D01*
X109000Y125000D02*
X116500Y117500D01*
X154257D01*
X156500Y119743D01*
Y133200D01*
X152500Y137200D02*
X156500Y133200D01*
X47500Y123000D02*
X49500Y125000D01*
X6500Y96900D02*
X12500Y90900D01*
X6500Y96900D02*
Y142000D01*
X10500Y146000D01*
X49000Y206500D02*
X78500D01*
X83000Y232500D02*
X106000D01*
X60000D02*
X83000D01*
X106000D02*
X129000D01*
X37000D02*
X60000D01*
X129000D02*
X152000D01*
X175000D01*
X198000D01*
X221000D01*
X14000D02*
X37000D01*
X118500Y176500D02*
X123800Y181800D01*
X133200D01*
X138500Y176500D01*
X120453Y214547D02*
X128500Y206500D01*
X21953Y214547D02*
X120453D01*
X14000Y222500D02*
X21953Y214547D01*
X148500Y176500D02*
X159000Y187000D01*
X185500D01*
X152000Y218700D02*
Y222500D01*
X13500Y191500D02*
X26500Y204500D01*
X47000D01*
X13500Y181500D02*
X20700Y188700D01*
X136300D01*
X148500Y176500D01*
X141600Y213400D02*
X148500Y206500D01*
X138100Y213400D02*
X141600D01*
X129000Y222500D02*
X138100Y213400D01*
X101000Y227500D02*
X106000Y222500D01*
X10000Y227500D02*
X101000D01*
X12000Y172400D02*
X19300D01*
X28700Y181800D01*
X83200D01*
X88500Y176500D01*
X37000Y222500D02*
X41953Y217547D01*
X127453D01*
X138500Y206500D01*
X47000Y174500D02*
X51000Y170500D01*
X122500D01*
X128500Y176500D01*
X207300Y170800D02*
X213500Y177000D01*
X144200Y170800D02*
X207300D01*
X138500Y176500D02*
X144200Y170800D01*
X98500Y206500D02*
X109000Y196000D01*
X159000Y206500D02*
X175000Y222500D01*
X159000Y200000D02*
Y206500D01*
X155000Y196000D02*
X159000Y200000D01*
X109000Y196000D02*
X155000D01*
X108500Y206500D02*
X116000Y199000D01*
X153757D01*
X156000Y201243D01*
Y214700D01*
X152000Y218700D02*
X156000Y214700D01*
X47000Y204500D02*
X49000Y206500D01*
X6000Y178400D02*
X12000Y172400D01*
X6000Y178400D02*
Y223500D01*
X10000Y227500D01*
X49000Y285500D02*
X78500D01*
X83000Y311500D02*
X106000D01*
X60000D02*
X83000D01*
X106000D02*
X129000D01*
X37000D02*
X60000D01*
X129000D02*
X152000D01*
X175000D01*
X198000D01*
X221000D01*
X14000D02*
X37000D01*
X118500Y255500D02*
X123800Y260800D01*
X133200D01*
X138500Y255500D01*
X120453Y293547D02*
X128500Y285500D01*
X21953Y293547D02*
X120453D01*
X14000Y301500D02*
X21953Y293547D01*
X148500Y255500D02*
X159000Y266000D01*
X185500D01*
X152000Y297700D02*
Y301500D01*
X13500Y270500D02*
X26500Y283500D01*
X47000D01*
X13500Y260500D02*
X20700Y267700D01*
X136300D01*
X148500Y255500D01*
X141600Y292400D02*
X148500Y285500D01*
X138100Y292400D02*
X141600D01*
X129000Y301500D02*
X138100Y292400D01*
X101000Y306500D02*
X106000Y301500D01*
X10000Y306500D02*
X101000D01*
X12000Y251400D02*
X19300D01*
X28700Y260800D01*
X83200D01*
X88500Y255500D01*
X37000Y301500D02*
X41953Y296547D01*
X127453D01*
X138500Y285500D01*
X47000Y253500D02*
X51000Y249500D01*
X122500D01*
X128500Y255500D01*
X207300Y249800D02*
X213500Y256000D01*
X144200Y249800D02*
X207300D01*
X138500Y255500D02*
X144200Y249800D01*
X98500Y285500D02*
X109000Y275000D01*
X159000Y285500D02*
X175000Y301500D01*
X159000Y279000D02*
Y285500D01*
X155000Y275000D02*
X159000Y279000D01*
X109000Y275000D02*
X155000D01*
X108500Y285500D02*
X116000Y278000D01*
X153757D01*
X156000Y280243D01*
Y293700D01*
X152000Y297700D02*
X156000Y293700D01*
X47000Y283500D02*
X49000Y285500D01*
X6000Y257400D02*
X12000Y251400D01*
X6000Y257400D02*
Y302500D01*
X10000Y306500D01*
X48500Y364500D02*
X78000D01*
X82500Y390500D02*
X105500D01*
X59500D02*
X82500D01*
X105500D02*
X128500D01*
X36500D02*
X59500D01*
X128500D02*
X151500D01*
X174500D01*
X197500D01*
X220500D01*
X13500D02*
X36500D01*
X118000Y334500D02*
X123300Y339800D01*
X132700D01*
X138000Y334500D01*
X119953Y372547D02*
X128000Y364500D01*
X21453Y372547D02*
X119953D01*
X13500Y380500D02*
X21453Y372547D01*
X148000Y334500D02*
X158500Y345000D01*
X185000D01*
X151500Y376700D02*
Y380500D01*
X13000Y349500D02*
X26000Y362500D01*
X46500D01*
X13000Y339500D02*
X20200Y346700D01*
X135800D01*
X148000Y334500D01*
X141100Y371400D02*
X148000Y364500D01*
X137600Y371400D02*
X141100D01*
X128500Y380500D02*
X137600Y371400D01*
X100500Y385500D02*
X105500Y380500D01*
X9500Y385500D02*
X100500D01*
X11500Y330400D02*
X18800D01*
X28200Y339800D01*
X82700D01*
X88000Y334500D01*
X36500Y380500D02*
X41453Y375547D01*
X126953D01*
X138000Y364500D01*
X46500Y332500D02*
X50500Y328500D01*
X122000D01*
X128000Y334500D01*
X206800Y328800D02*
X213000Y335000D01*
X143700Y328800D02*
X206800D01*
X138000Y334500D02*
X143700Y328800D01*
X98000Y364500D02*
X108500Y354000D01*
X158500Y364500D02*
X174500Y380500D01*
X158500Y358000D02*
Y364500D01*
X154500Y354000D02*
X158500Y358000D01*
X108500Y354000D02*
X154500D01*
X108000Y364500D02*
X115500Y357000D01*
X153257D01*
X155500Y359243D01*
Y372700D01*
X151500Y376700D02*
X155500Y372700D01*
X46500Y362500D02*
X48500Y364500D01*
X5500Y336400D02*
X11500Y330400D01*
X5500Y336400D02*
Y381500D01*
X9500Y385500D01*
X6500Y61197D02*
X10500Y65197D01*
X6500Y16097D02*
Y61197D01*
Y16097D02*
X12500Y10097D01*
X47500Y42197D02*
X49500Y44197D01*
X152500Y56397D02*
X156500Y52397D01*
Y38939D02*
Y52397D01*
X154257Y36697D02*
X156500Y38939D01*
X116500Y36697D02*
X154257D01*
X109000Y44197D02*
X116500Y36697D01*
X109500Y33697D02*
X155500D01*
X159500Y37697D01*
Y44197D01*
X175500Y60197D01*
X99000Y44197D02*
X109500Y33697D01*
X139000Y14197D02*
X144700Y8497D01*
X207800D01*
X214000Y14697D01*
X123000Y8197D02*
X129000Y14197D01*
X51500Y8197D02*
X123000D01*
X47500Y12197D02*
X51500Y8197D01*
X127953Y55244D02*
X139000Y44197D01*
X42453Y55244D02*
X127953D01*
X37500Y60197D02*
X42453Y55244D01*
X83700Y19497D02*
X89000Y14197D01*
X29200Y19497D02*
X83700D01*
X19800Y10097D02*
X29200Y19497D01*
X12500Y10097D02*
X19800D01*
X10500Y65197D02*
X101500D01*
X106500Y60197D01*
X129500D02*
X138600Y51097D01*
X142100D01*
X149000Y44197D01*
X136800Y26397D02*
X149000Y14197D01*
X21200Y26397D02*
X136800D01*
X14000Y19197D02*
X21200Y26397D01*
X27000Y42197D02*
X47500D01*
X14000Y29197D02*
X27000Y42197D01*
X152500Y56397D02*
Y60197D01*
X159500Y24697D02*
X186000D01*
X149000Y14197D02*
X159500Y24697D01*
X14500Y60197D02*
X22453Y52244D01*
X120953D01*
X129000Y44197D01*
X133700Y19497D02*
X139000Y14197D01*
X124300Y19497D02*
X133700D01*
X119000Y14197D02*
X124300Y19497D01*
X14500Y70197D02*
X37500D01*
X198500D02*
X221500D01*
X175500D02*
X198500D01*
X152500D02*
X175500D01*
X129500D02*
X152500D01*
X37500D02*
X60500D01*
X106500D02*
X129500D01*
X60500D02*
X83500D01*
X106500D01*
X49500Y44197D02*
X79000D01*
D12*
X302000Y319500D02*
D03*
D13*
X325969Y378500D02*
D03*
Y348500D02*
D03*
X287968Y377500D02*
D03*
Y347500D02*
D03*
X250969Y385000D02*
D03*
Y355000D02*
D03*
X251500Y297500D02*
D03*
Y267500D02*
D03*
X288500Y290000D02*
D03*
Y260000D02*
D03*
X326500Y291000D02*
D03*
Y261000D02*
D03*
D14*
X350969Y339000D02*
D03*
X345969Y346500D02*
D03*
X340968Y339000D02*
D03*
X311968Y338500D02*
D03*
X306968Y346000D02*
D03*
X301969Y338500D02*
D03*
X274969Y339000D02*
D03*
X269969Y346500D02*
D03*
X264968Y339000D02*
D03*
X275500Y251500D02*
D03*
X270500Y259000D02*
D03*
X265500Y251500D02*
D03*
X312500Y251000D02*
D03*
X307500Y258500D02*
D03*
X302500Y251000D02*
D03*
X351500Y251500D02*
D03*
X346500Y259000D02*
D03*
X341500Y251500D02*
D03*
X388500Y47000D02*
D03*
X358500D02*
D03*
X330500Y14000D02*
D03*
Y37000D02*
D03*
Y60000D02*
D03*
Y83000D02*
D03*
Y106000D02*
D03*
Y129000D02*
D03*
Y152000D02*
D03*
Y175000D02*
D03*
Y198000D02*
D03*
Y221000D02*
D03*
X356000Y213500D02*
D03*
X386000D02*
D03*
X366000Y185500D02*
D03*
X306000Y47000D02*
D03*
X276000D02*
D03*
X248000Y14000D02*
D03*
Y37000D02*
D03*
Y60000D02*
D03*
Y83000D02*
D03*
Y106000D02*
D03*
Y129000D02*
D03*
Y152000D02*
D03*
Y175000D02*
D03*
Y198000D02*
D03*
Y221000D02*
D03*
X273500Y213500D02*
D03*
X303500D02*
D03*
X283500Y185500D02*
D03*
X47500Y93000D02*
D03*
Y123000D02*
D03*
X14500Y151000D02*
D03*
X37500D02*
D03*
X60500D02*
D03*
X83500D02*
D03*
X106500D02*
D03*
X129500D02*
D03*
X152500D02*
D03*
X175500D02*
D03*
X198500D02*
D03*
X221500D02*
D03*
X214000Y125500D02*
D03*
Y95500D02*
D03*
X186000Y115500D02*
D03*
X47000Y174500D02*
D03*
Y204500D02*
D03*
X14000Y232500D02*
D03*
X37000D02*
D03*
X60000D02*
D03*
X83000D02*
D03*
X106000D02*
D03*
X129000D02*
D03*
X152000D02*
D03*
X175000D02*
D03*
X198000D02*
D03*
X221000D02*
D03*
X213500Y207000D02*
D03*
Y177000D02*
D03*
X185500Y197000D02*
D03*
X47000Y253500D02*
D03*
Y283500D02*
D03*
X14000Y311500D02*
D03*
X37000D02*
D03*
X60000D02*
D03*
X83000D02*
D03*
X106000D02*
D03*
X129000D02*
D03*
X152000D02*
D03*
X175000D02*
D03*
X198000D02*
D03*
X221000D02*
D03*
X213500Y286000D02*
D03*
Y256000D02*
D03*
X185500Y276000D02*
D03*
X46500Y332500D02*
D03*
Y362500D02*
D03*
X13500Y390500D02*
D03*
X36500D02*
D03*
X59500D02*
D03*
X82500D02*
D03*
X105500D02*
D03*
X128500D02*
D03*
X151500D02*
D03*
X174500D02*
D03*
X197500D02*
D03*
X220500D02*
D03*
X213000Y365000D02*
D03*
Y335000D02*
D03*
X185000Y355000D02*
D03*
X214000Y44697D02*
D03*
Y14697D02*
D03*
X186000Y34697D02*
D03*
X47500Y12197D02*
D03*
Y42197D02*
D03*
X221500Y70197D02*
D03*
X198500D02*
D03*
X175500D02*
D03*
X152500D02*
D03*
X129500D02*
D03*
X106500D02*
D03*
X83500D02*
D03*
X60500D02*
D03*
X37500D02*
D03*
X14500D02*
D03*
D15*
X249468Y345000D02*
D03*
X250000Y257500D02*
D03*
D16*
X249468Y335000D02*
D03*
X250000Y247500D02*
D03*
X371500Y13500D02*
D03*
X289000D02*
D03*
X14000Y110000D02*
D03*
X13500Y191500D02*
D03*
Y270500D02*
D03*
X13000Y349500D02*
D03*
X14000Y29197D02*
D03*
D17*
X344969Y387000D02*
D03*
X305968D02*
D03*
X268969D02*
D03*
X269500Y299500D02*
D03*
X306500D02*
D03*
X345500D02*
D03*
D18*
X344969Y377000D02*
D03*
X305968D02*
D03*
X268969D02*
D03*
X269500Y289500D02*
D03*
X306500D02*
D03*
X345500D02*
D03*
D19*
X334626Y360000D02*
D03*
X297626Y359500D02*
D03*
X258469Y360000D02*
D03*
X259000Y272500D02*
D03*
X298158Y272000D02*
D03*
X335157Y272500D02*
D03*
D20*
X354311Y360000D02*
D03*
X317311Y359500D02*
D03*
X278153Y360000D02*
D03*
X278685Y272500D02*
D03*
X317843Y272000D02*
D03*
X354842Y272500D02*
D03*
D21*
X301500Y238000D02*
D03*
D22*
X319000Y117500D02*
D03*
D23*
X238000Y200000D02*
D03*
D24*
X118500Y80500D02*
D03*
X118000Y161500D02*
D03*
Y242000D02*
D03*
Y321000D02*
D03*
D25*
X340500Y14000D02*
D03*
Y37000D02*
D03*
Y60000D02*
D03*
Y83000D02*
D03*
Y106000D02*
D03*
Y129000D02*
D03*
Y152000D02*
D03*
Y175000D02*
D03*
Y198000D02*
D03*
Y221000D02*
D03*
X376000Y185500D02*
D03*
X258000Y14000D02*
D03*
Y37000D02*
D03*
Y60000D02*
D03*
Y83000D02*
D03*
Y106000D02*
D03*
Y129000D02*
D03*
Y152000D02*
D03*
Y175000D02*
D03*
Y198000D02*
D03*
Y221000D02*
D03*
X293500Y185500D02*
D03*
D26*
X356500Y148500D02*
D03*
X274000D02*
D03*
D27*
X356500Y138500D02*
D03*
Y128500D02*
D03*
Y118500D02*
D03*
Y108500D02*
D03*
Y98500D02*
D03*
Y88500D02*
D03*
Y78500D02*
D03*
X386500D02*
D03*
Y88500D02*
D03*
Y98500D02*
D03*
Y108500D02*
D03*
Y118500D02*
D03*
Y128500D02*
D03*
Y138500D02*
D03*
Y148500D02*
D03*
X274000Y138500D02*
D03*
Y128500D02*
D03*
Y118500D02*
D03*
Y108500D02*
D03*
Y98500D02*
D03*
Y88500D02*
D03*
Y78500D02*
D03*
X304000D02*
D03*
Y88500D02*
D03*
Y98500D02*
D03*
Y108500D02*
D03*
Y118500D02*
D03*
Y128500D02*
D03*
Y138500D02*
D03*
Y148500D02*
D03*
X139000Y125000D02*
D03*
X129000D02*
D03*
X119000D02*
D03*
X109000D02*
D03*
X99000D02*
D03*
X89000D02*
D03*
X79000D02*
D03*
Y95000D02*
D03*
X89000D02*
D03*
X99000D02*
D03*
X109000D02*
D03*
X119000D02*
D03*
X129000D02*
D03*
X139000D02*
D03*
X149000D02*
D03*
X138500Y206500D02*
D03*
X128500D02*
D03*
X118500D02*
D03*
X108500D02*
D03*
X98500D02*
D03*
X88500D02*
D03*
X78500D02*
D03*
Y176500D02*
D03*
X88500D02*
D03*
X98500D02*
D03*
X108500D02*
D03*
X118500D02*
D03*
X128500D02*
D03*
X138500D02*
D03*
X148500D02*
D03*
X138500Y285500D02*
D03*
X128500D02*
D03*
X118500D02*
D03*
X108500D02*
D03*
X98500D02*
D03*
X88500D02*
D03*
X78500D02*
D03*
Y255500D02*
D03*
X88500D02*
D03*
X98500D02*
D03*
X108500D02*
D03*
X118500D02*
D03*
X128500D02*
D03*
X138500D02*
D03*
X148500D02*
D03*
X138000Y364500D02*
D03*
X128000D02*
D03*
X118000D02*
D03*
X108000D02*
D03*
X98000D02*
D03*
X88000D02*
D03*
X78000D02*
D03*
Y334500D02*
D03*
X88000D02*
D03*
X98000D02*
D03*
X108000D02*
D03*
X118000D02*
D03*
X128000D02*
D03*
X138000D02*
D03*
X148000D02*
D03*
X139000Y44197D02*
D03*
X129000D02*
D03*
X119000D02*
D03*
X109000D02*
D03*
X99000D02*
D03*
X89000D02*
D03*
X79000D02*
D03*
Y14197D02*
D03*
X89000D02*
D03*
X99000D02*
D03*
X109000D02*
D03*
X119000D02*
D03*
X129000D02*
D03*
X139000D02*
D03*
X149000D02*
D03*
D28*
X381500Y13500D02*
D03*
X299000D02*
D03*
D29*
X14500Y141000D02*
D03*
X37500D02*
D03*
X60500D02*
D03*
X83500D02*
D03*
X106500D02*
D03*
X129500D02*
D03*
X152500D02*
D03*
X175500D02*
D03*
X198500D02*
D03*
X221500D02*
D03*
X186000Y105500D02*
D03*
X14000Y222500D02*
D03*
X37000D02*
D03*
X60000D02*
D03*
X83000D02*
D03*
X106000D02*
D03*
X129000D02*
D03*
X152000D02*
D03*
X175000D02*
D03*
X198000D02*
D03*
X221000D02*
D03*
X185500Y187000D02*
D03*
X14000Y301500D02*
D03*
X37000D02*
D03*
X60000D02*
D03*
X83000D02*
D03*
X106000D02*
D03*
X129000D02*
D03*
X152000D02*
D03*
X175000D02*
D03*
X198000D02*
D03*
X221000D02*
D03*
X185500Y266000D02*
D03*
X13500Y380500D02*
D03*
X36500D02*
D03*
X59500D02*
D03*
X82500D02*
D03*
X105500D02*
D03*
X128500D02*
D03*
X151500D02*
D03*
X174500D02*
D03*
X197500D02*
D03*
X220500D02*
D03*
X185000Y345000D02*
D03*
X186000Y24697D02*
D03*
X221500Y60197D02*
D03*
X198500D02*
D03*
X175500D02*
D03*
X152500D02*
D03*
X129500D02*
D03*
X106500D02*
D03*
X83500D02*
D03*
X60500D02*
D03*
X37500D02*
D03*
X14500D02*
D03*
D30*
X149000Y125000D02*
D03*
X148500Y206500D02*
D03*
Y285500D02*
D03*
X148000Y364500D02*
D03*
X149000Y44197D02*
D03*
D31*
X14000Y100000D02*
D03*
X13500Y181500D02*
D03*
Y260500D02*
D03*
X13000Y339500D02*
D03*
X14000Y19197D02*
D03*
M02*
