G04 Layer_Color=65535*
%FSLAX25Y25*%
%MOIN*%
G70*
G01*
G75*
%ADD32C,0.00800*%
%ADD33C,0.01000*%
%ADD34C,0.00787*%
%ADD35C,0.00000*%
%ADD36C,0.00600*%
%ADD37C,0.00591*%
%ADD38C,0.00394*%
%ADD39C,0.01575*%
%ADD40C,0.01772*%
%ADD41C,0.01181*%
D32*
X340425Y348036D02*
G03*
X337717Y332680I5321J-8855D01*
G01*
X354205Y332663D02*
G03*
X351492Y348048I-7811J6555D01*
G01*
X301425Y347536D02*
G03*
X298717Y332180I5321J-8855D01*
G01*
X315205Y332163D02*
G03*
X312492Y347549I-7811J6555D01*
G01*
X264425Y348036D02*
G03*
X261717Y332680I5321J-8855D01*
G01*
X278205Y332663D02*
G03*
X275492Y348048I-7811J6555D01*
G01*
X264957Y260536D02*
G03*
X262249Y245180I5321J-8855D01*
G01*
X278736Y245163D02*
G03*
X276023Y260548I-7811J6555D01*
G01*
X301957Y260036D02*
G03*
X299249Y244680I5321J-8855D01*
G01*
X315736Y244663D02*
G03*
X313023Y260049I-7811J6555D01*
G01*
X340957Y260536D02*
G03*
X338249Y245180I5321J-8855D01*
G01*
X354736Y245163D02*
G03*
X352023Y260548I-7811J6555D01*
G01*
X337701Y332701D02*
X354236D01*
X298701Y332201D02*
X315236D01*
X261701Y332701D02*
X278236D01*
X262232Y245201D02*
X278768D01*
X299232Y244701D02*
X315768D01*
X338232Y245201D02*
X354768D01*
D33*
X356583Y382000D02*
G03*
X356583Y382000I-11614J0D01*
G01*
X317583D02*
G03*
X317583Y382000I-11614J0D01*
G01*
X280583D02*
G03*
X280583Y382000I-11614J0D01*
G01*
X281114Y294500D02*
G03*
X281114Y294500I-11614J0D01*
G01*
X318114D02*
G03*
X318114Y294500I-11614J0D01*
G01*
X357114D02*
G03*
X357114Y294500I-11614J0D01*
G01*
X345933Y14000D02*
G03*
X345933Y14000I-10433J0D01*
G01*
Y37000D02*
G03*
X345933Y37000I-10433J0D01*
G01*
Y60000D02*
G03*
X345933Y60000I-10433J0D01*
G01*
Y83000D02*
G03*
X345933Y83000I-10433J0D01*
G01*
Y106000D02*
G03*
X345933Y106000I-10433J0D01*
G01*
Y129000D02*
G03*
X345933Y129000I-10433J0D01*
G01*
Y152000D02*
G03*
X345933Y152000I-10433J0D01*
G01*
Y175000D02*
G03*
X345933Y175000I-10433J0D01*
G01*
Y198000D02*
G03*
X345933Y198000I-10433J0D01*
G01*
Y221000D02*
G03*
X345933Y221000I-10433J0D01*
G01*
X381433Y185500D02*
G03*
X381433Y185500I-10433J0D01*
G01*
X372000Y149000D02*
G03*
X375500Y152000I250J3250D01*
G01*
X368500D02*
G03*
X372000Y149000I3250J250D01*
G01*
X263433Y14000D02*
G03*
X263433Y14000I-10433J0D01*
G01*
Y37000D02*
G03*
X263433Y37000I-10433J0D01*
G01*
Y60000D02*
G03*
X263433Y60000I-10433J0D01*
G01*
Y83000D02*
G03*
X263433Y83000I-10433J0D01*
G01*
Y106000D02*
G03*
X263433Y106000I-10433J0D01*
G01*
Y129000D02*
G03*
X263433Y129000I-10433J0D01*
G01*
Y152000D02*
G03*
X263433Y152000I-10433J0D01*
G01*
Y175000D02*
G03*
X263433Y175000I-10433J0D01*
G01*
Y198000D02*
G03*
X263433Y198000I-10433J0D01*
G01*
Y221000D02*
G03*
X263433Y221000I-10433J0D01*
G01*
X298933Y185500D02*
G03*
X298933Y185500I-10433J0D01*
G01*
X289500Y149000D02*
G03*
X293000Y152000I250J3250D01*
G01*
X286000D02*
G03*
X289500Y149000I3250J250D01*
G01*
X24933Y146000D02*
G03*
X24933Y146000I-10433J0D01*
G01*
X47933D02*
G03*
X47933Y146000I-10433J0D01*
G01*
X70933D02*
G03*
X70933Y146000I-10433J0D01*
G01*
X93933D02*
G03*
X93933Y146000I-10433J0D01*
G01*
X116933D02*
G03*
X116933Y146000I-10433J0D01*
G01*
X139933D02*
G03*
X139933Y146000I-10433J0D01*
G01*
X162933D02*
G03*
X162933Y146000I-10433J0D01*
G01*
X185933D02*
G03*
X185933Y146000I-10433J0D01*
G01*
X208933D02*
G03*
X208933Y146000I-10433J0D01*
G01*
X231933D02*
G03*
X231933Y146000I-10433J0D01*
G01*
X196433Y110500D02*
G03*
X196433Y110500I-10433J0D01*
G01*
X149500Y109500D02*
G03*
X152500Y106000I3250J-250D01*
G01*
Y113000D02*
G03*
X149500Y109500I250J-3250D01*
G01*
X24433Y227500D02*
G03*
X24433Y227500I-10433J0D01*
G01*
X47433D02*
G03*
X47433Y227500I-10433J0D01*
G01*
X70433D02*
G03*
X70433Y227500I-10433J0D01*
G01*
X93433D02*
G03*
X93433Y227500I-10433J0D01*
G01*
X116433D02*
G03*
X116433Y227500I-10433J0D01*
G01*
X139433D02*
G03*
X139433Y227500I-10433J0D01*
G01*
X162433D02*
G03*
X162433Y227500I-10433J0D01*
G01*
X185433D02*
G03*
X185433Y227500I-10433J0D01*
G01*
X208433D02*
G03*
X208433Y227500I-10433J0D01*
G01*
X231433D02*
G03*
X231433Y227500I-10433J0D01*
G01*
X195933Y192000D02*
G03*
X195933Y192000I-10433J0D01*
G01*
X149000Y191000D02*
G03*
X152000Y187500I3250J-250D01*
G01*
Y194500D02*
G03*
X149000Y191000I250J-3250D01*
G01*
X24433Y306500D02*
G03*
X24433Y306500I-10433J0D01*
G01*
X47433D02*
G03*
X47433Y306500I-10433J0D01*
G01*
X70433D02*
G03*
X70433Y306500I-10433J0D01*
G01*
X93433D02*
G03*
X93433Y306500I-10433J0D01*
G01*
X116433D02*
G03*
X116433Y306500I-10433J0D01*
G01*
X139433D02*
G03*
X139433Y306500I-10433J0D01*
G01*
X162433D02*
G03*
X162433Y306500I-10433J0D01*
G01*
X185433D02*
G03*
X185433Y306500I-10433J0D01*
G01*
X208433D02*
G03*
X208433Y306500I-10433J0D01*
G01*
X231433D02*
G03*
X231433Y306500I-10433J0D01*
G01*
X195933Y271000D02*
G03*
X195933Y271000I-10433J0D01*
G01*
X149000Y270000D02*
G03*
X152000Y266500I3250J-250D01*
G01*
Y273500D02*
G03*
X149000Y270000I250J-3250D01*
G01*
X23933Y385500D02*
G03*
X23933Y385500I-10433J0D01*
G01*
X46933D02*
G03*
X46933Y385500I-10433J0D01*
G01*
X69933D02*
G03*
X69933Y385500I-10433J0D01*
G01*
X92933D02*
G03*
X92933Y385500I-10433J0D01*
G01*
X115933D02*
G03*
X115933Y385500I-10433J0D01*
G01*
X138933D02*
G03*
X138933Y385500I-10433J0D01*
G01*
X161933D02*
G03*
X161933Y385500I-10433J0D01*
G01*
X184933D02*
G03*
X184933Y385500I-10433J0D01*
G01*
X207933D02*
G03*
X207933Y385500I-10433J0D01*
G01*
X230933D02*
G03*
X230933Y385500I-10433J0D01*
G01*
X195433Y350000D02*
G03*
X195433Y350000I-10433J0D01*
G01*
X148500Y349000D02*
G03*
X151500Y345500I3250J-250D01*
G01*
Y352500D02*
G03*
X148500Y349000I250J-3250D01*
G01*
X152500Y32197D02*
G03*
X149500Y28697I250J-3250D01*
G01*
D02*
G03*
X152500Y25197I3250J-250D01*
G01*
X196433Y29697D02*
G03*
X196433Y29697I-10433J0D01*
G01*
X231933Y65197D02*
G03*
X231933Y65197I-10433J0D01*
G01*
X208933D02*
G03*
X208933Y65197I-10433J0D01*
G01*
X185933D02*
G03*
X185933Y65197I-10433J0D01*
G01*
X162933D02*
G03*
X162933Y65197I-10433J0D01*
G01*
X139933D02*
G03*
X139933Y65197I-10433J0D01*
G01*
X116933D02*
G03*
X116933Y65197I-10433J0D01*
G01*
X93933D02*
G03*
X93933Y65197I-10433J0D01*
G01*
X70933D02*
G03*
X70933Y65197I-10433J0D01*
G01*
X47933D02*
G03*
X47933Y65197I-10433J0D01*
G01*
X24933D02*
G03*
X24933Y65197I-10433J0D01*
G01*
X242469Y328000D02*
X361469D01*
Y396500D01*
X242469D02*
X361469D01*
X242469Y328000D02*
Y396500D01*
X243000Y240500D02*
Y309000D01*
X362000D01*
Y240500D02*
Y309000D01*
X243000Y240500D02*
X362000D01*
X323197Y2500D02*
X398000D01*
X323197D02*
Y235000D01*
X398000D01*
Y2500D02*
Y235000D01*
X240697Y2500D02*
X315500D01*
X240697D02*
Y235000D01*
X315500D01*
Y2500D02*
Y235000D01*
X3000Y83500D02*
Y158303D01*
X235500D01*
Y83500D02*
Y158303D01*
X3000Y83500D02*
X235500D01*
X2500Y165000D02*
Y239803D01*
X235000D01*
Y165000D02*
Y239803D01*
X2500Y165000D02*
X235000D01*
X2500Y244000D02*
Y318803D01*
X235000D01*
Y244000D02*
Y318803D01*
X2500Y244000D02*
X235000D01*
X2000Y323000D02*
Y397803D01*
X234500D01*
Y323000D02*
Y397803D01*
X2000Y323000D02*
X234500D01*
X3000Y2697D02*
X235500D01*
Y77500D01*
X3000D02*
X235500D01*
X3000Y2697D02*
Y77500D01*
X339501Y6000D02*
Y9999D01*
X337502Y7999D02*
X341500D01*
X339001Y28500D02*
Y32499D01*
X337002Y30499D02*
X341000D01*
X339501Y52000D02*
Y55999D01*
X337502Y53999D02*
X341500D01*
X340001Y75000D02*
Y78999D01*
X338002Y76999D02*
X342000D01*
X339501Y97500D02*
Y101499D01*
X337502Y99499D02*
X341500D01*
X339501Y121000D02*
Y124999D01*
X337502Y122999D02*
X341500D01*
X339501Y144000D02*
Y147999D01*
X337502Y145999D02*
X341500D01*
X339501Y167000D02*
Y170999D01*
X337502Y168999D02*
X341500D01*
X340001Y190000D02*
Y193999D01*
X338002Y191999D02*
X342000D01*
X340001Y213000D02*
Y216999D01*
X338002Y214999D02*
X342000D01*
X381501Y3500D02*
Y7499D01*
X379502Y5499D02*
X383500D01*
X331001Y6000D02*
Y9999D01*
Y29000D02*
Y32999D01*
X331501Y52000D02*
Y55999D01*
Y75000D02*
Y78999D01*
Y98000D02*
Y101999D01*
Y121000D02*
Y124999D01*
Y144000D02*
Y147999D01*
Y167000D02*
Y170999D01*
Y190000D02*
Y193999D01*
Y213000D02*
Y216999D01*
X371501Y3500D02*
Y7499D01*
X257001Y6000D02*
Y9999D01*
X255002Y7999D02*
X259000D01*
X256501Y28500D02*
Y32499D01*
X254502Y30499D02*
X258500D01*
X257001Y52000D02*
Y55999D01*
X255002Y53999D02*
X259000D01*
X257501Y75000D02*
Y78999D01*
X255502Y76999D02*
X259500D01*
X257001Y97500D02*
Y101499D01*
X255002Y99499D02*
X259000D01*
X257001Y121000D02*
Y124999D01*
X255002Y122999D02*
X259000D01*
X257001Y144000D02*
Y147999D01*
X255002Y145999D02*
X259000D01*
X257001Y167000D02*
Y170999D01*
X255002Y168999D02*
X259000D01*
X257501Y190000D02*
Y193999D01*
X255502Y191999D02*
X259500D01*
X257501Y213000D02*
Y216999D01*
X255502Y214999D02*
X259500D01*
X299001Y3500D02*
Y7499D01*
X297002Y5499D02*
X301000D01*
X248501Y6000D02*
Y9999D01*
Y29000D02*
Y32999D01*
X249001Y52000D02*
Y55999D01*
Y75000D02*
Y78999D01*
Y98000D02*
Y101999D01*
Y121000D02*
Y124999D01*
Y144000D02*
Y147999D01*
Y167000D02*
Y170999D01*
Y190000D02*
Y193999D01*
Y213000D02*
Y216999D01*
X289001Y3500D02*
Y7499D01*
X6500Y141999D02*
X10499D01*
X8499Y143998D02*
Y140000D01*
X29000Y142499D02*
X32999D01*
X30999Y144498D02*
Y140500D01*
X52500Y141999D02*
X56499D01*
X54499Y143998D02*
Y140000D01*
X75500Y141499D02*
X79499D01*
X77499Y143498D02*
Y139500D01*
X98000Y141999D02*
X101999D01*
X99999Y143998D02*
Y140000D01*
X121500Y141999D02*
X125499D01*
X123499Y143998D02*
Y140000D01*
X144500Y141999D02*
X148499D01*
X146499Y143998D02*
Y140000D01*
X167500Y141999D02*
X171499D01*
X169499Y143998D02*
Y140000D01*
X190500Y141499D02*
X194499D01*
X192499Y143498D02*
Y139500D01*
X213500Y141499D02*
X217499D01*
X215499Y143498D02*
Y139500D01*
X4000Y99999D02*
X7999D01*
X5999Y101998D02*
Y98000D01*
X6500Y150499D02*
X10499D01*
X29500D02*
X33499D01*
X52500Y149999D02*
X56499D01*
X75500D02*
X79499D01*
X98500D02*
X102499D01*
X121500D02*
X125499D01*
X144500D02*
X148499D01*
X167500D02*
X171499D01*
X190500D02*
X194499D01*
X213500D02*
X217499D01*
X4000Y109999D02*
X7999D01*
X6000Y223499D02*
X9999D01*
X7999Y225498D02*
Y221500D01*
X28500Y223999D02*
X32499D01*
X30499Y225998D02*
Y222000D01*
X52000Y223499D02*
X55999D01*
X53999Y225498D02*
Y221500D01*
X75000Y222999D02*
X78999D01*
X76999Y224998D02*
Y221000D01*
X97500Y223499D02*
X101499D01*
X99499Y225498D02*
Y221500D01*
X121000Y223499D02*
X124999D01*
X122999Y225498D02*
Y221500D01*
X144000Y223499D02*
X147999D01*
X145999Y225498D02*
Y221500D01*
X167000Y223499D02*
X170999D01*
X168999Y225498D02*
Y221500D01*
X190000Y222999D02*
X193999D01*
X191999Y224998D02*
Y221000D01*
X213000Y222999D02*
X216999D01*
X214999Y224998D02*
Y221000D01*
X3500Y181499D02*
X7499D01*
X5499Y183498D02*
Y179500D01*
X6000Y231999D02*
X9999D01*
X29000D02*
X32999D01*
X52000Y231499D02*
X55999D01*
X75000D02*
X78999D01*
X98000D02*
X101999D01*
X121000D02*
X124999D01*
X144000D02*
X147999D01*
X167000D02*
X170999D01*
X190000D02*
X193999D01*
X213000D02*
X216999D01*
X3500Y191499D02*
X7499D01*
X6000Y302499D02*
X9999D01*
X7999Y304498D02*
Y300500D01*
X28500Y302999D02*
X32499D01*
X30499Y304998D02*
Y301000D01*
X52000Y302499D02*
X55999D01*
X53999Y304498D02*
Y300500D01*
X75000Y301999D02*
X78999D01*
X76999Y303998D02*
Y300000D01*
X97500Y302499D02*
X101499D01*
X99499Y304498D02*
Y300500D01*
X121000Y302499D02*
X124999D01*
X122999Y304498D02*
Y300500D01*
X144000Y302499D02*
X147999D01*
X145999Y304498D02*
Y300500D01*
X167000Y302499D02*
X170999D01*
X168999Y304498D02*
Y300500D01*
X190000Y301999D02*
X193999D01*
X191999Y303998D02*
Y300000D01*
X213000Y301999D02*
X216999D01*
X214999Y303998D02*
Y300000D01*
X3500Y260499D02*
X7499D01*
X5499Y262498D02*
Y258500D01*
X6000Y310999D02*
X9999D01*
X29000D02*
X32999D01*
X52000Y310499D02*
X55999D01*
X75000D02*
X78999D01*
X98000D02*
X101999D01*
X121000D02*
X124999D01*
X144000D02*
X147999D01*
X167000D02*
X170999D01*
X190000D02*
X193999D01*
X213000D02*
X216999D01*
X3500Y270499D02*
X7499D01*
X5500Y381499D02*
X9499D01*
X7499Y383498D02*
Y379500D01*
X28000Y381999D02*
X31999D01*
X29999Y383998D02*
Y380000D01*
X51500Y381499D02*
X55499D01*
X53499Y383498D02*
Y379500D01*
X74500Y380999D02*
X78499D01*
X76499Y382998D02*
Y379000D01*
X97000Y381499D02*
X100999D01*
X98999Y383498D02*
Y379500D01*
X120500Y381499D02*
X124499D01*
X122499Y383498D02*
Y379500D01*
X143500Y381499D02*
X147499D01*
X145499Y383498D02*
Y379500D01*
X166500Y381499D02*
X170499D01*
X168499Y383498D02*
Y379500D01*
X189500Y380999D02*
X193499D01*
X191499Y382998D02*
Y379000D01*
X212500Y380999D02*
X216499D01*
X214499Y382998D02*
Y379000D01*
X3000Y339499D02*
X6999D01*
X4999Y341498D02*
Y337500D01*
X5500Y389999D02*
X9499D01*
X28500D02*
X32499D01*
X51500Y389499D02*
X55499D01*
X74500D02*
X78499D01*
X97500D02*
X101499D01*
X120500D02*
X124499D01*
X143500D02*
X147499D01*
X166500D02*
X170499D01*
X189500D02*
X193499D01*
X212500D02*
X216499D01*
X3000Y349499D02*
X6999D01*
X4000Y29196D02*
X7999D01*
X213500Y69196D02*
X217499D01*
X190500D02*
X194499D01*
X167500D02*
X171499D01*
X144500D02*
X148499D01*
X121500D02*
X125499D01*
X98500D02*
X102499D01*
X75500D02*
X79499D01*
X52500D02*
X56499D01*
X29500Y69696D02*
X33499D01*
X6500D02*
X10499D01*
X4000Y19196D02*
X7999D01*
X5999Y21195D02*
Y17197D01*
X213500Y60696D02*
X217499D01*
X215499Y62695D02*
Y58697D01*
X190500Y60696D02*
X194499D01*
X192499Y62695D02*
Y58697D01*
X167500Y61196D02*
X171499D01*
X169499Y63195D02*
Y59197D01*
X144500Y61196D02*
X148499D01*
X146499Y63195D02*
Y59197D01*
X121500Y61196D02*
X125499D01*
X123499Y63195D02*
Y59197D01*
X98000Y61196D02*
X101999D01*
X99999Y63195D02*
Y59197D01*
X75500Y60696D02*
X79499D01*
X77499Y62695D02*
Y58697D01*
X52500Y61196D02*
X56499D01*
X54499Y63195D02*
Y59197D01*
X29000Y61696D02*
X32999D01*
X30999Y63695D02*
Y59697D01*
X6500Y61196D02*
X10499D01*
X8499Y63195D02*
Y59197D01*
D34*
X337308Y356726D02*
G03*
X351108Y355768I7161J3274D01*
G01*
Y364232D02*
G03*
X337308Y363274I-6640J-4232D01*
G01*
X300307Y356226D02*
G03*
X314108Y355268I7161J3274D01*
G01*
Y363732D02*
G03*
X300307Y362774I-6640J-4232D01*
G01*
X261150Y356726D02*
G03*
X274951Y355768I7161J3274D01*
G01*
Y364232D02*
G03*
X261150Y363274I-6640J-4232D01*
G01*
X261682Y269226D02*
G03*
X275482Y268268I7161J3274D01*
G01*
Y276732D02*
G03*
X261682Y275774I-6640J-4232D01*
G01*
X300839Y268726D02*
G03*
X314640Y267768I7161J3274D01*
G01*
Y276232D02*
G03*
X300839Y275274I-6640J-4232D01*
G01*
X337839Y269226D02*
G03*
X351640Y268268I7161J3274D01*
G01*
Y276732D02*
G03*
X337839Y275774I-6640J-4232D01*
G01*
X322969Y373500D02*
X325969D01*
X322969Y353500D02*
Y373500D01*
Y353500D02*
X328969D01*
Y373500D01*
X325969D02*
X328969D01*
X325969Y352600D02*
Y353500D01*
Y373500D02*
Y374400D01*
X284968Y372500D02*
X287968D01*
X284968Y352500D02*
Y372500D01*
Y352500D02*
X290968D01*
Y372500D01*
X287968D02*
X290968D01*
X287968Y351600D02*
Y352500D01*
Y372500D02*
Y373400D01*
X247969Y380000D02*
X250969D01*
X247969Y360000D02*
Y380000D01*
Y360000D02*
X253969D01*
Y380000D01*
X250969D02*
X253969D01*
X250969Y359100D02*
Y360000D01*
Y380000D02*
Y380900D01*
X244468Y330000D02*
X254468D01*
X244468D02*
Y350000D01*
X254468D01*
Y330000D02*
Y350000D01*
X245000Y242500D02*
X255000D01*
X245000D02*
Y262500D01*
X255000D01*
Y242500D02*
Y262500D01*
X248500Y292500D02*
X251500D01*
X248500Y272500D02*
Y292500D01*
Y272500D02*
X254500D01*
Y292500D01*
X251500D02*
X254500D01*
X251500Y271600D02*
Y272500D01*
Y292500D02*
Y293400D01*
X285500Y285000D02*
X288500D01*
X285500Y265000D02*
Y285000D01*
Y265000D02*
X291500D01*
Y285000D01*
X288500D02*
X291500D01*
X288500Y264100D02*
Y265000D01*
Y285000D02*
Y285900D01*
X323500Y286000D02*
X326500D01*
X323500Y266000D02*
Y286000D01*
Y266000D02*
X329500D01*
Y286000D01*
X326500D02*
X329500D01*
X326500Y265100D02*
Y266000D01*
Y286000D02*
Y286900D01*
X383500Y47000D02*
Y50000D01*
X363500D02*
X383500D01*
X363500Y44000D02*
Y50000D01*
Y44000D02*
X383500D01*
Y47000D01*
X362600D02*
X363500D01*
X383500D02*
X384400D01*
X361000Y210500D02*
Y213500D01*
Y210500D02*
X381000D01*
Y216500D01*
X361000D02*
X381000D01*
X361000Y213500D02*
Y216500D01*
X381000Y213500D02*
X381900D01*
X360100D02*
X361000D01*
X366500Y8500D02*
Y18500D01*
X386500D01*
Y8500D02*
Y18500D01*
X366500Y8500D02*
X386500D01*
X301000Y47000D02*
Y50000D01*
X281000D02*
X301000D01*
X281000Y44000D02*
Y50000D01*
Y44000D02*
X301000D01*
Y47000D01*
X280100D02*
X281000D01*
X301000D02*
X301900D01*
X278500Y210500D02*
Y213500D01*
Y210500D02*
X298500D01*
Y216500D01*
X278500D02*
X298500D01*
X278500Y213500D02*
Y216500D01*
X298500Y213500D02*
X299400D01*
X277600D02*
X278500D01*
X284000Y8500D02*
Y18500D01*
X304000D01*
Y8500D02*
Y18500D01*
X284000Y8500D02*
X304000D01*
X47500Y98000D02*
X50500D01*
Y118000D01*
X44500D02*
X50500D01*
X44500Y98000D02*
Y118000D01*
Y98000D02*
X47500D01*
Y118000D02*
Y118900D01*
Y97100D02*
Y98000D01*
X211000Y120500D02*
X214000D01*
X211000Y100500D02*
Y120500D01*
Y100500D02*
X217000D01*
Y120500D01*
X214000D02*
X217000D01*
X214000Y99600D02*
Y100500D01*
Y120500D02*
Y121400D01*
X9000Y115000D02*
X19000D01*
Y95000D02*
Y115000D01*
X9000Y95000D02*
X19000D01*
X9000D02*
Y115000D01*
X47000Y179500D02*
X50000D01*
Y199500D01*
X44000D02*
X50000D01*
X44000Y179500D02*
Y199500D01*
Y179500D02*
X47000D01*
Y199500D02*
Y200400D01*
Y178600D02*
Y179500D01*
X210500Y202000D02*
X213500D01*
X210500Y182000D02*
Y202000D01*
Y182000D02*
X216500D01*
Y202000D01*
X213500D02*
X216500D01*
X213500Y181100D02*
Y182000D01*
Y202000D02*
Y202900D01*
X8500Y196500D02*
X18500D01*
Y176500D02*
Y196500D01*
X8500Y176500D02*
X18500D01*
X8500D02*
Y196500D01*
X47000Y258500D02*
X50000D01*
Y278500D01*
X44000D02*
X50000D01*
X44000Y258500D02*
Y278500D01*
Y258500D02*
X47000D01*
Y278500D02*
Y279400D01*
Y257600D02*
Y258500D01*
X210500Y281000D02*
X213500D01*
X210500Y261000D02*
Y281000D01*
Y261000D02*
X216500D01*
Y281000D01*
X213500D02*
X216500D01*
X213500Y260100D02*
Y261000D01*
Y281000D02*
Y281900D01*
X8500Y275500D02*
X18500D01*
Y255500D02*
Y275500D01*
X8500Y255500D02*
X18500D01*
X8500D02*
Y275500D01*
X46500Y337500D02*
X49500D01*
Y357500D01*
X43500D02*
X49500D01*
X43500Y337500D02*
Y357500D01*
Y337500D02*
X46500D01*
Y357500D02*
Y358400D01*
Y336600D02*
Y337500D01*
X210000Y360000D02*
X213000D01*
X210000Y340000D02*
Y360000D01*
Y340000D02*
X216000D01*
Y360000D01*
X213000D02*
X216000D01*
X213000Y339100D02*
Y340000D01*
Y360000D02*
Y360900D01*
X8000Y354500D02*
X18000D01*
Y334500D02*
Y354500D01*
X8000Y334500D02*
X18000D01*
X8000D02*
Y354500D01*
X211000Y39697D02*
X214000D01*
X211000Y19697D02*
Y39697D01*
Y19697D02*
X217000D01*
Y39697D01*
X214000D02*
X217000D01*
X214000Y18797D02*
Y19697D01*
Y39697D02*
Y40597D01*
X47500Y17197D02*
X50500D01*
Y37197D01*
X44500D02*
X50500D01*
X44500Y17197D02*
Y37197D01*
Y17197D02*
X47500D01*
Y37197D02*
Y38097D01*
Y16297D02*
Y17197D01*
X9000Y34197D02*
X19000D01*
Y14197D02*
Y34197D01*
X9000Y14197D02*
X19000D01*
X9000D02*
Y34197D01*
X260528Y354000D02*
X261840Y352688D01*
Y350064D01*
X260528Y348752D01*
X259216D01*
X257904Y350064D01*
Y351376D01*
Y350064D01*
X256592Y348752D01*
X255280D01*
X253969Y350064D01*
Y352688D01*
X255280Y354000D01*
X261840Y346129D02*
X256592D01*
X253969Y343505D01*
X256592Y340881D01*
X261840D01*
X242969Y353436D02*
X248216D01*
X245592Y356060D02*
Y350812D01*
X245969Y339436D02*
X251216D01*
X265599Y331624D02*
X265074Y332149D01*
X264025D01*
X263500Y331624D01*
Y329525D01*
X264025Y329000D01*
X265074D01*
X265599Y329525D01*
X266649Y331624D02*
X267173Y332149D01*
X268223D01*
X268748Y331624D01*
Y331099D01*
X268223Y330574D01*
X268748Y330049D01*
Y329525D01*
X268223Y329000D01*
X267173D01*
X266649Y329525D01*
Y330049D01*
X267173Y330574D01*
X266649Y331099D01*
Y331624D01*
X267173Y330574D02*
X268223D01*
X271896Y329000D02*
X269797D01*
X271896Y331099D01*
Y331624D01*
X271372Y332149D01*
X270322D01*
X269797Y331624D01*
X272946D02*
X273470Y332149D01*
X274520D01*
X275045Y331624D01*
Y331099D01*
X274520Y330574D01*
X275045Y330049D01*
Y329525D01*
X274520Y329000D01*
X273470D01*
X272946Y329525D01*
Y330049D01*
X273470Y330574D01*
X272946Y331099D01*
Y331624D01*
X273470Y330574D02*
X274520D01*
X288099Y332124D02*
X287574Y332649D01*
X286525D01*
X286000Y332124D01*
Y330025D01*
X286525Y329500D01*
X287574D01*
X288099Y330025D01*
X289149Y332124D02*
X289673Y332649D01*
X290723D01*
X291248Y332124D01*
Y331599D01*
X290723Y331074D01*
X291248Y330550D01*
Y330025D01*
X290723Y329500D01*
X289673D01*
X289149Y330025D01*
Y330550D01*
X289673Y331074D01*
X289149Y331599D01*
Y332124D01*
X289673Y331074D02*
X290723D01*
X294396Y329500D02*
X292297D01*
X294396Y331599D01*
Y332124D01*
X293871Y332649D01*
X292822D01*
X292297Y332124D01*
X295446D02*
X295971Y332649D01*
X297020D01*
X297545Y332124D01*
Y331599D01*
X297020Y331074D01*
X297545Y330550D01*
Y330025D01*
X297020Y329500D01*
X295971D01*
X295446Y330025D01*
Y330550D01*
X295971Y331074D01*
X295446Y331599D01*
Y332124D01*
X295971Y331074D02*
X297020D01*
X327099Y332624D02*
X326574Y333149D01*
X325525D01*
X325000Y332624D01*
Y330525D01*
X325525Y330000D01*
X326574D01*
X327099Y330525D01*
X328149Y332624D02*
X328673Y333149D01*
X329723D01*
X330248Y332624D01*
Y332099D01*
X329723Y331574D01*
X330248Y331049D01*
Y330525D01*
X329723Y330000D01*
X328673D01*
X328149Y330525D01*
Y331049D01*
X328673Y331574D01*
X328149Y332099D01*
Y332624D01*
X328673Y331574D02*
X329723D01*
X333396Y330000D02*
X331297D01*
X333396Y332099D01*
Y332624D01*
X332872Y333149D01*
X331822D01*
X331297Y332624D01*
X334446D02*
X334970Y333149D01*
X336020D01*
X336545Y332624D01*
Y332099D01*
X336020Y331574D01*
X336545Y331049D01*
Y330525D01*
X336020Y330000D01*
X334970D01*
X334446Y330525D01*
Y331049D01*
X334970Y331574D01*
X334446Y332099D01*
Y332624D01*
X334970Y331574D02*
X336020D01*
X327631Y245124D02*
X327106Y245649D01*
X326056D01*
X325532Y245124D01*
Y243025D01*
X326056Y242500D01*
X327106D01*
X327631Y243025D01*
X328680Y245124D02*
X329205Y245649D01*
X330254D01*
X330779Y245124D01*
Y244599D01*
X330254Y244074D01*
X330779Y243549D01*
Y243025D01*
X330254Y242500D01*
X329205D01*
X328680Y243025D01*
Y243549D01*
X329205Y244074D01*
X328680Y244599D01*
Y245124D01*
X329205Y244074D02*
X330254D01*
X333928Y242500D02*
X331829D01*
X333928Y244599D01*
Y245124D01*
X333403Y245649D01*
X332353D01*
X331829Y245124D01*
X334977D02*
X335502Y245649D01*
X336552D01*
X337076Y245124D01*
Y244599D01*
X336552Y244074D01*
X337076Y243549D01*
Y243025D01*
X336552Y242500D01*
X335502D01*
X334977Y243025D01*
Y243549D01*
X335502Y244074D01*
X334977Y244599D01*
Y245124D01*
X335502Y244074D02*
X336552D01*
X288631Y244624D02*
X288106Y245149D01*
X287056D01*
X286531Y244624D01*
Y242525D01*
X287056Y242000D01*
X288106D01*
X288631Y242525D01*
X289680Y244624D02*
X290205Y245149D01*
X291254D01*
X291779Y244624D01*
Y244099D01*
X291254Y243574D01*
X291779Y243050D01*
Y242525D01*
X291254Y242000D01*
X290205D01*
X289680Y242525D01*
Y243050D01*
X290205Y243574D01*
X289680Y244099D01*
Y244624D01*
X290205Y243574D02*
X291254D01*
X294928Y242000D02*
X292829D01*
X294928Y244099D01*
Y244624D01*
X294403Y245149D01*
X293354D01*
X292829Y244624D01*
X295977D02*
X296502Y245149D01*
X297552D01*
X298076Y244624D01*
Y244099D01*
X297552Y243574D01*
X298076Y243050D01*
Y242525D01*
X297552Y242000D01*
X296502D01*
X295977Y242525D01*
Y243050D01*
X296502Y243574D01*
X295977Y244099D01*
Y244624D01*
X296502Y243574D02*
X297552D01*
X266131Y244124D02*
X265606Y244649D01*
X264556D01*
X264032Y244124D01*
Y242025D01*
X264556Y241500D01*
X265606D01*
X266131Y242025D01*
X267180Y244124D02*
X267705Y244649D01*
X268754D01*
X269279Y244124D01*
Y243599D01*
X268754Y243074D01*
X269279Y242549D01*
Y242025D01*
X268754Y241500D01*
X267705D01*
X267180Y242025D01*
Y242549D01*
X267705Y243074D01*
X267180Y243599D01*
Y244124D01*
X267705Y243074D02*
X268754D01*
X272428Y241500D02*
X270329D01*
X272428Y243599D01*
Y244124D01*
X271903Y244649D01*
X270853D01*
X270329Y244124D01*
X273477D02*
X274002Y244649D01*
X275052D01*
X275576Y244124D01*
Y243599D01*
X275052Y243074D01*
X275576Y242549D01*
Y242025D01*
X275052Y241500D01*
X274002D01*
X273477Y242025D01*
Y242549D01*
X274002Y243074D01*
X273477Y243599D01*
Y244124D01*
X274002Y243074D02*
X275052D01*
X246500Y251936D02*
X251748D01*
X243500Y265936D02*
X248748D01*
X246124Y268560D02*
Y263312D01*
X261060Y266500D02*
X262371Y265188D01*
Y262564D01*
X261060Y261252D01*
X259748D01*
X258436Y262564D01*
Y263876D01*
Y262564D01*
X257124Y261252D01*
X255812D01*
X254500Y262564D01*
Y265188D01*
X255812Y266500D01*
X262371Y258629D02*
X257124D01*
X254500Y256005D01*
X257124Y253381D01*
X262371D01*
X369500Y45000D02*
X370812D01*
X370156D01*
Y48936D01*
X369500Y48280D01*
X372780Y48936D02*
Y45000D01*
Y46312D01*
X375404Y48936D01*
X373436Y46968D01*
X375404Y45000D01*
X376000Y215500D02*
X374688D01*
X375344D01*
Y211564D01*
X376000Y212220D01*
X372720D02*
X372064Y211564D01*
X370752D01*
X370096Y212220D01*
Y214844D01*
X370752Y215500D01*
X372064D01*
X372720Y214844D01*
Y212220D01*
X368784D02*
X368128Y211564D01*
X366817D01*
X366161Y212220D01*
Y214844D01*
X366817Y215500D01*
X368128D01*
X368784Y214844D01*
Y212220D01*
X384876Y170720D02*
X385532Y170064D01*
X386844D01*
X387500Y170720D01*
Y173344D01*
X386844Y174000D01*
X385532D01*
X384876Y173344D01*
X381596Y170064D02*
X382908D01*
X383564Y170720D01*
Y173344D01*
X382908Y174000D01*
X381596D01*
X380940Y173344D01*
Y170720D01*
X381596Y170064D01*
X379628D02*
Y174000D01*
X377005D01*
X373725Y170064D02*
X375037D01*
X375693Y170720D01*
Y173344D01*
X375037Y174000D01*
X373725D01*
X373069Y173344D01*
Y170720D01*
X373725Y170064D01*
X371757Y174000D02*
Y170064D01*
X369789D01*
X369133Y170720D01*
Y172032D01*
X369789Y172688D01*
X371757D01*
X370445D02*
X369133Y174000D01*
X363886Y170064D02*
Y174000D01*
X361262D01*
X357326Y170064D02*
X359950D01*
Y174000D01*
X357326D01*
X359950Y172032D02*
X358638D01*
X356014Y170064D02*
Y174000D01*
X354046D01*
X353390Y173344D01*
Y170720D01*
X354046Y170064D01*
X356014D01*
X381000Y168000D02*
Y164064D01*
X379688Y165376D01*
X378376Y164064D01*
Y168000D01*
X377064Y164064D02*
Y167344D01*
X376408Y168000D01*
X375096D01*
X374440Y167344D01*
Y164064D01*
X373129D02*
Y168000D01*
X370505D01*
X369193Y164064D02*
X366569D01*
X367881D01*
Y168000D01*
X365257Y164064D02*
X363945D01*
X364601D01*
Y168000D01*
X365257D01*
X363945D01*
X287000Y45000D02*
X288312D01*
X287656D01*
Y48936D01*
X287000Y48280D01*
X290280Y48936D02*
Y45000D01*
Y46312D01*
X292904Y48936D01*
X290936Y46968D01*
X292904Y45000D01*
X293500Y215500D02*
X292188D01*
X292844D01*
Y211564D01*
X293500Y212220D01*
X290220D02*
X289564Y211564D01*
X288252D01*
X287596Y212220D01*
Y214844D01*
X288252Y215500D01*
X289564D01*
X290220Y214844D01*
Y212220D01*
X286284D02*
X285629Y211564D01*
X284317D01*
X283661Y212220D01*
Y214844D01*
X284317Y215500D01*
X285629D01*
X286284Y214844D01*
Y212220D01*
X302376Y170720D02*
X303032Y170064D01*
X304344D01*
X305000Y170720D01*
Y173344D01*
X304344Y174000D01*
X303032D01*
X302376Y173344D01*
X299096Y170064D02*
X300408D01*
X301064Y170720D01*
Y173344D01*
X300408Y174000D01*
X299096D01*
X298440Y173344D01*
Y170720D01*
X299096Y170064D01*
X297129D02*
Y174000D01*
X294505D01*
X291225Y170064D02*
X292537D01*
X293193Y170720D01*
Y173344D01*
X292537Y174000D01*
X291225D01*
X290569Y173344D01*
Y170720D01*
X291225Y170064D01*
X289257Y174000D02*
Y170064D01*
X287289D01*
X286633Y170720D01*
Y172032D01*
X287289Y172688D01*
X289257D01*
X287945D02*
X286633Y174000D01*
X281386Y170064D02*
Y174000D01*
X278762D01*
X274826Y170064D02*
X277450D01*
Y174000D01*
X274826D01*
X277450Y172032D02*
X276138D01*
X273514Y170064D02*
Y174000D01*
X271546D01*
X270890Y173344D01*
Y170720D01*
X271546Y170064D01*
X273514D01*
X298500Y168000D02*
Y164064D01*
X297188Y165376D01*
X295876Y164064D01*
Y168000D01*
X294564Y164064D02*
Y167344D01*
X293908Y168000D01*
X292596D01*
X291940Y167344D01*
Y164064D01*
X290629D02*
Y168000D01*
X288005D01*
X286693Y164064D02*
X284069D01*
X285381D01*
Y168000D01*
X282757Y164064D02*
X281445D01*
X282101D01*
Y168000D01*
X282757D01*
X281445D01*
X45500Y112000D02*
Y110688D01*
Y111344D01*
X49436D01*
X48780Y112000D01*
X49436Y108720D02*
X45500D01*
X46812D01*
X49436Y106096D01*
X47468Y108064D01*
X45500Y106096D01*
X216000Y105500D02*
Y106812D01*
Y106156D01*
X212064D01*
X212720Y105500D01*
Y108780D02*
X212064Y109436D01*
Y110748D01*
X212720Y111404D01*
X215344D01*
X216000Y110748D01*
Y109436D01*
X215344Y108780D01*
X212720D01*
Y112715D02*
X212064Y113372D01*
Y114683D01*
X212720Y115339D01*
X215344D01*
X216000Y114683D01*
Y113372D01*
X215344Y112715D01*
X212720D01*
X171220Y96624D02*
X170564Y95968D01*
Y94656D01*
X171220Y94000D01*
X173844D01*
X174500Y94656D01*
Y95968D01*
X173844Y96624D01*
X170564Y99904D02*
Y98592D01*
X171220Y97936D01*
X173844D01*
X174500Y98592D01*
Y99904D01*
X173844Y100560D01*
X171220D01*
X170564Y99904D01*
Y101872D02*
X174500D01*
Y104495D01*
X170564Y107775D02*
Y106463D01*
X171220Y105807D01*
X173844D01*
X174500Y106463D01*
Y107775D01*
X173844Y108431D01*
X171220D01*
X170564Y107775D01*
X174500Y109743D02*
X170564D01*
Y111711D01*
X171220Y112367D01*
X172532D01*
X173188Y111711D01*
Y109743D01*
Y111055D02*
X174500Y112367D01*
X170564Y117614D02*
X174500D01*
Y120238D01*
X170564Y124174D02*
Y121550D01*
X174500D01*
Y124174D01*
X172532Y121550D02*
Y122862D01*
X170564Y125486D02*
X174500D01*
Y127454D01*
X173844Y128110D01*
X171220D01*
X170564Y127454D01*
Y125486D01*
X168500Y100500D02*
X164564D01*
X165876Y101812D01*
X164564Y103124D01*
X168500D01*
X164564Y104436D02*
X167844D01*
X168500Y105092D01*
Y106404D01*
X167844Y107060D01*
X164564D01*
Y108371D02*
X168500D01*
Y110995D01*
X164564Y112307D02*
Y114931D01*
Y113619D01*
X168500D01*
X164564Y116243D02*
Y117555D01*
Y116899D01*
X168500D01*
Y116243D01*
Y117555D01*
X45000Y193500D02*
Y192188D01*
Y192844D01*
X48936D01*
X48280Y193500D01*
X48936Y190220D02*
X45000D01*
X46312D01*
X48936Y187596D01*
X46968Y189564D01*
X45000Y187596D01*
X215500Y187000D02*
Y188312D01*
Y187656D01*
X211564D01*
X212220Y187000D01*
Y190280D02*
X211564Y190936D01*
Y192248D01*
X212220Y192904D01*
X214844D01*
X215500Y192248D01*
Y190936D01*
X214844Y190280D01*
X212220D01*
Y194216D02*
X211564Y194871D01*
Y196183D01*
X212220Y196839D01*
X214844D01*
X215500Y196183D01*
Y194871D01*
X214844Y194216D01*
X212220D01*
X170720Y178124D02*
X170064Y177468D01*
Y176156D01*
X170720Y175500D01*
X173344D01*
X174000Y176156D01*
Y177468D01*
X173344Y178124D01*
X170064Y181404D02*
Y180092D01*
X170720Y179436D01*
X173344D01*
X174000Y180092D01*
Y181404D01*
X173344Y182060D01*
X170720D01*
X170064Y181404D01*
Y183371D02*
X174000D01*
Y185995D01*
X170064Y189275D02*
Y187963D01*
X170720Y187307D01*
X173344D01*
X174000Y187963D01*
Y189275D01*
X173344Y189931D01*
X170720D01*
X170064Y189275D01*
X174000Y191243D02*
X170064D01*
Y193211D01*
X170720Y193867D01*
X172032D01*
X172688Y193211D01*
Y191243D01*
Y192555D02*
X174000Y193867D01*
X170064Y199114D02*
X174000D01*
Y201738D01*
X170064Y205674D02*
Y203050D01*
X174000D01*
Y205674D01*
X172032Y203050D02*
Y204362D01*
X170064Y206986D02*
X174000D01*
Y208954D01*
X173344Y209610D01*
X170720D01*
X170064Y208954D01*
Y206986D01*
X168000Y182000D02*
X164064D01*
X165376Y183312D01*
X164064Y184624D01*
X168000D01*
X164064Y185936D02*
X167344D01*
X168000Y186592D01*
Y187904D01*
X167344Y188560D01*
X164064D01*
Y189872D02*
X168000D01*
Y192495D01*
X164064Y193807D02*
Y196431D01*
Y195119D01*
X168000D01*
X164064Y197743D02*
Y199055D01*
Y198399D01*
X168000D01*
Y197743D01*
Y199055D01*
X45000Y272500D02*
Y271188D01*
Y271844D01*
X48936D01*
X48280Y272500D01*
X48936Y269220D02*
X45000D01*
X46312D01*
X48936Y266596D01*
X46968Y268564D01*
X45000Y266596D01*
X215500Y266000D02*
Y267312D01*
Y266656D01*
X211564D01*
X212220Y266000D01*
Y269280D02*
X211564Y269936D01*
Y271248D01*
X212220Y271904D01*
X214844D01*
X215500Y271248D01*
Y269936D01*
X214844Y269280D01*
X212220D01*
Y273216D02*
X211564Y273871D01*
Y275183D01*
X212220Y275839D01*
X214844D01*
X215500Y275183D01*
Y273871D01*
X214844Y273216D01*
X212220D01*
X170720Y257124D02*
X170064Y256468D01*
Y255156D01*
X170720Y254500D01*
X173344D01*
X174000Y255156D01*
Y256468D01*
X173344Y257124D01*
X170064Y260404D02*
Y259092D01*
X170720Y258436D01*
X173344D01*
X174000Y259092D01*
Y260404D01*
X173344Y261060D01*
X170720D01*
X170064Y260404D01*
Y262371D02*
X174000D01*
Y264995D01*
X170064Y268275D02*
Y266963D01*
X170720Y266307D01*
X173344D01*
X174000Y266963D01*
Y268275D01*
X173344Y268931D01*
X170720D01*
X170064Y268275D01*
X174000Y270243D02*
X170064D01*
Y272211D01*
X170720Y272867D01*
X172032D01*
X172688Y272211D01*
Y270243D01*
Y271555D02*
X174000Y272867D01*
X170064Y278114D02*
X174000D01*
Y280738D01*
X170064Y284674D02*
Y282050D01*
X174000D01*
Y284674D01*
X172032Y282050D02*
Y283362D01*
X170064Y285986D02*
X174000D01*
Y287954D01*
X173344Y288610D01*
X170720D01*
X170064Y287954D01*
Y285986D01*
X168000Y261000D02*
X164064D01*
X165376Y262312D01*
X164064Y263624D01*
X168000D01*
X164064Y264936D02*
X167344D01*
X168000Y265592D01*
Y266904D01*
X167344Y267560D01*
X164064D01*
Y268871D02*
X168000D01*
Y271495D01*
X164064Y272807D02*
Y275431D01*
Y274119D01*
X168000D01*
X164064Y276743D02*
Y278055D01*
Y277399D01*
X168000D01*
Y276743D01*
Y278055D01*
X44500Y351500D02*
Y350188D01*
Y350844D01*
X48436D01*
X47780Y351500D01*
X48436Y348220D02*
X44500D01*
X45812D01*
X48436Y345596D01*
X46468Y347564D01*
X44500Y345596D01*
X215000Y345000D02*
Y346312D01*
Y345656D01*
X211064D01*
X211720Y345000D01*
Y348280D02*
X211064Y348936D01*
Y350248D01*
X211720Y350904D01*
X214344D01*
X215000Y350248D01*
Y348936D01*
X214344Y348280D01*
X211720D01*
Y352216D02*
X211064Y352871D01*
Y354183D01*
X211720Y354839D01*
X214344D01*
X215000Y354183D01*
Y352871D01*
X214344Y352216D01*
X211720D01*
X170220Y336124D02*
X169564Y335468D01*
Y334156D01*
X170220Y333500D01*
X172844D01*
X173500Y334156D01*
Y335468D01*
X172844Y336124D01*
X169564Y339404D02*
Y338092D01*
X170220Y337436D01*
X172844D01*
X173500Y338092D01*
Y339404D01*
X172844Y340060D01*
X170220D01*
X169564Y339404D01*
Y341371D02*
X173500D01*
Y343995D01*
X169564Y347275D02*
Y345963D01*
X170220Y345307D01*
X172844D01*
X173500Y345963D01*
Y347275D01*
X172844Y347931D01*
X170220D01*
X169564Y347275D01*
X173500Y349243D02*
X169564D01*
Y351211D01*
X170220Y351867D01*
X171532D01*
X172188Y351211D01*
Y349243D01*
Y350555D02*
X173500Y351867D01*
X169564Y357114D02*
X173500D01*
Y359738D01*
X169564Y363674D02*
Y361050D01*
X173500D01*
Y363674D01*
X171532Y361050D02*
Y362362D01*
X169564Y364986D02*
X173500D01*
Y366954D01*
X172844Y367610D01*
X170220D01*
X169564Y366954D01*
Y364986D01*
X167500Y340000D02*
X163564D01*
X164876Y341312D01*
X163564Y342624D01*
X167500D01*
X163564Y343936D02*
X166844D01*
X167500Y344592D01*
Y345904D01*
X166844Y346560D01*
X163564D01*
Y347871D02*
X167500D01*
Y350495D01*
X163564Y351807D02*
Y354431D01*
Y353119D01*
X167500D01*
X163564Y355743D02*
Y357055D01*
Y356399D01*
X167500D01*
Y355743D01*
Y357055D01*
X168500Y19697D02*
X164564D01*
X165876Y21009D01*
X164564Y22321D01*
X168500D01*
X164564Y23632D02*
X167844D01*
X168500Y24288D01*
Y25600D01*
X167844Y26256D01*
X164564D01*
Y27568D02*
X168500D01*
Y30192D01*
X164564Y31504D02*
Y34128D01*
Y32816D01*
X168500D01*
X164564Y35440D02*
Y36752D01*
Y36096D01*
X168500D01*
Y35440D01*
Y36752D01*
X171220Y15821D02*
X170564Y15165D01*
Y13853D01*
X171220Y13197D01*
X173844D01*
X174500Y13853D01*
Y15165D01*
X173844Y15821D01*
X170564Y19100D02*
Y17788D01*
X171220Y17132D01*
X173844D01*
X174500Y17788D01*
Y19100D01*
X173844Y19756D01*
X171220D01*
X170564Y19100D01*
Y21068D02*
X174500D01*
Y23692D01*
X170564Y26972D02*
Y25660D01*
X171220Y25004D01*
X173844D01*
X174500Y25660D01*
Y26972D01*
X173844Y27628D01*
X171220D01*
X170564Y26972D01*
X174500Y28940D02*
X170564D01*
Y30908D01*
X171220Y31564D01*
X172532D01*
X173188Y30908D01*
Y28940D01*
Y30252D02*
X174500Y31564D01*
X170564Y36811D02*
X174500D01*
Y39435D01*
X170564Y43371D02*
Y40747D01*
X174500D01*
Y43371D01*
X172532Y40747D02*
Y42059D01*
X170564Y44683D02*
X174500D01*
Y46651D01*
X173844Y47306D01*
X171220D01*
X170564Y46651D01*
Y44683D01*
X216000Y24697D02*
Y26009D01*
Y25353D01*
X212064D01*
X212720Y24697D01*
Y27977D02*
X212064Y28633D01*
Y29945D01*
X212720Y30600D01*
X215344D01*
X216000Y29945D01*
Y28633D01*
X215344Y27977D01*
X212720D01*
Y31912D02*
X212064Y32568D01*
Y33880D01*
X212720Y34536D01*
X215344D01*
X216000Y33880D01*
Y32568D01*
X215344Y31912D01*
X212720D01*
X45500Y31197D02*
Y29885D01*
Y30541D01*
X49436D01*
X48780Y31197D01*
X49436Y27917D02*
X45500D01*
X46812D01*
X49436Y25293D01*
X47468Y27261D01*
X45500Y25293D01*
D35*
X370300Y152300D02*
G03*
X372700Y152300I1200J0D01*
G01*
X287800D02*
G03*
X290200Y152300I1200J0D01*
G01*
X152800Y111200D02*
G03*
X152800Y108800I0J-1200D01*
G01*
X152300Y192700D02*
G03*
X152300Y190300I0J-1200D01*
G01*
Y271700D02*
G03*
X152300Y269300I0J-1200D01*
G01*
X151800Y350700D02*
G03*
X151800Y348300I0J-1200D01*
G01*
X152800Y30397D02*
G03*
X152800Y27997I0J-1200D01*
G01*
D36*
X360000Y74700D02*
X383000D01*
X372700Y152300D02*
X383000D01*
X370300D02*
X372700D01*
X361700D02*
X370300D01*
X277500Y74700D02*
X300500D01*
X290200Y152300D02*
X300500D01*
X287800D02*
X290200D01*
X279200D02*
X287800D01*
X75200Y98500D02*
Y121500D01*
X152800Y98500D02*
Y108800D01*
Y111200D01*
Y119800D01*
X74700Y180000D02*
Y203000D01*
X152300Y180000D02*
Y190300D01*
Y192700D01*
Y201300D01*
X74700Y259000D02*
Y282000D01*
X152300Y259000D02*
Y269300D01*
Y271700D01*
Y280300D01*
X74200Y338000D02*
Y361000D01*
X151800Y338000D02*
Y348300D01*
Y350700D01*
Y359300D01*
X75200Y17697D02*
Y40697D01*
X152800Y17697D02*
Y27997D01*
Y30397D01*
Y38997D01*
D37*
X324689Y357500D02*
X324033Y358156D01*
Y359468D01*
X324689Y360124D01*
X325345D01*
X326001Y359468D01*
Y358812D01*
Y359468D01*
X326657Y360124D01*
X327312D01*
X327969Y359468D01*
Y358156D01*
X327312Y357500D01*
Y361436D02*
X327969Y362092D01*
Y363404D01*
X327312Y364060D01*
X324689D01*
X324033Y363404D01*
Y362092D01*
X324689Y361436D01*
X325345D01*
X326001Y362092D01*
Y364060D01*
X324033Y365371D02*
X327969D01*
X326657D01*
X324033Y367995D01*
X326001Y366027D01*
X327969Y367995D01*
X286689Y357000D02*
X286033Y357656D01*
Y358968D01*
X286689Y359624D01*
X287345D01*
X288001Y358968D01*
Y358312D01*
Y358968D01*
X288657Y359624D01*
X289313D01*
X289968Y358968D01*
Y357656D01*
X289313Y357000D01*
Y360936D02*
X289968Y361592D01*
Y362904D01*
X289313Y363560D01*
X286689D01*
X286033Y362904D01*
Y361592D01*
X286689Y360936D01*
X287345D01*
X288001Y361592D01*
Y363560D01*
X286033Y364872D02*
X289968D01*
X288657D01*
X286033Y367495D01*
X288001Y365527D01*
X289968Y367495D01*
X249689Y365500D02*
X249033Y366156D01*
Y367468D01*
X249689Y368124D01*
X250345D01*
X251001Y367468D01*
Y366812D01*
Y367468D01*
X251657Y368124D01*
X252312D01*
X252969Y367468D01*
Y366156D01*
X252312Y365500D01*
Y369436D02*
X252969Y370092D01*
Y371404D01*
X252312Y372060D01*
X249689D01*
X249033Y371404D01*
Y370092D01*
X249689Y369436D01*
X250345D01*
X251001Y370092D01*
Y372060D01*
X249033Y373372D02*
X252969D01*
X251657D01*
X249033Y375995D01*
X251001Y374027D01*
X252969Y375995D01*
X340936Y358000D02*
Y361936D01*
X338968Y359968D01*
X341592D01*
X342904Y361936D02*
X345528D01*
Y361280D01*
X342904Y358656D01*
Y358000D01*
X346840Y361936D02*
Y358656D01*
X347496Y358000D01*
X348808D01*
X349464Y358656D01*
Y361936D01*
X303936Y357500D02*
Y361436D01*
X301969Y359468D01*
X304592D01*
X305904Y361436D02*
X308528D01*
Y360780D01*
X305904Y358156D01*
Y357500D01*
X309840Y361436D02*
Y358156D01*
X310496Y357500D01*
X311808D01*
X312464Y358156D01*
Y361436D01*
X264936Y357500D02*
Y361436D01*
X262968Y359468D01*
X265592D01*
X266904Y361436D02*
X269528D01*
Y360780D01*
X266904Y358156D01*
Y357500D01*
X270840Y361436D02*
Y358156D01*
X271496Y357500D01*
X272808D01*
X273464Y358156D01*
Y361436D01*
X337033Y377500D02*
X340968D01*
Y380124D01*
X337033Y384060D02*
Y381436D01*
X340968D01*
Y384060D01*
X339001Y381436D02*
Y382748D01*
X337033Y385371D02*
X340968D01*
Y387339D01*
X340313Y387995D01*
X337689D01*
X337033Y387339D01*
Y385371D01*
X297533Y378000D02*
X301468D01*
Y380624D01*
X297533Y384560D02*
Y381936D01*
X301468D01*
Y384560D01*
X299501Y381936D02*
Y383248D01*
X297533Y385872D02*
X301468D01*
Y387839D01*
X300813Y388495D01*
X298189D01*
X297533Y387839D01*
Y385872D01*
X261033Y377500D02*
X264968D01*
Y380124D01*
X261033Y384060D02*
Y381436D01*
X264968D01*
Y384060D01*
X263001Y381436D02*
Y382748D01*
X261033Y385371D02*
X264968D01*
Y387339D01*
X264313Y387995D01*
X261689D01*
X261033Y387339D01*
Y385371D01*
X352969Y364968D02*
X355592D01*
X354280Y366280D02*
Y363656D01*
X315968Y364468D02*
X318592D01*
X317280Y365780D02*
Y363156D01*
X276969Y364968D02*
X279592D01*
X278280Y366280D02*
Y363656D01*
X343468Y391968D02*
X346092D01*
X344780Y393280D02*
Y390656D01*
X303969Y391468D02*
X306592D01*
X305280Y392780D02*
Y390156D01*
X267469Y391468D02*
X270092D01*
X268780Y392780D02*
Y390156D01*
X268000Y303968D02*
X270624D01*
X269312Y305280D02*
Y302656D01*
X304500Y303968D02*
X307124D01*
X305812Y305280D02*
Y302656D01*
X344000Y304468D02*
X346624D01*
X345312Y305780D02*
Y303156D01*
X277500Y277468D02*
X280124D01*
X278812Y278780D02*
Y276156D01*
X316500Y276968D02*
X319124D01*
X317812Y278280D02*
Y275656D01*
X353500Y277468D02*
X356124D01*
X354812Y278780D02*
Y276156D01*
X261564Y290000D02*
X265500D01*
Y292624D01*
X261564Y296560D02*
Y293936D01*
X265500D01*
Y296560D01*
X263532Y293936D02*
Y295248D01*
X261564Y297871D02*
X265500D01*
Y299839D01*
X264844Y300495D01*
X262220D01*
X261564Y299839D01*
Y297871D01*
X298064Y290500D02*
X302000D01*
Y293124D01*
X298064Y297060D02*
Y294436D01*
X302000D01*
Y297060D01*
X300032Y294436D02*
Y295748D01*
X298064Y298372D02*
X302000D01*
Y300339D01*
X301344Y300995D01*
X298720D01*
X298064Y300339D01*
Y298372D01*
X337564Y290000D02*
X341500D01*
Y292624D01*
X337564Y296560D02*
Y293936D01*
X341500D01*
Y296560D01*
X339532Y293936D02*
Y295248D01*
X337564Y297871D02*
X341500D01*
Y299839D01*
X340844Y300495D01*
X338220D01*
X337564Y299839D01*
Y297871D01*
X265468Y270000D02*
Y273936D01*
X263500Y271968D01*
X266124D01*
X267436Y273936D02*
X270060D01*
Y273280D01*
X267436Y270656D01*
Y270000D01*
X271372Y273936D02*
Y270656D01*
X272027Y270000D01*
X273339D01*
X273995Y270656D01*
Y273936D01*
X304468Y270000D02*
Y273936D01*
X302500Y271968D01*
X305124D01*
X306436Y273936D02*
X309060D01*
Y273280D01*
X306436Y270656D01*
Y270000D01*
X310371Y273936D02*
Y270656D01*
X311027Y270000D01*
X312339D01*
X312995Y270656D01*
Y273936D01*
X341468Y270500D02*
Y274436D01*
X339500Y272468D01*
X342124D01*
X343436Y274436D02*
X346060D01*
Y273780D01*
X343436Y271156D01*
Y270500D01*
X347372Y274436D02*
Y271156D01*
X348027Y270500D01*
X349339D01*
X349995Y271156D01*
Y274436D01*
X250220Y278000D02*
X249564Y278656D01*
Y279968D01*
X250220Y280624D01*
X250876D01*
X251532Y279968D01*
Y279312D01*
Y279968D01*
X252188Y280624D01*
X252844D01*
X253500Y279968D01*
Y278656D01*
X252844Y278000D01*
Y281936D02*
X253500Y282592D01*
Y283904D01*
X252844Y284560D01*
X250220D01*
X249564Y283904D01*
Y282592D01*
X250220Y281936D01*
X250876D01*
X251532Y282592D01*
Y284560D01*
X249564Y285872D02*
X253500D01*
X252188D01*
X249564Y288495D01*
X251532Y286527D01*
X253500Y288495D01*
X287220Y269500D02*
X286564Y270156D01*
Y271468D01*
X287220Y272124D01*
X287876D01*
X288532Y271468D01*
Y270812D01*
Y271468D01*
X289188Y272124D01*
X289844D01*
X290500Y271468D01*
Y270156D01*
X289844Y269500D01*
Y273436D02*
X290500Y274092D01*
Y275404D01*
X289844Y276060D01*
X287220D01*
X286564Y275404D01*
Y274092D01*
X287220Y273436D01*
X287876D01*
X288532Y274092D01*
Y276060D01*
X286564Y277372D02*
X290500D01*
X289188D01*
X286564Y279995D01*
X288532Y278027D01*
X290500Y279995D01*
X325220Y270000D02*
X324564Y270656D01*
Y271968D01*
X325220Y272624D01*
X325876D01*
X326532Y271968D01*
Y271312D01*
Y271968D01*
X327188Y272624D01*
X327844D01*
X328500Y271968D01*
Y270656D01*
X327844Y270000D01*
Y273936D02*
X328500Y274592D01*
Y275904D01*
X327844Y276560D01*
X325220D01*
X324564Y275904D01*
Y274592D01*
X325220Y273936D01*
X325876D01*
X326532Y274592D01*
Y276560D01*
X324564Y277871D02*
X328500D01*
X327188D01*
X324564Y280495D01*
X326532Y278527D01*
X328500Y280495D01*
D38*
X332968Y363968D02*
X335592D01*
X295969Y363468D02*
X298592D01*
X256968Y363968D02*
X259592D01*
X343468Y381468D02*
X346092D01*
X304468Y380968D02*
X307092D01*
X267469D02*
X270092D01*
X277969Y391500D02*
Y393337D01*
X278887Y394255D01*
X279805Y393337D01*
Y391500D01*
Y392878D01*
X277969D01*
X280724Y391500D02*
Y391959D01*
X281183D01*
Y391500D01*
X280724D01*
X283019Y394255D02*
X283938D01*
X283478D01*
Y391500D01*
X283019D01*
X283938D01*
X285315D02*
Y391959D01*
X285774D01*
Y391500D01*
X285315D01*
X290366D02*
Y394255D01*
X291744D01*
X292203Y393796D01*
Y392878D01*
X291744Y392418D01*
X290366D01*
X294958Y393796D02*
X294499Y394255D01*
X293580D01*
X293121Y393796D01*
Y391959D01*
X293580Y391500D01*
X294499D01*
X294958Y391959D01*
X295876Y394255D02*
Y391500D01*
X297254D01*
X297713Y391959D01*
Y392418D01*
X297254Y392878D01*
X295876D01*
X297254D01*
X297713Y393337D01*
Y393796D01*
X297254Y394255D01*
X295876D01*
X278500Y304000D02*
Y305837D01*
X279418Y306755D01*
X280337Y305837D01*
Y304000D01*
Y305378D01*
X278500D01*
X281255Y304000D02*
Y304459D01*
X281714D01*
Y304000D01*
X281255D01*
X283551Y306755D02*
X284469D01*
X284010D01*
Y304000D01*
X283551D01*
X284469D01*
X285847D02*
Y304459D01*
X286306D01*
Y304000D01*
X285847D01*
X290898D02*
Y306755D01*
X292275D01*
X292734Y306296D01*
Y305378D01*
X292275Y304918D01*
X290898D01*
X295489Y306296D02*
X295030Y306755D01*
X294112D01*
X293653Y306296D01*
Y304459D01*
X294112Y304000D01*
X295030D01*
X295489Y304459D01*
X296408Y306755D02*
Y304000D01*
X297785D01*
X298244Y304459D01*
Y304918D01*
X297785Y305378D01*
X296408D01*
X297785D01*
X298244Y305837D01*
Y306296D01*
X297785Y306755D01*
X296408D01*
X268000Y293468D02*
X270624D01*
X305000D02*
X307624D01*
X344000Y293968D02*
X346624D01*
X257500Y276468D02*
X260124D01*
X296500Y275968D02*
X299124D01*
X333500Y276468D02*
X336124D01*
D39*
X370301Y88060D02*
X368661Y86420D01*
Y83140D01*
X370301Y81500D01*
X376860D01*
X378500Y83140D01*
Y86420D01*
X376860Y88060D01*
X368661Y91339D02*
X378500D01*
Y96259D01*
X376860Y97899D01*
X370301D01*
X368661Y96259D01*
Y91339D01*
X378500Y106098D02*
X368661D01*
X373580Y101179D01*
Y107738D01*
X370301Y111018D02*
X368661Y112658D01*
Y115938D01*
X370301Y117578D01*
X376860D01*
X378500Y115938D01*
Y112658D01*
X376860Y111018D01*
X370301D01*
X378500Y120857D02*
Y124137D01*
Y122497D01*
X368661D01*
X370301Y120857D01*
X368661Y129057D02*
Y135616D01*
X370301D01*
X376860Y129057D01*
X378500D01*
X396500Y147500D02*
X390203D01*
Y150649D01*
X391252Y151698D01*
X393351D01*
X394401Y150649D01*
Y147500D01*
Y149599D02*
X396500Y151698D01*
X391252Y157995D02*
X390203Y156946D01*
Y154847D01*
X391252Y153797D01*
X395450D01*
X396500Y154847D01*
Y156946D01*
X395450Y157995D01*
X393351D01*
Y155896D01*
X390203Y160094D02*
X396500D01*
Y163243D01*
X395450Y164293D01*
X394401D01*
X393351Y163243D01*
Y160094D01*
Y163243D01*
X392302Y164293D01*
X391252D01*
X390203Y163243D01*
Y160094D01*
Y172689D02*
X396500D01*
Y176887D01*
X390203Y183184D02*
Y178986D01*
X396500D01*
Y183184D01*
X393351Y178986D02*
Y181085D01*
X390203Y185283D02*
X396500D01*
Y188432D01*
X395450Y189481D01*
X391252D01*
X390203Y188432D01*
Y185283D01*
X391252Y202076D02*
X390203Y201026D01*
Y198927D01*
X391252Y197877D01*
X395450D01*
X396500Y198927D01*
Y201026D01*
X395450Y202076D01*
X390203Y204174D02*
X396500D01*
X393351D01*
Y208373D01*
X390203D01*
X396500D01*
Y210472D02*
X392302D01*
X390203Y212571D01*
X392302Y214670D01*
X396500D01*
X393351D01*
Y210472D01*
X391252Y220967D02*
X390203Y219917D01*
Y217818D01*
X391252Y216769D01*
X392302D01*
X393351Y217818D01*
Y219917D01*
X394401Y220967D01*
X395450D01*
X396500Y219917D01*
Y217818D01*
X395450Y216769D01*
X390203Y227264D02*
Y223066D01*
X396500D01*
Y227264D01*
X393351Y223066D02*
Y225165D01*
X396500Y229363D02*
X390203D01*
Y232512D01*
X391252Y233561D01*
X393351D01*
X394401Y232512D01*
Y229363D01*
Y231462D02*
X396500Y233561D01*
X287801Y88060D02*
X286161Y86420D01*
Y83140D01*
X287801Y81500D01*
X294360D01*
X296000Y83140D01*
Y86420D01*
X294360Y88060D01*
X286161Y91339D02*
X296000D01*
Y96259D01*
X294360Y97899D01*
X287801D01*
X286161Y96259D01*
Y91339D01*
X296000Y106098D02*
X286161D01*
X291080Y101179D01*
Y107738D01*
X287801Y111018D02*
X286161Y112658D01*
Y115938D01*
X287801Y117578D01*
X294360D01*
X296000Y115938D01*
Y112658D01*
X294360Y111018D01*
X287801D01*
X296000Y120857D02*
Y124137D01*
Y122497D01*
X286161D01*
X287801Y120857D01*
X286161Y129057D02*
Y135616D01*
X287801D01*
X294360Y129057D01*
X296000D01*
X314000Y147500D02*
X307703D01*
Y150649D01*
X308752Y151698D01*
X310851D01*
X311901Y150649D01*
Y147500D01*
Y149599D02*
X314000Y151698D01*
X308752Y157995D02*
X307703Y156946D01*
Y154847D01*
X308752Y153797D01*
X312950D01*
X314000Y154847D01*
Y156946D01*
X312950Y157995D01*
X310851D01*
Y155896D01*
X307703Y160094D02*
X314000D01*
Y163243D01*
X312950Y164293D01*
X311901D01*
X310851Y163243D01*
Y160094D01*
Y163243D01*
X309802Y164293D01*
X308752D01*
X307703Y163243D01*
Y160094D01*
Y172689D02*
X314000D01*
Y176887D01*
X307703Y183184D02*
Y178986D01*
X314000D01*
Y183184D01*
X310851Y178986D02*
Y181085D01*
X307703Y185283D02*
X314000D01*
Y188432D01*
X312950Y189481D01*
X308752D01*
X307703Y188432D01*
Y185283D01*
X308752Y202076D02*
X307703Y201026D01*
Y198927D01*
X308752Y197877D01*
X312950D01*
X314000Y198927D01*
Y201026D01*
X312950Y202076D01*
X307703Y204174D02*
X314000D01*
X310851D01*
Y208373D01*
X307703D01*
X314000D01*
Y210472D02*
X309802D01*
X307703Y212571D01*
X309802Y214670D01*
X314000D01*
X310851D01*
Y210472D01*
X308752Y220967D02*
X307703Y219917D01*
Y217818D01*
X308752Y216769D01*
X309802D01*
X310851Y217818D01*
Y219917D01*
X311901Y220967D01*
X312950D01*
X314000Y219917D01*
Y217818D01*
X312950Y216769D01*
X307703Y227264D02*
Y223066D01*
X314000D01*
Y227264D01*
X310851Y223066D02*
Y225165D01*
X314000Y229363D02*
X307703D01*
Y232512D01*
X308752Y233561D01*
X310851D01*
X311901Y232512D01*
Y229363D01*
Y231462D02*
X314000Y233561D01*
X88560Y111199D02*
X86920Y112839D01*
X83640D01*
X82000Y111199D01*
Y104640D01*
X83640Y103000D01*
X86920D01*
X88560Y104640D01*
X91839Y112839D02*
Y103000D01*
X96759D01*
X98399Y104640D01*
Y111199D01*
X96759Y112839D01*
X91839D01*
X106598Y103000D02*
Y112839D01*
X101679Y107920D01*
X108238D01*
X111518Y111199D02*
X113158Y112839D01*
X116438D01*
X118078Y111199D01*
Y104640D01*
X116438Y103000D01*
X113158D01*
X111518Y104640D01*
Y111199D01*
X121357Y103000D02*
X124637D01*
X122997D01*
Y112839D01*
X121357Y111199D01*
X129557Y112839D02*
X136116D01*
Y111199D01*
X129557Y104640D01*
Y103000D01*
X148000Y85000D02*
Y91297D01*
X151149D01*
X152198Y90248D01*
Y88149D01*
X151149Y87099D01*
X148000D01*
X150099D02*
X152198Y85000D01*
X158495Y90248D02*
X157446Y91297D01*
X155347D01*
X154297Y90248D01*
Y86049D01*
X155347Y85000D01*
X157446D01*
X158495Y86049D01*
Y88149D01*
X156396D01*
X160594Y91297D02*
Y85000D01*
X163743D01*
X164793Y86049D01*
Y87099D01*
X163743Y88149D01*
X160594D01*
X163743D01*
X164793Y89198D01*
Y90248D01*
X163743Y91297D01*
X160594D01*
X173189D02*
Y85000D01*
X177387D01*
X183684Y91297D02*
X179486D01*
Y85000D01*
X183684D01*
X179486Y88149D02*
X181585D01*
X185783Y91297D02*
Y85000D01*
X188932D01*
X189981Y86049D01*
Y90248D01*
X188932Y91297D01*
X185783D01*
X202575Y90248D02*
X201526Y91297D01*
X199427D01*
X198377Y90248D01*
Y86049D01*
X199427Y85000D01*
X201526D01*
X202575Y86049D01*
X204675Y91297D02*
Y85000D01*
Y88149D01*
X208873D01*
Y91297D01*
Y85000D01*
X210972D02*
Y89198D01*
X213071Y91297D01*
X215170Y89198D01*
Y85000D01*
Y88149D01*
X210972D01*
X221467Y90248D02*
X220417Y91297D01*
X218318D01*
X217269Y90248D01*
Y89198D01*
X218318Y88149D01*
X220417D01*
X221467Y87099D01*
Y86049D01*
X220417Y85000D01*
X218318D01*
X217269Y86049D01*
X227764Y91297D02*
X223566D01*
Y85000D01*
X227764D01*
X223566Y88149D02*
X225665D01*
X229863Y85000D02*
Y91297D01*
X233012D01*
X234061Y90248D01*
Y88149D01*
X233012Y87099D01*
X229863D01*
X231962D02*
X234061Y85000D01*
X88060Y192700D02*
X86420Y194339D01*
X83140D01*
X81500Y192700D01*
Y186140D01*
X83140Y184500D01*
X86420D01*
X88060Y186140D01*
X91339Y194339D02*
Y184500D01*
X96259D01*
X97899Y186140D01*
Y192700D01*
X96259Y194339D01*
X91339D01*
X106098Y184500D02*
Y194339D01*
X101179Y189420D01*
X107738D01*
X111018Y192700D02*
X112658Y194339D01*
X115938D01*
X117578Y192700D01*
Y186140D01*
X115938Y184500D01*
X112658D01*
X111018Y186140D01*
Y192700D01*
X120857Y184500D02*
X124137D01*
X122497D01*
Y194339D01*
X120857Y192700D01*
X129057Y194339D02*
X135616D01*
Y192700D01*
X129057Y186140D01*
Y184500D01*
X147500Y166500D02*
Y172797D01*
X150649D01*
X151698Y171748D01*
Y169649D01*
X150649Y168599D01*
X147500D01*
X149599D02*
X151698Y166500D01*
X157995Y171748D02*
X156946Y172797D01*
X154847D01*
X153797Y171748D01*
Y167550D01*
X154847Y166500D01*
X156946D01*
X157995Y167550D01*
Y169649D01*
X155896D01*
X160094Y172797D02*
Y166500D01*
X163243D01*
X164293Y167550D01*
Y168599D01*
X163243Y169649D01*
X160094D01*
X163243D01*
X164293Y170698D01*
Y171748D01*
X163243Y172797D01*
X160094D01*
X172689D02*
Y166500D01*
X176887D01*
X183184Y172797D02*
X178986D01*
Y166500D01*
X183184D01*
X178986Y169649D02*
X181085D01*
X185283Y172797D02*
Y166500D01*
X188432D01*
X189481Y167550D01*
Y171748D01*
X188432Y172797D01*
X185283D01*
X202076Y171748D02*
X201026Y172797D01*
X198927D01*
X197877Y171748D01*
Y167550D01*
X198927Y166500D01*
X201026D01*
X202076Y167550D01*
X204174Y172797D02*
Y166500D01*
Y169649D01*
X208373D01*
Y172797D01*
Y166500D01*
X210472D02*
Y170698D01*
X212571Y172797D01*
X214670Y170698D01*
Y166500D01*
Y169649D01*
X210472D01*
X220967Y171748D02*
X219917Y172797D01*
X217818D01*
X216769Y171748D01*
Y170698D01*
X217818Y169649D01*
X219917D01*
X220967Y168599D01*
Y167550D01*
X219917Y166500D01*
X217818D01*
X216769Y167550D01*
X227264Y172797D02*
X223066D01*
Y166500D01*
X227264D01*
X223066Y169649D02*
X225165D01*
X229363Y166500D02*
Y172797D01*
X232512D01*
X233561Y171748D01*
Y169649D01*
X232512Y168599D01*
X229363D01*
X231462D02*
X233561Y166500D01*
X88060Y271699D02*
X86420Y273339D01*
X83140D01*
X81500Y271699D01*
Y265140D01*
X83140Y263500D01*
X86420D01*
X88060Y265140D01*
X91339Y273339D02*
Y263500D01*
X96259D01*
X97899Y265140D01*
Y271699D01*
X96259Y273339D01*
X91339D01*
X106098Y263500D02*
Y273339D01*
X101179Y268420D01*
X107738D01*
X111018Y271699D02*
X112658Y273339D01*
X115938D01*
X117578Y271699D01*
Y265140D01*
X115938Y263500D01*
X112658D01*
X111018Y265140D01*
Y271699D01*
X120857Y263500D02*
X124137D01*
X122497D01*
Y273339D01*
X120857Y271699D01*
X129057Y273339D02*
X135616D01*
Y271699D01*
X129057Y265140D01*
Y263500D01*
X147500Y245500D02*
Y251797D01*
X150649D01*
X151698Y250748D01*
Y248649D01*
X150649Y247599D01*
X147500D01*
X149599D02*
X151698Y245500D01*
X157995Y250748D02*
X156946Y251797D01*
X154847D01*
X153797Y250748D01*
Y246550D01*
X154847Y245500D01*
X156946D01*
X157995Y246550D01*
Y248649D01*
X155896D01*
X160094Y251797D02*
Y245500D01*
X163243D01*
X164293Y246550D01*
Y247599D01*
X163243Y248649D01*
X160094D01*
X163243D01*
X164293Y249698D01*
Y250748D01*
X163243Y251797D01*
X160094D01*
X172689D02*
Y245500D01*
X176887D01*
X183184Y251797D02*
X178986D01*
Y245500D01*
X183184D01*
X178986Y248649D02*
X181085D01*
X185283Y251797D02*
Y245500D01*
X188432D01*
X189481Y246550D01*
Y250748D01*
X188432Y251797D01*
X185283D01*
X202076Y250748D02*
X201026Y251797D01*
X198927D01*
X197877Y250748D01*
Y246550D01*
X198927Y245500D01*
X201026D01*
X202076Y246550D01*
X204174Y251797D02*
Y245500D01*
Y248649D01*
X208373D01*
Y251797D01*
Y245500D01*
X210472D02*
Y249698D01*
X212571Y251797D01*
X214670Y249698D01*
Y245500D01*
Y248649D01*
X210472D01*
X220967Y250748D02*
X219917Y251797D01*
X217818D01*
X216769Y250748D01*
Y249698D01*
X217818Y248649D01*
X219917D01*
X220967Y247599D01*
Y246550D01*
X219917Y245500D01*
X217818D01*
X216769Y246550D01*
X227264Y251797D02*
X223066D01*
Y245500D01*
X227264D01*
X223066Y248649D02*
X225165D01*
X229363Y245500D02*
Y251797D01*
X232512D01*
X233561Y250748D01*
Y248649D01*
X232512Y247599D01*
X229363D01*
X231462D02*
X233561Y245500D01*
X87560Y350699D02*
X85920Y352339D01*
X82640D01*
X81000Y350699D01*
Y344140D01*
X82640Y342500D01*
X85920D01*
X87560Y344140D01*
X90839Y352339D02*
Y342500D01*
X95759D01*
X97399Y344140D01*
Y350699D01*
X95759Y352339D01*
X90839D01*
X105598Y342500D02*
Y352339D01*
X100679Y347420D01*
X107238D01*
X110518Y350699D02*
X112158Y352339D01*
X115438D01*
X117078Y350699D01*
Y344140D01*
X115438Y342500D01*
X112158D01*
X110518Y344140D01*
Y350699D01*
X120357Y342500D02*
X123637D01*
X121997D01*
Y352339D01*
X120357Y350699D01*
X128557Y352339D02*
X135116D01*
Y350699D01*
X128557Y344140D01*
Y342500D01*
X147000Y324500D02*
Y330797D01*
X150149D01*
X151198Y329748D01*
Y327649D01*
X150149Y326599D01*
X147000D01*
X149099D02*
X151198Y324500D01*
X157495Y329748D02*
X156446Y330797D01*
X154347D01*
X153297Y329748D01*
Y325550D01*
X154347Y324500D01*
X156446D01*
X157495Y325550D01*
Y327649D01*
X155396D01*
X159594Y330797D02*
Y324500D01*
X162743D01*
X163793Y325550D01*
Y326599D01*
X162743Y327649D01*
X159594D01*
X162743D01*
X163793Y328698D01*
Y329748D01*
X162743Y330797D01*
X159594D01*
X172189D02*
Y324500D01*
X176387D01*
X182684Y330797D02*
X178486D01*
Y324500D01*
X182684D01*
X178486Y327649D02*
X180585D01*
X184783Y330797D02*
Y324500D01*
X187932D01*
X188981Y325550D01*
Y329748D01*
X187932Y330797D01*
X184783D01*
X201575Y329748D02*
X200526Y330797D01*
X198427D01*
X197377Y329748D01*
Y325550D01*
X198427Y324500D01*
X200526D01*
X201575Y325550D01*
X203675Y330797D02*
Y324500D01*
Y327649D01*
X207873D01*
Y330797D01*
Y324500D01*
X209972D02*
Y328698D01*
X212071Y330797D01*
X214170Y328698D01*
Y324500D01*
Y327649D01*
X209972D01*
X220467Y329748D02*
X219418Y330797D01*
X217318D01*
X216269Y329748D01*
Y328698D01*
X217318Y327649D01*
X219418D01*
X220467Y326599D01*
Y325550D01*
X219418Y324500D01*
X217318D01*
X216269Y325550D01*
X226764Y330797D02*
X222566D01*
Y324500D01*
X226764D01*
X222566Y327649D02*
X224665D01*
X228863Y324500D02*
Y330797D01*
X232012D01*
X233061Y329748D01*
Y327649D01*
X232012Y326599D01*
X228863D01*
X230962D02*
X233061Y324500D01*
X148000Y4197D02*
Y10494D01*
X151149D01*
X152198Y9444D01*
Y7345D01*
X151149Y6296D01*
X148000D01*
X150099D02*
X152198Y4197D01*
X158495Y9444D02*
X157446Y10494D01*
X155347D01*
X154297Y9444D01*
Y5246D01*
X155347Y4197D01*
X157446D01*
X158495Y5246D01*
Y7345D01*
X156396D01*
X160594Y10494D02*
Y4197D01*
X163743D01*
X164793Y5246D01*
Y6296D01*
X163743Y7345D01*
X160594D01*
X163743D01*
X164793Y8395D01*
Y9444D01*
X163743Y10494D01*
X160594D01*
X173189D02*
Y4197D01*
X177387D01*
X183684Y10494D02*
X179486D01*
Y4197D01*
X183684D01*
X179486Y7345D02*
X181585D01*
X185783Y10494D02*
Y4197D01*
X188932D01*
X189981Y5246D01*
Y9444D01*
X188932Y10494D01*
X185783D01*
X202575Y9444D02*
X201526Y10494D01*
X199427D01*
X198377Y9444D01*
Y5246D01*
X199427Y4197D01*
X201526D01*
X202575Y5246D01*
X204675Y10494D02*
Y4197D01*
Y7345D01*
X208873D01*
Y10494D01*
Y4197D01*
X210972D02*
Y8395D01*
X213071Y10494D01*
X215170Y8395D01*
Y4197D01*
Y7345D01*
X210972D01*
X221467Y9444D02*
X220417Y10494D01*
X218318D01*
X217269Y9444D01*
Y8395D01*
X218318Y7345D01*
X220417D01*
X221467Y6296D01*
Y5246D01*
X220417Y4197D01*
X218318D01*
X217269Y5246D01*
X227764Y10494D02*
X223566D01*
Y4197D01*
X227764D01*
X223566Y7345D02*
X225665D01*
X229863Y4197D02*
Y10494D01*
X233012D01*
X234061Y9444D01*
Y7345D01*
X233012Y6296D01*
X229863D01*
X231962D02*
X234061Y4197D01*
X88560Y30396D02*
X86920Y32036D01*
X83640D01*
X82000Y30396D01*
Y23837D01*
X83640Y22197D01*
X86920D01*
X88560Y23837D01*
X91839Y32036D02*
Y22197D01*
X96759D01*
X98399Y23837D01*
Y30396D01*
X96759Y32036D01*
X91839D01*
X106598Y22197D02*
Y32036D01*
X101679Y27117D01*
X108238D01*
X111518Y30396D02*
X113158Y32036D01*
X116438D01*
X118078Y30396D01*
Y23837D01*
X116438Y22197D01*
X113158D01*
X111518Y23837D01*
Y30396D01*
X121357Y22197D02*
X124637D01*
X122997D01*
Y32036D01*
X121357Y30396D01*
X129557Y32036D02*
X136116D01*
Y30396D01*
X129557Y23837D01*
Y22197D01*
D40*
X395500Y17000D02*
X390252D01*
X387629Y19624D01*
X390252Y22248D01*
X395500D01*
X391564D01*
Y17000D01*
X395500Y24871D02*
X394188D01*
Y26183D01*
X395500D01*
Y24871D01*
X387629Y31431D02*
Y34055D01*
Y32743D01*
X395500D01*
Y31431D01*
Y34055D01*
Y37991D02*
X394188D01*
Y39303D01*
X395500D01*
Y37991D01*
Y52422D02*
X387629D01*
Y56357D01*
X388940Y57669D01*
X391564D01*
X392876Y56357D01*
Y52422D01*
X388940Y65541D02*
X387629Y64229D01*
Y61605D01*
X388940Y60293D01*
X394188D01*
X395500Y61605D01*
Y64229D01*
X394188Y65541D01*
X387629Y68165D02*
X395500D01*
Y72100D01*
X394188Y73412D01*
X392876D01*
X391564Y72100D01*
Y68165D01*
Y72100D01*
X390252Y73412D01*
X388940D01*
X387629Y72100D01*
Y68165D01*
X313000Y17000D02*
X307752D01*
X305129Y19624D01*
X307752Y22248D01*
X313000D01*
X309064D01*
Y17000D01*
X313000Y24871D02*
X311688D01*
Y26183D01*
X313000D01*
Y24871D01*
X305129Y31431D02*
Y34055D01*
Y32743D01*
X313000D01*
Y31431D01*
Y34055D01*
Y37991D02*
X311688D01*
Y39303D01*
X313000D01*
Y37991D01*
Y52422D02*
X305129D01*
Y56357D01*
X306440Y57669D01*
X309064D01*
X310376Y56357D01*
Y52422D01*
X306440Y65541D02*
X305129Y64229D01*
Y61605D01*
X306440Y60293D01*
X311688D01*
X313000Y61605D01*
Y64229D01*
X311688Y65541D01*
X305129Y68165D02*
X313000D01*
Y72100D01*
X311688Y73412D01*
X310376D01*
X309064Y72100D01*
Y68165D01*
Y72100D01*
X307752Y73412D01*
X306440D01*
X305129Y72100D01*
Y68165D01*
X17500Y86000D02*
Y91248D01*
X20124Y93871D01*
X22748Y91248D01*
Y86000D01*
Y89936D01*
X17500D01*
X25372Y86000D02*
Y87312D01*
X26683D01*
Y86000D01*
X25372D01*
X31931Y93871D02*
X34555D01*
X33243D01*
Y86000D01*
X31931D01*
X34555D01*
X38491D02*
Y87312D01*
X39803D01*
Y86000D01*
X38491D01*
X52922D02*
Y93871D01*
X56857D01*
X58169Y92560D01*
Y89936D01*
X56857Y88624D01*
X52922D01*
X66041Y92560D02*
X64729Y93871D01*
X62105D01*
X60793Y92560D01*
Y87312D01*
X62105Y86000D01*
X64729D01*
X66041Y87312D01*
X68665Y93871D02*
Y86000D01*
X72600D01*
X73912Y87312D01*
Y88624D01*
X72600Y89936D01*
X68665D01*
X72600D01*
X73912Y91248D01*
Y92560D01*
X72600Y93871D01*
X68665D01*
X17000Y167500D02*
Y172748D01*
X19624Y175372D01*
X22248Y172748D01*
Y167500D01*
Y171436D01*
X17000D01*
X24871Y167500D02*
Y168812D01*
X26183D01*
Y167500D01*
X24871D01*
X31431Y175372D02*
X34055D01*
X32743D01*
Y167500D01*
X31431D01*
X34055D01*
X37991D02*
Y168812D01*
X39303D01*
Y167500D01*
X37991D01*
X52422D02*
Y175372D01*
X56357D01*
X57669Y174060D01*
Y171436D01*
X56357Y170124D01*
X52422D01*
X65541Y174060D02*
X64229Y175372D01*
X61605D01*
X60293Y174060D01*
Y168812D01*
X61605Y167500D01*
X64229D01*
X65541Y168812D01*
X68165Y175372D02*
Y167500D01*
X72100D01*
X73412Y168812D01*
Y170124D01*
X72100Y171436D01*
X68165D01*
X72100D01*
X73412Y172748D01*
Y174060D01*
X72100Y175372D01*
X68165D01*
X17000Y246500D02*
Y251748D01*
X19624Y254372D01*
X22248Y251748D01*
Y246500D01*
Y250436D01*
X17000D01*
X24871Y246500D02*
Y247812D01*
X26183D01*
Y246500D01*
X24871D01*
X31431Y254372D02*
X34055D01*
X32743D01*
Y246500D01*
X31431D01*
X34055D01*
X37991D02*
Y247812D01*
X39303D01*
Y246500D01*
X37991D01*
X52422D02*
Y254372D01*
X56357D01*
X57669Y253060D01*
Y250436D01*
X56357Y249124D01*
X52422D01*
X65541Y253060D02*
X64229Y254372D01*
X61605D01*
X60293Y253060D01*
Y247812D01*
X61605Y246500D01*
X64229D01*
X65541Y247812D01*
X68165Y254372D02*
Y246500D01*
X72100D01*
X73412Y247812D01*
Y249124D01*
X72100Y250436D01*
X68165D01*
X72100D01*
X73412Y251748D01*
Y253060D01*
X72100Y254372D01*
X68165D01*
X16500Y325500D02*
Y330748D01*
X19124Y333371D01*
X21748Y330748D01*
Y325500D01*
Y329436D01*
X16500D01*
X24372Y325500D02*
Y326812D01*
X25683D01*
Y325500D01*
X24372D01*
X30931Y333371D02*
X33555D01*
X32243D01*
Y325500D01*
X30931D01*
X33555D01*
X37491D02*
Y326812D01*
X38802D01*
Y325500D01*
X37491D01*
X51922D02*
Y333371D01*
X55857D01*
X57169Y332060D01*
Y329436D01*
X55857Y328124D01*
X51922D01*
X65041Y332060D02*
X63729Y333371D01*
X61105D01*
X59793Y332060D01*
Y326812D01*
X61105Y325500D01*
X63729D01*
X65041Y326812D01*
X67665Y333371D02*
Y325500D01*
X71600D01*
X72912Y326812D01*
Y328124D01*
X71600Y329436D01*
X67665D01*
X71600D01*
X72912Y330748D01*
Y332060D01*
X71600Y333371D01*
X67665D01*
X17500Y5197D02*
Y10445D01*
X20124Y13068D01*
X22748Y10445D01*
Y5197D01*
Y9132D01*
X17500D01*
X25372Y5197D02*
Y6509D01*
X26683D01*
Y5197D01*
X25372D01*
X31931Y13068D02*
X34555D01*
X33243D01*
Y5197D01*
X31931D01*
X34555D01*
X38491D02*
Y6509D01*
X39803D01*
Y5197D01*
X38491D01*
X52922D02*
Y13068D01*
X56857D01*
X58169Y11756D01*
Y9132D01*
X56857Y7821D01*
X52922D01*
X66041Y11756D02*
X64729Y13068D01*
X62105D01*
X60793Y11756D01*
Y6509D01*
X62105Y5197D01*
X64729D01*
X66041Y6509D01*
X68665Y13068D02*
Y5197D01*
X72600D01*
X73912Y6509D01*
Y7821D01*
X72600Y9132D01*
X68665D01*
X72600D01*
X73912Y10445D01*
Y11756D01*
X72600Y13068D01*
X68665D01*
D41*
X370000Y22812D02*
X371312Y21500D01*
X373936D01*
X375248Y22812D01*
Y28060D01*
X373936Y29372D01*
X371312D01*
X370000Y28060D01*
Y26748D01*
X371312Y25436D01*
X375248D01*
X377871Y29372D02*
Y24124D01*
X380495Y21500D01*
X383119Y24124D01*
Y29372D01*
X287500Y22812D02*
X288812Y21500D01*
X291436D01*
X292748Y22812D01*
Y28060D01*
X291436Y29372D01*
X288812D01*
X287500Y28060D01*
Y26748D01*
X288812Y25436D01*
X292748D01*
X295372Y29372D02*
Y24124D01*
X297995Y21500D01*
X300619Y24124D01*
Y29372D01*
X23312Y111500D02*
X22000Y110188D01*
Y107564D01*
X23312Y106252D01*
X28560D01*
X29871Y107564D01*
Y110188D01*
X28560Y111500D01*
X27248D01*
X25936Y110188D01*
Y106252D01*
X29871Y103629D02*
X24624D01*
X22000Y101005D01*
X24624Y98381D01*
X29871D01*
X22812Y193000D02*
X21500Y191688D01*
Y189064D01*
X22812Y187752D01*
X28060D01*
X29372Y189064D01*
Y191688D01*
X28060Y193000D01*
X26748D01*
X25436Y191688D01*
Y187752D01*
X29372Y185128D02*
X24124D01*
X21500Y182505D01*
X24124Y179881D01*
X29372D01*
X22812Y272000D02*
X21500Y270688D01*
Y268064D01*
X22812Y266752D01*
X28060D01*
X29372Y268064D01*
Y270688D01*
X28060Y272000D01*
X26748D01*
X25436Y270688D01*
Y266752D01*
X29372Y264128D02*
X24124D01*
X21500Y261505D01*
X24124Y258881D01*
X29372D01*
X22312Y351000D02*
X21000Y349688D01*
Y347064D01*
X22312Y345752D01*
X27560D01*
X28872Y347064D01*
Y349688D01*
X27560Y351000D01*
X26248D01*
X24936Y349688D01*
Y345752D01*
X28872Y343128D02*
X23624D01*
X21000Y340505D01*
X23624Y337881D01*
X28872D01*
X23312Y30697D02*
X22000Y29385D01*
Y26761D01*
X23312Y25449D01*
X28560D01*
X29871Y26761D01*
Y29385D01*
X28560Y30697D01*
X27248D01*
X25936Y29385D01*
Y25449D01*
X29871Y22825D02*
X24624D01*
X22000Y20201D01*
X24624Y17578D01*
X29871D01*
M02*
