G04 Layer_Color=32896*
%FSLAX25Y25*%
%MOIN*%
G70*
G01*
G75*
%ADD25C,0.01181*%
%ADD27C,0.01575*%
D25*
X160500Y379000D02*
Y382999D01*
X158501Y384998D01*
X156501Y382999D01*
Y379000D01*
Y381999D01*
X160500D01*
X154502Y384998D02*
X152503D01*
X153502D01*
Y379000D01*
X154502D01*
X152503D01*
X143506D02*
Y384998D01*
X140506D01*
X139507Y383998D01*
Y381999D01*
X140506Y380999D01*
X143506D01*
X133509Y383998D02*
X134508Y384998D01*
X136508D01*
X137507Y383998D01*
Y380000D01*
X136508Y379000D01*
X134508D01*
X133509Y380000D01*
X131509Y384998D02*
Y379000D01*
X128510D01*
X127511Y380000D01*
Y380999D01*
X128510Y381999D01*
X131509D01*
X128510D01*
X127511Y382999D01*
Y383998D01*
X128510Y384998D01*
X131509D01*
X358000Y379000D02*
Y382999D01*
X356001Y384998D01*
X354001Y382999D01*
Y379000D01*
Y381999D01*
X358000D01*
X352002Y384998D02*
X350003D01*
X351002D01*
Y379000D01*
X352002D01*
X350003D01*
X341005D02*
Y384998D01*
X338006D01*
X337007Y383998D01*
Y381999D01*
X338006Y380999D01*
X341005D01*
X331009Y383998D02*
X332008Y384998D01*
X334008D01*
X335007Y383998D01*
Y380000D01*
X334008Y379000D01*
X332008D01*
X331009Y380000D01*
X329009Y384998D02*
Y379000D01*
X326010D01*
X325011Y380000D01*
Y380999D01*
X326010Y381999D01*
X329009D01*
X326010D01*
X325011Y382999D01*
Y383998D01*
X326010Y384998D01*
X329009D01*
X160000Y301500D02*
Y305499D01*
X158001Y307498D01*
X156001Y305499D01*
Y301500D01*
Y304499D01*
X160000D01*
X154002Y307498D02*
X152003D01*
X153002D01*
Y301500D01*
X154002D01*
X152003D01*
X143006D02*
Y307498D01*
X140006D01*
X139007Y306498D01*
Y304499D01*
X140006Y303499D01*
X143006D01*
X133009Y306498D02*
X134008Y307498D01*
X136008D01*
X137007Y306498D01*
Y302500D01*
X136008Y301500D01*
X134008D01*
X133009Y302500D01*
X131009Y307498D02*
Y301500D01*
X128010D01*
X127011Y302500D01*
Y303499D01*
X128010Y304499D01*
X131009D01*
X128010D01*
X127011Y305499D01*
Y306498D01*
X128010Y307498D01*
X131009D01*
X357500Y301500D02*
Y305499D01*
X355501Y307498D01*
X353501Y305499D01*
Y301500D01*
Y304499D01*
X357500D01*
X351502Y307498D02*
X349503D01*
X350502D01*
Y301500D01*
X351502D01*
X349503D01*
X340506D02*
Y307498D01*
X337507D01*
X336507Y306498D01*
Y304499D01*
X337507Y303499D01*
X340506D01*
X330509Y306498D02*
X331508Y307498D01*
X333508D01*
X334507Y306498D01*
Y302500D01*
X333508Y301500D01*
X331508D01*
X330509Y302500D01*
X328509Y307498D02*
Y301500D01*
X325510D01*
X324511Y302500D01*
Y303499D01*
X325510Y304499D01*
X328509D01*
X325510D01*
X324511Y305499D01*
Y306498D01*
X325510Y307498D01*
X328509D01*
X160000Y224000D02*
Y227999D01*
X158001Y229998D01*
X156001Y227999D01*
Y224000D01*
Y226999D01*
X160000D01*
X154002Y229998D02*
X152003D01*
X153002D01*
Y224000D01*
X154002D01*
X152003D01*
X143006D02*
Y229998D01*
X140006D01*
X139007Y228998D01*
Y226999D01*
X140006Y225999D01*
X143006D01*
X133009Y228998D02*
X134008Y229998D01*
X136008D01*
X137007Y228998D01*
Y225000D01*
X136008Y224000D01*
X134008D01*
X133009Y225000D01*
X131009Y229998D02*
Y224000D01*
X128010D01*
X127011Y225000D01*
Y225999D01*
X128010Y226999D01*
X131009D01*
X128010D01*
X127011Y227999D01*
Y228998D01*
X128010Y229998D01*
X131009D01*
X357500Y224000D02*
Y227999D01*
X355501Y229998D01*
X353501Y227999D01*
Y224000D01*
Y226999D01*
X357500D01*
X351502Y229998D02*
X349503D01*
X350502D01*
Y224000D01*
X351502D01*
X349503D01*
X340506D02*
Y229998D01*
X337507D01*
X336507Y228998D01*
Y226999D01*
X337507Y225999D01*
X340506D01*
X330509Y228998D02*
X331508Y229998D01*
X333508D01*
X334507Y228998D01*
Y225000D01*
X333508Y224000D01*
X331508D01*
X330509Y225000D01*
X328509Y229998D02*
Y224000D01*
X325510D01*
X324511Y225000D01*
Y225999D01*
X325510Y226999D01*
X328509D01*
X325510D01*
X324511Y227999D01*
Y228998D01*
X325510Y229998D01*
X328509D01*
X160000Y145000D02*
Y148999D01*
X158001Y150998D01*
X156001Y148999D01*
Y145000D01*
Y147999D01*
X160000D01*
X154002Y150998D02*
X152003D01*
X153002D01*
Y145000D01*
X154002D01*
X152003D01*
X143006D02*
Y150998D01*
X140006D01*
X139007Y149998D01*
Y147999D01*
X140006Y146999D01*
X143006D01*
X133009Y149998D02*
X134008Y150998D01*
X136008D01*
X137007Y149998D01*
Y146000D01*
X136008Y145000D01*
X134008D01*
X133009Y146000D01*
X131009Y150998D02*
Y145000D01*
X128010D01*
X127011Y146000D01*
Y146999D01*
X128010Y147999D01*
X131009D01*
X128010D01*
X127011Y148999D01*
Y149998D01*
X128010Y150998D01*
X131009D01*
X357500Y145000D02*
Y148999D01*
X355501Y150998D01*
X353501Y148999D01*
Y145000D01*
Y147999D01*
X357500D01*
X351502Y150998D02*
X349503D01*
X350502D01*
Y145000D01*
X351502D01*
X349503D01*
X340506D02*
Y150998D01*
X337507D01*
X336507Y149998D01*
Y147999D01*
X337507Y146999D01*
X340506D01*
X330509Y149998D02*
X331508Y150998D01*
X333508D01*
X334507Y149998D01*
Y146000D01*
X333508Y145000D01*
X331508D01*
X330509Y146000D01*
X328509Y150998D02*
Y145000D01*
X325510D01*
X324511Y146000D01*
Y146999D01*
X325510Y147999D01*
X328509D01*
X325510D01*
X324511Y148999D01*
Y149998D01*
X325510Y150998D01*
X328509D01*
X358000Y66500D02*
Y70499D01*
X356001Y72498D01*
X354001Y70499D01*
Y66500D01*
Y69499D01*
X358000D01*
X352002Y72498D02*
X350003D01*
X351002D01*
Y66500D01*
X352002D01*
X350003D01*
X341005D02*
Y72498D01*
X338006D01*
X337007Y71498D01*
Y69499D01*
X338006Y68499D01*
X341005D01*
X331009Y71498D02*
X332008Y72498D01*
X334008D01*
X335007Y71498D01*
Y67500D01*
X334008Y66500D01*
X332008D01*
X331009Y67500D01*
X329009Y72498D02*
Y66500D01*
X326010D01*
X325011Y67500D01*
Y68499D01*
X326010Y69499D01*
X329009D01*
X326010D01*
X325011Y70499D01*
Y71498D01*
X326010Y72498D01*
X329009D01*
X160500Y66500D02*
Y70499D01*
X158501Y72498D01*
X156501Y70499D01*
Y66500D01*
Y69499D01*
X160500D01*
X154502Y72498D02*
X152503D01*
X153502D01*
Y66500D01*
X154502D01*
X152503D01*
X143506D02*
Y72498D01*
X140506D01*
X139507Y71498D01*
Y69499D01*
X140506Y68499D01*
X143506D01*
X133509Y71498D02*
X134508Y72498D01*
X136508D01*
X137507Y71498D01*
Y67500D01*
X136508Y66500D01*
X134508D01*
X133509Y67500D01*
X131509Y72498D02*
Y66500D01*
X128510D01*
X127511Y67500D01*
Y68499D01*
X128510Y69499D01*
X131509D01*
X128510D01*
X127511Y70499D01*
Y71498D01*
X128510Y72498D01*
X131509D01*
D27*
X168500Y323998D02*
Y319999D01*
X166501Y318000D01*
X164501Y319999D01*
Y323998D01*
X162502D02*
Y319000D01*
X161502Y318000D01*
X159503D01*
X158503Y319000D01*
Y323998D01*
X150506Y318000D02*
Y323998D01*
X148506Y321999D01*
X146507Y323998D01*
Y318000D01*
X140509Y323998D02*
X144508D01*
Y318000D01*
X140509D01*
X144508Y320999D02*
X142508D01*
X138510Y323998D02*
X134511D01*
X136510D01*
Y318000D01*
X128513Y323998D02*
X132512D01*
Y318000D01*
X128513D01*
X132512Y320999D02*
X130512D01*
X126514Y318000D02*
Y323998D01*
X123515D01*
X122515Y322998D01*
Y320999D01*
X123515Y319999D01*
X126514D01*
X124514D02*
X122515Y318000D01*
X366000Y323998D02*
Y319999D01*
X364001Y318000D01*
X362001Y319999D01*
Y323998D01*
X360002D02*
Y319000D01*
X359002Y318000D01*
X357003D01*
X356003Y319000D01*
Y323998D01*
X348006Y318000D02*
Y323998D01*
X346006Y321999D01*
X344007Y323998D01*
Y318000D01*
X338009Y323998D02*
X342008D01*
Y318000D01*
X338009D01*
X342008Y320999D02*
X340008D01*
X336010Y323998D02*
X332011D01*
X334010D01*
Y318000D01*
X326013Y323998D02*
X330012D01*
Y318000D01*
X326013D01*
X330012Y320999D02*
X328012D01*
X324014Y318000D02*
Y323998D01*
X321015D01*
X320015Y322998D01*
Y320999D01*
X321015Y319999D01*
X324014D01*
X322014D02*
X320015Y318000D01*
X168000Y246498D02*
Y242499D01*
X166001Y240500D01*
X164001Y242499D01*
Y246498D01*
X162002D02*
Y241500D01*
X161002Y240500D01*
X159003D01*
X158003Y241500D01*
Y246498D01*
X150006Y240500D02*
Y246498D01*
X148006Y244499D01*
X146007Y246498D01*
Y240500D01*
X140009Y246498D02*
X144008D01*
Y240500D01*
X140009D01*
X144008Y243499D02*
X142008D01*
X138010Y246498D02*
X134011D01*
X136010D01*
Y240500D01*
X128013Y246498D02*
X132012D01*
Y240500D01*
X128013D01*
X132012Y243499D02*
X130012D01*
X126014Y240500D02*
Y246498D01*
X123015D01*
X122015Y245498D01*
Y243499D01*
X123015Y242499D01*
X126014D01*
X124014D02*
X122015Y240500D01*
X365500Y246498D02*
Y242499D01*
X363501Y240500D01*
X361501Y242499D01*
Y246498D01*
X359502D02*
Y241500D01*
X358502Y240500D01*
X356503D01*
X355503Y241500D01*
Y246498D01*
X347506Y240500D02*
Y246498D01*
X345507Y244499D01*
X343507Y246498D01*
Y240500D01*
X337509Y246498D02*
X341508D01*
Y240500D01*
X337509D01*
X341508Y243499D02*
X339508D01*
X335510Y246498D02*
X331511D01*
X333510D01*
Y240500D01*
X325513Y246498D02*
X329512D01*
Y240500D01*
X325513D01*
X329512Y243499D02*
X327512D01*
X323514Y240500D02*
Y246498D01*
X320515D01*
X319515Y245498D01*
Y243499D01*
X320515Y242499D01*
X323514D01*
X321514D02*
X319515Y240500D01*
X168000Y168998D02*
Y164999D01*
X166001Y163000D01*
X164001Y164999D01*
Y168998D01*
X162002D02*
Y164000D01*
X161002Y163000D01*
X159003D01*
X158003Y164000D01*
Y168998D01*
X150006Y163000D02*
Y168998D01*
X148006Y166999D01*
X146007Y168998D01*
Y163000D01*
X140009Y168998D02*
X144008D01*
Y163000D01*
X140009D01*
X144008Y165999D02*
X142008D01*
X138010Y168998D02*
X134011D01*
X136010D01*
Y163000D01*
X128013Y168998D02*
X132012D01*
Y163000D01*
X128013D01*
X132012Y165999D02*
X130012D01*
X126014Y163000D02*
Y168998D01*
X123015D01*
X122015Y167998D01*
Y165999D01*
X123015Y164999D01*
X126014D01*
X124014D02*
X122015Y163000D01*
X365500Y168998D02*
Y164999D01*
X363501Y163000D01*
X361501Y164999D01*
Y168998D01*
X359502D02*
Y164000D01*
X358502Y163000D01*
X356503D01*
X355503Y164000D01*
Y168998D01*
X347506Y163000D02*
Y168998D01*
X345507Y166999D01*
X343507Y168998D01*
Y163000D01*
X337509Y168998D02*
X341508D01*
Y163000D01*
X337509D01*
X341508Y165999D02*
X339508D01*
X335510Y168998D02*
X331511D01*
X333510D01*
Y163000D01*
X325513Y168998D02*
X329512D01*
Y163000D01*
X325513D01*
X329512Y165999D02*
X327512D01*
X323514Y163000D02*
Y168998D01*
X320515D01*
X319515Y167998D01*
Y165999D01*
X320515Y164999D01*
X323514D01*
X321514D02*
X319515Y163000D01*
X168000Y89998D02*
Y85999D01*
X166001Y84000D01*
X164001Y85999D01*
Y89998D01*
X162002D02*
Y85000D01*
X161002Y84000D01*
X159003D01*
X158003Y85000D01*
Y89998D01*
X150006Y84000D02*
Y89998D01*
X148006Y87999D01*
X146007Y89998D01*
Y84000D01*
X140009Y89998D02*
X144008D01*
Y84000D01*
X140009D01*
X144008Y86999D02*
X142008D01*
X138010Y89998D02*
X134011D01*
X136010D01*
Y84000D01*
X128013Y89998D02*
X132012D01*
Y84000D01*
X128013D01*
X132012Y86999D02*
X130012D01*
X126014Y84000D02*
Y89998D01*
X123015D01*
X122015Y88998D01*
Y86999D01*
X123015Y85999D01*
X126014D01*
X124014D02*
X122015Y84000D01*
X365500Y89998D02*
Y85999D01*
X363501Y84000D01*
X361501Y85999D01*
Y89998D01*
X359502D02*
Y85000D01*
X358502Y84000D01*
X356503D01*
X355503Y85000D01*
Y89998D01*
X347506Y84000D02*
Y89998D01*
X345507Y87999D01*
X343507Y89998D01*
Y84000D01*
X337509Y89998D02*
X341508D01*
Y84000D01*
X337509D01*
X341508Y86999D02*
X339508D01*
X335510Y89998D02*
X331511D01*
X333510D01*
Y84000D01*
X325513Y89998D02*
X329512D01*
Y84000D01*
X325513D01*
X329512Y86999D02*
X327512D01*
X323514Y84000D02*
Y89998D01*
X320515D01*
X319515Y88998D01*
Y86999D01*
X320515Y85999D01*
X323514D01*
X321514D02*
X319515Y84000D01*
X366000Y11498D02*
Y7499D01*
X364001Y5500D01*
X362001Y7499D01*
Y11498D01*
X360002D02*
Y6500D01*
X359002Y5500D01*
X357003D01*
X356003Y6500D01*
Y11498D01*
X348006Y5500D02*
Y11498D01*
X346006Y9499D01*
X344007Y11498D01*
Y5500D01*
X338009Y11498D02*
X342008D01*
Y5500D01*
X338009D01*
X342008Y8499D02*
X340008D01*
X336010Y11498D02*
X332011D01*
X334010D01*
Y5500D01*
X326013Y11498D02*
X330012D01*
Y5500D01*
X326013D01*
X330012Y8499D02*
X328012D01*
X324014Y5500D02*
Y11498D01*
X321015D01*
X320015Y10498D01*
Y8499D01*
X321015Y7499D01*
X324014D01*
X322014D02*
X320015Y5500D01*
X168500Y11498D02*
Y7499D01*
X166501Y5500D01*
X164501Y7499D01*
Y11498D01*
X162502D02*
Y6500D01*
X161502Y5500D01*
X159503D01*
X158503Y6500D01*
Y11498D01*
X150506Y5500D02*
Y11498D01*
X148506Y9499D01*
X146507Y11498D01*
Y5500D01*
X140509Y11498D02*
X144508D01*
Y5500D01*
X140509D01*
X144508Y8499D02*
X142508D01*
X138510Y11498D02*
X134511D01*
X136510D01*
Y5500D01*
X128513Y11498D02*
X132512D01*
Y5500D01*
X128513D01*
X132512Y8499D02*
X130512D01*
X126514Y5500D02*
Y11498D01*
X123515D01*
X122515Y10498D01*
Y8499D01*
X123515Y7499D01*
X126514D01*
X124514D02*
X122515Y5500D01*
M02*
