G04 Layer_Color=65535*
%FSLAX25Y25*%
%MOIN*%
G70*
G01*
G75*
%ADD22C,0.01000*%
%ADD23C,0.00787*%
%ADD24C,0.00500*%
%ADD25C,0.01181*%
%ADD26C,0.00591*%
%ADD27C,0.01575*%
%ADD28C,0.00984*%
D22*
X28933Y372500D02*
G03*
X28933Y372500I-10433J0D01*
G01*
X53433D02*
G03*
X53433Y372500I-10433J0D01*
G01*
X77433D02*
G03*
X77433Y372500I-10433J0D01*
G01*
X101933D02*
G03*
X101933Y372500I-10433J0D01*
G01*
X126433D02*
G03*
X126433Y372500I-10433J0D01*
G01*
X323933D02*
G03*
X323933Y372500I-10433J0D01*
G01*
X299433D02*
G03*
X299433Y372500I-10433J0D01*
G01*
X274933D02*
G03*
X274933Y372500I-10433J0D01*
G01*
X250933D02*
G03*
X250933Y372500I-10433J0D01*
G01*
X226433D02*
G03*
X226433Y372500I-10433J0D01*
G01*
X28433Y295000D02*
G03*
X28433Y295000I-10433J0D01*
G01*
X52933D02*
G03*
X52933Y295000I-10433J0D01*
G01*
X76933D02*
G03*
X76933Y295000I-10433J0D01*
G01*
X101433D02*
G03*
X101433Y295000I-10433J0D01*
G01*
X125933D02*
G03*
X125933Y295000I-10433J0D01*
G01*
X323433D02*
G03*
X323433Y295000I-10433J0D01*
G01*
X298933D02*
G03*
X298933Y295000I-10433J0D01*
G01*
X274433D02*
G03*
X274433Y295000I-10433J0D01*
G01*
X250433D02*
G03*
X250433Y295000I-10433J0D01*
G01*
X225933D02*
G03*
X225933Y295000I-10433J0D01*
G01*
X28433Y217500D02*
G03*
X28433Y217500I-10433J0D01*
G01*
X52933D02*
G03*
X52933Y217500I-10433J0D01*
G01*
X76933D02*
G03*
X76933Y217500I-10433J0D01*
G01*
X101433D02*
G03*
X101433Y217500I-10433J0D01*
G01*
X125933D02*
G03*
X125933Y217500I-10433J0D01*
G01*
X323433D02*
G03*
X323433Y217500I-10433J0D01*
G01*
X298933D02*
G03*
X298933Y217500I-10433J0D01*
G01*
X274433D02*
G03*
X274433Y217500I-10433J0D01*
G01*
X250433D02*
G03*
X250433Y217500I-10433J0D01*
G01*
X225933D02*
G03*
X225933Y217500I-10433J0D01*
G01*
X28433Y138500D02*
G03*
X28433Y138500I-10433J0D01*
G01*
X52933D02*
G03*
X52933Y138500I-10433J0D01*
G01*
X76933D02*
G03*
X76933Y138500I-10433J0D01*
G01*
X101433D02*
G03*
X101433Y138500I-10433J0D01*
G01*
X125933D02*
G03*
X125933Y138500I-10433J0D01*
G01*
X323433D02*
G03*
X323433Y138500I-10433J0D01*
G01*
X298933D02*
G03*
X298933Y138500I-10433J0D01*
G01*
X274433D02*
G03*
X274433Y138500I-10433J0D01*
G01*
X250433D02*
G03*
X250433Y138500I-10433J0D01*
G01*
X225933D02*
G03*
X225933Y138500I-10433J0D01*
G01*
X226433Y60000D02*
G03*
X226433Y60000I-10433J0D01*
G01*
X250933D02*
G03*
X250933Y60000I-10433J0D01*
G01*
X274933D02*
G03*
X274933Y60000I-10433J0D01*
G01*
X299433D02*
G03*
X299433Y60000I-10433J0D01*
G01*
X323933D02*
G03*
X323933Y60000I-10433J0D01*
G01*
X77433D02*
G03*
X77433Y60000I-10433J0D01*
G01*
X53433D02*
G03*
X53433Y60000I-10433J0D01*
G01*
X28933D02*
G03*
X28933Y60000I-10433J0D01*
G01*
X126433D02*
G03*
X126433Y60000I-10433J0D01*
G01*
X101933D02*
G03*
X101933Y60000I-10433J0D01*
G01*
X2500Y315000D02*
Y387500D01*
X196000D01*
Y315000D02*
Y387500D01*
X2500Y315000D02*
X196000D01*
X4500Y350000D02*
X11500Y357000D01*
X4500Y335500D02*
Y350000D01*
Y335500D02*
X99000D01*
Y356500D01*
X4500Y350000D02*
X13000Y358500D01*
X98000D01*
X99000D01*
Y356500D02*
Y358500D01*
X296500Y356500D02*
Y358500D01*
X295500D02*
X296500D01*
X210500D02*
X295500D01*
X202000Y350000D02*
X210500Y358500D01*
X296500Y335500D02*
Y356500D01*
X202000Y335500D02*
X296500D01*
X202000D02*
Y350000D01*
X209000Y357000D01*
X200000Y315000D02*
X393500D01*
Y387500D01*
X200000D02*
X393500D01*
X200000Y315000D02*
Y387500D01*
X2000Y237500D02*
Y310000D01*
X195500D01*
Y237500D02*
Y310000D01*
X2000Y237500D02*
X195500D01*
X4000Y272500D02*
X11000Y279500D01*
X4000Y258000D02*
Y272500D01*
Y258000D02*
X98500D01*
Y279000D01*
X4000Y272500D02*
X12500Y281000D01*
X97500D01*
X98500D01*
Y279000D02*
Y281000D01*
X296000Y279000D02*
Y281000D01*
X295000D02*
X296000D01*
X210000D02*
X295000D01*
X201500Y272500D02*
X210000Y281000D01*
X296000Y258000D02*
Y279000D01*
X201500Y258000D02*
X296000D01*
X201500D02*
Y272500D01*
X208500Y279500D01*
X199500Y237500D02*
X393000D01*
Y310000D01*
X199500D02*
X393000D01*
X199500Y237500D02*
Y310000D01*
X2000Y160000D02*
Y232500D01*
X195500D01*
Y160000D02*
Y232500D01*
X2000Y160000D02*
X195500D01*
X4000Y195000D02*
X11000Y202000D01*
X4000Y180500D02*
Y195000D01*
Y180500D02*
X98500D01*
Y201500D01*
X4000Y195000D02*
X12500Y203500D01*
X97500D01*
X98500D01*
Y201500D02*
Y203500D01*
X296000Y201500D02*
Y203500D01*
X295000D02*
X296000D01*
X210000D02*
X295000D01*
X201500Y195000D02*
X210000Y203500D01*
X296000Y180500D02*
Y201500D01*
X201500Y180500D02*
X296000D01*
X201500D02*
Y195000D01*
X208500Y202000D01*
X199500Y160000D02*
X393000D01*
Y232500D01*
X199500D02*
X393000D01*
X199500Y160000D02*
Y232500D01*
X2000Y81000D02*
Y153500D01*
X195500D01*
Y81000D02*
Y153500D01*
X2000Y81000D02*
X195500D01*
X4000Y116000D02*
X11000Y123000D01*
X4000Y101500D02*
Y116000D01*
Y101500D02*
X98500D01*
Y122500D01*
X4000Y116000D02*
X12500Y124500D01*
X97500D01*
X98500D01*
Y122500D02*
Y124500D01*
X296000Y122500D02*
Y124500D01*
X295000D02*
X296000D01*
X210000D02*
X295000D01*
X201500Y116000D02*
X210000Y124500D01*
X296000Y101500D02*
Y122500D01*
X201500Y101500D02*
X296000D01*
X201500D02*
Y116000D01*
X208500Y123000D01*
X199500Y81000D02*
X393000D01*
Y153500D01*
X199500D02*
X393000D01*
X199500Y81000D02*
Y153500D01*
X200000Y2500D02*
Y75000D01*
X393500D01*
Y2500D02*
Y75000D01*
X200000Y2500D02*
X393500D01*
X202000Y37500D02*
X209000Y44500D01*
X202000Y23000D02*
Y37500D01*
Y23000D02*
X296500D01*
Y44000D01*
X202000Y37500D02*
X210500Y46000D01*
X295500D01*
X296500D01*
Y44000D02*
Y46000D01*
X99000Y44000D02*
Y46000D01*
X98000D02*
X99000D01*
X13000D02*
X98000D01*
X4500Y37500D02*
X13000Y46000D01*
X99000Y23000D02*
Y44000D01*
X4500Y23000D02*
X99000D01*
X4500D02*
Y37500D01*
X11500Y44500D01*
X2500Y2500D02*
X196000D01*
Y75000D01*
X2500D02*
X196000D01*
X2500Y2500D02*
Y75000D01*
X366000Y343000D02*
X367999D01*
X367000D01*
Y348998D01*
X366000Y347998D01*
X374997Y343000D02*
X370998D01*
X374997Y346999D01*
Y347998D01*
X373997Y348998D01*
X371998D01*
X370998Y347998D01*
X376996Y348998D02*
Y344999D01*
X378996Y343000D01*
X380995Y344999D01*
Y348998D01*
X366000Y265500D02*
X367999D01*
X367000D01*
Y271498D01*
X366000Y270498D01*
X374997Y265500D02*
X370998D01*
X374997Y269499D01*
Y270498D01*
X373997Y271498D01*
X371998D01*
X370998Y270498D01*
X376996Y271498D02*
Y267499D01*
X378996Y265500D01*
X380995Y267499D01*
Y271498D01*
X366000Y188500D02*
X367999D01*
X367000D01*
Y194498D01*
X366000Y193498D01*
X374997Y188500D02*
X370998D01*
X374997Y192499D01*
Y193498D01*
X373997Y194498D01*
X371998D01*
X370998Y193498D01*
X376996Y194498D02*
Y190499D01*
X378996Y188500D01*
X380995Y190499D01*
Y194498D01*
X366000Y109000D02*
X367999D01*
X367000D01*
Y114998D01*
X366000Y113998D01*
X374997Y109000D02*
X370998D01*
X374997Y112999D01*
Y113998D01*
X373997Y114998D01*
X371998D01*
X370998Y113998D01*
X376996Y114998D02*
Y110999D01*
X378996Y109000D01*
X380995Y110999D01*
Y114998D01*
X366000Y30500D02*
X367999D01*
X367000D01*
Y36498D01*
X366000Y35498D01*
X374997Y30500D02*
X370998D01*
X374997Y34499D01*
Y35498D01*
X373997Y36498D01*
X371998D01*
X370998Y35498D01*
X376996Y36498D02*
Y32499D01*
X378996Y30500D01*
X380995Y32499D01*
Y36498D01*
X168500Y30500D02*
X170499D01*
X169500D01*
Y36498D01*
X168500Y35498D01*
X177497Y30500D02*
X173498D01*
X177497Y34499D01*
Y35498D01*
X176497Y36498D01*
X174498D01*
X173498Y35498D01*
X179496Y36498D02*
Y32499D01*
X181496Y30500D01*
X183495Y32499D01*
Y36498D01*
X168500Y109000D02*
X170499D01*
X169500D01*
Y114998D01*
X168500Y113998D01*
X177497Y109000D02*
X173498D01*
X177497Y112999D01*
Y113998D01*
X176497Y114998D01*
X174498D01*
X173498Y113998D01*
X179496Y114998D02*
Y110999D01*
X181496Y109000D01*
X183495Y110999D01*
Y114998D01*
X168500Y188000D02*
X170499D01*
X169500D01*
Y193998D01*
X168500Y192998D01*
X177497Y188000D02*
X173498D01*
X177497Y191999D01*
Y192998D01*
X176497Y193998D01*
X174498D01*
X173498Y192998D01*
X179496Y193998D02*
Y189999D01*
X181496Y188000D01*
X183495Y189999D01*
Y193998D01*
X168500Y265500D02*
X170499D01*
X169500D01*
Y271498D01*
X168500Y270498D01*
X177497Y265500D02*
X173498D01*
X177497Y269499D01*
Y270498D01*
X176497Y271498D01*
X174498D01*
X173498Y270498D01*
X179496Y271498D02*
Y267499D01*
X181496Y265500D01*
X183495Y267499D01*
Y271498D01*
X169000Y343000D02*
X170999D01*
X170000D01*
Y348998D01*
X169000Y347998D01*
X177997Y343000D02*
X173998D01*
X177997Y346999D01*
Y347998D01*
X176997Y348998D01*
X174998D01*
X173998Y347998D01*
X179996Y348998D02*
Y344999D01*
X181996Y343000D01*
X183995Y344999D01*
Y348998D01*
X32500Y356723D02*
Y352000D01*
X35649D01*
X37223Y356723D02*
Y352000D01*
X39584D01*
X40372Y352787D01*
Y353574D01*
X39584Y354361D01*
X37223D01*
X39584D01*
X40372Y355149D01*
Y355936D01*
X39584Y356723D01*
X37223D01*
X41946Y352000D02*
X43520D01*
X42733D01*
Y356723D01*
X41946Y355936D01*
X48243Y352000D02*
Y356723D01*
X45882Y354361D01*
X49030D01*
X50604Y355936D02*
X51392Y356723D01*
X52966D01*
X53753Y355936D01*
Y352787D01*
X52966Y352000D01*
X51392D01*
X50604Y352787D01*
Y355936D01*
X55327D02*
X56114Y356723D01*
X57689D01*
X58476Y355936D01*
Y355149D01*
X57689Y354361D01*
X56902D01*
X57689D01*
X58476Y353574D01*
Y352787D01*
X57689Y352000D01*
X56114D01*
X55327Y352787D01*
X185500Y346500D02*
X191498D01*
Y343501D01*
X190498Y342501D01*
X188499D01*
X187499Y343501D01*
Y346500D01*
X191498Y337503D02*
Y339502D01*
X190498Y340502D01*
X186500D01*
X185500Y339502D01*
Y337503D01*
X186500Y336503D01*
X190498D01*
X191498Y337503D01*
Y334504D02*
X185500D01*
X187499Y332505D01*
X185500Y330505D01*
X191498D01*
Y324507D02*
Y328506D01*
X185500D01*
Y324507D01*
X188499Y328506D02*
Y326506D01*
X185500Y322508D02*
X191498D01*
Y319509D01*
X190498Y318509D01*
X188499D01*
X187499Y319509D01*
Y322508D01*
Y320508D02*
X185500Y318509D01*
X184500Y384500D02*
X188499D01*
X190498Y382501D01*
X188499Y380501D01*
X184500D01*
X187499D01*
Y384500D01*
X190498Y378502D02*
X185500D01*
X184500Y377502D01*
Y375503D01*
X185500Y374503D01*
X190498D01*
Y372504D02*
X184500D01*
Y369505D01*
X185500Y368505D01*
X189498D01*
X190498Y369505D01*
Y372504D01*
Y366506D02*
Y364507D01*
Y365506D01*
X184500D01*
Y366506D01*
Y364507D01*
X190498Y358508D02*
Y360508D01*
X189498Y361507D01*
X185500D01*
X184500Y360508D01*
Y358508D01*
X185500Y357509D01*
X189498D01*
X190498Y358508D01*
X382000Y384500D02*
X385999D01*
X387998Y382501D01*
X385999Y380501D01*
X382000D01*
X384999D01*
Y384500D01*
X387998Y378502D02*
X383000D01*
X382000Y377502D01*
Y375503D01*
X383000Y374503D01*
X387998D01*
Y372504D02*
X382000D01*
Y369505D01*
X383000Y368505D01*
X386998D01*
X387998Y369505D01*
Y372504D01*
Y366506D02*
Y364507D01*
Y365506D01*
X382000D01*
Y366506D01*
Y364507D01*
X387998Y358508D02*
Y360508D01*
X386998Y361507D01*
X383000D01*
X382000Y360508D01*
Y358508D01*
X383000Y357509D01*
X386998D01*
X387998Y358508D01*
X383000Y346500D02*
X388998D01*
Y343501D01*
X387998Y342501D01*
X385999D01*
X384999Y343501D01*
Y346500D01*
X388998Y337503D02*
Y339502D01*
X387998Y340502D01*
X384000D01*
X383000Y339502D01*
Y337503D01*
X384000Y336503D01*
X387998D01*
X388998Y337503D01*
Y334504D02*
X383000D01*
X384999Y332505D01*
X383000Y330505D01*
X388998D01*
Y324507D02*
Y328506D01*
X383000D01*
Y324507D01*
X385999Y328506D02*
Y326506D01*
X383000Y322508D02*
X388998D01*
Y319509D01*
X387998Y318509D01*
X385999D01*
X384999Y319509D01*
Y322508D01*
Y320508D02*
X383000Y318509D01*
X230000Y356723D02*
Y352000D01*
X233149D01*
X234723Y356723D02*
Y352000D01*
X237084D01*
X237872Y352787D01*
Y353574D01*
X237084Y354361D01*
X234723D01*
X237084D01*
X237872Y355149D01*
Y355936D01*
X237084Y356723D01*
X234723D01*
X239446Y352000D02*
X241020D01*
X240233D01*
Y356723D01*
X239446Y355936D01*
X245743Y352000D02*
Y356723D01*
X243382Y354361D01*
X246530D01*
X248104Y355936D02*
X248891Y356723D01*
X250466D01*
X251253Y355936D01*
Y352787D01*
X250466Y352000D01*
X248891D01*
X248104Y352787D01*
Y355936D01*
X252827D02*
X253614Y356723D01*
X255189D01*
X255976Y355936D01*
Y355149D01*
X255189Y354361D01*
X254401D01*
X255189D01*
X255976Y353574D01*
Y352787D01*
X255189Y352000D01*
X253614D01*
X252827Y352787D01*
X32000Y279223D02*
Y274500D01*
X35149D01*
X36723Y279223D02*
Y274500D01*
X39084D01*
X39871Y275287D01*
Y276074D01*
X39084Y276861D01*
X36723D01*
X39084D01*
X39871Y277649D01*
Y278436D01*
X39084Y279223D01*
X36723D01*
X41446Y274500D02*
X43020D01*
X42233D01*
Y279223D01*
X41446Y278436D01*
X47743Y274500D02*
Y279223D01*
X45382Y276861D01*
X48530D01*
X50104Y278436D02*
X50892Y279223D01*
X52466D01*
X53253Y278436D01*
Y275287D01*
X52466Y274500D01*
X50892D01*
X50104Y275287D01*
Y278436D01*
X54827D02*
X55614Y279223D01*
X57189D01*
X57976Y278436D01*
Y277649D01*
X57189Y276861D01*
X56401D01*
X57189D01*
X57976Y276074D01*
Y275287D01*
X57189Y274500D01*
X55614D01*
X54827Y275287D01*
X185000Y269000D02*
X190998D01*
Y266001D01*
X189998Y265001D01*
X187999D01*
X186999Y266001D01*
Y269000D01*
X190998Y260003D02*
Y262002D01*
X189998Y263002D01*
X186000D01*
X185000Y262002D01*
Y260003D01*
X186000Y259003D01*
X189998D01*
X190998Y260003D01*
Y257004D02*
X185000D01*
X186999Y255005D01*
X185000Y253005D01*
X190998D01*
Y247007D02*
Y251006D01*
X185000D01*
Y247007D01*
X187999Y251006D02*
Y249007D01*
X185000Y245008D02*
X190998D01*
Y242009D01*
X189998Y241009D01*
X187999D01*
X186999Y242009D01*
Y245008D01*
Y243008D02*
X185000Y241009D01*
X184000Y307000D02*
X187999D01*
X189998Y305001D01*
X187999Y303001D01*
X184000D01*
X186999D01*
Y307000D01*
X189998Y301002D02*
X185000D01*
X184000Y300002D01*
Y298003D01*
X185000Y297003D01*
X189998D01*
Y295004D02*
X184000D01*
Y292005D01*
X185000Y291005D01*
X188998D01*
X189998Y292005D01*
Y295004D01*
Y289006D02*
Y287006D01*
Y288006D01*
X184000D01*
Y289006D01*
Y287006D01*
X189998Y281008D02*
Y283008D01*
X188998Y284007D01*
X185000D01*
X184000Y283008D01*
Y281008D01*
X185000Y280009D01*
X188998D01*
X189998Y281008D01*
X381500Y307000D02*
X385499D01*
X387498Y305001D01*
X385499Y303001D01*
X381500D01*
X384499D01*
Y307000D01*
X387498Y301002D02*
X382500D01*
X381500Y300002D01*
Y298003D01*
X382500Y297003D01*
X387498D01*
Y295004D02*
X381500D01*
Y292005D01*
X382500Y291005D01*
X386498D01*
X387498Y292005D01*
Y295004D01*
Y289006D02*
Y287006D01*
Y288006D01*
X381500D01*
Y289006D01*
Y287006D01*
X387498Y281008D02*
Y283008D01*
X386498Y284007D01*
X382500D01*
X381500Y283008D01*
Y281008D01*
X382500Y280009D01*
X386498D01*
X387498Y281008D01*
X382500Y269000D02*
X388498D01*
Y266001D01*
X387498Y265001D01*
X385499D01*
X384499Y266001D01*
Y269000D01*
X388498Y260003D02*
Y262002D01*
X387498Y263002D01*
X383500D01*
X382500Y262002D01*
Y260003D01*
X383500Y259003D01*
X387498D01*
X388498Y260003D01*
Y257004D02*
X382500D01*
X384499Y255005D01*
X382500Y253005D01*
X388498D01*
Y247007D02*
Y251006D01*
X382500D01*
Y247007D01*
X385499Y251006D02*
Y249007D01*
X382500Y245008D02*
X388498D01*
Y242009D01*
X387498Y241009D01*
X385499D01*
X384499Y242009D01*
Y245008D01*
Y243008D02*
X382500Y241009D01*
X229500Y279223D02*
Y274500D01*
X232649D01*
X234223Y279223D02*
Y274500D01*
X236584D01*
X237371Y275287D01*
Y276074D01*
X236584Y276861D01*
X234223D01*
X236584D01*
X237371Y277649D01*
Y278436D01*
X236584Y279223D01*
X234223D01*
X238946Y274500D02*
X240520D01*
X239733D01*
Y279223D01*
X238946Y278436D01*
X245243Y274500D02*
Y279223D01*
X242881Y276861D01*
X246030D01*
X247604Y278436D02*
X248392Y279223D01*
X249966D01*
X250753Y278436D01*
Y275287D01*
X249966Y274500D01*
X248392D01*
X247604Y275287D01*
Y278436D01*
X252327D02*
X253114Y279223D01*
X254689D01*
X255476Y278436D01*
Y277649D01*
X254689Y276861D01*
X253902D01*
X254689D01*
X255476Y276074D01*
Y275287D01*
X254689Y274500D01*
X253114D01*
X252327Y275287D01*
X32000Y201723D02*
Y197000D01*
X35149D01*
X36723Y201723D02*
Y197000D01*
X39084D01*
X39871Y197787D01*
Y198574D01*
X39084Y199361D01*
X36723D01*
X39084D01*
X39871Y200149D01*
Y200936D01*
X39084Y201723D01*
X36723D01*
X41446Y197000D02*
X43020D01*
X42233D01*
Y201723D01*
X41446Y200936D01*
X47743Y197000D02*
Y201723D01*
X45382Y199361D01*
X48530D01*
X50104Y200936D02*
X50892Y201723D01*
X52466D01*
X53253Y200936D01*
Y197787D01*
X52466Y197000D01*
X50892D01*
X50104Y197787D01*
Y200936D01*
X54827D02*
X55614Y201723D01*
X57189D01*
X57976Y200936D01*
Y200149D01*
X57189Y199361D01*
X56401D01*
X57189D01*
X57976Y198574D01*
Y197787D01*
X57189Y197000D01*
X55614D01*
X54827Y197787D01*
X185000Y191500D02*
X190998D01*
Y188501D01*
X189998Y187501D01*
X187999D01*
X186999Y188501D01*
Y191500D01*
X190998Y182503D02*
Y184502D01*
X189998Y185502D01*
X186000D01*
X185000Y184502D01*
Y182503D01*
X186000Y181503D01*
X189998D01*
X190998Y182503D01*
Y179504D02*
X185000D01*
X186999Y177505D01*
X185000Y175505D01*
X190998D01*
Y169507D02*
Y173506D01*
X185000D01*
Y169507D01*
X187999Y173506D02*
Y171507D01*
X185000Y167508D02*
X190998D01*
Y164509D01*
X189998Y163509D01*
X187999D01*
X186999Y164509D01*
Y167508D01*
Y165508D02*
X185000Y163509D01*
X184000Y229500D02*
X187999D01*
X189998Y227501D01*
X187999Y225501D01*
X184000D01*
X186999D01*
Y229500D01*
X189998Y223502D02*
X185000D01*
X184000Y222502D01*
Y220503D01*
X185000Y219503D01*
X189998D01*
Y217504D02*
X184000D01*
Y214505D01*
X185000Y213505D01*
X188998D01*
X189998Y214505D01*
Y217504D01*
Y211506D02*
Y209507D01*
Y210506D01*
X184000D01*
Y211506D01*
Y209507D01*
X189998Y203508D02*
Y205508D01*
X188998Y206507D01*
X185000D01*
X184000Y205508D01*
Y203508D01*
X185000Y202509D01*
X188998D01*
X189998Y203508D01*
X381500Y229500D02*
X385499D01*
X387498Y227501D01*
X385499Y225501D01*
X381500D01*
X384499D01*
Y229500D01*
X387498Y223502D02*
X382500D01*
X381500Y222502D01*
Y220503D01*
X382500Y219503D01*
X387498D01*
Y217504D02*
X381500D01*
Y214505D01*
X382500Y213505D01*
X386498D01*
X387498Y214505D01*
Y217504D01*
Y211506D02*
Y209507D01*
Y210506D01*
X381500D01*
Y211506D01*
Y209507D01*
X387498Y203508D02*
Y205508D01*
X386498Y206507D01*
X382500D01*
X381500Y205508D01*
Y203508D01*
X382500Y202509D01*
X386498D01*
X387498Y203508D01*
X382500Y191500D02*
X388498D01*
Y188501D01*
X387498Y187501D01*
X385499D01*
X384499Y188501D01*
Y191500D01*
X388498Y182503D02*
Y184502D01*
X387498Y185502D01*
X383500D01*
X382500Y184502D01*
Y182503D01*
X383500Y181503D01*
X387498D01*
X388498Y182503D01*
Y179504D02*
X382500D01*
X384499Y177505D01*
X382500Y175505D01*
X388498D01*
Y169507D02*
Y173506D01*
X382500D01*
Y169507D01*
X385499Y173506D02*
Y171507D01*
X382500Y167508D02*
X388498D01*
Y164509D01*
X387498Y163509D01*
X385499D01*
X384499Y164509D01*
Y167508D01*
Y165508D02*
X382500Y163509D01*
X229500Y201723D02*
Y197000D01*
X232649D01*
X234223Y201723D02*
Y197000D01*
X236584D01*
X237371Y197787D01*
Y198574D01*
X236584Y199361D01*
X234223D01*
X236584D01*
X237371Y200149D01*
Y200936D01*
X236584Y201723D01*
X234223D01*
X238946Y197000D02*
X240520D01*
X239733D01*
Y201723D01*
X238946Y200936D01*
X245243Y197000D02*
Y201723D01*
X242881Y199361D01*
X246030D01*
X247604Y200936D02*
X248392Y201723D01*
X249966D01*
X250753Y200936D01*
Y197787D01*
X249966Y197000D01*
X248392D01*
X247604Y197787D01*
Y200936D01*
X252327D02*
X253114Y201723D01*
X254689D01*
X255476Y200936D01*
Y200149D01*
X254689Y199361D01*
X253902D01*
X254689D01*
X255476Y198574D01*
Y197787D01*
X254689Y197000D01*
X253114D01*
X252327Y197787D01*
X32000Y122723D02*
Y118000D01*
X35149D01*
X36723Y122723D02*
Y118000D01*
X39084D01*
X39871Y118787D01*
Y119574D01*
X39084Y120361D01*
X36723D01*
X39084D01*
X39871Y121149D01*
Y121936D01*
X39084Y122723D01*
X36723D01*
X41446Y118000D02*
X43020D01*
X42233D01*
Y122723D01*
X41446Y121936D01*
X47743Y118000D02*
Y122723D01*
X45382Y120361D01*
X48530D01*
X50104Y121936D02*
X50892Y122723D01*
X52466D01*
X53253Y121936D01*
Y118787D01*
X52466Y118000D01*
X50892D01*
X50104Y118787D01*
Y121936D01*
X54827D02*
X55614Y122723D01*
X57189D01*
X57976Y121936D01*
Y121149D01*
X57189Y120361D01*
X56401D01*
X57189D01*
X57976Y119574D01*
Y118787D01*
X57189Y118000D01*
X55614D01*
X54827Y118787D01*
X185000Y112500D02*
X190998D01*
Y109501D01*
X189998Y108501D01*
X187999D01*
X186999Y109501D01*
Y112500D01*
X190998Y103503D02*
Y105502D01*
X189998Y106502D01*
X186000D01*
X185000Y105502D01*
Y103503D01*
X186000Y102503D01*
X189998D01*
X190998Y103503D01*
Y100504D02*
X185000D01*
X186999Y98505D01*
X185000Y96505D01*
X190998D01*
Y90507D02*
Y94506D01*
X185000D01*
Y90507D01*
X187999Y94506D02*
Y92506D01*
X185000Y88508D02*
X190998D01*
Y85509D01*
X189998Y84509D01*
X187999D01*
X186999Y85509D01*
Y88508D01*
Y86508D02*
X185000Y84509D01*
X184000Y150500D02*
X187999D01*
X189998Y148501D01*
X187999Y146501D01*
X184000D01*
X186999D01*
Y150500D01*
X189998Y144502D02*
X185000D01*
X184000Y143502D01*
Y141503D01*
X185000Y140503D01*
X189998D01*
Y138504D02*
X184000D01*
Y135505D01*
X185000Y134505D01*
X188998D01*
X189998Y135505D01*
Y138504D01*
Y132506D02*
Y130507D01*
Y131506D01*
X184000D01*
Y132506D01*
Y130507D01*
X189998Y124508D02*
Y126508D01*
X188998Y127507D01*
X185000D01*
X184000Y126508D01*
Y124508D01*
X185000Y123509D01*
X188998D01*
X189998Y124508D01*
X381500Y150500D02*
X385499D01*
X387498Y148501D01*
X385499Y146501D01*
X381500D01*
X384499D01*
Y150500D01*
X387498Y144502D02*
X382500D01*
X381500Y143502D01*
Y141503D01*
X382500Y140503D01*
X387498D01*
Y138504D02*
X381500D01*
Y135505D01*
X382500Y134505D01*
X386498D01*
X387498Y135505D01*
Y138504D01*
Y132506D02*
Y130507D01*
Y131506D01*
X381500D01*
Y132506D01*
Y130507D01*
X387498Y124508D02*
Y126508D01*
X386498Y127507D01*
X382500D01*
X381500Y126508D01*
Y124508D01*
X382500Y123509D01*
X386498D01*
X387498Y124508D01*
X382500Y112500D02*
X388498D01*
Y109501D01*
X387498Y108501D01*
X385499D01*
X384499Y109501D01*
Y112500D01*
X388498Y103503D02*
Y105502D01*
X387498Y106502D01*
X383500D01*
X382500Y105502D01*
Y103503D01*
X383500Y102503D01*
X387498D01*
X388498Y103503D01*
Y100504D02*
X382500D01*
X384499Y98505D01*
X382500Y96505D01*
X388498D01*
Y90507D02*
Y94506D01*
X382500D01*
Y90507D01*
X385499Y94506D02*
Y92506D01*
X382500Y88508D02*
X388498D01*
Y85509D01*
X387498Y84509D01*
X385499D01*
X384499Y85509D01*
Y88508D01*
Y86508D02*
X382500Y84509D01*
X229500Y122723D02*
Y118000D01*
X232649D01*
X234223Y122723D02*
Y118000D01*
X236584D01*
X237371Y118787D01*
Y119574D01*
X236584Y120361D01*
X234223D01*
X236584D01*
X237371Y121149D01*
Y121936D01*
X236584Y122723D01*
X234223D01*
X238946Y118000D02*
X240520D01*
X239733D01*
Y122723D01*
X238946Y121936D01*
X245243Y118000D02*
Y122723D01*
X242881Y120361D01*
X246030D01*
X247604Y121936D02*
X248392Y122723D01*
X249966D01*
X250753Y121936D01*
Y118787D01*
X249966Y118000D01*
X248392D01*
X247604Y118787D01*
Y121936D01*
X252327D02*
X253114Y122723D01*
X254689D01*
X255476Y121936D01*
Y121149D01*
X254689Y120361D01*
X253902D01*
X254689D01*
X255476Y119574D01*
Y118787D01*
X254689Y118000D01*
X253114D01*
X252327Y118787D01*
X230000Y44223D02*
Y39500D01*
X233149D01*
X234723Y44223D02*
Y39500D01*
X237084D01*
X237872Y40287D01*
Y41074D01*
X237084Y41861D01*
X234723D01*
X237084D01*
X237872Y42649D01*
Y43436D01*
X237084Y44223D01*
X234723D01*
X239446Y39500D02*
X241020D01*
X240233D01*
Y44223D01*
X239446Y43436D01*
X245743Y39500D02*
Y44223D01*
X243382Y41861D01*
X246530D01*
X248104Y43436D02*
X248891Y44223D01*
X250466D01*
X251253Y43436D01*
Y40287D01*
X250466Y39500D01*
X248891D01*
X248104Y40287D01*
Y43436D01*
X252827D02*
X253614Y44223D01*
X255189D01*
X255976Y43436D01*
Y42649D01*
X255189Y41861D01*
X254401D01*
X255189D01*
X255976Y41074D01*
Y40287D01*
X255189Y39500D01*
X253614D01*
X252827Y40287D01*
X383000Y34000D02*
X388998D01*
Y31001D01*
X387998Y30001D01*
X385999D01*
X384999Y31001D01*
Y34000D01*
X388998Y25003D02*
Y27002D01*
X387998Y28002D01*
X384000D01*
X383000Y27002D01*
Y25003D01*
X384000Y24003D01*
X387998D01*
X388998Y25003D01*
Y22004D02*
X383000D01*
X384999Y20005D01*
X383000Y18005D01*
X388998D01*
Y12007D02*
Y16006D01*
X383000D01*
Y12007D01*
X385999Y16006D02*
Y14006D01*
X383000Y10008D02*
X388998D01*
Y7009D01*
X387998Y6009D01*
X385999D01*
X384999Y7009D01*
Y10008D01*
Y8008D02*
X383000Y6009D01*
X382000Y72000D02*
X385999D01*
X387998Y70001D01*
X385999Y68001D01*
X382000D01*
X384999D01*
Y72000D01*
X387998Y66002D02*
X383000D01*
X382000Y65002D01*
Y63003D01*
X383000Y62003D01*
X387998D01*
Y60004D02*
X382000D01*
Y57005D01*
X383000Y56005D01*
X386998D01*
X387998Y57005D01*
Y60004D01*
Y54006D02*
Y52007D01*
Y53006D01*
X382000D01*
Y54006D01*
Y52007D01*
X387998Y46008D02*
Y48008D01*
X386998Y49007D01*
X383000D01*
X382000Y48008D01*
Y46008D01*
X383000Y45009D01*
X386998D01*
X387998Y46008D01*
X184500Y72000D02*
X188499D01*
X190498Y70001D01*
X188499Y68001D01*
X184500D01*
X187499D01*
Y72000D01*
X190498Y66002D02*
X185500D01*
X184500Y65002D01*
Y63003D01*
X185500Y62003D01*
X190498D01*
Y60004D02*
X184500D01*
Y57005D01*
X185500Y56005D01*
X189498D01*
X190498Y57005D01*
Y60004D01*
Y54006D02*
Y52007D01*
Y53006D01*
X184500D01*
Y54006D01*
Y52007D01*
X190498Y46008D02*
Y48008D01*
X189498Y49007D01*
X185500D01*
X184500Y48008D01*
Y46008D01*
X185500Y45009D01*
X189498D01*
X190498Y46008D01*
X185500Y34000D02*
X191498D01*
Y31001D01*
X190498Y30001D01*
X188499D01*
X187499Y31001D01*
Y34000D01*
X191498Y25003D02*
Y27002D01*
X190498Y28002D01*
X186500D01*
X185500Y27002D01*
Y25003D01*
X186500Y24003D01*
X190498D01*
X191498Y25003D01*
Y22004D02*
X185500D01*
X187499Y20005D01*
X185500Y18005D01*
X191498D01*
Y12007D02*
Y16006D01*
X185500D01*
Y12007D01*
X188499Y16006D02*
Y14006D01*
X185500Y10008D02*
X191498D01*
Y7009D01*
X190498Y6009D01*
X188499D01*
X187499Y7009D01*
Y10008D01*
Y8008D02*
X185500Y6009D01*
X32500Y44223D02*
Y39500D01*
X35649D01*
X37223Y44223D02*
Y39500D01*
X39584D01*
X40372Y40287D01*
Y41074D01*
X39584Y41861D01*
X37223D01*
X39584D01*
X40372Y42649D01*
Y43436D01*
X39584Y44223D01*
X37223D01*
X41946Y39500D02*
X43520D01*
X42733D01*
Y44223D01*
X41946Y43436D01*
X48243Y39500D02*
Y44223D01*
X45882Y41861D01*
X49030D01*
X50604Y43436D02*
X51392Y44223D01*
X52966D01*
X53753Y43436D01*
Y40287D01*
X52966Y39500D01*
X51392D01*
X50604Y40287D01*
Y43436D01*
X55327D02*
X56114Y44223D01*
X57689D01*
X58476Y43436D01*
Y42649D01*
X57689Y41861D01*
X56902D01*
X57689D01*
X58476Y41074D01*
Y40287D01*
X57689Y39500D01*
X56114D01*
X55327Y40287D01*
D23*
X55161Y328274D02*
G03*
X41360Y329232I-7161J-3274D01*
G01*
Y320768D02*
G03*
X55161Y321726I6640J4232D01*
G01*
X26161Y328274D02*
G03*
X12360Y329232I-7161J-3274D01*
G01*
Y320768D02*
G03*
X26161Y321726I6640J4232D01*
G01*
X84161Y328274D02*
G03*
X70360Y329232I-7161J-3274D01*
G01*
Y320768D02*
G03*
X84161Y321726I6640J4232D01*
G01*
X152894Y346122D02*
G03*
X152894Y346122I-394J0D01*
G01*
X350394D02*
G03*
X350394Y346122I-394J0D01*
G01*
X281661Y328274D02*
G03*
X267860Y329232I-7161J-3274D01*
G01*
Y320768D02*
G03*
X281661Y321726I6640J4232D01*
G01*
X223661Y328274D02*
G03*
X209860Y329232I-7161J-3274D01*
G01*
Y320768D02*
G03*
X223661Y321726I6640J4232D01*
G01*
X252661Y328274D02*
G03*
X238860Y329232I-7161J-3274D01*
G01*
Y320768D02*
G03*
X252661Y321726I6640J4232D01*
G01*
X54661Y250774D02*
G03*
X40860Y251732I-7161J-3274D01*
G01*
Y243268D02*
G03*
X54661Y244226I6640J4232D01*
G01*
X25661Y250774D02*
G03*
X11860Y251732I-7161J-3274D01*
G01*
Y243268D02*
G03*
X25661Y244226I6640J4232D01*
G01*
X83661Y250774D02*
G03*
X69860Y251732I-7161J-3274D01*
G01*
Y243268D02*
G03*
X83661Y244226I6640J4232D01*
G01*
X152394Y268622D02*
G03*
X152394Y268622I-394J0D01*
G01*
X349894D02*
G03*
X349894Y268622I-394J0D01*
G01*
X281161Y250774D02*
G03*
X267360Y251732I-7161J-3274D01*
G01*
Y243268D02*
G03*
X281161Y244226I6640J4232D01*
G01*
X223161Y250774D02*
G03*
X209360Y251732I-7161J-3274D01*
G01*
Y243268D02*
G03*
X223161Y244226I6640J4232D01*
G01*
X252161Y250774D02*
G03*
X238360Y251732I-7161J-3274D01*
G01*
Y243268D02*
G03*
X252161Y244226I6640J4232D01*
G01*
X54661Y173274D02*
G03*
X40860Y174232I-7161J-3274D01*
G01*
Y165768D02*
G03*
X54661Y166726I6640J4232D01*
G01*
X25661Y173274D02*
G03*
X11860Y174232I-7161J-3274D01*
G01*
Y165768D02*
G03*
X25661Y166726I6640J4232D01*
G01*
X83661Y173274D02*
G03*
X69860Y174232I-7161J-3274D01*
G01*
Y165768D02*
G03*
X83661Y166726I6640J4232D01*
G01*
X152394Y191122D02*
G03*
X152394Y191122I-394J0D01*
G01*
X349894D02*
G03*
X349894Y191122I-394J0D01*
G01*
X281161Y173274D02*
G03*
X267360Y174232I-7161J-3274D01*
G01*
Y165768D02*
G03*
X281161Y166726I6640J4232D01*
G01*
X223161Y173274D02*
G03*
X209360Y174232I-7161J-3274D01*
G01*
Y165768D02*
G03*
X223161Y166726I6640J4232D01*
G01*
X252161Y173274D02*
G03*
X238360Y174232I-7161J-3274D01*
G01*
Y165768D02*
G03*
X252161Y166726I6640J4232D01*
G01*
X54661Y94274D02*
G03*
X40860Y95232I-7161J-3274D01*
G01*
Y86768D02*
G03*
X54661Y87726I6640J4232D01*
G01*
X25661Y94274D02*
G03*
X11860Y95232I-7161J-3274D01*
G01*
Y86768D02*
G03*
X25661Y87726I6640J4232D01*
G01*
X83661Y94274D02*
G03*
X69860Y95232I-7161J-3274D01*
G01*
Y86768D02*
G03*
X83661Y87726I6640J4232D01*
G01*
X152394Y112122D02*
G03*
X152394Y112122I-394J0D01*
G01*
X349894D02*
G03*
X349894Y112122I-394J0D01*
G01*
X281161Y94274D02*
G03*
X267360Y95232I-7161J-3274D01*
G01*
Y86768D02*
G03*
X281161Y87726I6640J4232D01*
G01*
X223161Y94274D02*
G03*
X209360Y95232I-7161J-3274D01*
G01*
Y86768D02*
G03*
X223161Y87726I6640J4232D01*
G01*
X252161Y94274D02*
G03*
X238360Y95232I-7161J-3274D01*
G01*
Y86768D02*
G03*
X252161Y87726I6640J4232D01*
G01*
X252661Y15774D02*
G03*
X238860Y16732I-7161J-3274D01*
G01*
Y8268D02*
G03*
X252661Y9226I6640J4232D01*
G01*
X223661Y15774D02*
G03*
X209860Y16732I-7161J-3274D01*
G01*
Y8268D02*
G03*
X223661Y9226I6640J4232D01*
G01*
X281661Y15774D02*
G03*
X267860Y16732I-7161J-3274D01*
G01*
Y8268D02*
G03*
X281661Y9226I6640J4232D01*
G01*
X350394Y33622D02*
G03*
X350394Y33622I-394J0D01*
G01*
X152894D02*
G03*
X152894Y33622I-394J0D01*
G01*
X84161Y15774D02*
G03*
X70360Y16732I-7161J-3274D01*
G01*
Y8268D02*
G03*
X84161Y9226I6640J4232D01*
G01*
X26161Y15774D02*
G03*
X12360Y16732I-7161J-3274D01*
G01*
Y8268D02*
G03*
X26161Y9226I6640J4232D01*
G01*
X55161Y15774D02*
G03*
X41360Y16732I-7161J-3274D01*
G01*
Y8268D02*
G03*
X55161Y9226I6640J4232D01*
G01*
X134000Y327000D02*
Y330000D01*
Y327000D02*
X154000D01*
Y333000D01*
X134000D02*
X154000D01*
X134000Y330000D02*
Y333000D01*
X154000Y330000D02*
X154900D01*
X133100D02*
X134000D01*
X112500Y345500D02*
X115500D01*
X112500Y325500D02*
Y345500D01*
Y325500D02*
X118500D01*
Y345500D01*
X115500D02*
X118500D01*
X115500Y324600D02*
Y325500D01*
Y345500D02*
Y346400D01*
X153500Y340500D02*
Y343500D01*
X133500D02*
X153500D01*
X133500Y337500D02*
Y343500D01*
Y337500D02*
X153500D01*
Y340500D01*
X132600D02*
X133500D01*
X153500D02*
X154400D01*
X171500Y360500D02*
X181500D01*
X171500D02*
Y380500D01*
X181500D01*
Y360500D02*
Y380500D01*
X97000Y340000D02*
Y350000D01*
X7000Y340000D02*
X97000D01*
X7000D02*
Y350000D01*
X97000D01*
X172500Y341500D02*
X182500D01*
Y321500D02*
Y341500D01*
X172500Y321500D02*
X182500D01*
X172500D02*
Y341500D01*
X370000D02*
X380000D01*
Y321500D02*
Y341500D01*
X370000Y321500D02*
X380000D01*
X370000D02*
Y341500D01*
X294500Y340000D02*
Y350000D01*
X204500Y340000D02*
X294500D01*
X204500D02*
Y350000D01*
X294500D01*
X369000Y360500D02*
X379000D01*
X369000D02*
Y380500D01*
X379000D01*
Y360500D02*
Y380500D01*
X351000Y340500D02*
Y343500D01*
X331000D02*
X351000D01*
X331000Y337500D02*
Y343500D01*
Y337500D02*
X351000D01*
Y340500D01*
X330100D02*
X331000D01*
X351000D02*
X351900D01*
X310000Y345500D02*
X313000D01*
X310000Y325500D02*
Y345500D01*
Y325500D02*
X316000D01*
Y345500D01*
X313000D02*
X316000D01*
X313000Y324600D02*
Y325500D01*
Y345500D02*
Y346400D01*
X331500Y327000D02*
Y330000D01*
Y327000D02*
X351500D01*
Y333000D01*
X331500D02*
X351500D01*
X331500Y330000D02*
Y333000D01*
X351500Y330000D02*
X352400D01*
X330600D02*
X331500D01*
X133500Y249500D02*
Y252500D01*
Y249500D02*
X153500D01*
Y255500D01*
X133500D02*
X153500D01*
X133500Y252500D02*
Y255500D01*
X153500Y252500D02*
X154400D01*
X132600D02*
X133500D01*
X112000Y268000D02*
X115000D01*
X112000Y248000D02*
Y268000D01*
Y248000D02*
X118000D01*
Y268000D01*
X115000D02*
X118000D01*
X115000Y247100D02*
Y248000D01*
Y268000D02*
Y268900D01*
X153000Y263000D02*
Y266000D01*
X133000D02*
X153000D01*
X133000Y260000D02*
Y266000D01*
Y260000D02*
X153000D01*
Y263000D01*
X132100D02*
X133000D01*
X153000D02*
X153900D01*
X171000Y283000D02*
X181000D01*
X171000D02*
Y303000D01*
X181000D01*
Y283000D02*
Y303000D01*
X96500Y262500D02*
Y272500D01*
X6500Y262500D02*
X96500D01*
X6500D02*
Y272500D01*
X96500D01*
X172000Y264000D02*
X182000D01*
Y244000D02*
Y264000D01*
X172000Y244000D02*
X182000D01*
X172000D02*
Y264000D01*
X369500D02*
X379500D01*
Y244000D02*
Y264000D01*
X369500Y244000D02*
X379500D01*
X369500D02*
Y264000D01*
X294000Y262500D02*
Y272500D01*
X204000Y262500D02*
X294000D01*
X204000D02*
Y272500D01*
X294000D01*
X368500Y283000D02*
X378500D01*
X368500D02*
Y303000D01*
X378500D01*
Y283000D02*
Y303000D01*
X350500Y263000D02*
Y266000D01*
X330500D02*
X350500D01*
X330500Y260000D02*
Y266000D01*
Y260000D02*
X350500D01*
Y263000D01*
X329600D02*
X330500D01*
X350500D02*
X351400D01*
X309500Y268000D02*
X312500D01*
X309500Y248000D02*
Y268000D01*
Y248000D02*
X315500D01*
Y268000D01*
X312500D02*
X315500D01*
X312500Y247100D02*
Y248000D01*
Y268000D02*
Y268900D01*
X331000Y249500D02*
Y252500D01*
Y249500D02*
X351000D01*
Y255500D01*
X331000D02*
X351000D01*
X331000Y252500D02*
Y255500D01*
X351000Y252500D02*
X351900D01*
X330100D02*
X331000D01*
X133500Y172000D02*
Y175000D01*
Y172000D02*
X153500D01*
Y178000D01*
X133500D02*
X153500D01*
X133500Y175000D02*
Y178000D01*
X153500Y175000D02*
X154400D01*
X132600D02*
X133500D01*
X112000Y190500D02*
X115000D01*
X112000Y170500D02*
Y190500D01*
Y170500D02*
X118000D01*
Y190500D01*
X115000D02*
X118000D01*
X115000Y169600D02*
Y170500D01*
Y190500D02*
Y191400D01*
X153000Y185500D02*
Y188500D01*
X133000D02*
X153000D01*
X133000Y182500D02*
Y188500D01*
Y182500D02*
X153000D01*
Y185500D01*
X132100D02*
X133000D01*
X153000D02*
X153900D01*
X171000Y205500D02*
X181000D01*
X171000D02*
Y225500D01*
X181000D01*
Y205500D02*
Y225500D01*
X96500Y185000D02*
Y195000D01*
X6500Y185000D02*
X96500D01*
X6500D02*
Y195000D01*
X96500D01*
X172000Y186500D02*
X182000D01*
Y166500D02*
Y186500D01*
X172000Y166500D02*
X182000D01*
X172000D02*
Y186500D01*
X369500D02*
X379500D01*
Y166500D02*
Y186500D01*
X369500Y166500D02*
X379500D01*
X369500D02*
Y186500D01*
X294000Y185000D02*
Y195000D01*
X204000Y185000D02*
X294000D01*
X204000D02*
Y195000D01*
X294000D01*
X368500Y205500D02*
X378500D01*
X368500D02*
Y225500D01*
X378500D01*
Y205500D02*
Y225500D01*
X350500Y185500D02*
Y188500D01*
X330500D02*
X350500D01*
X330500Y182500D02*
Y188500D01*
Y182500D02*
X350500D01*
Y185500D01*
X329600D02*
X330500D01*
X350500D02*
X351400D01*
X309500Y190500D02*
X312500D01*
X309500Y170500D02*
Y190500D01*
Y170500D02*
X315500D01*
Y190500D01*
X312500D02*
X315500D01*
X312500Y169600D02*
Y170500D01*
Y190500D02*
Y191400D01*
X331000Y172000D02*
Y175000D01*
Y172000D02*
X351000D01*
Y178000D01*
X331000D02*
X351000D01*
X331000Y175000D02*
Y178000D01*
X351000Y175000D02*
X351900D01*
X330100D02*
X331000D01*
X133500Y93000D02*
Y96000D01*
Y93000D02*
X153500D01*
Y99000D01*
X133500D02*
X153500D01*
X133500Y96000D02*
Y99000D01*
X153500Y96000D02*
X154400D01*
X132600D02*
X133500D01*
X112000Y111500D02*
X115000D01*
X112000Y91500D02*
Y111500D01*
Y91500D02*
X118000D01*
Y111500D01*
X115000D02*
X118000D01*
X115000Y90600D02*
Y91500D01*
Y111500D02*
Y112400D01*
X153000Y106500D02*
Y109500D01*
X133000D02*
X153000D01*
X133000Y103500D02*
Y109500D01*
Y103500D02*
X153000D01*
Y106500D01*
X132100D02*
X133000D01*
X153000D02*
X153900D01*
X171000Y126500D02*
X181000D01*
X171000D02*
Y146500D01*
X181000D01*
Y126500D02*
Y146500D01*
X96500Y106000D02*
Y116000D01*
X6500Y106000D02*
X96500D01*
X6500D02*
Y116000D01*
X96500D01*
X172000Y107500D02*
X182000D01*
Y87500D02*
Y107500D01*
X172000Y87500D02*
X182000D01*
X172000D02*
Y107500D01*
X369500D02*
X379500D01*
Y87500D02*
Y107500D01*
X369500Y87500D02*
X379500D01*
X369500D02*
Y107500D01*
X294000Y106000D02*
Y116000D01*
X204000Y106000D02*
X294000D01*
X204000D02*
Y116000D01*
X294000D01*
X368500Y126500D02*
X378500D01*
X368500D02*
Y146500D01*
X378500D01*
Y126500D02*
Y146500D01*
X350500Y106500D02*
Y109500D01*
X330500D02*
X350500D01*
X330500Y103500D02*
Y109500D01*
Y103500D02*
X350500D01*
Y106500D01*
X329600D02*
X330500D01*
X350500D02*
X351400D01*
X309500Y111500D02*
X312500D01*
X309500Y91500D02*
Y111500D01*
Y91500D02*
X315500D01*
Y111500D01*
X312500D02*
X315500D01*
X312500Y90600D02*
Y91500D01*
Y111500D02*
Y112400D01*
X331000Y93000D02*
Y96000D01*
Y93000D02*
X351000D01*
Y99000D01*
X331000D02*
X351000D01*
X331000Y96000D02*
Y99000D01*
X351000Y96000D02*
X351900D01*
X330100D02*
X331000D01*
X331500Y14500D02*
Y17500D01*
Y14500D02*
X351500D01*
Y20500D01*
X331500D02*
X351500D01*
X331500Y17500D02*
Y20500D01*
X351500Y17500D02*
X352400D01*
X330600D02*
X331500D01*
X310000Y33000D02*
X313000D01*
X310000Y13000D02*
Y33000D01*
Y13000D02*
X316000D01*
Y33000D01*
X313000D02*
X316000D01*
X313000Y12100D02*
Y13000D01*
Y33000D02*
Y33900D01*
X351000Y28000D02*
Y31000D01*
X331000D02*
X351000D01*
X331000Y25000D02*
Y31000D01*
Y25000D02*
X351000D01*
Y28000D01*
X330100D02*
X331000D01*
X351000D02*
X351900D01*
X369000Y48000D02*
X379000D01*
X369000D02*
Y68000D01*
X379000D01*
Y48000D02*
Y68000D01*
X294500Y27500D02*
Y37500D01*
X204500Y27500D02*
X294500D01*
X204500D02*
Y37500D01*
X294500D01*
X370000Y29000D02*
X380000D01*
Y9000D02*
Y29000D01*
X370000Y9000D02*
X380000D01*
X370000D02*
Y29000D01*
X97000Y27500D02*
Y37500D01*
X7000Y27500D02*
X97000D01*
X7000D02*
Y37500D01*
X97000D01*
X153500Y28000D02*
Y31000D01*
X133500D02*
X153500D01*
X133500Y25000D02*
Y31000D01*
Y25000D02*
X153500D01*
Y28000D01*
X132600D02*
X133500D01*
X153500D02*
X154400D01*
X134000Y14500D02*
Y17500D01*
Y14500D02*
X154000D01*
Y20500D01*
X134000D02*
X154000D01*
X134000Y17500D02*
Y20500D01*
X154000Y17500D02*
X154900D01*
X133100D02*
X134000D01*
X112500Y33000D02*
X115500D01*
X112500Y13000D02*
Y33000D01*
Y13000D02*
X118500D01*
Y33000D01*
X115500D02*
X118500D01*
X115500Y12100D02*
Y13000D01*
Y33000D02*
Y33900D01*
X171500Y48000D02*
X181500D01*
X171500D02*
Y68000D01*
X181500D01*
Y48000D02*
Y68000D01*
X172500Y29000D02*
X182500D01*
Y9000D02*
Y29000D01*
X172500Y9000D02*
X182500D01*
X172500D02*
Y29000D01*
X14271Y323500D02*
Y327042D01*
X12500Y325271D01*
X14861D01*
X16042Y323500D02*
Y324090D01*
X16633D01*
Y323500D01*
X16042D01*
X18994Y327042D02*
X21355D01*
Y326452D01*
X18994Y324090D01*
Y323500D01*
X22536Y325861D02*
Y324090D01*
X23126Y323500D01*
X24898D01*
Y325861D01*
X113500Y341000D02*
Y339688D01*
Y340344D01*
X117436D01*
X116780Y341000D01*
Y337720D02*
X117436Y337064D01*
Y335752D01*
X116780Y335096D01*
X114156D01*
X113500Y335752D01*
Y337064D01*
X114156Y337720D01*
X116780D01*
X117436Y333785D02*
X113500D01*
X114812D01*
X117436Y331161D01*
X115468Y333128D01*
X113500Y331161D01*
X45500Y323000D02*
X47074D01*
X46287D01*
Y327723D01*
X45500Y326936D01*
X49436Y326149D02*
Y323787D01*
X50223Y323000D01*
X52584D01*
Y326149D01*
X140124Y328000D02*
X137500D01*
X140124Y330624D01*
Y331280D01*
X139468Y331936D01*
X138156D01*
X137500Y331280D01*
X141436Y328000D02*
Y328656D01*
X142092D01*
Y328000D01*
X141436D01*
X147339D02*
X144715D01*
X147339Y330624D01*
Y331280D01*
X146683Y331936D01*
X145371D01*
X144715Y331280D01*
X148651Y331936D02*
Y328000D01*
Y329312D01*
X151275Y331936D01*
X149307Y329968D01*
X151275Y328000D01*
X170624Y358280D02*
X169968Y358936D01*
X168656D01*
X168000Y358280D01*
Y355656D01*
X168656Y355000D01*
X169968D01*
X170624Y355656D01*
Y356968D01*
X169312D01*
X171936Y355000D02*
Y358936D01*
X174560Y355000D01*
Y358936D01*
X175872D02*
Y355000D01*
X177839D01*
X178495Y355656D01*
Y358280D01*
X177839Y358936D01*
X175872D01*
X72500Y323000D02*
X73812D01*
X73156D01*
Y326936D01*
X72500Y326280D01*
X75780D02*
X76436Y326936D01*
X77748D01*
X78404Y326280D01*
Y323656D01*
X77748Y323000D01*
X76436D01*
X75780Y323656D01*
Y326280D01*
X79716Y325624D02*
Y323656D01*
X80371Y323000D01*
X82339D01*
Y325624D01*
X138500Y338500D02*
X139812D01*
X139156D01*
Y342436D01*
X138500Y341780D01*
X141780D02*
X142436Y342436D01*
X143748D01*
X144404Y341780D01*
Y339156D01*
X143748Y338500D01*
X142436D01*
X141780Y339156D01*
Y341780D01*
X145715D02*
X146371Y342436D01*
X147683D01*
X148339Y341780D01*
Y339156D01*
X147683Y338500D01*
X146371D01*
X145715Y339156D01*
Y341780D01*
X11000Y375968D02*
X13624D01*
X12312Y377280D02*
Y374656D01*
X35500Y375968D02*
X38124D01*
X36812Y377280D02*
Y374656D01*
X59500Y375968D02*
X62124D01*
X60812Y377280D02*
Y374656D01*
X84000Y375968D02*
X86624D01*
X85312Y377280D02*
Y374656D01*
X108500Y375968D02*
X111124D01*
X109812Y377280D02*
Y374656D01*
X7500Y318968D02*
X10124D01*
X8812Y320280D02*
Y317656D01*
X37000Y318968D02*
X39624D01*
X38312Y320280D02*
Y317656D01*
X66000Y318968D02*
X68624D01*
X67312Y320280D02*
Y317656D01*
X167500Y327468D02*
X170124D01*
X168812Y328780D02*
Y326156D01*
X11500Y367468D02*
X14124D01*
X36000D02*
X38624D01*
X60000D02*
X62624D01*
X84500D02*
X87124D01*
X109000D02*
X111624D01*
X167000Y337968D02*
X169624D01*
X27500Y319468D02*
X30124D01*
X57000D02*
X59624D01*
X85500D02*
X88124D01*
X283000D02*
X285624D01*
X254500D02*
X257124D01*
X225000D02*
X227624D01*
X364500Y337968D02*
X367124D01*
X306500Y367468D02*
X309124D01*
X282000D02*
X284624D01*
X257500D02*
X260124D01*
X233500D02*
X236124D01*
X209000D02*
X211624D01*
X365000Y327468D02*
X367624D01*
X366312Y328780D02*
Y326156D01*
X263500Y318968D02*
X266124D01*
X264812Y320280D02*
Y317656D01*
X234500Y318968D02*
X237124D01*
X235812Y320280D02*
Y317656D01*
X205000Y318968D02*
X207624D01*
X206312Y320280D02*
Y317656D01*
X306000Y375968D02*
X308624D01*
X307312Y377280D02*
Y374656D01*
X281500Y375968D02*
X284124D01*
X282812Y377280D02*
Y374656D01*
X257000Y375968D02*
X259624D01*
X258312Y377280D02*
Y374656D01*
X233000Y375968D02*
X235624D01*
X234312Y377280D02*
Y374656D01*
X208500Y375968D02*
X211124D01*
X209812Y377280D02*
Y374656D01*
X336000Y338500D02*
X337312D01*
X336656D01*
Y342436D01*
X336000Y341780D01*
X339280D02*
X339936Y342436D01*
X341248D01*
X341904Y341780D01*
Y339156D01*
X341248Y338500D01*
X339936D01*
X339280Y339156D01*
Y341780D01*
X343215D02*
X343871Y342436D01*
X345183D01*
X345839Y341780D01*
Y339156D01*
X345183Y338500D01*
X343871D01*
X343215Y339156D01*
Y341780D01*
X270000Y323000D02*
X271312D01*
X270656D01*
Y326936D01*
X270000Y326280D01*
X273280D02*
X273936Y326936D01*
X275248D01*
X275904Y326280D01*
Y323656D01*
X275248Y323000D01*
X273936D01*
X273280Y323656D01*
Y326280D01*
X277216Y325624D02*
Y323656D01*
X277871Y323000D01*
X279839D01*
Y325624D01*
X368124Y358280D02*
X367468Y358936D01*
X366156D01*
X365500Y358280D01*
Y355656D01*
X366156Y355000D01*
X367468D01*
X368124Y355656D01*
Y356968D01*
X366812D01*
X369436Y355000D02*
Y358936D01*
X372060Y355000D01*
Y358936D01*
X373372D02*
Y355000D01*
X375339D01*
X375995Y355656D01*
Y358280D01*
X375339Y358936D01*
X373372D01*
X337624Y328000D02*
X335000D01*
X337624Y330624D01*
Y331280D01*
X336968Y331936D01*
X335656D01*
X335000Y331280D01*
X338936Y328000D02*
Y328656D01*
X339592D01*
Y328000D01*
X338936D01*
X344839D02*
X342215D01*
X344839Y330624D01*
Y331280D01*
X344183Y331936D01*
X342871D01*
X342215Y331280D01*
X346151Y331936D02*
Y328000D01*
Y329312D01*
X348775Y331936D01*
X346807Y329968D01*
X348775Y328000D01*
X243000Y323000D02*
X244574D01*
X243787D01*
Y327723D01*
X243000Y326936D01*
X246936Y326149D02*
Y323787D01*
X247723Y323000D01*
X250084D01*
Y326149D01*
X311000Y341000D02*
Y339688D01*
Y340344D01*
X314936D01*
X314280Y341000D01*
Y337720D02*
X314936Y337064D01*
Y335752D01*
X314280Y335096D01*
X311656D01*
X311000Y335752D01*
Y337064D01*
X311656Y337720D01*
X314280D01*
X314936Y333785D02*
X311000D01*
X312312D01*
X314936Y331161D01*
X312968Y333128D01*
X311000Y331161D01*
X211771Y323500D02*
Y327042D01*
X210000Y325271D01*
X212361D01*
X213542Y323500D02*
Y324090D01*
X214132D01*
Y323500D01*
X213542D01*
X216494Y327042D02*
X218855D01*
Y326452D01*
X216494Y324090D01*
Y323500D01*
X220036Y325861D02*
Y324090D01*
X220626Y323500D01*
X222398D01*
Y325861D01*
X13771Y246000D02*
Y249542D01*
X12000Y247771D01*
X14361D01*
X15542Y246000D02*
Y246590D01*
X16132D01*
Y246000D01*
X15542D01*
X18494Y249542D02*
X20855D01*
Y248952D01*
X18494Y246590D01*
Y246000D01*
X22036Y248361D02*
Y246590D01*
X22626Y246000D01*
X24398D01*
Y248361D01*
X113000Y263500D02*
Y262188D01*
Y262844D01*
X116936D01*
X116280Y263500D01*
Y260220D02*
X116936Y259564D01*
Y258252D01*
X116280Y257596D01*
X113656D01*
X113000Y258252D01*
Y259564D01*
X113656Y260220D01*
X116280D01*
X116936Y256284D02*
X113000D01*
X114312D01*
X116936Y253661D01*
X114968Y255628D01*
X113000Y253661D01*
X45000Y245500D02*
X46574D01*
X45787D01*
Y250223D01*
X45000Y249436D01*
X48936Y248649D02*
Y246287D01*
X49723Y245500D01*
X52084D01*
Y248649D01*
X139624Y250500D02*
X137000D01*
X139624Y253124D01*
Y253780D01*
X138968Y254436D01*
X137656D01*
X137000Y253780D01*
X140936Y250500D02*
Y251156D01*
X141592D01*
Y250500D01*
X140936D01*
X146839D02*
X144216D01*
X146839Y253124D01*
Y253780D01*
X146183Y254436D01*
X144871D01*
X144216Y253780D01*
X148151Y254436D02*
Y250500D01*
Y251812D01*
X150775Y254436D01*
X148807Y252468D01*
X150775Y250500D01*
X170124Y280780D02*
X169468Y281436D01*
X168156D01*
X167500Y280780D01*
Y278156D01*
X168156Y277500D01*
X169468D01*
X170124Y278156D01*
Y279468D01*
X168812D01*
X171436Y277500D02*
Y281436D01*
X174060Y277500D01*
Y281436D01*
X175372D02*
Y277500D01*
X177339D01*
X177995Y278156D01*
Y280780D01*
X177339Y281436D01*
X175372D01*
X72000Y245500D02*
X73312D01*
X72656D01*
Y249436D01*
X72000Y248780D01*
X75280D02*
X75936Y249436D01*
X77248D01*
X77904Y248780D01*
Y246156D01*
X77248Y245500D01*
X75936D01*
X75280Y246156D01*
Y248780D01*
X79216Y248124D02*
Y246156D01*
X79871Y245500D01*
X81839D01*
Y248124D01*
X138000Y261000D02*
X139312D01*
X138656D01*
Y264936D01*
X138000Y264280D01*
X141280D02*
X141936Y264936D01*
X143248D01*
X143904Y264280D01*
Y261656D01*
X143248Y261000D01*
X141936D01*
X141280Y261656D01*
Y264280D01*
X145215D02*
X145871Y264936D01*
X147183D01*
X147839Y264280D01*
Y261656D01*
X147183Y261000D01*
X145871D01*
X145215Y261656D01*
Y264280D01*
X10500Y298468D02*
X13124D01*
X11812Y299780D02*
Y297156D01*
X35000Y298468D02*
X37624D01*
X36312Y299780D02*
Y297156D01*
X59000Y298468D02*
X61624D01*
X60312Y299780D02*
Y297156D01*
X83500Y298468D02*
X86124D01*
X84812Y299780D02*
Y297156D01*
X108000Y298468D02*
X110624D01*
X109312Y299780D02*
Y297156D01*
X7000Y241468D02*
X9624D01*
X8312Y242780D02*
Y240156D01*
X36500Y241468D02*
X39124D01*
X37812Y242780D02*
Y240156D01*
X65500Y241468D02*
X68124D01*
X66812Y242780D02*
Y240156D01*
X167000Y249968D02*
X169624D01*
X168312Y251280D02*
Y248656D01*
X11000Y289968D02*
X13624D01*
X35500D02*
X38124D01*
X59500D02*
X62124D01*
X84000D02*
X86624D01*
X108500D02*
X111124D01*
X166500Y260468D02*
X169124D01*
X27000Y241968D02*
X29624D01*
X56500D02*
X59124D01*
X85000D02*
X87624D01*
X282500D02*
X285124D01*
X254000D02*
X256624D01*
X224500D02*
X227124D01*
X364000Y260468D02*
X366624D01*
X306000Y289968D02*
X308624D01*
X281500D02*
X284124D01*
X257000D02*
X259624D01*
X233000D02*
X235624D01*
X208500D02*
X211124D01*
X364500Y249968D02*
X367124D01*
X365812Y251280D02*
Y248656D01*
X263000Y241468D02*
X265624D01*
X264312Y242780D02*
Y240156D01*
X234000Y241468D02*
X236624D01*
X235312Y242780D02*
Y240156D01*
X204500Y241468D02*
X207124D01*
X205812Y242780D02*
Y240156D01*
X305500Y298468D02*
X308124D01*
X306812Y299780D02*
Y297156D01*
X281000Y298468D02*
X283624D01*
X282312Y299780D02*
Y297156D01*
X256500Y298468D02*
X259124D01*
X257812Y299780D02*
Y297156D01*
X232500Y298468D02*
X235124D01*
X233812Y299780D02*
Y297156D01*
X208000Y298468D02*
X210624D01*
X209312Y299780D02*
Y297156D01*
X335500Y261000D02*
X336812D01*
X336156D01*
Y264936D01*
X335500Y264280D01*
X338780D02*
X339436Y264936D01*
X340748D01*
X341404Y264280D01*
Y261656D01*
X340748Y261000D01*
X339436D01*
X338780Y261656D01*
Y264280D01*
X342716D02*
X343372Y264936D01*
X344683D01*
X345339Y264280D01*
Y261656D01*
X344683Y261000D01*
X343372D01*
X342716Y261656D01*
Y264280D01*
X269500Y245500D02*
X270812D01*
X270156D01*
Y249436D01*
X269500Y248780D01*
X272780D02*
X273436Y249436D01*
X274748D01*
X275404Y248780D01*
Y246156D01*
X274748Y245500D01*
X273436D01*
X272780Y246156D01*
Y248780D01*
X276715Y248124D02*
Y246156D01*
X277372Y245500D01*
X279339D01*
Y248124D01*
X367624Y280780D02*
X366968Y281436D01*
X365656D01*
X365000Y280780D01*
Y278156D01*
X365656Y277500D01*
X366968D01*
X367624Y278156D01*
Y279468D01*
X366312D01*
X368936Y277500D02*
Y281436D01*
X371560Y277500D01*
Y281436D01*
X372871D02*
Y277500D01*
X374839D01*
X375495Y278156D01*
Y280780D01*
X374839Y281436D01*
X372871D01*
X337124Y250500D02*
X334500D01*
X337124Y253124D01*
Y253780D01*
X336468Y254436D01*
X335156D01*
X334500Y253780D01*
X338436Y250500D02*
Y251156D01*
X339092D01*
Y250500D01*
X338436D01*
X344339D02*
X341716D01*
X344339Y253124D01*
Y253780D01*
X343683Y254436D01*
X342372D01*
X341716Y253780D01*
X345651Y254436D02*
Y250500D01*
Y251812D01*
X348275Y254436D01*
X346307Y252468D01*
X348275Y250500D01*
X242500Y245500D02*
X244074D01*
X243287D01*
Y250223D01*
X242500Y249436D01*
X246436Y248649D02*
Y246287D01*
X247223Y245500D01*
X249584D01*
Y248649D01*
X310500Y263500D02*
Y262188D01*
Y262844D01*
X314436D01*
X313780Y263500D01*
Y260220D02*
X314436Y259564D01*
Y258252D01*
X313780Y257596D01*
X311156D01*
X310500Y258252D01*
Y259564D01*
X311156Y260220D01*
X313780D01*
X314436Y256284D02*
X310500D01*
X311812D01*
X314436Y253661D01*
X312468Y255628D01*
X310500Y253661D01*
X211271Y246000D02*
Y249542D01*
X209500Y247771D01*
X211861D01*
X213042Y246000D02*
Y246590D01*
X213632D01*
Y246000D01*
X213042D01*
X215994Y249542D02*
X218355D01*
Y248952D01*
X215994Y246590D01*
Y246000D01*
X219536Y248361D02*
Y246590D01*
X220127Y246000D01*
X221898D01*
Y248361D01*
X13771Y168500D02*
Y172042D01*
X12000Y170271D01*
X14361D01*
X15542Y168500D02*
Y169090D01*
X16132D01*
Y168500D01*
X15542D01*
X18494Y172042D02*
X20855D01*
Y171452D01*
X18494Y169090D01*
Y168500D01*
X22036Y170861D02*
Y169090D01*
X22626Y168500D01*
X24398D01*
Y170861D01*
X113000Y186000D02*
Y184688D01*
Y185344D01*
X116936D01*
X116280Y186000D01*
Y182720D02*
X116936Y182064D01*
Y180752D01*
X116280Y180096D01*
X113656D01*
X113000Y180752D01*
Y182064D01*
X113656Y182720D01*
X116280D01*
X116936Y178785D02*
X113000D01*
X114312D01*
X116936Y176161D01*
X114968Y178129D01*
X113000Y176161D01*
X45000Y168000D02*
X46574D01*
X45787D01*
Y172723D01*
X45000Y171936D01*
X48936Y171149D02*
Y168787D01*
X49723Y168000D01*
X52084D01*
Y171149D01*
X139624Y173000D02*
X137000D01*
X139624Y175624D01*
Y176280D01*
X138968Y176936D01*
X137656D01*
X137000Y176280D01*
X140936Y173000D02*
Y173656D01*
X141592D01*
Y173000D01*
X140936D01*
X146839D02*
X144216D01*
X146839Y175624D01*
Y176280D01*
X146183Y176936D01*
X144871D01*
X144216Y176280D01*
X148151Y176936D02*
Y173000D01*
Y174312D01*
X150775Y176936D01*
X148807Y174968D01*
X150775Y173000D01*
X170124Y203280D02*
X169468Y203936D01*
X168156D01*
X167500Y203280D01*
Y200656D01*
X168156Y200000D01*
X169468D01*
X170124Y200656D01*
Y201968D01*
X168812D01*
X171436Y200000D02*
Y203936D01*
X174060Y200000D01*
Y203936D01*
X175372D02*
Y200000D01*
X177339D01*
X177995Y200656D01*
Y203280D01*
X177339Y203936D01*
X175372D01*
X72000Y168000D02*
X73312D01*
X72656D01*
Y171936D01*
X72000Y171280D01*
X75280D02*
X75936Y171936D01*
X77248D01*
X77904Y171280D01*
Y168656D01*
X77248Y168000D01*
X75936D01*
X75280Y168656D01*
Y171280D01*
X79216Y170624D02*
Y168656D01*
X79871Y168000D01*
X81839D01*
Y170624D01*
X138000Y183500D02*
X139312D01*
X138656D01*
Y187436D01*
X138000Y186780D01*
X141280D02*
X141936Y187436D01*
X143248D01*
X143904Y186780D01*
Y184156D01*
X143248Y183500D01*
X141936D01*
X141280Y184156D01*
Y186780D01*
X145215D02*
X145871Y187436D01*
X147183D01*
X147839Y186780D01*
Y184156D01*
X147183Y183500D01*
X145871D01*
X145215Y184156D01*
Y186780D01*
X10500Y220968D02*
X13124D01*
X11812Y222280D02*
Y219656D01*
X35000Y220968D02*
X37624D01*
X36312Y222280D02*
Y219656D01*
X59000Y220968D02*
X61624D01*
X60312Y222280D02*
Y219656D01*
X83500Y220968D02*
X86124D01*
X84812Y222280D02*
Y219656D01*
X108000Y220968D02*
X110624D01*
X109312Y222280D02*
Y219656D01*
X7000Y163968D02*
X9624D01*
X8312Y165280D02*
Y162656D01*
X36500Y163968D02*
X39124D01*
X37812Y165280D02*
Y162656D01*
X65500Y163968D02*
X68124D01*
X66812Y165280D02*
Y162656D01*
X167000Y172468D02*
X169624D01*
X168312Y173780D02*
Y171156D01*
X11000Y212468D02*
X13624D01*
X35500D02*
X38124D01*
X59500D02*
X62124D01*
X84000D02*
X86624D01*
X108500D02*
X111124D01*
X166500Y182968D02*
X169124D01*
X27000Y164468D02*
X29624D01*
X56500D02*
X59124D01*
X85000D02*
X87624D01*
X282500D02*
X285124D01*
X254000D02*
X256624D01*
X224500D02*
X227124D01*
X364000Y182968D02*
X366624D01*
X306000Y212468D02*
X308624D01*
X281500D02*
X284124D01*
X257000D02*
X259624D01*
X233000D02*
X235624D01*
X208500D02*
X211124D01*
X364500Y172468D02*
X367124D01*
X365812Y173780D02*
Y171156D01*
X263000Y163968D02*
X265624D01*
X264312Y165280D02*
Y162656D01*
X234000Y163968D02*
X236624D01*
X235312Y165280D02*
Y162656D01*
X204500Y163968D02*
X207124D01*
X205812Y165280D02*
Y162656D01*
X305500Y220968D02*
X308124D01*
X306812Y222280D02*
Y219656D01*
X281000Y220968D02*
X283624D01*
X282312Y222280D02*
Y219656D01*
X256500Y220968D02*
X259124D01*
X257812Y222280D02*
Y219656D01*
X232500Y220968D02*
X235124D01*
X233812Y222280D02*
Y219656D01*
X208000Y220968D02*
X210624D01*
X209312Y222280D02*
Y219656D01*
X335500Y183500D02*
X336812D01*
X336156D01*
Y187436D01*
X335500Y186780D01*
X338780D02*
X339436Y187436D01*
X340748D01*
X341404Y186780D01*
Y184156D01*
X340748Y183500D01*
X339436D01*
X338780Y184156D01*
Y186780D01*
X342716D02*
X343372Y187436D01*
X344683D01*
X345339Y186780D01*
Y184156D01*
X344683Y183500D01*
X343372D01*
X342716Y184156D01*
Y186780D01*
X269500Y168000D02*
X270812D01*
X270156D01*
Y171936D01*
X269500Y171280D01*
X272780D02*
X273436Y171936D01*
X274748D01*
X275404Y171280D01*
Y168656D01*
X274748Y168000D01*
X273436D01*
X272780Y168656D01*
Y171280D01*
X276715Y170624D02*
Y168656D01*
X277372Y168000D01*
X279339D01*
Y170624D01*
X367624Y203280D02*
X366968Y203936D01*
X365656D01*
X365000Y203280D01*
Y200656D01*
X365656Y200000D01*
X366968D01*
X367624Y200656D01*
Y201968D01*
X366312D01*
X368936Y200000D02*
Y203936D01*
X371560Y200000D01*
Y203936D01*
X372871D02*
Y200000D01*
X374839D01*
X375495Y200656D01*
Y203280D01*
X374839Y203936D01*
X372871D01*
X337124Y173000D02*
X334500D01*
X337124Y175624D01*
Y176280D01*
X336468Y176936D01*
X335156D01*
X334500Y176280D01*
X338436Y173000D02*
Y173656D01*
X339092D01*
Y173000D01*
X338436D01*
X344339D02*
X341716D01*
X344339Y175624D01*
Y176280D01*
X343683Y176936D01*
X342372D01*
X341716Y176280D01*
X345651Y176936D02*
Y173000D01*
Y174312D01*
X348275Y176936D01*
X346307Y174968D01*
X348275Y173000D01*
X242500Y168000D02*
X244074D01*
X243287D01*
Y172723D01*
X242500Y171936D01*
X246436Y171149D02*
Y168787D01*
X247223Y168000D01*
X249584D01*
Y171149D01*
X310500Y186000D02*
Y184688D01*
Y185344D01*
X314436D01*
X313780Y186000D01*
Y182720D02*
X314436Y182064D01*
Y180752D01*
X313780Y180096D01*
X311156D01*
X310500Y180752D01*
Y182064D01*
X311156Y182720D01*
X313780D01*
X314436Y178785D02*
X310500D01*
X311812D01*
X314436Y176161D01*
X312468Y178129D01*
X310500Y176161D01*
X211271Y168500D02*
Y172042D01*
X209500Y170271D01*
X211861D01*
X213042Y168500D02*
Y169090D01*
X213632D01*
Y168500D01*
X213042D01*
X215994Y172042D02*
X218355D01*
Y171452D01*
X215994Y169090D01*
Y168500D01*
X219536Y170861D02*
Y169090D01*
X220127Y168500D01*
X221898D01*
Y170861D01*
X13771Y89500D02*
Y93042D01*
X12000Y91271D01*
X14361D01*
X15542Y89500D02*
Y90090D01*
X16132D01*
Y89500D01*
X15542D01*
X18494Y93042D02*
X20855D01*
Y92452D01*
X18494Y90090D01*
Y89500D01*
X22036Y91861D02*
Y90090D01*
X22626Y89500D01*
X24398D01*
Y91861D01*
X113000Y107000D02*
Y105688D01*
Y106344D01*
X116936D01*
X116280Y107000D01*
Y103720D02*
X116936Y103064D01*
Y101752D01*
X116280Y101096D01*
X113656D01*
X113000Y101752D01*
Y103064D01*
X113656Y103720D01*
X116280D01*
X116936Y99784D02*
X113000D01*
X114312D01*
X116936Y97161D01*
X114968Y99129D01*
X113000Y97161D01*
X45000Y89000D02*
X46574D01*
X45787D01*
Y93723D01*
X45000Y92936D01*
X48936Y92149D02*
Y89787D01*
X49723Y89000D01*
X52084D01*
Y92149D01*
X139624Y94000D02*
X137000D01*
X139624Y96624D01*
Y97280D01*
X138968Y97936D01*
X137656D01*
X137000Y97280D01*
X140936Y94000D02*
Y94656D01*
X141592D01*
Y94000D01*
X140936D01*
X146839D02*
X144216D01*
X146839Y96624D01*
Y97280D01*
X146183Y97936D01*
X144871D01*
X144216Y97280D01*
X148151Y97936D02*
Y94000D01*
Y95312D01*
X150775Y97936D01*
X148807Y95968D01*
X150775Y94000D01*
X170124Y124280D02*
X169468Y124936D01*
X168156D01*
X167500Y124280D01*
Y121656D01*
X168156Y121000D01*
X169468D01*
X170124Y121656D01*
Y122968D01*
X168812D01*
X171436Y121000D02*
Y124936D01*
X174060Y121000D01*
Y124936D01*
X175372D02*
Y121000D01*
X177339D01*
X177995Y121656D01*
Y124280D01*
X177339Y124936D01*
X175372D01*
X72000Y89000D02*
X73312D01*
X72656D01*
Y92936D01*
X72000Y92280D01*
X75280D02*
X75936Y92936D01*
X77248D01*
X77904Y92280D01*
Y89656D01*
X77248Y89000D01*
X75936D01*
X75280Y89656D01*
Y92280D01*
X79216Y91624D02*
Y89656D01*
X79871Y89000D01*
X81839D01*
Y91624D01*
X138000Y104500D02*
X139312D01*
X138656D01*
Y108436D01*
X138000Y107780D01*
X141280D02*
X141936Y108436D01*
X143248D01*
X143904Y107780D01*
Y105156D01*
X143248Y104500D01*
X141936D01*
X141280Y105156D01*
Y107780D01*
X145215D02*
X145871Y108436D01*
X147183D01*
X147839Y107780D01*
Y105156D01*
X147183Y104500D01*
X145871D01*
X145215Y105156D01*
Y107780D01*
X10500Y141968D02*
X13124D01*
X11812Y143280D02*
Y140656D01*
X35000Y141968D02*
X37624D01*
X36312Y143280D02*
Y140656D01*
X59000Y141968D02*
X61624D01*
X60312Y143280D02*
Y140656D01*
X83500Y141968D02*
X86124D01*
X84812Y143280D02*
Y140656D01*
X108000Y141968D02*
X110624D01*
X109312Y143280D02*
Y140656D01*
X7000Y84968D02*
X9624D01*
X8312Y86280D02*
Y83656D01*
X36500Y84968D02*
X39124D01*
X37812Y86280D02*
Y83656D01*
X65500Y84968D02*
X68124D01*
X66812Y86280D02*
Y83656D01*
X167000Y93468D02*
X169624D01*
X168312Y94780D02*
Y92156D01*
X11000Y133468D02*
X13624D01*
X35500D02*
X38124D01*
X59500D02*
X62124D01*
X84000D02*
X86624D01*
X108500D02*
X111124D01*
X166500Y103968D02*
X169124D01*
X27000Y85468D02*
X29624D01*
X56500D02*
X59124D01*
X85000D02*
X87624D01*
X282500D02*
X285124D01*
X254000D02*
X256624D01*
X224500D02*
X227124D01*
X364000Y103968D02*
X366624D01*
X306000Y133468D02*
X308624D01*
X281500D02*
X284124D01*
X257000D02*
X259624D01*
X233000D02*
X235624D01*
X208500D02*
X211124D01*
X364500Y93468D02*
X367124D01*
X365812Y94780D02*
Y92156D01*
X263000Y84968D02*
X265624D01*
X264312Y86280D02*
Y83656D01*
X234000Y84968D02*
X236624D01*
X235312Y86280D02*
Y83656D01*
X204500Y84968D02*
X207124D01*
X205812Y86280D02*
Y83656D01*
X305500Y141968D02*
X308124D01*
X306812Y143280D02*
Y140656D01*
X281000Y141968D02*
X283624D01*
X282312Y143280D02*
Y140656D01*
X256500Y141968D02*
X259124D01*
X257812Y143280D02*
Y140656D01*
X232500Y141968D02*
X235124D01*
X233812Y143280D02*
Y140656D01*
X208000Y141968D02*
X210624D01*
X209312Y143280D02*
Y140656D01*
X335500Y104500D02*
X336812D01*
X336156D01*
Y108436D01*
X335500Y107780D01*
X338780D02*
X339436Y108436D01*
X340748D01*
X341404Y107780D01*
Y105156D01*
X340748Y104500D01*
X339436D01*
X338780Y105156D01*
Y107780D01*
X342716D02*
X343372Y108436D01*
X344683D01*
X345339Y107780D01*
Y105156D01*
X344683Y104500D01*
X343372D01*
X342716Y105156D01*
Y107780D01*
X269500Y89000D02*
X270812D01*
X270156D01*
Y92936D01*
X269500Y92280D01*
X272780D02*
X273436Y92936D01*
X274748D01*
X275404Y92280D01*
Y89656D01*
X274748Y89000D01*
X273436D01*
X272780Y89656D01*
Y92280D01*
X276715Y91624D02*
Y89656D01*
X277372Y89000D01*
X279339D01*
Y91624D01*
X367624Y124280D02*
X366968Y124936D01*
X365656D01*
X365000Y124280D01*
Y121656D01*
X365656Y121000D01*
X366968D01*
X367624Y121656D01*
Y122968D01*
X366312D01*
X368936Y121000D02*
Y124936D01*
X371560Y121000D01*
Y124936D01*
X372871D02*
Y121000D01*
X374839D01*
X375495Y121656D01*
Y124280D01*
X374839Y124936D01*
X372871D01*
X337124Y94000D02*
X334500D01*
X337124Y96624D01*
Y97280D01*
X336468Y97936D01*
X335156D01*
X334500Y97280D01*
X338436Y94000D02*
Y94656D01*
X339092D01*
Y94000D01*
X338436D01*
X344339D02*
X341716D01*
X344339Y96624D01*
Y97280D01*
X343683Y97936D01*
X342372D01*
X341716Y97280D01*
X345651Y97936D02*
Y94000D01*
Y95312D01*
X348275Y97936D01*
X346307Y95968D01*
X348275Y94000D01*
X242500Y89000D02*
X244074D01*
X243287D01*
Y93723D01*
X242500Y92936D01*
X246436Y92149D02*
Y89787D01*
X247223Y89000D01*
X249584D01*
Y92149D01*
X310500Y107000D02*
Y105688D01*
Y106344D01*
X314436D01*
X313780Y107000D01*
Y103720D02*
X314436Y103064D01*
Y101752D01*
X313780Y101096D01*
X311156D01*
X310500Y101752D01*
Y103064D01*
X311156Y103720D01*
X313780D01*
X314436Y99784D02*
X310500D01*
X311812D01*
X314436Y97161D01*
X312468Y99129D01*
X310500Y97161D01*
X211271Y89500D02*
Y93042D01*
X209500Y91271D01*
X211861D01*
X213042Y89500D02*
Y90090D01*
X213632D01*
Y89500D01*
X213042D01*
X215994Y93042D02*
X218355D01*
Y92452D01*
X215994Y90090D01*
Y89500D01*
X219536Y91861D02*
Y90090D01*
X220127Y89500D01*
X221898D01*
Y91861D01*
X211771Y11000D02*
Y14542D01*
X210000Y12771D01*
X212361D01*
X213542Y11000D02*
Y11590D01*
X214132D01*
Y11000D01*
X213542D01*
X216494Y14542D02*
X218855D01*
Y13952D01*
X216494Y11590D01*
Y11000D01*
X220036Y13361D02*
Y11590D01*
X220626Y11000D01*
X222398D01*
Y13361D01*
X311000Y28500D02*
Y27188D01*
Y27844D01*
X314936D01*
X314280Y28500D01*
Y25220D02*
X314936Y24564D01*
Y23252D01*
X314280Y22596D01*
X311656D01*
X311000Y23252D01*
Y24564D01*
X311656Y25220D01*
X314280D01*
X314936Y21284D02*
X311000D01*
X312312D01*
X314936Y18661D01*
X312968Y20628D01*
X311000Y18661D01*
X243000Y10500D02*
X244574D01*
X243787D01*
Y15223D01*
X243000Y14436D01*
X246936Y13649D02*
Y11287D01*
X247723Y10500D01*
X250084D01*
Y13649D01*
X337624Y15500D02*
X335000D01*
X337624Y18124D01*
Y18780D01*
X336968Y19436D01*
X335656D01*
X335000Y18780D01*
X338936Y15500D02*
Y16156D01*
X339592D01*
Y15500D01*
X338936D01*
X344839D02*
X342215D01*
X344839Y18124D01*
Y18780D01*
X344183Y19436D01*
X342871D01*
X342215Y18780D01*
X346151Y19436D02*
Y15500D01*
Y16812D01*
X348775Y19436D01*
X346807Y17468D01*
X348775Y15500D01*
X368124Y45780D02*
X367468Y46436D01*
X366156D01*
X365500Y45780D01*
Y43156D01*
X366156Y42500D01*
X367468D01*
X368124Y43156D01*
Y44468D01*
X366812D01*
X369436Y42500D02*
Y46436D01*
X372060Y42500D01*
Y46436D01*
X373372D02*
Y42500D01*
X375339D01*
X375995Y43156D01*
Y45780D01*
X375339Y46436D01*
X373372D01*
X270000Y10500D02*
X271312D01*
X270656D01*
Y14436D01*
X270000Y13780D01*
X273280D02*
X273936Y14436D01*
X275248D01*
X275904Y13780D01*
Y11156D01*
X275248Y10500D01*
X273936D01*
X273280Y11156D01*
Y13780D01*
X277216Y13124D02*
Y11156D01*
X277871Y10500D01*
X279839D01*
Y13124D01*
X336000Y26000D02*
X337312D01*
X336656D01*
Y29936D01*
X336000Y29280D01*
X339280D02*
X339936Y29936D01*
X341248D01*
X341904Y29280D01*
Y26656D01*
X341248Y26000D01*
X339936D01*
X339280Y26656D01*
Y29280D01*
X343215D02*
X343871Y29936D01*
X345183D01*
X345839Y29280D01*
Y26656D01*
X345183Y26000D01*
X343871D01*
X343215Y26656D01*
Y29280D01*
X208500Y63468D02*
X211124D01*
X209812Y64780D02*
Y62156D01*
X233000Y63468D02*
X235624D01*
X234312Y64780D02*
Y62156D01*
X257000Y63468D02*
X259624D01*
X258312Y64780D02*
Y62156D01*
X281500Y63468D02*
X284124D01*
X282812Y64780D02*
Y62156D01*
X306000Y63468D02*
X308624D01*
X307312Y64780D02*
Y62156D01*
X205000Y6468D02*
X207624D01*
X206312Y7780D02*
Y5156D01*
X234500Y6468D02*
X237124D01*
X235812Y7780D02*
Y5156D01*
X263500Y6468D02*
X266124D01*
X264812Y7780D02*
Y5156D01*
X365000Y14968D02*
X367624D01*
X366312Y16280D02*
Y13656D01*
X209000Y54968D02*
X211624D01*
X233500D02*
X236124D01*
X257500D02*
X260124D01*
X282000D02*
X284624D01*
X306500D02*
X309124D01*
X364500Y25468D02*
X367124D01*
X225000Y6968D02*
X227624D01*
X254500D02*
X257124D01*
X283000D02*
X285624D01*
X85500D02*
X88124D01*
X57000D02*
X59624D01*
X27500D02*
X30124D01*
X167000Y25468D02*
X169624D01*
X109000Y54968D02*
X111624D01*
X84500D02*
X87124D01*
X60000D02*
X62624D01*
X36000D02*
X38624D01*
X11500D02*
X14124D01*
X167500Y14968D02*
X170124D01*
X168812Y16280D02*
Y13656D01*
X66000Y6468D02*
X68624D01*
X67312Y7780D02*
Y5156D01*
X37000Y6468D02*
X39624D01*
X38312Y7780D02*
Y5156D01*
X7500Y6468D02*
X10124D01*
X8812Y7780D02*
Y5156D01*
X108500Y63468D02*
X111124D01*
X109812Y64780D02*
Y62156D01*
X84000Y63468D02*
X86624D01*
X85312Y64780D02*
Y62156D01*
X59500Y63468D02*
X62124D01*
X60812Y64780D02*
Y62156D01*
X35500Y63468D02*
X38124D01*
X36812Y64780D02*
Y62156D01*
X11000Y63468D02*
X13624D01*
X12312Y64780D02*
Y62156D01*
X138500Y26000D02*
X139812D01*
X139156D01*
Y29936D01*
X138500Y29280D01*
X141780D02*
X142436Y29936D01*
X143748D01*
X144404Y29280D01*
Y26656D01*
X143748Y26000D01*
X142436D01*
X141780Y26656D01*
Y29280D01*
X145715D02*
X146371Y29936D01*
X147683D01*
X148339Y29280D01*
Y26656D01*
X147683Y26000D01*
X146371D01*
X145715Y26656D01*
Y29280D01*
X72500Y10500D02*
X73812D01*
X73156D01*
Y14436D01*
X72500Y13780D01*
X75780D02*
X76436Y14436D01*
X77748D01*
X78404Y13780D01*
Y11156D01*
X77748Y10500D01*
X76436D01*
X75780Y11156D01*
Y13780D01*
X79716Y13124D02*
Y11156D01*
X80371Y10500D01*
X82339D01*
Y13124D01*
X170624Y45780D02*
X169968Y46436D01*
X168656D01*
X168000Y45780D01*
Y43156D01*
X168656Y42500D01*
X169968D01*
X170624Y43156D01*
Y44468D01*
X169312D01*
X171936Y42500D02*
Y46436D01*
X174560Y42500D01*
Y46436D01*
X175872D02*
Y42500D01*
X177839D01*
X178495Y43156D01*
Y45780D01*
X177839Y46436D01*
X175872D01*
X140124Y15500D02*
X137500D01*
X140124Y18124D01*
Y18780D01*
X139468Y19436D01*
X138156D01*
X137500Y18780D01*
X141436Y15500D02*
Y16156D01*
X142092D01*
Y15500D01*
X141436D01*
X147339D02*
X144715D01*
X147339Y18124D01*
Y18780D01*
X146683Y19436D01*
X145371D01*
X144715Y18780D01*
X148651Y19436D02*
Y15500D01*
Y16812D01*
X151275Y19436D01*
X149307Y17468D01*
X151275Y15500D01*
X45500Y10500D02*
X47074D01*
X46287D01*
Y15223D01*
X45500Y14436D01*
X49436Y13649D02*
Y11287D01*
X50223Y10500D01*
X52584D01*
Y13649D01*
X113500Y28500D02*
Y27188D01*
Y27844D01*
X117436D01*
X116780Y28500D01*
Y25220D02*
X117436Y24564D01*
Y23252D01*
X116780Y22596D01*
X114156D01*
X113500Y23252D01*
Y24564D01*
X114156Y25220D01*
X116780D01*
X117436Y21284D02*
X113500D01*
X114812D01*
X117436Y18661D01*
X115468Y20628D01*
X113500Y18661D01*
X14271Y11000D02*
Y14542D01*
X12500Y12771D01*
X14861D01*
X16042Y11000D02*
Y11590D01*
X16633D01*
Y11000D01*
X16042D01*
X18994Y14542D02*
X21355D01*
Y13952D01*
X18994Y11590D01*
Y11000D01*
X22536Y13361D02*
Y11590D01*
X23126Y11000D01*
X24898D01*
Y13361D01*
D24*
X130059Y350059D02*
X148287D01*
X130059D02*
Y359783D01*
Y365532D02*
Y375256D01*
X148287D01*
X156713Y350059D02*
Y375256D01*
X327559Y350059D02*
X345787D01*
X327559D02*
Y359783D01*
Y365532D02*
Y375256D01*
X345787D01*
X354213Y350059D02*
Y375256D01*
X129559Y272559D02*
X147787D01*
X129559D02*
Y282283D01*
Y288032D02*
Y297756D01*
X147787D01*
X156213Y272559D02*
Y297756D01*
X327059Y272559D02*
X345287D01*
X327059D02*
Y282283D01*
Y288032D02*
Y297756D01*
X345287D01*
X353713Y272559D02*
Y297756D01*
X129559Y195059D02*
X147787D01*
X129559D02*
Y204783D01*
Y210532D02*
Y220256D01*
X147787D01*
X156213Y195059D02*
Y220256D01*
X327059Y195059D02*
X345287D01*
X327059D02*
Y204783D01*
Y210532D02*
Y220256D01*
X345287D01*
X353713Y195059D02*
Y220256D01*
X129559Y116059D02*
X147787D01*
X129559D02*
Y125783D01*
Y131532D02*
Y141256D01*
X147787D01*
X156213Y116059D02*
Y141256D01*
X327059Y116059D02*
X345287D01*
X327059D02*
Y125783D01*
Y131532D02*
Y141256D01*
X345287D01*
X353713Y116059D02*
Y141256D01*
X327559Y37559D02*
X345787D01*
X327559D02*
Y47283D01*
Y53032D02*
Y62756D01*
X345787D01*
X354213Y37559D02*
Y62756D01*
X130059Y37559D02*
X148287D01*
X130059D02*
Y47283D01*
Y53032D02*
Y62756D01*
X148287D01*
X156713Y37559D02*
Y62756D01*
D25*
X127500Y379000D02*
Y382999D01*
X129499Y384998D01*
X131499Y382999D01*
Y379000D01*
Y381999D01*
X127500D01*
X133498Y384998D02*
X135497D01*
X134498D01*
Y379000D01*
X133498D01*
X135497D01*
X144494D02*
Y384998D01*
X147494D01*
X148493Y383998D01*
Y381999D01*
X147494Y380999D01*
X144494D01*
X154491Y383998D02*
X153492Y384998D01*
X151492D01*
X150493Y383998D01*
Y380000D01*
X151492Y379000D01*
X153492D01*
X154491Y380000D01*
X156491Y384998D02*
Y379000D01*
X159490D01*
X160489Y380000D01*
Y380999D01*
X159490Y381999D01*
X156491D01*
X159490D01*
X160489Y382999D01*
Y383998D01*
X159490Y384998D01*
X156491D01*
X325000Y379000D02*
Y382999D01*
X326999Y384998D01*
X328999Y382999D01*
Y379000D01*
Y381999D01*
X325000D01*
X330998Y384998D02*
X332997D01*
X331998D01*
Y379000D01*
X330998D01*
X332997D01*
X341995D02*
Y384998D01*
X344993D01*
X345993Y383998D01*
Y381999D01*
X344993Y380999D01*
X341995D01*
X351991Y383998D02*
X350992Y384998D01*
X348992D01*
X347993Y383998D01*
Y380000D01*
X348992Y379000D01*
X350992D01*
X351991Y380000D01*
X353991Y384998D02*
Y379000D01*
X356990D01*
X357989Y380000D01*
Y380999D01*
X356990Y381999D01*
X353991D01*
X356990D01*
X357989Y382999D01*
Y383998D01*
X356990Y384998D01*
X353991D01*
X127000Y301500D02*
Y305499D01*
X128999Y307498D01*
X130999Y305499D01*
Y301500D01*
Y304499D01*
X127000D01*
X132998Y307498D02*
X134997D01*
X133998D01*
Y301500D01*
X132998D01*
X134997D01*
X143994D02*
Y307498D01*
X146994D01*
X147993Y306498D01*
Y304499D01*
X146994Y303499D01*
X143994D01*
X153991Y306498D02*
X152992Y307498D01*
X150992D01*
X149993Y306498D01*
Y302500D01*
X150992Y301500D01*
X152992D01*
X153991Y302500D01*
X155991Y307498D02*
Y301500D01*
X158990D01*
X159989Y302500D01*
Y303499D01*
X158990Y304499D01*
X155991D01*
X158990D01*
X159989Y305499D01*
Y306498D01*
X158990Y307498D01*
X155991D01*
X324500Y301500D02*
Y305499D01*
X326499Y307498D01*
X328499Y305499D01*
Y301500D01*
Y304499D01*
X324500D01*
X330498Y307498D02*
X332497D01*
X331498D01*
Y301500D01*
X330498D01*
X332497D01*
X341494D02*
Y307498D01*
X344494D01*
X345493Y306498D01*
Y304499D01*
X344494Y303499D01*
X341494D01*
X351491Y306498D02*
X350492Y307498D01*
X348492D01*
X347493Y306498D01*
Y302500D01*
X348492Y301500D01*
X350492D01*
X351491Y302500D01*
X353491Y307498D02*
Y301500D01*
X356490D01*
X357489Y302500D01*
Y303499D01*
X356490Y304499D01*
X353491D01*
X356490D01*
X357489Y305499D01*
Y306498D01*
X356490Y307498D01*
X353491D01*
X127000Y224000D02*
Y227999D01*
X128999Y229998D01*
X130999Y227999D01*
Y224000D01*
Y226999D01*
X127000D01*
X132998Y229998D02*
X134997D01*
X133998D01*
Y224000D01*
X132998D01*
X134997D01*
X143994D02*
Y229998D01*
X146994D01*
X147993Y228998D01*
Y226999D01*
X146994Y225999D01*
X143994D01*
X153991Y228998D02*
X152992Y229998D01*
X150992D01*
X149993Y228998D01*
Y225000D01*
X150992Y224000D01*
X152992D01*
X153991Y225000D01*
X155991Y229998D02*
Y224000D01*
X158990D01*
X159989Y225000D01*
Y225999D01*
X158990Y226999D01*
X155991D01*
X158990D01*
X159989Y227999D01*
Y228998D01*
X158990Y229998D01*
X155991D01*
X324500Y224000D02*
Y227999D01*
X326499Y229998D01*
X328499Y227999D01*
Y224000D01*
Y226999D01*
X324500D01*
X330498Y229998D02*
X332497D01*
X331498D01*
Y224000D01*
X330498D01*
X332497D01*
X341494D02*
Y229998D01*
X344494D01*
X345493Y228998D01*
Y226999D01*
X344494Y225999D01*
X341494D01*
X351491Y228998D02*
X350492Y229998D01*
X348492D01*
X347493Y228998D01*
Y225000D01*
X348492Y224000D01*
X350492D01*
X351491Y225000D01*
X353491Y229998D02*
Y224000D01*
X356490D01*
X357489Y225000D01*
Y225999D01*
X356490Y226999D01*
X353491D01*
X356490D01*
X357489Y227999D01*
Y228998D01*
X356490Y229998D01*
X353491D01*
X127000Y145000D02*
Y148999D01*
X128999Y150998D01*
X130999Y148999D01*
Y145000D01*
Y147999D01*
X127000D01*
X132998Y150998D02*
X134997D01*
X133998D01*
Y145000D01*
X132998D01*
X134997D01*
X143994D02*
Y150998D01*
X146994D01*
X147993Y149998D01*
Y147999D01*
X146994Y146999D01*
X143994D01*
X153991Y149998D02*
X152992Y150998D01*
X150992D01*
X149993Y149998D01*
Y146000D01*
X150992Y145000D01*
X152992D01*
X153991Y146000D01*
X155991Y150998D02*
Y145000D01*
X158990D01*
X159989Y146000D01*
Y146999D01*
X158990Y147999D01*
X155991D01*
X158990D01*
X159989Y148999D01*
Y149998D01*
X158990Y150998D01*
X155991D01*
X324500Y145000D02*
Y148999D01*
X326499Y150998D01*
X328499Y148999D01*
Y145000D01*
Y147999D01*
X324500D01*
X330498Y150998D02*
X332497D01*
X331498D01*
Y145000D01*
X330498D01*
X332497D01*
X341494D02*
Y150998D01*
X344494D01*
X345493Y149998D01*
Y147999D01*
X344494Y146999D01*
X341494D01*
X351491Y149998D02*
X350492Y150998D01*
X348492D01*
X347493Y149998D01*
Y146000D01*
X348492Y145000D01*
X350492D01*
X351491Y146000D01*
X353491Y150998D02*
Y145000D01*
X356490D01*
X357489Y146000D01*
Y146999D01*
X356490Y147999D01*
X353491D01*
X356490D01*
X357489Y148999D01*
Y149998D01*
X356490Y150998D01*
X353491D01*
X325000Y66500D02*
Y70499D01*
X326999Y72498D01*
X328999Y70499D01*
Y66500D01*
Y69499D01*
X325000D01*
X330998Y72498D02*
X332997D01*
X331998D01*
Y66500D01*
X330998D01*
X332997D01*
X341995D02*
Y72498D01*
X344993D01*
X345993Y71498D01*
Y69499D01*
X344993Y68499D01*
X341995D01*
X351991Y71498D02*
X350992Y72498D01*
X348992D01*
X347993Y71498D01*
Y67500D01*
X348992Y66500D01*
X350992D01*
X351991Y67500D01*
X353991Y72498D02*
Y66500D01*
X356990D01*
X357989Y67500D01*
Y68499D01*
X356990Y69499D01*
X353991D01*
X356990D01*
X357989Y70499D01*
Y71498D01*
X356990Y72498D01*
X353991D01*
X127500Y66500D02*
Y70499D01*
X129499Y72498D01*
X131499Y70499D01*
Y66500D01*
Y69499D01*
X127500D01*
X133498Y72498D02*
X135497D01*
X134498D01*
Y66500D01*
X133498D01*
X135497D01*
X144494D02*
Y72498D01*
X147494D01*
X148493Y71498D01*
Y69499D01*
X147494Y68499D01*
X144494D01*
X154491Y71498D02*
X153492Y72498D01*
X151492D01*
X150493Y71498D01*
Y67500D01*
X151492Y66500D01*
X153492D01*
X154491Y67500D01*
X156491Y72498D02*
Y66500D01*
X159490D01*
X160489Y67500D01*
Y68499D01*
X159490Y69499D01*
X156491D01*
X159490D01*
X160489Y70499D01*
Y71498D01*
X159490Y72498D01*
X156491D01*
D26*
X166099Y384624D02*
X165574Y385149D01*
X164525D01*
X164000Y384624D01*
Y384099D01*
X164525Y383574D01*
X165574D01*
X166099Y383050D01*
Y382525D01*
X165574Y382000D01*
X164525D01*
X164000Y382525D01*
X167149Y385149D02*
X168198D01*
X167673D01*
Y382000D01*
X167149D01*
X168198D01*
X171871Y384624D02*
X171347Y385149D01*
X170297D01*
X169772Y384624D01*
Y382525D01*
X170297Y382000D01*
X171347D01*
X171871Y382525D01*
Y383574D01*
X170822D01*
X172921Y382000D02*
Y385149D01*
X175020Y382000D01*
Y385149D01*
X176070Y382000D02*
Y384099D01*
X177119Y385149D01*
X178169Y384099D01*
Y382000D01*
Y383574D01*
X176070D01*
X179218Y385149D02*
Y382000D01*
X181317D01*
X363599Y384624D02*
X363074Y385149D01*
X362025D01*
X361500Y384624D01*
Y384099D01*
X362025Y383574D01*
X363074D01*
X363599Y383050D01*
Y382525D01*
X363074Y382000D01*
X362025D01*
X361500Y382525D01*
X364649Y385149D02*
X365698D01*
X365173D01*
Y382000D01*
X364649D01*
X365698D01*
X369372Y384624D02*
X368847Y385149D01*
X367797D01*
X367272Y384624D01*
Y382525D01*
X367797Y382000D01*
X368847D01*
X369372Y382525D01*
Y383574D01*
X368322D01*
X370421Y382000D02*
Y385149D01*
X372520Y382000D01*
Y385149D01*
X373570Y382000D02*
Y384099D01*
X374619Y385149D01*
X375669Y384099D01*
Y382000D01*
Y383574D01*
X373570D01*
X376718Y385149D02*
Y382000D01*
X378817D01*
X165599Y307124D02*
X165074Y307649D01*
X164025D01*
X163500Y307124D01*
Y306599D01*
X164025Y306074D01*
X165074D01*
X165599Y305550D01*
Y305025D01*
X165074Y304500D01*
X164025D01*
X163500Y305025D01*
X166649Y307649D02*
X167698D01*
X167173D01*
Y304500D01*
X166649D01*
X167698D01*
X171371Y307124D02*
X170847Y307649D01*
X169797D01*
X169272Y307124D01*
Y305025D01*
X169797Y304500D01*
X170847D01*
X171371Y305025D01*
Y306074D01*
X170322D01*
X172421Y304500D02*
Y307649D01*
X174520Y304500D01*
Y307649D01*
X175570Y304500D02*
Y306599D01*
X176619Y307649D01*
X177669Y306599D01*
Y304500D01*
Y306074D01*
X175570D01*
X178718Y307649D02*
Y304500D01*
X180817D01*
X363099Y307124D02*
X362574Y307649D01*
X361525D01*
X361000Y307124D01*
Y306599D01*
X361525Y306074D01*
X362574D01*
X363099Y305550D01*
Y305025D01*
X362574Y304500D01*
X361525D01*
X361000Y305025D01*
X364149Y307649D02*
X365198D01*
X364673D01*
Y304500D01*
X364149D01*
X365198D01*
X368871Y307124D02*
X368347Y307649D01*
X367297D01*
X366772Y307124D01*
Y305025D01*
X367297Y304500D01*
X368347D01*
X368871Y305025D01*
Y306074D01*
X367822D01*
X369921Y304500D02*
Y307649D01*
X372020Y304500D01*
Y307649D01*
X373070Y304500D02*
Y306599D01*
X374119Y307649D01*
X375169Y306599D01*
Y304500D01*
Y306074D01*
X373070D01*
X376218Y307649D02*
Y304500D01*
X378317D01*
X165599Y229624D02*
X165074Y230149D01*
X164025D01*
X163500Y229624D01*
Y229099D01*
X164025Y228574D01*
X165074D01*
X165599Y228049D01*
Y227525D01*
X165074Y227000D01*
X164025D01*
X163500Y227525D01*
X166649Y230149D02*
X167698D01*
X167173D01*
Y227000D01*
X166649D01*
X167698D01*
X171371Y229624D02*
X170847Y230149D01*
X169797D01*
X169272Y229624D01*
Y227525D01*
X169797Y227000D01*
X170847D01*
X171371Y227525D01*
Y228574D01*
X170322D01*
X172421Y227000D02*
Y230149D01*
X174520Y227000D01*
Y230149D01*
X175570Y227000D02*
Y229099D01*
X176619Y230149D01*
X177669Y229099D01*
Y227000D01*
Y228574D01*
X175570D01*
X178718Y230149D02*
Y227000D01*
X180817D01*
X363099Y229624D02*
X362574Y230149D01*
X361525D01*
X361000Y229624D01*
Y229099D01*
X361525Y228574D01*
X362574D01*
X363099Y228049D01*
Y227525D01*
X362574Y227000D01*
X361525D01*
X361000Y227525D01*
X364149Y230149D02*
X365198D01*
X364673D01*
Y227000D01*
X364149D01*
X365198D01*
X368871Y229624D02*
X368347Y230149D01*
X367297D01*
X366772Y229624D01*
Y227525D01*
X367297Y227000D01*
X368347D01*
X368871Y227525D01*
Y228574D01*
X367822D01*
X369921Y227000D02*
Y230149D01*
X372020Y227000D01*
Y230149D01*
X373070Y227000D02*
Y229099D01*
X374119Y230149D01*
X375169Y229099D01*
Y227000D01*
Y228574D01*
X373070D01*
X376218Y230149D02*
Y227000D01*
X378317D01*
X165599Y150624D02*
X165074Y151149D01*
X164025D01*
X163500Y150624D01*
Y150099D01*
X164025Y149574D01*
X165074D01*
X165599Y149049D01*
Y148525D01*
X165074Y148000D01*
X164025D01*
X163500Y148525D01*
X166649Y151149D02*
X167698D01*
X167173D01*
Y148000D01*
X166649D01*
X167698D01*
X171371Y150624D02*
X170847Y151149D01*
X169797D01*
X169272Y150624D01*
Y148525D01*
X169797Y148000D01*
X170847D01*
X171371Y148525D01*
Y149574D01*
X170322D01*
X172421Y148000D02*
Y151149D01*
X174520Y148000D01*
Y151149D01*
X175570Y148000D02*
Y150099D01*
X176619Y151149D01*
X177669Y150099D01*
Y148000D01*
Y149574D01*
X175570D01*
X178718Y151149D02*
Y148000D01*
X180817D01*
X363099Y150624D02*
X362574Y151149D01*
X361525D01*
X361000Y150624D01*
Y150099D01*
X361525Y149574D01*
X362574D01*
X363099Y149049D01*
Y148525D01*
X362574Y148000D01*
X361525D01*
X361000Y148525D01*
X364149Y151149D02*
X365198D01*
X364673D01*
Y148000D01*
X364149D01*
X365198D01*
X368871Y150624D02*
X368347Y151149D01*
X367297D01*
X366772Y150624D01*
Y148525D01*
X367297Y148000D01*
X368347D01*
X368871Y148525D01*
Y149574D01*
X367822D01*
X369921Y148000D02*
Y151149D01*
X372020Y148000D01*
Y151149D01*
X373070Y148000D02*
Y150099D01*
X374119Y151149D01*
X375169Y150099D01*
Y148000D01*
Y149574D01*
X373070D01*
X376218Y151149D02*
Y148000D01*
X378317D01*
X363599Y72124D02*
X363074Y72649D01*
X362025D01*
X361500Y72124D01*
Y71599D01*
X362025Y71074D01*
X363074D01*
X363599Y70549D01*
Y70025D01*
X363074Y69500D01*
X362025D01*
X361500Y70025D01*
X364649Y72649D02*
X365698D01*
X365173D01*
Y69500D01*
X364649D01*
X365698D01*
X369372Y72124D02*
X368847Y72649D01*
X367797D01*
X367272Y72124D01*
Y70025D01*
X367797Y69500D01*
X368847D01*
X369372Y70025D01*
Y71074D01*
X368322D01*
X370421Y69500D02*
Y72649D01*
X372520Y69500D01*
Y72649D01*
X373570Y69500D02*
Y71599D01*
X374619Y72649D01*
X375669Y71599D01*
Y69500D01*
Y71074D01*
X373570D01*
X376718Y72649D02*
Y69500D01*
X378817D01*
X166099Y72124D02*
X165574Y72649D01*
X164525D01*
X164000Y72124D01*
Y71599D01*
X164525Y71074D01*
X165574D01*
X166099Y70549D01*
Y70025D01*
X165574Y69500D01*
X164525D01*
X164000Y70025D01*
X167149Y72649D02*
X168198D01*
X167673D01*
Y69500D01*
X167149D01*
X168198D01*
X171871Y72124D02*
X171347Y72649D01*
X170297D01*
X169772Y72124D01*
Y70025D01*
X170297Y69500D01*
X171347D01*
X171871Y70025D01*
Y71074D01*
X170822D01*
X172921Y69500D02*
Y72649D01*
X175020Y69500D01*
Y72649D01*
X176070Y69500D02*
Y71599D01*
X177119Y72649D01*
X178169Y71599D01*
Y69500D01*
Y71074D01*
X176070D01*
X179218Y72649D02*
Y69500D01*
X181317D01*
D27*
X122500Y323998D02*
Y319999D01*
X124499Y318000D01*
X126499Y319999D01*
Y323998D01*
X128498D02*
Y319000D01*
X129498Y318000D01*
X131497D01*
X132497Y319000D01*
Y323998D01*
X140494Y318000D02*
Y323998D01*
X142493Y321999D01*
X144493Y323998D01*
Y318000D01*
X150491Y323998D02*
X146492D01*
Y318000D01*
X150491D01*
X146492Y320999D02*
X148492D01*
X152490Y323998D02*
X156489D01*
X154490D01*
Y318000D01*
X162487Y323998D02*
X158488D01*
Y318000D01*
X162487D01*
X158488Y320999D02*
X160488D01*
X164486Y318000D02*
Y323998D01*
X167485D01*
X168485Y322998D01*
Y320999D01*
X167485Y319999D01*
X164486D01*
X166486D02*
X168485Y318000D01*
X320000Y323998D02*
Y319999D01*
X321999Y318000D01*
X323999Y319999D01*
Y323998D01*
X325998D02*
Y319000D01*
X326998Y318000D01*
X328997D01*
X329997Y319000D01*
Y323998D01*
X337994Y318000D02*
Y323998D01*
X339994Y321999D01*
X341993Y323998D01*
Y318000D01*
X347991Y323998D02*
X343992D01*
Y318000D01*
X347991D01*
X343992Y320999D02*
X345992D01*
X349990Y323998D02*
X353989D01*
X351990D01*
Y318000D01*
X359987Y323998D02*
X355988D01*
Y318000D01*
X359987D01*
X355988Y320999D02*
X357988D01*
X361986Y318000D02*
Y323998D01*
X364985D01*
X365985Y322998D01*
Y320999D01*
X364985Y319999D01*
X361986D01*
X363986D02*
X365985Y318000D01*
X122000Y246498D02*
Y242499D01*
X123999Y240500D01*
X125999Y242499D01*
Y246498D01*
X127998D02*
Y241500D01*
X128998Y240500D01*
X130997D01*
X131997Y241500D01*
Y246498D01*
X139994Y240500D02*
Y246498D01*
X141993Y244499D01*
X143993Y246498D01*
Y240500D01*
X149991Y246498D02*
X145992D01*
Y240500D01*
X149991D01*
X145992Y243499D02*
X147992D01*
X151990Y246498D02*
X155989D01*
X153990D01*
Y240500D01*
X161987Y246498D02*
X157988D01*
Y240500D01*
X161987D01*
X157988Y243499D02*
X159988D01*
X163986Y240500D02*
Y246498D01*
X166985D01*
X167985Y245498D01*
Y243499D01*
X166985Y242499D01*
X163986D01*
X165986D02*
X167985Y240500D01*
X319500Y246498D02*
Y242499D01*
X321499Y240500D01*
X323499Y242499D01*
Y246498D01*
X325498D02*
Y241500D01*
X326498Y240500D01*
X328497D01*
X329497Y241500D01*
Y246498D01*
X337494Y240500D02*
Y246498D01*
X339493Y244499D01*
X341493Y246498D01*
Y240500D01*
X347491Y246498D02*
X343492D01*
Y240500D01*
X347491D01*
X343492Y243499D02*
X345492D01*
X349490Y246498D02*
X353489D01*
X351490D01*
Y240500D01*
X359487Y246498D02*
X355488D01*
Y240500D01*
X359487D01*
X355488Y243499D02*
X357488D01*
X361486Y240500D02*
Y246498D01*
X364485D01*
X365485Y245498D01*
Y243499D01*
X364485Y242499D01*
X361486D01*
X363486D02*
X365485Y240500D01*
X122000Y168998D02*
Y164999D01*
X123999Y163000D01*
X125999Y164999D01*
Y168998D01*
X127998D02*
Y164000D01*
X128998Y163000D01*
X130997D01*
X131997Y164000D01*
Y168998D01*
X139994Y163000D02*
Y168998D01*
X141993Y166999D01*
X143993Y168998D01*
Y163000D01*
X149991Y168998D02*
X145992D01*
Y163000D01*
X149991D01*
X145992Y165999D02*
X147992D01*
X151990Y168998D02*
X155989D01*
X153990D01*
Y163000D01*
X161987Y168998D02*
X157988D01*
Y163000D01*
X161987D01*
X157988Y165999D02*
X159988D01*
X163986Y163000D02*
Y168998D01*
X166985D01*
X167985Y167998D01*
Y165999D01*
X166985Y164999D01*
X163986D01*
X165986D02*
X167985Y163000D01*
X319500Y168998D02*
Y164999D01*
X321499Y163000D01*
X323499Y164999D01*
Y168998D01*
X325498D02*
Y164000D01*
X326498Y163000D01*
X328497D01*
X329497Y164000D01*
Y168998D01*
X337494Y163000D02*
Y168998D01*
X339493Y166999D01*
X341493Y168998D01*
Y163000D01*
X347491Y168998D02*
X343492D01*
Y163000D01*
X347491D01*
X343492Y165999D02*
X345492D01*
X349490Y168998D02*
X353489D01*
X351490D01*
Y163000D01*
X359487Y168998D02*
X355488D01*
Y163000D01*
X359487D01*
X355488Y165999D02*
X357488D01*
X361486Y163000D02*
Y168998D01*
X364485D01*
X365485Y167998D01*
Y165999D01*
X364485Y164999D01*
X361486D01*
X363486D02*
X365485Y163000D01*
X122000Y89998D02*
Y85999D01*
X123999Y84000D01*
X125999Y85999D01*
Y89998D01*
X127998D02*
Y85000D01*
X128998Y84000D01*
X130997D01*
X131997Y85000D01*
Y89998D01*
X139994Y84000D02*
Y89998D01*
X141993Y87999D01*
X143993Y89998D01*
Y84000D01*
X149991Y89998D02*
X145992D01*
Y84000D01*
X149991D01*
X145992Y86999D02*
X147992D01*
X151990Y89998D02*
X155989D01*
X153990D01*
Y84000D01*
X161987Y89998D02*
X157988D01*
Y84000D01*
X161987D01*
X157988Y86999D02*
X159988D01*
X163986Y84000D02*
Y89998D01*
X166985D01*
X167985Y88998D01*
Y86999D01*
X166985Y85999D01*
X163986D01*
X165986D02*
X167985Y84000D01*
X319500Y89998D02*
Y85999D01*
X321499Y84000D01*
X323499Y85999D01*
Y89998D01*
X325498D02*
Y85000D01*
X326498Y84000D01*
X328497D01*
X329497Y85000D01*
Y89998D01*
X337494Y84000D02*
Y89998D01*
X339493Y87999D01*
X341493Y89998D01*
Y84000D01*
X347491Y89998D02*
X343492D01*
Y84000D01*
X347491D01*
X343492Y86999D02*
X345492D01*
X349490Y89998D02*
X353489D01*
X351490D01*
Y84000D01*
X359487Y89998D02*
X355488D01*
Y84000D01*
X359487D01*
X355488Y86999D02*
X357488D01*
X361486Y84000D02*
Y89998D01*
X364485D01*
X365485Y88998D01*
Y86999D01*
X364485Y85999D01*
X361486D01*
X363486D02*
X365485Y84000D01*
X320000Y11498D02*
Y7499D01*
X321999Y5500D01*
X323999Y7499D01*
Y11498D01*
X325998D02*
Y6500D01*
X326998Y5500D01*
X328997D01*
X329997Y6500D01*
Y11498D01*
X337994Y5500D02*
Y11498D01*
X339994Y9499D01*
X341993Y11498D01*
Y5500D01*
X347991Y11498D02*
X343992D01*
Y5500D01*
X347991D01*
X343992Y8499D02*
X345992D01*
X349990Y11498D02*
X353989D01*
X351990D01*
Y5500D01*
X359987Y11498D02*
X355988D01*
Y5500D01*
X359987D01*
X355988Y8499D02*
X357988D01*
X361986Y5500D02*
Y11498D01*
X364985D01*
X365985Y10498D01*
Y8499D01*
X364985Y7499D01*
X361986D01*
X363986D02*
X365985Y5500D01*
X122500Y11498D02*
Y7499D01*
X124499Y5500D01*
X126499Y7499D01*
Y11498D01*
X128498D02*
Y6500D01*
X129498Y5500D01*
X131497D01*
X132497Y6500D01*
Y11498D01*
X140494Y5500D02*
Y11498D01*
X142493Y9499D01*
X144493Y11498D01*
Y5500D01*
X150491Y11498D02*
X146492D01*
Y5500D01*
X150491D01*
X146492Y8499D02*
X148492D01*
X152490Y11498D02*
X156489D01*
X154490D01*
Y5500D01*
X162487Y11498D02*
X158488D01*
Y5500D01*
X162487D01*
X158488Y8499D02*
X160488D01*
X164486Y5500D02*
Y11498D01*
X167485D01*
X168485Y10498D01*
Y8499D01*
X167485Y7499D01*
X164486D01*
X166486D02*
X168485Y5500D01*
D28*
X141936Y365404D02*
X138000D01*
Y362452D01*
X139968Y363436D01*
X140952D01*
X141936Y362452D01*
Y360484D01*
X140952Y359500D01*
X138984D01*
X138000Y360484D01*
X143904Y364420D02*
X144887Y365404D01*
X146855D01*
X147839Y364420D01*
Y360484D01*
X146855Y359500D01*
X144887D01*
X143904Y360484D01*
Y364420D01*
X149807Y365404D02*
Y359500D01*
Y361468D01*
X153743Y365404D01*
X150791Y362452D01*
X153743Y359500D01*
X339436Y365404D02*
X335500D01*
Y362452D01*
X337468Y363436D01*
X338452D01*
X339436Y362452D01*
Y360484D01*
X338452Y359500D01*
X336484D01*
X335500Y360484D01*
X341404Y364420D02*
X342388Y365404D01*
X344355D01*
X345339Y364420D01*
Y360484D01*
X344355Y359500D01*
X342388D01*
X341404Y360484D01*
Y364420D01*
X347307Y365404D02*
Y359500D01*
Y361468D01*
X351243Y365404D01*
X348291Y362452D01*
X351243Y359500D01*
X141436Y287904D02*
X137500D01*
Y284952D01*
X139468Y285936D01*
X140452D01*
X141436Y284952D01*
Y282984D01*
X140452Y282000D01*
X138484D01*
X137500Y282984D01*
X143404Y286920D02*
X144387Y287904D01*
X146355D01*
X147339Y286920D01*
Y282984D01*
X146355Y282000D01*
X144387D01*
X143404Y282984D01*
Y286920D01*
X149307Y287904D02*
Y282000D01*
Y283968D01*
X153243Y287904D01*
X150291Y284952D01*
X153243Y282000D01*
X338936Y287904D02*
X335000D01*
Y284952D01*
X336968Y285936D01*
X337952D01*
X338936Y284952D01*
Y282984D01*
X337952Y282000D01*
X335984D01*
X335000Y282984D01*
X340904Y286920D02*
X341887Y287904D01*
X343855D01*
X344839Y286920D01*
Y282984D01*
X343855Y282000D01*
X341887D01*
X340904Y282984D01*
Y286920D01*
X346807Y287904D02*
Y282000D01*
Y283968D01*
X350743Y287904D01*
X347791Y284952D01*
X350743Y282000D01*
X141436Y210404D02*
X137500D01*
Y207452D01*
X139468Y208436D01*
X140452D01*
X141436Y207452D01*
Y205484D01*
X140452Y204500D01*
X138484D01*
X137500Y205484D01*
X143404Y209420D02*
X144387Y210404D01*
X146355D01*
X147339Y209420D01*
Y205484D01*
X146355Y204500D01*
X144387D01*
X143404Y205484D01*
Y209420D01*
X149307Y210404D02*
Y204500D01*
Y206468D01*
X153243Y210404D01*
X150291Y207452D01*
X153243Y204500D01*
X338936Y210404D02*
X335000D01*
Y207452D01*
X336968Y208436D01*
X337952D01*
X338936Y207452D01*
Y205484D01*
X337952Y204500D01*
X335984D01*
X335000Y205484D01*
X340904Y209420D02*
X341887Y210404D01*
X343855D01*
X344839Y209420D01*
Y205484D01*
X343855Y204500D01*
X341887D01*
X340904Y205484D01*
Y209420D01*
X346807Y210404D02*
Y204500D01*
Y206468D01*
X350743Y210404D01*
X347791Y207452D01*
X350743Y204500D01*
X141436Y131404D02*
X137500D01*
Y128452D01*
X139468Y129436D01*
X140452D01*
X141436Y128452D01*
Y126484D01*
X140452Y125500D01*
X138484D01*
X137500Y126484D01*
X143404Y130420D02*
X144387Y131404D01*
X146355D01*
X147339Y130420D01*
Y126484D01*
X146355Y125500D01*
X144387D01*
X143404Y126484D01*
Y130420D01*
X149307Y131404D02*
Y125500D01*
Y127468D01*
X153243Y131404D01*
X150291Y128452D01*
X153243Y125500D01*
X338936Y131404D02*
X335000D01*
Y128452D01*
X336968Y129436D01*
X337952D01*
X338936Y128452D01*
Y126484D01*
X337952Y125500D01*
X335984D01*
X335000Y126484D01*
X340904Y130420D02*
X341887Y131404D01*
X343855D01*
X344839Y130420D01*
Y126484D01*
X343855Y125500D01*
X341887D01*
X340904Y126484D01*
Y130420D01*
X346807Y131404D02*
Y125500D01*
Y127468D01*
X350743Y131404D01*
X347791Y128452D01*
X350743Y125500D01*
X339436Y52904D02*
X335500D01*
Y49952D01*
X337468Y50936D01*
X338452D01*
X339436Y49952D01*
Y47984D01*
X338452Y47000D01*
X336484D01*
X335500Y47984D01*
X341404Y51920D02*
X342388Y52904D01*
X344355D01*
X345339Y51920D01*
Y47984D01*
X344355Y47000D01*
X342388D01*
X341404Y47984D01*
Y51920D01*
X347307Y52904D02*
Y47000D01*
Y48968D01*
X351243Y52904D01*
X348291Y49952D01*
X351243Y47000D01*
X141936Y52904D02*
X138000D01*
Y49952D01*
X139968Y50936D01*
X140952D01*
X141936Y49952D01*
Y47984D01*
X140952Y47000D01*
X138984D01*
X138000Y47984D01*
X143904Y51920D02*
X144887Y52904D01*
X146855D01*
X147839Y51920D01*
Y47984D01*
X146855Y47000D01*
X144887D01*
X143904Y47984D01*
Y51920D01*
X149807Y52904D02*
Y47000D01*
Y48968D01*
X153743Y52904D01*
X150791Y49952D01*
X153743Y47000D01*
M02*
