M48
;Layer_Color=9474304
;FILE_FORMAT=2:5
INCH,LZ
;TYPE=PLATED
T1F00S00C0.02756
T3F00S00C0.03543
T4F00S00C0.03937
%
T01
X0009157Y00125
X0028843
X0038157
X0042Y00325
X0032
X0022
X0012
X00185Y0055
X0043
X0052Y00325
X0062
X0072
X0082
X0092
X00915Y0055
X0067
X0067157Y00125
X0057843
X0086843
X01155Y0008
X0129Y00175
X01285Y0028
X01155Y0038
X0116Y0055
X01585Y0028
X0159Y00175
X0206657Y00125
X02095Y00325
X02195
X02295
X02395
X02495
X02595
X02695
X02795
X02895
X0289Y0055
X02645
X02405
X0216
X0226343Y00125
X0235657
X0255343
X0264657
X0284343
X0313Y0008
X03265Y00175
X0326Y0028
X0313Y0038
X03135Y0055
X0356Y0028
X03565Y00175
X0356Y0096
X03555Y01065
X03255
X0326Y0096
X03125Y00865
X03135Y0065
X0289
X02645
X02405
X0216
X0225843Y0091
X0235157
X0254843
X0264157
X0283843
X0279Y0111
X0269
X0259
X0249
X0239
X0229
X0219
X02155Y01335
Y01435
X024
Y01335
X0264
Y01435
X02885
Y01335
X0289Y0111
X03125Y01165
X0313Y01335
Y01435
X03125Y01655
X0326Y0175
X03255Y01855
X03125Y01955
X0289Y019
X0279
X0269
X0259
X0249
X0239
X0229
X0219
X0225843Y017
X0235157
X0254843
X0264157
X0283843
X0356Y0175
X03555Y01855
X0209Y019
X0206157Y017
X01585Y0175
X0158Y01855
X0128
X01285Y0175
X0115Y01655
X01155Y01435
Y01335
X0115Y01165
X0128Y01065
X01285Y0096
X0115Y00865
X0116Y0065
X00915
X0067
X0066657Y0091
X0057343
X00615Y0111
X00715
X00815
X00915
X0091Y01335
Y01435
X00665
Y01335
X0066657Y017
X0057343
X00615Y019
X00715
X00815
X00915
X0086343Y017
X0115Y01955
X0158Y01065
X01585Y0096
X0206157Y0091
X0209Y0111
X0086343Y0091
X0037657
X0028343
X0008657
X00115Y0111
X00215
X00315
X00415
X00515
X00425Y01335
Y01435
X0018
Y01335
X0008657Y017
X0028343
X0037657
X00415Y019
X00315
X00215
X00115
X00515
X0043Y0065
X00185
X0018Y02125
Y02225
X00425
Y02125
X0037657Y02475
X0028343
X0008657
X00115Y02675
X00215
X00315
X00415
X00515
X00425Y029
Y03
X0018
Y029
X0009157Y0325
X0028843
X0038157
X0042Y0345
X0032
X0022
X0012
X00185Y03675
X0043
X0052Y0345
X0062
X0072
X0082
X0092
X00915Y03675
X0067
X0067157Y0325
X0057843
X0086843
X0091Y03
Y029
X00915Y02675
X00815
X00715
X00615
X0057343Y02475
X0066657
X0086343
X0091Y02225
Y02125
X00665
Y02225
X01155
Y02125
X0115Y0243
X01285Y02525
X0128Y0263
X0115Y0273
X01155Y029
Y03
Y03205
X0129Y033
X01285Y03405
X01155Y03505
X0116Y03675
X01585Y03405
X0159Y033
X0206657Y0325
X02095Y0345
X0209Y02675
X0206157Y02475
X01585Y02525
X0158Y0263
X00665Y029
Y03
X02155
Y029
X024
Y03
X0264
Y029
X02885
Y03
X0313
Y029
X03125Y0273
X03255Y0263
X0326Y02525
X03125Y0243
X0313Y02225
Y02125
X02885
Y02225
X0264
Y02125
X024
Y02225
X02155
Y02125
X0225843Y02475
X0235157
X0254843
X0264157
X0283843
X0279Y02675
X0269
X0259
X0249
X0239
X0229
X0219
X0226343Y0325
X0235657
X0255343
X0264657
X0284343
X02795Y0345
X02695
X02595
X02495
X02395
X02295
X02195
X0216Y03675
X02405
X02645
X0289
X02895Y0345
X0313Y03505
X03135Y03675
X0326Y03405
X03265Y033
X0313Y03205
X03565Y033
X0356Y03405
X03555Y0263
X0356Y02525
X0289Y02675
Y03775
X03135
X02645
X02405
X0216
X0116
X00915
X0067
X0043
X00185
T03
X0132815Y0050157
X01765Y0053
X01775Y0024
Y0014
X0330315Y0050157
X0374Y0053
X0375Y0024
Y0014
X0374Y0063
X03745Y00925
Y01025
X03735Y01315
Y01415
X03745Y01715
Y01815
X03735Y02105
X0329815Y0207657
Y0128657
X0176Y01315
Y01415
X0177Y01715
Y01815
X0176Y02105
X0132315Y0207657
Y0128657
X0177Y01025
Y00925
X01765Y0063
X0176Y02205
X0177Y0249
Y0259
X0176Y0288
Y0298
X01775Y03265
Y03365
X01765Y03655
X0132815Y0362657
X0132315Y0285157
X0329815
X0330315Y0362657
X0374Y03655
X0375Y03365
Y03265
X03735Y0298
Y0288
X03745Y0259
Y0249
X03735Y02205
X0374Y03755
X01765
T04
X01525Y0040315
X035
Y006
X03495Y0118815
Y01385
Y0197815
X0152
Y01385
Y0118815
X01525Y006
X0152Y02175
Y0275315
Y0295
X01525Y0352815
X035
X03495Y0295
Y0275315
Y02175
X035Y03725
X01525
M30
