G04 Layer_Physical_Order=1*
G04 Layer_Color=255*
%FSLAX25Y25*%
%MOIN*%
G70*
G01*
G75*
%ADD10C,0.02000*%
%ADD11R,1.88976X0.03937*%
%ADD12R,0.02756X3.85827*%
%ADD13R,0.05905X0.05905*%
%ADD14C,0.05905*%
%ADD15C,0.05315*%
%ADD16R,0.05315X0.05315*%
%ADD17R,0.06693X0.06693*%
%ADD18C,0.06693*%
%ADD19R,0.07087X0.07087*%
%ADD20C,0.07087*%
%ADD21R,0.05905X0.05905*%
D10*
X38400Y362900D02*
X43000Y367500D01*
X38400Y361400D02*
Y362900D01*
X22000Y345000D02*
X38400Y361400D01*
X152500Y345000D02*
Y352815D01*
X12000Y345000D02*
X18500Y351500D01*
Y367500D01*
X86100Y350900D02*
X92000Y345000D01*
X86100Y350900D02*
Y372100D01*
X91500Y377500D01*
X67000D02*
X72000Y372500D01*
Y355000D02*
Y372500D01*
X67000Y350000D02*
X72000Y355000D01*
X177500Y336500D02*
Y364500D01*
X176500Y365500D02*
X177500Y364500D01*
X67000Y325157D02*
X67157Y325000D01*
X67000Y325157D02*
Y350000D01*
X129000Y330000D02*
X146000Y347000D01*
Y366000D01*
X152500Y372500D01*
X165185Y365500D02*
X176500D01*
X152500Y352815D02*
X165185Y365500D01*
X86843Y325000D02*
X91343Y320500D01*
X115500D01*
X128000D02*
X152500Y345000D01*
X115500Y320500D02*
X128000D01*
X313000D02*
X325500D01*
X350000Y345000D01*
X288843Y320500D02*
X313000D01*
X284343Y325000D02*
X288843Y320500D01*
X350000Y352815D02*
X362685Y365500D01*
X374000D01*
X343500Y366000D02*
X350000Y372500D01*
X343500Y347000D02*
Y366000D01*
X326500Y330000D02*
X343500Y347000D01*
X264500Y325157D02*
Y350000D01*
Y325157D02*
X264657Y325000D01*
X374000Y365500D02*
X375000Y364500D01*
Y336500D02*
Y364500D01*
X264500Y350000D02*
X269500Y355000D01*
Y372500D01*
X264500Y377500D02*
X269500Y372500D01*
X283600Y372100D02*
X289000Y377500D01*
X283600Y350900D02*
Y372100D01*
Y350900D02*
X289500Y345000D01*
X216000Y351500D02*
Y367500D01*
X209500Y345000D02*
X216000Y351500D01*
X350000Y345000D02*
Y352815D01*
X219500Y345000D02*
X235900Y361400D01*
Y362900D01*
X240500Y367500D01*
X37900Y285400D02*
X42500Y290000D01*
X37900Y283900D02*
Y285400D01*
X21500Y267500D02*
X37900Y283900D01*
X152000Y267500D02*
Y275315D01*
X11500Y267500D02*
X18000Y274000D01*
Y290000D01*
X85600Y273400D02*
X91500Y267500D01*
X85600Y273400D02*
Y294600D01*
X91000Y300000D01*
X66500D02*
X71500Y295000D01*
Y277500D02*
Y295000D01*
X66500Y272500D02*
X71500Y277500D01*
X177000Y259000D02*
Y287000D01*
X176000Y288000D02*
X177000Y287000D01*
X66500Y247657D02*
X66657Y247500D01*
X66500Y247657D02*
Y272500D01*
X128500Y252500D02*
X145500Y269500D01*
Y288500D01*
X152000Y295000D01*
X164685Y288000D02*
X176000D01*
X152000Y275315D02*
X164685Y288000D01*
X86343Y247500D02*
X90843Y243000D01*
X115000D01*
X127500D02*
X152000Y267500D01*
X115000Y243000D02*
X127500D01*
X312500D02*
X325000D01*
X349500Y267500D01*
X288343Y243000D02*
X312500D01*
X283843Y247500D02*
X288343Y243000D01*
X349500Y275315D02*
X362185Y288000D01*
X373500D01*
X343000Y288500D02*
X349500Y295000D01*
X343000Y269500D02*
Y288500D01*
X326000Y252500D02*
X343000Y269500D01*
X264000Y247657D02*
Y272500D01*
Y247657D02*
X264157Y247500D01*
X373500Y288000D02*
X374500Y287000D01*
Y259000D02*
Y287000D01*
X264000Y272500D02*
X269000Y277500D01*
Y295000D01*
X264000Y300000D02*
X269000Y295000D01*
X283100Y294600D02*
X288500Y300000D01*
X283100Y273400D02*
Y294600D01*
Y273400D02*
X289000Y267500D01*
X215500Y274000D02*
Y290000D01*
X209000Y267500D02*
X215500Y274000D01*
X349500Y267500D02*
Y275315D01*
X219000Y267500D02*
X235400Y283900D01*
Y285400D01*
X240000Y290000D01*
X37900Y207900D02*
X42500Y212500D01*
X37900Y206400D02*
Y207900D01*
X21500Y190000D02*
X37900Y206400D01*
X152000Y190000D02*
Y197815D01*
X11500Y190000D02*
X18000Y196500D01*
Y212500D01*
X85600Y195900D02*
X91500Y190000D01*
X85600Y195900D02*
Y217100D01*
X91000Y222500D01*
X66500D02*
X71500Y217500D01*
Y200000D02*
Y217500D01*
X66500Y195000D02*
X71500Y200000D01*
X177000Y181500D02*
Y209500D01*
X176000Y210500D02*
X177000Y209500D01*
X66500Y170157D02*
X66657Y170000D01*
X66500Y170157D02*
Y195000D01*
X128500Y175000D02*
X145500Y192000D01*
Y211000D01*
X152000Y217500D01*
X164685Y210500D02*
X176000D01*
X152000Y197815D02*
X164685Y210500D01*
X86343Y170000D02*
X90843Y165500D01*
X115000D01*
X127500D02*
X152000Y190000D01*
X115000Y165500D02*
X127500D01*
X312500D02*
X325000D01*
X349500Y190000D01*
X288343Y165500D02*
X312500D01*
X283843Y170000D02*
X288343Y165500D01*
X349500Y197815D02*
X362185Y210500D01*
X373500D01*
X343000Y211000D02*
X349500Y217500D01*
X343000Y192000D02*
Y211000D01*
X326000Y175000D02*
X343000Y192000D01*
X264000Y170157D02*
Y195000D01*
Y170157D02*
X264157Y170000D01*
X373500Y210500D02*
X374500Y209500D01*
Y181500D02*
Y209500D01*
X264000Y195000D02*
X269000Y200000D01*
Y217500D01*
X264000Y222500D02*
X269000Y217500D01*
X283100Y217100D02*
X288500Y222500D01*
X283100Y195900D02*
Y217100D01*
Y195900D02*
X289000Y190000D01*
X215500Y196500D02*
Y212500D01*
X209000Y190000D02*
X215500Y196500D01*
X349500Y190000D02*
Y197815D01*
X219000Y190000D02*
X235400Y206400D01*
Y207900D01*
X240000Y212500D01*
X37900Y128900D02*
X42500Y133500D01*
X37900Y127400D02*
Y128900D01*
X21500Y111000D02*
X37900Y127400D01*
X152000Y111000D02*
Y118815D01*
X11500Y111000D02*
X18000Y117500D01*
Y133500D01*
X85600Y116900D02*
X91500Y111000D01*
X85600Y116900D02*
Y138100D01*
X91000Y143500D01*
X66500D02*
X71500Y138500D01*
Y121000D02*
Y138500D01*
X66500Y116000D02*
X71500Y121000D01*
X177000Y102500D02*
Y130500D01*
X176000Y131500D02*
X177000Y130500D01*
X66500Y91157D02*
X66657Y91000D01*
X66500Y91157D02*
Y116000D01*
X128500Y96000D02*
X145500Y113000D01*
Y132000D01*
X152000Y138500D01*
X164685Y131500D02*
X176000D01*
X152000Y118815D02*
X164685Y131500D01*
X86343Y91000D02*
X90843Y86500D01*
X115000D01*
X127500D02*
X152000Y111000D01*
X115000Y86500D02*
X127500D01*
X312500D02*
X325000D01*
X349500Y111000D01*
X288343Y86500D02*
X312500D01*
X283843Y91000D02*
X288343Y86500D01*
X349500Y118815D02*
X362185Y131500D01*
X373500D01*
X343000Y132000D02*
X349500Y138500D01*
X343000Y113000D02*
Y132000D01*
X326000Y96000D02*
X343000Y113000D01*
X264000Y91157D02*
Y116000D01*
Y91157D02*
X264157Y91000D01*
X373500Y131500D02*
X374500Y130500D01*
Y102500D02*
Y130500D01*
X264000Y116000D02*
X269000Y121000D01*
Y138500D01*
X264000Y143500D02*
X269000Y138500D01*
X283100Y138100D02*
X288500Y143500D01*
X283100Y116900D02*
Y138100D01*
Y116900D02*
X289000Y111000D01*
X215500Y117500D02*
Y133500D01*
X209000Y111000D02*
X215500Y117500D01*
X349500Y111000D02*
Y118815D01*
X219000Y111000D02*
X235400Y127400D01*
Y128900D01*
X240000Y133500D01*
X235900Y50400D02*
X240500Y55000D01*
X235900Y48900D02*
Y50400D01*
X219500Y32500D02*
X235900Y48900D01*
X350000Y32500D02*
Y40315D01*
X209500Y32500D02*
X216000Y39000D01*
Y55000D01*
X283600Y38400D02*
X289500Y32500D01*
X283600Y38400D02*
Y59600D01*
X289000Y65000D01*
X264500D02*
X269500Y60000D01*
Y42500D02*
Y60000D01*
X264500Y37500D02*
X269500Y42500D01*
X375000Y24000D02*
Y52000D01*
X374000Y53000D02*
X375000Y52000D01*
X264500Y12657D02*
X264657Y12500D01*
X264500Y12657D02*
Y37500D01*
X326500Y17500D02*
X343500Y34500D01*
Y53500D01*
X350000Y60000D01*
X362685Y53000D02*
X374000D01*
X350000Y40315D02*
X362685Y53000D01*
X284343Y12500D02*
X288843Y8000D01*
X313000D01*
X325500D02*
X350000Y32500D01*
X313000Y8000D02*
X325500D01*
X115500D02*
X128000D01*
X152500Y32500D01*
X91343Y8000D02*
X115500D01*
X86843Y12500D02*
X91343Y8000D01*
X152500Y40315D02*
X165185Y53000D01*
X176500D01*
X146000Y53500D02*
X152500Y60000D01*
X146000Y34500D02*
Y53500D01*
X129000Y17500D02*
X146000Y34500D01*
X67000Y12657D02*
Y37500D01*
Y12657D02*
X67157Y12500D01*
X176500Y53000D02*
X177500Y52000D01*
Y24000D02*
Y52000D01*
X67000Y37500D02*
X72000Y42500D01*
Y60000D01*
X67000Y65000D02*
X72000Y60000D01*
X86100Y59600D02*
X91500Y65000D01*
X86100Y38400D02*
Y59600D01*
Y38400D02*
X92000Y32500D01*
X18500Y39000D02*
Y55000D01*
X12000Y32500D02*
X18500Y39000D01*
X152500Y32500D02*
Y40315D01*
X22000Y32500D02*
X38400Y48900D01*
Y50400D01*
X43000Y55000D01*
D11*
X297000Y78000D02*
D03*
Y157000D02*
D03*
Y235000D02*
D03*
Y312500D02*
D03*
X99000D02*
D03*
Y235000D02*
D03*
Y157000D02*
D03*
Y78000D02*
D03*
D12*
X198000Y195500D02*
D03*
D13*
X18500Y377500D02*
D03*
X43000D02*
D03*
X67000D02*
D03*
X91500D02*
D03*
X116000D02*
D03*
X313500D02*
D03*
X289000D02*
D03*
X264500D02*
D03*
X240500D02*
D03*
X216000D02*
D03*
X18000Y300000D02*
D03*
X42500D02*
D03*
X66500D02*
D03*
X91000D02*
D03*
X115500D02*
D03*
X313000D02*
D03*
X288500D02*
D03*
X264000D02*
D03*
X240000D02*
D03*
X215500D02*
D03*
X18000Y222500D02*
D03*
X42500D02*
D03*
X66500D02*
D03*
X91000D02*
D03*
X115500D02*
D03*
X313000D02*
D03*
X288500D02*
D03*
X264000D02*
D03*
X240000D02*
D03*
X215500D02*
D03*
X18000Y143500D02*
D03*
X42500D02*
D03*
X66500D02*
D03*
X91000D02*
D03*
X115500D02*
D03*
X313000D02*
D03*
X288500D02*
D03*
X264000D02*
D03*
X240000D02*
D03*
X215500D02*
D03*
X216000Y65000D02*
D03*
X240500D02*
D03*
X264500D02*
D03*
X289000D02*
D03*
X313500D02*
D03*
X67000D02*
D03*
X43000D02*
D03*
X18500D02*
D03*
X116000D02*
D03*
X91500D02*
D03*
D14*
X18500Y367500D02*
D03*
X129000Y330000D02*
D03*
X159000D02*
D03*
X43000Y367500D02*
D03*
X67000D02*
D03*
X91500D02*
D03*
X116000D02*
D03*
X115500Y350500D02*
D03*
Y320500D02*
D03*
X158500Y340500D02*
D03*
X128500D02*
D03*
X32000Y345000D02*
D03*
X42000D02*
D03*
X52000D02*
D03*
X62000D02*
D03*
X72000D02*
D03*
X82000D02*
D03*
X92000D02*
D03*
X22000D02*
D03*
X229500D02*
D03*
X239500D02*
D03*
X249500D02*
D03*
X259500D02*
D03*
X269500D02*
D03*
X279500D02*
D03*
X289500D02*
D03*
X219500D02*
D03*
X356000Y340500D02*
D03*
X326000D02*
D03*
X313000Y350500D02*
D03*
Y320500D02*
D03*
X313500Y367500D02*
D03*
X289000D02*
D03*
X264500D02*
D03*
X240500D02*
D03*
X326500Y330000D02*
D03*
X356500D02*
D03*
X216000Y367500D02*
D03*
X18000Y290000D02*
D03*
X128500Y252500D02*
D03*
X158500D02*
D03*
X42500Y290000D02*
D03*
X66500D02*
D03*
X91000D02*
D03*
X115500D02*
D03*
X115000Y273000D02*
D03*
Y243000D02*
D03*
X158000Y263000D02*
D03*
X128000D02*
D03*
X31500Y267500D02*
D03*
X41500D02*
D03*
X51500D02*
D03*
X61500D02*
D03*
X71500D02*
D03*
X81500D02*
D03*
X91500D02*
D03*
X21500D02*
D03*
X229000D02*
D03*
X239000D02*
D03*
X249000D02*
D03*
X259000D02*
D03*
X269000D02*
D03*
X279000D02*
D03*
X289000D02*
D03*
X219000D02*
D03*
X355500Y263000D02*
D03*
X325500D02*
D03*
X312500Y273000D02*
D03*
Y243000D02*
D03*
X313000Y290000D02*
D03*
X288500D02*
D03*
X264000D02*
D03*
X240000D02*
D03*
X326000Y252500D02*
D03*
X356000D02*
D03*
X215500Y290000D02*
D03*
X18000Y212500D02*
D03*
X128500Y175000D02*
D03*
X158500D02*
D03*
X42500Y212500D02*
D03*
X66500D02*
D03*
X91000D02*
D03*
X115500D02*
D03*
X115000Y195500D02*
D03*
Y165500D02*
D03*
X158000Y185500D02*
D03*
X128000D02*
D03*
X31500Y190000D02*
D03*
X41500D02*
D03*
X51500D02*
D03*
X61500D02*
D03*
X71500D02*
D03*
X81500D02*
D03*
X91500D02*
D03*
X21500D02*
D03*
X229000D02*
D03*
X239000D02*
D03*
X249000D02*
D03*
X259000D02*
D03*
X269000D02*
D03*
X279000D02*
D03*
X289000D02*
D03*
X219000D02*
D03*
X355500Y185500D02*
D03*
X325500D02*
D03*
X312500Y195500D02*
D03*
Y165500D02*
D03*
X313000Y212500D02*
D03*
X288500D02*
D03*
X264000D02*
D03*
X240000D02*
D03*
X326000Y175000D02*
D03*
X356000D02*
D03*
X215500Y212500D02*
D03*
X18000Y133500D02*
D03*
X128500Y96000D02*
D03*
X158500D02*
D03*
X42500Y133500D02*
D03*
X66500D02*
D03*
X91000D02*
D03*
X115500D02*
D03*
X115000Y116500D02*
D03*
Y86500D02*
D03*
X158000Y106500D02*
D03*
X128000D02*
D03*
X31500Y111000D02*
D03*
X41500D02*
D03*
X51500D02*
D03*
X61500D02*
D03*
X71500D02*
D03*
X81500D02*
D03*
X91500D02*
D03*
X21500D02*
D03*
X229000D02*
D03*
X239000D02*
D03*
X249000D02*
D03*
X259000D02*
D03*
X269000D02*
D03*
X279000D02*
D03*
X289000D02*
D03*
X219000D02*
D03*
X355500Y106500D02*
D03*
X325500D02*
D03*
X312500Y116500D02*
D03*
Y86500D02*
D03*
X313000Y133500D02*
D03*
X288500D02*
D03*
X264000D02*
D03*
X240000D02*
D03*
X326000Y96000D02*
D03*
X356000D02*
D03*
X215500Y133500D02*
D03*
X216000Y55000D02*
D03*
X326500Y17500D02*
D03*
X356500D02*
D03*
X240500Y55000D02*
D03*
X264500D02*
D03*
X289000D02*
D03*
X313500D02*
D03*
X313000Y38000D02*
D03*
Y8000D02*
D03*
X356000Y28000D02*
D03*
X326000D02*
D03*
X229500Y32500D02*
D03*
X239500D02*
D03*
X249500D02*
D03*
X259500D02*
D03*
X269500D02*
D03*
X279500D02*
D03*
X289500D02*
D03*
X219500D02*
D03*
X32000D02*
D03*
X42000D02*
D03*
X52000D02*
D03*
X62000D02*
D03*
X72000D02*
D03*
X82000D02*
D03*
X92000D02*
D03*
X22000D02*
D03*
X67000Y55000D02*
D03*
X43000D02*
D03*
X18500D02*
D03*
X158500Y28000D02*
D03*
X128500D02*
D03*
X129000Y17500D02*
D03*
X159000D02*
D03*
X115500Y38000D02*
D03*
Y8000D02*
D03*
X116000Y55000D02*
D03*
X91500D02*
D03*
D15*
X57843Y325000D02*
D03*
X28843D02*
D03*
X86843D02*
D03*
X284343D02*
D03*
X226343D02*
D03*
X255343D02*
D03*
X57343Y247500D02*
D03*
X28343D02*
D03*
X86343D02*
D03*
X283843D02*
D03*
X225843D02*
D03*
X254843D02*
D03*
X57343Y170000D02*
D03*
X28343D02*
D03*
X86343D02*
D03*
X283843D02*
D03*
X225843D02*
D03*
X254843D02*
D03*
X57343Y91000D02*
D03*
X28343D02*
D03*
X86343D02*
D03*
X283843D02*
D03*
X225843D02*
D03*
X254843D02*
D03*
X255343Y12500D02*
D03*
X226343D02*
D03*
X284343D02*
D03*
X86843D02*
D03*
X28843D02*
D03*
X57843D02*
D03*
D16*
X38157Y325000D02*
D03*
X9157D02*
D03*
X67157D02*
D03*
X264657D02*
D03*
X206657D02*
D03*
X235657D02*
D03*
X37657Y247500D02*
D03*
X8657D02*
D03*
X66657D02*
D03*
X264157D02*
D03*
X206157D02*
D03*
X235157D02*
D03*
X37657Y170000D02*
D03*
X8657D02*
D03*
X66657D02*
D03*
X264157D02*
D03*
X206157D02*
D03*
X235157D02*
D03*
X37657Y91000D02*
D03*
X8657D02*
D03*
X66657D02*
D03*
X264157D02*
D03*
X206157D02*
D03*
X235157D02*
D03*
X235657Y12500D02*
D03*
X206657D02*
D03*
X264657D02*
D03*
X67157D02*
D03*
X9157D02*
D03*
X38157D02*
D03*
D17*
X152500Y352815D02*
D03*
X350000D02*
D03*
X152000Y275315D02*
D03*
X349500D02*
D03*
X152000Y197815D02*
D03*
X349500D02*
D03*
X152000Y118815D02*
D03*
X349500D02*
D03*
X350000Y40315D02*
D03*
X152500D02*
D03*
D18*
X132815Y362657D02*
D03*
X152500Y372500D02*
D03*
X330315Y362657D02*
D03*
X350000Y372500D02*
D03*
X132315Y285157D02*
D03*
X152000Y295000D02*
D03*
X329815Y285157D02*
D03*
X349500Y295000D02*
D03*
X132315Y207657D02*
D03*
X152000Y217500D02*
D03*
X329815Y207657D02*
D03*
X349500Y217500D02*
D03*
X132315Y128657D02*
D03*
X152000Y138500D02*
D03*
X329815Y128657D02*
D03*
X349500Y138500D02*
D03*
X330315Y50157D02*
D03*
X350000Y60000D02*
D03*
X132815Y50157D02*
D03*
X152500Y60000D02*
D03*
D19*
X176500Y375500D02*
D03*
X177500Y326500D02*
D03*
X375000D02*
D03*
X374000Y375500D02*
D03*
X176000Y298000D02*
D03*
X177000Y249000D02*
D03*
X374500D02*
D03*
X373500Y298000D02*
D03*
X176000Y220500D02*
D03*
X177000Y171500D02*
D03*
X374500D02*
D03*
X373500Y220500D02*
D03*
X176000Y141500D02*
D03*
X177000Y92500D02*
D03*
X374500D02*
D03*
X373500Y141500D02*
D03*
X374000Y63000D02*
D03*
X375000Y14000D02*
D03*
X176500Y63000D02*
D03*
X177500Y14000D02*
D03*
D20*
X176500Y365500D02*
D03*
X177500Y336500D02*
D03*
X375000D02*
D03*
X374000Y365500D02*
D03*
X176000Y288000D02*
D03*
X177000Y259000D02*
D03*
X374500D02*
D03*
X373500Y288000D02*
D03*
X176000Y210500D02*
D03*
X177000Y181500D02*
D03*
X374500D02*
D03*
X373500Y210500D02*
D03*
X176000Y131500D02*
D03*
X177000Y102500D02*
D03*
X374500D02*
D03*
X373500Y131500D02*
D03*
X374000Y53000D02*
D03*
X375000Y24000D02*
D03*
X176500Y53000D02*
D03*
X177500Y24000D02*
D03*
D21*
X12000Y345000D02*
D03*
X209500D02*
D03*
X11500Y267500D02*
D03*
X209000D02*
D03*
X11500Y190000D02*
D03*
X209000D02*
D03*
X11500Y111000D02*
D03*
X209000D02*
D03*
X209500Y32500D02*
D03*
X12000D02*
D03*
M02*
