G04 Layer_Color=32896*
%FSLAX25Y25*%
%MOIN*%
G70*
G01*
G75*
%ADD23C,0.00787*%
%ADD24C,0.00500*%
D23*
X152894Y346122D02*
G03*
X152894Y346122I-394J0D01*
G01*
D02*
G03*
X152894Y346122I-394J0D01*
G01*
X350394D02*
G03*
X350394Y346122I-394J0D01*
G01*
D02*
G03*
X350394Y346122I-394J0D01*
G01*
X152394Y268622D02*
G03*
X152394Y268622I-394J0D01*
G01*
D02*
G03*
X152394Y268622I-394J0D01*
G01*
X349894D02*
G03*
X349894Y268622I-394J0D01*
G01*
D02*
G03*
X349894Y268622I-394J0D01*
G01*
X152394Y191122D02*
G03*
X152394Y191122I-394J0D01*
G01*
D02*
G03*
X152394Y191122I-394J0D01*
G01*
X349894D02*
G03*
X349894Y191122I-394J0D01*
G01*
D02*
G03*
X349894Y191122I-394J0D01*
G01*
X152394Y112122D02*
G03*
X152394Y112122I-394J0D01*
G01*
D02*
G03*
X152394Y112122I-394J0D01*
G01*
X349894D02*
G03*
X349894Y112122I-394J0D01*
G01*
D02*
G03*
X349894Y112122I-394J0D01*
G01*
X350394Y33622D02*
G03*
X350394Y33622I-394J0D01*
G01*
D02*
G03*
X350394Y33622I-394J0D01*
G01*
X152894D02*
G03*
X152894Y33622I-394J0D01*
G01*
D02*
G03*
X152894Y33622I-394J0D01*
G01*
D24*
X130059Y350059D02*
X156437D01*
X130059D02*
Y375256D01*
X156437D01*
Y350059D02*
Y375256D01*
X130059Y350059D02*
X156437D01*
X130059D02*
Y375256D01*
X156437D01*
Y350059D02*
Y375256D01*
X327559Y350059D02*
X353937D01*
X327559D02*
Y375256D01*
X353937D01*
Y350059D02*
Y375256D01*
X327559Y350059D02*
X353937D01*
X327559D02*
Y375256D01*
X353937D01*
Y350059D02*
Y375256D01*
X129559Y272559D02*
X155937D01*
X129559D02*
Y297756D01*
X155937D01*
Y272559D02*
Y297756D01*
X129559Y272559D02*
X155937D01*
X129559D02*
Y297756D01*
X155937D01*
Y272559D02*
Y297756D01*
X327059Y272559D02*
X353437D01*
X327059D02*
Y297756D01*
X353437D01*
Y272559D02*
Y297756D01*
X327059Y272559D02*
X353437D01*
X327059D02*
Y297756D01*
X353437D01*
Y272559D02*
Y297756D01*
X129559Y195059D02*
X155937D01*
X129559D02*
Y220256D01*
X155937D01*
Y195059D02*
Y220256D01*
X129559Y195059D02*
X155937D01*
X129559D02*
Y220256D01*
X155937D01*
Y195059D02*
Y220256D01*
X327059Y195059D02*
X353437D01*
X327059D02*
Y220256D01*
X353437D01*
Y195059D02*
Y220256D01*
X327059Y195059D02*
X353437D01*
X327059D02*
Y220256D01*
X353437D01*
Y195059D02*
Y220256D01*
X129559Y116059D02*
X155937D01*
X129559D02*
Y141256D01*
X155937D01*
Y116059D02*
Y141256D01*
X129559Y116059D02*
X155937D01*
X129559D02*
Y141256D01*
X155937D01*
Y116059D02*
Y141256D01*
X327059Y116059D02*
X353437D01*
X327059D02*
Y141256D01*
X353437D01*
Y116059D02*
Y141256D01*
X327059Y116059D02*
X353437D01*
X327059D02*
Y141256D01*
X353437D01*
Y116059D02*
Y141256D01*
X327559Y37559D02*
X353937D01*
X327559D02*
Y62756D01*
X353937D01*
Y37559D02*
Y62756D01*
X327559Y37559D02*
X353937D01*
X327559D02*
Y62756D01*
X353937D01*
Y37559D02*
Y62756D01*
X130059Y37559D02*
X156437D01*
X130059D02*
Y62756D01*
X156437D01*
Y37559D02*
Y62756D01*
X130059Y37559D02*
X156437D01*
X130059D02*
Y62756D01*
X156437D01*
Y37559D02*
Y62756D01*
M02*
