G04 Layer_Color=8388736*
%FSLAX25Y25*%
%MOIN*%
G70*
G01*
G75*
%ADD29R,1.89776X0.04737*%
%ADD30R,0.03556X3.86627*%
%ADD31R,0.06706X0.06706*%
%ADD32C,0.06706*%
%ADD33C,0.06115*%
%ADD34R,0.06115X0.06115*%
%ADD35R,0.07493X0.07493*%
%ADD36C,0.07493*%
%ADD37R,0.07887X0.07887*%
%ADD38C,0.07887*%
%ADD39R,0.06706X0.06706*%
D29*
X297000Y78000D02*
D03*
Y157000D02*
D03*
Y235000D02*
D03*
Y312500D02*
D03*
X99000D02*
D03*
Y235000D02*
D03*
Y157000D02*
D03*
Y78000D02*
D03*
D30*
X198000Y195500D02*
D03*
D31*
X18500Y377500D02*
D03*
X43000D02*
D03*
X67000D02*
D03*
X91500D02*
D03*
X116000D02*
D03*
X313500D02*
D03*
X289000D02*
D03*
X264500D02*
D03*
X240500D02*
D03*
X216000D02*
D03*
X18000Y300000D02*
D03*
X42500D02*
D03*
X66500D02*
D03*
X91000D02*
D03*
X115500D02*
D03*
X313000D02*
D03*
X288500D02*
D03*
X264000D02*
D03*
X240000D02*
D03*
X215500D02*
D03*
X18000Y222500D02*
D03*
X42500D02*
D03*
X66500D02*
D03*
X91000D02*
D03*
X115500D02*
D03*
X313000D02*
D03*
X288500D02*
D03*
X264000D02*
D03*
X240000D02*
D03*
X215500D02*
D03*
X18000Y143500D02*
D03*
X42500D02*
D03*
X66500D02*
D03*
X91000D02*
D03*
X115500D02*
D03*
X313000D02*
D03*
X288500D02*
D03*
X264000D02*
D03*
X240000D02*
D03*
X215500D02*
D03*
X216000Y65000D02*
D03*
X240500D02*
D03*
X264500D02*
D03*
X289000D02*
D03*
X313500D02*
D03*
X67000D02*
D03*
X43000D02*
D03*
X18500D02*
D03*
X116000D02*
D03*
X91500D02*
D03*
D32*
X18500Y367500D02*
D03*
X129000Y330000D02*
D03*
X159000D02*
D03*
X43000Y367500D02*
D03*
X67000D02*
D03*
X91500D02*
D03*
X116000D02*
D03*
X115500Y350500D02*
D03*
Y320500D02*
D03*
X158500Y340500D02*
D03*
X128500D02*
D03*
X32000Y345000D02*
D03*
X42000D02*
D03*
X52000D02*
D03*
X62000D02*
D03*
X72000D02*
D03*
X82000D02*
D03*
X92000D02*
D03*
X22000D02*
D03*
X229500D02*
D03*
X239500D02*
D03*
X249500D02*
D03*
X259500D02*
D03*
X269500D02*
D03*
X279500D02*
D03*
X289500D02*
D03*
X219500D02*
D03*
X356000Y340500D02*
D03*
X326000D02*
D03*
X313000Y350500D02*
D03*
Y320500D02*
D03*
X313500Y367500D02*
D03*
X289000D02*
D03*
X264500D02*
D03*
X240500D02*
D03*
X326500Y330000D02*
D03*
X356500D02*
D03*
X216000Y367500D02*
D03*
X18000Y290000D02*
D03*
X128500Y252500D02*
D03*
X158500D02*
D03*
X42500Y290000D02*
D03*
X66500D02*
D03*
X91000D02*
D03*
X115500D02*
D03*
X115000Y273000D02*
D03*
Y243000D02*
D03*
X158000Y263000D02*
D03*
X128000D02*
D03*
X31500Y267500D02*
D03*
X41500D02*
D03*
X51500D02*
D03*
X61500D02*
D03*
X71500D02*
D03*
X81500D02*
D03*
X91500D02*
D03*
X21500D02*
D03*
X229000D02*
D03*
X239000D02*
D03*
X249000D02*
D03*
X259000D02*
D03*
X269000D02*
D03*
X279000D02*
D03*
X289000D02*
D03*
X219000D02*
D03*
X355500Y263000D02*
D03*
X325500D02*
D03*
X312500Y273000D02*
D03*
Y243000D02*
D03*
X313000Y290000D02*
D03*
X288500D02*
D03*
X264000D02*
D03*
X240000D02*
D03*
X326000Y252500D02*
D03*
X356000D02*
D03*
X215500Y290000D02*
D03*
X18000Y212500D02*
D03*
X128500Y175000D02*
D03*
X158500D02*
D03*
X42500Y212500D02*
D03*
X66500D02*
D03*
X91000D02*
D03*
X115500D02*
D03*
X115000Y195500D02*
D03*
Y165500D02*
D03*
X158000Y185500D02*
D03*
X128000D02*
D03*
X31500Y190000D02*
D03*
X41500D02*
D03*
X51500D02*
D03*
X61500D02*
D03*
X71500D02*
D03*
X81500D02*
D03*
X91500D02*
D03*
X21500D02*
D03*
X229000D02*
D03*
X239000D02*
D03*
X249000D02*
D03*
X259000D02*
D03*
X269000D02*
D03*
X279000D02*
D03*
X289000D02*
D03*
X219000D02*
D03*
X355500Y185500D02*
D03*
X325500D02*
D03*
X312500Y195500D02*
D03*
Y165500D02*
D03*
X313000Y212500D02*
D03*
X288500D02*
D03*
X264000D02*
D03*
X240000D02*
D03*
X326000Y175000D02*
D03*
X356000D02*
D03*
X215500Y212500D02*
D03*
X18000Y133500D02*
D03*
X128500Y96000D02*
D03*
X158500D02*
D03*
X42500Y133500D02*
D03*
X66500D02*
D03*
X91000D02*
D03*
X115500D02*
D03*
X115000Y116500D02*
D03*
Y86500D02*
D03*
X158000Y106500D02*
D03*
X128000D02*
D03*
X31500Y111000D02*
D03*
X41500D02*
D03*
X51500D02*
D03*
X61500D02*
D03*
X71500D02*
D03*
X81500D02*
D03*
X91500D02*
D03*
X21500D02*
D03*
X229000D02*
D03*
X239000D02*
D03*
X249000D02*
D03*
X259000D02*
D03*
X269000D02*
D03*
X279000D02*
D03*
X289000D02*
D03*
X219000D02*
D03*
X355500Y106500D02*
D03*
X325500D02*
D03*
X312500Y116500D02*
D03*
Y86500D02*
D03*
X313000Y133500D02*
D03*
X288500D02*
D03*
X264000D02*
D03*
X240000D02*
D03*
X326000Y96000D02*
D03*
X356000D02*
D03*
X215500Y133500D02*
D03*
X216000Y55000D02*
D03*
X326500Y17500D02*
D03*
X356500D02*
D03*
X240500Y55000D02*
D03*
X264500D02*
D03*
X289000D02*
D03*
X313500D02*
D03*
X313000Y38000D02*
D03*
Y8000D02*
D03*
X356000Y28000D02*
D03*
X326000D02*
D03*
X229500Y32500D02*
D03*
X239500D02*
D03*
X249500D02*
D03*
X259500D02*
D03*
X269500D02*
D03*
X279500D02*
D03*
X289500D02*
D03*
X219500D02*
D03*
X32000D02*
D03*
X42000D02*
D03*
X52000D02*
D03*
X62000D02*
D03*
X72000D02*
D03*
X82000D02*
D03*
X92000D02*
D03*
X22000D02*
D03*
X67000Y55000D02*
D03*
X43000D02*
D03*
X18500D02*
D03*
X158500Y28000D02*
D03*
X128500D02*
D03*
X129000Y17500D02*
D03*
X159000D02*
D03*
X115500Y38000D02*
D03*
Y8000D02*
D03*
X116000Y55000D02*
D03*
X91500D02*
D03*
D33*
X57843Y325000D02*
D03*
X28843D02*
D03*
X86843D02*
D03*
X284343D02*
D03*
X226343D02*
D03*
X255343D02*
D03*
X57343Y247500D02*
D03*
X28343D02*
D03*
X86343D02*
D03*
X283843D02*
D03*
X225843D02*
D03*
X254843D02*
D03*
X57343Y170000D02*
D03*
X28343D02*
D03*
X86343D02*
D03*
X283843D02*
D03*
X225843D02*
D03*
X254843D02*
D03*
X57343Y91000D02*
D03*
X28343D02*
D03*
X86343D02*
D03*
X283843D02*
D03*
X225843D02*
D03*
X254843D02*
D03*
X255343Y12500D02*
D03*
X226343D02*
D03*
X284343D02*
D03*
X86843D02*
D03*
X28843D02*
D03*
X57843D02*
D03*
D34*
X38157Y325000D02*
D03*
X9157D02*
D03*
X67157D02*
D03*
X264657D02*
D03*
X206657D02*
D03*
X235657D02*
D03*
X37657Y247500D02*
D03*
X8657D02*
D03*
X66657D02*
D03*
X264157D02*
D03*
X206157D02*
D03*
X235157D02*
D03*
X37657Y170000D02*
D03*
X8657D02*
D03*
X66657D02*
D03*
X264157D02*
D03*
X206157D02*
D03*
X235157D02*
D03*
X37657Y91000D02*
D03*
X8657D02*
D03*
X66657D02*
D03*
X264157D02*
D03*
X206157D02*
D03*
X235157D02*
D03*
X235657Y12500D02*
D03*
X206657D02*
D03*
X264657D02*
D03*
X67157D02*
D03*
X9157D02*
D03*
X38157D02*
D03*
D35*
X152500Y352815D02*
D03*
X350000D02*
D03*
X152000Y275315D02*
D03*
X349500D02*
D03*
X152000Y197815D02*
D03*
X349500D02*
D03*
X152000Y118815D02*
D03*
X349500D02*
D03*
X350000Y40315D02*
D03*
X152500D02*
D03*
D36*
X132815Y362657D02*
D03*
X152500Y372500D02*
D03*
X330315Y362657D02*
D03*
X350000Y372500D02*
D03*
X132315Y285157D02*
D03*
X152000Y295000D02*
D03*
X329815Y285157D02*
D03*
X349500Y295000D02*
D03*
X132315Y207657D02*
D03*
X152000Y217500D02*
D03*
X329815Y207657D02*
D03*
X349500Y217500D02*
D03*
X132315Y128657D02*
D03*
X152000Y138500D02*
D03*
X329815Y128657D02*
D03*
X349500Y138500D02*
D03*
X330315Y50157D02*
D03*
X350000Y60000D02*
D03*
X132815Y50157D02*
D03*
X152500Y60000D02*
D03*
D37*
X176500Y375500D02*
D03*
X177500Y326500D02*
D03*
X375000D02*
D03*
X374000Y375500D02*
D03*
X176000Y298000D02*
D03*
X177000Y249000D02*
D03*
X374500D02*
D03*
X373500Y298000D02*
D03*
X176000Y220500D02*
D03*
X177000Y171500D02*
D03*
X374500D02*
D03*
X373500Y220500D02*
D03*
X176000Y141500D02*
D03*
X177000Y92500D02*
D03*
X374500D02*
D03*
X373500Y141500D02*
D03*
X374000Y63000D02*
D03*
X375000Y14000D02*
D03*
X176500Y63000D02*
D03*
X177500Y14000D02*
D03*
D38*
X176500Y365500D02*
D03*
X177500Y336500D02*
D03*
X375000D02*
D03*
X374000Y365500D02*
D03*
X176000Y288000D02*
D03*
X177000Y259000D02*
D03*
X374500D02*
D03*
X373500Y288000D02*
D03*
X176000Y210500D02*
D03*
X177000Y181500D02*
D03*
X374500D02*
D03*
X373500Y210500D02*
D03*
X176000Y131500D02*
D03*
X177000Y102500D02*
D03*
X374500D02*
D03*
X373500Y131500D02*
D03*
X374000Y53000D02*
D03*
X375000Y24000D02*
D03*
X176500Y53000D02*
D03*
X177500Y24000D02*
D03*
D39*
X12000Y345000D02*
D03*
X209500D02*
D03*
X11500Y267500D02*
D03*
X209000D02*
D03*
X11500Y190000D02*
D03*
X209000D02*
D03*
X11500Y111000D02*
D03*
X209000D02*
D03*
X209500Y32500D02*
D03*
X12000D02*
D03*
M02*
