G04 Layer_Physical_Order=1*
G04 Layer_Color=255*
%FSLAX25Y25*%
%MOIN*%
G70*
G01*
G75*
%ADD10C,0.02000*%
%ADD11C,0.03000*%
%ADD12O,0.05512X0.05905*%
%ADD13C,0.05905*%
%ADD14R,0.06600X0.06600*%
%ADD15C,0.06600*%
%ADD16R,0.05937X0.05937*%
%ADD17C,0.05937*%
%ADD18R,0.05905X0.05905*%
%ADD19R,0.07480X0.07480*%
%ADD20C,0.07874*%
%ADD21R,0.05905X0.05905*%
%ADD22R,0.05937X0.05937*%
%ADD23O,0.05905X0.05512*%
%ADD24R,0.06600X0.06600*%
%ADD25R,0.07480X0.07480*%
%ADD26R,2.87402X0.03150*%
%ADD27R,0.03150X3.93701*%
%ADD28R,0.07874X0.07874*%
%ADD29R,0.70866X0.03937*%
G36*
X364958Y387928D02*
X366664Y386066D01*
X366554Y383542D01*
X364692Y381836D01*
X362168Y381946D01*
X360462Y383808D01*
X360572Y386332D01*
X362434Y388038D01*
X364958Y387928D01*
D02*
G37*
G36*
X357458Y382928D02*
X359164Y381066D01*
X359054Y378542D01*
X357192Y376836D01*
X354668Y376946D01*
X352962Y378808D01*
X353072Y381332D01*
X354934Y383038D01*
X357458Y382928D01*
D02*
G37*
G36*
X364958Y377928D02*
X366664Y376066D01*
X366554Y373542D01*
X364692Y371836D01*
X362168Y371946D01*
X360462Y373808D01*
X360572Y376332D01*
X362434Y378038D01*
X364958Y377928D01*
D02*
G37*
G36*
X363458Y327428D02*
X365164Y325566D01*
X365054Y323042D01*
X363192Y321336D01*
X360668Y321446D01*
X358962Y323308D01*
X359072Y325832D01*
X360934Y327538D01*
X363458Y327428D01*
D02*
G37*
G36*
X355958Y322428D02*
X357664Y320566D01*
X357554Y318042D01*
X355692Y316336D01*
X353168Y316446D01*
X351462Y318308D01*
X351572Y320832D01*
X353434Y322538D01*
X355958Y322428D01*
D02*
G37*
G36*
X363458Y317428D02*
X365164Y315566D01*
X365054Y313042D01*
X363192Y311336D01*
X360668Y311446D01*
X358962Y313308D01*
X359072Y315832D01*
X360934Y317538D01*
X363458Y317428D01*
D02*
G37*
D10*
X262000Y75000D02*
X268000Y69000D01*
Y49000D02*
Y69000D01*
X262000Y43000D02*
X268000Y49000D01*
X153000Y75000D02*
X262000D01*
X141000Y63000D02*
X153000Y75000D01*
X211000Y60000D02*
X212000Y59000D01*
X203500Y4500D02*
X212000Y13000D01*
X56900Y4500D02*
X203500D01*
X43500Y17900D02*
X56900Y4500D01*
X43500Y17900D02*
Y60000D01*
X282500Y70000D02*
X287500Y65000D01*
X186700Y18300D02*
Y49800D01*
X201900Y65000D02*
X229500D01*
X212000Y43000D02*
Y59000D01*
X181000Y12700D02*
Y54000D01*
Y12700D02*
X186200Y7500D01*
X196500D02*
X202000Y13000D01*
Y23000D01*
X222000Y43000D01*
X106343Y18657D02*
X120157D01*
X134500Y43000D02*
X156500Y65000D01*
X167500D01*
X61500Y35000D02*
Y37843D01*
X181000Y54000D02*
X187000Y60000D01*
X186200Y7500D02*
X196500D01*
X258500Y49500D02*
Y60000D01*
X252000Y43000D02*
X258500Y49500D01*
X234500Y45500D02*
Y60000D01*
X232000Y43000D02*
X234500Y45500D01*
X83500Y13000D02*
X134500D01*
X61500Y35000D02*
X83500Y13000D01*
X139000Y60000D02*
Y63000D01*
X212000Y13000D02*
X232500Y33500D01*
X242500D01*
X252000Y43000D01*
X164500Y13000D02*
X169800Y18300D01*
Y62700D01*
X167500Y65000D02*
X169800Y62700D01*
X120157Y18657D02*
X144500Y43000D01*
X186700Y18300D02*
X192000Y13000D01*
X186700Y49800D02*
X201900Y65000D01*
X229500D02*
X234500Y60000D01*
X287500Y49500D02*
Y65000D01*
X282500Y44500D02*
X287500Y49500D01*
X139000Y63000D02*
X141000D01*
X139000Y143000D02*
X141000D01*
X282500Y124500D02*
X287500Y129500D01*
Y145000D01*
X229500D02*
X234500Y140000D01*
X186700Y129800D02*
X201900Y145000D01*
X186700Y98300D02*
X192000Y93000D01*
X120157Y98657D02*
X144500Y123000D01*
X167500Y145000D02*
X169800Y142700D01*
Y98300D02*
Y142700D01*
X164500Y93000D02*
X169800Y98300D01*
X242500Y113500D02*
X252000Y123000D01*
X232500Y113500D02*
X242500D01*
X212000Y93000D02*
X232500Y113500D01*
X139000Y140000D02*
Y143000D01*
X61500Y115000D02*
X83500Y93000D01*
X134500D01*
X232000Y123000D02*
X234500Y125500D01*
Y140000D01*
X252000Y123000D02*
X258500Y129500D01*
Y140000D01*
X186200Y87500D02*
X196500D01*
X181000Y134000D02*
X187000Y140000D01*
X61500Y115000D02*
Y117843D01*
X156500Y145000D02*
X167500D01*
X134500Y123000D02*
X156500Y145000D01*
X106343Y98657D02*
X120157D01*
X202000Y103000D02*
X222000Y123000D01*
X202000Y93000D02*
Y103000D01*
X196500Y87500D02*
X202000Y93000D01*
X181000Y92700D02*
X186200Y87500D01*
X181000Y92700D02*
Y134000D01*
X212000Y123000D02*
Y139000D01*
X201900Y145000D02*
X229500D01*
X186700Y98300D02*
Y129800D01*
X282500Y150000D02*
X287500Y145000D01*
X43500Y97900D02*
Y140000D01*
Y97900D02*
X56900Y84500D01*
X203500D01*
X212000Y93000D01*
X211000Y140000D02*
X212000Y139000D01*
X141000Y143000D02*
X153000Y155000D01*
X262000D01*
Y123000D02*
X268000Y129000D01*
Y149000D01*
X262000Y155000D02*
X268000Y149000D01*
X139000Y223000D02*
X141000D01*
X282500Y204500D02*
X287500Y209500D01*
Y225000D01*
X229500D02*
X234500Y220000D01*
X186700Y209800D02*
X201900Y225000D01*
X186700Y178300D02*
X192000Y173000D01*
X120157Y178657D02*
X144500Y203000D01*
X167500Y225000D02*
X169800Y222700D01*
Y178300D02*
Y222700D01*
X164500Y173000D02*
X169800Y178300D01*
X242500Y193500D02*
X252000Y203000D01*
X232500Y193500D02*
X242500D01*
X212000Y173000D02*
X232500Y193500D01*
X139000Y220000D02*
Y223000D01*
X61500Y195000D02*
X83500Y173000D01*
X134500D01*
X232000Y203000D02*
X234500Y205500D01*
Y220000D01*
X252000Y203000D02*
X258500Y209500D01*
Y220000D01*
X186200Y167500D02*
X196500D01*
X181000Y214000D02*
X187000Y220000D01*
X61500Y195000D02*
Y197843D01*
X156500Y225000D02*
X167500D01*
X134500Y203000D02*
X156500Y225000D01*
X106343Y178657D02*
X120157D01*
X202000Y183000D02*
X222000Y203000D01*
X202000Y173000D02*
Y183000D01*
X196500Y167500D02*
X202000Y173000D01*
X181000Y172700D02*
X186200Y167500D01*
X181000Y172700D02*
Y214000D01*
X212000Y203000D02*
Y219000D01*
X201900Y225000D02*
X229500D01*
X186700Y178300D02*
Y209800D01*
X282500Y230000D02*
X287500Y225000D01*
X43500Y177900D02*
Y220000D01*
Y177900D02*
X56900Y164500D01*
X203500D01*
X212000Y173000D01*
X211000Y220000D02*
X212000Y219000D01*
X141000Y223000D02*
X153000Y235000D01*
X262000D01*
Y203000D02*
X268000Y209000D01*
Y229000D01*
X262000Y235000D02*
X268000Y229000D01*
X139000Y304500D02*
X141000D01*
X282500Y286000D02*
X287500Y291000D01*
Y306500D01*
X229500D02*
X234500Y301500D01*
X186700Y291300D02*
X201900Y306500D01*
X186700Y259800D02*
X192000Y254500D01*
X120157Y260157D02*
X144500Y284500D01*
X167500Y306500D02*
X169800Y304200D01*
Y259800D02*
Y304200D01*
X164500Y254500D02*
X169800Y259800D01*
X242500Y275000D02*
X252000Y284500D01*
X232500Y275000D02*
X242500D01*
X212000Y254500D02*
X232500Y275000D01*
X139000Y301500D02*
Y304500D01*
X61500Y276500D02*
X83500Y254500D01*
X134500D01*
X232000Y284500D02*
X234500Y287000D01*
Y301500D01*
X252000Y284500D02*
X258500Y291000D01*
Y301500D01*
X186200Y249000D02*
X196500D01*
X181000Y295500D02*
X187000Y301500D01*
X61500Y276500D02*
Y279343D01*
X156500Y306500D02*
X167500D01*
X134500Y284500D02*
X156500Y306500D01*
X106343Y260157D02*
X120157D01*
X202000Y264500D02*
X222000Y284500D01*
X202000Y254500D02*
Y264500D01*
X196500Y249000D02*
X202000Y254500D01*
X181000Y254200D02*
X186200Y249000D01*
X181000Y254200D02*
Y295500D01*
X212000Y284500D02*
Y300500D01*
X201900Y306500D02*
X229500D01*
X186700Y259800D02*
Y291300D01*
X282500Y311500D02*
X287500Y306500D01*
X43500Y259400D02*
Y301500D01*
Y259400D02*
X56900Y246000D01*
X203500D01*
X212000Y254500D01*
X211000Y301500D02*
X212000Y300500D01*
X141000Y304500D02*
X153000Y316500D01*
X262000D01*
Y284500D02*
X268000Y290500D01*
Y310500D01*
X262000Y316500D02*
X268000Y310500D01*
X139000Y384000D02*
X141000D01*
X282500Y365500D02*
X287500Y370500D01*
Y386000D01*
X229500D02*
X234500Y381000D01*
X186700Y370800D02*
X201900Y386000D01*
X186700Y339300D02*
X192000Y334000D01*
X120157Y339657D02*
X144500Y364000D01*
X167500Y386000D02*
X169800Y383700D01*
Y339300D02*
Y383700D01*
X164500Y334000D02*
X169800Y339300D01*
X242500Y354500D02*
X252000Y364000D01*
X232500Y354500D02*
X242500D01*
X212000Y334000D02*
X232500Y354500D01*
X139000Y381000D02*
Y384000D01*
X61500Y356000D02*
X83500Y334000D01*
X134500D01*
X232000Y364000D02*
X234500Y366500D01*
Y381000D01*
X252000Y364000D02*
X258500Y370500D01*
Y381000D01*
X186200Y328500D02*
X196500D01*
X181000Y375000D02*
X187000Y381000D01*
X61500Y356000D02*
Y358843D01*
X156500Y386000D02*
X167500D01*
X134500Y364000D02*
X156500Y386000D01*
X106343Y339657D02*
X120157D01*
X202000Y344000D02*
X222000Y364000D01*
X202000Y334000D02*
Y344000D01*
X196500Y328500D02*
X202000Y334000D01*
X181000Y333700D02*
X186200Y328500D01*
X181000Y333700D02*
Y375000D01*
X212000Y364000D02*
Y380000D01*
X201900Y386000D02*
X229500D01*
X186700Y339300D02*
Y370800D01*
X282500Y391000D02*
X287500Y386000D01*
X43500Y338900D02*
Y381000D01*
Y338900D02*
X56900Y325500D01*
X203500D01*
X212000Y334000D01*
X211000Y381000D02*
X212000Y380000D01*
X141000Y384000D02*
X153000Y396000D01*
X262000D01*
Y364000D02*
X268000Y370000D01*
Y390000D01*
X262000Y396000D02*
X268000Y390000D01*
X315000Y138000D02*
Y140000D01*
X328500Y286500D02*
X333500Y281500D01*
X313000Y286500D02*
X328500D01*
X313000Y228500D02*
X318000Y233500D01*
X313000Y200900D02*
X328200Y185700D01*
X359700D02*
X365000Y191000D01*
X335000Y143500D02*
X359343Y119157D01*
X313000Y166500D02*
X315300Y168800D01*
X359700D01*
X365000Y163500D01*
X335000Y251000D02*
X344500Y241500D01*
Y231500D02*
Y241500D01*
Y231500D02*
X365000Y211000D01*
X315000Y138000D02*
X318000D01*
X343000Y60500D02*
X365000Y82500D01*
Y133500D01*
X332500Y233500D02*
X335000Y231000D01*
X318000Y233500D02*
X332500D01*
X328500Y257500D02*
X335000Y251000D01*
X318000Y257500D02*
X328500D01*
X370500Y185200D02*
Y195500D01*
X318000Y186000D02*
X324000Y180000D01*
X340157Y60500D02*
X343000D01*
X313000Y155500D02*
Y166500D01*
Y155500D02*
X335000Y133500D01*
X359343Y105343D02*
Y119157D01*
X335000Y221000D02*
X355000Y201000D01*
X365000D01*
X370500Y195500D01*
X365300Y180000D02*
X370500Y185200D01*
X324000Y180000D02*
X365300D01*
X319000Y211000D02*
X335000D01*
X313000Y200900D02*
Y228500D01*
X328200Y185700D02*
X359700D01*
X308000Y281500D02*
X313000Y286500D01*
X318000Y42500D02*
X360100D01*
X373500Y55900D01*
Y202500D01*
X365000Y211000D02*
X373500Y202500D01*
X318000Y210000D02*
X319000Y211000D01*
X303000Y152000D02*
X315000Y140000D01*
X303000Y152000D02*
Y261000D01*
X329000Y267000D02*
X335000Y261000D01*
X309000Y267000D02*
X329000D01*
X303000Y261000D02*
X309000Y267000D01*
D11*
X346905Y350437D02*
Y353780D01*
X363563Y370437D01*
Y374937D01*
X362063Y324437D02*
Y328937D01*
X370563Y337437D01*
Y377937D01*
X363563Y384937D02*
X370563Y377937D01*
D12*
X282500Y44500D02*
D03*
Y124500D02*
D03*
Y204500D02*
D03*
Y286000D02*
D03*
Y365500D02*
D03*
D13*
Y14500D02*
D03*
X61500Y37843D02*
D03*
X37500Y43000D02*
D03*
Y13000D02*
D03*
X19500Y70000D02*
D03*
X282500D02*
D03*
X43500D02*
D03*
X258500D02*
D03*
X67000D02*
D03*
X234500D02*
D03*
X91000D02*
D03*
X211000D02*
D03*
X115000D02*
D03*
X187000D02*
D03*
X139000D02*
D03*
X163000D02*
D03*
X19500Y150000D02*
D03*
X282500D02*
D03*
X43500D02*
D03*
X258500D02*
D03*
X67000D02*
D03*
X234500D02*
D03*
X91000D02*
D03*
X211000D02*
D03*
X115000D02*
D03*
X37500Y123000D02*
D03*
Y93000D02*
D03*
X187000Y150000D02*
D03*
X61500Y117843D02*
D03*
X139000Y150000D02*
D03*
X163000D02*
D03*
X282500Y94500D02*
D03*
X19500Y230000D02*
D03*
X282500D02*
D03*
X43500D02*
D03*
X258500D02*
D03*
X67000D02*
D03*
X234500D02*
D03*
X91000D02*
D03*
X211000D02*
D03*
X115000D02*
D03*
X37500Y203000D02*
D03*
Y173000D02*
D03*
X187000Y230000D02*
D03*
X61500Y197843D02*
D03*
X139000Y230000D02*
D03*
X163000D02*
D03*
X282500Y174500D02*
D03*
X19500Y311500D02*
D03*
X282500D02*
D03*
X43500D02*
D03*
X258500D02*
D03*
X67000D02*
D03*
X234500D02*
D03*
X91000D02*
D03*
X211000D02*
D03*
X115000D02*
D03*
X37500Y284500D02*
D03*
Y254500D02*
D03*
X187000Y311500D02*
D03*
X61500Y279343D02*
D03*
X139000Y311500D02*
D03*
X163000D02*
D03*
X282500Y256000D02*
D03*
X19500Y391000D02*
D03*
X282500D02*
D03*
X43500D02*
D03*
X258500D02*
D03*
X67000D02*
D03*
X234500D02*
D03*
X91000D02*
D03*
X211000D02*
D03*
X115000D02*
D03*
X37500Y364000D02*
D03*
Y334000D02*
D03*
X187000Y391000D02*
D03*
X61500Y358843D02*
D03*
X139000Y391000D02*
D03*
X163000D02*
D03*
X282500Y335500D02*
D03*
X308000Y18500D02*
D03*
Y281500D02*
D03*
Y42500D02*
D03*
Y257500D02*
D03*
Y66000D02*
D03*
Y233500D02*
D03*
Y90000D02*
D03*
Y210000D02*
D03*
Y114000D02*
D03*
X335000Y36500D02*
D03*
X365000D02*
D03*
X308000Y186000D02*
D03*
X340157Y60500D02*
D03*
X308000Y138000D02*
D03*
Y162000D02*
D03*
X363500Y281500D02*
D03*
X362563Y359279D02*
D03*
X327221Y350437D02*
D03*
X324563Y314437D02*
D03*
X323063Y385937D02*
D03*
X362063Y324437D02*
D03*
X354563Y319437D02*
D03*
X362063Y314437D02*
D03*
X363563Y384937D02*
D03*
X356063Y379937D02*
D03*
X363563Y374937D02*
D03*
X317063Y336937D02*
D03*
X347063D02*
D03*
X317063Y363937D02*
D03*
X347063D02*
D03*
D14*
X262000Y43000D02*
D03*
X134500Y13000D02*
D03*
X262000Y123000D02*
D03*
X134500Y93000D02*
D03*
X262000Y203000D02*
D03*
X134500Y173000D02*
D03*
X262000Y284500D02*
D03*
X134500Y254500D02*
D03*
X262000Y364000D02*
D03*
X134500Y334000D02*
D03*
D15*
X252000Y43000D02*
D03*
X242000D02*
D03*
X232000D02*
D03*
X222000D02*
D03*
X212000D02*
D03*
X202000D02*
D03*
X192000D02*
D03*
Y13000D02*
D03*
X202000D02*
D03*
X212000D02*
D03*
X222000D02*
D03*
X232000D02*
D03*
X242000D02*
D03*
X252000D02*
D03*
X262000D02*
D03*
X144500D02*
D03*
X154500D02*
D03*
X164500D02*
D03*
Y43000D02*
D03*
X154500D02*
D03*
X144500D02*
D03*
X134500D02*
D03*
X252000Y123000D02*
D03*
X242000D02*
D03*
X232000D02*
D03*
X222000D02*
D03*
X212000D02*
D03*
X202000D02*
D03*
X192000D02*
D03*
Y93000D02*
D03*
X202000D02*
D03*
X212000D02*
D03*
X222000D02*
D03*
X232000D02*
D03*
X242000D02*
D03*
X252000D02*
D03*
X262000D02*
D03*
X144500D02*
D03*
X154500D02*
D03*
X164500D02*
D03*
Y123000D02*
D03*
X154500D02*
D03*
X144500D02*
D03*
X134500D02*
D03*
X252000Y203000D02*
D03*
X242000D02*
D03*
X232000D02*
D03*
X222000D02*
D03*
X212000D02*
D03*
X202000D02*
D03*
X192000D02*
D03*
Y173000D02*
D03*
X202000D02*
D03*
X212000D02*
D03*
X222000D02*
D03*
X232000D02*
D03*
X242000D02*
D03*
X252000D02*
D03*
X262000D02*
D03*
X144500D02*
D03*
X154500D02*
D03*
X164500D02*
D03*
Y203000D02*
D03*
X154500D02*
D03*
X144500D02*
D03*
X134500D02*
D03*
X252000Y284500D02*
D03*
X242000D02*
D03*
X232000D02*
D03*
X222000D02*
D03*
X212000D02*
D03*
X202000D02*
D03*
X192000D02*
D03*
Y254500D02*
D03*
X202000D02*
D03*
X212000D02*
D03*
X222000D02*
D03*
X232000D02*
D03*
X242000D02*
D03*
X252000D02*
D03*
X262000D02*
D03*
X144500D02*
D03*
X154500D02*
D03*
X164500D02*
D03*
Y284500D02*
D03*
X154500D02*
D03*
X144500D02*
D03*
X134500D02*
D03*
X252000Y364000D02*
D03*
X242000D02*
D03*
X232000D02*
D03*
X222000D02*
D03*
X212000D02*
D03*
X202000D02*
D03*
X192000D02*
D03*
Y334000D02*
D03*
X202000D02*
D03*
X212000D02*
D03*
X222000D02*
D03*
X232000D02*
D03*
X242000D02*
D03*
X252000D02*
D03*
X262000D02*
D03*
X144500D02*
D03*
X154500D02*
D03*
X164500D02*
D03*
Y364000D02*
D03*
X154500D02*
D03*
X144500D02*
D03*
X134500D02*
D03*
X335000Y251000D02*
D03*
Y241000D02*
D03*
Y231000D02*
D03*
Y221000D02*
D03*
Y211000D02*
D03*
Y201000D02*
D03*
Y191000D02*
D03*
X365000D02*
D03*
Y201000D02*
D03*
Y211000D02*
D03*
Y221000D02*
D03*
Y231000D02*
D03*
Y241000D02*
D03*
Y251000D02*
D03*
Y261000D02*
D03*
Y143500D02*
D03*
Y153500D02*
D03*
Y163500D02*
D03*
X335000D02*
D03*
Y153500D02*
D03*
Y143500D02*
D03*
Y133500D02*
D03*
D16*
X86657Y18657D02*
D03*
Y98657D02*
D03*
Y178657D02*
D03*
Y260157D02*
D03*
Y339657D02*
D03*
D17*
X96500Y38343D02*
D03*
X106343Y18657D02*
D03*
X96500Y118343D02*
D03*
X106343Y98657D02*
D03*
X96500Y198343D02*
D03*
X106343Y178657D02*
D03*
X96500Y279843D02*
D03*
X106343Y260157D02*
D03*
X96500Y359343D02*
D03*
X106343Y339657D02*
D03*
X339657Y95500D02*
D03*
X359343Y105343D02*
D03*
D18*
X61500Y18157D02*
D03*
X19500Y60000D02*
D03*
X282500D02*
D03*
X43500D02*
D03*
X258500D02*
D03*
X67000D02*
D03*
X234500D02*
D03*
X91000D02*
D03*
X211000D02*
D03*
X115000D02*
D03*
X187000D02*
D03*
X139000D02*
D03*
X163000D02*
D03*
X19500Y140000D02*
D03*
X282500D02*
D03*
X43500D02*
D03*
X258500D02*
D03*
X67000D02*
D03*
X234500D02*
D03*
X91000D02*
D03*
X211000D02*
D03*
X115000D02*
D03*
X187000D02*
D03*
X61500Y98157D02*
D03*
X139000Y140000D02*
D03*
X163000D02*
D03*
X19500Y220000D02*
D03*
X282500D02*
D03*
X43500D02*
D03*
X258500D02*
D03*
X67000D02*
D03*
X234500D02*
D03*
X91000D02*
D03*
X211000D02*
D03*
X115000D02*
D03*
X187000D02*
D03*
X61500Y178157D02*
D03*
X139000Y220000D02*
D03*
X163000D02*
D03*
X19500Y301500D02*
D03*
X282500D02*
D03*
X43500D02*
D03*
X258500D02*
D03*
X67000D02*
D03*
X234500D02*
D03*
X91000D02*
D03*
X211000D02*
D03*
X115000D02*
D03*
X187000D02*
D03*
X61500Y259657D02*
D03*
X139000Y301500D02*
D03*
X163000D02*
D03*
X19500Y381000D02*
D03*
X282500D02*
D03*
X43500D02*
D03*
X258500D02*
D03*
X67000D02*
D03*
X234500D02*
D03*
X91000D02*
D03*
X211000D02*
D03*
X115000D02*
D03*
X187000D02*
D03*
X61500Y339157D02*
D03*
X139000Y381000D02*
D03*
X163000D02*
D03*
X362563Y339595D02*
D03*
X324563Y324437D02*
D03*
X323063Y375937D02*
D03*
D19*
X15000Y34000D02*
D03*
Y114000D02*
D03*
Y194000D02*
D03*
Y275500D02*
D03*
Y355000D02*
D03*
D20*
Y24000D02*
D03*
Y104000D02*
D03*
Y184000D02*
D03*
Y265500D02*
D03*
Y345000D02*
D03*
X354000Y14000D02*
D03*
X343563Y385937D02*
D03*
D21*
X318000Y18500D02*
D03*
Y281500D02*
D03*
Y42500D02*
D03*
Y257500D02*
D03*
Y66000D02*
D03*
Y233500D02*
D03*
Y90000D02*
D03*
Y210000D02*
D03*
Y114000D02*
D03*
Y186000D02*
D03*
X359843Y60500D02*
D03*
X318000Y138000D02*
D03*
Y162000D02*
D03*
X346905Y350437D02*
D03*
D22*
X359343Y85657D02*
D03*
D23*
X333500Y281500D02*
D03*
D24*
X335000Y261000D02*
D03*
X365000Y133500D02*
D03*
D25*
X344000Y14000D02*
D03*
D26*
X148000Y79500D02*
D03*
Y159500D02*
D03*
Y240000D02*
D03*
Y320500D02*
D03*
D27*
X298000Y201500D02*
D03*
D28*
X343563Y375937D02*
D03*
D29*
X338000Y298500D02*
D03*
M02*
