G04 Layer_Color=32896*
%FSLAX25Y25*%
%MOIN*%
G70*
G01*
G75*
%ADD30C,0.00000*%
%ADD31C,0.00600*%
%ADD32C,0.00787*%
%ADD34C,0.00800*%
%ADD35C,0.00500*%
D30*
X265800Y29200D02*
G03*
X265800Y26800I0J-1200D01*
G01*
Y29200D02*
G03*
X265800Y26800I0J-1200D01*
G01*
X129500D02*
G03*
X129500Y29200I0J1200D01*
G01*
Y26800D02*
G03*
X129500Y29200I0J1200D01*
G01*
X265800Y109200D02*
G03*
X265800Y106800I0J-1200D01*
G01*
Y109200D02*
G03*
X265800Y106800I0J-1200D01*
G01*
X129500D02*
G03*
X129500Y109200I0J1200D01*
G01*
Y106800D02*
G03*
X129500Y109200I0J1200D01*
G01*
X265800Y189200D02*
G03*
X265800Y186800I0J-1200D01*
G01*
Y189200D02*
G03*
X265800Y186800I0J-1200D01*
G01*
X129500D02*
G03*
X129500Y189200I0J1200D01*
G01*
Y186800D02*
G03*
X129500Y189200I0J1200D01*
G01*
X265800Y270700D02*
G03*
X265800Y268300I0J-1200D01*
G01*
Y270700D02*
G03*
X265800Y268300I0J-1200D01*
G01*
X129500D02*
G03*
X129500Y270700I0J1200D01*
G01*
Y268300D02*
G03*
X129500Y270700I0J1200D01*
G01*
X265800Y350200D02*
G03*
X265800Y347800I0J-1200D01*
G01*
Y350200D02*
G03*
X265800Y347800I0J-1200D01*
G01*
X129500D02*
G03*
X129500Y350200I0J1200D01*
G01*
Y347800D02*
G03*
X129500Y350200I0J1200D01*
G01*
X348800Y264800D02*
G03*
X351200Y264800I1200J0D01*
G01*
X348800D02*
G03*
X351200Y264800I1200J0D01*
G01*
Y128500D02*
G03*
X348800Y128500I-1200J0D01*
G01*
X351200D02*
G03*
X348800Y128500I-1200J0D01*
G01*
X132300Y14000D02*
X136700D01*
X132300Y10800D02*
Y14000D01*
Y10800D02*
X136700D01*
Y14000D01*
X142300D02*
X146700D01*
X142300Y10800D02*
Y14000D01*
Y10800D02*
X146700D01*
Y14000D01*
X152300D02*
X156700D01*
X152300Y10800D02*
Y14000D01*
Y10800D02*
X156700D01*
Y14000D01*
X162300D02*
X166700D01*
X162300Y10800D02*
Y14000D01*
Y10800D02*
X166700D01*
Y14000D01*
X162300Y42000D02*
X166700D01*
Y45200D01*
X162300D02*
X166700D01*
X162300Y42000D02*
Y45200D01*
X152300Y42000D02*
X156700D01*
Y45200D01*
X152300D02*
X156700D01*
X152300Y42000D02*
Y45200D01*
X142300Y42000D02*
X146700D01*
Y45200D01*
X142300D02*
X146700D01*
X142300Y42000D02*
Y45200D01*
X132300Y42000D02*
X136700D01*
Y45200D01*
X132300D02*
X136700D01*
X132300Y42000D02*
Y45200D01*
X169500Y14000D02*
Y42000D01*
X129500D02*
X169500D01*
X129500Y29200D02*
Y42000D01*
Y26800D02*
Y29200D01*
Y14000D02*
Y26800D01*
Y14000D02*
X169500D01*
X132300D02*
X136700D01*
X132300Y10800D02*
Y14000D01*
Y10800D02*
X136700D01*
Y14000D01*
X142300D02*
X146700D01*
X142300Y10800D02*
Y14000D01*
Y10800D02*
X146700D01*
Y14000D01*
X152300D02*
X156700D01*
X152300Y10800D02*
Y14000D01*
Y10800D02*
X156700D01*
Y14000D01*
X162300D02*
X166700D01*
X162300Y10800D02*
Y14000D01*
Y10800D02*
X166700D01*
Y14000D01*
X162300Y42000D02*
X166700D01*
Y45200D01*
X162300D02*
X166700D01*
X162300Y42000D02*
Y45200D01*
X152300Y42000D02*
X156700D01*
Y45200D01*
X152300D02*
X156700D01*
X152300Y42000D02*
Y45200D01*
X142300Y42000D02*
X146700D01*
Y45200D01*
X142300D02*
X146700D01*
X142300Y42000D02*
Y45200D01*
X132300Y42000D02*
X136700D01*
Y45200D01*
X132300D02*
X136700D01*
X132300Y42000D02*
Y45200D01*
X169500Y14000D02*
Y42000D01*
X129500D02*
X169500D01*
X129500Y29200D02*
Y42000D01*
Y26800D02*
Y29200D01*
Y14000D02*
Y26800D01*
Y14000D02*
X169500D01*
X132300Y94000D02*
X136700D01*
X132300Y90800D02*
Y94000D01*
Y90800D02*
X136700D01*
Y94000D01*
X142300D02*
X146700D01*
X142300Y90800D02*
Y94000D01*
Y90800D02*
X146700D01*
Y94000D01*
X152300D02*
X156700D01*
X152300Y90800D02*
Y94000D01*
Y90800D02*
X156700D01*
Y94000D01*
X162300D02*
X166700D01*
X162300Y90800D02*
Y94000D01*
Y90800D02*
X166700D01*
Y94000D01*
X162300Y122000D02*
X166700D01*
Y125200D01*
X162300D02*
X166700D01*
X162300Y122000D02*
Y125200D01*
X152300Y122000D02*
X156700D01*
Y125200D01*
X152300D02*
X156700D01*
X152300Y122000D02*
Y125200D01*
X142300Y122000D02*
X146700D01*
Y125200D01*
X142300D02*
X146700D01*
X142300Y122000D02*
Y125200D01*
X132300Y122000D02*
X136700D01*
Y125200D01*
X132300D02*
X136700D01*
X132300Y122000D02*
Y125200D01*
X169500Y94000D02*
Y122000D01*
X129500D02*
X169500D01*
X129500Y109200D02*
Y122000D01*
Y106800D02*
Y109200D01*
Y94000D02*
Y106800D01*
Y94000D02*
X169500D01*
X132300D02*
X136700D01*
X132300Y90800D02*
Y94000D01*
Y90800D02*
X136700D01*
Y94000D01*
X142300D02*
X146700D01*
X142300Y90800D02*
Y94000D01*
Y90800D02*
X146700D01*
Y94000D01*
X152300D02*
X156700D01*
X152300Y90800D02*
Y94000D01*
Y90800D02*
X156700D01*
Y94000D01*
X162300D02*
X166700D01*
X162300Y90800D02*
Y94000D01*
Y90800D02*
X166700D01*
Y94000D01*
X162300Y122000D02*
X166700D01*
Y125200D01*
X162300D02*
X166700D01*
X162300Y122000D02*
Y125200D01*
X152300Y122000D02*
X156700D01*
Y125200D01*
X152300D02*
X156700D01*
X152300Y122000D02*
Y125200D01*
X142300Y122000D02*
X146700D01*
Y125200D01*
X142300D02*
X146700D01*
X142300Y122000D02*
Y125200D01*
X132300Y122000D02*
X136700D01*
Y125200D01*
X132300D02*
X136700D01*
X132300Y122000D02*
Y125200D01*
X169500Y94000D02*
Y122000D01*
X129500D02*
X169500D01*
X129500Y109200D02*
Y122000D01*
Y106800D02*
Y109200D01*
Y94000D02*
Y106800D01*
Y94000D02*
X169500D01*
X132300Y174000D02*
X136700D01*
X132300Y170800D02*
Y174000D01*
Y170800D02*
X136700D01*
Y174000D01*
X142300D02*
X146700D01*
X142300Y170800D02*
Y174000D01*
Y170800D02*
X146700D01*
Y174000D01*
X152300D02*
X156700D01*
X152300Y170800D02*
Y174000D01*
Y170800D02*
X156700D01*
Y174000D01*
X162300D02*
X166700D01*
X162300Y170800D02*
Y174000D01*
Y170800D02*
X166700D01*
Y174000D01*
X162300Y202000D02*
X166700D01*
Y205200D01*
X162300D02*
X166700D01*
X162300Y202000D02*
Y205200D01*
X152300Y202000D02*
X156700D01*
Y205200D01*
X152300D02*
X156700D01*
X152300Y202000D02*
Y205200D01*
X142300Y202000D02*
X146700D01*
Y205200D01*
X142300D02*
X146700D01*
X142300Y202000D02*
Y205200D01*
X132300Y202000D02*
X136700D01*
Y205200D01*
X132300D02*
X136700D01*
X132300Y202000D02*
Y205200D01*
X169500Y174000D02*
Y202000D01*
X129500D02*
X169500D01*
X129500Y189200D02*
Y202000D01*
Y186800D02*
Y189200D01*
Y174000D02*
Y186800D01*
Y174000D02*
X169500D01*
X132300D02*
X136700D01*
X132300Y170800D02*
Y174000D01*
Y170800D02*
X136700D01*
Y174000D01*
X142300D02*
X146700D01*
X142300Y170800D02*
Y174000D01*
Y170800D02*
X146700D01*
Y174000D01*
X152300D02*
X156700D01*
X152300Y170800D02*
Y174000D01*
Y170800D02*
X156700D01*
Y174000D01*
X162300D02*
X166700D01*
X162300Y170800D02*
Y174000D01*
Y170800D02*
X166700D01*
Y174000D01*
X162300Y202000D02*
X166700D01*
Y205200D01*
X162300D02*
X166700D01*
X162300Y202000D02*
Y205200D01*
X152300Y202000D02*
X156700D01*
Y205200D01*
X152300D02*
X156700D01*
X152300Y202000D02*
Y205200D01*
X142300Y202000D02*
X146700D01*
Y205200D01*
X142300D02*
X146700D01*
X142300Y202000D02*
Y205200D01*
X132300Y202000D02*
X136700D01*
Y205200D01*
X132300D02*
X136700D01*
X132300Y202000D02*
Y205200D01*
X169500Y174000D02*
Y202000D01*
X129500D02*
X169500D01*
X129500Y189200D02*
Y202000D01*
Y186800D02*
Y189200D01*
Y174000D02*
Y186800D01*
Y174000D02*
X169500D01*
X132300Y255500D02*
X136700D01*
X132300Y252300D02*
Y255500D01*
Y252300D02*
X136700D01*
Y255500D01*
X142300D02*
X146700D01*
X142300Y252300D02*
Y255500D01*
Y252300D02*
X146700D01*
Y255500D01*
X152300D02*
X156700D01*
X152300Y252300D02*
Y255500D01*
Y252300D02*
X156700D01*
Y255500D01*
X162300D02*
X166700D01*
X162300Y252300D02*
Y255500D01*
Y252300D02*
X166700D01*
Y255500D01*
X162300Y283500D02*
X166700D01*
Y286700D01*
X162300D02*
X166700D01*
X162300Y283500D02*
Y286700D01*
X152300Y283500D02*
X156700D01*
Y286700D01*
X152300D02*
X156700D01*
X152300Y283500D02*
Y286700D01*
X142300Y283500D02*
X146700D01*
Y286700D01*
X142300D02*
X146700D01*
X142300Y283500D02*
Y286700D01*
X132300Y283500D02*
X136700D01*
Y286700D01*
X132300D02*
X136700D01*
X132300Y283500D02*
Y286700D01*
X169500Y255500D02*
Y283500D01*
X129500D02*
X169500D01*
X129500Y270700D02*
Y283500D01*
Y268300D02*
Y270700D01*
Y255500D02*
Y268300D01*
Y255500D02*
X169500D01*
X132300D02*
X136700D01*
X132300Y252300D02*
Y255500D01*
Y252300D02*
X136700D01*
Y255500D01*
X142300D02*
X146700D01*
X142300Y252300D02*
Y255500D01*
Y252300D02*
X146700D01*
Y255500D01*
X152300D02*
X156700D01*
X152300Y252300D02*
Y255500D01*
Y252300D02*
X156700D01*
Y255500D01*
X162300D02*
X166700D01*
X162300Y252300D02*
Y255500D01*
Y252300D02*
X166700D01*
Y255500D01*
X162300Y283500D02*
X166700D01*
Y286700D01*
X162300D02*
X166700D01*
X162300Y283500D02*
Y286700D01*
X152300Y283500D02*
X156700D01*
Y286700D01*
X152300D02*
X156700D01*
X152300Y283500D02*
Y286700D01*
X142300Y283500D02*
X146700D01*
Y286700D01*
X142300D02*
X146700D01*
X142300Y283500D02*
Y286700D01*
X132300Y283500D02*
X136700D01*
Y286700D01*
X132300D02*
X136700D01*
X132300Y283500D02*
Y286700D01*
X169500Y255500D02*
Y283500D01*
X129500D02*
X169500D01*
X129500Y270700D02*
Y283500D01*
Y268300D02*
Y270700D01*
Y255500D02*
Y268300D01*
Y255500D02*
X169500D01*
X132300Y335000D02*
X136700D01*
X132300Y331800D02*
Y335000D01*
Y331800D02*
X136700D01*
Y335000D01*
X142300D02*
X146700D01*
X142300Y331800D02*
Y335000D01*
Y331800D02*
X146700D01*
Y335000D01*
X152300D02*
X156700D01*
X152300Y331800D02*
Y335000D01*
Y331800D02*
X156700D01*
Y335000D01*
X162300D02*
X166700D01*
X162300Y331800D02*
Y335000D01*
Y331800D02*
X166700D01*
Y335000D01*
X162300Y363000D02*
X166700D01*
Y366200D01*
X162300D02*
X166700D01*
X162300Y363000D02*
Y366200D01*
X152300Y363000D02*
X156700D01*
Y366200D01*
X152300D02*
X156700D01*
X152300Y363000D02*
Y366200D01*
X142300Y363000D02*
X146700D01*
Y366200D01*
X142300D02*
X146700D01*
X142300Y363000D02*
Y366200D01*
X132300Y363000D02*
X136700D01*
Y366200D01*
X132300D02*
X136700D01*
X132300Y363000D02*
Y366200D01*
X169500Y335000D02*
Y363000D01*
X129500D02*
X169500D01*
X129500Y350200D02*
Y363000D01*
Y347800D02*
Y350200D01*
Y335000D02*
Y347800D01*
Y335000D02*
X169500D01*
X132300D02*
X136700D01*
X132300Y331800D02*
Y335000D01*
Y331800D02*
X136700D01*
Y335000D01*
X142300D02*
X146700D01*
X142300Y331800D02*
Y335000D01*
Y331800D02*
X146700D01*
Y335000D01*
X152300D02*
X156700D01*
X152300Y331800D02*
Y335000D01*
Y331800D02*
X156700D01*
Y335000D01*
X162300D02*
X166700D01*
X162300Y331800D02*
Y335000D01*
Y331800D02*
X166700D01*
Y335000D01*
X162300Y363000D02*
X166700D01*
Y366200D01*
X162300D02*
X166700D01*
X162300Y363000D02*
Y366200D01*
X152300Y363000D02*
X156700D01*
Y366200D01*
X152300D02*
X156700D01*
X152300Y363000D02*
Y366200D01*
X142300Y363000D02*
X146700D01*
Y366200D01*
X142300D02*
X146700D01*
X142300Y363000D02*
Y366200D01*
X132300Y363000D02*
X136700D01*
Y366200D01*
X132300D02*
X136700D01*
X132300Y363000D02*
Y366200D01*
X169500Y335000D02*
Y363000D01*
X129500D02*
X169500D01*
X129500Y350200D02*
Y363000D01*
Y347800D02*
Y350200D01*
Y335000D02*
Y347800D01*
Y335000D02*
X169500D01*
X364000Y131300D02*
Y135700D01*
Y131300D02*
X367200D01*
Y135700D01*
X364000D02*
X367200D01*
X364000Y141300D02*
Y145700D01*
Y141300D02*
X367200D01*
Y145700D01*
X364000D02*
X367200D01*
X364000Y151300D02*
Y155700D01*
Y151300D02*
X367200D01*
Y155700D01*
X364000D02*
X367200D01*
X364000Y161300D02*
Y165700D01*
Y161300D02*
X367200D01*
Y165700D01*
X364000D02*
X367200D01*
X336000Y161300D02*
Y165700D01*
X332800D02*
X336000D01*
X332800Y161300D02*
Y165700D01*
Y161300D02*
X336000D01*
Y151300D02*
Y155700D01*
X332800D02*
X336000D01*
X332800Y151300D02*
Y155700D01*
Y151300D02*
X336000D01*
Y141300D02*
Y145700D01*
X332800D02*
X336000D01*
X332800Y141300D02*
Y145700D01*
Y141300D02*
X336000D01*
Y131300D02*
Y135700D01*
X332800D02*
X336000D01*
X332800Y131300D02*
Y135700D01*
Y131300D02*
X336000D01*
Y168500D02*
X364000D01*
X336000Y128500D02*
Y168500D01*
Y128500D02*
X348800D01*
X351200D01*
X364000D01*
Y168500D01*
Y131300D02*
Y135700D01*
Y131300D02*
X367200D01*
Y135700D01*
X364000D02*
X367200D01*
X364000Y141300D02*
Y145700D01*
Y141300D02*
X367200D01*
Y145700D01*
X364000D02*
X367200D01*
X364000Y151300D02*
Y155700D01*
Y151300D02*
X367200D01*
Y155700D01*
X364000D02*
X367200D01*
X364000Y161300D02*
Y165700D01*
Y161300D02*
X367200D01*
Y165700D01*
X364000D02*
X367200D01*
X336000Y161300D02*
Y165700D01*
X332800D02*
X336000D01*
X332800Y161300D02*
Y165700D01*
Y161300D02*
X336000D01*
Y151300D02*
Y155700D01*
X332800D02*
X336000D01*
X332800Y151300D02*
Y155700D01*
Y151300D02*
X336000D01*
Y141300D02*
Y145700D01*
X332800D02*
X336000D01*
X332800Y141300D02*
Y145700D01*
Y141300D02*
X336000D01*
Y131300D02*
Y135700D01*
X332800D02*
X336000D01*
X332800Y131300D02*
Y135700D01*
Y131300D02*
X336000D01*
Y168500D02*
X364000D01*
X336000Y128500D02*
Y168500D01*
Y128500D02*
X348800D01*
X351200D01*
X364000D01*
Y168500D01*
D31*
X259800Y41000D02*
X264200D01*
Y45200D01*
X259800D02*
X264200D01*
X259800Y41000D02*
Y45200D01*
X249800Y41000D02*
X254200D01*
Y45200D01*
X249800D02*
X254200D01*
X249800Y41000D02*
Y45200D01*
X239800Y41000D02*
X244200D01*
Y45200D01*
X239800D02*
X244200D01*
X239800Y41000D02*
Y45200D01*
X229800Y41000D02*
X234200D01*
Y45200D01*
X229800D02*
X234200D01*
X229800Y41000D02*
Y45200D01*
X219800Y41000D02*
X224200D01*
Y45200D01*
X219800D02*
X224200D01*
X219800Y41000D02*
Y45200D01*
X209800Y41000D02*
X214200D01*
Y45200D01*
X209800D02*
X214200D01*
X209800Y41000D02*
Y45200D01*
X199800Y41000D02*
X204200D01*
Y45200D01*
X199800D02*
X204200D01*
X199800Y41000D02*
Y45200D01*
X189800Y41000D02*
X194200D01*
Y45200D01*
X189800D02*
X194200D01*
X189800Y41000D02*
Y45200D01*
Y15000D02*
X194200D01*
X189800Y10800D02*
Y15000D01*
Y10800D02*
X194200D01*
Y15000D01*
X199800D02*
X204200D01*
X199800Y10800D02*
Y15000D01*
Y10800D02*
X204200D01*
Y15000D01*
X209800D02*
X214200D01*
X209800Y10800D02*
Y15000D01*
Y10800D02*
X214200D01*
Y15000D01*
X219800D02*
X224200D01*
X219800Y10800D02*
Y15000D01*
Y10800D02*
X224200D01*
Y15000D01*
X229800D02*
X234200D01*
X229800Y10800D02*
Y15000D01*
Y10800D02*
X234200D01*
Y15000D01*
X239800D02*
X244200D01*
X239800Y10800D02*
Y15000D01*
Y10800D02*
X244200D01*
Y15000D01*
X249800D02*
X254200D01*
X249800Y10800D02*
Y15000D01*
Y10800D02*
X254200D01*
Y15000D01*
X259800D02*
X264200D01*
X259800Y10800D02*
Y15000D01*
Y10800D02*
X264200D01*
Y15000D01*
X188200D02*
Y41000D01*
Y15000D02*
X265800D01*
Y26800D01*
Y29200D01*
Y41000D01*
X188200D02*
X265800D01*
X259800D02*
X264200D01*
Y45200D01*
X259800D02*
X264200D01*
X259800Y41000D02*
Y45200D01*
X249800Y41000D02*
X254200D01*
Y45200D01*
X249800D02*
X254200D01*
X249800Y41000D02*
Y45200D01*
X239800Y41000D02*
X244200D01*
Y45200D01*
X239800D02*
X244200D01*
X239800Y41000D02*
Y45200D01*
X229800Y41000D02*
X234200D01*
Y45200D01*
X229800D02*
X234200D01*
X229800Y41000D02*
Y45200D01*
X219800Y41000D02*
X224200D01*
Y45200D01*
X219800D02*
X224200D01*
X219800Y41000D02*
Y45200D01*
X209800Y41000D02*
X214200D01*
Y45200D01*
X209800D02*
X214200D01*
X209800Y41000D02*
Y45200D01*
X199800Y41000D02*
X204200D01*
Y45200D01*
X199800D02*
X204200D01*
X199800Y41000D02*
Y45200D01*
X189800Y41000D02*
X194200D01*
Y45200D01*
X189800D02*
X194200D01*
X189800Y41000D02*
Y45200D01*
Y15000D02*
X194200D01*
X189800Y10800D02*
Y15000D01*
Y10800D02*
X194200D01*
Y15000D01*
X199800D02*
X204200D01*
X199800Y10800D02*
Y15000D01*
Y10800D02*
X204200D01*
Y15000D01*
X209800D02*
X214200D01*
X209800Y10800D02*
Y15000D01*
Y10800D02*
X214200D01*
Y15000D01*
X219800D02*
X224200D01*
X219800Y10800D02*
Y15000D01*
Y10800D02*
X224200D01*
Y15000D01*
X229800D02*
X234200D01*
X229800Y10800D02*
Y15000D01*
Y10800D02*
X234200D01*
Y15000D01*
X239800D02*
X244200D01*
X239800Y10800D02*
Y15000D01*
Y10800D02*
X244200D01*
Y15000D01*
X249800D02*
X254200D01*
X249800Y10800D02*
Y15000D01*
Y10800D02*
X254200D01*
Y15000D01*
X259800D02*
X264200D01*
X259800Y10800D02*
Y15000D01*
Y10800D02*
X264200D01*
Y15000D01*
X188200D02*
Y41000D01*
Y15000D02*
X265800D01*
Y26800D01*
Y29200D01*
Y41000D01*
X188200D02*
X265800D01*
X259800Y121000D02*
X264200D01*
Y125200D01*
X259800D02*
X264200D01*
X259800Y121000D02*
Y125200D01*
X249800Y121000D02*
X254200D01*
Y125200D01*
X249800D02*
X254200D01*
X249800Y121000D02*
Y125200D01*
X239800Y121000D02*
X244200D01*
Y125200D01*
X239800D02*
X244200D01*
X239800Y121000D02*
Y125200D01*
X229800Y121000D02*
X234200D01*
Y125200D01*
X229800D02*
X234200D01*
X229800Y121000D02*
Y125200D01*
X219800Y121000D02*
X224200D01*
Y125200D01*
X219800D02*
X224200D01*
X219800Y121000D02*
Y125200D01*
X209800Y121000D02*
X214200D01*
Y125200D01*
X209800D02*
X214200D01*
X209800Y121000D02*
Y125200D01*
X199800Y121000D02*
X204200D01*
Y125200D01*
X199800D02*
X204200D01*
X199800Y121000D02*
Y125200D01*
X189800Y121000D02*
X194200D01*
Y125200D01*
X189800D02*
X194200D01*
X189800Y121000D02*
Y125200D01*
Y95000D02*
X194200D01*
X189800Y90800D02*
Y95000D01*
Y90800D02*
X194200D01*
Y95000D01*
X199800D02*
X204200D01*
X199800Y90800D02*
Y95000D01*
Y90800D02*
X204200D01*
Y95000D01*
X209800D02*
X214200D01*
X209800Y90800D02*
Y95000D01*
Y90800D02*
X214200D01*
Y95000D01*
X219800D02*
X224200D01*
X219800Y90800D02*
Y95000D01*
Y90800D02*
X224200D01*
Y95000D01*
X229800D02*
X234200D01*
X229800Y90800D02*
Y95000D01*
Y90800D02*
X234200D01*
Y95000D01*
X239800D02*
X244200D01*
X239800Y90800D02*
Y95000D01*
Y90800D02*
X244200D01*
Y95000D01*
X249800D02*
X254200D01*
X249800Y90800D02*
Y95000D01*
Y90800D02*
X254200D01*
Y95000D01*
X259800D02*
X264200D01*
X259800Y90800D02*
Y95000D01*
Y90800D02*
X264200D01*
Y95000D01*
X188200D02*
Y121000D01*
Y95000D02*
X265800D01*
Y106800D01*
Y109200D01*
Y121000D01*
X188200D02*
X265800D01*
X259800D02*
X264200D01*
Y125200D01*
X259800D02*
X264200D01*
X259800Y121000D02*
Y125200D01*
X249800Y121000D02*
X254200D01*
Y125200D01*
X249800D02*
X254200D01*
X249800Y121000D02*
Y125200D01*
X239800Y121000D02*
X244200D01*
Y125200D01*
X239800D02*
X244200D01*
X239800Y121000D02*
Y125200D01*
X229800Y121000D02*
X234200D01*
Y125200D01*
X229800D02*
X234200D01*
X229800Y121000D02*
Y125200D01*
X219800Y121000D02*
X224200D01*
Y125200D01*
X219800D02*
X224200D01*
X219800Y121000D02*
Y125200D01*
X209800Y121000D02*
X214200D01*
Y125200D01*
X209800D02*
X214200D01*
X209800Y121000D02*
Y125200D01*
X199800Y121000D02*
X204200D01*
Y125200D01*
X199800D02*
X204200D01*
X199800Y121000D02*
Y125200D01*
X189800Y121000D02*
X194200D01*
Y125200D01*
X189800D02*
X194200D01*
X189800Y121000D02*
Y125200D01*
Y95000D02*
X194200D01*
X189800Y90800D02*
Y95000D01*
Y90800D02*
X194200D01*
Y95000D01*
X199800D02*
X204200D01*
X199800Y90800D02*
Y95000D01*
Y90800D02*
X204200D01*
Y95000D01*
X209800D02*
X214200D01*
X209800Y90800D02*
Y95000D01*
Y90800D02*
X214200D01*
Y95000D01*
X219800D02*
X224200D01*
X219800Y90800D02*
Y95000D01*
Y90800D02*
X224200D01*
Y95000D01*
X229800D02*
X234200D01*
X229800Y90800D02*
Y95000D01*
Y90800D02*
X234200D01*
Y95000D01*
X239800D02*
X244200D01*
X239800Y90800D02*
Y95000D01*
Y90800D02*
X244200D01*
Y95000D01*
X249800D02*
X254200D01*
X249800Y90800D02*
Y95000D01*
Y90800D02*
X254200D01*
Y95000D01*
X259800D02*
X264200D01*
X259800Y90800D02*
Y95000D01*
Y90800D02*
X264200D01*
Y95000D01*
X188200D02*
Y121000D01*
Y95000D02*
X265800D01*
Y106800D01*
Y109200D01*
Y121000D01*
X188200D02*
X265800D01*
X259800Y201000D02*
X264200D01*
Y205200D01*
X259800D02*
X264200D01*
X259800Y201000D02*
Y205200D01*
X249800Y201000D02*
X254200D01*
Y205200D01*
X249800D02*
X254200D01*
X249800Y201000D02*
Y205200D01*
X239800Y201000D02*
X244200D01*
Y205200D01*
X239800D02*
X244200D01*
X239800Y201000D02*
Y205200D01*
X229800Y201000D02*
X234200D01*
Y205200D01*
X229800D02*
X234200D01*
X229800Y201000D02*
Y205200D01*
X219800Y201000D02*
X224200D01*
Y205200D01*
X219800D02*
X224200D01*
X219800Y201000D02*
Y205200D01*
X209800Y201000D02*
X214200D01*
Y205200D01*
X209800D02*
X214200D01*
X209800Y201000D02*
Y205200D01*
X199800Y201000D02*
X204200D01*
Y205200D01*
X199800D02*
X204200D01*
X199800Y201000D02*
Y205200D01*
X189800Y201000D02*
X194200D01*
Y205200D01*
X189800D02*
X194200D01*
X189800Y201000D02*
Y205200D01*
Y175000D02*
X194200D01*
X189800Y170800D02*
Y175000D01*
Y170800D02*
X194200D01*
Y175000D01*
X199800D02*
X204200D01*
X199800Y170800D02*
Y175000D01*
Y170800D02*
X204200D01*
Y175000D01*
X209800D02*
X214200D01*
X209800Y170800D02*
Y175000D01*
Y170800D02*
X214200D01*
Y175000D01*
X219800D02*
X224200D01*
X219800Y170800D02*
Y175000D01*
Y170800D02*
X224200D01*
Y175000D01*
X229800D02*
X234200D01*
X229800Y170800D02*
Y175000D01*
Y170800D02*
X234200D01*
Y175000D01*
X239800D02*
X244200D01*
X239800Y170800D02*
Y175000D01*
Y170800D02*
X244200D01*
Y175000D01*
X249800D02*
X254200D01*
X249800Y170800D02*
Y175000D01*
Y170800D02*
X254200D01*
Y175000D01*
X259800D02*
X264200D01*
X259800Y170800D02*
Y175000D01*
Y170800D02*
X264200D01*
Y175000D01*
X188200D02*
Y201000D01*
Y175000D02*
X265800D01*
Y186800D01*
Y189200D01*
Y201000D01*
X188200D02*
X265800D01*
X259800D02*
X264200D01*
Y205200D01*
X259800D02*
X264200D01*
X259800Y201000D02*
Y205200D01*
X249800Y201000D02*
X254200D01*
Y205200D01*
X249800D02*
X254200D01*
X249800Y201000D02*
Y205200D01*
X239800Y201000D02*
X244200D01*
Y205200D01*
X239800D02*
X244200D01*
X239800Y201000D02*
Y205200D01*
X229800Y201000D02*
X234200D01*
Y205200D01*
X229800D02*
X234200D01*
X229800Y201000D02*
Y205200D01*
X219800Y201000D02*
X224200D01*
Y205200D01*
X219800D02*
X224200D01*
X219800Y201000D02*
Y205200D01*
X209800Y201000D02*
X214200D01*
Y205200D01*
X209800D02*
X214200D01*
X209800Y201000D02*
Y205200D01*
X199800Y201000D02*
X204200D01*
Y205200D01*
X199800D02*
X204200D01*
X199800Y201000D02*
Y205200D01*
X189800Y201000D02*
X194200D01*
Y205200D01*
X189800D02*
X194200D01*
X189800Y201000D02*
Y205200D01*
Y175000D02*
X194200D01*
X189800Y170800D02*
Y175000D01*
Y170800D02*
X194200D01*
Y175000D01*
X199800D02*
X204200D01*
X199800Y170800D02*
Y175000D01*
Y170800D02*
X204200D01*
Y175000D01*
X209800D02*
X214200D01*
X209800Y170800D02*
Y175000D01*
Y170800D02*
X214200D01*
Y175000D01*
X219800D02*
X224200D01*
X219800Y170800D02*
Y175000D01*
Y170800D02*
X224200D01*
Y175000D01*
X229800D02*
X234200D01*
X229800Y170800D02*
Y175000D01*
Y170800D02*
X234200D01*
Y175000D01*
X239800D02*
X244200D01*
X239800Y170800D02*
Y175000D01*
Y170800D02*
X244200D01*
Y175000D01*
X249800D02*
X254200D01*
X249800Y170800D02*
Y175000D01*
Y170800D02*
X254200D01*
Y175000D01*
X259800D02*
X264200D01*
X259800Y170800D02*
Y175000D01*
Y170800D02*
X264200D01*
Y175000D01*
X188200D02*
Y201000D01*
Y175000D02*
X265800D01*
Y186800D01*
Y189200D01*
Y201000D01*
X188200D02*
X265800D01*
X259800Y282500D02*
X264200D01*
Y286700D01*
X259800D02*
X264200D01*
X259800Y282500D02*
Y286700D01*
X249800Y282500D02*
X254200D01*
Y286700D01*
X249800D02*
X254200D01*
X249800Y282500D02*
Y286700D01*
X239800Y282500D02*
X244200D01*
Y286700D01*
X239800D02*
X244200D01*
X239800Y282500D02*
Y286700D01*
X229800Y282500D02*
X234200D01*
Y286700D01*
X229800D02*
X234200D01*
X229800Y282500D02*
Y286700D01*
X219800Y282500D02*
X224200D01*
Y286700D01*
X219800D02*
X224200D01*
X219800Y282500D02*
Y286700D01*
X209800Y282500D02*
X214200D01*
Y286700D01*
X209800D02*
X214200D01*
X209800Y282500D02*
Y286700D01*
X199800Y282500D02*
X204200D01*
Y286700D01*
X199800D02*
X204200D01*
X199800Y282500D02*
Y286700D01*
X189800Y282500D02*
X194200D01*
Y286700D01*
X189800D02*
X194200D01*
X189800Y282500D02*
Y286700D01*
Y256500D02*
X194200D01*
X189800Y252300D02*
Y256500D01*
Y252300D02*
X194200D01*
Y256500D01*
X199800D02*
X204200D01*
X199800Y252300D02*
Y256500D01*
Y252300D02*
X204200D01*
Y256500D01*
X209800D02*
X214200D01*
X209800Y252300D02*
Y256500D01*
Y252300D02*
X214200D01*
Y256500D01*
X219800D02*
X224200D01*
X219800Y252300D02*
Y256500D01*
Y252300D02*
X224200D01*
Y256500D01*
X229800D02*
X234200D01*
X229800Y252300D02*
Y256500D01*
Y252300D02*
X234200D01*
Y256500D01*
X239800D02*
X244200D01*
X239800Y252300D02*
Y256500D01*
Y252300D02*
X244200D01*
Y256500D01*
X249800D02*
X254200D01*
X249800Y252300D02*
Y256500D01*
Y252300D02*
X254200D01*
Y256500D01*
X259800D02*
X264200D01*
X259800Y252300D02*
Y256500D01*
Y252300D02*
X264200D01*
Y256500D01*
X188200D02*
Y282500D01*
Y256500D02*
X265800D01*
Y268300D01*
Y270700D01*
Y282500D01*
X188200D02*
X265800D01*
X259800D02*
X264200D01*
Y286700D01*
X259800D02*
X264200D01*
X259800Y282500D02*
Y286700D01*
X249800Y282500D02*
X254200D01*
Y286700D01*
X249800D02*
X254200D01*
X249800Y282500D02*
Y286700D01*
X239800Y282500D02*
X244200D01*
Y286700D01*
X239800D02*
X244200D01*
X239800Y282500D02*
Y286700D01*
X229800Y282500D02*
X234200D01*
Y286700D01*
X229800D02*
X234200D01*
X229800Y282500D02*
Y286700D01*
X219800Y282500D02*
X224200D01*
Y286700D01*
X219800D02*
X224200D01*
X219800Y282500D02*
Y286700D01*
X209800Y282500D02*
X214200D01*
Y286700D01*
X209800D02*
X214200D01*
X209800Y282500D02*
Y286700D01*
X199800Y282500D02*
X204200D01*
Y286700D01*
X199800D02*
X204200D01*
X199800Y282500D02*
Y286700D01*
X189800Y282500D02*
X194200D01*
Y286700D01*
X189800D02*
X194200D01*
X189800Y282500D02*
Y286700D01*
Y256500D02*
X194200D01*
X189800Y252300D02*
Y256500D01*
Y252300D02*
X194200D01*
Y256500D01*
X199800D02*
X204200D01*
X199800Y252300D02*
Y256500D01*
Y252300D02*
X204200D01*
Y256500D01*
X209800D02*
X214200D01*
X209800Y252300D02*
Y256500D01*
Y252300D02*
X214200D01*
Y256500D01*
X219800D02*
X224200D01*
X219800Y252300D02*
Y256500D01*
Y252300D02*
X224200D01*
Y256500D01*
X229800D02*
X234200D01*
X229800Y252300D02*
Y256500D01*
Y252300D02*
X234200D01*
Y256500D01*
X239800D02*
X244200D01*
X239800Y252300D02*
Y256500D01*
Y252300D02*
X244200D01*
Y256500D01*
X249800D02*
X254200D01*
X249800Y252300D02*
Y256500D01*
Y252300D02*
X254200D01*
Y256500D01*
X259800D02*
X264200D01*
X259800Y252300D02*
Y256500D01*
Y252300D02*
X264200D01*
Y256500D01*
X188200D02*
Y282500D01*
Y256500D02*
X265800D01*
Y268300D01*
Y270700D01*
Y282500D01*
X188200D02*
X265800D01*
X259800Y362000D02*
X264200D01*
Y366200D01*
X259800D02*
X264200D01*
X259800Y362000D02*
Y366200D01*
X249800Y362000D02*
X254200D01*
Y366200D01*
X249800D02*
X254200D01*
X249800Y362000D02*
Y366200D01*
X239800Y362000D02*
X244200D01*
Y366200D01*
X239800D02*
X244200D01*
X239800Y362000D02*
Y366200D01*
X229800Y362000D02*
X234200D01*
Y366200D01*
X229800D02*
X234200D01*
X229800Y362000D02*
Y366200D01*
X219800Y362000D02*
X224200D01*
Y366200D01*
X219800D02*
X224200D01*
X219800Y362000D02*
Y366200D01*
X209800Y362000D02*
X214200D01*
Y366200D01*
X209800D02*
X214200D01*
X209800Y362000D02*
Y366200D01*
X199800Y362000D02*
X204200D01*
Y366200D01*
X199800D02*
X204200D01*
X199800Y362000D02*
Y366200D01*
X189800Y362000D02*
X194200D01*
Y366200D01*
X189800D02*
X194200D01*
X189800Y362000D02*
Y366200D01*
Y336000D02*
X194200D01*
X189800Y331800D02*
Y336000D01*
Y331800D02*
X194200D01*
Y336000D01*
X199800D02*
X204200D01*
X199800Y331800D02*
Y336000D01*
Y331800D02*
X204200D01*
Y336000D01*
X209800D02*
X214200D01*
X209800Y331800D02*
Y336000D01*
Y331800D02*
X214200D01*
Y336000D01*
X219800D02*
X224200D01*
X219800Y331800D02*
Y336000D01*
Y331800D02*
X224200D01*
Y336000D01*
X229800D02*
X234200D01*
X229800Y331800D02*
Y336000D01*
Y331800D02*
X234200D01*
Y336000D01*
X239800D02*
X244200D01*
X239800Y331800D02*
Y336000D01*
Y331800D02*
X244200D01*
Y336000D01*
X249800D02*
X254200D01*
X249800Y331800D02*
Y336000D01*
Y331800D02*
X254200D01*
Y336000D01*
X259800D02*
X264200D01*
X259800Y331800D02*
Y336000D01*
Y331800D02*
X264200D01*
Y336000D01*
X188200D02*
Y362000D01*
Y336000D02*
X265800D01*
Y347800D01*
Y350200D01*
Y362000D01*
X188200D02*
X265800D01*
X259800D02*
X264200D01*
Y366200D01*
X259800D02*
X264200D01*
X259800Y362000D02*
Y366200D01*
X249800Y362000D02*
X254200D01*
Y366200D01*
X249800D02*
X254200D01*
X249800Y362000D02*
Y366200D01*
X239800Y362000D02*
X244200D01*
Y366200D01*
X239800D02*
X244200D01*
X239800Y362000D02*
Y366200D01*
X229800Y362000D02*
X234200D01*
Y366200D01*
X229800D02*
X234200D01*
X229800Y362000D02*
Y366200D01*
X219800Y362000D02*
X224200D01*
Y366200D01*
X219800D02*
X224200D01*
X219800Y362000D02*
Y366200D01*
X209800Y362000D02*
X214200D01*
Y366200D01*
X209800D02*
X214200D01*
X209800Y362000D02*
Y366200D01*
X199800Y362000D02*
X204200D01*
Y366200D01*
X199800D02*
X204200D01*
X199800Y362000D02*
Y366200D01*
X189800Y362000D02*
X194200D01*
Y366200D01*
X189800D02*
X194200D01*
X189800Y362000D02*
Y366200D01*
Y336000D02*
X194200D01*
X189800Y331800D02*
Y336000D01*
Y331800D02*
X194200D01*
Y336000D01*
X199800D02*
X204200D01*
X199800Y331800D02*
Y336000D01*
Y331800D02*
X204200D01*
Y336000D01*
X209800D02*
X214200D01*
X209800Y331800D02*
Y336000D01*
Y331800D02*
X214200D01*
Y336000D01*
X219800D02*
X224200D01*
X219800Y331800D02*
Y336000D01*
Y331800D02*
X224200D01*
Y336000D01*
X229800D02*
X234200D01*
X229800Y331800D02*
Y336000D01*
Y331800D02*
X234200D01*
Y336000D01*
X239800D02*
X244200D01*
X239800Y331800D02*
Y336000D01*
Y331800D02*
X244200D01*
Y336000D01*
X249800D02*
X254200D01*
X249800Y331800D02*
Y336000D01*
Y331800D02*
X254200D01*
Y336000D01*
X259800D02*
X264200D01*
X259800Y331800D02*
Y336000D01*
Y331800D02*
X264200D01*
Y336000D01*
X188200D02*
Y362000D01*
Y336000D02*
X265800D01*
Y347800D01*
Y350200D01*
Y362000D01*
X188200D02*
X265800D01*
X337000Y258800D02*
Y263200D01*
X332800D02*
X337000D01*
X332800Y258800D02*
Y263200D01*
Y258800D02*
X337000D01*
Y248800D02*
Y253200D01*
X332800D02*
X337000D01*
X332800Y248800D02*
Y253200D01*
Y248800D02*
X337000D01*
Y238800D02*
Y243200D01*
X332800D02*
X337000D01*
X332800Y238800D02*
Y243200D01*
Y238800D02*
X337000D01*
Y228800D02*
Y233200D01*
X332800D02*
X337000D01*
X332800Y228800D02*
Y233200D01*
Y228800D02*
X337000D01*
Y218800D02*
Y223200D01*
X332800D02*
X337000D01*
X332800Y218800D02*
Y223200D01*
Y218800D02*
X337000D01*
Y208800D02*
Y213200D01*
X332800D02*
X337000D01*
X332800Y208800D02*
Y213200D01*
Y208800D02*
X337000D01*
Y198800D02*
Y203200D01*
X332800D02*
X337000D01*
X332800Y198800D02*
Y203200D01*
Y198800D02*
X337000D01*
Y188800D02*
Y193200D01*
X332800D02*
X337000D01*
X332800Y188800D02*
Y193200D01*
Y188800D02*
X337000D01*
X363000D02*
Y193200D01*
Y188800D02*
X367200D01*
Y193200D01*
X363000D02*
X367200D01*
X363000Y198800D02*
Y203200D01*
Y198800D02*
X367200D01*
Y203200D01*
X363000D02*
X367200D01*
X363000Y208800D02*
Y213200D01*
Y208800D02*
X367200D01*
Y213200D01*
X363000D02*
X367200D01*
X363000Y218800D02*
Y223200D01*
Y218800D02*
X367200D01*
Y223200D01*
X363000D02*
X367200D01*
X363000Y228800D02*
Y233200D01*
Y228800D02*
X367200D01*
Y233200D01*
X363000D02*
X367200D01*
X363000Y238800D02*
Y243200D01*
Y238800D02*
X367200D01*
Y243200D01*
X363000D02*
X367200D01*
X363000Y248800D02*
Y253200D01*
Y248800D02*
X367200D01*
Y253200D01*
X363000D02*
X367200D01*
X363000Y258800D02*
Y263200D01*
Y258800D02*
X367200D01*
Y263200D01*
X363000D02*
X367200D01*
X337000Y187200D02*
X363000D01*
Y264800D01*
X351200D02*
X363000D01*
X348800D02*
X351200D01*
X337000D02*
X348800D01*
X337000Y187200D02*
Y264800D01*
Y258800D02*
Y263200D01*
X332800D02*
X337000D01*
X332800Y258800D02*
Y263200D01*
Y258800D02*
X337000D01*
Y248800D02*
Y253200D01*
X332800D02*
X337000D01*
X332800Y248800D02*
Y253200D01*
Y248800D02*
X337000D01*
Y238800D02*
Y243200D01*
X332800D02*
X337000D01*
X332800Y238800D02*
Y243200D01*
Y238800D02*
X337000D01*
Y228800D02*
Y233200D01*
X332800D02*
X337000D01*
X332800Y228800D02*
Y233200D01*
Y228800D02*
X337000D01*
Y218800D02*
Y223200D01*
X332800D02*
X337000D01*
X332800Y218800D02*
Y223200D01*
Y218800D02*
X337000D01*
Y208800D02*
Y213200D01*
X332800D02*
X337000D01*
X332800Y208800D02*
Y213200D01*
Y208800D02*
X337000D01*
Y198800D02*
Y203200D01*
X332800D02*
X337000D01*
X332800Y198800D02*
Y203200D01*
Y198800D02*
X337000D01*
Y188800D02*
Y193200D01*
X332800D02*
X337000D01*
X332800Y188800D02*
Y193200D01*
Y188800D02*
X337000D01*
X363000D02*
Y193200D01*
Y188800D02*
X367200D01*
Y193200D01*
X363000D02*
X367200D01*
X363000Y198800D02*
Y203200D01*
Y198800D02*
X367200D01*
Y203200D01*
X363000D02*
X367200D01*
X363000Y208800D02*
Y213200D01*
Y208800D02*
X367200D01*
Y213200D01*
X363000D02*
X367200D01*
X363000Y218800D02*
Y223200D01*
Y218800D02*
X367200D01*
Y223200D01*
X363000D02*
X367200D01*
X363000Y228800D02*
Y233200D01*
Y228800D02*
X367200D01*
Y233200D01*
X363000D02*
X367200D01*
X363000Y238800D02*
Y243200D01*
Y238800D02*
X367200D01*
Y243200D01*
X363000D02*
X367200D01*
X363000Y248800D02*
Y253200D01*
Y248800D02*
X367200D01*
Y253200D01*
X363000D02*
X367200D01*
X363000Y258800D02*
Y263200D01*
Y258800D02*
X367200D01*
Y263200D01*
X363000D02*
X367200D01*
X337000Y187200D02*
X363000D01*
Y264800D01*
X351200D02*
X363000D01*
X348800D02*
X351200D01*
X337000D02*
X348800D01*
X337000Y187200D02*
Y264800D01*
D32*
X80358Y18657D02*
G03*
X80358Y18657I-394J0D01*
G01*
D02*
G03*
X80358Y18657I-394J0D01*
G01*
Y98658D02*
G03*
X80358Y98658I-394J0D01*
G01*
D02*
G03*
X80358Y98658I-394J0D01*
G01*
Y178657D02*
G03*
X80358Y178657I-394J0D01*
G01*
D02*
G03*
X80358Y178657I-394J0D01*
G01*
Y260157D02*
G03*
X80358Y260157I-394J0D01*
G01*
D02*
G03*
X80358Y260157I-394J0D01*
G01*
Y339657D02*
G03*
X80358Y339657I-394J0D01*
G01*
D02*
G03*
X80358Y339657I-394J0D01*
G01*
X359736Y78965D02*
G03*
X359736Y78965I-394J0D01*
G01*
D02*
G03*
X359736Y78965I-394J0D01*
G01*
D34*
X353018Y324966D02*
G03*
X353018Y313908I8848J-5529D01*
G01*
Y324966D02*
G03*
X353018Y313908I8848J-5529D01*
G01*
X354518Y385466D02*
G03*
X354518Y374408I8848J-5529D01*
G01*
Y385466D02*
G03*
X354518Y374408I8848J-5529D01*
G01*
D35*
X83902Y14720D02*
Y41098D01*
X109098D01*
Y14720D02*
Y41098D01*
X83902Y14720D02*
X109098D01*
X83902D02*
Y41098D01*
X109098D01*
Y14720D02*
Y41098D01*
X83902Y14720D02*
X109098D01*
X83902Y94720D02*
Y121098D01*
X109098D01*
Y94720D02*
Y121098D01*
X83902Y94720D02*
X109098D01*
X83902D02*
Y121098D01*
X109098D01*
Y94720D02*
Y121098D01*
X83902Y94720D02*
X109098D01*
X83902Y174720D02*
Y201098D01*
X109098D01*
Y174720D02*
Y201098D01*
X83902Y174720D02*
X109098D01*
X83902D02*
Y201098D01*
X109098D01*
Y174720D02*
Y201098D01*
X83902Y174720D02*
X109098D01*
X83902Y256220D02*
Y282598D01*
X109098D01*
Y256220D02*
Y282598D01*
X83902Y256220D02*
X109098D01*
X83902D02*
Y282598D01*
X109098D01*
Y256220D02*
Y282598D01*
X83902Y256220D02*
X109098D01*
X83902Y335720D02*
Y362098D01*
X109098D01*
Y335720D02*
Y362098D01*
X83902Y335720D02*
X109098D01*
X83902D02*
Y362098D01*
X109098D01*
Y335720D02*
Y362098D01*
X83902Y335720D02*
X109098D01*
X336902Y82902D02*
X363280D01*
X336902D02*
Y108098D01*
X363280D01*
Y82902D02*
Y108098D01*
X336902Y82902D02*
X363280D01*
X336902D02*
Y108098D01*
X363280D01*
Y82902D02*
Y108098D01*
M02*
