G04 Layer_Color=65535*
%FSLAX25Y25*%
%MOIN*%
G70*
G01*
G75*
%ADD30C,0.00000*%
%ADD31C,0.00600*%
%ADD32C,0.00787*%
%ADD33C,0.01000*%
%ADD34C,0.00800*%
%ADD35C,0.00500*%
%ADD36C,0.01378*%
%ADD37C,0.01968*%
%ADD38C,0.01575*%
%ADD39C,0.01181*%
%ADD40C,0.00394*%
D30*
X265800Y29200D02*
G03*
X265800Y26800I0J-1200D01*
G01*
Y109200D02*
G03*
X265800Y106800I0J-1200D01*
G01*
Y189200D02*
G03*
X265800Y186800I0J-1200D01*
G01*
Y270700D02*
G03*
X265800Y268300I0J-1200D01*
G01*
Y350200D02*
G03*
X265800Y347800I0J-1200D01*
G01*
X348800Y264800D02*
G03*
X351200Y264800I1200J0D01*
G01*
D31*
X129500Y26800D02*
G03*
X129500Y29200I0J1200D01*
G01*
Y106800D02*
G03*
X129500Y109200I0J1200D01*
G01*
Y186800D02*
G03*
X129500Y189200I0J1200D01*
G01*
Y268300D02*
G03*
X129500Y270700I0J1200D01*
G01*
Y347800D02*
G03*
X129500Y350200I0J1200D01*
G01*
X351200Y128500D02*
G03*
X348800Y128500I-1200J0D01*
G01*
X188200Y16500D02*
Y39500D01*
X265800Y16500D02*
Y26800D01*
Y29200D01*
Y37800D01*
X169500Y14300D02*
Y41700D01*
X129500Y29200D02*
Y41700D01*
Y26800D02*
Y29200D01*
Y17500D02*
Y26800D01*
X188200Y96500D02*
Y119500D01*
X265800Y96500D02*
Y106800D01*
Y109200D01*
Y117800D01*
X169500Y94300D02*
Y121700D01*
X129500Y109200D02*
Y121700D01*
Y106800D02*
Y109200D01*
Y97500D02*
Y106800D01*
X188200Y176500D02*
Y199500D01*
X265800Y176500D02*
Y186800D01*
Y189200D01*
Y197800D01*
X169500Y174300D02*
Y201700D01*
X129500Y189200D02*
Y201700D01*
Y186800D02*
Y189200D01*
Y177500D02*
Y186800D01*
X188200Y258000D02*
Y281000D01*
X265800Y258000D02*
Y268300D01*
Y270700D01*
Y279300D01*
X169500Y255800D02*
Y283200D01*
X129500Y270700D02*
Y283200D01*
Y268300D02*
Y270700D01*
Y259000D02*
Y268300D01*
X188200Y337500D02*
Y360500D01*
X265800Y337500D02*
Y347800D01*
Y350200D01*
Y358800D01*
X169500Y335300D02*
Y362700D01*
X129500Y350200D02*
Y362700D01*
Y347800D02*
Y350200D01*
Y338500D02*
Y347800D01*
X338500Y187200D02*
X361500D01*
X351200Y264800D02*
X361500D01*
X348800D02*
X351200D01*
X340200D02*
X348800D01*
X336300Y168500D02*
X363700D01*
X336300Y128500D02*
X348800D01*
X351200D01*
X360500D01*
D32*
X80358Y18657D02*
G03*
X80358Y18657I-394J0D01*
G01*
X58226Y35161D02*
G03*
X57268Y21360I3274J-7161D01*
G01*
X65732D02*
G03*
X64774Y35161I-4232J6640D01*
G01*
X58226Y115161D02*
G03*
X57268Y101360I3274J-7161D01*
G01*
X65732D02*
G03*
X64774Y115161I-4232J6640D01*
G01*
X80358Y98658D02*
G03*
X80358Y98658I-394J0D01*
G01*
X58226Y195161D02*
G03*
X57268Y181360I3274J-7161D01*
G01*
X65732D02*
G03*
X64774Y195161I-4232J6640D01*
G01*
X80358Y178657D02*
G03*
X80358Y178657I-394J0D01*
G01*
X58226Y276661D02*
G03*
X57268Y262860I3274J-7161D01*
G01*
X65732D02*
G03*
X64774Y276661I-4232J6640D01*
G01*
X80358Y260157D02*
G03*
X80358Y260157I-394J0D01*
G01*
X58226Y356161D02*
G03*
X57268Y342360I3274J-7161D01*
G01*
X65732D02*
G03*
X64774Y356161I-4232J6640D01*
G01*
X80358Y339657D02*
G03*
X80358Y339657I-394J0D01*
G01*
X342839Y57226D02*
G03*
X356640Y56268I7161J3274D01*
G01*
Y64732D02*
G03*
X342839Y63774I-6640J-4232D01*
G01*
X359736Y78965D02*
G03*
X359736Y78965I-394J0D01*
G01*
X359289Y356598D02*
G03*
X358331Y342797I3274J-7161D01*
G01*
X366795D02*
G03*
X365837Y356598I-4232J6640D01*
G01*
X329902Y347163D02*
G03*
X343703Y346205I7161J3274D01*
G01*
Y354669D02*
G03*
X329902Y353711I-6640J-4232D01*
G01*
X279500Y39500D02*
X282500D01*
X279500Y19500D02*
Y39500D01*
Y19500D02*
X285500D01*
Y39500D01*
X282500D02*
X285500D01*
X282500Y18600D02*
Y19500D01*
Y39500D02*
Y40400D01*
X34500Y38000D02*
X37500D01*
X34500Y18000D02*
Y38000D01*
Y18000D02*
X40500D01*
Y38000D01*
X37500D02*
X40500D01*
X37500Y17100D02*
Y18000D01*
Y38000D02*
Y38900D01*
X10000Y19000D02*
X20000D01*
X10000D02*
Y39000D01*
X20000D01*
Y19000D02*
Y39000D01*
X34500Y118000D02*
X37500D01*
X34500Y98000D02*
Y118000D01*
Y98000D02*
X40500D01*
Y118000D01*
X37500D02*
X40500D01*
X37500Y97100D02*
Y98000D01*
Y118000D02*
Y118900D01*
X279500Y119500D02*
X282500D01*
X279500Y99500D02*
Y119500D01*
Y99500D02*
X285500D01*
Y119500D01*
X282500D02*
X285500D01*
X282500Y98600D02*
Y99500D01*
Y119500D02*
Y120400D01*
X10000Y99000D02*
X20000D01*
X10000D02*
Y119000D01*
X20000D01*
Y99000D02*
Y119000D01*
X34500Y198000D02*
X37500D01*
X34500Y178000D02*
Y198000D01*
Y178000D02*
X40500D01*
Y198000D01*
X37500D02*
X40500D01*
X37500Y177100D02*
Y178000D01*
Y198000D02*
Y198900D01*
X279500Y199500D02*
X282500D01*
X279500Y179500D02*
Y199500D01*
Y179500D02*
X285500D01*
Y199500D01*
X282500D02*
X285500D01*
X282500Y178600D02*
Y179500D01*
Y199500D02*
Y200400D01*
X10000Y179000D02*
X20000D01*
X10000D02*
Y199000D01*
X20000D01*
Y179000D02*
Y199000D01*
X34500Y279500D02*
X37500D01*
X34500Y259500D02*
Y279500D01*
Y259500D02*
X40500D01*
Y279500D01*
X37500D02*
X40500D01*
X37500Y258600D02*
Y259500D01*
Y279500D02*
Y280400D01*
X279500Y281000D02*
X282500D01*
X279500Y261000D02*
Y281000D01*
Y261000D02*
X285500D01*
Y281000D01*
X282500D02*
X285500D01*
X282500Y260100D02*
Y261000D01*
Y281000D02*
Y281900D01*
X10000Y260500D02*
X20000D01*
X10000D02*
Y280500D01*
X20000D01*
Y260500D02*
Y280500D01*
X34500Y359000D02*
X37500D01*
X34500Y339000D02*
Y359000D01*
Y339000D02*
X40500D01*
Y359000D01*
X37500D02*
X40500D01*
X37500Y338100D02*
Y339000D01*
Y359000D02*
Y359900D01*
X279500Y360500D02*
X282500D01*
X279500Y340500D02*
Y360500D01*
Y340500D02*
X285500D01*
Y360500D01*
X282500D02*
X285500D01*
X282500Y339600D02*
Y340500D01*
Y360500D02*
Y361400D01*
X10000Y340000D02*
X20000D01*
X10000D02*
Y360000D01*
X20000D01*
Y340000D02*
Y360000D01*
X340000Y33500D02*
Y36500D01*
Y33500D02*
X360000D01*
Y39500D01*
X340000D02*
X360000D01*
X340000Y36500D02*
Y39500D01*
X360000Y36500D02*
X360900D01*
X339100D02*
X340000D01*
X338500Y278500D02*
Y281500D01*
Y278500D02*
X358500D01*
Y284500D01*
X338500D02*
X358500D01*
X338500Y281500D02*
Y284500D01*
X358500Y281500D02*
X359400D01*
X337600D02*
X338500D01*
X359000Y9000D02*
Y19000D01*
X339000Y9000D02*
X359000D01*
X339000D02*
Y19000D01*
X359000D01*
X338563Y390937D02*
X348563D01*
Y370937D02*
Y390937D01*
X338563Y370937D02*
X348563D01*
X338563D02*
Y390937D01*
X322063Y333937D02*
Y336937D01*
Y333937D02*
X342063D01*
Y339937D01*
X322063D02*
X342063D01*
X322063Y336937D02*
Y339937D01*
X342063Y336937D02*
X342963D01*
X321163D02*
X322063D01*
Y360937D02*
Y363937D01*
Y360937D02*
X342063D01*
Y366937D01*
X322063D02*
X342063D01*
X322063Y363937D02*
Y366937D01*
X342063Y363937D02*
X342963D01*
X321163D02*
X322063D01*
X284500Y26000D02*
Y27312D01*
Y26656D01*
X280564D01*
X281220Y26000D01*
Y29280D02*
X280564Y29936D01*
Y31248D01*
X281220Y31904D01*
X283844D01*
X284500Y31248D01*
Y29936D01*
X283844Y29280D01*
X281220D01*
X57124Y26500D02*
X54500D01*
X57124Y29124D01*
Y29780D01*
X56468Y30436D01*
X55156D01*
X54500Y29780D01*
X58436Y26500D02*
Y27156D01*
X59092D01*
Y26500D01*
X58436D01*
X64339D02*
X61716D01*
X64339Y29124D01*
Y29780D01*
X63683Y30436D01*
X62371D01*
X61716Y29780D01*
X65651Y29124D02*
Y27156D01*
X66307Y26500D01*
X68275D01*
Y29124D01*
X57124Y106500D02*
X54500D01*
X57124Y109124D01*
Y109780D01*
X56468Y110436D01*
X55156D01*
X54500Y109780D01*
X58436Y106500D02*
Y107156D01*
X59092D01*
Y106500D01*
X58436D01*
X64339D02*
X61716D01*
X64339Y109124D01*
Y109780D01*
X63683Y110436D01*
X62371D01*
X61716Y109780D01*
X65651Y109124D02*
Y107156D01*
X66307Y106500D01*
X68275D01*
Y109124D01*
X284500Y106000D02*
Y107312D01*
Y106656D01*
X280564D01*
X281220Y106000D01*
Y109280D02*
X280564Y109936D01*
Y111248D01*
X281220Y111904D01*
X283844D01*
X284500Y111248D01*
Y109936D01*
X283844Y109280D01*
X281220D01*
X57124Y186500D02*
X54500D01*
X57124Y189124D01*
Y189780D01*
X56468Y190436D01*
X55156D01*
X54500Y189780D01*
X58436Y186500D02*
Y187156D01*
X59092D01*
Y186500D01*
X58436D01*
X64339D02*
X61716D01*
X64339Y189124D01*
Y189780D01*
X63683Y190436D01*
X62371D01*
X61716Y189780D01*
X65651Y189124D02*
Y187156D01*
X66307Y186500D01*
X68275D01*
Y189124D01*
X284500Y186500D02*
Y187812D01*
Y187156D01*
X280564D01*
X281220Y186500D01*
Y189780D02*
X280564Y190436D01*
Y191748D01*
X281220Y192404D01*
X283844D01*
X284500Y191748D01*
Y190436D01*
X283844Y189780D01*
X281220D01*
X57124Y268000D02*
X54500D01*
X57124Y270624D01*
Y271280D01*
X56468Y271936D01*
X55156D01*
X54500Y271280D01*
X58436Y268000D02*
Y268656D01*
X59092D01*
Y268000D01*
X58436D01*
X64339D02*
X61716D01*
X64339Y270624D01*
Y271280D01*
X63683Y271936D01*
X62371D01*
X61716Y271280D01*
X65651Y270624D02*
Y268656D01*
X66307Y268000D01*
X68275D01*
Y270624D01*
X284500Y267500D02*
Y268812D01*
Y268156D01*
X280564D01*
X281220Y267500D01*
Y270780D02*
X280564Y271436D01*
Y272748D01*
X281220Y273404D01*
X283844D01*
X284500Y272748D01*
Y271436D01*
X283844Y270780D01*
X281220D01*
X57124Y347500D02*
X54500D01*
X57124Y350124D01*
Y350780D01*
X56468Y351436D01*
X55156D01*
X54500Y350780D01*
X58436Y347500D02*
Y348156D01*
X59092D01*
Y347500D01*
X58436D01*
X64339D02*
X61716D01*
X64339Y350124D01*
Y350780D01*
X63683Y351436D01*
X62371D01*
X61716Y350780D01*
X65651Y350124D02*
Y348156D01*
X66307Y347500D01*
X68275D01*
Y350124D01*
X284500Y346500D02*
Y347812D01*
Y347156D01*
X280564D01*
X281220Y346500D01*
Y349780D02*
X280564Y350436D01*
Y351748D01*
X281220Y352404D01*
X283844D01*
X284500Y351748D01*
Y350436D01*
X283844Y349780D01*
X281220D01*
X351500Y56124D02*
Y53500D01*
X348876Y56124D01*
X348220D01*
X347564Y55468D01*
Y54156D01*
X348220Y53500D01*
X351500Y57436D02*
X350844D01*
Y58092D01*
X351500D01*
Y57436D01*
Y63339D02*
Y60716D01*
X348876Y63339D01*
X348220D01*
X347564Y62683D01*
Y61371D01*
X348220Y60716D01*
X348876Y64651D02*
X350844D01*
X351500Y65307D01*
Y67275D01*
X348876D01*
X351000Y283500D02*
X349688D01*
X350344D01*
Y279564D01*
X351000Y280220D01*
X347720D02*
X347064Y279564D01*
X345752D01*
X345096Y280220D01*
Y282844D01*
X345752Y283500D01*
X347064D01*
X347720Y282844D01*
Y280220D01*
X350783Y387437D02*
X350127Y388093D01*
Y389405D01*
X350783Y390061D01*
X351439D01*
X352095Y389405D01*
Y388749D01*
Y389405D01*
X352751Y390061D01*
X353407D01*
X354063Y389405D01*
Y388093D01*
X353407Y387437D01*
X350127Y391373D02*
X352751D01*
X354063Y392685D01*
X352751Y393997D01*
X350127D01*
X336563Y335657D02*
X335907Y335001D01*
X334595D01*
X333939Y335657D01*
Y336313D01*
X334595Y336969D01*
X335251D01*
X334595D01*
X333939Y337625D01*
Y338281D01*
X334595Y338937D01*
X335907D01*
X336563Y338281D01*
X332627Y335657D02*
X331971Y335001D01*
X330659D01*
X330003Y335657D01*
Y336313D01*
X330659Y336969D01*
X331315D01*
X330659D01*
X330003Y337625D01*
Y338281D01*
X330659Y338937D01*
X331971D01*
X332627Y338281D01*
X328692Y335001D02*
Y338937D01*
Y337625D01*
X326068Y335001D01*
X328036Y336969D01*
X326068Y338937D01*
X335063Y362657D02*
X334407Y362001D01*
X333095D01*
X332439Y362657D01*
Y363313D01*
X333095Y363969D01*
X333751D01*
X333095D01*
X332439Y364625D01*
Y365281D01*
X333095Y365937D01*
X334407D01*
X335063Y365281D01*
X331127Y362657D02*
X330471Y362001D01*
X329159D01*
X328503Y362657D01*
Y363313D01*
X329159Y363969D01*
X329815D01*
X329159D01*
X328503Y364625D01*
Y365281D01*
X329159Y365937D01*
X330471D01*
X331127Y365281D01*
X327191Y362001D02*
Y365937D01*
Y364625D01*
X324568Y362001D01*
X326536Y363969D01*
X324568Y365937D01*
X374063Y310561D02*
Y307937D01*
X371439Y310561D01*
X370783D01*
X370127Y309905D01*
Y308593D01*
X370783Y307937D01*
X374063Y311873D02*
X370127D01*
X374063Y314497D01*
X370127D01*
X374063Y318432D02*
Y315809D01*
X371439Y318432D01*
X370783D01*
X370127Y317776D01*
Y316464D01*
X370783Y315809D01*
X374063Y322368D02*
Y319744D01*
X371439Y322368D01*
X370783D01*
X370127Y321712D01*
Y320400D01*
X370783Y319744D01*
X374063Y326304D02*
Y323680D01*
X371439Y326304D01*
X370783D01*
X370127Y325648D01*
Y324336D01*
X370783Y323680D01*
X374063Y330240D02*
Y327616D01*
X371439Y330240D01*
X370783D01*
X370127Y329584D01*
Y328272D01*
X370783Y327616D01*
X374063Y370561D02*
Y367937D01*
X371439Y370561D01*
X370783D01*
X370127Y369905D01*
Y368593D01*
X370783Y367937D01*
X374063Y371873D02*
X370127D01*
X374063Y374497D01*
X370127D01*
X374063Y378432D02*
Y375809D01*
X371439Y378432D01*
X370783D01*
X370127Y377776D01*
Y376464D01*
X370783Y375809D01*
X374063Y382368D02*
Y379744D01*
X371439Y382368D01*
X370783D01*
X370127Y381712D01*
Y380400D01*
X370783Y379744D01*
X374063Y386304D02*
Y383680D01*
X371439Y386304D01*
X370783D01*
X370127Y385648D01*
Y384336D01*
X370783Y383680D01*
X374063Y390240D02*
Y387616D01*
X371439Y390240D01*
X370783D01*
X370127Y389584D01*
Y388272D01*
X370783Y387616D01*
D33*
X29933Y65000D02*
G03*
X29933Y65000I-10433J0D01*
G01*
X292933D02*
G03*
X292933Y65000I-10433J0D01*
G01*
X53933D02*
G03*
X53933Y65000I-10433J0D01*
G01*
X268933D02*
G03*
X268933Y65000I-10433J0D01*
G01*
X77433D02*
G03*
X77433Y65000I-10433J0D01*
G01*
X244933D02*
G03*
X244933Y65000I-10433J0D01*
G01*
X101433D02*
G03*
X101433Y65000I-10433J0D01*
G01*
X221433D02*
G03*
X221433Y65000I-10433J0D01*
G01*
X125433D02*
G03*
X125433Y65000I-10433J0D01*
G01*
X197433D02*
G03*
X197433Y65000I-10433J0D01*
G01*
X149433D02*
G03*
X149433Y65000I-10433J0D01*
G01*
X173433D02*
G03*
X173433Y65000I-10433J0D01*
G01*
X265471Y31845D02*
G03*
X265511Y24152I329J-3845D01*
G01*
X130000Y24000D02*
G03*
X129955Y32201I-455J4098D01*
G01*
X130000Y104000D02*
G03*
X129955Y112200I-455J4098D01*
G01*
X265471Y111845D02*
G03*
X265511Y104152I329J-3845D01*
G01*
X29933Y145000D02*
G03*
X29933Y145000I-10433J0D01*
G01*
X292933D02*
G03*
X292933Y145000I-10433J0D01*
G01*
X53933D02*
G03*
X53933Y145000I-10433J0D01*
G01*
X268933D02*
G03*
X268933Y145000I-10433J0D01*
G01*
X77433D02*
G03*
X77433Y145000I-10433J0D01*
G01*
X244933D02*
G03*
X244933Y145000I-10433J0D01*
G01*
X101433D02*
G03*
X101433Y145000I-10433J0D01*
G01*
X221433D02*
G03*
X221433Y145000I-10433J0D01*
G01*
X125433D02*
G03*
X125433Y145000I-10433J0D01*
G01*
X197433D02*
G03*
X197433Y145000I-10433J0D01*
G01*
X149433D02*
G03*
X149433Y145000I-10433J0D01*
G01*
X173433D02*
G03*
X173433Y145000I-10433J0D01*
G01*
X130000Y184000D02*
G03*
X129955Y192201I-455J4098D01*
G01*
X265471Y191845D02*
G03*
X265511Y184152I329J-3845D01*
G01*
X29933Y225000D02*
G03*
X29933Y225000I-10433J0D01*
G01*
X292933D02*
G03*
X292933Y225000I-10433J0D01*
G01*
X53933D02*
G03*
X53933Y225000I-10433J0D01*
G01*
X268933D02*
G03*
X268933Y225000I-10433J0D01*
G01*
X77433D02*
G03*
X77433Y225000I-10433J0D01*
G01*
X244933D02*
G03*
X244933Y225000I-10433J0D01*
G01*
X101433D02*
G03*
X101433Y225000I-10433J0D01*
G01*
X221433D02*
G03*
X221433Y225000I-10433J0D01*
G01*
X125433D02*
G03*
X125433Y225000I-10433J0D01*
G01*
X197433D02*
G03*
X197433Y225000I-10433J0D01*
G01*
X149433D02*
G03*
X149433Y225000I-10433J0D01*
G01*
X173433D02*
G03*
X173433Y225000I-10433J0D01*
G01*
X130000Y265500D02*
G03*
X129955Y273700I-455J4098D01*
G01*
X265471Y273345D02*
G03*
X265511Y265652I329J-3845D01*
G01*
X29933Y306500D02*
G03*
X29933Y306500I-10433J0D01*
G01*
X292933D02*
G03*
X292933Y306500I-10433J0D01*
G01*
X53933D02*
G03*
X53933Y306500I-10433J0D01*
G01*
X268933D02*
G03*
X268933Y306500I-10433J0D01*
G01*
X77433D02*
G03*
X77433Y306500I-10433J0D01*
G01*
X244933D02*
G03*
X244933Y306500I-10433J0D01*
G01*
X101433D02*
G03*
X101433Y306500I-10433J0D01*
G01*
X221433D02*
G03*
X221433Y306500I-10433J0D01*
G01*
X125433D02*
G03*
X125433Y306500I-10433J0D01*
G01*
X197433D02*
G03*
X197433Y306500I-10433J0D01*
G01*
X149433D02*
G03*
X149433Y306500I-10433J0D01*
G01*
X173433D02*
G03*
X173433Y306500I-10433J0D01*
G01*
X130000Y345000D02*
G03*
X129955Y353201I-455J4098D01*
G01*
X265471Y352845D02*
G03*
X265511Y345152I329J-3845D01*
G01*
X29933Y386000D02*
G03*
X29933Y386000I-10433J0D01*
G01*
X292933D02*
G03*
X292933Y386000I-10433J0D01*
G01*
X53933D02*
G03*
X53933Y386000I-10433J0D01*
G01*
X268933D02*
G03*
X268933Y386000I-10433J0D01*
G01*
X77433D02*
G03*
X77433Y386000I-10433J0D01*
G01*
X244933D02*
G03*
X244933Y386000I-10433J0D01*
G01*
X101433D02*
G03*
X101433Y386000I-10433J0D01*
G01*
X221433D02*
G03*
X221433Y386000I-10433J0D01*
G01*
X125433D02*
G03*
X125433Y386000I-10433J0D01*
G01*
X197433D02*
G03*
X197433Y386000I-10433J0D01*
G01*
X149433D02*
G03*
X149433Y386000I-10433J0D01*
G01*
X173433D02*
G03*
X173433Y386000I-10433J0D01*
G01*
X354000Y129000D02*
G03*
X345799Y128955I-4098J-455D01*
G01*
X346155Y264471D02*
G03*
X353848Y264511I3845J329D01*
G01*
X323433Y18500D02*
G03*
X323433Y18500I-10433J0D01*
G01*
Y281500D02*
G03*
X323433Y281500I-10433J0D01*
G01*
Y42500D02*
G03*
X323433Y42500I-10433J0D01*
G01*
Y257500D02*
G03*
X323433Y257500I-10433J0D01*
G01*
Y66000D02*
G03*
X323433Y66000I-10433J0D01*
G01*
Y233500D02*
G03*
X323433Y233500I-10433J0D01*
G01*
Y90000D02*
G03*
X323433Y90000I-10433J0D01*
G01*
Y210000D02*
G03*
X323433Y210000I-10433J0D01*
G01*
Y114000D02*
G03*
X323433Y114000I-10433J0D01*
G01*
Y186000D02*
G03*
X323433Y186000I-10433J0D01*
G01*
Y138000D02*
G03*
X323433Y138000I-10433J0D01*
G01*
Y162000D02*
G03*
X323433Y162000I-10433J0D01*
G01*
X336177Y319437D02*
G03*
X336177Y319437I-11614J0D01*
G01*
X334677Y380937D02*
G03*
X334677Y380937I-11614J0D01*
G01*
X3000Y2000D02*
X294776D01*
Y76803D01*
X3000D02*
X294776D01*
X3000Y2000D02*
Y76803D01*
Y82000D02*
Y156803D01*
X294776D01*
Y82000D02*
Y156803D01*
X3000Y82000D02*
X294776D01*
X3000Y162000D02*
Y236803D01*
X294776D01*
Y162000D02*
Y236803D01*
X3000Y162000D02*
X294776D01*
X3000Y243500D02*
Y318303D01*
X294776D01*
Y243500D02*
Y318303D01*
X3000Y243500D02*
X294776D01*
X3000Y323000D02*
Y397803D01*
X294776D01*
Y323000D02*
Y397803D01*
X3000Y323000D02*
X294776D01*
X301197Y2000D02*
X376000D01*
X301197D02*
Y293776D01*
X376000D01*
Y2000D02*
Y293776D01*
X303063Y303937D02*
X375563D01*
X303063D02*
Y396437D01*
X375563D01*
Y303937D02*
Y396437D01*
X39500Y24500D02*
Y25812D01*
Y25156D01*
X35564D01*
X36220Y24500D01*
Y27780D02*
X35564Y28436D01*
Y29748D01*
X36220Y30404D01*
X38844D01*
X39500Y29748D01*
Y28436D01*
X38844Y27780D01*
X36220D01*
X35564Y31716D02*
X39500D01*
X38188D01*
X35564Y34339D01*
X37532Y32372D01*
X39500Y34339D01*
X86500Y25500D02*
X88468D01*
X87484D01*
Y31404D01*
X86500Y30420D01*
X91420D02*
X92404Y31404D01*
X94371D01*
X95355Y30420D01*
Y26484D01*
X94371Y25500D01*
X92404D01*
X91420Y26484D01*
Y30420D01*
X97323D02*
X98307Y31404D01*
X100275D01*
X101259Y30420D01*
Y26484D01*
X100275Y25500D01*
X98307D01*
X97323Y26484D01*
Y30420D01*
X103227Y31404D02*
Y25500D01*
Y27468D01*
X107163Y31404D01*
X104211Y28452D01*
X107163Y25500D01*
X53500Y17999D02*
X57499D01*
X55499Y19998D02*
Y16000D01*
X52500Y36999D02*
X56499D01*
X11500Y60499D02*
X15499D01*
X13499Y62498D02*
Y58500D01*
X35500Y60499D02*
X39499D01*
X37499Y62498D02*
Y58500D01*
X59000Y60499D02*
X62999D01*
X60999Y62498D02*
Y58500D01*
X83000Y60499D02*
X86999D01*
X84999Y62498D02*
Y58500D01*
X107000Y60499D02*
X110999D01*
X108999Y62498D02*
Y58500D01*
X131000Y60499D02*
X134999D01*
X132999Y62498D02*
Y58500D01*
X155000Y60499D02*
X158999D01*
X156999Y62498D02*
Y58500D01*
X179000Y60499D02*
X182999D01*
X180999Y62498D02*
Y58500D01*
X203000Y60499D02*
X206999D01*
X204999Y62498D02*
Y58500D01*
X226500Y60499D02*
X230499D01*
X228499Y62498D02*
Y58500D01*
X250500Y60499D02*
X254499D01*
X252499Y62498D02*
Y58500D01*
X274500Y60499D02*
X278499D01*
X276499Y62498D02*
Y58500D01*
X12000Y68999D02*
X15999D01*
X35500D02*
X39499D01*
X59000D02*
X62999D01*
X83000D02*
X86999D01*
X107000D02*
X110999D01*
X131000D02*
X134999D01*
X155000D02*
X158999D01*
X179000D02*
X182999D01*
X203000D02*
X206999D01*
X226500D02*
X230499D01*
X250500D02*
X254499D01*
X274500D02*
X278499D01*
X4500Y23499D02*
X8499D01*
X4500Y33999D02*
X8499D01*
X6499Y35998D02*
Y32000D01*
X4500Y113999D02*
X8499D01*
X6499Y115998D02*
Y112000D01*
X4500Y103499D02*
X8499D01*
X274500Y148999D02*
X278499D01*
X250500D02*
X254499D01*
X226500D02*
X230499D01*
X203000D02*
X206999D01*
X179000D02*
X182999D01*
X155000D02*
X158999D01*
X131000D02*
X134999D01*
X107000D02*
X110999D01*
X83000D02*
X86999D01*
X59000D02*
X62999D01*
X35500D02*
X39499D01*
X12000D02*
X15999D01*
X274500Y140499D02*
X278499D01*
X276499Y142498D02*
Y138500D01*
X250500Y140499D02*
X254499D01*
X252499Y142498D02*
Y138500D01*
X226500Y140499D02*
X230499D01*
X228499Y142498D02*
Y138500D01*
X203000Y140499D02*
X206999D01*
X204999Y142498D02*
Y138500D01*
X179000Y140499D02*
X182999D01*
X180999Y142498D02*
Y138500D01*
X155000Y140499D02*
X158999D01*
X156999Y142498D02*
Y138500D01*
X131000Y140499D02*
X134999D01*
X132999Y142498D02*
Y138500D01*
X107000Y140499D02*
X110999D01*
X108999Y142498D02*
Y138500D01*
X83000Y140499D02*
X86999D01*
X84999Y142498D02*
Y138500D01*
X59000Y140499D02*
X62999D01*
X60999Y142498D02*
Y138500D01*
X35500Y140499D02*
X39499D01*
X37499Y142498D02*
Y138500D01*
X11500Y140499D02*
X15499D01*
X13499Y142498D02*
Y138500D01*
X52500Y116999D02*
X56499D01*
X53500Y97999D02*
X57499D01*
X55499Y99998D02*
Y96000D01*
X86500Y105500D02*
X88468D01*
X87484D01*
Y111404D01*
X86500Y110420D01*
X91420D02*
X92404Y111404D01*
X94371D01*
X95355Y110420D01*
Y106484D01*
X94371Y105500D01*
X92404D01*
X91420Y106484D01*
Y110420D01*
X97323D02*
X98307Y111404D01*
X100275D01*
X101259Y110420D01*
Y106484D01*
X100275Y105500D01*
X98307D01*
X97323Y106484D01*
Y110420D01*
X103227Y111404D02*
Y105500D01*
Y107468D01*
X107163Y111404D01*
X104211Y108452D01*
X107163Y105500D01*
X39500Y104500D02*
Y105812D01*
Y105156D01*
X35564D01*
X36220Y104500D01*
Y107780D02*
X35564Y108436D01*
Y109748D01*
X36220Y110404D01*
X38844D01*
X39500Y109748D01*
Y108436D01*
X38844Y107780D01*
X36220D01*
X35564Y111715D02*
X39500D01*
X38188D01*
X35564Y114339D01*
X37532Y112372D01*
X39500Y114339D01*
X4500Y193999D02*
X8499D01*
X6499Y195998D02*
Y192000D01*
X4500Y183499D02*
X8499D01*
X274500Y228999D02*
X278499D01*
X250500D02*
X254499D01*
X226500D02*
X230499D01*
X203000D02*
X206999D01*
X179000D02*
X182999D01*
X155000D02*
X158999D01*
X131000D02*
X134999D01*
X107000D02*
X110999D01*
X83000D02*
X86999D01*
X59000D02*
X62999D01*
X35500D02*
X39499D01*
X12000D02*
X15999D01*
X274500Y220499D02*
X278499D01*
X276499Y222498D02*
Y218500D01*
X250500Y220499D02*
X254499D01*
X252499Y222498D02*
Y218500D01*
X226500Y220499D02*
X230499D01*
X228499Y222498D02*
Y218500D01*
X203000Y220499D02*
X206999D01*
X204999Y222498D02*
Y218500D01*
X179000Y220499D02*
X182999D01*
X180999Y222498D02*
Y218500D01*
X155000Y220499D02*
X158999D01*
X156999Y222498D02*
Y218500D01*
X131000Y220499D02*
X134999D01*
X132999Y222498D02*
Y218500D01*
X107000Y220499D02*
X110999D01*
X108999Y222498D02*
Y218500D01*
X83000Y220499D02*
X86999D01*
X84999Y222498D02*
Y218500D01*
X59000Y220499D02*
X62999D01*
X60999Y222498D02*
Y218500D01*
X35500Y220499D02*
X39499D01*
X37499Y222498D02*
Y218500D01*
X11500Y220499D02*
X15499D01*
X13499Y222498D02*
Y218500D01*
X52500Y196999D02*
X56499D01*
X53500Y177999D02*
X57499D01*
X55499Y179998D02*
Y176000D01*
X86500Y185500D02*
X88468D01*
X87484D01*
Y191404D01*
X86500Y190420D01*
X91420D02*
X92404Y191404D01*
X94371D01*
X95355Y190420D01*
Y186484D01*
X94371Y185500D01*
X92404D01*
X91420Y186484D01*
Y190420D01*
X97323D02*
X98307Y191404D01*
X100275D01*
X101259Y190420D01*
Y186484D01*
X100275Y185500D01*
X98307D01*
X97323Y186484D01*
Y190420D01*
X103227Y191404D02*
Y185500D01*
Y187468D01*
X107163Y191404D01*
X104211Y188452D01*
X107163Y185500D01*
X39500Y184500D02*
Y185812D01*
Y185156D01*
X35564D01*
X36220Y184500D01*
Y187780D02*
X35564Y188436D01*
Y189748D01*
X36220Y190404D01*
X38844D01*
X39500Y189748D01*
Y188436D01*
X38844Y187780D01*
X36220D01*
X35564Y191716D02*
X39500D01*
X38188D01*
X35564Y194339D01*
X37532Y192371D01*
X39500Y194339D01*
X4500Y275499D02*
X8499D01*
X6499Y277498D02*
Y273500D01*
X4500Y264999D02*
X8499D01*
X274500Y310499D02*
X278499D01*
X250500D02*
X254499D01*
X226500D02*
X230499D01*
X203000D02*
X206999D01*
X179000D02*
X182999D01*
X155000D02*
X158999D01*
X131000D02*
X134999D01*
X107000D02*
X110999D01*
X83000D02*
X86999D01*
X59000D02*
X62999D01*
X35500D02*
X39499D01*
X12000D02*
X15999D01*
X274500Y301999D02*
X278499D01*
X276499Y303998D02*
Y300000D01*
X250500Y301999D02*
X254499D01*
X252499Y303998D02*
Y300000D01*
X226500Y301999D02*
X230499D01*
X228499Y303998D02*
Y300000D01*
X203000Y301999D02*
X206999D01*
X204999Y303998D02*
Y300000D01*
X179000Y301999D02*
X182999D01*
X180999Y303998D02*
Y300000D01*
X155000Y301999D02*
X158999D01*
X156999Y303998D02*
Y300000D01*
X131000Y301999D02*
X134999D01*
X132999Y303998D02*
Y300000D01*
X107000Y301999D02*
X110999D01*
X108999Y303998D02*
Y300000D01*
X83000Y301999D02*
X86999D01*
X84999Y303998D02*
Y300000D01*
X59000Y301999D02*
X62999D01*
X60999Y303998D02*
Y300000D01*
X35500Y301999D02*
X39499D01*
X37499Y303998D02*
Y300000D01*
X11500Y301999D02*
X15499D01*
X13499Y303998D02*
Y300000D01*
X52500Y278499D02*
X56499D01*
X53500Y259499D02*
X57499D01*
X55499Y261498D02*
Y257500D01*
X86500Y267000D02*
X88468D01*
X87484D01*
Y272904D01*
X86500Y271920D01*
X91420D02*
X92404Y272904D01*
X94371D01*
X95355Y271920D01*
Y267984D01*
X94371Y267000D01*
X92404D01*
X91420Y267984D01*
Y271920D01*
X97323D02*
X98307Y272904D01*
X100275D01*
X101259Y271920D01*
Y267984D01*
X100275Y267000D01*
X98307D01*
X97323Y267984D01*
Y271920D01*
X103227Y272904D02*
Y267000D01*
Y268968D01*
X107163Y272904D01*
X104211Y269952D01*
X107163Y267000D01*
X39500Y266000D02*
Y267312D01*
Y266656D01*
X35564D01*
X36220Y266000D01*
Y269280D02*
X35564Y269936D01*
Y271248D01*
X36220Y271904D01*
X38844D01*
X39500Y271248D01*
Y269936D01*
X38844Y269280D01*
X36220D01*
X35564Y273216D02*
X39500D01*
X38188D01*
X35564Y275839D01*
X37532Y273871D01*
X39500Y275839D01*
X4500Y354999D02*
X8499D01*
X6499Y356998D02*
Y353000D01*
X4500Y344499D02*
X8499D01*
X274500Y389999D02*
X278499D01*
X250500D02*
X254499D01*
X226500D02*
X230499D01*
X203000D02*
X206999D01*
X179000D02*
X182999D01*
X155000D02*
X158999D01*
X131000D02*
X134999D01*
X107000D02*
X110999D01*
X83000D02*
X86999D01*
X59000D02*
X62999D01*
X35500D02*
X39499D01*
X12000D02*
X15999D01*
X274500Y381499D02*
X278499D01*
X276499Y383498D02*
Y379500D01*
X250500Y381499D02*
X254499D01*
X252499Y383498D02*
Y379500D01*
X226500Y381499D02*
X230499D01*
X228499Y383498D02*
Y379500D01*
X203000Y381499D02*
X206999D01*
X204999Y383498D02*
Y379500D01*
X179000Y381499D02*
X182999D01*
X180999Y383498D02*
Y379500D01*
X155000Y381499D02*
X158999D01*
X156999Y383498D02*
Y379500D01*
X131000Y381499D02*
X134999D01*
X132999Y383498D02*
Y379500D01*
X107000Y381499D02*
X110999D01*
X108999Y383498D02*
Y379500D01*
X83000Y381499D02*
X86999D01*
X84999Y383498D02*
Y379500D01*
X59000Y381499D02*
X62999D01*
X60999Y383498D02*
Y379500D01*
X35500Y381499D02*
X39499D01*
X37499Y383498D02*
Y379500D01*
X11500Y381499D02*
X15499D01*
X13499Y383498D02*
Y379500D01*
X52500Y357999D02*
X56499D01*
X53500Y338999D02*
X57499D01*
X55499Y340998D02*
Y337000D01*
X86500Y346500D02*
X88468D01*
X87484D01*
Y352404D01*
X86500Y351420D01*
X91420D02*
X92404Y352404D01*
X94371D01*
X95355Y351420D01*
Y347484D01*
X94371Y346500D01*
X92404D01*
X91420Y347484D01*
Y351420D01*
X97323D02*
X98307Y352404D01*
X100275D01*
X101259Y351420D01*
Y347484D01*
X100275Y346500D01*
X98307D01*
X97323Y347484D01*
Y351420D01*
X103227Y352404D02*
Y346500D01*
Y348468D01*
X107163Y352404D01*
X104211Y349452D01*
X107163Y346500D01*
X39500Y345500D02*
Y346812D01*
Y346156D01*
X35564D01*
X36220Y345500D01*
Y348780D02*
X35564Y349436D01*
Y350748D01*
X36220Y351404D01*
X38844D01*
X39500Y350748D01*
Y349436D01*
X38844Y348780D01*
X36220D01*
X35564Y352715D02*
X39500D01*
X38188D01*
X35564Y355339D01*
X37532Y353372D01*
X39500Y355339D01*
X344001Y3500D02*
Y7499D01*
X342002Y5499D02*
X346000D01*
X354501Y3500D02*
Y7499D01*
X309001Y273500D02*
Y277499D01*
Y249500D02*
Y253499D01*
Y225500D02*
Y229499D01*
Y202000D02*
Y205999D01*
Y178000D02*
Y181999D01*
Y154000D02*
Y157999D01*
Y130000D02*
Y133999D01*
Y106000D02*
Y109999D01*
Y82000D02*
Y85999D01*
Y58000D02*
Y61999D01*
Y34500D02*
Y38499D01*
Y11000D02*
Y14999D01*
X317501Y273500D02*
Y277499D01*
X315502Y275499D02*
X319500D01*
X317501Y249500D02*
Y253499D01*
X315502Y251499D02*
X319500D01*
X317501Y225500D02*
Y229499D01*
X315502Y227499D02*
X319500D01*
X317501Y202000D02*
Y205999D01*
X315502Y203999D02*
X319500D01*
X317501Y178000D02*
Y181999D01*
X315502Y179999D02*
X319500D01*
X317501Y154000D02*
Y157999D01*
X315502Y155999D02*
X319500D01*
X317501Y130000D02*
Y133999D01*
X315502Y131999D02*
X319500D01*
X317501Y106000D02*
Y109999D01*
X315502Y107999D02*
X319500D01*
X317501Y82000D02*
Y85999D01*
X315502Y83999D02*
X319500D01*
X317501Y58000D02*
Y61999D01*
X315502Y59999D02*
X319500D01*
X317501Y34500D02*
Y38499D01*
X315502Y36499D02*
X319500D01*
X317501Y10500D02*
Y14499D01*
X315502Y12499D02*
X319500D01*
X341001Y51500D02*
Y55499D01*
X360001Y52500D02*
Y56499D01*
X358002Y54499D02*
X362000D01*
X352500Y85500D02*
Y87468D01*
Y86484D01*
X346596D01*
X347580Y85500D01*
Y90420D02*
X346596Y91404D01*
Y93371D01*
X347580Y94355D01*
X351516D01*
X352500Y93371D01*
Y91404D01*
X351516Y90420D01*
X347580D01*
Y96323D02*
X346596Y97307D01*
Y99275D01*
X347580Y100259D01*
X351516D01*
X352500Y99275D01*
Y97307D01*
X351516Y96323D01*
X347580D01*
X346596Y102227D02*
X352500D01*
X350532D01*
X346596Y106163D01*
X349548Y103211D01*
X352500Y106163D01*
X353500Y38500D02*
X352188D01*
X352844D01*
Y34564D01*
X353500Y35220D01*
X350220D02*
X349564Y34564D01*
X348252D01*
X347596Y35220D01*
Y37844D01*
X348252Y38500D01*
X349564D01*
X350220Y37844D01*
Y35220D01*
X346285Y34564D02*
Y38500D01*
Y37188D01*
X343661Y34564D01*
X345628Y36532D01*
X343661Y38500D01*
X318595Y322937D02*
Y325561D01*
X317283Y324249D02*
X319907D01*
X310563Y337437D02*
X307939D01*
X306627Y338749D01*
X307939Y340061D01*
X310563D01*
X308595D01*
Y337437D01*
X310563Y341373D02*
X309907D01*
Y342029D01*
X310563D01*
Y341373D01*
X306627Y344653D02*
Y345964D01*
Y345308D01*
X310563D01*
Y344653D01*
Y345964D01*
Y347932D02*
X309907D01*
Y348588D01*
X310563D01*
Y347932D01*
Y355148D02*
X306627D01*
Y357116D01*
X307283Y357772D01*
X308595D01*
X309251Y357116D01*
Y355148D01*
X307283Y361707D02*
X306627Y361051D01*
Y359739D01*
X307283Y359084D01*
X309907D01*
X310563Y359739D01*
Y361051D01*
X309907Y361707D01*
X306627Y363019D02*
X310563D01*
Y364987D01*
X309907Y365643D01*
X309251D01*
X308595Y364987D01*
Y363019D01*
Y364987D01*
X307939Y365643D01*
X307283D01*
X306627Y364987D01*
Y363019D01*
X319095Y315937D02*
Y318561D01*
X316595Y374937D02*
Y377561D01*
X315283Y376249D02*
X317907D01*
X317095Y384437D02*
Y387061D01*
X341595Y349437D02*
Y352061D01*
X340283Y350749D02*
X342907D01*
X362595Y344437D02*
Y347061D01*
X361283Y345749D02*
X363907D01*
X336095Y371437D02*
Y374061D01*
X334783Y372749D02*
X337407D01*
X362595Y351937D02*
Y354561D01*
X331095Y348437D02*
Y351061D01*
X337095Y385937D02*
Y388561D01*
X307127Y313437D02*
X311063D01*
Y316061D01*
X307127Y319997D02*
Y317373D01*
X311063D01*
Y319997D01*
X309095Y317373D02*
Y318685D01*
X307127Y321308D02*
X311063D01*
Y323276D01*
X310407Y323932D01*
X307783D01*
X307127Y323276D01*
Y321308D01*
X305627Y376937D02*
X309563D01*
Y379561D01*
X305627Y383497D02*
Y380873D01*
X309563D01*
Y383497D01*
X307595Y380873D02*
Y382185D01*
X305627Y384808D02*
X309563D01*
Y386776D01*
X308907Y387432D01*
X306283D01*
X305627Y386776D01*
Y384808D01*
D34*
X353027Y313894D02*
G03*
X368383Y311186I8855J5321D01*
G01*
X368400Y327673D02*
G03*
X353014Y324960I-6555J-7811D01*
G01*
X354527Y374394D02*
G03*
X369883Y371686I8855J5321D01*
G01*
X369900Y388173D02*
G03*
X354515Y385460I-6555J-7811D01*
G01*
X368362Y311169D02*
Y327705D01*
X369862Y371669D02*
Y388205D01*
D35*
X83902Y22870D02*
Y41098D01*
X93626D01*
X99374D02*
X109098D01*
Y22870D02*
Y41098D01*
X83902Y14445D02*
X109098D01*
X83902Y102870D02*
Y121098D01*
X93626D01*
X99374D02*
X109098D01*
Y102870D02*
Y121098D01*
X83902Y94445D02*
X109098D01*
X83902Y182870D02*
Y201098D01*
X93626D01*
X99374D02*
X109098D01*
Y182870D02*
Y201098D01*
X83902Y174445D02*
X109098D01*
X83902Y264370D02*
Y282598D01*
X93626D01*
X99374D02*
X109098D01*
Y264370D02*
Y282598D01*
X83902Y255945D02*
X109098D01*
X83902Y343870D02*
Y362098D01*
X93626D01*
X99374D02*
X109098D01*
Y343870D02*
Y362098D01*
X83902Y335445D02*
X109098D01*
X336902Y82902D02*
X355130D01*
X336902D02*
Y92626D01*
Y98374D02*
Y108098D01*
X355130D01*
X363555Y82902D02*
Y108098D01*
D36*
X121500Y9010D02*
Y3500D01*
X124255D01*
X125173Y4418D01*
Y8092D01*
X124255Y9010D01*
X121500D01*
X127010D02*
Y4418D01*
X127928Y3500D01*
X129765D01*
X130683Y4418D01*
Y9010D01*
X132520Y3500D02*
Y7173D01*
X134357Y9010D01*
X136193Y7173D01*
Y3500D01*
Y6255D01*
X132520D01*
X138030Y9010D02*
Y3500D01*
X141703D01*
X149050D02*
Y9010D01*
X151805D01*
X152724Y8092D01*
Y6255D01*
X151805Y5337D01*
X149050D01*
X154560Y3500D02*
Y7173D01*
X156397Y9010D01*
X158233Y7173D01*
Y3500D01*
Y6255D01*
X154560D01*
X160070Y9010D02*
X163744D01*
X161907D01*
Y3500D01*
X165580Y9010D02*
X169254D01*
X167417D01*
Y3500D01*
X174764Y9010D02*
X171090D01*
Y3500D01*
X174764D01*
X171090Y6255D02*
X172927D01*
X176600Y3500D02*
Y9010D01*
X179355D01*
X180274Y8092D01*
Y6255D01*
X179355Y5337D01*
X176600D01*
X178437D02*
X180274Y3500D01*
X182110D02*
Y9010D01*
X185784Y3500D01*
Y9010D01*
X193130D02*
Y3500D01*
Y5337D01*
X196804Y9010D01*
X194049Y6255D01*
X196804Y3500D01*
X198640D02*
Y9010D01*
X202314Y3500D01*
Y9010D01*
X204151D02*
X205987D01*
X205069D01*
Y3500D01*
X204151D01*
X205987D01*
X212416Y8092D02*
X211497Y9010D01*
X209661D01*
X208742Y8092D01*
Y4418D01*
X209661Y3500D01*
X211497D01*
X212416Y4418D01*
Y6255D01*
X210579D01*
X214252Y9010D02*
Y3500D01*
Y6255D01*
X217926D01*
Y9010D01*
Y3500D01*
X219762Y9010D02*
X223436D01*
X221599D01*
Y3500D01*
X230782D02*
Y9010D01*
X233537D01*
X234456Y8092D01*
Y6255D01*
X233537Y5337D01*
X230782D01*
X232619D02*
X234456Y3500D01*
X236292Y9010D02*
X238129D01*
X237211D01*
Y3500D01*
X236292D01*
X238129D01*
X240884Y9010D02*
Y3500D01*
X243639D01*
X244557Y4418D01*
Y8092D01*
X243639Y9010D01*
X240884D01*
X250067D02*
X246394D01*
Y3500D01*
X250067D01*
X246394Y6255D02*
X248231D01*
X251904Y3500D02*
Y9010D01*
X254659D01*
X255577Y8092D01*
Y6255D01*
X254659Y5337D01*
X251904D01*
X253741D02*
X255577Y3500D01*
X262924D02*
X264761D01*
X263842D01*
Y9010D01*
X262924Y8092D01*
X271189Y3500D02*
X267516D01*
X271189Y7173D01*
Y8092D01*
X270271Y9010D01*
X268434D01*
X267516Y8092D01*
X278536Y9010D02*
Y3500D01*
X282209D01*
X287719Y9010D02*
X284046D01*
Y3500D01*
X287719D01*
X284046Y6255D02*
X285883D01*
X289556Y9010D02*
Y3500D01*
X292311D01*
X293229Y4418D01*
Y8092D01*
X292311Y9010D01*
X289556D01*
X211248Y30560D02*
X209936Y31872D01*
X207312D01*
X206000Y30560D01*
Y25312D01*
X207312Y24000D01*
X209936D01*
X211248Y25312D01*
X213872Y31872D02*
Y24000D01*
X217807D01*
X219119Y25312D01*
Y30560D01*
X217807Y31872D01*
X213872D01*
X225679Y24000D02*
Y31872D01*
X221743Y27936D01*
X226991D01*
X229614Y30560D02*
X230926Y31872D01*
X233550D01*
X234862Y30560D01*
Y25312D01*
X233550Y24000D01*
X230926D01*
X229614Y25312D01*
Y30560D01*
X237486Y24000D02*
X240110D01*
X238798D01*
Y31872D01*
X237486Y30560D01*
X244045Y31872D02*
X249293D01*
Y30560D01*
X244045Y25312D01*
Y24000D01*
X211248Y110560D02*
X209936Y111872D01*
X207312D01*
X206000Y110560D01*
Y105312D01*
X207312Y104000D01*
X209936D01*
X211248Y105312D01*
X213872Y111872D02*
Y104000D01*
X217807D01*
X219119Y105312D01*
Y110560D01*
X217807Y111872D01*
X213872D01*
X225679Y104000D02*
Y111872D01*
X221743Y107936D01*
X226991D01*
X229614Y110560D02*
X230926Y111872D01*
X233550D01*
X234862Y110560D01*
Y105312D01*
X233550Y104000D01*
X230926D01*
X229614Y105312D01*
Y110560D01*
X237486Y104000D02*
X240110D01*
X238798D01*
Y111872D01*
X237486Y110560D01*
X244045Y111872D02*
X249293D01*
Y110560D01*
X244045Y105312D01*
Y104000D01*
X121500Y89010D02*
Y83500D01*
X124255D01*
X125173Y84418D01*
Y88092D01*
X124255Y89010D01*
X121500D01*
X127010D02*
Y84418D01*
X127928Y83500D01*
X129765D01*
X130683Y84418D01*
Y89010D01*
X132520Y83500D02*
Y87173D01*
X134357Y89010D01*
X136193Y87173D01*
Y83500D01*
Y86255D01*
X132520D01*
X138030Y89010D02*
Y83500D01*
X141703D01*
X149050D02*
Y89010D01*
X151805D01*
X152724Y88092D01*
Y86255D01*
X151805Y85337D01*
X149050D01*
X154560Y83500D02*
Y87173D01*
X156397Y89010D01*
X158233Y87173D01*
Y83500D01*
Y86255D01*
X154560D01*
X160070Y89010D02*
X163744D01*
X161907D01*
Y83500D01*
X165580Y89010D02*
X169254D01*
X167417D01*
Y83500D01*
X174764Y89010D02*
X171090D01*
Y83500D01*
X174764D01*
X171090Y86255D02*
X172927D01*
X176600Y83500D02*
Y89010D01*
X179355D01*
X180274Y88092D01*
Y86255D01*
X179355Y85337D01*
X176600D01*
X178437D02*
X180274Y83500D01*
X182110D02*
Y89010D01*
X185784Y83500D01*
Y89010D01*
X193130D02*
Y83500D01*
Y85337D01*
X196804Y89010D01*
X194049Y86255D01*
X196804Y83500D01*
X198640D02*
Y89010D01*
X202314Y83500D01*
Y89010D01*
X204151D02*
X205987D01*
X205069D01*
Y83500D01*
X204151D01*
X205987D01*
X212416Y88092D02*
X211497Y89010D01*
X209661D01*
X208742Y88092D01*
Y84418D01*
X209661Y83500D01*
X211497D01*
X212416Y84418D01*
Y86255D01*
X210579D01*
X214252Y89010D02*
Y83500D01*
Y86255D01*
X217926D01*
Y89010D01*
Y83500D01*
X219762Y89010D02*
X223436D01*
X221599D01*
Y83500D01*
X230782D02*
Y89010D01*
X233537D01*
X234456Y88092D01*
Y86255D01*
X233537Y85337D01*
X230782D01*
X232619D02*
X234456Y83500D01*
X236292Y89010D02*
X238129D01*
X237211D01*
Y83500D01*
X236292D01*
X238129D01*
X240884Y89010D02*
Y83500D01*
X243639D01*
X244557Y84418D01*
Y88092D01*
X243639Y89010D01*
X240884D01*
X250067D02*
X246394D01*
Y83500D01*
X250067D01*
X246394Y86255D02*
X248231D01*
X251904Y83500D02*
Y89010D01*
X254659D01*
X255577Y88092D01*
Y86255D01*
X254659Y85337D01*
X251904D01*
X253741D02*
X255577Y83500D01*
X262924D02*
X264761D01*
X263842D01*
Y89010D01*
X262924Y88092D01*
X271189Y83500D02*
X267516D01*
X271189Y87173D01*
Y88092D01*
X270271Y89010D01*
X268434D01*
X267516Y88092D01*
X278536Y89010D02*
Y83500D01*
X282209D01*
X287719Y89010D02*
X284046D01*
Y83500D01*
X287719D01*
X284046Y86255D02*
X285883D01*
X289556Y89010D02*
Y83500D01*
X292311D01*
X293229Y84418D01*
Y88092D01*
X292311Y89010D01*
X289556D01*
X211248Y190560D02*
X209936Y191872D01*
X207312D01*
X206000Y190560D01*
Y185312D01*
X207312Y184000D01*
X209936D01*
X211248Y185312D01*
X213872Y191872D02*
Y184000D01*
X217807D01*
X219119Y185312D01*
Y190560D01*
X217807Y191872D01*
X213872D01*
X225679Y184000D02*
Y191872D01*
X221743Y187936D01*
X226991D01*
X229614Y190560D02*
X230926Y191872D01*
X233550D01*
X234862Y190560D01*
Y185312D01*
X233550Y184000D01*
X230926D01*
X229614Y185312D01*
Y190560D01*
X237486Y184000D02*
X240110D01*
X238798D01*
Y191872D01*
X237486Y190560D01*
X244045Y191872D02*
X249293D01*
Y190560D01*
X244045Y185312D01*
Y184000D01*
X121500Y169010D02*
Y163500D01*
X124255D01*
X125173Y164418D01*
Y168092D01*
X124255Y169010D01*
X121500D01*
X127010D02*
Y164418D01*
X127928Y163500D01*
X129765D01*
X130683Y164418D01*
Y169010D01*
X132520Y163500D02*
Y167173D01*
X134357Y169010D01*
X136193Y167173D01*
Y163500D01*
Y166255D01*
X132520D01*
X138030Y169010D02*
Y163500D01*
X141703D01*
X149050D02*
Y169010D01*
X151805D01*
X152724Y168092D01*
Y166255D01*
X151805Y165337D01*
X149050D01*
X154560Y163500D02*
Y167173D01*
X156397Y169010D01*
X158233Y167173D01*
Y163500D01*
Y166255D01*
X154560D01*
X160070Y169010D02*
X163744D01*
X161907D01*
Y163500D01*
X165580Y169010D02*
X169254D01*
X167417D01*
Y163500D01*
X174764Y169010D02*
X171090D01*
Y163500D01*
X174764D01*
X171090Y166255D02*
X172927D01*
X176600Y163500D02*
Y169010D01*
X179355D01*
X180274Y168092D01*
Y166255D01*
X179355Y165337D01*
X176600D01*
X178437D02*
X180274Y163500D01*
X182110D02*
Y169010D01*
X185784Y163500D01*
Y169010D01*
X193130D02*
Y163500D01*
Y165337D01*
X196804Y169010D01*
X194049Y166255D01*
X196804Y163500D01*
X198640D02*
Y169010D01*
X202314Y163500D01*
Y169010D01*
X204151D02*
X205987D01*
X205069D01*
Y163500D01*
X204151D01*
X205987D01*
X212416Y168092D02*
X211497Y169010D01*
X209661D01*
X208742Y168092D01*
Y164418D01*
X209661Y163500D01*
X211497D01*
X212416Y164418D01*
Y166255D01*
X210579D01*
X214252Y169010D02*
Y163500D01*
Y166255D01*
X217926D01*
Y169010D01*
Y163500D01*
X219762Y169010D02*
X223436D01*
X221599D01*
Y163500D01*
X230782D02*
Y169010D01*
X233537D01*
X234456Y168092D01*
Y166255D01*
X233537Y165337D01*
X230782D01*
X232619D02*
X234456Y163500D01*
X236292Y169010D02*
X238129D01*
X237211D01*
Y163500D01*
X236292D01*
X238129D01*
X240884Y169010D02*
Y163500D01*
X243639D01*
X244557Y164418D01*
Y168092D01*
X243639Y169010D01*
X240884D01*
X250067D02*
X246394D01*
Y163500D01*
X250067D01*
X246394Y166255D02*
X248231D01*
X251904Y163500D02*
Y169010D01*
X254659D01*
X255577Y168092D01*
Y166255D01*
X254659Y165337D01*
X251904D01*
X253741D02*
X255577Y163500D01*
X262924D02*
X264761D01*
X263842D01*
Y169010D01*
X262924Y168092D01*
X271189Y163500D02*
X267516D01*
X271189Y167173D01*
Y168092D01*
X270271Y169010D01*
X268434D01*
X267516Y168092D01*
X278536Y169010D02*
Y163500D01*
X282209D01*
X287719Y169010D02*
X284046D01*
Y163500D01*
X287719D01*
X284046Y166255D02*
X285883D01*
X289556Y169010D02*
Y163500D01*
X292311D01*
X293229Y164418D01*
Y168092D01*
X292311Y169010D01*
X289556D01*
X211248Y272060D02*
X209936Y273372D01*
X207312D01*
X206000Y272060D01*
Y266812D01*
X207312Y265500D01*
X209936D01*
X211248Y266812D01*
X213872Y273372D02*
Y265500D01*
X217807D01*
X219119Y266812D01*
Y272060D01*
X217807Y273372D01*
X213872D01*
X225679Y265500D02*
Y273372D01*
X221743Y269436D01*
X226991D01*
X229614Y272060D02*
X230926Y273372D01*
X233550D01*
X234862Y272060D01*
Y266812D01*
X233550Y265500D01*
X230926D01*
X229614Y266812D01*
Y272060D01*
X237486Y265500D02*
X240110D01*
X238798D01*
Y273372D01*
X237486Y272060D01*
X244045Y273372D02*
X249293D01*
Y272060D01*
X244045Y266812D01*
Y265500D01*
X121500Y250510D02*
Y245000D01*
X124255D01*
X125173Y245918D01*
Y249592D01*
X124255Y250510D01*
X121500D01*
X127010D02*
Y245918D01*
X127928Y245000D01*
X129765D01*
X130683Y245918D01*
Y250510D01*
X132520Y245000D02*
Y248673D01*
X134357Y250510D01*
X136193Y248673D01*
Y245000D01*
Y247755D01*
X132520D01*
X138030Y250510D02*
Y245000D01*
X141703D01*
X149050D02*
Y250510D01*
X151805D01*
X152724Y249592D01*
Y247755D01*
X151805Y246837D01*
X149050D01*
X154560Y245000D02*
Y248673D01*
X156397Y250510D01*
X158233Y248673D01*
Y245000D01*
Y247755D01*
X154560D01*
X160070Y250510D02*
X163744D01*
X161907D01*
Y245000D01*
X165580Y250510D02*
X169254D01*
X167417D01*
Y245000D01*
X174764Y250510D02*
X171090D01*
Y245000D01*
X174764D01*
X171090Y247755D02*
X172927D01*
X176600Y245000D02*
Y250510D01*
X179355D01*
X180274Y249592D01*
Y247755D01*
X179355Y246837D01*
X176600D01*
X178437D02*
X180274Y245000D01*
X182110D02*
Y250510D01*
X185784Y245000D01*
Y250510D01*
X193130D02*
Y245000D01*
Y246837D01*
X196804Y250510D01*
X194049Y247755D01*
X196804Y245000D01*
X198640D02*
Y250510D01*
X202314Y245000D01*
Y250510D01*
X204151D02*
X205987D01*
X205069D01*
Y245000D01*
X204151D01*
X205987D01*
X212416Y249592D02*
X211497Y250510D01*
X209661D01*
X208742Y249592D01*
Y245918D01*
X209661Y245000D01*
X211497D01*
X212416Y245918D01*
Y247755D01*
X210579D01*
X214252Y250510D02*
Y245000D01*
Y247755D01*
X217926D01*
Y250510D01*
Y245000D01*
X219762Y250510D02*
X223436D01*
X221599D01*
Y245000D01*
X230782D02*
Y250510D01*
X233537D01*
X234456Y249592D01*
Y247755D01*
X233537Y246837D01*
X230782D01*
X232619D02*
X234456Y245000D01*
X236292Y250510D02*
X238129D01*
X237211D01*
Y245000D01*
X236292D01*
X238129D01*
X240884Y250510D02*
Y245000D01*
X243639D01*
X244557Y245918D01*
Y249592D01*
X243639Y250510D01*
X240884D01*
X250067D02*
X246394D01*
Y245000D01*
X250067D01*
X246394Y247755D02*
X248231D01*
X251904Y245000D02*
Y250510D01*
X254659D01*
X255577Y249592D01*
Y247755D01*
X254659Y246837D01*
X251904D01*
X253741D02*
X255577Y245000D01*
X262924D02*
X264761D01*
X263842D01*
Y250510D01*
X262924Y249592D01*
X271189Y245000D02*
X267516D01*
X271189Y248673D01*
Y249592D01*
X270271Y250510D01*
X268434D01*
X267516Y249592D01*
X278536Y250510D02*
Y245000D01*
X282209D01*
X287719Y250510D02*
X284046D01*
Y245000D01*
X287719D01*
X284046Y247755D02*
X285883D01*
X289556Y250510D02*
Y245000D01*
X292311D01*
X293229Y245918D01*
Y249592D01*
X292311Y250510D01*
X289556D01*
X211248Y351560D02*
X209936Y352871D01*
X207312D01*
X206000Y351560D01*
Y346312D01*
X207312Y345000D01*
X209936D01*
X211248Y346312D01*
X213872Y352871D02*
Y345000D01*
X217807D01*
X219119Y346312D01*
Y351560D01*
X217807Y352871D01*
X213872D01*
X225679Y345000D02*
Y352871D01*
X221743Y348936D01*
X226991D01*
X229614Y351560D02*
X230926Y352871D01*
X233550D01*
X234862Y351560D01*
Y346312D01*
X233550Y345000D01*
X230926D01*
X229614Y346312D01*
Y351560D01*
X237486Y345000D02*
X240110D01*
X238798D01*
Y352871D01*
X237486Y351560D01*
X244045Y352871D02*
X249293D01*
Y351560D01*
X244045Y346312D01*
Y345000D01*
X121500Y330010D02*
Y324500D01*
X124255D01*
X125173Y325418D01*
Y329092D01*
X124255Y330010D01*
X121500D01*
X127010D02*
Y325418D01*
X127928Y324500D01*
X129765D01*
X130683Y325418D01*
Y330010D01*
X132520Y324500D02*
Y328173D01*
X134357Y330010D01*
X136193Y328173D01*
Y324500D01*
Y327255D01*
X132520D01*
X138030Y330010D02*
Y324500D01*
X141703D01*
X149050D02*
Y330010D01*
X151805D01*
X152724Y329092D01*
Y327255D01*
X151805Y326337D01*
X149050D01*
X154560Y324500D02*
Y328173D01*
X156397Y330010D01*
X158233Y328173D01*
Y324500D01*
Y327255D01*
X154560D01*
X160070Y330010D02*
X163744D01*
X161907D01*
Y324500D01*
X165580Y330010D02*
X169254D01*
X167417D01*
Y324500D01*
X174764Y330010D02*
X171090D01*
Y324500D01*
X174764D01*
X171090Y327255D02*
X172927D01*
X176600Y324500D02*
Y330010D01*
X179355D01*
X180274Y329092D01*
Y327255D01*
X179355Y326337D01*
X176600D01*
X178437D02*
X180274Y324500D01*
X182110D02*
Y330010D01*
X185784Y324500D01*
Y330010D01*
X193130D02*
Y324500D01*
Y326337D01*
X196804Y330010D01*
X194049Y327255D01*
X196804Y324500D01*
X198640D02*
Y330010D01*
X202314Y324500D01*
Y330010D01*
X204151D02*
X205987D01*
X205069D01*
Y324500D01*
X204151D01*
X205987D01*
X212416Y329092D02*
X211497Y330010D01*
X209661D01*
X208742Y329092D01*
Y325418D01*
X209661Y324500D01*
X211497D01*
X212416Y325418D01*
Y327255D01*
X210579D01*
X214252Y330010D02*
Y324500D01*
Y327255D01*
X217926D01*
Y330010D01*
Y324500D01*
X219762Y330010D02*
X223436D01*
X221599D01*
Y324500D01*
X230782D02*
Y330010D01*
X233537D01*
X234456Y329092D01*
Y327255D01*
X233537Y326337D01*
X230782D01*
X232619D02*
X234456Y324500D01*
X236292Y330010D02*
X238129D01*
X237211D01*
Y324500D01*
X236292D01*
X238129D01*
X240884Y330010D02*
Y324500D01*
X243639D01*
X244557Y325418D01*
Y329092D01*
X243639Y330010D01*
X240884D01*
X250067D02*
X246394D01*
Y324500D01*
X250067D01*
X246394Y327255D02*
X248231D01*
X251904Y324500D02*
Y330010D01*
X254659D01*
X255577Y329092D01*
Y327255D01*
X254659Y326337D01*
X251904D01*
X253741D02*
X255577Y324500D01*
X262924D02*
X264761D01*
X263842D01*
Y330010D01*
X262924Y329092D01*
X271189Y324500D02*
X267516D01*
X271189Y328173D01*
Y329092D01*
X270271Y330010D01*
X268434D01*
X267516Y329092D01*
X278536Y330010D02*
Y324500D01*
X282209D01*
X287719Y330010D02*
X284046D01*
Y324500D01*
X287719D01*
X284046Y327255D02*
X285883D01*
X289556Y330010D02*
Y324500D01*
X292311D01*
X293229Y325418D01*
Y329092D01*
X292311Y330010D01*
X289556D01*
X347440Y210248D02*
X346129Y208936D01*
Y206312D01*
X347440Y205000D01*
X352688D01*
X354000Y206312D01*
Y208936D01*
X352688Y210248D01*
X346129Y212872D02*
X354000D01*
Y216807D01*
X352688Y218119D01*
X347440D01*
X346129Y216807D01*
Y212872D01*
X354000Y224679D02*
X346129D01*
X350064Y220743D01*
Y225991D01*
X347440Y228614D02*
X346129Y229926D01*
Y232550D01*
X347440Y233862D01*
X352688D01*
X354000Y232550D01*
Y229926D01*
X352688Y228614D01*
X347440D01*
X354000Y236486D02*
Y239110D01*
Y237798D01*
X346129D01*
X347440Y236486D01*
X346129Y243045D02*
Y248293D01*
X347440D01*
X352688Y243045D01*
X354000D01*
X368990Y120500D02*
X374500D01*
Y123255D01*
X373582Y124173D01*
X369908D01*
X368990Y123255D01*
Y120500D01*
Y126010D02*
X373582D01*
X374500Y126928D01*
Y128765D01*
X373582Y129683D01*
X368990D01*
X374500Y131520D02*
X370827D01*
X368990Y133357D01*
X370827Y135193D01*
X374500D01*
X371745D01*
Y131520D01*
X368990Y137030D02*
X374500D01*
Y140703D01*
Y148050D02*
X368990D01*
Y150805D01*
X369908Y151724D01*
X371745D01*
X372663Y150805D01*
Y148050D01*
X374500Y153560D02*
X370827D01*
X368990Y155397D01*
X370827Y157234D01*
X374500D01*
X371745D01*
Y153560D01*
X368990Y159070D02*
Y162744D01*
Y160907D01*
X374500D01*
X368990Y164580D02*
Y168254D01*
Y166417D01*
X374500D01*
X368990Y173764D02*
Y170090D01*
X374500D01*
Y173764D01*
X371745Y170090D02*
Y171927D01*
X374500Y175600D02*
X368990D01*
Y178355D01*
X369908Y179274D01*
X371745D01*
X372663Y178355D01*
Y175600D01*
Y177437D02*
X374500Y179274D01*
Y181110D02*
X368990D01*
X374500Y184784D01*
X368990D01*
Y192130D02*
X374500D01*
X372663D01*
X368990Y195804D01*
X371745Y193049D01*
X374500Y195804D01*
Y197640D02*
X368990D01*
X374500Y201314D01*
X368990D01*
Y203151D02*
Y204987D01*
Y204069D01*
X374500D01*
Y203151D01*
Y204987D01*
X369908Y211416D02*
X368990Y210497D01*
Y208661D01*
X369908Y207742D01*
X373582D01*
X374500Y208661D01*
Y210497D01*
X373582Y211416D01*
X371745D01*
Y209579D01*
X368990Y213252D02*
X374500D01*
X371745D01*
Y216926D01*
X368990D01*
X374500D01*
X368990Y218762D02*
Y222436D01*
Y220599D01*
X374500D01*
Y229782D02*
X368990D01*
Y232537D01*
X369908Y233456D01*
X371745D01*
X372663Y232537D01*
Y229782D01*
Y231619D02*
X374500Y233456D01*
X368990Y235292D02*
Y237129D01*
Y236211D01*
X374500D01*
Y235292D01*
Y237129D01*
X368990Y239884D02*
X374500D01*
Y242639D01*
X373582Y243557D01*
X369908D01*
X368990Y242639D01*
Y239884D01*
Y249067D02*
Y245394D01*
X374500D01*
Y249067D01*
X371745Y245394D02*
Y247231D01*
X374500Y250904D02*
X368990D01*
Y253659D01*
X369908Y254577D01*
X371745D01*
X372663Y253659D01*
Y250904D01*
Y252741D02*
X374500Y254577D01*
Y261924D02*
Y263761D01*
Y262842D01*
X368990D01*
X369908Y261924D01*
X374500Y270189D02*
Y266516D01*
X370827Y270189D01*
X369908D01*
X368990Y269271D01*
Y267434D01*
X369908Y266516D01*
X368990Y277536D02*
X374500D01*
Y281209D01*
X368990Y286719D02*
Y283046D01*
X374500D01*
Y286719D01*
X371745Y283046D02*
Y284883D01*
X368990Y288556D02*
X374500D01*
Y291311D01*
X373582Y292229D01*
X369908D01*
X368990Y291311D01*
Y288556D01*
D37*
X10000Y4000D02*
Y9248D01*
X12624Y11872D01*
X15248Y9248D01*
Y4000D01*
Y7936D01*
X10000D01*
X17872Y4000D02*
Y5312D01*
X19183D01*
Y4000D01*
X17872D01*
X24431Y11872D02*
X27055D01*
X25743D01*
Y4000D01*
X24431D01*
X27055D01*
X30991D02*
Y5312D01*
X32302D01*
Y4000D01*
X30991D01*
X45422D02*
Y11872D01*
X49357D01*
X50669Y10560D01*
Y7936D01*
X49357Y6624D01*
X45422D01*
X58541Y10560D02*
X57229Y11872D01*
X54605D01*
X53293Y10560D01*
Y5312D01*
X54605Y4000D01*
X57229D01*
X58541Y5312D01*
X61165Y11872D02*
Y4000D01*
X65100D01*
X66412Y5312D01*
Y6624D01*
X65100Y7936D01*
X61165D01*
X65100D01*
X66412Y9248D01*
Y10560D01*
X65100Y11872D01*
X61165D01*
X10000Y84000D02*
Y89248D01*
X12624Y91872D01*
X15248Y89248D01*
Y84000D01*
Y87936D01*
X10000D01*
X17872Y84000D02*
Y85312D01*
X19183D01*
Y84000D01*
X17872D01*
X24431Y91872D02*
X27055D01*
X25743D01*
Y84000D01*
X24431D01*
X27055D01*
X30991D02*
Y85312D01*
X32302D01*
Y84000D01*
X30991D01*
X45422D02*
Y91872D01*
X49357D01*
X50669Y90560D01*
Y87936D01*
X49357Y86624D01*
X45422D01*
X58541Y90560D02*
X57229Y91872D01*
X54605D01*
X53293Y90560D01*
Y85312D01*
X54605Y84000D01*
X57229D01*
X58541Y85312D01*
X61165Y91872D02*
Y84000D01*
X65100D01*
X66412Y85312D01*
Y86624D01*
X65100Y87936D01*
X61165D01*
X65100D01*
X66412Y89248D01*
Y90560D01*
X65100Y91872D01*
X61165D01*
X10000Y164000D02*
Y169248D01*
X12624Y171871D01*
X15248Y169248D01*
Y164000D01*
Y167936D01*
X10000D01*
X17872Y164000D02*
Y165312D01*
X19183D01*
Y164000D01*
X17872D01*
X24431Y171871D02*
X27055D01*
X25743D01*
Y164000D01*
X24431D01*
X27055D01*
X30991D02*
Y165312D01*
X32302D01*
Y164000D01*
X30991D01*
X45422D02*
Y171871D01*
X49357D01*
X50669Y170560D01*
Y167936D01*
X49357Y166624D01*
X45422D01*
X58541Y170560D02*
X57229Y171871D01*
X54605D01*
X53293Y170560D01*
Y165312D01*
X54605Y164000D01*
X57229D01*
X58541Y165312D01*
X61165Y171871D02*
Y164000D01*
X65100D01*
X66412Y165312D01*
Y166624D01*
X65100Y167936D01*
X61165D01*
X65100D01*
X66412Y169248D01*
Y170560D01*
X65100Y171871D01*
X61165D01*
X10000Y245500D02*
Y250748D01*
X12624Y253372D01*
X15248Y250748D01*
Y245500D01*
Y249436D01*
X10000D01*
X17872Y245500D02*
Y246812D01*
X19183D01*
Y245500D01*
X17872D01*
X24431Y253372D02*
X27055D01*
X25743D01*
Y245500D01*
X24431D01*
X27055D01*
X30991D02*
Y246812D01*
X32302D01*
Y245500D01*
X30991D01*
X45422D02*
Y253372D01*
X49357D01*
X50669Y252060D01*
Y249436D01*
X49357Y248124D01*
X45422D01*
X58541Y252060D02*
X57229Y253372D01*
X54605D01*
X53293Y252060D01*
Y246812D01*
X54605Y245500D01*
X57229D01*
X58541Y246812D01*
X61165Y253372D02*
Y245500D01*
X65100D01*
X66412Y246812D01*
Y248124D01*
X65100Y249436D01*
X61165D01*
X65100D01*
X66412Y250748D01*
Y252060D01*
X65100Y253372D01*
X61165D01*
X10000Y325000D02*
Y330248D01*
X12624Y332872D01*
X15248Y330248D01*
Y325000D01*
Y328936D01*
X10000D01*
X17872Y325000D02*
Y326312D01*
X19183D01*
Y325000D01*
X17872D01*
X24431Y332872D02*
X27055D01*
X25743D01*
Y325000D01*
X24431D01*
X27055D01*
X30991D02*
Y326312D01*
X32302D01*
Y325000D01*
X30991D01*
X45422D02*
Y332872D01*
X49357D01*
X50669Y331560D01*
Y328936D01*
X49357Y327624D01*
X45422D01*
X58541Y331560D02*
X57229Y332872D01*
X54605D01*
X53293Y331560D01*
Y326312D01*
X54605Y325000D01*
X57229D01*
X58541Y326312D01*
X61165Y332872D02*
Y325000D01*
X65100D01*
X66412Y326312D01*
Y327624D01*
X65100Y328936D01*
X61165D01*
X65100D01*
X66412Y330248D01*
Y331560D01*
X65100Y332872D01*
X61165D01*
X374000Y9000D02*
X368752D01*
X366128Y11624D01*
X368752Y14248D01*
X374000D01*
X370064D01*
Y9000D01*
X374000Y16872D02*
X372688D01*
Y18183D01*
X374000D01*
Y16872D01*
X366128Y23431D02*
Y26055D01*
Y24743D01*
X374000D01*
Y23431D01*
Y26055D01*
Y29991D02*
X372688D01*
Y31302D01*
X374000D01*
Y29991D01*
Y44422D02*
X366128D01*
Y48357D01*
X367440Y49669D01*
X370064D01*
X371376Y48357D01*
Y44422D01*
X367440Y57541D02*
X366128Y56229D01*
Y53605D01*
X367440Y52293D01*
X372688D01*
X374000Y53605D01*
Y56229D01*
X372688Y57541D01*
X366128Y60165D02*
X374000D01*
Y64100D01*
X372688Y65412D01*
X371376D01*
X370064Y64100D01*
Y60165D01*
Y64100D01*
X368752Y65412D01*
X367440D01*
X366128Y64100D01*
Y60165D01*
D38*
X9000Y42312D02*
X10312Y41000D01*
X12936D01*
X14248Y42312D01*
Y47560D01*
X12936Y48871D01*
X10312D01*
X9000Y47560D01*
Y46248D01*
X10312Y44936D01*
X14248D01*
X16872Y48871D02*
Y43624D01*
X19495Y41000D01*
X22119Y43624D01*
Y48871D01*
X9000Y122312D02*
X10312Y121000D01*
X12936D01*
X14248Y122312D01*
Y127560D01*
X12936Y128872D01*
X10312D01*
X9000Y127560D01*
Y126248D01*
X10312Y124936D01*
X14248D01*
X16872Y128872D02*
Y123624D01*
X19495Y121000D01*
X22119Y123624D01*
Y128872D01*
X9000Y202312D02*
X10312Y201000D01*
X12936D01*
X14248Y202312D01*
Y207560D01*
X12936Y208872D01*
X10312D01*
X9000Y207560D01*
Y206248D01*
X10312Y204936D01*
X14248D01*
X16872Y208872D02*
Y203624D01*
X19495Y201000D01*
X22119Y203624D01*
Y208872D01*
X9000Y283812D02*
X10312Y282500D01*
X12936D01*
X14248Y283812D01*
Y289060D01*
X12936Y290371D01*
X10312D01*
X9000Y289060D01*
Y287748D01*
X10312Y286436D01*
X14248D01*
X16872Y290371D02*
Y285124D01*
X19495Y282500D01*
X22119Y285124D01*
Y290371D01*
X9000Y363312D02*
X10312Y362000D01*
X12936D01*
X14248Y363312D01*
Y368560D01*
X12936Y369871D01*
X10312D01*
X9000Y368560D01*
Y367248D01*
X10312Y365936D01*
X14248D01*
X16872Y369871D02*
Y364624D01*
X19495Y362000D01*
X22119Y364624D01*
Y369871D01*
X335688Y8000D02*
X337000Y9312D01*
Y11936D01*
X335688Y13248D01*
X330440D01*
X329129Y11936D01*
Y9312D01*
X330440Y8000D01*
X331752D01*
X333064Y9312D01*
Y13248D01*
X329129Y15871D02*
X334376D01*
X337000Y18495D01*
X334376Y21119D01*
X329129D01*
D39*
X139500Y25500D02*
Y31404D01*
X143436Y25500D01*
Y31404D01*
X149339D02*
X145404D01*
Y25500D01*
X149339D01*
X145404Y28452D02*
X147371D01*
X155243Y31404D02*
X151307D01*
Y28452D01*
X153275Y29436D01*
X154259D01*
X155243Y28452D01*
Y26484D01*
X154259Y25500D01*
X152291D01*
X151307Y26484D01*
X161146Y31404D02*
X157211D01*
Y28452D01*
X159179Y29436D01*
X160163D01*
X161146Y28452D01*
Y26484D01*
X160163Y25500D01*
X158195D01*
X157211Y26484D01*
X167050Y31404D02*
X163114D01*
Y28452D01*
X165082Y29436D01*
X166066D01*
X167050Y28452D01*
Y26484D01*
X166066Y25500D01*
X164098D01*
X163114Y26484D01*
X139500Y105500D02*
Y111404D01*
X143436Y105500D01*
Y111404D01*
X149339D02*
X145404D01*
Y105500D01*
X149339D01*
X145404Y108452D02*
X147371D01*
X155243Y111404D02*
X151307D01*
Y108452D01*
X153275Y109436D01*
X154259D01*
X155243Y108452D01*
Y106484D01*
X154259Y105500D01*
X152291D01*
X151307Y106484D01*
X161146Y111404D02*
X157211D01*
Y108452D01*
X159179Y109436D01*
X160163D01*
X161146Y108452D01*
Y106484D01*
X160163Y105500D01*
X158195D01*
X157211Y106484D01*
X167050Y111404D02*
X163114D01*
Y108452D01*
X165082Y109436D01*
X166066D01*
X167050Y108452D01*
Y106484D01*
X166066Y105500D01*
X164098D01*
X163114Y106484D01*
X139500Y185500D02*
Y191404D01*
X143436Y185500D01*
Y191404D01*
X149339D02*
X145404D01*
Y185500D01*
X149339D01*
X145404Y188452D02*
X147371D01*
X155243Y191404D02*
X151307D01*
Y188452D01*
X153275Y189436D01*
X154259D01*
X155243Y188452D01*
Y186484D01*
X154259Y185500D01*
X152291D01*
X151307Y186484D01*
X161146Y191404D02*
X157211D01*
Y188452D01*
X159179Y189436D01*
X160163D01*
X161146Y188452D01*
Y186484D01*
X160163Y185500D01*
X158195D01*
X157211Y186484D01*
X167050Y191404D02*
X163114D01*
Y188452D01*
X165082Y189436D01*
X166066D01*
X167050Y188452D01*
Y186484D01*
X166066Y185500D01*
X164098D01*
X163114Y186484D01*
X139500Y267000D02*
Y272904D01*
X143436Y267000D01*
Y272904D01*
X149339D02*
X145404D01*
Y267000D01*
X149339D01*
X145404Y269952D02*
X147371D01*
X155243Y272904D02*
X151307D01*
Y269952D01*
X153275Y270936D01*
X154259D01*
X155243Y269952D01*
Y267984D01*
X154259Y267000D01*
X152291D01*
X151307Y267984D01*
X161146Y272904D02*
X157211D01*
Y269952D01*
X159179Y270936D01*
X160163D01*
X161146Y269952D01*
Y267984D01*
X160163Y267000D01*
X158195D01*
X157211Y267984D01*
X167050Y272904D02*
X163114D01*
Y269952D01*
X165082Y270936D01*
X166066D01*
X167050Y269952D01*
Y267984D01*
X166066Y267000D01*
X164098D01*
X163114Y267984D01*
X139500Y346500D02*
Y352404D01*
X143436Y346500D01*
Y352404D01*
X149339D02*
X145404D01*
Y346500D01*
X149339D01*
X145404Y349452D02*
X147371D01*
X155243Y352404D02*
X151307D01*
Y349452D01*
X153275Y350436D01*
X154259D01*
X155243Y349452D01*
Y347484D01*
X154259Y346500D01*
X152291D01*
X151307Y347484D01*
X161146Y352404D02*
X157211D01*
Y349452D01*
X159179Y350436D01*
X160163D01*
X161146Y349452D01*
Y347484D01*
X160163Y346500D01*
X158195D01*
X157211Y347484D01*
X167050Y352404D02*
X163114D01*
Y349452D01*
X165082Y350436D01*
X166066D01*
X167050Y349452D01*
Y347484D01*
X166066Y346500D01*
X164098D01*
X163114Y347484D01*
X352500Y138500D02*
X346596D01*
X352500Y142436D01*
X346596D01*
Y148339D02*
Y144404D01*
X352500D01*
Y148339D01*
X349548Y144404D02*
Y146371D01*
X346596Y154243D02*
Y150307D01*
X349548D01*
X348564Y152275D01*
Y153259D01*
X349548Y154243D01*
X351516D01*
X352500Y153259D01*
Y151291D01*
X351516Y150307D01*
X346596Y160146D02*
Y156211D01*
X349548D01*
X348564Y158179D01*
Y159163D01*
X349548Y160146D01*
X351516D01*
X352500Y159163D01*
Y157195D01*
X351516Y156211D01*
X346596Y166050D02*
Y162114D01*
X349548D01*
X348564Y164082D01*
Y165066D01*
X349548Y166050D01*
X351516D01*
X352500Y165066D01*
Y163098D01*
X351516Y162114D01*
D40*
X338563Y344937D02*
Y345987D01*
Y345462D01*
X335414D01*
X335939Y344937D01*
Y347561D02*
X335414Y348086D01*
Y349135D01*
X335939Y349660D01*
X338038D01*
X338563Y349135D01*
Y348086D01*
X338038Y347561D01*
X335939D01*
Y350709D02*
X335414Y351234D01*
Y352284D01*
X335939Y352808D01*
X338038D01*
X338563Y352284D01*
Y351234D01*
X338038Y350709D01*
X335939D01*
X335414Y353858D02*
X338038D01*
X338563Y354383D01*
Y355432D01*
X338038Y355957D01*
X335414D01*
X361063Y344437D02*
Y345486D01*
Y344962D01*
X357914D01*
X358439Y344437D01*
Y347061D02*
X357914Y347586D01*
Y348635D01*
X358439Y349160D01*
X360538D01*
X361063Y348635D01*
Y347586D01*
X360538Y347061D01*
X358439D01*
Y350209D02*
X357914Y350734D01*
Y351784D01*
X358439Y352309D01*
X360538D01*
X361063Y351784D01*
Y350734D01*
X360538Y350209D01*
X358439D01*
X357914Y353358D02*
X360538D01*
X361063Y353883D01*
Y354932D01*
X360538Y355457D01*
X357914D01*
M02*
