M48
;Layer_Color=9474304
;FILE_FORMAT=2:5
INCH,LZ
;TYPE=PLATED
T1F00S00C0.02756
T2F00S00C0.03150
T4F00S00C0.03543
%
T01
X00375Y0013
Y0043
X00615Y0037843
Y0018157
X02825Y00145
X0308Y00185
X0318
Y00425
X0308
X02825Y00445
X0335Y00365
X0365
X0359843Y00605
X0340157
X0318Y0066
X0308
Y009
X0318
Y0114
X0308
Y0138
X0318
Y0162
X0308
Y0186
X0318
Y021
X0308
X02825Y02045
Y01745
Y015
Y014
Y01245
Y00945
Y007
Y006
X02585
Y007
X02345
Y006
Y014
Y015
X02585
Y014
X0211
Y015
X0187
Y014
X0163
Y015
X0139
Y014
X0115
Y015
X0091
Y014
X0067
Y015
X00615Y0178157
Y0197843
Y0117843
Y0098157
X0067Y007
Y006
X0091
Y007
X0115
Y006
X0139
Y007
X0163
Y006
X0187
Y007
X0211
Y006
X00435
Y007
X00195
Y006
X00375Y0093
Y0123
X00435Y014
Y015
X00195
Y014
X00375Y0173
Y0203
X00435Y022
Y023
X00195
Y022
X00375Y02545
Y02845
X00435Y03015
Y03115
X00195
Y03015
X00375Y0334
Y0364
X00615Y0358843
Y0339157
X0067Y03115
Y03015
X0091
Y03115
X0115
Y03015
X0139
Y03115
X0163
Y03015
X0187
Y03115
X0211
Y03015
Y023
Y022
X0187
Y023
X0163
Y022
X0139
Y023
X0115
Y022
X0091
Y023
X0067
Y022
X00615Y0259657
Y0279343
X02345Y03015
Y03115
X02585
Y03015
X02825
Y03115
Y03355
Y03655
X0317063Y0363937
X0327221Y0350437
X0346905Y0350437
X0347063Y0336937
X0362563Y0339595
X0362063Y0324437
Y0314437
X0354563Y0319437
X0324563Y0324437
Y0314437
X0317063Y0336937
X0318Y02815
X0308
Y02575
X0318
Y02335
X0308
X02825Y023
Y022
X02585
Y023
X02345
Y022
X02825Y0256
Y0286
X03335Y02815
X03635
X0362563Y0359279
X0347063Y0363937
X0356063Y0379937
X0363563Y0384937
Y0374937
X0323063Y0375937
Y0385937
X02825Y0381
Y0391
X02585
Y0381
X02345
Y0391
X0211
Y0381
X0187
Y0391
X0163
Y0381
X0139
Y0391
X0115
Y0381
X0091
Y0391
X0067
Y0381
X00435
Y0391
X00195
Y0381
T02
X0086657Y0018657
X0106343
X00965Y0038343
X01345Y0043
X01445
X01545
X01645
X0192
X0202
X0212
Y0013
X0202
X0192
X01645
X01545
X01445
X01345
X0222
X0232
X0242
X0252
X0262
Y0043
X0252
X0242
X0232
X0222
Y0093
X0232
X0242
X0252
X0262
Y0123
X0252
X0242
X0232
X0222
Y0173
X0232
X0242
X0252
X0262
Y0203
X0252
X0242
X0232
X0222
X0335Y0201
Y0211
Y0191
Y01635
Y01535
Y01435
Y01335
X0365
Y01435
Y01535
Y01635
Y0191
Y0201
Y0211
X0359343Y0105343
Y0085657
X0339657Y00955
X0212Y0093
X0202
X0192
X01645
X01545
X01445
X01345
Y0123
X01445
X01545
X01645
X0192
X0202
X0212
Y0173
X0202
X0192
X01645
X01545
X01445
X01345
Y0203
X01445
X01545
X01645
X0192
X0202
X0212
X00965Y0198343
X0086657Y0178657
X0106343
X00965Y0118343
X0086657Y0098657
X0106343
Y0260157
X0086657
X00965Y0279843
X01345Y02845
X01445
X01545
X01645
X0192
X0202
X0212
Y02545
X0202
X0192
X01645
X01545
X01445
X01345
Y0334
X01445
X01545
X01645
X0192
X0202
X0212
Y0364
X0202
X0192
X01645
X01545
X01445
X01345
X00965Y0359343
X0086657Y0339657
X0106343
X0222Y0334
X0232
X0242
X0252
X0262
Y0364
X0252
X0242
X0232
X0222
Y02845
X0232
X0242
X0252
X0262
Y02545
X0252
X0242
X0232
X0222
X0335Y0251
Y0261
Y0241
Y0231
Y0221
X0365
Y0231
Y0241
Y0251
Y0261
T04
X0015Y0024
Y0034
X0344Y0014
X0354
X0015Y0104
Y0114
Y0184
Y0194
Y02655
Y02755
Y0345
Y0355
X0343563Y0375937
Y0385937
M30
