G04 Layer_Color=32896*
%FSLAX25Y25*%
%MOIN*%
G70*
G01*
G75*
%ADD29C,0.00787*%
%ADD30C,0.00800*%
%ADD31C,0.00000*%
%ADD32C,0.00600*%
%ADD33C,0.00500*%
D29*
X347358Y55158D02*
G03*
X347358Y55158I-394J0D01*
G01*
D02*
G03*
X347358Y55158I-394J0D01*
G01*
X263358D02*
G03*
X263358Y55158I-394J0D01*
G01*
D02*
G03*
X263358Y55158I-394J0D01*
G01*
X56051Y123035D02*
G03*
X56051Y123035I-394J0D01*
G01*
D02*
G03*
X56051Y123035I-394J0D01*
G01*
Y204035D02*
G03*
X56051Y204035I-394J0D01*
G01*
D02*
G03*
X56051Y204035I-394J0D01*
G01*
Y285035D02*
G03*
X56051Y285035I-394J0D01*
G01*
D02*
G03*
X56051Y285035I-394J0D01*
G01*
X55551Y365035D02*
G03*
X55551Y365035I-394J0D01*
G01*
D02*
G03*
X55551Y365035I-394J0D01*
G01*
X56051Y42535D02*
G03*
X56051Y42535I-394J0D01*
G01*
D02*
G03*
X56051Y42535I-394J0D01*
G01*
D30*
X360955Y238466D02*
G03*
X360955Y227408I8848J-5529D01*
G01*
Y238466D02*
G03*
X360955Y227408I8848J-5529D01*
G01*
X362455Y298966D02*
G03*
X362455Y287908I8848J-5529D01*
G01*
Y298966D02*
G03*
X362455Y287908I8848J-5529D01*
G01*
Y390466D02*
G03*
X362455Y379408I8848J-5529D01*
G01*
Y390466D02*
G03*
X362455Y379408I8848J-5529D01*
G01*
X360955Y329966D02*
G03*
X360955Y318908I8848J-5529D01*
G01*
Y329966D02*
G03*
X360955Y318908I8848J-5529D01*
G01*
X277455Y329966D02*
G03*
X277455Y318908I8848J-5529D01*
G01*
Y329966D02*
G03*
X277455Y318908I8848J-5529D01*
G01*
X278955Y390466D02*
G03*
X278955Y379408I8848J-5529D01*
G01*
Y390466D02*
G03*
X278955Y379408I8848J-5529D01*
G01*
Y298966D02*
G03*
X278955Y287908I8848J-5529D01*
G01*
Y298966D02*
G03*
X278955Y287908I8848J-5529D01*
G01*
X277455Y238466D02*
G03*
X277455Y227408I8848J-5529D01*
G01*
Y238466D02*
G03*
X277455Y227408I8848J-5529D01*
G01*
D31*
X360800Y211800D02*
G03*
X363200Y211800I1200J0D01*
G01*
X360800D02*
G03*
X363200Y211800I1200J0D01*
G01*
Y87500D02*
G03*
X360800Y87500I-1200J0D01*
G01*
X363200D02*
G03*
X360800Y87500I-1200J0D01*
G01*
X276800Y211800D02*
G03*
X279200Y211800I1200J0D01*
G01*
X276800D02*
G03*
X279200Y211800I1200J0D01*
G01*
Y87500D02*
G03*
X276800Y87500I-1200J0D01*
G01*
X279200D02*
G03*
X276800Y87500I-1200J0D01*
G01*
X212300Y109200D02*
G03*
X212300Y106800I0J-1200D01*
G01*
Y109200D02*
G03*
X212300Y106800I0J-1200D01*
G01*
X88000D02*
G03*
X88000Y109200I0J1200D01*
G01*
Y106800D02*
G03*
X88000Y109200I0J1200D01*
G01*
X212300Y190200D02*
G03*
X212300Y187800I0J-1200D01*
G01*
Y190200D02*
G03*
X212300Y187800I0J-1200D01*
G01*
X88000D02*
G03*
X88000Y190200I0J1200D01*
G01*
Y187800D02*
G03*
X88000Y190200I0J1200D01*
G01*
X212300Y271200D02*
G03*
X212300Y268800I0J-1200D01*
G01*
Y271200D02*
G03*
X212300Y268800I0J-1200D01*
G01*
X88000D02*
G03*
X88000Y271200I0J1200D01*
G01*
Y268800D02*
G03*
X88000Y271200I0J1200D01*
G01*
X211800Y351200D02*
G03*
X211800Y348800I0J-1200D01*
G01*
Y351200D02*
G03*
X211800Y348800I0J-1200D01*
G01*
X87500D02*
G03*
X87500Y351200I0J1200D01*
G01*
Y348800D02*
G03*
X87500Y351200I0J1200D01*
G01*
X212300Y28700D02*
G03*
X212300Y26300I0J-1200D01*
G01*
Y28700D02*
G03*
X212300Y26300I0J-1200D01*
G01*
X88000D02*
G03*
X88000Y28700I0J1200D01*
G01*
Y26300D02*
G03*
X88000Y28700I0J1200D01*
G01*
X376000Y90300D02*
Y94700D01*
Y90300D02*
X379200D01*
Y94700D01*
X376000D02*
X379200D01*
X376000Y100300D02*
Y104700D01*
Y100300D02*
X379200D01*
Y104700D01*
X376000D02*
X379200D01*
X376000Y110300D02*
Y114700D01*
Y110300D02*
X379200D01*
Y114700D01*
X376000D02*
X379200D01*
X376000Y120300D02*
Y124700D01*
Y120300D02*
X379200D01*
Y124700D01*
X376000D02*
X379200D01*
X348000Y120300D02*
Y124700D01*
X344800D02*
X348000D01*
X344800Y120300D02*
Y124700D01*
Y120300D02*
X348000D01*
Y110300D02*
Y114700D01*
X344800D02*
X348000D01*
X344800Y110300D02*
Y114700D01*
Y110300D02*
X348000D01*
Y100300D02*
Y104700D01*
X344800D02*
X348000D01*
X344800Y100300D02*
Y104700D01*
Y100300D02*
X348000D01*
Y90300D02*
Y94700D01*
X344800D02*
X348000D01*
X344800Y90300D02*
Y94700D01*
Y90300D02*
X348000D01*
Y127500D02*
X376000D01*
X348000Y87500D02*
Y127500D01*
Y87500D02*
X360800D01*
X363200D01*
X376000D01*
Y127500D01*
Y90300D02*
Y94700D01*
Y90300D02*
X379200D01*
Y94700D01*
X376000D02*
X379200D01*
X376000Y100300D02*
Y104700D01*
Y100300D02*
X379200D01*
Y104700D01*
X376000D02*
X379200D01*
X376000Y110300D02*
Y114700D01*
Y110300D02*
X379200D01*
Y114700D01*
X376000D02*
X379200D01*
X376000Y120300D02*
Y124700D01*
Y120300D02*
X379200D01*
Y124700D01*
X376000D02*
X379200D01*
X348000Y120300D02*
Y124700D01*
X344800D02*
X348000D01*
X344800Y120300D02*
Y124700D01*
Y120300D02*
X348000D01*
Y110300D02*
Y114700D01*
X344800D02*
X348000D01*
X344800Y110300D02*
Y114700D01*
Y110300D02*
X348000D01*
Y100300D02*
Y104700D01*
X344800D02*
X348000D01*
X344800Y100300D02*
Y104700D01*
Y100300D02*
X348000D01*
Y90300D02*
Y94700D01*
X344800D02*
X348000D01*
X344800Y90300D02*
Y94700D01*
Y90300D02*
X348000D01*
Y127500D02*
X376000D01*
X348000Y87500D02*
Y127500D01*
Y87500D02*
X360800D01*
X363200D01*
X376000D01*
Y127500D01*
X292000Y90300D02*
Y94700D01*
Y90300D02*
X295200D01*
Y94700D01*
X292000D02*
X295200D01*
X292000Y100300D02*
Y104700D01*
Y100300D02*
X295200D01*
Y104700D01*
X292000D02*
X295200D01*
X292000Y110300D02*
Y114700D01*
Y110300D02*
X295200D01*
Y114700D01*
X292000D02*
X295200D01*
X292000Y120300D02*
Y124700D01*
Y120300D02*
X295200D01*
Y124700D01*
X292000D02*
X295200D01*
X264000Y120300D02*
Y124700D01*
X260800D02*
X264000D01*
X260800Y120300D02*
Y124700D01*
Y120300D02*
X264000D01*
Y110300D02*
Y114700D01*
X260800D02*
X264000D01*
X260800Y110300D02*
Y114700D01*
Y110300D02*
X264000D01*
Y100300D02*
Y104700D01*
X260800D02*
X264000D01*
X260800Y100300D02*
Y104700D01*
Y100300D02*
X264000D01*
Y90300D02*
Y94700D01*
X260800D02*
X264000D01*
X260800Y90300D02*
Y94700D01*
Y90300D02*
X264000D01*
Y127500D02*
X292000D01*
X264000Y87500D02*
Y127500D01*
Y87500D02*
X276800D01*
X279200D01*
X292000D01*
Y127500D01*
Y90300D02*
Y94700D01*
Y90300D02*
X295200D01*
Y94700D01*
X292000D02*
X295200D01*
X292000Y100300D02*
Y104700D01*
Y100300D02*
X295200D01*
Y104700D01*
X292000D02*
X295200D01*
X292000Y110300D02*
Y114700D01*
Y110300D02*
X295200D01*
Y114700D01*
X292000D02*
X295200D01*
X292000Y120300D02*
Y124700D01*
Y120300D02*
X295200D01*
Y124700D01*
X292000D02*
X295200D01*
X264000Y120300D02*
Y124700D01*
X260800D02*
X264000D01*
X260800Y120300D02*
Y124700D01*
Y120300D02*
X264000D01*
Y110300D02*
Y114700D01*
X260800D02*
X264000D01*
X260800Y110300D02*
Y114700D01*
Y110300D02*
X264000D01*
Y100300D02*
Y104700D01*
X260800D02*
X264000D01*
X260800Y100300D02*
Y104700D01*
Y100300D02*
X264000D01*
Y90300D02*
Y94700D01*
X260800D02*
X264000D01*
X260800Y90300D02*
Y94700D01*
Y90300D02*
X264000D01*
Y127500D02*
X292000D01*
X264000Y87500D02*
Y127500D01*
Y87500D02*
X276800D01*
X279200D01*
X292000D01*
Y127500D01*
X90800Y94000D02*
X95200D01*
X90800Y90800D02*
Y94000D01*
Y90800D02*
X95200D01*
Y94000D01*
X100800D02*
X105200D01*
X100800Y90800D02*
Y94000D01*
Y90800D02*
X105200D01*
Y94000D01*
X110800D02*
X115200D01*
X110800Y90800D02*
Y94000D01*
Y90800D02*
X115200D01*
Y94000D01*
X120800D02*
X125200D01*
X120800Y90800D02*
Y94000D01*
Y90800D02*
X125200D01*
Y94000D01*
X120800Y122000D02*
X125200D01*
Y125200D01*
X120800D02*
X125200D01*
X120800Y122000D02*
Y125200D01*
X110800Y122000D02*
X115200D01*
Y125200D01*
X110800D02*
X115200D01*
X110800Y122000D02*
Y125200D01*
X100800Y122000D02*
X105200D01*
Y125200D01*
X100800D02*
X105200D01*
X100800Y122000D02*
Y125200D01*
X90800Y122000D02*
X95200D01*
Y125200D01*
X90800D02*
X95200D01*
X90800Y122000D02*
Y125200D01*
X128000Y94000D02*
Y122000D01*
X88000D02*
X128000D01*
X88000Y109200D02*
Y122000D01*
Y106800D02*
Y109200D01*
Y94000D02*
Y106800D01*
Y94000D02*
X128000D01*
X90800D02*
X95200D01*
X90800Y90800D02*
Y94000D01*
Y90800D02*
X95200D01*
Y94000D01*
X100800D02*
X105200D01*
X100800Y90800D02*
Y94000D01*
Y90800D02*
X105200D01*
Y94000D01*
X110800D02*
X115200D01*
X110800Y90800D02*
Y94000D01*
Y90800D02*
X115200D01*
Y94000D01*
X120800D02*
X125200D01*
X120800Y90800D02*
Y94000D01*
Y90800D02*
X125200D01*
Y94000D01*
X120800Y122000D02*
X125200D01*
Y125200D01*
X120800D02*
X125200D01*
X120800Y122000D02*
Y125200D01*
X110800Y122000D02*
X115200D01*
Y125200D01*
X110800D02*
X115200D01*
X110800Y122000D02*
Y125200D01*
X100800Y122000D02*
X105200D01*
Y125200D01*
X100800D02*
X105200D01*
X100800Y122000D02*
Y125200D01*
X90800Y122000D02*
X95200D01*
Y125200D01*
X90800D02*
X95200D01*
X90800Y122000D02*
Y125200D01*
X128000Y94000D02*
Y122000D01*
X88000D02*
X128000D01*
X88000Y109200D02*
Y122000D01*
Y106800D02*
Y109200D01*
Y94000D02*
Y106800D01*
Y94000D02*
X128000D01*
X90800Y175000D02*
X95200D01*
X90800Y171800D02*
Y175000D01*
Y171800D02*
X95200D01*
Y175000D01*
X100800D02*
X105200D01*
X100800Y171800D02*
Y175000D01*
Y171800D02*
X105200D01*
Y175000D01*
X110800D02*
X115200D01*
X110800Y171800D02*
Y175000D01*
Y171800D02*
X115200D01*
Y175000D01*
X120800D02*
X125200D01*
X120800Y171800D02*
Y175000D01*
Y171800D02*
X125200D01*
Y175000D01*
X120800Y203000D02*
X125200D01*
Y206200D01*
X120800D02*
X125200D01*
X120800Y203000D02*
Y206200D01*
X110800Y203000D02*
X115200D01*
Y206200D01*
X110800D02*
X115200D01*
X110800Y203000D02*
Y206200D01*
X100800Y203000D02*
X105200D01*
Y206200D01*
X100800D02*
X105200D01*
X100800Y203000D02*
Y206200D01*
X90800Y203000D02*
X95200D01*
Y206200D01*
X90800D02*
X95200D01*
X90800Y203000D02*
Y206200D01*
X128000Y175000D02*
Y203000D01*
X88000D02*
X128000D01*
X88000Y190200D02*
Y203000D01*
Y187800D02*
Y190200D01*
Y175000D02*
Y187800D01*
Y175000D02*
X128000D01*
X90800D02*
X95200D01*
X90800Y171800D02*
Y175000D01*
Y171800D02*
X95200D01*
Y175000D01*
X100800D02*
X105200D01*
X100800Y171800D02*
Y175000D01*
Y171800D02*
X105200D01*
Y175000D01*
X110800D02*
X115200D01*
X110800Y171800D02*
Y175000D01*
Y171800D02*
X115200D01*
Y175000D01*
X120800D02*
X125200D01*
X120800Y171800D02*
Y175000D01*
Y171800D02*
X125200D01*
Y175000D01*
X120800Y203000D02*
X125200D01*
Y206200D01*
X120800D02*
X125200D01*
X120800Y203000D02*
Y206200D01*
X110800Y203000D02*
X115200D01*
Y206200D01*
X110800D02*
X115200D01*
X110800Y203000D02*
Y206200D01*
X100800Y203000D02*
X105200D01*
Y206200D01*
X100800D02*
X105200D01*
X100800Y203000D02*
Y206200D01*
X90800Y203000D02*
X95200D01*
Y206200D01*
X90800D02*
X95200D01*
X90800Y203000D02*
Y206200D01*
X128000Y175000D02*
Y203000D01*
X88000D02*
X128000D01*
X88000Y190200D02*
Y203000D01*
Y187800D02*
Y190200D01*
Y175000D02*
Y187800D01*
Y175000D02*
X128000D01*
X90800Y256000D02*
X95200D01*
X90800Y252800D02*
Y256000D01*
Y252800D02*
X95200D01*
Y256000D01*
X100800D02*
X105200D01*
X100800Y252800D02*
Y256000D01*
Y252800D02*
X105200D01*
Y256000D01*
X110800D02*
X115200D01*
X110800Y252800D02*
Y256000D01*
Y252800D02*
X115200D01*
Y256000D01*
X120800D02*
X125200D01*
X120800Y252800D02*
Y256000D01*
Y252800D02*
X125200D01*
Y256000D01*
X120800Y284000D02*
X125200D01*
Y287200D01*
X120800D02*
X125200D01*
X120800Y284000D02*
Y287200D01*
X110800Y284000D02*
X115200D01*
Y287200D01*
X110800D02*
X115200D01*
X110800Y284000D02*
Y287200D01*
X100800Y284000D02*
X105200D01*
Y287200D01*
X100800D02*
X105200D01*
X100800Y284000D02*
Y287200D01*
X90800Y284000D02*
X95200D01*
Y287200D01*
X90800D02*
X95200D01*
X90800Y284000D02*
Y287200D01*
X128000Y256000D02*
Y284000D01*
X88000D02*
X128000D01*
X88000Y271200D02*
Y284000D01*
Y268800D02*
Y271200D01*
Y256000D02*
Y268800D01*
Y256000D02*
X128000D01*
X90800D02*
X95200D01*
X90800Y252800D02*
Y256000D01*
Y252800D02*
X95200D01*
Y256000D01*
X100800D02*
X105200D01*
X100800Y252800D02*
Y256000D01*
Y252800D02*
X105200D01*
Y256000D01*
X110800D02*
X115200D01*
X110800Y252800D02*
Y256000D01*
Y252800D02*
X115200D01*
Y256000D01*
X120800D02*
X125200D01*
X120800Y252800D02*
Y256000D01*
Y252800D02*
X125200D01*
Y256000D01*
X120800Y284000D02*
X125200D01*
Y287200D01*
X120800D02*
X125200D01*
X120800Y284000D02*
Y287200D01*
X110800Y284000D02*
X115200D01*
Y287200D01*
X110800D02*
X115200D01*
X110800Y284000D02*
Y287200D01*
X100800Y284000D02*
X105200D01*
Y287200D01*
X100800D02*
X105200D01*
X100800Y284000D02*
Y287200D01*
X90800Y284000D02*
X95200D01*
Y287200D01*
X90800D02*
X95200D01*
X90800Y284000D02*
Y287200D01*
X128000Y256000D02*
Y284000D01*
X88000D02*
X128000D01*
X88000Y271200D02*
Y284000D01*
Y268800D02*
Y271200D01*
Y256000D02*
Y268800D01*
Y256000D02*
X128000D01*
X90300Y336000D02*
X94700D01*
X90300Y332800D02*
Y336000D01*
Y332800D02*
X94700D01*
Y336000D01*
X100300D02*
X104700D01*
X100300Y332800D02*
Y336000D01*
Y332800D02*
X104700D01*
Y336000D01*
X110300D02*
X114700D01*
X110300Y332800D02*
Y336000D01*
Y332800D02*
X114700D01*
Y336000D01*
X120300D02*
X124700D01*
X120300Y332800D02*
Y336000D01*
Y332800D02*
X124700D01*
Y336000D01*
X120300Y364000D02*
X124700D01*
Y367200D01*
X120300D02*
X124700D01*
X120300Y364000D02*
Y367200D01*
X110300Y364000D02*
X114700D01*
Y367200D01*
X110300D02*
X114700D01*
X110300Y364000D02*
Y367200D01*
X100300Y364000D02*
X104700D01*
Y367200D01*
X100300D02*
X104700D01*
X100300Y364000D02*
Y367200D01*
X90300Y364000D02*
X94700D01*
Y367200D01*
X90300D02*
X94700D01*
X90300Y364000D02*
Y367200D01*
X127500Y336000D02*
Y364000D01*
X87500D02*
X127500D01*
X87500Y351200D02*
Y364000D01*
Y348800D02*
Y351200D01*
Y336000D02*
Y348800D01*
Y336000D02*
X127500D01*
X90300D02*
X94700D01*
X90300Y332800D02*
Y336000D01*
Y332800D02*
X94700D01*
Y336000D01*
X100300D02*
X104700D01*
X100300Y332800D02*
Y336000D01*
Y332800D02*
X104700D01*
Y336000D01*
X110300D02*
X114700D01*
X110300Y332800D02*
Y336000D01*
Y332800D02*
X114700D01*
Y336000D01*
X120300D02*
X124700D01*
X120300Y332800D02*
Y336000D01*
Y332800D02*
X124700D01*
Y336000D01*
X120300Y364000D02*
X124700D01*
Y367200D01*
X120300D02*
X124700D01*
X120300Y364000D02*
Y367200D01*
X110300Y364000D02*
X114700D01*
Y367200D01*
X110300D02*
X114700D01*
X110300Y364000D02*
Y367200D01*
X100300Y364000D02*
X104700D01*
Y367200D01*
X100300D02*
X104700D01*
X100300Y364000D02*
Y367200D01*
X90300Y364000D02*
X94700D01*
Y367200D01*
X90300D02*
X94700D01*
X90300Y364000D02*
Y367200D01*
X127500Y336000D02*
Y364000D01*
X87500D02*
X127500D01*
X87500Y351200D02*
Y364000D01*
Y348800D02*
Y351200D01*
Y336000D02*
Y348800D01*
Y336000D02*
X127500D01*
X90800Y13500D02*
X95200D01*
X90800Y10300D02*
Y13500D01*
Y10300D02*
X95200D01*
Y13500D01*
X100800D02*
X105200D01*
X100800Y10300D02*
Y13500D01*
Y10300D02*
X105200D01*
Y13500D01*
X110800D02*
X115200D01*
X110800Y10300D02*
Y13500D01*
Y10300D02*
X115200D01*
Y13500D01*
X120800D02*
X125200D01*
X120800Y10300D02*
Y13500D01*
Y10300D02*
X125200D01*
Y13500D01*
X120800Y41500D02*
X125200D01*
Y44700D01*
X120800D02*
X125200D01*
X120800Y41500D02*
Y44700D01*
X110800Y41500D02*
X115200D01*
Y44700D01*
X110800D02*
X115200D01*
X110800Y41500D02*
Y44700D01*
X100800Y41500D02*
X105200D01*
Y44700D01*
X100800D02*
X105200D01*
X100800Y41500D02*
Y44700D01*
X90800Y41500D02*
X95200D01*
Y44700D01*
X90800D02*
X95200D01*
X90800Y41500D02*
Y44700D01*
X128000Y13500D02*
Y41500D01*
X88000D02*
X128000D01*
X88000Y28700D02*
Y41500D01*
Y26300D02*
Y28700D01*
Y13500D02*
Y26300D01*
Y13500D02*
X128000D01*
X90800D02*
X95200D01*
X90800Y10300D02*
Y13500D01*
Y10300D02*
X95200D01*
Y13500D01*
X100800D02*
X105200D01*
X100800Y10300D02*
Y13500D01*
Y10300D02*
X105200D01*
Y13500D01*
X110800D02*
X115200D01*
X110800Y10300D02*
Y13500D01*
Y10300D02*
X115200D01*
Y13500D01*
X120800D02*
X125200D01*
X120800Y10300D02*
Y13500D01*
Y10300D02*
X125200D01*
Y13500D01*
X120800Y41500D02*
X125200D01*
Y44700D01*
X120800D02*
X125200D01*
X120800Y41500D02*
Y44700D01*
X110800Y41500D02*
X115200D01*
Y44700D01*
X110800D02*
X115200D01*
X110800Y41500D02*
Y44700D01*
X100800Y41500D02*
X105200D01*
Y44700D01*
X100800D02*
X105200D01*
X100800Y41500D02*
Y44700D01*
X90800Y41500D02*
X95200D01*
Y44700D01*
X90800D02*
X95200D01*
X90800Y41500D02*
Y44700D01*
X128000Y13500D02*
Y41500D01*
X88000D02*
X128000D01*
X88000Y28700D02*
Y41500D01*
Y26300D02*
Y28700D01*
Y13500D02*
Y26300D01*
Y13500D02*
X128000D01*
D32*
X349000Y205800D02*
Y210200D01*
X344800D02*
X349000D01*
X344800Y205800D02*
Y210200D01*
Y205800D02*
X349000D01*
Y195800D02*
Y200200D01*
X344800D02*
X349000D01*
X344800Y195800D02*
Y200200D01*
Y195800D02*
X349000D01*
Y185800D02*
Y190200D01*
X344800D02*
X349000D01*
X344800Y185800D02*
Y190200D01*
Y185800D02*
X349000D01*
Y175800D02*
Y180200D01*
X344800D02*
X349000D01*
X344800Y175800D02*
Y180200D01*
Y175800D02*
X349000D01*
Y165800D02*
Y170200D01*
X344800D02*
X349000D01*
X344800Y165800D02*
Y170200D01*
Y165800D02*
X349000D01*
Y155800D02*
Y160200D01*
X344800D02*
X349000D01*
X344800Y155800D02*
Y160200D01*
Y155800D02*
X349000D01*
Y145800D02*
Y150200D01*
X344800D02*
X349000D01*
X344800Y145800D02*
Y150200D01*
Y145800D02*
X349000D01*
Y135800D02*
Y140200D01*
X344800D02*
X349000D01*
X344800Y135800D02*
Y140200D01*
Y135800D02*
X349000D01*
X375000D02*
Y140200D01*
Y135800D02*
X379200D01*
Y140200D01*
X375000D02*
X379200D01*
X375000Y145800D02*
Y150200D01*
Y145800D02*
X379200D01*
Y150200D01*
X375000D02*
X379200D01*
X375000Y155800D02*
Y160200D01*
Y155800D02*
X379200D01*
Y160200D01*
X375000D02*
X379200D01*
X375000Y165800D02*
Y170200D01*
Y165800D02*
X379200D01*
Y170200D01*
X375000D02*
X379200D01*
X375000Y175800D02*
Y180200D01*
Y175800D02*
X379200D01*
Y180200D01*
X375000D02*
X379200D01*
X375000Y185800D02*
Y190200D01*
Y185800D02*
X379200D01*
Y190200D01*
X375000D02*
X379200D01*
X375000Y195800D02*
Y200200D01*
Y195800D02*
X379200D01*
Y200200D01*
X375000D02*
X379200D01*
X375000Y205800D02*
Y210200D01*
Y205800D02*
X379200D01*
Y210200D01*
X375000D02*
X379200D01*
X349000Y134200D02*
X375000D01*
Y211800D01*
X363200D02*
X375000D01*
X360800D02*
X363200D01*
X349000D02*
X360800D01*
X349000Y134200D02*
Y211800D01*
Y205800D02*
Y210200D01*
X344800D02*
X349000D01*
X344800Y205800D02*
Y210200D01*
Y205800D02*
X349000D01*
Y195800D02*
Y200200D01*
X344800D02*
X349000D01*
X344800Y195800D02*
Y200200D01*
Y195800D02*
X349000D01*
Y185800D02*
Y190200D01*
X344800D02*
X349000D01*
X344800Y185800D02*
Y190200D01*
Y185800D02*
X349000D01*
Y175800D02*
Y180200D01*
X344800D02*
X349000D01*
X344800Y175800D02*
Y180200D01*
Y175800D02*
X349000D01*
Y165800D02*
Y170200D01*
X344800D02*
X349000D01*
X344800Y165800D02*
Y170200D01*
Y165800D02*
X349000D01*
Y155800D02*
Y160200D01*
X344800D02*
X349000D01*
X344800Y155800D02*
Y160200D01*
Y155800D02*
X349000D01*
Y145800D02*
Y150200D01*
X344800D02*
X349000D01*
X344800Y145800D02*
Y150200D01*
Y145800D02*
X349000D01*
Y135800D02*
Y140200D01*
X344800D02*
X349000D01*
X344800Y135800D02*
Y140200D01*
Y135800D02*
X349000D01*
X375000D02*
Y140200D01*
Y135800D02*
X379200D01*
Y140200D01*
X375000D02*
X379200D01*
X375000Y145800D02*
Y150200D01*
Y145800D02*
X379200D01*
Y150200D01*
X375000D02*
X379200D01*
X375000Y155800D02*
Y160200D01*
Y155800D02*
X379200D01*
Y160200D01*
X375000D02*
X379200D01*
X375000Y165800D02*
Y170200D01*
Y165800D02*
X379200D01*
Y170200D01*
X375000D02*
X379200D01*
X375000Y175800D02*
Y180200D01*
Y175800D02*
X379200D01*
Y180200D01*
X375000D02*
X379200D01*
X375000Y185800D02*
Y190200D01*
Y185800D02*
X379200D01*
Y190200D01*
X375000D02*
X379200D01*
X375000Y195800D02*
Y200200D01*
Y195800D02*
X379200D01*
Y200200D01*
X375000D02*
X379200D01*
X375000Y205800D02*
Y210200D01*
Y205800D02*
X379200D01*
Y210200D01*
X375000D02*
X379200D01*
X349000Y134200D02*
X375000D01*
Y211800D01*
X363200D02*
X375000D01*
X360800D02*
X363200D01*
X349000D02*
X360800D01*
X349000Y134200D02*
Y211800D01*
X265000Y205800D02*
Y210200D01*
X260800D02*
X265000D01*
X260800Y205800D02*
Y210200D01*
Y205800D02*
X265000D01*
Y195800D02*
Y200200D01*
X260800D02*
X265000D01*
X260800Y195800D02*
Y200200D01*
Y195800D02*
X265000D01*
Y185800D02*
Y190200D01*
X260800D02*
X265000D01*
X260800Y185800D02*
Y190200D01*
Y185800D02*
X265000D01*
Y175800D02*
Y180200D01*
X260800D02*
X265000D01*
X260800Y175800D02*
Y180200D01*
Y175800D02*
X265000D01*
Y165800D02*
Y170200D01*
X260800D02*
X265000D01*
X260800Y165800D02*
Y170200D01*
Y165800D02*
X265000D01*
Y155800D02*
Y160200D01*
X260800D02*
X265000D01*
X260800Y155800D02*
Y160200D01*
Y155800D02*
X265000D01*
Y145800D02*
Y150200D01*
X260800D02*
X265000D01*
X260800Y145800D02*
Y150200D01*
Y145800D02*
X265000D01*
Y135800D02*
Y140200D01*
X260800D02*
X265000D01*
X260800Y135800D02*
Y140200D01*
Y135800D02*
X265000D01*
X291000D02*
Y140200D01*
Y135800D02*
X295200D01*
Y140200D01*
X291000D02*
X295200D01*
X291000Y145800D02*
Y150200D01*
Y145800D02*
X295200D01*
Y150200D01*
X291000D02*
X295200D01*
X291000Y155800D02*
Y160200D01*
Y155800D02*
X295200D01*
Y160200D01*
X291000D02*
X295200D01*
X291000Y165800D02*
Y170200D01*
Y165800D02*
X295200D01*
Y170200D01*
X291000D02*
X295200D01*
X291000Y175800D02*
Y180200D01*
Y175800D02*
X295200D01*
Y180200D01*
X291000D02*
X295200D01*
X291000Y185800D02*
Y190200D01*
Y185800D02*
X295200D01*
Y190200D01*
X291000D02*
X295200D01*
X291000Y195800D02*
Y200200D01*
Y195800D02*
X295200D01*
Y200200D01*
X291000D02*
X295200D01*
X291000Y205800D02*
Y210200D01*
Y205800D02*
X295200D01*
Y210200D01*
X291000D02*
X295200D01*
X265000Y134200D02*
X291000D01*
Y211800D01*
X279200D02*
X291000D01*
X276800D02*
X279200D01*
X265000D02*
X276800D01*
X265000Y134200D02*
Y211800D01*
Y205800D02*
Y210200D01*
X260800D02*
X265000D01*
X260800Y205800D02*
Y210200D01*
Y205800D02*
X265000D01*
Y195800D02*
Y200200D01*
X260800D02*
X265000D01*
X260800Y195800D02*
Y200200D01*
Y195800D02*
X265000D01*
Y185800D02*
Y190200D01*
X260800D02*
X265000D01*
X260800Y185800D02*
Y190200D01*
Y185800D02*
X265000D01*
Y175800D02*
Y180200D01*
X260800D02*
X265000D01*
X260800Y175800D02*
Y180200D01*
Y175800D02*
X265000D01*
Y165800D02*
Y170200D01*
X260800D02*
X265000D01*
X260800Y165800D02*
Y170200D01*
Y165800D02*
X265000D01*
Y155800D02*
Y160200D01*
X260800D02*
X265000D01*
X260800Y155800D02*
Y160200D01*
Y155800D02*
X265000D01*
Y145800D02*
Y150200D01*
X260800D02*
X265000D01*
X260800Y145800D02*
Y150200D01*
Y145800D02*
X265000D01*
Y135800D02*
Y140200D01*
X260800D02*
X265000D01*
X260800Y135800D02*
Y140200D01*
Y135800D02*
X265000D01*
X291000D02*
Y140200D01*
Y135800D02*
X295200D01*
Y140200D01*
X291000D02*
X295200D01*
X291000Y145800D02*
Y150200D01*
Y145800D02*
X295200D01*
Y150200D01*
X291000D02*
X295200D01*
X291000Y155800D02*
Y160200D01*
Y155800D02*
X295200D01*
Y160200D01*
X291000D02*
X295200D01*
X291000Y165800D02*
Y170200D01*
Y165800D02*
X295200D01*
Y170200D01*
X291000D02*
X295200D01*
X291000Y175800D02*
Y180200D01*
Y175800D02*
X295200D01*
Y180200D01*
X291000D02*
X295200D01*
X291000Y185800D02*
Y190200D01*
Y185800D02*
X295200D01*
Y190200D01*
X291000D02*
X295200D01*
X291000Y195800D02*
Y200200D01*
Y195800D02*
X295200D01*
Y200200D01*
X291000D02*
X295200D01*
X291000Y205800D02*
Y210200D01*
Y205800D02*
X295200D01*
Y210200D01*
X291000D02*
X295200D01*
X265000Y134200D02*
X291000D01*
Y211800D01*
X279200D02*
X291000D01*
X276800D02*
X279200D01*
X265000D02*
X276800D01*
X265000Y134200D02*
Y211800D01*
X206300Y121000D02*
X210700D01*
Y125200D01*
X206300D02*
X210700D01*
X206300Y121000D02*
Y125200D01*
X196300Y121000D02*
X200700D01*
Y125200D01*
X196300D02*
X200700D01*
X196300Y121000D02*
Y125200D01*
X186300Y121000D02*
X190700D01*
Y125200D01*
X186300D02*
X190700D01*
X186300Y121000D02*
Y125200D01*
X176300Y121000D02*
X180700D01*
Y125200D01*
X176300D02*
X180700D01*
X176300Y121000D02*
Y125200D01*
X166300Y121000D02*
X170700D01*
Y125200D01*
X166300D02*
X170700D01*
X166300Y121000D02*
Y125200D01*
X156300Y121000D02*
X160700D01*
Y125200D01*
X156300D02*
X160700D01*
X156300Y121000D02*
Y125200D01*
X146300Y121000D02*
X150700D01*
Y125200D01*
X146300D02*
X150700D01*
X146300Y121000D02*
Y125200D01*
X136300Y121000D02*
X140700D01*
Y125200D01*
X136300D02*
X140700D01*
X136300Y121000D02*
Y125200D01*
Y95000D02*
X140700D01*
X136300Y90800D02*
Y95000D01*
Y90800D02*
X140700D01*
Y95000D01*
X146300D02*
X150700D01*
X146300Y90800D02*
Y95000D01*
Y90800D02*
X150700D01*
Y95000D01*
X156300D02*
X160700D01*
X156300Y90800D02*
Y95000D01*
Y90800D02*
X160700D01*
Y95000D01*
X166300D02*
X170700D01*
X166300Y90800D02*
Y95000D01*
Y90800D02*
X170700D01*
Y95000D01*
X176300D02*
X180700D01*
X176300Y90800D02*
Y95000D01*
Y90800D02*
X180700D01*
Y95000D01*
X186300D02*
X190700D01*
X186300Y90800D02*
Y95000D01*
Y90800D02*
X190700D01*
Y95000D01*
X196300D02*
X200700D01*
X196300Y90800D02*
Y95000D01*
Y90800D02*
X200700D01*
Y95000D01*
X206300D02*
X210700D01*
X206300Y90800D02*
Y95000D01*
Y90800D02*
X210700D01*
Y95000D01*
X134700D02*
Y121000D01*
Y95000D02*
X212300D01*
Y106800D01*
Y109200D01*
Y121000D01*
X134700D02*
X212300D01*
X206300D02*
X210700D01*
Y125200D01*
X206300D02*
X210700D01*
X206300Y121000D02*
Y125200D01*
X196300Y121000D02*
X200700D01*
Y125200D01*
X196300D02*
X200700D01*
X196300Y121000D02*
Y125200D01*
X186300Y121000D02*
X190700D01*
Y125200D01*
X186300D02*
X190700D01*
X186300Y121000D02*
Y125200D01*
X176300Y121000D02*
X180700D01*
Y125200D01*
X176300D02*
X180700D01*
X176300Y121000D02*
Y125200D01*
X166300Y121000D02*
X170700D01*
Y125200D01*
X166300D02*
X170700D01*
X166300Y121000D02*
Y125200D01*
X156300Y121000D02*
X160700D01*
Y125200D01*
X156300D02*
X160700D01*
X156300Y121000D02*
Y125200D01*
X146300Y121000D02*
X150700D01*
Y125200D01*
X146300D02*
X150700D01*
X146300Y121000D02*
Y125200D01*
X136300Y121000D02*
X140700D01*
Y125200D01*
X136300D02*
X140700D01*
X136300Y121000D02*
Y125200D01*
Y95000D02*
X140700D01*
X136300Y90800D02*
Y95000D01*
Y90800D02*
X140700D01*
Y95000D01*
X146300D02*
X150700D01*
X146300Y90800D02*
Y95000D01*
Y90800D02*
X150700D01*
Y95000D01*
X156300D02*
X160700D01*
X156300Y90800D02*
Y95000D01*
Y90800D02*
X160700D01*
Y95000D01*
X166300D02*
X170700D01*
X166300Y90800D02*
Y95000D01*
Y90800D02*
X170700D01*
Y95000D01*
X176300D02*
X180700D01*
X176300Y90800D02*
Y95000D01*
Y90800D02*
X180700D01*
Y95000D01*
X186300D02*
X190700D01*
X186300Y90800D02*
Y95000D01*
Y90800D02*
X190700D01*
Y95000D01*
X196300D02*
X200700D01*
X196300Y90800D02*
Y95000D01*
Y90800D02*
X200700D01*
Y95000D01*
X206300D02*
X210700D01*
X206300Y90800D02*
Y95000D01*
Y90800D02*
X210700D01*
Y95000D01*
X134700D02*
Y121000D01*
Y95000D02*
X212300D01*
Y106800D01*
Y109200D01*
Y121000D01*
X134700D02*
X212300D01*
X206300Y202000D02*
X210700D01*
Y206200D01*
X206300D02*
X210700D01*
X206300Y202000D02*
Y206200D01*
X196300Y202000D02*
X200700D01*
Y206200D01*
X196300D02*
X200700D01*
X196300Y202000D02*
Y206200D01*
X186300Y202000D02*
X190700D01*
Y206200D01*
X186300D02*
X190700D01*
X186300Y202000D02*
Y206200D01*
X176300Y202000D02*
X180700D01*
Y206200D01*
X176300D02*
X180700D01*
X176300Y202000D02*
Y206200D01*
X166300Y202000D02*
X170700D01*
Y206200D01*
X166300D02*
X170700D01*
X166300Y202000D02*
Y206200D01*
X156300Y202000D02*
X160700D01*
Y206200D01*
X156300D02*
X160700D01*
X156300Y202000D02*
Y206200D01*
X146300Y202000D02*
X150700D01*
Y206200D01*
X146300D02*
X150700D01*
X146300Y202000D02*
Y206200D01*
X136300Y202000D02*
X140700D01*
Y206200D01*
X136300D02*
X140700D01*
X136300Y202000D02*
Y206200D01*
Y176000D02*
X140700D01*
X136300Y171800D02*
Y176000D01*
Y171800D02*
X140700D01*
Y176000D01*
X146300D02*
X150700D01*
X146300Y171800D02*
Y176000D01*
Y171800D02*
X150700D01*
Y176000D01*
X156300D02*
X160700D01*
X156300Y171800D02*
Y176000D01*
Y171800D02*
X160700D01*
Y176000D01*
X166300D02*
X170700D01*
X166300Y171800D02*
Y176000D01*
Y171800D02*
X170700D01*
Y176000D01*
X176300D02*
X180700D01*
X176300Y171800D02*
Y176000D01*
Y171800D02*
X180700D01*
Y176000D01*
X186300D02*
X190700D01*
X186300Y171800D02*
Y176000D01*
Y171800D02*
X190700D01*
Y176000D01*
X196300D02*
X200700D01*
X196300Y171800D02*
Y176000D01*
Y171800D02*
X200700D01*
Y176000D01*
X206300D02*
X210700D01*
X206300Y171800D02*
Y176000D01*
Y171800D02*
X210700D01*
Y176000D01*
X134700D02*
Y202000D01*
Y176000D02*
X212300D01*
Y187800D01*
Y190200D01*
Y202000D01*
X134700D02*
X212300D01*
X206300D02*
X210700D01*
Y206200D01*
X206300D02*
X210700D01*
X206300Y202000D02*
Y206200D01*
X196300Y202000D02*
X200700D01*
Y206200D01*
X196300D02*
X200700D01*
X196300Y202000D02*
Y206200D01*
X186300Y202000D02*
X190700D01*
Y206200D01*
X186300D02*
X190700D01*
X186300Y202000D02*
Y206200D01*
X176300Y202000D02*
X180700D01*
Y206200D01*
X176300D02*
X180700D01*
X176300Y202000D02*
Y206200D01*
X166300Y202000D02*
X170700D01*
Y206200D01*
X166300D02*
X170700D01*
X166300Y202000D02*
Y206200D01*
X156300Y202000D02*
X160700D01*
Y206200D01*
X156300D02*
X160700D01*
X156300Y202000D02*
Y206200D01*
X146300Y202000D02*
X150700D01*
Y206200D01*
X146300D02*
X150700D01*
X146300Y202000D02*
Y206200D01*
X136300Y202000D02*
X140700D01*
Y206200D01*
X136300D02*
X140700D01*
X136300Y202000D02*
Y206200D01*
Y176000D02*
X140700D01*
X136300Y171800D02*
Y176000D01*
Y171800D02*
X140700D01*
Y176000D01*
X146300D02*
X150700D01*
X146300Y171800D02*
Y176000D01*
Y171800D02*
X150700D01*
Y176000D01*
X156300D02*
X160700D01*
X156300Y171800D02*
Y176000D01*
Y171800D02*
X160700D01*
Y176000D01*
X166300D02*
X170700D01*
X166300Y171800D02*
Y176000D01*
Y171800D02*
X170700D01*
Y176000D01*
X176300D02*
X180700D01*
X176300Y171800D02*
Y176000D01*
Y171800D02*
X180700D01*
Y176000D01*
X186300D02*
X190700D01*
X186300Y171800D02*
Y176000D01*
Y171800D02*
X190700D01*
Y176000D01*
X196300D02*
X200700D01*
X196300Y171800D02*
Y176000D01*
Y171800D02*
X200700D01*
Y176000D01*
X206300D02*
X210700D01*
X206300Y171800D02*
Y176000D01*
Y171800D02*
X210700D01*
Y176000D01*
X134700D02*
Y202000D01*
Y176000D02*
X212300D01*
Y187800D01*
Y190200D01*
Y202000D01*
X134700D02*
X212300D01*
X206300Y283000D02*
X210700D01*
Y287200D01*
X206300D02*
X210700D01*
X206300Y283000D02*
Y287200D01*
X196300Y283000D02*
X200700D01*
Y287200D01*
X196300D02*
X200700D01*
X196300Y283000D02*
Y287200D01*
X186300Y283000D02*
X190700D01*
Y287200D01*
X186300D02*
X190700D01*
X186300Y283000D02*
Y287200D01*
X176300Y283000D02*
X180700D01*
Y287200D01*
X176300D02*
X180700D01*
X176300Y283000D02*
Y287200D01*
X166300Y283000D02*
X170700D01*
Y287200D01*
X166300D02*
X170700D01*
X166300Y283000D02*
Y287200D01*
X156300Y283000D02*
X160700D01*
Y287200D01*
X156300D02*
X160700D01*
X156300Y283000D02*
Y287200D01*
X146300Y283000D02*
X150700D01*
Y287200D01*
X146300D02*
X150700D01*
X146300Y283000D02*
Y287200D01*
X136300Y283000D02*
X140700D01*
Y287200D01*
X136300D02*
X140700D01*
X136300Y283000D02*
Y287200D01*
Y257000D02*
X140700D01*
X136300Y252800D02*
Y257000D01*
Y252800D02*
X140700D01*
Y257000D01*
X146300D02*
X150700D01*
X146300Y252800D02*
Y257000D01*
Y252800D02*
X150700D01*
Y257000D01*
X156300D02*
X160700D01*
X156300Y252800D02*
Y257000D01*
Y252800D02*
X160700D01*
Y257000D01*
X166300D02*
X170700D01*
X166300Y252800D02*
Y257000D01*
Y252800D02*
X170700D01*
Y257000D01*
X176300D02*
X180700D01*
X176300Y252800D02*
Y257000D01*
Y252800D02*
X180700D01*
Y257000D01*
X186300D02*
X190700D01*
X186300Y252800D02*
Y257000D01*
Y252800D02*
X190700D01*
Y257000D01*
X196300D02*
X200700D01*
X196300Y252800D02*
Y257000D01*
Y252800D02*
X200700D01*
Y257000D01*
X206300D02*
X210700D01*
X206300Y252800D02*
Y257000D01*
Y252800D02*
X210700D01*
Y257000D01*
X134700D02*
Y283000D01*
Y257000D02*
X212300D01*
Y268800D01*
Y271200D01*
Y283000D01*
X134700D02*
X212300D01*
X206300D02*
X210700D01*
Y287200D01*
X206300D02*
X210700D01*
X206300Y283000D02*
Y287200D01*
X196300Y283000D02*
X200700D01*
Y287200D01*
X196300D02*
X200700D01*
X196300Y283000D02*
Y287200D01*
X186300Y283000D02*
X190700D01*
Y287200D01*
X186300D02*
X190700D01*
X186300Y283000D02*
Y287200D01*
X176300Y283000D02*
X180700D01*
Y287200D01*
X176300D02*
X180700D01*
X176300Y283000D02*
Y287200D01*
X166300Y283000D02*
X170700D01*
Y287200D01*
X166300D02*
X170700D01*
X166300Y283000D02*
Y287200D01*
X156300Y283000D02*
X160700D01*
Y287200D01*
X156300D02*
X160700D01*
X156300Y283000D02*
Y287200D01*
X146300Y283000D02*
X150700D01*
Y287200D01*
X146300D02*
X150700D01*
X146300Y283000D02*
Y287200D01*
X136300Y283000D02*
X140700D01*
Y287200D01*
X136300D02*
X140700D01*
X136300Y283000D02*
Y287200D01*
Y257000D02*
X140700D01*
X136300Y252800D02*
Y257000D01*
Y252800D02*
X140700D01*
Y257000D01*
X146300D02*
X150700D01*
X146300Y252800D02*
Y257000D01*
Y252800D02*
X150700D01*
Y257000D01*
X156300D02*
X160700D01*
X156300Y252800D02*
Y257000D01*
Y252800D02*
X160700D01*
Y257000D01*
X166300D02*
X170700D01*
X166300Y252800D02*
Y257000D01*
Y252800D02*
X170700D01*
Y257000D01*
X176300D02*
X180700D01*
X176300Y252800D02*
Y257000D01*
Y252800D02*
X180700D01*
Y257000D01*
X186300D02*
X190700D01*
X186300Y252800D02*
Y257000D01*
Y252800D02*
X190700D01*
Y257000D01*
X196300D02*
X200700D01*
X196300Y252800D02*
Y257000D01*
Y252800D02*
X200700D01*
Y257000D01*
X206300D02*
X210700D01*
X206300Y252800D02*
Y257000D01*
Y252800D02*
X210700D01*
Y257000D01*
X134700D02*
Y283000D01*
Y257000D02*
X212300D01*
Y268800D01*
Y271200D01*
Y283000D01*
X134700D02*
X212300D01*
X205800Y363000D02*
X210200D01*
Y367200D01*
X205800D02*
X210200D01*
X205800Y363000D02*
Y367200D01*
X195800Y363000D02*
X200200D01*
Y367200D01*
X195800D02*
X200200D01*
X195800Y363000D02*
Y367200D01*
X185800Y363000D02*
X190200D01*
Y367200D01*
X185800D02*
X190200D01*
X185800Y363000D02*
Y367200D01*
X175800Y363000D02*
X180200D01*
Y367200D01*
X175800D02*
X180200D01*
X175800Y363000D02*
Y367200D01*
X165800Y363000D02*
X170200D01*
Y367200D01*
X165800D02*
X170200D01*
X165800Y363000D02*
Y367200D01*
X155800Y363000D02*
X160200D01*
Y367200D01*
X155800D02*
X160200D01*
X155800Y363000D02*
Y367200D01*
X145800Y363000D02*
X150200D01*
Y367200D01*
X145800D02*
X150200D01*
X145800Y363000D02*
Y367200D01*
X135800Y363000D02*
X140200D01*
Y367200D01*
X135800D02*
X140200D01*
X135800Y363000D02*
Y367200D01*
Y337000D02*
X140200D01*
X135800Y332800D02*
Y337000D01*
Y332800D02*
X140200D01*
Y337000D01*
X145800D02*
X150200D01*
X145800Y332800D02*
Y337000D01*
Y332800D02*
X150200D01*
Y337000D01*
X155800D02*
X160200D01*
X155800Y332800D02*
Y337000D01*
Y332800D02*
X160200D01*
Y337000D01*
X165800D02*
X170200D01*
X165800Y332800D02*
Y337000D01*
Y332800D02*
X170200D01*
Y337000D01*
X175800D02*
X180200D01*
X175800Y332800D02*
Y337000D01*
Y332800D02*
X180200D01*
Y337000D01*
X185800D02*
X190200D01*
X185800Y332800D02*
Y337000D01*
Y332800D02*
X190200D01*
Y337000D01*
X195800D02*
X200200D01*
X195800Y332800D02*
Y337000D01*
Y332800D02*
X200200D01*
Y337000D01*
X205800D02*
X210200D01*
X205800Y332800D02*
Y337000D01*
Y332800D02*
X210200D01*
Y337000D01*
X134200D02*
Y363000D01*
Y337000D02*
X211800D01*
Y348800D01*
Y351200D01*
Y363000D01*
X134200D02*
X211800D01*
X205800D02*
X210200D01*
Y367200D01*
X205800D02*
X210200D01*
X205800Y363000D02*
Y367200D01*
X195800Y363000D02*
X200200D01*
Y367200D01*
X195800D02*
X200200D01*
X195800Y363000D02*
Y367200D01*
X185800Y363000D02*
X190200D01*
Y367200D01*
X185800D02*
X190200D01*
X185800Y363000D02*
Y367200D01*
X175800Y363000D02*
X180200D01*
Y367200D01*
X175800D02*
X180200D01*
X175800Y363000D02*
Y367200D01*
X165800Y363000D02*
X170200D01*
Y367200D01*
X165800D02*
X170200D01*
X165800Y363000D02*
Y367200D01*
X155800Y363000D02*
X160200D01*
Y367200D01*
X155800D02*
X160200D01*
X155800Y363000D02*
Y367200D01*
X145800Y363000D02*
X150200D01*
Y367200D01*
X145800D02*
X150200D01*
X145800Y363000D02*
Y367200D01*
X135800Y363000D02*
X140200D01*
Y367200D01*
X135800D02*
X140200D01*
X135800Y363000D02*
Y367200D01*
Y337000D02*
X140200D01*
X135800Y332800D02*
Y337000D01*
Y332800D02*
X140200D01*
Y337000D01*
X145800D02*
X150200D01*
X145800Y332800D02*
Y337000D01*
Y332800D02*
X150200D01*
Y337000D01*
X155800D02*
X160200D01*
X155800Y332800D02*
Y337000D01*
Y332800D02*
X160200D01*
Y337000D01*
X165800D02*
X170200D01*
X165800Y332800D02*
Y337000D01*
Y332800D02*
X170200D01*
Y337000D01*
X175800D02*
X180200D01*
X175800Y332800D02*
Y337000D01*
Y332800D02*
X180200D01*
Y337000D01*
X185800D02*
X190200D01*
X185800Y332800D02*
Y337000D01*
Y332800D02*
X190200D01*
Y337000D01*
X195800D02*
X200200D01*
X195800Y332800D02*
Y337000D01*
Y332800D02*
X200200D01*
Y337000D01*
X205800D02*
X210200D01*
X205800Y332800D02*
Y337000D01*
Y332800D02*
X210200D01*
Y337000D01*
X134200D02*
Y363000D01*
Y337000D02*
X211800D01*
Y348800D01*
Y351200D01*
Y363000D01*
X134200D02*
X211800D01*
X206300Y40500D02*
X210700D01*
Y44700D01*
X206300D02*
X210700D01*
X206300Y40500D02*
Y44700D01*
X196300Y40500D02*
X200700D01*
Y44700D01*
X196300D02*
X200700D01*
X196300Y40500D02*
Y44700D01*
X186300Y40500D02*
X190700D01*
Y44700D01*
X186300D02*
X190700D01*
X186300Y40500D02*
Y44700D01*
X176300Y40500D02*
X180700D01*
Y44700D01*
X176300D02*
X180700D01*
X176300Y40500D02*
Y44700D01*
X166300Y40500D02*
X170700D01*
Y44700D01*
X166300D02*
X170700D01*
X166300Y40500D02*
Y44700D01*
X156300Y40500D02*
X160700D01*
Y44700D01*
X156300D02*
X160700D01*
X156300Y40500D02*
Y44700D01*
X146300Y40500D02*
X150700D01*
Y44700D01*
X146300D02*
X150700D01*
X146300Y40500D02*
Y44700D01*
X136300Y40500D02*
X140700D01*
Y44700D01*
X136300D02*
X140700D01*
X136300Y40500D02*
Y44700D01*
Y14500D02*
X140700D01*
X136300Y10300D02*
Y14500D01*
Y10300D02*
X140700D01*
Y14500D01*
X146300D02*
X150700D01*
X146300Y10300D02*
Y14500D01*
Y10300D02*
X150700D01*
Y14500D01*
X156300D02*
X160700D01*
X156300Y10300D02*
Y14500D01*
Y10300D02*
X160700D01*
Y14500D01*
X166300D02*
X170700D01*
X166300Y10300D02*
Y14500D01*
Y10300D02*
X170700D01*
Y14500D01*
X176300D02*
X180700D01*
X176300Y10300D02*
Y14500D01*
Y10300D02*
X180700D01*
Y14500D01*
X186300D02*
X190700D01*
X186300Y10300D02*
Y14500D01*
Y10300D02*
X190700D01*
Y14500D01*
X196300D02*
X200700D01*
X196300Y10300D02*
Y14500D01*
Y10300D02*
X200700D01*
Y14500D01*
X206300D02*
X210700D01*
X206300Y10300D02*
Y14500D01*
Y10300D02*
X210700D01*
Y14500D01*
X134700D02*
Y40500D01*
Y14500D02*
X212300D01*
Y26300D01*
Y28700D01*
Y40500D01*
X134700D02*
X212300D01*
X206300D02*
X210700D01*
Y44700D01*
X206300D02*
X210700D01*
X206300Y40500D02*
Y44700D01*
X196300Y40500D02*
X200700D01*
Y44700D01*
X196300D02*
X200700D01*
X196300Y40500D02*
Y44700D01*
X186300Y40500D02*
X190700D01*
Y44700D01*
X186300D02*
X190700D01*
X186300Y40500D02*
Y44700D01*
X176300Y40500D02*
X180700D01*
Y44700D01*
X176300D02*
X180700D01*
X176300Y40500D02*
Y44700D01*
X166300Y40500D02*
X170700D01*
Y44700D01*
X166300D02*
X170700D01*
X166300Y40500D02*
Y44700D01*
X156300Y40500D02*
X160700D01*
Y44700D01*
X156300D02*
X160700D01*
X156300Y40500D02*
Y44700D01*
X146300Y40500D02*
X150700D01*
Y44700D01*
X146300D02*
X150700D01*
X146300Y40500D02*
Y44700D01*
X136300Y40500D02*
X140700D01*
Y44700D01*
X136300D02*
X140700D01*
X136300Y40500D02*
Y44700D01*
Y14500D02*
X140700D01*
X136300Y10300D02*
Y14500D01*
Y10300D02*
X140700D01*
Y14500D01*
X146300D02*
X150700D01*
X146300Y10300D02*
Y14500D01*
Y10300D02*
X150700D01*
Y14500D01*
X156300D02*
X160700D01*
X156300Y10300D02*
Y14500D01*
Y10300D02*
X160700D01*
Y14500D01*
X166300D02*
X170700D01*
X166300Y10300D02*
Y14500D01*
Y10300D02*
X170700D01*
Y14500D01*
X176300D02*
X180700D01*
X176300Y10300D02*
Y14500D01*
Y10300D02*
X180700D01*
Y14500D01*
X186300D02*
X190700D01*
X186300Y10300D02*
Y14500D01*
Y10300D02*
X190700D01*
Y14500D01*
X196300D02*
X200700D01*
X196300Y10300D02*
Y14500D01*
Y10300D02*
X200700D01*
Y14500D01*
X206300D02*
X210700D01*
X206300Y10300D02*
Y14500D01*
Y10300D02*
X210700D01*
Y14500D01*
X134700D02*
Y40500D01*
Y14500D02*
X212300D01*
Y26300D01*
Y28700D01*
Y40500D01*
X134700D02*
X212300D01*
D33*
X350902Y51221D02*
Y77599D01*
X376098D01*
Y51221D02*
Y77599D01*
X350902Y51221D02*
X376098D01*
X350902D02*
Y77599D01*
X376098D01*
Y51221D02*
Y77599D01*
X350902Y51221D02*
X376098D01*
X266902D02*
Y77599D01*
X292098D01*
Y51221D02*
Y77599D01*
X266902Y51221D02*
X292098D01*
X266902D02*
Y77599D01*
X292098D01*
Y51221D02*
Y77599D01*
X266902Y51221D02*
X292098D01*
X51721Y119098D02*
X78099D01*
Y93902D02*
Y119098D01*
X51721Y93902D02*
X78099D01*
X51721D02*
Y119098D01*
X78099D01*
Y93902D02*
Y119098D01*
X51721Y93902D02*
X78099D01*
X51721D02*
Y119098D01*
Y200098D02*
X78099D01*
Y174902D02*
Y200098D01*
X51721Y174902D02*
X78099D01*
X51721D02*
Y200098D01*
X78099D01*
Y174902D02*
Y200098D01*
X51721Y174902D02*
X78099D01*
X51721D02*
Y200098D01*
Y281098D02*
X78099D01*
Y255902D02*
Y281098D01*
X51721Y255902D02*
X78099D01*
X51721D02*
Y281098D01*
X78099D01*
Y255902D02*
Y281098D01*
X51721Y255902D02*
X78099D01*
X51721D02*
Y281098D01*
X51221Y361098D02*
X77599D01*
Y335902D02*
Y361098D01*
X51221Y335902D02*
X77599D01*
X51221D02*
Y361098D01*
X77599D01*
Y335902D02*
Y361098D01*
X51221Y335902D02*
X77599D01*
X51221D02*
Y361098D01*
X51721Y38598D02*
X78099D01*
Y13402D02*
Y38598D01*
X51721Y13402D02*
X78099D01*
X51721D02*
Y38598D01*
X78099D01*
Y13402D02*
Y38598D01*
X51721Y13402D02*
X78099D01*
X51721D02*
Y38598D01*
M02*
