M48
;Layer_Color=9474304
;FILE_FORMAT=2:5
INCH,LZ
;TYPE=PLATED
T1F00S00C0.01968
T3F00S00C0.02756
T6F00S00C0.03937
%
G90
G05
T01
G00X0229083Y0218
M15
G01X0301917
M16
G00X0313083Y0218
M15
G01X0385917
M16
G00X0313583Y03105
M15
G01X0386417
M16
G00X0228583Y031
M15
G01X0301417
M16
T03
G00X0003094Y008
M15
G01X0214906
M16
G00X0003594Y01605
M15
G01X0215406
M16
G00X0003594Y0242
M15
G01X0215406
M16
G00X0003594Y03225
M15
G01X0215406
M16
T06
G00X02225Y0004634
M15
G01Y0396366
M16
G00X0308Y0004634
M15
G01Y0396366
M16
M30
