G04 Layer_Physical_Order=1*
G04 Layer_Color=255*
%FSLAX25Y25*%
%MOIN*%
G70*
G01*
G75*
%ADD10C,0.03000*%
%ADD11C,0.02000*%
%ADD12R,0.74803X0.01968*%
%ADD13R,2.14567X0.02756*%
%ADD14R,0.03937X3.95669*%
%ADD15R,0.05905X0.05905*%
%ADD16C,0.05905*%
%ADD17R,0.05905X0.05905*%
%ADD18C,0.07874*%
%ADD19R,0.07874X0.07874*%
%ADD20R,0.05937X0.05937*%
%ADD21C,0.05937*%
%ADD22R,0.06600X0.06600*%
%ADD23C,0.06600*%
%ADD24R,0.07087X0.07087*%
%ADD25R,0.05937X0.05937*%
%ADD26R,0.06600X0.06600*%
%ADD27R,0.07087X0.07087*%
G36*
X372895Y392928D02*
X374601Y391066D01*
X374491Y388542D01*
X372629Y386836D01*
X370105Y386946D01*
X368399Y388808D01*
X368509Y391332D01*
X370371Y393038D01*
X372895Y392928D01*
D02*
G37*
G36*
X289395D02*
X291101Y391066D01*
X290991Y388542D01*
X289129Y386836D01*
X286605Y386946D01*
X284899Y388808D01*
X285009Y391332D01*
X286871Y393038D01*
X289395Y392928D01*
D02*
G37*
G36*
X365395Y387928D02*
X367101Y386066D01*
X366991Y383542D01*
X365129Y381836D01*
X362605Y381946D01*
X360899Y383808D01*
X361009Y386332D01*
X362871Y388038D01*
X365395Y387928D01*
D02*
G37*
G36*
X281895D02*
X283601Y386066D01*
X283491Y383542D01*
X281629Y381836D01*
X279105Y381946D01*
X277399Y383808D01*
X277509Y386332D01*
X279371Y388038D01*
X281895Y387928D01*
D02*
G37*
G36*
X372895Y382928D02*
X374601Y381066D01*
X374491Y378542D01*
X372629Y376836D01*
X370105Y376946D01*
X368399Y378808D01*
X368509Y381332D01*
X370371Y383038D01*
X372895Y382928D01*
D02*
G37*
G36*
X289395D02*
X291101Y381066D01*
X290991Y378542D01*
X289129Y376836D01*
X286605Y376946D01*
X284899Y378808D01*
X285009Y381332D01*
X286871Y383038D01*
X289395Y382928D01*
D02*
G37*
G36*
X371395Y332428D02*
X373101Y330566D01*
X372991Y328042D01*
X371129Y326336D01*
X368605Y326446D01*
X366899Y328308D01*
X367009Y330832D01*
X368871Y332538D01*
X371395Y332428D01*
D02*
G37*
G36*
X287895D02*
X289601Y330566D01*
X289491Y328042D01*
X287629Y326336D01*
X285105Y326446D01*
X283399Y328308D01*
X283509Y330832D01*
X285371Y332538D01*
X287895Y332428D01*
D02*
G37*
G36*
X363895Y327428D02*
X365601Y325566D01*
X365491Y323042D01*
X363629Y321336D01*
X361105Y321446D01*
X359399Y323308D01*
X359509Y325832D01*
X361371Y327538D01*
X363895Y327428D01*
D02*
G37*
G36*
X280395D02*
X282101Y325566D01*
X281991Y323042D01*
X280129Y321336D01*
X277605Y321446D01*
X275899Y323308D01*
X276009Y325832D01*
X277871Y327538D01*
X280395Y327428D01*
D02*
G37*
G36*
X371395Y322428D02*
X373101Y320566D01*
X372991Y318042D01*
X371129Y316336D01*
X368605Y316446D01*
X366899Y318308D01*
X367009Y320832D01*
X368871Y322538D01*
X371395Y322428D01*
D02*
G37*
G36*
X287895D02*
X289601Y320566D01*
X289491Y318042D01*
X287629Y316336D01*
X285105Y316446D01*
X283399Y318308D01*
X283509Y320832D01*
X285371Y322538D01*
X287895Y322428D01*
D02*
G37*
G36*
X372895Y301428D02*
X374601Y299566D01*
X374491Y297042D01*
X372629Y295336D01*
X370105Y295446D01*
X368399Y297308D01*
X368509Y299832D01*
X370371Y301538D01*
X372895Y301428D01*
D02*
G37*
G36*
X289395D02*
X291101Y299566D01*
X290991Y297042D01*
X289129Y295336D01*
X286605Y295446D01*
X284899Y297308D01*
X285009Y299832D01*
X286871Y301538D01*
X289395Y301428D01*
D02*
G37*
G36*
X365395Y296428D02*
X367101Y294566D01*
X366991Y292042D01*
X365129Y290336D01*
X362605Y290446D01*
X360899Y292308D01*
X361009Y294832D01*
X362871Y296538D01*
X365395Y296428D01*
D02*
G37*
G36*
X281895D02*
X283601Y294566D01*
X283491Y292042D01*
X281629Y290336D01*
X279105Y290446D01*
X277399Y292308D01*
X277509Y294832D01*
X279371Y296538D01*
X281895Y296428D01*
D02*
G37*
G36*
X372895Y291428D02*
X374601Y289566D01*
X374491Y287042D01*
X372629Y285336D01*
X370105Y285446D01*
X368399Y287308D01*
X368509Y289832D01*
X370371Y291538D01*
X372895Y291428D01*
D02*
G37*
G36*
X289395D02*
X291101Y289566D01*
X290991Y287042D01*
X289129Y285336D01*
X286605Y285446D01*
X284899Y287308D01*
X285009Y289832D01*
X286871Y291538D01*
X289395Y291428D01*
D02*
G37*
G36*
X371395Y240928D02*
X373101Y239066D01*
X372991Y236542D01*
X371129Y234836D01*
X368605Y234946D01*
X366899Y236808D01*
X367009Y239332D01*
X368871Y241038D01*
X371395Y240928D01*
D02*
G37*
G36*
X287895D02*
X289601Y239066D01*
X289491Y236542D01*
X287629Y234836D01*
X285105Y234946D01*
X283399Y236808D01*
X283509Y239332D01*
X285371Y241038D01*
X287895Y240928D01*
D02*
G37*
G36*
X363895Y235928D02*
X365601Y234066D01*
X365491Y231542D01*
X363629Y229836D01*
X361105Y229946D01*
X359399Y231808D01*
X359509Y234332D01*
X361371Y236038D01*
X363895Y235928D01*
D02*
G37*
G36*
X280395D02*
X282101Y234066D01*
X281991Y231542D01*
X280129Y229836D01*
X277605Y229946D01*
X275899Y231808D01*
X276009Y234332D01*
X277871Y236038D01*
X280395Y235928D01*
D02*
G37*
G36*
X371395Y230928D02*
X373101Y229066D01*
X372991Y226542D01*
X371129Y224836D01*
X368605Y224946D01*
X366899Y226808D01*
X367009Y229332D01*
X368871Y231038D01*
X371395Y230928D01*
D02*
G37*
G36*
X287895D02*
X289601Y229066D01*
X289491Y226542D01*
X287629Y224836D01*
X285105Y224946D01*
X283399Y226808D01*
X283509Y229332D01*
X285371Y231038D01*
X287895Y230928D01*
D02*
G37*
D10*
X354842Y263937D02*
Y267280D01*
X371500Y283937D01*
Y288437D01*
X370000Y237937D02*
Y242437D01*
X378500Y250937D01*
Y291437D01*
X371500Y298437D02*
X378500Y291437D01*
X371500Y389937D02*
X378500Y382937D01*
Y342437D02*
Y382937D01*
X370000Y333937D02*
X378500Y342437D01*
X370000Y329437D02*
Y333937D01*
X371500Y375437D02*
Y379937D01*
X354842Y358780D02*
X371500Y375437D01*
X354842Y355437D02*
Y358780D01*
X271342Y355437D02*
Y358780D01*
X288000Y375437D01*
Y379937D01*
X286500Y329437D02*
Y333937D01*
X295000Y342437D01*
Y382937D01*
X288000Y389937D02*
X295000Y382937D01*
X288000Y298437D02*
X295000Y291437D01*
Y250937D02*
Y291437D01*
X286500Y242437D02*
X295000Y250937D01*
X286500Y237937D02*
Y242437D01*
X288000Y283937D02*
Y288437D01*
X271342Y267280D02*
X288000Y283937D01*
X271342Y263937D02*
Y267280D01*
D11*
X319000Y208000D02*
X334000D01*
X319500Y139500D02*
X338500D01*
X347000Y148000D01*
X373343Y55158D02*
Y76157D01*
X347000Y102500D02*
X373343Y76157D01*
X369800Y165200D02*
X377000Y158000D01*
X369800Y165200D02*
Y175200D01*
X347000Y198000D02*
X369800Y175200D01*
X329500Y67000D02*
X341700Y79200D01*
Y126500D01*
X343000Y127800D01*
X366800D01*
X377000Y138000D01*
X334000Y208000D02*
X339300Y213300D01*
X361700D01*
X377000Y198000D01*
X347000Y168000D02*
X357000D01*
X377000Y148000D01*
X329500Y118500D02*
Y122880D01*
X338620Y132000D01*
X361000D01*
X377000Y148000D01*
X334000Y159000D02*
Y178000D01*
X319500Y144500D02*
X334000Y159000D01*
X377000Y122500D02*
X382500Y128000D01*
Y202500D01*
X377000Y208000D02*
X382500Y202500D01*
X314547Y134547D02*
X319500Y139500D01*
X314547Y107453D02*
X329500Y92500D01*
X314547Y107453D02*
Y134547D01*
X235000Y208000D02*
X250000D01*
X235500Y139500D02*
X254500D01*
X263000Y148000D01*
X289343Y55158D02*
Y76157D01*
X263000Y102500D02*
X289343Y76157D01*
X285800Y165200D02*
X293000Y158000D01*
X285800Y165200D02*
Y175200D01*
X263000Y198000D02*
X285800Y175200D01*
X245500Y67000D02*
X257700Y79200D01*
Y126500D01*
X259000Y127800D01*
X282800D01*
X293000Y138000D01*
X250000Y208000D02*
X255300Y213300D01*
X277700D01*
X293000Y198000D01*
X263000Y168000D02*
X273000D01*
X293000Y148000D01*
X245500Y118500D02*
Y122880D01*
X254620Y132000D01*
X277000D01*
X293000Y148000D01*
X250000Y159000D02*
Y178000D01*
X235500Y144500D02*
X250000Y159000D01*
X293000Y122500D02*
X298500Y128000D01*
Y202500D01*
X293000Y208000D02*
X298500Y202500D01*
X230547Y134547D02*
X235500Y139500D01*
X230547Y107453D02*
X245500Y92500D01*
X230547Y107453D02*
Y134547D01*
X208500Y136000D02*
Y151000D01*
X140000Y131500D02*
Y150500D01*
Y131500D02*
X148500Y123000D01*
X55658Y96657D02*
X76657D01*
X103000Y123000D01*
X158500Y93000D02*
X165700Y100200D01*
X175700D01*
X198500Y123000D01*
X67500Y140500D02*
X79700Y128300D01*
X127000D01*
X128300Y127000D01*
Y103200D02*
Y127000D01*
Y103200D02*
X138500Y93000D01*
X208500Y136000D02*
X213800Y130700D01*
Y108300D02*
Y130700D01*
X198500Y93000D02*
X213800Y108300D01*
X168500Y113000D02*
Y123000D01*
X148500Y93000D02*
X168500Y113000D01*
X119000Y140500D02*
X123380D01*
X132500Y131380D01*
Y109000D02*
Y131380D01*
Y109000D02*
X148500Y93000D01*
X159500Y136000D02*
X178500D01*
X145000Y150500D02*
X159500Y136000D01*
X123000Y93000D02*
X128500Y87500D01*
X203000D01*
X208500Y93000D01*
X135047Y155453D02*
X140000Y150500D01*
X93000Y140500D02*
X107953Y155453D01*
X135047D01*
X208500Y217000D02*
Y232000D01*
X140000Y212500D02*
Y231500D01*
Y212500D02*
X148500Y204000D01*
X55658Y177657D02*
X76657D01*
X103000Y204000D01*
X158500Y174000D02*
X165700Y181200D01*
X175700D01*
X198500Y204000D01*
X67500Y221500D02*
X79700Y209300D01*
X127000D01*
X128300Y208000D01*
Y184200D02*
Y208000D01*
Y184200D02*
X138500Y174000D01*
X208500Y217000D02*
X213800Y211700D01*
Y189300D02*
Y211700D01*
X198500Y174000D02*
X213800Y189300D01*
X168500Y194000D02*
Y204000D01*
X148500Y174000D02*
X168500Y194000D01*
X119000Y221500D02*
X123380D01*
X132500Y212380D01*
Y190000D02*
Y212380D01*
Y190000D02*
X148500Y174000D01*
X159500Y217000D02*
X178500D01*
X145000Y231500D02*
X159500Y217000D01*
X123000Y174000D02*
X128500Y168500D01*
X203000D01*
X208500Y174000D01*
X135047Y236453D02*
X140000Y231500D01*
X93000Y221500D02*
X107953Y236453D01*
X135047D01*
X208500Y298000D02*
Y313000D01*
X140000Y293500D02*
Y312500D01*
Y293500D02*
X148500Y285000D01*
X55658Y258657D02*
X76657D01*
X103000Y285000D01*
X158500Y255000D02*
X165700Y262200D01*
X175700D01*
X198500Y285000D01*
X67500Y302500D02*
X79700Y290300D01*
X127000D01*
X128300Y289000D01*
Y265200D02*
Y289000D01*
Y265200D02*
X138500Y255000D01*
X208500Y298000D02*
X213800Y292700D01*
Y270300D02*
Y292700D01*
X198500Y255000D02*
X213800Y270300D01*
X168500Y275000D02*
Y285000D01*
X148500Y255000D02*
X168500Y275000D01*
X119000Y302500D02*
X123380D01*
X132500Y293380D01*
Y271000D02*
Y293380D01*
Y271000D02*
X148500Y255000D01*
X159500Y298000D02*
X178500D01*
X145000Y312500D02*
X159500Y298000D01*
X123000Y255000D02*
X128500Y249500D01*
X203000D01*
X208500Y255000D01*
X135047Y317453D02*
X140000Y312500D01*
X93000Y302500D02*
X107953Y317453D01*
X135047D01*
X208000Y378000D02*
Y393000D01*
X139500Y373500D02*
Y392500D01*
Y373500D02*
X148000Y365000D01*
X55158Y338657D02*
X76157D01*
X102500Y365000D01*
X158000Y335000D02*
X165200Y342200D01*
X175200D01*
X198000Y365000D01*
X67000Y382500D02*
X79200Y370300D01*
X126500D01*
X127800Y369000D01*
Y345200D02*
Y369000D01*
Y345200D02*
X138000Y335000D01*
X208000Y378000D02*
X213300Y372700D01*
Y350300D02*
Y372700D01*
X198000Y335000D02*
X213300Y350300D01*
X168000Y355000D02*
Y365000D01*
X148000Y335000D02*
X168000Y355000D01*
X118500Y382500D02*
X122880D01*
X132000Y373380D01*
Y351000D02*
Y373380D01*
Y351000D02*
X148000Y335000D01*
X159000Y378000D02*
X178000D01*
X144500Y392500D02*
X159000Y378000D01*
X122500Y335000D02*
X128000Y329500D01*
X202500D01*
X208000Y335000D01*
X134547Y397453D02*
X139500Y392500D01*
X92500Y382500D02*
X107453Y397453D01*
X134547D01*
X107953Y74953D02*
X135047D01*
X93000Y60000D02*
X107953Y74953D01*
X135047D02*
X140000Y70000D01*
X203000Y7000D02*
X208500Y12500D01*
X128500Y7000D02*
X203000D01*
X123000Y12500D02*
X128500Y7000D01*
X145000Y70000D02*
X159500Y55500D01*
X178500D01*
X132500Y28500D02*
X148500Y12500D01*
X132500Y28500D02*
Y50880D01*
X123380Y60000D02*
X132500Y50880D01*
X119000Y60000D02*
X123380D01*
X148500Y12500D02*
X168500Y32500D01*
Y42500D01*
X198500Y12500D02*
X213800Y27800D01*
Y50200D01*
X208500Y55500D02*
X213800Y50200D01*
X128300Y22700D02*
X138500Y12500D01*
X128300Y22700D02*
Y46500D01*
X127000Y47800D02*
X128300Y46500D01*
X79700Y47800D02*
X127000D01*
X67500Y60000D02*
X79700Y47800D01*
X175700Y19700D02*
X198500Y42500D01*
X165700Y19700D02*
X175700D01*
X158500Y12500D02*
X165700Y19700D01*
X76657Y16157D02*
X103000Y42500D01*
X55658Y16157D02*
X76657D01*
X140000Y51000D02*
X148500Y42500D01*
X140000Y51000D02*
Y70000D01*
X208500Y55500D02*
Y70500D01*
D12*
X350000Y310500D02*
D03*
X265000Y310000D02*
D03*
X349500Y218000D02*
D03*
X265500D02*
D03*
D13*
X109000Y80000D02*
D03*
X109500Y160500D02*
D03*
Y242000D02*
D03*
Y322500D02*
D03*
D14*
X308000Y200500D02*
D03*
X222500D02*
D03*
D15*
X370500Y253095D02*
D03*
X332500Y237937D02*
D03*
X331000Y289437D02*
D03*
Y380937D02*
D03*
X332500Y329437D02*
D03*
X370500Y344595D02*
D03*
X287000D02*
D03*
X249000Y329437D02*
D03*
X247500Y380937D02*
D03*
Y289437D02*
D03*
X249000Y237937D02*
D03*
X287000Y253095D02*
D03*
X15500Y140500D02*
D03*
X41500Y141000D02*
D03*
X67500Y140500D02*
D03*
X93000D02*
D03*
X119000D02*
D03*
X145000D02*
D03*
X39000Y117843D02*
D03*
X15500Y221500D02*
D03*
X41500Y222000D02*
D03*
X67500Y221500D02*
D03*
X93000D02*
D03*
X119000D02*
D03*
X145000D02*
D03*
X39000Y198843D02*
D03*
X15500Y302500D02*
D03*
X41500Y303000D02*
D03*
X67500Y302500D02*
D03*
X93000D02*
D03*
X119000D02*
D03*
X145000D02*
D03*
X39000Y279843D02*
D03*
X15000Y382500D02*
D03*
X41000Y383000D02*
D03*
X67000Y382500D02*
D03*
X92500D02*
D03*
X118500D02*
D03*
X144500D02*
D03*
X38500Y359843D02*
D03*
X15500Y60000D02*
D03*
X41500Y60500D02*
D03*
X67500Y60000D02*
D03*
X39000Y37343D02*
D03*
X93000Y60000D02*
D03*
X119000D02*
D03*
X145000D02*
D03*
D16*
X370500Y272779D02*
D03*
X335157Y263937D02*
D03*
X332500Y227937D02*
D03*
X331000Y299437D02*
D03*
X370000Y227937D02*
D03*
X362500Y232937D02*
D03*
X370000Y237937D02*
D03*
X371500Y288437D02*
D03*
X364000Y293437D02*
D03*
X371500Y298437D02*
D03*
X355000Y250437D02*
D03*
X325000D02*
D03*
X355000Y277437D02*
D03*
X325000D02*
D03*
X355000Y368937D02*
D03*
X325000D02*
D03*
X355000Y341937D02*
D03*
X325000D02*
D03*
X371500Y379937D02*
D03*
X364000Y384937D02*
D03*
X371500Y389937D02*
D03*
X370000Y319437D02*
D03*
X362500Y324437D02*
D03*
X370000Y329437D02*
D03*
X331000Y390937D02*
D03*
X332500Y319437D02*
D03*
X335157Y355437D02*
D03*
X370500Y364280D02*
D03*
X287000D02*
D03*
X251658Y355437D02*
D03*
X249000Y319437D02*
D03*
X247500Y390937D02*
D03*
X286500Y319437D02*
D03*
X279000Y324437D02*
D03*
X286500Y329437D02*
D03*
X288000Y379937D02*
D03*
X280500Y384937D02*
D03*
X288000Y389937D02*
D03*
X271500Y341937D02*
D03*
X241500D02*
D03*
X271500Y368937D02*
D03*
X241500D02*
D03*
X271500Y277437D02*
D03*
X241500D02*
D03*
X271500Y250437D02*
D03*
X241500D02*
D03*
X288000Y288437D02*
D03*
X280500Y293437D02*
D03*
X288000Y298437D02*
D03*
X286500Y227937D02*
D03*
X279000Y232937D02*
D03*
X286500Y237937D02*
D03*
X247500Y299437D02*
D03*
X249000Y227937D02*
D03*
X251658Y263937D02*
D03*
X287000Y272779D02*
D03*
X319500Y15000D02*
D03*
X319000Y41000D02*
D03*
X319500Y67000D02*
D03*
Y92500D02*
D03*
Y118500D02*
D03*
Y144500D02*
D03*
X344500Y22000D02*
D03*
X374500D02*
D03*
X371843Y38500D02*
D03*
X319000Y178000D02*
D03*
Y208000D02*
D03*
X334000Y178000D02*
D03*
Y208000D02*
D03*
X235500Y15000D02*
D03*
X235000Y41000D02*
D03*
X235500Y67000D02*
D03*
Y92500D02*
D03*
Y118500D02*
D03*
Y144500D02*
D03*
X260500Y22000D02*
D03*
X290500D02*
D03*
X287843Y38500D02*
D03*
X235000Y178000D02*
D03*
Y208000D02*
D03*
X250000Y178000D02*
D03*
Y208000D02*
D03*
X15500Y150500D02*
D03*
X41500Y151000D02*
D03*
X67500Y150500D02*
D03*
X93000D02*
D03*
X119000D02*
D03*
X145000D02*
D03*
X22500Y125500D02*
D03*
Y95500D02*
D03*
X39000Y98157D02*
D03*
X178500Y151000D02*
D03*
X208500D02*
D03*
X178500Y136000D02*
D03*
X208500D02*
D03*
X15500Y231500D02*
D03*
X41500Y232000D02*
D03*
X67500Y231500D02*
D03*
X93000D02*
D03*
X119000D02*
D03*
X145000D02*
D03*
X22500Y206500D02*
D03*
Y176500D02*
D03*
X39000Y179157D02*
D03*
X178500Y232000D02*
D03*
X208500D02*
D03*
X178500Y217000D02*
D03*
X208500D02*
D03*
X15500Y312500D02*
D03*
X41500Y313000D02*
D03*
X67500Y312500D02*
D03*
X93000D02*
D03*
X119000D02*
D03*
X145000D02*
D03*
X22500Y287500D02*
D03*
Y257500D02*
D03*
X39000Y260157D02*
D03*
X178500Y313000D02*
D03*
X208500D02*
D03*
X178500Y298000D02*
D03*
X208500D02*
D03*
X15000Y392500D02*
D03*
X41000Y393000D02*
D03*
X67000Y392500D02*
D03*
X92500D02*
D03*
X118500D02*
D03*
X144500D02*
D03*
X22000Y367500D02*
D03*
Y337500D02*
D03*
X38500Y340157D02*
D03*
X178000Y393000D02*
D03*
X208000D02*
D03*
X178000Y378000D02*
D03*
X208000D02*
D03*
X15500Y70000D02*
D03*
X41500Y70500D02*
D03*
X22500Y45000D02*
D03*
Y15000D02*
D03*
X67500Y70000D02*
D03*
X39000Y17657D02*
D03*
X93000Y70000D02*
D03*
X119000D02*
D03*
X145000D02*
D03*
X178500Y55500D02*
D03*
X208500D02*
D03*
X178500Y70500D02*
D03*
X208500D02*
D03*
D17*
X354842Y263937D02*
D03*
Y355437D02*
D03*
X271342D02*
D03*
Y263937D02*
D03*
X329500Y15000D02*
D03*
X329000Y41000D02*
D03*
X329500Y67000D02*
D03*
Y92500D02*
D03*
Y118500D02*
D03*
Y144500D02*
D03*
X352157Y38500D02*
D03*
X245500Y15000D02*
D03*
X245000Y41000D02*
D03*
X245500Y67000D02*
D03*
Y92500D02*
D03*
Y118500D02*
D03*
Y144500D02*
D03*
X268157Y38500D02*
D03*
D18*
X351500Y299437D02*
D03*
Y390937D02*
D03*
X268000D02*
D03*
Y299437D02*
D03*
X369500Y9000D02*
D03*
X285500D02*
D03*
X9500Y100500D02*
D03*
Y181500D02*
D03*
Y262500D02*
D03*
X9000Y342500D02*
D03*
X9500Y20000D02*
D03*
D19*
X351500Y289437D02*
D03*
Y380937D02*
D03*
X268000D02*
D03*
Y289437D02*
D03*
D20*
X353657Y55158D02*
D03*
X269657D02*
D03*
D21*
X363500Y74843D02*
D03*
X373343Y55158D02*
D03*
X279500Y74843D02*
D03*
X289343Y55158D02*
D03*
X75343Y106500D02*
D03*
X55658Y96657D02*
D03*
X75343Y187500D02*
D03*
X55658Y177657D02*
D03*
X75343Y268500D02*
D03*
X55658Y258657D02*
D03*
X74843Y348500D02*
D03*
X55158Y338657D02*
D03*
X75343Y26000D02*
D03*
X55658Y16157D02*
D03*
D22*
X347000Y208000D02*
D03*
X377000Y92500D02*
D03*
X263000Y208000D02*
D03*
X293000Y92500D02*
D03*
D23*
X347000Y198000D02*
D03*
Y188000D02*
D03*
Y178000D02*
D03*
Y168000D02*
D03*
Y158000D02*
D03*
Y148000D02*
D03*
Y138000D02*
D03*
X377000D02*
D03*
Y148000D02*
D03*
Y158000D02*
D03*
Y168000D02*
D03*
Y178000D02*
D03*
Y188000D02*
D03*
Y198000D02*
D03*
Y208000D02*
D03*
Y102500D02*
D03*
Y112500D02*
D03*
Y122500D02*
D03*
X347000D02*
D03*
Y112500D02*
D03*
Y102500D02*
D03*
Y92500D02*
D03*
X263000Y198000D02*
D03*
Y188000D02*
D03*
Y178000D02*
D03*
Y168000D02*
D03*
Y158000D02*
D03*
Y148000D02*
D03*
Y138000D02*
D03*
X293000D02*
D03*
Y148000D02*
D03*
Y158000D02*
D03*
Y168000D02*
D03*
Y178000D02*
D03*
Y188000D02*
D03*
Y198000D02*
D03*
Y208000D02*
D03*
Y102500D02*
D03*
Y112500D02*
D03*
Y122500D02*
D03*
X263000D02*
D03*
Y112500D02*
D03*
Y102500D02*
D03*
Y92500D02*
D03*
X198500Y123000D02*
D03*
X188500D02*
D03*
X178500D02*
D03*
X168500D02*
D03*
X158500D02*
D03*
X148500D02*
D03*
X138500D02*
D03*
Y93000D02*
D03*
X148500D02*
D03*
X158500D02*
D03*
X168500D02*
D03*
X178500D02*
D03*
X188500D02*
D03*
X198500D02*
D03*
X208500D02*
D03*
X103000D02*
D03*
X113000D02*
D03*
X123000D02*
D03*
Y123000D02*
D03*
X113000D02*
D03*
X103000D02*
D03*
X93000D02*
D03*
X198500Y204000D02*
D03*
X188500D02*
D03*
X178500D02*
D03*
X168500D02*
D03*
X158500D02*
D03*
X148500D02*
D03*
X138500D02*
D03*
Y174000D02*
D03*
X148500D02*
D03*
X158500D02*
D03*
X168500D02*
D03*
X178500D02*
D03*
X188500D02*
D03*
X198500D02*
D03*
X208500D02*
D03*
X103000D02*
D03*
X113000D02*
D03*
X123000D02*
D03*
Y204000D02*
D03*
X113000D02*
D03*
X103000D02*
D03*
X93000D02*
D03*
X198500Y285000D02*
D03*
X188500D02*
D03*
X178500D02*
D03*
X168500D02*
D03*
X158500D02*
D03*
X148500D02*
D03*
X138500D02*
D03*
Y255000D02*
D03*
X148500D02*
D03*
X158500D02*
D03*
X168500D02*
D03*
X178500D02*
D03*
X188500D02*
D03*
X198500D02*
D03*
X208500D02*
D03*
X103000D02*
D03*
X113000D02*
D03*
X123000D02*
D03*
Y285000D02*
D03*
X113000D02*
D03*
X103000D02*
D03*
X93000D02*
D03*
X198000Y365000D02*
D03*
X188000D02*
D03*
X178000D02*
D03*
X168000D02*
D03*
X158000D02*
D03*
X148000D02*
D03*
X138000D02*
D03*
Y335000D02*
D03*
X148000D02*
D03*
X158000D02*
D03*
X168000D02*
D03*
X178000D02*
D03*
X188000D02*
D03*
X198000D02*
D03*
X208000D02*
D03*
X102500D02*
D03*
X112500D02*
D03*
X122500D02*
D03*
Y365000D02*
D03*
X112500D02*
D03*
X102500D02*
D03*
X92500D02*
D03*
X198500Y42500D02*
D03*
X188500D02*
D03*
X178500D02*
D03*
X168500D02*
D03*
X158500D02*
D03*
X148500D02*
D03*
X138500D02*
D03*
Y12500D02*
D03*
X148500D02*
D03*
X158500D02*
D03*
X168500D02*
D03*
X178500D02*
D03*
X188500D02*
D03*
X198500D02*
D03*
X208500D02*
D03*
X103000D02*
D03*
X113000D02*
D03*
X123000D02*
D03*
Y42500D02*
D03*
X113000D02*
D03*
X103000D02*
D03*
X93000D02*
D03*
D24*
X359500Y9000D02*
D03*
X275500D02*
D03*
D25*
X55658Y116343D02*
D03*
Y197343D02*
D03*
Y278343D02*
D03*
X55158Y358343D02*
D03*
X55658Y35843D02*
D03*
D26*
X208500Y123000D02*
D03*
X93000Y93000D02*
D03*
X208500Y204000D02*
D03*
X93000Y174000D02*
D03*
X208500Y285000D02*
D03*
X93000Y255000D02*
D03*
X208000Y365000D02*
D03*
X92500Y335000D02*
D03*
X208500Y42500D02*
D03*
X93000Y12500D02*
D03*
D27*
X9500Y110500D02*
D03*
Y191500D02*
D03*
Y272500D02*
D03*
X9000Y352500D02*
D03*
X9500Y30000D02*
D03*
M02*
