G04 Layer_Physical_Order=2*
G04 Layer_Color=16711680*
%FSLAX25Y25*%
%MOIN*%
G70*
G01*
G75*
%ADD10C,0.03000*%
%ADD11C,0.02000*%
%ADD12R,0.74803X0.01968*%
%ADD13R,2.14567X0.02756*%
%ADD14R,0.03937X3.95669*%
%ADD15R,0.05905X0.05905*%
%ADD16C,0.05905*%
%ADD17R,0.05905X0.05905*%
%ADD18C,0.07874*%
%ADD19R,0.07874X0.07874*%
%ADD20R,0.05937X0.05937*%
%ADD21C,0.05937*%
%ADD22R,0.06600X0.06600*%
%ADD23C,0.06600*%
%ADD24R,0.07087X0.07087*%
%ADD25R,0.05937X0.05937*%
%ADD26R,0.06600X0.06600*%
%ADD27R,0.07087X0.07087*%
G36*
X372895Y392928D02*
X374601Y391066D01*
X374491Y388542D01*
X372629Y386836D01*
X370105Y386946D01*
X368399Y388808D01*
X368509Y391332D01*
X370371Y393038D01*
X372895Y392928D01*
D02*
G37*
G36*
X289395D02*
X291101Y391066D01*
X290991Y388542D01*
X289129Y386836D01*
X286605Y386946D01*
X284899Y388808D01*
X285009Y391332D01*
X286871Y393038D01*
X289395Y392928D01*
D02*
G37*
G36*
X365395Y387928D02*
X367101Y386066D01*
X366991Y383542D01*
X365129Y381836D01*
X362605Y381946D01*
X360899Y383808D01*
X361009Y386332D01*
X362871Y388038D01*
X365395Y387928D01*
D02*
G37*
G36*
X281895D02*
X283601Y386066D01*
X283491Y383542D01*
X281629Y381836D01*
X279105Y381946D01*
X277399Y383808D01*
X277509Y386332D01*
X279371Y388038D01*
X281895Y387928D01*
D02*
G37*
G36*
X372895Y382928D02*
X374601Y381066D01*
X374491Y378542D01*
X372629Y376836D01*
X370105Y376946D01*
X368399Y378808D01*
X368509Y381332D01*
X370371Y383038D01*
X372895Y382928D01*
D02*
G37*
G36*
X289395D02*
X291101Y381066D01*
X290991Y378542D01*
X289129Y376836D01*
X286605Y376946D01*
X284899Y378808D01*
X285009Y381332D01*
X286871Y383038D01*
X289395Y382928D01*
D02*
G37*
G36*
X371395Y332428D02*
X373101Y330566D01*
X372991Y328042D01*
X371129Y326336D01*
X368605Y326446D01*
X366899Y328308D01*
X367009Y330832D01*
X368871Y332538D01*
X371395Y332428D01*
D02*
G37*
G36*
X287895D02*
X289601Y330566D01*
X289491Y328042D01*
X287629Y326336D01*
X285105Y326446D01*
X283399Y328308D01*
X283509Y330832D01*
X285371Y332538D01*
X287895Y332428D01*
D02*
G37*
G36*
X363895Y327428D02*
X365601Y325566D01*
X365491Y323042D01*
X363629Y321336D01*
X361105Y321446D01*
X359399Y323308D01*
X359509Y325832D01*
X361371Y327538D01*
X363895Y327428D01*
D02*
G37*
G36*
X280395D02*
X282101Y325566D01*
X281991Y323042D01*
X280129Y321336D01*
X277605Y321446D01*
X275899Y323308D01*
X276009Y325832D01*
X277871Y327538D01*
X280395Y327428D01*
D02*
G37*
G36*
X371395Y322428D02*
X373101Y320566D01*
X372991Y318042D01*
X371129Y316336D01*
X368605Y316446D01*
X366899Y318308D01*
X367009Y320832D01*
X368871Y322538D01*
X371395Y322428D01*
D02*
G37*
G36*
X287895D02*
X289601Y320566D01*
X289491Y318042D01*
X287629Y316336D01*
X285105Y316446D01*
X283399Y318308D01*
X283509Y320832D01*
X285371Y322538D01*
X287895Y322428D01*
D02*
G37*
G36*
X372895Y301428D02*
X374601Y299566D01*
X374491Y297042D01*
X372629Y295336D01*
X370105Y295446D01*
X368399Y297308D01*
X368509Y299832D01*
X370371Y301538D01*
X372895Y301428D01*
D02*
G37*
G36*
X289395D02*
X291101Y299566D01*
X290991Y297042D01*
X289129Y295336D01*
X286605Y295446D01*
X284899Y297308D01*
X285009Y299832D01*
X286871Y301538D01*
X289395Y301428D01*
D02*
G37*
G36*
X365395Y296428D02*
X367101Y294566D01*
X366991Y292042D01*
X365129Y290336D01*
X362605Y290446D01*
X360899Y292308D01*
X361009Y294832D01*
X362871Y296538D01*
X365395Y296428D01*
D02*
G37*
G36*
X281895D02*
X283601Y294566D01*
X283491Y292042D01*
X281629Y290336D01*
X279105Y290446D01*
X277399Y292308D01*
X277509Y294832D01*
X279371Y296538D01*
X281895Y296428D01*
D02*
G37*
G36*
X372895Y291428D02*
X374601Y289566D01*
X374491Y287042D01*
X372629Y285336D01*
X370105Y285446D01*
X368399Y287308D01*
X368509Y289832D01*
X370371Y291538D01*
X372895Y291428D01*
D02*
G37*
G36*
X289395D02*
X291101Y289566D01*
X290991Y287042D01*
X289129Y285336D01*
X286605Y285446D01*
X284899Y287308D01*
X285009Y289832D01*
X286871Y291538D01*
X289395Y291428D01*
D02*
G37*
G36*
X371395Y240928D02*
X373101Y239066D01*
X372991Y236542D01*
X371129Y234836D01*
X368605Y234946D01*
X366899Y236808D01*
X367009Y239332D01*
X368871Y241038D01*
X371395Y240928D01*
D02*
G37*
G36*
X287895D02*
X289601Y239066D01*
X289491Y236542D01*
X287629Y234836D01*
X285105Y234946D01*
X283399Y236808D01*
X283509Y239332D01*
X285371Y241038D01*
X287895Y240928D01*
D02*
G37*
G36*
X363895Y235928D02*
X365601Y234066D01*
X365491Y231542D01*
X363629Y229836D01*
X361105Y229946D01*
X359399Y231808D01*
X359509Y234332D01*
X361371Y236038D01*
X363895Y235928D01*
D02*
G37*
G36*
X280395D02*
X282101Y234066D01*
X281991Y231542D01*
X280129Y229836D01*
X277605Y229946D01*
X275899Y231808D01*
X276009Y234332D01*
X277871Y236038D01*
X280395Y235928D01*
D02*
G37*
G36*
X371395Y230928D02*
X373101Y229066D01*
X372991Y226542D01*
X371129Y224836D01*
X368605Y224946D01*
X366899Y226808D01*
X367009Y229332D01*
X368871Y231038D01*
X371395Y230928D01*
D02*
G37*
G36*
X287895D02*
X289601Y229066D01*
X289491Y226542D01*
X287629Y224836D01*
X285105Y224946D01*
X283399Y226808D01*
X283509Y229332D01*
X285371Y231038D01*
X287895Y230928D01*
D02*
G37*
D10*
X325000Y250437D02*
Y277437D01*
Y283437D01*
X331000Y289437D01*
X335157Y263937D02*
X341500D01*
X355000Y250437D01*
X332500Y227937D02*
X352000D01*
X355500Y224437D01*
X366500D01*
X370000Y227937D01*
X362500Y232937D02*
Y242937D01*
X355000Y250437D02*
X362500Y242937D01*
X370000Y227937D02*
X376000Y233937D01*
Y248437D01*
X371342Y253095D02*
X376000Y248437D01*
X370500Y253095D02*
X371342D01*
X359658Y272779D02*
X370500D01*
X355000Y277437D02*
X359658Y272779D01*
X331000Y299437D02*
X339500D01*
X379500Y296437D02*
Y303437D01*
X371500Y288437D02*
X379500Y296437D01*
X355000Y277437D02*
Y277937D01*
X364000Y286937D01*
Y293437D01*
X331000Y289437D02*
X351500D01*
Y299437D02*
X370500D01*
X371500Y298437D01*
X325000Y250437D02*
X332500Y242937D01*
Y237937D02*
Y242937D01*
X376500Y306437D02*
X379500Y303437D01*
X339500Y299437D02*
X346500Y306437D01*
X376500D01*
X346500Y397937D02*
X376500D01*
X339500Y390937D02*
X346500Y397937D01*
X376500D02*
X379500Y394937D01*
X332500Y329437D02*
Y334437D01*
X325000Y341937D02*
X332500Y334437D01*
X370500Y390937D02*
X371500Y389937D01*
X351500Y390937D02*
X370500D01*
X331000Y380937D02*
X351500D01*
X364000Y378437D02*
Y384937D01*
X355000Y369437D02*
X364000Y378437D01*
X355000Y368937D02*
Y369437D01*
X371500Y379937D02*
X379500Y387937D01*
Y394937D01*
X331000Y390937D02*
X339500D01*
X355000Y368937D02*
X359658Y364280D01*
X370500D01*
X370500Y344595D02*
X371342D01*
X376000Y339937D01*
Y325437D02*
Y339937D01*
X370000Y319437D02*
X376000Y325437D01*
X355000Y341937D02*
X362500Y334437D01*
Y324437D02*
Y334437D01*
X366500Y315937D02*
X370000Y319437D01*
X355500Y315937D02*
X366500D01*
X352000Y319437D02*
X355500Y315937D01*
X332500Y319437D02*
X352000D01*
X341500Y355437D02*
X355000Y341937D01*
X335157Y355437D02*
X341500D01*
X325000Y374937D02*
X331000Y380937D01*
X325000Y368937D02*
Y374937D01*
Y341937D02*
Y368937D01*
X241500Y341937D02*
Y368937D01*
Y374937D01*
X247500Y380937D01*
X251658Y355437D02*
X258000D01*
X271500Y341937D01*
X249000Y319437D02*
X268500D01*
X272000Y315937D01*
X283000D01*
X286500Y319437D01*
X279000Y324437D02*
Y334437D01*
X271500Y341937D02*
X279000Y334437D01*
X286500Y319437D02*
X292500Y325437D01*
Y339937D01*
X287842Y344595D02*
X292500Y339937D01*
X287000Y344595D02*
X287842D01*
X276157Y364280D02*
X287000D01*
X271500Y368937D02*
X276157Y364280D01*
X247500Y390937D02*
X256000D01*
X296000Y387937D02*
Y394937D01*
X288000Y379937D02*
X296000Y387937D01*
X271500Y368937D02*
Y369437D01*
X280500Y378437D01*
Y384937D01*
X247500Y380937D02*
X268000D01*
Y390937D02*
X287000D01*
X288000Y389937D01*
X241500Y341937D02*
X249000Y334437D01*
Y329437D02*
Y334437D01*
X293000Y397937D02*
X296000Y394937D01*
X256000Y390937D02*
X263000Y397937D01*
X293000D01*
X263000Y306437D02*
X293000D01*
X256000Y299437D02*
X263000Y306437D01*
X293000D02*
X296000Y303437D01*
X249000Y237937D02*
Y242937D01*
X241500Y250437D02*
X249000Y242937D01*
X287000Y299437D02*
X288000Y298437D01*
X268000Y299437D02*
X287000D01*
X247500Y289437D02*
X268000D01*
X280500Y286937D02*
Y293437D01*
X271500Y277937D02*
X280500Y286937D01*
X271500Y277437D02*
Y277937D01*
X288000Y288437D02*
X296000Y296437D01*
Y303437D01*
X247500Y299437D02*
X256000D01*
X271500Y277437D02*
X276157Y272779D01*
X287000D01*
X287000Y253095D02*
X287842D01*
X292500Y248437D01*
Y233937D02*
Y248437D01*
X286500Y227937D02*
X292500Y233937D01*
X271500Y250437D02*
X279000Y242937D01*
Y232937D02*
Y242937D01*
X283000Y224437D02*
X286500Y227937D01*
X272000Y224437D02*
X283000D01*
X268500Y227937D02*
X272000Y224437D01*
X249000Y227937D02*
X268500D01*
X258000Y263937D02*
X271500Y250437D01*
X251658Y263937D02*
X258000D01*
X241500Y283437D02*
X247500Y289437D01*
X241500Y277437D02*
Y283437D01*
Y250437D02*
Y277437D01*
D11*
X352157Y38500D02*
Y46000D01*
X353657Y47500D01*
Y55158D01*
X347000Y148000D02*
Y158000D01*
X319500Y67000D02*
Y92500D01*
X319000Y41000D02*
Y53700D01*
X319500Y54200D01*
Y67000D01*
Y92500D02*
Y118500D01*
X340200Y175500D02*
Y181200D01*
X347000Y188000D01*
X328400Y189400D02*
X347000Y208000D01*
X328400Y145600D02*
Y189400D01*
X363500Y74843D02*
Y96000D01*
X347000Y112500D02*
X363500Y96000D01*
X353657Y55158D02*
X369200Y70700D01*
Y94700D01*
X377000Y102500D01*
X347000Y138000D02*
X362000Y153000D01*
Y163000D01*
X377000Y178000D01*
X353000Y9000D02*
X359500D01*
X341700Y172700D02*
X347000Y178000D01*
X341700Y134000D02*
Y172700D01*
Y134000D02*
X343000Y132700D01*
X371700D01*
X377000Y138000D01*
X371700Y127800D02*
X377000Y122500D01*
X319500Y139047D02*
Y144500D01*
Y139047D02*
X324500Y134047D01*
Y48400D02*
Y134047D01*
X324000Y47900D02*
X324500Y48400D01*
X324000Y19500D02*
Y47900D01*
X319500Y15000D02*
X324000Y19500D01*
X366700Y48515D02*
X373343Y55158D01*
X366700Y33800D02*
Y48515D01*
X371700Y183300D02*
X377000Y178000D01*
X371700Y183300D02*
Y192700D01*
X377000Y198000D01*
X371843Y38500D02*
X378800Y45457D01*
Y73800D01*
X377000Y75600D02*
X378800Y73800D01*
X377000Y75600D02*
Y92500D01*
X329000Y41000D02*
X334500Y46500D01*
Y131500D01*
X326453Y139547D02*
X334500Y131500D01*
X324500Y139547D02*
X326453D01*
X352400Y199400D02*
Y213300D01*
X351000Y198000D02*
X352400Y199400D01*
X347000Y198000D02*
X351000D01*
X348500Y13500D02*
X353000Y9000D01*
X371843Y38500D02*
X380000Y30343D01*
Y19500D02*
Y30343D01*
X369500Y9000D02*
X380000Y19500D01*
X377000Y112500D02*
X382500Y118000D01*
Y182500D01*
X377000Y188000D02*
X382500Y182500D01*
X377000Y92500D02*
X385500Y101000D01*
Y189500D01*
X377000Y198000D02*
X385500Y189500D01*
X314547Y123453D02*
Y173547D01*
Y123453D02*
X319500Y118500D01*
X314547Y173547D02*
X319000Y178000D01*
X344500Y22000D02*
X348500Y18000D01*
Y13500D02*
Y18000D01*
X374500Y22000D02*
Y26000D01*
X366700Y33800D02*
X374500Y26000D01*
X341700Y97800D02*
X347000Y92500D01*
X341700Y126500D02*
X343000Y127800D01*
X371700D01*
X341700Y97800D02*
Y126500D01*
X347000Y31000D02*
Y92500D01*
X344500Y22000D02*
Y28500D01*
X347000Y31000D01*
X337900Y173200D02*
X340200Y175500D01*
X329500Y15000D02*
X337900Y23400D01*
Y173200D01*
X328400Y145600D02*
X329500Y144500D01*
X324500Y139547D02*
Y190000D01*
X341500Y207000D01*
Y213300D01*
X352400D01*
X268157Y38500D02*
Y46000D01*
X269657Y47500D01*
Y55158D01*
X263000Y148000D02*
Y158000D01*
X235500Y67000D02*
Y92500D01*
X235000Y41000D02*
Y53700D01*
X235500Y54200D01*
Y67000D01*
Y92500D02*
Y118500D01*
X256200Y175500D02*
Y181200D01*
X263000Y188000D01*
X244400Y189400D02*
X263000Y208000D01*
X244400Y145600D02*
Y189400D01*
X279500Y74843D02*
Y96000D01*
X263000Y112500D02*
X279500Y96000D01*
X269657Y55158D02*
X285200Y70700D01*
Y94700D01*
X293000Y102500D01*
X263000Y138000D02*
X278000Y153000D01*
Y163000D01*
X293000Y178000D01*
X269000Y9000D02*
X275500D01*
X257700Y172700D02*
X263000Y178000D01*
X257700Y134000D02*
Y172700D01*
Y134000D02*
X259000Y132700D01*
X287700D01*
X293000Y138000D01*
X287700Y127800D02*
X293000Y122500D01*
X235500Y139047D02*
Y144500D01*
Y139047D02*
X240500Y134047D01*
Y48400D02*
Y134047D01*
X240000Y47900D02*
X240500Y48400D01*
X240000Y19500D02*
Y47900D01*
X235500Y15000D02*
X240000Y19500D01*
X282700Y48515D02*
X289343Y55158D01*
X282700Y33800D02*
Y48515D01*
X287700Y183300D02*
X293000Y178000D01*
X287700Y183300D02*
Y192700D01*
X293000Y198000D01*
X287843Y38500D02*
X294800Y45457D01*
Y73800D01*
X293000Y75600D02*
X294800Y73800D01*
X293000Y75600D02*
Y92500D01*
X245000Y41000D02*
X250500Y46500D01*
Y131500D01*
X242453Y139547D02*
X250500Y131500D01*
X240500Y139547D02*
X242453D01*
X268400Y199400D02*
Y213300D01*
X267000Y198000D02*
X268400Y199400D01*
X263000Y198000D02*
X267000D01*
X264500Y13500D02*
X269000Y9000D01*
X287843Y38500D02*
X296000Y30343D01*
Y19500D02*
Y30343D01*
X285500Y9000D02*
X296000Y19500D01*
X293000Y112500D02*
X298500Y118000D01*
Y182500D01*
X293000Y188000D02*
X298500Y182500D01*
X293000Y92500D02*
X301500Y101000D01*
Y189500D01*
X293000Y198000D02*
X301500Y189500D01*
X230547Y123453D02*
Y173547D01*
Y123453D02*
X235500Y118500D01*
X230547Y173547D02*
X235000Y178000D01*
X260500Y22000D02*
X264500Y18000D01*
Y13500D02*
Y18000D01*
X290500Y22000D02*
Y26000D01*
X282700Y33800D02*
X290500Y26000D01*
X257700Y97800D02*
X263000Y92500D01*
X257700Y126500D02*
X259000Y127800D01*
X287700D01*
X257700Y97800D02*
Y126500D01*
X263000Y31000D02*
Y92500D01*
X260500Y22000D02*
Y28500D01*
X263000Y31000D01*
X253900Y173200D02*
X256200Y175500D01*
X245500Y15000D02*
X253900Y23400D01*
Y173200D01*
X244400Y145600D02*
X245500Y144500D01*
X240500Y139547D02*
Y190000D01*
X257500Y207000D01*
Y213300D01*
X268400D01*
X39000Y117843D02*
X46500D01*
X48000Y116343D01*
X55658D01*
X148500Y123000D02*
X158500D01*
X67500Y150500D02*
X93000D01*
X41500Y151000D02*
X54200D01*
X54700Y150500D01*
X67500D01*
X93000D02*
X119000D01*
X176000Y129800D02*
X181700D01*
X188500Y123000D01*
X189900Y141600D02*
X208500Y123000D01*
X146100Y141600D02*
X189900D01*
X75343Y106500D02*
X96500D01*
X113000Y123000D01*
X55658Y116343D02*
X71200Y100800D01*
X95200D01*
X103000Y93000D01*
X138500Y123000D02*
X153500Y108000D01*
X163500D01*
X178500Y93000D01*
X9500Y110500D02*
Y117000D01*
X173200Y128300D02*
X178500Y123000D01*
X134500Y128300D02*
X173200D01*
X133200Y127000D02*
X134500Y128300D01*
X133200Y98300D02*
Y127000D01*
Y98300D02*
X138500Y93000D01*
X123000D02*
X128300Y98300D01*
X139547Y150500D02*
X145000D01*
X134547Y145500D02*
X139547Y150500D01*
X48900Y145500D02*
X134547D01*
X48400Y146000D02*
X48900Y145500D01*
X20000Y146000D02*
X48400D01*
X15500Y150500D02*
X20000Y146000D01*
X49015Y103300D02*
X55658Y96657D01*
X34300Y103300D02*
X49015D01*
X178500Y93000D02*
X183800Y98300D01*
X193200D01*
X198500Y93000D01*
X39000Y98157D02*
X45957Y91200D01*
X74300D01*
X76100Y93000D01*
X93000D01*
X41500Y141000D02*
X47000Y135500D01*
X132000D01*
X140047Y143547D01*
Y145500D01*
X199900Y117600D02*
X213800D01*
X198500Y119000D02*
X199900Y117600D01*
X198500Y119000D02*
Y123000D01*
X9500Y117000D02*
X14000Y121500D01*
X30843Y90000D02*
X39000Y98157D01*
X20000Y90000D02*
X30843D01*
X9500Y100500D02*
X20000Y90000D01*
X113000Y93000D02*
X118500Y87500D01*
X183000D01*
X188500Y93000D01*
X93000D02*
X101500Y84500D01*
X190000D01*
X198500Y93000D01*
X123953Y155453D02*
X174047D01*
X119000Y150500D02*
X123953Y155453D01*
X174047D02*
X178500Y151000D01*
X18500Y121500D02*
X22500Y125500D01*
X14000Y121500D02*
X18500D01*
X22500Y95500D02*
X26500D01*
X34300Y103300D01*
X93000Y123000D02*
X98300Y128300D01*
X127000D02*
X128300Y127000D01*
Y98300D02*
Y127000D01*
X98300Y128300D02*
X127000D01*
X31500Y123000D02*
X93000D01*
X22500Y125500D02*
X29000D01*
X31500Y123000D01*
X173700Y132100D02*
X176000Y129800D01*
X15500Y140500D02*
X23900Y132100D01*
X173700D01*
X145000Y140500D02*
X146100Y141600D01*
X140047Y145500D02*
X190500D01*
X207500Y128500D01*
X213800D01*
Y117600D02*
Y128500D01*
X39000Y198843D02*
X46500D01*
X48000Y197343D01*
X55658D01*
X148500Y204000D02*
X158500D01*
X67500Y231500D02*
X93000D01*
X41500Y232000D02*
X54200D01*
X54700Y231500D01*
X67500D01*
X93000D02*
X119000D01*
X176000Y210800D02*
X181700D01*
X188500Y204000D01*
X189900Y222600D02*
X208500Y204000D01*
X146100Y222600D02*
X189900D01*
X75343Y187500D02*
X96500D01*
X113000Y204000D01*
X55658Y197343D02*
X71200Y181800D01*
X95200D01*
X103000Y174000D01*
X138500Y204000D02*
X153500Y189000D01*
X163500D01*
X178500Y174000D01*
X9500Y191500D02*
Y198000D01*
X173200Y209300D02*
X178500Y204000D01*
X134500Y209300D02*
X173200D01*
X133200Y208000D02*
X134500Y209300D01*
X133200Y179300D02*
Y208000D01*
Y179300D02*
X138500Y174000D01*
X123000D02*
X128300Y179300D01*
X139547Y231500D02*
X145000D01*
X134547Y226500D02*
X139547Y231500D01*
X48900Y226500D02*
X134547D01*
X48400Y227000D02*
X48900Y226500D01*
X20000Y227000D02*
X48400D01*
X15500Y231500D02*
X20000Y227000D01*
X49015Y184300D02*
X55658Y177657D01*
X34300Y184300D02*
X49015D01*
X178500Y174000D02*
X183800Y179300D01*
X193200D01*
X198500Y174000D01*
X39000Y179157D02*
X45957Y172200D01*
X74300D01*
X76100Y174000D01*
X93000D01*
X41500Y222000D02*
X47000Y216500D01*
X132000D01*
X140047Y224547D01*
Y226500D01*
X199900Y198600D02*
X213800D01*
X198500Y200000D02*
X199900Y198600D01*
X198500Y200000D02*
Y204000D01*
X9500Y198000D02*
X14000Y202500D01*
X30843Y171000D02*
X39000Y179157D01*
X20000Y171000D02*
X30843D01*
X9500Y181500D02*
X20000Y171000D01*
X113000Y174000D02*
X118500Y168500D01*
X183000D01*
X188500Y174000D01*
X93000D02*
X101500Y165500D01*
X190000D01*
X198500Y174000D01*
X123953Y236453D02*
X174047D01*
X119000Y231500D02*
X123953Y236453D01*
X174047D02*
X178500Y232000D01*
X18500Y202500D02*
X22500Y206500D01*
X14000Y202500D02*
X18500D01*
X22500Y176500D02*
X26500D01*
X34300Y184300D01*
X93000Y204000D02*
X98300Y209300D01*
X127000D02*
X128300Y208000D01*
Y179300D02*
Y208000D01*
X98300Y209300D02*
X127000D01*
X31500Y204000D02*
X93000D01*
X22500Y206500D02*
X29000D01*
X31500Y204000D01*
X173700Y213100D02*
X176000Y210800D01*
X15500Y221500D02*
X23900Y213100D01*
X173700D01*
X145000Y221500D02*
X146100Y222600D01*
X140047Y226500D02*
X190500D01*
X207500Y209500D01*
X213800D01*
Y198600D02*
Y209500D01*
X39000Y279843D02*
X46500D01*
X48000Y278343D01*
X55658D01*
X148500Y285000D02*
X158500D01*
X67500Y312500D02*
X93000D01*
X41500Y313000D02*
X54200D01*
X54700Y312500D01*
X67500D01*
X93000D02*
X119000D01*
X176000Y291800D02*
X181700D01*
X188500Y285000D01*
X189900Y303600D02*
X208500Y285000D01*
X146100Y303600D02*
X189900D01*
X75343Y268500D02*
X96500D01*
X113000Y285000D01*
X55658Y278343D02*
X71200Y262800D01*
X95200D01*
X103000Y255000D01*
X138500Y285000D02*
X153500Y270000D01*
X163500D01*
X178500Y255000D01*
X9500Y272500D02*
Y279000D01*
X173200Y290300D02*
X178500Y285000D01*
X134500Y290300D02*
X173200D01*
X133200Y289000D02*
X134500Y290300D01*
X133200Y260300D02*
Y289000D01*
Y260300D02*
X138500Y255000D01*
X123000D02*
X128300Y260300D01*
X139547Y312500D02*
X145000D01*
X134547Y307500D02*
X139547Y312500D01*
X48900Y307500D02*
X134547D01*
X48400Y308000D02*
X48900Y307500D01*
X20000Y308000D02*
X48400D01*
X15500Y312500D02*
X20000Y308000D01*
X49015Y265300D02*
X55658Y258657D01*
X34300Y265300D02*
X49015D01*
X178500Y255000D02*
X183800Y260300D01*
X193200D01*
X198500Y255000D01*
X39000Y260157D02*
X45957Y253200D01*
X74300D01*
X76100Y255000D01*
X93000D01*
X41500Y303000D02*
X47000Y297500D01*
X132000D01*
X140047Y305547D01*
Y307500D01*
X199900Y279600D02*
X213800D01*
X198500Y281000D02*
X199900Y279600D01*
X198500Y281000D02*
Y285000D01*
X9500Y279000D02*
X14000Y283500D01*
X30843Y252000D02*
X39000Y260157D01*
X20000Y252000D02*
X30843D01*
X9500Y262500D02*
X20000Y252000D01*
X113000Y255000D02*
X118500Y249500D01*
X183000D01*
X188500Y255000D01*
X93000D02*
X101500Y246500D01*
X190000D01*
X198500Y255000D01*
X123953Y317453D02*
X174047D01*
X119000Y312500D02*
X123953Y317453D01*
X174047D02*
X178500Y313000D01*
X18500Y283500D02*
X22500Y287500D01*
X14000Y283500D02*
X18500D01*
X22500Y257500D02*
X26500D01*
X34300Y265300D01*
X93000Y285000D02*
X98300Y290300D01*
X127000D02*
X128300Y289000D01*
Y260300D02*
Y289000D01*
X98300Y290300D02*
X127000D01*
X31500Y285000D02*
X93000D01*
X22500Y287500D02*
X29000D01*
X31500Y285000D01*
X173700Y294100D02*
X176000Y291800D01*
X15500Y302500D02*
X23900Y294100D01*
X173700D01*
X145000Y302500D02*
X146100Y303600D01*
X140047Y307500D02*
X190500D01*
X207500Y290500D01*
X213800D01*
Y279600D02*
Y290500D01*
X38500Y359843D02*
X46000D01*
X47500Y358343D01*
X55158D01*
X148000Y365000D02*
X158000D01*
X67000Y392500D02*
X92500D01*
X41000Y393000D02*
X53700D01*
X54200Y392500D01*
X67000D01*
X92500D02*
X118500D01*
X175500Y371800D02*
X181200D01*
X188000Y365000D01*
X189400Y383600D02*
X208000Y365000D01*
X145600Y383600D02*
X189400D01*
X74843Y348500D02*
X96000D01*
X112500Y365000D01*
X55158Y358343D02*
X70700Y342800D01*
X94700D01*
X102500Y335000D01*
X138000Y365000D02*
X153000Y350000D01*
X163000D01*
X178000Y335000D01*
X9000Y352500D02*
Y359000D01*
X172700Y370300D02*
X178000Y365000D01*
X134000Y370300D02*
X172700D01*
X132700Y369000D02*
X134000Y370300D01*
X132700Y340300D02*
Y369000D01*
Y340300D02*
X138000Y335000D01*
X122500D02*
X127800Y340300D01*
X139047Y392500D02*
X144500D01*
X134047Y387500D02*
X139047Y392500D01*
X48400Y387500D02*
X134047D01*
X47900Y388000D02*
X48400Y387500D01*
X19500Y388000D02*
X47900D01*
X15000Y392500D02*
X19500Y388000D01*
X48515Y345300D02*
X55158Y338657D01*
X33800Y345300D02*
X48515D01*
X178000Y335000D02*
X183300Y340300D01*
X192700D01*
X198000Y335000D01*
X38500Y340157D02*
X45457Y333200D01*
X73800D01*
X75600Y335000D01*
X92500D01*
X41000Y383000D02*
X46500Y377500D01*
X131500D01*
X139547Y385547D01*
Y387500D01*
X199400Y359600D02*
X213300D01*
X198000Y361000D02*
X199400Y359600D01*
X198000Y361000D02*
Y365000D01*
X9000Y359000D02*
X13500Y363500D01*
X30343Y332000D02*
X38500Y340157D01*
X19500Y332000D02*
X30343D01*
X9000Y342500D02*
X19500Y332000D01*
X112500Y335000D02*
X118000Y329500D01*
X182500D01*
X188000Y335000D01*
X92500D02*
X101000Y326500D01*
X189500D01*
X198000Y335000D01*
X123453Y397453D02*
X173547D01*
X118500Y392500D02*
X123453Y397453D01*
X173547D02*
X178000Y393000D01*
X18000Y363500D02*
X22000Y367500D01*
X13500Y363500D02*
X18000D01*
X22000Y337500D02*
X26000D01*
X33800Y345300D01*
X92500Y365000D02*
X97800Y370300D01*
X126500D02*
X127800Y369000D01*
Y340300D02*
Y369000D01*
X97800Y370300D02*
X126500D01*
X31000Y365000D02*
X92500D01*
X22000Y367500D02*
X28500D01*
X31000Y365000D01*
X173200Y374100D02*
X175500Y371800D01*
X15000Y382500D02*
X23400Y374100D01*
X173200D01*
X144500Y382500D02*
X145600Y383600D01*
X139547Y387500D02*
X190000D01*
X207000Y370500D01*
X213300D01*
Y359600D02*
Y370500D01*
X213800Y37100D02*
Y48000D01*
X207500D02*
X213800D01*
X190500Y65000D02*
X207500Y48000D01*
X140047Y65000D02*
X190500D01*
X145000Y60000D02*
X146100Y61100D01*
X23900Y51600D02*
X173700D01*
X15500Y60000D02*
X23900Y51600D01*
X173700D02*
X176000Y49300D01*
X29000Y45000D02*
X31500Y42500D01*
X22500Y45000D02*
X29000D01*
X31500Y42500D02*
X93000D01*
X98300Y47800D02*
X127000D01*
X128300Y17800D02*
Y46500D01*
X127000Y47800D02*
X128300Y46500D01*
X93000Y42500D02*
X98300Y47800D01*
X26500Y15000D02*
X34300Y22800D01*
X22500Y15000D02*
X26500D01*
X14000Y41000D02*
X18500D01*
X22500Y45000D01*
X174047Y74953D02*
X178500Y70500D01*
X119000Y70000D02*
X123953Y74953D01*
X174047D01*
X190000Y4000D02*
X198500Y12500D01*
X101500Y4000D02*
X190000D01*
X93000Y12500D02*
X101500Y4000D01*
X183000Y7000D02*
X188500Y12500D01*
X118500Y7000D02*
X183000D01*
X113000Y12500D02*
X118500Y7000D01*
X9500Y20000D02*
X20000Y9500D01*
X30843D01*
X39000Y17657D01*
X9500Y36500D02*
X14000Y41000D01*
X198500Y38500D02*
Y42500D01*
Y38500D02*
X199900Y37100D01*
X213800D01*
X140047Y63047D02*
Y65000D01*
X132000Y55000D02*
X140047Y63047D01*
X47000Y55000D02*
X132000D01*
X41500Y60500D02*
X47000Y55000D01*
X76100Y12500D02*
X93000D01*
X74300Y10700D02*
X76100Y12500D01*
X45957Y10700D02*
X74300D01*
X39000Y17657D02*
X45957Y10700D01*
X193200Y17800D02*
X198500Y12500D01*
X183800Y17800D02*
X193200D01*
X178500Y12500D02*
X183800Y17800D01*
X34300Y22800D02*
X49015D01*
X55658Y16157D01*
X15500Y70000D02*
X20000Y65500D01*
X48400D01*
X48900Y65000D01*
X134547D01*
X139547Y70000D01*
X145000D01*
X123000Y12500D02*
X128300Y17800D01*
X133200D02*
X138500Y12500D01*
X133200Y17800D02*
Y46500D01*
X134500Y47800D01*
X173200D01*
X178500Y42500D01*
X9500Y30000D02*
Y36500D01*
X163500Y27500D02*
X178500Y12500D01*
X153500Y27500D02*
X163500D01*
X138500Y42500D02*
X153500Y27500D01*
X95200Y20300D02*
X103000Y12500D01*
X71200Y20300D02*
X95200D01*
X55658Y35843D02*
X71200Y20300D01*
X96500Y26000D02*
X113000Y42500D01*
X75343Y26000D02*
X96500D01*
X146100Y61100D02*
X189900D01*
X208500Y42500D01*
X181700Y49300D02*
X188500Y42500D01*
X176000Y49300D02*
X181700D01*
X93000Y70000D02*
X119000D01*
X54700D02*
X67500D01*
X54200Y70500D02*
X54700Y70000D01*
X41500Y70500D02*
X54200D01*
X67500Y70000D02*
X93000D01*
X148500Y42500D02*
X158500D01*
X48000Y35843D02*
X55658D01*
X46500Y37343D02*
X48000Y35843D01*
X39000Y37343D02*
X46500D01*
D12*
X350000Y310500D02*
D03*
X265000Y310000D02*
D03*
X349500Y218000D02*
D03*
X265500D02*
D03*
D13*
X109000Y80000D02*
D03*
X109500Y160500D02*
D03*
Y242000D02*
D03*
Y322500D02*
D03*
D14*
X308000Y200500D02*
D03*
X222500D02*
D03*
D15*
X370500Y253095D02*
D03*
X332500Y237937D02*
D03*
X331000Y289437D02*
D03*
Y380937D02*
D03*
X332500Y329437D02*
D03*
X370500Y344595D02*
D03*
X287000D02*
D03*
X249000Y329437D02*
D03*
X247500Y380937D02*
D03*
Y289437D02*
D03*
X249000Y237937D02*
D03*
X287000Y253095D02*
D03*
X15500Y140500D02*
D03*
X41500Y141000D02*
D03*
X67500Y140500D02*
D03*
X93000D02*
D03*
X119000D02*
D03*
X145000D02*
D03*
X39000Y117843D02*
D03*
X15500Y221500D02*
D03*
X41500Y222000D02*
D03*
X67500Y221500D02*
D03*
X93000D02*
D03*
X119000D02*
D03*
X145000D02*
D03*
X39000Y198843D02*
D03*
X15500Y302500D02*
D03*
X41500Y303000D02*
D03*
X67500Y302500D02*
D03*
X93000D02*
D03*
X119000D02*
D03*
X145000D02*
D03*
X39000Y279843D02*
D03*
X15000Y382500D02*
D03*
X41000Y383000D02*
D03*
X67000Y382500D02*
D03*
X92500D02*
D03*
X118500D02*
D03*
X144500D02*
D03*
X38500Y359843D02*
D03*
X15500Y60000D02*
D03*
X41500Y60500D02*
D03*
X67500Y60000D02*
D03*
X39000Y37343D02*
D03*
X93000Y60000D02*
D03*
X119000D02*
D03*
X145000D02*
D03*
D16*
X370500Y272779D02*
D03*
X335157Y263937D02*
D03*
X332500Y227937D02*
D03*
X331000Y299437D02*
D03*
X370000Y227937D02*
D03*
X362500Y232937D02*
D03*
X370000Y237937D02*
D03*
X371500Y288437D02*
D03*
X364000Y293437D02*
D03*
X371500Y298437D02*
D03*
X355000Y250437D02*
D03*
X325000D02*
D03*
X355000Y277437D02*
D03*
X325000D02*
D03*
X355000Y368937D02*
D03*
X325000D02*
D03*
X355000Y341937D02*
D03*
X325000D02*
D03*
X371500Y379937D02*
D03*
X364000Y384937D02*
D03*
X371500Y389937D02*
D03*
X370000Y319437D02*
D03*
X362500Y324437D02*
D03*
X370000Y329437D02*
D03*
X331000Y390937D02*
D03*
X332500Y319437D02*
D03*
X335157Y355437D02*
D03*
X370500Y364280D02*
D03*
X287000D02*
D03*
X251658Y355437D02*
D03*
X249000Y319437D02*
D03*
X247500Y390937D02*
D03*
X286500Y319437D02*
D03*
X279000Y324437D02*
D03*
X286500Y329437D02*
D03*
X288000Y379937D02*
D03*
X280500Y384937D02*
D03*
X288000Y389937D02*
D03*
X271500Y341937D02*
D03*
X241500D02*
D03*
X271500Y368937D02*
D03*
X241500D02*
D03*
X271500Y277437D02*
D03*
X241500D02*
D03*
X271500Y250437D02*
D03*
X241500D02*
D03*
X288000Y288437D02*
D03*
X280500Y293437D02*
D03*
X288000Y298437D02*
D03*
X286500Y227937D02*
D03*
X279000Y232937D02*
D03*
X286500Y237937D02*
D03*
X247500Y299437D02*
D03*
X249000Y227937D02*
D03*
X251658Y263937D02*
D03*
X287000Y272779D02*
D03*
X319500Y15000D02*
D03*
X319000Y41000D02*
D03*
X319500Y67000D02*
D03*
Y92500D02*
D03*
Y118500D02*
D03*
Y144500D02*
D03*
X344500Y22000D02*
D03*
X374500D02*
D03*
X371843Y38500D02*
D03*
X319000Y178000D02*
D03*
Y208000D02*
D03*
X334000Y178000D02*
D03*
Y208000D02*
D03*
X235500Y15000D02*
D03*
X235000Y41000D02*
D03*
X235500Y67000D02*
D03*
Y92500D02*
D03*
Y118500D02*
D03*
Y144500D02*
D03*
X260500Y22000D02*
D03*
X290500D02*
D03*
X287843Y38500D02*
D03*
X235000Y178000D02*
D03*
Y208000D02*
D03*
X250000Y178000D02*
D03*
Y208000D02*
D03*
X15500Y150500D02*
D03*
X41500Y151000D02*
D03*
X67500Y150500D02*
D03*
X93000D02*
D03*
X119000D02*
D03*
X145000D02*
D03*
X22500Y125500D02*
D03*
Y95500D02*
D03*
X39000Y98157D02*
D03*
X178500Y151000D02*
D03*
X208500D02*
D03*
X178500Y136000D02*
D03*
X208500D02*
D03*
X15500Y231500D02*
D03*
X41500Y232000D02*
D03*
X67500Y231500D02*
D03*
X93000D02*
D03*
X119000D02*
D03*
X145000D02*
D03*
X22500Y206500D02*
D03*
Y176500D02*
D03*
X39000Y179157D02*
D03*
X178500Y232000D02*
D03*
X208500D02*
D03*
X178500Y217000D02*
D03*
X208500D02*
D03*
X15500Y312500D02*
D03*
X41500Y313000D02*
D03*
X67500Y312500D02*
D03*
X93000D02*
D03*
X119000D02*
D03*
X145000D02*
D03*
X22500Y287500D02*
D03*
Y257500D02*
D03*
X39000Y260157D02*
D03*
X178500Y313000D02*
D03*
X208500D02*
D03*
X178500Y298000D02*
D03*
X208500D02*
D03*
X15000Y392500D02*
D03*
X41000Y393000D02*
D03*
X67000Y392500D02*
D03*
X92500D02*
D03*
X118500D02*
D03*
X144500D02*
D03*
X22000Y367500D02*
D03*
Y337500D02*
D03*
X38500Y340157D02*
D03*
X178000Y393000D02*
D03*
X208000D02*
D03*
X178000Y378000D02*
D03*
X208000D02*
D03*
X15500Y70000D02*
D03*
X41500Y70500D02*
D03*
X22500Y45000D02*
D03*
Y15000D02*
D03*
X67500Y70000D02*
D03*
X39000Y17657D02*
D03*
X93000Y70000D02*
D03*
X119000D02*
D03*
X145000D02*
D03*
X178500Y55500D02*
D03*
X208500D02*
D03*
X178500Y70500D02*
D03*
X208500D02*
D03*
D17*
X354842Y263937D02*
D03*
Y355437D02*
D03*
X271342D02*
D03*
Y263937D02*
D03*
X329500Y15000D02*
D03*
X329000Y41000D02*
D03*
X329500Y67000D02*
D03*
Y92500D02*
D03*
Y118500D02*
D03*
Y144500D02*
D03*
X352157Y38500D02*
D03*
X245500Y15000D02*
D03*
X245000Y41000D02*
D03*
X245500Y67000D02*
D03*
Y92500D02*
D03*
Y118500D02*
D03*
Y144500D02*
D03*
X268157Y38500D02*
D03*
D18*
X351500Y299437D02*
D03*
Y390937D02*
D03*
X268000D02*
D03*
Y299437D02*
D03*
X369500Y9000D02*
D03*
X285500D02*
D03*
X9500Y100500D02*
D03*
Y181500D02*
D03*
Y262500D02*
D03*
X9000Y342500D02*
D03*
X9500Y20000D02*
D03*
D19*
X351500Y289437D02*
D03*
Y380937D02*
D03*
X268000D02*
D03*
Y289437D02*
D03*
D20*
X353657Y55158D02*
D03*
X269657D02*
D03*
D21*
X363500Y74843D02*
D03*
X373343Y55158D02*
D03*
X279500Y74843D02*
D03*
X289343Y55158D02*
D03*
X75343Y106500D02*
D03*
X55658Y96657D02*
D03*
X75343Y187500D02*
D03*
X55658Y177657D02*
D03*
X75343Y268500D02*
D03*
X55658Y258657D02*
D03*
X74843Y348500D02*
D03*
X55158Y338657D02*
D03*
X75343Y26000D02*
D03*
X55658Y16157D02*
D03*
D22*
X347000Y208000D02*
D03*
X377000Y92500D02*
D03*
X263000Y208000D02*
D03*
X293000Y92500D02*
D03*
D23*
X347000Y198000D02*
D03*
Y188000D02*
D03*
Y178000D02*
D03*
Y168000D02*
D03*
Y158000D02*
D03*
Y148000D02*
D03*
Y138000D02*
D03*
X377000D02*
D03*
Y148000D02*
D03*
Y158000D02*
D03*
Y168000D02*
D03*
Y178000D02*
D03*
Y188000D02*
D03*
Y198000D02*
D03*
Y208000D02*
D03*
Y102500D02*
D03*
Y112500D02*
D03*
Y122500D02*
D03*
X347000D02*
D03*
Y112500D02*
D03*
Y102500D02*
D03*
Y92500D02*
D03*
X263000Y198000D02*
D03*
Y188000D02*
D03*
Y178000D02*
D03*
Y168000D02*
D03*
Y158000D02*
D03*
Y148000D02*
D03*
Y138000D02*
D03*
X293000D02*
D03*
Y148000D02*
D03*
Y158000D02*
D03*
Y168000D02*
D03*
Y178000D02*
D03*
Y188000D02*
D03*
Y198000D02*
D03*
Y208000D02*
D03*
Y102500D02*
D03*
Y112500D02*
D03*
Y122500D02*
D03*
X263000D02*
D03*
Y112500D02*
D03*
Y102500D02*
D03*
Y92500D02*
D03*
X198500Y123000D02*
D03*
X188500D02*
D03*
X178500D02*
D03*
X168500D02*
D03*
X158500D02*
D03*
X148500D02*
D03*
X138500D02*
D03*
Y93000D02*
D03*
X148500D02*
D03*
X158500D02*
D03*
X168500D02*
D03*
X178500D02*
D03*
X188500D02*
D03*
X198500D02*
D03*
X208500D02*
D03*
X103000D02*
D03*
X113000D02*
D03*
X123000D02*
D03*
Y123000D02*
D03*
X113000D02*
D03*
X103000D02*
D03*
X93000D02*
D03*
X198500Y204000D02*
D03*
X188500D02*
D03*
X178500D02*
D03*
X168500D02*
D03*
X158500D02*
D03*
X148500D02*
D03*
X138500D02*
D03*
Y174000D02*
D03*
X148500D02*
D03*
X158500D02*
D03*
X168500D02*
D03*
X178500D02*
D03*
X188500D02*
D03*
X198500D02*
D03*
X208500D02*
D03*
X103000D02*
D03*
X113000D02*
D03*
X123000D02*
D03*
Y204000D02*
D03*
X113000D02*
D03*
X103000D02*
D03*
X93000D02*
D03*
X198500Y285000D02*
D03*
X188500D02*
D03*
X178500D02*
D03*
X168500D02*
D03*
X158500D02*
D03*
X148500D02*
D03*
X138500D02*
D03*
Y255000D02*
D03*
X148500D02*
D03*
X158500D02*
D03*
X168500D02*
D03*
X178500D02*
D03*
X188500D02*
D03*
X198500D02*
D03*
X208500D02*
D03*
X103000D02*
D03*
X113000D02*
D03*
X123000D02*
D03*
Y285000D02*
D03*
X113000D02*
D03*
X103000D02*
D03*
X93000D02*
D03*
X198000Y365000D02*
D03*
X188000D02*
D03*
X178000D02*
D03*
X168000D02*
D03*
X158000D02*
D03*
X148000D02*
D03*
X138000D02*
D03*
Y335000D02*
D03*
X148000D02*
D03*
X158000D02*
D03*
X168000D02*
D03*
X178000D02*
D03*
X188000D02*
D03*
X198000D02*
D03*
X208000D02*
D03*
X102500D02*
D03*
X112500D02*
D03*
X122500D02*
D03*
Y365000D02*
D03*
X112500D02*
D03*
X102500D02*
D03*
X92500D02*
D03*
X198500Y42500D02*
D03*
X188500D02*
D03*
X178500D02*
D03*
X168500D02*
D03*
X158500D02*
D03*
X148500D02*
D03*
X138500D02*
D03*
Y12500D02*
D03*
X148500D02*
D03*
X158500D02*
D03*
X168500D02*
D03*
X178500D02*
D03*
X188500D02*
D03*
X198500D02*
D03*
X208500D02*
D03*
X103000D02*
D03*
X113000D02*
D03*
X123000D02*
D03*
Y42500D02*
D03*
X113000D02*
D03*
X103000D02*
D03*
X93000D02*
D03*
D24*
X359500Y9000D02*
D03*
X275500D02*
D03*
D25*
X55658Y116343D02*
D03*
Y197343D02*
D03*
Y278343D02*
D03*
X55158Y358343D02*
D03*
X55658Y35843D02*
D03*
D26*
X208500Y123000D02*
D03*
X93000Y93000D02*
D03*
X208500Y204000D02*
D03*
X93000Y174000D02*
D03*
X208500Y285000D02*
D03*
X93000Y255000D02*
D03*
X208000Y365000D02*
D03*
X92500Y335000D02*
D03*
X208500Y42500D02*
D03*
X93000Y12500D02*
D03*
D27*
X9500Y110500D02*
D03*
Y191500D02*
D03*
Y272500D02*
D03*
X9000Y352500D02*
D03*
X9500Y30000D02*
D03*
M02*
