G04 Layer_Color=16711935*
%FSLAX25Y25*%
%MOIN*%
G70*
G01*
G75*
%ADD38R,0.75603X0.02768*%
%ADD39R,2.15367X0.03556*%
%ADD40R,0.04737X3.96469*%
%ADD41R,0.06706X0.06706*%
%ADD42C,0.06706*%
%ADD43R,0.06706X0.06706*%
%ADD44C,0.08674*%
%ADD45R,0.08674X0.08674*%
%ADD46R,0.06737X0.06737*%
%ADD47C,0.06737*%
%ADD48R,0.07400X0.07400*%
%ADD49C,0.07400*%
%ADD50R,0.07887X0.07887*%
%ADD51R,0.06737X0.06737*%
%ADD52R,0.07400X0.07400*%
%ADD53R,0.07887X0.07887*%
D38*
X350000Y310500D02*
D03*
X265000Y310000D02*
D03*
X349500Y218000D02*
D03*
X265500D02*
D03*
D39*
X109000Y80000D02*
D03*
X109500Y160500D02*
D03*
Y242000D02*
D03*
Y322500D02*
D03*
D40*
X308000Y200500D02*
D03*
X222500D02*
D03*
D41*
X370500Y253095D02*
D03*
X332500Y237937D02*
D03*
X331000Y289437D02*
D03*
Y380937D02*
D03*
X332500Y329437D02*
D03*
X370500Y344595D02*
D03*
X287000D02*
D03*
X249000Y329437D02*
D03*
X247500Y380937D02*
D03*
Y289437D02*
D03*
X249000Y237937D02*
D03*
X287000Y253095D02*
D03*
X15500Y140500D02*
D03*
X41500Y141000D02*
D03*
X67500Y140500D02*
D03*
X93000D02*
D03*
X119000D02*
D03*
X145000D02*
D03*
X39000Y117843D02*
D03*
X15500Y221500D02*
D03*
X41500Y222000D02*
D03*
X67500Y221500D02*
D03*
X93000D02*
D03*
X119000D02*
D03*
X145000D02*
D03*
X39000Y198843D02*
D03*
X15500Y302500D02*
D03*
X41500Y303000D02*
D03*
X67500Y302500D02*
D03*
X93000D02*
D03*
X119000D02*
D03*
X145000D02*
D03*
X39000Y279843D02*
D03*
X15000Y382500D02*
D03*
X41000Y383000D02*
D03*
X67000Y382500D02*
D03*
X92500D02*
D03*
X118500D02*
D03*
X144500D02*
D03*
X38500Y359843D02*
D03*
X15500Y60000D02*
D03*
X41500Y60500D02*
D03*
X67500Y60000D02*
D03*
X39000Y37343D02*
D03*
X93000Y60000D02*
D03*
X119000D02*
D03*
X145000D02*
D03*
D42*
X370500Y272779D02*
D03*
X335157Y263937D02*
D03*
X332500Y227937D02*
D03*
X331000Y299437D02*
D03*
X370000Y227937D02*
D03*
X362500Y232937D02*
D03*
X370000Y237937D02*
D03*
X371500Y288437D02*
D03*
X364000Y293437D02*
D03*
X371500Y298437D02*
D03*
X355000Y250437D02*
D03*
X325000D02*
D03*
X355000Y277437D02*
D03*
X325000D02*
D03*
X355000Y368937D02*
D03*
X325000D02*
D03*
X355000Y341937D02*
D03*
X325000D02*
D03*
X371500Y379937D02*
D03*
X364000Y384937D02*
D03*
X371500Y389937D02*
D03*
X370000Y319437D02*
D03*
X362500Y324437D02*
D03*
X370000Y329437D02*
D03*
X331000Y390937D02*
D03*
X332500Y319437D02*
D03*
X335157Y355437D02*
D03*
X370500Y364280D02*
D03*
X287000D02*
D03*
X251658Y355437D02*
D03*
X249000Y319437D02*
D03*
X247500Y390937D02*
D03*
X286500Y319437D02*
D03*
X279000Y324437D02*
D03*
X286500Y329437D02*
D03*
X288000Y379937D02*
D03*
X280500Y384937D02*
D03*
X288000Y389937D02*
D03*
X271500Y341937D02*
D03*
X241500D02*
D03*
X271500Y368937D02*
D03*
X241500D02*
D03*
X271500Y277437D02*
D03*
X241500D02*
D03*
X271500Y250437D02*
D03*
X241500D02*
D03*
X288000Y288437D02*
D03*
X280500Y293437D02*
D03*
X288000Y298437D02*
D03*
X286500Y227937D02*
D03*
X279000Y232937D02*
D03*
X286500Y237937D02*
D03*
X247500Y299437D02*
D03*
X249000Y227937D02*
D03*
X251658Y263937D02*
D03*
X287000Y272779D02*
D03*
X319500Y15000D02*
D03*
X319000Y41000D02*
D03*
X319500Y67000D02*
D03*
Y92500D02*
D03*
Y118500D02*
D03*
Y144500D02*
D03*
X344500Y22000D02*
D03*
X374500D02*
D03*
X371843Y38500D02*
D03*
X319000Y178000D02*
D03*
Y208000D02*
D03*
X334000Y178000D02*
D03*
Y208000D02*
D03*
X235500Y15000D02*
D03*
X235000Y41000D02*
D03*
X235500Y67000D02*
D03*
Y92500D02*
D03*
Y118500D02*
D03*
Y144500D02*
D03*
X260500Y22000D02*
D03*
X290500D02*
D03*
X287843Y38500D02*
D03*
X235000Y178000D02*
D03*
Y208000D02*
D03*
X250000Y178000D02*
D03*
Y208000D02*
D03*
X15500Y150500D02*
D03*
X41500Y151000D02*
D03*
X67500Y150500D02*
D03*
X93000D02*
D03*
X119000D02*
D03*
X145000D02*
D03*
X22500Y125500D02*
D03*
Y95500D02*
D03*
X39000Y98157D02*
D03*
X178500Y151000D02*
D03*
X208500D02*
D03*
X178500Y136000D02*
D03*
X208500D02*
D03*
X15500Y231500D02*
D03*
X41500Y232000D02*
D03*
X67500Y231500D02*
D03*
X93000D02*
D03*
X119000D02*
D03*
X145000D02*
D03*
X22500Y206500D02*
D03*
Y176500D02*
D03*
X39000Y179157D02*
D03*
X178500Y232000D02*
D03*
X208500D02*
D03*
X178500Y217000D02*
D03*
X208500D02*
D03*
X15500Y312500D02*
D03*
X41500Y313000D02*
D03*
X67500Y312500D02*
D03*
X93000D02*
D03*
X119000D02*
D03*
X145000D02*
D03*
X22500Y287500D02*
D03*
Y257500D02*
D03*
X39000Y260157D02*
D03*
X178500Y313000D02*
D03*
X208500D02*
D03*
X178500Y298000D02*
D03*
X208500D02*
D03*
X15000Y392500D02*
D03*
X41000Y393000D02*
D03*
X67000Y392500D02*
D03*
X92500D02*
D03*
X118500D02*
D03*
X144500D02*
D03*
X22000Y367500D02*
D03*
Y337500D02*
D03*
X38500Y340157D02*
D03*
X178000Y393000D02*
D03*
X208000D02*
D03*
X178000Y378000D02*
D03*
X208000D02*
D03*
X15500Y70000D02*
D03*
X41500Y70500D02*
D03*
X22500Y45000D02*
D03*
Y15000D02*
D03*
X67500Y70000D02*
D03*
X39000Y17657D02*
D03*
X93000Y70000D02*
D03*
X119000D02*
D03*
X145000D02*
D03*
X178500Y55500D02*
D03*
X208500D02*
D03*
X178500Y70500D02*
D03*
X208500D02*
D03*
D43*
X354842Y263937D02*
D03*
Y355437D02*
D03*
X271342D02*
D03*
Y263937D02*
D03*
X329500Y15000D02*
D03*
X329000Y41000D02*
D03*
X329500Y67000D02*
D03*
Y92500D02*
D03*
Y118500D02*
D03*
Y144500D02*
D03*
X352157Y38500D02*
D03*
X245500Y15000D02*
D03*
X245000Y41000D02*
D03*
X245500Y67000D02*
D03*
Y92500D02*
D03*
Y118500D02*
D03*
Y144500D02*
D03*
X268157Y38500D02*
D03*
D44*
X351500Y299437D02*
D03*
Y390937D02*
D03*
X268000D02*
D03*
Y299437D02*
D03*
X369500Y9000D02*
D03*
X285500D02*
D03*
X9500Y100500D02*
D03*
Y181500D02*
D03*
Y262500D02*
D03*
X9000Y342500D02*
D03*
X9500Y20000D02*
D03*
D45*
X351500Y289437D02*
D03*
Y380937D02*
D03*
X268000D02*
D03*
Y289437D02*
D03*
D46*
X353657Y55158D02*
D03*
X269657D02*
D03*
D47*
X363500Y74843D02*
D03*
X373343Y55158D02*
D03*
X279500Y74843D02*
D03*
X289343Y55158D02*
D03*
X75343Y106500D02*
D03*
X55658Y96657D02*
D03*
X75343Y187500D02*
D03*
X55658Y177657D02*
D03*
X75343Y268500D02*
D03*
X55658Y258657D02*
D03*
X74843Y348500D02*
D03*
X55158Y338657D02*
D03*
X75343Y26000D02*
D03*
X55658Y16157D02*
D03*
D48*
X347000Y208000D02*
D03*
X377000Y92500D02*
D03*
X263000Y208000D02*
D03*
X293000Y92500D02*
D03*
D49*
X347000Y198000D02*
D03*
Y188000D02*
D03*
Y178000D02*
D03*
Y168000D02*
D03*
Y158000D02*
D03*
Y148000D02*
D03*
Y138000D02*
D03*
X377000D02*
D03*
Y148000D02*
D03*
Y158000D02*
D03*
Y168000D02*
D03*
Y178000D02*
D03*
Y188000D02*
D03*
Y198000D02*
D03*
Y208000D02*
D03*
Y102500D02*
D03*
Y112500D02*
D03*
Y122500D02*
D03*
X347000D02*
D03*
Y112500D02*
D03*
Y102500D02*
D03*
Y92500D02*
D03*
X263000Y198000D02*
D03*
Y188000D02*
D03*
Y178000D02*
D03*
Y168000D02*
D03*
Y158000D02*
D03*
Y148000D02*
D03*
Y138000D02*
D03*
X293000D02*
D03*
Y148000D02*
D03*
Y158000D02*
D03*
Y168000D02*
D03*
Y178000D02*
D03*
Y188000D02*
D03*
Y198000D02*
D03*
Y208000D02*
D03*
Y102500D02*
D03*
Y112500D02*
D03*
Y122500D02*
D03*
X263000D02*
D03*
Y112500D02*
D03*
Y102500D02*
D03*
Y92500D02*
D03*
X198500Y123000D02*
D03*
X188500D02*
D03*
X178500D02*
D03*
X168500D02*
D03*
X158500D02*
D03*
X148500D02*
D03*
X138500D02*
D03*
Y93000D02*
D03*
X148500D02*
D03*
X158500D02*
D03*
X168500D02*
D03*
X178500D02*
D03*
X188500D02*
D03*
X198500D02*
D03*
X208500D02*
D03*
X103000D02*
D03*
X113000D02*
D03*
X123000D02*
D03*
Y123000D02*
D03*
X113000D02*
D03*
X103000D02*
D03*
X93000D02*
D03*
X198500Y204000D02*
D03*
X188500D02*
D03*
X178500D02*
D03*
X168500D02*
D03*
X158500D02*
D03*
X148500D02*
D03*
X138500D02*
D03*
Y174000D02*
D03*
X148500D02*
D03*
X158500D02*
D03*
X168500D02*
D03*
X178500D02*
D03*
X188500D02*
D03*
X198500D02*
D03*
X208500D02*
D03*
X103000D02*
D03*
X113000D02*
D03*
X123000D02*
D03*
Y204000D02*
D03*
X113000D02*
D03*
X103000D02*
D03*
X93000D02*
D03*
X198500Y285000D02*
D03*
X188500D02*
D03*
X178500D02*
D03*
X168500D02*
D03*
X158500D02*
D03*
X148500D02*
D03*
X138500D02*
D03*
Y255000D02*
D03*
X148500D02*
D03*
X158500D02*
D03*
X168500D02*
D03*
X178500D02*
D03*
X188500D02*
D03*
X198500D02*
D03*
X208500D02*
D03*
X103000D02*
D03*
X113000D02*
D03*
X123000D02*
D03*
Y285000D02*
D03*
X113000D02*
D03*
X103000D02*
D03*
X93000D02*
D03*
X198000Y365000D02*
D03*
X188000D02*
D03*
X178000D02*
D03*
X168000D02*
D03*
X158000D02*
D03*
X148000D02*
D03*
X138000D02*
D03*
Y335000D02*
D03*
X148000D02*
D03*
X158000D02*
D03*
X168000D02*
D03*
X178000D02*
D03*
X188000D02*
D03*
X198000D02*
D03*
X208000D02*
D03*
X102500D02*
D03*
X112500D02*
D03*
X122500D02*
D03*
Y365000D02*
D03*
X112500D02*
D03*
X102500D02*
D03*
X92500D02*
D03*
X198500Y42500D02*
D03*
X188500D02*
D03*
X178500D02*
D03*
X168500D02*
D03*
X158500D02*
D03*
X148500D02*
D03*
X138500D02*
D03*
Y12500D02*
D03*
X148500D02*
D03*
X158500D02*
D03*
X168500D02*
D03*
X178500D02*
D03*
X188500D02*
D03*
X198500D02*
D03*
X208500D02*
D03*
X103000D02*
D03*
X113000D02*
D03*
X123000D02*
D03*
Y42500D02*
D03*
X113000D02*
D03*
X103000D02*
D03*
X93000D02*
D03*
D50*
X359500Y9000D02*
D03*
X275500D02*
D03*
D51*
X55658Y116343D02*
D03*
Y197343D02*
D03*
Y278343D02*
D03*
X55158Y358343D02*
D03*
X55658Y35843D02*
D03*
D52*
X208500Y123000D02*
D03*
X93000Y93000D02*
D03*
X208500Y204000D02*
D03*
X93000Y174000D02*
D03*
X208500Y285000D02*
D03*
X93000Y255000D02*
D03*
X208000Y365000D02*
D03*
X92500Y335000D02*
D03*
X208500Y42500D02*
D03*
X93000Y12500D02*
D03*
D53*
X9500Y110500D02*
D03*
Y191500D02*
D03*
Y272500D02*
D03*
X9000Y352500D02*
D03*
X9500Y30000D02*
D03*
M02*
