M48
;Layer_Color=9474304
;FILE_FORMAT=2:5
INCH,LZ
;TYPE=PLATED
T2F00S00C0.02756
T4F00S00C0.03150
T5F00S00C0.03543
%
T02
X00225Y0015
X0039Y0017657
Y0037343
X00225Y0045
X0093Y00425
X0103
X0113
X0123
X01385
X01485
X01585
X01685
X01785
X01885
X01985
X02085
Y00555
X01785
Y00125
X01685
X01585
X01485
X01385
X0123
X0113
X0103
X0093
X01885
X01985
X02085
X02355Y0015
X02455
X02605Y0022
X0268157Y00385
X0287843
X02905Y0022
X03195Y0015
X03295
X03445Y0022
X0352157Y00385
X0329Y0041
X0319
X0245
X0235
X0371843Y00385
X03745Y0022
X0377Y00925
Y01025
Y01125
Y01225
Y0138
Y0148
Y0158
Y0168
Y0178
Y0188
Y0198
Y0208
X0347
Y0198
Y0188
Y0178
Y0168
Y0158
Y0148
Y0138
Y01225
Y01125
Y01025
Y00925
X03295
X03195
Y0067
X03295
Y01185
X03195
Y01445
X03295
X0334Y0178
X0319
X0293
Y0168
Y0158
Y0148
Y0138
Y01225
Y01125
Y01025
Y00925
X0263
Y01025
Y01125
Y01225
Y0138
Y0148
Y0158
Y0168
Y0178
Y0188
Y0198
Y0208
X025
X0235
Y0178
X025
X02455Y01445
X02355
Y01185
X02455
Y00925
X02355
Y0067
X02455
X0293Y0188
Y0198
Y0208
X0319
X0334
X02085Y0204
X01985
X01885
X01785
X01685
X01585
X01485
X01385
X0123
X0113
X0103
X0093
Y0174
X0103
X0113
X0123
X01385
X01485
X01585
X01685
X01785
X01885
X01985
X02085
Y0151
Y0136
Y0123
X01985
X01885
X01785
X01685
X01585
X01485
X01385
X0123
X0113
X0103
X0093
Y01405
Y01505
X00675
Y01405
X0119
Y01505
X0145
Y01405
X01785Y0136
Y0151
Y0093
X01685
X01585
X01485
X01385
X0123
X0113
X0103
X0093
Y007
Y006
X00675
Y007
X0119
Y006
X0145
Y007
X01785Y00705
X02085
Y0093
X01985
X01885
X0039Y0098157
X00225Y00955
Y01255
X00155Y01405
Y01505
X00415Y0151
Y0141
X0039Y0117843
X00415Y00705
Y00605
X00155Y006
Y007
X00225Y01765
X0039Y0179157
Y0198843
X00225Y02065
X00155Y02215
Y02315
X00415Y0232
Y0222
X0039Y0260157
X00225Y02575
Y02875
X00155Y03025
Y03125
X00415Y0313
Y0303
X0039Y0279843
X00385Y0340157
X0022Y03375
Y03675
X00385Y0359843
X00925Y0365
X01025
X01125
X01225
X0138
X0148
X0158
X0168
X0178
X0188
X0198
X0208
Y0335
X0198
X0188
X0178
X0168
X0158
X0148
X0138
X01225
X01125
X01025
X00925
X0093Y03125
Y03025
Y0285
X0103
X0113
X0123
X01385
X01485
X01585
X01685
X01785
X01885
X01985
X02085
Y0298
Y0313
X01785
Y0298
X0145Y03025
Y03125
X0119
Y03025
X00675
Y03125
Y02315
Y02215
X0093
Y02315
Y0255
X0103
X0113
X0123
X01385
X01485
X01585
X01685
X01785
X01885
X01985
X02085
Y0232
Y0217
X01785
Y0232
X0145Y02315
Y02215
X0119
Y02315
X0249Y0227937
Y0237937
X02415Y0250437
X0251658Y0263937
X0271342Y0263937
X02715Y0250437
X0287Y0253095
X02865Y0237937
Y0227937
X0279Y0232937
X0287Y0272779
X0288Y0288437
Y0298437
X02805Y0293437
X02715Y0277437
X02415
X02475Y0289437
Y0299437
X0249Y0319437
Y0329437
X02415Y0341937
X0251658Y0355437
X0271342Y0355437
X02715Y0341937
X0287Y0344595
X02865Y0329437
Y0319437
X0279Y0324437
X0287Y036428
X0335157Y0355437
X0354842Y0355437
X0355Y0341937
X03625Y0324437
X0364Y0293437
X0355Y0277437
X0354842Y0263937
X0355Y0250437
X03625Y0232937
X03325Y0227937
Y0237937
X0325Y0250437
X0335157Y0263937
X0325Y0277437
X0331Y0289437
Y0299437
X03325Y0319437
Y0329437
X0325Y0341937
X03705Y0344595
X037Y0329437
Y0319437
X03715Y0298437
Y0288437
X03705Y0272779
X03705Y0253095
X037Y0237937
Y0227937
X03705Y036428
X03715Y0379937
Y0389937
X0364Y0384937
X0355Y0368937
X0325
X0331Y0380937
Y0390937
X0288Y0389937
Y0379937
X02805Y0384937
X02715Y0368937
X02415
X02475Y0380937
Y0390937
X0208Y0393
Y0378
X0178
Y0393
X01445Y03925
Y03825
X01185
Y03925
X00925
Y03825
X0067
Y03925
X0041Y0393
Y0383
X0015Y03825
Y03925
T04
X0055658Y0016157
Y0035843
X0075343Y0026
X0269657Y0055158
X0289343
X0353657
X0373343
X03635Y0074843
X02795
X0075343Y01065
Y01875
X0055658Y0197343
Y0177657
Y0116343
Y0096657
Y0258657
Y0278343
X0055158Y0338657
Y0358343
X0074843Y03485
X0075343Y02685
T05
X00095Y002
Y003
X02755Y0009
X02855
X03595
X03695
X00095Y01005
Y01105
Y01815
Y01915
Y02625
Y02725
X0009Y03425
Y03525
X0268Y0299437
Y0289437
X03515
Y0299437
Y0380937
Y0390937
X0268
Y0380937
M30
